<?xml version="1.0" encoding="UTF-8" standalone="no"?>
<svg
   id="Livello_2"
   width="166.069210525367652mm"
   height="56.899732943160657mm"
   viewBox="0 0 470.74737548828125 161.290583993505606"
   version="1.1"
   sodipodi:docname="Risorsa 1.svg"
   inkscape:version="1.3.2 (091e20e, 2023-11-25)"
   xmlns:inkscape="http://www.inkscape.org/namespaces/inkscape"
   xmlns:sodipodi="http://sodipodi.sourceforge.net/DTD/sodipodi-0.dtd"
   xmlns="http://www.w3.org/2000/svg"
   xmlns:svg="http://www.w3.org/2000/svg">
  <sodipodi:namedview
     id="namedview51"
     pagecolor="#ffffff"
     bordercolor="#000000"
     borderopacity="0.25"
     inkscape:showpageshadow="2"
     inkscape:pageopacity="0.0"
     inkscape:pagecheckerboard="0"
     inkscape:deskcolor="#d1d1d1"
     inkscape:document-units="mm"
     inkscape:zoom="1.542275"
     inkscape:cx="310.90435"
     inkscape:cy="184.14355"
     inkscape:current-layer="Livello_2" />
  <defs
     id="defs1">
    <style
       id="style1">
      .cls-1 {
        fill: #3c3c3b;
      }

      .cls-2 {
        fill: #36a9e1;
      }

      .cls-3 {
        fill: #fff;
      }
    </style>
  </defs>
  <g
     id="g51">
    <path
       class="cls-1"
       d="m 0,161.02887 v -11.43946 h 1.144043 v 11.43946 z"
       id="path1" />
    <path
       class="cls-1"
       d="m 5.4594727,149.58941 v 10.36133 h 6.3574223 v 1.07813 H 4.3154297 v -11.43946 z"
       id="path2" />
    <path
       class="cls-1"
       d="m 14.825684,149.58941 v 10.36133 h 6.357421 v 1.07813 h -7.501464 v -11.43946 z"
       id="path3" />
    <path
       class="cls-1"
       d="m 31.594727,149.58941 v 6.97852 c 0,3.08789 -2.026368,4.57519 -4.510254,4.57519 -2.483887,0 -4.575684,-1.4873 -4.575684,-4.57519 v -6.97852 h 1.144043 v 6.97852 c 0,2.17285 1.486816,3.51269 3.431641,3.51269 1.732422,0 3.366699,-1.12695 3.366699,-3.51269 v -6.97852 z"
       id="path4" />
    <path
       class="cls-1"
       d="m 44.655273,151.27301 -4.265625,6.27539 h -0.32666 l -4.281738,-6.35743 v 9.8379 h -1.144043 v -11.43946 h 1.405762 l 4.183593,6.30762 4.134278,-6.30762 h 1.438476 v 11.43946 h -1.144043 z"
       id="path5" />
    <path
       class="cls-1"
       d="m 48.972656,161.02887 v -11.43946 h 1.144043 v 11.43946 z"
       id="path6" />
    <path
       class="cls-1"
       d="m 61.410156,158.87164 -0.06494,-3.79102 v -5.49121 h 1.143555 v 11.43946 h -0.686036 l -7.40332,-9.2002 0.03272,3.38281 v 5.81739 h -1.144043 v -11.43946 h 0.719238 z"
       id="path7" />
    <path
       class="cls-1"
       d="m 73.441406,158.3814 h -6.635254 l -1.176269,2.64747 H 64.42041 l 5.131348,-11.43946 h 1.144043 l 5.131347,11.43946 h -1.209472 z m -6.177734,-1.04589 h 5.719726 l -2.859863,-6.50391 z"
       id="path8" />
    <path
       class="cls-1"
       d="m 81.517578,161.02887 v -11.43946 h 1.144043 v 11.43946 z"
       id="path9" />
    <path
       class="cls-1"
       d="m 86.976562,149.58941 v 10.36133 h 6.357422 v 1.07813 H 85.83252 v -11.43946 z"
       id="path10" />
    <path
       class="cls-1"
       d="m 101.21387,150.66754 h -4.036136 v -1.07813 h 9.216796 v 1.07813 h -4.03662 v 10.36133 h -1.14404 z"
       id="path11" />
    <path
       class="cls-1"
       d="m 117.19873,149.58941 v 6.97852 c 0,3.08789 -2.02637,4.57519 -4.51025,4.57519 -2.48389,0 -4.57569,-1.4873 -4.57569,-4.57519 v -6.97852 h 1.14405 v 6.97852 c 0,2.17285 1.48681,3.51269 3.43164,3.51269 1.73242,0 3.3667,-1.12695 3.3667,-3.51269 v -6.97852 z"
       id="path12" />
    <path
       class="cls-1"
       d="m 131.09277,155.34137 c -0.0166,2.99121 -1.91211,5.90039 -5.78515,5.90039 -3.88965,0 -5.80176,-2.90918 -5.80176,-5.91602 0,-3.21973 2.0918,-5.93262 5.80176,-5.93262 3.87304,0.0166 5.80127,2.89258 5.78515,5.94825 z m -5.78515,4.82128 c 3.12109,0 4.62451,-2.36914 4.64111,-4.82128 0,-2.56543 -1.52002,-4.85352 -4.64111,-4.86915 -3.07227,0 -4.69043,2.17286 -4.65772,4.86915 0.0327,2.50097 1.53614,4.82128 4.65772,4.82128 z"
       id="path13" />
    <path
       class="cls-1"
       d="m 147.81445,151.27301 -4.26562,6.27539 h -0.32666 l -4.28174,-6.35743 v 9.8379 h -1.14404 v -11.43946 h 1.40576 l 4.18359,6.30762 4.13428,-6.30762 h 1.43848 v 11.43946 h -1.14405 z"
       id="path14" />
    <path
       class="cls-1"
       d="m 162.9834,155.34137 c -0.0166,2.99121 -1.91211,5.90039 -5.78516,5.90039 -3.88965,0 -5.80176,-2.90918 -5.80176,-5.91602 0,-3.21973 2.0918,-5.93262 5.80176,-5.93262 3.87305,0.0166 5.80127,2.89258 5.78516,5.94825 z m -5.78516,4.82128 c 3.1211,0 4.62451,-2.36914 4.64112,-4.82128 0,-2.56543 -1.52002,-4.85352 -4.64112,-4.86915 -3.07226,0 -4.69043,2.17286 -4.65771,4.86915 0.0327,2.50097 1.53613,4.82128 4.65771,4.82128 z"
       id="path15" />
    <path
       class="cls-1"
       d="m 173.54346,158.87164 -0.0649,-3.79102 v -5.49121 h 1.14355 v 11.43946 h -0.68603 l -7.40333,-9.2002 0.0327,3.38281 v 5.81739 h -1.14404 v -11.43946 h 0.71923 z"
       id="path16" />
    <path
       class="cls-1"
       d="m 181.83154,149.58941 c 3.87305,0 5.73633,2.77832 5.73633,5.60547 0,2.89258 -1.73242,5.83399 -5.73633,5.83399 h -4.03662 v -11.43946 z m -2.89258,10.37696 h 2.89258 c 3.18701,0 4.625,-2.4834 4.57569,-4.78809 -0.0488,-2.22266 -1.48682,-4.51074 -4.57569,-4.51074 h -2.89258 z"
       id="path17" />
    <path
       class="cls-1"
       d="m 200.87354,155.34137 c -0.0166,2.99121 -1.91211,5.90039 -5.78516,5.90039 -3.88965,0 -5.80176,-2.90918 -5.80176,-5.91602 0,-3.21973 2.0918,-5.93262 5.80176,-5.93262 3.87305,0.0166 5.80127,2.89258 5.78516,5.94825 z m -5.78516,4.82128 c 3.12109,0 4.62451,-2.36914 4.64111,-4.82128 0,-2.56543 -1.52002,-4.85352 -4.64111,-4.86915 -3.07227,0 -4.69043,2.17286 -4.65772,4.86915 0.0327,2.50097 1.53614,4.82128 4.65772,4.82128 z"
       id="path18" />
    <path
       class="cls-1"
       d="m 216.97412,159.47613 c -1.16016,1.16016 -2.63086,1.73242 -4.16748,1.73242 -3.95459,0 -5.93213,-2.64746 -5.94824,-5.83398 -0.0166,-3.1211 1.97754,-5.94824 5.94824,-5.94824 1.52002,0 3.05615,0.53906 4.05322,1.71582 l -0.70263,0.70214 c -0.93164,-0.91503 -2.12452,-1.37207 -3.35059,-1.37207 -3.18652,0 -4.8042,2.35254 -4.8042,4.88575 0,2.68066 1.61768,4.78808 4.8042,4.78808 1.22607,0 2.51709,-0.49023 3.43213,-1.40527 z"
       id="path19" />
    <path
       class="cls-1"
       d="m 229.74023,155.34137 c -0.0166,2.99121 -1.91211,5.90039 -5.78515,5.90039 -3.88965,0 -5.80176,-2.90918 -5.80176,-5.91602 0,-3.21973 2.0918,-5.93262 5.80176,-5.93262 3.87304,0.0166 5.80127,2.89258 5.78515,5.94825 z m -5.78515,4.82128 c 3.12109,0 4.62451,-2.36914 4.64111,-4.82128 0,-2.56543 -1.52002,-4.85352 -4.64111,-4.86915 -3.07227,0 -4.69043,2.17286 -4.65772,4.86915 0.0327,2.50097 1.53614,4.82128 4.65772,4.82128 z"
       id="path20" />
    <path
       class="cls-1"
       d="m 240.2998,158.87164 -0.0649,-3.79102 v -5.49121 h 1.14356 v 11.43946 h -0.68604 l -7.40332,-9.2002 0.0327,3.38281 v 5.81739 h -1.14405 v -11.43946 h 0.71924 z"
       id="path21" />
    <path
       class="cls-1"
       d="m 251.26953,151.2398 h -3.75879 v -1.65039 h 9.34766 v 1.65039 h -3.74219 v 9.78907 h -1.84668 z"
       id="path22" />
    <path
       class="cls-1"
       d="m 268.44727,161.02887 h -2.14063 l -3.48096,-3.95508 h -2.41845 v 3.95508 h -1.83057 v -11.45606 c 1.78125,0 3.54639,0.0166 5.32764,0.0166 2.64746,0 4.03662,1.81348 4.03662,3.74219 0,1.63477 -0.8501,3.23633 -3.10498,3.5625 l 3.41552,3.80762 z m -8.04004,-9.77247 v 4.15039 h 3.48095 c 1.51953,0 2.18946,-0.96386 2.18946,-2.04199 0,-1.03027 -0.66993,-2.1084 -2.17334,-2.1084 z"
       id="path23" />
    <path
       class="cls-1"
       d="m 278.28809,158.62652 h -6.19385 l -1.07862,2.40235 h -1.94482 l 5.13135,-11.43946 h 1.99414 l 5.13135,11.43946 h -1.94483 z m -3.08887,-7.1084 -2.41846,5.44141 h 4.83692 z"
       id="path24" />
    <path
       class="cls-1"
       d="m 289.55078,152.12262 c -0.53906,-0.78418 -1.63428,-1.25879 -2.82715,-1.2754 -1.53613,0 -2.64746,0.6377 -2.64746,1.73243 0,1.11132 1.2749,1.42187 2.77832,1.63476 2.35303,0.32617 4.59229,0.98047 4.59229,3.5459 -0.0166,2.56543 -2.35352,3.53027 -4.73926,3.53027 -2.18994,0 -3.87305,-0.66992 -4.91895,-2.59863 l 1.37256,-0.91504 c 0.8169,1.38867 2.23877,1.87891 3.5625,1.87891 1.37256,0 2.89258,-0.45703 2.89258,-1.89551 0,-1.24219 -1.32373,-1.66699 -2.92529,-1.87891 -2.27149,-0.31054 -4.42871,-0.88281 -4.42871,-3.33398 -0.0161,-2.37012 2.35351,-3.28516 4.41259,-3.28516 1.6504,0 3.30079,0.39258 4.26514,1.92871 z"
       id="path25" />
    <path
       class="cls-1"
       d="m 295.33838,157.51519 v 3.51368 h -1.83057 v -11.43946 c 1.74854,0 3.54639,-0.0166 5.29492,-0.0166 5.4585,0 5.47461,7.91016 0,7.94238 z m 0,-1.68359 h 3.46435 c 3.02344,0 3.00684,-4.5752 0,-4.5752 h -3.46435 z"
       id="path26" />
    <path
       class="cls-1"
       d="m 311.91211,158.62652 h -6.19385 l -1.07861,2.40235 h -1.94483 l 5.13135,-11.43946 h 1.99414 l 5.13135,11.43946 h -1.94482 z m -3.08887,-7.1084 -2.41845,5.44141 h 4.83691 z"
       id="path27" />
    <path
       class="cls-1"
       d="m 326.41016,161.02887 h -2.14063 l -3.48096,-3.95508 h -2.41845 v 3.95508 h -1.83057 v -11.45606 c 1.78125,0 3.54639,0.0166 5.32764,0.0166 2.64746,0 4.03662,1.81348 4.03662,3.74219 0,1.63477 -0.8501,3.23633 -3.10498,3.5625 l 3.41553,3.80762 z m -8.04004,-9.77247 v 4.15039 h 3.48095 c 1.51954,0 2.18946,-0.96386 2.18946,-2.04199 0,-1.03027 -0.66992,-2.1084 -2.17334,-2.1084 z"
       id="path28" />
    <path
       class="cls-1"
       d="m 336.77393,161.02887 h -8.44922 v -11.43946 h 8.3999 v 1.78125 h -6.56934 v 3.08887 h 6.30811 v 1.69922 h -6.30811 v 3.07226 h 6.61866 z"
       id="path29" />
    <path
       class="cls-1"
       d="m 347.02344,157.72808 v -8.13867 h 1.83008 v 11.43946 h -1.38916 l -6.4878,-8.07325 v 8.07325 h -1.84668 v -11.43946 h 1.40576 z"
       id="path30" />
    <path
       class="cls-1"
       d="m 354.33105,151.2398 h -3.75878 v -1.65039 h 9.34765 v 1.65039 h -3.74219 v 9.78907 h -1.84668 z"
       id="path31" />
    <path
       class="cls-1"
       d="m 370.0874,161.02887 h -8.44922 v -11.43946 h 8.39991 v 1.78125 h -6.56934 v 3.08887 h 6.30811 v 1.69922 h -6.30811 v 3.07226 h 6.61865 z"
       id="path32" />
    <path
       class="cls-1"
       d="m 386.25293,159.47613 c -1.16016,1.16016 -2.63086,1.73242 -4.16748,1.73242 -3.95459,0 -5.93213,-2.64746 -5.94824,-5.83398 -0.0166,-3.1211 1.97754,-5.94824 5.94824,-5.94824 1.52002,0 3.05615,0.53906 4.05322,1.71582 l -0.70263,0.70214 c -0.93165,-0.91503 -2.12452,-1.37207 -3.35059,-1.37207 -3.18652,0 -4.8042,2.35254 -4.8042,4.88575 0,2.68066 1.61768,4.78808 4.8042,4.78808 1.22607,0 2.51709,-0.49023 3.43213,-1.40527 z"
       id="path33" />
    <path
       class="cls-1"
       d="m 397.82617,161.02887 h -1.4873 l -3.79151,-4.21583 h -2.958 v 4.21583 h -1.14405 v -11.43946 h 5.13184 c 2.54931,0 3.7749,1.69922 3.79101,3.62793 0.0166,1.78125 -1.02929,3.39942 -3.44824,3.51367 z m -8.23681,-10.36133 v 5.0664 h 3.92236 c 1.83008,0 2.71289,-1.07812 2.71289,-2.5166 0,-1.43847 -0.88281,-2.5498 -2.64746,-2.5498 z"
       id="path34" />
    <path
       class="cls-1"
       d="m 408.22217,161.02887 h -8.2041 v -11.43946 h 8.05713 v 1.07813 h -6.91309 v 4.10254 h 6.60254 v 1.06152 h -6.60254 v 4.11914 h 7.06006 z"
       id="path35" />
    <path
       class="cls-1"
       d="m 418.50439,158.3814 h -6.63525 l -1.17627,2.64747 h -1.20947 l 5.13135,-11.43946 h 1.14404 l 5.13135,11.43946 h -1.20948 z m -6.17773,-1.04589 h 5.71973 l -2.85987,-6.50391 z"
       id="path36" />
    <path
       class="cls-1"
       d="m 424.45508,150.66754 h -4.03613 v -1.07813 h 9.21679 v 1.07813 h -4.03662 v 10.36133 h -1.14404 z"
       id="path37" />
    <path
       class="cls-1"
       d="m 431.48437,161.02887 v -11.43946 h 1.14405 v 11.43946 z"
       id="path38" />
    <path
       class="cls-1"
       d="m 440.76807,161.06109 h -1.27491 l -4.86962,-11.47168 h 1.2583 l 4.24902,10.21387 4.18359,-10.21387 h 1.27442 z"
       id="path39" />
    <path
       class="cls-1"
       d="m 447.60156,161.02887 v -11.43946 h 1.14405 v 11.43946 z"
       id="path40" />
    <path
       class="cls-1"
       d="m 454.62939,150.66754 h -4.03662 v -1.07813 h 9.21729 v 1.07813 h -4.03662 v 10.36133 h -1.14405 z"
       id="path41" />
    <path
       class="cls-1"
       d="m 468.35937,158.3814 h -6.63525 l -1.17627,2.64747 h -1.20947 l 5.13135,-11.43946 h 1.14404 l 5.13135,11.43946 h -1.20948 z m -6.17773,-1.04589 h 5.71973 l -2.85987,-6.50391 z m 0.80078,-11.03125 h 1.34033 l 1.20948,2.02636 v 0.0654 h -1.02979 l -1.52002,-2.05859 z"
       id="path42" />
  </g>
  <g
     id="g53">
    <polygon
       class="cls-2"
       points="360.71594,58.705688 339.3761,82.231079 360.71594,82.231079 "
       id="polygon42" />
    <path
       class="cls-2"
       d="m 361.10168,27.852661 h 23.52637 v 54.378418 h 2.32819 c -0.0889,-1.379761 -0.14362,-2.78833 -0.14362,-4.242187 V 27.981079 h 25.3252 v 50.007813 c 0,14.141601 6.81347,20.054687 17.09765,20.054687 10.28418,0 17.09766,-6.170898 17.09766,-19.797851 V 27.981079 h 24.41425 v -5.89624 C 470.74738,9.8877563 460.85968,0 448.66254,0 H 346.91333 c -12.19714,0 -22.08484,9.8877563 -22.08484,22.084839 v 46.125122 z"
       id="path43" />
    <path
       class="cls-2"
       d="m 429.23547,119.76917 c -16.96887,0 -29.66406,-5.92566 -36.56091,-17.4834 h -8.04651 v 15.55566 h -23.91211 v -15.55566 h -35.88745 v 14.82086 c 0,12.19714 9.8877,22.08484 22.08484,22.08484 h 101.74921 c 12.19714,0 22.08484,-9.8877 22.08484,-22.08484 V 88.777771 c -3.73652,19.975829 -18.87006,30.991399 -41.51191,30.991399 z"
       id="path44" />
    <path
       id="ellipse46"
       class="cls-3"
       transform="rotate(-48.90316)"
       style="fill:#ffffff"
       d="m 219.68914,264.04541 a 9.4798927,4.7399464 0 0 1 -9.4799,4.73995 9.4798927,4.7399464 0 0 1 -9.47989,-4.73995 9.4798927,4.7399464 0 0 1 9.47989,-4.73995 9.4798927,4.7399464 0 0 1 9.4799,4.73995 z" />
  </g>
  <g
     id="g52">
    <path
       class="cls-1"
       d="M 103.96208,28.188058 H 78.512068 V 50.478036 C 74.582075,37.738046 63.102095,28.188058 43.932051,28.188058 H 0.22209012 V 118.17805 H 25.672041 V 93.878061 h 18.26001 c 19.090027,-0.210022 30.630005,-9.25 34.580017,-22.169983 V 118.17805 H 149.46602 L 136.27523,96.578073 H 103.96208 Z M 43.932051,72.40809 H 25.672041 V 50.038095 h 18.26001 c 6.940002,0 10.670044,5.399963 10.670044,11.309998 0,5.919982 -3.600037,11.059997 -10.670044,11.059997 z"
       id="path45" />
    <path
       class="cls-1"
       d="M 217.44543,49.528085 V 28.188058 h -69.51001 v 89.989992 h 69.51001 V 96.708078 H 172.99542 V 83.078073 h 42.56 V 62.378061 h -42.56 V 49.528085 Z"
       id="path46" />
    <polygon
       class="cls-1"
       points="242.89477,118.25391 207.25482,118.25391 239.81481,73.813911 240.46478,72.843941 240.52477,72.743904 240.62481,72.603889 241.5548,71.343941 190.8447,0 224.25468,0 258.34478,48.373909 273.0548,28.263924 307.6148,28.263924 276.32476,71.773933 275.57476,72.813911 322.44482,139.27393 313.13476,139.26392 289.85479,139.26392 258.99481,95.863899 "
       id="polygon46" />
    <path
       class="cls-3"
       d="m 198.30018,3.485796 15.85112,22.169402 c 0,0 -10.58589,-16.1836634 -4.82184,-22.169402 z"
       id="path47" />
    <path
       class="cls-3"
       d="m 163.85447,32.707839 h -11.63893 v 18.899416 c 0,0 1.77355,-15.352311 11.63893,-18.899416 z"
       id="path48" />
    <path
       class="cls-3"
       d="M 286.56211,32.707839 H 274.92318 L 266.99762,43.46 c 0,0 5.34642,-7.253196 19.56449,-10.752161 z"
       id="path49" />
    <path
       class="cls-3"
       d="M 94.353395,32.707839 H 82.714459 v 18.899416 c 0,0 1.773552,-15.352311 11.638936,-18.899416 z"
       id="path50" />
    <path
       class="cls-3"
       d="M 13.102535,32.707839 H 4.5673154 v 16.072817 c 0,0 1.3006049,-13.056217 8.5352196,-16.072817 z"
       id="path51" />
  </g>
</svg>
