0
SECTION
2
HEADER
9
$ACADVER
1
AC1009
0
ENDSEC
0
SECTION
2
TABLES
0
TABLE
2
VPORT
70
1
0
VPORT
2
ACTIVE
70
0
10
0.0
20
0.0
11
0.0
21
0.0
12
0.0
22
0.0
13
0.0
23
0.0
14
0.0
24
0.0
15
0.0
25
0.0
16
0.0
26
0.0
36
0.0
17
0.0
27
0.0
37
0.0
40
0.0
41
0.0
42
0.0
43
0.0
44
0.0
50
0.0
51
0.0
71
0
72
1000
73
1
74
3
75
0
76
0
77
0
78
0
0
ENDTAB
0
ENDSEC
0
SECTION
2
ENTITIES
0
LINE
8
boundary
62
5
39
2
10
55.244196
20
9.787044
11
55.798017
21
10.374312
0
LINE
8
boundary
62
5
39
2
10
55.798017
20
10.374312
11
56.309524
21
11.012695
0
LINE
8
boundary
62
5
39
2
10
56.309524
20
11.012695
11
56.773102
21
11.701963
0
LINE
8
boundary
62
5
39
2
10
56.773102
20
11.701963
11
57.182632
21
12.441910
0
LINE
8
boundary
62
5
39
2
10
57.182632
20
12.441910
11
57.532161
21
13.232518
0
LINE
8
boundary
62
5
39
2
10
57.532161
20
13.232518
11
57.815946
21
14.073647
0
LINE
8
boundary
62
5
39
2
10
57.815946
20
14.073647
11
58.027939
21
14.965203
0
LINE
8
boundary
62
5
39
2
10
58.027939
20
14.965203
11
58.114295
21
15.483662
0
LINE
8
boundary
62
5
39
2
10
58.114295
20
15.483662
11
58.198495
21
16.397428
0
LINE
8
boundary
62
5
39
2
10
58.198495
20
16.397428
11
58.214680
21
16.958502
0
LINE
8
boundary
62
5
39
2
10
58.214680
20
16.958502
11
58.204126
21
17.475592
0
LINE
8
boundary
62
5
39
2
10
58.204126
20
17.475592
11
58.170304
21
18.005576
0
LINE
8
boundary
62
5
39
2
10
58.170304
20
18.005576
11
58.112412
21
18.548587
0
LINE
8
boundary
62
5
39
2
10
58.112412
20
18.548587
11
58.029688
21
19.104523
0
LINE
8
boundary
62
5
39
2
10
58.029688
20
19.104523
11
57.933591
21
19.607322
0
LINE
8
boundary
62
5
39
2
10
57.933591
20
19.607322
11
57.802088
21
20.187971
0
LINE
8
boundary
62
5
39
2
10
57.802088
20
20.187971
11
57.643450
21
20.782078
0
LINE
8
boundary
62
5
39
2
10
57.643450
20
20.782078
11
57.457181
21
21.389650
0
LINE
8
boundary
62
5
39
2
10
57.457181
20
21.389650
11
57.242129
21
22.010942
0
LINE
8
boundary
62
5
39
2
10
57.242129
20
22.010942
11
56.997768
21
22.646132
0
LINE
8
boundary
62
5
39
2
10
56.997768
20
22.646132
11
56.332935
21
23.047303
0
LINE
8
boundary
62
5
39
2
10
56.332935
20
23.047303
11
55.612324
21
23.452005
0
LINE
8
boundary
62
5
39
2
10
55.612324
20
23.452005
11
54.892007
21
23.895592
0
LINE
8
boundary
62
5
39
2
10
54.892007
20
23.895592
11
54.172434
21
24.377677
0
LINE
8
boundary
62
5
39
2
10
54.172434
20
24.377677
11
53.453871
21
24.897905
0
LINE
8
boundary
62
5
39
2
10
53.453871
20
24.897905
11
52.736749
21
25.455817
0
LINE
8
boundary
62
5
39
2
10
52.736749
20
25.455817
11
52.021312
21
26.050944
0
LINE
8
boundary
62
5
39
2
10
52.021312
20
26.050944
11
51.308016
21
26.683013
0
LINE
8
boundary
62
5
39
2
10
51.308016
20
26.683013
11
50.596957
21
27.351475
0
LINE
8
boundary
62
5
39
2
10
50.596957
20
27.351475
11
49.888727
21
28.055852
0
LINE
8
boundary
62
5
39
2
10
49.888727
20
28.055852
11
49.183459
21
28.795648
0
LINE
8
boundary
62
5
39
2
10
49.183459
20
28.795648
11
48.481639
21
29.570356
0
LINE
8
boundary
62
5
39
2
10
48.481639
20
29.570356
11
47.783485
21
30.379497
0
LINE
8
boundary
62
5
39
2
10
47.783485
20
30.379497
11
47.089196
21
31.222582
0
LINE
8
boundary
62
5
39
2
10
47.089196
20
31.222582
11
46.399302
21
32.099026
0
LINE
8
boundary
62
5
39
2
10
46.399302
20
32.099026
11
45.714101
21
33.008228
0
LINE
8
boundary
62
5
39
2
10
45.714101
20
33.008228
11
45.033873
21
33.949733
0
LINE
8
boundary
62
5
39
2
10
45.033873
20
33.949733
11
44.359007
21
34.922895
0
LINE
8
boundary
62
5
39
2
10
44.359007
20
34.922895
11
43.689652
21
35.927160
0
LINE
8
boundary
62
5
39
2
10
43.689652
20
35.927160
11
43.026290
21
36.961927
0
LINE
8
boundary
62
5
39
2
10
43.026290
20
36.961927
11
42.369278
21
38.026606
0
LINE
8
boundary
62
5
39
2
10
42.369278
20
38.026606
11
41.718949
21
39.120610
0
LINE
8
boundary
62
5
39
2
10
41.718949
20
39.120610
11
41.075424
21
40.243297
0
LINE
8
boundary
62
5
39
2
10
41.075424
20
40.243297
11
40.439197
21
41.394078
0
LINE
8
boundary
62
5
39
2
10
40.439197
20
41.394078
11
39.810710
21
42.572333
0
LINE
8
boundary
62
5
39
2
10
39.810710
20
42.572333
11
39.190109
21
43.777413
0
LINE
8
boundary
62
5
39
2
10
39.190109
20
43.777413
11
38.577914
21
45.008710
0
LINE
8
boundary
62
5
39
2
10
38.577914
20
45.008710
11
37.974316
21
46.265601
0
LINE
8
boundary
62
5
39
2
10
37.974316
20
46.265601
11
37.379801
21
47.547458
0
LINE
8
boundary
62
5
39
2
10
37.379801
20
47.547458
11
36.794694
21
48.853641
0
LINE
8
boundary
62
5
39
2
10
36.794694
20
48.853641
11
36.219229
21
50.183486
0
LINE
8
boundary
62
5
39
2
10
36.219229
20
50.183486
11
35.653962
21
51.536400
0
LINE
8
boundary
62
5
39
2
10
35.653962
20
51.536400
11
35.099181
21
52.911738
0
LINE
8
boundary
62
5
39
2
10
35.099181
20
52.911738
11
34.555177
21
54.308887
0
LINE
8
boundary
62
5
39
2
10
34.555177
20
54.308887
11
34.022508
21
55.727213
0
LINE
8
boundary
62
5
39
2
10
34.022508
20
55.727213
11
33.501543
21
57.166093
0
LINE
8
boundary
62
5
39
2
10
33.501543
20
57.166093
11
32.992597
21
58.624904
0
LINE
8
boundary
62
5
39
2
10
32.992597
20
58.624904
11
32.496084
21
60.103025
0
LINE
8
boundary
62
5
39
2
10
32.496084
20
60.103025
11
32.012355
21
61.599880
0
LINE
8
boundary
62
5
39
2
10
32.012355
20
61.599880
11
31.541817
21
63.114803
0
LINE
8
boundary
62
5
39
2
10
31.541817
20
63.114803
11
31.084908
21
64.647277
0
LINE
8
boundary
62
5
39
2
10
31.084908
20
64.647277
11
30.641920
21
66.196709
0
LINE
8
boundary
62
5
39
2
10
30.641920
20
66.196709
11
30.213632
21
67.762446
0
LINE
8
boundary
62
5
39
2
10
30.213632
20
67.762446
11
29.800009
21
69.343995
0
LINE
8
boundary
62
5
39
2
10
29.800009
20
69.343995
11
29.401842
21
70.940725
0
LINE
8
boundary
62
5
39
2
10
29.401842
20
70.940725
11
29.019414
21
72.552088
0
LINE
8
boundary
62
5
39
2
10
29.019414
20
72.552088
11
28.653018
21
74.177564
0
LINE
8
boundary
62
5
39
2
10
28.653018
20
74.177564
11
28.303298
21
75.816596
0
LINE
8
boundary
62
5
39
2
10
28.303298
20
75.816596
11
27.970626
21
77.468681
0
LINE
8
boundary
62
5
39
2
10
27.970626
20
77.468681
11
27.655380
21
79.133268
0
LINE
8
boundary
62
5
39
2
10
27.655380
20
79.133268
11
27.358107
21
80.809861
0
LINE
8
boundary
62
5
39
2
10
27.358107
20
80.809861
11
27.079120
21
82.497935
0
LINE
8
boundary
62
5
39
2
10
27.079120
20
82.497935
11
26.819056
21
84.197050
0
LINE
8
boundary
62
5
39
2
10
26.819056
20
84.197050
11
26.578123
21
85.906765
0
LINE
8
boundary
62
5
39
2
10
26.578123
20
85.906765
11
26.356926
21
87.626511
0
LINE
8
boundary
62
5
39
2
10
26.356926
20
87.626511
11
26.155954
21
89.355841
0
LINE
8
boundary
62
5
39
2
10
26.155954
20
89.355841
11
25.975442
21
91.094392
0
LINE
8
boundary
62
5
39
2
10
25.975442
20
91.094392
11
25.816116
21
92.841712
0
LINE
8
boundary
62
5
39
2
10
25.816116
20
92.841712
11
25.678243
21
94.597345
0
LINE
8
boundary
62
5
39
2
10
25.678243
20
94.597345
11
25.562355
21
96.360881
0
LINE
8
boundary
62
5
39
2
10
25.562355
20
96.360881
11
25.468857
21
98.131995
0
LINE
8
boundary
62
5
39
2
10
25.468857
20
98.131995
11
25.398073
21
99.910218
0
LINE
8
boundary
62
5
39
2
10
25.398073
20
99.910218
11
25.350641
21
101.695235
0
LINE
8
boundary
62
5
39
2
10
25.350641
20
101.695235
11
25.326951
21
103.486596
0
LINE
8
boundary
62
5
39
2
10
25.326951
20
103.486596
11
25.228508
21
104.989433
0
LINE
8
boundary
62
5
39
2
10
25.228508
20
104.989433
11
25.120642
21
106.414151
0
LINE
8
boundary
62
5
39
2
10
25.120642
20
106.414151
11
25.025744
21
107.832207
0
LINE
8
boundary
62
5
39
2
10
25.025744
20
107.832207
11
24.943918
21
109.243565
0
LINE
8
boundary
62
5
39
2
10
24.943918
20
109.243565
11
24.874979
21
110.648392
0
LINE
8
boundary
62
5
39
2
10
24.874979
20
110.648392
11
24.818646
21
112.046745
0
LINE
8
boundary
62
5
39
2
10
24.818646
20
112.046745
11
24.751473
21
114.547838
0
LINE
8
boundary
62
5
39
2
10
24.751473
20
114.547838
11
24.738210
21
115.101010
0
LINE
8
boundary
62
5
39
2
10
24.738210
20
115.101010
11
24.720731
21
117.303166
0
LINE
8
boundary
62
5
39
2
10
24.720731
20
117.303166
11
24.717249
21
117.850214
0
LINE
8
boundary
62
5
39
2
10
24.717249
20
117.850214
11
24.738232
21
120.034275
0
LINE
8
boundary
62
5
39
2
10
24.738232
20
120.034275
11
24.744299
21
120.574536
0
LINE
8
boundary
62
5
39
2
10
24.744299
20
120.574536
11
24.802836
21
122.741702
0
LINE
8
boundary
62
5
39
2
10
24.802836
20
122.741702
11
24.818124
21
123.274617
0
LINE
8
boundary
62
5
39
2
10
24.818124
20
123.274617
11
24.913250
21
125.426188
0
LINE
8
boundary
62
5
39
2
10
24.913250
20
125.426188
11
24.937391
21
125.951215
0
LINE
8
boundary
62
5
39
2
10
24.937391
20
125.951215
11
25.068457
21
128.088213
0
LINE
8
boundary
62
5
39
2
10
25.068457
20
128.088213
11
25.101057
21
128.604836
0
LINE
8
boundary
62
5
39
2
10
25.101057
20
128.604836
11
25.267178
21
130.728281
0
LINE
8
boundary
62
5
39
2
10
25.267178
20
130.728281
11
25.307854
21
131.236023
0
LINE
8
boundary
62
5
39
2
10
25.307854
20
131.236023
11
25.508017
21
133.347092
0
LINE
8
boundary
62
5
39
2
10
25.508017
20
133.347092
11
25.789676
21
135.945152
0
LINE
8
boundary
62
5
39
2
10
25.789676
20
135.945152
11
26.110817
21
138.522996
0
LINE
8
boundary
62
5
39
2
10
26.110817
20
138.522996
11
26.470120
21
141.081225
0
LINE
8
boundary
62
5
39
2
10
26.470120
20
141.081225
11
26.866051
21
143.620276
0
LINE
8
boundary
62
5
39
2
10
26.866051
20
143.620276
11
27.297429
21
146.140744
0
LINE
8
boundary
62
5
39
2
10
27.297429
20
146.140744
11
27.762684
21
148.643117
0
LINE
8
boundary
62
5
39
2
10
27.762684
20
148.643117
11
28.260325
21
151.127923
0
LINE
8
boundary
62
5
39
2
10
28.260325
20
151.127923
11
28.788792
21
153.595613
0
LINE
8
boundary
62
5
39
2
10
28.788792
20
153.595613
11
29.346719
21
156.046707
0
LINE
8
boundary
62
5
39
2
10
29.346719
20
156.046707
11
29.932595
21
158.481607
0
LINE
8
boundary
62
5
39
2
10
29.932595
20
158.481607
11
30.544875
21
160.900745
0
LINE
8
boundary
62
5
39
2
10
30.544875
20
160.900745
11
31.181849
21
163.304637
0
LINE
8
boundary
62
5
39
2
10
31.181849
20
163.304637
11
31.842227
21
165.693598
0
LINE
8
boundary
62
5
39
2
10
31.842227
20
165.693598
11
32.524491
21
168.068089
0
LINE
8
boundary
62
5
39
2
10
32.524491
20
168.068089
11
33.226924
21
170.428506
0
LINE
8
boundary
62
5
39
2
10
33.226924
20
170.428506
11
33.948148
21
172.775153
0
LINE
8
boundary
62
5
39
2
10
33.948148
20
172.775153
11
34.686437
21
175.108428
0
LINE
8
boundary
62
5
39
2
10
34.686437
20
175.108428
11
35.440354
21
177.428660
0
LINE
8
boundary
62
5
39
2
10
35.440354
20
177.428660
11
36.208555
21
179.736131
0
LINE
8
boundary
62
5
39
2
10
36.208555
20
179.736131
11
36.989273
21
182.031219
0
LINE
8
boundary
62
5
39
2
10
36.989273
20
182.031219
11
37.781124
21
184.314187
0
LINE
8
boundary
62
5
39
2
10
37.781124
20
184.314187
11
38.582495
21
186.585268
0
LINE
8
boundary
62
5
39
2
10
38.582495
20
186.585268
11
39.392199
21
188.844787
0
LINE
8
boundary
62
5
39
2
10
39.392199
20
188.844787
11
40.208382
21
191.093002
0
LINE
8
boundary
62
5
39
2
10
40.208382
20
191.093002
11
41.029963
21
193.330049
0
LINE
8
boundary
62
5
39
2
10
41.029963
20
193.330049
11
41.855301
21
195.556240
0
LINE
8
boundary
62
5
39
2
10
41.855301
20
195.556240
11
42.683086
21
197.771745
0
LINE
8
boundary
62
5
39
2
10
42.683086
20
197.771745
11
44.257949
21
201.954132
0
LINE
8
boundary
62
5
39
2
10
44.257949
20
201.954132
11
45.914054
21
206.328334
0
LINE
8
boundary
62
5
39
2
10
45.914054
20
206.328334
11
47.553632
21
210.662092
0
LINE
8
boundary
62
5
39
2
10
47.553632
20
210.662092
11
49.166618
21
214.956491
0
LINE
8
boundary
62
5
39
2
10
49.166618
20
214.956491
11
50.743733
21
219.212238
0
LINE
8
boundary
62
5
39
2
10
50.743733
20
219.212238
11
53.647534
21
227.318520
0
LINE
8
boundary
62
5
39
2
10
53.647534
20
227.318520
11
53.852523
21
227.885470
0
LINE
8
boundary
62
5
39
2
10
53.852523
20
227.885470
11
56.434866
21
235.610874
0
LINE
8
boundary
62
5
39
2
10
56.434866
20
235.610874
11
56.599524
21
236.098052
0
LINE
8
boundary
62
5
39
2
10
56.599524
20
236.098052
11
57.795152
21
239.932451
0
LINE
8
boundary
62
5
39
2
10
57.795152
20
239.932451
11
58.987383
21
243.967431
0
LINE
8
boundary
62
5
39
2
10
58.987383
20
243.967431
11
60.092472
21
247.966727
0
LINE
8
boundary
62
5
39
2
10
60.092472
20
247.966727
11
60.635649
21
250.045104
0
LINE
8
boundary
62
5
39
2
10
60.635649
20
250.045104
11
61.128039
21
252.019163
0
LINE
8
boundary
62
5
39
2
10
61.128039
20
252.019163
11
61.867380
21
255.173847
0
LINE
8
boundary
62
5
39
2
10
61.867380
20
255.173847
11
62.578401
21
258.475783
0
LINE
8
boundary
62
5
39
2
10
62.578401
20
258.475783
11
62.929372
21
260.225386
0
LINE
8
boundary
62
5
39
2
10
62.929372
20
260.225386
11
63.252271
21
261.931075
0
LINE
8
boundary
62
5
39
2
10
63.252271
20
261.931075
11
63.560616
21
263.657352
0
LINE
8
boundary
62
5
39
2
10
63.560616
20
263.657352
11
63.853539
21
265.403506
0
LINE
8
boundary
62
5
39
2
10
63.853539
20
265.403506
11
64.130007
21
267.168551
0
LINE
8
boundary
62
5
39
2
10
64.130007
20
267.168551
11
64.389194
21
268.951667
0
LINE
8
boundary
62
5
39
2
10
64.389194
20
268.951667
11
64.630238
21
270.752105
0
LINE
8
boundary
62
5
39
2
10
64.630238
20
270.752105
11
64.852451
21
272.569047
0
LINE
8
boundary
62
5
39
2
10
64.852451
20
272.569047
11
65.054772
21
274.401571
0
LINE
8
boundary
62
5
39
2
10
65.054772
20
274.401571
11
65.236572
21
276.249048
0
LINE
8
boundary
62
5
39
2
10
65.236572
20
276.249048
11
65.397175
21
278.110548
0
LINE
8
boundary
62
5
39
2
10
65.397175
20
278.110548
11
65.535788
21
279.985373
0
LINE
8
boundary
62
5
39
2
10
65.535788
20
279.985373
11
65.651878
21
281.872702
0
LINE
8
boundary
62
5
39
2
10
65.651878
20
281.872702
11
65.744768
21
283.771985
0
LINE
8
boundary
62
5
39
2
10
65.744768
20
283.771985
11
65.813673
21
285.682260
0
LINE
8
boundary
62
5
39
2
10
65.813673
20
285.682260
11
65.858140
21
287.602895
0
LINE
8
boundary
62
5
39
2
10
65.858140
20
287.602895
11
65.877491
21
289.533214
0
LINE
8
boundary
62
5
39
2
10
65.877491
20
289.533214
11
65.871316
21
291.472569
0
LINE
8
boundary
62
5
39
2
10
65.871316
20
291.472569
11
65.838937
21
293.420199
0
LINE
8
boundary
62
5
39
2
10
65.838937
20
293.420199
11
65.779895
21
295.375548
0
LINE
8
boundary
62
5
39
2
10
65.779895
20
295.375548
11
65.693546
21
297.337850
0
LINE
8
boundary
62
5
39
2
10
65.693546
20
297.337850
11
65.579558
21
299.306571
0
LINE
8
boundary
62
5
39
2
10
65.579558
20
299.306571
11
65.437300
21
301.281077
0
LINE
8
boundary
62
5
39
2
10
65.437300
20
301.281077
11
65.266332
21
303.260880
0
LINE
8
boundary
62
5
39
2
10
65.266332
20
303.260880
11
65.066208
21
305.245103
0
LINE
8
boundary
62
5
39
2
10
65.066208
20
305.245103
11
64.836265
21
307.233459
0
LINE
8
boundary
62
5
39
2
10
64.836265
20
307.233459
11
64.576193
21
309.225279
0
LINE
8
boundary
62
5
39
2
10
64.576193
20
309.225279
11
64.285380
21
311.220080
0
LINE
8
boundary
62
5
39
2
10
64.285380
20
311.220080
11
63.963389
21
313.217240
0
LINE
8
boundary
62
5
39
2
10
63.963389
20
313.217240
11
63.609714
21
315.216290
0
LINE
8
boundary
62
5
39
2
10
63.609714
20
315.216290
11
63.223777
21
317.216677
0
LINE
8
boundary
62
5
39
2
10
63.223777
20
317.216677
11
62.805116
21
319.218000
0
LINE
8
boundary
62
5
39
2
10
62.805116
20
319.218000
11
62.353193
21
321.219661
0
LINE
8
boundary
62
5
39
2
10
62.353193
20
321.219661
11
61.867491
21
323.221266
0
LINE
8
boundary
62
5
39
2
10
61.867491
20
323.221266
11
61.347277
21
325.222283
0
LINE
8
boundary
62
5
39
2
10
61.347277
20
325.222283
11
60.792199
21
327.222344
0
LINE
8
boundary
62
5
39
2
10
60.792199
20
327.222344
11
60.201493
21
329.220843
0
LINE
8
boundary
62
5
39
2
10
60.201493
20
329.220843
11
59.574655
21
331.217343
0
LINE
8
boundary
62
5
39
2
10
59.574655
20
331.217343
11
58.910956
21
333.211577
0
LINE
8
boundary
62
5
39
2
10
58.910956
20
333.211577
11
58.209812
21
335.202908
0
LINE
8
boundary
62
5
39
2
10
58.209812
20
335.202908
11
57.838666
21
336.214774
0
LINE
8
boundary
62
5
39
2
10
57.838666
20
336.214774
11
57.464006
21
337.208403
0
LINE
8
boundary
62
5
39
2
10
57.464006
20
337.208403
11
57.079648
21
338.201303
0
LINE
8
boundary
62
5
39
2
10
57.079648
20
338.201303
11
56.685488
21
339.193083
0
LINE
8
boundary
62
5
39
2
10
56.685488
20
339.193083
11
56.281457
21
340.183999
0
LINE
8
boundary
62
5
39
2
10
56.281457
20
340.183999
11
55.867467
21
341.173733
0
LINE
8
boundary
62
5
39
2
10
55.867467
20
341.173733
11
55.443334
21
342.162316
0
LINE
8
boundary
62
5
39
2
10
55.443334
20
342.162316
11
55.009122
21
343.149808
0
LINE
8
boundary
62
5
39
2
10
55.009122
20
343.149808
11
54.564581
21
344.136014
0
LINE
8
boundary
62
5
39
2
10
54.564581
20
344.136014
11
54.109795
21
345.121032
0
LINE
8
boundary
62
5
39
2
10
54.109795
20
345.121032
11
53.644492
21
346.104466
0
LINE
8
boundary
62
5
39
2
10
53.644492
20
346.104466
11
53.168680
21
347.086719
0
LINE
8
boundary
62
5
39
2
10
53.168680
20
347.086719
11
52.682231
21
348.067363
0
LINE
8
boundary
62
5
39
2
10
52.682231
20
348.067363
11
52.185016
21
349.046594
0
LINE
8
boundary
62
5
39
2
10
52.185016
20
349.046594
11
51.677047
21
350.024310
0
LINE
8
boundary
62
5
39
2
10
51.677047
20
350.024310
11
51.158086
21
351.000291
0
LINE
8
boundary
62
5
39
2
10
51.158086
20
351.000291
11
50.628185
21
351.974763
0
LINE
8
boundary
62
5
39
2
10
50.628185
20
351.974763
11
50.087151
21
352.947463
0
LINE
8
boundary
62
5
39
2
10
50.087151
20
352.947463
11
49.534812
21
353.918269
0
LINE
8
boundary
62
5
39
2
10
49.534812
20
353.918269
11
48.971236
21
354.887335
0
LINE
8
boundary
62
5
39
2
10
48.971236
20
354.887335
11
48.396212
21
355.854481
0
LINE
8
boundary
62
5
39
2
10
48.396212
20
355.854481
11
47.809627
21
356.819757
0
LINE
8
boundary
62
5
39
2
10
47.809627
20
356.819757
11
47.211412
21
357.783007
0
LINE
8
boundary
62
5
39
2
10
47.211412
20
357.783007
11
46.601457
21
358.744159
0
LINE
8
boundary
62
5
39
2
10
46.601457
20
358.744159
11
45.979716
21
359.703224
0
LINE
8
boundary
62
5
39
2
10
45.979716
20
359.703224
11
45.346002
21
360.660115
0
LINE
8
boundary
62
5
39
2
10
45.346002
20
360.660115
11
44.700185
21
361.614863
0
LINE
8
boundary
62
5
39
2
10
44.700185
20
361.614863
11
44.042175
21
362.567222
0
LINE
8
boundary
62
5
39
2
10
44.042175
20
362.567222
11
43.372021
21
363.517280
0
LINE
8
boundary
62
5
39
2
10
43.372021
20
363.517280
11
42.689505
21
364.464963
0
LINE
8
boundary
62
5
39
2
10
42.689505
20
364.464963
11
41.994516
21
365.410180
0
LINE
8
boundary
62
5
39
2
10
41.994516
20
365.410180
11
41.286892
21
366.352921
0
LINE
8
boundary
62
5
39
2
10
41.286892
20
366.352921
11
40.566659
21
367.293154
0
LINE
8
boundary
62
5
39
2
10
40.566659
20
367.293154
11
39.833564
21
368.230607
0
LINE
8
boundary
62
5
39
2
10
39.833564
20
368.230607
11
39.087674
21
369.165361
0
LINE
8
boundary
62
5
39
2
10
39.087674
20
369.165361
11
38.328864
21
370.097511
0
LINE
8
boundary
62
5
39
2
10
38.328864
20
370.097511
11
37.556865
21
371.026758
0
LINE
8
boundary
62
5
39
2
10
37.556865
20
371.026758
11
36.771666
21
371.953089
0
LINE
8
boundary
62
5
39
2
10
36.771666
20
371.953089
11
35.973269
21
372.876588
0
LINE
8
boundary
62
5
39
2
10
35.973269
20
372.876588
11
35.161525
21
373.797011
0
LINE
8
boundary
62
5
39
2
10
35.161525
20
373.797011
11
34.882375
21
374.353406
0
LINE
8
boundary
62
5
39
2
10
34.882375
20
374.353406
11
34.650257
21
374.871471
0
LINE
8
boundary
62
5
39
2
10
34.650257
20
374.871471
11
34.443580
21
375.365102
0
LINE
8
boundary
62
5
39
2
10
34.443580
20
375.365102
11
34.254086
21
375.854721
0
LINE
8
boundary
62
5
39
2
10
34.254086
20
375.854721
11
33.970522
21
376.705468
0
LINE
8
boundary
62
5
39
2
10
33.970522
20
376.705468
11
33.771861
21
377.486266
0
LINE
8
boundary
62
5
39
2
10
33.771861
20
377.486266
11
33.661171
21
378.181072
0
LINE
8
boundary
62
5
39
2
10
33.661171
20
378.181072
11
33.633955
21
378.793587
0
LINE
8
boundary
62
5
39
2
10
33.633955
20
378.793587
11
33.685576
21
379.327415
0
LINE
8
boundary
62
5
39
2
10
33.685576
20
379.327415
11
33.901110
21
379.988349
0
LINE
8
boundary
62
5
39
2
10
33.901110
20
379.988349
11
34.268871
21
380.492442
0
LINE
8
boundary
62
5
39
2
10
34.268871
20
380.492442
11
34.773604
21
380.851910
0
LINE
8
boundary
62
5
39
2
10
34.773604
20
380.851910
11
35.400501
21
381.078958
0
LINE
8
boundary
62
5
39
2
10
35.400501
20
381.078958
11
36.134582
21
381.185703
0
LINE
8
boundary
62
5
39
2
10
36.134582
20
381.185703
11
36.676047
21
381.196018
0
LINE
8
boundary
62
5
39
2
10
36.676047
20
381.196018
11
37.254160
21
381.161893
0
LINE
8
boundary
62
5
39
2
10
37.254160
20
381.161893
11
38.166551
21
381.037067
0
LINE
8
boundary
62
5
39
2
10
38.166551
20
381.037067
11
38.816617
21
380.908409
0
LINE
8
boundary
62
5
39
2
10
38.816617
20
380.908409
11
39.488028
21
380.747722
0
LINE
8
boundary
62
5
39
2
10
39.488028
20
380.747722
11
40.176419
21
380.558688
0
LINE
8
boundary
62
5
39
2
10
40.176419
20
380.558688
11
40.877569
21
380.345033
0
LINE
8
boundary
62
5
39
2
10
40.877569
20
380.345033
11
41.587049
21
380.110384
0
LINE
8
boundary
62
5
39
2
10
41.587049
20
380.110384
11
42.300626
21
379.858024
0
LINE
8
boundary
62
5
39
2
10
42.300626
20
379.858024
11
43.013897
21
379.591811
0
LINE
8
boundary
62
5
39
2
10
43.013897
20
379.591811
11
43.722594
21
379.315290
0
LINE
8
boundary
62
5
39
2
10
43.722594
20
379.315290
11
45.082358
21
378.756653
0
LINE
8
boundary
62
5
39
2
10
45.082358
20
378.756653
11
46.401956
21
378.188912
0
LINE
8
boundary
62
5
39
2
10
46.401956
20
378.188912
11
47.619186
21
377.651315
0
LINE
8
boundary
62
5
39
2
10
47.619186
20
377.651315
11
48.428208
21
377.052086
0
LINE
8
boundary
62
5
39
2
10
48.428208
20
377.052086
11
49.229525
21
376.469821
0
LINE
8
boundary
62
5
39
2
10
49.229525
20
376.469821
11
50.037620
21
375.907357
0
LINE
8
boundary
62
5
39
2
10
50.037620
20
375.907357
11
50.852196
21
375.364793
0
LINE
8
boundary
62
5
39
2
10
50.852196
20
375.364793
11
51.672480
21
374.842027
0
LINE
8
boundary
62
5
39
2
10
51.672480
20
374.842027
11
52.498068
21
374.339092
0
LINE
8
boundary
62
5
39
2
10
52.498068
20
374.339092
11
53.328327
21
373.856033
0
LINE
8
boundary
62
5
39
2
10
53.328327
20
373.856033
11
54.162547
21
373.392845
0
LINE
8
boundary
62
5
39
2
10
54.162547
20
373.392845
11
55.000414
21
372.949556
0
LINE
8
boundary
62
5
39
2
10
55.000414
20
372.949556
11
55.841247
21
372.526100
0
LINE
8
boundary
62
5
39
2
10
55.841247
20
372.526100
11
56.684438
21
372.122526
0
LINE
8
boundary
62
5
39
2
10
56.684438
20
372.122526
11
57.529380
21
371.738831
0
LINE
8
boundary
62
5
39
2
10
57.529380
20
371.738831
11
58.375765
21
371.375227
0
LINE
8
boundary
62
5
39
2
10
58.375765
20
371.375227
11
59.222905
21
371.031476
0
LINE
8
boundary
62
5
39
2
10
59.222905
20
371.031476
11
60.070126
21
370.707566
0
LINE
8
boundary
62
5
39
2
10
60.070126
20
370.707566
11
60.917134
21
370.403613
0
LINE
8
boundary
62
5
39
2
10
60.917134
20
370.403613
11
61.763235
21
370.119592
0
LINE
8
boundary
62
5
39
2
10
61.763235
20
370.119592
11
62.608002
21
369.855550
0
LINE
8
boundary
62
5
39
2
10
62.608002
20
369.855550
11
63.450797
21
369.611378
0
LINE
8
boundary
62
5
39
2
10
63.450797
20
369.611378
11
64.291298
21
369.387112
0
LINE
8
boundary
62
5
39
2
10
64.291298
20
369.387112
11
65.128893
21
369.182819
0
LINE
8
boundary
62
5
39
2
10
65.128893
20
369.182819
11
65.963078
21
368.998443
0
LINE
8
boundary
62
5
39
2
10
65.963078
20
368.998443
11
66.793441
21
368.833944
0
LINE
8
boundary
62
5
39
2
10
66.793441
20
368.833944
11
67.619487
21
368.689344
0
LINE
8
boundary
62
5
39
2
10
67.619487
20
368.689344
11
68.440844
21
368.564633
0
LINE
8
boundary
62
5
39
2
10
68.440844
20
368.564633
11
69.256877
21
368.459787
0
LINE
8
boundary
62
5
39
2
10
69.256877
20
368.459787
11
70.067310
21
368.374834
0
LINE
8
boundary
62
5
39
2
10
70.067310
20
368.374834
11
70.871741
21
368.309661
0
LINE
8
boundary
62
5
39
2
10
70.871741
20
368.309661
11
71.669635
21
368.264358
0
LINE
8
boundary
62
5
39
2
10
71.669635
20
368.264358
11
72.460688
21
368.238783
0
LINE
8
boundary
62
5
39
2
10
72.460688
20
368.238783
11
73.244477
21
368.232983
0
LINE
8
boundary
62
5
39
2
10
73.244477
20
368.232983
11
74.020611
21
368.246940
0
LINE
8
boundary
62
5
39
2
10
74.020611
20
368.246940
11
74.788804
21
368.280649
0
LINE
8
boundary
62
5
39
2
10
74.788804
20
368.280649
11
75.548736
21
368.334043
0
LINE
8
boundary
62
5
39
2
10
75.548736
20
368.334043
11
76.299915
21
368.407090
0
LINE
8
boundary
62
5
39
2
10
76.299915
20
368.407090
11
77.042201
21
368.499701
0
LINE
8
boundary
62
5
39
2
10
77.042201
20
368.499701
11
77.775139
21
368.611901
0
LINE
8
boundary
62
5
39
2
10
77.775139
20
368.611901
11
78.498629
21
368.743725
0
LINE
8
boundary
62
5
39
2
10
78.498629
20
368.743725
11
79.212216
21
368.894966
0
LINE
8
boundary
62
5
39
2
10
79.212216
20
368.894966
11
79.915735
21
369.065771
0
LINE
8
boundary
62
5
39
2
10
79.915735
20
369.065771
11
80.608917
21
369.255957
0
LINE
8
boundary
62
5
39
2
10
80.608917
20
369.255957
11
81.291568
21
369.465535
0
LINE
8
boundary
62
5
39
2
10
81.291568
20
369.465535
11
81.963392
21
369.694443
0
LINE
8
boundary
62
5
39
2
10
81.963392
20
369.694443
11
82.624279
21
369.942648
0
LINE
8
boundary
62
5
39
2
10
82.624279
20
369.942648
11
83.273937
21
370.210202
0
LINE
8
boundary
62
5
39
2
10
83.273937
20
370.210202
11
83.912175
21
370.496836
0
LINE
8
boundary
62
5
39
2
10
83.912175
20
370.496836
11
84.539013
21
370.802713
0
LINE
8
boundary
62
5
39
2
10
84.539013
20
370.802713
11
85.154066
21
371.127736
0
LINE
8
boundary
62
5
39
2
10
85.154066
20
371.127736
11
85.757339
21
371.471797
0
LINE
8
boundary
62
5
39
2
10
85.757339
20
371.471797
11
86.348611
21
371.834861
0
LINE
8
boundary
62
5
39
2
10
86.348611
20
371.834861
11
86.927813
21
372.216947
0
LINE
8
boundary
62
5
39
2
10
86.927813
20
372.216947
11
87.494902
21
372.617960
0
LINE
8
boundary
62
5
39
2
10
87.494902
20
372.617960
11
88.049609
21
373.037850
0
LINE
8
boundary
62
5
39
2
10
88.049609
20
373.037850
11
88.591932
21
373.476594
0
LINE
8
boundary
62
5
39
2
10
88.591932
20
373.476594
11
89.121835
21
373.934178
0
LINE
8
boundary
62
5
39
2
10
89.121835
20
373.934178
11
89.639063
21
374.410504
0
LINE
8
boundary
62
5
39
2
10
89.639063
20
374.410504
11
90.143761
21
374.905598
0
LINE
8
boundary
62
5
39
2
10
90.143761
20
374.905598
11
90.635779
21
375.419360
0
LINE
8
boundary
62
5
39
2
10
90.635779
20
375.419360
11
91.115040
21
375.951696
0
LINE
8
boundary
62
5
39
2
10
91.115040
20
375.951696
11
91.581428
21
376.502780
0
LINE
8
boundary
62
5
39
2
10
91.581428
20
376.502780
11
92.035027
21
377.072387
0
LINE
8
boundary
62
5
39
2
10
92.035027
20
377.072387
11
92.475620
21
377.660647
0
LINE
8
boundary
62
5
39
2
10
92.475620
20
377.660647
11
92.903266
21
378.267333
0
LINE
8
boundary
62
5
39
2
10
92.903266
20
378.267333
11
93.317960
21
378.892597
0
LINE
8
boundary
62
5
39
2
10
93.317960
20
378.892597
11
93.820639
21
379.465035
0
LINE
8
boundary
62
5
39
2
10
93.820639
20
379.465035
11
94.268481
21
380.046572
0
LINE
8
boundary
62
5
39
2
10
94.268481
20
380.046572
11
94.665945
21
380.643810
0
LINE
8
boundary
62
5
39
2
10
94.665945
20
380.643810
11
95.014533
21
381.256130
0
LINE
8
boundary
62
5
39
2
10
95.014533
20
381.256130
11
95.315849
21
381.883362
0
LINE
8
boundary
62
5
39
2
10
95.315849
20
381.883362
11
95.571013
21
382.524845
0
LINE
8
boundary
62
5
39
2
10
95.571013
20
382.524845
11
95.781428
21
383.180388
0
LINE
8
boundary
62
5
39
2
10
95.781428
20
383.180388
11
95.948250
21
383.849464
0
LINE
8
boundary
62
5
39
2
10
95.948250
20
383.849464
11
96.072503
21
384.531757
0
LINE
8
boundary
62
5
39
2
10
96.072503
20
384.531757
11
96.155333
21
385.226827
0
LINE
8
boundary
62
5
39
2
10
96.155333
20
385.226827
11
96.197605
21
385.934361
0
LINE
8
boundary
62
5
39
2
10
96.197605
20
385.934361
11
96.200336
21
386.653924
0
LINE
8
boundary
62
5
39
2
10
96.200336
20
386.653924
11
96.164315
21
387.385148
0
LINE
8
boundary
62
5
39
2
10
96.164315
20
387.385148
11
96.090448
21
388.127615
0
LINE
8
boundary
62
5
39
2
10
96.090448
20
388.127615
11
95.979514
21
388.881074
0
LINE
8
boundary
62
5
39
2
10
95.979514
20
388.881074
11
95.832175
21
389.644962
0
LINE
8
boundary
62
5
39
2
10
95.832175
20
389.644962
11
95.649390
21
390.419079
0
LINE
8
boundary
62
5
39
2
10
95.649390
20
390.419079
11
95.431680
21
391.202957
0
LINE
8
boundary
62
5
39
2
10
95.431680
20
391.202957
11
95.179740
21
391.996218
0
LINE
8
boundary
62
5
39
2
10
95.179740
20
391.996218
11
94.898311
21
392.787951
0
LINE
8
boundary
62
5
39
2
10
94.898311
20
392.787951
11
94.580779
21
393.598444
0
LINE
8
boundary
62
5
39
2
10
94.580779
20
393.598444
11
94.231241
21
394.417288
0
LINE
8
boundary
62
5
39
2
10
94.231241
20
394.417288
11
93.850365
21
395.243834
0
LINE
8
boundary
62
5
39
2
10
93.850365
20
395.243834
11
93.438906
21
396.077909
0
LINE
8
boundary
62
5
39
2
10
93.438906
20
396.077909
11
92.997525
21
396.918934
0
LINE
8
boundary
62
5
39
2
10
92.997525
20
396.918934
11
92.527025
21
397.766578
0
LINE
8
boundary
62
5
39
2
10
92.527025
20
397.766578
11
92.028110
21
398.620466
0
LINE
8
boundary
62
5
39
2
10
92.028110
20
398.620466
11
91.501624
21
399.480069
0
LINE
8
boundary
62
5
39
2
10
91.501624
20
399.480069
11
90.948369
21
400.345028
0
LINE
8
boundary
62
5
39
2
10
90.948369
20
400.345028
11
90.369109
21
401.214947
0
LINE
8
boundary
62
5
39
2
10
90.369109
20
401.214947
11
89.764723
21
402.089377
0
LINE
8
boundary
62
5
39
2
10
89.764723
20
402.089377
11
89.136209
21
402.967907
0
LINE
8
boundary
62
5
39
2
10
89.136209
20
402.967907
11
88.484294
21
403.849981
0
LINE
8
boundary
62
5
39
2
10
88.484294
20
403.849981
11
87.810040
21
404.735201
0
LINE
8
boundary
62
5
39
2
10
87.810040
20
404.735201
11
87.114365
21
405.623244
0
LINE
8
boundary
62
5
39
2
10
87.114365
20
405.623244
11
86.398346
21
406.513572
0
LINE
8
boundary
62
5
39
2
10
86.398346
20
406.513572
11
85.662991
21
407.405640
0
LINE
8
boundary
62
5
39
2
10
85.662991
20
407.405640
11
84.909343
21
408.299074
0
LINE
8
boundary
62
5
39
2
10
84.909343
20
408.299074
11
84.138433
21
409.193413
0
LINE
8
boundary
62
5
39
2
10
84.138433
20
409.193413
11
83.351417
21
410.088182
0
LINE
8
boundary
62
5
39
2
10
83.351417
20
410.088182
11
82.549609
21
410.982905
0
LINE
8
boundary
62
5
39
2
10
82.549609
20
410.982905
11
81.733966
21
411.877140
0
LINE
8
boundary
62
5
39
2
10
81.733966
20
411.877140
11
80.105440
21
413.620553
0
LINE
8
boundary
62
5
39
2
10
80.105440
20
413.620553
11
78.400841
21
415.395654
0
LINE
8
boundary
62
5
39
2
10
78.400841
20
415.395654
11
76.666250
21
417.158961
0
LINE
8
boundary
62
5
39
2
10
76.666250
20
417.158961
11
74.912355
21
418.906816
0
LINE
8
boundary
62
5
39
2
10
74.912355
20
418.906816
11
73.150064
21
420.635188
0
LINE
8
boundary
62
5
39
2
10
73.150064
20
420.635188
11
69.754263
21
423.913216
0
LINE
8
boundary
62
5
39
2
10
69.754263
20
423.913216
11
66.358860
21
427.163948
0
LINE
8
boundary
62
5
39
2
10
66.358860
20
427.163948
11
64.605190
21
428.847841
0
LINE
8
boundary
62
5
39
2
10
64.605190
20
428.847841
11
63.029864
21
430.376987
0
LINE
8
boundary
62
5
39
2
10
63.029864
20
430.376987
11
62.027586
21
431.345196
0
LINE
8
boundary
62
5
39
2
10
62.027586
20
431.345196
11
61.075402
21
432.244013
0
LINE
8
boundary
62
5
39
2
10
61.075402
20
432.244013
11
60.125253
21
433.118331
0
LINE
8
boundary
62
5
39
2
10
60.125253
20
433.118331
11
59.177104
21
433.968514
0
LINE
8
boundary
62
5
39
2
10
59.177104
20
433.968514
11
58.231112
21
434.795089
0
LINE
8
boundary
62
5
39
2
10
58.231112
20
434.795089
11
57.287191
21
435.598172
0
LINE
8
boundary
62
5
39
2
10
57.287191
20
435.598172
11
56.345623
21
436.378281
0
LINE
8
boundary
62
5
39
2
10
56.345623
20
436.378281
11
55.406324
21
437.135675
0
LINE
8
boundary
62
5
39
2
10
55.406324
20
437.135675
11
54.469304
21
437.870692
0
LINE
8
boundary
62
5
39
2
10
54.469304
20
437.870692
11
53.534591
21
438.583744
0
LINE
8
boundary
62
5
39
2
10
53.534591
20
438.583744
11
52.602245
21
439.275199
0
LINE
8
boundary
62
5
39
2
10
52.602245
20
439.275199
11
51.672363
21
439.945395
0
LINE
8
boundary
62
5
39
2
10
51.672363
20
439.945395
11
50.744853
21
440.594643
0
LINE
8
boundary
62
5
39
2
10
50.744853
20
440.594643
11
49.819927
21
441.223345
0
LINE
8
boundary
62
5
39
2
10
49.819927
20
441.223345
11
48.897433
21
441.831946
0
LINE
8
boundary
62
5
39
2
10
48.897433
20
441.831946
11
47.977442
21
442.420700
0
LINE
8
boundary
62
5
39
2
10
47.977442
20
442.420700
11
47.060040
21
442.989913
0
LINE
8
boundary
62
5
39
2
10
47.060040
20
442.989913
11
46.145136
21
443.540123
0
LINE
8
boundary
62
5
39
2
10
46.145136
20
443.540123
11
45.232789
21
444.071733
0
LINE
8
boundary
62
5
39
2
10
45.232789
20
444.071733
11
44.323154
21
444.584839
0
LINE
8
boundary
62
5
39
2
10
44.323154
20
444.584839
11
43.416079
21
445.079970
0
LINE
8
boundary
62
5
39
2
10
43.416079
20
445.079970
11
42.511619
21
445.557558
0
LINE
8
boundary
62
5
39
2
10
42.511619
20
445.557558
11
41.609746
21
446.017919
0
LINE
8
boundary
62
5
39
2
10
41.609746
20
446.017919
11
40.710567
21
446.461446
0
LINE
8
boundary
62
5
39
2
10
40.710567
20
446.461446
11
39.814101
21
446.888492
0
LINE
8
boundary
62
5
39
2
10
39.814101
20
446.888492
11
38.920199
21
447.299532
0
LINE
8
boundary
62
5
39
2
10
38.920199
20
447.299532
11
38.029033
21
447.694730
0
LINE
8
boundary
62
5
39
2
10
38.029033
20
447.694730
11
37.140529
21
448.074681
0
LINE
8
boundary
62
5
39
2
10
37.140529
20
448.074681
11
36.254721
21
448.439606
0
LINE
8
boundary
62
5
39
2
10
36.254721
20
448.439606
11
35.371527
21
448.790022
0
LINE
8
boundary
62
5
39
2
10
35.371527
20
448.790022
11
34.491142
21
449.126234
0
LINE
8
boundary
62
5
39
2
10
34.491142
20
449.126234
11
33.613386
21
449.448584
0
LINE
8
boundary
62
5
39
2
10
33.613386
20
449.448584
11
32.738316
21
449.757572
0
LINE
8
boundary
62
5
39
2
10
32.738316
20
449.757572
11
31.865964
21
450.053491
0
LINE
8
boundary
62
5
39
2
10
31.865964
20
450.053491
11
30.996239
21
450.336763
0
LINE
8
boundary
62
5
39
2
10
30.996239
20
450.336763
11
30.129204
21
450.607955
0
LINE
8
boundary
62
5
39
2
10
30.129204
20
450.607955
11
29.264871
21
450.867024
0
LINE
8
boundary
62
5
39
2
10
29.264871
20
450.867024
11
28.403266
21
451.114756
0
LINE
8
boundary
62
5
39
2
10
28.403266
20
451.114756
11
27.544245
21
451.351247
0
LINE
8
boundary
62
5
39
2
10
27.544245
20
451.351247
11
26.687956
21
451.577192
0
LINE
8
boundary
62
5
39
2
10
26.687956
20
451.577192
11
25.834288
21
451.792870
0
LINE
8
boundary
62
5
39
2
10
25.834288
20
451.792870
11
24.983227
21
451.998375
0
LINE
8
boundary
62
5
39
2
10
24.983227
20
451.998375
11
23.454841
21
452.343545
0
LINE
8
boundary
62
5
39
2
10
23.454841
20
452.343545
11
21.776250
21
452.693777
0
LINE
8
boundary
62
5
39
2
10
21.776250
20
452.693777
11
20.108239
21
453.012139
0
LINE
8
boundary
62
5
39
2
10
20.108239
20
453.012139
11
18.450741
21
453.301644
0
LINE
8
boundary
62
5
39
2
10
18.450741
20
453.301644
11
16.803683
21
453.565260
0
LINE
8
boundary
62
5
39
2
10
16.803683
20
453.565260
11
15.166922
21
453.806331
0
LINE
8
boundary
62
5
39
2
10
15.166922
20
453.806331
11
13.540467
21
454.027919
0
LINE
8
boundary
62
5
39
2
10
13.540467
20
454.027919
11
11.924307
21
454.233133
0
LINE
8
boundary
62
5
39
2
10
11.924307
20
454.233133
11
10.318253
21
454.425026
0
LINE
8
boundary
62
5
39
2
10
10.318253
20
454.425026
11
7.570258
21
454.732689
0
LINE
8
boundary
62
5
39
2
10
7.570258
20
454.732689
11
6.667500
21
454.832764
0
LINE
8
boundary
62
5
39
2
10
6.667500
20
454.832764
11
6.721405
21
449.440859
0
LINE
8
boundary
62
5
39
2
10
6.721405
20
449.440859
11
6.747017
21
447.335903
0
LINE
8
boundary
62
5
39
2
10
6.747017
20
447.335903
11
9.936113
21
446.993518
0
LINE
8
boundary
62
5
39
2
10
9.936113
20
446.993518
11
11.123112
21
446.866157
0
LINE
8
boundary
62
5
39
2
10
11.123112
20
446.866157
11
12.082337
21
446.589864
0
LINE
8
boundary
62
5
39
2
10
12.082337
20
446.589864
11
13.343574
21
446.216007
0
LINE
8
boundary
62
5
39
2
10
13.343574
20
446.216007
11
14.227458
21
445.945086
0
LINE
8
boundary
62
5
39
2
10
14.227458
20
445.945086
11
31.241305
21
445.945085
0
LINE
8
boundary
62
5
39
2
10
31.241305
20
445.945085
11
31.241305
21
443.199085
0
LINE
8
boundary
62
5
39
2
10
31.241305
20
443.199085
11
22.484731
21
443.199086
0
LINE
8
boundary
62
5
39
2
10
22.484731
20
443.199086
11
22.983413
21
442.848111
0
LINE
8
boundary
62
5
39
2
10
22.983413
20
442.848111
11
23.883829
21
442.480645
0
LINE
8
boundary
62
5
39
2
10
23.883829
20
442.480645
11
24.966438
21
442.026976
0
LINE
8
boundary
62
5
39
2
10
24.966438
20
442.026976
11
26.031601
21
441.566186
0
LINE
8
boundary
62
5
39
2
10
26.031601
20
441.566186
11
27.079369
21
441.098284
0
LINE
8
boundary
62
5
39
2
10
27.079369
20
441.098284
11
28.109818
21
440.623601
0
LINE
8
boundary
62
5
39
2
10
28.109818
20
440.623601
11
29.123023
21
440.142105
0
LINE
8
boundary
62
5
39
2
10
29.123023
20
440.142105
11
30.119021
21
439.653998
0
LINE
8
boundary
62
5
39
2
10
30.119021
20
439.653998
11
31.097913
21
439.159382
0
LINE
8
boundary
62
5
39
2
10
31.097913
20
439.159382
11
32.059642
21
438.658509
0
LINE
8
boundary
62
5
39
2
10
32.059642
20
438.658509
11
33.004492
21
438.151554
0
LINE
8
boundary
62
5
39
2
10
33.004492
20
438.151554
11
33.932277
21
437.638494
0
LINE
8
boundary
62
5
39
2
10
33.932277
20
437.638494
11
34.843067
21
437.119525
0
LINE
8
boundary
62
5
39
2
10
34.843067
20
437.119525
11
35.737119
21
436.594861
0
LINE
8
boundary
62
5
39
2
10
35.737119
20
436.594861
11
36.614301
21
436.064632
0
LINE
8
boundary
62
5
39
2
10
36.614301
20
436.064632
11
37.474807
21
435.528906
0
LINE
8
boundary
62
5
39
2
10
37.474807
20
435.528906
11
38.318589
21
434.987992
0
LINE
8
boundary
62
5
39
2
10
38.318589
20
434.987992
11
39.145773
21
434.441805
0
LINE
8
boundary
62
5
39
2
10
39.145773
20
434.441805
11
39.956393
21
433.890580
0
LINE
8
boundary
62
5
39
2
10
39.956393
20
433.890580
11
40.750634
21
433.334665
0
LINE
8
boundary
62
5
39
2
10
40.750634
20
433.334665
11
41.528355
21
432.773807
0
LINE
8
boundary
62
5
39
2
10
41.528355
20
432.773807
11
42.289699
21
432.208479
0
LINE
8
boundary
62
5
39
2
10
42.289699
20
432.208479
11
43.034750
21
431.638678
0
LINE
8
boundary
62
5
39
2
10
43.034750
20
431.638678
11
43.763588
21
431.064578
0
LINE
8
boundary
62
5
39
2
10
43.763588
20
431.064578
11
44.476263
21
430.486344
0
LINE
8
boundary
62
5
39
2
10
44.476263
20
430.486344
11
45.172880
21
429.904030
0
LINE
8
boundary
62
5
39
2
10
45.172880
20
429.904030
11
45.853361
21
429.317888
0
LINE
8
boundary
62
5
39
2
10
45.853361
20
429.317888
11
46.517998
21
428.727918
0
LINE
8
boundary
62
5
39
2
10
46.517998
20
428.727918
11
47.166704
21
428.134533
0
LINE
8
boundary
62
5
39
2
10
47.166704
20
428.134533
11
47.799608
21
427.537558
0
LINE
8
boundary
62
5
39
2
10
47.799608
20
427.537558
11
48.416727
21
426.937289
0
LINE
8
boundary
62
5
39
2
10
48.416727
20
426.937289
11
49.018254
21
426.333800
0
LINE
8
boundary
62
5
39
2
10
49.018254
20
426.333800
11
49.604186
21
425.727392
0
LINE
8
boundary
62
5
39
2
10
49.604186
20
425.727392
11
50.174576
21
425.117953
0
LINE
8
boundary
62
5
39
2
10
50.174576
20
425.117953
11
50.729584
21
424.505801
0
LINE
8
boundary
62
5
39
2
10
50.729584
20
424.505801
11
51.269175
21
423.891009
0
LINE
8
boundary
62
5
39
2
10
51.269175
20
423.891009
11
51.793471
21
423.273674
0
LINE
8
boundary
62
5
39
2
10
51.793471
20
423.273674
11
52.302555
21
422.653981
0
LINE
8
boundary
62
5
39
2
10
52.302555
20
422.653981
11
52.796565
21
422.032097
0
LINE
8
boundary
62
5
39
2
10
52.796565
20
422.032097
11
53.275475
21
421.408157
0
LINE
8
boundary
62
5
39
2
10
53.275475
20
421.408157
11
53.739408
21
420.782247
0
LINE
8
boundary
62
5
39
2
10
53.739408
20
420.782247
11
54.188505
21
420.154639
0
LINE
8
boundary
62
5
39
2
10
54.188505
20
420.154639
11
54.622741
21
419.525179
0
LINE
8
boundary
62
5
39
2
10
54.622741
20
419.525179
11
55.042258
21
418.894219
0
LINE
8
boundary
62
5
39
2
10
55.042258
20
418.894219
11
55.447155
21
418.261943
0
LINE
8
boundary
62
5
39
2
10
55.447155
20
418.261943
11
55.837362
21
417.628221
0
LINE
8
boundary
62
5
39
2
10
55.837362
20
417.628221
11
56.213176
21
416.993515
0
LINE
8
boundary
62
5
39
2
10
56.213176
20
416.993515
11
56.574580
21
416.357751
0
LINE
8
boundary
62
5
39
2
10
56.574580
20
416.357751
11
56.921606
21
415.721139
0
LINE
8
boundary
62
5
39
2
10
56.921606
20
415.721139
11
57.254389
21
415.083657
0
LINE
8
boundary
62
5
39
2
10
57.254389
20
415.083657
11
57.572901
21
414.445696
0
LINE
8
boundary
62
5
39
2
10
57.572901
20
414.445696
11
57.877288
21
413.807206
0
LINE
8
boundary
62
5
39
2
10
57.877288
20
413.807206
11
58.167751
21
413.168338
0
LINE
8
boundary
62
5
39
2
10
58.167751
20
413.168338
11
58.444170
21
412.529320
0
LINE
8
boundary
62
5
39
2
10
58.444170
20
412.529320
11
58.706700
21
411.890225
0
LINE
8
boundary
62
5
39
2
10
58.706700
20
411.890225
11
58.779180
21
410.957440
0
LINE
8
boundary
62
5
39
2
10
58.779180
20
410.957440
11
58.863545
21
409.992005
0
LINE
8
boundary
62
5
39
2
10
58.863545
20
409.992005
11
58.967978
21
409.014300
0
LINE
8
boundary
62
5
39
2
10
58.967978
20
409.014300
11
59.087328
21
408.027812
0
LINE
8
boundary
62
5
39
2
10
59.087328
20
408.027812
11
59.342505
21
406.093745
0
LINE
8
boundary
62
5
39
2
10
59.342505
20
406.093745
11
59.601744
21
404.111182
0
LINE
8
boundary
62
5
39
2
10
59.601744
20
404.111182
11
59.723934
21
403.081741
0
LINE
8
boundary
62
5
39
2
10
59.723934
20
403.081741
11
59.822611
21
402.113427
0
LINE
8
boundary
62
5
39
2
10
59.822611
20
402.113427
11
59.899382
21
401.159914
0
LINE
8
boundary
62
5
39
2
10
59.899382
20
401.159914
11
59.949189
21
400.224493
0
LINE
8
boundary
62
5
39
2
10
59.949189
20
400.224493
11
59.966565
21
399.310518
0
LINE
8
boundary
62
5
39
2
10
59.966565
20
399.310518
11
59.946257
21
398.401744
0
LINE
8
boundary
62
5
39
2
10
59.946257
20
398.401744
11
59.882120
21
397.541760
0
LINE
8
boundary
62
5
39
2
10
59.882120
20
397.541760
11
59.769614
21
396.713284
0
LINE
8
boundary
62
5
39
2
10
59.769614
20
396.713284
11
59.603264
21
395.919710
0
LINE
8
boundary
62
5
39
2
10
59.603264
20
395.919710
11
59.377762
21
395.164338
0
LINE
8
boundary
62
5
39
2
10
59.377762
20
395.164338
11
59.087396
21
394.450466
0
LINE
8
boundary
62
5
39
2
10
59.087396
20
394.450466
11
58.726829
21
393.781533
0
LINE
8
boundary
62
5
39
2
10
58.726829
20
393.781533
11
58.290137
21
393.160777
0
LINE
8
boundary
62
5
39
2
10
58.290137
20
393.160777
11
57.771905
21
392.591736
0
LINE
8
boundary
62
5
39
2
10
57.771905
20
392.591736
11
57.166075
21
392.077543
0
LINE
8
boundary
62
5
39
2
10
57.166075
20
392.077543
11
56.466795
21
391.621703
0
LINE
8
boundary
62
5
39
2
10
56.466795
20
391.621703
11
55.667956
21
391.227723
0
LINE
8
boundary
62
5
39
2
10
55.667956
20
391.227723
11
54.763558
21
390.898801
0
LINE
8
boundary
62
5
39
2
10
54.763558
20
390.898801
11
54.269755
21
390.759918
0
LINE
8
boundary
62
5
39
2
10
54.269755
20
390.759918
11
53.747098
21
390.638521
0
LINE
8
boundary
62
5
39
2
10
53.747098
20
390.638521
11
53.195002
21
390.535206
0
LINE
8
boundary
62
5
39
2
10
53.195002
20
390.535206
11
52.612495
21
390.450365
0
LINE
8
boundary
62
5
39
2
10
52.612495
20
390.450365
11
51.998717
21
390.384230
0
LINE
8
boundary
62
5
39
2
10
51.998717
20
390.384230
11
51.352947
21
390.337569
0
LINE
8
boundary
62
5
39
2
10
51.352947
20
390.337569
11
50.674329
21
390.310547
0
LINE
8
boundary
62
5
39
2
10
50.674329
20
390.310547
11
49.962135
21
390.303713
0
LINE
8
boundary
62
5
39
2
10
49.962135
20
390.303713
11
49.215297
21
390.317448
0
LINE
8
boundary
62
5
39
2
10
49.215297
20
390.317448
11
48.433148
21
390.352238
0
LINE
8
boundary
62
5
39
2
10
48.433148
20
390.352238
11
47.614821
21
390.408533
0
LINE
8
boundary
62
5
39
2
10
47.614821
20
390.408533
11
46.759399
21
390.486714
0
LINE
8
boundary
62
5
39
2
10
46.759399
20
390.486714
11
45.219543
21
391.075427
0
LINE
8
boundary
62
5
39
2
10
45.219543
20
391.075427
11
43.682857
21
391.658005
0
LINE
8
boundary
62
5
39
2
10
43.682857
20
391.658005
11
42.175853
21
392.210076
0
LINE
8
boundary
62
5
39
2
10
42.175853
20
392.210076
11
40.691185
21
392.731837
0
LINE
8
boundary
62
5
39
2
10
40.691185
20
392.731837
11
39.221627
21
393.224063
0
LINE
8
boundary
62
5
39
2
10
39.221627
20
393.224063
11
37.759488
21
393.687130
0
LINE
8
boundary
62
5
39
2
10
37.759488
20
393.687130
11
36.297435
21
394.121565
0
LINE
8
boundary
62
5
39
2
10
36.297435
20
394.121565
11
34.827483
21
394.528049
0
LINE
8
boundary
62
5
39
2
10
34.827483
20
394.528049
11
33.341970
21
394.907035
0
LINE
8
boundary
62
5
39
2
10
33.341970
20
394.907035
11
31.833074
21
395.259040
0
LINE
8
boundary
62
5
39
2
10
31.833074
20
395.259040
11
30.292830
21
395.584821
0
LINE
8
boundary
62
5
39
2
10
30.292830
20
395.584821
11
28.713215
21
395.884749
0
LINE
8
boundary
62
5
39
2
10
28.713215
20
395.884749
11
27.086146
21
396.159377
0
LINE
8
boundary
62
5
39
2
10
27.086146
20
396.159377
11
25.403436
21
396.409573
0
LINE
8
boundary
62
5
39
2
10
25.403436
20
396.409573
11
23.656910
21
396.635652
0
LINE
8
boundary
62
5
39
2
10
23.656910
20
396.635652
11
21.838180
21
396.838134
0
LINE
8
boundary
62
5
39
2
10
21.838180
20
396.838134
11
22.446200
21
378.782311
0
LINE
8
boundary
62
5
39
2
10
22.446200
20
378.782311
11
22.493851
21
377.717492
0
LINE
8
boundary
62
5
39
2
10
22.493851
20
377.717492
11
27.539729
21
362.733626
0
LINE
8
boundary
62
5
39
2
10
27.539729
20
362.733626
11
36.248885
21
362.733626
0
LINE
8
boundary
62
5
39
2
10
36.248885
20
362.733626
11
36.248884
21
359.987626
0
LINE
8
boundary
62
5
39
2
10
36.248884
20
359.987626
11
28.525268
21
359.987626
0
LINE
8
boundary
62
5
39
2
10
28.525268
20
359.987626
11
34.623728
21
341.697507
0
LINE
8
boundary
62
5
39
2
10
34.623728
20
341.697507
11
35.029964
21
340.506791
0
LINE
8
boundary
62
5
39
2
10
35.029964
20
340.506791
11
35.828968
21
338.355142
0
LINE
8
boundary
62
5
39
2
10
35.828968
20
338.355142
11
36.615681
21
336.136867
0
LINE
8
boundary
62
5
39
2
10
36.615681
20
336.136867
11
37.367575
21
333.909724
0
LINE
8
boundary
62
5
39
2
10
37.367575
20
333.909724
11
38.084462
21
331.673843
0
LINE
8
boundary
62
5
39
2
10
38.084462
20
331.673843
11
38.766908
21
329.429301
0
LINE
8
boundary
62
5
39
2
10
38.766908
20
329.429301
11
39.414797
21
327.176178
0
LINE
8
boundary
62
5
39
2
10
39.414797
20
327.176178
11
40.028381
21
324.914806
0
LINE
8
boundary
62
5
39
2
10
40.028381
20
324.914806
11
40.607619
21
322.645208
0
LINE
8
boundary
62
5
39
2
10
40.607619
20
322.645208
11
41.152854
21
320.367493
0
LINE
8
boundary
62
5
39
2
10
41.152854
20
320.367493
11
41.664008
21
318.081861
0
LINE
8
boundary
62
5
39
2
10
41.664008
20
318.081861
11
42.141241
21
315.788468
0
LINE
8
boundary
62
5
39
2
10
42.141241
20
315.788468
11
42.584594
21
313.487398
0
LINE
8
boundary
62
5
39
2
10
42.584594
20
313.487398
11
42.994225
21
311.178859
0
LINE
8
boundary
62
5
39
2
10
42.994225
20
311.178859
11
43.370076
21
308.862945
0
LINE
8
boundary
62
5
39
2
10
43.370076
20
308.862945
11
43.712396
21
306.539876
0
LINE
8
boundary
62
5
39
2
10
43.712396
20
306.539876
11
44.020956
21
304.209888
0
LINE
8
boundary
62
5
39
2
10
44.020956
20
304.209888
11
44.296040
21
301.873037
0
LINE
8
boundary
62
5
39
2
10
44.296040
20
301.873037
11
44.537568
21
299.529621
0
LINE
8
boundary
62
5
39
2
10
44.537568
20
299.529621
11
44.745575
21
297.179697
0
LINE
8
boundary
62
5
39
2
10
44.745575
20
297.179697
11
44.920249
21
294.823599
0
LINE
8
boundary
62
5
39
2
10
44.920249
20
294.823599
11
45.061356
21
292.461505
0
LINE
8
boundary
62
5
39
2
10
45.061356
20
292.461505
11
45.169099
21
290.093571
0
LINE
8
boundary
62
5
39
2
10
45.169099
20
290.093571
11
45.243425
21
287.720126
0
LINE
8
boundary
62
5
39
2
10
45.243425
20
287.720126
11
45.284538
21
285.341378
0
LINE
8
boundary
62
5
39
2
10
45.284538
20
285.341378
11
45.292240
21
282.957541
0
LINE
8
boundary
62
5
39
2
10
45.292240
20
282.957541
11
45.266832
21
280.568892
0
LINE
8
boundary
62
5
39
2
10
45.266832
20
280.568892
11
45.208079
21
278.175706
0
LINE
8
boundary
62
5
39
2
10
45.208079
20
278.175706
11
45.116217
21
275.778307
0
LINE
8
boundary
62
5
39
2
10
45.116217
20
275.778307
11
44.991301
21
273.376971
0
LINE
8
boundary
62
5
39
2
10
44.991301
20
273.376971
11
44.833403
21
270.972045
0
LINE
8
boundary
62
5
39
2
10
44.833403
20
270.972045
11
44.642563
21
268.563768
0
LINE
8
boundary
62
5
39
2
10
44.642563
20
268.563768
11
44.418949
21
266.152496
0
LINE
8
boundary
62
5
39
2
10
44.418949
20
266.152496
11
44.162621
21
263.738660
0
LINE
8
boundary
62
5
39
2
10
44.162621
20
263.738660
11
43.873874
21
261.322589
0
LINE
8
boundary
62
5
39
2
10
43.873874
20
261.322589
11
43.552630
21
258.904608
0
LINE
8
boundary
62
5
39
2
10
43.552630
20
258.904608
11
43.199078
21
256.485188
0
LINE
8
boundary
62
5
39
2
10
43.199078
20
256.485188
11
42.813641
21
254.064597
0
LINE
8
boundary
62
5
39
2
10
42.813641
20
254.064597
11
42.396388
21
251.643470
0
LINE
8
boundary
62
5
39
2
10
42.396388
20
251.643470
11
41.947725
21
249.222074
0
LINE
8
boundary
62
5
39
2
10
41.947725
20
249.222074
11
41.467625
21
246.800808
0
LINE
8
boundary
62
5
39
2
10
41.467625
20
246.800808
11
40.956547
21
244.380328
0
LINE
8
boundary
62
5
39
2
10
40.956547
20
244.380328
11
40.414867
21
241.960970
0
LINE
8
boundary
62
5
39
2
10
40.414867
20
241.960970
11
39.842958
21
239.543240
0
LINE
8
boundary
62
5
39
2
10
39.842958
20
239.543240
11
39.241037
21
237.127523
0
LINE
8
boundary
62
5
39
2
10
39.241037
20
237.127523
11
38.609684
21
234.714592
0
LINE
8
boundary
62
5
39
2
10
38.609684
20
234.714592
11
37.949245
21
232.304701
0
LINE
8
boundary
62
5
39
2
10
37.949245
20
232.304701
11
37.260174
21
229.898528
0
LINE
8
boundary
62
5
39
2
10
37.260174
20
229.898528
11
36.543040
21
227.496584
0
LINE
8
boundary
62
5
39
2
10
36.543040
20
227.496584
11
35.798412
21
225.099399
0
LINE
8
boundary
62
5
39
2
10
35.798412
20
225.099399
11
35.026809
21
222.707565
0
LINE
8
boundary
62
5
39
2
10
35.026809
20
222.707565
11
34.228861
21
220.321590
0
LINE
8
boundary
62
5
39
2
10
34.228861
20
220.321590
11
33.405176
21
217.942165
0
LINE
8
boundary
62
5
39
2
10
33.405176
20
217.942165
11
32.556467
21
215.569829
0
LINE
8
boundary
62
5
39
2
10
32.556467
20
215.569829
11
31.683290
21
213.205090
0
LINE
8
boundary
62
5
39
2
10
31.683290
20
213.205090
11
30.786624
21
210.848727
0
LINE
8
boundary
62
5
39
2
10
30.786624
20
210.848727
11
29.867064
21
208.501228
0
LINE
8
boundary
62
5
39
2
10
29.867064
20
208.501228
11
28.925597
21
206.163228
0
LINE
8
boundary
62
5
39
2
10
28.925597
20
206.163228
11
27.962883
21
203.835355
0
LINE
8
boundary
62
5
39
2
10
27.962883
20
203.835355
11
26.107079
21
199.515538
0
LINE
8
boundary
62
5
39
2
10
26.107079
20
199.515538
11
25.838699
21
198.896609
0
LINE
8
boundary
62
5
39
2
10
25.838699
20
198.896609
11
24.063186
21
194.961852
0
LINE
8
boundary
62
5
39
2
10
24.063186
20
194.961852
11
23.762098
21
194.299200
0
LINE
8
boundary
62
5
39
2
10
23.762098
20
194.299200
11
21.954400
21
190.462674
0
LINE
8
boundary
62
5
39
2
10
21.954400
20
190.462674
11
21.617962
21
189.753349
0
LINE
8
boundary
62
5
39
2
10
21.617962
20
189.753349
11
20.486749
21
185.742797
0
LINE
8
boundary
62
5
39
2
10
20.486749
20
185.742797
11
20.254405
21
184.924808
0
LINE
8
boundary
62
5
39
2
10
20.254405
20
184.924808
11
19.103102
21
180.830581
0
LINE
8
boundary
62
5
39
2
10
19.103102
20
180.830581
11
18.847708
21
179.928594
0
LINE
8
boundary
62
5
39
2
10
18.847708
20
179.928594
11
18.272182
21
177.855742
0
LINE
8
boundary
62
5
39
2
10
18.272182
20
177.855742
11
17.564800
21
175.281662
0
LINE
8
boundary
62
5
39
2
10
17.564800
20
175.281662
11
17.424421
21
174.772272
0
LINE
8
boundary
62
5
39
2
10
17.424421
20
174.772272
11
16.859576
21
172.670076
0
LINE
8
boundary
62
5
39
2
10
16.859576
20
172.670076
11
16.715158
21
172.136266
0
LINE
8
boundary
62
5
39
2
10
16.715158
20
172.136266
11
16.159944
21
170.021861
0
LINE
8
boundary
62
5
39
2
10
16.159944
20
170.021861
11
16.012174
21
169.462926
0
LINE
8
boundary
62
5
39
2
10
16.012174
20
169.462926
11
15.469436
21
167.337797
0
LINE
8
boundary
62
5
39
2
10
15.469436
20
167.337797
11
15.319072
21
166.753047
0
LINE
8
boundary
62
5
39
2
10
15.319072
20
166.753047
11
14.791527
21
164.618592
0
LINE
8
boundary
62
5
39
2
10
14.791527
20
164.618592
11
14.639447
21
164.007445
0
LINE
8
boundary
62
5
39
2
10
14.639447
20
164.007445
11
14.129885
21
161.865030
0
LINE
8
boundary
62
5
39
2
10
14.129885
20
161.865030
11
13.977052
21
161.226987
0
LINE
8
boundary
62
5
39
2
10
13.977052
20
161.226987
11
13.488059
21
159.077597
0
LINE
8
boundary
62
5
39
2
10
13.488059
20
159.077597
11
13.335627
21
158.412263
0
LINE
8
boundary
62
5
39
2
10
13.335627
20
158.412263
11
12.869766
21
156.257016
0
LINE
8
boundary
62
5
39
2
10
12.869766
20
156.257016
11
12.718908
21
155.564136
0
LINE
8
boundary
62
5
39
2
10
12.718908
20
155.564136
11
12.278518
21
153.403746
0
LINE
8
boundary
62
5
39
2
10
12.278518
20
153.403746
11
12.130552
21
152.683222
0
LINE
8
boundary
62
5
39
2
10
12.130552
20
152.683222
11
11.718328
21
150.518331
0
LINE
8
boundary
62
5
39
2
10
11.718328
20
150.518331
11
11.574806
21
149.770246
0
LINE
8
boundary
62
5
39
2
10
11.574806
20
149.770246
11
11.192795
21
147.601237
0
LINE
8
boundary
62
5
39
2
10
11.192795
20
147.601237
11
11.055130
21
146.825880
0
LINE
8
boundary
62
5
39
2
10
11.055130
20
146.825880
11
10.705665
21
144.652806
0
LINE
8
boundary
62
5
39
2
10
10.705665
20
144.652806
11
10.575579
21
143.850692
0
LINE
8
boundary
62
5
39
2
10
10.575579
20
143.850692
11
10.260726
21
141.673439
0
LINE
8
boundary
62
5
39
2
10
10.260726
20
141.673439
11
10.139913
21
140.845278
0
LINE
8
boundary
62
5
39
2
10
10.139913
20
140.845278
11
9.861909
21
138.663380
0
LINE
8
boundary
62
5
39
2
10
9.861909
20
138.663380
11
9.752125
21
137.810216
0
LINE
8
boundary
62
5
39
2
10
9.752125
20
137.810216
11
9.627515
21
136.717149
0
LINE
8
boundary
62
5
39
2
10
9.627515
20
136.717149
11
9.462631
21
135.187186
0
LINE
8
boundary
62
5
39
2
10
9.462631
20
135.187186
11
9.311485
21
133.649831
0
LINE
8
boundary
62
5
39
2
10
9.311485
20
133.649831
11
9.174475
21
132.105236
0
LINE
8
boundary
62
5
39
2
10
9.174475
20
132.105236
11
9.052077
21
130.553460
0
LINE
8
boundary
62
5
39
2
10
9.052077
20
130.553460
11
8.944849
21
128.994469
0
LINE
8
boundary
62
5
39
2
10
8.944849
20
128.994469
11
8.853214
21
127.428310
0
LINE
8
boundary
62
5
39
2
10
8.853214
20
127.428310
11
8.777603
21
125.855083
0
LINE
8
boundary
62
5
39
2
10
8.777603
20
125.855083
11
8.718528
21
124.274860
0
LINE
8
boundary
62
5
39
2
10
8.718528
20
124.274860
11
8.676361
21
122.687679
0
LINE
8
boundary
62
5
39
2
10
8.676361
20
122.687679
11
8.651704
21
121.093590
0
LINE
8
boundary
62
5
39
2
10
8.651704
20
121.093590
11
8.645140
21
119.492675
0
LINE
8
boundary
62
5
39
2
10
8.645140
20
119.492675
11
8.656978
21
117.884984
0
LINE
8
boundary
62
5
39
2
10
8.656978
20
117.884984
11
8.687671
21
116.270555
0
LINE
8
boundary
62
5
39
2
10
8.687671
20
116.270555
11
8.737738
21
114.649502
0
LINE
8
boundary
62
5
39
2
10
8.737738
20
114.649502
11
8.807524
21
113.021906
0
LINE
8
boundary
62
5
39
2
10
8.807524
20
113.021906
11
8.897678
21
111.387807
0
LINE
8
boundary
62
5
39
2
10
8.897678
20
111.387807
11
9.008602
21
109.747324
0
LINE
8
boundary
62
5
39
2
10
9.008602
20
109.747324
11
9.140681
21
108.100569
0
LINE
8
boundary
62
5
39
2
10
9.140681
20
108.100569
11
9.294328
21
106.447623
0
LINE
8
boundary
62
5
39
2
10
9.294328
20
106.447623
11
9.470054
21
104.788564
0
LINE
8
boundary
62
5
39
2
10
9.470054
20
104.788564
11
9.668348
21
103.123503
0
LINE
8
boundary
62
5
39
2
10
9.668348
20
103.123503
11
9.889594
21
101.452609
0
LINE
8
boundary
62
5
39
2
10
9.889594
20
101.452609
11
10.134100
21
99.775994
0
LINE
8
boundary
62
5
39
2
10
10.134100
20
99.775994
11
10.402460
21
98.093816
0
LINE
8
boundary
62
5
39
2
10
10.402460
20
98.093816
11
10.695026
21
96.406194
0
LINE
8
boundary
62
5
39
2
10
10.695026
20
96.406194
11
11.100702
21
92.436019
0
LINE
8
boundary
62
5
39
2
10
11.100702
20
92.436019
11
11.227188
21
91.043821
0
LINE
8
boundary
62
5
39
2
10
11.227188
20
91.043821
11
11.554779
21
87.327563
0
LINE
8
boundary
62
5
39
2
10
11.554779
20
87.327563
11
11.681258
21
85.875113
0
LINE
8
boundary
62
5
39
2
10
11.681258
20
85.875113
11
11.858930
21
83.931488
0
LINE
8
boundary
62
5
39
2
10
11.858930
20
83.931488
11
11.925559
21
83.193236
0
LINE
8
boundary
62
5
39
2
10
11.925559
20
83.193236
11
12.117937
21
81.199952
0
LINE
8
boundary
62
5
39
2
10
12.117937
20
81.199952
11
12.189206
21
80.452214
0
LINE
8
boundary
62
5
39
2
10
12.189206
20
80.452214
11
12.400452
21
78.411755
0
LINE
8
boundary
62
5
39
2
10
12.400452
20
78.411755
11
12.477719
21
77.656601
0
LINE
8
boundary
62
5
39
2
10
12.477719
20
77.656601
11
12.712495
21
75.571333
0
LINE
8
boundary
62
5
39
2
10
12.712495
20
75.571333
11
12.797181
21
74.810878
0
LINE
8
boundary
62
5
39
2
10
12.797181
20
74.810878
11
13.059915
21
72.683296
0
LINE
8
boundary
62
5
39
2
10
13.059915
20
72.683296
11
13.153241
21
71.919793
0
LINE
8
boundary
62
5
39
2
10
13.153241
20
71.919793
11
13.448582
21
69.752329
0
LINE
8
boundary
62
5
39
2
10
13.448582
20
69.752329
11
13.551753
21
68.988127
0
LINE
8
boundary
62
5
39
2
10
13.551753
20
68.988127
11
13.884371
21
66.783452
0
LINE
8
boundary
62
5
39
2
10
13.884371
20
66.783452
11
13.998463
21
66.020951
0
LINE
8
boundary
62
5
39
2
10
13.998463
20
66.020951
11
14.180678
21
64.903263
0
LINE
8
boundary
62
5
39
2
10
14.180678
20
64.903263
11
14.435156
21
63.399543
0
LINE
8
boundary
62
5
39
2
10
14.435156
20
63.399543
11
14.704583
21
61.889263
0
LINE
8
boundary
62
5
39
2
10
14.704583
20
61.889263
11
14.989453
21
60.373087
0
LINE
8
boundary
62
5
39
2
10
14.989453
20
60.373087
11
15.290656
21
58.851728
0
LINE
8
boundary
62
5
39
2
10
15.290656
20
58.851728
11
15.608964
21
57.325864
0
LINE
8
boundary
62
5
39
2
10
15.608964
20
57.325864
11
15.945040
21
55.796251
0
LINE
8
boundary
62
5
39
2
10
15.945040
20
55.796251
11
16.299670
21
54.263674
0
LINE
8
boundary
62
5
39
2
10
16.299670
20
54.263674
11
16.673505
21
52.728849
0
LINE
8
boundary
62
5
39
2
10
16.673505
20
52.728849
11
17.067323
21
51.192589
0
LINE
8
boundary
62
5
39
2
10
17.067323
20
51.192589
11
17.481828
21
49.655749
0
LINE
8
boundary
62
5
39
2
10
17.481828
20
49.655749
11
17.917768
21
48.119148
0
LINE
8
boundary
62
5
39
2
10
17.917768
20
48.119148
11
18.375930
21
46.583618
0
LINE
8
boundary
62
5
39
2
10
18.375930
20
46.583618
11
18.856943
21
45.050103
0
LINE
8
boundary
62
5
39
2
10
18.856943
20
45.050103
11
19.361642
21
43.519484
0
LINE
8
boundary
62
5
39
2
10
19.361642
20
43.519484
11
19.890661
21
41.992695
0
LINE
8
boundary
62
5
39
2
10
19.890661
20
41.992695
11
20.444844
21
40.470788
0
LINE
8
boundary
62
5
39
2
10
20.444844
20
40.470788
11
21.024870
21
38.954716
0
LINE
8
boundary
62
5
39
2
10
21.024870
20
38.954716
11
21.631347
21
37.445510
0
LINE
8
boundary
62
5
39
2
10
21.631347
20
37.445510
11
22.265271
21
35.944302
0
LINE
8
boundary
62
5
39
2
10
22.265271
20
35.944302
11
22.927261
21
34.452188
0
LINE
8
boundary
62
5
39
2
10
22.927261
20
34.452188
11
23.617951
21
32.970366
0
LINE
8
boundary
62
5
39
2
10
23.617951
20
32.970366
11
24.338210
21
31.500010
0
LINE
8
boundary
62
5
39
2
10
24.338210
20
31.500010
11
25.088873
21
30.042306
0
LINE
8
boundary
62
5
39
2
10
25.088873
20
30.042306
11
25.870418
21
28.598667
0
LINE
8
boundary
62
5
39
2
10
25.870418
20
28.598667
11
26.683814
21
27.170391
0
LINE
8
boundary
62
5
39
2
10
26.683814
20
27.170391
11
27.529806
21
25.758869
0
LINE
8
boundary
62
5
39
2
10
27.529806
20
25.758869
11
28.409096
21
24.365532
0
LINE
8
boundary
62
5
39
2
10
28.409096
20
24.365532
11
29.322441
21
22.991884
0
LINE
8
boundary
62
5
39
2
10
29.322441
20
22.991884
11
30.270612
21
21.639549
0
LINE
8
boundary
62
5
39
2
10
30.270612
20
21.639549
11
31.254351
21
20.310168
0
LINE
8
boundary
62
5
39
2
10
31.254351
20
20.310168
11
32.274530
21
19.005391
0
LINE
8
boundary
62
5
39
2
10
32.274530
20
19.005391
11
33.331870
21
17.726989
0
LINE
8
boundary
62
5
39
2
10
33.331870
20
17.726989
11
34.427072
21
16.476817
0
LINE
8
boundary
62
5
39
2
10
34.427072
20
16.476817
11
35.561076
21
15.256833
0
LINE
8
boundary
62
5
39
2
10
35.561076
20
15.256833
11
36.734544
21
14.068902
0
LINE
8
boundary
62
5
39
2
10
36.734544
20
14.068902
11
37.948229
21
12.915205
0
LINE
8
boundary
62
5
39
2
10
37.948229
20
12.915205
11
39.203017
21
11.797898
0
LINE
8
boundary
62
5
39
2
10
39.203017
20
11.797898
11
40.499679
21
10.719156
0
LINE
8
boundary
62
5
39
2
10
40.499679
20
10.719156
11
41.838945
21
9.681429
0
LINE
8
boundary
62
5
39
2
10
41.838945
20
9.681429
11
43.221656
21
8.687030
0
LINE
8
boundary
62
5
39
2
10
43.221656
20
8.687030
11
44.648540
21
7.738540
0
LINE
8
boundary
62
5
39
2
10
44.648540
20
7.738540
11
45.121949
21
7.369719
0
LINE
8
boundary
62
5
39
2
10
45.121949
20
7.369719
11
45.878662
21
6.979576
0
LINE
8
boundary
62
5
39
2
10
45.878662
20
6.979576
11
46.411838
21
6.818522
0
LINE
8
boundary
62
5
39
2
10
46.411838
20
6.818522
11
46.936007
21
6.723893
0
LINE
8
boundary
62
5
39
2
10
46.936007
20
6.723893
11
47.500852
21
6.673147
0
LINE
8
boundary
62
5
39
2
10
47.500852
20
6.673147
11
48.023624
21
6.668859
0
LINE
8
boundary
62
5
39
2
10
48.023624
20
6.668859
11
48.648715
21
6.703664
0
LINE
8
boundary
62
5
39
2
10
48.648715
20
6.703664
11
49.297308
21
6.785576
0
LINE
8
boundary
62
5
39
2
10
49.297308
20
6.785576
11
49.963403
21
6.915524
0
LINE
8
boundary
62
5
39
2
10
49.963403
20
6.915524
11
50.641100
21
7.094349
0
LINE
8
boundary
62
5
39
2
10
50.641100
20
7.094349
11
51.324419
21
7.322713
0
LINE
8
boundary
62
5
39
2
10
51.324419
20
7.322713
11
52.007438
21
7.601144
0
LINE
8
boundary
62
5
39
2
10
52.007438
20
7.601144
11
52.683984
21
7.930113
0
LINE
8
boundary
62
5
39
2
10
52.683984
20
7.930113
11
53.348404
21
8.309949
0
LINE
8
boundary
62
5
39
2
10
53.348404
20
8.309949
11
53.994576
21
8.740827
0
LINE
8
boundary
62
5
39
2
10
53.994576
20
8.740827
11
54.654145
21
9.250851
0
LINE
8
boundary
62
5
39
2
10
54.654145
20
9.250851
11
55.244196
21
9.787044
0
LINE
8
annotation
62
1
39
211
10
42.401837
20
359.146932
11
42.401837
21
363.574321
0
LINE
8
annotation
62
1
39
211
10
42.401837
20
363.574321
11
41.417572
21
362.589778
0
LINE
8
annotation
62
1
39
211
10
37.909438
20
442.350101
11
35.935797
21
442.350101
0
LINE
8
annotation
62
1
39
211
10
35.935797
20
442.350101
11
37.759506
21
445.286038
0
LINE
8
annotation
62
1
39
211
10
37.759506
20
445.286038
11
37.759506
21
445.286038
0
LINE
8
annotation
62
1
39
211
10
37.759506
20
445.286038
11
37.761686
21
445.288736
0
LINE
8
annotation
62
1
39
211
10
37.761686
20
445.288736
11
37.763777
21
445.291457
0
LINE
8
annotation
62
1
39
211
10
37.763777
20
445.291457
11
37.765792
21
445.294223
0
LINE
8
annotation
62
1
39
211
10
37.765792
20
445.294223
11
37.767745
21
445.297059
0
LINE
8
annotation
62
1
39
211
10
37.767745
20
445.297059
11
37.769650
21
445.299986
0
LINE
8
annotation
62
1
39
211
10
37.769650
20
445.299986
11
37.771520
21
445.303028
0
LINE
8
annotation
62
1
39
211
10
37.771520
20
445.303028
11
37.773370
21
445.306207
0
LINE
8
annotation
62
1
39
211
10
37.773370
20
445.306207
11
37.775213
21
445.309547
0
LINE
8
annotation
62
1
39
211
10
37.775213
20
445.309547
11
37.777063
21
445.313070
0
LINE
8
annotation
62
1
39
211
10
37.777063
20
445.313070
11
37.777063
21
445.313070
0
LINE
8
annotation
62
1
39
211
10
37.777063
20
445.313070
11
37.852364
21
445.474747
0
LINE
8
annotation
62
1
39
211
10
37.852364
20
445.474747
11
37.896353
21
445.642339
0
LINE
8
annotation
62
1
39
211
10
37.896353
20
445.642339
11
37.910109
21
445.812060
0
LINE
8
annotation
62
1
39
211
10
37.910109
20
445.812060
11
37.894710
21
445.980122
0
LINE
8
annotation
62
1
39
211
10
37.894710
20
445.980122
11
37.851234
21
446.142739
0
LINE
8
annotation
62
1
39
211
10
37.851234
20
446.142739
11
37.780758
21
446.296123
0
LINE
8
annotation
62
1
39
211
10
37.780758
20
446.296123
11
37.684362
21
446.436489
0
LINE
8
annotation
62
1
39
211
10
37.684362
20
446.436489
11
37.563122
21
446.560049
0
LINE
8
annotation
62
1
39
211
10
37.563122
20
446.560049
11
37.418118
21
446.663016
0
LINE
8
annotation
62
1
39
211
10
37.418118
20
446.663016
11
37.418118
21
446.663016
0
LINE
8
annotation
62
1
39
211
10
37.418118
20
446.663016
11
37.255992
21
446.737247
0
LINE
8
annotation
62
1
39
211
10
37.255992
20
446.737247
11
37.088143
21
446.780558
0
LINE
8
annotation
62
1
39
211
10
37.088143
20
446.780558
11
36.918324
21
446.793926
0
LINE
8
annotation
62
1
39
211
10
36.918324
20
446.793926
11
36.750287
21
446.778323
0
LINE
8
annotation
62
1
39
211
10
36.750287
20
446.778323
11
36.587785
21
446.734727
0
LINE
8
annotation
62
1
39
211
10
36.587785
20
446.734727
11
36.434570
21
446.664110
0
LINE
8
annotation
62
1
39
211
10
36.434570
20
446.664110
11
36.294394
21
446.567449
0
LINE
8
annotation
62
1
39
211
10
36.294394
20
446.567449
11
36.171011
21
446.445718
0
LINE
8
annotation
62
1
39
211
10
36.171011
20
446.445718
11
36.068172
21
446.299891
0
LINE
8
annotation
62
1
39
211
10
36.068172
20
446.299891
11
35.938584
21
446.051305
0
LINE
8
annotation
62
1
39
211
10
65.703020
20
385.354850
11
63.012411
21
381.463129
0
LINE
8
annotation
62
1
39
211
10
63.012411
20
381.463129
11
60.321295
21
385.354850
0
LINE
8
annotation
62
1
39
211
10
63.012411
20
381.776308
11
63.012411
21
377.286562
0
LINE
8
annotation
62
1
39
211
10
73.140775
20
381.320706
11
68.729450
21
381.320706
0
LINE
8
annotation
62
1
39
211
10
77.959258
20
377.286815
11
77.959258
21
385.354597
0
LINE
8
annotation
62
1
39
211
10
77.959258
20
385.354597
11
76.165687
21
383.560520
0
LINE
8
annotation
62
1
39
211
10
80.984423
20
377.287068
11
82.775971
21
377.287068
0
LINE
8
annotation
62
1
39
211
10
82.775971
20
377.287068
11
82.775971
21
377.287068
0
LINE
8
annotation
62
1
39
211
10
82.775971
20
377.287068
11
83.098185
21
377.315973
0
LINE
8
annotation
62
1
39
211
10
83.098185
20
377.315973
11
83.401377
21
377.399278
0
LINE
8
annotation
62
1
39
211
10
83.401377
20
377.399278
11
83.680505
21
377.531870
0
LINE
8
annotation
62
1
39
211
10
83.680505
20
377.531870
11
83.930525
21
377.708635
0
LINE
8
annotation
62
1
39
211
10
83.930525
20
377.708635
11
84.146395
21
377.924460
0
LINE
8
annotation
62
1
39
211
10
84.146395
20
377.924460
11
84.323072
21
378.174231
0
LINE
8
annotation
62
1
39
211
10
84.323072
20
378.174231
11
84.455514
21
378.452835
0
LINE
8
annotation
62
1
39
211
10
84.455514
20
378.452835
11
84.538677
21
378.755158
0
LINE
8
annotation
62
1
39
211
10
84.538677
20
378.755158
11
84.567518
21
379.076086
0
LINE
8
annotation
62
1
39
211
10
84.567518
20
379.076086
11
84.567518
21
379.973124
0
LINE
8
annotation
62
1
39
211
10
84.567518
20
379.973124
11
84.567518
21
379.973124
0
LINE
8
annotation
62
1
39
211
10
84.567518
20
379.973124
11
84.538677
21
380.293919
0
LINE
8
annotation
62
1
39
211
10
84.538677
20
380.293919
11
84.455514
21
380.596171
0
LINE
8
annotation
62
1
39
211
10
84.455514
20
380.596171
11
84.323072
21
380.874754
0
LINE
8
annotation
62
1
39
211
10
84.323072
20
380.874754
11
84.146395
21
381.124542
0
LINE
8
annotation
62
1
39
211
10
84.146395
20
381.124542
11
83.930525
21
381.340408
0
LINE
8
annotation
62
1
39
211
10
83.930525
20
381.340408
11
83.680505
21
381.517228
0
LINE
8
annotation
62
1
39
211
10
83.680505
20
381.517228
11
83.401377
21
381.649874
0
LINE
8
annotation
62
1
39
211
10
83.401377
20
381.649874
11
83.098185
21
381.733221
0
LINE
8
annotation
62
1
39
211
10
83.098185
20
381.733221
11
82.775971
21
381.762142
0
LINE
8
annotation
62
1
39
211
10
82.775971
20
381.762142
11
81.878932
21
381.762142
0
LINE
8
annotation
62
1
39
211
10
81.878932
20
381.762142
11
82.775971
21
381.762142
0
LINE
8
annotation
62
1
39
211
10
82.775971
20
381.762142
11
82.775971
21
381.762142
0
LINE
8
annotation
62
1
39
211
10
82.775971
20
381.762142
11
83.098185
21
381.791070
0
LINE
8
annotation
62
1
39
211
10
83.098185
20
381.791070
11
83.401377
21
381.874466
0
LINE
8
annotation
62
1
39
211
10
83.401377
20
381.874466
11
83.680505
21
382.007244
0
LINE
8
annotation
62
1
39
211
10
83.680505
20
382.007244
11
83.930525
21
382.184320
0
LINE
8
annotation
62
1
39
211
10
83.930525
20
382.184320
11
84.146395
21
382.400610
0
LINE
8
annotation
62
1
39
211
10
84.146395
20
382.400610
11
84.323072
21
382.651029
0
LINE
8
annotation
62
1
39
211
10
84.323072
20
382.651029
11
84.455514
21
382.930493
0
LINE
8
annotation
62
1
39
211
10
84.455514
20
382.930493
11
84.538677
21
383.233918
0
LINE
8
annotation
62
1
39
211
10
84.538677
20
383.233918
11
84.567518
21
383.556219
0
LINE
8
annotation
62
1
39
211
10
84.567518
20
383.556219
11
84.567518
21
383.556219
0
LINE
8
annotation
62
1
39
211
10
84.567518
20
383.556219
11
84.538677
21
383.877014
0
LINE
8
annotation
62
1
39
211
10
84.538677
20
383.877014
11
84.455514
21
384.179266
0
LINE
8
annotation
62
1
39
211
10
84.455514
20
384.179266
11
84.323072
21
384.457849
0
LINE
8
annotation
62
1
39
211
10
84.323072
20
384.457849
11
84.146395
21
384.707636
0
LINE
8
annotation
62
1
39
211
10
84.146395
20
384.707636
11
83.930525
21
384.923503
0
LINE
8
annotation
62
1
39
211
10
83.930525
20
384.923503
11
83.680505
21
385.100322
0
LINE
8
annotation
62
1
39
211
10
83.680505
20
385.100322
11
83.401377
21
385.232969
0
LINE
8
annotation
62
1
39
211
10
83.401377
20
385.232969
11
83.098185
21
385.316315
0
LINE
8
annotation
62
1
39
211
10
83.098185
20
385.316315
11
82.775971
21
385.345237
0
LINE
8
annotation
62
1
39
211
10
82.775971
20
385.345237
11
80.984423
21
385.345237
0
LINE
8
frame
62
5
39
2
10
0.000000
20
0.000000
11
215.900000
21
0.000000
0
LINE
8
frame
62
5
39
2
10
215.900000
20
0.000000
11
215.900000
21
279.400000
0
LINE
8
frame
62
5
39
2
10
215.900000
20
279.400000
11
0.000000
21
279.400000
0
LINE
8
frame
62
5
39
2
10
0.000000
20
279.400000
11
0.000000
21
0.000000
0
ENDSEC
0
EOF
