0
SECTION
2
HEADER
9
$ACADVER
1
AC1009
0
ENDSEC
0
SECTION
2
TABLES
0
TABLE
2
VPORT
70
1
0
VPORT
2
ACTIVE
70
0
10
0.0
20
0.0
11
0.0
21
0.0
12
0.0
22
0.0
13
0.0
23
0.0
14
0.0
24
0.0
15
0.0
25
0.0
16
0.0
26
0.0
36
0.0
17
0.0
27
0.0
37
0.0
40
0.0
41
0.0
42
0.0
43
0.0
44
0.0
50
0.0
51
0.0
71
0
72
1000
73
1
74
3
75
0
76
0
77
0
78
0
0
ENDTAB
0
ENDSEC
0
SECTION
2
ENTITIES
0
LINE
8
boundary
62
5
39
2
10
62.169462
20
10.834711
11
62.507184
21
11.251515
0
LINE
8
boundary
62
5
39
2
10
62.507184
20
11.251515
11
62.910296
21
11.830221
0
LINE
8
boundary
62
5
39
2
10
62.910296
20
11.830221
11
63.196959
21
12.295063
0
LINE
8
boundary
62
5
39
2
10
63.196959
20
12.295063
11
63.523990
21
12.929733
0
LINE
8
boundary
62
5
39
2
10
63.523990
20
12.929733
11
63.749518
21
13.443155
0
LINE
8
boundary
62
5
39
2
10
63.749518
20
13.443155
11
63.989381
21
14.132387
0
LINE
8
boundary
62
5
39
2
10
63.989381
20
14.132387
11
64.143818
21
14.694769
0
LINE
8
boundary
62
5
39
2
10
64.143818
20
14.694769
11
64.285133
21
15.437257
0
LINE
8
boundary
62
5
39
2
10
64.285133
20
15.437257
11
64.358220
21
16.049394
0
LINE
8
boundary
62
5
39
2
10
64.358220
20
16.049394
11
64.390258
21
16.843686
0
LINE
8
boundary
62
5
39
2
10
64.390258
20
16.843686
11
64.370875
21
17.506398
0
LINE
8
boundary
62
5
39
2
10
64.370875
20
17.506398
11
64.326545
21
18.014793
0
LINE
8
boundary
62
5
39
2
10
64.326545
20
18.014793
11
64.256555
21
18.534576
0
LINE
8
boundary
62
5
39
2
10
64.256555
20
18.534576
11
64.160051
21
19.065799
0
LINE
8
boundary
62
5
39
2
10
64.160051
20
19.065799
11
64.036257
21
19.608375
0
LINE
8
boundary
62
5
39
2
10
64.036257
20
19.608375
11
63.884287
21
20.162421
0
LINE
8
boundary
62
5
39
2
10
63.884287
20
20.162421
11
63.703397
21
20.727919
0
LINE
8
boundary
62
5
39
2
10
63.703397
20
20.727919
11
63.492695
21
21.305009
0
LINE
8
boundary
62
5
39
2
10
63.492695
20
21.305009
11
63.251438
21
21.893608
0
LINE
8
boundary
62
5
39
2
10
63.251438
20
21.893608
11
62.978495
21
22.493875
0
LINE
8
boundary
62
5
39
2
10
62.978495
20
22.493875
11
62.673356
21
23.105911
0
LINE
8
boundary
62
5
39
2
10
62.673356
20
23.105911
11
62.195021
21
23.299454
0
LINE
8
boundary
62
5
39
2
10
62.195021
20
23.299454
11
61.403015
21
23.643297
0
LINE
8
boundary
62
5
39
2
10
61.403015
20
23.643297
11
60.609415
21
24.023387
0
LINE
8
boundary
62
5
39
2
10
60.609415
20
24.023387
11
59.814624
21
24.439343
0
LINE
8
boundary
62
5
39
2
10
59.814624
20
24.439343
11
59.019079
21
24.890869
0
LINE
8
boundary
62
5
39
2
10
59.019079
20
24.890869
11
58.223190
21
25.377525
0
LINE
8
boundary
62
5
39
2
10
58.223190
20
25.377525
11
57.427393
21
25.898954
0
LINE
8
boundary
62
5
39
2
10
57.427393
20
25.898954
11
56.631966
21
26.454774
0
LINE
8
boundary
62
5
39
2
10
56.631966
20
26.454774
11
55.837324
21
27.044594
0
LINE
8
boundary
62
5
39
2
10
55.837324
20
27.044594
11
55.043917
21
27.667962
0
LINE
8
boundary
62
5
39
2
10
55.043917
20
27.667962
11
54.252065
21
28.324425
0
LINE
8
boundary
62
5
39
2
10
54.252065
20
28.324425
11
53.462237
21
29.013571
0
LINE
8
boundary
62
5
39
2
10
53.462237
20
29.013571
11
52.674852
21
29.734976
0
LINE
8
boundary
62
5
39
2
10
52.674852
20
29.734976
11
51.890157
21
30.488152
0
LINE
8
boundary
62
5
39
2
10
51.890157
20
30.488152
11
51.520590
21
30.845973
0
LINE
8
boundary
62
5
39
2
10
51.520590
20
30.845973
11
51.108623
21
31.272653
0
LINE
8
boundary
62
5
39
2
10
51.108623
20
31.272653
11
50.734518
21
31.651132
0
LINE
8
boundary
62
5
39
2
10
50.734518
20
31.651132
11
50.330683
21
32.087964
0
LINE
8
boundary
62
5
39
2
10
50.330683
20
32.087964
11
49.952062
21
32.487605
0
LINE
8
boundary
62
5
39
2
10
49.952062
20
32.487605
11
49.556717
21
32.933596
0
LINE
8
boundary
62
5
39
2
10
49.556717
20
32.933596
11
49.173566
21
33.355035
0
LINE
8
boundary
62
5
39
2
10
49.173566
20
33.355035
11
48.787172
21
33.809101
0
LINE
8
boundary
62
5
39
2
10
48.787172
20
33.809101
11
48.399566
21
34.252825
0
LINE
8
boundary
62
5
39
2
10
48.399566
20
34.252825
11
48.022373
21
34.713942
0
LINE
8
boundary
62
5
39
2
10
48.022373
20
34.713942
11
47.630305
21
35.180567
0
LINE
8
boundary
62
5
39
2
10
47.630305
20
35.180567
11
47.262694
21
35.647649
0
LINE
8
boundary
62
5
39
2
10
47.262694
20
35.647649
11
46.866217
21
36.137720
0
LINE
8
boundary
62
5
39
2
10
46.866217
20
36.137720
11
46.508613
21
36.609676
0
LINE
8
boundary
62
5
39
2
10
46.508613
20
36.609676
11
46.107888
21
37.123839
0
LINE
8
boundary
62
5
39
2
10
46.107888
20
37.123839
11
45.760553
21
37.599530
0
LINE
8
boundary
62
5
39
2
10
45.760553
20
37.599530
11
45.355673
21
38.138337
0
LINE
8
boundary
62
5
39
2
10
45.355673
20
38.138337
11
45.018850
21
38.616669
0
LINE
8
boundary
62
5
39
2
10
45.018850
20
38.616669
11
44.609858
21
39.180755
0
LINE
8
boundary
62
5
39
2
10
44.609858
20
39.180755
11
44.283914
21
39.660563
0
LINE
8
boundary
62
5
39
2
10
44.283914
20
39.660563
11
43.871030
21
40.250522
0
LINE
8
boundary
62
5
39
2
10
43.871030
20
40.250522
11
43.556185
21
40.730704
0
LINE
8
boundary
62
5
39
2
10
43.556185
20
40.730704
11
43.139526
21
41.347220
0
LINE
8
boundary
62
5
39
2
10
43.139526
20
41.347220
11
42.836033
21
41.826565
0
LINE
8
boundary
62
5
39
2
10
42.836033
20
41.826565
11
42.415857
21
42.470173
0
LINE
8
boundary
62
5
39
2
10
42.415857
20
42.470173
11
42.123933
21
42.947587
0
LINE
8
boundary
62
5
39
2
10
42.123933
20
42.947587
11
41.700468
21
43.618960
0
LINE
8
boundary
62
5
39
2
10
41.700468
20
43.618960
11
41.420288
21
44.093250
0
LINE
8
boundary
62
5
39
2
10
41.420288
20
44.093250
11
40.993653
21
44.793037
0
LINE
8
boundary
62
5
39
2
10
40.993653
20
44.793037
11
40.725432
21
45.263056
0
LINE
8
boundary
62
5
39
2
10
40.725432
20
45.263056
11
40.296107
21
45.991841
0
LINE
8
boundary
62
5
39
2
10
40.296107
20
45.991841
11
40.039912
21
46.456397
0
LINE
8
boundary
62
5
39
2
10
40.039912
20
46.456397
11
39.607977
21
47.214813
0
LINE
8
boundary
62
5
39
2
10
39.607977
20
47.214813
11
39.363968
21
47.672784
0
LINE
8
boundary
62
5
39
2
10
39.363968
20
47.672784
11
38.929881
21
48.461460
0
LINE
8
boundary
62
5
39
2
10
38.929881
20
48.461460
11
38.262245
21
49.731225
0
LINE
8
boundary
62
5
39
2
10
38.262245
20
49.731225
11
37.605548
21
51.023554
0
LINE
8
boundary
62
5
39
2
10
37.605548
20
51.023554
11
36.960249
21
52.337926
0
LINE
8
boundary
62
5
39
2
10
36.960249
20
52.337926
11
36.326770
21
53.673789
0
LINE
8
boundary
62
5
39
2
10
36.326770
20
53.673789
11
35.705565
21
55.030669
0
LINE
8
boundary
62
5
39
2
10
35.705565
20
55.030669
11
35.097225
21
56.407908
0
LINE
8
boundary
62
5
39
2
10
35.097225
20
56.407908
11
34.502121
21
57.805070
0
LINE
8
boundary
62
5
39
2
10
34.502121
20
57.805070
11
33.920605
21
59.221618
0
LINE
8
boundary
62
5
39
2
10
33.920605
20
59.221618
11
33.353223
21
60.656980
0
LINE
8
boundary
62
5
39
2
10
33.353223
20
60.656980
11
32.800507
21
62.110677
0
LINE
8
boundary
62
5
39
2
10
32.800507
20
62.110677
11
32.262810
21
63.582201
0
LINE
8
boundary
62
5
39
2
10
32.262810
20
63.582201
11
31.740805
21
65.071021
0
LINE
8
boundary
62
5
39
2
10
31.740805
20
65.071021
11
31.234726
21
66.576653
0
LINE
8
boundary
62
5
39
2
10
31.234726
20
66.576653
11
30.745344
21
68.098510
0
LINE
8
boundary
62
5
39
2
10
30.745344
20
68.098510
11
30.272823
21
69.636202
0
LINE
8
boundary
62
5
39
2
10
30.272823
20
69.636202
11
29.817810
21
71.189158
0
LINE
8
boundary
62
5
39
2
10
29.817810
20
71.189158
11
29.380756
21
72.756954
0
LINE
8
boundary
62
5
39
2
10
29.380756
20
72.756954
11
28.962068
21
74.339122
0
LINE
8
boundary
62
5
39
2
10
28.962068
20
74.339122
11
28.562274
21
75.935140
0
LINE
8
boundary
62
5
39
2
10
28.562274
20
75.935140
11
28.181882
21
77.544528
0
LINE
8
boundary
62
5
39
2
10
28.181882
20
77.544528
11
27.821318
21
79.166855
0
LINE
8
boundary
62
5
39
2
10
27.821318
20
79.166855
11
27.481149
21
80.801735
0
LINE
8
boundary
62
5
39
2
10
27.481149
20
80.801735
11
27.161641
21
82.448732
0
LINE
8
boundary
62
5
39
2
10
27.161641
20
82.448732
11
26.831978
21
84.086971
0
LINE
8
boundary
62
5
39
2
10
26.831978
20
84.086971
11
26.518842
21
85.732712
0
LINE
8
boundary
62
5
39
2
10
26.518842
20
85.732712
11
26.227964
21
87.388993
0
LINE
8
boundary
62
5
39
2
10
26.227964
20
87.388993
11
25.959823
21
89.055393
0
LINE
8
boundary
62
5
39
2
10
25.959823
20
89.055393
11
25.714814
21
90.731571
0
LINE
8
boundary
62
5
39
2
10
25.714814
20
90.731571
11
25.493424
21
92.417252
0
LINE
8
boundary
62
5
39
2
10
25.493424
20
92.417252
11
25.296016
21
94.112117
0
LINE
8
boundary
62
5
39
2
10
25.296016
20
94.112117
11
25.123039
21
95.815851
0
LINE
8
boundary
62
5
39
2
10
25.123039
20
95.815851
11
24.975029
21
97.528188
0
LINE
8
boundary
62
5
39
2
10
24.975029
20
97.528188
11
24.852473
21
99.248784
0
LINE
8
boundary
62
5
39
2
10
24.852473
20
99.248784
11
24.664082
21
100.670332
0
LINE
8
boundary
62
5
39
2
10
24.664082
20
100.670332
11
24.475918
21
102.032931
0
LINE
8
boundary
62
5
39
2
10
24.475918
20
102.032931
11
24.302488
21
103.390556
0
LINE
8
boundary
62
5
39
2
10
24.302488
20
103.390556
11
24.143765
21
104.743157
0
LINE
8
boundary
62
5
39
2
10
24.143765
20
104.743157
11
23.999477
21
106.090847
0
LINE
8
boundary
62
5
39
2
10
23.999477
20
106.090847
11
23.869448
21
107.433691
0
LINE
8
boundary
62
5
39
2
10
23.869448
20
107.433691
11
23.680471
21
109.782547
0
LINE
8
boundary
62
5
39
2
10
23.680471
20
109.782547
11
23.626043
21
110.435121
0
LINE
8
boundary
62
5
39
2
10
23.626043
20
110.435121
11
23.513048
21
112.409537
0
LINE
8
boundary
62
5
39
2
10
23.513048
20
112.409537
11
23.469057
21
113.112928
0
LINE
8
boundary
62
5
39
2
10
23.469057
20
113.112928
11
23.398591
21
115.019773
0
LINE
8
boundary
62
5
39
2
10
23.398591
20
115.019773
11
23.367250
21
115.770280
0
LINE
8
boundary
62
5
39
2
10
23.367250
20
115.770280
11
23.335991
21
117.613637
0
LINE
8
boundary
62
5
39
2
10
23.335991
20
117.613637
11
23.319079
21
118.407633
0
LINE
8
boundary
62
5
39
2
10
23.319079
20
118.407633
11
23.323966
21
120.191663
0
LINE
8
boundary
62
5
39
2
10
23.323966
20
120.191663
11
23.322981
21
121.025491
0
LINE
8
boundary
62
5
39
2
10
23.322981
20
121.025491
11
23.361395
21
122.754132
0
LINE
8
boundary
62
5
39
2
10
23.361395
20
122.754132
11
23.377660
21
123.624123
0
LINE
8
boundary
62
5
39
2
10
23.377660
20
123.624123
11
23.447169
21
125.301341
0
LINE
8
boundary
62
5
39
2
10
23.447169
20
125.301341
11
23.481765
21
126.203862
0
LINE
8
boundary
62
5
39
2
10
23.481765
20
126.203862
11
23.579890
21
127.833660
0
LINE
8
boundary
62
5
39
2
10
23.579890
20
127.833660
11
23.633463
21
128.765189
0
LINE
8
boundary
62
5
39
2
10
23.633463
20
128.765189
11
23.758234
21
130.351382
0
LINE
8
boundary
62
5
39
2
10
23.758234
20
130.351382
11
23.831363
21
131.308427
0
LINE
8
boundary
62
5
39
2
10
23.831363
20
131.308427
11
23.981070
21
132.854764
0
LINE
8
boundary
62
5
39
2
10
23.981070
20
132.854764
11
24.074003
21
133.833929
0
LINE
8
boundary
62
5
39
2
10
24.074003
20
133.833929
11
24.247100
21
135.344086
0
LINE
8
boundary
62
5
39
2
10
24.247100
20
135.344086
11
24.359966
21
136.342104
0
LINE
8
boundary
62
5
39
2
10
24.359966
20
136.342104
11
24.554991
21
137.819542
0
LINE
8
boundary
62
5
39
2
10
24.554991
20
137.819542
11
24.687656
21
138.833197
0
LINE
8
boundary
62
5
39
2
10
24.687656
20
138.833197
11
24.903460
21
140.281357
0
LINE
8
boundary
62
5
39
2
10
24.903460
20
140.281357
11
25.055645
21
141.307666
0
LINE
8
boundary
62
5
39
2
10
25.055645
20
141.307666
11
25.291228
21
142.729801
0
LINE
8
boundary
62
5
39
2
10
25.291228
20
142.729801
11
25.462437
21
143.765767
0
LINE
8
boundary
62
5
39
2
10
25.462437
20
143.765767
11
25.716788
21
145.164958
0
LINE
8
boundary
62
5
39
2
10
25.716788
20
145.164958
11
25.906386
21
146.207831
0
LINE
8
boundary
62
5
39
2
10
25.906386
20
146.207831
11
26.178776
21
147.587016
0
LINE
8
boundary
62
5
39
2
10
26.178776
20
147.587016
11
26.386006
21
148.634188
0
LINE
8
boundary
62
5
39
2
10
26.386006
20
148.634188
11
26.675903
21
149.996192
0
LINE
8
boundary
62
5
39
2
10
26.675903
20
149.996192
11
26.899977
21
151.045164
0
LINE
8
boundary
62
5
39
2
10
26.899977
20
151.045164
11
27.206788
21
152.392572
0
LINE
8
boundary
62
5
39
2
10
27.206788
20
152.392572
11
27.446723
21
153.440999
0
LINE
8
boundary
62
5
39
2
10
27.446723
20
153.440999
11
27.769907
21
154.776277
0
LINE
8
boundary
62
5
39
2
10
27.769907
20
154.776277
11
28.024586
21
155.821979
0
LINE
8
boundary
62
5
39
2
10
28.024586
20
155.821979
11
28.363795
21
157.147475
0
LINE
8
boundary
62
5
39
2
10
28.363795
20
157.147475
11
28.632168
21
158.188416
0
LINE
8
boundary
62
5
39
2
10
28.632168
20
158.188416
11
28.987117
21
159.506216
0
LINE
8
boundary
62
5
39
2
10
28.987117
20
159.506216
11
29.268036
21
160.540497
0
LINE
8
boundary
62
5
39
2
10
29.268036
20
160.540497
11
29.638416
21
161.852647
0
LINE
8
boundary
62
5
39
2
10
29.638416
20
161.852647
11
29.930744
21
162.878519
0
LINE
8
boundary
62
5
39
2
10
29.930744
20
162.878519
11
30.316269
21
164.186901
0
LINE
8
boundary
62
5
39
2
10
30.316269
20
164.186901
11
30.618696
21
165.202797
0
LINE
8
boundary
62
5
39
2
10
30.618696
20
165.202797
11
31.019177
21
166.509022
0
LINE
8
boundary
62
5
39
2
10
31.019177
20
166.509022
11
31.330525
21
167.513387
0
LINE
8
boundary
62
5
39
2
10
31.330525
20
167.513387
11
31.745647
21
168.819060
0
LINE
8
boundary
62
5
39
2
10
31.745647
20
168.819060
11
32.064686
21
169.810599
0
LINE
8
boundary
62
5
39
2
10
32.064686
20
169.810599
11
32.494249
21
171.117204
0
LINE
8
boundary
62
5
39
2
10
32.494249
20
171.117204
11
32.819707
21
172.094690
0
LINE
8
boundary
62
5
39
2
10
32.819707
20
172.094690
11
33.263517
21
173.403450
0
LINE
8
boundary
62
5
39
2
10
33.263517
20
173.403450
11
33.594247
21
174.365720
0
LINE
8
boundary
62
5
39
2
10
33.594247
20
174.365720
11
34.052010
21
175.677906
0
LINE
8
boundary
62
5
39
2
10
34.052010
20
175.677906
11
34.386737
21
176.624041
0
LINE
8
boundary
62
5
39
2
10
34.386737
20
176.624041
11
34.858193
21
177.940663
0
LINE
8
boundary
62
5
39
2
10
34.858193
20
177.940663
11
35.195831
21
178.869706
0
LINE
8
boundary
62
5
39
2
10
35.195831
20
178.869706
11
35.680656
21
180.191802
0
LINE
8
boundary
62
5
39
2
10
35.680656
20
180.191802
11
36.020022
21
181.102991
0
LINE
8
boundary
62
5
39
2
10
36.020022
20
181.102991
11
36.517973
21
182.431377
0
LINE
8
boundary
62
5
39
2
10
36.517973
20
182.431377
11
36.858029
21
183.323997
0
LINE
8
boundary
62
5
39
2
10
36.858029
20
183.323997
11
37.368653
21
184.659498
0
LINE
8
boundary
62
5
39
2
10
37.368653
20
184.659498
11
37.708269
21
185.532932
0
LINE
8
boundary
62
5
39
2
10
37.708269
20
185.532932
11
38.231313
21
186.876189
0
LINE
8
boundary
62
5
39
2
10
38.231313
20
186.876189
11
38.569588
21
187.729911
0
LINE
8
boundary
62
5
39
2
10
38.569588
20
187.729911
11
39.104540
21
189.081535
0
LINE
8
boundary
62
5
39
2
10
39.104540
20
189.081535
11
39.440488
21
189.915030
0
LINE
8
boundary
62
5
39
2
10
39.440488
20
189.915030
11
39.986815
21
191.275622
0
LINE
8
boundary
62
5
39
2
10
39.986815
20
191.275622
11
40.319420
21
192.088554
0
LINE
8
boundary
62
5
39
2
10
40.319420
20
192.088554
11
41.441310
21
194.830404
0
LINE
8
boundary
62
5
39
2
10
41.441310
20
194.830404
11
42.096682
21
196.401070
0
LINE
8
boundary
62
5
39
2
10
42.096682
20
196.401070
11
43.258360
21
199.184749
0
LINE
8
boundary
62
5
39
2
10
43.258360
20
199.184749
11
43.890585
21
200.668467
0
LINE
8
boundary
62
5
39
2
10
43.890585
20
200.668467
11
45.087111
21
203.496244
0
LINE
8
boundary
62
5
39
2
10
45.087111
20
203.496244
11
45.690776
21
204.891656
0
LINE
8
boundary
62
5
39
2
10
45.690776
20
204.891656
11
46.916345
21
207.765132
0
LINE
8
boundary
62
5
39
2
10
46.916345
20
207.765132
11
47.486800
21
209.071627
0
LINE
8
boundary
62
5
39
2
10
47.486800
20
209.071627
11
48.735115
21
211.991531
0
LINE
8
boundary
62
5
39
2
10
48.735115
20
211.991531
11
49.268646
21
213.209025
0
LINE
8
boundary
62
5
39
2
10
49.268646
20
213.209025
11
51.806327
21
219.191151
0
LINE
8
boundary
62
5
39
2
10
51.806327
20
219.191151
11
52.750561
21
221.359625
0
LINE
8
boundary
62
5
39
2
10
52.750561
20
221.359625
11
55.293569
21
227.538583
0
LINE
8
boundary
62
5
39
2
10
55.293569
20
227.538583
11
56.060757
21
229.349642
0
LINE
8
boundary
62
5
39
2
10
56.060757
20
229.349642
11
57.307350
21
232.499454
0
LINE
8
boundary
62
5
39
2
10
57.307350
20
232.499454
11
57.628923
21
233.286487
0
LINE
8
boundary
62
5
39
2
10
57.628923
20
233.286487
11
58.848438
21
236.479447
0
LINE
8
boundary
62
5
39
2
10
58.848438
20
236.479447
11
59.127246
21
237.185399
0
LINE
8
boundary
62
5
39
2
10
59.127246
20
237.185399
11
60.310151
21
240.420219
0
LINE
8
boundary
62
5
39
2
10
60.310151
20
240.420219
11
60.547695
21
241.047305
0
LINE
8
boundary
62
5
39
2
10
60.547695
20
241.047305
11
61.120459
21
242.675690
0
LINE
8
boundary
62
5
39
2
10
61.120459
20
242.675690
11
61.785704
21
244.602619
0
LINE
8
boundary
62
5
39
2
10
61.785704
20
244.602619
11
62.766672
21
247.575043
0
LINE
8
boundary
62
5
39
2
10
62.766672
20
247.575043
11
63.775419
21
250.802961
0
LINE
8
boundary
62
5
39
2
10
63.775419
20
250.802961
11
64.319517
21
252.623114
0
LINE
8
boundary
62
5
39
2
10
64.319517
20
252.623114
11
64.792687
21
254.282601
0
LINE
8
boundary
62
5
39
2
10
64.792687
20
254.282601
11
65.252841
21
255.962383
0
LINE
8
boundary
62
5
39
2
10
65.252841
20
255.962383
11
65.698732
21
257.661711
0
LINE
8
boundary
62
5
39
2
10
65.698732
20
257.661711
11
66.129240
21
259.379764
0
LINE
8
boundary
62
5
39
2
10
66.129240
20
259.379764
11
66.542983
21
261.115819
0
LINE
8
boundary
62
5
39
2
10
66.542983
20
261.115819
11
66.938697
21
262.869011
0
LINE
8
boundary
62
5
39
2
10
66.938697
20
262.869011
11
67.315483
21
264.638795
0
LINE
8
boundary
62
5
39
2
10
67.315483
20
264.638795
11
67.671767
21
266.424202
0
LINE
8
boundary
62
5
39
2
10
67.671767
20
266.424202
11
68.006523
21
268.224596
0
LINE
8
boundary
62
5
39
2
10
68.006523
20
268.224596
11
68.318621
21
270.039282
0
LINE
8
boundary
62
5
39
2
10
68.318621
20
270.039282
11
68.607008
21
271.867587
0
LINE
8
boundary
62
5
39
2
10
68.607008
20
271.867587
11
68.870637
21
273.708728
0
LINE
8
boundary
62
5
39
2
10
68.870637
20
273.708728
11
69.108312
21
275.562053
0
LINE
8
boundary
62
5
39
2
10
69.108312
20
275.562053
11
69.181613
21
276.210325
0
LINE
8
boundary
62
5
39
2
10
69.181613
20
276.210325
11
69.293880
21
277.417505
0
LINE
8
boundary
62
5
39
2
10
69.293880
20
277.417505
11
69.438527
21
279.278663
0
LINE
8
boundary
62
5
39
2
10
69.438527
20
279.278663
11
69.554593
21
281.149873
0
LINE
8
boundary
62
5
39
2
10
69.554593
20
281.149873
11
69.641431
21
283.030670
0
LINE
8
boundary
62
5
39
2
10
69.641431
20
283.030670
11
69.697993
21
284.920300
0
LINE
8
boundary
62
5
39
2
10
69.697993
20
284.920300
11
69.723542
21
286.818328
0
LINE
8
boundary
62
5
39
2
10
69.723542
20
286.818328
11
69.717107
21
288.723942
0
LINE
8
boundary
62
5
39
2
10
69.717107
20
288.723942
11
69.678123
21
290.636845
0
LINE
8
boundary
62
5
39
2
10
69.678123
20
290.636845
11
69.605741
21
292.556145
0
LINE
8
boundary
62
5
39
2
10
69.605741
20
292.556145
11
69.499176
21
294.481721
0
LINE
8
boundary
62
5
39
2
10
69.499176
20
294.481721
11
69.357723
21
296.412610
0
LINE
8
boundary
62
5
39
2
10
69.357723
20
296.412610
11
69.180554
21
298.348554
0
LINE
8
boundary
62
5
39
2
10
69.180554
20
298.348554
11
68.967282
21
300.288957
0
LINE
8
boundary
62
5
39
2
10
68.967282
20
300.288957
11
68.716788
21
302.233215
0
LINE
8
boundary
62
5
39
2
10
68.716788
20
302.233215
11
68.428701
21
304.180854
0
LINE
8
boundary
62
5
39
2
10
68.428701
20
304.180854
11
68.102400
21
306.131446
0
LINE
8
boundary
62
5
39
2
10
68.102400
20
306.131446
11
67.737109
21
308.084516
0
LINE
8
boundary
62
5
39
2
10
67.737109
20
308.084516
11
67.332401
21
310.039461
0
LINE
8
boundary
62
5
39
2
10
67.332401
20
310.039461
11
66.887517
21
311.995780
0
LINE
8
boundary
62
5
39
2
10
66.887517
20
311.995780
11
66.401952
21
313.953133
0
LINE
8
boundary
62
5
39
2
10
66.401952
20
313.953133
11
65.875044
21
315.910925
0
LINE
8
boundary
62
5
39
2
10
65.875044
20
315.910925
11
65.306256
21
317.868783
0
LINE
8
boundary
62
5
39
2
10
65.306256
20
317.868783
11
64.695101
21
319.826126
0
LINE
8
boundary
62
5
39
2
10
64.695101
20
319.826126
11
64.040937
21
321.782573
0
LINE
8
boundary
62
5
39
2
10
64.040937
20
321.782573
11
63.343249
21
323.737577
0
LINE
8
boundary
62
5
39
2
10
63.343249
20
323.737577
11
62.601500
21
325.690840
0
LINE
8
boundary
62
5
39
2
10
62.601500
20
325.690840
11
62.213982
21
326.666680
0
LINE
8
boundary
62
5
39
2
10
62.213982
20
326.666680
11
61.815288
21
327.641829
0
LINE
8
boundary
62
5
39
2
10
61.815288
20
327.641829
11
61.405262
21
328.616345
0
LINE
8
boundary
62
5
39
2
10
61.405262
20
328.616345
11
60.983929
21
329.590040
0
LINE
8
boundary
62
5
39
2
10
60.983929
20
329.590040
11
60.551186
21
330.563021
0
LINE
8
boundary
62
5
39
2
10
60.551186
20
330.563021
11
60.106987
21
331.534996
0
LINE
8
boundary
62
5
39
2
10
60.106987
20
331.534996
11
59.651279
21
332.506230
0
LINE
8
boundary
62
5
39
2
10
59.651279
20
332.506230
11
59.183996
21
333.476412
0
LINE
8
boundary
62
5
39
2
10
59.183996
20
333.476412
11
58.705031
21
334.445641
0
LINE
8
boundary
62
5
39
2
10
58.705031
20
334.445641
11
58.214393
21
335.413729
0
LINE
8
boundary
62
5
39
2
10
58.214393
20
335.413729
11
57.711923
21
336.380632
0
LINE
8
boundary
62
5
39
2
10
57.711923
20
336.380632
11
57.197643
21
337.346480
0
LINE
8
boundary
62
5
39
2
10
57.197643
20
337.346480
11
56.671556
21
338.311012
0
LINE
8
boundary
62
5
39
2
10
56.671556
20
338.311012
11
56.133431
21
339.274185
0
LINE
8
boundary
62
5
39
2
10
56.133431
20
339.274185
11
55.583347
21
340.236035
0
LINE
8
boundary
62
5
39
2
10
55.583347
20
340.236035
11
55.021139
21
341.196499
0
LINE
8
boundary
62
5
39
2
10
55.021139
20
341.196499
11
54.446890
21
342.155499
0
LINE
8
boundary
62
5
39
2
10
54.446890
20
342.155499
11
53.860431
21
343.112865
0
LINE
8
boundary
62
5
39
2
10
53.860431
20
343.112865
11
53.261659
21
344.068752
0
LINE
8
boundary
62
5
39
2
10
53.261659
20
344.068752
11
52.650699
21
345.023031
0
LINE
8
boundary
62
5
39
2
10
52.650699
20
345.023031
11
52.027298
21
345.975554
0
LINE
8
boundary
62
5
39
2
10
52.027298
20
345.975554
11
51.391396
21
346.926285
0
LINE
8
boundary
62
5
39
2
10
51.391396
20
346.926285
11
50.743173
21
347.875250
0
LINE
8
boundary
62
5
39
2
10
50.743173
20
347.875250
11
50.082333
21
348.822272
0
LINE
8
boundary
62
5
39
2
10
50.082333
20
348.822272
11
49.408907
21
349.767532
0
LINE
8
boundary
62
5
39
2
10
49.408907
20
349.767532
11
48.722846
21
350.710668
0
LINE
8
boundary
62
5
39
2
10
48.722846
20
350.710668
11
48.024022
21
351.651816
0
LINE
8
boundary
62
5
39
2
10
48.024022
20
351.651816
11
47.312430
21
352.590844
0
LINE
8
boundary
62
5
39
2
10
47.312430
20
352.590844
11
46.588112
21
353.527739
0
LINE
8
boundary
62
5
39
2
10
46.588112
20
353.527739
11
45.850923
21
354.462426
0
LINE
8
boundary
62
5
39
2
10
45.850923
20
354.462426
11
45.100706
21
355.394773
0
LINE
8
boundary
62
5
39
2
10
45.100706
20
355.394773
11
44.337487
21
356.324945
0
LINE
8
boundary
62
5
39
2
10
44.337487
20
356.324945
11
43.561359
21
357.252644
0
LINE
8
boundary
62
5
39
2
10
43.561359
20
357.252644
11
42.771954
21
358.177849
0
LINE
8
boundary
62
5
39
2
10
42.771954
20
358.177849
11
41.969505
21
359.100614
0
LINE
8
boundary
62
5
39
2
10
41.969505
20
359.100614
11
41.153881
21
360.020841
0
LINE
8
boundary
62
5
39
2
10
41.153881
20
360.020841
11
40.324945
21
360.938337
0
LINE
8
boundary
62
5
39
2
10
40.324945
20
360.938337
11
39.482614
21
361.853194
0
LINE
8
boundary
62
5
39
2
10
39.482614
20
361.853194
11
38.627020
21
362.765375
0
LINE
8
boundary
62
5
39
2
10
38.627020
20
362.765375
11
37.758014
21
363.674616
0
LINE
8
boundary
62
5
39
2
10
37.758014
20
363.674616
11
37.487435
21
364.210124
0
LINE
8
boundary
62
5
39
2
10
37.487435
20
364.210124
11
37.244794
21
364.721254
0
LINE
8
boundary
62
5
39
2
10
37.244794
20
364.721254
11
37.029382
21
365.208563
0
LINE
8
boundary
62
5
39
2
10
37.029382
20
365.208563
11
36.810894
21
365.753446
0
LINE
8
boundary
62
5
39
2
10
36.810894
20
365.753446
11
36.540093
21
366.531635
0
LINE
8
boundary
62
5
39
2
10
36.540093
20
366.531635
11
36.338418
21
367.302498
0
LINE
8
boundary
62
5
39
2
10
36.338418
20
367.302498
11
36.230397
21
367.988511
0
LINE
8
boundary
62
5
39
2
10
36.230397
20
367.988511
11
36.211222
21
368.593249
0
LINE
8
boundary
62
5
39
2
10
36.211222
20
368.593249
11
36.276019
21
369.120360
0
LINE
8
boundary
62
5
39
2
10
36.276019
20
369.120360
11
36.439955
21
369.613318
0
LINE
8
boundary
62
5
39
2
10
36.439955
20
369.613318
11
36.774237
21
370.121366
0
LINE
8
boundary
62
5
39
2
10
36.774237
20
370.121366
11
37.280099
21
370.522559
0
LINE
8
boundary
62
5
39
2
10
37.280099
20
370.522559
11
37.922142
21
370.788973
0
LINE
8
boundary
62
5
39
2
10
37.922142
20
370.788973
11
38.476795
21
370.905506
0
LINE
8
boundary
62
5
39
2
10
38.476795
20
370.905506
11
39.027987
21
370.957724
0
LINE
8
boundary
62
5
39
2
10
39.027987
20
370.957724
11
39.552265
21
370.965452
0
LINE
8
boundary
62
5
39
2
10
39.552265
20
370.965452
11
40.181435
21
370.931650
0
LINE
8
boundary
62
5
39
2
10
40.181435
20
370.931650
11
41.189870
21
370.806462
0
LINE
8
boundary
62
5
39
2
10
41.189870
20
370.806462
11
41.898720
21
370.678511
0
LINE
8
boundary
62
5
39
2
10
41.898720
20
370.678511
11
42.631418
21
370.519157
0
LINE
8
boundary
62
5
39
2
10
42.631418
20
370.519157
11
43.383315
21
370.331822
0
LINE
8
boundary
62
5
39
2
10
43.383315
20
370.331822
11
44.149909
21
370.120240
0
LINE
8
boundary
62
5
39
2
10
44.149909
20
370.120240
11
44.926493
21
369.887916
0
LINE
8
boundary
62
5
39
2
10
44.926493
20
369.887916
11
45.708570
21
369.638371
0
LINE
8
boundary
62
5
39
2
10
45.708570
20
369.638371
11
46.491362
21
369.375071
0
LINE
8
boundary
62
5
39
2
10
46.491362
20
369.375071
11
47.270200
21
369.101767
0
LINE
8
boundary
62
5
39
2
10
47.270200
20
369.101767
11
48.797501
21
368.538933
0
LINE
8
boundary
62
5
39
2
10
48.797501
20
368.538933
11
50.252796
21
367.978341
0
LINE
8
boundary
62
5
39
2
10
50.252796
20
367.978341
11
51.598378
21
367.448180
0
LINE
8
boundary
62
5
39
2
10
51.598378
20
367.448180
11
52.479604
21
366.853812
0
LINE
8
boundary
62
5
39
2
10
52.479604
20
366.853812
11
53.371495
21
366.278839
0
LINE
8
boundary
62
5
39
2
10
53.371495
20
366.278839
11
54.273260
21
365.723344
0
LINE
8
boundary
62
5
39
2
10
54.273260
20
365.723344
11
55.184569
21
365.187313
0
LINE
8
boundary
62
5
39
2
10
55.184569
20
365.187313
11
56.104785
21
364.670776
0
LINE
8
boundary
62
5
39
2
10
56.104785
20
364.670776
11
57.033424
21
364.173639
0
LINE
8
boundary
62
5
39
2
10
57.033424
20
364.173639
11
57.969940
21
363.695965
0
LINE
8
boundary
62
5
39
2
10
57.969940
20
363.695965
11
58.913578
21
363.237708
0
LINE
8
boundary
62
5
39
2
10
58.913578
20
363.237708
11
59.864086
21
362.798914
0
LINE
8
boundary
62
5
39
2
10
59.864086
20
362.798914
11
60.820797
21
362.379602
0
LINE
8
boundary
62
5
39
2
10
60.820797
20
362.379602
11
61.783131
21
361.979675
0
LINE
8
boundary
62
5
39
2
10
61.783131
20
361.979675
11
62.750383
21
361.599151
0
LINE
8
boundary
62
5
39
2
10
62.750383
20
361.599151
11
63.722204
21
361.238067
0
LINE
8
boundary
62
5
39
2
10
63.722204
20
361.238067
11
64.697939
21
360.896359
0
LINE
8
boundary
62
5
39
2
10
64.697939
20
360.896359
11
65.676989
21
360.574061
0
LINE
8
boundary
62
5
39
2
10
65.676989
20
360.574061
11
66.658864
21
360.271286
0
LINE
8
boundary
62
5
39
2
10
66.658864
20
360.271286
11
67.642884
21
359.987769
0
LINE
8
boundary
62
5
39
2
10
67.642884
20
359.987769
11
68.628661
21
359.723706
0
LINE
8
boundary
62
5
39
2
10
68.628661
20
359.723706
11
69.615394
21
359.478953
0
LINE
8
boundary
62
5
39
2
10
69.615394
20
359.478953
11
70.602641
21
359.253557
0
LINE
8
boundary
62
5
39
2
10
70.602641
20
359.253557
11
71.589865
21
359.047547
0
LINE
8
boundary
62
5
39
2
10
71.589865
20
359.047547
11
72.576468
21
358.860846
0
LINE
8
boundary
62
5
39
2
10
72.576468
20
358.860846
11
73.561860
21
358.693513
0
LINE
8
boundary
62
5
39
2
10
73.561860
20
358.693513
11
74.545511
21
358.545531
0
LINE
8
boundary
62
5
39
2
10
74.545511
20
358.545531
11
75.526915
21
358.416869
0
LINE
8
boundary
62
5
39
2
10
75.526915
20
358.416869
11
76.505303
21
358.307469
0
LINE
8
boundary
62
5
39
2
10
76.505303
20
358.307469
11
77.480324
21
358.217436
0
LINE
8
boundary
62
5
39
2
10
77.480324
20
358.217436
11
78.451397
21
358.146673
0
LINE
8
boundary
62
5
39
2
10
78.451397
20
358.146673
11
79.417909
21
358.095117
0
LINE
8
boundary
62
5
39
2
10
79.417909
20
358.095117
11
80.379379
21
358.062888
0
LINE
8
boundary
62
5
39
2
10
80.379379
20
358.062888
11
81.335204
21
358.049827
0
LINE
8
boundary
62
5
39
2
10
81.335204
20
358.049827
11
82.284855
21
358.056063
0
LINE
8
boundary
62
5
39
2
10
82.284855
20
358.056063
11
83.227761
21
358.081535
0
LINE
8
boundary
62
5
39
2
10
83.227761
20
358.081535
11
84.163623
21
358.126182
0
LINE
8
boundary
62
5
39
2
10
84.163623
20
358.126182
11
85.091565
21
358.190034
0
LINE
8
boundary
62
5
39
2
10
85.091565
20
358.190034
11
86.011368
21
358.273086
0
LINE
8
boundary
62
5
39
2
10
86.011368
20
358.273086
11
86.922360
21
358.375281
0
LINE
8
boundary
62
5
39
2
10
86.922360
20
358.375281
11
87.824065
21
358.496646
0
LINE
8
boundary
62
5
39
2
10
87.824065
20
358.496646
11
88.716003
21
358.637162
0
LINE
8
boundary
62
5
39
2
10
88.716003
20
358.637162
11
89.597703
21
358.796775
0
LINE
8
boundary
62
5
39
2
10
89.597703
20
358.796775
11
90.468628
21
358.975553
0
LINE
8
boundary
62
5
39
2
10
90.468628
20
358.975553
11
91.328330
21
359.173380
0
LINE
8
boundary
62
5
39
2
10
91.328330
20
359.173380
11
92.176315
21
359.390377
0
LINE
8
boundary
62
5
39
2
10
92.176315
20
359.390377
11
93.012143
21
359.626433
0
LINE
8
boundary
62
5
39
2
10
93.012143
20
359.626433
11
93.835287
21
359.881524
0
LINE
8
boundary
62
5
39
2
10
93.835287
20
359.881524
11
94.645301
21
360.155665
0
LINE
8
boundary
62
5
39
2
10
94.645301
20
360.155665
11
95.441872
21
360.448881
0
LINE
8
boundary
62
5
39
2
10
95.441872
20
360.448881
11
96.224329
21
360.761110
0
LINE
8
boundary
62
5
39
2
10
96.224329
20
360.761110
11
96.992433
21
361.092418
0
LINE
8
boundary
62
5
39
2
10
96.992433
20
361.092418
11
97.745600
21
361.442654
0
LINE
8
boundary
62
5
39
2
10
97.745600
20
361.442654
11
98.483575
21
361.811949
0
LINE
8
boundary
62
5
39
2
10
98.483575
20
361.811949
11
99.205892
21
362.200226
0
LINE
8
boundary
62
5
39
2
10
99.205892
20
362.200226
11
99.911990
21
362.607494
0
LINE
8
boundary
62
5
39
2
10
99.911990
20
362.607494
11
100.601643
21
363.033742
0
LINE
8
boundary
62
5
39
2
10
100.601643
20
363.033742
11
101.274473
21
363.478982
0
LINE
8
boundary
62
5
39
2
10
101.274473
20
363.478982
11
101.929870
21
363.943188
0
LINE
8
boundary
62
5
39
2
10
101.929870
20
363.943188
11
102.567658
21
364.426359
0
LINE
8
boundary
62
5
39
2
10
102.567658
20
364.426359
11
103.187372
21
364.928494
0
LINE
8
boundary
62
5
39
2
10
103.187372
20
364.928494
11
103.788673
21
365.449542
0
LINE
8
boundary
62
5
39
2
10
103.788673
20
365.449542
11
104.371133
21
365.989610
0
LINE
8
boundary
62
5
39
2
10
104.371133
20
365.989610
11
104.934428
21
366.548618
0
LINE
8
boundary
62
5
39
2
10
104.934428
20
366.548618
11
105.478156
21
367.126592
0
LINE
8
boundary
62
5
39
2
10
105.478156
20
367.126592
11
106.001981
21
367.723520
0
LINE
8
boundary
62
5
39
2
10
106.001981
20
367.723520
11
106.505663
21
368.339425
0
LINE
8
boundary
62
5
39
2
10
106.505663
20
368.339425
11
106.992087
21
368.772275
0
LINE
8
boundary
62
5
39
2
10
106.992087
20
368.772275
11
107.408067
21
369.177580
0
LINE
8
boundary
62
5
39
2
10
107.408067
20
369.177580
11
107.812738
21
369.632198
0
LINE
8
boundary
62
5
39
2
10
107.812738
20
369.632198
11
108.151045
21
370.054239
0
LINE
8
boundary
62
5
39
2
10
108.151045
20
370.054239
11
108.476436
21
370.529583
0
LINE
8
boundary
62
5
39
2
10
108.476436
20
370.529583
11
108.740517
21
370.967746
0
LINE
8
boundary
62
5
39
2
10
108.740517
20
370.967746
11
108.989082
21
371.463049
0
LINE
8
boundary
62
5
39
2
10
108.989082
20
371.463049
11
109.249894
21
372.104570
0
LINE
8
boundary
62
5
39
2
10
109.249894
20
372.104570
11
109.447804
21
372.761013
0
LINE
8
boundary
62
5
39
2
10
109.447804
20
372.761013
11
109.584566
21
373.431832
0
LINE
8
boundary
62
5
39
2
10
109.584566
20
373.431832
11
109.661736
21
374.116650
0
LINE
8
boundary
62
5
39
2
10
109.661736
20
374.116650
11
109.680986
21
374.815000
0
LINE
8
boundary
62
5
39
2
10
109.680986
20
374.815000
11
109.643768
21
375.526386
0
LINE
8
boundary
62
5
39
2
10
109.643768
20
375.526386
11
109.582994
21
376.036443
0
LINE
8
boundary
62
5
39
2
10
109.582994
20
376.036443
11
109.485749
21
376.617149
0
LINE
8
boundary
62
5
39
2
10
109.485749
20
376.617149
11
109.368002
21
377.139893
0
LINE
8
boundary
62
5
39
2
10
109.368002
20
377.139893
11
109.209577
21
377.734776
0
LINE
8
boundary
62
5
39
2
10
109.209577
20
377.734776
11
109.037384
21
378.269762
0
LINE
8
boundary
62
5
39
2
10
109.037384
20
378.269762
11
108.820208
21
378.877803
0
LINE
8
boundary
62
5
39
2
10
108.820208
20
378.877803
11
108.595878
21
379.424531
0
LINE
8
boundary
62
5
39
2
10
108.595878
20
379.424531
11
108.322879
21
380.044754
0
LINE
8
boundary
62
5
39
2
10
108.322879
20
380.044754
11
108.048651
21
380.602689
0
LINE
8
boundary
62
5
39
2
10
108.048651
20
380.602689
11
107.722455
21
381.234108
0
LINE
8
boundary
62
5
39
2
10
107.722455
20
381.234108
11
107.366993
21
381.871516
0
LINE
8
boundary
62
5
39
2
10
107.366993
20
381.871516
11
106.879052
21
382.682670
0
LINE
8
boundary
62
5
39
2
10
106.879052
20
382.682670
11
106.350219
21
383.502264
0
LINE
8
boundary
62
5
39
2
10
106.350219
20
383.502264
11
105.781975
21
384.329805
0
LINE
8
boundary
62
5
39
2
10
105.781975
20
384.329805
11
105.175705
21
385.164889
0
LINE
8
boundary
62
5
39
2
10
105.175705
20
385.164889
11
104.532877
21
386.007038
0
LINE
8
boundary
62
5
39
2
10
104.532877
20
386.007038
11
103.855067
21
386.855833
0
LINE
8
boundary
62
5
39
2
10
103.855067
20
386.855833
11
103.143591
21
387.710805
0
LINE
8
boundary
62
5
39
2
10
103.143591
20
387.710805
11
102.399981
21
388.571585
0
LINE
8
boundary
62
5
39
2
10
102.399981
20
388.571585
11
101.625752
21
389.437578
0
LINE
8
boundary
62
5
39
2
10
101.625752
20
389.437578
11
101.271548
21
389.813448
0
LINE
8
boundary
62
5
39
2
10
101.271548
20
389.813448
11
100.822303
21
390.308512
0
LINE
8
boundary
62
5
39
2
10
100.822303
20
390.308512
11
100.453636
21
390.688545
0
LINE
8
boundary
62
5
39
2
10
100.453636
20
390.688545
11
99.991090
21
391.183806
0
LINE
8
boundary
62
5
39
2
10
99.991090
20
391.183806
11
99.608416
21
391.567864
0
LINE
8
boundary
62
5
39
2
10
99.608416
20
391.567864
11
99.133680
21
392.063090
0
LINE
8
boundary
62
5
39
2
10
99.133680
20
392.063090
11
98.737545
21
392.451038
0
LINE
8
boundary
62
5
39
2
10
98.737545
20
392.451038
11
98.251460
21
392.945878
0
LINE
8
boundary
62
5
39
2
10
98.251460
20
392.945878
11
97.842284
21
393.337644
0
LINE
8
boundary
62
5
39
2
10
97.842284
20
393.337644
11
97.345933
21
393.831741
0
LINE
8
boundary
62
5
39
2
10
97.345933
20
393.831741
11
96.924257
21
394.227157
0
LINE
8
boundary
62
5
39
2
10
96.924257
20
394.227157
11
96.418640
21
394.720211
0
LINE
8
boundary
62
5
39
2
10
96.418640
20
394.720211
11
95.984938
21
395.119241
0
LINE
8
boundary
62
5
39
2
10
95.984938
20
395.119241
11
95.471010
21
395.610918
0
LINE
8
boundary
62
5
39
2
10
95.471010
20
395.610918
11
95.025868
21
396.013346
0
LINE
8
boundary
62
5
39
2
10
95.025868
20
396.013346
11
94.504614
21
396.503284
0
LINE
8
boundary
62
5
39
2
10
94.504614
20
396.503284
11
94.048597
21
396.908949
0
LINE
8
boundary
62
5
39
2
10
94.048597
20
396.908949
11
93.520919
21
397.396899
0
LINE
8
boundary
62
5
39
2
10
93.520919
20
397.396899
11
93.054479
21
397.805631
0
LINE
8
boundary
62
5
39
2
10
93.054479
20
397.805631
11
92.521328
21
398.291287
0
LINE
8
boundary
62
5
39
2
10
92.521328
20
398.291287
11
92.045096
21
398.702962
0
LINE
8
boundary
62
5
39
2
10
92.045096
20
398.702962
11
91.507351
21
399.186079
0
LINE
8
boundary
62
5
39
2
10
91.507351
20
399.186079
11
91.021886
21
399.600517
0
LINE
8
boundary
62
5
39
2
10
91.021886
20
399.600517
11
90.480607
21
400.080734
0
LINE
8
boundary
62
5
39
2
10
90.480607
20
400.080734
11
89.986643
21
400.497709
0
LINE
8
boundary
62
5
39
2
10
89.986643
20
400.497709
11
89.442541
21
400.974787
0
LINE
8
boundary
62
5
39
2
10
89.442541
20
400.974787
11
88.940528
21
401.394129
0
LINE
8
boundary
62
5
39
2
10
88.940528
20
401.394129
11
87.843636
21
402.341314
0
LINE
8
boundary
62
5
39
2
10
87.843636
20
402.341314
11
86.822334
21
403.182860
0
LINE
8
boundary
62
5
39
2
10
86.822334
20
403.182860
11
85.724514
21
404.114615
0
LINE
8
boundary
62
5
39
2
10
85.724514
20
404.114615
11
84.679474
21
404.962925
0
LINE
8
boundary
62
5
39
2
10
84.679474
20
404.962925
11
83.587299
21
405.877334
0
LINE
8
boundary
62
5
39
2
10
83.587299
20
405.877334
11
82.523987
21
406.730511
0
LINE
8
boundary
62
5
39
2
10
82.523987
20
406.730511
11
81.443682
21
407.625709
0
LINE
8
boundary
62
5
39
2
10
81.443682
20
407.625709
11
80.367899
21
408.481757
0
LINE
8
boundary
62
5
39
2
10
80.367899
20
408.481757
11
79.305478
21
409.356111
0
LINE
8
boundary
62
5
39
2
10
79.305478
20
409.356111
11
78.223169
21
410.213022
0
LINE
8
boundary
62
5
39
2
10
78.223169
20
410.213022
11
76.155388
21
411.908130
0
LINE
8
boundary
62
5
39
2
10
76.155388
20
411.908130
11
74.015039
21
413.599573
0
LINE
8
boundary
62
5
39
2
10
74.015039
20
413.599573
11
72.083732
21
415.192437
0
LINE
8
boundary
62
5
39
2
10
72.083732
20
415.192437
11
69.993303
21
416.859065
0
LINE
8
boundary
62
5
39
2
10
69.993303
20
416.859065
11
69.099583
21
417.606526
0
LINE
8
boundary
62
5
39
2
10
69.099583
20
417.606526
11
68.080978
21
418.431398
0
LINE
8
boundary
62
5
39
2
10
68.080978
20
418.431398
11
67.234967
21
419.149583
0
LINE
8
boundary
62
5
39
2
10
67.234967
20
419.149583
11
66.249636
21
419.960193
0
LINE
8
boundary
62
5
39
2
10
66.249636
20
419.960193
11
65.745468
21
420.387729
0
LINE
8
boundary
62
5
39
2
10
65.745468
20
420.387729
11
65.144375
21
420.882234
0
LINE
8
boundary
62
5
39
2
10
65.144375
20
420.882234
11
64.647278
21
421.295437
0
LINE
8
boundary
62
5
39
2
10
64.647278
20
421.295437
11
64.047478
21
421.779574
0
LINE
8
boundary
62
5
39
2
10
64.047478
20
421.779574
11
63.557307
21
422.178688
0
LINE
8
boundary
62
5
39
2
10
63.557307
20
422.178688
11
62.958768
21
422.652378
0
LINE
8
boundary
62
5
39
2
10
62.958768
20
422.652378
11
62.475354
21
423.037749
0
LINE
8
boundary
62
5
39
2
10
62.475354
20
423.037749
11
61.878000
21
423.501116
0
LINE
8
boundary
62
5
39
2
10
61.878000
20
423.501116
11
61.401226
21
423.873139
0
LINE
8
boundary
62
5
39
2
10
61.401226
20
423.873139
11
60.805155
21
424.326186
0
LINE
8
boundary
62
5
39
2
10
60.805155
20
424.326186
11
60.334836
21
424.685101
0
LINE
8
boundary
62
5
39
2
10
60.334836
20
424.685101
11
59.739950
21
425.127720
0
LINE
8
boundary
62
5
39
2
10
59.739950
20
425.127720
11
59.276095
21
425.473988
0
LINE
8
boundary
62
5
39
2
10
59.276095
20
425.473988
11
58.682518
21
425.906346
0
LINE
8
boundary
62
5
39
2
10
58.682518
20
425.906346
11
58.224904
21
426.240185
0
LINE
8
boundary
62
5
39
2
10
58.224904
20
426.240185
11
57.632567
21
426.662251
0
LINE
8
boundary
62
5
39
2
10
57.632567
20
426.662251
11
57.181097
21
426.983938
0
LINE
8
boundary
62
5
39
2
10
57.181097
20
426.983938
11
56.590023
21
427.395744
0
LINE
8
boundary
62
5
39
2
10
56.590023
20
427.395744
11
56.144542
21
427.705702
0
LINE
8
boundary
62
5
39
2
10
56.144542
20
427.705702
11
55.554631
21
428.107362
0
LINE
8
boundary
62
5
39
2
10
55.554631
20
428.107362
11
55.115070
21
428.405824
0
LINE
8
boundary
62
5
39
2
10
55.115070
20
428.405824
11
54.526432
21
428.797313
0
LINE
8
boundary
62
5
39
2
10
54.526432
20
428.797313
11
54.092639
21
429.084671
0
LINE
8
boundary
62
5
39
2
10
54.092639
20
429.084671
11
53.505189
21
429.466072
0
LINE
8
boundary
62
5
39
2
10
53.505189
20
429.466072
11
53.077077
21
429.742500
0
LINE
8
boundary
62
5
39
2
10
53.077077
20
429.742500
11
52.490871
21
430.113851
0
LINE
8
boundary
62
5
39
2
10
52.490871
20
430.113851
11
51.483305
21
430.741087
0
LINE
8
boundary
62
5
39
2
10
51.483305
20
430.741087
11
50.482347
21
431.348142
0
LINE
8
boundary
62
5
39
2
10
50.482347
20
431.348142
11
49.487891
21
431.935468
0
LINE
8
boundary
62
5
39
2
10
49.487891
20
431.935468
11
48.499834
21
432.503281
0
LINE
8
boundary
62
5
39
2
10
48.499834
20
432.503281
11
47.517977
21
433.052024
0
LINE
8
boundary
62
5
39
2
10
47.517977
20
433.052024
11
46.542333
21
433.582141
0
LINE
8
boundary
62
5
39
2
10
46.542333
20
433.582141
11
45.572702
21
434.093817
0
LINE
8
boundary
62
5
39
2
10
45.572702
20
434.093817
11
44.608988
21
434.587560
0
LINE
8
boundary
62
5
39
2
10
44.608988
20
434.587560
11
43.650945
21
435.063627
0
LINE
8
boundary
62
5
39
2
10
43.650945
20
435.063627
11
42.698651
21
435.522573
0
LINE
8
boundary
62
5
39
2
10
42.698651
20
435.522573
11
41.751891
21
435.964615
0
LINE
8
boundary
62
5
39
2
10
41.751891
20
435.964615
11
40.810644
21
436.390258
0
LINE
8
boundary
62
5
39
2
10
40.810644
20
436.390258
11
39.874608
21
436.799797
0
LINE
8
boundary
62
5
39
2
10
39.874608
20
436.799797
11
38.943960
21
437.193723
0
LINE
8
boundary
62
5
39
2
10
38.943960
20
437.193723
11
38.018334
21
437.572096
0
LINE
8
boundary
62
5
39
2
10
38.018334
20
437.572096
11
37.097841
21
437.935695
0
LINE
8
boundary
62
5
39
2
10
37.097841
20
437.935695
11
36.182082
21
438.284639
0
LINE
8
boundary
62
5
39
2
10
36.182082
20
438.284639
11
35.271260
21
438.619482
0
LINE
8
boundary
62
5
39
2
10
35.271260
20
438.619482
11
34.365149
21
438.940535
0
LINE
8
boundary
62
5
39
2
10
34.365149
20
438.940535
11
33.463626
21
439.248108
0
LINE
8
boundary
62
5
39
2
10
33.463626
20
439.248108
11
32.566548
21
439.542649
0
LINE
8
boundary
62
5
39
2
10
32.566548
20
439.542649
11
31.673875
21
439.824615
0
LINE
8
boundary
62
5
39
2
10
31.673875
20
439.824615
11
30.785580
21
440.094365
0
LINE
8
boundary
62
5
39
2
10
30.785580
20
440.094365
11
29.901522
21
440.352160
0
LINE
8
boundary
62
5
39
2
10
29.901522
20
440.352160
11
29.021620
21
440.598505
0
LINE
8
boundary
62
5
39
2
10
29.021620
20
440.598505
11
28.145719
21
440.833795
0
LINE
8
boundary
62
5
39
2
10
28.145719
20
440.833795
11
27.273818
21
441.058444
0
LINE
8
boundary
62
5
39
2
10
27.273818
20
441.058444
11
26.405741
21
441.272773
0
LINE
8
boundary
62
5
39
2
10
26.405741
20
441.272773
11
25.541529
21
441.477218
0
LINE
8
boundary
62
5
39
2
10
25.541529
20
441.477218
11
24.943527
21
441.610055
0
LINE
8
boundary
62
5
39
2
10
24.943527
20
441.610055
11
23.824055
21
441.857855
0
LINE
8
boundary
62
5
39
2
10
23.824055
20
441.857855
11
23.240389
21
441.976643
0
LINE
8
boundary
62
5
39
2
10
23.240389
20
441.976643
11
22.120867
21
442.203756
0
LINE
8
boundary
62
5
39
2
10
22.120867
20
442.203756
11
21.551508
21
442.309800
0
LINE
8
boundary
62
5
39
2
10
21.551508
20
442.309800
11
20.431277
21
442.517900
0
LINE
8
boundary
62
5
39
2
10
20.431277
20
442.517900
11
19.876293
21
442.612620
0
LINE
8
boundary
62
5
39
2
10
19.876293
20
442.612620
11
18.754736
21
442.803607
0
LINE
8
boundary
62
5
39
2
10
18.754736
20
442.803607
11
18.214238
21
442.888256
0
LINE
8
boundary
62
5
39
2
10
18.214238
20
442.888256
11
17.090671
21
443.063830
0
LINE
8
boundary
62
5
39
2
10
17.090671
20
443.063830
11
16.564830
21
443.139691
0
LINE
8
boundary
62
5
39
2
10
16.564830
20
443.139691
11
15.438493
21
443.301896
0
LINE
8
boundary
62
5
39
2
10
15.438493
20
443.301896
11
14.927668
21
443.370220
0
LINE
8
boundary
62
5
39
2
10
14.927668
20
443.370220
11
13.797921
21
443.521110
0
LINE
8
boundary
62
5
39
2
10
13.797921
20
443.521110
11
12.168355
21
443.724283
0
LINE
8
boundary
62
5
39
2
10
12.168355
20
443.724283
11
10.549329
21
443.915013
0
LINE
8
boundary
62
5
39
2
10
10.549329
20
443.915013
11
9.606435
21
444.019883
0
LINE
8
boundary
62
5
39
2
10
9.606435
20
444.019883
11
7.341510
21
444.271478
0
LINE
8
boundary
62
5
39
2
10
7.341510
20
444.271478
11
7.412321
21
442.299972
0
LINE
8
boundary
62
5
39
2
10
7.412321
20
442.299972
11
7.655353
21
436.776742
0
LINE
8
boundary
62
5
39
2
10
7.655353
20
436.776742
11
8.703427
21
436.664975
0
LINE
8
boundary
62
5
39
2
10
8.703427
20
436.664975
11
12.060237
21
436.307499
0
LINE
8
boundary
62
5
39
2
10
12.060237
20
436.307499
11
13.341517
21
435.943824
0
LINE
8
boundary
62
5
39
2
10
13.341517
20
435.943824
11
14.607003
21
435.571499
0
LINE
8
boundary
62
5
39
2
10
14.607003
20
435.571499
11
15.221755
21
435.383836
0
LINE
8
boundary
62
5
39
2
10
15.221755
20
435.383836
11
32.475778
21
435.383836
0
LINE
8
boundary
62
5
39
2
10
32.475778
20
435.383836
11
32.475777
21
432.637836
0
LINE
8
boundary
62
5
39
2
10
32.475777
20
432.637836
11
23.669334
21
432.637836
0
LINE
8
boundary
62
5
39
2
10
23.669334
20
432.637836
11
24.166130
21
432.293736
0
LINE
8
boundary
62
5
39
2
10
24.166130
20
432.293736
11
25.291051
21
431.848958
0
LINE
8
boundary
62
5
39
2
10
25.291051
20
431.848958
11
26.400516
21
431.396887
0
LINE
8
boundary
62
5
39
2
10
26.400516
20
431.396887
11
27.494573
21
430.937579
0
LINE
8
boundary
62
5
39
2
10
27.494573
20
430.937579
11
28.573246
21
430.471370
0
LINE
8
boundary
62
5
39
2
10
28.573246
20
430.471370
11
29.636527
21
429.998231
0
LINE
8
boundary
62
5
39
2
10
29.636527
20
429.998231
11
30.684503
21
429.518390
0
LINE
8
boundary
62
5
39
2
10
30.684503
20
429.518390
11
31.717182
21
429.031916
0
LINE
8
boundary
62
5
39
2
10
31.717182
20
429.031916
11
32.734610
21
428.539123
0
LINE
8
boundary
62
5
39
2
10
32.734610
20
428.539123
11
33.736733
21
428.039968
0
LINE
8
boundary
62
5
39
2
10
33.736733
20
428.039968
11
34.723674
21
427.534750
0
LINE
8
boundary
62
5
39
2
10
34.723674
20
427.534750
11
35.695345
21
427.023539
0
LINE
8
boundary
62
5
39
2
10
35.695345
20
427.023539
11
36.651758
21
426.506368
0
LINE
8
boundary
62
5
39
2
10
36.651758
20
426.506368
11
37.593030
21
425.983608
0
LINE
8
boundary
62
5
39
2
10
37.593030
20
425.983608
11
38.519092
21
425.455282
0
LINE
8
boundary
62
5
39
2
10
38.519092
20
425.455282
11
39.429950
21
424.921549
0
LINE
8
boundary
62
5
39
2
10
39.429950
20
424.921549
11
40.325736
21
424.382552
0
LINE
8
boundary
62
5
39
2
10
40.325736
20
424.382552
11
41.206329
21
423.838392
0
LINE
8
boundary
62
5
39
2
10
41.206329
20
423.838392
11
42.071766
21
423.289251
0
LINE
8
boundary
62
5
39
2
10
42.071766
20
423.289251
11
42.922185
21
422.735346
0
LINE
8
boundary
62
5
39
2
10
42.922185
20
422.735346
11
43.757390
21
422.176607
0
LINE
8
boundary
62
5
39
2
10
43.757390
20
422.176607
11
44.577445
21
421.613406
0
LINE
8
boundary
62
5
39
2
10
44.577445
20
421.613406
11
45.382411
21
421.045829
0
LINE
8
boundary
62
5
39
2
10
45.382411
20
421.045829
11
46.172361
21
420.473992
0
LINE
8
boundary
62
5
39
2
10
46.172361
20
420.473992
11
46.947136
21
419.897998
0
LINE
8
boundary
62
5
39
2
10
46.947136
20
419.897998
11
47.706895
21
419.318009
0
LINE
8
boundary
62
5
39
2
10
47.706895
20
419.318009
11
48.451501
21
418.734123
0
LINE
8
boundary
62
5
39
2
10
48.451501
20
418.734123
11
49.181155
21
418.146586
0
LINE
8
boundary
62
5
39
2
10
49.181155
20
418.146586
11
49.895531
21
417.555572
0
LINE
8
boundary
62
5
39
2
10
49.895531
20
417.555572
11
50.594970
21
416.960961
0
LINE
8
boundary
62
5
39
2
10
50.594970
20
416.960961
11
51.279292
21
416.363127
0
LINE
8
boundary
62
5
39
2
10
51.279292
20
416.363127
11
51.948553
21
415.762194
0
LINE
8
boundary
62
5
39
2
10
51.948553
20
415.762194
11
52.602757
21
415.158194
0
LINE
8
boundary
62
5
39
2
10
52.602757
20
415.158194
11
53.241913
21
414.551373
0
LINE
8
boundary
62
5
39
2
10
53.241913
20
414.551373
11
53.866002
21
413.941787
0
LINE
8
boundary
62
5
39
2
10
53.866002
20
413.941787
11
54.475031
21
413.329622
0
LINE
8
boundary
62
5
39
2
10
54.475031
20
413.329622
11
55.068944
21
412.714936
0
LINE
8
boundary
62
5
39
2
10
55.068944
20
412.714936
11
55.647801
21
412.098024
0
LINE
8
boundary
62
5
39
2
10
55.647801
20
412.098024
11
56.211640
21
411.478798
0
LINE
8
boundary
62
5
39
2
10
56.211640
20
411.478798
11
56.760326
21
410.857670
0
LINE
8
boundary
62
5
39
2
10
56.760326
20
410.857670
11
57.294011
21
410.234523
0
LINE
8
boundary
62
5
39
2
10
57.294011
20
410.234523
11
57.812554
21
409.609677
0
LINE
8
boundary
62
5
39
2
10
57.812554
20
409.609677
11
58.316127
21
408.983083
0
LINE
8
boundary
62
5
39
2
10
58.316127
20
408.983083
11
58.804541
21
408.355054
0
LINE
8
boundary
62
5
39
2
10
58.804541
20
408.355054
11
59.277967
21
407.725671
0
LINE
8
boundary
62
5
39
2
10
59.277967
20
407.725671
11
59.736234
21
407.094986
0
LINE
8
boundary
62
5
39
2
10
59.736234
20
407.094986
11
60.179474
21
406.463297
0
LINE
8
boundary
62
5
39
2
10
60.179474
20
406.463297
11
60.607653
21
405.830566
0
LINE
8
boundary
62
5
39
2
10
60.607653
20
405.830566
11
61.020703
21
405.197020
0
LINE
8
boundary
62
5
39
2
10
61.020703
20
405.197020
11
61.418717
21
404.562677
0
LINE
8
boundary
62
5
39
2
10
61.418717
20
404.562677
11
61.801619
21
403.927873
0
LINE
8
boundary
62
5
39
2
10
61.801619
20
403.927873
11
62.169345
21
403.292685
0
LINE
8
boundary
62
5
39
2
10
62.169345
20
403.292685
11
62.522121
21
402.657049
0
LINE
8
boundary
62
5
39
2
10
62.522121
20
402.657049
11
62.859694
21
402.021278
0
LINE
8
boundary
62
5
39
2
10
62.859694
20
402.021278
11
63.182228
21
401.385520
0
LINE
8
boundary
62
5
39
2
10
63.182228
20
401.385520
11
63.301132
21
400.440237
0
LINE
8
boundary
62
5
39
2
10
63.301132
20
400.440237
11
63.447070
21
399.479821
0
LINE
8
boundary
62
5
39
2
10
63.447070
20
399.479821
11
63.614026
21
398.507532
0
LINE
8
boundary
62
5
39
2
10
63.614026
20
398.507532
11
63.796247
21
397.526849
0
LINE
8
boundary
62
5
39
2
10
63.796247
20
397.526849
11
63.959947
21
396.649298
0
LINE
8
boundary
62
5
39
2
10
63.959947
20
396.649298
11
64.182785
21
395.553446
0
LINE
8
boundary
62
5
39
2
10
64.182785
20
395.553446
11
64.341681
21
394.682662
0
LINE
8
boundary
62
5
39
2
10
64.341681
20
394.682662
11
64.559395
21
393.586751
0
LINE
8
boundary
62
5
39
2
10
64.559395
20
393.586751
11
64.728950
21
392.614130
0
LINE
8
boundary
62
5
39
2
10
64.728950
20
392.614130
11
64.878162
21
391.653264
0
LINE
8
boundary
62
5
39
2
10
64.878162
20
391.653264
11
65.000797
21
390.707286
0
LINE
8
boundary
62
5
39
2
10
65.000797
20
390.707286
11
65.090892
21
389.779598
0
LINE
8
boundary
62
5
39
2
10
65.090892
20
389.779598
11
65.142277
21
388.873627
0
LINE
8
boundary
62
5
39
2
10
65.142277
20
388.873627
11
65.149256
21
388.240273
0
LINE
8
boundary
62
5
39
2
10
65.149256
20
388.240273
11
65.133580
21
387.562395
0
LINE
8
boundary
62
5
39
2
10
65.133580
20
387.562395
11
65.085224
21
386.961272
0
LINE
8
boundary
62
5
39
2
10
65.085224
20
386.961272
11
65.003323
21
386.318461
0
LINE
8
boundary
62
5
39
2
10
65.003323
20
386.318461
11
64.890130
21
385.754996
0
LINE
8
boundary
62
5
39
2
10
64.890130
20
385.754996
11
64.730741
21
385.153050
0
LINE
8
boundary
62
5
39
2
10
64.730741
20
385.153050
11
64.543311
21
384.632420
0
LINE
8
boundary
62
5
39
2
10
64.543311
20
384.632420
11
64.294958
21
384.077282
0
LINE
8
boundary
62
5
39
2
10
64.294958
20
384.077282
11
64.023970
21
383.604802
0
LINE
8
boundary
62
5
39
2
10
64.023970
20
383.604802
11
63.675070
21
383.102309
0
LINE
8
boundary
62
5
39
2
10
63.675070
20
383.102309
11
63.311338
21
382.683154
0
LINE
8
boundary
62
5
39
2
10
63.311338
20
382.683154
11
62.849975
21
382.239535
0
LINE
8
boundary
62
5
39
2
10
62.849975
20
382.239535
11
62.384779
21
381.878513
0
LINE
8
boundary
62
5
39
2
10
62.384779
20
381.878513
11
61.798624
21
381.499849
0
LINE
8
boundary
62
5
39
2
10
61.798624
20
381.499849
11
61.223522
21
381.202102
0
LINE
8
boundary
62
5
39
2
10
61.223522
20
381.202102
11
60.500227
21
380.894696
0
LINE
8
boundary
62
5
39
2
10
60.500227
20
380.894696
11
60.008940
21
380.724837
0
LINE
8
boundary
62
5
39
2
10
60.008940
20
380.724837
11
59.487077
21
380.571552
0
LINE
8
boundary
62
5
39
2
10
59.487077
20
380.571552
11
58.933839
21
380.435351
0
LINE
8
boundary
62
5
39
2
10
58.933839
20
380.435351
11
58.348529
21
380.316499
0
LINE
8
boundary
62
5
39
2
10
58.348529
20
380.316499
11
57.730505
21
380.215542
0
LINE
8
boundary
62
5
39
2
10
57.730505
20
380.215542
11
57.078772
21
380.132915
0
LINE
8
boundary
62
5
39
2
10
57.078772
20
380.132915
11
56.392680
21
380.068953
0
LINE
8
boundary
62
5
39
2
10
56.392680
20
380.068953
11
55.671500
21
380.024149
0
LINE
8
boundary
62
5
39
2
10
55.671500
20
380.024149
11
54.914440
21
379.998836
0
LINE
8
boundary
62
5
39
2
10
54.914440
20
379.998836
11
54.120904
21
379.993626
0
LINE
8
boundary
62
5
39
2
10
54.120904
20
379.993626
11
53.290002
21
380.008678
0
LINE
8
boundary
62
5
39
2
10
53.290002
20
380.008678
11
52.420953
21
380.044580
0
LINE
8
boundary
62
5
39
2
10
52.420953
20
380.044580
11
51.513245
21
380.101693
0
LINE
8
boundary
62
5
39
2
10
51.513245
20
380.101693
11
50.566023
21
380.180492
0
LINE
8
boundary
62
5
39
2
10
50.566023
20
380.180492
11
49.975914
21
380.389242
0
LINE
8
boundary
62
5
39
2
10
49.975914
20
380.389242
11
48.829716
21
380.788888
0
LINE
8
boundary
62
5
39
2
10
48.829716
20
380.788888
11
48.267427
21
380.982716
0
LINE
8
boundary
62
5
39
2
10
48.267427
20
380.982716
11
47.140285
21
381.366059
0
LINE
8
boundary
62
5
39
2
10
47.140285
20
381.366059
11
46.602477
21
381.545625
0
LINE
8
boundary
62
5
39
2
10
46.602477
20
381.545625
11
45.489301
21
381.912505
0
LINE
8
boundary
62
5
39
2
10
45.489301
20
381.912505
11
44.972808
21
382.078391
0
LINE
8
boundary
62
5
39
2
10
44.972808
20
382.078391
11
43.868136
21
382.428866
0
LINE
8
boundary
62
5
39
2
10
43.868136
20
382.428866
11
43.370131
21
382.581554
0
LINE
8
boundary
62
5
39
2
10
43.370131
20
382.581554
11
42.268271
21
382.915475
0
LINE
8
boundary
62
5
39
2
10
42.268271
20
382.915475
11
40.681115
21
383.373036
0
LINE
8
boundary
62
5
39
2
10
40.681115
20
383.373036
11
39.098317
21
383.802065
0
LINE
8
boundary
62
5
39
2
10
39.098317
20
383.802065
11
37.511160
21
384.202993
0
LINE
8
boundary
62
5
39
2
10
37.511160
20
384.202993
11
35.911035
21
384.576519
0
LINE
8
boundary
62
5
39
2
10
35.911035
20
384.576519
11
34.289457
21
384.923089
0
LINE
8
boundary
62
5
39
2
10
34.289457
20
384.923089
11
32.637911
21
385.243229
0
LINE
8
boundary
62
5
39
2
10
32.637911
20
385.243229
11
30.947754
21
385.537523
0
LINE
8
boundary
62
5
39
2
10
30.947754
20
385.537523
11
29.210406
21
385.806483
0
LINE
8
boundary
62
5
39
2
10
29.210406
20
385.806483
11
27.417188
21
386.050774
0
LINE
8
boundary
62
5
39
2
10
27.417188
20
386.050774
11
25.559501
21
386.270764
0
LINE
8
boundary
62
5
39
2
10
25.559501
20
386.270764
11
23.628664
21
386.467085
0
LINE
8
boundary
62
5
39
2
10
23.628664
20
386.467085
11
23.730621
21
383.348866
0
LINE
8
boundary
62
5
39
2
10
23.730621
20
383.348866
11
24.260605
21
367.477054
0
LINE
8
boundary
62
5
39
2
10
24.260605
20
367.477054
11
24.931575
21
365.502999
0
LINE
8
boundary
62
5
39
2
10
24.931575
20
365.502999
11
29.487809
21
352.172377
0
LINE
8
boundary
62
5
39
2
10
29.487809
20
352.172377
11
39.125670
21
352.172377
0
LINE
8
boundary
62
5
39
2
10
39.125670
20
352.172377
11
39.125670
21
349.426377
0
LINE
8
boundary
62
5
39
2
10
39.125670
20
349.426377
11
30.487924
21
349.426377
0
LINE
8
boundary
62
5
39
2
10
30.487924
20
349.426377
11
33.451477
21
340.575484
0
LINE
8
boundary
62
5
39
2
10
33.451477
20
340.575484
11
36.444577
21
331.653436
0
LINE
8
boundary
62
5
39
2
10
36.444577
20
331.653436
11
36.734695
21
330.788485
0
LINE
8
boundary
62
5
39
2
10
36.734695
20
330.788485
11
37.521512
21
328.677114
0
LINE
8
boundary
62
5
39
2
10
37.521512
20
328.677114
11
38.286466
21
326.512170
0
LINE
8
boundary
62
5
39
2
10
38.286466
20
326.512170
11
39.011690
21
324.339929
0
LINE
8
boundary
62
5
39
2
10
39.011690
20
324.339929
11
39.696982
21
322.160663
0
LINE
8
boundary
62
5
39
2
10
39.696982
20
322.160663
11
40.342915
21
319.974319
0
LINE
8
boundary
62
5
39
2
10
40.342915
20
319.974319
11
40.949426
21
317.781165
0
LINE
8
boundary
62
5
39
2
10
40.949426
20
317.781165
11
41.516734
21
315.581196
0
LINE
8
boundary
62
5
39
2
10
41.516734
20
315.581196
11
42.044894
21
313.374593
0
LINE
8
boundary
62
5
39
2
10
42.044894
20
313.374593
11
42.534318
21
311.161350
0
LINE
8
boundary
62
5
39
2
10
42.534318
20
311.161350
11
42.984974
21
308.941724
0
LINE
8
boundary
62
5
39
2
10
42.984974
20
308.941724
11
43.397192
21
306.715803
0
LINE
8
boundary
62
5
39
2
10
43.397192
20
306.715803
11
43.771009
21
304.483605
0
LINE
8
boundary
62
5
39
2
10
43.771009
20
304.483605
11
44.106801
21
302.245173
0
LINE
8
boundary
62
5
39
2
10
44.106801
20
302.245173
11
44.404685
21
300.000906
0
LINE
8
boundary
62
5
39
2
10
44.404685
20
300.000906
11
44.664924
21
297.750639
0
LINE
8
boundary
62
5
39
2
10
44.664924
20
297.750639
11
44.887551
21
295.494679
0
LINE
8
boundary
62
5
39
2
10
44.887551
20
295.494679
11
45.073159
21
293.233142
0
LINE
8
boundary
62
5
39
2
10
45.073159
20
293.233142
11
45.221706
21
290.966058
0
LINE
8
boundary
62
5
39
2
10
45.221706
20
290.966058
11
45.333496
21
288.693633
0
LINE
8
boundary
62
5
39
2
10
45.333496
20
288.693633
11
45.408909
21
286.415898
0
LINE
8
boundary
62
5
39
2
10
45.408909
20
286.415898
11
45.448072
21
284.133134
0
LINE
8
boundary
62
5
39
2
10
45.448072
20
284.133134
11
45.451390
21
281.845500
0
LINE
8
boundary
62
5
39
2
10
45.451390
20
281.845500
11
45.418966
21
279.552987
0
LINE
8
boundary
62
5
39
2
10
45.418966
20
279.552987
11
45.351339
21
277.255880
0
LINE
8
boundary
62
5
39
2
10
45.351339
20
277.255880
11
45.248776
21
274.954342
0
LINE
8
boundary
62
5
39
2
10
45.248776
20
274.954342
11
45.111524
21
272.648414
0
LINE
8
boundary
62
5
39
2
10
45.111524
20
272.648414
11
44.939942
21
270.338441
0
LINE
8
boundary
62
5
39
2
10
44.939942
20
270.338441
11
44.897071
21
269.817026
0
LINE
8
boundary
62
5
39
2
10
44.897071
20
269.817026
11
44.734457
21
268.024537
0
LINE
8
boundary
62
5
39
2
10
44.734457
20
268.024537
11
44.681586
21
267.479022
0
LINE
8
boundary
62
5
39
2
10
44.681586
20
267.479022
11
44.495364
21
265.706848
0
LINE
8
boundary
62
5
39
2
10
44.495364
20
265.706848
11
44.431891
21
265.136908
0
LINE
8
boundary
62
5
39
2
10
44.431891
20
265.136908
11
44.223083
21
263.385667
0
LINE
8
boundary
62
5
39
2
10
44.223083
20
263.385667
11
44.148390
21
262.791043
0
LINE
8
boundary
62
5
39
2
10
44.148390
20
262.791043
11
43.918064
21
261.061136
0
LINE
8
boundary
62
5
39
2
10
43.918064
20
261.061136
11
43.831485
21
260.441502
0
LINE
8
boundary
62
5
39
2
10
43.831485
20
260.441502
11
43.580634
21
258.733491
0
LINE
8
boundary
62
5
39
2
10
43.580634
20
258.733491
11
43.481636
21
258.088644
0
LINE
8
boundary
62
5
39
2
10
43.481636
20
258.088644
11
43.211244
21
256.402932
0
LINE
8
boundary
62
5
39
2
10
43.211244
20
256.402932
11
43.099174
21
255.732530
0
LINE
8
boundary
62
5
39
2
10
43.099174
20
255.732530
11
42.810365
21
254.069734
0
LINE
8
boundary
62
5
39
2
10
42.810365
20
254.069734
11
42.684715
21
253.373609
0
LINE
8
boundary
62
5
39
2
10
42.684715
20
253.373609
11
42.378452
21
251.734200
0
LINE
8
boundary
62
5
39
2
10
42.378452
20
251.734200
11
42.238537
21
251.012070
0
LINE
8
boundary
62
5
39
2
10
42.238537
20
251.012070
11
41.915841
21
249.396440
0
LINE
8
boundary
62
5
39
2
10
41.915841
20
249.396440
11
41.761149
21
248.648060
0
LINE
8
boundary
62
5
39
2
10
41.761149
20
248.648060
11
41.423177
21
247.056827
0
LINE
8
boundary
62
5
39
2
10
41.423177
20
247.056827
11
41.253184
21
246.282007
0
LINE
8
boundary
62
5
39
2
10
41.253184
20
246.282007
11
40.900972
21
244.715618
0
LINE
8
boundary
62
5
39
2
10
40.900972
20
244.715618
11
40.715042
21
243.914116
0
LINE
8
boundary
62
5
39
2
10
40.715042
20
243.914116
11
40.349711
21
242.373117
0
LINE
8
boundary
62
5
39
2
10
40.349711
20
242.373117
11
40.147419
21
241.544706
0
LINE
8
boundary
62
5
39
2
10
40.147419
20
241.544706
11
39.769806
21
240.029632
0
LINE
8
boundary
62
5
39
2
10
39.769806
20
240.029632
11
39.550494
21
239.174088
0
LINE
8
boundary
62
5
39
2
10
39.550494
20
239.174088
11
39.161934
21
237.685470
0
LINE
8
boundary
62
5
39
2
10
39.161934
20
237.685470
11
38.925171
21
236.802611
0
LINE
8
boundary
62
5
39
2
10
38.925171
20
236.802611
11
38.526658
21
235.341004
0
LINE
8
boundary
62
5
39
2
10
38.526658
20
235.341004
11
38.271906
21
234.430598
0
LINE
8
boundary
62
5
39
2
10
38.271906
20
234.430598
11
37.864478
21
232.996515
0
LINE
8
boundary
62
5
39
2
10
37.864478
20
232.996515
11
37.591228
21
232.058319
0
LINE
8
boundary
62
5
39
2
10
37.591228
20
232.058319
11
37.176076
21
230.652386
0
LINE
8
boundary
62
5
39
2
10
37.176076
20
230.652386
11
36.883893
21
229.686195
0
LINE
8
boundary
62
5
39
2
10
36.883893
20
229.686195
11
36.462058
21
228.309015
0
LINE
8
boundary
62
5
39
2
10
36.462058
20
228.309015
11
36.150369
21
227.314620
0
LINE
8
boundary
62
5
39
2
10
36.150369
20
227.314620
11
35.722942
21
225.966776
0
LINE
8
boundary
62
5
39
2
10
35.722942
20
225.966776
11
35.391354
21
224.943911
0
LINE
8
boundary
62
5
39
2
10
35.391354
20
224.943911
11
34.959490
21
223.626059
0
LINE
8
boundary
62
5
39
2
10
34.959490
20
223.626059
11
34.607485
21
222.574490
0
LINE
8
boundary
62
5
39
2
10
34.607485
20
222.574490
11
34.172297
21
221.287304
0
LINE
8
boundary
62
5
39
2
10
34.172297
20
221.287304
11
33.799448
21
220.206767
0
LINE
8
boundary
62
5
39
2
10
33.799448
20
220.206767
11
33.362111
21
218.950918
0
LINE
8
boundary
62
5
39
2
10
33.362111
20
218.950918
11
32.967949
21
217.841126
0
LINE
8
boundary
62
5
39
2
10
32.967949
20
217.841126
11
32.529586
21
216.617391
0
LINE
8
boundary
62
5
39
2
10
32.529586
20
216.617391
11
32.113696
21
215.478092
0
LINE
8
boundary
62
5
39
2
10
32.113696
20
215.478092
11
31.675462
21
214.287145
0
LINE
8
boundary
62
5
39
2
10
31.675462
20
214.287145
11
31.237272
21
213.117966
0
LINE
8
boundary
62
5
39
2
10
31.237272
20
213.117966
11
30.800383
21
211.960668
0
LINE
8
boundary
62
5
39
2
10
30.800383
20
211.960668
11
30.339641
21
210.761357
0
LINE
8
boundary
62
5
39
2
10
30.339641
20
210.761357
11
29.905241
21
209.638495
0
LINE
8
boundary
62
5
39
2
10
29.905241
20
209.638495
11
29.421288
21
208.408651
0
LINE
8
boundary
62
5
39
2
10
29.421288
20
208.408651
11
28.990575
21
207.321122
0
LINE
8
boundary
62
5
39
2
10
28.990575
20
207.321122
11
28.483021
21
206.060326
0
LINE
8
boundary
62
5
39
2
10
28.483021
20
206.060326
11
28.057302
21
205.009063
0
LINE
8
boundary
62
5
39
2
10
28.057302
20
205.009063
11
27.525760
21
203.716910
0
LINE
8
boundary
62
5
39
2
10
27.525760
20
203.716910
11
27.106300
21
202.702892
0
LINE
8
boundary
62
5
39
2
10
27.106300
20
202.702892
11
26.550301
21
201.378940
0
LINE
8
boundary
62
5
39
2
10
26.550301
20
201.378940
11
26.138306
21
200.403142
0
LINE
8
boundary
62
5
39
2
10
26.138306
20
200.403142
11
25.557315
21
199.046865
0
LINE
8
boundary
62
5
39
2
10
25.557315
20
199.046865
11
25.154156
21
198.110396
0
LINE
8
boundary
62
5
39
2
10
25.154156
20
198.110396
11
24.547635
21
196.721264
0
LINE
8
boundary
62
5
39
2
10
24.547635
20
196.721264
11
23.758628
21
194.938661
0
LINE
8
boundary
62
5
39
2
10
23.758628
20
194.938661
11
22.481570
21
192.091551
0
LINE
8
boundary
62
5
39
2
10
22.481570
20
192.091551
11
21.742033
21
190.476984
0
LINE
8
boundary
62
5
39
2
10
21.742033
20
190.476984
11
20.358804
21
187.494351
0
LINE
8
boundary
62
5
39
2
10
20.358804
20
187.494351
11
19.680365
21
186.058992
0
LINE
8
boundary
62
5
39
2
10
19.680365
20
186.058992
11
18.186652
21
182.934355
0
LINE
8
boundary
62
5
39
2
10
18.186652
20
182.934355
11
17.815232
21
181.605825
0
LINE
8
boundary
62
5
39
2
10
17.815232
20
181.605825
11
16.837669
21
178.139362
0
LINE
8
boundary
62
5
39
2
10
16.837669
20
178.139362
11
16.484781
21
176.857534
0
LINE
8
boundary
62
5
39
2
10
16.484781
20
176.857534
11
15.462429
21
173.172136
0
LINE
8
boundary
62
5
39
2
10
15.462429
20
173.172136
11
15.298802
21
172.564473
0
LINE
8
boundary
62
5
39
2
10
15.298802
20
172.564473
11
14.773465
21
170.626600
0
LINE
8
boundary
62
5
39
2
10
14.773465
20
170.626600
11
14.616735
21
170.032215
0
LINE
8
boundary
62
5
39
2
10
14.616735
20
170.032215
11
14.088519
21
168.041182
0
LINE
8
boundary
62
5
39
2
10
14.088519
20
168.041182
11
13.939012
21
167.459638
0
LINE
8
boundary
62
5
39
2
10
13.939012
20
167.459638
11
13.410937
21
165.416921
0
LINE
8
boundary
62
5
39
2
10
13.410937
20
165.416921
11
13.268906
21
164.847363
0
LINE
8
boundary
62
5
39
2
10
13.268906
20
164.847363
11
12.744556
21
162.754909
0
LINE
8
boundary
62
5
39
2
10
12.744556
20
162.754909
11
12.610021
21
162.195924
0
LINE
8
boundary
62
5
39
2
10
12.610021
20
162.195924
11
12.092936
21
160.056199
0
LINE
8
boundary
62
5
39
2
10
12.092936
20
160.056199
11
11.965837
21
159.505794
0
LINE
8
boundary
62
5
39
2
10
11.965837
20
159.505794
11
11.459773
21
157.321795
0
LINE
8
boundary
62
5
39
2
10
11.459773
20
157.321795
11
11.339896
21
156.777367
0
LINE
8
boundary
62
5
39
2
10
11.339896
20
156.777367
11
10.848816
21
154.552868
0
LINE
8
boundary
62
5
39
2
10
10.848816
20
154.552868
11
10.735898
21
154.011124
0
LINE
8
boundary
62
5
39
2
10
10.735898
20
154.011124
11
10.263980
21
151.750372
0
LINE
8
boundary
62
5
39
2
10
10.263980
20
151.750372
11
10.157694
21
151.207240
0
LINE
8
boundary
62
5
39
2
10
10.157694
20
151.207240
11
9.708899
21
148.915372
0
LINE
8
boundary
62
5
39
2
10
9.708899
20
148.915372
11
9.608931
21
148.366075
0
LINE
8
boundary
62
5
39
2
10
9.608931
20
148.366075
11
9.187465
21
146.048941
0
LINE
8
boundary
62
5
39
2
10
9.187465
20
146.048941
11
9.093646
21
145.487850
0
LINE
8
boundary
62
5
39
2
10
9.093646
20
145.487850
11
8.703915
21
143.152094
0
LINE
8
boundary
62
5
39
2
10
8.703915
20
143.152094
11
8.616109
21
142.572699
0
LINE
8
boundary
62
5
39
2
10
8.616109
20
142.572699
11
8.261839
21
140.225921
0
LINE
8
boundary
62
5
39
2
10
8.261839
20
140.225921
11
8.180243
21
139.620893
0
LINE
8
boundary
62
5
39
2
10
8.180243
20
139.620893
11
7.865254
21
137.271453
0
LINE
8
boundary
62
5
39
2
10
7.865254
20
137.271453
11
7.790370
21
136.632671
0
LINE
8
boundary
62
5
39
2
10
7.790370
20
136.632671
11
7.518214
21
134.289674
0
LINE
8
boundary
62
5
39
2
10
7.518214
20
134.289674
11
7.451026
21
133.608126
0
LINE
8
boundary
62
5
39
2
10
7.451026
20
133.608126
11
7.224781
21
131.281682
0
LINE
8
boundary
62
5
39
2
10
7.224781
20
131.281682
11
7.099395
21
129.768202
0
LINE
8
boundary
62
5
39
2
10
7.099395
20
129.768202
11
6.988829
21
128.248568
0
LINE
8
boundary
62
5
39
2
10
6.988829
20
128.248568
11
6.893758
21
126.722853
0
LINE
8
boundary
62
5
39
2
10
6.893758
20
126.722853
11
6.814636
21
125.191325
0
LINE
8
boundary
62
5
39
2
10
6.814636
20
125.191325
11
6.751850
21
123.654073
0
LINE
8
boundary
62
5
39
2
10
6.751850
20
123.654073
11
6.706078
21
122.111164
0
LINE
8
boundary
62
5
39
2
10
6.706078
20
122.111164
11
6.677911
21
120.562753
0
LINE
8
boundary
62
5
39
2
10
6.677911
20
120.562753
11
6.667500
21
119.008993
0
LINE
8
boundary
62
5
39
2
10
6.667500
20
119.008993
11
6.669291
21
118.490938
0
LINE
8
boundary
62
5
39
2
10
6.669291
20
118.490938
11
6.675595
21
117.450137
0
LINE
8
boundary
62
5
39
2
10
6.675595
20
117.450137
11
6.683989
21
116.906312
0
LINE
8
boundary
62
5
39
2
10
6.683989
20
116.906312
11
6.702583
21
115.886111
0
LINE
8
boundary
62
5
39
2
10
6.702583
20
115.886111
11
6.718456
21
115.315141
0
LINE
8
boundary
62
5
39
2
10
6.718456
20
115.315141
11
6.749191
21
114.317225
0
LINE
8
boundary
62
5
39
2
10
6.749191
20
114.317225
11
6.773409
21
113.717706
0
LINE
8
boundary
62
5
39
2
10
6.773409
20
113.717706
11
6.815812
21
112.743614
0
LINE
8
boundary
62
5
39
2
10
6.815812
20
112.743614
11
6.849328
21
112.114180
0
LINE
8
boundary
62
5
39
2
10
6.849328
20
112.114180
11
6.902945
21
111.165406
0
LINE
8
boundary
62
5
39
2
10
6.902945
20
111.165406
11
6.946733
21
110.504684
0
LINE
8
boundary
62
5
39
2
10
6.946733
20
110.504684
11
7.011036
21
109.582689
0
LINE
8
boundary
62
5
39
2
10
7.011036
20
109.582689
11
7.066286
21
108.889391
0
LINE
8
boundary
62
5
39
2
10
7.066286
20
108.889391
11
7.140744
21
107.995667
0
LINE
8
boundary
62
5
39
2
10
7.140744
20
107.995667
11
7.208494
21
107.268563
0
LINE
8
boundary
62
5
39
2
10
7.208494
20
107.268563
11
7.292311
21
106.404550
0
LINE
8
boundary
62
5
39
2
10
7.292311
20
106.404550
11
7.374035
21
105.642365
0
LINE
8
boundary
62
5
39
2
10
7.374035
20
105.642365
11
7.466701
21
104.809420
0
LINE
8
boundary
62
5
39
2
10
7.466701
20
104.809420
11
7.563512
21
104.011023
0
LINE
8
boundary
62
5
39
2
10
7.563512
20
104.011023
11
7.663951
21
103.210490
0
LINE
8
boundary
62
5
39
2
10
7.663951
20
103.210490
11
7.777349
21
102.374780
0
LINE
8
boundary
62
5
39
2
10
7.777349
20
102.374780
11
7.884819
21
101.607951
0
LINE
8
boundary
62
5
39
2
10
7.884819
20
101.607951
11
8.016252
21
100.733885
0
LINE
8
boundary
62
5
39
2
10
8.016252
20
100.733885
11
8.129715
21
100.001937
0
LINE
8
boundary
62
5
39
2
10
8.129715
20
100.001937
11
8.280750
21
99.088520
0
LINE
8
boundary
62
5
39
2
10
8.280750
20
99.088520
11
8.399188
21
98.392597
0
LINE
8
boundary
62
5
39
2
10
8.399188
20
98.392597
11
8.571465
21
97.438973
0
LINE
8
boundary
62
5
39
2
10
8.571465
20
97.438973
11
8.693855
21
96.780175
0
LINE
8
boundary
62
5
39
2
10
8.693855
20
96.780175
11
8.888966
21
95.785542
0
LINE
8
boundary
62
5
39
2
10
8.888966
20
95.785542
11
9.014040
21
95.164863
0
LINE
8
boundary
62
5
39
2
10
9.014040
20
95.164863
11
9.233636
21
94.128499
0
LINE
8
boundary
62
5
39
2
10
9.233636
20
94.128499
11
9.360133
21
93.546850
0
LINE
8
boundary
62
5
39
2
10
9.360133
20
93.546850
11
9.606128
21
92.468150
0
LINE
8
boundary
62
5
39
2
10
9.606128
20
92.468150
11
9.732864
21
91.926352
0
LINE
8
boundary
62
5
39
2
10
9.732864
20
91.926352
11
10.007110
21
90.804760
0
LINE
8
boundary
62
5
39
2
10
10.007110
20
90.804760
11
10.132706
21
90.303575
0
LINE
8
boundary
62
5
39
2
10
10.132706
20
90.303575
11
10.673489
21
86.773629
0
LINE
8
boundary
62
5
39
2
10
10.673489
20
86.773629
11
10.865984
21
85.559389
0
LINE
8
boundary
62
5
39
2
10
10.865984
20
85.559389
11
11.489786
21
81.463351
0
LINE
8
boundary
62
5
39
2
10
11.489786
20
81.463351
11
11.636840
21
80.531961
0
LINE
8
boundary
62
5
39
2
10
11.636840
20
80.531961
11
11.990832
21
78.293658
0
LINE
8
boundary
62
5
39
2
10
11.990832
20
78.293658
11
12.445669
21
75.540878
0
LINE
8
boundary
62
5
39
2
10
12.445669
20
75.540878
11
12.936236
21
72.730140
0
LINE
8
boundary
62
5
39
2
10
12.936236
20
72.730140
11
13.469609
21
69.866977
0
LINE
8
boundary
62
5
39
2
10
13.469609
20
69.866977
11
13.926436
21
67.586507
0
LINE
8
boundary
62
5
39
2
10
13.926436
20
67.586507
11
14.032278
21
66.981885
0
LINE
8
boundary
62
5
39
2
10
14.032278
20
66.981885
11
14.570838
21
64.151056
0
LINE
8
boundary
62
5
39
2
10
14.570838
20
64.151056
11
15.164013
21
61.291119
0
LINE
8
boundary
62
5
39
2
10
15.164013
20
61.291119
11
15.482993
21
59.852025
0
LINE
8
boundary
62
5
39
2
10
15.482993
20
59.852025
11
15.817826
21
58.407789
0
LINE
8
boundary
62
5
39
2
10
15.817826
20
58.407789
11
16.169386
21
56.959246
0
LINE
8
boundary
62
5
39
2
10
16.169386
20
56.959246
11
16.538220
21
55.507125
0
LINE
8
boundary
62
5
39
2
10
16.538220
20
55.507125
11
16.925188
21
54.052241
0
LINE
8
boundary
62
5
39
2
10
16.925188
20
54.052241
11
17.331157
21
52.595353
0
LINE
8
boundary
62
5
39
2
10
17.331157
20
52.595353
11
17.756705
21
51.137229
0
LINE
8
boundary
62
5
39
2
10
17.756705
20
51.137229
11
18.202678
21
49.678874
0
LINE
8
boundary
62
5
39
2
10
18.202678
20
49.678874
11
18.669662
21
48.220930
0
LINE
8
boundary
62
5
39
2
10
18.669662
20
48.220930
11
19.158653
21
46.764294
0
LINE
8
boundary
62
5
39
2
10
19.158653
20
46.764294
11
19.670161
21
45.310011
0
LINE
8
boundary
62
5
39
2
10
19.670161
20
45.310011
11
20.205219
21
43.858834
0
LINE
8
boundary
62
5
39
2
10
20.205219
20
43.858834
11
20.764288
21
42.411696
0
LINE
8
boundary
62
5
39
2
10
20.764288
20
42.411696
11
20.952876
21
41.936657
0
LINE
8
boundary
62
5
39
2
10
20.952876
20
41.936657
11
21.348081
21
40.969656
0
LINE
8
boundary
62
5
39
2
10
21.348081
20
40.969656
11
21.556106
21
40.470302
0
LINE
8
boundary
62
5
39
2
10
21.556106
20
40.470302
11
21.957682
21
39.533518
0
LINE
8
boundary
62
5
39
2
10
21.957682
20
39.533518
11
22.186110
21
39.010769
0
LINE
8
boundary
62
5
39
2
10
22.186110
20
39.010769
11
22.593502
21
38.104396
0
LINE
8
boundary
62
5
39
2
10
22.593502
20
38.104396
11
22.843523
21
37.559209
0
LINE
8
boundary
62
5
39
2
10
22.843523
20
37.559209
11
23.256491
21
36.683301
0
LINE
8
boundary
62
5
39
2
10
23.256491
20
36.683301
11
23.529160
21
36.116673
0
LINE
8
boundary
62
5
39
2
10
23.529160
20
36.116673
11
23.947311
21
35.271240
0
LINE
8
boundary
62
5
39
2
10
23.947311
20
35.271240
11
24.243696
21
34.684312
0
LINE
8
boundary
62
5
39
2
10
24.243696
20
34.684312
11
24.666558
21
33.869243
0
LINE
8
boundary
62
5
39
2
10
24.666558
20
33.869243
11
24.987926
21
33.263263
0
LINE
8
boundary
62
5
39
2
10
24.987926
20
33.263263
11
25.415247
21
32.478512
0
LINE
8
boundary
62
5
39
2
10
25.415247
20
32.478512
11
25.762591
21
31.854743
0
LINE
8
boundary
62
5
39
2
10
25.762591
20
31.854743
11
26.193965
21
31.100116
0
LINE
8
boundary
62
5
39
2
10
26.193965
20
31.100116
11
26.568368
21
30.459986
0
LINE
8
boundary
62
5
39
2
10
26.568368
20
30.459986
11
27.003265
21
29.735253
0
LINE
8
boundary
62
5
39
2
10
27.003265
20
29.735253
11
27.405944
21
29.080200
0
LINE
8
boundary
62
5
39
2
10
27.405944
20
29.080200
11
27.844168
21
28.385090
0
LINE
8
boundary
62
5
39
2
10
27.844168
20
28.385090
11
28.276203
21
27.716646
0
LINE
8
boundary
62
5
39
2
10
28.276203
20
27.716646
11
28.717334
21
27.050790
0
LINE
8
boundary
62
5
39
2
10
28.717334
20
27.050790
11
29.179745
21
26.370628
0
LINE
8
boundary
62
5
39
2
10
29.179745
20
26.370628
11
29.623397
21
25.733710
0
LINE
8
boundary
62
5
39
2
10
29.623397
20
25.733710
11
30.117290
21
25.043561
0
LINE
8
boundary
62
5
39
2
10
30.117290
20
25.043561
11
30.563148
21
24.435124
0
LINE
8
boundary
62
5
39
2
10
30.563148
20
24.435124
11
31.089680
21
23.736716
0
LINE
8
boundary
62
5
39
2
10
31.089680
20
23.736716
11
31.537466
21
23.156319
0
LINE
8
boundary
62
5
39
2
10
31.537466
20
23.156319
11
32.097435
21
22.451534
0
LINE
8
boundary
62
5
39
2
10
32.097435
20
22.451534
11
32.546723
21
21.898653
0
LINE
8
boundary
62
5
39
2
10
32.546723
20
21.898653
11
33.141334
21
21.189408
0
LINE
8
boundary
62
5
39
2
10
33.141334
20
21.189408
11
33.591949
21
20.663513
0
LINE
8
boundary
62
5
39
2
10
33.591949
20
20.663513
11
34.222078
21
19.951824
0
LINE
8
boundary
62
5
39
2
10
34.222078
20
19.951824
11
34.673702
21
19.452355
0
LINE
8
boundary
62
5
39
2
10
34.673702
20
19.452355
11
35.340236
21
18.740326
0
LINE
8
boundary
62
5
39
2
10
35.340236
20
18.740326
11
35.792662
21
18.266710
0
LINE
8
boundary
62
5
39
2
10
35.792662
20
18.266710
11
36.496671
21
17.556430
0
LINE
8
boundary
62
5
39
2
10
36.496671
20
17.556430
11
36.949751
21
17.108077
0
LINE
8
boundary
62
5
39
2
10
36.949751
20
17.108077
11
37.691993
21
16.401745
0
LINE
8
boundary
62
5
39
2
10
37.691993
20
16.401745
11
38.145503
21
15.977978
0
LINE
8
boundary
62
5
39
2
10
38.145503
20
15.977978
11
38.926825
21
15.277800
0
LINE
8
boundary
62
5
39
2
10
38.926825
20
15.277800
11
39.380716
21
14.877962
0
LINE
8
boundary
62
5
39
2
10
39.380716
20
14.877962
11
40.201907
21
14.186272
0
LINE
8
boundary
62
5
39
2
10
40.201907
20
14.186272
11
40.656065
21
13.809739
0
LINE
8
boundary
62
5
39
2
10
40.656065
20
13.809739
11
41.517785
21
13.128807
0
LINE
8
boundary
62
5
39
2
10
41.517785
20
13.128807
11
41.972152
21
12.774892
0
LINE
8
boundary
62
5
39
2
10
41.972152
20
12.774892
11
42.875138
21
12.107179
0
LINE
8
boundary
62
5
39
2
10
42.875138
20
12.107179
11
43.329752
21
11.775220
0
LINE
8
boundary
62
5
39
2
10
43.329752
20
11.775220
11
44.274604
21
11.123089
0
LINE
8
boundary
62
5
39
2
10
44.274604
20
11.123089
11
44.729519
21
10.812463
0
LINE
8
boundary
62
5
39
2
10
44.729519
20
10.812463
11
45.716815
21
10.178300
0
LINE
8
boundary
62
5
39
2
10
45.716815
20
10.178300
11
46.172181
21
9.888287
0
LINE
8
boundary
62
5
39
2
10
46.172181
20
9.888287
11
47.202413
21
9.274657
0
LINE
8
boundary
62
5
39
2
10
47.202413
20
9.274657
11
47.658357
21
9.004681
0
LINE
8
boundary
62
5
39
2
10
47.658357
20
9.004681
11
48.732027
21
8.413936
0
LINE
8
boundary
62
5
39
2
10
48.732027
20
8.413936
11
49.188809
21
8.163341
0
LINE
8
boundary
62
5
39
2
10
49.188809
20
8.163341
11
50.306178
21
7.598030
0
LINE
8
boundary
62
5
39
2
10
50.306178
20
7.598030
11
50.764050
21
7.366204
0
LINE
8
boundary
62
5
39
2
10
50.764050
20
7.366204
11
51.239803
21
7.069218
0
LINE
8
boundary
62
5
39
2
10
51.239803
20
7.069218
11
51.836173
21
6.855605
0
LINE
8
boundary
62
5
39
2
10
51.836173
20
6.855605
11
52.337155
21
6.748573
0
LINE
8
boundary
62
5
39
2
10
52.337155
20
6.748573
11
52.886551
21
6.686749
0
LINE
8
boundary
62
5
39
2
10
52.886551
20
6.686749
11
53.477898
21
6.670617
0
LINE
8
boundary
62
5
39
2
10
53.477898
20
6.670617
11
54.104727
21
6.700727
0
LINE
8
boundary
62
5
39
2
10
54.104727
20
6.700727
11
54.760669
21
6.777433
0
LINE
8
boundary
62
5
39
2
10
54.760669
20
6.777433
11
55.439347
21
6.901082
0
LINE
8
boundary
62
5
39
2
10
55.439347
20
6.901082
11
56.134287
21
7.071956
0
LINE
8
boundary
62
5
39
2
10
56.134287
20
7.071956
11
56.839249
21
7.290225
0
LINE
8
boundary
62
5
39
2
10
56.839249
20
7.290225
11
57.547858
21
7.556112
0
LINE
8
boundary
62
5
39
2
10
57.547858
20
7.556112
11
58.253883
21
7.869581
0
LINE
8
boundary
62
5
39
2
10
58.253883
20
7.869581
11
58.950931
21
8.230665
0
LINE
8
boundary
62
5
39
2
10
58.950931
20
8.230665
11
59.632889
21
8.639338
0
LINE
8
boundary
62
5
39
2
10
59.632889
20
8.639338
11
60.293529
21
9.095360
0
LINE
8
boundary
62
5
39
2
10
60.293529
20
9.095360
11
60.709003
21
9.409733
0
LINE
8
boundary
62
5
39
2
10
60.709003
20
9.409733
11
61.111115
21
9.747108
0
LINE
8
boundary
62
5
39
2
10
61.111115
20
9.747108
11
61.615207
21
10.229521
0
LINE
8
boundary
62
5
39
2
10
61.615207
20
10.229521
11
61.981895
21
10.614378
0
LINE
8
boundary
62
5
39
2
10
61.981895
20
10.614378
11
62.169462
21
10.834711
0
LINE
8
annotation
62
1
39
211
10
45.785769
20
348.399377
11
45.785769
21
353.199377
0
LINE
8
annotation
62
1
39
211
10
45.785769
20
353.199377
11
44.718667
21
352.131974
0
LINE
8
annotation
62
1
39
211
10
39.071129
20
431.813575
11
37.119449
21
431.813575
0
LINE
8
annotation
62
1
39
211
10
37.119449
20
431.813575
11
38.922865
21
434.716845
0
LINE
8
annotation
62
1
39
211
10
38.922865
20
434.716845
11
38.922865
21
434.716845
0
LINE
8
annotation
62
1
39
211
10
38.922865
20
434.716845
11
38.925021
21
434.719512
0
LINE
8
annotation
62
1
39
211
10
38.925021
20
434.719512
11
38.927088
21
434.722203
0
LINE
8
annotation
62
1
39
211
10
38.927088
20
434.722203
11
38.929081
21
434.724939
0
LINE
8
annotation
62
1
39
211
10
38.929081
20
434.724939
11
38.931012
21
434.727742
0
LINE
8
annotation
62
1
39
211
10
38.931012
20
434.727742
11
38.932896
21
434.730637
0
LINE
8
annotation
62
1
39
211
10
38.932896
20
434.730637
11
38.934746
21
434.733645
0
LINE
8
annotation
62
1
39
211
10
38.934746
20
434.733645
11
38.936575
21
434.736789
0
LINE
8
annotation
62
1
39
211
10
38.936575
20
434.736789
11
38.938398
21
434.740092
0
LINE
8
annotation
62
1
39
211
10
38.938398
20
434.740092
11
38.940227
21
434.743576
0
LINE
8
annotation
62
1
39
211
10
38.940227
20
434.743576
11
38.940227
21
434.743576
0
LINE
8
annotation
62
1
39
211
10
38.940227
20
434.743576
11
39.014690
21
434.903454
0
LINE
8
annotation
62
1
39
211
10
39.014690
20
434.903454
11
39.058189
21
435.069181
0
LINE
8
annotation
62
1
39
211
10
39.058189
20
435.069181
11
39.071792
21
435.237013
0
LINE
8
annotation
62
1
39
211
10
39.071792
20
435.237013
11
39.056565
21
435.403205
0
LINE
8
annotation
62
1
39
211
10
39.056565
20
435.403205
11
39.013572
21
435.564013
0
LINE
8
annotation
62
1
39
211
10
39.013572
20
435.564013
11
38.943881
21
435.715691
0
LINE
8
annotation
62
1
39
211
10
38.943881
20
435.715691
11
38.848557
21
435.854495
0
LINE
8
annotation
62
1
39
211
10
38.848557
20
435.854495
11
38.728667
21
435.976680
0
LINE
8
annotation
62
1
39
211
10
38.728667
20
435.976680
11
38.585276
21
436.078501
0
LINE
8
annotation
62
1
39
211
10
38.585276
20
436.078501
11
38.585276
21
436.078501
0
LINE
8
annotation
62
1
39
211
10
38.585276
20
436.078501
11
38.424954
21
436.151906
0
LINE
8
annotation
62
1
39
211
10
38.424954
20
436.151906
11
38.258972
21
436.194735
0
LINE
8
annotation
62
1
39
211
10
38.258972
20
436.194735
11
38.091043
21
436.207954
0
LINE
8
annotation
62
1
39
211
10
38.091043
20
436.207954
11
37.924875
21
436.192525
0
LINE
8
annotation
62
1
39
211
10
37.924875
20
436.192525
11
37.764181
21
436.149414
0
LINE
8
annotation
62
1
39
211
10
37.764181
20
436.149414
11
37.612671
21
436.079583
0
LINE
8
annotation
62
1
39
211
10
37.612671
20
436.079583
11
37.474055
21
435.983997
0
LINE
8
annotation
62
1
39
211
10
37.474055
20
435.983997
11
37.352045
21
435.863621
0
LINE
8
annotation
62
1
39
211
10
37.352045
20
435.863621
11
37.250351
21
435.719416
0
LINE
8
annotation
62
1
39
211
10
37.250351
20
435.719416
11
37.122204
21
435.473596
0
LINE
8
annotation
62
1
39
211
10
75.524471
20
383.269099
11
72.897267
21
379.469089
0
LINE
8
annotation
62
1
39
211
10
72.897267
20
379.469089
11
70.269569
21
383.269099
0
LINE
8
annotation
62
1
39
211
10
72.897267
20
379.774888
11
72.897267
21
375.390945
0
LINE
8
annotation
62
1
39
211
10
82.786950
20
379.330022
11
78.479581
21
379.330022
0
LINE
8
annotation
62
1
39
211
10
87.491883
20
375.391192
11
87.491883
21
383.268852
0
LINE
8
annotation
62
1
39
211
10
87.491883
20
383.268852
11
85.740578
21
381.517053
0
LINE
8
annotation
62
1
39
211
10
93.073456
20
383.268852
11
93.073456
21
383.268852
0
LINE
8
annotation
62
1
39
211
10
93.073456
20
383.268852
11
92.572317
21
383.080955
0
LINE
8
annotation
62
1
39
211
10
92.572317
20
383.080955
11
92.112457
21
382.827786
0
LINE
8
annotation
62
1
39
211
10
92.112457
20
382.827786
11
91.698595
21
382.515689
0
LINE
8
annotation
62
1
39
211
10
91.698595
20
382.515689
11
91.335453
21
382.151006
0
LINE
8
annotation
62
1
39
211
10
91.335453
20
382.151006
11
91.027752
21
381.740080
0
LINE
8
annotation
62
1
39
211
10
91.027752
20
381.740080
11
90.780210
21
381.289254
0
LINE
8
annotation
62
1
39
211
10
90.780210
20
381.289254
11
90.597551
21
380.804872
0
LINE
8
annotation
62
1
39
211
10
90.597551
20
380.804872
11
90.484493
21
380.293276
0
LINE
8
annotation
62
1
39
211
10
90.484493
20
380.293276
11
90.445758
21
379.760808
0
LINE
8
annotation
62
1
39
211
10
90.445758
20
379.760808
11
90.445758
21
377.142497
0
LINE
8
annotation
62
1
39
211
10
90.445758
20
377.142497
11
90.445758
21
377.142497
0
LINE
8
annotation
62
1
39
211
10
90.445758
20
377.142497
11
90.474001
21
376.827808
0
LINE
8
annotation
62
1
39
211
10
90.474001
20
376.827808
11
90.555408
21
376.531579
0
LINE
8
annotation
62
1
39
211
10
90.555408
20
376.531579
11
90.684992
21
376.258766
0
LINE
8
annotation
62
1
39
211
10
90.684992
20
376.258766
11
90.857770
21
376.014326
0
LINE
8
annotation
62
1
39
211
10
90.857770
20
376.014326
11
91.068757
21
375.803215
0
LINE
8
annotation
62
1
39
211
10
91.068757
20
375.803215
11
91.312966
21
375.630390
0
LINE
8
annotation
62
1
39
211
10
91.312966
20
375.630390
11
91.585415
21
375.500807
0
LINE
8
annotation
62
1
39
211
10
91.585415
20
375.500807
11
91.881116
21
375.419422
0
LINE
8
annotation
62
1
39
211
10
91.881116
20
375.419422
11
92.195087
21
375.391192
0
LINE
8
annotation
62
1
39
211
10
92.195087
20
375.391192
11
92.195087
21
375.391192
0
LINE
8
annotation
62
1
39
211
10
92.195087
20
375.391192
11
92.509708
21
375.419422
0
LINE
8
annotation
62
1
39
211
10
92.509708
20
375.419422
11
92.805755
21
375.500807
0
LINE
8
annotation
62
1
39
211
10
92.805755
20
375.500807
11
93.078305
21
375.630390
0
LINE
8
annotation
62
1
39
211
10
93.078305
20
375.630390
11
93.322433
21
375.803215
0
LINE
8
annotation
62
1
39
211
10
93.322433
20
375.803215
11
93.533216
21
376.014326
0
LINE
8
annotation
62
1
39
211
10
93.533216
20
376.014326
11
93.705730
21
376.258766
0
LINE
8
annotation
62
1
39
211
10
93.705730
20
376.258766
11
93.835050
21
376.531579
0
LINE
8
annotation
62
1
39
211
10
93.835050
20
376.531579
11
93.916253
21
376.827808
0
LINE
8
annotation
62
1
39
211
10
93.916253
20
376.827808
11
93.944415
21
377.142497
0
LINE
8
annotation
62
1
39
211
10
93.944415
20
377.142497
11
93.944415
21
378.013950
0
LINE
8
annotation
62
1
39
211
10
93.944415
20
378.013950
11
93.944415
21
378.013950
0
LINE
8
annotation
62
1
39
211
10
93.944415
20
378.013950
11
93.916253
21
378.328486
0
LINE
8
annotation
62
1
39
211
10
93.916253
20
378.328486
11
93.835050
21
378.624306
0
LINE
8
annotation
62
1
39
211
10
93.835050
20
378.624306
11
93.705730
21
378.896528
0
LINE
8
annotation
62
1
39
211
10
93.705730
20
378.896528
11
93.533216
21
379.140266
0
LINE
8
annotation
62
1
39
211
10
93.533216
20
379.140266
11
93.322433
21
379.350639
0
LINE
8
annotation
62
1
39
211
10
93.322433
20
379.350639
11
93.078305
21
379.522763
0
LINE
8
annotation
62
1
39
211
10
93.078305
20
379.522763
11
92.805755
21
379.651755
0
LINE
8
annotation
62
1
39
211
10
92.805755
20
379.651755
11
92.509708
21
379.732731
0
LINE
8
annotation
62
1
39
211
10
92.509708
20
379.732731
11
92.195087
21
379.760808
0
LINE
8
annotation
62
1
39
211
10
92.195087
20
379.760808
11
90.445758
21
379.760808
0
LINE
8
annotation
62
1
39
211
10
90.226660
20
374.406485
11
94.165489
21
374.406485
0
LINE
8
frame
62
5
39
2
10
0.000000
20
0.000000
11
215.900000
21
0.000000
0
LINE
8
frame
62
5
39
2
10
215.900000
20
0.000000
11
215.900000
21
279.400000
0
LINE
8
frame
62
5
39
2
10
215.900000
20
279.400000
11
0.000000
21
279.400000
0
LINE
8
frame
62
5
39
2
10
0.000000
20
279.400000
11
0.000000
21
0.000000
0
ENDSEC
0
EOF
