0
SECTION
2
HEADER
9
$ACADVER
1
AC1009
0
ENDSEC
0
SECTION
2
TABLES
0
TABLE
2
VPORT
70
1
0
VPORT
2
ACTIVE
70
0
10
0.0
20
0.0
11
0.0
21
0.0
12
0.0
22
0.0
13
0.0
23
0.0
14
0.0
24
0.0
15
0.0
25
0.0
16
0.0
26
0.0
36
0.0
17
0.0
27
0.0
37
0.0
40
0.0
41
0.0
42
0.0
43
0.0
44
0.0
50
0.0
51
0.0
71
0
72
1000
73
1
74
3
75
0
76
0
77
0
78
0
0
ENDTAB
0
ENDSEC
0
SECTION
2
ENTITIES
0
LINE
8
boundary
62
5
39
2
10
26.170972
20
35.665651
11
26.641411
21
34.814627
0
LINE
8
boundary
62
5
39
2
10
26.641411
20
34.814627
11
27.335840
21
33.597411
0
LINE
8
boundary
62
5
39
2
10
27.335840
20
33.597411
11
28.054994
21
32.390520
0
LINE
8
boundary
62
5
39
2
10
28.054994
20
32.390520
11
28.799412
21
31.195001
0
LINE
8
boundary
62
5
39
2
10
28.799412
20
31.195001
11
29.569773
21
30.012013
0
LINE
8
boundary
62
5
39
2
10
29.569773
20
30.012013
11
30.366890
21
28.842662
0
LINE
8
boundary
62
5
39
2
10
30.366890
20
28.842662
11
31.191436
21
27.688119
0
LINE
8
boundary
62
5
39
2
10
31.191436
20
27.688119
11
32.044077
21
26.549565
0
LINE
8
boundary
62
5
39
2
10
32.044077
20
26.549565
11
32.356677
21
26.140352
0
LINE
8
boundary
62
5
39
2
10
32.356677
20
26.140352
11
32.925558
21
25.428212
0
LINE
8
boundary
62
5
39
2
10
32.925558
20
25.428212
11
33.253999
21
25.018837
0
LINE
8
boundary
62
5
39
2
10
33.253999
20
25.018837
11
33.836432
21
24.325162
0
LINE
8
boundary
62
5
39
2
10
33.836432
20
24.325162
11
34.180979
21
23.916566
0
LINE
8
boundary
62
5
39
2
10
34.180979
20
23.916566
11
34.777495
21
23.241711
0
LINE
8
boundary
62
5
39
2
10
34.777495
20
23.241711
11
35.138617
21
22.834971
0
LINE
8
boundary
62
5
39
2
10
35.138617
20
22.834971
11
35.749420
21
22.179146
0
LINE
8
boundary
62
5
39
2
10
35.749420
20
22.179146
11
36.127275
21
21.775235
0
LINE
8
boundary
62
5
39
2
10
36.127275
20
21.775235
11
36.752749
21
21.138625
0
LINE
8
boundary
62
5
39
2
10
36.752749
20
21.138625
11
37.147612
21
20.738568
0
LINE
8
boundary
62
5
39
2
10
37.147612
20
20.738568
11
37.788271
21
20.121488
0
LINE
8
boundary
62
5
39
2
10
37.788271
20
20.121488
11
38.200475
21
19.726335
0
LINE
8
boundary
62
5
39
2
10
38.200475
20
19.726335
11
38.856661
21
19.128972
0
LINE
8
boundary
62
5
39
2
10
38.856661
20
19.128972
11
39.286419
21
18.739735
0
LINE
8
boundary
62
5
39
2
10
39.286419
20
18.739735
11
39.958519
21
18.162377
0
LINE
8
boundary
62
5
39
2
10
39.958519
20
18.162377
11
40.405977
21
17.780094
0
LINE
8
boundary
62
5
39
2
10
40.405977
20
17.780094
11
41.094498
21
17.223043
0
LINE
8
boundary
62
5
39
2
10
41.094498
20
17.223043
11
41.559885
21
16.848757
0
LINE
8
boundary
62
5
39
2
10
41.559885
20
16.848757
11
42.265319
21
16.312274
0
LINE
8
boundary
62
5
39
2
10
42.265319
20
16.312274
11
42.748794
21
15.947011
0
LINE
8
boundary
62
5
39
2
10
42.748794
20
15.947011
11
43.471550
21
15.431374
0
LINE
8
boundary
62
5
39
2
10
43.471550
20
15.431374
11
43.973204
21
15.076091
0
LINE
8
boundary
62
5
39
2
10
43.973204
20
15.076091
11
44.713779
21
14.581634
0
LINE
8
boundary
62
5
39
2
10
44.713779
20
14.581634
11
45.233763
21
14.237348
0
LINE
8
boundary
62
5
39
2
10
45.233763
20
14.237348
11
45.992710
21
13.764429
0
LINE
8
boundary
62
5
39
2
10
45.992710
20
13.764429
11
46.531109
21
13.432104
0
LINE
8
boundary
62
5
39
2
10
46.531109
20
13.432104
11
47.308904
21
12.981092
0
LINE
8
boundary
62
5
39
2
10
47.308904
20
12.981092
11
47.865789
21
12.661694
0
LINE
8
boundary
62
5
39
2
10
47.865789
20
12.661694
11
48.662995
21
12.233005
0
LINE
8
boundary
62
5
39
2
10
48.662995
20
12.233005
11
49.238428
21
11.927455
0
LINE
8
boundary
62
5
39
2
10
49.238428
20
11.927455
11
50.055611
21
11.521450
0
LINE
8
boundary
62
5
39
2
10
50.055611
20
11.521450
11
50.649663
21
11.230636
0
LINE
8
boundary
62
5
39
2
10
50.649663
20
11.230636
11
51.487312
21
10.847706
0
LINE
8
boundary
62
5
39
2
10
51.487312
20
10.847706
11
52.099965
21
10.572468
0
LINE
8
boundary
62
5
39
2
10
52.099965
20
10.572468
11
52.958717
21
10.213129
0
LINE
8
boundary
62
5
39
2
10
52.958717
20
10.213129
11
53.590027
21
9.954352
0
LINE
8
boundary
62
5
39
2
10
53.590027
20
9.954352
11
54.470322
21
9.619025
0
LINE
8
boundary
62
5
39
2
10
54.470322
20
9.619025
11
55.120256
21
9.377447
0
LINE
8
boundary
62
5
39
2
10
55.120256
20
9.377447
11
56.022688
21
9.066649
0
LINE
8
boundary
62
5
39
2
10
56.022688
20
9.066649
11
56.691253
21
8.843075
0
LINE
8
boundary
62
5
39
2
10
56.691253
20
8.843075
11
57.616392
21
8.557297
0
LINE
8
boundary
62
5
39
2
10
57.616392
20
8.557297
11
58.303587
21
8.352468
0
LINE
8
boundary
62
5
39
2
10
58.303587
20
8.352468
11
59.251971
21
8.092196
0
LINE
8
boundary
62
5
39
2
10
59.251971
20
8.092196
11
59.957829
21
7.906768
0
LINE
8
boundary
62
5
39
2
10
59.957829
20
7.906768
11
60.929914
21
7.672560
0
LINE
8
boundary
62
5
39
2
10
60.929914
20
7.672560
11
61.654348
21
7.507243
0
LINE
8
boundary
62
5
39
2
10
61.654348
20
7.507243
11
62.650810
21
7.299625
0
LINE
8
boundary
62
5
39
2
10
62.650810
20
7.299625
11
63.393938
21
7.154973
0
LINE
8
boundary
62
5
39
2
10
63.393938
20
7.154973
11
64.415149
21
6.974431
0
LINE
8
boundary
62
5
39
2
10
64.415149
20
6.974431
11
65.176870
21
6.851083
0
LINE
8
boundary
62
5
39
2
10
65.176870
20
6.851083
11
65.693888
21
6.718028
0
LINE
8
boundary
62
5
39
2
10
65.693888
20
6.718028
11
66.314490
21
6.670335
0
LINE
8
boundary
62
5
39
2
10
66.314490
20
6.670335
11
66.852227
21
6.686144
0
LINE
8
boundary
62
5
39
2
10
66.852227
20
6.686144
11
67.435213
21
6.749379
0
LINE
8
boundary
62
5
39
2
10
67.435213
20
6.749379
11
68.056666
21
6.858896
0
LINE
8
boundary
62
5
39
2
10
68.056666
20
6.858896
11
68.709822
21
7.013524
0
LINE
8
boundary
62
5
39
2
10
68.709822
20
7.013524
11
69.387870
21
7.212066
0
LINE
8
boundary
62
5
39
2
10
69.387870
20
7.212066
11
70.084110
21
7.453242
0
LINE
8
boundary
62
5
39
2
10
70.084110
20
7.453242
11
70.791670
21
7.735666
0
LINE
8
boundary
62
5
39
2
10
70.791670
20
7.735666
11
71.503869
21
8.058101
0
LINE
8
boundary
62
5
39
2
10
71.503869
20
8.058101
11
72.214053
21
8.419201
0
LINE
8
boundary
62
5
39
2
10
72.214053
20
8.419201
11
72.915444
21
8.817598
0
LINE
8
boundary
62
5
39
2
10
72.915444
20
8.817598
11
73.601294
21
9.251858
0
LINE
8
boundary
62
5
39
2
10
73.601294
20
9.251858
11
74.265025
21
9.720670
0
LINE
8
boundary
62
5
39
2
10
74.265025
20
9.720670
11
74.899878
21
10.222630
0
LINE
8
boundary
62
5
39
2
10
74.899878
20
10.222630
11
75.335514
21
10.600720
0
LINE
8
boundary
62
5
39
2
10
75.335514
20
10.600720
11
75.748585
21
10.996497
0
LINE
8
boundary
62
5
39
2
10
75.748585
20
10.996497
11
76.174394
21
11.445920
0
LINE
8
boundary
62
5
39
2
10
76.174394
20
11.445920
11
76.536855
21
11.873557
0
LINE
8
boundary
62
5
39
2
10
76.536855
20
11.873557
11
76.899992
21
12.355888
0
LINE
8
boundary
62
5
39
2
10
76.899992
20
12.355888
11
77.201061
21
12.813479
0
LINE
8
boundary
62
5
39
2
10
77.201061
20
12.813479
11
77.490074
21
13.326554
0
LINE
8
boundary
62
5
39
2
10
77.490074
20
13.326554
11
77.718872
21
13.812052
0
LINE
8
boundary
62
5
39
2
10
77.718872
20
13.812052
11
77.921995
21
14.353661
0
LINE
8
boundary
62
5
39
2
10
77.921995
20
14.353661
11
78.067594
21
14.865262
0
LINE
8
boundary
62
5
39
2
10
78.067594
20
14.865262
11
78.173365
21
15.433356
0
LINE
8
boundary
62
5
39
2
10
78.173365
20
15.433356
11
78.224610
21
15.969464
0
LINE
8
boundary
62
5
39
2
10
78.224610
20
15.969464
11
78.221550
21
16.562246
0
LINE
8
boundary
62
5
39
2
10
78.221550
20
16.562246
11
78.167282
21
17.121266
0
LINE
8
boundary
62
5
39
2
10
78.167282
20
17.121266
11
78.043813
21
17.737215
0
LINE
8
boundary
62
5
39
2
10
78.043813
20
17.737215
11
77.872793
21
18.317839
0
LINE
8
boundary
62
5
39
2
10
77.872793
20
18.317839
11
77.617540
21
18.955667
0
LINE
8
boundary
62
5
39
2
10
77.617540
20
18.955667
11
77.318393
21
19.556848
0
LINE
8
boundary
62
5
39
2
10
77.318393
20
19.556848
11
76.919523
21
20.215546
0
LINE
8
boundary
62
5
39
2
10
76.919523
20
20.215546
11
76.622545
21
20.644474
0
LINE
8
boundary
62
5
39
2
10
76.622545
20
20.644474
11
76.291973
21
21.077827
0
LINE
8
boundary
62
5
39
2
10
76.291973
20
21.077827
11
75.926882
21
21.515520
0
LINE
8
boundary
62
5
39
2
10
75.926882
20
21.515520
11
75.526436
21
21.957616
0
LINE
8
boundary
62
5
39
2
10
75.526436
20
21.957616
11
74.846730
21
22.224242
0
LINE
8
boundary
62
5
39
2
10
74.846730
20
22.224242
11
73.952571
21
22.357377
0
LINE
8
boundary
62
5
39
2
10
73.952571
20
22.357377
11
73.051696
21
22.520546
0
LINE
8
boundary
62
5
39
2
10
73.051696
20
22.520546
11
72.144629
21
22.713772
0
LINE
8
boundary
62
5
39
2
10
72.144629
20
22.713772
11
71.231996
21
22.937062
0
LINE
8
boundary
62
5
39
2
10
71.231996
20
22.937062
11
70.314233
21
23.190378
0
LINE
8
boundary
62
5
39
2
10
70.314233
20
23.190378
11
69.391904
21
23.473684
0
LINE
8
boundary
62
5
39
2
10
69.391904
20
23.473684
11
68.465526
21
23.786962
0
LINE
8
boundary
62
5
39
2
10
68.465526
20
23.786962
11
67.535530
21
24.130203
0
LINE
8
boundary
62
5
39
2
10
67.535530
20
24.130203
11
66.602526
21
24.503305
0
LINE
8
boundary
62
5
39
2
10
66.602526
20
24.503305
11
65.667035
21
24.906216
0
LINE
8
boundary
62
5
39
2
10
65.667035
20
24.906216
11
64.729558
21
25.338893
0
LINE
8
boundary
62
5
39
2
10
64.729558
20
25.338893
11
63.790643
21
25.801228
0
LINE
8
boundary
62
5
39
2
10
63.790643
20
25.801228
11
62.850797
21
26.293185
0
LINE
8
boundary
62
5
39
2
10
62.850797
20
26.293185
11
61.910529
21
26.814600
0
LINE
8
boundary
62
5
39
2
10
61.910529
20
26.814600
11
60.970412
21
27.365401
0
LINE
8
boundary
62
5
39
2
10
60.970412
20
27.365401
11
60.031032
21
27.945479
0
LINE
8
boundary
62
5
39
2
10
60.031032
20
27.945479
11
59.092944
21
28.554669
0
LINE
8
boundary
62
5
39
2
10
59.092944
20
28.554669
11
58.156596
21
29.192873
0
LINE
8
boundary
62
5
39
2
10
58.156596
20
29.192873
11
57.222563
21
29.859908
0
LINE
8
boundary
62
5
39
2
10
57.222563
20
29.859908
11
56.291441
21
30.555645
0
LINE
8
boundary
62
5
39
2
10
56.291441
20
30.555645
11
55.363778
21
31.279899
0
LINE
8
boundary
62
5
39
2
10
55.363778
20
31.279899
11
54.964098
21
31.595424
0
LINE
8
boundary
62
5
39
2
10
54.964098
20
31.595424
11
54.440060
21
32.032458
0
LINE
8
boundary
62
5
39
2
10
54.440060
20
32.032458
11
54.043803
21
32.358787
0
LINE
8
boundary
62
5
39
2
10
54.043803
20
32.358787
11
53.520836
21
32.813115
0
LINE
8
boundary
62
5
39
2
10
53.520836
20
32.813115
11
53.128484
21
33.149943
0
LINE
8
boundary
62
5
39
2
10
53.128484
20
33.149943
11
52.606770
21
33.621706
0
LINE
8
boundary
62
5
39
2
10
52.606770
20
33.621706
11
52.218661
21
33.968763
0
LINE
8
boundary
62
5
39
2
10
52.218661
20
33.968763
11
51.698355
21
34.458021
0
LINE
8
boundary
62
5
39
2
10
51.698355
20
34.458021
11
51.314821
21
34.814860
0
LINE
8
boundary
62
5
39
2
10
51.314821
20
34.814860
11
50.796192
21
35.321764
0
LINE
8
boundary
62
5
39
2
10
50.796192
20
35.321764
11
50.417596
21
35.688072
0
LINE
8
boundary
62
5
39
2
10
50.417596
20
35.688072
11
49.900768
21
36.212746
0
LINE
8
boundary
62
5
39
2
10
49.900768
20
36.212746
11
49.527438
21
36.588116
0
LINE
8
boundary
62
5
39
2
10
49.527438
20
36.588116
11
49.012721
21
37.130698
0
LINE
8
boundary
62
5
39
2
10
49.012721
20
37.130698
11
48.645046
21
37.514703
0
LINE
8
boundary
62
5
39
2
10
48.645046
20
37.514703
11
48.132564
21
38.075325
0
LINE
8
boundary
62
5
39
2
10
48.132564
20
38.075325
11
47.770858
21
38.467521
0
LINE
8
boundary
62
5
39
2
10
47.770858
20
38.467521
11
47.260899
21
39.046377
0
LINE
8
boundary
62
5
39
2
10
47.260899
20
39.046377
11
46.905506
21
39.446334
0
LINE
8
boundary
62
5
39
2
10
46.905506
20
39.446334
11
46.398214
21
40.043546
0
LINE
8
boundary
62
5
39
2
10
46.398214
20
40.043546
11
46.049460
21
40.450764
0
LINE
8
boundary
62
5
39
2
10
46.049460
20
40.450764
11
45.545226
21
41.066562
0
LINE
8
boundary
62
5
39
2
10
45.545226
20
41.066562
11
45.203482
21
41.480549
0
LINE
8
boundary
62
5
39
2
10
45.203482
20
41.480549
11
44.702459
21
42.115079
0
LINE
8
boundary
62
5
39
2
10
44.702459
20
42.115079
11
44.368008
21
42.535326
0
LINE
8
boundary
62
5
39
2
10
44.368008
20
42.535326
11
43.870434
21
43.188773
0
LINE
8
boundary
62
5
39
2
10
43.870434
20
43.188773
11
43.543577
21
43.614742
0
LINE
8
boundary
62
5
39
2
10
43.543577
20
43.614742
11
43.049771
21
44.287345
0
LINE
8
boundary
62
5
39
2
10
43.049771
20
44.287345
11
42.730808
21
44.718509
0
LINE
8
boundary
62
5
39
2
10
42.730808
20
44.718509
11
42.240989
21
45.410432
0
LINE
8
boundary
62
5
39
2
10
42.240989
20
45.410432
11
41.930198
21
45.846211
0
LINE
8
boundary
62
5
39
2
10
41.930198
20
45.846211
11
41.444781
21
46.557680
0
LINE
8
boundary
62
5
39
2
10
41.444781
20
46.557680
11
41.142464
21
46.997515
0
LINE
8
boundary
62
5
39
2
10
41.142464
20
46.997515
11
40.661642
21
47.728709
0
LINE
8
boundary
62
5
39
2
10
40.661642
20
47.728709
11
40.367965
21
48.172005
0
LINE
8
boundary
62
5
39
2
10
40.367965
20
48.172005
11
39.892085
21
48.923128
0
LINE
8
boundary
62
5
39
2
10
39.892085
20
48.923128
11
39.607334
21
49.369288
0
LINE
8
boundary
62
5
39
2
10
39.607334
20
49.369288
11
39.136699
21
50.140590
0
LINE
8
boundary
62
5
39
2
10
39.136699
20
50.140590
11
38.861055
21
50.589042
0
LINE
8
boundary
62
5
39
2
10
38.861055
20
50.589042
11
38.396157
21
51.380720
0
LINE
8
boundary
62
5
39
2
10
38.396157
20
51.380720
11
38.129840
21
51.830855
0
LINE
8
boundary
62
5
39
2
10
38.129840
20
51.830855
11
37.671032
21
52.643070
0
LINE
8
boundary
62
5
39
2
10
37.671032
20
52.643070
11
37.414232
21
53.094291
0
LINE
8
boundary
62
5
39
2
10
37.414232
20
53.094291
11
36.961772
21
53.927271
0
LINE
8
boundary
62
5
39
2
10
36.961772
20
53.927271
11
36.714547
21
54.378941
0
LINE
8
boundary
62
5
39
2
10
36.714547
20
54.378941
11
36.269051
21
55.232821
0
LINE
8
boundary
62
5
39
2
10
36.269051
20
55.232821
11
36.031626
21
55.684377
0
LINE
8
boundary
62
5
39
2
10
36.031626
20
55.684377
11
35.593458
21
56.559397
0
LINE
8
boundary
62
5
39
2
10
35.593458
20
56.559397
11
34.935453
21
57.906476
0
LINE
8
boundary
62
5
39
2
10
34.935453
20
57.906476
11
34.295652
21
59.273663
0
LINE
8
boundary
62
5
39
2
10
34.295652
20
59.273663
11
33.674600
21
60.660495
0
LINE
8
boundary
62
5
39
2
10
33.674600
20
60.660495
11
33.072927
21
62.066520
0
LINE
8
boundary
62
5
39
2
10
33.072927
20
62.066520
11
32.491199
21
63.491262
0
LINE
8
boundary
62
5
39
2
10
32.491199
20
63.491262
11
31.929882
21
64.934233
0
LINE
8
boundary
62
5
39
2
10
31.929882
20
64.934233
11
31.389564
21
66.395015
0
LINE
8
boundary
62
5
39
2
10
31.389564
20
66.395015
11
30.870733
21
67.873111
0
LINE
8
boundary
62
5
39
2
10
30.870733
20
67.873111
11
30.373983
21
69.368004
0
LINE
8
boundary
62
5
39
2
10
30.373983
20
69.368004
11
29.899904
21
70.879216
0
LINE
8
boundary
62
5
39
2
10
29.899904
20
70.879216
11
29.448885
21
72.406276
0
LINE
8
boundary
62
5
39
2
10
29.448885
20
72.406276
11
29.021531
21
73.948691
0
LINE
8
boundary
62
5
39
2
10
29.021531
20
73.948691
11
28.618444
21
75.505947
0
LINE
8
boundary
62
5
39
2
10
28.618444
20
75.505947
11
28.240011
21
77.077553
0
LINE
8
boundary
62
5
39
2
10
28.240011
20
77.077553
11
27.886721
21
78.663029
0
LINE
8
boundary
62
5
39
2
10
27.886721
20
78.663029
11
27.558999
21
80.261844
0
LINE
8
boundary
62
5
39
2
10
27.558999
20
80.261844
11
27.257514
21
81.873555
0
LINE
8
boundary
62
5
39
2
10
27.257514
20
81.873555
11
26.982743
21
83.497594
0
LINE
8
boundary
62
5
39
2
10
26.982743
20
83.497594
11
26.674291
21
84.855569
0
LINE
8
boundary
62
5
39
2
10
26.674291
20
84.855569
11
26.367942
21
86.133361
0
LINE
8
boundary
62
5
39
2
10
26.367942
20
86.133361
11
26.077949
21
87.409014
0
LINE
8
boundary
62
5
39
2
10
26.077949
20
87.409014
11
25.804275
21
88.682356
0
LINE
8
boundary
62
5
39
2
10
25.804275
20
88.682356
11
25.546572
21
89.953389
0
LINE
8
boundary
62
5
39
2
10
25.546572
20
89.953389
11
25.304669
21
91.222019
0
LINE
8
boundary
62
5
39
2
10
25.304669
20
91.222019
11
24.909012
21
93.520768
0
LINE
8
boundary
62
5
39
2
10
24.909012
20
93.520768
11
24.525554
21
96.052440
0
LINE
8
boundary
62
5
39
2
10
24.525554
20
96.052440
11
24.202264
21
98.572114
0
LINE
8
boundary
62
5
39
2
10
24.202264
20
98.572114
11
23.937422
21
101.079284
0
LINE
8
boundary
62
5
39
2
10
23.937422
20
101.079284
11
23.729127
21
103.573704
0
LINE
8
boundary
62
5
39
2
10
23.729127
20
103.573704
11
23.576077
21
106.054872
0
LINE
8
boundary
62
5
39
2
10
23.576077
20
106.054872
11
23.476319
21
108.522565
0
LINE
8
boundary
62
5
39
2
10
23.476319
20
108.522565
11
23.428140
21
110.976585
0
LINE
8
boundary
62
5
39
2
10
23.428140
20
110.976585
11
23.429867
21
113.416652
0
LINE
8
boundary
62
5
39
2
10
23.429867
20
113.416652
11
23.479803
21
115.842793
0
LINE
8
boundary
62
5
39
2
10
23.479803
20
115.842793
11
23.576287
21
118.254812
0
LINE
8
boundary
62
5
39
2
10
23.576287
20
118.254812
11
23.717782
21
120.652670
0
LINE
8
boundary
62
5
39
2
10
23.717782
20
120.652670
11
23.902539
21
123.036478
0
LINE
8
boundary
62
5
39
2
10
23.902539
20
123.036478
11
24.128894
21
125.406169
0
LINE
8
boundary
62
5
39
2
10
24.128894
20
125.406169
11
24.395359
21
127.761776
0
LINE
8
boundary
62
5
39
2
10
24.395359
20
127.761776
11
24.700232
21
130.103470
0
LINE
8
boundary
62
5
39
2
10
24.700232
20
130.103470
11
25.042046
21
132.431298
0
LINE
8
boundary
62
5
39
2
10
25.042046
20
132.431298
11
25.419275
21
134.745349
0
LINE
8
boundary
62
5
39
2
10
25.419275
20
134.745349
11
25.830343
21
137.045820
0
LINE
8
boundary
62
5
39
2
10
25.830343
20
137.045820
11
26.273705
21
139.332790
0
LINE
8
boundary
62
5
39
2
10
26.273705
20
139.332790
11
26.747964
21
141.606374
0
LINE
8
boundary
62
5
39
2
10
26.747964
20
141.606374
11
27.251721
21
143.866784
0
LINE
8
boundary
62
5
39
2
10
27.251721
20
143.866784
11
27.783395
21
146.114238
0
LINE
8
boundary
62
5
39
2
10
27.783395
20
146.114238
11
28.341615
21
148.348816
0
LINE
8
boundary
62
5
39
2
10
28.341615
20
148.348816
11
28.924962
21
150.570625
0
LINE
8
boundary
62
5
39
2
10
28.924962
20
150.570625
11
29.531980
21
152.779971
0
LINE
8
boundary
62
5
39
2
10
29.531980
20
152.779971
11
30.161442
21
154.976867
0
LINE
8
boundary
62
5
39
2
10
30.161442
20
154.976867
11
30.811827
21
157.161581
0
LINE
8
boundary
62
5
39
2
10
30.811827
20
157.161581
11
31.481852
21
159.334174
0
LINE
8
boundary
62
5
39
2
10
31.481852
20
159.334174
11
32.170094
21
161.494906
0
LINE
8
boundary
62
5
39
2
10
32.170094
20
161.494906
11
32.875357
21
163.643912
0
LINE
8
boundary
62
5
39
2
10
32.875357
20
163.643912
11
33.036987
21
164.136565
0
LINE
8
boundary
62
5
39
2
10
33.036987
20
164.136565
11
33.596140
21
165.781279
0
LINE
8
boundary
62
5
39
2
10
33.596140
20
165.781279
11
33.767088
21
166.288350
0
LINE
8
boundary
62
5
39
2
10
33.767088
20
166.288350
11
34.331288
21
167.907229
0
LINE
8
boundary
62
5
39
2
10
34.331288
20
167.907229
11
34.511565
21
168.428589
0
LINE
8
boundary
62
5
39
2
10
34.511565
20
168.428589
11
35.079527
21
170.021789
0
LINE
8
boundary
62
5
39
2
10
35.079527
20
170.021789
11
35.268978
21
170.557172
0
LINE
8
boundary
62
5
39
2
10
35.268978
20
170.557172
11
35.839298
21
172.125285
0
LINE
8
boundary
62
5
39
2
10
35.839298
20
172.125285
11
36.037672
21
172.674474
0
LINE
8
boundary
62
5
39
2
10
36.037672
20
172.674474
11
37.175123
21
175.718280
0
LINE
8
boundary
62
5
39
2
10
37.175123
20
175.718280
11
37.604663
21
176.874992
0
LINE
8
boundary
62
5
39
2
10
37.604663
20
176.874992
11
38.739857
21
179.824051
0
LINE
8
boundary
62
5
39
2
10
38.739857
20
179.824051
11
39.201927
21
181.030940
0
LINE
8
boundary
62
5
39
2
10
39.201927
20
181.030940
11
40.327753
21
183.889622
0
LINE
8
boundary
62
5
39
2
10
40.327753
20
183.889622
11
40.819191
21
185.143139
0
LINE
8
boundary
62
5
39
2
10
40.819191
20
185.143139
11
41.929139
21
187.916231
0
LINE
8
boundary
62
5
39
2
10
41.929139
20
187.916231
11
42.446135
21
189.212609
0
LINE
8
boundary
62
5
39
2
10
42.446135
20
189.212609
11
43.534611
21
191.904836
0
LINE
8
boundary
62
5
39
2
10
43.534611
20
191.904836
11
44.072927
21
193.239989
0
LINE
8
boundary
62
5
39
2
10
44.072927
20
193.239989
11
46.143907
21
198.349467
0
LINE
8
boundary
62
5
39
2
10
46.143907
20
198.349467
11
47.286602
21
201.172771
0
LINE
8
boundary
62
5
39
2
10
47.286602
20
201.172771
11
49.220321
21
206.028423
0
LINE
8
boundary
62
5
39
2
10
49.220321
20
206.028423
11
50.384035
21
208.949343
0
LINE
8
boundary
62
5
39
2
10
50.384035
20
208.949343
11
51.298151
21
211.314698
0
LINE
8
boundary
62
5
39
2
10
51.298151
20
211.314698
11
51.866169
21
212.781715
0
LINE
8
boundary
62
5
39
2
10
51.866169
20
212.781715
11
52.734615
21
215.096794
0
LINE
8
boundary
62
5
39
2
10
52.734615
20
215.096794
11
53.291902
21
216.578105
0
LINE
8
boundary
62
5
39
2
10
53.291902
20
216.578105
11
54.111697
21
218.847770
0
LINE
8
boundary
62
5
39
2
10
54.111697
20
218.847770
11
54.652733
21
220.339639
0
LINE
8
boundary
62
5
39
2
10
54.652733
20
220.339639
11
55.044742
21
221.462832
0
LINE
8
boundary
62
5
39
2
10
55.044742
20
221.462832
11
55.306002
21
222.207697
0
LINE
8
boundary
62
5
39
2
10
55.306002
20
222.207697
11
55.684681
21
223.321050
0
LINE
8
boundary
62
5
39
2
10
55.684681
20
223.321050
11
55.939924
21
224.067448
0
LINE
8
boundary
62
5
39
2
10
55.939924
20
224.067448
11
56.527709
21
225.863670
0
LINE
8
boundary
62
5
39
2
10
56.527709
20
225.863670
11
56.931265
21
227.089238
0
LINE
8
boundary
62
5
39
2
10
56.931265
20
227.089238
11
57.501560
21
228.929493
0
LINE
8
boundary
62
5
39
2
10
57.501560
20
228.929493
11
57.898952
21
230.202300
0
LINE
8
boundary
62
5
39
2
10
57.898952
20
230.202300
11
58.176665
21
231.140323
0
LINE
8
boundary
62
5
39
2
10
58.176665
20
231.140323
11
58.370969
21
231.791169
0
LINE
8
boundary
62
5
39
2
10
58.370969
20
231.791169
11
58.642368
21
232.739316
0
LINE
8
boundary
62
5
39
2
10
58.642368
20
232.739316
11
58.833391
21
233.400675
0
LINE
8
boundary
62
5
39
2
10
58.833391
20
233.400675
11
59.097850
21
234.358641
0
LINE
8
boundary
62
5
39
2
10
59.097850
20
234.358641
11
59.284995
21
235.030030
0
LINE
8
boundary
62
5
39
2
10
59.284995
20
235.030030
11
59.542053
21
235.997710
0
LINE
8
boundary
62
5
39
2
10
59.542053
20
235.997710
11
59.724845
21
236.678570
0
LINE
8
boundary
62
5
39
2
10
59.724845
20
236.678570
11
59.973746
21
237.655654
0
LINE
8
boundary
62
5
39
2
10
59.973746
20
237.655654
11
60.151510
21
238.345594
0
LINE
8
boundary
62
5
39
2
10
60.151510
20
238.345594
11
60.391813
21
239.331980
0
LINE
8
boundary
62
5
39
2
10
60.391813
20
239.331980
11
60.564061
21
240.030377
0
LINE
8
boundary
62
5
39
2
10
60.564061
20
240.030377
11
60.795104
21
241.025857
0
LINE
8
boundary
62
5
39
2
10
60.795104
20
241.025857
11
60.961216
21
241.732307
0
LINE
8
boundary
62
5
39
2
10
60.961216
20
241.732307
11
61.182518
21
242.736809
0
LINE
8
boundary
62
5
39
2
10
61.182518
20
242.736809
11
61.342063
21
243.450720
0
LINE
8
boundary
62
5
39
2
10
61.342063
20
243.450720
11
61.552948
21
244.464167
0
LINE
8
boundary
62
5
39
2
10
61.552948
20
244.464167
11
61.705285
21
245.184979
0
LINE
8
boundary
62
5
39
2
10
61.705285
20
245.184979
11
61.905207
21
246.207197
0
LINE
8
boundary
62
5
39
2
10
61.905207
20
246.207197
11
62.049849
21
246.934416
0
LINE
8
boundary
62
5
39
2
10
62.049849
20
246.934416
11
62.238271
21
247.965314
0
LINE
8
boundary
62
5
39
2
10
62.238271
20
247.965314
11
62.374732
21
248.698363
0
LINE
8
boundary
62
5
39
2
10
62.374732
20
248.698363
11
62.551133
21
249.737925
0
LINE
8
boundary
62
5
39
2
10
62.551133
20
249.737925
11
62.678942
21
250.476235
0
LINE
8
boundary
62
5
39
2
10
62.678942
20
250.476235
11
62.842706
21
251.524265
0
LINE
8
boundary
62
5
39
2
10
62.842706
20
251.524265
11
62.961411
21
252.267326
0
LINE
8
boundary
62
5
39
2
10
62.961411
20
252.267326
11
63.111989
21
253.323984
0
LINE
8
boundary
62
5
39
2
10
63.111989
20
253.323984
11
63.221118
21
254.071274
0
LINE
8
boundary
62
5
39
2
10
63.221118
20
254.071274
11
63.357930
21
255.136378
0
LINE
8
boundary
62
5
39
2
10
63.357930
20
255.136378
11
63.457068
21
255.887260
0
LINE
8
boundary
62
5
39
2
10
63.457068
20
255.887260
11
63.579518
21
256.960825
0
LINE
8
boundary
62
5
39
2
10
63.579518
20
256.960825
11
63.668222
21
257.714824
0
LINE
8
boundary
62
5
39
2
10
63.668222
20
257.714824
11
63.775776
21
258.796757
0
LINE
8
boundary
62
5
39
2
10
63.775776
20
258.796757
11
63.853740
21
259.553234
0
LINE
8
boundary
62
5
39
2
10
63.853740
20
259.553234
11
63.945807
21
260.643642
0
LINE
8
boundary
62
5
39
2
10
63.945807
20
260.643642
11
64.012621
21
261.402166
0
LINE
8
boundary
62
5
39
2
10
64.012621
20
261.402166
11
64.088613
21
262.500934
0
LINE
8
boundary
62
5
39
2
10
64.088613
20
262.500934
11
64.143952
21
263.260877
0
LINE
8
boundary
62
5
39
2
10
64.143952
20
263.260877
11
64.203265
21
264.367975
0
LINE
8
boundary
62
5
39
2
10
64.203265
20
264.367975
11
64.246841
21
265.128818
0
LINE
8
boundary
62
5
39
2
10
64.246841
20
265.128818
11
64.288826
21
266.244286
0
LINE
8
boundary
62
5
39
2
10
64.288826
20
266.244286
11
64.320300
21
267.005532
0
LINE
8
boundary
62
5
39
2
10
64.320300
20
267.005532
11
64.344436
21
268.129408
0
LINE
8
boundary
62
5
39
2
10
64.344436
20
268.129408
11
64.363587
21
268.890508
0
LINE
8
boundary
62
5
39
2
10
64.363587
20
268.890508
11
64.369251
21
270.022581
0
LINE
8
boundary
62
5
39
2
10
64.369251
20
270.022581
11
64.375834
21
270.782967
0
LINE
8
boundary
62
5
39
2
10
64.375834
20
270.782967
11
64.362354
21
271.923506
0
LINE
8
boundary
62
5
39
2
10
64.362354
20
271.923506
11
64.356187
21
272.682714
0
LINE
8
boundary
62
5
39
2
10
64.356187
20
272.682714
11
64.323006
21
273.831461
0
LINE
8
boundary
62
5
39
2
10
64.323006
20
273.831461
11
64.303904
21
274.589026
0
LINE
8
boundary
62
5
39
2
10
64.303904
20
274.589026
11
64.250258
21
275.746190
0
LINE
8
boundary
62
5
39
2
10
64.250258
20
275.746190
11
64.217988
21
276.501500
0
LINE
8
boundary
62
5
39
2
10
64.217988
20
276.501500
11
64.143371
21
277.666861
0
LINE
8
boundary
62
5
39
2
10
64.143371
20
277.666861
11
64.097910
21
278.419496
0
LINE
8
boundary
62
5
39
2
10
64.097910
20
278.419496
11
64.001564
21
279.593148
0
LINE
8
boundary
62
5
39
2
10
64.001564
20
279.593148
11
63.942727
21
280.342619
0
LINE
8
boundary
62
5
39
2
10
63.942727
20
280.342619
11
63.823980
21
281.524581
0
LINE
8
boundary
62
5
39
2
10
63.823980
20
281.524581
11
63.751738
21
282.270406
0
LINE
8
boundary
62
5
39
2
10
63.751738
20
282.270406
11
63.610021
21
283.460549
0
LINE
8
boundary
62
5
39
2
10
63.610021
20
283.460549
11
63.524328
21
284.202256
0
LINE
8
boundary
62
5
39
2
10
63.524328
20
284.202256
11
63.358856
21
285.400604
0
LINE
8
boundary
62
5
39
2
10
63.358856
20
285.400604
11
63.259678
21
286.137708
0
LINE
8
boundary
62
5
39
2
10
63.259678
20
286.137708
11
63.069800
21
287.344250
0
LINE
8
boundary
62
5
39
2
10
63.069800
20
287.344250
11
62.957162
21
288.076370
0
LINE
8
boundary
62
5
39
2
10
62.957162
20
288.076370
11
62.742181
21
289.291003
0
LINE
8
boundary
62
5
39
2
10
62.742181
20
289.291003
11
62.616092
21
290.017603
0
LINE
8
boundary
62
5
39
2
10
62.616092
20
290.017603
11
62.375307
21
291.240279
0
LINE
8
boundary
62
5
39
2
10
62.375307
20
291.240279
11
62.235893
21
291.960934
0
LINE
8
boundary
62
5
39
2
10
62.235893
20
291.960934
11
61.968466
21
293.191762
0
LINE
8
boundary
62
5
39
2
10
61.968466
20
293.191762
11
61.815706
21
293.906078
0
LINE
8
boundary
62
5
39
2
10
61.815706
20
293.906078
11
61.521025
21
295.144779
0
LINE
8
boundary
62
5
39
2
10
61.521025
20
295.144779
11
61.355123
21
295.852323
0
LINE
8
boundary
62
5
39
2
10
61.355123
20
295.852323
11
61.032384
21
297.099110
0
LINE
8
boundary
62
5
39
2
10
61.032384
20
297.099110
11
60.853470
21
297.799443
0
LINE
8
boundary
62
5
39
2
10
60.853470
20
297.799443
11
60.501941
21
299.053976
0
LINE
8
boundary
62
5
39
2
10
60.501941
20
299.053976
11
60.310175
21
299.746699
0
LINE
8
boundary
62
5
39
2
10
60.310175
20
299.746699
11
59.929059
21
301.009084
0
LINE
8
boundary
62
5
39
2
10
59.929059
20
301.009084
11
59.724640
21
301.693760
0
LINE
8
boundary
62
5
39
2
10
59.724640
20
301.693760
11
59.313099
21
302.963964
0
LINE
8
boundary
62
5
39
2
10
59.313099
20
302.963964
11
59.096261
21
303.640267
0
LINE
8
boundary
62
5
39
2
10
59.096261
20
303.640267
11
58.879288
21
304.276993
0
LINE
8
boundary
62
5
39
2
10
58.879288
20
304.276993
11
58.541048
21
305.251684
0
LINE
8
boundary
62
5
39
2
10
58.541048
20
305.251684
11
58.191812
21
306.225963
0
LINE
8
boundary
62
5
39
2
10
58.191812
20
306.225963
11
57.831493
21
307.199857
0
LINE
8
boundary
62
5
39
2
10
57.831493
20
307.199857
11
57.460053
21
308.173312
0
LINE
8
boundary
62
5
39
2
10
57.460053
20
308.173312
11
57.077437
21
309.146155
0
LINE
8
boundary
62
5
39
2
10
57.077437
20
309.146155
11
56.683559
21
310.118473
0
LINE
8
boundary
62
5
39
2
10
56.683559
20
310.118473
11
56.278332
21
311.090057
0
LINE
8
boundary
62
5
39
2
10
56.278332
20
311.090057
11
55.861685
21
312.061133
0
LINE
8
boundary
62
5
39
2
10
55.861685
20
312.061133
11
55.433594
21
313.031255
0
LINE
8
boundary
62
5
39
2
10
55.433594
20
313.031255
11
54.994062
21
314.000582
0
LINE
8
boundary
62
5
39
2
10
54.994062
20
314.000582
11
54.542944
21
314.968918
0
LINE
8
boundary
62
5
39
2
10
54.542944
20
314.968918
11
54.080184
21
315.936457
0
LINE
8
boundary
62
5
39
2
10
54.080184
20
315.936457
11
53.605719
21
316.902937
0
LINE
8
boundary
62
5
39
2
10
53.605719
20
316.902937
11
53.119515
21
317.868383
0
LINE
8
boundary
62
5
39
2
10
53.119515
20
317.868383
11
52.621514
21
318.832635
0
LINE
8
boundary
62
5
39
2
10
52.621514
20
318.832635
11
52.111643
21
319.795721
0
LINE
8
boundary
62
5
39
2
10
52.111643
20
319.795721
11
51.589902
21
320.757573
0
LINE
8
boundary
62
5
39
2
10
51.589902
20
320.757573
11
51.056117
21
321.718170
0
LINE
8
boundary
62
5
39
2
10
51.056117
20
321.718170
11
50.510354
21
322.677267
0
LINE
8
boundary
62
5
39
2
10
50.510354
20
322.677267
11
49.952482
21
323.635034
0
LINE
8
boundary
62
5
39
2
10
49.952482
20
323.635034
11
49.382397
21
324.591393
0
LINE
8
boundary
62
5
39
2
10
49.382397
20
324.591393
11
48.800192
21
325.546033
0
LINE
8
boundary
62
5
39
2
10
48.800192
20
325.546033
11
48.205702
21
326.499133
0
LINE
8
boundary
62
5
39
2
10
48.205702
20
326.499133
11
47.598894
21
327.450617
0
LINE
8
boundary
62
5
39
2
10
47.598894
20
327.450617
11
46.979755
21
328.400338
0
LINE
8
boundary
62
5
39
2
10
46.979755
20
328.400338
11
46.348097
21
329.348218
0
LINE
8
boundary
62
5
39
2
10
46.348097
20
329.348218
11
45.704017
21
330.294300
0
LINE
8
boundary
62
5
39
2
10
45.704017
20
330.294300
11
45.047452
21
331.238465
0
LINE
8
boundary
62
5
39
2
10
45.047452
20
331.238465
11
44.378269
21
332.180658
0
LINE
8
boundary
62
5
39
2
10
44.378269
20
332.180658
11
43.696456
21
333.120823
0
LINE
8
boundary
62
5
39
2
10
43.696456
20
333.120823
11
43.001885
21
334.058924
0
LINE
8
boundary
62
5
39
2
10
43.001885
20
334.058924
11
42.294627
21
334.994923
0
LINE
8
boundary
62
5
39
2
10
42.294627
20
334.994923
11
41.574456
21
335.928656
0
LINE
8
boundary
62
5
39
2
10
41.574456
20
335.928656
11
40.841506
21
336.860092
0
LINE
8
boundary
62
5
39
2
10
40.841506
20
336.860092
11
40.095658
21
337.789237
0
LINE
8
boundary
62
5
39
2
10
40.095658
20
337.789237
11
39.336771
21
338.715961
0
LINE
8
boundary
62
5
39
2
10
39.336771
20
338.715961
11
38.564794
21
339.640142
0
LINE
8
boundary
62
5
39
2
10
38.564794
20
339.640142
11
37.779786
21
340.561918
0
LINE
8
boundary
62
5
39
2
10
37.779786
20
340.561918
11
36.981625
21
341.481096
0
LINE
8
boundary
62
5
39
2
10
36.981625
20
341.481096
11
36.632641
21
342.103385
0
LINE
8
boundary
62
5
39
2
10
36.632641
20
342.103385
11
36.433694
21
342.622136
0
LINE
8
boundary
62
5
39
2
10
36.433694
20
342.622136
11
36.260654
21
343.116738
0
LINE
8
boundary
62
5
39
2
10
36.260654
20
343.116738
11
36.081202
21
343.691573
0
LINE
8
boundary
62
5
39
2
10
36.081202
20
343.691573
11
35.890270
21
344.459846
0
LINE
8
boundary
62
5
39
2
10
35.890270
20
344.459846
11
35.760884
21
345.242488
0
LINE
8
boundary
62
5
39
2
10
35.760884
20
345.242488
11
35.719531
21
345.939405
0
LINE
8
boundary
62
5
39
2
10
35.719531
20
345.939405
11
35.761240
21
346.554163
0
LINE
8
boundary
62
5
39
2
10
35.761240
20
346.554163
11
35.881428
21
347.090254
0
LINE
8
boundary
62
5
39
2
10
35.881428
20
347.090254
11
36.100667
21
347.601703
0
LINE
8
boundary
62
5
39
2
10
36.100667
20
347.601703
11
36.494283
21
348.110726
0
LINE
8
boundary
62
5
39
2
10
36.494283
20
348.110726
11
36.898039
21
348.432149
0
LINE
8
boundary
62
5
39
2
10
36.898039
20
348.432149
11
37.497563
21
348.719302
0
LINE
8
boundary
62
5
39
2
10
37.497563
20
348.719302
11
37.992911
21
348.859882
0
LINE
8
boundary
62
5
39
2
10
37.992911
20
348.859882
11
38.535624
21
348.947128
0
LINE
8
boundary
62
5
39
2
10
38.535624
20
348.947128
11
39.121332
21
348.984602
0
LINE
8
boundary
62
5
39
2
10
39.121332
20
348.984602
11
39.745938
21
348.975925
0
LINE
8
boundary
62
5
39
2
10
39.745938
20
348.975925
11
40.405143
21
348.924547
0
LINE
8
boundary
62
5
39
2
10
40.405143
20
348.924547
11
41.002136
21
348.845904
0
LINE
8
boundary
62
5
39
2
10
41.002136
20
348.845904
11
41.712878
21
348.725001
0
LINE
8
boundary
62
5
39
2
10
41.712878
20
348.725001
11
42.446025
21
348.571933
0
LINE
8
boundary
62
5
39
2
10
42.446025
20
348.571933
11
43.197381
21
348.390011
0
LINE
8
boundary
62
5
39
2
10
43.197381
20
348.390011
11
43.962825
21
348.182925
0
LINE
8
boundary
62
5
39
2
10
43.962825
20
348.182925
11
44.738034
21
347.954028
0
LINE
8
boundary
62
5
39
2
10
44.738034
20
347.954028
11
45.518664
21
347.707061
0
LINE
8
boundary
62
5
39
2
10
45.518664
20
347.707061
11
46.300456
21
347.445419
0
LINE
8
boundary
62
5
39
2
10
46.300456
20
347.445419
11
47.079010
21
347.172745
0
LINE
8
boundary
62
5
39
2
10
47.079010
20
347.172745
11
48.369340
21
346.696255
0
LINE
8
boundary
62
5
39
2
10
48.369340
20
346.696255
11
49.838456
21
346.131832
0
LINE
8
boundary
62
5
39
2
10
49.838456
20
346.131832
11
51.212150
21
345.588890
0
LINE
8
boundary
62
5
39
2
10
51.212150
20
345.588890
11
52.222759
21
345.011564
0
LINE
8
boundary
62
5
39
2
10
52.222759
20
345.011564
11
53.084285
21
344.427737
0
LINE
8
boundary
62
5
39
2
10
53.084285
20
344.427737
11
53.959660
21
343.863096
0
LINE
8
boundary
62
5
39
2
10
53.959660
20
343.863096
11
54.848408
21
343.318036
0
LINE
8
boundary
62
5
39
2
10
54.848408
20
343.318036
11
55.749943
21
342.792347
0
LINE
8
boundary
62
5
39
2
10
55.749943
20
342.792347
11
56.663827
21
342.285894
0
LINE
8
boundary
62
5
39
2
10
56.663827
20
342.285894
11
57.589427
21
341.799063
0
LINE
8
boundary
62
5
39
2
10
57.589427
20
341.799063
11
58.526154
21
341.331481
0
LINE
8
boundary
62
5
39
2
10
58.526154
20
341.331481
11
59.473484
21
340.883309
0
LINE
8
boundary
62
5
39
2
10
59.473484
20
340.883309
11
60.430918
21
340.454385
0
LINE
8
boundary
62
5
39
2
10
60.430918
20
340.454385
11
61.397897
21
340.044860
0
LINE
8
boundary
62
5
39
2
10
61.397897
20
340.044860
11
62.373693
21
339.654860
0
LINE
8
boundary
62
5
39
2
10
62.373693
20
339.654860
11
63.357872
21
339.284026
0
LINE
8
boundary
62
5
39
2
10
63.357872
20
339.284026
11
64.349852
21
338.932666
0
LINE
8
boundary
62
5
39
2
10
64.349852
20
338.932666
11
65.348993
21
338.600555
0
LINE
8
boundary
62
5
39
2
10
65.348993
20
338.600555
11
66.354810
21
338.287887
0
LINE
8
boundary
62
5
39
2
10
66.354810
20
338.287887
11
67.366628
21
337.994649
0
LINE
8
boundary
62
5
39
2
10
67.366628
20
337.994649
11
68.383922
21
337.720588
0
LINE
8
boundary
62
5
39
2
10
68.383922
20
337.720588
11
69.406097
21
337.465899
0
LINE
8
boundary
62
5
39
2
10
69.406097
20
337.465899
11
70.432502
21
337.230635
0
LINE
8
boundary
62
5
39
2
10
70.432502
20
337.230635
11
71.462644
21
337.014653
0
LINE
8
boundary
62
5
39
2
10
71.462644
20
337.014653
11
72.495917
21
336.817952
0
LINE
8
boundary
62
5
39
2
10
72.495917
20
336.817952
11
73.531681
21
336.640654
0
LINE
8
boundary
62
5
39
2
10
73.531681
20
336.640654
11
74.569337
21
336.482660
0
LINE
8
boundary
62
5
39
2
10
74.569337
20
336.482660
11
75.608376
21
336.343991
0
LINE
8
boundary
62
5
39
2
10
75.608376
20
336.343991
11
76.648117
21
336.224688
0
LINE
8
boundary
62
5
39
2
10
76.648117
20
336.224688
11
77.687949
21
336.124711
0
LINE
8
boundary
62
5
39
2
10
77.687949
20
336.124711
11
78.727393
21
336.043986
0
LINE
8
boundary
62
5
39
2
10
78.727393
20
336.043986
11
79.765738
21
335.982691
0
LINE
8
boundary
62
5
39
2
10
79.765738
20
335.982691
11
80.802423
21
335.940608
0
LINE
8
boundary
62
5
39
2
10
80.802423
20
335.940608
11
81.836891
21
335.917767
0
LINE
8
boundary
62
5
39
2
10
81.836891
20
335.917767
11
82.868467
21
335.914346
0
LINE
8
boundary
62
5
39
2
10
82.868467
20
335.914346
11
83.896566
21
335.930085
0
LINE
8
boundary
62
5
39
2
10
83.896566
20
335.930085
11
84.920649
21
335.965134
0
LINE
8
boundary
62
5
39
2
10
84.920649
20
335.965134
11
85.940092
21
336.019520
0
LINE
8
boundary
62
5
39
2
10
85.940092
20
336.019520
11
86.954290
21
336.093164
0
LINE
8
boundary
62
5
39
2
10
86.954290
20
336.093164
11
87.962661
21
336.185943
0
LINE
8
boundary
62
5
39
2
10
87.962661
20
336.185943
11
88.964580
21
336.298223
0
LINE
8
boundary
62
5
39
2
10
88.964580
20
336.298223
11
89.959484
21
336.429629
0
LINE
8
boundary
62
5
39
2
10
89.959484
20
336.429629
11
90.946840
21
336.580153
0
LINE
8
boundary
62
5
39
2
10
90.946840
20
336.580153
11
91.925973
21
336.750061
0
LINE
8
boundary
62
5
39
2
10
91.925973
20
336.750061
11
92.896320
21
336.939109
0
LINE
8
boundary
62
5
39
2
10
92.896320
20
336.939109
11
93.857327
21
337.147399
0
LINE
8
boundary
62
5
39
2
10
93.857327
20
337.147399
11
94.808383
21
337.374906
0
LINE
8
boundary
62
5
39
2
10
94.808383
20
337.374906
11
95.748922
21
337.621562
0
LINE
8
boundary
62
5
39
2
10
95.748922
20
337.621562
11
96.678313
21
337.887380
0
LINE
8
boundary
62
5
39
2
10
96.678313
20
337.887380
11
97.596064
21
338.172549
0
LINE
8
boundary
62
5
39
2
10
97.596064
20
338.172549
11
98.501573
21
338.476687
0
LINE
8
boundary
62
5
39
2
10
98.501573
20
338.476687
11
99.394252
21
338.800122
0
LINE
8
boundary
62
5
39
2
10
99.394252
20
338.800122
11
100.273557
21
339.142705
0
LINE
8
boundary
62
5
39
2
10
100.273557
20
339.142705
11
101.138913
21
339.504400
0
LINE
8
boundary
62
5
39
2
10
101.138913
20
339.504400
11
101.989801
21
339.885236
0
LINE
8
boundary
62
5
39
2
10
101.989801
20
339.885236
11
102.825618
21
340.285203
0
LINE
8
boundary
62
5
39
2
10
102.825618
20
340.285203
11
103.645798
21
340.704375
0
LINE
8
boundary
62
5
39
2
10
103.645798
20
340.704375
11
104.449886
21
341.142604
0
LINE
8
boundary
62
5
39
2
10
104.449886
20
341.142604
11
105.237293
21
341.599968
0
LINE
8
boundary
62
5
39
2
10
105.237293
20
341.599968
11
106.007399
21
342.076515
0
LINE
8
boundary
62
5
39
2
10
106.007399
20
342.076515
11
106.759784
21
342.572080
0
LINE
8
boundary
62
5
39
2
10
106.759784
20
342.572080
11
107.493884
21
343.086792
0
LINE
8
boundary
62
5
39
2
10
107.493884
20
343.086792
11
108.209133
21
343.620598
0
LINE
8
boundary
62
5
39
2
10
108.209133
20
343.620598
11
108.905049
21
344.173544
0
LINE
8
boundary
62
5
39
2
10
108.905049
20
344.173544
11
109.581092
21
344.745522
0
LINE
8
boundary
62
5
39
2
10
109.581092
20
344.745522
11
110.236773
21
345.336745
0
LINE
8
boundary
62
5
39
2
10
110.236773
20
345.336745
11
110.871625
21
345.946912
0
LINE
8
boundary
62
5
39
2
10
110.871625
20
345.946912
11
111.365252
21
346.378465
0
LINE
8
boundary
62
5
39
2
10
111.365252
20
346.378465
11
111.904743
21
346.784575
0
LINE
8
boundary
62
5
39
2
10
111.904743
20
346.784575
11
112.428445
21
347.228370
0
LINE
8
boundary
62
5
39
2
10
112.428445
20
347.228370
11
112.882227
21
347.653566
0
LINE
8
boundary
62
5
39
2
10
112.882227
20
347.653566
11
113.316268
21
348.116776
0
LINE
8
boundary
62
5
39
2
10
113.316268
20
348.116776
11
113.687233
21
348.560073
0
LINE
8
boundary
62
5
39
2
10
113.687233
20
348.560073
11
114.034727
21
349.041775
0
LINE
8
boundary
62
5
39
2
10
114.034727
20
349.041775
11
114.325582
21
349.502652
0
LINE
8
boundary
62
5
39
2
10
114.325582
20
349.502652
11
114.589860
21
350.002157
0
LINE
8
boundary
62
5
39
2
10
114.589860
20
350.002157
11
114.803539
21
350.479771
0
LINE
8
boundary
62
5
39
2
10
114.803539
20
350.479771
11
114.987731
21
350.996311
0
LINE
8
boundary
62
5
39
2
10
114.987731
20
350.996311
11
115.127142
21
351.489860
0
LINE
8
boundary
62
5
39
2
10
115.127142
20
351.489860
11
115.234385
21
352.022660
0
LINE
8
boundary
62
5
39
2
10
115.234385
20
352.022660
11
115.302528
21
352.531444
0
LINE
8
boundary
62
5
39
2
10
115.302528
20
352.531444
11
115.336026
21
353.079773
0
LINE
8
boundary
62
5
39
2
10
115.336026
20
353.079773
11
115.335788
21
353.603196
0
LINE
8
boundary
62
5
39
2
10
115.335788
20
353.603196
11
115.298864
21
354.166156
0
LINE
8
boundary
62
5
39
2
10
115.298864
20
354.166156
11
115.233194
21
354.703394
0
LINE
8
boundary
62
5
39
2
10
115.233194
20
354.703394
11
115.128921
21
355.280283
0
LINE
8
boundary
62
5
39
2
10
115.128921
20
355.280283
11
115.000935
21
355.830656
0
LINE
8
boundary
62
5
39
2
10
115.000935
20
355.830656
11
114.832584
21
356.420650
0
LINE
8
boundary
62
5
39
2
10
114.832584
20
356.420650
11
114.645048
21
356.983523
0
LINE
8
boundary
62
5
39
2
10
114.645048
20
356.983523
11
114.415872
21
357.585893
0
LINE
8
boundary
62
5
39
2
10
114.415872
20
357.585893
11
114.171876
21
358.160380
0
LINE
8
boundary
62
5
39
2
10
114.171876
20
358.160380
11
113.885051
21
358.774344
0
LINE
8
boundary
62
5
39
2
10
113.885051
20
358.774344
11
113.587598
21
359.359773
0
LINE
8
boundary
62
5
39
2
10
113.587598
20
359.359773
11
113.139416
21
360.171176
0
LINE
8
boundary
62
5
39
2
10
113.139416
20
360.171176
11
112.875462
21
360.615378
0
LINE
8
boundary
62
5
39
2
10
112.875462
20
360.615378
11
112.359354
21
361.440018
0
LINE
8
boundary
62
5
39
2
10
112.359354
20
361.440018
11
111.801293
21
362.272870
0
LINE
8
boundary
62
5
39
2
10
111.801293
20
362.272870
11
111.203037
21
363.113622
0
LINE
8
boundary
62
5
39
2
10
111.203037
20
363.113622
11
110.566386
21
363.961480
0
LINE
8
boundary
62
5
39
2
10
110.566386
20
363.961480
11
109.893209
21
364.816237
0
LINE
8
boundary
62
5
39
2
10
109.893209
20
364.816237
11
109.572413
21
365.211315
0
LINE
8
boundary
62
5
39
2
10
109.572413
20
365.211315
11
109.185257
21
365.677510
0
LINE
8
boundary
62
5
39
2
10
109.185257
20
365.677510
11
108.848467
21
366.075842
0
LINE
8
boundary
62
5
39
2
10
108.848467
20
366.075842
11
108.444309
21
366.544668
0
LINE
8
boundary
62
5
39
2
10
108.444309
20
366.544668
11
108.092352
21
366.945996
0
LINE
8
boundary
62
5
39
2
10
108.092352
20
366.945996
11
107.672157
21
367.417379
0
LINE
8
boundary
62
5
39
2
10
107.672157
20
367.417379
11
107.305812
21
367.821567
0
LINE
8
boundary
62
5
39
2
10
107.305812
20
367.821567
11
106.870557
21
368.295105
0
LINE
8
boundary
62
5
39
2
10
106.870557
20
368.295105
11
106.490576
21
368.701953
0
LINE
8
boundary
62
5
39
2
10
106.490576
20
368.701953
11
106.041248
21
369.177414
0
LINE
8
boundary
62
5
39
2
10
106.041248
20
369.177414
11
105.648388
21
369.586767
0
LINE
8
boundary
62
5
39
2
10
105.648388
20
369.586767
11
105.186022
21
370.063815
0
LINE
8
boundary
62
5
39
2
10
105.186022
20
370.063815
11
104.781134
21
370.475458
0
LINE
8
boundary
62
5
39
2
10
104.781134
20
370.475458
11
104.306630
21
370.954025
0
LINE
8
boundary
62
5
39
2
10
104.306630
20
370.954025
11
103.890356
21
371.367775
0
LINE
8
boundary
62
5
39
2
10
103.890356
20
371.367775
11
103.404731
21
371.847296
0
LINE
8
boundary
62
5
39
2
10
103.404731
20
371.847296
11
102.977900
21
372.262977
0
LINE
8
boundary
62
5
39
2
10
102.977900
20
372.262977
11
102.482052
21
372.743356
0
LINE
8
boundary
62
5
39
2
10
102.482052
20
372.743356
11
102.045341
21
373.160745
0
LINE
8
boundary
62
5
39
2
10
102.045341
20
373.160745
11
101.540281
21
373.641648
0
LINE
8
boundary
62
5
39
2
10
101.540281
20
373.641648
11
101.094511
21
374.060632
0
LINE
8
boundary
62
5
39
2
10
101.094511
20
374.060632
11
100.581187
21
374.541883
0
LINE
8
boundary
62
5
39
2
10
100.581187
20
374.541883
11
100.127059
21
374.962204
0
LINE
8
boundary
62
5
39
2
10
100.127059
20
374.962204
11
99.606362
21
375.443353
0
LINE
8
boundary
62
5
39
2
10
99.606362
20
375.443353
11
99.144582
21
375.864789
0
LINE
8
boundary
62
5
39
2
10
99.144582
20
375.864789
11
98.617442
21
376.345552
0
LINE
8
boundary
62
5
39
2
10
98.617442
20
376.345552
11
98.148768
21
376.767943
0
LINE
8
boundary
62
5
39
2
10
98.148768
20
376.767943
11
97.616093
21
377.248314
0
LINE
8
boundary
62
5
39
2
10
97.616093
20
377.248314
11
97.141160
21
377.671556
0
LINE
8
boundary
62
5
39
2
10
97.141160
20
377.671556
11
96.603921
21
378.150949
0
LINE
8
boundary
62
5
39
2
10
96.603921
20
378.150949
11
96.123552
21
378.574728
0
LINE
8
boundary
62
5
39
2
10
96.123552
20
378.574728
11
95.582592
21
379.053055
0
LINE
8
boundary
62
5
39
2
10
95.582592
20
379.053055
11
95.097426
21
379.477290
0
LINE
8
boundary
62
5
39
2
10
95.097426
20
379.477290
11
94.003511
21
380.433116
0
LINE
8
boundary
62
5
39
2
10
94.003511
20
380.433116
11
93.025997
21
381.277986
0
LINE
8
boundary
62
5
39
2
10
93.025997
20
381.277986
11
91.927573
21
382.226081
0
LINE
8
boundary
62
5
39
2
10
91.927573
20
382.226081
11
90.939377
21
383.070127
0
LINE
8
boundary
62
5
39
2
10
90.939377
20
383.070127
11
89.843321
21
384.007827
0
LINE
8
boundary
62
5
39
2
10
89.843321
20
384.007827
11
88.849823
21
384.849309
0
LINE
8
boundary
62
5
39
2
10
88.849823
20
384.849309
11
87.762752
21
385.774675
0
LINE
8
boundary
62
5
39
2
10
87.762752
20
385.774675
11
86.769230
21
386.612158
0
LINE
8
boundary
62
5
39
2
10
86.769230
20
386.612158
11
85.697561
21
387.522824
0
LINE
8
boundary
62
5
39
2
10
85.697561
20
387.522824
11
84.709245
21
388.354722
0
LINE
8
boundary
62
5
39
2
10
84.709245
20
388.354722
11
82.618079
21
390.138552
0
LINE
8
boundary
62
5
39
2
10
82.618079
20
390.138552
11
80.696601
21
391.762497
0
LINE
8
boundary
62
5
39
2
10
80.696601
20
391.762497
11
78.740110
21
393.459817
0
LINE
8
boundary
62
5
39
2
10
78.740110
20
393.459817
11
76.900241
21
395.041365
0
LINE
8
boundary
62
5
39
2
10
76.900241
20
395.041365
11
75.994498
21
395.844783
0
LINE
8
boundary
62
5
39
2
10
75.994498
20
395.844783
11
75.109562
21
396.622519
0
LINE
8
boundary
62
5
39
2
10
75.109562
20
396.622519
11
74.253121
21
397.398084
0
LINE
8
boundary
62
5
39
2
10
74.253121
20
397.398084
11
73.404451
21
398.159534
0
LINE
8
boundary
62
5
39
2
10
73.404451
20
398.159534
11
72.893908
21
398.622909
0
LINE
8
boundary
62
5
39
2
10
72.893908
20
398.622909
11
72.378641
21
399.086327
0
LINE
8
boundary
62
5
39
2
10
72.378641
20
399.086327
11
71.874225
21
399.535324
0
LINE
8
boundary
62
5
39
2
10
71.874225
20
399.535324
11
71.360803
21
399.988099
0
LINE
8
boundary
62
5
39
2
10
71.360803
20
399.988099
11
70.862324
21
400.422848
0
LINE
8
boundary
62
5
39
2
10
70.862324
20
400.422848
11
70.350643
21
400.865257
0
LINE
8
boundary
62
5
39
2
10
70.350643
20
400.865257
11
69.857914
21
401.286086
0
LINE
8
boundary
62
5
39
2
10
69.857914
20
401.286086
11
69.347897
21
401.717949
0
LINE
8
boundary
62
5
39
2
10
69.347897
20
401.717949
11
68.860777
21
402.125292
0
LINE
8
boundary
62
5
39
2
10
68.860777
20
402.125292
11
68.352383
21
402.546900
0
LINE
8
boundary
62
5
39
2
10
68.352383
20
402.546900
11
67.870700
21
402.940893
0
LINE
8
boundary
62
5
39
2
10
67.870700
20
402.940893
11
67.363838
21
403.352122
0
LINE
8
boundary
62
5
39
2
10
67.363838
20
403.352122
11
66.887513
21
403.733054
0
LINE
8
boundary
62
5
39
2
10
66.887513
20
403.733054
11
66.382199
21
404.134038
0
LINE
8
boundary
62
5
39
2
10
66.382199
20
404.134038
11
65.911035
21
404.502221
0
LINE
8
boundary
62
5
39
2
10
65.911035
20
404.502221
11
65.407207
21
404.892972
0
LINE
8
boundary
62
5
39
2
10
65.407207
20
404.892972
11
64.941032
21
405.248788
0
LINE
8
boundary
62
5
39
2
10
64.941032
20
405.248788
11
64.438615
21
405.629432
0
LINE
8
boundary
62
5
39
2
10
64.438615
20
405.629432
11
63.977242
21
405.973176
0
LINE
8
boundary
62
5
39
2
10
63.977242
20
405.973176
11
63.476186
21
406.343805
0
LINE
8
boundary
62
5
39
2
10
63.476186
20
406.343805
11
63.019547
21
406.675698
0
LINE
8
boundary
62
5
39
2
10
63.019547
20
406.675698
11
62.519885
21
407.036282
0
LINE
8
boundary
62
5
39
2
10
62.519885
20
407.036282
11
62.067775
21
407.356614
0
LINE
8
boundary
62
5
39
2
10
62.067775
20
407.356614
11
61.569428
21
407.707364
0
LINE
8
boundary
62
5
39
2
10
61.569428
20
407.707364
11
61.121724
21
408.016446
0
LINE
8
boundary
62
5
39
2
10
61.121724
20
408.016446
11
60.624665
21
408.357451
0
LINE
8
boundary
62
5
39
2
10
60.624665
20
408.357451
11
60.181205
21
408.655578
0
LINE
8
boundary
62
5
39
2
10
60.181205
20
408.655578
11
59.685466
21
408.986686
0
LINE
8
boundary
62
5
39
2
10
59.685466
20
408.986686
11
59.246114
21
409.274126
0
LINE
8
boundary
62
5
39
2
10
59.246114
20
409.274126
11
58.751602
21
409.595650
0
LINE
8
boundary
62
5
39
2
10
58.751602
20
409.595650
11
58.316200
21
409.872702
0
LINE
8
boundary
62
5
39
2
10
58.316200
20
409.872702
11
57.822941
21
410.184768
0
LINE
8
boundary
62
5
39
2
10
57.822941
20
410.184768
11
56.899294
21
410.754187
0
LINE
8
boundary
62
5
39
2
10
56.899294
20
410.754187
11
55.980555
21
411.304333
0
LINE
8
boundary
62
5
39
2
10
55.980555
20
411.304333
11
55.066503
21
411.835858
0
LINE
8
boundary
62
5
39
2
10
55.066503
20
411.835858
11
54.157161
21
412.348804
0
LINE
8
boundary
62
5
39
2
10
54.157161
20
412.348804
11
53.252227
21
412.843675
0
LINE
8
boundary
62
5
39
2
10
53.252227
20
412.843675
11
52.351571
21
413.320876
0
LINE
8
boundary
62
5
39
2
10
52.351571
20
413.320876
11
51.455121
21
413.780850
0
LINE
8
boundary
62
5
39
2
10
51.455121
20
413.780850
11
50.562767
21
414.223826
0
LINE
8
boundary
62
5
39
2
10
50.562767
20
414.223826
11
49.674404
21
414.650179
0
LINE
8
boundary
62
5
39
2
10
49.674404
20
414.650179
11
48.789781
21
415.060568
0
LINE
8
boundary
62
5
39
2
10
48.789781
20
415.060568
11
47.908996
21
415.455001
0
LINE
8
boundary
62
5
39
2
10
47.908996
20
415.455001
11
47.031780
21
415.834137
0
LINE
8
boundary
62
5
39
2
10
47.031780
20
415.834137
11
46.158116
21
416.198084
0
LINE
8
boundary
62
5
39
2
10
46.158116
20
416.198084
11
45.287805
21
416.547638
0
LINE
8
boundary
62
5
39
2
10
45.287805
20
416.547638
11
44.420907
21
416.882884
0
LINE
8
boundary
62
5
39
2
10
44.420907
20
416.882884
11
43.557259
21
417.204294
0
LINE
8
boundary
62
5
39
2
10
43.557259
20
417.204294
11
42.696715
21
417.512264
0
LINE
8
boundary
62
5
39
2
10
42.696715
20
417.512264
11
41.839259
21
417.807175
0
LINE
8
boundary
62
5
39
2
10
41.839259
20
417.807175
11
40.984775
21
418.089403
0
LINE
8
boundary
62
5
39
2
10
40.984775
20
418.089403
11
40.133272
21
418.359347
0
LINE
8
boundary
62
5
39
2
10
40.133272
20
418.359347
11
39.284581
21
418.617468
0
LINE
8
boundary
62
5
39
2
10
39.284581
20
418.617468
11
38.438716
21
418.864026
0
LINE
8
boundary
62
5
39
2
10
38.438716
20
418.864026
11
37.595564
21
419.099486
0
LINE
8
boundary
62
5
39
2
10
37.595564
20
419.099486
11
36.755142
21
419.324226
0
LINE
8
boundary
62
5
39
2
10
36.755142
20
419.324226
11
35.917262
21
419.538821
0
LINE
8
boundary
62
5
39
2
10
35.917262
20
419.538821
11
35.082000
21
419.743308
0
LINE
8
boundary
62
5
39
2
10
35.082000
20
419.743308
11
34.322006
21
419.917563
0
LINE
8
boundary
62
5
39
2
10
34.322006
20
419.917563
11
33.418994
21
420.124218
0
LINE
8
boundary
62
5
39
2
10
33.418994
20
420.124218
11
32.660971
21
420.282991
0
LINE
8
boundary
62
5
39
2
10
32.660971
20
420.282991
11
31.765788
21
420.470226
0
LINE
8
boundary
62
5
39
2
10
31.765788
20
420.470226
11
31.008959
21
420.615025
0
LINE
8
boundary
62
5
39
2
10
31.008959
20
420.615025
11
30.122063
21
420.784502
0
LINE
8
boundary
62
5
39
2
10
30.122063
20
420.784502
11
29.365754
21
420.916815
0
LINE
8
boundary
62
5
39
2
10
29.365754
20
420.916815
11
28.487694
21
421.070267
0
LINE
8
boundary
62
5
39
2
10
28.487694
20
421.070267
11
27.731141
21
421.191503
0
LINE
8
boundary
62
5
39
2
10
27.731141
20
421.191503
11
26.862379
21
421.330583
0
LINE
8
boundary
62
5
39
2
10
26.862379
20
421.330583
11
26.104907
21
421.442243
0
LINE
8
boundary
62
5
39
2
10
26.104907
20
421.442243
11
25.246042
21
421.568684
0
LINE
8
boundary
62
5
39
2
10
25.246042
20
421.568684
11
24.486996
21
421.672242
0
LINE
8
boundary
62
5
39
2
10
24.486996
20
421.672242
11
23.638697
21
421.787933
0
LINE
8
boundary
62
5
39
2
10
23.638697
20
421.787933
11
22.877444
21
421.884776
0
LINE
8
boundary
62
5
39
2
10
22.877444
20
421.884776
11
22.040317
21
421.991191
0
LINE
8
boundary
62
5
39
2
10
22.040317
20
421.991191
11
21.276117
21
422.082900
0
LINE
8
boundary
62
5
39
2
10
21.276117
20
422.082900
11
20.450786
21
422.181839
0
LINE
8
boundary
62
5
39
2
10
20.450786
20
422.181839
11
18.878510
21
422.359736
0
LINE
8
boundary
62
5
39
2
10
18.878510
20
422.359736
11
17.299053
21
422.538371
0
LINE
8
boundary
62
5
39
2
10
17.299053
20
422.538371
11
16.797553
21
418.572219
0
LINE
8
boundary
62
5
39
2
10
16.797553
20
418.572219
11
16.366465
21
415.040113
0
LINE
8
boundary
62
5
39
2
10
16.366465
20
415.040113
11
18.647095
21
414.793569
0
LINE
8
boundary
62
5
39
2
10
18.647095
20
414.793569
11
20.717871
21
414.569879
0
LINE
8
boundary
62
5
39
2
10
20.717871
20
414.569879
11
21.373941
21
414.375514
0
LINE
8
boundary
62
5
39
2
10
21.373941
20
414.375514
11
21.947474
21
414.205760
0
LINE
8
boundary
62
5
39
2
10
21.947474
20
414.205760
11
22.591540
21
414.007578
0
LINE
8
boundary
62
5
39
2
10
22.591540
20
414.007578
11
23.160464
21
413.832713
0
LINE
8
boundary
62
5
39
2
10
23.160464
20
413.832713
11
23.730903
21
413.650688
0
LINE
8
boundary
62
5
39
2
10
23.730903
20
413.650688
11
40.907583
21
413.650688
0
LINE
8
boundary
62
5
39
2
10
40.907583
20
413.650688
11
40.907582
21
410.904688
0
LINE
8
boundary
62
5
39
2
10
40.907582
20
410.904688
11
31.775055
21
410.904688
0
LINE
8
boundary
62
5
39
2
10
31.775055
20
410.904688
11
32.274550
21
410.548499
0
LINE
8
boundary
62
5
39
2
10
32.274550
20
410.548499
11
32.828329
21
410.316786
0
LINE
8
boundary
62
5
39
2
10
32.828329
20
410.316786
11
33.341323
21
410.102521
0
LINE
8
boundary
62
5
39
2
10
33.341323
20
410.102521
11
33.886418
21
409.867209
0
LINE
8
boundary
62
5
39
2
10
33.886418
20
409.867209
11
34.392205
21
409.649323
0
LINE
8
boundary
62
5
39
2
10
34.392205
20
409.649323
11
34.928803
21
409.410349
0
LINE
8
boundary
62
5
39
2
10
34.928803
20
409.410349
11
35.427247
21
409.188848
0
LINE
8
boundary
62
5
39
2
10
35.427247
20
409.188848
11
35.955521
21
408.946195
0
LINE
8
boundary
62
5
39
2
10
35.955521
20
408.946195
11
36.446538
21
408.721143
0
LINE
8
boundary
62
5
39
2
10
36.446538
20
408.721143
11
36.966618
21
408.475100
0
LINE
8
boundary
62
5
39
2
10
36.966618
20
408.475100
11
37.450150
21
408.246760
0
LINE
8
boundary
62
5
39
2
10
37.450150
20
408.246760
11
37.962188
21
407.997036
0
LINE
8
boundary
62
5
39
2
10
37.962188
20
407.997036
11
38.438129
21
407.765424
0
LINE
8
boundary
62
5
39
2
10
38.438129
20
407.765424
11
38.942236
21
407.512188
0
LINE
8
boundary
62
5
39
2
10
38.942236
20
407.512188
11
39.410524
21
407.277592
0
LINE
8
boundary
62
5
39
2
10
39.410524
20
407.277592
11
39.906776
21
407.020710
0
LINE
8
boundary
62
5
39
2
10
39.906776
20
407.020710
11
40.367345
21
406.783015
0
LINE
8
boundary
62
5
39
2
10
40.367345
20
406.783015
11
40.855860
21
406.522833
0
LINE
8
boundary
62
5
39
2
10
40.855860
20
406.522833
11
41.308709
21
406.282235
0
LINE
8
boundary
62
5
39
2
10
41.308709
20
406.282235
11
41.789592
21
406.018609
0
LINE
8
boundary
62
5
39
2
10
41.789592
20
406.018609
11
42.707921
21
405.508218
0
LINE
8
boundary
62
5
39
2
10
42.707921
20
405.508218
11
43.610820
21
404.991813
0
LINE
8
boundary
62
5
39
2
10
43.610820
20
404.991813
11
44.498462
21
404.469501
0
LINE
8
boundary
62
5
39
2
10
44.498462
20
404.469501
11
45.370811
21
403.941466
0
LINE
8
boundary
62
5
39
2
10
45.370811
20
403.941466
11
46.227847
21
403.407722
0
LINE
8
boundary
62
5
39
2
10
46.227847
20
403.407722
11
47.069695
21
402.868649
0
LINE
8
boundary
62
5
39
2
10
47.069695
20
402.868649
11
47.896254
21
402.324291
0
LINE
8
boundary
62
5
39
2
10
47.896254
20
402.324291
11
48.707679
21
401.774742
0
LINE
8
boundary
62
5
39
2
10
48.707679
20
401.774742
11
49.503952
21
401.220166
0
LINE
8
boundary
62
5
39
2
10
49.503952
20
401.220166
11
50.285012
21
400.660805
0
LINE
8
boundary
62
5
39
2
10
50.285012
20
400.660805
11
51.050884
21
400.096666
0
LINE
8
boundary
62
5
39
2
10
51.050884
20
400.096666
11
51.801603
21
399.527988
0
LINE
8
boundary
62
5
39
2
10
51.801603
20
399.527988
11
52.537221
21
398.954755
0
LINE
8
boundary
62
5
39
2
10
52.537221
20
398.954755
11
53.257730
21
398.377365
0
LINE
8
boundary
62
5
39
2
10
53.257730
20
398.377365
11
53.963150
21
397.795839
0
LINE
8
boundary
62
5
39
2
10
53.963150
20
397.795839
11
54.653423
21
397.210172
0
LINE
8
boundary
62
5
39
2
10
54.653423
20
397.210172
11
55.328597
21
396.620746
0
LINE
8
boundary
62
5
39
2
10
55.328597
20
396.620746
11
55.988649
21
396.027639
0
LINE
8
boundary
62
5
39
2
10
55.988649
20
396.027639
11
56.633621
21
395.430908
0
LINE
8
boundary
62
5
39
2
10
56.633621
20
395.430908
11
57.263483
21
394.830756
0
LINE
8
boundary
62
5
39
2
10
57.263483
20
394.830756
11
57.878228
21
394.227269
0
LINE
8
boundary
62
5
39
2
10
57.878228
20
394.227269
11
58.477899
21
393.620676
0
LINE
8
boundary
62
5
39
2
10
58.477899
20
393.620676
11
59.062443
21
393.011085
0
LINE
8
boundary
62
5
39
2
10
59.062443
20
393.011085
11
59.631880
21
392.398601
0
LINE
8
boundary
62
5
39
2
10
59.631880
20
392.398601
11
60.186204
21
391.783516
0
LINE
8
boundary
62
5
39
2
10
60.186204
20
391.783516
11
60.725373
21
391.165681
0
LINE
8
boundary
62
5
39
2
10
60.725373
20
391.165681
11
61.249360
21
390.545479
0
LINE
8
boundary
62
5
39
2
10
61.249360
20
390.545479
11
61.758269
21
389.922852
0
LINE
8
boundary
62
5
39
2
10
61.758269
20
389.922852
11
62.251984
21
389.298164
0
LINE
8
boundary
62
5
39
2
10
62.251984
20
389.298164
11
62.730546
21
388.671521
0
LINE
8
boundary
62
5
39
2
10
62.730546
20
388.671521
11
63.193878
21
388.042918
0
LINE
8
boundary
62
5
39
2
10
63.193878
20
388.042918
11
63.642024
21
387.412615
0
LINE
8
boundary
62
5
39
2
10
63.642024
20
387.412615
11
64.074971
21
386.780705
0
LINE
8
boundary
62
5
39
2
10
64.074971
20
386.780705
11
64.492739
21
386.147237
0
LINE
8
boundary
62
5
39
2
10
64.492739
20
386.147237
11
64.895214
21
385.512483
0
LINE
8
boundary
62
5
39
2
10
64.895214
20
385.512483
11
65.282389
21
384.876538
0
LINE
8
boundary
62
5
39
2
10
65.282389
20
384.876538
11
65.654327
21
384.239588
0
LINE
8
boundary
62
5
39
2
10
65.654327
20
384.239588
11
66.011004
21
383.601752
0
LINE
8
boundary
62
5
39
2
10
66.011004
20
383.601752
11
66.352379
21
382.963023
0
LINE
8
boundary
62
5
39
2
10
66.352379
20
382.963023
11
66.678420
21
382.323700
0
LINE
8
boundary
62
5
39
2
10
66.678420
20
382.323700
11
66.989036
21
381.683835
0
LINE
8
boundary
62
5
39
2
10
66.989036
20
381.683835
11
67.284348
21
381.043698
0
LINE
8
boundary
62
5
39
2
10
67.284348
20
381.043698
11
67.564303
21
380.403161
0
LINE
8
boundary
62
5
39
2
10
67.564303
20
380.403161
11
67.828844
21
379.762568
0
LINE
8
boundary
62
5
39
2
10
67.828844
20
379.762568
11
67.944003
21
378.944277
0
LINE
8
boundary
62
5
39
2
10
67.944003
20
378.944277
11
67.965979
21
377.982492
0
LINE
8
boundary
62
5
39
2
10
67.965979
20
377.982492
11
68.011302
21
377.007321
0
LINE
8
boundary
62
5
39
2
10
68.011302
20
377.007321
11
68.074418
21
376.022240
0
LINE
8
boundary
62
5
39
2
10
68.074418
20
376.022240
11
68.196196
21
374.455225
0
LINE
8
boundary
62
5
39
2
10
68.196196
20
374.455225
11
68.266895
21
373.617853
0
LINE
8
boundary
62
5
39
2
10
68.266895
20
373.617853
11
68.353955
21
372.465971
0
LINE
8
boundary
62
5
39
2
10
68.353955
20
372.465971
11
68.420413
21
371.639337
0
LINE
8
boundary
62
5
39
2
10
68.420413
20
371.639337
11
68.453832
21
371.066747
0
LINE
8
boundary
62
5
39
2
10
68.453832
20
371.066747
11
68.501431
21
370.093491
0
LINE
8
boundary
62
5
39
2
10
68.501431
20
370.093491
11
68.525690
21
369.134016
0
LINE
8
boundary
62
5
39
2
10
68.525690
20
369.134016
11
68.520545
21
368.191575
0
LINE
8
boundary
62
5
39
2
10
68.520545
20
368.191575
11
68.479916
21
367.269851
0
LINE
8
boundary
62
5
39
2
10
68.479916
20
367.269851
11
68.431299
21
366.633704
0
LINE
8
boundary
62
5
39
2
10
68.431299
20
366.633704
11
68.357930
21
366.012848
0
LINE
8
boundary
62
5
39
2
10
68.357930
20
366.012848
11
68.240352
21
365.326804
0
LINE
8
boundary
62
5
39
2
10
68.240352
20
365.326804
11
68.111961
21
364.738533
0
LINE
8
boundary
62
5
39
2
10
68.111961
20
364.738533
11
67.925331
21
364.090276
0
LINE
8
boundary
62
5
39
2
10
67.925331
20
364.090276
11
67.732497
21
363.539715
0
LINE
8
boundary
62
5
39
2
10
67.732497
20
363.539715
11
67.465400
21
362.935328
0
LINE
8
boundary
62
5
39
2
10
67.465400
20
362.935328
11
67.198693
21
362.427653
0
LINE
8
boundary
62
5
39
2
10
67.198693
20
362.427653
11
66.839541
21
361.873274
0
LINE
8
boundary
62
5
39
2
10
66.839541
20
361.873274
11
66.489737
21
361.413719
0
LINE
8
boundary
62
5
39
2
10
66.489737
20
361.413719
11
66.026881
21
360.915469
0
LINE
8
boundary
62
5
39
2
10
66.026881
20
360.915469
11
65.584799
21
360.509314
0
LINE
8
boundary
62
5
39
2
10
65.584799
20
360.509314
11
65.006654
21
360.073340
0
LINE
8
boundary
62
5
39
2
10
65.006654
20
360.073340
11
64.463567
21
359.725386
0
LINE
8
boundary
62
5
39
2
10
64.463567
20
359.725386
11
63.758157
21
359.358330
0
LINE
8
boundary
62
5
39
2
10
63.758157
20
359.358330
11
63.287736
21
359.150170
0
LINE
8
boundary
62
5
39
2
10
63.287736
20
359.150170
11
62.788958
21
358.957739
0
LINE
8
boundary
62
5
39
2
10
62.788958
20
358.957739
11
62.261095
21
358.781731
0
LINE
8
boundary
62
5
39
2
10
62.261095
20
358.781731
11
61.703393
21
358.622363
0
LINE
8
boundary
62
5
39
2
10
61.703393
20
358.622363
11
61.115085
21
358.480007
0
LINE
8
boundary
62
5
39
2
10
61.115085
20
358.480007
11
60.495473
21
358.355267
0
LINE
8
boundary
62
5
39
2
10
60.495473
20
358.355267
11
59.843887
21
358.248455
0
LINE
8
boundary
62
5
39
2
10
59.843887
20
358.248455
11
59.159573
21
358.160062
0
LINE
8
boundary
62
5
39
2
10
59.159573
20
358.160062
11
58.441797
21
358.090476
0
LINE
8
boundary
62
5
39
2
10
58.441797
20
358.090476
11
57.689906
21
358.040112
0
LINE
8
boundary
62
5
39
2
10
57.689906
20
358.040112
11
56.903198
21
358.009505
0
LINE
8
boundary
62
5
39
2
10
56.903198
20
358.009505
11
56.081041
21
357.999073
0
LINE
8
boundary
62
5
39
2
10
56.081041
20
357.999073
11
55.222783
21
358.009105
0
LINE
8
boundary
62
5
39
2
10
55.222783
20
358.009105
11
54.327566
21
358.040313
0
LINE
8
boundary
62
5
39
2
10
54.327566
20
358.040313
11
53.394958
21
358.092934
0
LINE
8
boundary
62
5
39
2
10
53.394958
20
358.092934
11
52.424256
21
358.167459
0
LINE
8
boundary
62
5
39
2
10
52.424256
20
358.167459
11
50.930462
21
358.606946
0
LINE
8
boundary
62
5
39
2
10
50.930462
20
358.606946
11
50.356489
21
358.810953
0
LINE
8
boundary
62
5
39
2
10
50.356489
20
358.810953
11
49.215707
21
359.205194
0
LINE
8
boundary
62
5
39
2
10
49.215707
20
359.205194
11
48.668229
21
359.395103
0
LINE
8
boundary
62
5
39
2
10
48.668229
20
359.395103
11
47.543067
21
359.772152
0
LINE
8
boundary
62
5
39
2
10
47.543067
20
359.772152
11
47.018877
21
359.948431
0
LINE
8
boundary
62
5
39
2
10
47.018877
20
359.948431
11
45.903261
21
360.308185
0
LINE
8
boundary
62
5
39
2
10
45.903261
20
360.308185
11
45.399358
21
360.471346
0
LINE
8
boundary
62
5
39
2
10
45.399358
20
360.471346
11
44.286961
21
360.814119
0
LINE
8
boundary
62
5
39
2
10
44.286961
20
360.814119
11
43.800674
21
360.964515
0
LINE
8
boundary
62
5
39
2
10
43.800674
20
360.964515
11
42.684836
21
361.290184
0
LINE
8
boundary
62
5
39
2
10
42.684836
20
361.290184
11
41.087729
21
361.737267
0
LINE
8
boundary
62
5
39
2
10
41.087729
20
361.737267
11
39.486384
21
362.155817
0
LINE
8
boundary
62
5
39
2
10
39.486384
20
362.155817
11
37.871480
21
362.546443
0
LINE
8
boundary
62
5
39
2
10
37.871480
20
362.546443
11
36.233773
21
362.909829
0
LINE
8
boundary
62
5
39
2
10
36.233773
20
362.909829
11
34.564019
21
363.246208
0
LINE
8
boundary
62
5
39
2
10
34.564019
20
363.246208
11
32.852792
21
363.556554
0
LINE
8
boundary
62
5
39
2
10
32.852792
20
363.556554
11
31.090581
21
363.841165
0
LINE
8
boundary
62
5
39
2
10
31.090581
20
363.841165
11
29.267728
21
364.100776
0
LINE
8
boundary
62
5
39
2
10
29.267728
20
364.100776
11
27.374440
21
364.336013
0
LINE
8
boundary
62
5
39
2
10
27.374440
20
364.336013
11
25.400599
21
364.546966
0
LINE
8
boundary
62
5
39
2
10
25.400599
20
364.546966
11
23.521406
21
347.649099
0
LINE
8
boundary
62
5
39
2
10
23.521406
20
347.649099
11
23.331535
21
345.551284
0
LINE
8
boundary
62
5
39
2
10
23.331535
20
345.551284
11
27.119037
21
330.589228
0
LINE
8
boundary
62
5
39
2
10
27.119037
20
330.589228
11
36.888686
21
330.439229
0
LINE
8
boundary
62
5
39
2
10
36.888686
20
330.439229
11
36.888687
21
327.693228
0
LINE
8
boundary
62
5
39
2
10
36.888687
20
327.693228
11
27.900403
21
327.693229
0
LINE
8
boundary
62
5
39
2
10
27.900403
20
327.693229
11
31.016604
21
315.192377
0
LINE
8
boundary
62
5
39
2
10
31.016604
20
315.192377
11
32.610539
21
308.828262
0
LINE
8
boundary
62
5
39
2
10
32.610539
20
308.828262
11
33.176493
21
307.013728
0
LINE
8
boundary
62
5
39
2
10
33.176493
20
307.013728
11
33.816373
21
304.857254
0
LINE
8
boundary
62
5
39
2
10
33.816373
20
304.857254
11
34.421510
21
302.693218
0
LINE
8
boundary
62
5
39
2
10
34.421510
20
302.693218
11
34.991664
21
300.522051
0
LINE
8
boundary
62
5
39
2
10
34.991664
20
300.522051
11
35.527158
21
298.343762
0
LINE
8
boundary
62
5
39
2
10
35.527158
20
298.343762
11
36.028062
21
296.158529
0
LINE
8
boundary
62
5
39
2
10
36.028062
20
296.158529
11
36.494417
21
293.966635
0
LINE
8
boundary
62
5
39
2
10
36.494417
20
293.966635
11
36.926258
21
291.768068
0
LINE
8
boundary
62
5
39
2
10
36.926258
20
291.768068
11
37.323876
21
289.563072
0
LINE
8
boundary
62
5
39
2
10
37.323876
20
289.563072
11
37.687325
21
287.351851
0
LINE
8
boundary
62
5
39
2
10
37.687325
20
287.351851
11
38.016720
21
285.134510
0
LINE
8
boundary
62
5
39
2
10
38.016720
20
285.134510
11
38.312244
21
282.911196
0
LINE
8
boundary
62
5
39
2
10
38.312244
20
282.911196
11
38.574068
21
280.681973
0
LINE
8
boundary
62
5
39
2
10
38.574068
20
280.681973
11
38.802351
21
278.447076
0
LINE
8
boundary
62
5
39
2
10
38.802351
20
278.447076
11
38.997277
21
276.206649
0
LINE
8
boundary
62
5
39
2
10
38.997277
20
276.206649
11
39.158951
21
273.960685
0
LINE
8
boundary
62
5
39
2
10
39.158951
20
273.960685
11
39.287719
21
271.709579
0
LINE
8
boundary
62
5
39
2
10
39.287719
20
271.709579
11
39.313814
21
271.200164
0
LINE
8
boundary
62
5
39
2
10
39.313814
20
271.200164
11
39.383752
21
269.453271
0
LINE
8
boundary
62
5
39
2
10
39.383752
20
269.453271
11
39.402610
21
268.938222
0
LINE
8
boundary
62
5
39
2
10
39.402610
20
268.938222
11
39.447143
21
267.191922
0
LINE
8
boundary
62
5
39
2
10
39.447143
20
267.191922
11
39.458666
21
266.671845
0
LINE
8
boundary
62
5
39
2
10
39.458666
20
266.671845
11
39.478332
21
264.925648
0
LINE
8
boundary
62
5
39
2
10
39.478332
20
264.925648
11
39.482522
21
264.401181
0
LINE
8
boundary
62
5
39
2
10
39.482522
20
264.401181
11
39.477391
21
262.654658
0
LINE
8
boundary
62
5
39
2
10
39.477391
20
262.654658
11
39.474162
21
262.126420
0
LINE
8
boundary
62
5
39
2
10
39.474162
20
262.126420
11
39.444699
21
260.378954
0
LINE
8
boundary
62
5
39
2
10
39.444699
20
260.378954
11
39.434073
21
259.847560
0
LINE
8
boundary
62
5
39
2
10
39.434073
20
259.847560
11
39.380402
21
258.098805
0
LINE
8
boundary
62
5
39
2
10
39.380402
20
258.098805
11
39.362380
21
257.564941
0
LINE
8
boundary
62
5
39
2
10
39.362380
20
257.564941
11
39.284874
21
255.814329
0
LINE
8
boundary
62
5
39
2
10
39.284874
20
255.814329
11
39.259581
21
255.278661
0
LINE
8
boundary
62
5
39
2
10
39.259581
20
255.278661
11
39.158332
21
253.525473
0
LINE
8
boundary
62
5
39
2
10
39.158332
20
253.525473
11
39.125802
21
252.988745
0
LINE
8
boundary
62
5
39
2
10
39.125802
20
252.988745
11
39.001191
21
251.232612
0
LINE
8
boundary
62
5
39
2
10
39.001191
20
251.232612
11
38.961605
21
250.695499
0
LINE
8
boundary
62
5
39
2
10
38.961605
20
250.695499
11
38.813627
21
248.935742
0
LINE
8
boundary
62
5
39
2
10
38.813627
20
248.935742
11
38.767074
21
248.399008
0
LINE
8
boundary
62
5
39
2
10
38.767074
20
248.399008
11
38.596050
21
246.635027
0
LINE
8
boundary
62
5
39
2
10
38.596050
20
246.635027
11
38.542776
21
246.099483
0
LINE
8
boundary
62
5
39
2
10
38.542776
20
246.099483
11
38.348825
21
244.330620
0
LINE
8
boundary
62
5
39
2
10
38.348825
20
244.330620
11
38.289022
21
243.797050
0
LINE
8
boundary
62
5
39
2
10
38.289022
20
243.797050
11
38.072247
21
242.022685
0
LINE
8
boundary
62
5
39
2
10
38.072247
20
242.022685
11
38.006167
21
241.491871
0
LINE
8
boundary
62
5
39
2
10
38.006167
20
241.491871
11
37.766626
21
239.711266
0
LINE
8
boundary
62
5
39
2
10
37.766626
20
239.711266
11
37.694566
21
239.184059
0
LINE
8
boundary
62
5
39
2
10
37.694566
20
239.184059
11
37.432441
21
237.396583
0
LINE
8
boundary
62
5
39
2
10
37.432441
20
237.396583
11
37.354731
21
236.873915
0
LINE
8
boundary
62
5
39
2
10
37.354731
20
236.873915
11
37.070018
21
235.078815
0
LINE
8
boundary
62
5
39
2
10
37.070018
20
235.078815
11
36.986988
21
234.561527
0
LINE
8
boundary
62
5
39
2
10
36.986988
20
234.561527
11
36.679806
21
232.758069
0
LINE
8
boundary
62
5
39
2
10
36.679806
20
232.758069
11
36.591866
21
232.247138
0
LINE
8
boundary
62
5
39
2
10
36.591866
20
232.247138
11
36.262148
21
230.434624
0
LINE
8
boundary
62
5
39
2
10
36.262148
20
230.434624
11
36.169729
21
229.930963
0
LINE
8
boundary
62
5
39
2
10
36.169729
20
229.930963
11
35.817474
21
228.108453
0
LINE
8
boundary
62
5
39
2
10
35.817474
20
228.108453
11
35.346239
21
225.779821
0
LINE
8
boundary
62
5
39
2
10
35.346239
20
225.779821
11
34.848947
21
223.448916
0
LINE
8
boundary
62
5
39
2
10
34.848947
20
223.448916
11
34.326044
21
221.115832
0
LINE
8
boundary
62
5
39
2
10
34.326044
20
221.115832
11
33.777888
21
218.780911
0
LINE
8
boundary
62
5
39
2
10
33.777888
20
218.780911
11
33.205077
21
216.444213
0
LINE
8
boundary
62
5
39
2
10
33.205077
20
216.444213
11
32.608034
21
214.106141
0
LINE
8
boundary
62
5
39
2
10
32.608034
20
214.106141
11
31.987374
21
211.766658
0
LINE
8
boundary
62
5
39
2
10
31.987374
20
211.766658
11
31.343558
21
209.425948
0
LINE
8
boundary
62
5
39
2
10
31.343558
20
209.425948
11
30.677112
21
207.084441
0
LINE
8
boundary
62
5
39
2
10
30.677112
20
207.084441
11
29.988553
21
204.742373
0
LINE
8
boundary
62
5
39
2
10
29.988553
20
204.742373
11
29.278494
21
202.399843
0
LINE
8
boundary
62
5
39
2
10
29.278494
20
202.399843
11
28.547498
21
200.057085
0
LINE
8
boundary
62
5
39
2
10
28.547498
20
200.057085
11
27.796181
21
197.714452
0
LINE
8
boundary
62
5
39
2
10
27.796181
20
197.714452
11
27.025114
21
195.372169
0
LINE
8
boundary
62
5
39
2
10
27.025114
20
195.372169
11
26.234780
21
193.030550
0
LINE
8
boundary
62
5
39
2
10
26.234780
20
193.030550
11
25.425960
21
190.689847
0
LINE
8
boundary
62
5
39
2
10
25.425960
20
190.689847
11
24.599263
21
188.350320
0
LINE
8
boundary
62
5
39
2
10
24.599263
20
188.350320
11
23.755196
21
186.012302
0
LINE
8
boundary
62
5
39
2
10
23.755196
20
186.012302
11
22.894491
21
183.676127
0
LINE
8
boundary
62
5
39
2
10
22.894491
20
183.676127
11
22.017916
21
181.342060
0
LINE
8
boundary
62
5
39
2
10
22.017916
20
181.342060
11
21.126069
21
179.010516
0
LINE
8
boundary
62
5
39
2
10
21.126069
20
179.010516
11
20.368367
21
177.064004
0
LINE
8
boundary
62
5
39
2
10
20.368367
20
177.064004
11
18.313638
21
172.122971
0
LINE
8
boundary
62
5
39
2
10
18.313638
20
172.122971
11
16.365495
21
167.581709
0
LINE
8
boundary
62
5
39
2
10
16.365495
20
167.581709
11
14.377627
21
163.068163
0
LINE
8
boundary
62
5
39
2
10
14.377627
20
163.068163
11
14.221770
21
162.412430
0
LINE
8
boundary
62
5
39
2
10
14.221770
20
162.412430
11
13.265180
21
158.353979
0
LINE
8
boundary
62
5
39
2
10
13.265180
20
158.353979
11
13.077647
21
157.539587
0
LINE
8
boundary
62
5
39
2
10
13.077647
20
157.539587
11
12.148833
21
153.468784
0
LINE
8
boundary
62
5
39
2
10
12.148833
20
153.468784
11
11.598135
21
150.964951
0
LINE
8
boundary
62
5
39
2
10
11.598135
20
150.964951
11
11.486942
21
150.446390
0
LINE
8
boundary
62
5
39
2
10
11.486942
20
150.446390
11
11.057480
21
148.421829
0
LINE
8
boundary
62
5
39
2
10
11.057480
20
148.421829
11
10.941771
21
147.860051
0
LINE
8
boundary
62
5
39
2
10
10.941771
20
147.860051
11
10.530521
21
145.840623
0
LINE
8
boundary
62
5
39
2
10
10.530521
20
145.840623
11
10.411713
21
145.235749
0
LINE
8
boundary
62
5
39
2
10
10.411713
20
145.235749
11
10.021033
21
143.222621
0
LINE
8
boundary
62
5
39
2
10
10.021033
20
143.222621
11
9.900762
21
142.575322
0
LINE
8
boundary
62
5
39
2
10
9.900762
20
142.575322
11
9.532731
21
140.568992
0
LINE
8
boundary
62
5
39
2
10
9.532731
20
140.568992
11
9.412867
21
139.880612
0
LINE
8
boundary
62
5
39
2
10
9.412867
20
139.880612
11
9.069532
21
137.881193
0
LINE
8
boundary
62
5
39
2
10
9.069532
20
137.881193
11
8.952103
21
137.153731
0
LINE
8
boundary
62
5
39
2
10
8.952103
20
137.153731
11
8.635196
21
135.160538
0
LINE
8
boundary
62
5
39
2
10
8.635196
20
135.160538
11
8.522441
21
134.396727
0
LINE
8
boundary
62
5
39
2
10
8.522441
20
134.396727
11
8.233799
21
132.408340
0
LINE
8
boundary
62
5
39
2
10
8.233799
20
132.408340
11
8.127957
21
131.611722
0
LINE
8
boundary
62
5
39
2
10
8.127957
20
131.611722
11
7.869017
21
129.626127
0
LINE
8
boundary
62
5
39
2
10
7.869017
20
129.626127
11
7.772433
21
128.801048
0
LINE
8
boundary
62
5
39
2
10
7.772433
20
128.801048
11
7.544843
21
126.815363
0
LINE
8
boundary
62
5
39
2
10
7.544843
20
126.815363
11
7.459848
21
125.967003
0
LINE
8
boundary
62
5
39
2
10
7.459848
20
125.967003
11
7.265450
21
123.977624
0
LINE
8
boundary
62
5
39
2
10
7.265450
20
123.977624
11
7.194157
21
123.111986
0
LINE
8
boundary
62
5
39
2
10
7.194157
20
123.111986
11
7.034563
21
121.114509
0
LINE
8
boundary
62
5
39
2
10
7.034563
20
121.114509
11
6.978971
21
120.238359
0
LINE
8
boundary
62
5
39
2
10
6.978971
20
120.238359
11
6.856322
21
118.227663
0
LINE
8
boundary
62
5
39
2
10
6.856322
20
118.227663
11
6.818080
21
117.348539
0
LINE
8
boundary
62
5
39
2
10
6.818080
20
117.348539
11
6.734786
21
115.318807
0
LINE
8
boundary
62
5
39
2
10
6.734786
20
115.318807
11
6.715124
21
114.444879
0
LINE
8
boundary
62
5
39
2
10
6.715124
20
114.444879
11
6.673893
21
112.389774
0
LINE
8
boundary
62
5
39
2
10
6.673893
20
112.389774
11
6.667500
21
110.918336
0
LINE
8
boundary
62
5
39
2
10
6.667500
20
110.918336
11
6.677768
21
109.442530
0
LINE
8
boundary
62
5
39
2
10
6.677768
20
109.442530
11
6.705357
21
107.962630
0
LINE
8
boundary
62
5
39
2
10
6.705357
20
107.962630
11
6.750551
21
106.479005
0
LINE
8
boundary
62
5
39
2
10
6.750551
20
106.479005
11
6.813981
21
104.991866
0
LINE
8
boundary
62
5
39
2
10
6.813981
20
104.991866
11
6.896136
21
103.501358
0
LINE
8
boundary
62
5
39
2
10
6.896136
20
103.501358
11
6.997707
21
102.007877
0
LINE
8
boundary
62
5
39
2
10
6.997707
20
102.007877
11
7.118944
21
100.511647
0
LINE
8
boundary
62
5
39
2
10
7.118944
20
100.511647
11
7.260391
21
99.013094
0
LINE
8
boundary
62
5
39
2
10
7.260391
20
99.013094
11
7.422517
21
97.512279
0
LINE
8
boundary
62
5
39
2
10
7.422517
20
97.512279
11
7.605996
21
96.009731
0
LINE
8
boundary
62
5
39
2
10
7.605996
20
96.009731
11
7.811321
21
94.505745
0
LINE
8
boundary
62
5
39
2
10
7.811321
20
94.505745
11
8.038905
21
93.000512
0
LINE
8
boundary
62
5
39
2
10
8.038905
20
93.000512
11
8.289316
21
91.494403
0
LINE
8
boundary
62
5
39
2
10
8.289316
20
91.494403
11
8.562959
21
89.987814
0
LINE
8
boundary
62
5
39
2
10
8.562959
20
89.987814
11
8.860316
21
88.481090
0
LINE
8
boundary
62
5
39
2
10
8.860316
20
88.481090
11
9.182254
21
86.974563
0
LINE
8
boundary
62
5
39
2
10
9.182254
20
86.974563
11
9.528819
21
85.468609
0
LINE
8
boundary
62
5
39
2
10
9.528819
20
85.468609
11
9.900643
21
83.963628
0
LINE
8
boundary
62
5
39
2
10
9.900643
20
83.963628
11
10.298265
21
82.460014
0
LINE
8
boundary
62
5
39
2
10
10.298265
20
82.460014
11
10.722174
21
80.958081
0
LINE
8
boundary
62
5
39
2
10
10.722174
20
80.958081
11
11.173025
21
79.458326
0
LINE
8
boundary
62
5
39
2
10
11.173025
20
79.458326
11
11.651036
21
77.961211
0
LINE
8
boundary
62
5
39
2
10
11.651036
20
77.961211
11
12.156752
21
76.467044
0
LINE
8
boundary
62
5
39
2
10
12.156752
20
76.467044
11
12.690735
21
74.976411
0
LINE
8
boundary
62
5
39
2
10
12.690735
20
74.976411
11
13.216265
21
73.511844
0
LINE
8
boundary
62
5
39
2
10
13.216265
20
73.511844
11
14.298078
21
69.331204
0
LINE
8
boundary
62
5
39
2
10
14.298078
20
69.331204
11
15.454192
21
64.882743
0
LINE
8
boundary
62
5
39
2
10
15.454192
20
64.882743
11
16.136935
21
62.330925
0
LINE
8
boundary
62
5
39
2
10
16.136935
20
62.330925
11
16.798755
21
59.945380
0
LINE
8
boundary
62
5
39
2
10
16.798755
20
59.945380
11
17.498924
21
57.524377
0
LINE
8
boundary
62
5
39
2
10
17.498924
20
57.524377
11
18.242986
21
55.073963
0
LINE
8
boundary
62
5
39
2
10
18.242986
20
55.073963
11
19.036431
21
52.600428
0
LINE
8
boundary
62
5
39
2
10
19.036431
20
52.600428
11
19.884741
21
50.110172
0
LINE
8
boundary
62
5
39
2
10
19.884741
20
50.110172
11
20.065589
21
49.588979
0
LINE
8
boundary
62
5
39
2
10
20.065589
20
49.588979
11
20.793358
21
47.609769
0
LINE
8
boundary
62
5
39
2
10
20.793358
20
47.609769
11
21.004745
21
47.039554
0
LINE
8
boundary
62
5
39
2
10
21.004745
20
47.039554
11
21.383762
21
46.061451
0
LINE
8
boundary
62
5
39
2
10
21.383762
20
46.061451
11
21.888170
21
44.797835
0
LINE
8
boundary
62
5
39
2
10
21.888170
20
44.797835
11
22.410935
21
43.535470
0
LINE
8
boundary
62
5
39
2
10
22.410935
20
43.535470
11
22.952582
21
42.275297
0
LINE
8
boundary
62
5
39
2
10
22.952582
20
42.275297
11
23.513999
21
41.018233
0
LINE
8
boundary
62
5
39
2
10
23.513999
20
41.018233
11
24.095859
21
39.765310
0
LINE
8
boundary
62
5
39
2
10
24.095859
20
39.765310
11
24.698851
21
38.517450
0
LINE
8
boundary
62
5
39
2
10
24.698851
20
38.517450
11
25.323630
21
37.275719
0
LINE
8
boundary
62
5
39
2
10
25.323630
20
37.275719
11
25.970914
21
36.041117
0
LINE
8
boundary
62
5
39
2
10
25.970914
20
36.041117
11
26.170972
21
35.665651
0
LINE
8
annotation
62
1
39
211
10
43.548785
20
326.666229
11
43.548785
21
331.466229
0
LINE
8
annotation
62
1
39
211
10
43.548785
20
331.466229
11
42.481684
21
330.398826
0
LINE
8
annotation
62
1
39
211
10
47.733863
20
410.001982
11
45.712505
21
410.001982
0
LINE
8
annotation
62
1
39
211
10
45.712505
20
410.001982
11
47.580306
21
413.008902
0
LINE
8
annotation
62
1
39
211
10
47.580306
20
413.008902
11
47.580306
21
413.008902
0
LINE
8
annotation
62
1
39
211
10
47.580306
20
413.008902
11
47.582538
21
413.011665
0
LINE
8
annotation
62
1
39
211
10
47.582538
20
413.011665
11
47.584680
21
413.014451
0
LINE
8
annotation
62
1
39
211
10
47.584680
20
413.014451
11
47.586743
21
413.017285
0
LINE
8
annotation
62
1
39
211
10
47.586743
20
413.017285
11
47.588744
21
413.020189
0
LINE
8
annotation
62
1
39
211
10
47.588744
20
413.020189
11
47.590695
21
413.023187
0
LINE
8
annotation
62
1
39
211
10
47.590695
20
413.023187
11
47.592610
21
413.026302
0
LINE
8
annotation
62
1
39
211
10
47.592610
20
413.026302
11
47.594505
21
413.029558
0
LINE
8
annotation
62
1
39
211
10
47.594505
20
413.029558
11
47.596393
21
413.032979
0
LINE
8
annotation
62
1
39
211
10
47.596393
20
413.032979
11
47.598287
21
413.036588
0
LINE
8
annotation
62
1
39
211
10
47.598287
20
413.036588
11
47.598287
21
413.036588
0
LINE
8
annotation
62
1
39
211
10
47.598287
20
413.036588
11
47.675408
21
413.202173
0
LINE
8
annotation
62
1
39
211
10
47.675408
20
413.202173
11
47.720461
21
413.373817
0
LINE
8
annotation
62
1
39
211
10
47.720461
20
413.373817
11
47.734550
21
413.547641
0
LINE
8
annotation
62
1
39
211
10
47.734550
20
413.547641
11
47.718778
21
413.719766
0
LINE
8
annotation
62
1
39
211
10
47.718778
20
413.719766
11
47.674251
21
413.886315
0
LINE
8
annotation
62
1
39
211
10
47.674251
20
413.886315
11
47.602072
21
414.043408
0
LINE
8
annotation
62
1
39
211
10
47.602072
20
414.043408
11
47.503345
21
414.187168
0
LINE
8
annotation
62
1
39
211
10
47.503345
20
414.187168
11
47.379174
21
414.313715
0
LINE
8
annotation
62
1
39
211
10
47.379174
20
414.313715
11
47.230664
21
414.419171
0
LINE
8
annotation
62
1
39
211
10
47.230664
20
414.419171
11
47.230664
21
414.419171
0
LINE
8
annotation
62
1
39
211
10
47.230664
20
414.419171
11
47.064618
21
414.495197
0
LINE
8
annotation
62
1
39
211
10
47.064618
20
414.495197
11
46.892711
21
414.539555
0
LINE
8
annotation
62
1
39
211
10
46.892711
20
414.539555
11
46.718786
21
414.553246
0
LINE
8
annotation
62
1
39
211
10
46.718786
20
414.553246
11
46.546686
21
414.537266
0
LINE
8
annotation
62
1
39
211
10
46.546686
20
414.537266
11
46.380255
21
414.492616
0
LINE
8
annotation
62
1
39
211
10
46.380255
20
414.492616
11
46.223336
21
414.420292
0
LINE
8
annotation
62
1
39
211
10
46.223336
20
414.420292
11
46.079771
21
414.321294
0
LINE
8
annotation
62
1
39
211
10
46.079771
20
414.321294
11
45.953405
21
414.196619
0
LINE
8
annotation
62
1
39
211
10
45.953405
20
414.196619
11
45.848080
21
414.047267
0
LINE
8
annotation
62
1
39
211
10
45.848080
20
414.047267
11
45.715359
21
413.792670
0
LINE
8
annotation
62
1
39
211
10
82.977532
20
351.568342
11
80.480805
21
347.957055
0
LINE
8
annotation
62
1
39
211
10
80.480805
20
347.957055
11
77.983609
21
351.568342
0
LINE
8
annotation
62
1
39
211
10
80.480805
20
348.247667
11
80.480805
21
344.081448
0
LINE
8
annotation
62
1
39
211
10
89.879329
20
347.824895
11
85.785880
21
347.824895
0
LINE
8
annotation
62
1
39
211
10
92.686034
20
344.081683
11
94.348484
21
344.081683
0
LINE
8
annotation
62
1
39
211
10
94.348484
20
344.081683
11
94.348484
21
344.081683
0
LINE
8
annotation
62
1
39
211
10
94.348484
20
344.081683
11
94.646861
21
344.108511
0
LINE
8
annotation
62
1
39
211
10
94.646861
20
344.108511
11
94.927877
21
344.185854
0
LINE
8
annotation
62
1
39
211
10
94.927877
20
344.185854
11
95.186795
21
344.309001
0
LINE
8
annotation
62
1
39
211
10
95.186795
20
344.309001
11
95.418876
21
344.473243
0
LINE
8
annotation
62
1
39
211
10
95.418876
20
344.473243
11
95.619384
21
344.673870
0
LINE
8
annotation
62
1
39
211
10
95.619384
20
344.673870
11
95.783581
21
344.906170
0
LINE
8
annotation
62
1
39
211
10
95.783581
20
344.906170
11
95.906730
21
345.165434
0
LINE
8
annotation
62
1
39
211
10
95.906730
20
345.165434
11
95.984093
21
345.446951
0
LINE
8
annotation
62
1
39
211
10
95.984093
20
345.446951
11
96.010934
21
345.746011
0
LINE
8
annotation
62
1
39
211
10
96.010934
20
345.746011
11
96.010934
21
346.574184
0
LINE
8
annotation
62
1
39
211
10
96.010934
20
346.574184
11
96.010934
21
346.574184
0
LINE
8
annotation
62
1
39
211
10
96.010934
20
346.574184
11
95.984109
21
346.873099
0
LINE
8
annotation
62
1
39
211
10
95.984109
20
346.873099
11
95.906784
21
347.154228
0
LINE
8
annotation
62
1
39
211
10
95.906784
20
347.154228
11
95.783685
21
347.412930
0
LINE
8
annotation
62
1
39
211
10
95.783685
20
347.412930
11
95.619538
21
347.644564
0
LINE
8
annotation
62
1
39
211
10
95.619538
20
347.644564
11
95.419069
21
347.844489
0
LINE
8
annotation
62
1
39
211
10
95.419069
20
347.844489
11
95.187003
21
348.008064
0
LINE
8
annotation
62
1
39
211
10
95.187003
20
348.008064
11
94.928067
21
348.130650
0
LINE
8
annotation
62
1
39
211
10
94.928067
20
348.130650
11
94.646985
21
348.207604
0
LINE
8
annotation
62
1
39
211
10
94.646985
20
348.207604
11
94.348484
21
348.234287
0
LINE
8
annotation
62
1
39
211
10
94.348484
20
348.234287
11
92.686034
21
348.234287
0
LINE
8
annotation
62
1
39
211
10
92.686034
20
348.234287
11
92.686034
21
351.568107
0
LINE
8
annotation
62
1
39
211
10
92.686034
20
351.568107
11
96.010934
21
351.568107
0
LINE
8
frame
62
5
39
2
10
0.000000
20
0.000000
11
215.900000
21
0.000000
0
LINE
8
frame
62
5
39
2
10
215.900000
20
0.000000
11
215.900000
21
279.400000
0
LINE
8
frame
62
5
39
2
10
215.900000
20
279.400000
11
0.000000
21
279.400000
0
LINE
8
frame
62
5
39
2
10
0.000000
20
279.400000
11
0.000000
21
0.000000
0
ENDSEC
0
EOF
