0
SECTION
2
HEADER
9
$ACADVER
1
AC1009
0
ENDSEC
0
SECTION
2
TABLES
0
TABLE
2
VPORT
70
1
0
VPORT
2
ACTIVE
70
0
10
0.0
20
0.0
11
0.0
21
0.0
12
0.0
22
0.0
13
0.0
23
0.0
14
0.0
24
0.0
15
0.0
25
0.0
16
0.0
26
0.0
36
0.0
17
0.0
27
0.0
37
0.0
40
0.0
41
0.0
42
0.0
43
0.0
44
0.0
50
0.0
51
0.0
71
0
72
1000
73
1
74
3
75
0
76
0
77
0
78
0
0
ENDTAB
0
ENDSEC
0
SECTION
2
ENTITIES
0
LINE
8
boundary
62
5
39
2
10
73.155671
20
13.711847
11
73.437856
21
14.298371
0
LINE
8
boundary
62
5
39
2
10
73.437856
20
14.298371
11
73.691276
21
14.983340
0
LINE
8
boundary
62
5
39
2
10
73.691276
20
14.983340
11
73.870971
21
15.686554
0
LINE
8
boundary
62
5
39
2
10
73.870971
20
15.686554
11
73.970423
21
16.406813
0
LINE
8
boundary
62
5
39
2
10
73.970423
20
16.406813
11
73.983466
21
17.142872
0
LINE
8
boundary
62
5
39
2
10
73.983466
20
17.142872
11
73.903710
21
17.893571
0
LINE
8
boundary
62
5
39
2
10
73.903710
20
17.893571
11
73.724853
21
18.657743
0
LINE
8
boundary
62
5
39
2
10
73.724853
20
18.657743
11
73.555886
21
19.140621
0
LINE
8
boundary
62
5
39
2
10
73.555886
20
19.140621
11
73.256232
21
19.826679
0
LINE
8
boundary
62
5
39
2
10
73.256232
20
19.826679
11
72.980905
21
20.320739
0
LINE
8
boundary
62
5
39
2
10
72.980905
20
20.320739
11
72.527397
21
21.019448
0
LINE
8
boundary
62
5
39
2
10
72.527397
20
21.019448
11
72.135962
21
21.523159
0
LINE
8
boundary
62
5
39
2
10
72.135962
20
21.523159
11
71.790290
21
21.928228
0
LINE
8
boundary
62
5
39
2
10
71.790290
20
21.928228
11
71.307082
21
22.247615
0
LINE
8
boundary
62
5
39
2
10
71.307082
20
22.247615
11
70.698955
21
22.295157
0
LINE
8
boundary
62
5
39
2
10
70.698955
20
22.295157
11
69.875892
21
22.385066
0
LINE
8
boundary
62
5
39
2
10
69.875892
20
22.385066
11
69.046763
21
22.501741
0
LINE
8
boundary
62
5
39
2
10
69.046763
20
22.501741
11
68.212188
21
22.645220
0
LINE
8
boundary
62
5
39
2
10
68.212188
20
22.645220
11
67.372495
21
22.815554
0
LINE
8
boundary
62
5
39
2
10
67.372495
20
22.815554
11
66.528106
21
23.012660
0
LINE
8
boundary
62
5
39
2
10
66.528106
20
23.012660
11
65.679456
21
23.236543
0
LINE
8
boundary
62
5
39
2
10
65.679456
20
23.236543
11
64.827001
21
23.487234
0
LINE
8
boundary
62
5
39
2
10
64.827001
20
23.487234
11
63.970986
21
23.764713
0
LINE
8
boundary
62
5
39
2
10
63.970986
20
23.764713
11
63.112117
21
24.068989
0
LINE
8
boundary
62
5
39
2
10
63.112117
20
24.068989
11
62.250639
21
24.399955
0
LINE
8
boundary
62
5
39
2
10
62.250639
20
24.399955
11
61.387122
21
24.757730
0
LINE
8
boundary
62
5
39
2
10
61.387122
20
24.757730
11
60.521873
21
25.142174
0
LINE
8
boundary
62
5
39
2
10
60.521873
20
25.142174
11
59.655411
21
25.553325
0
LINE
8
boundary
62
5
39
2
10
59.655411
20
25.553325
11
58.788193
21
25.991124
0
LINE
8
boundary
62
5
39
2
10
58.788193
20
25.991124
11
57.920710
21
26.455512
0
LINE
8
boundary
62
5
39
2
10
57.920710
20
26.455512
11
57.053415
21
26.946513
0
LINE
8
boundary
62
5
39
2
10
57.053415
20
26.946513
11
56.186874
21
27.464019
0
LINE
8
boundary
62
5
39
2
10
56.186874
20
27.464019
11
55.321406
21
28.008005
0
LINE
8
boundary
62
5
39
2
10
55.321406
20
28.008005
11
54.457537
21
28.578398
0
LINE
8
boundary
62
5
39
2
10
54.457537
20
28.578398
11
53.595861
21
29.175132
0
LINE
8
boundary
62
5
39
2
10
53.595861
20
29.175132
11
52.736815
21
29.798168
0
LINE
8
boundary
62
5
39
2
10
52.736815
20
29.798168
11
51.880781
21
30.447305
0
LINE
8
boundary
62
5
39
2
10
51.880781
20
30.447305
11
51.028419
21
31.122552
0
LINE
8
boundary
62
5
39
2
10
51.028419
20
31.122552
11
50.180250
21
31.823846
0
LINE
8
boundary
62
5
39
2
10
50.180250
20
31.823846
11
49.336695
21
32.550968
0
LINE
8
boundary
62
5
39
2
10
49.336695
20
32.550968
11
48.498402
21
33.303860
0
LINE
8
boundary
62
5
39
2
10
48.498402
20
33.303860
11
47.665688
21
34.082398
0
LINE
8
boundary
62
5
39
2
10
47.665688
20
34.082398
11
46.839311
21
34.886464
0
LINE
8
boundary
62
5
39
2
10
46.839311
20
34.886464
11
46.019656
21
35.715876
0
LINE
8
boundary
62
5
39
2
10
46.019656
20
35.715876
11
45.207327
21
36.570524
0
LINE
8
boundary
62
5
39
2
10
45.207327
20
36.570524
11
44.402849
21
37.450203
0
LINE
8
boundary
62
5
39
2
10
44.402849
20
37.450203
11
43.606831
21
38.354801
0
LINE
8
boundary
62
5
39
2
10
43.606831
20
38.354801
11
42.819762
21
39.284100
0
LINE
8
boundary
62
5
39
2
10
42.819762
20
39.284100
11
42.042221
21
40.237922
0
LINE
8
boundary
62
5
39
2
10
42.042221
20
40.237922
11
41.274795
21
41.216099
0
LINE
8
boundary
62
5
39
2
10
41.274795
20
41.216099
11
40.518033
21
42.218421
0
LINE
8
boundary
62
5
39
2
10
40.518033
20
42.218421
11
39.772544
21
43.244675
0
LINE
8
boundary
62
5
39
2
10
39.772544
20
43.244675
11
39.038765
21
44.294594
0
LINE
8
boundary
62
5
39
2
10
39.038765
20
44.294594
11
38.317330
21
45.367937
0
LINE
8
boundary
62
5
39
2
10
38.317330
20
45.367937
11
37.608817
21
46.464533
0
LINE
8
boundary
62
5
39
2
10
37.608817
20
46.464533
11
36.913827
21
47.584137
0
LINE
8
boundary
62
5
39
2
10
36.913827
20
47.584137
11
36.232988
21
48.726476
0
LINE
8
boundary
62
5
39
2
10
36.232988
20
48.726476
11
35.566663
21
49.891224
0
LINE
8
boundary
62
5
39
2
10
35.566663
20
49.891224
11
34.915730
21
51.078207
0
LINE
8
boundary
62
5
39
2
10
34.915730
20
51.078207
11
34.280577
21
52.287057
0
LINE
8
boundary
62
5
39
2
10
34.280577
20
52.287057
11
33.661761
21
53.517531
0
LINE
8
boundary
62
5
39
2
10
33.661761
20
53.517531
11
33.059910
21
54.769323
0
LINE
8
boundary
62
5
39
2
10
33.059910
20
54.769323
11
32.475621
21
56.042138
0
LINE
8
boundary
62
5
39
2
10
32.475621
20
56.042138
11
31.909485
21
57.335651
0
LINE
8
boundary
62
5
39
2
10
31.909485
20
57.335651
11
31.362040
21
58.649526
0
LINE
8
boundary
62
5
39
2
10
31.362040
20
58.649526
11
30.833853
21
59.983451
0
LINE
8
boundary
62
5
39
2
10
30.833853
20
59.983451
11
30.325552
21
61.337165
0
LINE
8
boundary
62
5
39
2
10
30.325552
20
61.337165
11
29.837514
21
62.710227
0
LINE
8
boundary
62
5
39
2
10
29.837514
20
62.710227
11
29.370576
21
64.102325
0
LINE
8
boundary
62
5
39
2
10
29.370576
20
64.102325
11
28.925220
21
65.513109
0
LINE
8
boundary
62
5
39
2
10
28.925220
20
65.513109
11
28.501847
21
66.942233
0
LINE
8
boundary
62
5
39
2
10
28.501847
20
66.942233
11
28.101187
21
68.389363
0
LINE
8
boundary
62
5
39
2
10
28.101187
20
68.389363
11
27.723773
21
69.854093
0
LINE
8
boundary
62
5
39
2
10
27.723773
20
69.854093
11
27.370121
21
71.336068
0
LINE
8
boundary
62
5
39
2
10
27.370121
20
71.336068
11
27.040717
21
72.834925
0
LINE
8
boundary
62
5
39
2
10
27.040717
20
72.834925
11
26.736069
21
74.350206
0
LINE
8
boundary
62
5
39
2
10
26.736069
20
74.350206
11
26.456902
21
75.881647
0
LINE
8
boundary
62
5
39
2
10
26.456902
20
75.881647
11
26.203730
21
77.428804
0
LINE
8
boundary
62
5
39
2
10
26.203730
20
77.428804
11
25.898763
21
78.632444
0
LINE
8
boundary
62
5
39
2
10
25.898763
20
78.632444
11
25.609924
21
79.836424
0
LINE
8
boundary
62
5
39
2
10
25.609924
20
79.836424
11
25.336684
21
81.040699
0
LINE
8
boundary
62
5
39
2
10
25.336684
20
81.040699
11
25.079201
21
82.245073
0
LINE
8
boundary
62
5
39
2
10
25.079201
20
82.245073
11
24.837147
21
83.449478
0
LINE
8
boundary
62
5
39
2
10
24.837147
20
83.449478
11
24.610351
21
84.653836
0
LINE
8
boundary
62
5
39
2
10
24.610351
20
84.653836
11
24.522184
21
85.158177
0
LINE
8
boundary
62
5
39
2
10
24.522184
20
85.158177
11
24.202088
21
87.062000
0
LINE
8
boundary
62
5
39
2
10
24.202088
20
87.062000
11
23.853047
21
89.468791
0
LINE
8
boundary
62
5
39
2
10
23.853047
20
89.468791
11
23.562003
21
91.873428
0
LINE
8
boundary
62
5
39
2
10
23.562003
20
91.873428
11
23.327506
21
94.275233
0
LINE
8
boundary
62
5
39
2
10
23.327506
20
94.275233
11
23.148120
21
96.673658
0
LINE
8
boundary
62
5
39
2
10
23.148120
20
96.673658
11
23.022651
21
99.067964
0
LINE
8
boundary
62
5
39
2
10
23.022651
20
99.067964
11
22.949699
21
101.457557
0
LINE
8
boundary
62
5
39
2
10
22.949699
20
101.457557
11
22.927617
21
103.841910
0
LINE
8
boundary
62
5
39
2
10
22.927617
20
103.841910
11
22.955066
21
106.220411
0
LINE
8
boundary
62
5
39
2
10
22.955066
20
106.220411
11
23.030586
21
108.592592
0
LINE
8
boundary
62
5
39
2
10
23.030586
20
108.592592
11
23.152818
21
110.957998
0
LINE
8
boundary
62
5
39
2
10
23.152818
20
110.957998
11
23.320243
21
113.316015
0
LINE
8
boundary
62
5
39
2
10
23.320243
20
113.316015
11
23.531420
21
115.666415
0
LINE
8
boundary
62
5
39
2
10
23.531420
20
115.666415
11
23.784773
21
118.008615
0
LINE
8
boundary
62
5
39
2
10
23.784773
20
118.008615
11
24.078879
21
120.342294
0
LINE
8
boundary
62
5
39
2
10
24.078879
20
120.342294
11
24.412249
21
122.667058
0
LINE
8
boundary
62
5
39
2
10
24.412249
20
122.667058
11
24.783412
21
124.982598
0
LINE
8
boundary
62
5
39
2
10
24.783412
20
124.982598
11
25.190882
21
127.288553
0
LINE
8
boundary
62
5
39
2
10
25.190882
20
127.288553
11
25.633122
21
129.584611
0
LINE
8
boundary
62
5
39
2
10
25.633122
20
129.584611
11
26.108569
21
131.870543
0
LINE
8
boundary
62
5
39
2
10
26.108569
20
131.870543
11
26.615841
21
134.145959
0
LINE
8
boundary
62
5
39
2
10
26.615841
20
134.145959
11
27.153544
21
136.410771
0
LINE
8
boundary
62
5
39
2
10
27.153544
20
136.410771
11
27.719960
21
138.664641
0
LINE
8
boundary
62
5
39
2
10
27.719960
20
138.664641
11
28.313785
21
140.907412
0
LINE
8
boundary
62
5
39
2
10
28.313785
20
140.907412
11
28.933375
21
143.138822
0
LINE
8
boundary
62
5
39
2
10
28.933375
20
143.138822
11
29.577357
21
145.358836
0
LINE
8
boundary
62
5
39
2
10
29.577357
20
145.358836
11
30.244304
21
147.567138
0
LINE
8
boundary
62
5
39
2
10
30.244304
20
147.567138
11
30.932602
21
149.763694
0
LINE
8
boundary
62
5
39
2
10
30.932602
20
149.763694
11
31.640883
21
151.948310
0
LINE
8
boundary
62
5
39
2
10
31.640883
20
151.948310
11
32.367555
21
154.120974
0
LINE
8
boundary
62
5
39
2
10
32.367555
20
154.120974
11
33.111383
21
156.281532
0
LINE
8
boundary
62
5
39
2
10
33.111383
20
156.281532
11
33.870691
21
158.429936
0
LINE
8
boundary
62
5
39
2
10
33.870691
20
158.429936
11
34.644309
21
160.566117
0
LINE
8
boundary
62
5
39
2
10
34.644309
20
160.566117
11
35.430653
21
162.689909
0
LINE
8
boundary
62
5
39
2
10
35.430653
20
162.689909
11
36.228210
21
164.801512
0
LINE
8
boundary
62
5
39
2
10
36.228210
20
164.801512
11
36.448008
21
165.366884
0
LINE
8
boundary
62
5
39
2
10
36.448008
20
165.366884
11
37.851854
21
168.987583
0
LINE
8
boundary
62
5
39
2
10
37.851854
20
168.987583
11
38.079242
21
169.554874
0
LINE
8
boundary
62
5
39
2
10
38.079242
20
169.554874
11
39.504093
21
173.124386
0
LINE
8
boundary
62
5
39
2
10
39.504093
20
173.124386
11
39.737722
21
173.693459
0
LINE
8
boundary
62
5
39
2
10
39.737722
20
173.693459
11
41.174118
21
177.212034
0
LINE
8
boundary
62
5
39
2
10
41.174118
20
177.212034
11
41.412437
21
177.782514
0
LINE
8
boundary
62
5
39
2
10
41.412437
20
177.782514
11
42.851090
21
181.251113
0
LINE
8
boundary
62
5
39
2
10
42.851090
20
181.251113
11
43.092430
21
181.822367
0
LINE
8
boundary
62
5
39
2
10
43.092430
20
181.822367
11
44.524602
21
185.241923
0
LINE
8
boundary
62
5
39
2
10
44.524602
20
185.241923
11
44.998044
21
186.357503
0
LINE
8
boundary
62
5
39
2
10
44.998044
20
186.357503
11
47.820384
21
193.082422
0
LINE
8
boundary
62
5
39
2
10
47.820384
20
193.082422
11
48.285023
21
194.193756
0
LINE
8
boundary
62
5
39
2
10
48.285023
20
194.193756
11
50.982973
21
200.741253
0
LINE
8
boundary
62
5
39
2
10
50.982973
20
200.741253
11
51.211115
21
201.302505
0
LINE
8
boundary
62
5
39
2
10
51.211115
20
201.302505
11
52.490914
21
204.505577
0
LINE
8
boundary
62
5
39
2
10
52.490914
20
204.505577
11
52.710590
21
205.061610
0
LINE
8
boundary
62
5
39
2
10
52.710590
20
205.061610
11
53.937856
21
208.228016
0
LINE
8
boundary
62
5
39
2
10
53.937856
20
208.228016
11
54.147296
21
208.777806
0
LINE
8
boundary
62
5
39
2
10
54.147296
20
208.777806
11
55.315497
21
211.910255
0
LINE
8
boundary
62
5
39
2
10
55.315497
20
211.910255
11
55.975577
21
213.736717
0
LINE
8
boundary
62
5
39
2
10
55.975577
20
213.736717
11
56.615272
21
215.553690
0
LINE
8
boundary
62
5
39
2
10
56.615272
20
215.553690
11
57.613970
21
218.503105
0
LINE
8
boundary
62
5
39
2
10
57.613970
20
218.503105
11
58.586755
21
221.538030
0
LINE
8
boundary
62
5
39
2
10
58.586755
20
221.538030
11
59.060423
21
223.085736
0
LINE
8
boundary
62
5
39
2
10
59.060423
20
223.085736
11
59.523962
21
224.652756
0
LINE
8
boundary
62
5
39
2
10
59.523962
20
224.652756
11
59.976094
21
226.238227
0
LINE
8
boundary
62
5
39
2
10
59.976094
20
226.238227
11
60.415832
21
227.841639
0
LINE
8
boundary
62
5
39
2
10
60.415832
20
227.841639
11
60.841900
21
229.462284
0
LINE
8
boundary
62
5
39
2
10
60.841900
20
229.462284
11
61.253235
21
231.099393
0
LINE
8
boundary
62
5
39
2
10
61.253235
20
231.099393
11
61.648735
21
232.752563
0
LINE
8
boundary
62
5
39
2
10
61.648735
20
232.752563
11
62.027456
21
234.421070
0
LINE
8
boundary
62
5
39
2
10
62.027456
20
234.421070
11
62.388063
21
236.104277
0
LINE
8
boundary
62
5
39
2
10
62.388063
20
236.104277
11
62.729694
21
237.801745
0
LINE
8
boundary
62
5
39
2
10
62.729694
20
237.801745
11
63.051147
21
239.512782
0
LINE
8
boundary
62
5
39
2
10
63.051147
20
239.512782
11
63.351681
21
241.236694
0
LINE
8
boundary
62
5
39
2
10
63.351681
20
241.236694
11
63.630224
21
242.973248
0
LINE
8
boundary
62
5
39
2
10
63.630224
20
242.973248
11
63.885748
21
244.721621
0
LINE
8
boundary
62
5
39
2
10
63.885748
20
244.721621
11
64.117360
21
246.481389
0
LINE
8
boundary
62
5
39
2
10
64.117360
20
246.481389
11
64.324157
21
248.251991
0
LINE
8
boundary
62
5
39
2
10
64.324157
20
248.251991
11
64.505268
21
250.033113
0
LINE
8
boundary
62
5
39
2
10
64.505268
20
250.033113
11
64.659831
21
251.823972
0
LINE
8
boundary
62
5
39
2
10
64.659831
20
251.823972
11
64.786946
21
253.624256
0
LINE
8
boundary
62
5
39
2
10
64.786946
20
253.624256
11
64.885752
21
255.433226
0
LINE
8
boundary
62
5
39
2
10
64.885752
20
255.433226
11
64.955478
21
257.250736
0
LINE
8
boundary
62
5
39
2
10
64.955478
20
257.250736
11
64.995333
21
259.076141
0
LINE
8
boundary
62
5
39
2
10
64.995333
20
259.076141
11
65.004565
21
260.908952
0
LINE
8
boundary
62
5
39
2
10
65.004565
20
260.908952
11
64.982393
21
262.748777
0
LINE
8
boundary
62
5
39
2
10
64.982393
20
262.748777
11
64.928150
21
264.595038
0
LINE
8
boundary
62
5
39
2
10
64.928150
20
264.595038
11
64.840897
21
266.447428
0
LINE
8
boundary
62
5
39
2
10
64.840897
20
266.447428
11
64.720186
21
268.305384
0
LINE
8
boundary
62
5
39
2
10
64.720186
20
268.305384
11
64.565125
21
270.168441
0
LINE
8
boundary
62
5
39
2
10
64.565125
20
270.168441
11
64.375085
21
272.036313
0
LINE
8
boundary
62
5
39
2
10
64.375085
20
272.036313
11
64.149513
21
273.908375
0
LINE
8
boundary
62
5
39
2
10
64.149513
20
273.908375
11
63.887648
21
275.784323
0
LINE
8
boundary
62
5
39
2
10
63.887648
20
275.784323
11
63.588906
21
277.663666
0
LINE
8
boundary
62
5
39
2
10
63.588906
20
277.663666
11
63.252625
21
279.545867
0
LINE
8
boundary
62
5
39
2
10
63.252625
20
279.545867
11
62.878339
21
281.430639
0
LINE
8
boundary
62
5
39
2
10
62.878339
20
281.430639
11
62.465152
21
283.317545
0
LINE
8
boundary
62
5
39
2
10
62.465152
20
283.317545
11
62.012717
21
285.205856
0
LINE
8
boundary
62
5
39
2
10
62.012717
20
285.205856
11
61.520425
21
287.095494
0
LINE
8
boundary
62
5
39
2
10
61.520425
20
287.095494
11
60.987560
21
288.985889
0
LINE
8
boundary
62
5
39
2
10
60.987560
20
288.985889
11
60.413717
21
290.876670
0
LINE
8
boundary
62
5
39
2
10
60.413717
20
290.876670
11
59.798295
21
292.767255
0
LINE
8
boundary
62
5
39
2
10
59.798295
20
292.767255
11
59.474824
21
293.712384
0
LINE
8
boundary
62
5
39
2
10
59.474824
20
293.712384
11
59.140769
21
294.657318
0
LINE
8
boundary
62
5
39
2
10
59.140769
20
294.657318
11
58.796036
21
295.601900
0
LINE
8
boundary
62
5
39
2
10
58.796036
20
295.601900
11
58.440529
21
296.546227
0
LINE
8
boundary
62
5
39
2
10
58.440529
20
296.546227
11
58.074313
21
297.490248
0
LINE
8
boundary
62
5
39
2
10
58.074313
20
297.490248
11
57.697168
21
298.433789
0
LINE
8
boundary
62
5
39
2
10
57.697168
20
298.433789
11
57.309146
21
299.376901
0
LINE
8
boundary
62
5
39
2
10
57.309146
20
299.376901
11
56.910128
21
300.319473
0
LINE
8
boundary
62
5
39
2
10
56.910128
20
300.319473
11
56.499955
21
301.261500
0
LINE
8
boundary
62
5
39
2
10
56.499955
20
301.261500
11
56.078785
21
302.202795
0
LINE
8
boundary
62
5
39
2
10
56.078785
20
302.202795
11
55.646421
21
303.143386
0
LINE
8
boundary
62
5
39
2
10
55.646421
20
303.143386
11
55.202794
21
304.083383
0
LINE
8
boundary
62
5
39
2
10
55.202794
20
304.083383
11
54.747934
21
305.022418
0
LINE
8
boundary
62
5
39
2
10
54.747934
20
305.022418
11
54.281624
21
305.960599
0
LINE
8
boundary
62
5
39
2
10
54.281624
20
305.960599
11
53.803917
21
306.897879
0
LINE
8
boundary
62
5
39
2
10
53.803917
20
306.897879
11
53.314702
21
307.834089
0
LINE
8
boundary
62
5
39
2
10
53.314702
20
307.834089
11
52.814047
21
308.769411
0
LINE
8
boundary
62
5
39
2
10
52.814047
20
308.769411
11
52.301762
21
309.703433
0
LINE
8
boundary
62
5
39
2
10
52.301762
20
309.703433
11
51.777709
21
310.636413
0
LINE
8
boundary
62
5
39
2
10
51.777709
20
310.636413
11
51.242051
21
311.568213
0
LINE
8
boundary
62
5
39
2
10
51.242051
20
311.568213
11
50.694592
21
312.498673
0
LINE
8
boundary
62
5
39
2
10
50.694592
20
312.498673
11
50.135211
21
313.427755
0
LINE
8
boundary
62
5
39
2
10
50.135211
20
313.427755
11
49.564074
21
314.355543
0
LINE
8
boundary
62
5
39
2
10
49.564074
20
314.355543
11
48.980879
21
315.281771
0
LINE
8
boundary
62
5
39
2
10
48.980879
20
315.281771
11
48.385768
21
316.206648
0
LINE
8
boundary
62
5
39
2
10
48.385768
20
316.206648
11
47.778537
21
317.129737
0
LINE
8
boundary
62
5
39
2
10
47.778537
20
317.129737
11
47.159083
21
318.051341
0
LINE
8
boundary
62
5
39
2
10
47.159083
20
318.051341
11
46.527581
21
318.971174
0
LINE
8
boundary
62
5
39
2
10
46.527581
20
318.971174
11
45.883877
21
319.889309
0
LINE
8
boundary
62
5
39
2
10
45.883877
20
319.889309
11
45.227831
21
320.805554
0
LINE
8
boundary
62
5
39
2
10
45.227831
20
320.805554
11
44.559464
21
321.720019
0
LINE
8
boundary
62
5
39
2
10
44.559464
20
321.720019
11
43.878611
21
322.632506
0
LINE
8
boundary
62
5
39
2
10
43.878611
20
322.632506
11
43.185427
21
323.543056
0
LINE
8
boundary
62
5
39
2
10
43.185427
20
323.543056
11
42.479645
21
324.451424
0
LINE
8
boundary
62
5
39
2
10
42.479645
20
324.451424
11
41.761350
21
325.357737
0
LINE
8
boundary
62
5
39
2
10
41.761350
20
325.357737
11
41.030525
21
326.261876
0
LINE
8
boundary
62
5
39
2
10
41.030525
20
326.261876
11
40.286905
21
327.163726
0
LINE
8
boundary
62
5
39
2
10
40.286905
20
327.163726
11
39.530579
21
328.063214
0
LINE
8
boundary
62
5
39
2
10
39.530579
20
328.063214
11
38.761513
21
328.960382
0
LINE
8
boundary
62
5
39
2
10
38.761513
20
328.960382
11
37.979657
21
329.855140
0
LINE
8
boundary
62
5
39
2
10
37.979657
20
329.855140
11
37.764489
21
330.383106
0
LINE
8
boundary
62
5
39
2
10
37.764489
20
330.383106
11
37.575337
21
330.887443
0
LINE
8
boundary
62
5
39
2
10
37.575337
20
330.887443
11
37.411304
21
331.368294
0
LINE
8
boundary
62
5
39
2
10
37.411304
20
331.368294
11
37.156434
21
332.261271
0
LINE
8
boundary
62
5
39
2
10
37.156434
20
332.261271
11
36.994700
21
333.065972
0
LINE
8
boundary
62
5
39
2
10
36.994700
20
333.065972
11
36.921305
21
333.785452
0
LINE
8
boundary
62
5
39
2
10
36.921305
20
333.785452
11
36.931439
21
334.423304
0
LINE
8
boundary
62
5
39
2
10
36.931439
20
334.423304
11
37.020278
21
334.982866
0
LINE
8
boundary
62
5
39
2
10
37.020278
20
334.982866
11
37.183403
21
335.467639
0
LINE
8
boundary
62
5
39
2
10
37.183403
20
335.467639
11
37.557233
21
336.062046
0
LINE
8
boundary
62
5
39
2
10
37.557233
20
336.062046
11
38.072992
21
336.507773
0
LINE
8
boundary
62
5
39
2
10
38.072992
20
336.507773
11
38.716080
21
336.816331
0
LINE
8
boundary
62
5
39
2
10
38.716080
20
336.816331
11
39.208339
21
336.951890
0
LINE
8
boundary
62
5
39
2
10
39.208339
20
336.951890
11
39.746627
21
337.035233
0
LINE
8
boundary
62
5
39
2
10
39.746627
20
337.035233
11
40.326532
21
337.069959
0
LINE
8
boundary
62
5
39
2
10
40.326532
20
337.069959
11
40.944071
21
337.059510
0
LINE
8
boundary
62
5
39
2
10
40.944071
20
337.059510
11
41.594925
21
337.007488
0
LINE
8
boundary
62
5
39
2
10
41.594925
20
337.007488
11
42.274898
21
336.917391
0
LINE
8
boundary
62
5
39
2
10
42.274898
20
336.917391
11
42.979950
21
336.792700
0
LINE
8
boundary
62
5
39
2
10
42.979950
20
336.792700
11
43.705719
21
336.636937
0
LINE
8
boundary
62
5
39
2
10
43.705719
20
336.636937
11
44.448030
21
336.453718
0
LINE
8
boundary
62
5
39
2
10
44.448030
20
336.453718
11
45.202731
21
336.246395
0
LINE
8
boundary
62
5
39
2
10
45.202731
20
336.246395
11
45.965391
21
336.018683
0
LINE
8
boundary
62
5
39
2
10
45.965391
20
336.018683
11
46.731940
21
335.773925
0
LINE
8
boundary
62
5
39
2
10
46.731940
20
335.773925
11
47.497940
21
335.515588
0
LINE
8
boundary
62
5
39
2
10
47.497940
20
335.515588
11
48.259017
21
335.247400
0
LINE
8
boundary
62
5
39
2
10
48.259017
20
335.247400
11
49.749371
21
334.695074
0
LINE
8
boundary
62
5
39
2
10
49.749371
20
334.695074
11
51.167801
21
334.144620
0
LINE
8
boundary
62
5
39
2
10
51.167801
20
334.144620
11
52.478892
21
333.624224
0
LINE
8
boundary
62
5
39
2
10
52.478892
20
333.624224
11
53.310366
21
333.039477
0
LINE
8
boundary
62
5
39
2
10
53.310366
20
333.039477
11
54.155490
21
332.473993
0
LINE
8
boundary
62
5
39
2
10
54.155490
20
332.473993
11
55.013468
21
331.927922
0
LINE
8
boundary
62
5
39
2
10
55.013468
20
331.927922
11
55.883953
21
331.401263
0
LINE
8
boundary
62
5
39
2
10
55.883953
20
331.401263
11
56.766250
21
330.893806
0
LINE
8
boundary
62
5
39
2
10
56.766250
20
330.893806
11
57.659789
21
330.405659
0
LINE
8
boundary
62
5
39
2
10
57.659789
20
330.405659
11
58.564016
21
329.936814
0
LINE
8
boundary
62
5
39
2
10
58.564016
20
329.936814
11
59.478203
21
329.487237
0
LINE
8
boundary
62
5
39
2
10
59.478203
20
329.487237
11
60.401999
21
329.056716
0
LINE
8
boundary
62
5
39
2
10
60.401999
20
329.056716
11
61.334687
21
328.645554
0
LINE
8
boundary
62
5
39
2
10
61.334687
20
328.645554
11
62.275633
21
328.253447
0
LINE
8
boundary
62
5
39
2
10
62.275633
20
328.253447
11
63.224201
21
327.880545
0
LINE
8
boundary
62
5
39
2
10
63.224201
20
327.880545
11
64.179846
21
327.526765
0
LINE
8
boundary
62
5
39
2
10
64.179846
20
327.526765
11
65.142013
21
327.192054
0
LINE
8
boundary
62
5
39
2
10
65.142013
20
327.192054
11
66.109993
21
326.876500
0
LINE
8
boundary
62
5
39
2
10
66.109993
20
326.876500
11
67.083286
21
326.579961
0
LINE
8
boundary
62
5
39
2
10
67.083286
20
326.579961
11
68.061201
21
326.302473
0
LINE
8
boundary
62
5
39
2
10
68.061201
20
326.302473
11
69.043203
21
326.043944
0
LINE
8
boundary
62
5
39
2
10
69.043203
20
326.043944
11
70.028538
21
325.804491
0
LINE
8
boundary
62
5
39
2
10
70.028538
20
325.804491
11
71.016758
21
325.583890
0
LINE
8
boundary
62
5
39
2
10
71.016758
20
325.583890
11
72.007216
21
325.382418
0
LINE
8
boundary
62
5
39
2
10
72.007216
20
325.382418
11
72.999310
21
325.199845
0
LINE
8
boundary
62
5
39
2
10
72.999310
20
325.199845
11
73.992426
21
325.036105
0
LINE
8
boundary
62
5
39
2
10
73.992426
20
325.036105
11
74.985907
21
324.891247
0
LINE
8
boundary
62
5
39
2
10
74.985907
20
324.891247
11
75.979367
21
324.765375
0
LINE
8
boundary
62
5
39
2
10
75.979367
20
324.765375
11
76.971895
21
324.658368
0
LINE
8
boundary
62
5
39
2
10
76.971895
20
324.658368
11
77.963143
21
324.570168
0
LINE
8
boundary
62
5
39
2
10
77.963143
20
324.570168
11
78.952506
21
324.500808
0
LINE
8
boundary
62
5
39
2
10
78.952506
20
324.500808
11
79.939224
21
324.450197
0
LINE
8
boundary
62
5
39
2
10
79.939224
20
324.450197
11
80.922948
21
324.418480
0
LINE
8
boundary
62
5
39
2
10
80.922948
20
324.418480
11
81.902975
21
324.405494
0
LINE
8
boundary
62
5
39
2
10
81.902975
20
324.405494
11
82.878720
21
324.411300
0
LINE
8
boundary
62
5
39
2
10
82.878720
20
324.411300
11
83.849606
21
324.435840
0
LINE
8
boundary
62
5
39
2
10
83.849606
20
324.435840
11
84.815273
21
324.479205
0
LINE
8
boundary
62
5
39
2
10
84.815273
20
324.479205
11
85.774882
21
324.541298
0
LINE
8
boundary
62
5
39
2
10
85.774882
20
324.541298
11
86.728103
21
324.622171
0
LINE
8
boundary
62
5
39
2
10
86.728103
20
324.622171
11
87.674319
21
324.721666
0
LINE
8
boundary
62
5
39
2
10
87.674319
20
324.721666
11
88.612968
21
324.839899
0
LINE
8
boundary
62
5
39
2
10
88.612968
20
324.839899
11
89.543540
21
324.976990
0
LINE
8
boundary
62
5
39
2
10
89.543540
20
324.976990
11
90.465672
21
325.132707
0
LINE
8
boundary
62
5
39
2
10
90.465672
20
325.132707
11
91.378562
21
325.307123
0
LINE
8
boundary
62
5
39
2
10
91.378562
20
325.307123
11
92.281905
21
325.500122
0
LINE
8
boundary
62
5
39
2
10
92.281905
20
325.500122
11
93.175155
21
325.711984
0
LINE
8
boundary
62
5
39
2
10
93.175155
20
325.711984
11
94.057880
21
325.942552
0
LINE
8
boundary
62
5
39
2
10
94.057880
20
325.942552
11
94.929419
21
326.191703
0
LINE
8
boundary
62
5
39
2
10
94.929419
20
326.191703
11
95.789397
21
326.459671
0
LINE
8
boundary
62
5
39
2
10
95.789397
20
326.459671
11
96.637488
21
326.746321
0
LINE
8
boundary
62
5
39
2
10
96.637488
20
326.746321
11
97.473016
21
327.051586
0
LINE
8
boundary
62
5
39
2
10
97.473016
20
327.051586
11
98.295633
21
327.375817
0
LINE
8
boundary
62
5
39
2
10
98.295633
20
327.375817
11
99.104898
21
327.718583
0
LINE
8
boundary
62
5
39
2
10
99.104898
20
327.718583
11
99.900322
21
328.080113
0
LINE
8
boundary
62
5
39
2
10
99.900322
20
328.080113
11
100.681601
21
328.460353
0
LINE
8
boundary
62
5
39
2
10
100.681601
20
328.460353
11
101.448121
21
328.859413
0
LINE
8
boundary
62
5
39
2
10
101.448121
20
328.859413
11
102.199588
21
329.277238
0
LINE
8
boundary
62
5
39
2
10
102.199588
20
329.277238
11
102.935641
21
329.713802
0
LINE
8
boundary
62
5
39
2
10
102.935641
20
329.713802
11
103.655739
21
330.169050
0
LINE
8
boundary
62
5
39
2
10
103.655739
20
330.169050
11
104.359527
21
330.643224
0
LINE
8
boundary
62
5
39
2
10
104.359527
20
330.643224
11
105.046742
21
331.136166
0
LINE
8
boundary
62
5
39
2
10
105.046742
20
331.136166
11
105.716886
21
331.647909
0
LINE
8
boundary
62
5
39
2
10
105.716886
20
331.647909
11
106.369570
21
332.178560
0
LINE
8
boundary
62
5
39
2
10
106.369570
20
332.178560
11
107.004476
21
332.727945
0
LINE
8
boundary
62
5
39
2
10
107.004476
20
332.727945
11
107.621200
21
333.296359
0
LINE
8
boundary
62
5
39
2
10
107.621200
20
333.296359
11
108.219461
21
333.883656
0
LINE
8
boundary
62
5
39
2
10
108.219461
20
333.883656
11
108.798837
21
334.489720
0
LINE
8
boundary
62
5
39
2
10
108.798837
20
334.489720
11
109.491058
21
335.035168
0
LINE
8
boundary
62
5
39
2
10
109.491058
20
335.035168
11
110.111364
21
335.597988
0
LINE
8
boundary
62
5
39
2
10
110.111364
20
335.597988
11
110.661587
21
336.177679
0
LINE
8
boundary
62
5
39
2
10
110.661587
20
336.177679
11
111.143441
21
336.773923
0
LINE
8
boundary
62
5
39
2
10
111.143441
20
336.773923
11
111.558748
21
337.386345
0
LINE
8
boundary
62
5
39
2
10
111.558748
20
337.386345
11
111.909149
21
338.014366
0
LINE
8
boundary
62
5
39
2
10
111.909149
20
338.014366
11
112.196434
21
338.657534
0
LINE
8
boundary
62
5
39
2
10
112.196434
20
338.657534
11
112.422220
21
339.315606
0
LINE
8
boundary
62
5
39
2
10
112.422220
20
339.315606
11
112.588178
21
339.987920
0
LINE
8
boundary
62
5
39
2
10
112.588178
20
339.987920
11
112.695938
21
340.674060
0
LINE
8
boundary
62
5
39
2
10
112.695938
20
340.674060
11
112.747067
21
341.373648
0
LINE
8
boundary
62
5
39
2
10
112.747067
20
341.373648
11
112.743240
21
342.086250
0
LINE
8
boundary
62
5
39
2
10
112.743240
20
342.086250
11
112.685919
21
342.811386
0
LINE
8
boundary
62
5
39
2
10
112.685919
20
342.811386
11
112.576714
21
343.548800
0
LINE
8
boundary
62
5
39
2
10
112.576714
20
343.548800
11
112.417283
21
344.297599
0
LINE
8
boundary
62
5
39
2
10
112.417283
20
344.297599
11
112.208869
21
345.057754
0
LINE
8
boundary
62
5
39
2
10
112.208869
20
345.057754
11
111.953286
21
345.828752
0
LINE
8
boundary
62
5
39
2
10
111.953286
20
345.828752
11
111.651872
21
346.609855
0
LINE
8
boundary
62
5
39
2
10
111.651872
20
346.609855
11
111.306143
21
347.400951
0
LINE
8
boundary
62
5
39
2
10
111.306143
20
347.400951
11
110.917696
21
348.201433
0
LINE
8
boundary
62
5
39
2
10
110.917696
20
348.201433
11
110.487919
21
349.010857
0
LINE
8
boundary
62
5
39
2
10
110.487919
20
349.010857
11
110.018396
21
349.828903
0
LINE
8
boundary
62
5
39
2
10
110.018396
20
349.828903
11
109.510593
21
350.654887
0
LINE
8
boundary
62
5
39
2
10
109.510593
20
350.654887
11
108.965933
21
351.488623
0
LINE
8
boundary
62
5
39
2
10
108.965933
20
351.488623
11
108.385956
21
352.329341
0
LINE
8
boundary
62
5
39
2
10
108.385956
20
352.329341
11
107.772166
21
353.176869
0
LINE
8
boundary
62
5
39
2
10
107.772166
20
353.176869
11
107.126034
21
354.030662
0
LINE
8
boundary
62
5
39
2
10
107.126034
20
354.030662
11
106.449094
21
354.890225
0
LINE
8
boundary
62
5
39
2
10
106.449094
20
354.890225
11
105.742775
21
355.755233
0
LINE
8
boundary
62
5
39
2
10
105.742775
20
355.755233
11
105.008597
21
356.625144
0
LINE
8
boundary
62
5
39
2
10
105.008597
20
356.625144
11
104.248045
21
357.499383
0
LINE
8
boundary
62
5
39
2
10
104.248045
20
357.499383
11
103.462717
21
358.377586
0
LINE
8
boundary
62
5
39
2
10
103.462717
20
358.377586
11
102.653963
21
359.259448
0
LINE
8
boundary
62
5
39
2
10
102.653963
20
359.259448
11
101.823404
21
360.144356
0
LINE
8
boundary
62
5
39
2
10
101.823404
20
360.144356
11
100.972439
21
361.031765
0
LINE
8
boundary
62
5
39
2
10
100.972439
20
361.031765
11
100.102728
21
361.921507
0
LINE
8
boundary
62
5
39
2
10
100.102728
20
361.921507
11
99.215701
21
362.812837
0
LINE
8
boundary
62
5
39
2
10
99.215701
20
362.812837
11
98.312821
21
363.705383
0
LINE
8
boundary
62
5
39
2
10
98.312821
20
363.705383
11
97.395557
21
364.598732
0
LINE
8
boundary
62
5
39
2
10
97.395557
20
364.598732
11
96.465422
21
365.492275
0
LINE
8
boundary
62
5
39
2
10
96.465422
20
365.492275
11
95.524043
21
366.385706
0
LINE
8
boundary
62
5
39
2
10
95.524043
20
366.385706
11
94.572816
21
367.278535
0
LINE
8
boundary
62
5
39
2
10
94.572816
20
367.278535
11
94.180454
21
367.634992
0
LINE
8
boundary
62
5
39
2
10
94.180454
20
367.634992
11
92.646736
21
369.060368
0
LINE
8
boundary
62
5
39
2
10
92.646736
20
369.060368
11
92.237981
21
369.426412
0
LINE
8
boundary
62
5
39
2
10
92.237981
20
369.426412
11
90.699120
21
370.834140
0
LINE
8
boundary
62
5
39
2
10
90.699120
20
370.834140
11
90.275804
21
371.209110
0
LINE
8
boundary
62
5
39
2
10
90.275804
20
371.209110
11
88.741656
21
372.595686
0
LINE
8
boundary
62
5
39
2
10
88.741656
20
372.595686
11
88.305841
21
372.979079
0
LINE
8
boundary
62
5
39
2
10
88.305841
20
372.979079
11
86.785982
21
374.341608
0
LINE
8
boundary
62
5
39
2
10
86.785982
20
374.341608
11
86.339888
21
374.732626
0
LINE
8
boundary
62
5
39
2
10
86.339888
20
374.732626
11
84.843588
21
376.068078
0
LINE
8
boundary
62
5
39
2
10
84.843588
20
376.068078
11
83.924195
21
376.875340
0
LINE
8
boundary
62
5
39
2
10
83.924195
20
376.875340
11
81.043701
21
379.446154
0
LINE
8
boundary
62
5
39
2
10
81.043701
20
379.446154
11
80.115769
21
380.272368
0
LINE
8
boundary
62
5
39
2
10
80.115769
20
380.272368
11
77.430817
21
382.698928
0
LINE
8
boundary
62
5
39
2
10
77.430817
20
382.698928
11
76.975274
21
383.112797
0
LINE
8
boundary
62
5
39
2
10
76.975274
20
383.112797
11
75.721296
21
384.268569
0
LINE
8
boundary
62
5
39
2
10
75.721296
20
384.268569
11
75.274057
21
384.682986
0
LINE
8
boundary
62
5
39
2
10
75.274057
20
384.682986
11
74.090631
21
385.795055
0
LINE
8
boundary
62
5
39
2
10
74.090631
20
385.795055
11
73.107935
21
386.715764
0
LINE
8
boundary
62
5
39
2
10
73.107935
20
386.715764
11
72.131277
21
387.611717
0
LINE
8
boundary
62
5
39
2
10
72.131277
20
387.611717
11
71.160402
21
388.483545
0
LINE
8
boundary
62
5
39
2
10
71.160402
20
388.483545
11
70.195086
21
389.331237
0
LINE
8
boundary
62
5
39
2
10
70.195086
20
389.331237
11
69.235234
21
390.155404
0
LINE
8
boundary
62
5
39
2
10
69.235234
20
390.155404
11
68.280620
21
390.956315
0
LINE
8
boundary
62
5
39
2
10
68.280620
20
390.956315
11
67.331285
21
391.734124
0
LINE
8
boundary
62
5
39
2
10
67.331285
20
391.734124
11
66.386986
21
392.489391
0
LINE
8
boundary
62
5
39
2
10
66.386986
20
392.489391
11
65.447558
21
393.222392
0
LINE
8
boundary
62
5
39
2
10
65.447558
20
393.222392
11
64.512838
21
393.933376
0
LINE
8
boundary
62
5
39
2
10
64.512838
20
393.933376
11
63.582771
21
394.622911
0
LINE
8
boundary
62
5
39
2
10
63.582771
20
394.622911
11
62.657197
21
395.291104
0
LINE
8
boundary
62
5
39
2
10
62.657197
20
395.291104
11
61.736009
21
395.938570
0
LINE
8
boundary
62
5
39
2
10
61.736009
20
395.938570
11
60.819132
21
396.565510
0
LINE
8
boundary
62
5
39
2
10
60.819132
20
396.565510
11
59.906347
21
397.172192
0
LINE
8
boundary
62
5
39
2
10
59.906347
20
397.172192
11
58.997578
21
397.759198
0
LINE
8
boundary
62
5
39
2
10
58.997578
20
397.759198
11
58.092770
21
398.326726
0
LINE
8
boundary
62
5
39
2
10
58.092770
20
398.326726
11
57.191711
21
398.875283
0
LINE
8
boundary
62
5
39
2
10
57.191711
20
398.875283
11
56.294380
21
399.405203
0
LINE
8
boundary
62
5
39
2
10
56.294380
20
399.405203
11
55.400714
21
399.916724
0
LINE
8
boundary
62
5
39
2
10
55.400714
20
399.916724
11
54.510553
21
400.410254
0
LINE
8
boundary
62
5
39
2
10
54.510553
20
400.410254
11
53.623777
21
400.886227
0
LINE
8
boundary
62
5
39
2
10
53.623777
20
400.886227
11
52.740322
21
401.345043
0
LINE
8
boundary
62
5
39
2
10
52.740322
20
401.345043
11
51.860151
21
401.787061
0
LINE
8
boundary
62
5
39
2
10
51.860151
20
401.787061
11
50.983198
21
402.212499
0
LINE
8
boundary
62
5
39
2
10
50.983198
20
402.212499
11
50.109210
21
402.622059
0
LINE
8
boundary
62
5
39
2
10
50.109210
20
402.622059
11
49.238326
21
403.015722
0
LINE
8
boundary
62
5
39
2
10
49.238326
20
403.015722
11
48.370352
21
403.394120
0
LINE
8
boundary
62
5
39
2
10
48.370352
20
403.394120
11
47.505332
21
403.757572
0
LINE
8
boundary
62
5
39
2
10
47.505332
20
403.757572
11
46.643044
21
404.106605
0
LINE
8
boundary
62
5
39
2
10
46.643044
20
404.106605
11
45.783574
21
404.441250
0
LINE
8
boundary
62
5
39
2
10
45.783574
20
404.441250
11
44.926786
21
404.762272
0
LINE
8
boundary
62
5
39
2
10
44.926786
20
404.762272
11
44.072592
21
405.069828
0
LINE
8
boundary
62
5
39
2
10
44.072592
20
405.069828
11
43.221011
21
405.364364
0
LINE
8
boundary
62
5
39
2
10
43.221011
20
405.364364
11
42.371942
21
405.646261
0
LINE
8
boundary
62
5
39
2
10
42.371942
20
405.646261
11
41.525395
21
405.916053
0
LINE
8
boundary
62
5
39
2
10
41.525395
20
405.916053
11
40.681308
21
406.173857
0
LINE
8
boundary
62
5
39
2
10
40.681308
20
406.173857
11
39.839637
21
406.420136
0
LINE
8
boundary
62
5
39
2
10
39.839637
20
406.420136
11
39.000280
21
406.655371
0
LINE
8
boundary
62
5
39
2
10
39.000280
20
406.655371
11
38.163386
21
406.880056
0
LINE
8
boundary
62
5
39
2
10
38.163386
20
406.880056
11
37.328645
21
407.094373
0
LINE
8
boundary
62
5
39
2
10
37.328645
20
407.094373
11
36.496240
21
407.298731
0
LINE
8
boundary
62
5
39
2
10
36.496240
20
407.298731
11
35.702450
21
407.480844
0
LINE
8
boundary
62
5
39
2
10
35.702450
20
407.480844
11
34.838171
21
407.679500
0
LINE
8
boundary
62
5
39
2
10
34.838171
20
407.679500
11
34.033480
21
407.848117
0
LINE
8
boundary
62
5
39
2
10
34.033480
20
407.848117
11
33.188929
21
408.025322
0
LINE
8
boundary
62
5
39
2
10
33.188929
20
408.025322
11
32.373120
21
408.181400
0
LINE
8
boundary
62
5
39
2
10
32.373120
20
408.181400
11
31.548364
21
408.339478
0
LINE
8
boundary
62
5
39
2
10
31.548364
20
408.339478
11
30.721181
21
408.484222
0
LINE
8
boundary
62
5
39
2
10
30.721181
20
408.484222
11
29.916397
21
408.625131
0
LINE
8
boundary
62
5
39
2
10
29.916397
20
408.625131
11
29.077422
21
408.759467
0
LINE
8
boundary
62
5
39
2
10
29.077422
20
408.759467
11
28.292908
21
408.885300
0
LINE
8
boundary
62
5
39
2
10
28.292908
20
408.885300
11
27.441708
21
409.010787
0
LINE
8
boundary
62
5
39
2
10
27.441708
20
409.010787
11
26.677810
21
409.123464
0
LINE
8
boundary
62
5
39
2
10
26.677810
20
409.123464
11
25.813945
21
409.241261
0
LINE
8
boundary
62
5
39
2
10
25.813945
20
409.241261
11
25.071280
21
409.342601
0
LINE
8
boundary
62
5
39
2
10
25.071280
20
409.342601
11
24.194021
21
409.454080
0
LINE
8
boundary
62
5
39
2
10
24.194021
20
409.454080
11
23.473285
21
409.545761
0
LINE
8
boundary
62
5
39
2
10
23.473285
20
409.545761
11
22.581854
21
409.652725
0
LINE
8
boundary
62
5
39
2
10
22.581854
20
409.652725
11
21.883803
21
409.736532
0
LINE
8
boundary
62
5
39
2
10
21.883803
20
409.736532
11
20.019195
21
409.947324
0
LINE
8
boundary
62
5
39
2
10
20.019195
20
409.947324
11
18.731108
21
410.093027
0
LINE
8
boundary
62
5
39
2
10
18.731108
20
410.093027
11
18.259810
21
406.086165
0
LINE
8
boundary
62
5
39
2
10
18.259810
20
406.086165
11
17.832285
21
402.598895
0
LINE
8
boundary
62
5
39
2
10
17.832285
20
402.598895
11
19.777283
21
402.388391
0
LINE
8
boundary
62
5
39
2
10
19.777283
20
402.388391
11
22.166458
21
402.129808
0
LINE
8
boundary
62
5
39
2
10
22.166458
20
402.129808
11
22.719653
21
401.965690
0
LINE
8
boundary
62
5
39
2
10
22.719653
20
401.965690
11
23.391013
21
401.766225
0
LINE
8
boundary
62
5
39
2
10
23.391013
20
401.766225
11
23.926361
21
401.601311
0
LINE
8
boundary
62
5
39
2
10
23.926361
20
401.601311
11
24.598541
21
401.393881
0
LINE
8
boundary
62
5
39
2
10
24.598541
20
401.393881
11
25.116828
21
401.228205
0
LINE
8
boundary
62
5
39
2
10
25.116828
20
401.228205
11
42.258632
21
401.205355
0
LINE
8
boundary
62
5
39
2
10
42.258632
20
401.205355
11
42.258632
21
398.459355
0
LINE
8
boundary
62
5
39
2
10
42.258632
20
398.459355
11
33.193389
21
398.459356
0
LINE
8
boundary
62
5
39
2
10
33.193389
20
398.459356
11
33.654125
21
398.117442
0
LINE
8
boundary
62
5
39
2
10
33.654125
20
398.117442
11
34.711639
21
397.672809
0
LINE
8
boundary
62
5
39
2
10
34.711639
20
397.672809
11
35.752873
21
397.220987
0
LINE
8
boundary
62
5
39
2
10
35.752873
20
397.220987
11
36.777769
21
396.761981
0
LINE
8
boundary
62
5
39
2
10
36.777769
20
396.761981
11
37.786505
21
396.295924
0
LINE
8
boundary
62
5
39
2
10
37.786505
20
396.295924
11
38.779101
21
395.823079
0
LINE
8
boundary
62
5
39
2
10
38.779101
20
395.823079
11
39.755649
21
395.343502
0
LINE
8
boundary
62
5
39
2
10
39.755649
20
395.343502
11
40.716190
21
394.857410
0
LINE
8
boundary
62
5
39
2
10
40.716190
20
394.857410
11
41.660728
21
394.364898
0
LINE
8
boundary
62
5
39
2
10
41.660728
20
394.364898
11
42.589412
21
393.866163
0
LINE
8
boundary
62
5
39
2
10
42.589412
20
393.866163
11
43.502256
21
393.361314
0
LINE
8
boundary
62
5
39
2
10
43.502256
20
393.361314
11
44.399229
21
392.850539
0
LINE
8
boundary
62
5
39
2
10
44.399229
20
392.850539
11
45.280327
21
392.333812
0
LINE
8
boundary
62
5
39
2
10
45.280327
20
392.333812
11
46.145850
21
391.811538
0
LINE
8
boundary
62
5
39
2
10
46.145850
20
391.811538
11
46.995637
21
391.283733
0
LINE
8
boundary
62
5
39
2
10
46.995637
20
391.283733
11
47.829758
21
390.750513
0
LINE
8
boundary
62
5
39
2
10
47.829758
20
390.750513
11
48.648282
21
390.212161
0
LINE
8
boundary
62
5
39
2
10
48.648282
20
390.212161
11
49.451279
21
389.668473
0
LINE
8
boundary
62
5
39
2
10
49.451279
20
389.668473
11
50.238669
21
389.120089
0
LINE
8
boundary
62
5
39
2
10
50.238669
20
389.120089
11
51.010661
21
388.566743
0
LINE
8
boundary
62
5
39
2
10
51.010661
20
388.566743
11
51.767150
21
388.008838
0
LINE
8
boundary
62
5
39
2
10
51.767150
20
388.008838
11
52.508154
21
387.446445
0
LINE
8
boundary
62
5
39
2
10
52.508154
20
387.446445
11
53.233737
21
386.879568
0
LINE
8
boundary
62
5
39
2
10
53.233737
20
386.879568
11
53.943976
21
386.308501
0
LINE
8
boundary
62
5
39
2
10
53.943976
20
386.308501
11
54.638916
21
385.733506
0
LINE
8
boundary
62
5
39
2
10
54.638916
20
385.733506
11
55.318539
21
385.154481
0
LINE
8
boundary
62
5
39
2
10
55.318539
20
385.154481
11
55.982772
21
384.571551
0
LINE
8
boundary
62
5
39
2
10
55.982772
20
384.571551
11
56.631800
21
383.985036
0
LINE
8
boundary
62
5
39
2
10
56.631800
20
383.985036
11
57.265513
21
383.395083
0
LINE
8
boundary
62
5
39
2
10
57.265513
20
383.395083
11
57.884092
21
382.801644
0
LINE
8
boundary
62
5
39
2
10
57.884092
20
382.801644
11
58.487364
21
382.205066
0
LINE
8
boundary
62
5
39
2
10
58.487364
20
382.205066
11
59.075522
21
381.605348
0
LINE
8
boundary
62
5
39
2
10
59.075522
20
381.605348
11
59.648462
21
381.002663
0
LINE
8
boundary
62
5
39
2
10
59.648462
20
381.002663
11
60.206285
21
380.397117
0
LINE
8
boundary
62
5
39
2
10
60.206285
20
380.397117
11
60.748992
21
379.788926
0
LINE
8
boundary
62
5
39
2
10
60.748992
20
379.788926
11
61.276573
21
379.178340
0
LINE
8
boundary
62
5
39
2
10
61.276573
20
379.178340
11
61.788972
21
378.565139
0
LINE
8
boundary
62
5
39
2
10
61.788972
20
378.565139
11
62.286296
21
377.949826
0
LINE
8
boundary
62
5
39
2
10
62.286296
20
377.949826
11
62.768643
21
377.332314
0
LINE
8
boundary
62
5
39
2
10
62.768643
20
377.332314
11
63.235800
21
376.712898
0
LINE
8
boundary
62
5
39
2
10
63.235800
20
376.712898
11
63.688012
21
376.091625
0
LINE
8
boundary
62
5
39
2
10
63.688012
20
376.091625
11
64.125070
21
375.468644
0
LINE
8
boundary
62
5
39
2
10
64.125070
20
375.468644
11
64.547215
21
374.844174
0
LINE
8
boundary
62
5
39
2
10
64.547215
20
374.844174
11
64.954253
21
374.218044
0
LINE
8
boundary
62
5
39
2
10
64.954253
20
374.218044
11
65.346400
21
373.590806
0
LINE
8
boundary
62
5
39
2
10
65.346400
20
373.590806
11
65.723386
21
372.962282
0
LINE
8
boundary
62
5
39
2
10
65.723386
20
372.962282
11
66.085485
21
372.332792
0
LINE
8
boundary
62
5
39
2
10
66.085485
20
372.332792
11
66.432594
21
371.702397
0
LINE
8
boundary
62
5
39
2
10
66.432594
20
371.702397
11
66.764737
21
371.071310
0
LINE
8
boundary
62
5
39
2
10
66.764737
20
371.071310
11
67.081922
21
370.439514
0
LINE
8
boundary
62
5
39
2
10
67.081922
20
370.439514
11
67.384110
21
369.807357
0
LINE
8
boundary
62
5
39
2
10
67.384110
20
369.807357
11
67.671270
21
369.174749
0
LINE
8
boundary
62
5
39
2
10
67.671270
20
369.174749
11
67.943605
21
368.541789
0
LINE
8
boundary
62
5
39
2
10
67.943605
20
368.541789
11
68.200922
21
367.908849
0
LINE
8
boundary
62
5
39
2
10
68.200922
20
367.908849
11
68.443355
21
367.276070
0
LINE
8
boundary
62
5
39
2
10
68.443355
20
367.276070
11
68.438848
21
366.335252
0
LINE
8
boundary
62
5
39
2
10
68.438848
20
366.335252
11
68.460311
21
365.379681
0
LINE
8
boundary
62
5
39
2
10
68.460311
20
365.379681
11
68.502180
21
364.412386
0
LINE
8
boundary
62
5
39
2
10
68.502180
20
364.412386
11
68.559075
21
363.437012
0
LINE
8
boundary
62
5
39
2
10
68.559075
20
363.437012
11
68.695824
21
361.475010
0
LINE
8
boundary
62
5
39
2
10
68.695824
20
361.475010
11
68.825961
21
359.520507
0
LINE
8
boundary
62
5
39
2
10
68.825961
20
359.520507
11
68.874413
21
358.554229
0
LINE
8
boundary
62
5
39
2
10
68.874413
20
358.554229
11
68.904292
21
357.599926
0
LINE
8
boundary
62
5
39
2
10
68.904292
20
357.599926
11
68.909668
21
356.660620
0
LINE
8
boundary
62
5
39
2
10
68.909668
20
356.660620
11
68.884858
21
355.739804
0
LINE
8
boundary
62
5
39
2
10
68.884858
20
355.739804
11
68.823894
21
354.840642
0
LINE
8
boundary
62
5
39
2
10
68.823894
20
354.840642
11
68.769136
21
354.331895
0
LINE
8
boundary
62
5
39
2
10
68.769136
20
354.331895
11
68.652141
21
353.539713
0
LINE
8
boundary
62
5
39
2
10
68.652141
20
353.539713
11
68.475253
21
352.709100
0
LINE
8
boundary
62
5
39
2
10
68.475253
20
352.709100
11
68.241649
21
351.911597
0
LINE
8
boundary
62
5
39
2
10
68.241649
20
351.911597
11
67.945334
21
351.150357
0
LINE
8
boundary
62
5
39
2
10
67.945334
20
351.150357
11
67.580293
21
350.428952
0
LINE
8
boundary
62
5
39
2
10
67.580293
20
350.428952
11
67.140594
21
349.750222
0
LINE
8
boundary
62
5
39
2
10
67.140594
20
349.750222
11
66.620151
21
349.117788
0
LINE
8
boundary
62
5
39
2
10
66.620151
20
349.117788
11
66.012972
21
348.534719
0
LINE
8
boundary
62
5
39
2
10
66.012972
20
348.534719
11
65.313202
21
348.004083
0
LINE
8
boundary
62
5
39
2
10
65.313202
20
348.004083
11
64.868757
21
347.727687
0
LINE
8
boundary
62
5
39
2
10
64.868757
20
347.727687
11
64.076598
21
347.314283
0
LINE
8
boundary
62
5
39
2
10
64.076598
20
347.314283
11
63.543656
21
347.088909
0
LINE
8
boundary
62
5
39
2
10
63.543656
20
347.088909
11
63.047610
21
346.906683
0
LINE
8
boundary
62
5
39
2
10
63.047610
20
346.906683
11
62.523165
21
346.740693
0
LINE
8
boundary
62
5
39
2
10
62.523165
20
346.740693
11
61.969542
21
346.590907
0
LINE
8
boundary
62
5
39
2
10
61.969542
20
346.590907
11
61.468154
21
346.473849
0
LINE
8
boundary
62
5
39
2
10
61.468154
20
346.473849
11
60.857787
21
346.355818
0
LINE
8
boundary
62
5
39
2
10
60.857787
20
346.355818
11
60.216233
21
346.255415
0
LINE
8
boundary
62
5
39
2
10
60.216233
20
346.255415
11
59.542719
21
346.173134
0
LINE
8
boundary
62
5
39
2
10
59.542719
20
346.173134
11
58.836525
21
346.109220
0
LINE
8
boundary
62
5
39
2
10
58.836525
20
346.109220
11
58.096989
21
346.064306
0
LINE
8
boundary
62
5
39
2
10
58.096989
20
346.064306
11
57.323433
21
346.038615
0
LINE
8
boundary
62
5
39
2
10
57.323433
20
346.038615
11
56.515326
21
346.032628
0
LINE
8
boundary
62
5
39
2
10
56.515326
20
346.032628
11
55.671793
21
346.046801
0
LINE
8
boundary
62
5
39
2
10
55.671793
20
346.046801
11
54.792163
21
346.081517
0
LINE
8
boundary
62
5
39
2
10
54.792163
20
346.081517
11
53.875978
21
346.137115
0
LINE
8
boundary
62
5
39
2
10
53.875978
20
346.137115
11
52.922535
21
346.214169
0
LINE
8
boundary
62
5
39
2
10
52.922535
20
346.214169
11
51.232326
21
346.814981
0
LINE
8
boundary
62
5
39
2
10
51.232326
20
346.814981
11
49.587294
21
347.385032
0
LINE
8
boundary
62
5
39
2
10
49.587294
20
347.385032
11
47.978719
21
347.924728
0
LINE
8
boundary
62
5
39
2
10
47.978719
20
347.924728
11
46.397867
21
348.434527
0
LINE
8
boundary
62
5
39
2
10
46.397867
20
348.434527
11
44.836091
21
348.915131
0
LINE
8
boundary
62
5
39
2
10
44.836091
20
348.915131
11
43.284639
21
349.366766
0
LINE
8
boundary
62
5
39
2
10
43.284639
20
349.366766
11
41.734974
21
349.790225
0
LINE
8
boundary
62
5
39
2
10
41.734974
20
349.790225
11
40.178437
21
350.185800
0
LINE
8
boundary
62
5
39
2
10
40.178437
20
350.185800
11
38.606259
21
350.554167
0
LINE
8
boundary
62
5
39
2
10
38.606259
20
350.554167
11
37.009963
21
350.895751
0
LINE
8
boundary
62
5
39
2
10
37.009963
20
350.895751
11
35.380950
21
351.210963
0
LINE
8
boundary
62
5
39
2
10
35.380950
20
351.210963
11
33.710641
21
351.500528
0
LINE
8
boundary
62
5
39
2
10
33.710641
20
351.500528
11
31.990485
21
351.764737
0
LINE
8
boundary
62
5
39
2
10
31.990485
20
351.764737
11
30.211886
21
352.004184
0
LINE
8
boundary
62
5
39
2
10
30.211886
20
352.004184
11
28.366315
21
352.219521
0
LINE
8
boundary
62
5
39
2
10
28.366315
20
352.219521
11
26.445122
21
352.410884
0
LINE
8
boundary
62
5
39
2
10
26.445122
20
352.410884
11
26.311758
21
350.982207
0
LINE
8
boundary
62
5
39
2
10
26.311758
20
350.982207
11
24.763126
21
333.758530
0
LINE
8
boundary
62
5
39
2
10
24.763126
20
333.758530
11
28.653712
21
317.993896
0
LINE
8
boundary
62
5
39
2
10
28.653712
20
317.993896
11
38.303275
21
317.993897
0
LINE
8
boundary
62
5
39
2
10
38.303275
20
317.993897
11
38.303275
21
315.247897
0
LINE
8
boundary
62
5
39
2
10
38.303275
20
315.247897
11
29.391622
21
315.247896
0
LINE
8
boundary
62
5
39
2
10
29.391622
20
315.247896
11
33.673396
21
298.014779
0
LINE
8
boundary
62
5
39
2
10
33.673396
20
298.014779
11
33.808430
21
297.483491
0
LINE
8
boundary
62
5
39
2
10
33.808430
20
297.483491
11
34.470219
21
295.391964
0
LINE
8
boundary
62
5
39
2
10
34.470219
20
295.391964
11
35.105874
21
293.267660
0
LINE
8
boundary
62
5
39
2
10
35.105874
20
293.267660
11
35.706689
21
291.137236
0
LINE
8
boundary
62
5
39
2
10
35.706689
20
291.137236
11
36.272392
21
289.000805
0
LINE
8
boundary
62
5
39
2
10
36.272392
20
289.000805
11
36.678127
21
287.363942
0
LINE
8
boundary
62
5
39
2
10
36.678127
20
287.363942
11
36.801221
21
286.859751
0
LINE
8
boundary
62
5
39
2
10
36.801221
20
286.859751
11
37.288195
21
284.717143
0
LINE
8
boundary
62
5
39
2
10
37.288195
20
284.717143
11
37.740563
21
282.568872
0
LINE
8
boundary
62
5
39
2
10
37.740563
20
282.568872
11
38.158312
21
280.415026
0
LINE
8
boundary
62
5
39
2
10
38.158312
20
280.415026
11
38.541680
21
278.255620
0
LINE
8
boundary
62
5
39
2
10
38.541680
20
278.255620
11
38.890762
21
276.091050
0
LINE
8
boundary
62
5
39
2
10
38.890762
20
276.091050
11
39.205630
21
273.921272
0
LINE
8
boundary
62
5
39
2
10
39.205630
20
273.921272
11
39.486417
21
271.746295
0
LINE
8
boundary
62
5
39
2
10
39.486417
20
271.746295
11
39.733385
21
269.566316
0
LINE
8
boundary
62
5
39
2
10
39.733385
20
269.566316
11
39.946509
21
267.381361
0
LINE
8
boundary
62
5
39
2
10
39.946509
20
267.381361
11
40.126098
21
265.191585
0
LINE
8
boundary
62
5
39
2
10
40.126098
20
265.191585
11
40.272074
21
262.996950
0
LINE
8
boundary
62
5
39
2
10
40.272074
20
262.996950
11
40.384944
21
260.797673
0
LINE
8
boundary
62
5
39
2
10
40.384944
20
260.797673
11
40.464609
21
258.593806
0
LINE
8
boundary
62
5
39
2
10
40.464609
20
258.593806
11
40.511375
21
256.385309
0
LINE
8
boundary
62
5
39
2
10
40.511375
20
256.385309
11
40.525525
21
254.172297
0
LINE
8
boundary
62
5
39
2
10
40.525525
20
254.172297
11
40.507151
21
251.954964
0
LINE
8
boundary
62
5
39
2
10
40.507151
20
251.954964
11
40.456562
21
249.733212
0
LINE
8
boundary
62
5
39
2
10
40.456562
20
249.733212
11
40.373906
21
247.507164
0
LINE
8
boundary
62
5
39
2
10
40.373906
20
247.507164
11
40.259588
21
245.276839
0
LINE
8
boundary
62
5
39
2
10
40.259588
20
245.276839
11
40.113682
21
243.042480
0
LINE
8
boundary
62
5
39
2
10
40.113682
20
243.042480
11
39.936753
21
240.803883
0
LINE
8
boundary
62
5
39
2
10
39.936753
20
240.803883
11
39.728827
21
238.561294
0
LINE
8
boundary
62
5
39
2
10
39.728827
20
238.561294
11
39.490409
21
236.314713
0
LINE
8
boundary
62
5
39
2
10
39.490409
20
236.314713
11
39.221767
21
234.064279
0
LINE
8
boundary
62
5
39
2
10
39.221767
20
234.064279
11
38.923206
21
231.809962
0
LINE
8
boundary
62
5
39
2
10
38.923206
20
231.809962
11
38.595027
21
229.551786
0
LINE
8
boundary
62
5
39
2
10
38.595027
20
229.551786
11
38.237842
21
227.289963
0
LINE
8
boundary
62
5
39
2
10
38.237842
20
227.289963
11
37.851864
21
225.024411
0
LINE
8
boundary
62
5
39
2
10
37.851864
20
225.024411
11
37.437579
21
222.755350
0
LINE
8
boundary
62
5
39
2
10
37.437579
20
222.755350
11
36.995365
21
220.482860
0
LINE
8
boundary
62
5
39
2
10
36.995365
20
220.482860
11
36.525621
21
218.206887
0
LINE
8
boundary
62
5
39
2
10
36.525621
20
218.206887
11
36.028922
21
215.927554
0
LINE
8
boundary
62
5
39
2
10
36.028922
20
215.927554
11
35.505763
21
213.645019
0
LINE
8
boundary
62
5
39
2
10
35.505763
20
213.645019
11
34.956641
21
211.359352
0
LINE
8
boundary
62
5
39
2
10
34.956641
20
211.359352
11
34.381903
21
209.070600
0
LINE
8
boundary
62
5
39
2
10
34.381903
20
209.070600
11
33.782266
21
206.779035
0
LINE
8
boundary
62
5
39
2
10
33.782266
20
206.779035
11
33.158241
21
204.484663
0
LINE
8
boundary
62
5
39
2
10
33.158241
20
204.484663
11
32.510382
21
202.187611
0
LINE
8
boundary
62
5
39
2
10
32.510382
20
202.187611
11
31.839323
21
199.888036
0
LINE
8
boundary
62
5
39
2
10
31.839323
20
199.888036
11
31.145606
21
197.586111
0
LINE
8
boundary
62
5
39
2
10
31.145606
20
197.586111
11
30.429878
21
195.281997
0
LINE
8
boundary
62
5
39
2
10
30.429878
20
195.281997
11
29.692786
21
192.975856
0
LINE
8
boundary
62
5
39
2
10
29.692786
20
192.975856
11
28.934991
21
190.667937
0
LINE
8
boundary
62
5
39
2
10
28.934991
20
190.667937
11
28.157266
21
188.358284
0
LINE
8
boundary
62
5
39
2
10
28.157266
20
188.358284
11
27.360162
21
186.047303
0
LINE
8
boundary
62
5
39
2
10
27.360162
20
186.047303
11
26.544369
21
183.735061
0
LINE
8
boundary
62
5
39
2
10
26.544369
20
183.735061
11
25.710749
21
181.421858
0
LINE
8
boundary
62
5
39
2
10
25.710749
20
181.421858
11
24.859923
21
179.108031
0
LINE
8
boundary
62
5
39
2
10
24.859923
20
179.108031
11
23.992621
21
176.793749
0
LINE
8
boundary
62
5
39
2
10
23.992621
20
176.793749
11
23.109784
21
174.479337
0
LINE
8
boundary
62
5
39
2
10
23.109784
20
174.479337
11
22.212107
21
172.165206
0
LINE
8
boundary
62
5
39
2
10
22.212107
20
172.165206
11
21.300382
21
169.851533
0
LINE
8
boundary
62
5
39
2
10
21.300382
20
169.851533
11
20.375357
21
167.538755
0
LINE
8
boundary
62
5
39
2
10
20.375357
20
167.538755
11
18.488804
21
162.917291
0
LINE
8
boundary
62
5
39
2
10
18.488804
20
162.917291
11
16.715050
21
158.676632
0
LINE
8
boundary
62
5
39
2
10
16.715050
20
158.676632
11
14.591815
21
153.755251
0
LINE
8
boundary
62
5
39
2
10
14.591815
20
153.755251
11
13.454229
21
149.033866
0
LINE
8
boundary
62
5
39
2
10
13.454229
20
149.033866
11
12.323465
21
144.134397
0
LINE
8
boundary
62
5
39
2
10
12.323465
20
144.134397
11
11.756617
21
141.581940
0
LINE
8
boundary
62
5
39
2
10
11.756617
20
141.581940
11
11.208672
21
139.026869
0
LINE
8
boundary
62
5
39
2
10
11.208672
20
139.026869
11
10.674559
21
136.432904
0
LINE
8
boundary
62
5
39
2
10
10.674559
20
136.432904
11
10.157990
21
133.801757
0
LINE
8
boundary
62
5
39
2
10
10.157990
20
133.801757
11
9.662732
21
131.134685
0
LINE
8
boundary
62
5
39
2
10
9.662732
20
131.134685
11
9.192552
21
128.433332
0
LINE
8
boundary
62
5
39
2
10
9.192552
20
128.433332
11
8.751338
21
125.699328
0
LINE
8
boundary
62
5
39
2
10
8.751338
20
125.699328
11
8.343070
21
122.934387
0
LINE
8
boundary
62
5
39
2
10
8.343070
20
122.934387
11
7.971523
21
120.140207
0
LINE
8
boundary
62
5
39
2
10
7.971523
20
120.140207
11
7.686662
21
117.711033
0
LINE
8
boundary
62
5
39
2
10
7.686662
20
117.711033
11
7.346898
21
114.487775
0
LINE
8
boundary
62
5
39
2
10
7.346898
20
114.487775
11
7.101080
21
111.634677
0
LINE
8
boundary
62
5
39
2
10
7.101080
20
111.634677
11
6.906452
21
108.763469
0
LINE
8
boundary
62
5
39
2
10
6.906452
20
108.763469
11
6.766710
21
105.876523
0
LINE
8
boundary
62
5
39
2
10
6.766710
20
105.876523
11
6.685786
21
102.976470
0
LINE
8
boundary
62
5
39
2
10
6.685786
20
102.976470
11
6.668604
21
101.522382
0
LINE
8
boundary
62
5
39
2
10
6.668604
20
101.522382
11
6.667500
21
100.065977
0
LINE
8
boundary
62
5
39
2
10
6.667500
20
100.065977
11
6.683133
21
98.607649
0
LINE
8
boundary
62
5
39
2
10
6.683133
20
98.607649
11
6.715734
21
97.147778
0
LINE
8
boundary
62
5
39
2
10
6.715734
20
97.147778
11
6.765911
21
95.686785
0
LINE
8
boundary
62
5
39
2
10
6.765911
20
95.686785
11
6.834150
21
94.224972
0
LINE
8
boundary
62
5
39
2
10
6.834150
20
94.224972
11
6.921038
21
92.762668
0
LINE
8
boundary
62
5
39
2
10
6.921038
20
92.762668
11
7.026789
21
91.300272
0
LINE
8
boundary
62
5
39
2
10
7.026789
20
91.300272
11
7.151989
21
89.838329
0
LINE
8
boundary
62
5
39
2
10
7.151989
20
89.838329
11
7.297061
21
88.376992
0
LINE
8
boundary
62
5
39
2
10
7.297061
20
88.376992
11
7.462605
21
86.916914
0
LINE
8
boundary
62
5
39
2
10
7.462605
20
86.916914
11
7.649005
21
85.458440
0
LINE
8
boundary
62
5
39
2
10
7.649005
20
85.458440
11
7.856743
21
84.001951
0
LINE
8
boundary
62
5
39
2
10
7.856743
20
84.001951
11
8.086229
21
82.547850
0
LINE
8
boundary
62
5
39
2
10
8.086229
20
82.547850
11
8.337908
21
81.096658
0
LINE
8
boundary
62
5
39
2
10
8.337908
20
81.096658
11
8.612236
21
79.648755
0
LINE
8
boundary
62
5
39
2
10
8.612236
20
79.648755
11
8.909873
21
78.204703
0
LINE
8
boundary
62
5
39
2
10
8.909873
20
78.204703
11
9.231003
21
76.764893
0
LINE
8
boundary
62
5
39
2
10
9.231003
20
76.764893
11
9.576087
21
75.329766
0
LINE
8
boundary
62
5
39
2
10
9.576087
20
75.329766
11
9.945689
21
73.899892
0
LINE
8
boundary
62
5
39
2
10
9.945689
20
73.899892
11
10.340162
21
72.475638
0
LINE
8
boundary
62
5
39
2
10
10.340162
20
72.475638
11
10.760062
21
71.057608
0
LINE
8
boundary
62
5
39
2
10
10.760062
20
71.057608
11
11.205673
21
69.646284
0
LINE
8
boundary
62
5
39
2
10
11.205673
20
69.646284
11
11.677412
21
68.242137
0
LINE
8
boundary
62
5
39
2
10
11.677412
20
68.242137
11
12.175766
21
66.845719
0
LINE
8
boundary
62
5
39
2
10
12.175766
20
66.845719
11
12.701161
21
65.457573
0
LINE
8
boundary
62
5
39
2
10
12.701161
20
65.457573
11
12.935425
21
64.603098
0
LINE
8
boundary
62
5
39
2
10
12.935425
20
64.603098
11
13.821034
21
61.301897
0
LINE
8
boundary
62
5
39
2
10
13.821034
20
61.301897
11
14.089047
21
60.331493
0
LINE
8
boundary
62
5
39
2
10
14.089047
20
60.331493
11
15.009038
21
56.922629
0
LINE
8
boundary
62
5
39
2
10
15.009038
20
56.922629
11
15.162212
21
56.386518
0
LINE
8
boundary
62
5
39
2
10
15.162212
20
56.386518
11
15.642406
21
54.665883
0
LINE
8
boundary
62
5
39
2
10
15.642406
20
54.665883
11
15.808634
21
54.104592
0
LINE
8
boundary
62
5
39
2
10
15.808634
20
54.104592
11
16.309331
21
52.373691
0
LINE
8
boundary
62
5
39
2
10
16.309331
20
52.373691
11
16.490221
21
51.789183
0
LINE
8
boundary
62
5
39
2
10
16.490221
20
51.789183
11
17.015112
21
50.053143
0
LINE
8
boundary
62
5
39
2
10
17.015112
20
50.053143
11
17.212361
21
49.447719
0
LINE
8
boundary
62
5
39
2
10
17.212361
20
49.447719
11
17.765226
21
47.711512
0
LINE
8
boundary
62
5
39
2
10
17.765226
20
47.711512
11
17.980526
21
47.087837
0
LINE
8
boundary
62
5
39
2
10
17.980526
20
47.087837
11
18.565004
21
45.356340
0
LINE
8
boundary
62
5
39
2
10
18.565004
20
45.356340
11
18.799999
21
44.717358
0
LINE
8
boundary
62
5
39
2
10
18.799999
20
44.717358
11
19.419635
21
42.995284
0
LINE
8
boundary
62
5
39
2
10
19.419635
20
42.995284
11
19.675937
21
42.344295
0
LINE
8
boundary
62
5
39
2
10
19.675937
20
42.344295
11
20.334395
21
40.636262
0
LINE
8
boundary
62
5
39
2
10
20.334395
20
40.636262
11
20.815921
21
39.459994
0
LINE
8
boundary
62
5
39
2
10
20.815921
20
39.459994
11
21.314462
21
38.287241
0
LINE
8
boundary
62
5
39
2
10
21.314462
20
38.287241
11
21.830565
21
37.119097
0
LINE
8
boundary
62
5
39
2
10
21.830565
20
37.119097
11
22.364774
21
35.956540
0
LINE
8
boundary
62
5
39
2
10
22.364774
20
35.956540
11
22.917875
21
34.800643
0
LINE
8
boundary
62
5
39
2
10
22.917875
20
34.800643
11
23.490420
21
33.652519
0
LINE
8
boundary
62
5
39
2
10
23.490420
20
33.652519
11
24.083034
21
32.513190
0
LINE
8
boundary
62
5
39
2
10
24.083034
20
32.513190
11
24.696289
21
31.383814
0
LINE
8
boundary
62
5
39
2
10
24.696289
20
31.383814
11
25.330723
21
30.265349
0
LINE
8
boundary
62
5
39
2
10
25.330723
20
30.265349
11
25.987047
21
29.158999
0
LINE
8
boundary
62
5
39
2
10
25.987047
20
29.158999
11
26.665796
21
28.065891
0
LINE
8
boundary
62
5
39
2
10
26.665796
20
28.065891
11
27.367635
21
26.987132
0
LINE
8
boundary
62
5
39
2
10
27.367635
20
26.987132
11
28.092997
21
25.923755
0
LINE
8
boundary
62
5
39
2
10
28.092997
20
25.923755
11
28.842407
21
24.877030
0
LINE
8
boundary
62
5
39
2
10
28.842407
20
24.877030
11
29.616663
21
23.847971
0
LINE
8
boundary
62
5
39
2
10
29.616663
20
23.847971
11
30.416136
21
22.837764
0
LINE
8
boundary
62
5
39
2
10
30.416136
20
22.837764
11
31.241502
21
21.847599
0
LINE
8
boundary
62
5
39
2
10
31.241502
20
21.847599
11
32.093205
21
20.878570
0
LINE
8
boundary
62
5
39
2
10
32.093205
20
20.878570
11
32.971723
21
19.931737
0
LINE
8
boundary
62
5
39
2
10
32.971723
20
19.931737
11
33.877803
21
19.008409
0
LINE
8
boundary
62
5
39
2
10
33.877803
20
19.008409
11
34.811839
21
18.109604
0
LINE
8
boundary
62
5
39
2
10
34.811839
20
18.109604
11
35.774197
21
17.236460
0
LINE
8
boundary
62
5
39
2
10
35.774197
20
17.236460
11
36.765645
21
16.390109
0
LINE
8
boundary
62
5
39
2
10
36.765645
20
16.390109
11
37.786608
21
15.571678
0
LINE
8
boundary
62
5
39
2
10
37.786608
20
15.571678
11
38.837529
21
14.782267
0
LINE
8
boundary
62
5
39
2
10
38.837529
20
14.782267
11
39.918914
21
14.022977
0
LINE
8
boundary
62
5
39
2
10
39.918914
20
14.022977
11
41.031378
21
13.294904
0
LINE
8
boundary
62
5
39
2
10
41.031378
20
13.294904
11
42.175242
21
12.599015
0
LINE
8
boundary
62
5
39
2
10
42.175242
20
12.599015
11
43.351058
21
11.936384
0
LINE
8
boundary
62
5
39
2
10
43.351058
20
11.936384
11
44.559276
21
11.308038
0
LINE
8
boundary
62
5
39
2
10
44.559276
20
11.308038
11
45.800373
21
10.714996
0
LINE
8
boundary
62
5
39
2
10
45.800373
20
10.714996
11
47.074827
21
10.158250
0
LINE
8
boundary
62
5
39
2
10
47.074827
20
10.158250
11
48.383116
21
9.638640
0
LINE
8
boundary
62
5
39
2
10
48.383116
20
9.638640
11
49.725634
21
9.157075
0
LINE
8
boundary
62
5
39
2
10
49.725634
20
9.157075
11
51.102971
21
8.714462
0
LINE
8
boundary
62
5
39
2
10
51.102971
20
8.714462
11
52.515329
21
8.311540
0
LINE
8
boundary
62
5
39
2
10
52.515329
20
8.311540
11
53.963326
21
7.949160
0
LINE
8
boundary
62
5
39
2
10
53.963326
20
7.949160
11
55.447328
21
7.628006
0
LINE
8
boundary
62
5
39
2
10
55.447328
20
7.628006
11
56.967855
21
7.348744
0
LINE
8
boundary
62
5
39
2
10
56.967855
20
7.348744
11
58.525182
21
7.112024
0
LINE
8
boundary
62
5
39
2
10
58.525182
20
7.112024
11
60.119952
21
6.918363
0
LINE
8
boundary
62
5
39
2
10
60.119952
20
6.918363
11
61.752425
21
6.768250
0
LINE
8
boundary
62
5
39
2
10
61.752425
20
6.768250
11
62.308844
21
6.672944
0
LINE
8
boundary
62
5
39
2
10
62.308844
20
6.672944
11
62.990199
21
6.695058
0
LINE
8
boundary
62
5
39
2
10
62.990199
20
6.695058
11
63.503366
21
6.772186
0
LINE
8
boundary
62
5
39
2
10
63.503366
20
6.772186
11
64.056465
21
6.897101
0
LINE
8
boundary
62
5
39
2
10
64.056465
20
6.897101
11
64.643173
21
7.068017
0
LINE
8
boundary
62
5
39
2
10
64.643173
20
7.068017
11
65.257302
21
7.283161
0
LINE
8
boundary
62
5
39
2
10
65.257302
20
7.283161
11
65.892644
21
7.540700
0
LINE
8
boundary
62
5
39
2
10
65.892644
20
7.540700
11
66.543009
21
7.838849
0
LINE
8
boundary
62
5
39
2
10
66.543009
20
7.838849
11
67.202182
21
8.175759
0
LINE
8
boundary
62
5
39
2
10
67.202182
20
8.175759
11
67.863971
21
8.549720
0
LINE
8
boundary
62
5
39
2
10
67.863971
20
8.549720
11
68.522476
21
8.959049
0
LINE
8
boundary
62
5
39
2
10
68.522476
20
8.959049
11
69.171325
21
9.401939
0
LINE
8
boundary
62
5
39
2
10
69.171325
20
9.401939
11
69.804457
21
9.876706
0
LINE
8
boundary
62
5
39
2
10
69.804457
20
9.876706
11
70.415878
21
10.381808
0
LINE
8
boundary
62
5
39
2
10
70.415878
20
10.381808
11
70.999388
21
10.915607
0
LINE
8
boundary
62
5
39
2
10
70.999388
20
10.915607
11
71.548924
21
11.476613
0
LINE
8
boundary
62
5
39
2
10
71.548924
20
11.476613
11
72.058419
21
12.063296
0
LINE
8
boundary
62
5
39
2
10
72.058419
20
12.063296
11
72.521752
21
12.674137
0
LINE
8
boundary
62
5
39
2
10
72.521752
20
12.674137
11
72.932693
21
13.307887
0
LINE
8
boundary
62
5
39
2
10
72.932693
20
13.307887
11
73.155671
21
13.711847
0
LINE
8
annotation
62
1
39
211
10
44.963374
20
314.220896
11
44.963374
21
319.020896
0
LINE
8
annotation
62
1
39
211
10
44.963374
20
319.020896
11
43.896273
21
317.953494
0
LINE
8
annotation
62
1
39
211
10
49.078235
20
397.558918
11
47.058892
21
397.558918
0
LINE
8
annotation
62
1
39
211
10
47.058892
20
397.558918
11
48.924831
21
400.562841
0
LINE
8
annotation
62
1
39
211
10
48.924831
20
400.562841
11
48.924831
21
400.562841
0
LINE
8
annotation
62
1
39
211
10
48.924831
20
400.562841
11
48.927062
21
400.565601
0
LINE
8
annotation
62
1
39
211
10
48.927062
20
400.565601
11
48.929201
21
400.568385
0
LINE
8
annotation
62
1
39
211
10
48.929201
20
400.568385
11
48.931262
21
400.571215
0
LINE
8
annotation
62
1
39
211
10
48.931262
20
400.571215
11
48.933261
21
400.574117
0
LINE
8
annotation
62
1
39
211
10
48.933261
20
400.574117
11
48.935210
21
400.577111
0
LINE
8
annotation
62
1
39
211
10
48.935210
20
400.577111
11
48.937124
21
400.580224
0
LINE
8
annotation
62
1
39
211
10
48.937124
20
400.580224
11
48.939016
21
400.583477
0
LINE
8
annotation
62
1
39
211
10
48.939016
20
400.583477
11
48.940902
21
400.586894
0
LINE
8
annotation
62
1
39
211
10
48.940902
20
400.586894
11
48.942795
21
400.590499
0
LINE
8
annotation
62
1
39
211
10
48.942795
20
400.590499
11
48.942795
21
400.590499
0
LINE
8
annotation
62
1
39
211
10
48.942795
20
400.590499
11
49.019839
21
400.755920
0
LINE
8
annotation
62
1
39
211
10
49.019839
20
400.755920
11
49.064847
21
400.927392
0
LINE
8
annotation
62
1
39
211
10
49.064847
20
400.927392
11
49.078921
21
401.101043
0
LINE
8
annotation
62
1
39
211
10
49.078921
20
401.101043
11
49.063166
21
401.272997
0
LINE
8
annotation
62
1
39
211
10
49.063166
20
401.272997
11
49.018683
21
401.439380
0
LINE
8
annotation
62
1
39
211
10
49.018683
20
401.439380
11
48.946575
21
401.596316
0
LINE
8
annotation
62
1
39
211
10
48.946575
20
401.596316
11
48.847947
21
401.739932
0
LINE
8
annotation
62
1
39
211
10
48.847947
20
401.739932
11
48.723900
21
401.866353
0
LINE
8
annotation
62
1
39
211
10
48.723900
20
401.866353
11
48.575538
21
401.971705
0
LINE
8
annotation
62
1
39
211
10
48.575538
20
401.971705
11
48.575538
21
401.971705
0
LINE
8
annotation
62
1
39
211
10
48.575538
20
401.971705
11
48.409657
21
402.047654
0
LINE
8
annotation
62
1
39
211
10
48.409657
20
402.047654
11
48.237922
21
402.091969
0
LINE
8
annotation
62
1
39
211
10
48.237922
20
402.091969
11
48.064170
21
402.105646
0
LINE
8
annotation
62
1
39
211
10
48.064170
20
402.105646
11
47.892242
21
402.089682
0
LINE
8
annotation
62
1
39
211
10
47.892242
20
402.089682
11
47.725977
21
402.045076
0
LINE
8
annotation
62
1
39
211
10
47.725977
20
402.045076
11
47.569214
21
401.972824
0
LINE
8
annotation
62
1
39
211
10
47.569214
20
401.972824
11
47.425792
21
401.873925
0
LINE
8
annotation
62
1
39
211
10
47.425792
20
401.873925
11
47.299552
21
401.749374
0
LINE
8
annotation
62
1
39
211
10
47.299552
20
401.749374
11
47.194332
21
401.600171
0
LINE
8
annotation
62
1
39
211
10
47.194332
20
401.600171
11
47.061743
21
401.345828
0
LINE
8
annotation
62
1
39
211
10
78.050915
20
347.551000
11
75.628906
21
344.047784
0
LINE
8
annotation
62
1
39
211
10
75.628906
20
344.047784
11
73.206440
21
347.551000
0
LINE
8
annotation
62
1
39
211
10
75.628906
20
344.329699
11
75.628906
21
340.288159
0
LINE
8
annotation
62
1
39
211
10
84.746169
20
343.919579
11
80.775221
21
343.919579
0
LINE
8
annotation
62
1
39
211
10
90.694828
20
340.288327
11
87.469429
21
340.288327
0
LINE
8
annotation
62
1
39
211
10
87.469429
20
340.288327
11
90.449803
21
345.086348
0
LINE
8
annotation
62
1
39
211
10
90.449803
20
345.086348
11
90.449803
21
345.086348
0
LINE
8
annotation
62
1
39
211
10
90.449803
20
345.086348
11
90.453366
21
345.090757
0
LINE
8
annotation
62
1
39
211
10
90.453366
20
345.090757
11
90.456783
21
345.095203
0
LINE
8
annotation
62
1
39
211
10
90.456783
20
345.095203
11
90.460076
21
345.099724
0
LINE
8
annotation
62
1
39
211
10
90.460076
20
345.099724
11
90.463268
21
345.104358
0
LINE
8
annotation
62
1
39
211
10
90.463268
20
345.104358
11
90.466381
21
345.109141
0
LINE
8
annotation
62
1
39
211
10
90.466381
20
345.109141
11
90.469438
21
345.114112
0
LINE
8
annotation
62
1
39
211
10
90.469438
20
345.114112
11
90.472461
21
345.119308
0
LINE
8
annotation
62
1
39
211
10
90.472461
20
345.119308
11
90.475473
21
345.124767
0
LINE
8
annotation
62
1
39
211
10
90.475473
20
345.124767
11
90.478496
21
345.130525
0
LINE
8
annotation
62
1
39
211
10
90.478496
20
345.130525
11
90.478496
21
345.130525
0
LINE
8
annotation
62
1
39
211
10
90.478496
20
345.130525
11
90.601555
21
345.394743
0
LINE
8
annotation
62
1
39
211
10
90.601555
20
345.394743
11
90.673444
21
345.668628
0
LINE
8
annotation
62
1
39
211
10
90.673444
20
345.668628
11
90.695924
21
345.945992
0
LINE
8
annotation
62
1
39
211
10
90.695924
20
345.945992
11
90.670758
21
346.220646
0
LINE
8
annotation
62
1
39
211
10
90.670758
20
346.220646
11
90.599708
21
346.486400
0
LINE
8
annotation
62
1
39
211
10
90.599708
20
346.486400
11
90.484534
21
346.737068
0
LINE
8
annotation
62
1
39
211
10
90.484534
20
346.737068
11
90.327000
21
346.966459
0
LINE
8
annotation
62
1
39
211
10
90.327000
20
346.966459
11
90.128866
21
347.168385
0
LINE
8
annotation
62
1
39
211
10
90.128866
20
347.168385
11
89.891894
21
347.336658
0
LINE
8
annotation
62
1
39
211
10
89.891894
20
347.336658
11
89.891894
21
347.336658
0
LINE
8
annotation
62
1
39
211
10
89.891894
20
347.336658
11
89.626941
21
347.457968
0
LINE
8
annotation
62
1
39
211
10
89.626941
20
347.457968
11
89.352636
21
347.528750
0
LINE
8
annotation
62
1
39
211
10
89.352636
20
347.528750
11
89.075111
21
347.550595
0
LINE
8
annotation
62
1
39
211
10
89.075111
20
347.550595
11
88.800499
21
347.525097
0
LINE
8
annotation
62
1
39
211
10
88.800499
20
347.525097
11
88.534931
21
347.453850
0
LINE
8
annotation
62
1
39
211
10
88.534931
20
347.453850
11
88.284541
21
347.338446
0
LINE
8
annotation
62
1
39
211
10
88.284541
20
347.338446
11
88.055461
21
347.180478
0
LINE
8
annotation
62
1
39
211
10
88.055461
20
347.180478
11
87.853824
21
346.981540
0
LINE
8
annotation
62
1
39
211
10
87.853824
20
346.981540
11
87.685761
21
346.743225
0
LINE
8
annotation
62
1
39
211
10
87.685761
20
346.743225
11
87.473983
21
346.336976
0
LINE
8
annotation
62
1
39
211
10
93.418771
20
340.288614
11
95.031470
21
340.288614
0
LINE
8
annotation
62
1
39
211
10
95.031470
20
340.288614
11
95.031470
21
340.288614
0
LINE
8
annotation
62
1
39
211
10
95.031470
20
340.288614
11
95.321518
21
340.314633
0
LINE
8
annotation
62
1
39
211
10
95.321518
20
340.314633
11
95.594443
21
340.389622
0
LINE
8
annotation
62
1
39
211
10
95.594443
20
340.389622
11
95.845706
21
340.508978
0
LINE
8
annotation
62
1
39
211
10
95.845706
20
340.508978
11
96.070767
21
340.668097
0
LINE
8
annotation
62
1
39
211
10
96.070767
20
340.668097
11
96.265087
21
340.862376
0
LINE
8
annotation
62
1
39
211
10
96.265087
20
340.862376
11
96.424127
21
341.087213
0
LINE
8
annotation
62
1
39
211
10
96.424127
20
341.087213
11
96.543347
21
341.338004
0
LINE
8
annotation
62
1
39
211
10
96.543347
20
341.338004
11
96.618207
21
341.610146
0
LINE
8
annotation
62
1
39
211
10
96.618207
20
341.610146
11
96.644170
21
341.899036
0
LINE
8
annotation
62
1
39
211
10
96.644170
20
341.899036
11
96.644170
21
342.706525
0
LINE
8
annotation
62
1
39
211
10
96.644170
20
342.706525
11
96.644170
21
342.706525
0
LINE
8
annotation
62
1
39
211
10
96.644170
20
342.706525
11
96.618207
21
342.995295
0
LINE
8
annotation
62
1
39
211
10
96.618207
20
342.995295
11
96.543347
21
343.267374
0
LINE
8
annotation
62
1
39
211
10
96.543347
20
343.267374
11
96.424127
21
343.518146
0
LINE
8
annotation
62
1
39
211
10
96.424127
20
343.518146
11
96.265087
21
343.742998
0
LINE
8
annotation
62
1
39
211
10
96.265087
20
343.742998
11
96.070767
21
343.937315
0
LINE
8
annotation
62
1
39
211
10
96.070767
20
343.937315
11
95.845706
21
344.096482
0
LINE
8
annotation
62
1
39
211
10
95.845706
20
344.096482
11
95.594443
21
344.215887
0
LINE
8
annotation
62
1
39
211
10
95.594443
20
344.215887
11
95.321518
21
344.290913
0
LINE
8
annotation
62
1
39
211
10
95.321518
20
344.290913
11
95.031470
21
344.316947
0
LINE
8
annotation
62
1
39
211
10
95.031470
20
344.316947
11
94.223982
21
344.316947
0
LINE
8
annotation
62
1
39
211
10
94.223982
20
344.316947
11
95.031470
21
344.316947
0
LINE
8
annotation
62
1
39
211
10
95.031470
20
344.316947
11
95.031470
21
344.316947
0
LINE
8
annotation
62
1
39
211
10
95.031470
20
344.316947
11
95.321518
21
344.342988
0
LINE
8
annotation
62
1
39
211
10
95.321518
20
344.342988
11
95.594443
21
344.418058
0
LINE
8
annotation
62
1
39
211
10
95.594443
20
344.418058
11
95.845706
21
344.537581
0
LINE
8
annotation
62
1
39
211
10
95.845706
20
344.537581
11
96.070767
21
344.696980
0
LINE
8
annotation
62
1
39
211
10
96.070767
20
344.696980
11
96.265087
21
344.891678
0
LINE
8
annotation
62
1
39
211
10
96.265087
20
344.891678
11
96.424127
21
345.117098
0
LINE
8
annotation
62
1
39
211
10
96.424127
20
345.117098
11
96.543347
21
345.368664
0
LINE
8
annotation
62
1
39
211
10
96.543347
20
345.368664
11
96.618207
21
345.641798
0
LINE
8
annotation
62
1
39
211
10
96.618207
20
345.641798
11
96.644170
21
345.931924
0
LINE
8
annotation
62
1
39
211
10
96.644170
20
345.931924
11
96.644170
21
345.931924
0
LINE
8
annotation
62
1
39
211
10
96.644170
20
345.931924
11
96.618207
21
346.220694
0
LINE
8
annotation
62
1
39
211
10
96.618207
20
346.220694
11
96.543347
21
346.492773
0
LINE
8
annotation
62
1
39
211
10
96.543347
20
346.492773
11
96.424127
21
346.743545
0
LINE
8
annotation
62
1
39
211
10
96.424127
20
346.743545
11
96.265087
21
346.968397
0
LINE
8
annotation
62
1
39
211
10
96.265087
20
346.968397
11
96.070767
21
347.162714
0
LINE
8
annotation
62
1
39
211
10
96.070767
20
347.162714
11
95.845706
21
347.321882
0
LINE
8
annotation
62
1
39
211
10
95.845706
20
347.321882
11
95.594443
21
347.441286
0
LINE
8
annotation
62
1
39
211
10
95.594443
20
347.441286
11
95.321518
21
347.516312
0
LINE
8
annotation
62
1
39
211
10
95.321518
20
347.516312
11
95.031470
21
347.542346
0
LINE
8
annotation
62
1
39
211
10
95.031470
20
347.542346
11
93.418771
21
347.542346
0
LINE
8
frame
62
5
39
2
10
0.000000
20
0.000000
11
215.900000
21
0.000000
0
LINE
8
frame
62
5
39
2
10
215.900000
20
0.000000
11
215.900000
21
279.400000
0
LINE
8
frame
62
5
39
2
10
215.900000
20
279.400000
11
0.000000
21
279.400000
0
LINE
8
frame
62
5
39
2
10
0.000000
20
279.400000
11
0.000000
21
0.000000
0
ENDSEC
0
EOF
