0
SECTION
2
HEADER
9
$ACADVER
1
AC1009
0
ENDSEC
0
SECTION
2
TABLES
0
TABLE
2
VPORT
70
1
0
VPORT
2
ACTIVE
70
0
10
0.0
20
0.0
11
0.0
21
0.0
12
0.0
22
0.0
13
0.0
23
0.0
14
0.0
24
0.0
15
0.0
25
0.0
16
0.0
26
0.0
36
0.0
17
0.0
27
0.0
37
0.0
40
0.0
41
0.0
42
0.0
43
0.0
44
0.0
50
0.0
51
0.0
71
0
72
1000
73
1
74
3
75
0
76
0
77
0
78
0
0
ENDTAB
0
ENDSEC
0
SECTION
2
ENTITIES
0
LINE
8
boundary
62
5
39
2
10
32.104989
20
29.029283
11
32.414365
21
28.623232
0
LINE
8
boundary
62
5
39
2
10
32.414365
20
28.623232
11
33.026520
21
27.817422
0
LINE
8
boundary
62
5
39
2
10
33.026520
20
27.817422
11
33.979641
21
26.622465
0
LINE
8
boundary
62
5
39
2
10
33.979641
20
26.622465
11
34.965376
21
25.445778
0
LINE
8
boundary
62
5
39
2
10
34.965376
20
25.445778
11
35.984260
21
24.288579
0
LINE
8
boundary
62
5
39
2
10
35.984260
20
24.288579
11
37.036909
21
23.152168
0
LINE
8
boundary
62
5
39
2
10
37.036909
20
23.152168
11
38.124355
21
22.037840
0
LINE
8
boundary
62
5
39
2
10
38.124355
20
22.037840
11
39.247245
21
20.946909
0
LINE
8
boundary
62
5
39
2
10
39.247245
20
20.946909
11
40.406213
21
19.880760
0
LINE
8
boundary
62
5
39
2
10
40.406213
20
19.880760
11
41.601982
21
18.840789
0
LINE
8
boundary
62
5
39
2
10
41.601982
20
18.840789
11
42.835406
21
17.828351
0
LINE
8
boundary
62
5
39
2
10
42.835406
20
17.828351
11
44.107043
21
16.844840
0
LINE
8
boundary
62
5
39
2
10
44.107043
20
16.844840
11
45.417676
21
15.891650
0
LINE
8
boundary
62
5
39
2
10
45.417676
20
15.891650
11
46.767985
21
14.970288
0
LINE
8
boundary
62
5
39
2
10
46.767985
20
14.970288
11
48.158634
21
14.082215
0
LINE
8
boundary
62
5
39
2
10
48.158634
20
14.082215
11
49.590391
21
13.228906
0
LINE
8
boundary
62
5
39
2
10
49.590391
20
13.228906
11
51.063904
21
12.411839
0
LINE
8
boundary
62
5
39
2
10
51.063904
20
12.411839
11
52.579803
21
11.632452
0
LINE
8
boundary
62
5
39
2
10
52.579803
20
11.632452
11
54.138828
21
10.892363
0
LINE
8
boundary
62
5
39
2
10
54.138828
20
10.892363
11
55.741537
21
10.192948
0
LINE
8
boundary
62
5
39
2
10
55.741537
20
10.192948
11
57.388583
21
9.535872
0
LINE
8
boundary
62
5
39
2
10
57.388583
20
9.535872
11
59.080635
21
8.922602
0
LINE
8
boundary
62
5
39
2
10
59.080635
20
8.922602
11
60.818387
21
8.354669
0
LINE
8
boundary
62
5
39
2
10
60.818387
20
8.354669
11
62.602298
21
7.833623
0
LINE
8
boundary
62
5
39
2
10
62.602298
20
7.833623
11
64.433231
21
7.360987
0
LINE
8
boundary
62
5
39
2
10
64.433231
20
7.360987
11
66.311553
21
6.938288
0
LINE
8
boundary
62
5
39
2
10
66.311553
20
6.938288
11
66.955581
21
6.749158
0
LINE
8
boundary
62
5
39
2
10
66.955581
20
6.749158
11
67.737933
21
6.668025
0
LINE
8
boundary
62
5
39
2
10
67.737933
20
6.668025
11
68.324457
21
6.672986
0
LINE
8
boundary
62
5
39
2
10
68.324457
20
6.672986
11
68.954857
21
6.724339
0
LINE
8
boundary
62
5
39
2
10
68.954857
20
6.724339
11
69.621799
21
6.821404
0
LINE
8
boundary
62
5
39
2
10
69.621799
20
6.821404
11
70.318284
21
6.963429
0
LINE
8
boundary
62
5
39
2
10
70.318284
20
6.963429
11
71.037178
21
7.149592
0
LINE
8
boundary
62
5
39
2
10
71.037178
20
7.149592
11
71.771347
21
7.378963
0
LINE
8
boundary
62
5
39
2
10
71.771347
20
7.378963
11
72.513606
21
7.650626
0
LINE
8
boundary
62
5
39
2
10
72.513606
20
7.650626
11
73.256841
21
7.963595
0
LINE
8
boundary
62
5
39
2
10
73.256841
20
7.963595
11
73.994188
21
8.316862
0
LINE
8
boundary
62
5
39
2
10
73.994188
20
8.316862
11
74.718217
21
8.709286
0
LINE
8
boundary
62
5
39
2
10
74.718217
20
8.709286
11
75.421971
21
9.139805
0
LINE
8
boundary
62
5
39
2
10
75.421971
20
9.139805
11
76.098457
21
9.607315
0
LINE
8
boundary
62
5
39
2
10
76.098457
20
9.607315
11
76.740426
21
10.110564
0
LINE
8
boundary
62
5
39
2
10
76.740426
20
10.110564
11
77.123581
21
10.444324
0
LINE
8
boundary
62
5
39
2
10
77.123581
20
10.444324
11
77.623467
21
10.930130
0
LINE
8
boundary
62
5
39
2
10
77.623467
20
10.930130
11
78.148528
21
11.517847
0
LINE
8
boundary
62
5
39
2
10
78.148528
20
11.517847
11
78.614403
21
12.137293
0
LINE
8
boundary
62
5
39
2
10
78.614403
20
12.137293
11
79.014276
21
12.787469
0
LINE
8
boundary
62
5
39
2
10
79.014276
20
12.787469
11
79.340983
21
13.467183
0
LINE
8
boundary
62
5
39
2
10
79.340983
20
13.467183
11
79.587503
21
14.175529
0
LINE
8
boundary
62
5
39
2
10
79.587503
20
14.175529
11
79.747096
21
14.911448
0
LINE
8
boundary
62
5
39
2
10
79.747096
20
14.911448
11
79.812525
21
15.674246
0
LINE
8
boundary
62
5
39
2
10
79.812525
20
15.674246
11
79.776920
21
16.463086
0
LINE
8
boundary
62
5
39
2
10
79.776920
20
16.463086
11
79.698055
21
16.972211
0
LINE
8
boundary
62
5
39
2
10
79.698055
20
16.972211
11
79.518932
21
17.693887
0
LINE
8
boundary
62
5
39
2
10
79.518932
20
17.693887
11
79.331167
21
18.226700
0
LINE
8
boundary
62
5
39
2
10
79.331167
20
18.226700
11
78.994935
21
18.980527
0
LINE
8
boundary
62
5
39
2
10
78.994935
20
18.980527
11
78.688486
21
19.536694
0
LINE
8
boundary
62
5
39
2
10
78.688486
20
19.536694
11
78.408887
21
19.985599
0
LINE
8
boundary
62
5
39
2
10
78.408887
20
19.985599
11
78.095256
21
20.440664
0
LINE
8
boundary
62
5
39
2
10
78.095256
20
20.440664
11
77.746725
21
20.901930
0
LINE
8
boundary
62
5
39
2
10
77.746725
20
20.901930
11
77.362347
21
21.369375
0
LINE
8
boundary
62
5
39
2
10
77.362347
20
21.369375
11
76.941262
21
21.843073
0
LINE
8
boundary
62
5
39
2
10
76.941262
20
21.843073
11
76.365090
21
22.242904
0
LINE
8
boundary
62
5
39
2
10
76.365090
20
22.242904
11
75.670811
21
22.360852
0
LINE
8
boundary
62
5
39
2
10
75.670811
20
22.360852
11
74.727346
21
22.556141
0
LINE
8
boundary
62
5
39
2
10
74.727346
20
22.556141
11
73.777030
21
22.783524
0
LINE
8
boundary
62
5
39
2
10
73.777030
20
22.783524
11
72.820711
21
23.043000
0
LINE
8
boundary
62
5
39
2
10
72.820711
20
23.043000
11
71.858961
21
23.334577
0
LINE
8
boundary
62
5
39
2
10
71.858961
20
23.334577
11
70.892276
21
23.658036
0
LINE
8
boundary
62
5
39
2
10
70.892276
20
23.658036
11
69.921375
21
24.013334
0
LINE
8
boundary
62
5
39
2
10
69.921375
20
24.013334
11
68.946820
21
24.400437
0
LINE
8
boundary
62
5
39
2
10
68.946820
20
24.400437
11
67.969051
21
24.819179
0
LINE
8
boundary
62
5
39
2
10
67.969051
20
24.819179
11
66.988960
21
25.269447
0
LINE
8
boundary
62
5
39
2
10
66.988960
20
25.269447
11
66.006882
21
25.751020
0
LINE
8
boundary
62
5
39
2
10
66.006882
20
25.751020
11
65.023647
21
26.263861
0
LINE
8
boundary
62
5
39
2
10
65.023647
20
26.263861
11
64.039603
21
26.807728
0
LINE
8
boundary
62
5
39
2
10
64.039603
20
26.807728
11
63.055547
21
27.382487
0
LINE
8
boundary
62
5
39
2
10
63.055547
20
27.382487
11
62.071939
21
27.987877
0
LINE
8
boundary
62
5
39
2
10
62.071939
20
27.987877
11
61.089505
21
28.623732
0
LINE
8
boundary
62
5
39
2
10
61.089505
20
28.623732
11
60.108841
21
29.289851
0
LINE
8
boundary
62
5
39
2
10
60.108841
20
29.289851
11
59.130543
21
29.985975
0
LINE
8
boundary
62
5
39
2
10
59.130543
20
29.985975
11
58.155068
21
30.711847
0
LINE
8
boundary
62
5
39
2
10
58.155068
20
30.711847
11
57.183119
21
31.467212
0
LINE
8
boundary
62
5
39
2
10
57.183119
20
31.467212
11
56.215347
21
32.251804
0
LINE
8
boundary
62
5
39
2
10
56.215347
20
32.251804
11
55.252338
21
33.065331
0
LINE
8
boundary
62
5
39
2
10
55.252338
20
33.065331
11
54.294442
21
33.907424
0
LINE
8
boundary
62
5
39
2
10
54.294442
20
33.907424
11
53.342537
21
34.777867
0
LINE
8
boundary
62
5
39
2
10
53.342537
20
34.777867
11
52.397142
21
35.676314
0
LINE
8
boundary
62
5
39
2
10
52.397142
20
35.676314
11
51.458782
21
36.602396
0
LINE
8
boundary
62
5
39
2
10
51.458782
20
36.602396
11
50.528130
21
37.555748
0
LINE
8
boundary
62
5
39
2
10
50.528130
20
37.555748
11
49.605621
21
38.536071
0
LINE
8
boundary
62
5
39
2
10
49.605621
20
38.536071
11
48.692011
21
39.542984
0
LINE
8
boundary
62
5
39
2
10
48.692011
20
39.542984
11
47.787735
21
40.576031
0
LINE
8
boundary
62
5
39
2
10
47.787735
20
40.576031
11
46.893406
21
41.634918
0
LINE
8
boundary
62
5
39
2
10
46.893406
20
41.634918
11
46.009589
21
42.719181
0
LINE
8
boundary
62
5
39
2
10
46.009589
20
42.719181
11
45.136959
21
43.828433
0
LINE
8
boundary
62
5
39
2
10
45.136959
20
43.828433
11
44.275976
21
44.962273
0
LINE
8
boundary
62
5
39
2
10
44.275976
20
44.962273
11
43.427214
21
46.120247
0
LINE
8
boundary
62
5
39
2
10
43.427214
20
46.120247
11
42.591278
21
47.301969
0
LINE
8
boundary
62
5
39
2
10
42.591278
20
47.301969
11
42.303539
21
47.723249
0
LINE
8
boundary
62
5
39
2
10
42.303539
20
47.723249
11
41.768697
21
48.506939
0
LINE
8
boundary
62
5
39
2
10
41.768697
20
48.506939
11
41.480897
21
48.943738
0
LINE
8
boundary
62
5
39
2
10
41.480897
20
48.943738
11
40.960102
21
49.734771
0
LINE
8
boundary
62
5
39
2
10
40.960102
20
49.734771
11
40.672348
21
50.187503
0
LINE
8
boundary
62
5
39
2
10
40.672348
20
50.187503
11
40.165838
21
50.984974
0
LINE
8
boundary
62
5
39
2
10
40.165838
20
50.984974
11
39.878385
21
51.454047
0
LINE
8
boundary
62
5
39
2
10
39.878385
20
51.454047
11
39.386602
21
52.257082
0
LINE
8
boundary
62
5
39
2
10
39.386602
20
52.257082
11
39.099648
21
52.742941
0
LINE
8
boundary
62
5
39
2
10
39.099648
20
52.742941
11
38.622826
21
53.550689
0
LINE
8
boundary
62
5
39
2
10
38.622826
20
53.550689
11
38.336660
21
54.053739
0
LINE
8
boundary
62
5
39
2
10
38.336660
20
54.053739
11
37.875179
21
54.865316
0
LINE
8
boundary
62
5
39
2
10
37.875179
20
54.865316
11
37.590100
21
55.385967
0
LINE
8
boundary
62
5
39
2
10
37.590100
20
55.385967
11
37.144257
21
56.200491
0
LINE
8
boundary
62
5
39
2
10
37.144257
20
56.200491
11
36.860463
21
56.739114
0
LINE
8
boundary
62
5
39
2
10
36.860463
20
56.739114
11
36.430264
21
57.555703
0
LINE
8
boundary
62
5
39
2
10
36.430264
20
57.555703
11
36.148211
21
58.112714
0
LINE
8
boundary
62
5
39
2
10
36.148211
20
58.112714
11
35.734065
21
58.930518
0
LINE
8
boundary
62
5
39
2
10
35.734065
20
58.930518
11
35.454057
21
59.506283
0
LINE
8
boundary
62
5
39
2
10
35.454057
20
59.506283
11
35.056060
21
60.324445
0
LINE
8
boundary
62
5
39
2
10
35.056060
20
60.324445
11
34.778443
21
60.919335
0
LINE
8
boundary
62
5
39
2
10
34.778443
20
60.919335
11
34.396656
21
61.737031
0
LINE
8
boundary
62
5
39
2
10
34.396656
20
61.737031
11
34.121909
21
62.351368
0
LINE
8
boundary
62
5
39
2
10
34.121909
20
62.351368
11
33.756500
21
63.167779
0
LINE
8
boundary
62
5
39
2
10
33.756500
20
63.167779
11
33.485003
21
63.801889
0
LINE
8
boundary
62
5
39
2
10
33.485003
20
63.801889
11
33.135990
21
64.616242
0
LINE
8
boundary
62
5
39
2
10
33.135990
20
64.616242
11
32.868336
21
65.270388
0
LINE
8
boundary
62
5
39
2
10
32.868336
20
65.270388
11
32.535795
21
66.081887
0
LINE
8
boundary
62
5
39
2
10
32.535795
20
66.081887
11
32.272383
21
66.756331
0
LINE
8
boundary
62
5
39
2
10
32.272383
20
66.756331
11
31.956294
21
67.564257
0
LINE
8
boundary
62
5
39
2
10
31.956294
20
67.564257
11
31.697671
21
68.259231
0
LINE
8
boundary
62
5
39
2
10
31.697671
20
68.259231
11
31.397973
21
69.062898
0
LINE
8
boundary
62
5
39
2
10
31.397973
20
69.062898
11
31.144733
21
69.778587
0
LINE
8
boundary
62
5
39
2
10
31.144733
20
69.778587
11
30.861365
21
70.577328
0
LINE
8
boundary
62
5
39
2
10
30.861365
20
70.577328
11
30.613994
21
71.313888
0
LINE
8
boundary
62
5
39
2
10
30.613994
20
71.313888
11
30.346807
21
72.107100
0
LINE
8
boundary
62
5
39
2
10
30.346807
20
72.107100
11
30.106083
21
72.864569
0
LINE
8
boundary
62
5
39
2
10
30.106083
20
72.864569
11
29.855027
21
73.651672
0
LINE
8
boundary
62
5
39
2
10
29.855027
20
73.651672
11
29.621490
21
74.430111
0
LINE
8
boundary
62
5
39
2
10
29.621490
20
74.430111
11
29.386385
21
75.210587
0
LINE
8
boundary
62
5
39
2
10
29.386385
20
75.210587
11
29.160648
21
76.010034
0
LINE
8
boundary
62
5
39
2
10
29.160648
20
76.010034
11
28.941214
21
76.783445
0
LINE
8
boundary
62
5
39
2
10
28.941214
20
76.783445
11
28.724041
21
77.603829
0
LINE
8
boundary
62
5
39
2
10
28.724041
20
77.603829
11
28.520139
21
78.369764
0
LINE
8
boundary
62
5
39
2
10
28.520139
20
78.369764
11
28.312197
21
79.210951
0
LINE
8
boundary
62
5
39
2
10
28.312197
20
79.210951
11
28.123610
21
79.969036
0
LINE
8
boundary
62
5
39
2
10
28.123610
20
79.969036
11
27.925645
21
80.830868
0
LINE
8
boundary
62
5
39
2
10
27.925645
20
80.830868
11
27.752067
21
81.580874
0
LINE
8
boundary
62
5
39
2
10
27.752067
20
81.580874
11
27.564686
21
82.463101
0
LINE
8
boundary
62
5
39
2
10
27.564686
20
82.463101
11
27.405823
21
83.204780
0
LINE
8
boundary
62
5
39
2
10
27.405823
20
83.204780
11
27.229825
21
84.107130
0
LINE
8
boundary
62
5
39
2
10
27.229825
20
84.107130
11
27.085399
21
84.840342
0
LINE
8
boundary
62
5
39
2
10
27.085399
20
84.840342
11
26.921574
21
85.762416
0
LINE
8
boundary
62
5
39
2
10
26.921574
20
85.762416
11
26.791346
21
86.487089
0
LINE
8
boundary
62
5
39
2
10
26.791346
20
86.487089
11
26.640392
21
87.428462
0
LINE
8
boundary
62
5
39
2
10
26.640392
20
87.428462
11
26.524061
21
88.144564
0
LINE
8
boundary
62
5
39
2
10
26.524061
20
88.144564
11
26.341604
21
88.898749
0
LINE
8
boundary
62
5
39
2
10
26.341604
20
88.898749
11
26.206694
21
89.453427
0
LINE
8
boundary
62
5
39
2
10
26.206694
20
89.453427
11
26.031597
21
90.215716
0
LINE
8
boundary
62
5
39
2
10
26.031597
20
90.215716
11
25.906087
21
90.759055
0
LINE
8
boundary
62
5
39
2
10
25.906087
20
90.759055
11
25.738398
21
91.529259
0
LINE
8
boundary
62
5
39
2
10
25.738398
20
91.529259
11
25.621766
21
92.061512
0
LINE
8
boundary
62
5
39
2
10
25.621766
20
92.061512
11
25.461781
21
92.839286
0
LINE
8
boundary
62
5
39
2
10
25.461781
20
92.839286
11
25.353757
21
93.360627
0
LINE
8
boundary
62
5
39
2
10
25.353757
20
93.360627
11
25.201468
21
94.145739
0
LINE
8
boundary
62
5
39
2
10
25.201468
20
94.145739
11
25.101629
21
94.656438
0
LINE
8
boundary
62
5
39
2
10
25.101629
20
94.656438
11
24.957252
21
95.448581
0
LINE
8
boundary
62
5
39
2
10
24.957252
20
95.448581
11
24.865255
21
95.948897
0
LINE
8
boundary
62
5
39
2
10
24.865255
20
95.948897
11
24.600089
21
97.556896
0
LINE
8
boundary
62
5
39
2
10
24.600089
20
97.556896
11
24.439024
21
98.523659
0
LINE
8
boundary
62
5
39
2
10
24.439024
20
98.523659
11
24.206943
21
100.155806
0
LINE
8
boundary
62
5
39
2
10
24.206943
20
100.155806
11
24.073206
21
101.084663
0
LINE
8
boundary
62
5
39
2
10
24.073206
20
101.084663
11
23.875090
21
102.738278
0
LINE
8
boundary
62
5
39
2
10
23.875090
20
102.738278
11
23.766327
21
103.631673
0
LINE
8
boundary
62
5
39
2
10
23.766327
20
103.631673
11
23.602593
21
105.304026
0
LINE
8
boundary
62
5
39
2
10
23.602593
20
105.304026
11
23.516596
21
106.164512
0
LINE
8
boundary
62
5
39
2
10
23.516596
20
106.164512
11
23.387552
21
107.852954
0
LINE
8
boundary
62
5
39
2
10
23.387552
20
107.852954
11
23.322315
21
108.683215
0
LINE
8
boundary
62
5
39
2
10
23.322315
20
108.683215
11
23.228257
21
110.384842
0
LINE
8
boundary
62
5
39
2
10
23.228257
20
110.384842
11
23.182059
21
111.187595
0
LINE
8
boundary
62
5
39
2
10
23.182059
20
111.187595
11
23.122895
21
112.899641
0
LINE
8
boundary
62
5
39
2
10
23.122895
20
112.899641
11
23.094177
21
113.677564
0
LINE
8
boundary
62
5
39
2
10
23.094177
20
113.677564
11
23.069560
21
115.397258
0
LINE
8
boundary
62
5
39
2
10
23.069560
20
115.397258
11
23.056870
21
116.153155
0
LINE
8
boundary
62
5
39
2
10
23.056870
20
116.153155
11
23.066419
21
117.877814
0
LINE
8
boundary
62
5
39
2
10
23.066419
20
117.877814
11
23.068637
21
118.614332
0
LINE
8
boundary
62
5
39
2
10
23.068637
20
118.614332
11
23.111796
21
120.341267
0
LINE
8
boundary
62
5
39
2
10
23.111796
20
120.341267
11
23.127879
21
121.061107
0
LINE
8
boundary
62
5
39
2
10
23.127879
20
121.061107
11
23.203884
21
122.787777
0
LINE
8
boundary
62
5
39
2
10
23.203884
20
122.787777
11
23.233031
21
123.493530
0
LINE
8
boundary
62
5
39
2
10
23.233031
20
123.493530
11
23.341067
21
125.217382
0
LINE
8
boundary
62
5
39
2
10
23.341067
20
125.217382
11
23.382615
21
125.911515
0
LINE
8
boundary
62
5
39
2
10
23.382615
20
125.911515
11
23.521610
21
127.630364
0
LINE
8
boundary
62
5
39
2
10
23.521610
20
127.630364
11
23.575036
21
128.315337
0
LINE
8
boundary
62
5
39
2
10
23.575036
20
128.315337
11
23.743787
21
130.026853
0
LINE
8
boundary
62
5
39
2
10
23.743787
20
130.026853
11
23.808648
21
130.704935
0
LINE
8
boundary
62
5
39
2
10
23.808648
20
130.704935
11
24.006011
21
132.407019
0
LINE
8
boundary
62
5
39
2
10
24.006011
20
132.407019
11
24.082047
21
133.080361
0
LINE
8
boundary
62
5
39
2
10
24.082047
20
133.080361
11
24.306623
21
134.771135
0
LINE
8
boundary
62
5
39
2
10
24.306623
20
134.771135
11
24.393633
21
135.441766
0
LINE
8
boundary
62
5
39
2
10
24.393633
20
135.441766
11
24.644092
21
137.119455
0
LINE
8
boundary
62
5
39
2
10
24.644092
20
137.119455
11
24.741983
21
137.789308
0
LINE
8
boundary
62
5
39
2
10
24.741983
20
137.789308
11
25.016855
21
139.452239
0
LINE
8
boundary
62
5
39
2
10
25.016855
20
139.452239
11
25.125592
21
140.123001
0
LINE
8
boundary
62
5
39
2
10
25.125592
20
140.123001
11
25.423367
21
141.769664
0
LINE
8
boundary
62
5
39
2
10
25.423367
20
141.769664
11
25.542946
21
142.442985
0
LINE
8
boundary
62
5
39
2
10
25.542946
20
142.442985
11
25.862075
21
144.072054
0
LINE
8
boundary
62
5
39
2
10
25.862075
20
144.072054
11
25.992524
21
144.749372
0
LINE
8
boundary
62
5
39
2
10
25.992524
20
144.749372
11
26.331533
21
146.359659
0
LINE
8
boundary
62
5
39
2
10
26.331533
20
146.359659
11
26.472982
21
147.042295
0
LINE
8
boundary
62
5
39
2
10
26.472982
20
147.042295
11
26.830354
21
148.632751
0
LINE
8
boundary
62
5
39
2
10
26.830354
20
148.632751
11
26.982900
21
149.321889
0
LINE
8
boundary
62
5
39
2
10
26.982900
20
149.321889
11
27.357037
21
150.891584
0
LINE
8
boundary
62
5
39
2
10
27.357037
20
150.891584
11
27.520747
21
151.588316
0
LINE
8
boundary
62
5
39
2
10
27.520747
20
151.588316
11
27.910178
21
153.136441
0
LINE
8
boundary
62
5
39
2
10
27.910178
20
153.136441
11
28.085166
21
153.841596
0
LINE
8
boundary
62
5
39
2
10
28.085166
20
153.841596
11
28.488370
21
155.367569
0
LINE
8
boundary
62
5
39
2
10
28.488370
20
155.367569
11
28.674713
21
156.082018
0
LINE
8
boundary
62
5
39
2
10
28.674713
20
156.082018
11
29.090195
21
157.585230
0
LINE
8
boundary
62
5
39
2
10
29.090195
20
157.585230
11
29.287948
21
158.309617
0
LINE
8
boundary
62
5
39
2
10
29.287948
20
158.309617
11
29.714411
21
159.789692
0
LINE
8
boundary
62
5
39
2
10
29.714411
20
159.789692
11
29.923660
21
160.524589
0
LINE
8
boundary
62
5
39
2
10
29.923660
20
160.524589
11
30.359602
21
161.981096
0
LINE
8
boundary
62
5
39
2
10
30.359602
20
161.981096
11
30.580284
21
162.726988
0
LINE
8
boundary
62
5
39
2
10
30.580284
20
162.726988
11
31.024402
21
164.159791
0
LINE
8
boundary
62
5
39
2
10
31.024402
20
164.159791
11
31.256534
21
164.916980
0
LINE
8
boundary
62
5
39
2
10
31.256534
20
164.916980
11
31.707516
21
166.325971
0
LINE
8
boundary
62
5
39
2
10
31.707516
20
166.325971
11
31.951009
21
167.094816
0
LINE
8
boundary
62
5
39
2
10
31.951009
20
167.094816
11
32.407733
21
168.479924
0
LINE
8
boundary
62
5
39
2
10
32.407733
20
168.479924
11
32.662536
21
169.260569
0
LINE
8
boundary
62
5
39
2
10
32.662536
20
169.260569
11
33.123616
21
170.621775
0
LINE
8
boundary
62
5
39
2
10
33.123616
20
170.621775
11
33.389439
21
171.414355
0
LINE
8
boundary
62
5
39
2
10
33.389439
20
171.414355
11
33.853984
21
172.751828
0
LINE
8
boundary
62
5
39
2
10
33.853984
20
172.751828
11
34.130801
21
173.556382
0
LINE
8
boundary
62
5
39
2
10
34.130801
20
173.556382
11
34.597657
21
174.870153
0
LINE
8
boundary
62
5
39
2
10
34.597657
20
174.870153
11
34.885161
21
175.686647
0
LINE
8
boundary
62
5
39
2
10
34.885161
20
175.686647
11
35.353164
21
176.977091
0
LINE
8
boundary
62
5
39
2
10
35.353164
20
176.977091
11
35.650972
21
177.805488
0
LINE
8
boundary
62
5
39
2
10
35.650972
20
177.805488
11
36.581073
21
180.300612
0
LINE
8
boundary
62
5
39
2
10
36.581073
20
180.300612
11
37.212685
21
182.009133
0
LINE
8
boundary
62
5
39
2
10
37.212685
20
182.009133
11
38.137215
21
184.415294
0
LINE
8
boundary
62
5
39
2
10
38.137215
20
184.415294
11
38.805682
21
186.168474
0
LINE
8
boundary
62
5
39
2
10
38.805682
20
186.168474
11
39.718544
21
188.488947
0
LINE
8
boundary
62
5
39
2
10
39.718544
20
188.488947
11
40.419971
21
190.284556
0
LINE
8
boundary
62
5
39
2
10
40.419971
20
190.284556
11
41.315761
21
192.523231
0
LINE
8
boundary
62
5
39
2
10
41.315761
20
192.523231
11
42.045550
21
194.358723
0
LINE
8
boundary
62
5
39
2
10
42.045550
20
194.358723
11
42.919706
21
196.519553
0
LINE
8
boundary
62
5
39
2
10
42.919706
20
196.519553
11
43.672813
21
198.391945
0
LINE
8
boundary
62
5
39
2
10
43.672813
20
198.391945
11
45.321982
21
202.452018
0
LINE
8
boundary
62
5
39
2
10
45.321982
20
202.452018
11
46.893834
21
206.340401
0
LINE
8
boundary
62
5
39
2
10
46.893834
20
206.340401
11
48.417740
21
210.149998
0
LINE
8
boundary
62
5
39
2
10
48.417740
20
210.149998
11
50.008092
21
214.139262
0
LINE
8
boundary
62
5
39
2
10
50.008092
20
214.139262
11
50.723261
21
215.977913
0
LINE
8
boundary
62
5
39
2
10
50.723261
20
215.977913
11
51.502417
21
217.985601
0
LINE
8
boundary
62
5
39
2
10
51.502417
20
217.985601
11
52.178444
21
219.773459
0
LINE
8
boundary
62
5
39
2
10
52.178444
20
219.773459
11
52.942823
21
221.798049
0
LINE
8
boundary
62
5
39
2
10
52.942823
20
221.798049
11
53.577999
21
223.539596
0
LINE
8
boundary
62
5
39
2
10
53.577999
20
223.539596
11
54.320841
21
225.577758
0
LINE
8
boundary
62
5
39
2
10
54.320841
20
225.577758
11
54.623652
21
226.435727
0
LINE
8
boundary
62
5
39
2
10
54.623652
20
226.435727
11
54.983616
21
227.455714
0
LINE
8
boundary
62
5
39
2
10
54.983616
20
227.455714
11
55.275494
21
228.303605
0
LINE
8
boundary
62
5
39
2
10
55.275494
20
228.303605
11
55.627573
21
229.325979
0
LINE
8
boundary
62
5
39
2
10
55.627573
20
229.325979
11
56.079482
21
230.688484
0
LINE
8
boundary
62
5
39
2
10
56.079482
20
230.688484
11
56.636537
21
232.366211
0
LINE
8
boundary
62
5
39
2
10
56.636537
20
232.366211
11
57.073834
21
233.755460
0
LINE
8
boundary
62
5
39
2
10
57.073834
20
233.755460
11
57.623996
21
235.499993
0
LINE
8
boundary
62
5
39
2
10
57.623996
20
235.499993
11
57.836608
21
236.205820
0
LINE
8
boundary
62
5
39
2
10
57.836608
20
236.205820
11
58.106682
21
237.100211
0
LINE
8
boundary
62
5
39
2
10
58.106682
20
237.100211
11
58.314251
21
237.812025
0
LINE
8
boundary
62
5
39
2
10
58.314251
20
237.812025
11
58.580309
21
238.721601
0
LINE
8
boundary
62
5
39
2
10
58.580309
20
238.721601
11
58.782393
21
239.439219
0
LINE
8
boundary
62
5
39
2
10
58.782393
20
239.439219
11
59.043638
21
240.363539
0
LINE
8
boundary
62
5
39
2
10
59.043638
20
240.363539
11
59.239937
21
241.086736
0
LINE
8
boundary
62
5
39
2
10
59.239937
20
241.086736
11
59.495720
21
242.025194
0
LINE
8
boundary
62
5
39
2
10
59.495720
20
242.025194
11
59.685708
21
242.753966
0
LINE
8
boundary
62
5
39
2
10
59.685708
20
242.753966
11
59.935108
21
243.706078
0
LINE
8
boundary
62
5
39
2
10
59.935108
20
243.706078
11
60.118475
21
244.440195
0
LINE
8
boundary
62
5
39
2
10
60.118475
20
244.440195
11
60.360837
21
245.405338
0
LINE
8
boundary
62
5
39
2
10
60.360837
20
245.405338
11
60.537122
21
246.144845
0
LINE
8
boundary
62
5
39
2
10
60.537122
20
246.144845
11
60.771641
21
247.122446
0
LINE
8
boundary
62
5
39
2
10
60.771641
20
247.122446
11
60.940568
21
247.867210
0
LINE
8
boundary
62
5
39
2
10
60.940568
20
247.867210
11
61.166584
21
248.856746
0
LINE
8
boundary
62
5
39
2
10
61.166584
20
248.856746
11
61.327656
21
249.606700
0
LINE
8
boundary
62
5
39
2
10
61.327656
20
249.606700
11
61.544297
21
250.607416
0
LINE
8
boundary
62
5
39
2
10
61.544297
20
250.607416
11
61.697163
21
251.362586
0
LINE
8
boundary
62
5
39
2
10
61.697163
20
251.362586
11
61.903736
21
252.374025
0
LINE
8
boundary
62
5
39
2
10
61.903736
20
252.374025
11
62.048029
21
253.134369
0
LINE
8
boundary
62
5
39
2
10
62.048029
20
253.134369
11
62.243823
21
254.155824
0
LINE
8
boundary
62
5
39
2
10
62.243823
20
254.155824
11
62.379186
21
254.921331
0
LINE
8
boundary
62
5
39
2
10
62.379186
20
254.921331
11
62.563545
21
255.952194
0
LINE
8
boundary
62
5
39
2
10
62.563545
20
255.952194
11
62.689596
21
256.722924
0
LINE
8
boundary
62
5
39
2
10
62.689596
20
256.722924
11
62.861815
21
257.762515
0
LINE
8
boundary
62
5
39
2
10
62.861815
20
257.762515
11
62.978154
21
258.538537
0
LINE
8
boundary
62
5
39
2
10
62.978154
20
258.538537
11
63.137564
21
259.586259
0
LINE
8
boundary
62
5
39
2
10
63.137564
20
259.586259
11
63.243808
21
260.367533
0
LINE
8
boundary
62
5
39
2
10
63.243808
20
260.367533
11
63.389724
21
261.422761
0
LINE
8
boundary
62
5
39
2
10
63.389724
20
261.422761
11
63.485443
21
262.209427
0
LINE
8
boundary
62
5
39
2
10
63.485443
20
262.209427
11
63.617221
21
263.271483
0
LINE
8
boundary
62
5
39
2
10
63.617221
20
263.271483
11
63.702095
21
264.063516
0
LINE
8
boundary
62
5
39
2
10
63.702095
20
264.063516
11
63.819217
21
265.131629
0
LINE
8
boundary
62
5
39
2
10
63.819217
20
265.131629
11
63.892787
21
265.929224
0
LINE
8
boundary
62
5
39
2
10
63.892787
20
265.929224
11
63.994602
21
267.003014
0
LINE
8
boundary
62
5
39
2
10
63.994602
20
267.003014
11
64.056465
21
267.806168
0
LINE
8
boundary
62
5
39
2
10
64.056465
20
267.806168
11
64.142442
21
268.884644
0
LINE
8
boundary
62
5
39
2
10
64.142442
20
268.884644
11
64.192198
21
269.693470
0
LINE
8
boundary
62
5
39
2
10
64.192198
20
269.693470
11
64.261756
21
270.776230
0
LINE
8
boundary
62
5
39
2
10
64.261756
20
270.776230
11
64.298925
21
271.590864
0
LINE
8
boundary
62
5
39
2
10
64.298925
20
271.590864
11
64.351545
21
272.677205
0
LINE
8
boundary
62
5
39
2
10
64.351545
20
272.677205
11
64.375723
21
273.497731
0
LINE
8
boundary
62
5
39
2
10
64.375723
20
273.497731
11
64.410979
21
274.586885
0
LINE
8
boundary
62
5
39
2
10
64.410979
20
274.586885
11
64.421702
21
275.413354
0
LINE
8
boundary
62
5
39
2
10
64.421702
20
275.413354
11
64.439145
21
276.504694
0
LINE
8
boundary
62
5
39
2
10
64.439145
20
276.504694
11
64.435970
21
277.337273
0
LINE
8
boundary
62
5
39
2
10
64.435970
20
277.337273
11
64.435127
21
278.430294
0
LINE
8
boundary
62
5
39
2
10
64.435127
20
278.430294
11
64.417583
21
279.269134
0
LINE
8
boundary
62
5
39
2
10
64.417583
20
279.269134
11
64.398128
21
280.363014
0
LINE
8
boundary
62
5
39
2
10
64.398128
20
280.363014
11
64.365634
21
281.208106
0
LINE
8
boundary
62
5
39
2
10
64.365634
20
281.208106
11
64.327079
21
282.302298
0
LINE
8
boundary
62
5
39
2
10
64.327079
20
282.302298
11
64.279250
21
283.153829
0
LINE
8
boundary
62
5
39
2
10
64.279250
20
283.153829
11
64.221404
21
284.247649
0
LINE
8
boundary
62
5
39
2
10
64.221404
20
284.247649
11
64.157629
21
285.105725
0
LINE
8
boundary
62
5
39
2
10
64.157629
20
285.105725
11
64.080083
21
286.198519
0
LINE
8
boundary
62
5
39
2
10
64.080083
20
286.198519
11
63.999879
21
287.063246
0
LINE
8
boundary
62
5
39
2
10
63.999879
20
287.063246
11
63.902408
21
288.154339
0
LINE
8
boundary
62
5
39
2
10
63.902408
20
288.154339
11
63.805232
21
289.025814
0
LINE
8
boundary
62
5
39
2
10
63.805232
20
289.025814
11
63.687626
21
290.114751
0
LINE
8
boundary
62
5
39
2
10
63.687626
20
290.114751
11
63.572898
21
290.993048
0
LINE
8
boundary
62
5
39
2
10
63.572898
20
290.993048
11
63.434920
21
292.078990
0
LINE
8
boundary
62
5
39
2
10
63.434920
20
292.078990
11
63.302084
21
292.964289
0
LINE
8
boundary
62
5
39
2
10
63.302084
20
292.964289
11
63.143601
21
294.046771
0
LINE
8
boundary
62
5
39
2
10
63.143601
20
294.046771
11
62.992043
21
294.939060
0
LINE
8
boundary
62
5
39
2
10
62.992043
20
294.939060
11
62.812910
21
296.017382
0
LINE
8
boundary
62
5
39
2
10
62.812910
20
296.017382
11
62.642090
21
296.916768
0
LINE
8
boundary
62
5
39
2
10
62.642090
20
296.916768
11
62.442234
21
297.990388
0
LINE
8
boundary
62
5
39
2
10
62.442234
20
297.990388
11
62.251391
21
298.897005
0
LINE
8
boundary
62
5
39
2
10
62.251391
20
298.897005
11
62.030659
21
299.965302
0
LINE
8
boundary
62
5
39
2
10
62.030659
20
299.965302
11
61.819263
21
300.879217
0
LINE
8
boundary
62
5
39
2
10
61.819263
20
300.879217
11
61.577712
21
301.941533
0
LINE
8
boundary
62
5
39
2
10
61.577712
20
301.941533
11
61.345085
21
302.862800
0
LINE
8
boundary
62
5
39
2
10
61.345085
20
302.862800
11
61.082724
21
303.918603
0
LINE
8
boundary
62
5
39
2
10
61.082724
20
303.918603
11
60.828173
21
304.847313
0
LINE
8
boundary
62
5
39
2
10
60.828173
20
304.847313
11
60.545026
21
305.896020
0
LINE
8
boundary
62
5
39
2
10
60.545026
20
305.896020
11
60.267851
21
306.832213
0
LINE
8
boundary
62
5
39
2
10
60.267851
20
306.832213
11
59.963986
21
307.873215
0
LINE
8
boundary
62
5
39
2
10
59.963986
20
307.873215
11
59.663474
21
308.817069
0
LINE
8
boundary
62
5
39
2
10
59.663474
20
308.817069
11
59.339022
21
309.849754
0
LINE
8
boundary
62
5
39
2
10
59.339022
20
309.849754
11
59.009905
21
310.837591
0
LINE
8
boundary
62
5
39
2
10
59.009905
20
310.837591
11
58.669589
21
311.825042
0
LINE
8
boundary
62
5
39
2
10
58.669589
20
311.825042
11
58.318055
21
312.812031
0
LINE
8
boundary
62
5
39
2
10
58.318055
20
312.812031
11
58.140629
21
313.291384
0
LINE
8
boundary
62
5
39
2
10
58.140629
20
313.291384
11
57.955158
21
313.798540
0
LINE
8
boundary
62
5
39
2
10
57.955158
20
313.798540
11
57.771368
21
314.279830
0
LINE
8
boundary
62
5
39
2
10
57.771368
20
314.279830
11
57.580881
21
314.784470
0
LINE
8
boundary
62
5
39
2
10
57.580881
20
314.784470
11
57.390631
21
315.267597
0
LINE
8
boundary
62
5
39
2
10
57.390631
20
315.267597
11
57.195152
21
315.769717
0
LINE
8
boundary
62
5
39
2
10
57.195152
20
315.769717
11
56.998331
21
316.254792
0
LINE
8
boundary
62
5
39
2
10
56.998331
20
316.254792
11
56.797882
21
316.754355
0
LINE
8
boundary
62
5
39
2
10
56.797882
20
316.754355
11
56.594380
21
317.241366
0
LINE
8
boundary
62
5
39
2
10
56.594380
20
317.241366
11
56.389034
21
317.738277
0
LINE
8
boundary
62
5
39
2
10
56.389034
20
317.738277
11
56.178745
21
318.227153
0
LINE
8
boundary
62
5
39
2
10
56.178745
20
318.227153
11
55.968449
21
318.721261
0
LINE
8
boundary
62
5
39
2
10
55.968449
20
318.721261
11
55.751328
21
319.212060
0
LINE
8
boundary
62
5
39
2
10
55.751328
20
319.212060
11
55.536235
21
319.703418
0
LINE
8
boundary
62
5
39
2
10
55.536235
20
319.703418
11
55.312145
21
320.196110
0
LINE
8
boundary
62
5
39
2
10
55.312145
20
320.196110
11
55.092272
21
320.684477
0
LINE
8
boundary
62
5
39
2
10
55.092272
20
320.684477
11
54.861073
21
321.179169
0
LINE
8
boundary
62
5
39
2
10
54.861073
20
321.179169
11
54.636427
21
321.664733
0
LINE
8
boundary
62
5
39
2
10
54.636427
20
321.664733
11
54.398050
21
322.161338
0
LINE
8
boundary
62
5
39
2
10
54.398050
20
322.161338
11
54.168745
21
322.643721
0
LINE
8
boundary
62
5
39
2
10
54.168745
20
322.643721
11
53.923031
21
323.142222
0
LINE
8
boundary
62
5
39
2
10
53.923031
20
323.142222
11
53.689026
21
323.621613
0
LINE
8
boundary
62
5
39
2
10
53.689026
20
323.621613
11
53.435908
21
324.122100
0
LINE
8
boundary
62
5
39
2
10
53.435908
20
324.122100
11
53.197357
21
324.598319
0
LINE
8
boundary
62
5
39
2
10
53.197357
20
324.598319
11
52.936698
21
325.100712
0
LINE
8
boundary
62
5
39
2
10
52.936698
20
325.100712
11
52.693605
21
325.573635
0
LINE
8
boundary
62
5
39
2
10
52.693605
20
325.573635
11
52.425288
21
326.078094
0
LINE
8
boundary
62
5
39
2
10
52.425288
20
326.078094
11
52.177755
21
326.547723
0
LINE
8
boundary
62
5
39
2
10
52.177755
20
326.547723
11
51.901687
21
327.054069
0
LINE
8
boundary
62
5
39
2
10
51.901687
20
327.054069
11
51.649766
21
327.520307
0
LINE
8
boundary
62
5
39
2
10
51.649766
20
327.520307
11
51.365731
21
328.028672
0
LINE
8
boundary
62
5
39
2
10
51.365731
20
328.028672
11
51.109426
21
328.491457
0
LINE
8
boundary
62
5
39
2
10
51.109426
20
328.491457
11
50.817442
21
329.001844
0
LINE
8
boundary
62
5
39
2
10
50.817442
20
329.001844
11
50.556969
21
329.461035
0
LINE
8
boundary
62
5
39
2
10
50.556969
20
329.461035
11
50.256791
21
329.973363
0
LINE
8
boundary
62
5
39
2
10
50.256791
20
329.973363
11
49.992104
21
330.429003
0
LINE
8
boundary
62
5
39
2
10
49.992104
20
330.429003
11
49.683583
21
330.943323
0
LINE
8
boundary
62
5
39
2
10
49.683583
20
330.943323
11
49.414769
21
331.395191
0
LINE
8
boundary
62
5
39
2
10
49.414769
20
331.395191
11
49.097864
21
331.911595
0
LINE
8
boundary
62
5
39
2
10
49.097864
20
331.911595
11
48.825092
21
332.359704
0
LINE
8
boundary
62
5
39
2
10
48.825092
20
332.359704
11
48.499606
21
332.878179
0
LINE
8
boundary
62
5
39
2
10
48.499606
20
332.878179
11
48.222914
21
333.322412
0
LINE
8
boundary
62
5
39
2
10
48.222914
20
333.322412
11
47.888717
21
333.842896
0
LINE
8
boundary
62
5
39
2
10
47.888717
20
333.842896
11
47.608198
21
334.283229
0
LINE
8
boundary
62
5
39
2
10
47.608198
20
334.283229
11
47.265135
21
334.805813
0
LINE
8
boundary
62
5
39
2
10
47.265135
20
334.805813
11
46.980907
21
335.242095
0
LINE
8
boundary
62
5
39
2
10
46.980907
20
335.242095
11
46.628751
21
335.766749
0
LINE
8
boundary
62
5
39
2
10
46.628751
20
335.766749
11
46.340858
21
336.198940
0
LINE
8
boundary
62
5
39
2
10
46.340858
20
336.198940
11
45.979584
21
336.725699
0
LINE
8
boundary
62
5
39
2
10
45.979584
20
336.725699
11
45.688238
21
337.153656
0
LINE
8
boundary
62
5
39
2
10
45.688238
20
337.153656
11
45.317643
21
337.682573
0
LINE
8
boundary
62
5
39
2
10
45.317643
20
337.682573
11
45.022913
21
338.106235
0
LINE
8
boundary
62
5
39
2
10
45.022913
20
338.106235
11
44.642790
21
338.637298
0
LINE
8
boundary
62
5
39
2
10
44.642790
20
338.637298
11
44.344788
21
339.056617
0
LINE
8
boundary
62
5
39
2
10
44.344788
20
339.056617
11
43.954944
21
339.589875
0
LINE
8
boundary
62
5
39
2
10
43.954944
20
339.589875
11
43.653816
21
340.004660
0
LINE
8
boundary
62
5
39
2
10
43.653816
20
340.004660
11
43.254081
21
340.540180
0
LINE
8
boundary
62
5
39
2
10
43.254081
20
340.540180
11
42.949928
21
340.950432
0
LINE
8
boundary
62
5
39
2
10
42.949928
20
340.950432
11
42.540152
21
341.488254
0
LINE
8
boundary
62
5
39
2
10
42.540152
20
341.488254
11
42.233164
21
341.893844
0
LINE
8
boundary
62
5
39
2
10
42.233164
20
341.893844
11
41.813117
21
342.433844
0
LINE
8
boundary
62
5
39
2
10
41.813117
20
342.433844
11
41.072860
21
343.376979
0
LINE
8
boundary
62
5
39
2
10
41.072860
20
343.376979
11
40.319487
21
344.317587
0
LINE
8
boundary
62
5
39
2
10
40.319487
20
344.317587
11
39.552753
21
345.255636
0
LINE
8
boundary
62
5
39
2
10
39.552753
20
345.255636
11
38.772649
21
346.191035
0
LINE
8
boundary
62
5
39
2
10
38.772649
20
346.191035
11
37.979167
21
347.123709
0
LINE
8
boundary
62
5
39
2
10
37.979167
20
347.123709
11
37.172263
21
348.053693
0
LINE
8
boundary
62
5
39
2
10
37.172263
20
348.053693
11
36.715354
21
348.748571
0
LINE
8
boundary
62
5
39
2
10
36.715354
20
348.748571
11
36.507469
21
349.275814
0
LINE
8
boundary
62
5
39
2
10
36.507469
20
349.275814
11
36.325938
21
349.778316
0
LINE
8
boundary
62
5
39
2
10
36.325938
20
349.778316
11
36.112004
21
350.443853
0
LINE
8
boundary
62
5
39
2
10
36.112004
20
350.443853
11
35.932320
21
351.143043
0
LINE
8
boundary
62
5
39
2
10
35.932320
20
351.143043
11
35.819977
21
351.711795
0
LINE
8
boundary
62
5
39
2
10
35.819977
20
351.711795
11
35.751699
21
352.303255
0
LINE
8
boundary
62
5
39
2
10
35.751699
20
352.303255
11
35.741165
21
352.969499
0
LINE
8
boundary
62
5
39
2
10
35.741165
20
352.969499
11
35.812804
21
353.554069
0
LINE
8
boundary
62
5
39
2
10
35.812804
20
353.554069
11
35.961951
21
354.060899
0
LINE
8
boundary
62
5
39
2
10
35.961951
20
354.060899
11
36.236147
21
354.575776
0
LINE
8
boundary
62
5
39
2
10
36.236147
20
354.575776
11
36.643543
21
355.011390
0
LINE
8
boundary
62
5
39
2
10
36.643543
20
355.011390
11
37.114364
21
355.323853
0
LINE
8
boundary
62
5
39
2
10
37.114364
20
355.323853
11
37.710163
21
355.555311
0
LINE
8
boundary
62
5
39
2
10
37.710163
20
355.555311
11
38.229227
21
355.671765
0
LINE
8
boundary
62
5
39
2
10
38.229227
20
355.671765
11
38.794839
21
355.735691
0
LINE
8
boundary
62
5
39
2
10
38.794839
20
355.735691
11
39.402409
21
355.751053
0
LINE
8
boundary
62
5
39
2
10
39.402409
20
355.751053
11
40.047881
21
355.721063
0
LINE
8
boundary
62
5
39
2
10
40.047881
20
355.721063
11
40.920724
21
355.619822
0
LINE
8
boundary
62
5
39
2
10
40.920724
20
355.619822
11
41.634211
21
355.501111
0
LINE
8
boundary
62
5
39
2
10
41.634211
20
355.501111
11
42.371465
21
355.349136
0
LINE
8
boundary
62
5
39
2
10
42.371465
20
355.349136
11
43.128195
21
355.167403
0
LINE
8
boundary
62
5
39
2
10
43.128195
20
355.167403
11
43.900164
21
354.959339
0
LINE
8
boundary
62
5
39
2
10
43.900164
20
354.959339
11
44.683032
21
354.728714
0
LINE
8
boundary
62
5
39
2
10
44.683032
20
354.728714
11
45.472407
21
354.479155
0
LINE
8
boundary
62
5
39
2
10
45.472407
20
354.479155
11
46.263995
21
354.213948
0
LINE
8
boundary
62
5
39
2
10
46.263995
20
354.213948
11
47.053294
21
353.936897
0
LINE
8
boundary
62
5
39
2
10
47.053294
20
353.936897
11
48.220014
21
353.505480
0
LINE
8
boundary
62
5
39
2
10
48.220014
20
353.505480
11
48.986732
21
353.215873
0
LINE
8
boundary
62
5
39
2
10
48.986732
20
353.215873
11
49.721725
21
352.928181
0
LINE
8
boundary
62
5
39
2
10
49.721725
20
352.928181
11
50.462629
21
352.635859
0
LINE
8
boundary
62
5
39
2
10
50.462629
20
352.635859
11
51.134238
21
352.367310
0
LINE
8
boundary
62
5
39
2
10
51.134238
20
352.367310
11
51.828310
21
352.087357
0
LINE
8
boundary
62
5
39
2
10
51.828310
20
352.087357
11
52.252333
21
351.790802
0
LINE
8
boundary
62
5
39
2
10
52.252333
20
351.790802
11
52.696233
21
351.478319
0
LINE
8
boundary
62
5
39
2
10
52.696233
20
351.478319
11
53.124254
21
351.193296
0
LINE
8
boundary
62
5
39
2
10
53.124254
20
351.193296
11
53.578817
21
350.888655
0
LINE
8
boundary
62
5
39
2
10
53.578817
20
350.888655
11
54.010306
21
350.615161
0
LINE
8
boundary
62
5
39
2
10
54.010306
20
350.615161
11
54.475283
21
350.318291
0
LINE
8
boundary
62
5
39
2
10
54.475283
20
350.318291
11
55.385289
21
349.767475
0
LINE
8
boundary
62
5
39
2
10
55.385289
20
349.767475
11
56.308179
21
349.235922
0
LINE
8
boundary
62
5
39
2
10
56.308179
20
349.235922
11
57.243550
21
348.723812
0
LINE
8
boundary
62
5
39
2
10
57.243550
20
348.723812
11
58.190793
21
348.231028
0
LINE
8
boundary
62
5
39
2
10
58.190793
20
348.231028
11
59.149198
21
347.757748
0
LINE
8
boundary
62
5
39
2
10
59.149198
20
347.757748
11
60.118445
21
347.303745
0
LINE
8
boundary
62
5
39
2
10
60.118445
20
347.303745
11
61.097932
21
346.869220
0
LINE
8
boundary
62
5
39
2
10
61.097932
20
346.869220
11
62.087022
21
346.454061
0
LINE
8
boundary
62
5
39
2
10
62.087022
20
346.454061
11
63.085127
21
346.058303
0
LINE
8
boundary
62
5
39
2
10
63.085127
20
346.058303
11
64.091771
21
345.682116
0
LINE
8
boundary
62
5
39
2
10
64.091771
20
345.682116
11
65.106357
21
345.325208
0
LINE
8
boundary
62
5
39
2
10
65.106357
20
345.325208
11
66.128259
21
344.987786
0
LINE
8
boundary
62
5
39
2
10
66.128259
20
344.987786
11
67.156981
21
344.669883
0
LINE
8
boundary
62
5
39
2
10
67.156981
20
344.669883
11
68.191845
21
344.371347
0
LINE
8
boundary
62
5
39
2
10
68.191845
20
344.371347
11
69.232399
21
344.092376
0
LINE
8
boundary
62
5
39
2
10
69.232399
20
344.092376
11
70.277854
21
343.832972
0
LINE
8
boundary
62
5
39
2
10
70.277854
20
343.832972
11
71.327818
21
343.592901
0
LINE
8
boundary
62
5
39
2
10
71.327818
20
343.592901
11
72.381613
21
343.372181
0
LINE
8
boundary
62
5
39
2
10
72.381613
20
343.372181
11
73.438681
21
343.171230
0
LINE
8
boundary
62
5
39
2
10
73.438681
20
343.171230
11
74.498375
21
342.989660
0
LINE
8
boundary
62
5
39
2
10
74.498375
20
342.989660
11
75.560152
21
342.827565
0
LINE
8
boundary
62
5
39
2
10
75.560152
20
342.827565
11
76.623411
21
342.685150
0
LINE
8
boundary
62
5
39
2
10
76.623411
20
342.685150
11
77.687428
21
342.562191
0
LINE
8
boundary
62
5
39
2
10
77.687428
20
342.562191
11
78.751714
21
342.458805
0
LINE
8
boundary
62
5
39
2
10
78.751714
20
342.458805
11
79.815720
21
342.374932
0
LINE
8
boundary
62
5
39
2
10
79.815720
20
342.374932
11
80.878654
21
342.310672
0
LINE
8
boundary
62
5
39
2
10
80.878654
20
342.310672
11
81.940096
21
342.265837
0
LINE
8
boundary
62
5
39
2
10
81.940096
20
342.265837
11
82.999346
21
342.240691
0
LINE
8
boundary
62
5
39
2
10
82.999346
20
342.240691
11
84.055725
21
342.235002
0
LINE
8
boundary
62
5
39
2
10
84.055725
20
342.235002
11
85.108659
21
342.248912
0
LINE
8
boundary
62
5
39
2
10
85.108659
20
342.248912
11
86.157693
21
342.282520
0
LINE
8
boundary
62
5
39
2
10
86.157693
20
342.282520
11
87.201930
21
342.335622
0
LINE
8
boundary
62
5
39
2
10
87.201930
20
342.335622
11
88.241021
21
342.408393
0
LINE
8
boundary
62
5
39
2
10
88.241021
20
342.408393
11
89.274185
21
342.500759
0
LINE
8
boundary
62
5
39
2
10
89.274185
20
342.500759
11
90.300822
21
342.612706
0
LINE
8
boundary
62
5
39
2
10
90.300822
20
342.612706
11
91.320372
21
342.744278
0
LINE
8
boundary
62
5
39
2
10
91.320372
20
342.744278
11
92.332237
21
342.895465
0
LINE
8
boundary
62
5
39
2
10
92.332237
20
342.895465
11
93.335683
21
343.066303
0
LINE
8
boundary
62
5
39
2
10
93.335683
20
343.066303
11
94.330210
21
343.256718
0
LINE
8
boundary
62
5
39
2
10
94.330210
20
343.256718
11
95.315156
21
343.466827
0
LINE
8
boundary
62
5
39
2
10
95.315156
20
343.466827
11
96.289893
21
343.696499
0
LINE
8
boundary
62
5
39
2
10
96.289893
20
343.696499
11
97.253777
21
343.945932
0
LINE
8
boundary
62
5
39
2
10
97.253777
20
343.945932
11
98.206180
21
344.214956
0
LINE
8
boundary
62
5
39
2
10
98.206180
20
344.214956
11
99.146669
21
344.503548
0
LINE
8
boundary
62
5
39
2
10
99.146669
20
344.503548
11
100.074366
21
344.811925
0
LINE
8
boundary
62
5
39
2
10
100.074366
20
344.811925
11
100.988841
21
345.139972
0
LINE
8
boundary
62
5
39
2
10
100.988841
20
345.139972
11
101.889429
21
345.487629
0
LINE
8
boundary
62
5
39
2
10
101.889429
20
345.487629
11
102.775498
21
345.854905
0
LINE
8
boundary
62
5
39
2
10
102.775498
20
345.854905
11
103.646529
21
346.241917
0
LINE
8
boundary
62
5
39
2
10
103.646529
20
346.241917
11
104.501747
21
346.648600
0
LINE
8
boundary
62
5
39
2
10
104.501747
20
346.648600
11
105.340697
21
347.075021
0
LINE
8
boundary
62
5
39
2
10
105.340697
20
347.075021
11
106.162806
21
347.521019
0
LINE
8
boundary
62
5
39
2
10
106.162806
20
347.521019
11
106.967335
21
347.986888
0
LINE
8
boundary
62
5
39
2
10
106.967335
20
347.986888
11
107.753732
21
348.472360
0
LINE
8
boundary
62
5
39
2
10
107.753732
20
348.472360
11
108.521504
21
348.977408
0
LINE
8
boundary
62
5
39
2
10
108.521504
20
348.977408
11
109.269948
21
349.502260
0
LINE
8
boundary
62
5
39
2
10
109.269948
20
349.502260
11
109.998504
21
350.047053
0
LINE
8
boundary
62
5
39
2
10
109.998504
20
350.047053
11
110.706636
21
350.611269
0
LINE
8
boundary
62
5
39
2
10
110.706636
20
350.611269
11
111.393680
21
351.195370
0
LINE
8
boundary
62
5
39
2
10
111.393680
20
351.195370
11
112.059180
21
351.799156
0
LINE
8
boundary
62
5
39
2
10
112.059180
20
351.799156
11
112.702521
21
352.422608
0
LINE
8
boundary
62
5
39
2
10
112.702521
20
352.422608
11
113.219871
21
352.790321
0
LINE
8
boundary
62
5
39
2
10
113.219871
20
352.790321
11
113.831495
21
353.269313
0
LINE
8
boundary
62
5
39
2
10
113.831495
20
353.269313
11
114.267013
21
353.654937
0
LINE
8
boundary
62
5
39
2
10
114.267013
20
353.654937
11
114.776787
21
354.157237
0
LINE
8
boundary
62
5
39
2
10
114.776787
20
354.157237
11
115.133428
21
354.559941
0
LINE
8
boundary
62
5
39
2
10
115.133428
20
354.559941
11
115.544404
21
355.084575
0
LINE
8
boundary
62
5
39
2
10
115.544404
20
355.084575
11
115.960473
21
355.723997
0
LINE
8
boundary
62
5
39
2
10
115.960473
20
355.723997
11
116.302150
21
356.379709
0
LINE
8
boundary
62
5
39
2
10
116.302150
20
356.379709
11
116.571220
21
357.051286
0
LINE
8
boundary
62
5
39
2
10
116.571220
20
357.051286
11
116.769543
21
357.738217
0
LINE
8
boundary
62
5
39
2
10
116.769543
20
357.738217
11
116.899053
21
358.439883
0
LINE
8
boundary
62
5
39
2
10
116.899053
20
358.439883
11
116.961559
21
359.155928
0
LINE
8
boundary
62
5
39
2
10
116.961559
20
359.155928
11
116.959071
21
359.885859
0
LINE
8
boundary
62
5
39
2
10
116.959071
20
359.885859
11
116.893463
21
360.629100
0
LINE
8
boundary
62
5
39
2
10
116.893463
20
360.629100
11
116.766570
21
361.385217
0
LINE
8
boundary
62
5
39
2
10
116.766570
20
361.385217
11
116.649886
21
361.889020
0
LINE
8
boundary
62
5
39
2
10
116.649886
20
361.889020
11
116.465882
21
362.542370
0
LINE
8
boundary
62
5
39
2
10
116.465882
20
362.542370
11
116.292829
21
363.057877
0
LINE
8
boundary
62
5
39
2
10
116.292829
20
363.057877
11
116.038258
21
363.725799
0
LINE
8
boundary
62
5
39
2
10
116.038258
20
363.725799
11
115.811819
21
364.252094
0
LINE
8
boundary
62
5
39
2
10
115.811819
20
364.252094
11
115.490468
21
364.933587
0
LINE
8
boundary
62
5
39
2
10
115.490468
20
364.933587
11
115.213385
21
365.470192
0
LINE
8
boundary
62
5
39
2
10
115.213385
20
365.470192
11
114.912299
21
366.011920
0
LINE
8
boundary
62
5
39
2
10
114.912299
20
366.011920
11
114.584377
21
366.579163
0
LINE
8
boundary
62
5
39
2
10
114.584377
20
366.579163
11
114.060365
21
367.415879
0
LINE
8
boundary
62
5
39
2
10
114.060365
20
367.415879
11
113.491709
21
368.261378
0
LINE
8
boundary
62
5
39
2
10
113.491709
20
368.261378
11
112.880372
21
369.114969
0
LINE
8
boundary
62
5
39
2
10
112.880372
20
369.114969
11
112.228112
21
369.976206
0
LINE
8
boundary
62
5
39
2
10
112.228112
20
369.976206
11
111.536976
21
370.844584
0
LINE
8
boundary
62
5
39
2
10
111.536976
20
370.844584
11
110.808887
21
371.719762
0
LINE
8
boundary
62
5
39
2
10
110.808887
20
371.719762
11
110.045655
21
372.601114
0
LINE
8
boundary
62
5
39
2
10
110.045655
20
372.601114
11
109.249257
21
373.488043
0
LINE
8
boundary
62
5
39
2
10
109.249257
20
373.488043
11
108.421562
21
374.380189
0
LINE
8
boundary
62
5
39
2
10
108.421562
20
374.380189
11
107.564372
21
375.277143
0
LINE
8
boundary
62
5
39
2
10
107.564372
20
375.277143
11
106.679552
21
376.178344
0
LINE
8
boundary
62
5
39
2
10
106.679552
20
376.178344
11
105.769076
21
377.083149
0
LINE
8
boundary
62
5
39
2
10
105.769076
20
377.083149
11
104.834575
21
377.991279
0
LINE
8
boundary
62
5
39
2
10
104.834575
20
377.991279
11
103.877986
21
378.902158
0
LINE
8
boundary
62
5
39
2
10
103.877986
20
378.902158
11
102.900943
21
379.815339
0
LINE
8
boundary
62
5
39
2
10
102.900943
20
379.815339
11
101.905434
21
380.730225
0
LINE
8
boundary
62
5
39
2
10
101.905434
20
380.730225
11
100.893124
21
381.646484
0
LINE
8
boundary
62
5
39
2
10
100.893124
20
381.646484
11
99.865680
21
382.563421
0
LINE
8
boundary
62
5
39
2
10
99.865680
20
382.563421
11
98.824885
21
383.480724
0
LINE
8
boundary
62
5
39
2
10
98.824885
20
383.480724
11
97.772312
21
384.397832
0
LINE
8
boundary
62
5
39
2
10
97.772312
20
384.397832
11
96.709887
21
385.314229
0
LINE
8
boundary
62
5
39
2
10
96.709887
20
385.314229
11
95.639085
21
386.229526
0
LINE
8
boundary
62
5
39
2
10
95.639085
20
386.229526
11
94.953561
21
386.809465
0
LINE
8
boundary
62
5
39
2
10
94.953561
20
386.809465
11
93.478953
21
388.054650
0
LINE
8
boundary
62
5
39
2
10
93.478953
20
388.054650
11
92.790920
21
388.629778
0
LINE
8
boundary
62
5
39
2
10
92.790920
20
388.629778
11
91.304853
21
389.869419
0
LINE
8
boundary
62
5
39
2
10
91.304853
20
389.869419
11
90.618867
21
390.437946
0
LINE
8
boundary
62
5
39
2
10
90.618867
20
390.437946
11
89.129373
21
391.669695
0
LINE
8
boundary
62
5
39
2
10
89.129373
20
391.669695
11
88.449864
21
392.230054
0
LINE
8
boundary
62
5
39
2
10
88.449864
20
392.230054
11
86.964678
21
393.451783
0
LINE
8
boundary
62
5
39
2
10
86.964678
20
393.451783
11
86.295948
21
394.002337
0
LINE
8
boundary
62
5
39
2
10
86.295948
20
394.002337
11
84.822673
21
395.211846
0
LINE
8
boundary
62
5
39
2
10
84.822673
20
395.211846
11
83.515235
21
396.292239
0
LINE
8
boundary
62
5
39
2
10
83.515235
20
396.292239
11
80.652999
21
398.650262
0
LINE
8
boundary
62
5
39
2
10
80.652999
20
398.650262
11
79.436907
21
399.671680
0
LINE
8
boundary
62
5
39
2
10
79.436907
20
399.671680
11
76.710041
21
401.953580
0
LINE
8
boundary
62
5
39
2
10
76.710041
20
401.953580
11
76.153496
21
402.431200
0
LINE
8
boundary
62
5
39
2
10
76.153496
20
402.431200
11
74.850299
21
403.544811
0
LINE
8
boundary
62
5
39
2
10
74.850299
20
403.544811
11
74.326369
21
404.003609
0
LINE
8
boundary
62
5
39
2
10
74.326369
20
404.003609
11
73.079063
21
405.090952
0
LINE
8
boundary
62
5
39
2
10
73.079063
20
405.090952
11
72.013660
21
406.022811
0
LINE
8
boundary
62
5
39
2
10
72.013660
20
406.022811
11
70.957281
21
406.929136
0
LINE
8
boundary
62
5
39
2
10
70.957281
20
406.929136
11
69.909612
21
407.810591
0
LINE
8
boundary
62
5
39
2
10
69.909612
20
407.810591
11
68.870390
21
408.667243
0
LINE
8
boundary
62
5
39
2
10
68.870390
20
408.667243
11
67.839394
21
409.499771
0
LINE
8
boundary
62
5
39
2
10
67.839394
20
409.499771
11
66.816410
21
410.308121
0
LINE
8
boundary
62
5
39
2
10
66.816410
20
410.308121
11
65.801297
21
411.093098
0
LINE
8
boundary
62
5
39
2
10
65.801297
20
411.093098
11
64.793796
21
411.854792
0
LINE
8
boundary
62
5
39
2
10
64.793796
20
411.854792
11
63.793663
21
412.593932
0
LINE
8
boundary
62
5
39
2
10
63.793663
20
412.593932
11
62.800698
21
413.310504
0
LINE
8
boundary
62
5
39
2
10
62.800698
20
413.310504
11
61.814762
21
414.005085
0
LINE
8
boundary
62
5
39
2
10
61.814762
20
414.005085
11
60.835593
21
414.678143
0
LINE
8
boundary
62
5
39
2
10
60.835593
20
414.678143
11
59.863061
21
415.329831
0
LINE
8
boundary
62
5
39
2
10
59.863061
20
415.329831
11
58.896990
21
415.960739
0
LINE
8
boundary
62
5
39
2
10
58.896990
20
415.960739
11
57.937129
21
416.571019
0
LINE
8
boundary
62
5
39
2
10
57.937129
20
416.571019
11
56.983326
21
417.161410
0
LINE
8
boundary
62
5
39
2
10
56.983326
20
417.161410
11
56.035433
21
417.731985
0
LINE
8
boundary
62
5
39
2
10
56.035433
20
417.731985
11
55.093238
21
418.283255
0
LINE
8
boundary
62
5
39
2
10
55.093238
20
418.283255
11
54.156577
21
418.815658
0
LINE
8
boundary
62
5
39
2
10
54.156577
20
418.815658
11
53.225404
21
419.329471
0
LINE
8
boundary
62
5
39
2
10
53.225404
20
419.329471
11
52.299446
21
419.825037
0
LINE
8
boundary
62
5
39
2
10
52.299446
20
419.825037
11
51.378528
21
420.303048
0
LINE
8
boundary
62
5
39
2
10
51.378528
20
420.303048
11
50.462567
21
420.763566
0
LINE
8
boundary
62
5
39
2
10
50.462567
20
420.763566
11
49.551408
21
421.207080
0
LINE
8
boundary
62
5
39
2
10
49.551408
20
421.207080
11
48.644964
21
421.633993
0
LINE
8
boundary
62
5
39
2
10
48.644964
20
421.633993
11
47.742963
21
422.044807
0
LINE
8
boundary
62
5
39
2
10
47.742963
20
422.044807
11
46.845473
21
422.439636
0
LINE
8
boundary
62
5
39
2
10
46.845473
20
422.439636
11
45.952190
21
422.819094
0
LINE
8
boundary
62
5
39
2
10
45.952190
20
422.819094
11
45.063119
21
423.183411
0
LINE
8
boundary
62
5
39
2
10
45.063119
20
423.183411
11
44.178008
21
423.533239
0
LINE
8
boundary
62
5
39
2
10
44.178008
20
423.533239
11
43.296926
21
423.868655
0
LINE
8
boundary
62
5
39
2
10
43.296926
20
423.868655
11
42.419598
21
424.190361
0
LINE
8
boundary
62
5
39
2
10
42.419598
20
424.190361
11
41.546006
21
424.498550
0
LINE
8
boundary
62
5
39
2
10
41.546006
20
424.498550
11
40.676051
21
424.793445
0
LINE
8
boundary
62
5
39
2
10
40.676051
20
424.793445
11
39.809528
21
425.075919
0
LINE
8
boundary
62
5
39
2
10
39.809528
20
425.075919
11
38.946519
21
425.345938
0
LINE
8
boundary
62
5
39
2
10
38.946519
20
425.345938
11
38.086818
21
425.604152
0
LINE
8
boundary
62
5
39
2
10
38.086818
20
425.604152
11
37.230392
21
425.850911
0
LINE
8
boundary
62
5
39
2
10
37.230392
20
425.850911
11
36.377159
21
426.086337
0
LINE
8
boundary
62
5
39
2
10
36.377159
20
426.086337
11
35.527038
21
426.311305
0
LINE
8
boundary
62
5
39
2
10
35.527038
20
426.311305
11
34.679902
21
426.525805
0
LINE
8
boundary
62
5
39
2
10
34.679902
20
426.525805
11
33.835743
21
426.730422
0
LINE
8
boundary
62
5
39
2
10
33.835743
20
426.730422
11
32.156138
21
427.111366
0
LINE
8
boundary
62
5
39
2
10
32.156138
20
427.111366
11
30.487632
21
427.457527
0
LINE
8
boundary
62
5
39
2
10
30.487632
20
427.457527
11
28.829898
21
427.771826
0
LINE
8
boundary
62
5
39
2
10
28.829898
20
427.771826
11
27.182558
21
428.057670
0
LINE
8
boundary
62
5
39
2
10
27.182558
20
428.057670
11
25.545294
21
428.317903
0
LINE
8
boundary
62
5
39
2
10
25.545294
20
428.317903
11
23.917833
21
428.556140
0
LINE
8
boundary
62
5
39
2
10
23.917833
20
428.556140
11
22.300156
21
428.775264
0
LINE
8
boundary
62
5
39
2
10
22.300156
20
428.775264
11
20.692040
21
428.978616
0
LINE
8
boundary
62
5
39
2
10
20.692040
20
428.978616
11
19.093310
21
429.169267
0
LINE
8
boundary
62
5
39
2
10
19.093310
20
429.169267
11
18.338494
21
429.254226
0
LINE
8
boundary
62
5
39
2
10
18.338494
20
429.254226
11
15.924324
21
429.525721
0
LINE
8
boundary
62
5
39
2
10
15.924324
20
429.525721
11
15.732142
21
427.649836
0
LINE
8
boundary
62
5
39
2
10
15.732142
20
427.649836
11
15.174147
21
422.026286
0
LINE
8
boundary
62
5
39
2
10
15.174147
20
422.026286
11
16.426942
21
421.891775
0
LINE
8
boundary
62
5
39
2
10
16.426942
20
421.891775
11
19.555763
21
421.555883
0
LINE
8
boundary
62
5
39
2
10
19.555763
20
421.555883
11
20.799813
21
421.191397
0
LINE
8
boundary
62
5
39
2
10
20.799813
20
421.191397
11
22.027556
21
420.818135
0
LINE
8
boundary
62
5
39
2
10
22.027556
20
420.818135
11
22.598325
21
420.638101
0
LINE
8
boundary
62
5
39
2
10
22.598325
20
420.638101
11
39.896396
21
420.638101
0
LINE
8
boundary
62
5
39
2
10
39.896396
20
420.638101
11
39.896396
21
417.892101
0
LINE
8
boundary
62
5
39
2
10
39.896396
20
417.892101
11
30.751289
21
417.892101
0
LINE
8
boundary
62
5
39
2
10
30.751289
20
417.892101
11
31.270818
21
417.530757
0
LINE
8
boundary
62
5
39
2
10
31.270818
20
417.530757
11
32.355018
21
417.084212
0
LINE
8
boundary
62
5
39
2
10
32.355018
20
417.084212
11
33.423618
21
416.630423
0
LINE
8
boundary
62
5
39
2
10
33.423618
20
416.630423
11
34.476626
21
416.169140
0
LINE
8
boundary
62
5
39
2
10
34.476626
20
416.169140
11
35.514116
21
415.700897
0
LINE
8
boundary
62
5
39
2
10
35.514116
20
415.700897
11
36.536181
21
415.225672
0
LINE
8
boundary
62
5
39
2
10
36.536181
20
415.225672
11
37.542852
21
414.743426
0
LINE
8
boundary
62
5
39
2
10
37.542852
20
414.743426
11
38.534135
21
414.254753
0
LINE
8
boundary
62
5
39
2
10
38.534135
20
414.254753
11
39.510107
21
413.759230
0
LINE
8
boundary
62
5
39
2
10
39.510107
20
413.759230
11
40.470777
21
413.257375
0
LINE
8
boundary
62
5
39
2
10
40.470777
20
413.257375
11
41.416255
21
412.749401
0
LINE
8
boundary
62
5
39
2
10
41.416255
20
412.749401
11
42.346454
21
412.235152
0
LINE
8
boundary
62
5
39
2
10
42.346454
20
412.235152
11
43.261413
21
411.714796
0
LINE
8
boundary
62
5
39
2
10
43.261413
20
411.714796
11
44.161257
21
411.188760
0
LINE
8
boundary
62
5
39
2
10
44.161257
20
411.188760
11
45.045898
21
410.657005
0
LINE
8
boundary
62
5
39
2
10
45.045898
20
410.657005
11
45.915439
21
410.119560
0
LINE
8
boundary
62
5
39
2
10
45.915439
20
410.119560
11
46.769862
21
409.576839
0
LINE
8
boundary
62
5
39
2
10
46.769862
20
409.576839
11
47.609160
21
409.028783
0
LINE
8
boundary
62
5
39
2
10
47.609160
20
409.028783
11
48.433410
21
408.475626
0
LINE
8
boundary
62
5
39
2
10
48.433410
20
408.475626
11
49.242644
21
407.917362
0
LINE
8
boundary
62
5
39
2
10
49.242644
20
407.917362
11
50.036702
21
407.354344
0
LINE
8
boundary
62
5
39
2
10
50.036702
20
407.354344
11
50.815661
21
406.786594
0
LINE
8
boundary
62
5
39
2
10
50.815661
20
406.786594
11
51.579568
21
406.214189
0
LINE
8
boundary
62
5
39
2
10
51.579568
20
406.214189
11
52.328445
21
405.637224
0
LINE
8
boundary
62
5
39
2
10
52.328445
20
405.637224
11
53.062224
21
405.056408
0
LINE
8
boundary
62
5
39
2
10
53.062224
20
405.056408
11
53.781005
21
404.471002
0
LINE
8
boundary
62
5
39
2
10
53.781005
20
404.471002
11
54.484582
21
403.881735
0
LINE
8
boundary
62
5
39
2
10
54.484582
20
403.881735
11
55.173169
21
403.288574
0
LINE
8
boundary
62
5
39
2
10
55.173169
20
403.288574
11
55.846552
21
402.691832
0
LINE
8
boundary
62
5
39
2
10
55.846552
20
402.691832
11
56.504918
21
402.091415
0
LINE
8
boundary
62
5
39
2
10
56.504918
20
402.091415
11
57.148062
21
401.487458
0
LINE
8
boundary
62
5
39
2
10
57.148062
20
401.487458
11
57.776150
21
400.880318
0
LINE
8
boundary
62
5
39
2
10
57.776150
20
400.880318
11
58.389055
21
400.269936
0
LINE
8
boundary
62
5
39
2
10
58.389055
20
400.269936
11
58.986775
21
399.656477
0
LINE
8
boundary
62
5
39
2
10
58.986775
20
399.656477
11
59.569324
21
399.040270
0
LINE
8
boundary
62
5
39
2
10
59.569324
20
399.040270
11
60.136688
21
398.421139
0
LINE
8
boundary
62
5
39
2
10
60.136688
20
398.421139
11
60.688737
21
397.799558
0
LINE
8
boundary
62
5
39
2
10
60.688737
20
397.799558
11
61.225489
21
397.175478
0
LINE
8
boundary
62
5
39
2
10
61.225489
20
397.175478
11
61.747090
21
396.548982
0
LINE
8
boundary
62
5
39
2
10
61.747090
20
396.548982
11
62.253292
21
395.920448
0
LINE
8
boundary
62
5
39
2
10
62.253292
20
395.920448
11
62.744240
21
395.289737
0
LINE
8
boundary
62
5
39
2
10
62.744240
20
395.289737
11
63.219698
21
394.657222
0
LINE
8
boundary
62
5
39
2
10
63.219698
20
394.657222
11
63.679874
21
394.022900
0
LINE
8
boundary
62
5
39
2
10
63.679874
20
394.022900
11
64.124602
21
393.386935
0
LINE
8
boundary
62
5
39
2
10
64.124602
20
393.386935
11
64.553960
21
392.749553
0
LINE
8
boundary
62
5
39
2
10
64.553960
20
392.749553
11
64.967737
21
392.110666
0
LINE
8
boundary
62
5
39
2
10
64.967737
20
392.110666
11
65.366077
21
391.470792
0
LINE
8
boundary
62
5
39
2
10
65.366077
20
391.470792
11
65.748905
21
390.829760
0
LINE
8
boundary
62
5
39
2
10
65.748905
20
390.829760
11
66.116169
21
390.187863
0
LINE
8
boundary
62
5
39
2
10
66.116169
20
390.187863
11
66.467880
21
389.544998
0
LINE
8
boundary
62
5
39
2
10
66.467880
20
389.544998
11
66.803931
21
388.901557
0
LINE
8
boundary
62
5
39
2
10
66.803931
20
388.901557
11
67.124276
21
388.257685
0
LINE
8
boundary
62
5
39
2
10
67.124276
20
388.257685
11
67.429084
21
387.613431
0
LINE
8
boundary
62
5
39
2
10
67.429084
20
387.613431
11
67.718117
21
386.968899
0
LINE
8
boundary
62
5
39
2
10
67.718117
20
386.968899
11
67.991449
21
386.324288
0
LINE
8
boundary
62
5
39
2
10
67.991449
20
386.324288
11
68.015743
21
385.367201
0
LINE
8
boundary
62
5
39
2
10
68.015743
20
385.367201
11
68.066840
21
384.394588
0
LINE
8
boundary
62
5
39
2
10
68.066840
20
384.394588
11
68.138827
21
383.409746
0
LINE
8
boundary
62
5
39
2
10
68.138827
20
383.409746
11
68.226062
21
382.416195
0
LINE
8
boundary
62
5
39
2
10
68.226062
20
382.416195
11
68.297617
21
381.673088
0
LINE
8
boundary
62
5
39
2
10
68.297617
20
381.673088
11
68.422509
21
380.416459
0
LINE
8
boundary
62
5
39
2
10
68.422509
20
380.416459
11
68.491193
21
379.667015
0
LINE
8
boundary
62
5
39
2
10
68.491193
20
379.667015
11
68.608776
21
378.423120
0
LINE
8
boundary
62
5
39
2
10
68.608776
20
378.423120
11
68.683060
21
377.437156
0
LINE
8
boundary
62
5
39
2
10
68.683060
20
377.437156
11
68.736762
21
376.463119
0
LINE
8
boundary
62
5
39
2
10
68.736762
20
376.463119
11
68.763587
21
375.504291
0
LINE
8
boundary
62
5
39
2
10
68.763587
20
375.504291
11
68.757539
21
374.564236
0
LINE
8
boundary
62
5
39
2
10
68.757539
20
374.564236
11
68.712261
21
373.646202
0
LINE
8
boundary
62
5
39
2
10
68.712261
20
373.646202
11
68.652705
21
373.023556
0
LINE
8
boundary
62
5
39
2
10
68.652705
20
373.023556
11
68.557430
21
372.318047
0
LINE
8
boundary
62
5
39
2
10
68.557430
20
372.318047
11
68.442737
21
371.724833
0
LINE
8
boundary
62
5
39
2
10
68.442737
20
371.724833
11
68.279263
21
371.058895
0
LINE
8
boundary
62
5
39
2
10
68.279263
20
371.058895
11
68.099367
21
370.500435
0
LINE
8
boundary
62
5
39
2
10
68.099367
20
370.500435
11
67.856720
21
369.880306
0
LINE
8
boundary
62
5
39
2
10
67.856720
20
369.880306
11
67.601422
21
369.362094
0
LINE
8
boundary
62
5
39
2
10
67.601422
20
369.362094
11
67.268624
21
368.793853
0
LINE
8
boundary
62
5
39
2
10
67.268624
20
368.793853
11
66.927551
21
368.321345
0
LINE
8
boundary
62
5
39
2
10
66.927551
20
368.321345
11
66.494034
21
367.810967
0
LINE
8
boundary
62
5
39
2
10
66.494034
20
367.810967
11
66.056553
21
367.389880
0
LINE
8
boundary
62
5
39
2
10
66.056553
20
367.389880
11
65.511996
21
366.943353
0
LINE
8
boundary
62
5
39
2
10
65.511996
20
366.943353
11
64.967635
21
366.579183
0
LINE
8
boundary
62
5
39
2
10
64.967635
20
366.579183
11
64.301931
21
366.202484
0
LINE
8
boundary
62
5
39
2
10
64.301931
20
366.202484
11
63.639969
21
365.900908
0
LINE
8
boundary
62
5
39
2
10
63.639969
20
365.900908
11
63.140793
21
365.706392
0
LINE
8
boundary
62
5
39
2
10
63.140793
20
365.706392
11
62.612150
21
365.528262
0
LINE
8
boundary
62
5
39
2
10
62.612150
20
365.528262
11
62.053241
21
365.367029
0
LINE
8
boundary
62
5
39
2
10
62.053241
20
365.367029
11
61.463311
21
365.223165
0
LINE
8
boundary
62
5
39
2
10
61.463311
20
365.223165
11
60.841628
21
365.096992
0
LINE
8
boundary
62
5
39
2
10
60.841628
20
365.096992
11
60.187544
21
364.988994
0
LINE
8
boundary
62
5
39
2
10
60.187544
20
364.988994
11
59.500326
21
364.899568
0
LINE
8
boundary
62
5
39
2
10
59.500326
20
364.899568
11
58.779255
21
364.829265
0
LINE
8
boundary
62
5
39
2
10
58.779255
20
364.829265
11
58.023583
21
364.778481
0
LINE
8
boundary
62
5
39
2
10
58.023583
20
364.778481
11
57.232712
21
364.747569
0
LINE
8
boundary
62
5
39
2
10
57.232712
20
364.747569
11
56.406000
21
364.737052
0
LINE
8
boundary
62
5
39
2
10
56.406000
20
364.737052
11
55.542702
21
364.747352
0
LINE
8
boundary
62
5
39
2
10
55.542702
20
364.747352
11
54.642168
21
364.778869
0
LINE
8
boundary
62
5
39
2
10
54.642168
20
364.778869
11
53.703729
21
364.832153
0
LINE
8
boundary
62
5
39
2
10
53.703729
20
364.832153
11
53.190713
21
364.867349
0
LINE
8
boundary
62
5
39
2
10
53.190713
20
364.867349
11
52.197575
21
364.954202
0
LINE
8
boundary
62
5
39
2
10
52.197575
20
364.954202
11
51.359645
21
365.251347
0
LINE
8
boundary
62
5
39
2
10
51.359645
20
365.251347
11
50.433978
21
365.581900
0
LINE
8
boundary
62
5
39
2
10
50.433978
20
365.581900
11
49.607906
21
365.867804
0
LINE
8
boundary
62
5
39
2
10
49.607906
20
365.867804
11
48.719876
21
366.177307
0
LINE
8
boundary
62
5
39
2
10
48.719876
20
366.177307
11
47.901551
21
366.451912
0
LINE
8
boundary
62
5
39
2
10
47.901551
20
366.451912
11
47.045966
21
366.740960
0
LINE
8
boundary
62
5
39
2
10
47.045966
20
366.740960
11
46.230991
21
367.004332
0
LINE
8
boundary
62
5
39
2
10
46.230991
20
367.004332
11
45.402899
21
367.273709
0
LINE
8
boundary
62
5
39
2
10
45.402899
20
367.273709
11
44.586723
21
367.525714
0
LINE
8
boundary
62
5
39
2
10
44.586723
20
367.525714
11
43.781638
21
367.775941
0
LINE
8
boundary
62
5
39
2
10
43.781638
20
367.775941
11
42.959322
21
368.016677
0
LINE
8
boundary
62
5
39
2
10
42.959322
20
368.016677
11
42.172881
21
368.248473
0
LINE
8
boundary
62
5
39
2
10
42.172881
20
368.248473
11
41.339360
21
368.478025
0
LINE
8
boundary
62
5
39
2
10
41.339360
20
368.478025
11
40.567800
21
368.691924
0
LINE
8
boundary
62
5
39
2
10
40.567800
20
368.691924
11
39.717499
21
368.910199
0
LINE
8
boundary
62
5
39
2
10
39.717499
20
368.910199
11
38.957277
21
369.106765
0
LINE
8
boundary
62
5
39
2
10
38.957277
20
369.106765
11
38.084306
21
369.314107
0
LINE
8
boundary
62
5
39
2
10
38.084306
20
369.314107
11
37.332340
21
369.493830
0
LINE
8
boundary
62
5
39
2
10
37.332340
20
369.493830
11
36.430387
21
369.690042
0
LINE
8
boundary
62
5
39
2
10
36.430387
20
369.690042
11
35.684127
21
369.853585
0
LINE
8
boundary
62
5
39
2
10
35.684127
20
369.853585
11
34.746288
21
370.038900
0
LINE
8
boundary
62
5
39
2
10
34.746288
20
370.038900
11
34.003776
21
370.186713
0
LINE
8
boundary
62
5
39
2
10
34.003776
20
370.186713
11
33.022553
21
370.361246
0
LINE
8
boundary
62
5
39
2
10
33.022553
20
370.361246
11
32.282472
21
370.493866
0
LINE
8
boundary
62
5
39
2
10
32.282472
20
370.493866
11
31.249555
21
370.657631
0
LINE
8
boundary
62
5
39
2
10
31.249555
20
370.657631
11
30.511395
21
370.775596
0
LINE
8
boundary
62
5
39
2
10
30.511395
20
370.775596
11
29.417495
21
370.928683
0
LINE
8
boundary
62
5
39
2
10
29.417495
20
370.928683
11
28.681734
21
371.032462
0
LINE
8
boundary
62
5
39
2
10
28.681734
20
371.032462
11
27.516440
21
371.174953
0
LINE
8
boundary
62
5
39
2
10
27.516440
20
371.174953
11
26.784784
21
371.265260
0
LINE
8
boundary
62
5
39
2
10
26.784784
20
371.265260
11
25.536051
21
371.397105
0
LINE
8
boundary
62
5
39
2
10
25.536051
20
371.397105
11
24.811700
21
371.474255
0
LINE
8
boundary
62
5
39
2
10
24.811700
20
371.474255
11
23.717626
21
358.024791
0
LINE
8
boundary
62
5
39
2
10
23.717626
20
358.024791
11
23.255770
21
352.377022
0
LINE
8
boundary
62
5
39
2
10
23.255770
20
352.377022
11
27.083817
21
337.426642
0
LINE
8
boundary
62
5
39
2
10
27.083817
20
337.426642
11
36.803034
21
337.426642
0
LINE
8
boundary
62
5
39
2
10
36.803034
20
337.426642
11
36.803034
21
334.680642
0
LINE
8
boundary
62
5
39
2
10
36.803034
20
334.680642
11
27.835638
21
334.680642
0
LINE
8
boundary
62
5
39
2
10
27.835638
20
334.680642
11
29.537125
21
327.845287
0
LINE
8
boundary
62
5
39
2
10
29.537125
20
327.845287
11
32.694643
21
315.385991
0
LINE
8
boundary
62
5
39
2
10
32.694643
20
315.385991
11
33.162009
21
313.876675
0
LINE
8
boundary
62
5
39
2
10
33.162009
20
313.876675
11
33.368770
21
313.200865
0
LINE
8
boundary
62
5
39
2
10
33.368770
20
313.200865
11
33.807546
21
311.697908
0
LINE
8
boundary
62
5
39
2
10
33.807546
20
311.697908
11
34.006339
21
311.008213
0
LINE
8
boundary
62
5
39
2
10
34.006339
20
311.008213
11
34.417197
21
309.511377
0
LINE
8
boundary
62
5
39
2
10
34.417197
20
309.511377
11
34.607560
21
308.808417
0
LINE
8
boundary
62
5
39
2
10
34.607560
20
308.808417
11
34.990990
21
307.317214
0
LINE
8
boundary
62
5
39
2
10
34.990990
20
307.317214
11
35.172385
21
306.601550
0
LINE
8
boundary
62
5
39
2
10
35.172385
20
306.601550
11
35.529085
21
305.115653
0
LINE
8
boundary
62
5
39
2
10
35.529085
20
305.115653
11
35.701156
21
304.387830
0
LINE
8
boundary
62
5
39
2
10
35.701156
20
304.387830
11
36.031630
21
302.906905
0
LINE
8
boundary
62
5
39
2
10
36.031630
20
302.906905
11
36.193979
21
302.167454
0
LINE
8
boundary
62
5
39
2
10
36.193979
20
302.167454
11
36.498768
21
300.691192
0
LINE
8
boundary
62
5
39
2
10
36.498768
20
300.691192
11
36.651026
21
299.940768
0
LINE
8
boundary
62
5
39
2
10
36.651026
20
299.940768
11
36.930578
21
298.468612
0
LINE
8
boundary
62
5
39
2
10
36.930578
20
298.468612
11
37.072399
21
297.707702
0
LINE
8
boundary
62
5
39
2
10
37.072399
20
297.707702
11
37.327306
21
296.239475
0
LINE
8
boundary
62
5
39
2
10
37.327306
20
296.239475
11
37.458474
21
295.468614
0
LINE
8
boundary
62
5
39
2
10
37.458474
20
295.468614
11
37.689136
21
294.003914
0
LINE
8
boundary
62
5
39
2
10
37.689136
20
294.003914
11
37.809341
21
293.223770
0
LINE
8
boundary
62
5
39
2
10
37.809341
20
293.223770
11
38.016218
21
291.762141
0
LINE
8
boundary
62
5
39
2
10
38.016218
20
291.762141
11
38.125242
21
290.973162
0
LINE
8
boundary
62
5
39
2
10
38.125242
20
290.973162
11
38.308746
21
289.514213
0
LINE
8
boundary
62
5
39
2
10
38.308746
20
289.514213
11
38.406389
21
288.717091
0
LINE
8
boundary
62
5
39
2
10
38.406389
20
288.717091
11
38.566976
21
287.260457
0
LINE
8
boundary
62
5
39
2
10
38.566976
20
287.260457
11
38.653113
21
286.455710
0
LINE
8
boundary
62
5
39
2
10
38.653113
20
286.455710
11
38.791105
21
285.000975
0
LINE
8
boundary
62
5
39
2
10
38.791105
20
285.000975
11
38.865577
21
284.189196
0
LINE
8
boundary
62
5
39
2
10
38.865577
20
284.189196
11
38.981398
21
282.735939
0
LINE
8
boundary
62
5
39
2
10
38.981398
20
282.735939
11
39.044087
21
281.917802
0
LINE
8
boundary
62
5
39
2
10
39.044087
20
281.917802
11
39.137980
21
280.465499
0
LINE
8
boundary
62
5
39
2
10
39.137980
20
280.465499
11
39.188791
21
279.641576
0
LINE
8
boundary
62
5
39
2
10
39.188791
20
279.641576
11
39.261218
21
278.190001
0
LINE
8
boundary
62
5
39
2
10
39.261218
20
278.190001
11
39.300207
21
277.360896
0
LINE
8
boundary
62
5
39
2
10
39.300207
20
277.360896
11
39.351392
21
275.909359
0
LINE
8
boundary
62
5
39
2
10
39.351392
20
275.909359
11
39.378443
21
275.075798
0
LINE
8
boundary
62
5
39
2
10
39.378443
20
275.075798
11
39.408631
21
273.623854
0
LINE
8
boundary
62
5
39
2
10
39.408631
20
273.623854
11
39.423779
21
272.786426
0
LINE
8
boundary
62
5
39
2
10
39.423779
20
272.786426
11
39.433400
21
271.333666
0
LINE
8
boundary
62
5
39
2
10
39.433400
20
271.333666
11
39.436767
21
270.493024
0
LINE
8
boundary
62
5
39
2
10
39.436767
20
270.493024
11
39.425913
21
269.038938
0
LINE
8
boundary
62
5
39
2
10
39.425913
20
269.038938
11
39.417515
21
268.195880
0
LINE
8
boundary
62
5
39
2
10
39.417515
20
268.195880
11
39.386468
21
266.739847
0
LINE
8
boundary
62
5
39
2
10
39.386468
20
266.739847
11
39.366419
21
265.895045
0
LINE
8
boundary
62
5
39
2
10
39.366419
20
265.895045
11
39.315309
21
264.436581
0
LINE
8
boundary
62
5
39
2
10
39.315309
20
264.436581
11
39.283748
21
263.590658
0
LINE
8
boundary
62
5
39
2
10
39.283748
20
263.590658
11
39.212922
21
262.129155
0
LINE
8
boundary
62
5
39
2
10
39.212922
20
262.129155
11
39.170072
21
261.282984
0
LINE
8
boundary
62
5
39
2
10
39.170072
20
261.282984
11
39.079541
21
259.817985
0
LINE
8
boundary
62
5
39
2
10
39.079541
20
259.817985
11
39.025539
21
258.972267
0
LINE
8
boundary
62
5
39
2
10
39.025539
20
258.972267
11
38.915600
21
257.503034
0
LINE
8
boundary
62
5
39
2
10
38.915600
20
257.503034
11
38.850754
21
256.658503
0
LINE
8
boundary
62
5
39
2
10
38.850754
20
256.658503
11
38.721353
21
255.184455
0
LINE
8
boundary
62
5
39
2
10
38.721353
20
255.184455
11
38.645871
21
254.341975
0
LINE
8
boundary
62
5
39
2
10
38.645871
20
254.341975
11
38.497255
21
252.862588
0
LINE
8
boundary
62
5
39
2
10
38.497255
20
252.862588
11
38.411490
21
252.022927
0
LINE
8
boundary
62
5
39
2
10
38.411490
20
252.022927
11
38.243675
21
250.537539
0
LINE
8
boundary
62
5
39
2
10
38.243675
20
250.537539
11
38.147934
21
249.701586
0
LINE
8
boundary
62
5
39
2
10
38.147934
20
249.701586
11
37.960964
21
248.209412
0
LINE
8
boundary
62
5
39
2
10
37.960964
20
248.209412
11
37.855606
21
247.377986
0
LINE
8
boundary
62
5
39
2
10
37.855606
20
247.377986
11
37.649546
21
245.878349
0
LINE
8
boundary
62
5
39
2
10
37.649546
20
245.878349
11
37.534962
21
245.052327
0
LINE
8
boundary
62
5
39
2
10
37.534962
20
245.052327
11
37.309844
21
243.544695
0
LINE
8
boundary
62
5
39
2
10
37.309844
20
243.544695
11
37.186498
21
242.724983
0
LINE
8
boundary
62
5
39
2
10
37.186498
20
242.724983
11
36.942258
21
241.208474
0
LINE
8
boundary
62
5
39
2
10
36.942258
20
241.208474
11
36.810586
21
240.396025
0
LINE
8
boundary
62
5
39
2
10
36.810586
20
240.396025
11
36.547241
21
238.870033
0
LINE
8
boundary
62
5
39
2
10
36.547241
20
238.870033
11
36.407760
21
238.065756
0
LINE
8
boundary
62
5
39
2
10
36.407760
20
238.065756
11
36.125279
21
236.529406
0
LINE
8
boundary
62
5
39
2
10
36.125279
20
236.529406
11
35.978487
21
235.734297
0
LINE
8
boundary
62
5
39
2
10
35.978487
20
235.734297
11
35.676659
21
234.186864
0
LINE
8
boundary
62
5
39
2
10
35.676659
20
234.186864
11
35.523102
21
233.401893
0
LINE
8
boundary
62
5
39
2
10
35.523102
20
233.401893
11
35.201997
21
231.842510
0
LINE
8
boundary
62
5
39
2
10
35.201997
20
231.842510
11
35.042320
21
231.068681
0
LINE
8
boundary
62
5
39
2
10
35.042320
20
231.068681
11
34.701774
21
229.496636
0
LINE
8
boundary
62
5
39
2
10
34.701774
20
229.496636
11
34.536564
21
228.735074
0
LINE
8
boundary
62
5
39
2
10
34.536564
20
228.735074
11
34.176399
21
227.149556
0
LINE
8
boundary
62
5
39
2
10
34.176399
20
227.149556
11
34.006329
21
226.401252
0
LINE
8
boundary
62
5
39
2
10
34.006329
20
226.401252
11
33.626364
21
224.801220
0
LINE
8
boundary
62
5
39
2
10
33.626364
20
224.801220
11
33.452092
21
224.067309
0
LINE
8
boundary
62
5
39
2
10
33.452092
20
224.067309
11
33.052208
21
222.452096
0
LINE
8
boundary
62
5
39
2
10
33.052208
20
222.452096
11
32.874469
21
221.733712
0
LINE
8
boundary
62
5
39
2
10
32.874469
20
221.733712
11
32.454398
21
220.102293
0
LINE
8
boundary
62
5
39
2
10
32.454398
20
220.102293
11
32.273943
21
219.400577
0
LINE
8
boundary
62
5
39
2
10
32.273943
20
219.400577
11
31.833496
21
217.752023
0
LINE
8
boundary
62
5
39
2
10
31.833496
20
217.752023
11
31.651111
21
217.068196
0
LINE
8
boundary
62
5
39
2
10
31.651111
20
217.068196
11
31.190024
21
215.401636
0
LINE
8
boundary
62
5
39
2
10
31.190024
20
215.401636
11
31.006516
21
214.736855
0
LINE
8
boundary
62
5
39
2
10
31.006516
20
214.736855
11
30.524495
21
213.051256
0
LINE
8
boundary
62
5
39
2
10
30.524495
20
213.051256
11
30.340715
21
212.406866
0
LINE
8
boundary
62
5
39
2
10
30.340715
20
212.406866
11
29.837446
21
210.701206
0
LINE
8
boundary
62
5
39
2
10
29.837446
20
210.701206
11
29.654258
21
210.078420
0
LINE
8
boundary
62
5
39
2
10
29.654258
20
210.078420
11
29.129462
21
208.351722
0
LINE
8
boundary
62
5
39
2
10
29.129462
20
208.351722
11
28.947795
21
207.751888
0
LINE
8
boundary
62
5
39
2
10
28.947795
20
207.751888
11
28.401055
21
206.003117
0
LINE
8
boundary
62
5
39
2
10
28.401055
20
206.003117
11
28.221826
21
205.427620
0
LINE
8
boundary
62
5
39
2
10
28.221826
20
205.427620
11
27.652927
21
203.655547
0
LINE
8
boundary
62
5
39
2
10
27.652927
20
203.655547
11
27.477151
21
203.105723
0
LINE
8
boundary
62
5
39
2
10
27.477151
20
203.105723
11
26.885510
21
201.309537
0
LINE
8
boundary
62
5
39
2
10
26.885510
20
201.309537
11
26.714159
21
200.786901
0
LINE
8
boundary
62
5
39
2
10
26.714159
20
200.786901
11
26.099459
21
198.965077
0
LINE
8
boundary
62
5
39
2
10
26.099459
20
198.965077
11
25.933568
21
198.471075
0
LINE
8
boundary
62
5
39
2
10
25.933568
20
198.471075
11
25.295370
21
196.622733
0
LINE
8
boundary
62
5
39
2
10
25.295370
20
196.622733
11
24.473867
21
194.282673
0
LINE
8
boundary
62
5
39
2
10
24.473867
20
194.282673
11
23.635429
21
191.945244
0
LINE
8
boundary
62
5
39
2
10
23.635429
20
191.945244
11
22.780838
21
189.610759
0
LINE
8
boundary
62
5
39
2
10
22.780838
20
189.610759
11
21.910709
21
187.279596
0
LINE
8
boundary
62
5
39
2
10
21.910709
20
187.279596
11
21.025660
21
184.952056
0
LINE
8
boundary
62
5
39
2
10
21.025660
20
184.952056
11
20.126240
21
182.628507
0
LINE
8
boundary
62
5
39
2
10
20.126240
20
182.628507
11
18.350472
21
178.155987
0
LINE
8
boundary
62
5
39
2
10
18.350472
20
178.155987
11
16.425534
21
173.447083
0
LINE
8
boundary
62
5
39
2
10
16.425534
20
173.447083
11
15.158969
21
170.434585
0
LINE
8
boundary
62
5
39
2
10
15.158969
20
170.434585
11
14.447499
21
168.829411
0
LINE
8
boundary
62
5
39
2
10
14.447499
20
168.829411
11
13.332234
21
164.114325
0
LINE
8
boundary
62
5
39
2
10
13.332234
20
164.114325
11
12.212714
21
159.228653
0
LINE
8
boundary
62
5
39
2
10
12.212714
20
159.228653
11
11.660258
21
156.724488
0
LINE
8
boundary
62
5
39
2
10
11.660258
20
156.724488
11
11.117586
21
154.180856
0
LINE
8
boundary
62
5
39
2
10
11.117586
20
154.180856
11
10.588387
21
151.598715
0
LINE
8
boundary
62
5
39
2
10
10.588387
20
151.598715
11
10.076326
21
148.979319
0
LINE
8
boundary
62
5
39
2
10
10.076326
20
148.979319
11
9.585172
21
146.323720
0
LINE
8
boundary
62
5
39
2
10
9.585172
20
146.323720
11
9.118709
21
143.633030
0
LINE
8
boundary
62
5
39
2
10
9.118709
20
143.633030
11
8.680803
21
140.908481
0
LINE
8
boundary
62
5
39
2
10
8.680803
20
140.908481
11
8.275342
21
138.151237
0
LINE
8
boundary
62
5
39
2
10
8.275342
20
138.151237
11
7.906133
21
135.362516
0
LINE
8
boundary
62
5
39
2
10
7.906133
20
135.362516
11
7.577162
21
132.543592
0
LINE
8
boundary
62
5
39
2
10
7.577162
20
132.543592
11
7.292580
21
129.695788
0
LINE
8
boundary
62
5
39
2
10
7.292580
20
129.695788
11
7.056107
21
126.820497
0
LINE
8
boundary
62
5
39
2
10
7.056107
20
126.820497
11
6.871985
21
123.919006
0
LINE
8
boundary
62
5
39
2
10
6.871985
20
123.919006
11
6.744305
21
120.992787
0
LINE
8
boundary
62
5
39
2
10
6.744305
20
120.992787
11
6.677096
21
118.043338
0
LINE
8
boundary
62
5
39
2
10
6.677096
20
118.043338
11
6.667500
21
116.560443
0
LINE
8
boundary
62
5
39
2
10
6.667500
20
116.560443
11
6.674585
21
115.072297
0
LINE
8
boundary
62
5
39
2
10
6.674585
20
115.072297
11
6.698988
21
113.579100
0
LINE
8
boundary
62
5
39
2
10
6.698988
20
113.579100
11
6.741013
21
112.081191
0
LINE
8
boundary
62
5
39
2
10
6.741013
20
112.081191
11
6.801343
21
110.578739
0
LINE
8
boundary
62
5
39
2
10
6.801343
20
110.578739
11
6.880478
21
109.071857
0
LINE
8
boundary
62
5
39
2
10
6.880478
20
109.071857
11
6.979085
21
107.560860
0
LINE
8
boundary
62
5
39
2
10
6.979085
20
107.560860
11
7.097464
21
106.045969
0
LINE
8
boundary
62
5
39
2
10
7.097464
20
106.045969
11
7.236229
21
104.527471
0
LINE
8
boundary
62
5
39
2
10
7.236229
20
104.527471
11
7.395903
21
103.005449
0
LINE
8
boundary
62
5
39
2
10
7.395903
20
103.005449
11
7.577065
21
101.480340
0
LINE
8
boundary
62
5
39
2
10
7.577065
20
101.480340
11
7.780301
21
99.952385
0
LINE
8
boundary
62
5
39
2
10
7.780301
20
99.952385
11
8.006103
21
98.421579
0
LINE
8
boundary
62
5
39
2
10
8.006103
20
98.421579
11
8.226772
21
96.912073
0
LINE
8
boundary
62
5
39
2
10
8.226772
20
96.912073
11
8.468644
21
95.401469
0
LINE
8
boundary
62
5
39
2
10
8.468644
20
95.401469
11
8.732443
21
93.889977
0
LINE
8
boundary
62
5
39
2
10
8.732443
20
93.889977
11
9.018833
21
92.377880
0
LINE
8
boundary
62
5
39
2
10
9.018833
20
92.377880
11
9.328104
21
90.865305
0
LINE
8
boundary
62
5
39
2
10
9.328104
20
90.865305
11
9.660683
21
89.352554
0
LINE
8
boundary
62
5
39
2
10
9.660683
20
89.352554
11
10.017235
21
87.839856
0
LINE
8
boundary
62
5
39
2
10
10.017235
20
87.839856
11
10.398119
21
86.327374
0
LINE
8
boundary
62
5
39
2
10
10.398119
20
86.327374
11
10.804012
21
84.815430
0
LINE
8
boundary
62
5
39
2
10
10.804012
20
84.815430
11
11.235289
21
83.304314
0
LINE
8
boundary
62
5
39
2
10
11.235289
20
83.304314
11
11.692401
21
81.794190
0
LINE
8
boundary
62
5
39
2
10
11.692401
20
81.794190
11
12.175947
21
80.285408
0
LINE
8
boundary
62
5
39
2
10
12.175947
20
80.285408
11
12.686465
21
78.778214
0
LINE
8
boundary
62
5
39
2
10
12.686465
20
78.778214
11
13.621595
21
75.143742
0
LINE
8
boundary
62
5
39
2
10
13.621595
20
75.143742
11
13.929326
21
73.907177
0
LINE
8
boundary
62
5
39
2
10
13.929326
20
73.907177
11
14.740872
21
70.660593
0
LINE
8
boundary
62
5
39
2
10
14.740872
20
70.660593
11
15.122479
21
69.140313
0
LINE
8
boundary
62
5
39
2
10
15.122479
20
69.140313
11
15.539323
21
67.529096
0
LINE
8
boundary
62
5
39
2
10
15.539323
20
67.529096
11
15.761086
21
66.675376
0
LINE
8
boundary
62
5
39
2
10
15.761086
20
66.675376
11
16.185874
21
65.091556
0
LINE
8
boundary
62
5
39
2
10
16.185874
20
65.091556
11
16.435682
21
64.163794
0
LINE
8
boundary
62
5
39
2
10
16.435682
20
64.163794
11
16.870265
21
62.613282
0
LINE
8
boundary
62
5
39
2
10
16.870265
20
62.613282
11
17.152063
21
61.611462
0
LINE
8
boundary
62
5
39
2
10
17.152063
20
61.611462
11
17.598030
21
60.099826
0
LINE
8
boundary
62
5
39
2
10
17.598030
20
60.099826
11
17.916307
21
59.024496
0
LINE
8
boundary
62
5
39
2
10
17.916307
20
59.024496
11
18.374883
21
57.556813
0
LINE
8
boundary
62
5
39
2
10
18.374883
20
57.556813
11
18.734446
21
56.409215
0
LINE
8
boundary
62
5
39
2
10
18.734446
20
56.409215
11
19.206444
21
54.990015
0
LINE
8
boundary
62
5
39
2
10
19.206444
20
54.990015
11
19.612439
21
53.772082
0
LINE
8
boundary
62
5
39
2
10
19.612439
20
53.772082
11
20.098443
21
52.405387
0
LINE
8
boundary
62
5
39
2
10
20.098443
20
52.405387
11
20.556374
21
51.119941
0
LINE
8
boundary
62
5
39
2
10
20.556374
20
51.119941
11
20.805894
21
50.454165
0
LINE
8
boundary
62
5
39
2
10
20.805894
20
50.454165
11
21.054998
21
49.790400
0
LINE
8
boundary
62
5
39
2
10
21.054998
20
49.790400
11
21.308150
21
49.139003
0
LINE
8
boundary
62
5
39
2
10
21.308150
20
49.139003
11
21.572407
21
48.459705
0
LINE
8
boundary
62
5
39
2
10
21.572407
20
48.459705
11
21.829192
21
47.823034
0
LINE
8
boundary
62
5
39
2
10
21.829192
20
47.823034
11
22.109400
21
47.128847
0
LINE
8
boundary
62
5
39
2
10
22.109400
20
47.128847
11
22.369727
21
46.507151
0
LINE
8
boundary
62
5
39
2
10
22.369727
20
46.507151
11
22.666517
21
45.798680
0
LINE
8
boundary
62
5
39
2
10
22.666517
20
45.798680
11
22.930483
21
45.192201
0
LINE
8
boundary
62
5
39
2
10
22.930483
20
45.192201
11
23.244815
21
44.470192
0
LINE
8
boundary
62
5
39
2
10
23.244815
20
44.470192
11
23.512377
21
43.879132
0
LINE
8
boundary
62
5
39
2
10
23.512377
20
43.879132
11
23.844947
21
43.144372
0
LINE
8
boundary
62
5
39
2
10
23.844947
20
43.144372
11
24.116061
21
42.568820
0
LINE
8
boundary
62
5
39
2
10
24.116061
20
42.568820
11
24.467684
21
41.822109
0
LINE
8
boundary
62
5
39
2
10
24.467684
20
41.822109
11
24.742319
21
41.262253
0
LINE
8
boundary
62
5
39
2
10
24.742319
20
41.262253
11
25.113734
21
40.504568
0
LINE
8
boundary
62
5
39
2
10
25.113734
20
40.504568
11
25.391845
21
39.960372
0
LINE
8
boundary
62
5
39
2
10
25.391845
20
39.960372
11
25.783873
21
39.192589
0
LINE
8
boundary
62
5
39
2
10
25.783873
20
39.192589
11
26.065449
21
38.664124
0
LINE
8
boundary
62
5
39
2
10
26.065449
20
38.664124
11
26.478866
21
37.887285
0
LINE
8
boundary
62
5
39
2
10
26.478866
20
37.887285
11
26.763925
21
37.374552
0
LINE
8
boundary
62
5
39
2
10
26.763925
20
37.374552
11
27.199577
21
36.589791
0
LINE
8
boundary
62
5
39
2
10
27.199577
20
36.589791
11
27.488097
21
36.092701
0
LINE
8
boundary
62
5
39
2
10
27.488097
20
36.092701
11
27.946780
21
35.301106
0
LINE
8
boundary
62
5
39
2
10
27.946780
20
35.301106
11
28.238686
21
34.819566
0
LINE
8
boundary
62
5
39
2
10
28.238686
20
34.819566
11
28.721054
21
34.022315
0
LINE
8
boundary
62
5
39
2
10
28.721054
20
34.022315
11
29.016354
21
33.556243
0
LINE
8
boundary
62
5
39
2
10
29.016354
20
33.556243
11
29.523185
21
32.754603
0
LINE
8
boundary
62
5
39
2
10
29.523185
20
32.754603
11
29.821968
21
32.303813
0
LINE
8
boundary
62
5
39
2
10
29.821968
20
32.303813
11
30.354077
21
31.499082
0
LINE
8
boundary
62
5
39
2
10
30.354077
20
31.499082
11
30.656328
21
31.063406
0
LINE
8
boundary
62
5
39
2
10
30.656328
20
31.063406
11
31.214424
21
30.256894
0
LINE
8
boundary
62
5
39
2
10
31.214424
20
30.256894
11
31.520210
21
29.836145
0
LINE
8
boundary
62
5
39
2
10
31.520210
20
29.836145
11
32.104989
21
29.029283
0
LINE
8
annotation
62
1
39
211
10
43.463133
20
333.653642
11
43.463133
21
338.453642
0
LINE
8
annotation
62
1
39
211
10
43.463133
20
338.453642
11
42.396032
21
337.386240
0
LINE
8
annotation
62
1
39
211
10
46.698160
20
416.997723
11
44.684199
21
416.997723
0
LINE
8
annotation
62
1
39
211
10
44.684199
20
416.997723
11
46.545165
21
419.993639
0
LINE
8
annotation
62
1
39
211
10
46.545165
20
419.993639
11
46.545165
21
419.993639
0
LINE
8
annotation
62
1
39
211
10
46.545165
20
419.993639
11
46.547389
21
419.996392
0
LINE
8
annotation
62
1
39
211
10
46.547389
20
419.996392
11
46.549523
21
419.999169
0
LINE
8
annotation
62
1
39
211
10
46.549523
20
419.999169
11
46.551579
21
420.001992
0
LINE
8
annotation
62
1
39
211
10
46.551579
20
420.001992
11
46.553572
21
420.004885
0
LINE
8
annotation
62
1
39
211
10
46.553572
20
420.004885
11
46.555516
21
420.007872
0
LINE
8
annotation
62
1
39
211
10
46.555516
20
420.007872
11
46.557425
21
420.010976
0
LINE
8
annotation
62
1
39
211
10
46.557425
20
420.010976
11
46.559312
21
420.014220
0
LINE
8
annotation
62
1
39
211
10
46.559312
20
420.014220
11
46.561193
21
420.017628
0
LINE
8
annotation
62
1
39
211
10
46.561193
20
420.017628
11
46.563081
21
420.021224
0
LINE
8
annotation
62
1
39
211
10
46.563081
20
420.021224
11
46.563081
21
420.021224
0
LINE
8
annotation
62
1
39
211
10
46.563081
20
420.021224
11
46.639919
21
420.186203
0
LINE
8
annotation
62
1
39
211
10
46.639919
20
420.186203
11
46.684807
21
420.357219
0
LINE
8
annotation
62
1
39
211
10
46.684807
20
420.357219
11
46.698844
21
420.530407
0
LINE
8
annotation
62
1
39
211
10
46.698844
20
420.530407
11
46.683131
21
420.701903
0
LINE
8
annotation
62
1
39
211
10
46.683131
20
420.701903
11
46.638766
21
420.867842
0
LINE
8
annotation
62
1
39
211
10
46.638766
20
420.867842
11
46.566851
21
421.024360
0
LINE
8
annotation
62
1
39
211
10
46.566851
20
421.024360
11
46.468485
21
421.167593
0
LINE
8
annotation
62
1
39
211
10
46.468485
20
421.167593
11
46.344769
21
421.293677
0
LINE
8
annotation
62
1
39
211
10
46.344769
20
421.293677
11
46.196802
21
421.398748
0
LINE
8
annotation
62
1
39
211
10
46.196802
20
421.398748
11
46.196802
21
421.398748
0
LINE
8
annotation
62
1
39
211
10
46.196802
20
421.398748
11
46.031364
21
421.474495
0
LINE
8
annotation
62
1
39
211
10
46.031364
20
421.474495
11
45.860086
21
421.518691
0
LINE
8
annotation
62
1
39
211
10
45.860086
20
421.518691
11
45.686798
21
421.532332
0
LINE
8
annotation
62
1
39
211
10
45.686798
20
421.532332
11
45.515328
21
421.516411
0
LINE
8
annotation
62
1
39
211
10
45.515328
20
421.516411
11
45.349506
21
421.471924
0
LINE
8
annotation
62
1
39
211
10
45.349506
20
421.471924
11
45.193161
21
421.399865
0
LINE
8
annotation
62
1
39
211
10
45.193161
20
421.399865
11
45.050122
21
421.301229
0
LINE
8
annotation
62
1
39
211
10
45.050122
20
421.301229
11
44.924218
21
421.177010
0
LINE
8
annotation
62
1
39
211
10
44.924218
20
421.177010
11
44.819278
21
421.028204
0
LINE
8
annotation
62
1
39
211
10
44.819278
20
421.028204
11
44.687043
21
420.774540
0
LINE
8
annotation
62
1
39
211
10
84.160854
20
357.363273
11
81.622178
21
353.691310
0
LINE
8
annotation
62
1
39
211
10
81.622178
20
353.691310
11
79.083024
21
357.363273
0
LINE
8
annotation
62
1
39
211
10
81.622178
20
353.986805
11
81.622178
21
349.750586
0
LINE
8
annotation
62
1
39
211
10
91.178613
20
353.556929
11
87.016387
21
353.556929
0
LINE
8
annotation
62
1
39
211
10
96.571628
20
357.363034
11
96.571628
21
357.363034
0
LINE
8
annotation
62
1
39
211
10
96.571628
20
357.363034
11
96.087376
21
357.181469
0
LINE
8
annotation
62
1
39
211
10
96.087376
20
357.181469
11
95.643012
21
356.936831
0
LINE
8
annotation
62
1
39
211
10
95.643012
20
356.936831
11
95.243096
21
356.635250
0
LINE
8
annotation
62
1
39
211
10
95.243096
20
356.635250
11
94.892190
21
356.282856
0
LINE
8
annotation
62
1
39
211
10
94.892190
20
356.282856
11
94.594857
21
355.885777
0
LINE
8
annotation
62
1
39
211
10
94.594857
20
355.885777
11
94.355657
21
355.450142
0
LINE
8
annotation
62
1
39
211
10
94.355657
20
355.450142
11
94.179153
21
354.982082
0
LINE
8
annotation
62
1
39
211
10
94.179153
20
354.982082
11
94.069905
21
354.487725
0
LINE
8
annotation
62
1
39
211
10
94.069905
20
354.487725
11
94.032475
21
353.973200
0
LINE
8
annotation
62
1
39
211
10
94.032475
20
353.973200
11
94.032475
21
351.443116
0
LINE
8
annotation
62
1
39
211
10
94.032475
20
351.443116
11
94.032475
21
351.443116
0
LINE
8
annotation
62
1
39
211
10
94.032475
20
351.443116
11
94.059766
21
351.139032
0
LINE
8
annotation
62
1
39
211
10
94.059766
20
351.139032
11
94.138430
21
350.852785
0
LINE
8
annotation
62
1
39
211
10
94.138430
20
350.852785
11
94.263648
21
350.589165
0
LINE
8
annotation
62
1
39
211
10
94.263648
20
350.589165
11
94.430604
21
350.352961
0
LINE
8
annotation
62
1
39
211
10
94.430604
20
350.352961
11
94.634480
21
350.148964
0
LINE
8
annotation
62
1
39
211
10
94.634480
20
350.148964
11
94.870461
21
349.981962
0
LINE
8
annotation
62
1
39
211
10
94.870461
20
349.981962
11
95.133729
21
349.856746
0
LINE
8
annotation
62
1
39
211
10
95.133729
20
349.856746
11
95.419466
21
349.778103
0
LINE
8
annotation
62
1
39
211
10
95.419466
20
349.778103
11
95.722857
21
349.750825
0
LINE
8
annotation
62
1
39
211
10
95.722857
20
349.750825
11
95.722857
21
349.750825
0
LINE
8
annotation
62
1
39
211
10
95.722857
20
349.750825
11
96.026876
21
349.778103
0
LINE
8
annotation
62
1
39
211
10
96.026876
20
349.778103
11
96.312948
21
349.856746
0
LINE
8
annotation
62
1
39
211
10
96.312948
20
349.856746
11
96.576314
21
349.981962
0
LINE
8
annotation
62
1
39
211
10
96.576314
20
349.981962
11
96.812216
21
350.148964
0
LINE
8
annotation
62
1
39
211
10
96.812216
20
350.148964
11
97.015896
21
350.352961
0
LINE
8
annotation
62
1
39
211
10
97.015896
20
350.352961
11
97.182597
21
350.589165
0
LINE
8
annotation
62
1
39
211
10
97.182597
20
350.589165
11
97.307559
21
350.852785
0
LINE
8
annotation
62
1
39
211
10
97.307559
20
350.852785
11
97.386026
21
351.139032
0
LINE
8
annotation
62
1
39
211
10
97.386026
20
351.139032
11
97.413239
21
351.443116
0
LINE
8
annotation
62
1
39
211
10
97.413239
20
351.443116
11
97.413239
21
352.285205
0
LINE
8
annotation
62
1
39
211
10
97.413239
20
352.285205
11
97.413239
21
352.285205
0
LINE
8
annotation
62
1
39
211
10
97.413239
20
352.285205
11
97.386026
21
352.589142
0
LINE
8
annotation
62
1
39
211
10
97.386026
20
352.589142
11
97.307559
21
352.874994
0
LINE
8
annotation
62
1
39
211
10
97.307559
20
352.874994
11
97.182597
21
353.138042
0
LINE
8
annotation
62
1
39
211
10
97.182597
20
353.138042
11
97.015896
21
353.373568
0
LINE
8
annotation
62
1
39
211
10
97.015896
20
353.373568
11
96.812216
21
353.576852
0
LINE
8
annotation
62
1
39
211
10
96.812216
20
353.576852
11
96.576314
21
353.743176
0
LINE
8
annotation
62
1
39
211
10
96.576314
20
353.743176
11
96.312948
21
353.867821
0
LINE
8
annotation
62
1
39
211
10
96.312948
20
353.867821
11
96.026876
21
353.946069
0
LINE
8
annotation
62
1
39
211
10
96.026876
20
353.946069
11
95.722857
21
353.973200
0
LINE
8
annotation
62
1
39
211
10
95.722857
20
353.973200
11
94.032475
21
353.973200
0
LINE
8
annotation
62
1
39
211
10
93.820759
20
348.799299
11
97.626864
21
348.799299
0
LINE
8
frame
62
5
39
2
10
0.000000
20
0.000000
11
215.900000
21
0.000000
0
LINE
8
frame
62
5
39
2
10
215.900000
20
0.000000
11
215.900000
21
279.400000
0
LINE
8
frame
62
5
39
2
10
215.900000
20
279.400000
11
0.000000
21
279.400000
0
LINE
8
frame
62
5
39
2
10
0.000000
20
279.400000
11
0.000000
21
0.000000
0
ENDSEC
0
EOF
