0
SECTION
2
HEADER
9
$ACADVER
1
AC1009
0
ENDSEC
0
SECTION
2
TABLES
0
TABLE
2
VPORT
70
1
0
VPORT
2
ACTIVE
70
0
10
0.0
20
0.0
11
0.0
21
0.0
12
0.0
22
0.0
13
0.0
23
0.0
14
0.0
24
0.0
15
0.0
25
0.0
16
0.0
26
0.0
36
0.0
17
0.0
27
0.0
37
0.0
40
0.0
41
0.0
42
0.0
43
0.0
44
0.0
50
0.0
51
0.0
71
0
72
1000
73
1
74
3
75
0
76
0
77
0
78
0
0
ENDTAB
0
ENDSEC
0
SECTION
2
ENTITIES
0
LINE
8
boundary
62
5
39
2
10
57.442043
20
9.495028
11
58.034067
21
10.044767
0
LINE
8
boundary
62
5
39
2
10
58.034067
20
10.044767
11
58.588118
21
10.643363
0
LINE
8
boundary
62
5
39
2
10
58.588118
20
10.643363
11
59.098085
21
11.290788
0
LINE
8
boundary
62
5
39
2
10
59.098085
20
11.290788
11
59.558096
21
11.986696
0
LINE
8
boundary
62
5
39
2
10
59.558096
20
11.986696
11
59.962011
21
12.730961
0
LINE
8
boundary
62
5
39
2
10
59.962011
20
12.730961
11
60.176820
21
13.200234
0
LINE
8
boundary
62
5
39
2
10
60.176820
20
13.200234
11
60.449548
21
13.937558
0
LINE
8
boundary
62
5
39
2
10
60.449548
20
13.937558
11
60.603378
21
14.453009
0
LINE
8
boundary
62
5
39
2
10
60.603378
20
14.453009
11
60.776866
21
15.251977
0
LINE
8
boundary
62
5
39
2
10
60.776866
20
15.251977
11
60.860839
21
15.814296
0
LINE
8
boundary
62
5
39
2
10
60.860839
20
15.814296
11
60.923619
21
16.673995
0
LINE
8
boundary
62
5
39
2
10
60.923619
20
16.673995
11
60.928304
21
17.284034
0
LINE
8
boundary
62
5
39
2
10
60.928304
20
17.284034
11
60.904929
21
17.798103
0
LINE
8
boundary
62
5
39
2
10
60.904929
20
17.798103
11
60.857308
21
18.324325
0
LINE
8
boundary
62
5
39
2
10
60.857308
20
18.324325
11
60.784667
21
18.862798
0
LINE
8
boundary
62
5
39
2
10
60.784667
20
18.862798
11
60.686140
21
19.413454
0
LINE
8
boundary
62
5
39
2
10
60.686140
20
19.413454
11
60.560987
21
19.976415
0
LINE
8
boundary
62
5
39
2
10
60.560987
20
19.976415
11
60.408405
21
20.551743
0
LINE
8
boundary
62
5
39
2
10
60.408405
20
20.551743
11
60.227507
21
21.139624
0
LINE
8
boundary
62
5
39
2
10
60.227507
20
21.139624
11
60.017604
21
21.739963
0
LINE
8
boundary
62
5
39
2
10
60.017604
20
21.739963
11
59.777631
21
22.353013
0
LINE
8
boundary
62
5
39
2
10
59.777631
20
22.353013
11
59.507036
21
22.978881
0
LINE
8
boundary
62
5
39
2
10
59.507036
20
22.978881
11
58.950541
21
23.233576
0
LINE
8
boundary
62
5
39
2
10
58.950541
20
23.233576
11
58.200542
21
23.607398
0
LINE
8
boundary
62
5
39
2
10
58.200542
20
23.607398
11
57.450069
21
24.018496
0
LINE
8
boundary
62
5
39
2
10
57.450069
20
24.018496
11
56.699472
21
24.466525
0
LINE
8
boundary
62
5
39
2
10
56.699472
20
24.466525
11
55.949110
21
24.951144
0
LINE
8
boundary
62
5
39
2
10
55.949110
20
24.951144
11
55.199366
21
25.471913
0
LINE
8
boundary
62
5
39
2
10
55.199366
20
25.471913
11
54.450661
21
26.028422
0
LINE
8
boundary
62
5
39
2
10
54.450661
20
26.028422
11
53.703248
21
26.620328
0
LINE
8
boundary
62
5
39
2
10
53.703248
20
26.620328
11
52.957321
21
27.247134
0
LINE
8
boundary
62
5
39
2
10
52.957321
20
27.247134
11
52.213594
21
27.908448
0
LINE
8
boundary
62
5
39
2
10
52.213594
20
27.908448
11
51.472033
21
28.603727
0
LINE
8
boundary
62
5
39
2
10
51.472033
20
28.603727
11
50.733345
21
29.332541
0
LINE
8
boundary
62
5
39
2
10
50.733345
20
29.332541
11
49.997618
21
30.094427
0
LINE
8
boundary
62
5
39
2
10
49.997618
20
30.094427
11
49.265211
21
30.888919
0
LINE
8
boundary
62
5
39
2
10
49.265211
20
30.888919
11
48.536549
21
31.715486
0
LINE
8
boundary
62
5
39
2
10
48.536549
20
31.715486
11
47.812000
21
32.573549
0
LINE
8
boundary
62
5
39
2
10
47.812000
20
32.573549
11
47.091879
21
33.462681
0
LINE
8
boundary
62
5
39
2
10
47.091879
20
33.462681
11
46.376585
21
34.382303
0
LINE
8
boundary
62
5
39
2
10
46.376585
20
34.382303
11
45.666411
21
35.331874
0
LINE
8
boundary
62
5
39
2
10
45.666411
20
35.331874
11
44.961709
21
36.310891
0
LINE
8
boundary
62
5
39
2
10
44.961709
20
36.310891
11
44.262873
21
37.318761
0
LINE
8
boundary
62
5
39
2
10
44.262873
20
37.318761
11
43.570294
21
38.354982
0
LINE
8
boundary
62
5
39
2
10
43.570294
20
38.354982
11
42.884265
21
39.418877
0
LINE
8
boundary
62
5
39
2
10
42.884265
20
39.418877
11
42.205086
21
40.510011
0
LINE
8
boundary
62
5
39
2
10
42.205086
20
40.510011
11
41.533319
21
41.627740
0
LINE
8
boundary
62
5
39
2
10
41.533319
20
41.627740
11
41.268063
21
42.069733
0
LINE
8
boundary
62
5
39
2
10
41.268063
20
42.069733
11
40.869181
21
42.771474
0
LINE
8
boundary
62
5
39
2
10
40.869181
20
42.771474
11
40.601233
21
43.233611
0
LINE
8
boundary
62
5
39
2
10
40.601233
20
43.233611
11
40.213159
21
43.940661
0
LINE
8
boundary
62
5
39
2
10
40.213159
20
43.940661
11
39.942654
21
44.423510
0
LINE
8
boundary
62
5
39
2
10
39.942654
20
44.423510
11
39.565473
21
45.134749
0
LINE
8
boundary
62
5
39
2
10
39.565473
20
45.134749
11
39.292549
21
45.638782
0
LINE
8
boundary
62
5
39
2
10
39.292549
20
45.638782
11
38.926660
21
46.353151
0
LINE
8
boundary
62
5
39
2
10
38.926660
20
46.353151
11
38.651548
21
46.878892
0
LINE
8
boundary
62
5
39
2
10
38.651548
20
46.878892
11
38.296984
21
47.595279
0
LINE
8
boundary
62
5
39
2
10
38.296984
20
47.595279
11
38.019815
21
48.143186
0
LINE
8
boundary
62
5
39
2
10
38.019815
20
48.143186
11
37.676899
21
48.860532
0
LINE
8
boundary
62
5
39
2
10
37.676899
20
48.860532
11
37.397930
21
49.431147
0
LINE
8
boundary
62
5
39
2
10
37.397930
20
49.431147
11
37.066712
21
50.148374
0
LINE
8
boundary
62
5
39
2
10
37.066712
20
50.148374
11
36.786188
21
50.742176
0
LINE
8
boundary
62
5
39
2
10
36.786188
20
50.742176
11
36.466922
21
51.458213
0
LINE
8
boundary
62
5
39
2
10
36.466922
20
51.458213
11
36.185147
21
52.075674
0
LINE
8
boundary
62
5
39
2
10
36.185147
20
52.075674
11
35.877879
21
52.789473
0
LINE
8
boundary
62
5
39
2
10
35.877879
20
52.789473
11
35.595115
21
53.431065
0
LINE
8
boundary
62
5
39
2
10
35.595115
20
53.431065
11
35.299985
21
54.141572
0
LINE
8
boundary
62
5
39
2
10
35.299985
20
54.141572
11
35.016558
21
54.807773
0
LINE
8
boundary
62
5
39
2
10
35.016558
20
54.807773
11
34.733630
21
55.514009
0
LINE
8
boundary
62
5
39
2
10
34.733630
20
55.514009
11
34.449873
21
56.205263
0
LINE
8
boundary
62
5
39
2
10
34.449873
20
56.205263
11
34.179281
21
56.906159
0
LINE
8
boundary
62
5
39
2
10
34.179281
20
56.906159
11
33.895625
21
57.622868
0
LINE
8
boundary
62
5
39
2
10
33.895625
20
57.622868
11
33.637308
21
58.317468
0
LINE
8
boundary
62
5
39
2
10
33.637308
20
58.317468
11
33.354145
21
59.060098
0
LINE
8
boundary
62
5
39
2
10
33.354145
20
59.060098
11
33.108136
21
59.747430
0
LINE
8
boundary
62
5
39
2
10
33.108136
20
59.747430
11
32.825775
21
60.516361
0
LINE
8
boundary
62
5
39
2
10
32.825775
20
60.516361
11
32.592068
21
61.195443
0
LINE
8
boundary
62
5
39
2
10
32.592068
20
61.195443
11
32.311087
21
61.991054
0
LINE
8
boundary
62
5
39
2
10
32.311087
20
61.991054
11
32.089629
21
62.661032
0
LINE
8
boundary
62
5
39
2
10
32.089629
20
62.661032
11
31.810446
21
63.483713
0
LINE
8
boundary
62
5
39
2
10
31.810446
20
63.483713
11
31.601167
21
64.143656
0
LINE
8
boundary
62
5
39
2
10
31.601167
20
64.143656
11
31.324315
21
64.993732
0
LINE
8
boundary
62
5
39
2
10
31.324315
20
64.993732
11
31.127215
21
65.642785
0
LINE
8
boundary
62
5
39
2
10
31.127215
20
65.642785
11
30.853299
21
66.520548
0
LINE
8
boundary
62
5
39
2
10
30.853299
20
66.520548
11
30.668127
21
67.157885
0
LINE
8
boundary
62
5
39
2
10
30.668127
20
67.157885
11
30.397583
21
68.063666
0
LINE
8
boundary
62
5
39
2
10
30.397583
20
68.063666
11
30.224311
21
68.688484
0
LINE
8
boundary
62
5
39
2
10
30.224311
20
68.688484
11
29.957984
21
69.622491
0
LINE
8
boundary
62
5
39
2
10
29.957984
20
69.622491
11
29.796383
21
70.234041
0
LINE
8
boundary
62
5
39
2
10
29.796383
20
70.234041
11
29.534627
21
71.196537
0
LINE
8
boundary
62
5
39
2
10
29.534627
20
71.196537
11
29.384485
21
71.794102
0
LINE
8
boundary
62
5
39
2
10
29.384485
20
71.794102
11
29.128108
21
72.785291
0
LINE
8
boundary
62
5
39
2
10
29.128108
20
72.785291
11
28.989242
21
73.368209
0
LINE
8
boundary
62
5
39
2
10
28.989242
20
73.368209
11
28.738854
21
74.388231
0
LINE
8
boundary
62
5
39
2
10
28.738854
20
74.388231
11
28.610987
21
74.955862
0
LINE
8
boundary
62
5
39
2
10
28.610987
20
74.955862
11
28.367375
21
76.004877
0
LINE
8
boundary
62
5
39
2
10
28.367375
20
76.004877
11
28.250243
21
76.556627
0
LINE
8
boundary
62
5
39
2
10
28.250243
20
76.556627
11
28.014117
21
77.634682
0
LINE
8
boundary
62
5
39
2
10
28.014117
20
77.634682
11
27.907419
21
78.170016
0
LINE
8
boundary
62
5
39
2
10
27.907419
20
78.170016
11
27.679601
21
79.277197
0
LINE
8
boundary
62
5
39
2
10
27.679601
20
79.277197
11
27.583022
21
79.795635
0
LINE
8
boundary
62
5
39
2
10
27.583022
20
79.795635
11
27.364216
21
80.931928
0
LINE
8
boundary
62
5
39
2
10
27.364216
20
80.931928
11
27.277427
21
81.433047
0
LINE
8
boundary
62
5
39
2
10
27.277427
20
81.433047
11
27.068538
21
82.598424
0
LINE
8
boundary
62
5
39
2
10
27.068538
20
82.598424
11
26.792789
21
84.276274
0
LINE
8
boundary
62
5
39
2
10
26.792789
20
84.276274
11
26.537703
21
85.964900
0
LINE
8
boundary
62
5
39
2
10
26.537703
20
85.964900
11
26.303680
21
87.663955
0
LINE
8
boundary
62
5
39
2
10
26.303680
20
87.663955
11
26.091077
21
89.373030
0
LINE
8
boundary
62
5
39
2
10
26.091077
20
89.373030
11
25.900491
21
91.091640
0
LINE
8
boundary
62
5
39
2
10
25.900491
20
91.091640
11
25.732332
21
92.819373
0
LINE
8
boundary
62
5
39
2
10
25.732332
20
92.819373
11
25.587060
21
94.555887
0
LINE
8
boundary
62
5
39
2
10
25.587060
20
94.555887
11
25.465114
21
96.300782
0
LINE
8
boundary
62
5
39
2
10
25.465114
20
96.300782
11
25.366841
21
98.053625
0
LINE
8
boundary
62
5
39
2
10
25.366841
20
98.053625
11
25.292961
21
99.814103
0
LINE
8
boundary
62
5
39
2
10
25.292961
20
99.814103
11
25.243835
21
101.581787
0
LINE
8
boundary
62
5
39
2
10
25.243835
20
101.581787
11
25.099496
21
102.986578
0
LINE
8
boundary
62
5
39
2
10
25.099496
20
102.986578
11
24.969243
21
104.385253
0
LINE
8
boundary
62
5
39
2
10
24.969243
20
104.385253
11
24.852653
21
105.777984
0
LINE
8
boundary
62
5
39
2
10
24.852653
20
105.777984
11
24.749817
21
107.164699
0
LINE
8
boundary
62
5
39
2
10
24.749817
20
107.164699
11
24.660495
21
108.545536
0
LINE
8
boundary
62
5
39
2
10
24.660495
20
108.545536
11
24.584458
21
109.920567
0
LINE
8
boundary
62
5
39
2
10
24.584458
20
109.920567
11
24.472032
21
112.653300
0
LINE
8
boundary
62
5
39
2
10
24.472032
20
112.653300
11
24.411200
21
115.363458
0
LINE
8
boundary
62
5
39
2
10
24.411200
20
115.363458
11
24.400972
21
118.051356
0
LINE
8
boundary
62
5
39
2
10
24.400972
20
118.051356
11
24.439964
21
120.717538
0
LINE
8
boundary
62
5
39
2
10
24.439964
20
120.717538
11
24.526835
21
123.362610
0
LINE
8
boundary
62
5
39
2
10
24.526835
20
123.362610
11
24.660493
21
125.986928
0
LINE
8
boundary
62
5
39
2
10
24.660493
20
125.986928
11
24.839656
21
128.590931
0
LINE
8
boundary
62
5
39
2
10
24.839656
20
128.590931
11
25.062761
21
131.175232
0
LINE
8
boundary
62
5
39
2
10
25.062761
20
131.175232
11
25.308422
21
133.721980
0
LINE
8
boundary
62
5
39
2
10
25.308422
20
133.721980
11
25.595264
21
136.250704
0
LINE
8
boundary
62
5
39
2
10
25.595264
20
136.250704
11
25.923917
21
138.763546
0
LINE
8
boundary
62
5
39
2
10
25.923917
20
138.763546
11
26.292917
21
141.260773
0
LINE
8
boundary
62
5
39
2
10
26.292917
20
141.260773
11
26.701125
21
143.742795
0
LINE
8
boundary
62
5
39
2
10
26.701125
20
143.742795
11
27.147028
21
146.209872
0
LINE
8
boundary
62
5
39
2
10
27.147028
20
146.209872
11
27.629123
21
148.662342
0
LINE
8
boundary
62
5
39
2
10
27.629123
20
148.662342
11
28.146004
21
151.100453
0
LINE
8
boundary
62
5
39
2
10
28.146004
20
151.100453
11
28.696461
21
153.524547
0
LINE
8
boundary
62
5
39
2
10
28.696461
20
153.524547
11
29.278815
21
155.934813
0
LINE
8
boundary
62
5
39
2
10
29.278815
20
155.934813
11
29.891579
21
158.331445
0
LINE
8
boundary
62
5
39
2
10
29.891579
20
158.331445
11
30.533302
21
160.714787
0
LINE
8
boundary
62
5
39
2
10
30.533302
20
160.714787
11
31.202497
21
163.084969
0
LINE
8
boundary
62
5
39
2
10
31.202497
20
163.084969
11
31.897756
21
165.442233
0
LINE
8
boundary
62
5
39
2
10
31.897756
20
165.442233
11
32.617409
21
167.786783
0
LINE
8
boundary
62
5
39
2
10
32.617409
20
167.786783
11
33.359994
21
170.118751
0
LINE
8
boundary
62
5
39
2
10
33.359994
20
170.118751
11
34.123951
21
172.438358
0
LINE
8
boundary
62
5
39
2
10
34.123951
20
172.438358
11
34.907703
21
174.745771
0
LINE
8
boundary
62
5
39
2
10
34.907703
20
174.745771
11
35.709908
21
177.041111
0
LINE
8
boundary
62
5
39
2
10
35.709908
20
177.041111
11
36.528786
21
179.324608
0
LINE
8
boundary
62
5
39
2
10
36.528786
20
179.324608
11
37.362996
21
181.596305
0
LINE
8
boundary
62
5
39
2
10
37.362996
20
181.596305
11
38.058475
21
183.450201
0
LINE
8
boundary
62
5
39
2
10
38.058475
20
183.450201
11
39.043281
21
186.089458
0
LINE
8
boundary
62
5
39
2
10
39.043281
20
186.089458
11
39.888565
21
188.312976
0
LINE
8
boundary
62
5
39
2
10
39.888565
20
188.312976
11
40.741633
21
190.524870
0
LINE
8
boundary
62
5
39
2
10
40.741633
20
190.524870
11
41.600842
21
192.725210
0
LINE
8
boundary
62
5
39
2
10
41.600842
20
192.725210
11
42.464712
21
194.914305
0
LINE
8
boundary
62
5
39
2
10
42.464712
20
194.914305
11
44.201480
21
199.259116
0
LINE
8
boundary
62
5
39
2
10
44.201480
20
199.259116
11
45.941242
21
203.560363
0
LINE
8
boundary
62
5
39
2
10
45.941242
20
203.560363
11
47.673470
21
207.819056
0
LINE
8
boundary
62
5
39
2
10
47.673470
20
207.819056
11
49.387812
21
212.036212
0
LINE
8
boundary
62
5
39
2
10
49.387812
20
212.036212
11
51.074446
21
216.212452
0
LINE
8
boundary
62
5
39
2
10
51.074446
20
216.212452
11
51.430742
21
217.142261
0
LINE
8
boundary
62
5
39
2
10
51.430742
20
217.142261
11
54.326796
21
224.445360
0
LINE
8
boundary
62
5
39
2
10
54.326796
20
224.445360
11
54.758446
21
225.633442
0
LINE
8
boundary
62
5
39
2
10
54.758446
20
225.633442
11
57.359439
21
232.523141
0
LINE
8
boundary
62
5
39
2
10
57.359439
20
232.523141
11
57.606864
21
233.244794
0
LINE
8
boundary
62
5
39
2
10
57.606864
20
233.244794
11
58.772851
21
236.505477
0
LINE
8
boundary
62
5
39
2
10
58.772851
20
236.505477
11
59.028054
21
237.287575
0
LINE
8
boundary
62
5
39
2
10
59.028054
20
237.287575
11
60.107224
21
240.450787
0
LINE
8
boundary
62
5
39
2
10
60.107224
20
240.450787
11
60.366040
21
241.291696
0
LINE
8
boundary
62
5
39
2
10
60.366040
20
241.291696
11
61.355802
21
244.359760
0
LINE
8
boundary
62
5
39
2
10
61.355802
20
244.359760
11
61.945646
21
246.300816
0
LINE
8
boundary
62
5
39
2
10
61.945646
20
246.300816
11
62.511466
21
248.232998
0
LINE
8
boundary
62
5
39
2
10
62.511466
20
248.232998
11
62.719086
21
249.011616
0
LINE
8
boundary
62
5
39
2
10
62.719086
20
249.011616
11
63.382536
21
251.371829
0
LINE
8
boundary
62
5
39
2
10
63.382536
20
251.371829
11
63.591119
21
252.216448
0
LINE
8
boundary
62
5
39
2
10
63.591119
20
252.216448
11
64.214354
21
254.604211
0
LINE
8
boundary
62
5
39
2
10
64.214354
20
254.604211
11
64.612494
21
256.253435
0
LINE
8
boundary
62
5
39
2
10
64.612494
20
256.253435
11
64.997322
21
257.923600
0
LINE
8
boundary
62
5
39
2
10
64.997322
20
257.923600
11
65.367474
21
259.613836
0
LINE
8
boundary
62
5
39
2
10
65.367474
20
259.613836
11
65.467269
21
260.117273
0
LINE
8
boundary
62
5
39
2
10
65.467269
20
260.117273
11
65.722079
21
261.323416
0
LINE
8
boundary
62
5
39
2
10
65.722079
20
261.323416
11
65.819250
21
261.844212
0
LINE
8
boundary
62
5
39
2
10
65.819250
20
261.844212
11
66.059926
21
263.051501
0
LINE
8
boundary
62
5
39
2
10
66.059926
20
263.051501
11
66.153988
21
263.589708
0
LINE
8
boundary
62
5
39
2
10
66.153988
20
263.589708
11
66.379983
21
264.797353
0
LINE
8
boundary
62
5
39
2
10
66.379983
20
264.797353
11
66.470355
21
265.352985
0
LINE
8
boundary
62
5
39
2
10
66.470355
20
265.352985
11
66.681198
21
266.560161
0
LINE
8
boundary
62
5
39
2
10
66.681198
20
266.560161
11
66.767351
21
267.133255
0
LINE
8
boundary
62
5
39
2
10
66.767351
20
267.133255
11
66.962821
21
268.339264
0
LINE
8
boundary
62
5
39
2
10
66.962821
20
268.339264
11
67.044160
21
268.929775
0
LINE
8
boundary
62
5
39
2
10
67.044160
20
268.929775
11
67.223528
21
270.133800
0
LINE
8
boundary
62
5
39
2
10
67.223528
20
270.133800
11
67.299456
21
270.741662
0
LINE
8
boundary
62
5
39
2
10
67.299456
20
270.741662
11
67.462563
21
271.943072
0
LINE
8
boundary
62
5
39
2
10
67.462563
20
271.943072
11
67.532498
21
272.568253
0
LINE
8
boundary
62
5
39
2
10
67.532498
20
272.568253
11
67.678947
21
273.766423
0
LINE
8
boundary
62
5
39
2
10
67.678947
20
273.766423
11
67.742328
21
274.408823
0
LINE
8
boundary
62
5
39
2
10
67.742328
20
274.408823
11
67.871946
21
275.603080
0
LINE
8
boundary
62
5
39
2
10
67.871946
20
275.603080
11
67.928094
21
276.262559
0
LINE
8
boundary
62
5
39
2
10
67.928094
20
276.262559
11
68.040642
21
277.452398
0
LINE
8
boundary
62
5
39
2
10
68.040642
20
277.452398
11
68.088999
21
278.128793
0
LINE
8
boundary
62
5
39
2
10
68.088999
20
278.128793
11
68.184219
21
279.313639
0
LINE
8
boundary
62
5
39
2
10
68.184219
20
279.313639
11
68.224126
21
280.006777
0
LINE
8
boundary
62
5
39
2
10
68.224126
20
280.006777
11
68.301854
21
281.186088
0
LINE
8
boundary
62
5
39
2
10
68.301854
20
281.186088
11
68.332657
21
281.895796
0
LINE
8
boundary
62
5
39
2
10
68.332657
20
281.895796
11
68.392741
21
283.069225
0
LINE
8
boundary
62
5
39
2
10
68.392741
20
283.069225
11
68.413874
21
283.795192
0
LINE
8
boundary
62
5
39
2
10
68.413874
20
283.795192
11
68.456238
21
284.962192
0
LINE
8
boundary
62
5
39
2
10
68.456238
20
284.962192
11
68.467054
21
285.704282
0
LINE
8
boundary
62
5
39
2
10
68.467054
20
285.704282
11
68.491630
21
286.864634
0
LINE
8
boundary
62
5
39
2
10
68.491630
20
286.864634
11
68.491450
21
287.622445
0
LINE
8
boundary
62
5
39
2
10
68.491450
20
287.622445
11
68.498058
21
288.775618
0
LINE
8
boundary
62
5
39
2
10
68.498058
20
288.775618
11
68.486313
21
289.548925
0
LINE
8
boundary
62
5
39
2
10
68.486313
20
289.548925
11
68.475003
21
290.694814
0
LINE
8
boundary
62
5
39
2
10
68.475003
20
290.694814
11
68.451014
21
291.483269
0
LINE
8
boundary
62
5
39
2
10
68.451014
20
291.483269
11
68.421695
21
292.621431
0
LINE
8
boundary
62
5
39
2
10
68.421695
20
292.621431
11
68.384853
21
293.424620
0
LINE
8
boundary
62
5
39
2
10
68.384853
20
293.424620
11
68.337557
21
294.554943
0
LINE
8
boundary
62
5
39
2
10
68.337557
20
294.554943
11
68.287256
21
295.372511
0
LINE
8
boundary
62
5
39
2
10
68.287256
20
295.372511
11
68.221941
21
296.494676
0
LINE
8
boundary
62
5
39
2
10
68.221941
20
296.494676
11
68.157569
21
297.326254
0
LINE
8
boundary
62
5
39
2
10
68.157569
20
297.326254
11
68.074262
21
298.440245
0
LINE
8
boundary
62
5
39
2
10
68.074262
20
298.440245
11
67.995232
21
299.285346
0
LINE
8
boundary
62
5
39
2
10
67.995232
20
299.285346
11
67.893937
21
300.390900
0
LINE
8
boundary
62
5
39
2
10
67.893937
20
300.390900
11
67.799559
21
301.249097
0
LINE
8
boundary
62
5
39
2
10
67.799559
20
301.249097
11
67.680236
21
302.346239
0
LINE
8
boundary
62
5
39
2
10
67.680236
20
302.346239
11
67.570019
21
303.217048
0
LINE
8
boundary
62
5
39
2
10
67.570019
20
303.217048
11
67.432792
21
304.305665
0
LINE
8
boundary
62
5
39
2
10
67.432792
20
304.305665
11
67.306108
21
305.188592
0
LINE
8
boundary
62
5
39
2
10
67.306108
20
305.188592
11
67.150815
21
306.268657
0
LINE
8
boundary
62
5
39
2
10
67.150815
20
306.268657
11
67.007077
21
307.163128
0
LINE
8
boundary
62
5
39
2
10
67.007077
20
307.163128
11
66.833905
21
308.234605
0
LINE
8
boundary
62
5
39
2
10
66.833905
20
308.234605
11
66.672620
21
309.140193
0
LINE
8
boundary
62
5
39
2
10
66.672620
20
309.140193
11
66.481447
21
310.203174
0
LINE
8
boundary
62
5
39
2
10
66.481447
20
310.203174
11
66.302000
21
311.119204
0
LINE
8
boundary
62
5
39
2
10
66.302000
20
311.119204
11
66.092853
21
312.173732
0
LINE
8
boundary
62
5
39
2
10
66.092853
20
312.173732
11
65.894787
21
313.099645
0
LINE
8
boundary
62
5
39
2
10
65.894787
20
313.099645
11
65.667703
21
314.145803
0
LINE
8
boundary
62
5
39
2
10
65.667703
20
314.145803
11
65.450467
21
315.081001
0
LINE
8
boundary
62
5
39
2
10
65.450467
20
315.081001
11
65.205331
21
316.118901
0
LINE
8
boundary
62
5
39
2
10
65.205331
20
316.118901
11
64.968419
21
317.062805
0
LINE
8
boundary
62
5
39
2
10
64.968419
20
317.062805
11
64.705257
21
318.092570
0
LINE
8
boundary
62
5
39
2
10
64.705257
20
318.092570
11
64.448169
21
319.044465
0
LINE
8
boundary
62
5
39
2
10
64.448169
20
319.044465
11
64.166790
21
320.066302
0
LINE
8
boundary
62
5
39
2
10
64.166790
20
320.066302
11
63.889128
21
321.025629
0
LINE
8
boundary
62
5
39
2
10
63.889128
20
321.025629
11
63.589536
21
322.039694
0
LINE
8
boundary
62
5
39
2
10
63.589536
20
322.039694
11
63.290850
21
323.005685
0
LINE
8
boundary
62
5
39
2
10
63.290850
20
323.005685
11
62.972942
21
324.012153
0
LINE
8
boundary
62
5
39
2
10
62.972942
20
324.012153
11
62.652738
21
324.984166
0
LINE
8
boundary
62
5
39
2
10
62.652738
20
324.984166
11
62.316301
21
325.983331
0
LINE
8
boundary
62
5
39
2
10
62.316301
20
325.983331
11
61.974265
21
326.960635
0
LINE
8
boundary
62
5
39
2
10
61.974265
20
326.960635
11
61.619184
21
327.952688
0
LINE
8
boundary
62
5
39
2
10
61.619184
20
327.952688
11
61.254891
21
328.934615
0
LINE
8
boundary
62
5
39
2
10
61.254891
20
328.934615
11
60.880943
21
329.919846
0
LINE
8
boundary
62
5
39
2
10
60.880943
20
329.919846
11
60.690676
21
330.411428
0
LINE
8
boundary
62
5
39
2
10
60.690676
20
330.411428
11
60.496229
21
330.902461
0
LINE
8
boundary
62
5
39
2
10
60.496229
20
330.902461
11
60.300351
21
331.394901
0
LINE
8
boundary
62
5
39
2
10
60.300351
20
331.394901
11
60.101088
21
331.884371
0
LINE
8
boundary
62
5
39
2
10
60.101088
20
331.884371
11
59.899518
21
332.377548
0
LINE
8
boundary
62
5
39
2
10
59.899518
20
332.377548
11
59.695369
21
332.865507
0
LINE
8
boundary
62
5
39
2
10
59.695369
20
332.865507
11
59.488016
21
333.359298
0
LINE
8
boundary
62
5
39
2
10
59.488016
20
333.359298
11
59.278995
21
333.845711
0
LINE
8
boundary
62
5
39
2
10
59.278995
20
333.845711
11
59.065908
21
334.340104
0
LINE
8
boundary
62
5
39
2
10
59.065908
20
334.340104
11
58.851935
21
334.825122
0
LINE
8
boundary
62
5
39
2
10
58.851935
20
334.825122
11
58.633038
21
335.319913
0
LINE
8
boundary
62
5
39
2
10
58.633038
20
335.319913
11
58.414077
21
335.803485
0
LINE
8
boundary
62
5
39
2
10
58.414077
20
335.803485
11
58.189381
21
336.298683
0
LINE
8
boundary
62
5
39
2
10
58.189381
20
336.298683
11
57.965418
21
336.780926
0
LINE
8
boundary
62
5
39
2
10
57.965418
20
336.780926
11
57.734840
21
337.276375
0
LINE
8
boundary
62
5
39
2
10
57.734840
20
337.276375
11
57.505797
21
337.757274
0
LINE
8
boundary
62
5
39
2
10
57.505797
20
337.757274
11
57.269316
21
338.252885
0
LINE
8
boundary
62
5
39
2
10
57.269316
20
338.252885
11
57.035150
21
338.732565
0
LINE
8
boundary
62
5
39
2
10
57.035150
20
338.732565
11
56.792828
21
339.228250
0
LINE
8
boundary
62
5
39
2
10
56.792828
20
339.228250
11
56.553489
21
339.706654
0
LINE
8
boundary
62
5
39
2
10
56.553489
20
339.706654
11
56.305211
21
340.202231
0
LINE
8
boundary
62
5
39
2
10
56.305211
20
340.202231
11
56.060623
21
340.679424
0
LINE
8
boundary
62
5
39
2
10
56.060623
20
340.679424
11
55.806392
21
341.174918
0
LINE
8
boundary
62
5
39
2
10
55.806392
20
341.174918
11
55.556522
21
341.651029
0
LINE
8
boundary
62
5
39
2
10
55.556522
20
341.651029
11
55.296383
21
342.146265
0
LINE
8
boundary
62
5
39
2
10
55.296383
20
342.146265
11
55.041223
21
342.621256
0
LINE
8
boundary
62
5
39
2
10
55.041223
20
342.621256
11
54.775118
21
343.116163
0
LINE
8
boundary
62
5
39
2
10
54.775118
20
343.116163
11
54.514483
21
343.590129
0
LINE
8
boundary
62
5
39
2
10
54.514483
20
343.590129
11
54.242403
21
344.084578
0
LINE
8
boundary
62
5
39
2
10
54.242403
20
344.084578
11
53.976292
21
344.557537
0
LINE
8
boundary
62
5
39
2
10
53.976292
20
344.557537
11
53.698219
21
345.051408
0
LINE
8
boundary
62
5
39
2
10
53.698219
20
345.051408
11
53.426566
21
345.523404
0
LINE
8
boundary
62
5
39
2
10
53.426566
20
345.523404
11
53.142552
21
346.016633
0
LINE
8
boundary
62
5
39
2
10
53.142552
20
346.016633
11
52.865293
21
346.487746
0
LINE
8
boundary
62
5
39
2
10
52.865293
20
346.487746
11
52.575302
21
346.980189
0
LINE
8
boundary
62
5
39
2
10
52.575302
20
346.980189
11
52.292342
21
347.450444
0
LINE
8
boundary
62
5
39
2
10
52.292342
20
347.450444
11
51.996360
21
347.942032
0
LINE
8
boundary
62
5
39
2
10
51.996360
20
347.942032
11
51.707581
21
348.411527
0
LINE
8
boundary
62
5
39
2
10
51.707581
20
348.411527
11
51.405649
21
348.902115
0
LINE
8
boundary
62
5
39
2
10
51.405649
20
348.902115
11
51.111036
21
349.370883
0
LINE
8
boundary
62
5
39
2
10
51.111036
20
349.370883
11
50.803180
21
349.860416
0
LINE
8
boundary
62
5
39
2
10
50.803180
20
349.860416
11
50.502595
21
350.328491
0
LINE
8
boundary
62
5
39
2
10
50.502595
20
350.328491
11
50.188746
21
350.816724
0
LINE
8
boundary
62
5
39
2
10
50.188746
20
350.816724
11
49.882073
21
351.284188
0
LINE
8
boundary
62
5
39
2
10
49.882073
20
351.284188
11
49.562373
21
351.771186
0
LINE
8
boundary
62
5
39
2
10
49.562373
20
351.771186
11
49.249597
21
352.238074
0
LINE
8
boundary
62
5
39
2
10
49.249597
20
352.238074
11
48.923976
21
352.723578
0
LINE
8
boundary
62
5
39
2
10
48.923976
20
352.723578
11
48.604896
21
353.189853
0
LINE
8
boundary
62
5
39
2
10
48.604896
20
353.189853
11
48.273453
21
353.673842
0
LINE
8
boundary
62
5
39
2
10
48.273453
20
353.673842
11
47.948055
21
354.139823
0
LINE
8
boundary
62
5
39
2
10
47.948055
20
354.139823
11
47.610780
21
354.622162
0
LINE
8
boundary
62
5
39
2
10
47.610780
20
354.622162
11
47.278887
21
355.087641
0
LINE
8
boundary
62
5
39
2
10
47.278887
20
355.087641
11
46.935776
21
355.568135
0
LINE
8
boundary
62
5
39
2
10
46.935776
20
355.568135
11
46.597245
21
356.033352
0
LINE
8
boundary
62
5
39
2
10
46.597245
20
356.033352
11
46.248448
21
356.511955
0
LINE
8
boundary
62
5
39
2
10
46.248448
20
356.511955
11
45.903245
21
356.976891
0
LINE
8
boundary
62
5
39
2
10
45.903245
20
356.976891
11
45.548787
21
357.453504
0
LINE
8
boundary
62
5
39
2
10
45.548787
20
357.453504
11
45.196764
21
357.918217
0
LINE
8
boundary
62
5
39
2
10
45.196764
20
357.918217
11
44.836639
21
358.392717
0
LINE
8
boundary
62
5
39
2
10
44.836639
20
358.392717
11
44.477596
21
358.857314
0
LINE
8
boundary
62
5
39
2
10
44.477596
20
358.857314
11
44.111942
21
359.329462
0
LINE
8
boundary
62
5
39
2
10
44.111942
20
359.329462
11
43.745795
21
359.793946
0
LINE
8
boundary
62
5
39
2
10
43.745795
20
359.793946
11
43.374632
21
360.263774
0
LINE
8
boundary
62
5
39
2
10
43.374632
20
360.263774
11
43.001200
21
360.728301
0
LINE
8
boundary
62
5
39
2
10
43.001200
20
360.728301
11
42.624646
21
361.195552
0
LINE
8
boundary
62
5
39
2
10
42.624646
20
361.195552
11
42.243825
21
361.660178
0
LINE
8
boundary
62
5
39
2
10
42.243825
20
361.660178
11
41.861904
21
362.124808
0
LINE
8
boundary
62
5
39
2
10
41.861904
20
362.124808
11
41.473462
21
362.589540
0
LINE
8
boundary
62
5
39
2
10
41.473462
20
362.589540
11
41.086322
21
363.051310
0
LINE
8
boundary
62
5
39
2
10
41.086322
20
363.051310
11
40.690121
21
363.516238
0
LINE
8
boundary
62
5
39
2
10
40.690121
20
363.516238
11
40.297890
21
363.975124
0
LINE
8
boundary
62
5
39
2
10
40.297890
20
363.975124
11
39.893807
21
364.440405
0
LINE
8
boundary
62
5
39
2
10
39.893807
20
364.440405
11
39.496486
21
364.896236
0
LINE
8
boundary
62
5
39
2
10
39.496486
20
364.896236
11
39.084284
21
365.361863
0
LINE
8
boundary
62
5
39
2
10
39.084284
20
365.361863
11
38.682051
21
365.814453
0
LINE
8
boundary
62
5
39
2
10
38.682051
20
365.814453
11
38.261494
21
366.280545
0
LINE
8
boundary
62
5
39
2
10
38.261494
20
366.280545
11
37.854542
21
366.729807
0
LINE
8
boundary
62
5
39
2
10
37.854542
20
366.729807
11
37.425469
21
367.196418
0
LINE
8
boundary
62
5
39
2
10
37.425469
20
367.196418
11
37.013906
21
367.642128
0
LINE
8
boundary
62
5
39
2
10
37.013906
20
367.642128
11
36.576147
21
368.109412
0
LINE
8
boundary
62
5
39
2
10
36.576147
20
368.109412
11
36.308422
21
368.646928
0
LINE
8
boundary
62
5
39
2
10
36.308422
20
368.646928
11
36.068001
21
369.159968
0
LINE
8
boundary
62
5
39
2
10
36.068001
20
369.159968
11
35.854173
21
369.649050
0
LINE
8
boundary
62
5
39
2
10
35.854173
20
369.649050
11
35.588017
21
370.329412
0
LINE
8
boundary
62
5
39
2
10
35.588017
20
370.329412
11
35.365911
21
370.976824
0
LINE
8
boundary
62
5
39
2
10
35.365911
20
370.976824
11
35.208764
21
371.557451
0
LINE
8
boundary
62
5
39
2
10
35.208764
20
371.557451
11
35.094841
21
372.104876
0
LINE
8
boundary
62
5
39
2
10
35.094841
20
372.104876
11
35.026677
21
372.751984
0
LINE
8
boundary
62
5
39
2
10
35.026677
20
372.751984
11
35.042907
21
373.319178
0
LINE
8
boundary
62
5
39
2
10
35.042907
20
373.319178
11
35.176559
21
373.917947
0
LINE
8
boundary
62
5
39
2
10
35.176559
20
373.917947
11
35.422276
21
374.411597
0
LINE
8
boundary
62
5
39
2
10
35.422276
20
374.411597
11
35.777655
21
374.794809
0
LINE
8
boundary
62
5
39
2
10
35.777655
20
374.794809
11
36.227280
21
375.083506
0
LINE
8
boundary
62
5
39
2
10
36.227280
20
375.083506
11
36.769911
21
375.278175
0
LINE
8
boundary
62
5
39
2
10
36.769911
20
375.278175
11
37.386545
21
375.390848
0
LINE
8
boundary
62
5
39
2
10
37.386545
20
375.390848
11
37.933443
21
375.424229
0
LINE
8
boundary
62
5
39
2
10
37.933443
20
375.424229
11
38.521249
21
375.411728
0
LINE
8
boundary
62
5
39
2
10
38.521249
20
375.411728
11
39.145309
21
375.356927
0
LINE
8
boundary
62
5
39
2
10
39.145309
20
375.356927
11
39.801080
21
375.263586
0
LINE
8
boundary
62
5
39
2
10
39.801080
20
375.263586
11
40.484294
21
375.135064
0
LINE
8
boundary
62
5
39
2
10
40.484294
20
375.135064
11
41.190248
21
374.975037
0
LINE
8
boundary
62
5
39
2
10
41.190248
20
374.975037
11
41.914426
21
374.786936
0
LINE
8
boundary
62
5
39
2
10
41.914426
20
374.786936
11
42.652480
21
374.574529
0
LINE
8
boundary
62
5
39
2
10
42.652480
20
374.574529
11
43.399812
21
374.341351
0
LINE
8
boundary
62
5
39
2
10
43.399812
20
374.341351
11
44.151947
21
374.090883
0
LINE
8
boundary
62
5
39
2
10
44.151947
20
374.090883
11
44.904372
21
373.826641
0
LINE
8
boundary
62
5
39
2
10
44.904372
20
373.826641
11
45.652492
21
373.552322
0
LINE
8
boundary
62
5
39
2
10
45.652492
20
373.552322
11
46.458724
21
373.239516
0
LINE
8
boundary
62
5
39
2
10
46.458724
20
373.239516
11
47.118113
21
372.987601
0
LINE
8
boundary
62
5
39
2
10
47.118113
20
372.987601
11
47.894091
21
372.672359
0
LINE
8
boundary
62
5
39
2
10
47.894091
20
372.672359
11
48.512767
21
372.425080
0
LINE
8
boundary
62
5
39
2
10
48.512767
20
372.425080
11
49.236713
21
372.123827
0
LINE
8
boundary
62
5
39
2
10
49.236713
20
372.123827
11
49.800379
21
371.893276
0
LINE
8
boundary
62
5
39
2
10
49.800379
20
371.893276
11
50.279629
21
371.551971
0
LINE
8
boundary
62
5
39
2
10
50.279629
20
371.551971
11
51.131806
21
370.965156
0
LINE
8
boundary
62
5
39
2
10
51.131806
20
370.965156
11
51.992744
21
370.397866
0
LINE
8
boundary
62
5
39
2
10
51.992744
20
370.397866
11
52.861966
21
369.850220
0
LINE
8
boundary
62
5
39
2
10
52.861966
20
369.850220
11
53.738882
21
369.322253
0
LINE
8
boundary
62
5
39
2
10
53.738882
20
369.322253
11
54.622943
21
368.813897
0
LINE
8
boundary
62
5
39
2
10
54.622943
20
368.813897
11
55.513531
21
368.325164
0
LINE
8
boundary
62
5
39
2
10
55.513531
20
368.325164
11
56.410066
21
367.856030
0
LINE
8
boundary
62
5
39
2
10
56.410066
20
367.856030
11
57.312011
21
367.406606
0
LINE
8
boundary
62
5
39
2
10
57.312011
20
367.406606
11
58.218790
21
366.976763
0
LINE
8
boundary
62
5
39
2
10
58.218790
20
366.976763
11
59.129831
21
366.566579
0
LINE
8
boundary
62
5
39
2
10
59.129831
20
366.566579
11
60.044552
21
366.176065
0
LINE
8
boundary
62
5
39
2
10
60.044552
20
366.176065
11
60.962319
21
365.805262
0
LINE
8
boundary
62
5
39
2
10
60.962319
20
365.805262
11
61.882644
21
365.454091
0
LINE
8
boundary
62
5
39
2
10
61.882644
20
365.454091
11
62.804870
21
365.122503
0
LINE
8
boundary
62
5
39
2
10
62.804870
20
365.122503
11
63.728521
21
364.810637
0
LINE
8
boundary
62
5
39
2
10
63.728521
20
364.810637
11
64.652946
21
364.518433
0
LINE
8
boundary
62
5
39
2
10
64.652946
20
364.518433
11
65.577629
21
364.245899
0
LINE
8
boundary
62
5
39
2
10
65.577629
20
364.245899
11
66.501959
21
363.992996
0
LINE
8
boundary
62
5
39
2
10
66.501959
20
363.992996
11
67.425448
21
363.759710
0
LINE
8
boundary
62
5
39
2
10
67.425448
20
363.759710
11
68.347486
21
363.546098
0
LINE
8
boundary
62
5
39
2
10
68.347486
20
363.546098
11
69.267571
21
363.352109
0
LINE
8
boundary
62
5
39
2
10
69.267571
20
363.352109
11
70.185100
21
363.177723
0
LINE
8
boundary
62
5
39
2
10
70.185100
20
363.177723
11
71.099561
21
363.022993
0
LINE
8
boundary
62
5
39
2
10
71.099561
20
363.022993
11
72.010510
21
362.887882
0
LINE
8
boundary
62
5
39
2
10
72.010510
20
362.887882
11
72.917302
21
362.772382
0
LINE
8
boundary
62
5
39
2
10
72.917302
20
362.772382
11
73.819434
21
362.676441
0
LINE
8
boundary
62
5
39
2
10
73.819434
20
362.676441
11
74.716486
21
362.600139
0
LINE
8
boundary
62
5
39
2
10
74.716486
20
362.600139
11
75.607894
21
362.543448
0
LINE
8
boundary
62
5
39
2
10
75.607894
20
362.543448
11
76.493162
21
362.506206
0
LINE
8
boundary
62
5
39
2
10
76.493162
20
362.506206
11
77.371851
21
362.488567
0
LINE
8
boundary
62
5
39
2
10
77.371851
20
362.488567
11
78.243407
21
362.490419
0
LINE
8
boundary
62
5
39
2
10
78.243407
20
362.490419
11
79.107438
21
362.511800
0
LINE
8
boundary
62
5
39
2
10
79.107438
20
362.511800
11
79.963483
21
362.552754
0
LINE
8
boundary
62
5
39
2
10
79.963483
20
362.552754
11
80.811072
21
362.613122
0
LINE
8
boundary
62
5
39
2
10
80.811072
20
362.613122
11
81.649807
21
362.692945
0
LINE
8
boundary
62
5
39
2
10
81.649807
20
362.692945
11
82.479209
21
362.792221
0
LINE
8
boundary
62
5
39
2
10
82.479209
20
362.792221
11
83.298913
21
362.910882
0
LINE
8
boundary
62
5
39
2
10
83.298913
20
362.910882
11
84.108511
21
363.049059
0
LINE
8
boundary
62
5
39
2
10
84.108511
20
363.049059
11
84.907608
21
363.206513
0
LINE
8
boundary
62
5
39
2
10
84.907608
20
363.206513
11
85.695832
21
363.383373
0
LINE
8
boundary
62
5
39
2
10
85.695832
20
363.383373
11
86.472778
21
363.579475
0
LINE
8
boundary
62
5
39
2
10
86.472778
20
363.579475
11
87.238156
21
363.795001
0
LINE
8
boundary
62
5
39
2
10
87.238156
20
363.795001
11
87.991625
21
364.029816
0
LINE
8
boundary
62
5
39
2
10
87.991625
20
364.029816
11
88.732801
21
364.283862
0
LINE
8
boundary
62
5
39
2
10
88.732801
20
364.283862
11
89.461287
21
364.557122
0
LINE
8
boundary
62
5
39
2
10
89.461287
20
364.557122
11
90.176936
21
364.849656
0
LINE
8
boundary
62
5
39
2
10
90.176936
20
364.849656
11
90.879388
21
365.161422
0
LINE
8
boundary
62
5
39
2
10
90.879388
20
365.161422
11
91.568308
21
365.492357
0
LINE
8
boundary
62
5
39
2
10
91.568308
20
365.492357
11
92.243413
21
365.842406
0
LINE
8
boundary
62
5
39
2
10
92.243413
20
365.842406
11
92.904490
21
366.211576
0
LINE
8
boundary
62
5
39
2
10
92.904490
20
366.211576
11
93.551341
21
366.599880
0
LINE
8
boundary
62
5
39
2
10
93.551341
20
366.599880
11
94.183530
21
367.007280
0
LINE
8
boundary
62
5
39
2
10
94.183530
20
367.007280
11
94.800933
21
367.433777
0
LINE
8
boundary
62
5
39
2
10
94.800933
20
367.433777
11
95.403393
21
367.879264
0
LINE
8
boundary
62
5
39
2
10
95.403393
20
367.879264
11
95.990512
21
368.343781
0
LINE
8
boundary
62
5
39
2
10
95.990512
20
368.343781
11
96.562149
21
368.827386
0
LINE
8
boundary
62
5
39
2
10
96.562149
20
368.827386
11
97.118131
21
369.329875
0
LINE
8
boundary
62
5
39
2
10
97.118131
20
369.329875
11
97.658211
21
369.851353
0
LINE
8
boundary
62
5
39
2
10
97.658211
20
369.851353
11
98.182194
21
370.391845
0
LINE
8
boundary
62
5
39
2
10
98.182194
20
370.391845
11
98.689883
21
370.951267
0
LINE
8
boundary
62
5
39
2
10
98.689883
20
370.951267
11
99.181095
21
371.529630
0
LINE
8
boundary
62
5
39
2
10
99.181095
20
371.529630
11
99.655602
21
372.126879
0
LINE
8
boundary
62
5
39
2
10
99.655602
20
372.126879
11
100.113266
21
372.743026
0
LINE
8
boundary
62
5
39
2
10
100.113266
20
372.743026
11
100.488636
21
373.140981
0
LINE
8
boundary
62
5
39
2
10
100.488636
20
373.140981
11
100.961198
21
373.652007
0
LINE
8
boundary
62
5
39
2
10
100.961198
20
373.652007
11
101.429244
21
374.233701
0
LINE
8
boundary
62
5
39
2
10
101.429244
20
374.233701
11
101.837669
21
374.831659
0
LINE
8
boundary
62
5
39
2
10
101.837669
20
374.831659
11
102.188165
21
375.445658
0
LINE
8
boundary
62
5
39
2
10
102.188165
20
375.445658
11
102.482214
21
376.075095
0
LINE
8
boundary
62
5
39
2
10
102.482214
20
376.075095
11
102.721462
21
376.719574
0
LINE
8
boundary
62
5
39
2
10
102.721462
20
376.719574
11
102.907282
21
377.378680
0
LINE
8
boundary
62
5
39
2
10
102.907282
20
377.378680
11
103.041123
21
378.051954
0
LINE
8
boundary
62
5
39
2
10
103.041123
20
378.051954
11
103.124363
21
378.738958
0
LINE
8
boundary
62
5
39
2
10
103.124363
20
378.738958
11
103.158154
21
379.439255
0
LINE
8
boundary
62
5
39
2
10
103.158154
20
379.439255
11
103.143963
21
380.152403
0
LINE
8
boundary
62
5
39
2
10
103.143963
20
380.152403
11
103.082921
21
380.878098
0
LINE
8
boundary
62
5
39
2
10
103.082921
20
380.878098
11
102.976078
21
381.615636
0
LINE
8
boundary
62
5
39
2
10
102.976078
20
381.615636
11
102.824886
21
382.364875
0
LINE
8
boundary
62
5
39
2
10
102.824886
20
382.364875
11
102.630156
21
383.125217
0
LINE
8
boundary
62
5
39
2
10
102.630156
20
383.125217
11
102.393146
21
383.896262
0
LINE
8
boundary
62
5
39
2
10
102.393146
20
383.896262
11
102.114934
21
384.677526
0
LINE
8
boundary
62
5
39
2
10
102.114934
20
384.677526
11
101.796604
21
385.468738
0
LINE
8
boundary
62
5
39
2
10
101.796604
20
385.468738
11
101.585435
21
385.943860
0
LINE
8
boundary
62
5
39
2
10
101.585435
20
385.943860
11
101.285429
21
386.595893
0
LINE
8
boundary
62
5
39
2
10
101.285429
20
386.595893
11
100.875578
21
387.408051
0
LINE
8
boundary
62
5
39
2
10
100.875578
20
387.408051
11
100.429336
21
388.228557
0
LINE
8
boundary
62
5
39
2
10
100.429336
20
388.228557
11
99.947766
21
389.056866
0
LINE
8
boundary
62
5
39
2
10
99.947766
20
389.056866
11
99.431832
21
389.892633
0
LINE
8
boundary
62
5
39
2
10
99.431832
20
389.892633
11
98.882666
21
390.735238
0
LINE
8
boundary
62
5
39
2
10
98.882666
20
390.735238
11
98.301499
21
391.584567
0
LINE
8
boundary
62
5
39
2
10
98.301499
20
391.584567
11
97.689252
21
392.439964
0
LINE
8
boundary
62
5
39
2
10
97.689252
20
392.439964
11
97.047060
21
393.300895
0
LINE
8
boundary
62
5
39
2
10
97.047060
20
393.300895
11
96.376167
21
394.167159
0
LINE
8
boundary
62
5
39
2
10
96.376167
20
394.167159
11
95.677562
21
395.038162
0
LINE
8
boundary
62
5
39
2
10
95.677562
20
395.038162
11
94.952475
21
395.913485
0
LINE
8
boundary
62
5
39
2
10
94.952475
20
395.913485
11
94.202172
21
396.792787
0
LINE
8
boundary
62
5
39
2
10
94.202172
20
396.792787
11
93.427695
21
397.675484
0
LINE
8
boundary
62
5
39
2
10
93.427695
20
397.675484
11
92.630365
21
398.561168
0
LINE
8
boundary
62
5
39
2
10
92.630365
20
398.561168
11
91.811255
21
399.449467
0
LINE
8
boundary
62
5
39
2
10
91.811255
20
399.449467
11
90.971847
21
400.339894
0
LINE
8
boundary
62
5
39
2
10
90.971847
20
400.339894
11
90.113302
21
401.231917
0
LINE
8
boundary
62
5
39
2
10
90.113302
20
401.231917
11
89.236844
21
402.125135
0
LINE
8
boundary
62
5
39
2
10
89.236844
20
402.125135
11
88.343833
21
403.019138
0
LINE
8
boundary
62
5
39
2
10
88.343833
20
403.019138
11
87.435490
21
403.913360
0
LINE
8
boundary
62
5
39
2
10
87.435490
20
403.913360
11
86.513278
21
404.807451
0
LINE
8
boundary
62
5
39
2
10
86.513278
20
404.807451
11
85.578496
21
405.700889
0
LINE
8
boundary
62
5
39
2
10
85.578496
20
405.700889
11
83.937159
21
407.248936
0
LINE
8
boundary
62
5
39
2
10
83.937159
20
407.248936
11
83.408755
21
407.723464
0
LINE
8
boundary
62
5
39
2
10
83.408755
20
407.723464
11
82.012992
21
409.018575
0
LINE
8
boundary
62
5
39
2
10
82.012992
20
409.018575
11
81.461982
21
409.504029
0
LINE
8
boundary
62
5
39
2
10
81.461982
20
409.504029
11
80.064926
21
410.776869
0
LINE
8
boundary
62
5
39
2
10
80.064926
20
410.776869
11
79.494064
21
411.272111
0
LINE
8
boundary
62
5
39
2
10
79.494064
20
411.272111
11
78.104063
21
412.520270
0
LINE
8
boundary
62
5
39
2
10
78.104063
20
412.520270
11
77.516386
21
413.023991
0
LINE
8
boundary
62
5
39
2
10
77.516386
20
413.023991
11
76.141700
21
414.245135
0
LINE
8
boundary
62
5
39
2
10
76.141700
20
414.245135
11
75.540610
21
414.755969
0
LINE
8
boundary
62
5
39
2
10
75.540610
20
414.755969
11
72.858660
21
417.116136
0
LINE
8
boundary
62
5
39
2
10
72.858660
20
417.116136
11
71.641249
21
418.143945
0
LINE
8
boundary
62
5
39
2
10
71.641249
20
418.143945
11
69.112158
21
420.369246
0
LINE
8
boundary
62
5
39
2
10
69.112158
20
420.369246
11
67.889469
21
421.404870
0
LINE
8
boundary
62
5
39
2
10
67.889469
20
421.404870
11
66.705244
21
422.457149
0
LINE
8
boundary
62
5
39
2
10
66.705244
20
422.457149
11
66.097951
21
422.977910
0
LINE
8
boundary
62
5
39
2
10
66.097951
20
422.977910
11
64.972700
21
423.990500
0
LINE
8
boundary
62
5
39
2
10
64.972700
20
423.990500
11
64.378227
21
424.507332
0
LINE
8
boundary
62
5
39
2
10
64.378227
20
424.507332
11
63.704257
21
425.112003
0
LINE
8
boundary
62
5
39
2
10
63.704257
20
425.112003
11
62.671612
21
426.014542
0
LINE
8
boundary
62
5
39
2
10
62.671612
20
426.014542
11
61.644358
21
426.892778
0
LINE
8
boundary
62
5
39
2
10
61.644358
20
426.892778
11
60.622451
21
427.746984
0
LINE
8
boundary
62
5
39
2
10
60.622451
20
427.746984
11
59.605813
21
428.577492
0
LINE
8
boundary
62
5
39
2
10
59.605813
20
428.577492
11
58.594319
21
429.384736
0
LINE
8
boundary
62
5
39
2
10
58.594319
20
429.384736
11
57.588110
21
430.168943
0
LINE
8
boundary
62
5
39
2
10
57.588110
20
430.168943
11
56.587085
21
430.930581
0
LINE
8
boundary
62
5
39
2
10
56.587085
20
430.930581
11
55.591150
21
431.669931
0
LINE
8
boundary
62
5
39
2
10
55.591150
20
431.669931
11
54.600244
21
432.387311
0
LINE
8
boundary
62
5
39
2
10
54.600244
20
432.387311
11
53.614341
21
433.083140
0
LINE
8
boundary
62
5
39
2
10
53.614341
20
433.083140
11
52.633447
21
433.757725
0
LINE
8
boundary
62
5
39
2
10
52.633447
20
433.757725
11
51.657424
21
434.411452
0
LINE
8
boundary
62
5
39
2
10
51.657424
20
434.411452
11
50.686305
21
435.044655
0
LINE
8
boundary
62
5
39
2
10
50.686305
20
435.044655
11
49.719956
21
435.657628
0
LINE
8
boundary
62
5
39
2
10
49.719956
20
435.657628
11
48.758346
21
436.250876
0
LINE
8
boundary
62
5
39
2
10
48.758346
20
436.250876
11
47.801477
21
436.824679
0
LINE
8
boundary
62
5
39
2
10
47.801477
20
436.824679
11
46.849219
21
437.379398
0
LINE
8
boundary
62
5
39
2
10
46.849219
20
437.379398
11
45.901509
21
437.915361
0
LINE
8
boundary
62
5
39
2
10
45.901509
20
437.915361
11
44.958403
21
438.432999
0
LINE
8
boundary
62
5
39
2
10
44.958403
20
438.432999
11
44.019772
21
438.932597
0
LINE
8
boundary
62
5
39
2
10
44.019772
20
438.932597
11
43.085516
21
439.414608
0
LINE
8
boundary
62
5
39
2
10
43.085516
20
439.414608
11
42.155577
21
439.879308
0
LINE
8
boundary
62
5
39
2
10
42.155577
20
439.879308
11
41.229997
21
440.327147
0
LINE
8
boundary
62
5
39
2
10
41.229997
20
440.327147
11
40.308680
21
440.758467
0
LINE
8
boundary
62
5
39
2
10
40.308680
20
440.758467
11
39.391512
21
441.173679
0
LINE
8
boundary
62
5
39
2
10
39.391512
20
441.173679
11
38.478512
21
441.573116
0
LINE
8
boundary
62
5
39
2
10
38.478512
20
441.573116
11
37.569595
21
441.957190
0
LINE
8
boundary
62
5
39
2
10
37.569595
20
441.957190
11
36.664694
21
442.326144
0
LINE
8
boundary
62
5
39
2
10
36.664694
20
442.326144
11
35.763757
21
442.680520
0
LINE
8
boundary
62
5
39
2
10
35.763757
20
442.680520
11
34.866793
21
443.020658
0
LINE
8
boundary
62
5
39
2
10
34.866793
20
443.020658
11
33.973662
21
443.346885
0
LINE
8
boundary
62
5
39
2
10
33.973662
20
443.346885
11
33.084330
21
443.659628
0
LINE
8
boundary
62
5
39
2
10
33.084330
20
443.659628
11
32.198768
21
443.959216
0
LINE
8
boundary
62
5
39
2
10
32.198768
20
443.959216
11
31.316815
21
444.246063
0
LINE
8
boundary
62
5
39
2
10
31.316815
20
444.246063
11
30.438579
21
444.520586
0
LINE
8
boundary
62
5
39
2
10
30.438579
20
444.520586
11
29.563936
21
444.783133
0
LINE
8
boundary
62
5
39
2
10
29.563936
20
444.783133
11
28.692863
21
445.034150
0
LINE
8
boundary
62
5
39
2
10
28.692863
20
445.034150
11
27.825295
21
445.273893
0
LINE
8
boundary
62
5
39
2
10
27.825295
20
445.273893
11
26.961154
21
445.502911
0
LINE
8
boundary
62
5
39
2
10
26.961154
20
445.502911
11
26.100388
21
445.721461
0
LINE
8
boundary
62
5
39
2
10
26.100388
20
445.721461
11
25.242972
21
445.930013
0
LINE
8
boundary
62
5
39
2
10
25.242972
20
445.930013
11
23.953265
21
446.224044
0
LINE
8
boundary
62
5
39
2
10
23.953265
20
446.224044
11
23.114620
21
446.410630
0
LINE
8
boundary
62
5
39
2
10
23.114620
20
446.410630
11
22.263818
21
446.584491
0
LINE
8
boundary
62
5
39
2
10
22.263818
20
446.584491
11
21.419471
21
446.756539
0
LINE
8
boundary
62
5
39
2
10
21.419471
20
446.756539
11
20.587015
21
446.912147
0
LINE
8
boundary
62
5
39
2
10
20.587015
20
446.912147
11
19.736509
21
447.070691
0
LINE
8
boundary
62
5
39
2
10
19.736509
20
447.070691
11
18.922547
21
447.210017
0
LINE
8
boundary
62
5
39
2
10
18.922547
20
447.210017
11
18.065393
21
447.356393
0
LINE
8
boundary
62
5
39
2
10
18.065393
20
447.356393
11
17.270088
21
447.481218
0
LINE
8
boundary
62
5
39
2
10
17.270088
20
447.481218
11
16.405679
21
447.616637
0
LINE
8
boundary
62
5
39
2
10
16.405679
20
447.616637
11
15.629294
21
447.728877
0
LINE
8
boundary
62
5
39
2
10
15.629294
20
447.728877
11
14.756926
21
447.854737
0
LINE
8
boundary
62
5
39
2
10
14.756926
20
447.854737
11
13.999916
21
447.956090
0
LINE
8
boundary
62
5
39
2
10
13.999916
20
447.956090
11
13.118974
21
448.073900
0
LINE
8
boundary
62
5
39
2
10
13.118974
20
448.073900
11
12.381816
21
448.166027
0
LINE
8
boundary
62
5
39
2
10
12.381816
20
448.166027
11
11.491434
21
448.277159
0
LINE
8
boundary
62
5
39
2
10
11.491434
20
448.277159
11
10.774669
21
448.361707
0
LINE
8
boundary
62
5
39
2
10
10.774669
20
448.361707
11
9.873819
21
448.467832
0
LINE
8
boundary
62
5
39
2
10
9.873819
20
448.467832
11
8.469605
21
448.624047
0
LINE
8
boundary
62
5
39
2
10
8.469605
20
448.624047
11
6.667500
21
448.824341
0
LINE
8
boundary
62
5
39
2
10
6.667500
20
448.824341
11
6.754766
21
445.751073
0
LINE
8
boundary
62
5
39
2
10
6.754766
20
445.751073
11
6.913522
21
441.328987
0
LINE
8
boundary
62
5
39
2
10
6.913522
20
441.328987
11
8.665513
21
441.141333
0
LINE
8
boundary
62
5
39
2
10
8.665513
20
441.141333
11
11.298910
21
440.859695
0
LINE
8
boundary
62
5
39
2
10
11.298910
20
440.859695
11
11.861774
21
440.698530
0
LINE
8
boundary
62
5
39
2
10
11.861774
20
440.698530
11
12.571539
21
440.495967
0
LINE
8
boundary
62
5
39
2
10
12.571539
20
440.495967
11
13.138207
21
440.327614
0
LINE
8
boundary
62
5
39
2
10
13.138207
20
440.327614
11
13.827788
21
440.123469
0
LINE
8
boundary
62
5
39
2
10
13.827788
20
440.123469
11
14.397353
21
439.948092
0
LINE
8
boundary
62
5
39
2
10
14.397353
20
439.948092
11
31.550983
21
439.936655
0
LINE
8
boundary
62
5
39
2
10
31.550983
20
439.936655
11
31.550982
21
437.190655
0
LINE
8
boundary
62
5
39
2
10
31.550982
20
437.190655
11
22.795528
21
437.190655
0
LINE
8
boundary
62
5
39
2
10
22.795528
20
437.190655
11
23.290336
21
436.844971
0
LINE
8
boundary
62
5
39
2
10
23.290336
20
436.844971
11
23.858734
21
436.616335
0
LINE
8
boundary
62
5
39
2
10
23.858734
20
436.616335
11
24.400267
21
436.400021
0
LINE
8
boundary
62
5
39
2
10
24.400267
20
436.400021
11
24.966245
21
436.165304
0
LINE
8
boundary
62
5
39
2
10
24.966245
20
436.165304
11
25.494068
21
435.947835
0
LINE
8
boundary
62
5
39
2
10
25.494068
20
435.947835
11
26.057278
21
435.706926
0
LINE
8
boundary
62
5
39
2
10
26.057278
20
435.706926
11
26.571800
21
435.488368
0
LINE
8
boundary
62
5
39
2
10
26.571800
20
435.488368
11
27.131877
21
435.241405
0
LINE
8
boundary
62
5
39
2
10
27.131877
20
435.241405
11
27.633496
21
435.021966
0
LINE
8
boundary
62
5
39
2
10
27.633496
20
435.021966
11
28.190121
21
434.769051
0
LINE
8
boundary
62
5
39
2
10
28.190121
20
434.769051
11
28.679148
21
434.548660
0
LINE
8
boundary
62
5
39
2
10
28.679148
20
434.548660
11
29.232003
21
434.289922
0
LINE
8
boundary
62
5
39
2
10
29.232003
20
434.289922
11
29.708834
21
434.068658
0
LINE
8
boundary
62
5
39
2
10
29.708834
20
434.068658
11
30.257669
21
433.804105
0
LINE
8
boundary
62
5
39
2
10
30.257669
20
433.804105
11
30.722590
21
433.581993
0
LINE
8
boundary
62
5
39
2
10
30.722590
20
433.581993
11
31.267104
21
433.311836
0
LINE
8
boundary
62
5
39
2
10
31.267104
20
433.311836
11
32.260387
21
432.813193
0
LINE
8
boundary
62
5
39
2
10
32.260387
20
432.813193
11
33.237524
21
432.308439
0
LINE
8
boundary
62
5
39
2
10
33.237524
20
432.308439
11
34.198581
21
431.797527
0
LINE
8
boundary
62
5
39
2
10
34.198581
20
431.797527
11
35.143522
21
431.280790
0
LINE
8
boundary
62
5
39
2
10
35.143522
20
431.280790
11
36.072502
21
430.758201
0
LINE
8
boundary
62
5
39
2
10
36.072502
20
430.758201
11
36.985476
21
430.230105
0
LINE
8
boundary
62
5
39
2
10
36.985476
20
430.230105
11
37.882474
21
429.696391
0
LINE
8
boundary
62
5
39
2
10
37.882474
20
429.696391
11
38.763609
21
429.157476
0
LINE
8
boundary
62
5
39
2
10
38.763609
20
429.157476
11
39.628898
21
428.613322
0
LINE
8
boundary
62
5
39
2
10
39.628898
20
428.613322
11
40.478323
21
428.064140
0
LINE
8
boundary
62
5
39
2
10
40.478323
20
428.064140
11
41.312018
21
427.510058
0
LINE
8
boundary
62
5
39
2
10
41.312018
20
427.510058
11
42.129898
21
426.951273
0
LINE
8
boundary
62
5
39
2
10
42.129898
20
426.951273
11
42.932024
21
426.387773
0
LINE
8
boundary
62
5
39
2
10
42.932024
20
426.387773
11
43.718450
21
425.819901
0
LINE
8
boundary
62
5
39
2
10
43.718450
20
425.819901
11
44.489234
21
425.247696
0
LINE
8
boundary
62
5
39
2
10
44.489234
20
425.247696
11
45.244404
21
424.671330
0
LINE
8
boundary
62
5
39
2
10
45.244404
20
424.671330
11
45.983975
21
424.090837
0
LINE
8
boundary
62
5
39
2
10
45.983975
20
424.090837
11
46.707990
21
423.506496
0
LINE
8
boundary
62
5
39
2
10
46.707990
20
423.506496
11
47.416499
21
422.918395
0
LINE
8
boundary
62
5
39
2
10
47.416499
20
422.918395
11
48.109529
21
422.326731
0
LINE
8
boundary
62
5
39
2
10
48.109529
20
422.326731
11
48.787079
21
421.731525
0
LINE
8
boundary
62
5
39
2
10
48.787079
20
421.731525
11
49.449215
21
421.133028
0
LINE
8
boundary
62
5
39
2
10
49.449215
20
421.133028
11
50.095982
21
420.531305
0
LINE
8
boundary
62
5
39
2
10
50.095982
20
420.531305
11
50.727415
21
419.926569
0
LINE
8
boundary
62
5
39
2
10
50.727415
20
419.926569
11
51.343522
21
419.318868
0
LINE
8
boundary
62
5
39
2
10
51.343522
20
419.318868
11
51.944367
21
418.708400
0
LINE
8
boundary
62
5
39
2
10
51.944367
20
418.708400
11
52.529994
21
418.095346
0
LINE
8
boundary
62
5
39
2
10
52.529994
20
418.095346
11
53.100402
21
417.479772
0
LINE
8
boundary
62
5
39
2
10
53.100402
20
417.479772
11
53.655613
21
416.861829
0
LINE
8
boundary
62
5
39
2
10
53.655613
20
416.861829
11
54.195740
21
416.241657
0
LINE
8
boundary
62
5
39
2
10
54.195740
20
416.241657
11
54.720724
21
415.619438
0
LINE
8
boundary
62
5
39
2
10
54.720724
20
415.619438
11
55.230685
21
414.995230
0
LINE
8
boundary
62
5
39
2
10
55.230685
20
414.995230
11
55.725590
21
414.369275
0
LINE
8
boundary
62
5
39
2
10
55.725590
20
414.369275
11
56.205532
21
413.741588
0
LINE
8
boundary
62
5
39
2
10
56.205532
20
413.741588
11
56.670547
21
413.112332
0
LINE
8
boundary
62
5
39
2
10
56.670547
20
413.112332
11
57.120656
21
412.481734
0
LINE
8
boundary
62
5
39
2
10
57.120656
20
412.481734
11
57.555876
21
411.849813
0
LINE
8
boundary
62
5
39
2
10
57.555876
20
411.849813
11
57.976207
21
411.216791
0
LINE
8
boundary
62
5
39
2
10
57.976207
20
411.216791
11
58.381812
21
410.582832
0
LINE
8
boundary
62
5
39
2
10
58.381812
20
410.582832
11
58.772679
21
409.947984
0
LINE
8
boundary
62
5
39
2
10
58.772679
20
409.947984
11
59.148750
21
409.312324
0
LINE
8
boundary
62
5
39
2
10
59.148750
20
409.312324
11
59.510137
21
408.676129
0
LINE
8
boundary
62
5
39
2
10
59.510137
20
408.676129
11
59.856846
21
408.039482
0
LINE
8
boundary
62
5
39
2
10
59.856846
20
408.039482
11
60.188953
21
407.402486
0
LINE
8
boundary
62
5
39
2
10
60.188953
20
407.402486
11
60.506466
21
406.765294
0
LINE
8
boundary
62
5
39
2
10
60.506466
20
406.765294
11
60.809408
21
406.128069
0
LINE
8
boundary
62
5
39
2
10
60.809408
20
406.128069
11
60.973693
21
405.284166
0
LINE
8
boundary
62
5
39
2
10
60.973693
20
405.284166
11
61.088747
21
404.327132
0
LINE
8
boundary
62
5
39
2
10
61.088747
20
404.327132
11
61.226267
21
403.357069
0
LINE
8
boundary
62
5
39
2
10
61.226267
20
403.357069
11
61.380651
21
402.377347
0
LINE
8
boundary
62
5
39
2
10
61.380651
20
402.377347
11
61.657311
21
400.730825
0
LINE
8
boundary
62
5
39
2
10
61.657311
20
400.730825
11
61.778952
21
400.074471
0
LINE
8
boundary
62
5
39
2
10
61.778952
20
400.074471
11
61.994094
21
398.757573
0
LINE
8
boundary
62
5
39
2
10
61.994094
20
398.757573
11
62.112872
21
398.104515
0
LINE
8
boundary
62
5
39
2
10
62.112872
20
398.104515
11
62.209411
21
397.452746
0
LINE
8
boundary
62
5
39
2
10
62.209411
20
397.452746
11
62.347135
21
396.486248
0
LINE
8
boundary
62
5
39
2
10
62.347135
20
396.486248
11
62.462280
21
395.533689
0
LINE
8
boundary
62
5
39
2
10
62.462280
20
395.533689
11
62.549235
21
394.598414
0
LINE
8
boundary
62
5
39
2
10
62.549235
20
394.598414
11
62.602240
21
393.683786
0
LINE
8
boundary
62
5
39
2
10
62.602240
20
393.683786
11
62.620762
21
393.085614
0
LINE
8
boundary
62
5
39
2
10
62.620762
20
393.085614
11
62.617951
21
392.499870
0
LINE
8
boundary
62
5
39
2
10
62.617951
20
392.499870
11
62.578767
21
391.786322
0
LINE
8
boundary
62
5
39
2
10
62.578767
20
391.786322
11
62.526083
21
391.229601
0
LINE
8
boundary
62
5
39
2
10
62.526083
20
391.229601
11
62.419379
21
390.556933
0
LINE
8
boundary
62
5
39
2
10
62.419379
20
390.556933
11
62.307906
21
390.034023
0
LINE
8
boundary
62
5
39
2
10
62.307906
20
390.034023
11
62.123010
21
389.408648
0
LINE
8
boundary
62
5
39
2
10
62.123010
20
389.408648
11
61.943751
21
388.924370
0
LINE
8
boundary
62
5
39
2
10
61.943751
20
388.924370
11
61.669967
21
388.352609
0
LINE
8
boundary
62
5
39
2
10
61.669967
20
388.352609
11
61.413623
21
387.911975
0
LINE
8
boundary
62
5
39
2
10
61.413623
20
387.911975
11
61.040231
21
387.399887
0
LINE
8
boundary
62
5
39
2
10
61.040231
20
387.399887
11
60.697242
21
387.007923
0
LINE
8
boundary
62
5
39
2
10
60.697242
20
387.007923
11
60.213920
21
386.561854
0
LINE
8
boundary
62
5
39
2
10
60.213920
20
386.561854
11
59.774362
21
386.223577
0
LINE
8
boundary
62
5
39
2
10
59.774362
20
386.223577
11
59.170533
21
385.849400
0
LINE
8
boundary
62
5
39
2
10
59.170533
20
385.849400
11
58.624226
21
385.570163
0
LINE
8
boundary
62
5
39
2
10
58.624226
20
385.570163
11
57.889759
21
385.273845
0
LINE
8
boundary
62
5
39
2
10
57.889759
20
385.273845
11
57.406514
21
385.114290
0
LINE
8
boundary
62
5
39
2
10
57.406514
20
385.114290
11
56.893810
21
384.971631
0
LINE
8
boundary
62
5
39
2
10
56.893810
20
384.971631
11
56.350889
21
384.846228
0
LINE
8
boundary
62
5
39
2
10
56.350889
20
384.846228
11
55.777042
21
384.738519
0
LINE
8
boundary
62
5
39
2
10
55.777042
20
384.738519
11
55.171441
21
384.648894
0
LINE
8
boundary
62
5
39
2
10
55.171441
20
384.648894
11
54.533294
21
384.577775
0
LINE
8
boundary
62
5
39
2
10
54.533294
20
384.577775
11
53.861862
21
384.525558
0
LINE
8
boundary
62
5
39
2
10
53.861862
20
384.525558
11
53.156377
21
384.492705
0
LINE
8
boundary
62
5
39
2
10
53.156377
20
384.492705
11
52.416097
21
384.479570
0
LINE
8
boundary
62
5
39
2
10
52.416097
20
384.479570
11
51.640262
21
384.486669
0
LINE
8
boundary
62
5
39
2
10
51.640262
20
384.486669
11
50.828044
21
384.514324
0
LINE
8
boundary
62
5
39
2
10
50.828044
20
384.514324
11
49.978699
21
384.562935
0
LINE
8
boundary
62
5
39
2
10
49.978699
20
384.562935
11
49.091609
21
384.632931
0
LINE
8
boundary
62
5
39
2
10
49.091609
20
384.632931
11
47.736904
21
385.030006
0
LINE
8
boundary
62
5
39
2
10
47.736904
20
385.030006
11
47.063872
21
385.274233
0
LINE
8
boundary
62
5
39
2
10
47.063872
20
385.274233
11
46.107905
21
385.617253
0
LINE
8
boundary
62
5
39
2
10
46.107905
20
385.617253
11
45.441586
21
385.852722
0
LINE
8
boundary
62
5
39
2
10
45.441586
20
385.852722
11
44.516022
21
386.173969
0
LINE
8
boundary
62
5
39
2
10
44.516022
20
386.173969
11
43.853734
21
386.400542
0
LINE
8
boundary
62
5
39
2
10
43.853734
20
386.400542
11
42.953529
21
386.700647
0
LINE
8
boundary
62
5
39
2
10
42.953529
20
386.700647
11
42.292244
21
386.918167
0
LINE
8
boundary
62
5
39
2
10
42.292244
20
386.918167
11
41.412648
21
387.197803
0
LINE
8
boundary
62
5
39
2
10
41.412648
20
387.197803
11
40.749181
21
387.406056
0
LINE
8
boundary
62
5
39
2
10
40.749181
20
387.406056
11
39.885594
21
387.665879
0
LINE
8
boundary
62
5
39
2
10
39.885594
20
387.665879
11
39.216378
21
387.864800
0
LINE
8
boundary
62
5
39
2
10
39.216378
20
387.864800
11
38.364409
21
388.105518
0
LINE
8
boundary
62
5
39
2
10
38.364409
20
388.105518
11
37.685833
21
388.295059
0
LINE
8
boundary
62
5
39
2
10
37.685833
20
388.295059
11
36.841306
21
388.517099
0
LINE
8
boundary
62
5
39
2
10
36.841306
20
388.517099
11
36.149256
21
388.697159
0
LINE
8
boundary
62
5
39
2
10
36.149256
20
388.697159
11
35.308233
21
388.901224
0
LINE
8
boundary
62
5
39
2
10
35.308233
20
388.901224
11
34.598394
21
389.071823
0
LINE
8
boundary
62
5
39
2
10
34.598394
20
389.071823
11
33.757264
21
389.258472
0
LINE
8
boundary
62
5
39
2
10
33.757264
20
389.258472
11
33.025019
21
389.419484
0
LINE
8
boundary
62
5
39
2
10
33.025019
20
389.419484
11
32.180484
21
389.589258
0
LINE
8
boundary
62
5
39
2
10
32.180484
20
389.589258
11
31.420821
21
389.740767
0
LINE
8
boundary
62
5
39
2
10
31.420821
20
389.740767
11
30.569960
21
389.894276
0
LINE
8
boundary
62
5
39
2
10
30.569960
20
389.894276
11
29.777418
21
390.036168
0
LINE
8
boundary
62
5
39
2
10
29.777418
20
390.036168
11
28.917755
21
390.173958
0
LINE
8
boundary
62
5
39
2
10
28.917755
20
390.173958
11
28.086403
21
390.306336
0
LINE
8
boundary
62
5
39
2
10
28.086403
20
390.306336
11
27.215960
21
390.428965
0
LINE
8
boundary
62
5
39
2
10
27.215960
20
390.428965
11
26.339251
21
390.551766
0
LINE
8
boundary
62
5
39
2
10
26.339251
20
390.551766
11
25.456775
21
390.659765
0
LINE
8
boundary
62
5
39
2
10
25.456775
20
390.659765
11
24.527479
21
390.772918
0
LINE
8
boundary
62
5
39
2
10
24.527479
20
390.772918
11
23.632428
21
390.866903
0
LINE
8
boundary
62
5
39
2
10
23.632428
20
390.866903
11
22.642424
21
390.970432
0
LINE
8
boundary
62
5
39
2
10
22.642424
20
390.970432
11
22.982384
21
382.660411
0
LINE
8
boundary
62
5
39
2
10
22.982384
20
382.660411
11
23.441356
21
371.934543
0
LINE
8
boundary
62
5
39
2
10
23.441356
20
371.934543
11
27.656649
21
359.650083
0
LINE
8
boundary
62
5
39
2
10
27.656649
20
359.650083
11
28.618809
21
356.875195
0
LINE
8
boundary
62
5
39
2
10
28.618809
20
356.875195
11
38.001324
21
356.725196
0
LINE
8
boundary
62
5
39
2
10
38.001324
20
356.725196
11
38.001323
21
353.979196
0
LINE
8
boundary
62
5
39
2
10
38.001323
20
353.979196
11
29.685273
21
353.979196
0
LINE
8
boundary
62
5
39
2
10
29.685273
20
353.979196
11
36.177629
21
335.075399
0
LINE
8
boundary
62
5
39
2
10
36.177629
20
335.075399
11
36.459719
21
334.332418
0
LINE
8
boundary
62
5
39
2
10
36.459719
20
334.332418
11
37.010968
21
332.894773
0
LINE
8
boundary
62
5
39
2
10
37.010968
20
332.894773
11
37.278582
21
332.154261
0
LINE
8
boundary
62
5
39
2
10
37.278582
20
332.154261
11
37.807397
21
330.705472
0
LINE
8
boundary
62
5
39
2
10
37.807397
20
330.705472
11
38.060563
21
329.968355
0
LINE
8
boundary
62
5
39
2
10
38.060563
20
329.968355
11
38.567031
21
328.507610
0
LINE
8
boundary
62
5
39
2
10
38.567031
20
328.507610
11
38.805616
21
327.774718
0
LINE
8
boundary
62
5
39
2
10
38.805616
20
327.774718
11
39.289624
21
326.301515
0
LINE
8
boundary
62
5
39
2
10
39.289624
20
326.301515
11
39.513794
21
325.573603
0
LINE
8
boundary
62
5
39
2
10
39.513794
20
325.573603
11
39.975605
21
324.087090
0
LINE
8
boundary
62
5
39
2
10
39.975605
20
324.087090
11
40.185385
21
323.365016
0
LINE
8
boundary
62
5
39
2
10
40.185385
20
323.365016
11
40.624873
21
321.864606
0
LINE
8
boundary
62
5
39
2
10
40.624873
20
321.864606
11
40.820406
21
321.149097
0
LINE
8
boundary
62
5
39
2
10
40.820406
20
321.149097
11
41.237575
21
319.634187
0
LINE
8
boundary
62
5
39
2
10
41.237575
20
319.634187
11
41.418986
21
318.926030
0
LINE
8
boundary
62
5
39
2
10
41.418986
20
318.926030
11
41.813623
21
317.395991
0
LINE
8
boundary
62
5
39
2
10
41.813623
20
317.395991
11
41.981142
21
316.695875
0
LINE
8
boundary
62
5
39
2
10
41.981142
20
316.695875
11
42.353189
21
315.150057
0
LINE
8
boundary
62
5
39
2
10
42.353189
20
315.150057
11
42.507062
21
314.458759
0
LINE
8
boundary
62
5
39
2
10
42.507062
20
314.458759
11
42.856387
21
312.896606
0
LINE
8
boundary
62
5
39
2
10
42.856387
20
312.896606
11
42.996823
21
312.214751
0
LINE
8
boundary
62
5
39
2
10
42.996823
20
312.214751
11
43.323196
21
310.635695
0
LINE
8
boundary
62
5
39
2
10
43.323196
20
310.635695
11
43.450498
21
309.964021
0
LINE
8
boundary
62
5
39
2
10
43.450498
20
309.964021
11
43.753627
21
308.367577
0
LINE
8
boundary
62
5
39
2
10
43.753627
20
308.367577
11
43.868134
21
307.706760
0
LINE
8
boundary
62
5
39
2
10
43.868134
20
307.706760
11
44.147873
21
306.092321
0
LINE
8
boundary
62
5
39
2
10
44.147873
20
306.092321
11
44.249926
21
305.442989
0
LINE
8
boundary
62
5
39
2
10
44.249926
20
305.442989
11
44.505949
21
303.810075
0
LINE
8
boundary
62
5
39
2
10
44.505949
20
303.810075
11
44.595908
21
303.172873
0
LINE
8
boundary
62
5
39
2
10
44.595908
20
303.172873
11
44.827903
21
301.520991
0
LINE
8
boundary
62
5
39
2
10
44.827903
20
301.520991
11
44.906147
21
300.896581
0
LINE
8
boundary
62
5
39
2
10
44.906147
20
300.896581
11
45.113702
21
299.225276
0
LINE
8
boundary
62
5
39
2
10
45.113702
20
299.225276
11
45.180693
21
298.614276
0
LINE
8
boundary
62
5
39
2
10
45.180693
20
298.614276
11
45.363638
21
296.923032
0
LINE
8
boundary
62
5
39
2
10
45.363638
20
296.923032
11
45.419788
21
296.325967
0
LINE
8
boundary
62
5
39
2
10
45.419788
20
296.325967
11
45.577575
21
294.614400
0
LINE
8
boundary
62
5
39
2
10
45.577575
20
294.614400
11
45.623362
21
294.031953
0
LINE
8
boundary
62
5
39
2
10
45.623362
20
294.031953
11
45.755697
21
292.299687
0
LINE
8
boundary
62
5
39
2
10
45.755697
20
292.299687
11
45.791598
21
291.732350
0
LINE
8
boundary
62
5
39
2
10
45.791598
20
291.732350
11
45.898101
21
289.978829
0
LINE
8
boundary
62
5
39
2
10
45.898101
20
289.978829
11
45.924622
21
289.427227
0
LINE
8
boundary
62
5
39
2
10
45.924622
20
289.427227
11
46.004845
21
287.652221
0
LINE
8
boundary
62
5
39
2
10
46.004845
20
287.652221
11
46.022524
21
287.116861
0
LINE
8
boundary
62
5
39
2
10
46.022524
20
287.116861
11
46.076016
21
285.319938
0
LINE
8
boundary
62
5
39
2
10
46.076016
20
285.319938
11
46.085369
21
284.801373
0
LINE
8
boundary
62
5
39
2
10
46.085369
20
284.801373
11
46.111688
21
282.982246
0
LINE
8
boundary
62
5
39
2
10
46.111688
20
282.982246
11
46.112058
21
280.639226
0
LINE
8
boundary
62
5
39
2
10
46.112058
20
280.639226
11
46.077212
21
278.291239
0
LINE
8
boundary
62
5
39
2
10
46.077212
20
278.291239
11
46.007412
21
275.938287
0
LINE
8
boundary
62
5
39
2
10
46.007412
20
275.938287
11
45.902587
21
273.580832
0
LINE
8
boundary
62
5
39
2
10
45.902587
20
273.580832
11
45.763104
21
271.218951
0
LINE
8
boundary
62
5
39
2
10
45.763104
20
271.218951
11
45.589040
21
268.852873
0
LINE
8
boundary
62
5
39
2
10
45.589040
20
268.852873
11
45.380688
21
266.482969
0
LINE
8
boundary
62
5
39
2
10
45.380688
20
266.482969
11
45.138133
21
264.109339
0
LINE
8
boundary
62
5
39
2
10
45.138133
20
264.109339
11
44.861775
21
261.732337
0
LINE
8
boundary
62
5
39
2
10
44.861775
20
261.732337
11
44.551748
21
259.352285
0
LINE
8
boundary
62
5
39
2
10
44.551748
20
259.352285
11
44.208435
21
256.969388
0
LINE
8
boundary
62
5
39
2
10
44.208435
20
256.969388
11
43.831980
21
254.583966
0
LINE
8
boundary
62
5
39
2
10
43.831980
20
254.583966
11
43.422689
21
252.196339
0
LINE
8
boundary
62
5
39
2
10
43.422689
20
252.196339
11
42.981092
21
249.806824
0
LINE
8
boundary
62
5
39
2
10
42.981092
20
249.806824
11
42.507505
21
247.415788
0
LINE
8
boundary
62
5
39
2
10
42.507505
20
247.415788
11
42.002289
21
245.023494
0
LINE
8
boundary
62
5
39
2
10
42.002289
20
245.023494
11
41.465727
21
242.630382
0
LINE
8
boundary
62
5
39
2
10
41.465727
20
242.630382
11
40.898366
21
240.236786
0
LINE
8
boundary
62
5
39
2
10
40.898366
20
240.236786
11
40.300704
21
237.843107
0
LINE
8
boundary
62
5
39
2
10
40.300704
20
237.843107
11
39.673180
21
235.449696
0
LINE
8
boundary
62
5
39
2
10
39.673180
20
235.449696
11
39.016299
21
233.056959
0
LINE
8
boundary
62
5
39
2
10
39.016299
20
233.056959
11
38.330609
21
230.665413
0
LINE
8
boundary
62
5
39
2
10
38.330609
20
230.665413
11
38.068151
21
229.786702
0
LINE
8
boundary
62
5
39
2
10
38.068151
20
229.786702
11
37.601717
21
228.292446
0
LINE
8
boundary
62
5
39
2
10
37.601717
20
228.292446
11
36.837382
21
225.931705
0
LINE
8
boundary
62
5
39
2
10
36.837382
20
225.931705
11
36.047042
21
223.573717
0
LINE
8
boundary
62
5
39
2
10
36.047042
20
223.573717
11
35.231520
21
221.219076
0
LINE
8
boundary
62
5
39
2
10
35.231520
20
221.219076
11
34.391307
21
218.868298
0
LINE
8
boundary
62
5
39
2
10
34.391307
20
218.868298
11
33.527158
21
216.521759
0
LINE
8
boundary
62
5
39
2
10
33.527158
20
216.521759
11
32.639898
21
214.180082
0
LINE
8
boundary
62
5
39
2
10
32.639898
20
214.180082
11
31.730105
21
211.843866
0
LINE
8
boundary
62
5
39
2
10
31.730105
20
211.843866
11
30.798655
21
209.513461
0
LINE
8
boundary
62
5
39
2
10
30.798655
20
209.513461
11
29.846461
21
207.189629
0
LINE
8
boundary
62
5
39
2
10
29.846461
20
207.189629
11
28.874302
21
204.872856
0
LINE
8
boundary
62
5
39
2
10
28.874302
20
204.872856
11
27.883002
21
202.563777
0
LINE
8
boundary
62
5
39
2
10
27.883002
20
202.563777
11
26.873428
21
200.262982
0
LINE
8
boundary
62
5
39
2
10
26.873428
20
200.262982
11
24.985047
21
196.088383
0
LINE
8
boundary
62
5
39
2
10
24.985047
20
196.088383
11
24.606058
21
195.264319
0
LINE
8
boundary
62
5
39
2
10
24.606058
20
195.264319
11
22.889023
21
191.616845
0
LINE
8
boundary
62
5
39
2
10
22.889023
20
191.616845
11
22.434105
21
190.663803
0
LINE
8
boundary
62
5
39
2
10
22.434105
20
190.663803
11
20.742067
21
187.194054
0
LINE
8
boundary
62
5
39
2
10
20.742067
20
187.194054
11
20.204719
21
186.106100
0
LINE
8
boundary
62
5
39
2
10
20.204719
20
186.106100
11
19.176231
21
182.564864
0
LINE
8
boundary
62
5
39
2
10
19.176231
20
182.564864
11
18.803641
21
181.294671
0
LINE
8
boundary
62
5
39
2
10
18.803641
20
181.294671
11
17.775318
21
177.714849
0
LINE
8
boundary
62
5
39
2
10
17.775318
20
177.714849
11
17.368922
21
176.312416
0
LINE
8
boundary
62
5
39
2
10
17.368922
20
176.312416
11
16.862216
21
174.515125
0
LINE
8
boundary
62
5
39
2
10
16.862216
20
174.515125
11
16.647619
21
173.759879
0
LINE
8
boundary
62
5
39
2
10
16.647619
20
173.759879
11
16.148390
21
171.956397
0
LINE
8
boundary
62
5
39
2
10
16.148390
20
171.956397
11
15.928514
21
171.167634
0
LINE
8
boundary
62
5
39
2
10
15.928514
20
171.167634
11
15.438987
21
169.358310
0
LINE
8
boundary
62
5
39
2
10
15.438987
20
169.358310
11
15.215243
21
168.536692
0
LINE
8
boundary
62
5
39
2
10
15.215243
20
168.536692
11
14.737444
21
166.721517
0
LINE
8
boundary
62
5
39
2
10
14.737444
20
166.721517
11
14.511544
21
165.868129
0
LINE
8
boundary
62
5
39
2
10
14.511544
20
165.868129
11
14.047448
21
164.046491
0
LINE
8
boundary
62
5
39
2
10
14.047448
20
164.046491
11
13.821151
21
163.162800
0
LINE
8
boundary
62
5
39
2
10
13.821151
20
163.162800
11
13.372454
21
161.333757
0
LINE
8
boundary
62
5
39
2
10
13.372454
20
161.333757
11
13.147778
21
160.421683
0
LINE
8
boundary
62
5
39
2
10
13.147778
20
160.421683
11
12.716281
21
158.583837
0
LINE
8
boundary
62
5
39
2
10
12.716281
20
158.583837
11
12.495298
21
157.645808
0
LINE
8
boundary
62
5
39
2
10
12.495298
20
157.645808
11
12.082657
21
155.796981
0
LINE
8
boundary
62
5
39
2
10
12.082657
20
155.796981
11
11.867626
21
154.835980
0
LINE
8
boundary
62
5
39
2
10
11.867626
20
154.835980
11
11.475402
21
152.973596
0
LINE
8
boundary
62
5
39
2
10
11.475402
20
152.973596
11
11.268606
21
151.993164
0
LINE
8
boundary
62
5
39
2
10
11.268606
20
151.993164
11
10.898335
21
150.113892
0
LINE
8
boundary
62
5
39
2
10
10.898335
20
150.113892
11
10.702100
21
149.118246
0
LINE
8
boundary
62
5
39
2
10
10.702100
20
149.118246
11
10.355617
21
147.218103
0
LINE
8
boundary
62
5
39
2
10
10.355617
20
147.218103
11
10.172367
21
146.212094
0
LINE
8
boundary
62
5
39
2
10
10.172367
20
146.212094
11
9.851237
21
144.286410
0
LINE
8
boundary
62
5
39
2
10
9.851237
20
144.286410
11
9.683121
21
143.275620
0
LINE
8
boundary
62
5
39
2
10
9.683121
20
143.275620
11
9.389367
21
141.318996
0
LINE
8
boundary
62
5
39
2
10
9.389367
20
141.318996
11
9.238519
21
140.309656
0
LINE
8
boundary
62
5
39
2
10
9.238519
20
140.309656
11
8.974238
21
138.315880
0
LINE
8
boundary
62
5
39
2
10
8.974238
20
138.315880
11
8.842482
21
137.314973
0
LINE
8
boundary
62
5
39
2
10
8.842482
20
137.314973
11
8.610206
21
135.277271
0
LINE
8
boundary
62
5
39
2
10
8.610206
20
135.277271
11
8.499110
21
134.292471
0
LINE
8
boundary
62
5
39
2
10
8.499110
20
134.292471
11
8.396171
21
133.257227
0
LINE
8
boundary
62
5
39
2
10
8.396171
20
133.257227
11
8.254584
21
131.722071
0
LINE
8
boundary
62
5
39
2
10
8.254584
20
131.722071
11
8.128151
21
130.179207
0
LINE
8
boundary
62
5
39
2
10
8.128151
20
130.179207
11
8.017407
21
128.628746
0
LINE
8
boundary
62
5
39
2
10
8.017407
20
128.628746
11
7.922883
21
127.070848
0
LINE
8
boundary
62
5
39
2
10
7.922883
20
127.070848
11
7.845196
21
125.505486
0
LINE
8
boundary
62
5
39
2
10
7.845196
20
125.505486
11
7.784856
21
123.932759
0
LINE
8
boundary
62
5
39
2
10
7.784856
20
123.932759
11
7.742353
21
122.352752
0
LINE
8
boundary
62
5
39
2
10
7.742353
20
122.352752
11
7.718294
21
120.765656
0
LINE
8
boundary
62
5
39
2
10
7.718294
20
120.765656
11
7.713087
21
119.171413
0
LINE
8
boundary
62
5
39
2
10
7.713087
20
119.171413
11
7.727523
21
117.570261
0
LINE
8
boundary
62
5
39
2
10
7.727523
20
117.570261
11
7.762092
21
115.962301
0
LINE
8
boundary
62
5
39
2
10
7.762092
20
115.962301
11
7.817311
21
114.347591
0
LINE
8
boundary
62
5
39
2
10
7.817311
20
114.347591
11
7.893735
21
112.726266
0
LINE
8
boundary
62
5
39
2
10
7.893735
20
112.726266
11
7.991894
21
111.098495
0
LINE
8
boundary
62
5
39
2
10
7.991894
20
111.098495
11
8.112314
21
109.464434
0
LINE
8
boundary
62
5
39
2
10
8.112314
20
109.464434
11
8.255720
21
107.824228
0
LINE
8
boundary
62
5
39
2
10
8.255720
20
107.824228
11
8.422429
21
106.178015
0
LINE
8
boundary
62
5
39
2
10
8.422429
20
106.178015
11
8.613042
21
104.526010
0
LINE
8
boundary
62
5
39
2
10
8.613042
20
104.526010
11
8.828164
21
102.868396
0
LINE
8
boundary
62
5
39
2
10
8.828164
20
102.868396
11
9.068271
21
101.205282
0
LINE
8
boundary
62
5
39
2
10
9.068271
20
101.205282
11
9.334008
21
99.536911
0
LINE
8
boundary
62
5
39
2
10
9.334008
20
99.536911
11
9.625734
21
97.863573
0
LINE
8
boundary
62
5
39
2
10
9.625734
20
97.863573
11
9.943945
21
96.185381
0
LINE
8
boundary
62
5
39
2
10
9.943945
20
96.185381
11
10.175793
21
95.054992
0
LINE
8
boundary
62
5
39
2
10
10.175793
20
95.054992
11
10.276045
21
94.514670
0
LINE
8
boundary
62
5
39
2
10
10.276045
20
94.514670
11
10.606768
21
92.865308
0
LINE
8
boundary
62
5
39
2
10
10.606768
20
92.865308
11
11.143220
21
88.061532
0
LINE
8
boundary
62
5
39
2
10
11.143220
20
88.061532
11
11.696510
21
82.971989
0
LINE
8
boundary
62
5
39
2
10
11.696510
20
82.971989
11
11.994139
21
80.331542
0
LINE
8
boundary
62
5
39
2
10
11.994139
20
80.331542
11
12.313601
21
77.633631
0
LINE
8
boundary
62
5
39
2
10
12.313601
20
77.633631
11
12.660755
21
74.883108
0
LINE
8
boundary
62
5
39
2
10
12.660755
20
74.883108
11
12.737546
21
74.304017
0
LINE
8
boundary
62
5
39
2
10
12.737546
20
74.304017
11
13.041566
21
72.084865
0
LINE
8
boundary
62
5
39
2
10
13.041566
20
72.084865
11
13.138038
21
71.416843
0
LINE
8
boundary
62
5
39
2
10
13.138038
20
71.416843
11
13.461792
21
69.243964
0
LINE
8
boundary
62
5
39
2
10
13.461792
20
69.243964
11
13.581966
21
68.484493
0
LINE
8
boundary
62
5
39
2
10
13.581966
20
68.484493
11
13.927373
21
66.365603
0
LINE
8
boundary
62
5
39
2
10
13.927373
20
66.365603
11
14.075740
21
65.512801
0
LINE
8
boundary
62
5
39
2
10
14.075740
20
65.512801
11
14.444177
21
63.455171
0
LINE
8
boundary
62
5
39
2
10
14.444177
20
63.455171
11
14.723667
21
61.989616
0
LINE
8
boundary
62
5
39
2
10
14.723667
20
61.989616
11
15.018211
21
60.518060
0
LINE
8
boundary
62
5
39
2
10
15.018211
20
60.518060
11
15.124816
21
60.001668
0
LINE
8
boundary
62
5
39
2
10
15.124816
20
60.001668
11
15.328501
21
59.041329
0
LINE
8
boundary
62
5
39
2
10
15.328501
20
59.041329
11
15.445590
21
58.501337
0
LINE
8
boundary
62
5
39
2
10
15.445590
20
58.501337
11
15.655149
21
57.560119
0
LINE
8
boundary
62
5
39
2
10
15.655149
20
57.560119
11
15.783539
21
56.996621
0
LINE
8
boundary
62
5
39
2
10
15.783539
20
56.996621
11
15.998995
21
56.075137
0
LINE
8
boundary
62
5
39
2
10
15.998995
20
56.075137
11
16.139545
21
55.488323
0
LINE
8
boundary
62
5
39
2
10
16.139545
20
55.488323
11
16.360883
21
54.587187
0
LINE
8
boundary
62
5
39
2
10
16.360883
20
54.587187
11
16.514353
21
53.977242
0
LINE
8
boundary
62
5
39
2
10
16.514353
20
53.977242
11
16.741386
21
53.097000
0
LINE
8
boundary
62
5
39
2
10
16.741386
20
53.097000
11
16.908678
21
52.464281
0
LINE
8
boundary
62
5
39
2
10
16.908678
20
52.464281
11
17.141343
21
51.605499
0
LINE
8
boundary
62
5
39
2
10
17.141343
20
51.605499
11
17.323285
21
50.950264
0
LINE
8
boundary
62
5
39
2
10
17.323285
20
50.950264
11
17.561294
21
50.113308
0
LINE
8
boundary
62
5
39
2
10
17.561294
20
50.113308
11
17.758891
21
49.436042
0
LINE
8
boundary
62
5
39
2
10
17.758891
20
49.436042
11
18.002183
21
48.621369
0
LINE
8
boundary
62
5
39
2
10
18.002183
20
48.621369
11
18.216271
21
47.922595
0
LINE
8
boundary
62
5
39
2
10
18.216271
20
47.922595
11
18.464555
21
47.130565
0
LINE
8
boundary
62
5
39
2
10
18.464555
20
47.130565
11
18.696193
21
46.410809
0
LINE
8
boundary
62
5
39
2
10
18.696193
20
46.410809
11
18.949361
21
45.641717
0
LINE
8
boundary
62
5
39
2
10
18.949361
20
45.641717
11
19.199475
21
44.901607
0
LINE
8
boundary
62
5
39
2
10
19.199475
20
44.901607
11
19.457139
21
44.155713
0
LINE
8
boundary
62
5
39
2
10
19.457139
20
44.155713
11
19.726644
21
43.396029
0
LINE
8
boundary
62
5
39
2
10
19.726644
20
43.396029
11
19.988523
21
42.673565
0
LINE
8
boundary
62
5
39
2
10
19.988523
20
42.673565
11
20.278567
21
41.895022
0
LINE
8
boundary
62
5
39
2
10
20.278567
20
41.895022
11
20.544542
21
41.196050
0
LINE
8
boundary
62
5
39
2
10
20.544542
20
41.196050
11
20.856022
21
40.399569
0
LINE
8
boundary
62
5
39
2
10
20.856022
20
40.399569
11
21.125645
21
39.724280
0
LINE
8
boundary
62
5
39
2
10
21.125645
20
39.724280
11
21.459742
21
38.910817
0
LINE
8
boundary
62
5
39
2
10
21.459742
20
38.910817
11
21.732815
21
38.259250
0
LINE
8
boundary
62
5
39
2
10
21.732815
20
38.259250
11
22.090398
21
37.429834
0
LINE
8
boundary
62
5
39
2
10
22.090398
20
37.429834
11
22.366539
21
36.801938
0
LINE
8
boundary
62
5
39
2
10
22.366539
20
36.801938
11
22.748678
21
35.957617
0
LINE
8
boundary
62
5
39
2
10
22.748678
20
35.957617
11
23.027519
21
35.353369
0
LINE
8
boundary
62
5
39
2
10
23.027519
20
35.353369
11
23.435411
21
34.495408
0
LINE
8
boundary
62
5
39
2
10
23.435411
20
34.495408
11
23.716766
21
33.914728
0
LINE
8
boundary
62
5
39
2
10
23.716766
20
33.914728
11
24.151348
21
33.044388
0
LINE
8
boundary
62
5
39
2
10
24.151348
20
33.044388
11
24.434777
21
32.487104
0
LINE
8
boundary
62
5
39
2
10
24.434777
20
32.487104
11
24.897026
21
31.605709
0
LINE
8
boundary
62
5
39
2
10
24.897026
20
31.605709
11
25.182181
21
31.071668
0
LINE
8
boundary
62
5
39
2
10
25.182181
20
31.071668
11
25.673197
21
30.180670
0
LINE
8
boundary
62
5
39
2
10
25.673197
20
30.180670
11
25.959844
21
29.669599
0
LINE
8
boundary
62
5
39
2
10
25.959844
20
29.669599
11
26.480866
21
28.770453
0
LINE
8
boundary
62
5
39
2
10
26.480866
20
28.770453
11
26.768664
21
28.282063
0
LINE
8
boundary
62
5
39
2
10
26.768664
20
28.282063
11
27.320402
21
27.376432
0
LINE
8
boundary
62
5
39
2
10
27.320402
20
27.376432
11
27.608992
21
26.910441
0
LINE
8
boundary
62
5
39
2
10
27.608992
20
26.910441
11
28.192670
21
25.999995
0
LINE
8
boundary
62
5
39
2
10
28.192670
20
25.999995
11
28.481794
21
25.556044
0
LINE
8
boundary
62
5
39
2
10
28.481794
20
25.556044
11
29.098451
21
24.642489
0
LINE
8
boundary
62
5
39
2
10
29.098451
20
24.642489
11
29.387869
21
24.220153
0
LINE
8
boundary
62
5
39
2
10
29.387869
20
24.220153
11
30.038348
21
23.305322
0
LINE
8
boundary
62
5
39
2
10
30.038348
20
23.305322
11
31.012979
21
21.989977
0
LINE
8
boundary
62
5
39
2
10
31.012979
20
21.989977
11
32.023252
21
20.697972
0
LINE
8
boundary
62
5
39
2
10
32.023252
20
20.697972
11
33.069714
21
19.430930
0
LINE
8
boundary
62
5
39
2
10
33.069714
20
19.430930
11
34.153137
21
18.190491
0
LINE
8
boundary
62
5
39
2
10
34.153137
20
18.190491
11
35.274184
21
16.978229
0
LINE
8
boundary
62
5
39
2
10
35.274184
20
16.978229
11
36.433590
21
15.795849
0
LINE
8
boundary
62
5
39
2
10
36.433590
20
15.795849
11
37.632097
21
14.645112
0
LINE
8
boundary
62
5
39
2
10
37.632097
20
14.645112
11
38.870179
21
13.527868
0
LINE
8
boundary
62
5
39
2
10
38.870179
20
13.527868
11
40.148687
21
12.445954
0
LINE
8
boundary
62
5
39
2
10
40.148687
20
12.445954
11
41.468224
21
11.401322
0
LINE
8
boundary
62
5
39
2
10
41.468224
20
11.401322
11
42.829481
21
10.395846
0
LINE
8
boundary
62
5
39
2
10
42.829481
20
10.395846
11
44.233144
21
9.431570
0
LINE
8
boundary
62
5
39
2
10
44.233144
20
9.431570
11
45.679867
21
8.510568
0
LINE
8
boundary
62
5
39
2
10
45.679867
20
8.510568
11
47.170303
21
7.634886
0
LINE
8
boundary
62
5
39
2
10
47.170303
20
7.634886
11
47.595109
21
7.348230
0
LINE
8
boundary
62
5
39
2
10
47.595109
20
7.348230
11
48.107692
21
7.050119
0
LINE
8
boundary
62
5
39
2
10
48.107692
20
7.050119
11
48.989299
21
6.783042
0
LINE
8
boundary
62
5
39
2
10
48.989299
20
6.783042
11
49.521078
21
6.705780
0
LINE
8
boundary
62
5
39
2
10
49.521078
20
6.705780
11
50.094357
21
6.673486
0
LINE
8
boundary
62
5
39
2
10
50.094357
20
6.673486
11
50.702898
21
6.686973
0
LINE
8
boundary
62
5
39
2
10
50.702898
20
6.686973
11
51.340575
21
6.746917
0
LINE
8
boundary
62
5
39
2
10
51.340575
20
6.746917
11
52.001281
21
6.853950
0
LINE
8
boundary
62
5
39
2
10
52.001281
20
6.853950
11
52.678771
21
7.008557
0
LINE
8
boundary
62
5
39
2
10
52.678771
20
7.008557
11
53.367058
21
7.211186
0
LINE
8
boundary
62
5
39
2
10
53.367058
20
7.211186
11
54.059976
21
7.462264
0
LINE
8
boundary
62
5
39
2
10
54.059976
20
7.462264
11
54.751566
21
7.762026
0
LINE
8
boundary
62
5
39
2
10
54.751566
20
7.762026
11
55.435569
21
8.110648
0
LINE
8
boundary
62
5
39
2
10
55.435569
20
8.110648
11
56.106206
21
8.508271
0
LINE
8
boundary
62
5
39
2
10
56.106206
20
8.508271
11
56.757412
21
8.954838
0
LINE
8
boundary
62
5
39
2
10
56.757412
20
8.954838
11
57.192026
21
9.282677
0
LINE
8
boundary
62
5
39
2
10
57.192026
20
9.282677
11
57.442043
21
9.495028
0
LINE
8
annotation
62
1
39
211
10
44.400503
20
353.048047
11
44.400503
21
357.656344
0
LINE
8
annotation
62
1
39
211
10
44.400503
20
357.656344
11
43.376019
21
356.631572
0
LINE
8
annotation
62
1
39
211
10
38.166046
20
436.359698
11
36.208418
21
436.359698
0
LINE
8
annotation
62
1
39
211
10
36.208418
20
436.359698
11
38.017330
21
439.271815
0
LINE
8
annotation
62
1
39
211
10
38.017330
20
439.271815
11
38.017330
21
439.271815
0
LINE
8
annotation
62
1
39
211
10
38.017330
20
439.271815
11
38.019493
21
439.274491
0
LINE
8
annotation
62
1
39
211
10
38.019493
20
439.274491
11
38.021567
21
439.277190
0
LINE
8
annotation
62
1
39
211
10
38.021567
20
439.277190
11
38.023565
21
439.279934
0
LINE
8
annotation
62
1
39
211
10
38.023565
20
439.279934
11
38.025503
21
439.282746
0
LINE
8
annotation
62
1
39
211
10
38.025503
20
439.282746
11
38.027392
21
439.285649
0
LINE
8
annotation
62
1
39
211
10
38.027392
20
439.285649
11
38.029247
21
439.288667
0
LINE
8
annotation
62
1
39
211
10
38.029247
20
439.288667
11
38.031082
21
439.291820
0
LINE
8
annotation
62
1
39
211
10
38.031082
20
439.291820
11
38.032910
21
439.295133
0
LINE
8
annotation
62
1
39
211
10
38.032910
20
439.295133
11
38.034745
21
439.298628
0
LINE
8
annotation
62
1
39
211
10
38.034745
20
439.298628
11
38.034745
21
439.298628
0
LINE
8
annotation
62
1
39
211
10
38.034745
20
439.298628
11
38.109435
21
439.458993
0
LINE
8
annotation
62
1
39
211
10
38.109435
20
439.458993
11
38.153067
21
439.625225
0
LINE
8
annotation
62
1
39
211
10
38.153067
20
439.625225
11
38.166712
21
439.793569
0
LINE
8
annotation
62
1
39
211
10
38.166712
20
439.793569
11
38.151437
21
439.960267
0
LINE
8
annotation
62
1
39
211
10
38.151437
20
439.960267
11
38.108314
21
440.121565
0
LINE
8
annotation
62
1
39
211
10
38.108314
20
440.121565
11
38.038410
21
440.273705
0
LINE
8
annotation
62
1
39
211
10
38.038410
20
440.273705
11
37.942796
21
440.412932
0
LINE
8
annotation
62
1
39
211
10
37.942796
20
440.412932
11
37.822540
21
440.535490
0
LINE
8
annotation
62
1
39
211
10
37.822540
20
440.535490
11
37.678712
21
440.637621
0
LINE
8
annotation
62
1
39
211
10
37.678712
20
440.637621
11
37.678712
21
440.637621
0
LINE
8
annotation
62
1
39
211
10
37.678712
20
440.637621
11
37.517901
21
440.711250
0
LINE
8
annotation
62
1
39
211
10
37.517901
20
440.711250
11
37.351414
21
440.754210
0
LINE
8
annotation
62
1
39
211
10
37.351414
20
440.754210
11
37.182973
21
440.767469
0
LINE
8
annotation
62
1
39
211
10
37.182973
20
440.767469
11
37.016299
21
440.751993
0
LINE
8
annotation
62
1
39
211
10
37.016299
20
440.751993
11
36.855116
21
440.708750
0
LINE
8
annotation
62
1
39
211
10
36.855116
20
440.708750
11
36.703144
21
440.638707
0
LINE
8
annotation
62
1
39
211
10
36.703144
20
440.638707
11
36.564105
21
440.542829
0
LINE
8
annotation
62
1
39
211
10
36.564105
20
440.542829
11
36.441723
21
440.422086
0
LINE
8
annotation
62
1
39
211
10
36.441723
20
440.422086
11
36.339719
21
440.277442
0
LINE
8
annotation
62
1
39
211
10
36.339719
20
440.277442
11
36.211182
21
440.030873
0
LINE
8
annotation
62
1
39
211
10
65.534176
20
380.277897
11
62.879639
21
376.438352
0
LINE
8
annotation
62
1
39
211
10
62.879639
20
376.438352
11
60.224602
21
380.277897
0
LINE
8
annotation
62
1
39
211
10
62.879639
20
376.747332
11
62.879639
21
372.317779
0
LINE
8
annotation
62
1
39
211
10
72.872215
20
376.297838
11
68.520031
21
376.297838
0
LINE
8
annotation
62
1
39
211
10
77.626098
20
372.318028
11
77.626098
21
380.277647
0
LINE
8
annotation
62
1
39
211
10
77.626098
20
380.277647
11
75.856573
21
378.507623
0
LINE
8
annotation
62
1
39
211
10
80.610706
20
372.318028
11
82.378234
21
372.318028
0
LINE
8
annotation
62
1
39
211
10
82.378234
20
372.318028
11
82.378234
21
372.318028
0
LINE
8
annotation
62
1
39
211
10
82.378234
20
372.318028
11
82.695471
21
372.346552
0
LINE
8
annotation
62
1
39
211
10
82.695471
20
372.346552
11
82.994250
21
372.428783
0
LINE
8
annotation
62
1
39
211
10
82.994250
20
372.428783
11
83.269532
21
372.559715
0
LINE
8
annotation
62
1
39
211
10
83.269532
20
372.559715
11
83.516283
21
372.734338
0
LINE
8
annotation
62
1
39
211
10
83.516283
20
372.734338
11
83.729464
21
372.947646
0
LINE
8
annotation
62
1
39
211
10
83.729464
20
372.947646
11
83.904040
21
373.194629
0
LINE
8
annotation
62
1
39
211
10
83.904040
20
373.194629
11
84.034973
21
373.470280
0
LINE
8
annotation
62
1
39
211
10
84.034973
20
373.470280
11
84.117226
21
373.769591
0
LINE
8
annotation
62
1
39
211
10
84.117226
20
373.769591
11
84.145763
21
374.087554
0
LINE
8
annotation
62
1
39
211
10
84.145763
20
374.087554
11
84.145763
21
374.968073
0
LINE
8
annotation
62
1
39
211
10
84.145763
20
374.968073
11
84.145763
21
374.968073
0
LINE
8
annotation
62
1
39
211
10
84.145763
20
374.968073
11
84.117242
21
375.285882
0
LINE
8
annotation
62
1
39
211
10
84.117242
20
375.285882
11
84.035030
21
375.584780
0
LINE
8
annotation
62
1
39
211
10
84.035030
20
375.584780
11
83.904151
21
375.859834
0
LINE
8
annotation
62
1
39
211
10
83.904151
20
375.859834
11
83.729629
21
376.106108
0
LINE
8
annotation
62
1
39
211
10
83.729629
20
376.106108
11
83.516488
21
376.318670
0
LINE
8
annotation
62
1
39
211
10
83.516488
20
376.318670
11
83.269754
21
376.492585
0
LINE
8
annotation
62
1
39
211
10
83.269754
20
376.492585
11
82.994451
21
376.622918
0
LINE
8
annotation
62
1
39
211
10
82.994451
20
376.622918
11
82.695603
21
376.704737
0
LINE
8
annotation
62
1
39
211
10
82.695603
20
376.704737
11
82.378234
21
376.733106
0
LINE
8
annotation
62
1
39
211
10
82.378234
20
376.733106
11
80.610706
21
376.733106
0
LINE
8
annotation
62
1
39
211
10
80.610706
20
376.733106
11
80.610706
21
380.277647
0
LINE
8
annotation
62
1
39
211
10
80.610706
20
380.277647
11
84.145763
21
380.277647
0
LINE
8
frame
62
5
39
2
10
0.000000
20
0.000000
11
215.900000
21
0.000000
0
LINE
8
frame
62
5
39
2
10
215.900000
20
0.000000
11
215.900000
21
279.400000
0
LINE
8
frame
62
5
39
2
10
215.900000
20
279.400000
11
0.000000
21
279.400000
0
LINE
8
frame
62
5
39
2
10
0.000000
20
279.400000
11
0.000000
21
0.000000
0
ENDSEC
0
EOF
