0
SECTION
2
HEADER
9
$ACADVER
1
AC1009
0
ENDSEC
0
SECTION
2
TABLES
0
TABLE
2
VPORT
70
1
0
VPORT
2
ACTIVE
70
0
10
0.0
20
0.0
11
0.0
21
0.0
12
0.0
22
0.0
13
0.0
23
0.0
14
0.0
24
0.0
15
0.0
25
0.0
16
0.0
26
0.0
36
0.0
17
0.0
27
0.0
37
0.0
40
0.0
41
0.0
42
0.0
43
0.0
44
0.0
50
0.0
51
0.0
71
0
72
1000
73
1
74
3
75
0
76
0
77
0
78
0
0
ENDTAB
0
ENDSEC
0
SECTION
2
ENTITIES
0
LINE
8
boundary
62
5
39
2
10
33.955981
20
21.893404
11
34.759762
21
21.014521
0
LINE
8
boundary
62
5
39
2
10
34.759762
20
21.014521
11
35.703018
21
20.031950
0
LINE
8
boundary
62
5
39
2
10
35.703018
20
20.031950
11
36.675712
21
19.073495
0
LINE
8
boundary
62
5
39
2
10
36.675712
20
19.073495
11
37.678606
21
18.140358
0
LINE
8
boundary
62
5
39
2
10
37.678606
20
18.140358
11
38.712236
21
17.233816
0
LINE
8
boundary
62
5
39
2
10
38.712236
20
17.233816
11
39.777088
21
16.355084
0
LINE
8
boundary
62
5
39
2
10
39.777088
20
16.355084
11
40.873715
21
15.505376
0
LINE
8
boundary
62
5
39
2
10
40.873715
20
15.505376
11
42.002841
21
14.685955
0
LINE
8
boundary
62
5
39
2
10
42.002841
20
14.685955
11
43.164880
21
13.898086
0
LINE
8
boundary
62
5
39
2
10
43.164880
20
13.898086
11
44.360460
21
13.142903
0
LINE
8
boundary
62
5
39
2
10
44.360460
20
13.142903
11
45.590069
21
12.421675
0
LINE
8
boundary
62
5
39
2
10
45.590069
20
12.421675
11
46.854229
21
11.735608
0
LINE
8
boundary
62
5
39
2
10
46.854229
20
11.735608
11
48.153538
21
11.085944
0
LINE
8
boundary
62
5
39
2
10
48.153538
20
11.085944
11
49.488510
21
10.473813
0
LINE
8
boundary
62
5
39
2
10
49.488510
20
10.473813
11
50.859606
21
9.900344
0
LINE
8
boundary
62
5
39
2
10
50.859606
20
9.900344
11
52.267471
21
9.366694
0
LINE
8
boundary
62
5
39
2
10
52.267471
20
9.366694
11
53.712401
21
8.873908
0
LINE
8
boundary
62
5
39
2
10
53.712401
20
8.873908
11
55.195020
21
8.423156
0
LINE
8
boundary
62
5
39
2
10
55.195020
20
8.423156
11
56.715716
21
8.015378
0
LINE
8
boundary
62
5
39
2
10
56.715716
20
8.015378
11
58.275094
21
7.651605
0
LINE
8
boundary
62
5
39
2
10
58.275094
20
7.651605
11
59.873460
21
7.332808
0
LINE
8
boundary
62
5
39
2
10
59.873460
20
7.332808
11
61.511442
21
7.059878
0
LINE
8
boundary
62
5
39
2
10
61.511442
20
7.059878
11
63.189390
21
6.833599
0
LINE
8
boundary
62
5
39
2
10
63.189390
20
6.833599
11
63.819384
21
6.713752
0
LINE
8
boundary
62
5
39
2
10
63.819384
20
6.713752
11
64.680392
21
6.675060
0
LINE
8
boundary
62
5
39
2
10
64.680392
20
6.675060
11
65.202515
21
6.725906
0
LINE
8
boundary
62
5
39
2
10
65.202515
20
6.725906
11
65.767039
21
6.824442
0
LINE
8
boundary
62
5
39
2
10
65.767039
20
6.824442
11
66.367360
21
6.969172
0
LINE
8
boundary
62
5
39
2
10
66.367360
20
6.969172
11
66.997116
21
7.158606
0
LINE
8
boundary
62
5
39
2
10
66.997116
20
7.158606
11
67.649900
21
7.391231
0
LINE
8
boundary
62
5
39
2
10
67.649900
20
7.391231
11
68.319210
21
7.665409
0
LINE
8
boundary
62
5
39
2
10
68.319210
20
7.665409
11
68.998716
21
7.979561
0
LINE
8
boundary
62
5
39
2
10
68.998716
20
7.979561
11
69.681965
21
8.332138
0
LINE
8
boundary
62
5
39
2
10
69.681965
20
8.332138
11
70.362806
21
8.721561
0
LINE
8
boundary
62
5
39
2
10
70.362806
20
8.721561
11
71.034723
21
9.146233
0
LINE
8
boundary
62
5
39
2
10
71.034723
20
9.146233
11
71.691412
21
9.604565
0
LINE
8
boundary
62
5
39
2
10
71.691412
20
9.604565
11
72.326645
21
10.094998
0
LINE
8
boundary
62
5
39
2
10
72.326645
20
10.094998
11
72.934065
21
10.616041
0
LINE
8
boundary
62
5
39
2
10
72.934065
20
10.616041
11
73.334586
21
10.991831
0
LINE
8
boundary
62
5
39
2
10
73.334586
20
10.991831
11
73.831833
21
11.506402
0
LINE
8
boundary
62
5
39
2
10
73.831833
20
11.506402
11
74.338526
21
12.100430
0
LINE
8
boundary
62
5
39
2
10
74.338526
20
12.100430
11
74.794663
21
12.719784
0
LINE
8
boundary
62
5
39
2
10
74.794663
20
12.719784
11
75.194074
21
13.363191
0
LINE
8
boundary
62
5
39
2
10
75.194074
20
13.363191
11
75.530352
21
14.029222
0
LINE
8
boundary
62
5
39
2
10
75.530352
20
14.029222
11
75.797081
21
14.716599
0
LINE
8
boundary
62
5
39
2
10
75.797081
20
14.716599
11
75.988031
21
15.424073
0
LINE
8
boundary
62
5
39
2
10
75.988031
20
15.424073
11
76.096629
21
16.150482
0
LINE
8
boundary
62
5
39
2
10
76.096629
20
16.150482
11
76.116455
21
16.894669
0
LINE
8
boundary
62
5
39
2
10
76.116455
20
16.894669
11
76.041021
21
17.655558
0
LINE
8
boundary
62
5
39
2
10
76.041021
20
17.655558
11
75.863792
21
18.432134
0
LINE
8
boundary
62
5
39
2
10
75.863792
20
18.432134
11
75.578181
21
19.223501
0
LINE
8
boundary
62
5
39
2
10
75.578181
20
19.223501
11
75.351247
21
19.708175
0
LINE
8
boundary
62
5
39
2
10
75.351247
20
19.708175
11
74.931629
21
20.436209
0
LINE
8
boundary
62
5
39
2
10
74.931629
20
20.436209
11
74.593392
21
20.933341
0
LINE
8
boundary
62
5
39
2
10
74.593392
20
20.933341
11
74.277144
21
21.347967
0
LINE
8
boundary
62
5
39
2
10
74.277144
20
21.347967
11
73.927548
21
21.765550
0
LINE
8
boundary
62
5
39
2
10
73.927548
20
21.765550
11
73.543884
21
22.186112
0
LINE
8
boundary
62
5
39
2
10
73.543884
20
22.186112
11
72.879938
21
22.254097
0
LINE
8
boundary
62
5
39
2
10
72.879938
20
22.254097
11
72.031205
21
22.359566
0
LINE
8
boundary
62
5
39
2
10
72.031205
20
22.359566
11
71.176346
21
22.493556
0
LINE
8
boundary
62
5
39
2
10
71.176346
20
22.493556
11
70.315920
21
22.656067
0
LINE
8
boundary
62
5
39
2
10
70.315920
20
22.656067
11
69.450358
21
22.847165
0
LINE
8
boundary
62
5
39
2
10
69.450358
20
22.847165
11
68.580085
21
23.066813
0
LINE
8
boundary
62
5
39
2
10
68.580085
20
23.066813
11
67.705586
21
23.314962
0
LINE
8
boundary
62
5
39
2
10
67.705586
20
23.314962
11
66.827321
21
23.591738
0
LINE
8
boundary
62
5
39
2
10
66.827321
20
23.591738
11
65.945583
21
23.896950
0
LINE
8
boundary
62
5
39
2
10
65.945583
20
23.896950
11
65.061086
21
24.230769
0
LINE
8
boundary
62
5
39
2
10
65.061086
20
24.230769
11
64.174084
21
24.592993
0
LINE
8
boundary
62
5
39
2
10
64.174084
20
24.592993
11
63.285170
21
24.983690
0
LINE
8
boundary
62
5
39
2
10
63.285170
20
24.983690
11
62.394709
21
25.402790
0
LINE
8
boundary
62
5
39
2
10
62.394709
20
25.402790
11
61.503192
21
25.850280
0
LINE
8
boundary
62
5
39
2
10
61.503192
20
25.850280
11
60.611110
21
26.326101
0
LINE
8
boundary
62
5
39
2
10
60.611110
20
26.326101
11
59.718950
21
26.830117
0
LINE
8
boundary
62
5
39
2
10
59.718950
20
26.830117
11
58.827221
21
27.362386
0
LINE
8
boundary
62
5
39
2
10
58.827221
20
27.362386
11
57.936415
21
27.922750
0
LINE
8
boundary
62
5
39
2
10
57.936415
20
27.922750
11
57.046954
21
28.511121
0
LINE
8
boundary
62
5
39
2
10
57.046954
20
28.511121
11
56.159362
21
29.127394
0
LINE
8
boundary
62
5
39
2
10
56.159362
20
29.127394
11
55.274167
21
29.771516
0
LINE
8
boundary
62
5
39
2
10
55.274167
20
29.771516
11
54.391937
21
30.443322
0
LINE
8
boundary
62
5
39
2
10
54.391937
20
30.443322
11
53.512936
21
31.142699
0
LINE
8
boundary
62
5
39
2
10
53.512936
20
31.142699
11
52.637881
21
31.869490
0
LINE
8
boundary
62
5
39
2
10
52.637881
20
31.869490
11
51.767302
21
32.623593
0
LINE
8
boundary
62
5
39
2
10
51.767302
20
32.623593
11
50.901635
21
33.404780
0
LINE
8
boundary
62
5
39
2
10
50.901635
20
33.404780
11
50.041504
21
34.212964
0
LINE
8
boundary
62
5
39
2
10
50.041504
20
34.212964
11
49.187272
21
35.047913
0
LINE
8
boundary
62
5
39
2
10
49.187272
20
35.047913
11
48.339631
21
35.909457
0
LINE
8
boundary
62
5
39
2
10
48.339631
20
35.909457
11
47.499034
21
36.797334
0
LINE
8
boundary
62
5
39
2
10
47.499034
20
36.797334
11
46.666033
21
37.711407
0
LINE
8
boundary
62
5
39
2
10
46.666033
20
37.711407
11
45.841170
21
38.651417
0
LINE
8
boundary
62
5
39
2
10
45.841170
20
38.651417
11
45.025050
21
39.617126
0
LINE
8
boundary
62
5
39
2
10
45.025050
20
39.617126
11
44.218234
21
40.608287
0
LINE
8
boundary
62
5
39
2
10
44.218234
20
40.608287
11
43.421224
21
41.624623
0
LINE
8
boundary
62
5
39
2
10
43.421224
20
41.624623
11
42.634622
21
42.665931
0
LINE
8
boundary
62
5
39
2
10
42.634622
20
42.665931
11
41.858915
21
43.731839
0
LINE
8
boundary
62
5
39
2
10
41.858915
20
43.731839
11
41.094834
21
44.822143
0
LINE
8
boundary
62
5
39
2
10
41.094834
20
44.822143
11
40.342764
21
45.936456
0
LINE
8
boundary
62
5
39
2
10
40.342764
20
45.936456
11
39.603350
21
47.074495
0
LINE
8
boundary
62
5
39
2
10
39.603350
20
47.074495
11
38.877112
21
48.235929
0
LINE
8
boundary
62
5
39
2
10
38.877112
20
48.235929
11
38.164741
21
49.420451
0
LINE
8
boundary
62
5
39
2
10
38.164741
20
49.420451
11
37.466837
21
50.627711
0
LINE
8
boundary
62
5
39
2
10
37.466837
20
50.627711
11
36.783749
21
51.857335
0
LINE
8
boundary
62
5
39
2
10
36.783749
20
51.857335
11
36.116287
21
53.108982
0
LINE
8
boundary
62
5
39
2
10
36.116287
20
53.108982
11
35.464954
21
54.382235
0
LINE
8
boundary
62
5
39
2
10
35.464954
20
54.382235
11
34.830323
21
55.676760
0
LINE
8
boundary
62
5
39
2
10
34.830323
20
55.676760
11
34.212942
21
56.992120
0
LINE
8
boundary
62
5
39
2
10
34.212942
20
56.992120
11
33.613433
21
58.327928
0
LINE
8
boundary
62
5
39
2
10
33.613433
20
58.327928
11
33.032385
21
59.683814
0
LINE
8
boundary
62
5
39
2
10
33.032385
20
59.683814
11
32.470444
21
61.059257
0
LINE
8
boundary
62
5
39
2
10
32.470444
20
61.059257
11
31.928012
21
62.453940
0
LINE
8
boundary
62
5
39
2
10
31.928012
20
62.453940
11
31.405786
21
63.867413
0
LINE
8
boundary
62
5
39
2
10
31.405786
20
63.867413
11
30.904225
21
65.299194
0
LINE
8
boundary
62
5
39
2
10
30.904225
20
65.299194
11
30.424044
21
66.748853
0
LINE
8
boundary
62
5
39
2
10
30.424044
20
66.748853
11
29.965819
21
68.215919
0
LINE
8
boundary
62
5
39
2
10
29.965819
20
68.215919
11
29.529823
21
69.700007
0
LINE
8
boundary
62
5
39
2
10
29.529823
20
69.700007
11
29.116933
21
71.200643
0
LINE
8
boundary
62
5
39
2
10
29.116933
20
71.200643
11
28.727573
21
72.717231
0
LINE
8
boundary
62
5
39
2
10
28.727573
20
72.717231
11
28.362277
21
74.249516
0
LINE
8
boundary
62
5
39
2
10
28.362277
20
74.249516
11
28.021584
21
75.796859
0
LINE
8
boundary
62
5
39
2
10
28.021584
20
75.796859
11
27.705881
21
77.358822
0
LINE
8
boundary
62
5
39
2
10
27.705881
20
77.358822
11
27.415939
21
78.935042
0
LINE
8
boundary
62
5
39
2
10
27.415939
20
78.935042
11
27.152257
21
80.524873
0
LINE
8
boundary
62
5
39
2
10
27.152257
20
80.524873
11
26.840444
21
81.788488
0
LINE
8
boundary
62
5
39
2
10
26.840444
20
81.788488
11
26.541673
21
83.033655
0
LINE
8
boundary
62
5
39
2
10
26.541673
20
83.033655
11
26.258780
21
84.277719
0
LINE
8
boundary
62
5
39
2
10
26.258780
20
84.277719
11
25.991814
21
85.520515
0
LINE
8
boundary
62
5
39
2
10
25.991814
20
85.520515
11
25.740477
21
86.761961
0
LINE
8
boundary
62
5
39
2
10
25.740477
20
86.761961
11
25.504540
21
88.002008
0
LINE
8
boundary
62
5
39
2
10
25.504540
20
88.002008
11
25.083217
21
90.452009
0
LINE
8
boundary
62
5
39
2
10
25.083217
20
90.452009
11
24.715233
21
92.928224
0
LINE
8
boundary
62
5
39
2
10
24.715233
20
92.928224
11
24.406209
21
95.396102
0
LINE
8
boundary
62
5
39
2
10
24.406209
20
95.396102
11
24.154490
21
97.855152
0
LINE
8
boundary
62
5
39
2
10
24.154490
20
97.855152
11
23.958386
21
100.304835
0
LINE
8
boundary
62
5
39
2
10
23.958386
20
100.304835
11
23.810296
21
102.736741
0
LINE
8
boundary
62
5
39
2
10
23.810296
20
102.736741
11
23.715532
21
105.159514
0
LINE
8
boundary
62
5
39
2
10
23.715532
20
105.159514
11
23.673221
21
107.573692
0
LINE
8
boundary
62
5
39
2
10
23.673221
20
107.573692
11
23.681970
21
109.978899
0
LINE
8
boundary
62
5
39
2
10
23.681970
20
109.978899
11
23.740235
21
112.374826
0
LINE
8
boundary
62
5
39
2
10
23.740235
20
112.374826
11
23.846551
21
114.761122
0
LINE
8
boundary
62
5
39
2
10
23.846551
20
114.761122
11
23.999463
21
117.137512
0
LINE
8
boundary
62
5
39
2
10
23.999463
20
117.137512
11
24.197446
21
119.503889
0
LINE
8
boundary
62
5
39
2
10
24.197446
20
119.503889
11
24.438880
21
121.859911
0
LINE
8
boundary
62
5
39
2
10
24.438880
20
121.859911
11
24.654690
21
123.645894
0
LINE
8
boundary
62
5
39
2
10
24.654690
20
123.645894
11
24.720293
21
124.203464
0
LINE
8
boundary
62
5
39
2
10
24.720293
20
124.203464
11
25.033848
21
126.528722
0
LINE
8
boundary
62
5
39
2
10
25.033848
20
126.528722
11
25.384385
21
128.841894
0
LINE
8
boundary
62
5
39
2
10
25.384385
20
128.841894
11
25.770304
21
131.142936
0
LINE
8
boundary
62
5
39
2
10
25.770304
20
131.142936
11
26.190109
21
133.431778
0
LINE
8
boundary
62
5
39
2
10
26.190109
20
133.431778
11
26.642317
21
135.708510
0
LINE
8
boundary
62
5
39
2
10
26.642317
20
135.708510
11
27.125372
21
137.973112
0
LINE
8
boundary
62
5
39
2
10
27.125372
20
137.973112
11
27.637973
21
140.225708
0
LINE
8
boundary
62
5
39
2
10
27.637973
20
140.225708
11
28.178456
21
142.466297
0
LINE
8
boundary
62
5
39
2
10
28.178456
20
142.466297
11
28.745480
21
144.694934
0
LINE
8
boundary
62
5
39
2
10
28.745480
20
144.694934
11
29.337552
21
146.911714
0
LINE
8
boundary
62
5
39
2
10
29.337552
20
146.911714
11
29.953263
21
149.116647
0
LINE
8
boundary
62
5
39
2
10
29.953263
20
149.116647
11
30.591278
21
151.309862
0
LINE
8
boundary
62
5
39
2
10
30.591278
20
151.309862
11
31.250012
21
153.491374
0
LINE
8
boundary
62
5
39
2
10
31.250012
20
153.491374
11
31.928194
21
155.661288
0
LINE
8
boundary
62
5
39
2
10
31.928194
20
155.661288
11
32.624321
21
157.819746
0
LINE
8
boundary
62
5
39
2
10
32.624321
20
157.819746
11
33.337231
21
159.966718
0
LINE
8
boundary
62
5
39
2
10
33.337231
20
159.966718
11
34.065234
21
162.102433
0
LINE
8
boundary
62
5
39
2
10
34.065234
20
162.102433
11
34.807249
21
164.226858
0
LINE
8
boundary
62
5
39
2
10
34.807249
20
164.226858
11
35.561897
21
166.340033
0
LINE
8
boundary
62
5
39
2
10
35.561897
20
166.340033
11
36.327595
21
168.442221
0
LINE
8
boundary
62
5
39
2
10
36.327595
20
168.442221
11
37.772377
21
172.302216
0
LINE
8
boundary
62
5
39
2
10
37.772377
20
172.302216
11
38.003147
21
172.920638
0
LINE
8
boundary
62
5
39
2
10
38.003147
20
172.920638
11
39.348075
21
176.404800
0
LINE
8
boundary
62
5
39
2
10
39.348075
20
176.404800
11
39.605086
21
177.073557
0
LINE
8
boundary
62
5
39
2
10
39.605086
20
177.073557
11
40.943590
21
180.466811
0
LINE
8
boundary
62
5
39
2
10
40.943590
20
180.466811
11
41.224651
21
181.181829
0
LINE
8
boundary
62
5
39
2
10
41.224651
20
181.181829
11
42.548947
21
184.489143
0
LINE
8
boundary
62
5
39
2
10
42.548947
20
184.489143
11
42.851263
21
185.246140
0
LINE
8
boundary
62
5
39
2
10
42.851263
20
185.246140
11
44.154448
21
188.472401
0
LINE
8
boundary
62
5
39
2
10
44.154448
20
188.472401
11
44.474830
21
189.266921
0
LINE
8
boundary
62
5
39
2
10
44.474830
20
189.266921
11
46.971681
21
195.446214
0
LINE
8
boundary
62
5
39
2
10
46.971681
20
195.446214
11
47.672666
21
197.181555
0
LINE
8
boundary
62
5
39
2
10
47.672666
20
197.181555
11
50.017496
21
203.106916
0
LINE
8
boundary
62
5
39
2
10
50.017496
20
203.106916
11
50.741205
21
204.932572
0
LINE
8
boundary
62
5
39
2
10
50.741205
20
204.932572
11
51.851545
21
207.831769
0
LINE
8
boundary
62
5
39
2
10
51.851545
20
207.831769
11
52.204017
21
208.749062
0
LINE
8
boundary
62
5
39
2
10
52.204017
20
208.749062
11
53.260868
21
211.597802
0
LINE
8
boundary
62
5
39
2
10
53.260868
20
211.597802
11
53.607322
21
212.527494
0
LINE
8
boundary
62
5
39
2
10
53.607322
20
212.527494
11
54.606382
21
215.330463
0
LINE
8
boundary
62
5
39
2
10
54.606382
20
215.330463
11
54.942801
21
216.268964
0
LINE
8
boundary
62
5
39
2
10
54.942801
20
216.268964
11
55.420467
21
217.658314
0
LINE
8
boundary
62
5
39
2
10
55.420467
20
217.658314
11
56.043905
21
219.505508
0
LINE
8
boundary
62
5
39
2
10
56.043905
20
219.505508
11
56.918808
21
222.205351
0
LINE
8
boundary
62
5
39
2
10
56.918808
20
222.205351
11
57.168678
21
222.976546
0
LINE
8
boundary
62
5
39
2
10
57.168678
20
222.976546
11
57.863964
21
225.267009
0
LINE
8
boundary
62
5
39
2
10
57.863964
20
225.267009
11
58.109311
21
226.067587
0
LINE
8
boundary
62
5
39
2
10
58.109311
20
226.067587
11
58.447477
21
227.236138
0
LINE
8
boundary
62
5
39
2
10
58.447477
20
227.236138
11
58.897192
21
228.826819
0
LINE
8
boundary
62
5
39
2
10
58.897192
20
228.826819
11
59.335999
21
230.437210
0
LINE
8
boundary
62
5
39
2
10
59.335999
20
230.437210
11
59.762832
21
232.066603
0
LINE
8
boundary
62
5
39
2
10
59.762832
20
232.066603
11
60.176369
21
233.714388
0
LINE
8
boundary
62
5
39
2
10
60.176369
20
233.714388
11
60.575726
21
235.379670
0
LINE
8
boundary
62
5
39
2
10
60.575726
20
235.379670
11
60.959603
21
237.061898
0
LINE
8
boundary
62
5
39
2
10
60.959603
20
237.061898
11
61.327085
21
238.760602
0
LINE
8
boundary
62
5
39
2
10
61.327085
20
238.760602
11
61.676970
21
240.474789
0
LINE
8
boundary
62
5
39
2
10
61.676970
20
240.474789
11
62.008275
21
242.204079
0
LINE
8
boundary
62
5
39
2
10
62.008275
20
242.204079
11
62.319862
21
243.947761
0
LINE
8
boundary
62
5
39
2
10
62.319862
20
243.947761
11
62.610880
21
245.705322
0
LINE
8
boundary
62
5
39
2
10
62.610880
20
245.705322
11
62.880299
21
247.476040
0
LINE
8
boundary
62
5
39
2
10
62.880299
20
247.476040
11
63.127094
21
249.259315
0
LINE
8
boundary
62
5
39
2
10
63.127094
20
249.259315
11
63.350338
21
251.054743
0
LINE
8
boundary
62
5
39
2
10
63.350338
20
251.054743
11
63.549090
21
252.861568
0
LINE
8
boundary
62
5
39
2
10
63.549090
20
252.861568
11
63.722435
21
254.679228
0
LINE
8
boundary
62
5
39
2
10
63.722435
20
254.679228
11
63.869511
21
256.507334
0
LINE
8
boundary
62
5
39
2
10
63.869511
20
256.507334
11
63.989412
21
258.345141
0
LINE
8
boundary
62
5
39
2
10
63.989412
20
258.345141
11
64.081271
21
260.192283
0
LINE
8
boundary
62
5
39
2
10
64.081271
20
260.192283
11
64.144194
21
262.048039
0
LINE
8
boundary
62
5
39
2
10
64.144194
20
262.048039
11
64.177435
21
263.912168
0
LINE
8
boundary
62
5
39
2
10
64.177435
20
263.912168
11
64.180232
21
265.783836
0
LINE
8
boundary
62
5
39
2
10
64.180232
20
265.783836
11
64.151717
21
267.662771
0
LINE
8
boundary
62
5
39
2
10
64.151717
20
267.662771
11
64.091198
21
269.548297
0
LINE
8
boundary
62
5
39
2
10
64.091198
20
269.548297
11
63.997795
21
271.439957
0
LINE
8
boundary
62
5
39
2
10
63.997795
20
271.439957
11
63.870870
21
273.337451
0
LINE
8
boundary
62
5
39
2
10
63.870870
20
273.337451
11
63.709664
21
275.240158
0
LINE
8
boundary
62
5
39
2
10
63.709664
20
275.240158
11
63.513490
21
277.147387
0
LINE
8
boundary
62
5
39
2
10
63.513490
20
277.147387
11
63.281669
21
279.059033
0
LINE
8
boundary
62
5
39
2
10
63.281669
20
279.059033
11
63.013526
21
280.974510
0
LINE
8
boundary
62
5
39
2
10
63.013526
20
280.974510
11
62.708404
21
282.893126
0
LINE
8
boundary
62
5
39
2
10
62.708404
20
282.893126
11
62.365657
21
284.814799
0
LINE
8
boundary
62
5
39
2
10
62.365657
20
284.814799
11
61.984701
21
286.738769
0
LINE
8
boundary
62
5
39
2
10
61.984701
20
286.738769
11
61.564791
21
288.664619
0
LINE
8
boundary
62
5
39
2
10
61.564791
20
288.664619
11
61.105412
21
290.592034
0
LINE
8
boundary
62
5
39
2
10
61.105412
20
290.592034
11
60.605998
21
292.520474
0
LINE
8
boundary
62
5
39
2
10
60.605998
20
292.520474
11
60.065895
21
294.449531
0
LINE
8
boundary
62
5
39
2
10
60.065895
20
294.449531
11
59.484562
21
296.378685
0
LINE
8
boundary
62
5
39
2
10
59.484562
20
296.378685
11
58.861395
21
298.307587
0
LINE
8
boundary
62
5
39
2
10
58.861395
20
298.307587
11
58.473118
21
299.455529
0
LINE
8
boundary
62
5
39
2
10
58.473118
20
299.455529
11
58.133690
21
300.417513
0
LINE
8
boundary
62
5
39
2
10
58.133690
20
300.417513
11
57.783564
21
301.379336
0
LINE
8
boundary
62
5
39
2
10
57.783564
20
301.379336
11
57.422695
21
302.340585
0
LINE
8
boundary
62
5
39
2
10
57.422695
20
302.340585
11
57.050960
21
303.301596
0
LINE
8
boundary
62
5
39
2
10
57.050960
20
303.301596
11
56.668400
21
304.261998
0
LINE
8
boundary
62
5
39
2
10
56.668400
20
304.261998
11
56.274915
21
305.221797
0
LINE
8
boundary
62
5
39
2
10
56.274915
20
305.221797
11
55.870388
21
306.181041
0
LINE
8
boundary
62
5
39
2
10
55.870388
20
306.181041
11
55.454740
21
307.139693
0
LINE
8
boundary
62
5
39
2
10
55.454740
20
307.139693
11
55.027993
21
308.097588
0
LINE
8
boundary
62
5
39
2
10
55.027993
20
308.097588
11
54.590108
21
309.054714
0
LINE
8
boundary
62
5
39
2
10
54.590108
20
309.054714
11
54.140904
21
310.010965
0
LINE
8
boundary
62
5
39
2
10
54.140904
20
310.010965
11
53.680446
21
310.966315
0
LINE
8
boundary
62
5
39
2
10
53.680446
20
310.966315
11
53.208539
21
311.920781
0
LINE
8
boundary
62
5
39
2
10
53.208539
20
311.920781
11
52.725224
21
312.874278
0
LINE
8
boundary
62
5
39
2
10
52.725224
20
312.874278
11
52.230431
21
313.826639
0
LINE
8
boundary
62
5
39
2
10
52.230431
20
313.826639
11
51.724104
21
314.778034
0
LINE
8
boundary
62
5
39
2
10
51.724104
20
314.778034
11
51.206195
21
315.728119
0
LINE
8
boundary
62
5
39
2
10
51.206195
20
315.728119
11
50.676518
21
316.677061
0
LINE
8
boundary
62
5
39
2
10
50.676518
20
316.677061
11
50.135190
21
317.624685
0
LINE
8
boundary
62
5
39
2
10
50.135190
20
317.624685
11
49.582016
21
318.571002
0
LINE
8
boundary
62
5
39
2
10
49.582016
20
318.571002
11
49.016954
21
319.515881
0
LINE
8
boundary
62
5
39
2
10
49.016954
20
319.515881
11
48.440056
21
320.459298
0
LINE
8
boundary
62
5
39
2
10
48.440056
20
320.459298
11
47.851174
21
321.401306
0
LINE
8
boundary
62
5
39
2
10
47.851174
20
321.401306
11
47.250226
21
322.341709
0
LINE
8
boundary
62
5
39
2
10
47.250226
20
322.341709
11
46.637256
21
323.280481
0
LINE
8
boundary
62
5
39
2
10
46.637256
20
323.280481
11
46.012048
21
324.217469
0
LINE
8
boundary
62
5
39
2
10
46.012048
20
324.217469
11
45.374689
21
325.152874
0
LINE
8
boundary
62
5
39
2
10
45.374689
20
325.152874
11
44.725114
21
326.086541
0
LINE
8
boundary
62
5
39
2
10
44.725114
20
326.086541
11
44.063192
21
327.018208
0
LINE
8
boundary
62
5
39
2
10
44.063192
20
327.018208
11
43.388915
21
327.947994
0
LINE
8
boundary
62
5
39
2
10
43.388915
20
327.947994
11
42.702119
21
328.875921
0
LINE
8
boundary
62
5
39
2
10
42.702119
20
328.875921
11
42.002889
21
329.801753
0
LINE
8
boundary
62
5
39
2
10
42.002889
20
329.801753
11
41.291081
21
330.725342
0
LINE
8
boundary
62
5
39
2
10
41.291081
20
330.725342
11
40.566702
21
331.646977
0
LINE
8
boundary
62
5
39
2
10
40.566702
20
331.646977
11
39.829646
21
332.566442
0
LINE
8
boundary
62
5
39
2
10
39.829646
20
332.566442
11
39.079810
21
333.483612
0
LINE
8
boundary
62
5
39
2
10
39.079810
20
333.483612
11
38.317162
21
334.398294
0
LINE
8
boundary
62
5
39
2
10
38.317162
20
334.398294
11
37.541688
21
335.310700
0
LINE
8
boundary
62
5
39
2
10
37.541688
20
335.310700
11
36.753304
21
336.220689
0
LINE
8
boundary
62
5
39
2
10
36.753304
20
336.220689
11
36.488087
21
336.787168
0
LINE
8
boundary
62
5
39
2
10
36.488087
20
336.787168
11
36.296462
21
337.299190
0
LINE
8
boundary
62
5
39
2
10
36.296462
20
337.299190
11
36.130312
21
337.787387
0
LINE
8
boundary
62
5
39
2
10
36.130312
20
337.787387
11
35.977227
21
338.291522
0
LINE
8
boundary
62
5
39
2
10
35.977227
20
338.291522
11
35.778443
21
339.113087
0
LINE
8
boundary
62
5
39
2
10
35.778443
20
339.113087
11
35.659582
21
339.885643
0
LINE
8
boundary
62
5
39
2
10
35.659582
20
339.885643
11
35.627306
21
340.573400
0
LINE
8
boundary
62
5
39
2
10
35.627306
20
340.573400
11
35.676717
21
341.179953
0
LINE
8
boundary
62
5
39
2
10
35.676717
20
341.179953
11
35.803191
21
341.708922
0
LINE
8
boundary
62
5
39
2
10
35.803191
20
341.708922
11
36.011907
21
342.183185
0
LINE
8
boundary
62
5
39
2
10
36.011907
20
342.183185
11
36.426160
21
342.714930
0
LINE
8
boundary
62
5
39
2
10
36.426160
20
342.714930
11
36.988012
21
343.119358
0
LINE
8
boundary
62
5
39
2
10
36.988012
20
343.119358
11
37.454744
21
343.322511
0
LINE
8
boundary
62
5
39
2
10
37.454744
20
343.322511
11
37.952175
21
343.457816
0
LINE
8
boundary
62
5
39
2
10
37.952175
20
343.457816
11
38.466440
21
343.536687
0
LINE
8
boundary
62
5
39
2
10
38.466440
20
343.536687
11
39.048784
21
343.572773
0
LINE
8
boundary
62
5
39
2
10
39.048784
20
343.572773
11
39.669024
21
343.563138
0
LINE
8
boundary
62
5
39
2
10
39.669024
20
343.563138
11
40.322870
21
343.511495
0
LINE
8
boundary
62
5
39
2
10
40.322870
20
343.511495
11
40.965168
21
343.426405
0
LINE
8
boundary
62
5
39
2
10
40.965168
20
343.426405
11
41.670991
21
343.303619
0
LINE
8
boundary
62
5
39
2
10
41.670991
20
343.303619
11
42.398029
21
343.149362
0
LINE
8
boundary
62
5
39
2
10
42.398029
20
343.149362
11
43.142193
21
342.967092
0
LINE
8
boundary
62
5
39
2
10
43.142193
20
342.967092
11
43.899363
21
342.760267
0
LINE
8
boundary
62
5
39
2
10
43.899363
20
342.760267
11
44.665190
21
342.532417
0
LINE
8
boundary
62
5
39
2
10
44.665190
20
342.532417
11
45.435559
21
342.287137
0
LINE
8
boundary
62
5
39
2
10
45.435559
20
342.287137
11
46.206145
21
342.027833
0
LINE
8
boundary
62
5
39
2
10
46.206145
20
342.027833
11
46.972595
21
341.758141
0
LINE
8
boundary
62
5
39
2
10
46.972595
20
341.758141
11
48.358529
21
341.244152
0
LINE
8
boundary
62
5
39
2
10
48.358529
20
341.244152
11
49.794374
21
340.689034
0
LINE
8
boundary
62
5
39
2
10
49.794374
20
340.689034
11
51.129734
21
340.159486
0
LINE
8
boundary
62
5
39
2
10
51.129734
20
340.159486
11
52.046510
21
339.579767
0
LINE
8
boundary
62
5
39
2
10
52.046510
20
339.579767
11
52.895109
21
339.006041
0
LINE
8
boundary
62
5
39
2
10
52.895109
20
339.006041
11
53.757130
21
338.451996
0
LINE
8
boundary
62
5
39
2
10
53.757130
20
338.451996
11
54.632089
21
337.917270
0
LINE
8
boundary
62
5
39
2
10
54.632089
20
337.917270
11
55.519412
21
337.401958
0
LINE
8
boundary
62
5
39
2
10
55.519412
20
337.401958
11
56.418560
21
336.906081
0
LINE
8
boundary
62
5
39
2
10
56.418560
20
336.906081
11
57.328955
21
336.429682
0
LINE
8
boundary
62
5
39
2
10
57.328955
20
336.429682
11
58.249892
21
335.972684
0
LINE
8
boundary
62
5
39
2
10
58.249892
20
335.972684
11
59.180976
21
335.535111
0
LINE
8
boundary
62
5
39
2
10
59.180976
20
335.535111
11
60.121532
21
335.116845
0
LINE
8
boundary
62
5
39
2
10
60.121532
20
335.116845
11
61.071011
21
334.717952
0
LINE
8
boundary
62
5
39
2
10
61.071011
20
334.717952
11
62.028757
21
334.338466
0
LINE
8
boundary
62
5
39
2
10
62.028757
20
334.338466
11
62.994250
21
333.978397
0
LINE
8
boundary
62
5
39
2
10
62.994250
20
333.978397
11
63.966900
21
333.637592
0
LINE
8
boundary
62
5
39
2
10
63.966900
20
333.637592
11
64.946064
21
333.316132
0
LINE
8
boundary
62
5
39
2
10
64.946064
20
333.316132
11
65.931243
21
333.013899
0
LINE
8
boundary
62
5
39
2
10
65.931243
20
333.013899
11
66.921726
21
332.731082
0
LINE
8
boundary
62
5
39
2
10
66.921726
20
332.731082
11
67.916988
21
332.467589
0
LINE
8
boundary
62
5
39
2
10
67.916988
20
332.467589
11
68.916411
21
332.223286
0
LINE
8
boundary
62
5
39
2
10
68.916411
20
332.223286
11
69.919406
21
331.998280
0
LINE
8
boundary
62
5
39
2
10
69.919406
20
331.998280
11
70.925398
21
331.792535
0
LINE
8
boundary
62
5
39
2
10
70.925398
20
331.792535
11
71.933797
21
331.605885
0
LINE
8
boundary
62
5
39
2
10
71.933797
20
331.605885
11
72.943970
21
331.438686
0
LINE
8
boundary
62
5
39
2
10
72.943970
20
331.438686
11
73.955340
21
331.290538
0
LINE
8
boundary
62
5
39
2
10
73.955340
20
331.290538
11
74.967352
21
331.161578
0
LINE
8
boundary
62
5
39
2
10
74.967352
20
331.161578
11
75.979335
21
331.051852
0
LINE
8
boundary
62
5
39
2
10
75.979335
20
331.051852
11
76.990746
21
330.961308
0
LINE
8
boundary
62
5
39
2
10
76.990746
20
330.961308
11
78.001040
21
330.889856
0
LINE
8
boundary
62
5
39
2
10
78.001040
20
330.889856
11
79.009565
21
330.837545
0
LINE
8
boundary
62
5
39
2
10
79.009565
20
330.837545
11
80.015747
21
330.804375
0
LINE
8
boundary
62
5
39
2
10
80.015747
20
330.804375
11
81.019068
21
330.790227
0
LINE
8
boundary
62
5
39
2
10
81.019068
20
330.790227
11
82.018854
21
330.795327
0
LINE
8
boundary
62
5
39
2
10
82.018854
20
330.795327
11
83.014547
21
330.819406
0
LINE
8
boundary
62
5
39
2
10
83.014547
20
330.819406
11
84.005670
21
330.862443
0
LINE
8
boundary
62
5
39
2
10
84.005670
20
330.862443
11
84.991529
21
330.924637
0
LINE
8
boundary
62
5
39
2
10
84.991529
20
330.924637
11
85.971675
21
331.005843
0
LINE
8
boundary
62
5
39
2
10
85.971675
20
331.005843
11
86.945461
21
331.105957
0
LINE
8
boundary
62
5
39
2
10
86.945461
20
331.105957
11
87.912355
21
331.225066
0
LINE
8
boundary
62
5
39
2
10
87.912355
20
331.225066
11
88.871830
21
331.363156
0
LINE
8
boundary
62
5
39
2
10
88.871830
20
331.363156
11
89.823357
21
331.520224
0
LINE
8
boundary
62
5
39
2
10
89.823357
20
331.520224
11
90.766309
21
331.696288
0
LINE
8
boundary
62
5
39
2
10
90.766309
20
331.696288
11
91.700217
21
331.891040
0
LINE
8
boundary
62
5
39
2
10
91.700217
20
331.891040
11
92.624529
21
332.104920
0
LINE
8
boundary
62
5
39
2
10
92.624529
20
332.104920
11
93.538721
21
332.337599
0
LINE
8
boundary
62
5
39
2
10
93.538721
20
332.337599
11
94.442228
21
332.589214
0
LINE
8
boundary
62
5
39
2
10
94.442228
20
332.589214
11
95.334528
21
332.859515
0
LINE
8
boundary
62
5
39
2
10
95.334528
20
332.859515
11
96.215191
21
333.148819
0
LINE
8
boundary
62
5
39
2
10
96.215191
20
333.148819
11
97.083627
21
333.457025
0
LINE
8
boundary
62
5
39
2
10
97.083627
20
333.457025
11
97.939372
21
333.784004
0
LINE
8
boundary
62
5
39
2
10
97.939372
20
333.784004
11
98.781879
21
334.129894
0
LINE
8
boundary
62
5
39
2
10
98.781879
20
334.129894
11
99.610734
21
334.494447
0
LINE
8
boundary
62
5
39
2
10
99.610734
20
334.494447
11
100.425422
21
334.877886
0
LINE
8
boundary
62
5
39
2
10
100.425422
20
334.877886
11
101.225404
21
335.280095
0
LINE
8
boundary
62
5
39
2
10
101.225404
20
335.280095
11
102.010253
21
335.701133
0
LINE
8
boundary
62
5
39
2
10
102.010253
20
335.701133
11
102.779562
21
336.140950
0
LINE
8
boundary
62
5
39
2
10
102.779562
20
336.140950
11
103.532753
21
336.599430
0
LINE
8
boundary
62
5
39
2
10
103.532753
20
336.599430
11
104.269359
21
337.076955
0
LINE
8
boundary
62
5
39
2
10
104.269359
20
337.076955
11
104.989036
21
337.573089
0
LINE
8
boundary
62
5
39
2
10
104.989036
20
337.573089
11
105.691264
21
338.088000
0
LINE
8
boundary
62
5
39
2
10
105.691264
20
338.088000
11
106.375598
21
338.621691
0
LINE
8
boundary
62
5
39
2
10
106.375598
20
338.621691
11
107.041612
21
339.174214
0
LINE
8
boundary
62
5
39
2
10
107.041612
20
339.174214
11
107.688863
21
339.745484
0
LINE
8
boundary
62
5
39
2
10
107.688863
20
339.745484
11
108.316930
21
340.335638
0
LINE
8
boundary
62
5
39
2
10
108.316930
20
340.335638
11
108.925418
21
340.944432
0
LINE
8
boundary
62
5
39
2
10
108.925418
20
340.944432
11
109.354407
21
341.304119
0
LINE
8
boundary
62
5
39
2
10
109.354407
20
341.304119
11
109.799131
21
341.651754
0
LINE
8
boundary
62
5
39
2
10
109.799131
20
341.651754
11
110.366889
21
342.149565
0
LINE
8
boundary
62
5
39
2
10
110.366889
20
342.149565
11
110.741628
21
342.513198
0
LINE
8
boundary
62
5
39
2
10
110.741628
20
342.513198
11
111.213689
21
343.032570
0
LINE
8
boundary
62
5
39
2
10
111.213689
20
343.032570
11
111.689118
21
343.641270
0
LINE
8
boundary
62
5
39
2
10
111.689118
20
343.641270
11
112.095290
21
344.265393
0
LINE
8
boundary
62
5
39
2
10
112.095290
20
344.265393
11
112.434029
21
344.904479
0
LINE
8
boundary
62
5
39
2
10
112.434029
20
344.904479
11
112.706990
21
345.558553
0
LINE
8
boundary
62
5
39
2
10
112.706990
20
345.558553
11
112.915950
21
346.226676
0
LINE
8
boundary
62
5
39
2
10
112.915950
20
346.226676
11
113.062593
21
346.908693
0
LINE
8
boundary
62
5
39
2
10
113.062593
20
346.908693
11
113.148663
21
347.604073
0
LINE
8
boundary
62
5
39
2
10
113.148663
20
347.604073
11
113.175917
21
348.312506
0
LINE
8
boundary
62
5
39
2
10
113.175917
20
348.312506
11
113.146027
21
349.033463
0
LINE
8
boundary
62
5
39
2
10
113.146027
20
349.033463
11
113.060600
21
349.766544
0
LINE
8
boundary
62
5
39
2
10
113.060600
20
349.766544
11
112.921531
21
350.511386
0
LINE
8
boundary
62
5
39
2
10
112.921531
20
350.511386
11
112.730294
21
351.267437
0
LINE
8
boundary
62
5
39
2
10
112.730294
20
351.267437
11
112.488662
21
352.034408
0
LINE
8
boundary
62
5
39
2
10
112.488662
20
352.034408
11
112.311609
21
352.520942
0
LINE
8
boundary
62
5
39
2
10
112.311609
20
352.520942
11
112.035441
21
353.204106
0
LINE
8
boundary
62
5
39
2
10
112.035441
20
353.204106
11
111.813821
21
353.700439
0
LINE
8
boundary
62
5
39
2
10
111.813821
20
353.700439
11
111.323431
21
354.694776
0
LINE
8
boundary
62
5
39
2
10
111.323431
20
354.694776
11
110.881456
21
355.503749
0
LINE
8
boundary
62
5
39
2
10
110.881456
20
355.503749
11
110.398099
21
356.321202
0
LINE
8
boundary
62
5
39
2
10
110.398099
20
356.321202
11
109.875012
21
357.146767
0
LINE
8
boundary
62
5
39
2
10
109.875012
20
357.146767
11
109.313779
21
357.979955
0
LINE
8
boundary
62
5
39
2
10
109.313779
20
357.979955
11
108.716062
21
358.820352
0
LINE
8
boundary
62
5
39
2
10
108.716062
20
358.820352
11
108.083565
21
359.667479
0
LINE
8
boundary
62
5
39
2
10
108.083565
20
359.667479
11
107.417883
21
360.520928
0
LINE
8
boundary
62
5
39
2
10
107.417883
20
360.520928
11
106.720632
21
361.380435
0
LINE
8
boundary
62
5
39
2
10
106.720632
20
361.380435
11
105.993484
21
362.245035
0
LINE
8
boundary
62
5
39
2
10
105.993484
20
362.245035
11
105.237999
21
363.114976
0
LINE
8
boundary
62
5
39
2
10
105.237999
20
363.114976
11
104.455813
21
363.989317
0
LINE
8
boundary
62
5
39
2
10
104.455813
20
363.989317
11
103.648611
21
364.867759
0
LINE
8
boundary
62
5
39
2
10
103.648611
20
364.867759
11
102.817920
21
365.749921
0
LINE
8
boundary
62
5
39
2
10
102.817920
20
365.749921
11
101.965386
21
366.635235
0
LINE
8
boundary
62
5
39
2
10
101.965386
20
366.635235
11
101.092495
21
367.523435
0
LINE
8
boundary
62
5
39
2
10
101.092495
20
367.523435
11
100.200994
21
368.413697
0
LINE
8
boundary
62
5
39
2
10
100.200994
20
368.413697
11
99.292416
21
369.305946
0
LINE
8
boundary
62
5
39
2
10
99.292416
20
369.305946
11
98.368268
21
370.199528
0
LINE
8
boundary
62
5
39
2
10
98.368268
20
370.199528
11
97.430149
21
371.094039
0
LINE
8
boundary
62
5
39
2
10
97.430149
20
371.094039
11
96.479545
21
371.988990
0
LINE
8
boundary
62
5
39
2
10
96.479545
20
371.988990
11
95.518112
21
372.884103
0
LINE
8
boundary
62
5
39
2
10
95.518112
20
372.884103
11
94.547358
21
373.778543
0
LINE
8
boundary
62
5
39
2
10
94.547358
20
373.778543
11
92.856469
21
375.319274
0
LINE
8
boundary
62
5
39
2
10
92.856469
20
375.319274
11
92.305607
21
375.812508
0
LINE
8
boundary
62
5
39
2
10
92.305607
20
375.812508
11
90.878312
21
377.096805
0
LINE
8
boundary
62
5
39
2
10
90.878312
20
377.096805
11
90.318836
21
377.591503
0
LINE
8
boundary
62
5
39
2
10
90.318836
20
377.591503
11
88.891235
21
378.863186
0
LINE
8
boundary
62
5
39
2
10
88.891235
20
378.863186
11
88.326307
21
379.358157
0
LINE
8
boundary
62
5
39
2
10
88.326307
20
379.358157
11
86.906842
21
380.615053
0
LINE
8
boundary
62
5
39
2
10
86.906842
20
380.615053
11
86.339595
21
381.109461
0
LINE
8
boundary
62
5
39
2
10
86.339595
20
381.109461
11
84.936630
21
382.348389
0
LINE
8
boundary
62
5
39
2
10
84.936630
20
382.348389
11
84.370194
21
382.841139
0
LINE
8
boundary
62
5
39
2
10
84.370194
20
382.841139
11
81.632728
21
385.265348
0
LINE
8
boundary
62
5
39
2
10
81.632728
20
385.265348
11
80.528178
21
386.229666
0
LINE
8
boundary
62
5
39
2
10
80.528178
20
386.229666
11
77.951867
21
388.547819
0
LINE
8
boundary
62
5
39
2
10
77.951867
20
388.547819
11
76.887769
21
389.492587
0
LINE
8
boundary
62
5
39
2
10
76.887769
20
389.492587
11
75.684365
21
390.599379
0
LINE
8
boundary
62
5
39
2
10
75.684365
20
390.599379
11
75.169499
21
391.066884
0
LINE
8
boundary
62
5
39
2
10
75.169499
20
391.066884
11
74.027936
21
392.138880
0
LINE
8
boundary
62
5
39
2
10
74.027936
20
392.138880
11
73.533052
21
392.597731
0
LINE
8
boundary
62
5
39
2
10
73.533052
20
392.597731
11
72.849312
21
393.241115
0
LINE
8
boundary
62
5
39
2
10
72.849312
20
393.241115
11
71.870534
21
394.145622
0
LINE
8
boundary
62
5
39
2
10
71.870534
20
394.145622
11
70.898185
21
395.025872
0
LINE
8
boundary
62
5
39
2
10
70.898185
20
395.025872
11
69.932105
21
395.881854
0
LINE
8
boundary
62
5
39
2
10
69.932105
20
395.881854
11
68.972033
21
396.714214
0
LINE
8
boundary
62
5
39
2
10
68.972033
20
396.714214
11
68.017783
21
397.523032
0
LINE
8
boundary
62
5
39
2
10
68.017783
20
397.523032
11
67.069241
21
398.308827
0
LINE
8
boundary
62
5
39
2
10
67.069241
20
398.308827
11
66.126216
21
399.071820
0
LINE
8
boundary
62
5
39
2
10
66.126216
20
399.071820
11
65.188530
21
399.812510
0
LINE
8
boundary
62
5
39
2
10
65.188530
20
399.812510
11
64.255931
21
400.531160
0
LINE
8
boundary
62
5
39
2
10
64.255931
20
400.531160
11
63.328320
21
401.228181
0
LINE
8
boundary
62
5
39
2
10
63.328320
20
401.228181
11
62.405555
21
401.903819
0
LINE
8
boundary
62
5
39
2
10
62.405555
20
401.903819
11
61.487441
21
402.558482
0
LINE
8
boundary
62
5
39
2
10
61.487441
20
402.558482
11
60.573921
21
403.192382
0
LINE
8
boundary
62
5
39
2
10
60.573921
20
403.192382
11
59.664710
21
403.806167
0
LINE
8
boundary
62
5
39
2
10
59.664710
20
403.806167
11
58.759738
21
404.400120
0
LINE
8
boundary
62
5
39
2
10
58.759738
20
404.400120
11
57.858864
21
404.974452
0
LINE
8
boundary
62
5
39
2
10
57.858864
20
404.974452
11
56.961951
21
405.529623
0
LINE
8
boundary
62
5
39
2
10
56.961951
20
405.529623
11
56.068855
21
406.065978
0
LINE
8
boundary
62
5
39
2
10
56.068855
20
406.065978
11
55.179523
21
406.583973
0
LINE
8
boundary
62
5
39
2
10
55.179523
20
406.583973
11
54.293768
21
407.083780
0
LINE
8
boundary
62
5
39
2
10
54.293768
20
407.083780
11
53.411490
21
407.565958
0
LINE
8
boundary
62
5
39
2
10
53.411490
20
407.565958
11
52.532559
21
408.030738
0
LINE
8
boundary
62
5
39
2
10
52.532559
20
408.030738
11
51.656890
21
408.478736
0
LINE
8
boundary
62
5
39
2
10
51.656890
20
408.478736
11
50.784457
21
408.910061
0
LINE
8
boundary
62
5
39
2
10
50.784457
20
408.910061
11
49.915054
21
409.325238
0
LINE
8
boundary
62
5
39
2
10
49.915054
20
409.325238
11
49.048646
21
409.724525
0
LINE
8
boundary
62
5
39
2
10
49.048646
20
409.724525
11
48.185128
21
410.108397
0
LINE
8
boundary
62
5
39
2
10
48.185128
20
410.108397
11
47.324477
21
410.477148
0
LINE
8
boundary
62
5
39
2
10
47.324477
20
410.477148
11
46.466518
21
410.831162
0
LINE
8
boundary
62
5
39
2
10
46.466518
20
410.831162
11
45.611260
21
411.170987
0
LINE
8
boundary
62
5
39
2
10
45.611260
20
411.170987
11
44.758613
21
411.496892
0
LINE
8
boundary
62
5
39
2
10
44.758613
20
411.496892
11
43.908471
21
411.809254
0
LINE
8
boundary
62
5
39
2
10
43.908471
20
411.809254
11
43.060817
21
412.108426
0
LINE
8
boundary
62
5
39
2
10
43.060817
20
412.108426
11
42.215533
21
412.394850
0
LINE
8
boundary
62
5
39
2
10
42.215533
20
412.394850
11
41.372628
21
412.668957
0
LINE
8
boundary
62
5
39
2
10
41.372628
20
412.668957
11
40.532034
21
412.930945
0
LINE
8
boundary
62
5
39
2
10
40.532034
20
412.930945
11
39.693717
21
413.181464
0
LINE
8
boundary
62
5
39
2
10
39.693717
20
413.181464
11
38.857604
21
413.420646
0
LINE
8
boundary
62
5
39
2
10
38.857604
20
413.420646
11
38.023710
21
413.649067
0
LINE
8
boundary
62
5
39
2
10
38.023710
20
413.649067
11
37.191924
21
413.867047
0
LINE
8
boundary
62
5
39
2
10
37.191924
20
413.867047
11
36.362223
21
414.075021
0
LINE
8
boundary
62
5
39
2
10
36.362223
20
414.075021
11
34.966820
21
414.401499
0
LINE
8
boundary
62
5
39
2
10
34.966820
20
414.401499
11
34.447300
21
414.521336
0
LINE
8
boundary
62
5
39
2
10
34.447300
20
414.521336
11
33.317709
21
414.759665
0
LINE
8
boundary
62
5
39
2
10
33.317709
20
414.759665
11
32.806411
21
414.867350
0
LINE
8
boundary
62
5
39
2
10
32.806411
20
414.867350
11
31.676259
21
415.084966
0
LINE
8
boundary
62
5
39
2
10
31.676259
20
415.084966
11
31.173798
21
415.181583
0
LINE
8
boundary
62
5
39
2
10
31.173798
20
415.181583
11
30.042334
21
415.380707
0
LINE
8
boundary
62
5
39
2
10
30.042334
20
415.380707
11
28.415897
21
415.649927
0
LINE
8
boundary
62
5
39
2
10
28.415897
20
415.649927
11
26.796862
21
415.895887
0
LINE
8
boundary
62
5
39
2
10
26.796862
20
415.895887
11
25.185232
21
416.121910
0
LINE
8
boundary
62
5
39
2
10
25.185232
20
416.121910
11
23.581195
21
416.330990
0
LINE
8
boundary
62
5
39
2
10
23.581195
20
416.330990
11
21.984616
21
416.526557
0
LINE
8
boundary
62
5
39
2
10
21.984616
20
416.526557
11
19.203423
21
416.845356
0
LINE
8
boundary
62
5
39
2
10
19.203423
20
416.845356
11
18.410479
21
416.935335
0
LINE
8
boundary
62
5
39
2
10
18.410479
20
416.935335
11
17.542053
21
411.043345
0
LINE
8
boundary
62
5
39
2
10
17.542053
20
411.043345
11
17.313119
21
409.438164
0
LINE
8
boundary
62
5
39
2
10
17.313119
20
409.438164
11
20.588446
21
409.082633
0
LINE
8
boundary
62
5
39
2
10
20.588446
20
409.082633
11
21.640621
21
408.968376
0
LINE
8
boundary
62
5
39
2
10
21.640621
20
408.968376
11
22.568081
21
408.691113
0
LINE
8
boundary
62
5
39
2
10
22.568081
20
408.691113
11
23.767365
21
408.322066
0
LINE
8
boundary
62
5
39
2
10
23.767365
20
408.322066
11
24.629593
21
408.047663
0
LINE
8
boundary
62
5
39
2
10
24.629593
20
408.047663
11
41.703826
21
408.047663
0
LINE
8
boundary
62
5
39
2
10
41.703826
20
408.047663
11
41.703825
21
405.301663
0
LINE
8
boundary
62
5
39
2
10
41.703825
20
405.301663
11
32.579475
21
405.301663
0
LINE
8
boundary
62
5
39
2
10
32.579475
20
405.301663
11
33.060492
21
404.950262
0
LINE
8
boundary
62
5
39
2
10
33.060492
20
404.950262
11
33.831083
21
404.623498
0
LINE
8
boundary
62
5
39
2
10
33.831083
20
404.623498
11
34.868889
21
404.173449
0
LINE
8
boundary
62
5
39
2
10
34.868889
20
404.173449
11
35.890778
21
403.716096
0
LINE
8
boundary
62
5
39
2
10
35.890778
20
403.716096
11
36.896785
21
403.251474
0
LINE
8
boundary
62
5
39
2
10
36.896785
20
403.251474
11
37.886997
21
402.779919
0
LINE
8
boundary
62
5
39
2
10
37.886997
20
402.779919
11
38.861384
21
402.301718
0
LINE
8
boundary
62
5
39
2
10
38.861384
20
402.301718
11
39.820144
21
401.816677
0
LINE
8
boundary
62
5
39
2
10
39.820144
20
401.816677
11
40.763126
21
401.325013
0
LINE
8
boundary
62
5
39
2
10
40.763126
20
401.325013
11
41.690481
21
400.827020
0
LINE
8
boundary
62
5
39
2
10
41.690481
20
400.827020
11
42.602266
21
400.322814
0
LINE
8
boundary
62
5
39
2
10
42.602266
20
400.322814
11
43.498445
21
399.812538
0
LINE
8
boundary
62
5
39
2
10
43.498445
20
399.812538
11
44.379042
21
399.296273
0
LINE
8
boundary
62
5
39
2
10
44.379042
20
399.296273
11
45.244192
21
398.774236
0
LINE
8
boundary
62
5
39
2
10
45.244192
20
398.774236
11
46.093851
21
398.246608
0
LINE
8
boundary
62
5
39
2
10
46.093851
20
398.246608
11
46.928098
21
397.713241
0
LINE
8
boundary
62
5
39
2
10
46.928098
20
397.713241
11
47.746949
21
397.174704
0
LINE
8
boundary
62
5
39
2
10
47.746949
20
397.174704
11
48.550454
21
396.630897
0
LINE
8
boundary
62
5
39
2
10
48.550454
20
396.630897
11
49.338587
21
396.082053
0
LINE
8
boundary
62
5
39
2
10
49.338587
20
396.082053
11
50.111506
21
395.528168
0
LINE
8
boundary
62
5
39
2
10
50.111506
20
395.528168
11
50.869086
21
394.969630
0
LINE
8
boundary
62
5
39
2
10
50.869086
20
394.969630
11
51.611370
21
394.406474
0
LINE
8
boundary
62
5
39
2
10
51.611370
20
394.406474
11
52.338412
21
393.838727
0
LINE
8
boundary
62
5
39
2
10
52.338412
20
393.838727
11
53.050286
21
393.266692
0
LINE
8
boundary
62
5
39
2
10
53.050286
20
393.266692
11
53.746977
21
392.690506
0
LINE
8
boundary
62
5
39
2
10
53.746977
20
392.690506
11
54.428504
21
392.110218
0
LINE
8
boundary
62
5
39
2
10
54.428504
20
392.110218
11
55.094851
21
391.526064
0
LINE
8
boundary
62
5
39
2
10
55.094851
20
391.526064
11
55.746086
21
390.938090
0
LINE
8
boundary
62
5
39
2
10
55.746086
20
390.938090
11
56.382164
21
390.346573
0
LINE
8
boundary
62
5
39
2
10
56.382164
20
390.346573
11
57.003203
21
389.751434
0
LINE
8
boundary
62
5
39
2
10
57.003203
20
389.751434
11
57.609067
21
389.152980
0
LINE
8
boundary
62
5
39
2
10
57.609067
20
389.152980
11
58.199909
21
388.551345
0
LINE
8
boundary
62
5
39
2
10
58.199909
20
388.551345
11
58.775686
21
387.946707
0
LINE
8
boundary
62
5
39
2
10
58.775686
20
387.946707
11
59.336389
21
387.339150
0
LINE
8
boundary
62
5
39
2
10
59.336389
20
387.339150
11
59.882079
21
386.728750
0
LINE
8
boundary
62
5
39
2
10
59.882079
20
386.728750
11
60.412695
21
386.115923
0
LINE
8
boundary
62
5
39
2
10
60.412695
20
386.115923
11
60.928274
21
385.500285
0
LINE
8
boundary
62
5
39
2
10
60.928274
20
385.500285
11
61.428822
21
384.882449
0
LINE
8
boundary
62
5
39
2
10
61.428822
20
384.882449
11
61.914377
21
384.262277
0
LINE
8
boundary
62
5
39
2
10
61.914377
20
384.262277
11
62.384872
21
383.640225
0
LINE
8
boundary
62
5
39
2
10
62.384872
20
383.640225
11
62.840420
21
383.016129
0
LINE
8
boundary
62
5
39
2
10
62.840420
20
383.016129
11
63.280863
21
382.390317
0
LINE
8
boundary
62
5
39
2
10
63.280863
20
382.390317
11
63.706333
21
381.762696
0
LINE
8
boundary
62
5
39
2
10
63.706333
20
381.762696
11
64.116811
21
381.133645
0
LINE
8
boundary
62
5
39
2
10
64.116811
20
381.133645
11
64.512308
21
380.503199
0
LINE
8
boundary
62
5
39
2
10
64.512308
20
380.503199
11
64.892732
21
379.871447
0
LINE
8
boundary
62
5
39
2
10
64.892732
20
379.871447
11
65.258172
21
379.238669
0
LINE
8
boundary
62
5
39
2
10
65.258172
20
379.238669
11
65.608596
21
378.604784
0
LINE
8
boundary
62
5
39
2
10
65.608596
20
378.604784
11
65.944030
21
377.970240
0
LINE
8
boundary
62
5
39
2
10
65.944030
20
377.970240
11
66.264479
21
377.334784
0
LINE
8
boundary
62
5
39
2
10
66.264479
20
377.334784
11
66.569863
21
376.698904
0
LINE
8
boundary
62
5
39
2
10
66.569863
20
376.698904
11
66.860179
21
376.062583
0
LINE
8
boundary
62
5
39
2
10
66.860179
20
376.062583
11
67.135543
21
375.425864
0
LINE
8
boundary
62
5
39
2
10
67.135543
20
375.425864
11
67.395846
21
374.788962
0
LINE
8
boundary
62
5
39
2
10
67.395846
20
374.788962
11
67.641139
21
374.152021
0
LINE
8
boundary
62
5
39
2
10
67.641139
20
374.152021
11
67.692688
21
373.280696
0
LINE
8
boundary
62
5
39
2
10
67.692688
20
373.280696
11
67.701928
21
372.321457
0
LINE
8
boundary
62
5
39
2
10
67.701928
20
372.321457
11
67.733301
21
371.349548
0
LINE
8
boundary
62
5
39
2
10
67.733301
20
371.349548
11
67.781372
21
370.368535
0
LINE
8
boundary
62
5
39
2
10
67.781372
20
370.368535
11
67.889360
21
368.627916
0
LINE
8
boundary
62
5
39
2
10
67.889360
20
368.627916
11
68.011992
21
366.652939
0
LINE
8
boundary
62
5
39
2
10
68.011992
20
366.652939
11
68.074965
21
365.444630
0
LINE
8
boundary
62
5
39
2
10
68.074965
20
365.444630
11
68.104401
21
364.479691
0
LINE
8
boundary
62
5
39
2
10
68.104401
20
364.479691
11
68.110456
21
363.528921
0
LINE
8
boundary
62
5
39
2
10
68.110456
20
363.528921
11
68.087340
21
362.595870
0
LINE
8
boundary
62
5
39
2
10
68.087340
20
362.595870
11
68.029036
21
361.683896
0
LINE
8
boundary
62
5
39
2
10
68.029036
20
361.683896
11
67.976535
21
361.134915
0
LINE
8
boundary
62
5
39
2
10
67.976535
20
361.134915
11
67.905724
21
360.597510
0
LINE
8
boundary
62
5
39
2
10
67.905724
20
360.597510
11
67.767108
21
359.839696
0
LINE
8
boundary
62
5
39
2
10
67.767108
20
359.839696
11
67.649629
21
359.330404
0
LINE
8
boundary
62
5
39
2
10
67.649629
20
359.330404
11
67.436590
21
358.614772
0
LINE
8
boundary
62
5
39
2
10
67.436590
20
358.614772
11
67.138914
21
357.842627
0
LINE
8
boundary
62
5
39
2
10
67.138914
20
357.842627
11
66.772241
21
357.110139
0
LINE
8
boundary
62
5
39
2
10
66.772241
20
357.110139
11
66.330506
21
356.420278
0
LINE
8
boundary
62
5
39
2
10
66.330506
20
356.420278
11
65.807606
21
355.776531
0
LINE
8
boundary
62
5
39
2
10
65.807606
20
355.776531
11
65.449973
21
355.408532
0
LINE
8
boundary
62
5
39
2
10
65.449973
20
355.408532
11
64.857707
21
354.904650
0
LINE
8
boundary
62
5
39
2
10
64.857707
20
354.904650
11
64.416239
21
354.585395
0
LINE
8
boundary
62
5
39
2
10
64.416239
20
354.585395
11
63.691082
21
354.154887
0
LINE
8
boundary
62
5
39
2
10
63.691082
20
354.154887
11
63.158152
21
353.889031
0
LINE
8
boundary
62
5
39
2
10
63.158152
20
353.889031
11
62.685440
21
353.687047
0
LINE
8
boundary
62
5
39
2
10
62.685440
20
353.687047
11
62.184951
21
353.500546
0
LINE
8
boundary
62
5
39
2
10
62.184951
20
353.500546
11
61.655837
21
353.330493
0
LINE
8
boundary
62
5
39
2
10
61.655837
20
353.330493
11
61.097400
21
353.176871
0
LINE
8
boundary
62
5
39
2
10
61.097400
20
353.176871
11
60.508851
21
353.040214
0
LINE
8
boundary
62
5
39
2
10
60.508851
20
353.040214
11
59.889611
21
352.920969
0
LINE
8
boundary
62
5
39
2
10
59.889611
20
352.920969
11
59.366741
21
352.839619
0
LINE
8
boundary
62
5
39
2
10
59.366741
20
352.839619
11
58.688880
21
352.752670
0
LINE
8
boundary
62
5
39
2
10
58.688880
20
352.752670
11
57.978090
21
352.684460
0
LINE
8
boundary
62
5
39
2
10
57.978090
20
352.684460
11
57.233661
21
352.635303
0
LINE
8
boundary
62
5
39
2
10
57.233661
20
352.635303
11
56.454947
21
352.605677
0
LINE
8
boundary
62
5
39
2
10
56.454947
20
352.605677
11
55.641275
21
352.596031
0
LINE
8
boundary
62
5
39
2
10
55.641275
20
352.596031
11
54.791879
21
352.606856
0
LINE
8
boundary
62
5
39
2
10
54.791879
20
352.606856
11
53.906105
21
352.638390
0
LINE
8
boundary
62
5
39
2
10
53.906105
20
352.638390
11
52.983337
21
352.691311
0
LINE
8
boundary
62
5
39
2
10
52.983337
20
352.691311
11
52.022923
21
352.765907
0
LINE
8
boundary
62
5
39
2
10
52.022923
20
352.765907
11
50.435634
21
353.284850
0
LINE
8
boundary
62
5
39
2
10
50.435634
20
353.284850
11
48.759854
21
353.868995
0
LINE
8
boundary
62
5
39
2
10
48.759854
20
353.868995
11
47.122969
21
354.422541
0
LINE
8
boundary
62
5
39
2
10
47.122969
20
354.422541
11
45.515924
21
354.945811
0
LINE
8
boundary
62
5
39
2
10
45.515924
20
354.945811
11
43.929733
21
355.439392
0
LINE
8
boundary
62
5
39
2
10
43.929733
20
355.439392
11
42.355224
21
355.903705
0
LINE
8
boundary
62
5
39
2
10
42.355224
20
355.903705
11
40.783545
21
356.339371
0
LINE
8
boundary
62
5
39
2
10
40.783545
20
356.339371
11
39.205534
21
356.746968
0
LINE
8
boundary
62
5
39
2
10
39.205534
20
356.746968
11
37.612097
21
357.126959
0
LINE
8
boundary
62
5
39
2
10
37.612097
20
357.126959
11
35.994207
21
357.479953
0
LINE
8
boundary
62
5
39
2
10
35.994207
20
357.479953
11
34.342778
21
357.806317
0
LINE
8
boundary
62
5
39
2
10
34.342778
20
357.806317
11
32.648647
21
358.106745
0
LINE
8
boundary
62
5
39
2
10
32.648647
20
358.106745
11
30.902351
21
358.381850
0
LINE
8
boundary
62
5
39
2
10
30.902351
20
358.381850
11
29.094617
21
358.631947
0
LINE
8
boundary
62
5
39
2
10
29.094617
20
358.631947
11
27.215824
21
358.857829
0
LINE
8
boundary
62
5
39
2
10
27.215824
20
358.857829
11
25.256156
21
359.059723
0
LINE
8
boundary
62
5
39
2
10
25.256156
20
359.059723
11
23.823401
21
345.018281
0
LINE
8
boundary
62
5
39
2
10
23.823401
20
345.018281
11
23.314175
21
340.091668
0
LINE
8
boundary
62
5
39
2
10
23.314175
20
340.091668
11
25.425658
21
331.827722
0
LINE
8
boundary
62
5
39
2
10
25.425658
20
331.827722
11
27.145155
21
324.986202
0
LINE
8
boundary
62
5
39
2
10
27.145155
20
324.986202
11
36.759377
21
324.836204
0
LINE
8
boundary
62
5
39
2
10
36.759377
20
324.836204
11
36.759377
21
322.090204
0
LINE
8
boundary
62
5
39
2
10
36.759377
20
322.090204
11
27.921013
21
322.090204
0
LINE
8
boundary
62
5
39
2
10
27.921013
20
322.090204
11
32.083992
21
305.335591
0
LINE
8
boundary
62
5
39
2
10
32.083992
20
305.335591
11
32.516433
21
303.599670
0
LINE
8
boundary
62
5
39
2
10
32.516433
20
303.599670
11
33.158546
21
301.557641
0
LINE
8
boundary
62
5
39
2
10
33.158546
20
301.557641
11
33.796183
21
299.418503
0
LINE
8
boundary
62
5
39
2
10
33.796183
20
299.418503
11
34.399982
21
297.272169
0
LINE
8
boundary
62
5
39
2
10
34.399982
20
297.272169
11
34.969607
21
295.119073
0
LINE
8
boundary
62
5
39
2
10
34.969607
20
295.119073
11
35.505496
21
292.959136
0
LINE
8
boundary
62
5
39
2
10
35.505496
20
292.959136
11
36.007581
21
290.792653
0
LINE
8
boundary
62
5
39
2
10
36.007581
20
290.792653
11
36.475949
21
288.619598
0
LINE
8
boundary
62
5
39
2
10
36.475949
20
288.619598
11
36.910521
21
286.440335
0
LINE
8
boundary
62
5
39
2
10
36.910521
20
286.440335
11
37.311597
21
284.254752
0
LINE
8
boundary
62
5
39
2
10
37.311597
20
284.254752
11
37.679180
21
282.063183
0
LINE
8
boundary
62
5
39
2
10
37.679180
20
282.063183
11
38.013354
21
279.865707
0
LINE
8
boundary
62
5
39
2
10
38.013354
20
279.865707
11
38.314253
21
277.662358
0
LINE
8
boundary
62
5
39
2
10
38.314253
20
277.662358
11
38.582021
21
275.453309
0
LINE
8
boundary
62
5
39
2
10
38.582021
20
275.453309
11
38.816791
21
273.238557
0
LINE
8
boundary
62
5
39
2
10
38.816791
20
273.238557
11
39.018640
21
271.018400
0
LINE
8
boundary
62
5
39
2
10
39.018640
20
271.018400
11
39.187649
21
268.792738
0
LINE
8
boundary
62
5
39
2
10
39.187649
20
268.792738
11
39.324159
21
266.561984
0
LINE
8
boundary
62
5
39
2
10
39.324159
20
266.561984
11
39.428209
21
264.326029
0
LINE
8
boundary
62
5
39
2
10
39.428209
20
264.326029
11
39.499886
21
262.084984
0
LINE
8
boundary
62
5
39
2
10
39.499886
20
262.084984
11
39.539674
21
259.838855
0
LINE
8
boundary
62
5
39
2
10
39.539674
20
259.838855
11
39.547444
21
257.588013
0
LINE
8
boundary
62
5
39
2
10
39.547444
20
257.588013
11
39.523548
21
255.332220
0
LINE
8
boundary
62
5
39
2
10
39.523548
20
255.332220
11
39.468123
21
253.071855
0
LINE
8
boundary
62
5
39
2
10
39.468123
20
253.071855
11
39.381507
21
250.806941
0
LINE
8
boundary
62
5
39
2
10
39.381507
20
250.806941
11
39.263827
21
248.537568
0
LINE
8
boundary
62
5
39
2
10
39.263827
20
248.537568
11
39.115461
21
246.263826
0
LINE
8
boundary
62
5
39
2
10
39.115461
20
246.263826
11
38.936516
21
243.985830
0
LINE
8
boundary
62
5
39
2
10
38.936516
20
243.985830
11
38.727419
21
241.703600
0
LINE
8
boundary
62
5
39
2
10
38.727419
20
241.703600
11
38.488376
21
239.417443
0
LINE
8
boundary
62
5
39
2
10
38.488376
20
239.417443
11
38.219666
21
237.127355
0
LINE
8
boundary
62
5
39
2
10
38.219666
20
237.127355
11
37.921602
21
234.833394
0
LINE
8
boundary
62
5
39
2
10
37.921602
20
234.833394
11
37.594665
21
232.535735
0
LINE
8
boundary
62
5
39
2
10
37.594665
20
232.535735
11
37.239028
21
230.234445
0
LINE
8
boundary
62
5
39
2
10
37.239028
20
230.234445
11
36.855122
21
227.929812
0
LINE
8
boundary
62
5
39
2
10
36.855122
20
227.929812
11
36.443317
21
225.621804
0
LINE
8
boundary
62
5
39
2
10
36.443317
20
225.621804
11
36.003946
21
223.310634
0
LINE
8
boundary
62
5
39
2
10
36.003946
20
223.310634
11
35.537447
21
220.996368
0
LINE
8
boundary
62
5
39
2
10
35.537447
20
220.996368
11
35.044314
21
218.679293
0
LINE
8
boundary
62
5
39
2
10
35.044314
20
218.679293
11
34.524914
21
216.359372
0
LINE
8
boundary
62
5
39
2
10
34.524914
20
216.359372
11
33.979663
21
214.036976
0
LINE
8
boundary
62
5
39
2
10
33.979663
20
214.036976
11
33.409080
21
211.712078
0
LINE
8
boundary
62
5
39
2
10
33.409080
20
211.712078
11
32.813626
21
209.385100
0
LINE
8
boundary
62
5
39
2
10
32.813626
20
209.385100
11
32.193856
21
207.055904
0
LINE
8
boundary
62
5
39
2
10
32.193856
20
207.055904
11
31.550195
21
204.724880
0
LINE
8
boundary
62
5
39
2
10
31.550195
20
204.724880
11
30.883215
21
202.392255
0
LINE
8
boundary
62
5
39
2
10
30.883215
20
202.392255
11
30.193428
21
200.058122
0
LINE
8
boundary
62
5
39
2
10
30.193428
20
200.058122
11
29.481451
21
197.722762
0
LINE
8
boundary
62
5
39
2
10
29.481451
20
197.722762
11
28.747816
21
195.386360
0
LINE
8
boundary
62
5
39
2
10
28.747816
20
195.386360
11
27.993248
21
193.049209
0
LINE
8
boundary
62
5
39
2
10
27.993248
20
193.049209
11
27.218191
21
190.711548
0
LINE
8
boundary
62
5
39
2
10
27.218191
20
190.711548
11
26.423256
21
188.373596
0
LINE
8
boundary
62
5
39
2
10
26.423256
20
188.373596
11
26.110083
21
187.473915
0
LINE
8
boundary
62
5
39
2
10
26.110083
20
187.473915
11
25.597402
21
186.050331
0
LINE
8
boundary
62
5
39
2
10
25.597402
20
186.050331
11
24.745572
21
183.737948
0
LINE
8
boundary
62
5
39
2
10
24.745572
20
183.737948
11
23.875994
21
181.427589
0
LINE
8
boundary
62
5
39
2
10
23.875994
20
181.427589
11
22.989638
21
179.119596
0
LINE
8
boundary
62
5
39
2
10
22.989638
20
179.119596
11
22.087195
21
176.814413
0
LINE
8
boundary
62
5
39
2
10
22.087195
20
176.814413
11
21.169537
21
174.512358
0
LINE
8
boundary
62
5
39
2
10
21.169537
20
174.512358
11
20.237256
21
172.213825
0
LINE
8
boundary
62
5
39
2
10
20.237256
20
172.213825
11
18.332688
21
167.629036
0
LINE
8
boundary
62
5
39
2
10
18.332688
20
167.629036
11
18.067738
21
167.012562
0
LINE
8
boundary
62
5
39
2
10
18.067738
20
167.012562
11
16.380142
21
163.063530
0
LINE
8
boundary
62
5
39
2
10
16.380142
20
163.063530
11
16.023806
21
162.255432
0
LINE
8
boundary
62
5
39
2
10
16.023806
20
162.255432
11
14.386743
21
158.520979
0
LINE
8
boundary
62
5
39
2
10
14.386743
20
158.520979
11
14.143017
21
157.496891
0
LINE
8
boundary
62
5
39
2
10
14.143017
20
157.496891
11
13.270986
21
153.804447
0
LINE
8
boundary
62
5
39
2
10
13.270986
20
153.804447
11
12.996230
21
152.612541
0
LINE
8
boundary
62
5
39
2
10
12.996230
20
152.612541
11
12.151223
21
148.916186
0
LINE
8
boundary
62
5
39
2
10
12.151223
20
148.916186
11
12.004019
21
148.252884
0
LINE
8
boundary
62
5
39
2
10
12.004019
20
148.252884
11
11.598896
21
146.410749
0
LINE
8
boundary
62
5
39
2
10
11.598896
20
146.410749
11
11.446899
21
145.702197
0
LINE
8
boundary
62
5
39
2
10
11.446899
20
145.702197
11
11.056665
21
143.866137
0
LINE
8
boundary
62
5
39
2
10
11.056665
20
143.866137
11
10.901238
21
143.111809
0
LINE
8
boundary
62
5
39
2
10
10.901238
20
143.111809
11
10.528275
21
141.283717
0
LINE
8
boundary
62
5
39
2
10
10.528275
20
141.283717
11
10.371056
21
140.483532
0
LINE
8
boundary
62
5
39
2
10
10.371056
20
140.483532
11
10.017508
21
138.664897
0
LINE
8
boundary
62
5
39
2
10
10.017508
20
138.664897
11
9.860418
21
137.819202
0
LINE
8
boundary
62
5
39
2
10
9.860418
20
137.819202
11
9.528213
21
136.011010
0
LINE
8
boundary
62
5
39
2
10
9.528213
20
136.011010
11
9.373281
21
135.120806
0
LINE
8
boundary
62
5
39
2
10
9.373281
20
135.120806
11
9.064209
21
133.323632
0
LINE
8
boundary
62
5
39
2
10
9.064209
20
133.323632
11
8.913709
21
132.390495
0
LINE
8
boundary
62
5
39
2
10
8.913709
20
132.390495
11
8.629318
21
130.604270
0
LINE
8
boundary
62
5
39
2
10
8.629318
20
130.604270
11
8.485781
21
129.630429
0
LINE
8
boundary
62
5
39
2
10
8.485781
20
129.630429
11
8.227655
21
127.854451
0
LINE
8
boundary
62
5
39
2
10
8.227655
20
127.854451
11
8.093539
21
126.842870
0
LINE
8
boundary
62
5
39
2
10
8.093539
20
126.842870
11
7.862898
21
125.075839
0
LINE
8
boundary
62
5
39
2
10
7.862898
20
125.075839
11
7.740898
21
124.030205
0
LINE
8
boundary
62
5
39
2
10
7.740898
20
124.030205
11
7.539105
21
122.270130
0
LINE
8
boundary
62
5
39
2
10
7.539105
20
122.270130
11
7.431875
21
121.194970
0
LINE
8
boundary
62
5
39
2
10
7.431875
20
121.194970
11
7.260317
21
119.439156
0
LINE
8
boundary
62
5
39
2
10
7.260317
20
119.439156
11
7.170378
21
118.339665
0
LINE
8
boundary
62
5
39
2
10
7.170378
20
118.339665
11
7.030324
21
116.584707
0
LINE
8
boundary
62
5
39
2
10
7.030324
20
116.584707
11
6.960097
21
115.466915
0
LINE
8
boundary
62
5
39
2
10
6.960097
20
115.466915
11
6.853164
21
113.708760
0
LINE
8
boundary
62
5
39
2
10
6.853164
20
113.708760
11
6.804865
21
112.579258
0
LINE
8
boundary
62
5
39
2
10
6.804865
20
112.579258
11
6.732834
21
110.813237
0
LINE
8
boundary
62
5
39
2
10
6.732834
20
110.813237
11
6.708286
21
109.679388
0
LINE
8
boundary
62
5
39
2
10
6.708286
20
109.679388
11
6.673254
21
107.900264
0
LINE
8
boundary
62
5
39
2
10
6.673254
20
107.900264
11
6.670354
21
107.334915
0
LINE
8
boundary
62
5
39
2
10
6.670354
20
107.334915
11
6.667500
21
106.437962
0
LINE
8
boundary
62
5
39
2
10
6.667500
20
106.437962
11
6.671022
21
105.874435
0
LINE
8
boundary
62
5
39
2
10
6.671022
20
105.874435
11
6.678364
21
104.972105
0
LINE
8
boundary
62
5
39
2
10
6.678364
20
104.972105
11
6.688452
21
104.411432
0
LINE
8
boundary
62
5
39
2
10
6.688452
20
104.411432
11
6.706540
21
103.502980
0
LINE
8
boundary
62
5
39
2
10
6.706540
20
103.502980
11
6.723158
21
102.946266
0
LINE
8
boundary
62
5
39
2
10
6.723158
20
102.946266
11
6.752240
21
102.030970
0
LINE
8
boundary
62
5
39
2
10
6.752240
20
102.030970
11
6.775477
21
101.479285
0
LINE
8
boundary
62
5
39
2
10
6.775477
20
101.479285
11
6.816098
21
100.556376
0
LINE
8
boundary
62
5
39
2
10
6.816098
20
100.556376
11
6.845924
21
100.010771
0
LINE
8
boundary
62
5
39
2
10
6.845924
20
100.010771
11
6.898592
21
99.079397
0
LINE
8
boundary
62
5
39
2
10
6.898592
20
99.079397
11
6.934996
21
98.540999
0
LINE
8
boundary
62
5
39
2
10
6.934996
20
98.540999
11
7.000375
21
97.600432
0
LINE
8
boundary
62
5
39
2
10
7.000375
20
97.600432
11
7.043158
21
97.070306
0
LINE
8
boundary
62
5
39
2
10
7.043158
20
97.070306
11
7.121675
21
96.119754
0
LINE
8
boundary
62
5
39
2
10
7.121675
20
96.119754
11
7.170722
21
95.599020
0
LINE
8
boundary
62
5
39
2
10
7.170722
20
95.599020
11
7.263026
21
94.637823
0
LINE
8
boundary
62
5
39
2
10
7.263026
20
94.637823
11
7.318083
21
94.127479
0
LINE
8
boundary
62
5
39
2
10
7.318083
20
94.127479
11
7.424820
21
93.154772
0
LINE
8
boundary
62
5
39
2
10
7.424820
20
93.154772
11
7.607777
21
91.671182
0
LINE
8
boundary
62
5
39
2
10
7.607777
20
91.671182
11
7.812288
21
90.187313
0
LINE
8
boundary
62
5
39
2
10
7.812288
20
90.187313
11
8.038740
21
88.703495
0
LINE
8
boundary
62
5
39
2
10
8.038740
20
88.703495
11
8.287709
21
87.220100
0
LINE
8
boundary
62
5
39
2
10
8.287709
20
87.220100
11
8.559544
21
85.737603
0
LINE
8
boundary
62
5
39
2
10
8.559544
20
85.737603
11
8.854677
21
84.256351
0
LINE
8
boundary
62
5
39
2
10
8.854677
20
84.256351
11
9.173886
21
82.776770
0
LINE
8
boundary
62
5
39
2
10
9.173886
20
82.776770
11
9.517317
21
81.299221
0
LINE
8
boundary
62
5
39
2
10
9.517317
20
81.299221
11
9.885382
21
79.824194
0
LINE
8
boundary
62
5
39
2
10
9.885382
20
79.824194
11
10.278724
21
78.352136
0
LINE
8
boundary
62
5
39
2
10
10.278724
20
78.352136
11
10.697619
21
76.883387
0
LINE
8
boundary
62
5
39
2
10
10.697619
20
76.883387
11
11.142801
21
75.418515
0
LINE
8
boundary
62
5
39
2
10
11.142801
20
75.418515
11
11.614370
21
73.957996
0
LINE
8
boundary
62
5
39
2
10
11.614370
20
73.957996
11
12.112880
21
72.502195
0
LINE
8
boundary
62
5
39
2
10
12.112880
20
72.502195
11
12.638728
21
71.051736
0
LINE
8
boundary
62
5
39
2
10
12.638728
20
71.051736
11
13.192397
21
69.607054
0
LINE
8
boundary
62
5
39
2
10
13.192397
20
69.607054
11
13.361216
21
68.989957
0
LINE
8
boundary
62
5
39
2
10
13.361216
20
68.989957
11
14.373872
21
65.321212
0
LINE
8
boundary
62
5
39
2
10
14.373872
20
65.321212
11
14.516425
21
64.801259
0
LINE
8
boundary
62
5
39
2
10
14.516425
20
64.801259
11
15.623334
21
60.802953
0
LINE
8
boundary
62
5
39
2
10
15.623334
20
60.802953
11
16.287694
21
58.472252
0
LINE
8
boundary
62
5
39
2
10
16.287694
20
58.472252
11
16.986149
21
56.102550
0
LINE
8
boundary
62
5
39
2
10
16.986149
20
56.102550
11
17.724012
21
53.700561
0
LINE
8
boundary
62
5
39
2
10
17.724012
20
53.700561
11
18.506960
21
51.273150
0
LINE
8
boundary
62
5
39
2
10
18.506960
20
51.273150
11
19.340472
21
48.827474
0
LINE
8
boundary
62
5
39
2
10
19.340472
20
48.827474
11
20.230007
21
46.370833
0
LINE
8
boundary
62
5
39
2
10
20.230007
20
46.370833
11
20.491504
21
45.694266
0
LINE
8
boundary
62
5
39
2
10
20.491504
20
45.694266
11
21.150844
21
43.932856
0
LINE
8
boundary
62
5
39
2
10
21.150844
20
43.932856
11
21.637635
21
42.697778
0
LINE
8
boundary
62
5
39
2
10
21.637635
20
42.697778
11
22.136800
21
41.477203
0
LINE
8
boundary
62
5
39
2
10
22.136800
20
41.477203
11
22.653629
21
40.259472
0
LINE
8
boundary
62
5
39
2
10
22.653629
20
40.259472
11
23.188594
21
39.045616
0
LINE
8
boundary
62
5
39
2
10
23.188594
20
39.045616
11
23.742606
21
37.836655
0
LINE
8
boundary
62
5
39
2
10
23.742606
20
37.836655
11
24.316191
21
36.633577
0
LINE
8
boundary
62
5
39
2
10
24.316191
20
36.633577
11
24.910047
21
35.437393
0
LINE
8
boundary
62
5
39
2
10
24.910047
20
35.437393
11
25.524758
21
34.249235
0
LINE
8
boundary
62
5
39
2
10
25.524758
20
34.249235
11
26.160946
21
33.070071
0
LINE
8
boundary
62
5
39
2
10
26.160946
20
33.070071
11
26.819273
21
31.900990
0
LINE
8
boundary
62
5
39
2
10
26.819273
20
31.900990
11
27.500431
21
30.743196
0
LINE
8
boundary
62
5
39
2
10
27.500431
20
30.743196
11
28.205109
21
29.597698
0
LINE
8
boundary
62
5
39
2
10
28.205109
20
29.597698
11
28.933774
21
28.465610
0
LINE
8
boundary
62
5
39
2
10
28.933774
20
28.465610
11
29.687002
21
27.348099
0
LINE
8
boundary
62
5
39
2
10
29.687002
20
27.348099
11
30.465655
21
26.246327
0
LINE
8
boundary
62
5
39
2
10
30.465655
20
26.246327
11
31.270174
21
25.161417
0
LINE
8
boundary
62
5
39
2
10
31.270174
20
25.161417
11
32.101275
21
24.094631
0
LINE
8
boundary
62
5
39
2
10
32.101275
20
24.094631
11
32.959541
21
23.047098
0
LINE
8
boundary
62
5
39
2
10
32.959541
20
23.047098
11
33.845396
21
22.019948
0
LINE
8
boundary
62
5
39
2
10
33.845396
20
22.019948
11
33.955981
21
21.893404
0
LINE
8
annotation
62
1
39
211
10
43.419477
20
321.063204
11
43.419477
21
325.863204
0
LINE
8
annotation
62
1
39
211
10
43.419477
20
325.863204
11
42.352375
21
324.795801
0
LINE
8
annotation
62
1
39
211
10
48.556936
20
404.389843
11
46.527483
21
404.389843
0
LINE
8
annotation
62
1
39
211
10
46.527483
20
404.389843
11
48.402764
21
407.408806
0
LINE
8
annotation
62
1
39
211
10
48.402764
20
407.408806
11
48.402764
21
407.408806
0
LINE
8
annotation
62
1
39
211
10
48.402764
20
407.408806
11
48.405006
21
407.411580
0
LINE
8
annotation
62
1
39
211
10
48.405006
20
407.411580
11
48.407156
21
407.414377
0
LINE
8
annotation
62
1
39
211
10
48.407156
20
407.414377
11
48.409228
21
407.417222
0
LINE
8
annotation
62
1
39
211
10
48.409228
20
407.417222
11
48.411236
21
407.420138
0
LINE
8
annotation
62
1
39
211
10
48.411236
20
407.420138
11
48.413195
21
407.423148
0
LINE
8
annotation
62
1
39
211
10
48.413195
20
407.423148
11
48.415118
21
407.426275
0
LINE
8
annotation
62
1
39
211
10
48.415118
20
407.426275
11
48.417021
21
407.429545
0
LINE
8
annotation
62
1
39
211
10
48.417021
20
407.429545
11
48.418916
21
407.432979
0
LINE
8
annotation
62
1
39
211
10
48.418916
20
407.432979
11
48.420818
21
407.436602
0
LINE
8
annotation
62
1
39
211
10
48.420818
20
407.436602
11
48.420818
21
407.436602
0
LINE
8
annotation
62
1
39
211
10
48.420818
20
407.436602
11
48.498248
21
407.602851
0
LINE
8
annotation
62
1
39
211
10
48.498248
20
407.602851
11
48.543481
21
407.775182
0
LINE
8
annotation
62
1
39
211
10
48.543481
20
407.775182
11
48.557626
21
407.949702
0
LINE
8
annotation
62
1
39
211
10
48.557626
20
407.949702
11
48.541792
21
408.122517
0
LINE
8
annotation
62
1
39
211
10
48.541792
20
408.122517
11
48.497086
21
408.289733
0
LINE
8
annotation
62
1
39
211
10
48.497086
20
408.289733
11
48.424618
21
408.447455
0
LINE
8
annotation
62
1
39
211
10
48.424618
20
408.447455
11
48.325495
21
408.591790
0
LINE
8
annotation
62
1
39
211
10
48.325495
20
408.591790
11
48.200827
21
408.718844
0
LINE
8
annotation
62
1
39
211
10
48.200827
20
408.718844
11
48.051722
21
408.824723
0
LINE
8
annotation
62
1
39
211
10
48.051722
20
408.824723
11
48.051722
21
408.824723
0
LINE
8
annotation
62
1
39
211
10
48.051722
20
408.824723
11
47.885011
21
408.901053
0
LINE
8
annotation
62
1
39
211
10
47.885011
20
408.901053
11
47.712416
21
408.945589
0
LINE
8
annotation
62
1
39
211
10
47.712416
20
408.945589
11
47.537794
21
408.959335
0
LINE
8
annotation
62
1
39
211
10
47.537794
20
408.959335
11
47.365006
21
408.943291
0
LINE
8
annotation
62
1
39
211
10
47.365006
20
408.943291
11
47.197908
21
408.898462
0
LINE
8
annotation
62
1
39
211
10
47.197908
20
408.898462
11
47.040360
21
408.825848
0
LINE
8
annotation
62
1
39
211
10
47.040360
20
408.825848
11
46.896221
21
408.726454
0
LINE
8
annotation
62
1
39
211
10
46.896221
20
408.726454
11
46.769348
21
408.601280
0
LINE
8
annotation
62
1
39
211
10
46.769348
20
408.601280
11
46.663601
21
408.451329
0
LINE
8
annotation
62
1
39
211
10
46.663601
20
408.451329
11
46.530349
21
408.195713
0
LINE
8
annotation
62
1
39
211
10
81.189028
20
346.921486
11
78.725940
21
343.358854
0
LINE
8
annotation
62
1
39
211
10
78.725940
20
343.358854
11
76.262389
21
346.921486
0
LINE
8
annotation
62
1
39
211
10
78.725940
20
343.645550
11
78.725940
21
339.535463
0
LINE
8
annotation
62
1
39
211
10
87.997837
20
343.228474
11
83.959539
21
343.228474
0
LINE
8
annotation
62
1
39
211
10
94.867551
20
341.177599
11
90.766727
21
341.177599
0
LINE
8
annotation
62
1
39
211
10
90.766727
20
341.177599
11
92.404463
21
346.921254
0
LINE
8
annotation
62
1
39
211
10
93.638323
20
339.535695
11
93.638323
21
342.815798
0
LINE
8
frame
62
5
39
2
10
0.000000
20
0.000000
11
215.900000
21
0.000000
0
LINE
8
frame
62
5
39
2
10
215.900000
20
0.000000
11
215.900000
21
279.400000
0
LINE
8
frame
62
5
39
2
10
215.900000
20
279.400000
11
0.000000
21
279.400000
0
LINE
8
frame
62
5
39
2
10
0.000000
20
279.400000
11
0.000000
21
0.000000
0
ENDSEC
0
EOF
