0
SECTION
2
HEADER
9
$ACADVER
1
AC1009
0
ENDSEC
0
SECTION
2
TABLES
0
TABLE
2
VPORT
70
1
0
VPORT
2
ACTIVE
70
0
10
0.0
20
0.0
11
0.0
21
0.0
12
0.0
22
0.0
13
0.0
23
0.0
14
0.0
24
0.0
15
0.0
25
0.0
16
0.0
26
0.0
36
0.0
17
0.0
27
0.0
37
0.0
40
0.0
41
0.0
42
0.0
43
0.0
44
0.0
50
0.0
51
0.0
71
0
72
1000
73
1
74
3
75
0
76
0
77
0
78
0
0
ENDTAB
0
ENDSEC
0
SECTION
2
ENTITIES
0
LINE
8
hole
62
5
39
2
10
69.311826
20
34.784341
11
59.589081
21
38.332531
0
LINE
8
hole
62
5
39
2
10
59.589081
20
38.332531
11
50.709359
21
44.013439
0
LINE
8
hole
62
5
39
2
10
50.709359
20
44.013439
11
43.291911
21
51.493606
0
LINE
8
hole
62
5
39
2
10
43.291911
20
51.493606
11
37.635956
21
60.452574
0
LINE
8
hole
62
5
39
2
10
37.635956
20
60.452574
11
34.013166
21
70.580945
0
LINE
8
hole
62
5
39
2
10
34.013166
20
70.580945
11
32.676202
21
81.655398
0
LINE
8
hole
62
5
39
2
10
32.676202
20
81.655398
11
32.619245
21
82.164223
0
LINE
8
hole
62
5
39
2
10
32.619245
20
82.164223
11
33.822552
21
92.756105
0
LINE
8
hole
62
5
39
2
10
33.822552
20
92.756105
11
33.887211
21
93.325040
0
LINE
8
hole
62
5
39
2
10
33.887211
20
93.325040
11
37.260565
21
102.943811
0
LINE
8
hole
62
5
39
2
10
37.260565
20
102.943811
11
37.462856
21
103.520027
0
LINE
8
hole
62
5
39
2
10
37.462856
20
103.520027
11
42.732418
21
111.970180
0
LINE
8
hole
62
5
39
2
10
42.732418
20
111.970180
11
43.084427
21
112.534242
0
LINE
8
hole
62
5
39
2
10
43.084427
20
112.534242
11
49.976499
21
119.560109
0
LINE
8
hole
62
5
39
2
10
49.976499
20
119.560109
11
50.473722
21
120.066519
0
LINE
8
hole
62
5
39
2
10
50.473722
20
120.066519
11
58.705979
21
125.399545
0
LINE
8
hole
62
5
39
2
10
58.705979
20
125.399545
11
59.328318
21
125.802405
0
LINE
8
hole
62
5
39
2
10
59.328318
20
125.802405
11
68.644535
21
129.194118
0
LINE
8
hole
62
5
39
2
10
68.644535
20
129.194118
11
69.355804
21
129.452904
0
LINE
8
hole
62
5
39
2
10
69.355804
20
129.452904
11
79.592203
21
130.655978
0
LINE
8
hole
62
5
39
2
10
79.592203
20
130.655978
11
80.346799
21
130.744592
0
LINE
8
hole
62
5
39
2
10
80.346799
20
130.744592
11
90.653673
21
129.543517
0
LINE
8
hole
62
5
39
2
10
90.653673
20
129.543517
11
91.353679
21
129.461945
0
LINE
8
hole
62
5
39
2
10
91.353679
20
129.461945
11
100.848085
21
126.025218
0
LINE
8
hole
62
5
39
2
10
100.848085
20
126.025218
11
101.422800
21
125.817239
0
LINE
8
hole
62
5
39
2
10
101.422800
20
125.817239
11
109.880824
21
120.374221
0
LINE
8
hole
62
5
39
2
10
109.880824
20
120.374221
11
110.334474
21
120.082395
0
LINE
8
hole
62
5
39
2
10
110.334474
20
120.082395
11
117.452147
21
112.884593
0
LINE
8
hole
62
5
39
2
10
117.452147
20
112.884593
11
123.234272
21
103.886163
0
LINE
8
hole
62
5
39
2
10
123.234272
20
103.886163
11
126.937900
21
93.697111
0
LINE
8
hole
62
5
39
2
10
126.937900
20
93.697111
11
128.300216
21
82.535629
0
LINE
8
hole
62
5
39
2
10
128.300216
20
82.535629
11
127.109825
21
71.344548
0
LINE
8
hole
62
5
39
2
10
127.109825
20
71.344548
11
123.570037
21
61.092840
0
LINE
8
hole
62
5
39
2
10
123.570037
20
61.092840
11
117.954826
21
52.018910
0
LINE
8
hole
62
5
39
2
10
117.954826
20
52.018910
11
110.549478
21
44.416669
0
LINE
8
hole
62
5
39
2
10
110.549478
20
44.416669
11
101.671377
21
38.609331
0
LINE
8
hole
62
5
39
2
10
101.671377
20
38.609331
11
91.626871
21
34.888577
0
LINE
8
hole
62
5
39
2
10
91.626871
20
34.888577
11
80.640578
21
33.529209
0
LINE
8
hole
62
5
39
2
10
80.640578
20
33.529209
11
69.644847
21
34.745233
0
LINE
8
hole
62
5
39
2
10
69.644847
20
34.745233
11
69.311826
21
34.784341
0
LINE
8
boundary
62
5
39
2
10
47.761464
20
14.381235
11
50.338565
21
13.435352
0
LINE
8
boundary
62
5
39
2
10
50.338565
20
13.435352
11
60.970419
21
9.537997
0
LINE
8
boundary
62
5
39
2
10
60.970419
20
9.537997
11
64.521498
21
22.211255
0
LINE
8
boundary
62
5
39
2
10
64.521498
20
22.211255
11
67.173931
21
21.500537
0
LINE
8
boundary
62
5
39
2
10
67.173931
20
21.500537
11
63.731984
21
8.655020
0
LINE
8
boundary
62
5
39
2
10
63.731984
20
8.655020
11
66.163035
21
8.336017
0
LINE
8
boundary
62
5
39
2
10
66.163035
20
8.336017
11
79.891490
21
6.717216
0
LINE
8
boundary
62
5
39
2
10
79.891490
20
6.717216
11
80.041490
21
20.113186
0
LINE
8
boundary
62
5
39
2
10
80.041490
20
20.113186
11
82.787490
21
20.113187
0
LINE
8
boundary
62
5
39
2
10
82.787490
20
20.113187
11
82.787490
21
6.986787
0
LINE
8
boundary
62
5
39
2
10
82.787490
20
6.986787
11
97.324112
21
8.668603
0
LINE
8
boundary
62
5
39
2
10
97.324112
20
8.668603
11
98.794482
21
9.204486
0
LINE
8
boundary
62
5
39
2
10
98.794482
20
9.204486
11
95.484304
21
22.137765
0
LINE
8
boundary
62
5
39
2
10
95.484304
20
22.137765
11
98.136737
21
22.848482
0
LINE
8
boundary
62
5
39
2
10
98.136737
20
22.848482
11
101.519953
21
10.222147
0
LINE
8
boundary
62
5
39
2
10
101.519953
20
10.222147
11
113.005631
21
14.379619
0
LINE
8
boundary
62
5
39
2
10
113.005631
20
14.379619
11
115.316449
21
15.874863
0
LINE
8
boundary
62
5
39
2
10
115.316449
20
15.874863
11
116.288074
21
16.503088
0
LINE
8
boundary
62
5
39
2
10
116.288074
20
16.503088
11
109.810751
21
28.022124
0
LINE
8
boundary
62
5
39
2
10
109.810751
20
28.022124
11
112.188857
21
29.395124
0
LINE
8
boundary
62
5
39
2
10
112.188857
20
29.395124
11
118.714160
21
18.092967
0
LINE
8
boundary
62
5
39
2
10
118.714160
20
18.092967
11
126.832189
21
23.320609
0
LINE
8
boundary
62
5
39
2
10
126.832189
20
23.320609
11
128.754260
21
25.273918
0
LINE
8
boundary
62
5
39
2
10
128.754260
20
25.273918
11
131.326606
21
27.885934
0
LINE
8
boundary
62
5
39
2
10
131.326606
20
27.885934
11
122.181165
21
37.243501
0
LINE
8
boundary
62
5
39
2
10
122.181165
20
37.243501
11
124.122881
21
39.185216
0
LINE
8
boundary
62
5
39
2
10
124.122881
20
39.185216
11
133.350620
21
29.957477
0
LINE
8
boundary
62
5
39
2
10
133.350620
20
29.957477
11
138.354831
21
35.022548
0
LINE
8
boundary
62
5
39
2
10
138.354831
20
35.022548
11
139.820361
21
37.362141
0
LINE
8
boundary
62
5
39
2
10
139.820361
20
37.362141
11
143.093154
21
42.583090
0
LINE
8
boundary
62
5
39
2
10
143.093154
20
42.583090
11
131.927327
21
49.202888
0
LINE
8
boundary
62
5
39
2
10
131.927327
20
49.202888
11
133.300327
21
51.580994
0
LINE
8
boundary
62
5
39
2
10
133.300327
20
51.580994
11
144.628126
21
45.040886
0
LINE
8
boundary
62
5
39
2
10
144.628126
20
45.040886
11
147.141257
21
49.040859
0
LINE
8
boundary
62
5
39
2
10
147.141257
20
49.040859
11
148.073517
21
51.685582
0
LINE
8
boundary
62
5
39
2
10
148.073517
20
51.685582
11
150.918997
21
59.751490
0
LINE
8
boundary
62
5
39
2
10
150.918997
20
59.751490
11
138.486540
21
63.238048
0
LINE
8
boundary
62
5
39
2
10
138.486540
20
63.238048
11
139.197257
21
65.890480
0
LINE
8
boundary
62
5
39
2
10
139.197257
20
65.890480
11
151.885339
21
62.490719
0
LINE
8
boundary
62
5
39
2
10
151.885339
20
62.490719
11
152.744390
21
64.925816
0
LINE
8
boundary
62
5
39
2
10
152.744390
20
64.925816
11
153.069673
21
67.785991
0
LINE
8
boundary
62
5
39
2
10
153.069673
20
67.785991
11
154.280822
21
78.428892
0
LINE
8
boundary
62
5
39
2
10
154.280822
20
78.428892
11
141.399265
21
78.578892
0
LINE
8
boundary
62
5
39
2
10
141.399265
20
78.578892
11
141.399265
21
81.324892
0
LINE
8
boundary
62
5
39
2
10
141.399265
20
81.324892
11
154.610383
21
81.324892
0
LINE
8
boundary
62
5
39
2
10
154.610383
20
81.324892
11
154.705865
21
82.163933
0
LINE
8
boundary
62
5
39
2
10
154.705865
20
82.163933
11
154.383095
21
85.001345
0
LINE
8
boundary
62
5
39
2
10
154.383095
20
85.001345
11
152.955401
21
97.544496
0
LINE
8
boundary
62
5
39
2
10
152.955401
20
97.544496
11
140.367150
21
94.326775
0
LINE
8
boundary
62
5
39
2
10
140.367150
20
94.326775
11
139.656433
21
96.979208
0
LINE
8
boundary
62
5
39
2
10
139.656433
20
96.979208
11
152.371988
21
100.386330
0
LINE
8
boundary
62
5
39
2
10
152.371988
20
100.386330
11
151.834357
21
101.975806
0
LINE
8
boundary
62
5
39
2
10
151.834357
20
101.975806
11
147.142543
21
115.263218
0
LINE
8
boundary
62
5
39
2
10
147.142543
20
115.263218
11
146.738058
21
115.907866
0
LINE
8
boundary
62
5
39
2
10
146.738058
20
115.907866
11
135.299092
21
109.476778
0
LINE
8
boundary
62
5
39
2
10
135.299092
20
109.476778
11
133.926092
21
111.854884
0
LINE
8
boundary
62
5
39
2
10
133.926092
20
111.854884
11
145.183828
21
118.354540
0
LINE
8
boundary
62
5
39
2
10
145.183828
20
118.354540
11
138.358409
21
129.255466
0
LINE
8
boundary
62
5
39
2
10
138.358409
20
129.255466
11
136.599950
21
131.038269
0
LINE
8
boundary
62
5
39
2
10
136.599950
20
131.038269
11
135.633702
21
132.017258
0
LINE
8
boundary
62
5
39
2
10
135.633702
20
132.017258
11
126.297218
21
122.892905
0
LINE
8
boundary
62
5
39
2
10
126.297218
20
122.892905
11
124.355503
21
124.834620
0
LINE
8
boundary
62
5
39
2
10
124.355503
20
124.834620
11
133.592745
21
134.071862
0
LINE
8
boundary
62
5
39
2
10
133.592745
20
134.071862
11
126.841050
21
140.925847
0
LINE
8
boundary
62
5
39
2
10
126.841050
20
140.925847
11
124.849653
21
142.210424
0
LINE
8
boundary
62
5
39
2
10
124.849653
20
142.210424
11
120.672716
21
144.903134
0
LINE
8
boundary
62
5
39
2
10
120.672716
20
144.903134
11
114.019191
21
133.678891
0
LINE
8
boundary
62
5
39
2
10
114.019191
20
133.678891
11
111.641085
21
135.051891
0
LINE
8
boundary
62
5
39
2
10
111.641085
20
135.051891
11
118.234265
21
146.471614
0
LINE
8
boundary
62
5
39
2
10
118.234265
20
146.471614
11
113.024341
21
149.833748
0
LINE
8
boundary
62
5
39
2
10
113.024341
20
149.833748
11
110.930999
21
150.593478
0
LINE
8
boundary
62
5
39
2
10
110.930999
20
150.593478
11
102.683812
21
153.584911
0
LINE
8
boundary
62
5
39
2
10
102.683812
20
153.584911
11
99.164796
21
141.007582
0
LINE
8
boundary
62
5
39
2
10
99.164796
20
141.007582
11
96.512029
21
141.717052
0
LINE
8
boundary
62
5
39
2
10
96.512029
20
141.717052
11
99.951124
21
154.576116
0
LINE
8
boundary
62
5
39
2
10
99.951124
20
154.576116
11
97.357931
21
155.516724
0
LINE
8
boundary
62
5
39
2
10
97.357931
20
155.516724
11
95.276509
21
155.760013
0
LINE
8
boundary
62
5
39
2
10
95.276509
20
155.760013
11
82.937490
21
157.201659
0
LINE
8
boundary
62
5
39
2
10
82.937490
20
157.201659
11
82.787490
21
144.089083
0
LINE
8
boundary
62
5
39
2
10
82.787490
20
144.089083
11
80.041490
21
144.089083
0
LINE
8
boundary
62
5
39
2
10
80.041490
20
144.089083
11
80.041490
21
157.435992
0
LINE
8
boundary
62
5
39
2
10
80.041490
20
157.435992
11
78.440228
21
157.275048
0
LINE
8
boundary
62
5
39
2
10
78.440228
20
157.275048
11
63.408042
21
155.503458
0
LINE
8
boundary
62
5
39
2
10
63.408042
20
155.503458
11
62.806213
21
155.283326
0
LINE
8
boundary
62
5
39
2
10
62.806213
20
155.283326
11
66.107092
21
142.384741
0
LINE
8
boundary
62
5
39
2
10
66.107092
20
142.384741
11
63.454660
21
141.674024
0
LINE
8
boundary
62
5
39
2
10
63.454660
20
141.674024
11
60.081630
21
154.262344
0
LINE
8
boundary
62
5
39
2
10
60.081630
20
154.262344
11
47.836452
21
149.813225
0
LINE
8
boundary
62
5
39
2
10
47.836452
20
149.813225
11
46.306435
21
148.816346
0
LINE
8
boundary
62
5
39
2
10
46.306435
20
148.816346
11
44.204089
21
147.448180
0
LINE
8
boundary
62
5
39
2
10
44.204089
20
147.448180
11
50.655910
21
135.973316
0
LINE
8
boundary
62
5
39
2
10
50.655910
20
135.973316
11
48.277804
21
134.600316
0
LINE
8
boundary
62
5
39
2
10
48.277804
20
134.600316
11
41.782528
21
145.850464
0
LINE
8
boundary
62
5
39
2
10
41.782528
20
145.850464
11
34.150652
21
140.905596
0
LINE
8
boundary
62
5
39
2
10
34.150652
20
140.905596
11
32.793679
21
139.512464
0
LINE
8
boundary
62
5
39
2
10
32.793679
20
139.512464
11
28.455715
21
135.064514
0
LINE
8
boundary
62
5
39
2
10
28.455715
20
135.064514
11
37.541109
21
125.766988
0
LINE
8
boundary
62
5
39
2
10
37.541109
20
125.766988
11
35.599394
21
123.825272
0
LINE
8
boundary
62
5
39
2
10
35.599394
20
123.825272
11
26.442179
21
132.982487
0
LINE
8
boundary
62
5
39
2
10
26.442179
20
132.982487
11
22.775353
21
129.240132
0
LINE
8
boundary
62
5
39
2
10
22.775353
20
129.240132
11
21.658865
21
127.434242
0
LINE
8
boundary
62
5
39
2
10
21.658865
20
127.434242
11
16.539857
21
119.165887
0
LINE
8
boundary
62
5
39
2
10
16.539857
20
119.165887
11
27.593119
21
112.611079
0
LINE
8
boundary
62
5
39
2
10
27.593119
20
112.611079
11
26.220119
21
110.232973
0
LINE
8
boundary
62
5
39
2
10
26.220119
20
110.232973
11
15.019629
21
116.699579
0
LINE
8
boundary
62
5
39
2
10
15.019629
20
116.699579
11
14.118189
21
115.254346
0
LINE
8
boundary
62
5
39
2
10
14.118189
20
115.254346
11
13.352624
21
113.049650
0
LINE
8
boundary
62
5
39
2
10
13.352624
20
113.049650
11
9.126638
21
100.898088
0
LINE
8
boundary
62
5
39
2
10
9.126638
20
100.898088
11
21.552937
21
97.413181
0
LINE
8
boundary
62
5
39
2
10
21.552937
20
97.413181
11
20.842220
21
94.760748
0
LINE
8
boundary
62
5
39
2
10
20.842220
20
94.760748
11
8.487543
21
98.071174
0
LINE
8
boundary
62
5
39
2
10
8.487543
20
98.071174
11
8.318046
21
96.853151
0
LINE
8
boundary
62
5
39
2
10
8.318046
20
96.853151
11
6.667500
21
82.164186
0
LINE
8
boundary
62
5
39
2
10
6.667500
20
82.164186
11
6.743927
21
81.474892
0
LINE
8
boundary
62
5
39
2
10
6.743927
20
81.474892
11
19.763331
21
81.324892
0
LINE
8
boundary
62
5
39
2
10
19.763331
20
81.324892
11
19.763331
21
78.578892
0
LINE
8
boundary
62
5
39
2
10
19.763331
20
78.578892
11
7.092240
21
78.578892
0
LINE
8
boundary
62
5
39
2
10
7.092240
20
78.578892
11
8.582379
21
64.927830
0
LINE
8
boundary
62
5
39
2
10
8.582379
20
64.927830
11
9.450464
21
62.414374
0
LINE
8
boundary
62
5
39
2
10
9.450464
20
62.414374
11
22.062536
21
65.470018
0
LINE
8
boundary
62
5
39
2
10
22.062536
20
65.470018
11
22.773253
21
62.817586
0
LINE
8
boundary
62
5
39
2
10
22.773253
20
62.817586
11
10.473612
21
59.521907
0
LINE
8
boundary
62
5
39
2
10
10.473612
20
59.521907
11
14.077561
21
49.043485
0
LINE
8
boundary
62
5
39
2
10
14.077561
20
49.043485
11
15.467807
21
46.784089
0
LINE
8
boundary
62
5
39
2
10
15.467807
20
46.784089
11
16.898970
21
44.462446
0
LINE
8
boundary
62
5
39
2
10
16.898970
20
44.462446
11
28.192648
21
50.809651
0
LINE
8
boundary
62
5
39
2
10
28.192648
20
50.809651
11
29.565648
21
48.431545
0
LINE
8
boundary
62
5
39
2
10
29.565648
20
48.431545
11
18.431947
21
42.003500
0
LINE
8
boundary
62
5
39
2
10
18.431947
20
42.003500
11
22.716682
21
35.024915
0
LINE
8
boundary
62
5
39
2
10
22.716682
20
35.024915
11
24.568877
21
33.114721
0
LINE
8
boundary
62
5
39
2
10
24.568877
20
33.114721
11
28.438824
21
29.130073
0
LINE
8
boundary
62
5
39
2
10
28.438824
20
29.130073
11
37.722298
21
38.201416
0
LINE
8
boundary
62
5
39
2
10
37.722298
20
38.201416
11
39.664013
21
36.259700
0
LINE
8
boundary
62
5
39
2
10
39.664013
20
36.259700
11
30.462435
21
27.058122
0
LINE
8
boundary
62
5
39
2
10
30.462435
20
27.058122
11
34.079294
21
23.322425
0
LINE
8
boundary
62
5
39
2
10
34.079294
20
23.322425
11
36.330923
21
21.849203
0
LINE
8
boundary
62
5
39
2
10
36.330923
20
21.849203
11
43.431805
21
17.209951
0
LINE
8
boundary
62
5
39
2
10
43.431805
20
17.209951
11
50.075590
21
28.417325
0
LINE
8
boundary
62
5
39
2
10
50.075590
20
28.417325
11
52.453696
21
27.044325
0
LINE
8
boundary
62
5
39
2
10
52.453696
20
27.044325
11
45.860936
21
15.625330
0
LINE
8
boundary
62
5
39
2
10
45.860936
20
15.625330
11
47.761464
21
14.381235
0
LINE
8
annotation
62
1
39
211
10
135.805365
20
77.551892
11
135.805365
21
82.351892
0
LINE
8
annotation
62
1
39
211
10
135.805365
20
82.351892
11
134.738263
21
81.284489
0
LINE
8
annotation
62
1
39
211
10
135.743736
20
92.024666
11
133.684581
21
91.472917
0
LINE
8
annotation
62
1
39
211
10
133.684581
20
91.472917
11
134.766540
21
95.045898
0
LINE
8
annotation
62
1
39
211
10
134.766540
20
95.045898
11
134.766540
21
95.045898
0
LINE
8
annotation
62
1
39
211
10
134.766540
20
95.045898
11
134.768061
21
95.049322
0
LINE
8
annotation
62
1
39
211
10
134.768061
20
95.049322
11
134.769481
21
95.052745
0
LINE
8
annotation
62
1
39
211
10
134.769481
20
95.052745
11
134.770810
21
95.056195
0
LINE
8
annotation
62
1
39
211
10
134.770810
20
95.056195
11
134.772055
21
95.059699
0
LINE
8
annotation
62
1
39
211
10
134.772055
20
95.059699
11
134.773224
21
95.063286
0
LINE
8
annotation
62
1
39
211
10
134.773224
20
95.063286
11
134.774326
21
95.066983
0
LINE
8
annotation
62
1
39
211
10
134.774326
20
95.066983
11
134.775367
21
95.070817
0
LINE
8
annotation
62
1
39
211
10
134.775367
20
95.070817
11
134.776356
21
95.074817
0
LINE
8
annotation
62
1
39
211
10
134.776356
20
95.074817
11
134.777301
21
95.079010
0
LINE
8
annotation
62
1
39
211
10
134.777301
20
95.079010
11
134.777301
21
95.079010
0
LINE
8
annotation
62
1
39
211
10
134.777301
20
95.079010
11
134.810666
21
95.268743
0
LINE
8
annotation
62
1
39
211
10
134.810666
20
95.268743
11
134.809709
21
95.455894
0
LINE
8
annotation
62
1
39
211
10
134.809709
20
95.455894
11
134.776614
21
95.636814
0
LINE
8
annotation
62
1
39
211
10
134.776614
20
95.636814
11
134.713565
21
95.807853
0
LINE
8
annotation
62
1
39
211
10
134.713565
20
95.807853
11
134.622744
21
95.965362
0
LINE
8
annotation
62
1
39
211
10
134.622744
20
95.965362
11
134.506335
21
96.105690
0
LINE
8
annotation
62
1
39
211
10
134.506335
20
96.105690
11
134.366521
21
96.225189
0
LINE
8
annotation
62
1
39
211
10
134.366521
20
96.225189
11
134.205486
21
96.320209
0
LINE
8
annotation
62
1
39
211
10
134.205486
20
96.320209
11
134.025414
21
96.387101
0
LINE
8
annotation
62
1
39
211
10
134.025414
20
96.387101
11
134.025414
21
96.387101
0
LINE
8
annotation
62
1
39
211
10
134.025414
20
96.387101
11
133.835511
21
96.419224
0
LINE
8
annotation
62
1
39
211
10
133.835511
20
96.419224
11
133.648281
21
96.417488
0
LINE
8
annotation
62
1
39
211
10
133.648281
20
96.417488
11
133.467367
21
96.383960
0
LINE
8
annotation
62
1
39
211
10
133.467367
20
96.383960
11
133.296411
21
96.320706
0
LINE
8
annotation
62
1
39
211
10
133.296411
20
96.320706
11
133.139056
21
96.229791
0
LINE
8
annotation
62
1
39
211
10
133.139056
20
96.229791
11
132.998944
21
96.113282
0
LINE
8
annotation
62
1
39
211
10
132.998944
20
96.113282
11
132.879717
21
95.973245
0
LINE
8
annotation
62
1
39
211
10
132.879717
20
95.973245
11
132.785019
21
95.811747
0
LINE
8
annotation
62
1
39
211
10
132.785019
20
95.811747
11
132.718492
21
95.630852
0
LINE
8
annotation
62
1
39
211
10
132.718492
20
95.630852
11
132.652783
21
95.335267
0
LINE
8
annotation
62
1
39
211
10
129.582764
20
104.990750
11
130.505858
21
105.523699
0
LINE
8
annotation
62
1
39
211
10
130.505858
20
105.523699
11
130.505858
21
105.523699
0
LINE
8
annotation
62
1
39
211
10
130.505858
20
105.523699
11
130.663280
21
105.634444
0
LINE
8
annotation
62
1
39
211
10
130.663280
20
105.634444
11
130.794718
21
105.767561
0
LINE
8
annotation
62
1
39
211
10
130.794718
20
105.767561
11
130.899095
21
105.918913
0
LINE
8
annotation
62
1
39
211
10
130.899095
20
105.918913
11
130.975334
21
106.084368
0
LINE
8
annotation
62
1
39
211
10
130.975334
20
106.084368
11
131.022357
21
106.259788
0
LINE
8
annotation
62
1
39
211
10
131.022357
20
106.259788
11
131.039088
21
106.441041
0
LINE
8
annotation
62
1
39
211
10
131.039088
20
106.441041
11
131.024450
21
106.623990
0
LINE
8
annotation
62
1
39
211
10
131.024450
20
106.623990
11
130.977365
21
106.804501
0
LINE
8
annotation
62
1
39
211
10
130.977365
20
106.804501
11
130.896756
21
106.978438
0
LINE
8
annotation
62
1
39
211
10
130.896756
20
106.978438
11
130.629905
21
107.440637
0
LINE
8
annotation
62
1
39
211
10
130.629905
20
107.440637
11
130.629905
21
107.440637
0
LINE
8
annotation
62
1
39
211
10
130.629905
20
107.440637
11
130.519615
21
107.597347
0
LINE
8
annotation
62
1
39
211
10
130.519615
20
107.597347
11
130.386851
21
107.728343
0
LINE
8
annotation
62
1
39
211
10
130.386851
20
107.728343
11
130.235738
21
107.832484
0
LINE
8
annotation
62
1
39
211
10
130.235738
20
107.832484
11
130.070399
21
107.908629
0
LINE
8
annotation
62
1
39
211
10
130.070399
20
107.908629
11
129.894956
21
107.955637
0
LINE
8
annotation
62
1
39
211
10
129.894956
20
107.955637
11
129.713533
21
107.972368
0
LINE
8
annotation
62
1
39
211
10
129.713533
20
107.972368
11
129.530253
21
107.957679
0
LINE
8
annotation
62
1
39
211
10
129.530253
20
107.957679
11
129.349239
21
107.910430
0
LINE
8
annotation
62
1
39
211
10
129.349239
20
107.910430
11
129.174615
21
107.829479
0
LINE
8
annotation
62
1
39
211
10
129.174615
20
107.829479
11
128.712416
21
107.562629
0
LINE
8
annotation
62
1
39
211
10
128.712416
20
107.562629
11
129.174615
21
107.829479
0
LINE
8
annotation
62
1
39
211
10
129.174615
20
107.829479
11
129.174615
21
107.829479
0
LINE
8
annotation
62
1
39
211
10
129.174615
20
107.829479
11
129.332030
21
107.940237
0
LINE
8
annotation
62
1
39
211
10
129.332030
20
107.940237
11
129.463441
21
108.073400
0
LINE
8
annotation
62
1
39
211
10
129.463441
20
108.073400
11
129.567763
21
108.224848
0
LINE
8
annotation
62
1
39
211
10
129.567763
20
108.224848
11
129.643909
21
108.390463
0
LINE
8
annotation
62
1
39
211
10
129.643909
20
108.390463
11
129.690794
21
108.566123
0
LINE
8
annotation
62
1
39
211
10
129.690794
20
108.566123
11
129.707333
21
108.747709
0
LINE
8
annotation
62
1
39
211
10
129.707333
20
108.747709
11
129.692438
21
108.931102
0
LINE
8
annotation
62
1
39
211
10
129.692438
20
108.931102
11
129.645025
21
109.112181
0
LINE
8
annotation
62
1
39
211
10
129.645025
20
109.112181
11
129.564008
21
109.286826
0
LINE
8
annotation
62
1
39
211
10
129.564008
20
109.286826
11
129.564008
21
109.286826
0
LINE
8
annotation
62
1
39
211
10
129.564008
20
109.286826
11
129.453717
21
109.443535
0
LINE
8
annotation
62
1
39
211
10
129.453717
20
109.443535
11
129.320954
21
109.574531
0
LINE
8
annotation
62
1
39
211
10
129.320954
20
109.574531
11
129.169841
21
109.678672
0
LINE
8
annotation
62
1
39
211
10
129.169841
20
109.678672
11
129.004501
21
109.754818
0
LINE
8
annotation
62
1
39
211
10
129.004501
20
109.754818
11
128.829058
21
109.801826
0
LINE
8
annotation
62
1
39
211
10
128.829058
20
109.801826
11
128.647635
21
109.818556
0
LINE
8
annotation
62
1
39
211
10
128.647635
20
109.818556
11
128.464355
21
109.803867
0
LINE
8
annotation
62
1
39
211
10
128.464355
20
109.803867
11
128.283342
21
109.756618
0
LINE
8
annotation
62
1
39
211
10
128.283342
20
109.756618
11
128.108717
21
109.675668
0
LINE
8
annotation
62
1
39
211
10
128.108717
20
109.675668
11
127.185623
21
109.142719
0
LINE
8
annotation
62
1
39
211
10
122.878282
20
119.530681
11
120.993704
21
117.646103
0
LINE
8
annotation
62
1
39
211
10
120.993704
20
117.646103
11
119.106785
21
121.038300
0
LINE
8
annotation
62
1
39
211
10
123.067931
20
118.211221
11
121.560525
21
119.718628
0
LINE
8
annotation
62
1
39
211
10
111.311849
20
126.935638
11
111.844798
21
127.858732
0
LINE
8
annotation
62
1
39
211
10
111.844798
20
127.858732
11
111.844798
21
127.858732
0
LINE
8
annotation
62
1
39
211
10
111.844798
20
127.858732
11
111.925556
21
128.033010
0
LINE
8
annotation
62
1
39
211
10
111.925556
20
128.033010
11
111.972698
21
128.213842
0
LINE
8
annotation
62
1
39
211
10
111.972698
20
128.213842
11
111.987323
21
128.397087
0
LINE
8
annotation
62
1
39
211
10
111.987323
20
128.397087
11
111.970526
21
128.578606
0
LINE
8
annotation
62
1
39
211
10
111.970526
20
128.578606
11
111.923405
21
128.754257
0
LINE
8
annotation
62
1
39
211
10
111.923405
20
128.754257
11
111.847056
21
128.919900
0
LINE
8
annotation
62
1
39
211
10
111.847056
20
128.919900
11
111.742576
21
129.071395
0
LINE
8
annotation
62
1
39
211
10
111.742576
20
129.071395
11
111.611062
21
129.204600
0
LINE
8
annotation
62
1
39
211
10
111.611062
20
129.204600
11
111.453610
21
129.315377
0
LINE
8
annotation
62
1
39
211
10
111.453610
20
129.315377
11
110.993757
21
129.580873
0
LINE
8
annotation
62
1
39
211
10
110.993757
20
129.580873
11
110.993757
21
129.580873
0
LINE
8
annotation
62
1
39
211
10
110.993757
20
129.580873
11
110.819181
21
129.661804
0
LINE
8
annotation
62
1
39
211
10
110.819181
20
129.661804
11
110.638293
21
129.708993
0
LINE
8
annotation
62
1
39
211
10
110.638293
20
129.708993
11
110.455183
21
129.723576
0
LINE
8
annotation
62
1
39
211
10
110.455183
20
129.723576
11
110.273943
21
129.706689
0
LINE
8
annotation
62
1
39
211
10
110.273943
20
129.706689
11
110.098666
21
129.659468
0
LINE
8
annotation
62
1
39
211
10
110.098666
20
129.659468
11
109.933443
21
129.583050
0
LINE
8
annotation
62
1
39
211
10
109.933443
20
129.583050
11
109.782366
21
129.478571
0
LINE
8
annotation
62
1
39
211
10
109.782366
20
129.478571
11
109.649527
21
129.347167
0
LINE
8
annotation
62
1
39
211
10
109.649527
20
129.347167
11
109.539018
21
129.189975
0
LINE
8
annotation
62
1
39
211
10
109.539018
20
129.189975
11
109.006069
21
128.266881
0
LINE
8
annotation
62
1
39
211
10
109.006069
20
128.266881
11
107.154927
21
129.335638
0
LINE
8
annotation
62
1
39
211
10
107.154927
20
129.335638
11
108.220825
21
131.181826
0
LINE
8
annotation
62
1
39
211
10
94.075021
20
136.579873
11
94.075021
21
136.579873
0
LINE
8
annotation
62
1
39
211
10
94.075021
20
136.579873
11
94.106730
21
136.255308
0
LINE
8
annotation
62
1
39
211
10
94.106730
20
136.255308
11
94.183359
21
135.944765
0
LINE
8
annotation
62
1
39
211
10
94.183359
20
135.944765
11
94.301916
21
135.652021
0
LINE
8
annotation
62
1
39
211
10
94.301916
20
135.652021
11
94.459411
21
135.380854
0
LINE
8
annotation
62
1
39
211
10
94.459411
20
135.380854
11
94.652854
21
135.135041
0
LINE
8
annotation
62
1
39
211
10
94.652854
20
135.135041
11
94.879254
21
134.918359
0
LINE
8
annotation
62
1
39
211
10
94.879254
20
134.918359
11
95.135621
21
134.734585
0
LINE
8
annotation
62
1
39
211
10
95.135621
20
134.734585
11
95.418964
21
134.587497
0
LINE
8
annotation
62
1
39
211
10
95.418964
20
134.587497
11
95.726292
21
134.480872
0
LINE
8
annotation
62
1
39
211
10
95.726292
20
134.480872
11
97.267509
21
134.068681
0
LINE
8
annotation
62
1
39
211
10
97.267509
20
134.068681
11
97.267509
21
134.068681
0
LINE
8
annotation
62
1
39
211
10
97.267509
20
134.068681
11
97.457191
21
134.035766
0
LINE
8
annotation
62
1
39
211
10
97.457191
20
134.035766
11
97.644375
21
134.037050
0
LINE
8
annotation
62
1
39
211
10
97.644375
20
134.037050
11
97.825361
21
134.070379
0
LINE
8
annotation
62
1
39
211
10
97.825361
20
134.070379
11
97.996446
21
134.133600
0
LINE
8
annotation
62
1
39
211
10
97.996446
20
134.133600
11
98.153927
21
134.224559
0
LINE
8
annotation
62
1
39
211
10
98.153927
20
134.224559
11
98.294102
21
134.341101
0
LINE
8
annotation
62
1
39
211
10
98.294102
20
134.341101
11
98.413269
21
134.481072
0
LINE
8
annotation
62
1
39
211
10
98.413269
20
134.481072
11
98.507726
21
134.642319
0
LINE
8
annotation
62
1
39
211
10
98.507726
20
134.642319
11
98.573770
21
134.822687
0
LINE
8
annotation
62
1
39
211
10
98.573770
20
134.822687
11
98.573770
21
134.822687
0
LINE
8
annotation
62
1
39
211
10
98.573770
20
134.822687
11
98.606683
21
135.012327
0
LINE
8
annotation
62
1
39
211
10
98.606683
20
135.012327
11
98.605383
21
135.199401
0
LINE
8
annotation
62
1
39
211
10
98.605383
20
135.199401
11
98.572013
21
135.380232
0
LINE
8
annotation
62
1
39
211
10
98.572013
20
135.380232
11
98.508715
21
135.551141
0
LINE
8
annotation
62
1
39
211
10
98.508715
20
135.551141
11
98.417631
21
135.708448
0
LINE
8
annotation
62
1
39
211
10
98.417631
20
135.708448
11
98.300905
21
135.848476
0
LINE
8
annotation
62
1
39
211
10
98.300905
20
135.848476
11
98.160677
21
135.967546
0
LINE
8
annotation
62
1
39
211
10
98.160677
20
135.967546
11
97.999092
21
136.061979
0
LINE
8
annotation
62
1
39
211
10
97.999092
20
136.061979
11
97.818290
21
136.128096
0
LINE
8
annotation
62
1
39
211
10
97.818290
20
136.128096
11
97.305326
21
136.265286
0
LINE
8
annotation
62
1
39
211
10
97.305326
20
136.265286
11
97.305326
21
136.265286
0
LINE
8
annotation
62
1
39
211
10
97.305326
20
136.265286
11
97.115747
21
136.298225
0
LINE
8
annotation
62
1
39
211
10
97.115747
20
136.298225
11
96.928835
21
136.296997
0
LINE
8
annotation
62
1
39
211
10
96.928835
20
136.296997
11
96.748239
21
136.263729
0
LINE
8
annotation
62
1
39
211
10
96.748239
20
136.263729
11
96.577609
21
136.200554
0
LINE
8
annotation
62
1
39
211
10
96.577609
20
136.200554
11
96.420594
21
136.109599
0
LINE
8
annotation
62
1
39
211
10
96.420594
20
136.109599
11
96.280845
21
135.992994
0
LINE
8
annotation
62
1
39
211
10
96.280845
20
135.992994
11
96.162010
21
135.852870
0
LINE
8
annotation
62
1
39
211
10
96.162010
20
135.852870
11
96.067739
21
135.691355
0
LINE
8
annotation
62
1
39
211
10
96.067739
20
135.691355
11
96.001682
21
135.510580
0
LINE
8
annotation
62
1
39
211
10
96.001682
20
135.510580
11
95.726292
21
134.480872
0
LINE
8
annotation
62
1
39
211
10
98.843516
20
133.508993
11
99.463592
21
135.827507
0
LINE
8
annotation
62
1
39
211
10
83.814490
20
137.961481
11
79.014490
21
139.028583
0
LINE
8
annotation
62
1
39
211
10
79.014490
20
139.028583
11
79.014490
21
136.894079
0
LINE
8
annotation
62
1
39
211
10
81.152004
20
139.028583
11
81.152004
21
137.961481
0
LINE
8
annotation
62
1
39
211
10
67.932934
20
135.426715
11
67.932934
21
135.426715
0
LINE
8
annotation
62
1
39
211
10
67.932934
20
135.426715
11
68.113603
21
135.492941
0
LINE
8
annotation
62
1
39
211
10
68.113603
20
135.492941
11
68.274871
21
135.587505
0
LINE
8
annotation
62
1
39
211
10
68.274871
20
135.587505
11
68.414653
21
135.706703
0
LINE
8
annotation
62
1
39
211
10
68.414653
20
135.706703
11
68.530859
21
135.846831
0
LINE
8
annotation
62
1
39
211
10
68.530859
20
135.846831
11
68.621402
21
136.004184
0
LINE
8
annotation
62
1
39
211
10
68.621402
20
136.004184
11
68.684194
21
136.175060
0
LINE
8
annotation
62
1
39
211
10
68.684194
20
136.175060
11
68.717147
21
136.355753
0
LINE
8
annotation
62
1
39
211
10
68.717147
20
136.355753
11
68.718173
21
136.542561
0
LINE
8
annotation
62
1
39
211
10
68.718173
20
136.542561
11
68.685184
21
136.731778
0
LINE
8
annotation
62
1
39
211
10
68.685184
20
136.731778
11
68.685184
21
136.731778
0
LINE
8
annotation
62
1
39
211
10
68.685184
20
136.731778
11
68.619145
21
136.912139
0
LINE
8
annotation
62
1
39
211
10
68.619145
20
136.912139
11
68.524853
21
137.073406
0
LINE
8
annotation
62
1
39
211
10
68.524853
20
137.073406
11
68.405968
21
137.213414
0
LINE
8
annotation
62
1
39
211
10
68.405968
20
137.213414
11
68.266151
21
137.330001
0
LINE
8
annotation
62
1
39
211
10
68.266151
20
137.330001
11
68.109061
21
137.421002
0
LINE
8
annotation
62
1
39
211
10
68.109061
20
137.421002
11
67.938360
21
137.484253
0
LINE
8
annotation
62
1
39
211
10
67.938360
20
137.484253
11
67.757706
21
137.517591
0
LINE
8
annotation
62
1
39
211
10
67.757706
20
137.517591
11
67.570762
21
137.518851
0
LINE
8
annotation
62
1
39
211
10
67.570762
20
137.518851
11
67.381185
21
137.485870
0
LINE
8
annotation
62
1
39
211
10
67.381185
20
137.485870
11
66.868286
21
137.348440
0
LINE
8
annotation
62
1
39
211
10
66.868286
20
137.348440
11
66.868286
21
137.348440
0
LINE
8
annotation
62
1
39
211
10
66.868286
20
137.348440
11
66.687526
21
137.282199
0
LINE
8
annotation
62
1
39
211
10
66.687526
20
137.282199
11
66.526010
21
137.187595
0
LINE
8
annotation
62
1
39
211
10
66.526010
20
137.187595
11
66.385872
21
137.068334
0
LINE
8
annotation
62
1
39
211
10
66.385872
20
137.068334
11
66.269245
21
136.928127
0
LINE
8
annotation
62
1
39
211
10
66.269245
20
136.928127
11
66.178261
21
136.770681
0
LINE
8
annotation
62
1
39
211
10
66.178261
20
136.770681
11
66.115054
21
136.599704
0
LINE
8
annotation
62
1
39
211
10
66.115054
20
136.599704
11
66.081756
21
136.418906
0
LINE
8
annotation
62
1
39
211
10
66.081756
20
136.418906
11
66.080500
21
136.231993
0
LINE
8
annotation
62
1
39
211
10
66.080500
20
136.231993
11
66.113420
21
136.042676
0
LINE
8
annotation
62
1
39
211
10
66.113420
20
136.042676
11
66.113420
21
136.042676
0
LINE
8
annotation
62
1
39
211
10
66.113420
20
136.042676
11
66.179579
21
135.862264
0
LINE
8
annotation
62
1
39
211
10
66.179579
20
135.862264
11
66.274146
21
135.701028
0
LINE
8
annotation
62
1
39
211
10
66.274146
20
135.701028
11
66.393414
21
135.561109
0
LINE
8
annotation
62
1
39
211
10
66.393414
20
135.561109
11
66.533672
21
135.444651
0
LINE
8
annotation
62
1
39
211
10
66.533672
20
135.444651
11
66.691214
21
135.353797
0
LINE
8
annotation
62
1
39
211
10
66.691214
20
135.353797
11
66.862329
21
135.290690
0
LINE
8
annotation
62
1
39
211
10
66.862329
20
135.290690
11
67.043310
21
135.257473
0
LINE
8
annotation
62
1
39
211
10
67.043310
20
135.257473
11
67.230449
21
135.256290
0
LINE
8
annotation
62
1
39
211
10
67.230449
20
135.256290
11
67.420035
21
135.289284
0
LINE
8
annotation
62
1
39
211
10
67.420035
20
135.289284
11
67.932934
21
135.426715
0
LINE
8
annotation
62
1
39
211
10
64.806514
20
136.795989
11
64.806514
21
136.795989
0
LINE
8
annotation
62
1
39
211
10
64.806514
20
136.795989
11
64.626609
21
136.729978
0
LINE
8
annotation
62
1
39
211
10
64.626609
20
136.729978
11
64.465741
21
136.635547
0
LINE
8
annotation
62
1
39
211
10
64.465741
20
136.635547
11
64.326070
21
136.516412
0
LINE
8
annotation
62
1
39
211
10
64.326070
20
136.516412
11
64.209760
21
136.376290
0
LINE
8
annotation
62
1
39
211
10
64.209760
20
136.376290
11
64.118971
21
136.218896
0
LINE
8
annotation
62
1
39
211
10
64.118971
20
136.218896
11
64.055866
21
136.047946
0
LINE
8
annotation
62
1
39
211
10
64.055866
20
136.047946
11
64.022605
21
135.867158
0
LINE
8
annotation
62
1
39
211
10
64.022605
20
135.867158
11
64.021350
21
135.680246
0
LINE
8
annotation
62
1
39
211
10
64.021350
20
135.680246
11
64.054264
21
135.490926
0
LINE
8
annotation
62
1
39
211
10
64.054264
20
135.490926
11
64.054264
21
135.490926
0
LINE
8
annotation
62
1
39
211
10
64.054264
20
135.490926
11
64.120420
21
135.310514
0
LINE
8
annotation
62
1
39
211
10
64.120420
20
135.310514
11
64.214962
21
135.149271
0
LINE
8
annotation
62
1
39
211
10
64.214962
20
135.149271
11
64.334161
21
135.009334
0
LINE
8
annotation
62
1
39
211
10
64.334161
20
135.009334
11
64.474287
21
134.892840
0
LINE
8
annotation
62
1
39
211
10
64.474287
20
134.892840
11
64.631609
21
134.801927
0
LINE
8
annotation
62
1
39
211
10
64.631609
20
134.801927
11
64.802398
21
134.738733
0
LINE
8
annotation
62
1
39
211
10
64.802398
20
134.738733
11
64.982923
21
134.705394
0
LINE
8
annotation
62
1
39
211
10
64.982923
20
134.705394
11
65.169455
21
134.704049
0
LINE
8
annotation
62
1
39
211
10
65.169455
20
134.704049
11
65.358263
21
134.736834
0
LINE
8
annotation
62
1
39
211
10
65.358263
20
134.736834
11
65.358263
21
134.736834
0
LINE
8
annotation
62
1
39
211
10
65.358263
20
134.736834
11
65.539031
21
134.803086
0
LINE
8
annotation
62
1
39
211
10
65.539031
20
134.803086
11
65.700567
21
134.897722
0
LINE
8
annotation
62
1
39
211
10
65.700567
20
134.897722
11
65.840735
21
135.017024
0
LINE
8
annotation
62
1
39
211
10
65.840735
20
135.017024
11
65.957400
21
135.157274
0
LINE
8
annotation
62
1
39
211
10
65.957400
20
135.157274
11
66.048426
21
135.314757
0
LINE
8
annotation
62
1
39
211
10
66.048426
20
135.314757
11
66.111677
21
135.485756
0
LINE
8
annotation
62
1
39
211
10
66.111677
20
135.485756
11
66.145016
21
135.666553
0
LINE
8
annotation
62
1
39
211
10
66.145016
20
135.666553
11
66.146309
21
135.853432
0
LINE
8
annotation
62
1
39
211
10
66.146309
20
135.853432
11
66.113420
21
136.042676
0
LINE
8
annotation
62
1
39
211
10
66.113420
20
136.042676
11
66.113420
21
136.042676
0
LINE
8
annotation
62
1
39
211
10
66.113420
20
136.042676
11
66.047281
21
136.223010
0
LINE
8
annotation
62
1
39
211
10
66.047281
20
136.223010
11
65.952722
21
136.384205
0
LINE
8
annotation
62
1
39
211
10
65.952722
20
136.384205
11
65.833450
21
136.524110
0
LINE
8
annotation
62
1
39
211
10
65.833450
20
136.524110
11
65.693174
21
136.640574
0
LINE
8
annotation
62
1
39
211
10
65.693174
20
136.640574
11
65.535602
21
136.731446
0
LINE
8
annotation
62
1
39
211
10
65.535602
20
136.731446
11
65.364442
21
136.794574
0
LINE
8
annotation
62
1
39
211
10
65.364442
20
136.794574
11
65.183402
21
136.827808
0
LINE
8
annotation
62
1
39
211
10
65.183402
20
136.827808
11
64.996190
21
136.828997
0
LINE
8
annotation
62
1
39
211
10
64.996190
20
136.828997
11
64.806514
21
136.795989
0
LINE
8
annotation
62
1
39
211
10
54.875969
20
130.717958
11
54.875969
21
130.717958
0
LINE
8
annotation
62
1
39
211
10
54.875969
20
130.717958
11
54.625191
21
130.925141
0
LINE
8
annotation
62
1
39
211
10
54.625191
20
130.925141
11
54.352333
21
131.090672
0
LINE
8
annotation
62
1
39
211
10
54.352333
20
131.090672
11
54.062230
21
131.214002
0
LINE
8
annotation
62
1
39
211
10
54.062230
20
131.214002
11
53.759715
21
131.294584
0
LINE
8
annotation
62
1
39
211
10
53.759715
20
131.294584
11
53.449621
21
131.331870
0
LINE
8
annotation
62
1
39
211
10
53.449621
20
131.331870
11
53.136783
21
131.325311
0
LINE
8
annotation
62
1
39
211
10
53.136783
20
131.325311
11
52.826033
21
131.274361
0
LINE
8
annotation
62
1
39
211
10
52.826033
20
131.274361
11
52.522205
21
131.178471
0
LINE
8
annotation
62
1
39
211
10
52.522205
20
131.178471
11
52.230132
21
131.037093
0
LINE
8
annotation
62
1
39
211
10
52.230132
20
131.037093
11
50.843796
21
130.236691
0
LINE
8
annotation
62
1
39
211
10
50.843796
20
130.236691
11
50.843796
21
130.236691
0
LINE
8
annotation
62
1
39
211
10
50.843796
20
130.236691
11
50.686311
21
130.125953
0
LINE
8
annotation
62
1
39
211
10
50.686311
20
130.125953
11
50.554710
21
129.992841
0
LINE
8
annotation
62
1
39
211
10
50.554710
20
129.992841
11
50.450115
21
129.841465
0
LINE
8
annotation
62
1
39
211
10
50.450115
20
129.841465
11
50.373644
21
129.675938
0
LINE
8
annotation
62
1
39
211
10
50.373644
20
129.675938
11
50.326418
21
129.500369
0
LINE
8
annotation
62
1
39
211
10
50.326418
20
129.500369
11
50.309555
21
129.318870
0
LINE
8
annotation
62
1
39
211
10
50.309555
20
129.318870
11
50.324176
21
129.135550
0
LINE
8
annotation
62
1
39
211
10
50.324176
20
129.135550
11
50.371400
21
128.954522
0
LINE
8
annotation
62
1
39
211
10
50.371400
20
128.954522
11
50.452347
21
128.779896
0
LINE
8
annotation
62
1
39
211
10
50.452347
20
128.779896
11
50.452347
21
128.779896
0
LINE
8
annotation
62
1
39
211
10
50.452347
20
128.779896
11
50.562906
21
128.622824
0
LINE
8
annotation
62
1
39
211
10
50.562906
20
128.622824
11
50.695964
21
128.491595
0
LINE
8
annotation
62
1
39
211
10
50.695964
20
128.491595
11
50.847382
21
128.387327
0
LINE
8
annotation
62
1
39
211
10
50.847382
20
128.387327
11
51.013021
21
128.311138
0
LINE
8
annotation
62
1
39
211
10
51.013021
20
128.311138
11
51.188743
21
128.264145
0
LINE
8
annotation
62
1
39
211
10
51.188743
20
128.264145
11
51.370410
21
128.247468
0
LINE
8
annotation
62
1
39
211
10
51.370410
20
128.247468
11
51.553883
21
128.262223
0
LINE
8
annotation
62
1
39
211
10
51.553883
20
128.262223
11
51.735024
21
128.309529
0
LINE
8
annotation
62
1
39
211
10
51.735024
20
128.309529
11
51.909694
21
128.390503
0
LINE
8
annotation
62
1
39
211
10
51.909694
20
128.390503
11
52.371892
21
128.657354
0
LINE
8
annotation
62
1
39
211
10
52.371892
20
128.657354
11
52.371892
21
128.657354
0
LINE
8
annotation
62
1
39
211
10
52.371892
20
128.657354
11
52.529344
21
128.768130
0
LINE
8
annotation
62
1
39
211
10
52.529344
20
128.768130
11
52.660859
21
128.901336
0
LINE
8
annotation
62
1
39
211
10
52.660859
20
128.901336
11
52.765339
21
129.052830
0
LINE
8
annotation
62
1
39
211
10
52.765339
20
129.052830
11
52.841688
21
129.218474
0
LINE
8
annotation
62
1
39
211
10
52.841688
20
129.218474
11
52.888809
21
129.394125
0
LINE
8
annotation
62
1
39
211
10
52.888809
20
129.394125
11
52.905606
21
129.575643
0
LINE
8
annotation
62
1
39
211
10
52.905606
20
129.575643
11
52.890981
21
129.758889
0
LINE
8
annotation
62
1
39
211
10
52.890981
20
129.758889
11
52.843838
21
129.939721
0
LINE
8
annotation
62
1
39
211
10
52.843838
20
129.939721
11
52.763081
21
130.113999
0
LINE
8
annotation
62
1
39
211
10
52.763081
20
130.113999
11
52.230132
21
131.037093
0
LINE
8
annotation
62
1
39
211
10
55.728433
20
130.441448
11
54.528433
21
132.519908
0
LINE
8
annotation
62
1
39
211
10
43.506768
20
121.124834
11
40.241547
21
117.859613
0
LINE
8
annotation
62
1
39
211
10
40.241547
20
117.859613
11
41.693553
21
117.859818
0
LINE
8
annotation
62
1
39
211
10
41.714862
20
122.830602
11
41.714862
21
122.830602
0
LINE
8
annotation
62
1
39
211
10
41.714862
20
122.830602
11
41.667343
21
122.934858
0
LINE
8
annotation
62
1
39
211
10
41.667343
20
122.934858
11
41.603608
21
123.026782
0
LINE
8
annotation
62
1
39
211
10
41.603608
20
123.026782
11
41.525991
21
123.105187
0
LINE
8
annotation
62
1
39
211
10
41.525991
20
123.105187
11
41.436826
21
123.168890
0
LINE
8
annotation
62
1
39
211
10
41.436826
20
123.168890
11
41.338447
21
123.216705
0
LINE
8
annotation
62
1
39
211
10
41.338447
20
123.216705
11
41.233188
21
123.247448
0
LINE
8
annotation
62
1
39
211
10
41.233188
20
123.247448
11
41.123385
21
123.259933
0
LINE
8
annotation
62
1
39
211
10
41.123385
20
123.259933
11
41.011370
21
123.252977
0
LINE
8
annotation
62
1
39
211
10
41.011370
20
123.252977
11
40.899478
21
123.225393
0
LINE
8
annotation
62
1
39
211
10
40.899478
20
123.225393
11
40.899478
21
123.225393
0
LINE
8
annotation
62
1
39
211
10
40.899478
20
123.225393
11
40.479304
21
123.056764
0
LINE
8
annotation
62
1
39
211
10
40.479304
20
123.056764
11
40.082051
21
122.848171
0
LINE
8
annotation
62
1
39
211
10
40.082051
20
122.848171
11
39.710136
21
122.602028
0
LINE
8
annotation
62
1
39
211
10
39.710136
20
122.602028
11
39.365973
21
122.320752
0
LINE
8
annotation
62
1
39
211
10
39.365973
20
122.320752
11
39.051978
21
122.006756
0
LINE
8
annotation
62
1
39
211
10
39.051978
20
122.006756
11
38.770565
21
121.662457
0
LINE
8
annotation
62
1
39
211
10
38.770565
20
121.662457
11
38.524149
21
121.290269
0
LINE
8
annotation
62
1
39
211
10
38.524149
20
121.290269
11
38.315146
21
120.892607
0
LINE
8
annotation
62
1
39
211
10
38.315146
20
120.892607
11
38.145971
21
120.471886
0
LINE
8
annotation
62
1
39
211
10
38.145971
20
120.471886
11
38.145971
21
120.471886
0
LINE
8
annotation
62
1
39
211
10
38.145971
20
120.471886
11
38.132199
21
120.426125
0
LINE
8
annotation
62
1
39
211
10
38.132199
20
120.426125
11
38.121874
21
120.379533
0
LINE
8
annotation
62
1
39
211
10
38.121874
20
120.379533
11
38.114998
21
120.332386
0
LINE
8
annotation
62
1
39
211
10
38.114998
20
120.332386
11
38.111576
21
120.284962
0
LINE
8
annotation
62
1
39
211
10
38.111576
20
120.284962
11
38.111610
21
120.237536
0
LINE
8
annotation
62
1
39
211
10
38.111610
20
120.237536
11
38.115104
21
120.190384
0
LINE
8
annotation
62
1
39
211
10
38.115104
20
120.190384
11
38.122062
21
120.143784
0
LINE
8
annotation
62
1
39
211
10
38.122062
20
120.143784
11
38.132486
21
120.098011
0
LINE
8
annotation
62
1
39
211
10
38.132486
20
120.098011
11
38.146381
21
120.053342
0
LINE
8
annotation
62
1
39
211
10
38.146381
20
120.053342
11
38.146381
21
120.053342
0
LINE
8
annotation
62
1
39
211
10
38.146381
20
120.053342
11
38.193887
21
119.947868
0
LINE
8
annotation
62
1
39
211
10
38.193887
20
119.947868
11
38.257597
21
119.855006
0
LINE
8
annotation
62
1
39
211
10
38.257597
20
119.855006
11
38.335191
21
119.775920
0
LINE
8
annotation
62
1
39
211
10
38.335191
20
119.775920
11
38.424354
21
119.711768
0
LINE
8
annotation
62
1
39
211
10
38.424354
20
119.711768
11
38.522768
21
119.663713
0
LINE
8
annotation
62
1
39
211
10
38.522768
20
119.663713
11
38.628115
21
119.632916
0
LINE
8
annotation
62
1
39
211
10
38.628115
20
119.632916
11
38.738078
21
119.620538
0
LINE
8
annotation
62
1
39
211
10
38.738078
20
119.620538
11
38.850340
21
119.627740
0
LINE
8
annotation
62
1
39
211
10
38.850340
20
119.627740
11
38.962583
21
119.655683
0
LINE
8
annotation
62
1
39
211
10
38.962583
20
119.655683
11
38.962583
21
119.655683
0
LINE
8
annotation
62
1
39
211
10
38.962583
20
119.655683
11
39.382091
21
119.824858
0
LINE
8
annotation
62
1
39
211
10
39.382091
20
119.824858
11
39.778843
21
120.033861
0
LINE
8
annotation
62
1
39
211
10
39.778843
20
120.033861
11
40.150424
21
120.280277
0
LINE
8
annotation
62
1
39
211
10
40.150424
20
120.280277
11
40.494420
21
120.561690
0
LINE
8
annotation
62
1
39
211
10
40.494420
20
120.561690
11
40.808416
21
120.875685
0
LINE
8
annotation
62
1
39
211
10
40.808416
20
120.875685
11
41.089995
21
121.219848
0
LINE
8
annotation
62
1
39
211
10
41.089995
20
121.219848
11
41.336745
21
121.591763
0
LINE
8
annotation
62
1
39
211
10
41.336745
20
121.591763
11
41.546248
21
121.989016
0
LINE
8
annotation
62
1
39
211
10
41.546248
20
121.989016
11
41.716091
21
122.409190
0
LINE
8
annotation
62
1
39
211
10
41.716091
20
122.409190
11
41.716091
21
122.409190
0
LINE
8
annotation
62
1
39
211
10
41.716091
20
122.409190
11
41.729862
21
122.454834
0
LINE
8
annotation
62
1
39
211
10
41.729862
20
122.454834
11
41.740179
21
122.501150
0
LINE
8
annotation
62
1
39
211
10
41.740179
20
122.501150
11
41.747033
21
122.547977
0
LINE
8
annotation
62
1
39
211
10
41.747033
20
122.547977
11
41.750414
21
122.595153
0
LINE
8
annotation
62
1
39
211
10
41.750414
20
122.595153
11
41.750311
21
122.642516
0
LINE
8
annotation
62
1
39
211
10
41.750311
20
122.642516
11
41.746715
21
122.689904
0
LINE
8
annotation
62
1
39
211
10
41.746715
20
122.689904
11
41.739615
21
122.737155
0
LINE
8
annotation
62
1
39
211
10
41.739615
20
122.737155
11
41.729000
21
122.784109
0
LINE
8
annotation
62
1
39
211
10
41.729000
20
122.784109
11
41.714862
21
122.830602
0
LINE
8
annotation
62
1
39
211
10
34.192571
20
109.986761
11
31.792571
21
105.829839
0
LINE
8
annotation
62
1
39
211
10
31.792571
20
105.829839
11
33.250409
21
106.220686
0
LINE
8
annotation
62
1
39
211
10
31.709588
20
111.420312
11
29.309588
21
107.263390
0
LINE
8
annotation
62
1
39
211
10
29.309588
20
107.263390
11
30.767426
21
107.654237
0
LINE
8
annotation
62
1
39
211
10
29.041225
20
96.370723
11
27.848496
21
91.919399
0
LINE
8
annotation
62
1
39
211
10
27.848496
20
91.919399
11
29.103316
21
92.644106
0
LINE
8
annotation
62
1
39
211
10
25.394852
20
97.347804
11
27.371792
21
96.818085
0
LINE
8
annotation
62
1
39
211
10
27.371792
20
96.818085
11
24.757038
21
94.366719
0
LINE
8
annotation
62
1
39
211
10
24.757038
20
94.366719
11
24.757038
21
94.366719
0
LINE
8
annotation
62
1
39
211
10
24.757038
20
94.366719
11
24.754130
21
94.364602
0
LINE
8
annotation
62
1
39
211
10
24.754130
20
94.364602
11
24.751306
21
94.362438
0
LINE
8
annotation
62
1
39
211
10
24.751306
20
94.362438
11
24.748545
21
94.360208
0
LINE
8
annotation
62
1
39
211
10
24.748545
20
94.360208
11
24.745828
21
94.357892
0
LINE
8
annotation
62
1
39
211
10
24.745828
20
94.357892
11
24.743134
21
94.355471
0
LINE
8
annotation
62
1
39
211
10
24.743134
20
94.355471
11
24.740444
21
94.352926
0
LINE
8
annotation
62
1
39
211
10
24.740444
20
94.352926
11
24.737738
21
94.350238
0
LINE
8
annotation
62
1
39
211
10
24.737738
20
94.350238
11
24.734995
21
94.347387
0
LINE
8
annotation
62
1
39
211
10
24.734995
20
94.347387
11
24.732196
21
94.344354
0
LINE
8
annotation
62
1
39
211
10
24.732196
20
94.344354
11
24.732196
21
94.344354
0
LINE
8
annotation
62
1
39
211
10
24.732196
20
94.344354
11
24.613377
21
94.202618
0
LINE
8
annotation
62
1
39
211
10
24.613377
20
94.202618
11
24.524333
21
94.046552
0
LINE
8
annotation
62
1
39
211
10
24.524333
20
94.046552
11
24.465001
21
93.880240
0
LINE
8
annotation
62
1
39
211
10
24.465001
20
93.880240
11
24.435319
21
93.707764
0
LINE
8
annotation
62
1
39
211
10
24.435319
20
93.707764
11
24.435222
21
93.533206
0
LINE
8
annotation
62
1
39
211
10
24.435222
20
93.533206
11
24.464647
21
93.360650
0
LINE
8
annotation
62
1
39
211
10
24.464647
20
93.360650
11
24.523530
21
93.194177
0
LINE
8
annotation
62
1
39
211
10
24.523530
20
93.194177
11
24.611809
21
93.037870
0
LINE
8
annotation
62
1
39
211
10
24.611809
20
93.037870
11
24.729420
21
92.895812
0
LINE
8
annotation
62
1
39
211
10
24.729420
20
92.895812
11
24.729420
21
92.895812
0
LINE
8
annotation
62
1
39
211
10
24.729420
20
92.895812
11
24.871894
21
92.777944
0
LINE
8
annotation
62
1
39
211
10
24.871894
20
92.777944
11
25.028399
21
92.689510
0
LINE
8
annotation
62
1
39
211
10
25.028399
20
92.689510
11
25.194914
21
92.630541
0
LINE
8
annotation
62
1
39
211
10
25.194914
20
92.630541
11
25.367419
21
92.601069
0
LINE
8
annotation
62
1
39
211
10
25.367419
20
92.601069
11
25.541894
21
92.601123
0
LINE
8
annotation
62
1
39
211
10
25.541894
20
92.601123
11
25.714319
21
92.630735
0
LINE
8
annotation
62
1
39
211
10
25.714319
20
92.630735
11
25.880672
21
92.689935
0
LINE
8
annotation
62
1
39
211
10
25.880672
20
92.689935
11
26.036934
21
92.778754
0
LINE
8
annotation
62
1
39
211
10
26.036934
20
92.778754
11
26.179084
21
92.897223
0
LINE
8
annotation
62
1
39
211
10
26.179084
20
92.897223
11
26.375608
21
93.111444
0
LINE
8
annotation
62
1
39
211
10
27.266121
20
82.256401
11
27.266121
21
77.647383
0
LINE
8
annotation
62
1
39
211
10
27.266121
20
77.647383
11
28.290765
21
78.672316
0
LINE
8
annotation
62
1
39
211
10
25.537884
20
82.256256
11
24.514397
21
82.256256
0
LINE
8
annotation
62
1
39
211
10
24.514397
20
82.256256
11
24.514397
21
82.256256
0
LINE
8
annotation
62
1
39
211
10
24.514397
20
82.256256
11
24.330320
21
82.239743
0
LINE
8
annotation
62
1
39
211
10
24.330320
20
82.239743
11
24.157110
21
82.192152
0
LINE
8
annotation
62
1
39
211
10
24.157110
20
82.192152
11
23.997648
21
82.116404
0
LINE
8
annotation
62
1
39
211
10
23.997648
20
82.116404
11
23.854815
21
82.015420
0
LINE
8
annotation
62
1
39
211
10
23.854815
20
82.015420
11
23.731491
21
81.892122
0
LINE
8
annotation
62
1
39
211
10
23.731491
20
81.892122
11
23.630558
21
81.749431
0
LINE
8
annotation
62
1
39
211
10
23.630558
20
81.749431
11
23.554896
21
81.590269
0
LINE
8
annotation
62
1
39
211
10
23.554896
20
81.590269
11
23.507386
21
81.417556
0
LINE
8
annotation
62
1
39
211
10
23.507386
20
81.417556
11
23.490909
21
81.234214
0
LINE
8
annotation
62
1
39
211
10
23.490909
20
81.234214
11
23.490909
21
80.721748
0
LINE
8
annotation
62
1
39
211
10
23.490909
20
80.721748
11
23.490909
21
80.721748
0
LINE
8
annotation
62
1
39
211
10
23.490909
20
80.721748
11
23.507386
21
80.538482
0
LINE
8
annotation
62
1
39
211
10
23.507386
20
80.538482
11
23.554896
21
80.365809
0
LINE
8
annotation
62
1
39
211
10
23.554896
20
80.365809
11
23.630558
21
80.206658
0
LINE
8
annotation
62
1
39
211
10
23.630558
20
80.206658
11
23.731491
21
80.063958
0
LINE
8
annotation
62
1
39
211
10
23.731491
20
80.063958
11
23.854815
21
79.940636
0
LINE
8
annotation
62
1
39
211
10
23.854815
20
79.940636
11
23.997648
21
79.839622
0
LINE
8
annotation
62
1
39
211
10
23.997648
20
79.839622
11
24.157110
21
79.763843
0
LINE
8
annotation
62
1
39
211
10
24.157110
20
79.763843
11
24.330320
21
79.716228
0
LINE
8
annotation
62
1
39
211
10
24.330320
20
79.716228
11
24.514397
21
79.699705
0
LINE
8
annotation
62
1
39
211
10
24.514397
20
79.699705
11
25.026863
21
79.699705
0
LINE
8
annotation
62
1
39
211
10
25.026863
20
79.699705
11
24.514397
21
79.699705
0
LINE
8
annotation
62
1
39
211
10
24.514397
20
79.699705
11
24.514397
21
79.699705
0
LINE
8
annotation
62
1
39
211
10
24.514397
20
79.699705
11
24.330320
21
79.683179
0
LINE
8
annotation
62
1
39
211
10
24.330320
20
79.683179
11
24.157110
21
79.635536
0
LINE
8
annotation
62
1
39
211
10
24.157110
20
79.635536
11
23.997648
21
79.559682
0
LINE
8
annotation
62
1
39
211
10
23.997648
20
79.559682
11
23.854815
21
79.458521
0
LINE
8
annotation
62
1
39
211
10
23.854815
20
79.458521
11
23.731491
21
79.334957
0
LINE
8
annotation
62
1
39
211
10
23.731491
20
79.334957
11
23.630558
21
79.191896
0
LINE
8
annotation
62
1
39
211
10
23.630558
20
79.191896
11
23.554896
21
79.032241
0
LINE
8
annotation
62
1
39
211
10
23.554896
20
79.032241
11
23.507386
21
78.858899
0
LINE
8
annotation
62
1
39
211
10
23.507386
20
78.858899
11
23.490909
21
78.674773
0
LINE
8
annotation
62
1
39
211
10
23.490909
20
78.674773
11
23.490909
21
78.674773
0
LINE
8
annotation
62
1
39
211
10
23.490909
20
78.674773
11
23.507386
21
78.491507
0
LINE
8
annotation
62
1
39
211
10
23.507386
20
78.491507
11
23.554896
21
78.318834
0
LINE
8
annotation
62
1
39
211
10
23.554896
20
78.318834
11
23.630558
21
78.159684
0
LINE
8
annotation
62
1
39
211
10
23.630558
20
78.159684
11
23.731491
21
78.016983
0
LINE
8
annotation
62
1
39
211
10
23.731491
20
78.016983
11
23.854815
21
77.893661
0
LINE
8
annotation
62
1
39
211
10
23.854815
20
77.893661
11
23.997648
21
77.792647
0
LINE
8
annotation
62
1
39
211
10
23.997648
20
77.792647
11
24.157110
21
77.716868
0
LINE
8
annotation
62
1
39
211
10
24.157110
20
77.716868
11
24.330320
21
77.669253
0
LINE
8
annotation
62
1
39
211
10
24.330320
20
77.669253
11
24.514397
21
77.652730
0
LINE
8
annotation
62
1
39
211
10
24.514397
20
77.652730
11
25.537884
21
77.652730
0
LINE
8
annotation
62
1
39
211
10
29.221474
20
68.122590
11
30.299361
21
64.099860
0
LINE
8
annotation
62
1
39
211
10
30.299361
20
64.099860
11
30.953970
21
65.234045
0
LINE
8
annotation
62
1
39
211
10
25.719089
20
66.225616
11
27.952705
21
66.824112
0
LINE
8
annotation
62
1
39
211
10
27.952705
20
66.824112
11
27.898930
21
63.456667
0
LINE
8
annotation
62
1
39
211
10
26.148991
20
67.299320
11
26.627706
21
65.512730
0
LINE
8
annotation
62
1
39
211
10
34.224500
20
55.367756
11
36.529009
21
51.376230
0
LINE
8
annotation
62
1
39
211
10
36.529009
20
51.376230
11
36.903910
21
52.776169
0
LINE
8
annotation
62
1
39
211
10
32.727803
20
54.503638
11
31.841437
21
53.991894
0
LINE
8
annotation
62
1
39
211
10
31.841437
20
53.991894
11
31.841437
21
53.991894
0
LINE
8
annotation
62
1
39
211
10
31.841437
20
53.991894
11
31.690610
21
53.885742
0
LINE
8
annotation
62
1
39
211
10
31.690610
20
53.885742
11
31.564589
21
53.758002
0
LINE
8
annotation
62
1
39
211
10
31.564589
20
53.758002
11
31.464450
21
53.612642
0
LINE
8
annotation
62
1
39
211
10
31.464450
20
53.612642
11
31.391269
21
53.453633
0
LINE
8
annotation
62
1
39
211
10
31.391269
20
53.453633
11
31.346123
21
53.284944
0
LINE
8
annotation
62
1
39
211
10
31.346123
20
53.284944
11
31.330086
21
53.110544
0
LINE
8
annotation
62
1
39
211
10
31.330086
20
53.110544
11
31.344235
21
52.934405
0
LINE
8
annotation
62
1
39
211
10
31.344235
20
52.934405
11
31.389645
21
52.760494
0
LINE
8
annotation
62
1
39
211
10
31.389645
20
52.760494
11
31.467392
21
52.592783
0
LINE
8
annotation
62
1
39
211
10
31.467392
20
52.592783
11
31.722325
21
52.151227
0
LINE
8
annotation
62
1
39
211
10
31.722325
20
52.151227
11
31.722325
21
52.151227
0
LINE
8
annotation
62
1
39
211
10
31.722325
20
52.151227
11
31.828641
21
52.000112
0
LINE
8
annotation
62
1
39
211
10
31.828641
20
52.000112
11
31.956406
21
51.874026
0
LINE
8
annotation
62
1
39
211
10
31.956406
20
51.874026
11
32.101674
21
51.773987
0
LINE
8
annotation
62
1
39
211
10
32.101674
20
51.773987
11
32.260494
21
51.701016
0
LINE
8
annotation
62
1
39
211
10
32.260494
20
51.701016
11
32.428920
21
51.656131
0
LINE
8
annotation
62
1
39
211
10
32.428920
20
51.656131
11
32.603003
21
51.640353
0
LINE
8
annotation
62
1
39
211
10
32.603003
20
51.640353
11
32.778795
21
51.654702
0
LINE
8
annotation
62
1
39
211
10
32.778795
20
51.654702
11
32.952347
21
51.700196
0
LINE
8
annotation
62
1
39
211
10
32.952347
20
51.700196
11
33.119712
21
51.777856
0
LINE
8
annotation
62
1
39
211
10
33.119712
20
51.777856
11
34.006078
21
52.289600
0
LINE
8
annotation
62
1
39
211
10
34.006078
20
52.289600
11
35.032312
21
50.512111
0
LINE
8
annotation
62
1
39
211
10
35.032312
20
50.512111
11
33.259579
21
49.488624
0
LINE
8
annotation
62
1
39
211
10
42.368896
20
44.165365
11
45.627963
21
40.906298
0
LINE
8
annotation
62
1
39
211
10
45.627963
20
40.906298
11
45.627759
21
42.355567
0
LINE
8
annotation
62
1
39
211
10
43.318810
20
38.597144
11
43.318810
21
38.597144
0
LINE
8
annotation
62
1
39
211
10
43.318810
20
38.597144
11
43.448401
21
38.882205
0
LINE
8
annotation
62
1
39
211
10
43.448401
20
38.882205
11
43.533912
21
39.177193
0
LINE
8
annotation
62
1
39
211
10
43.533912
20
39.177193
11
43.576013
21
39.477529
0
LINE
8
annotation
62
1
39
211
10
43.576013
20
39.477529
11
43.575375
21
39.778638
0
LINE
8
annotation
62
1
39
211
10
43.575375
20
39.778638
11
43.532670
21
40.075941
0
LINE
8
annotation
62
1
39
211
10
43.532670
20
40.075941
11
43.448569
21
40.364863
0
LINE
8
annotation
62
1
39
211
10
43.448569
20
40.364863
11
43.323744
21
40.640825
0
LINE
8
annotation
62
1
39
211
10
43.323744
20
40.640825
11
43.158864
21
40.899251
0
LINE
8
annotation
62
1
39
211
10
43.158864
20
40.899251
11
42.954602
21
41.135563
0
LINE
8
annotation
62
1
39
211
10
42.954602
20
41.135563
11
41.871380
21
42.218785
0
LINE
8
annotation
62
1
39
211
10
41.871380
20
42.218785
11
41.871380
21
42.218785
0
LINE
8
annotation
62
1
39
211
10
41.871380
20
42.218785
11
41.729506
21
42.337290
0
LINE
8
annotation
62
1
39
211
10
41.729506
20
42.337290
11
41.573274
21
42.426164
0
LINE
8
annotation
62
1
39
211
10
41.573274
20
42.426164
11
41.406798
21
42.485419
0
LINE
8
annotation
62
1
39
211
10
41.406798
20
42.485419
11
41.234191
21
42.515067
0
LINE
8
annotation
62
1
39
211
10
41.234191
20
42.515067
11
41.059565
21
42.515118
0
LINE
8
annotation
62
1
39
211
10
41.059565
20
42.515118
11
40.887033
21
42.485586
0
LINE
8
annotation
62
1
39
211
10
40.887033
20
42.485586
11
40.720709
21
42.426481
0
LINE
8
annotation
62
1
39
211
10
40.720709
20
42.426481
11
40.564704
21
42.337816
0
LINE
8
annotation
62
1
39
211
10
40.564704
20
42.337816
11
40.423133
21
42.219602
0
LINE
8
annotation
62
1
39
211
10
40.423133
20
42.219602
11
40.423133
21
42.219602
0
LINE
8
annotation
62
1
39
211
10
40.423133
20
42.219602
11
40.304650
21
42.077761
0
LINE
8
annotation
62
1
39
211
10
40.304650
20
42.077761
11
40.215842
21
41.921614
0
LINE
8
annotation
62
1
39
211
10
40.215842
20
41.921614
11
40.156695
21
41.755247
0
LINE
8
annotation
62
1
39
211
10
40.156695
20
41.755247
11
40.127196
21
41.582749
0
LINE
8
annotation
62
1
39
211
10
40.127196
20
41.582749
11
40.127332
21
41.408208
0
LINE
8
annotation
62
1
39
211
10
40.127332
20
41.408208
11
40.157088
21
41.235710
0
LINE
8
annotation
62
1
39
211
10
40.157088
20
41.235710
11
40.216453
21
41.069343
0
LINE
8
annotation
62
1
39
211
10
40.216453
20
41.069343
11
40.305411
21
40.913196
0
LINE
8
annotation
62
1
39
211
10
40.305411
20
40.913196
11
40.423950
21
40.771355
0
LINE
8
annotation
62
1
39
211
10
40.423950
20
40.771355
11
40.784479
21
40.410826
0
LINE
8
annotation
62
1
39
211
10
40.784479
20
40.410826
11
40.784479
21
40.410826
0
LINE
8
annotation
62
1
39
211
10
40.784479
20
40.410826
11
40.926257
21
40.292350
0
LINE
8
annotation
62
1
39
211
10
40.926257
20
40.292350
11
41.082235
21
40.203561
0
LINE
8
annotation
62
1
39
211
10
41.082235
20
40.203561
11
41.248357
21
40.144441
0
LINE
8
annotation
62
1
39
211
10
41.248357
20
40.144441
11
41.420565
21
40.114975
0
LINE
8
annotation
62
1
39
211
10
41.420565
20
40.114975
11
41.594801
21
40.115144
0
LINE
8
annotation
62
1
39
211
10
41.594801
20
40.115144
11
41.767009
21
40.144933
0
LINE
8
annotation
62
1
39
211
10
41.767009
20
40.144933
11
41.933131
21
40.204325
0
LINE
8
annotation
62
1
39
211
10
41.933131
20
40.204325
11
42.089109
21
40.293302
0
LINE
8
annotation
62
1
39
211
10
42.089109
20
40.293302
11
42.230887
21
40.411848
0
LINE
8
annotation
62
1
39
211
10
42.230887
20
40.411848
11
42.954602
21
41.135563
0
LINE
8
annotation
62
1
39
211
10
40.830107
20
43.441344
11
39.200574
21
41.811810
0
LINE
8
annotation
62
1
39
211
10
53.021633
20
35.380542
11
57.010997
21
33.077282
0
LINE
8
annotation
62
1
39
211
10
57.010997
20
33.077282
11
56.635905
21
34.476357
0
LINE
8
annotation
62
1
39
211
10
51.645866
20
32.997644
11
55.123186
21
29.807497
0
LINE
8
annotation
62
1
39
211
10
55.123186
20
29.807497
11
56.147419
21
31.581521
0
LINE
8
annotation
62
1
39
211
10
53.346661
20
30.833174
11
53.858705
21
31.720061
0
LINE
8
annotation
62
1
39
211
10
65.563595
20
29.699485
11
70.015564
21
28.506584
0
LINE
8
annotation
62
1
39
211
10
70.015564
20
28.506584
11
69.290752
21
29.761586
0
LINE
8
annotation
62
1
39
211
10
66.103372
20
27.765650
11
66.103372
21
27.765650
0
LINE
8
annotation
62
1
39
211
10
66.103372
20
27.765650
11
65.921338
21
27.797318
0
LINE
8
annotation
62
1
39
211
10
65.921338
20
27.797318
11
65.741832
21
27.796108
0
LINE
8
annotation
62
1
39
211
10
65.741832
20
27.796108
11
65.568366
21
27.764097
0
LINE
8
annotation
62
1
39
211
10
65.568366
20
27.764097
11
65.404457
21
27.703362
0
LINE
8
annotation
62
1
39
211
10
65.404457
20
27.703362
11
65.253617
21
27.615982
0
LINE
8
annotation
62
1
39
211
10
65.253617
20
27.615982
11
65.119363
21
27.504034
0
LINE
8
annotation
62
1
39
211
10
65.119363
20
27.504034
11
65.005209
21
27.369597
0
LINE
8
annotation
62
1
39
211
10
65.005209
20
27.369597
11
64.914668
21
27.214746
0
LINE
8
annotation
62
1
39
211
10
64.914668
20
27.214746
11
64.851257
21
27.041561
0
LINE
8
annotation
62
1
39
211
10
64.851257
20
27.041561
11
64.851257
21
27.041561
0
LINE
8
annotation
62
1
39
211
10
64.851257
20
27.041561
11
64.819580
21
26.859873
0
LINE
8
annotation
62
1
39
211
10
64.819580
20
26.859873
11
64.820565
21
26.680498
0
LINE
8
annotation
62
1
39
211
10
64.820565
20
26.680498
11
64.852207
21
26.506994
0
LINE
8
annotation
62
1
39
211
10
64.852207
20
26.506994
11
64.912501
21
26.342917
0
LINE
8
annotation
62
1
39
211
10
64.912501
20
26.342917
11
64.999441
21
26.191824
0
LINE
8
annotation
62
1
39
211
10
64.999441
20
26.191824
11
65.111024
21
26.057272
0
LINE
8
annotation
62
1
39
211
10
65.111024
20
26.057272
11
65.245244
21
25.942817
0
LINE
8
annotation
62
1
39
211
10
65.245244
20
25.942817
11
65.400096
21
25.852015
0
LINE
8
annotation
62
1
39
211
10
65.400096
20
25.852015
11
65.573576
21
25.788424
0
LINE
8
annotation
62
1
39
211
10
65.573576
20
25.788424
11
66.066067
21
25.656461
0
LINE
8
annotation
62
1
39
211
10
66.066067
20
25.656461
11
66.066067
21
25.656461
0
LINE
8
annotation
62
1
39
211
10
66.066067
20
25.656461
11
66.248185
21
25.624761
0
LINE
8
annotation
62
1
39
211
10
66.248185
20
25.624761
11
66.427916
21
25.625886
0
LINE
8
annotation
62
1
39
211
10
66.427916
20
25.625886
11
66.601708
21
25.657778
0
LINE
8
annotation
62
1
39
211
10
66.601708
20
25.657778
11
66.766006
21
25.718376
0
LINE
8
annotation
62
1
39
211
10
66.766006
20
25.718376
11
66.917256
21
25.805622
0
LINE
8
annotation
62
1
39
211
10
66.917256
20
25.805622
11
67.051904
21
25.917454
0
LINE
8
annotation
62
1
39
211
10
67.051904
20
25.917454
11
67.166396
21
26.051814
0
LINE
8
annotation
62
1
39
211
10
67.166396
20
26.051814
11
67.257178
21
26.206642
0
LINE
8
annotation
62
1
39
211
10
67.257178
20
26.206642
11
67.320695
21
26.379877
0
LINE
8
annotation
62
1
39
211
10
67.320695
20
26.379877
11
67.320695
21
26.379877
0
LINE
8
annotation
62
1
39
211
10
67.320695
20
26.379877
11
67.352296
21
26.561665
0
LINE
8
annotation
62
1
39
211
10
67.352296
20
26.561665
11
67.351068
21
26.741146
0
LINE
8
annotation
62
1
39
211
10
67.351068
20
26.741146
11
67.319065
21
26.914759
0
LINE
8
annotation
62
1
39
211
10
67.319065
20
26.914759
11
67.258342
21
27.078941
0
LINE
8
annotation
62
1
39
211
10
67.258342
20
27.078941
11
67.170956
21
27.230129
0
LINE
8
annotation
62
1
39
211
10
67.170956
20
27.230129
11
67.058959
21
27.364760
0
LINE
8
annotation
62
1
39
211
10
67.058959
20
27.364760
11
66.924409
21
27.479272
0
LINE
8
annotation
62
1
39
211
10
66.924409
20
27.479272
11
66.769358
21
27.570102
0
LINE
8
annotation
62
1
39
211
10
66.769358
20
27.570102
11
66.595864
21
27.633687
0
LINE
8
annotation
62
1
39
211
10
66.595864
20
27.633687
11
66.103372
21
27.765650
0
LINE
8
annotation
62
1
39
211
10
68.045806
20
25.125992
11
68.045806
21
25.125992
0
LINE
8
annotation
62
1
39
211
10
68.045806
20
25.125992
11
68.227102
21
25.094511
0
LINE
8
annotation
62
1
39
211
10
68.227102
20
25.094511
11
68.406212
21
25.095803
0
LINE
8
annotation
62
1
39
211
10
68.406212
20
25.095803
11
68.579554
21
25.127816
0
LINE
8
annotation
62
1
39
211
10
68.579554
20
25.127816
11
68.743548
21
25.188496
0
LINE
8
annotation
62
1
39
211
10
68.743548
20
25.188496
11
68.894611
21
25.275791
0
LINE
8
annotation
62
1
39
211
10
68.894611
20
25.275791
11
69.029161
21
25.387650
0
LINE
8
annotation
62
1
39
211
10
69.029161
20
25.387650
11
69.143617
21
25.522019
0
LINE
8
annotation
62
1
39
211
10
69.143617
20
25.522019
11
69.234398
21
25.676847
0
LINE
8
annotation
62
1
39
211
10
69.234398
20
25.676847
11
69.297921
21
25.850081
0
LINE
8
annotation
62
1
39
211
10
69.297921
20
25.850081
11
69.297921
21
25.850081
0
LINE
8
annotation
62
1
39
211
10
69.297921
20
25.850081
11
69.329525
21
26.031868
0
LINE
8
annotation
62
1
39
211
10
69.329525
20
26.031868
11
69.328321
21
26.211343
0
LINE
8
annotation
62
1
39
211
10
69.328321
20
26.211343
11
69.296384
21
26.384938
0
LINE
8
annotation
62
1
39
211
10
69.296384
20
26.384938
11
69.235789
21
26.549086
0
LINE
8
annotation
62
1
39
211
10
69.235789
20
26.549086
11
69.148612
21
26.700217
0
LINE
8
annotation
62
1
39
211
10
69.148612
20
26.700217
11
69.036930
21
26.834765
0
LINE
8
annotation
62
1
39
211
10
69.036930
20
26.834765
11
68.902817
21
26.949159
0
LINE
8
annotation
62
1
39
211
10
68.902817
20
26.949159
11
68.748349
21
27.039833
0
LINE
8
annotation
62
1
39
211
10
68.748349
20
27.039833
11
68.575602
21
27.103218
0
LINE
8
annotation
62
1
39
211
10
68.575602
20
27.103218
11
68.575602
21
27.103218
0
LINE
8
annotation
62
1
39
211
10
68.575602
20
27.103218
11
68.393473
21
27.134912
0
LINE
8
annotation
62
1
39
211
10
68.393473
20
27.134912
11
68.213710
21
27.133770
0
LINE
8
annotation
62
1
39
211
10
68.213710
20
27.133770
11
68.039873
21
27.101859
0
LINE
8
annotation
62
1
39
211
10
68.039873
20
27.101859
11
67.875523
21
27.041242
0
LINE
8
annotation
62
1
39
211
10
67.875523
20
27.041242
11
67.724220
21
26.953986
0
LINE
8
annotation
62
1
39
211
10
67.724220
20
26.953986
11
67.589526
21
26.842157
0
LINE
8
annotation
62
1
39
211
10
67.589526
20
26.842157
11
67.474999
21
26.707818
0
LINE
8
annotation
62
1
39
211
10
67.474999
20
26.707818
11
67.384203
21
26.553036
0
LINE
8
annotation
62
1
39
211
10
67.384203
20
26.553036
11
67.320695
21
26.379877
0
LINE
8
annotation
62
1
39
211
10
67.320695
20
26.379877
11
67.320695
21
26.379877
0
LINE
8
annotation
62
1
39
211
10
67.320695
20
26.379877
11
67.289114
21
26.198163
0
LINE
8
annotation
62
1
39
211
10
67.289114
20
26.198163
11
67.290356
21
26.018720
0
LINE
8
annotation
62
1
39
211
10
67.290356
20
26.018720
11
67.322369
21
25.845116
0
LINE
8
annotation
62
1
39
211
10
67.322369
20
25.845116
11
67.383103
21
25.680921
0
LINE
8
annotation
62
1
39
211
10
67.383103
20
25.680921
11
67.470507
21
25.529704
0
LINE
8
annotation
62
1
39
211
10
67.470507
20
25.529704
11
67.582530
21
25.395034
0
LINE
8
annotation
62
1
39
211
10
67.582530
20
25.395034
11
67.717122
21
25.280479
0
LINE
8
annotation
62
1
39
211
10
67.717122
20
25.280479
11
67.872231
21
25.189609
0
LINE
8
annotation
62
1
39
211
10
67.872231
20
25.189609
11
68.045806
21
25.125992
0
LINE
8
annotation
62
1
39
211
10
79.109981
20
27.615976
11
83.718999
21
27.615976
0
LINE
8
annotation
62
1
39
211
10
83.718999
20
27.615976
11
82.694066
21
28.640620
0
LINE
8
annotation
62
1
39
211
10
79.109981
20
25.376718
11
79.109981
21
25.376718
0
LINE
8
annotation
62
1
39
211
10
79.109981
20
25.376718
11
79.219051
21
25.084031
0
LINE
8
annotation
62
1
39
211
10
79.219051
20
25.084031
11
79.366478
21
24.815381
0
LINE
8
annotation
62
1
39
211
10
79.366478
20
24.815381
11
79.548507
21
24.573543
0
LINE
8
annotation
62
1
39
211
10
79.548507
20
24.573543
11
79.761381
21
24.361294
0
LINE
8
annotation
62
1
39
211
10
79.761381
20
24.361294
11
80.001344
21
24.181411
0
LINE
8
annotation
62
1
39
211
10
80.001344
20
24.181411
11
80.264639
21
24.036669
0
LINE
8
annotation
62
1
39
211
10
80.264639
20
24.036669
11
80.547510
21
23.929845
0
LINE
8
annotation
62
1
39
211
10
80.547510
20
23.929845
11
80.846201
21
23.863714
0
LINE
8
annotation
62
1
39
211
10
80.846201
20
23.863714
11
81.156956
21
23.841054
0
LINE
8
annotation
62
1
39
211
10
81.156956
20
23.841054
11
82.694066
21
23.841054
0
LINE
8
annotation
62
1
39
211
10
82.694066
20
23.841054
11
82.694066
21
23.841054
0
LINE
8
annotation
62
1
39
211
10
82.694066
20
23.841054
11
82.878192
21
23.857530
0
LINE
8
annotation
62
1
39
211
10
82.878192
20
23.857530
11
83.051535
21
23.905040
0
LINE
8
annotation
62
1
39
211
10
83.051535
20
23.905040
11
83.211189
21
23.980702
0
LINE
8
annotation
62
1
39
211
10
83.211189
20
23.980702
11
83.354250
21
24.081636
0
LINE
8
annotation
62
1
39
211
10
83.354250
20
24.081636
11
83.477814
21
24.204959
0
LINE
8
annotation
62
1
39
211
10
83.477814
20
24.204959
11
83.578975
21
24.347793
0
LINE
8
annotation
62
1
39
211
10
83.578975
20
24.347793
11
83.654829
21
24.507255
0
LINE
8
annotation
62
1
39
211
10
83.654829
20
24.507255
11
83.702472
21
24.680464
0
LINE
8
annotation
62
1
39
211
10
83.702472
20
24.680464
11
83.718999
21
24.864541
0
LINE
8
annotation
62
1
39
211
10
83.718999
20
24.864541
11
83.718999
21
24.864541
0
LINE
8
annotation
62
1
39
211
10
83.718999
20
24.864541
11
83.702472
21
25.048237
0
LINE
8
annotation
62
1
39
211
10
83.702472
20
25.048237
11
83.654829
21
25.221245
0
LINE
8
annotation
62
1
39
211
10
83.654829
20
25.221245
11
83.578975
21
25.380647
0
LINE
8
annotation
62
1
39
211
10
83.578975
20
25.380647
11
83.477814
21
25.523528
0
LINE
8
annotation
62
1
39
211
10
83.477814
20
25.523528
11
83.354250
21
25.646971
0
LINE
8
annotation
62
1
39
211
10
83.354250
20
25.646971
11
83.211189
21
25.748059
0
LINE
8
annotation
62
1
39
211
10
83.211189
20
25.748059
11
83.051535
21
25.823875
0
LINE
8
annotation
62
1
39
211
10
83.051535
20
25.823875
11
82.878192
21
25.871504
0
LINE
8
annotation
62
1
39
211
10
82.878192
20
25.871504
11
82.694066
21
25.888029
0
LINE
8
annotation
62
1
39
211
10
82.694066
20
25.888029
11
82.181600
21
25.888029
0
LINE
8
annotation
62
1
39
211
10
82.181600
20
25.888029
11
82.181600
21
25.888029
0
LINE
8
annotation
62
1
39
211
10
82.181600
20
25.888029
11
81.997483
21
25.871504
0
LINE
8
annotation
62
1
39
211
10
81.997483
20
25.871504
11
81.824167
21
25.823875
0
LINE
8
annotation
62
1
39
211
10
81.824167
20
25.823875
11
81.664551
21
25.748059
0
LINE
8
annotation
62
1
39
211
10
81.664551
20
25.748059
11
81.521536
21
25.646971
0
LINE
8
annotation
62
1
39
211
10
81.521536
20
25.646971
11
81.398020
21
25.523528
0
LINE
8
annotation
62
1
39
211
10
81.398020
20
25.523528
11
81.296904
21
25.380647
0
LINE
8
annotation
62
1
39
211
10
81.296904
20
25.380647
11
81.221089
21
25.221245
0
LINE
8
annotation
62
1
39
211
10
81.221089
20
25.221245
11
81.173472
21
25.048237
0
LINE
8
annotation
62
1
39
211
10
81.173472
20
25.048237
11
81.156956
21
24.864541
0
LINE
8
annotation
62
1
39
211
10
81.156956
20
24.864541
11
81.156956
21
23.841054
0
LINE
8
annotation
62
1
39
211
10
78.533854
20
26.015928
11
78.533854
21
23.711420
0
LINE
8
annotation
62
1
39
211
10
93.203125
20
28.604931
11
92.765727
21
30.237321
0
LINE
8
annotation
62
1
39
211
10
92.765727
20
30.237321
11
95.598198
21
29.379601
0
LINE
8
annotation
62
1
39
211
10
95.598198
20
29.379601
11
95.598198
21
29.379601
0
LINE
8
annotation
62
1
39
211
10
95.598198
20
29.379601
11
95.600912
21
29.378395
0
LINE
8
annotation
62
1
39
211
10
95.600912
20
29.378395
11
95.603626
21
29.377269
0
LINE
8
annotation
62
1
39
211
10
95.603626
20
29.377269
11
95.606361
21
29.376216
0
LINE
8
annotation
62
1
39
211
10
95.606361
20
29.376216
11
95.609139
21
29.375229
0
LINE
8
annotation
62
1
39
211
10
95.609139
20
29.375229
11
95.611982
21
29.374302
0
LINE
8
annotation
62
1
39
211
10
95.611982
20
29.374302
11
95.614912
21
29.373429
0
LINE
8
annotation
62
1
39
211
10
95.614912
20
29.373429
11
95.617952
21
29.372603
0
LINE
8
annotation
62
1
39
211
10
95.617952
20
29.372603
11
95.621123
21
29.371819
0
LINE
8
annotation
62
1
39
211
10
95.621123
20
29.371819
11
95.624447
21
29.371070
0
LINE
8
annotation
62
1
39
211
10
95.624447
20
29.371070
11
95.624447
21
29.371070
0
LINE
8
annotation
62
1
39
211
10
95.624447
20
29.371070
11
95.774857
21
29.344620
0
LINE
8
annotation
62
1
39
211
10
95.774857
20
29.344620
11
95.923221
21
29.345379
0
LINE
8
annotation
62
1
39
211
10
95.923221
20
29.345379
11
96.066645
21
29.371614
0
LINE
8
annotation
62
1
39
211
10
96.066645
20
29.371614
11
96.202235
21
29.421597
0
LINE
8
annotation
62
1
39
211
10
96.202235
20
29.421597
11
96.327100
21
29.493595
0
LINE
8
annotation
62
1
39
211
10
96.327100
20
29.493595
11
96.438345
21
29.585878
0
LINE
8
annotation
62
1
39
211
10
96.438345
20
29.585878
11
96.533078
21
29.696715
0
LINE
8
annotation
62
1
39
211
10
96.533078
20
29.696715
11
96.608405
21
29.824375
0
LINE
8
annotation
62
1
39
211
10
96.608405
20
29.824375
11
96.661432
21
29.967127
0
LINE
8
annotation
62
1
39
211
10
96.661432
20
29.967127
11
96.661432
21
29.967127
0
LINE
8
annotation
62
1
39
211
10
96.661432
20
29.967127
11
96.686898
21
30.117671
0
LINE
8
annotation
62
1
39
211
10
96.686898
20
30.117671
11
96.685522
21
30.266097
0
LINE
8
annotation
62
1
39
211
10
96.685522
20
30.266097
11
96.658943
21
30.409516
0
LINE
8
annotation
62
1
39
211
10
96.658943
20
30.409516
11
96.608798
21
30.545041
0
LINE
8
annotation
62
1
39
211
10
96.608798
20
30.545041
11
96.536726
21
30.669784
0
LINE
8
annotation
62
1
39
211
10
96.536726
20
30.669784
11
96.444364
21
30.780858
0
LINE
8
annotation
62
1
39
211
10
96.444364
20
30.780858
11
96.333350
21
30.875374
0
LINE
8
annotation
62
1
39
211
10
96.333350
20
30.875374
11
96.205322
21
30.950446
0
LINE
8
annotation
62
1
39
211
10
96.205322
20
30.950446
11
96.061919
21
31.003185
0
LINE
8
annotation
62
1
39
211
10
96.061919
20
31.003185
11
95.827595
21
31.055276
0
LINE
8
annotation
62
1
39
211
10
93.779225
20
26.648942
11
93.779225
21
26.648942
0
LINE
8
annotation
62
1
39
211
10
93.779225
20
26.648942
11
93.770181
21
26.554961
0
LINE
8
annotation
62
1
39
211
10
93.770181
20
26.554961
11
93.777790
21
26.463101
0
LINE
8
annotation
62
1
39
211
10
93.777790
20
26.463101
11
93.800876
21
26.375168
0
LINE
8
annotation
62
1
39
211
10
93.800876
20
26.375168
11
93.838261
21
26.292969
0
LINE
8
annotation
62
1
39
211
10
93.838261
20
26.292969
11
93.888768
21
26.218313
0
LINE
8
annotation
62
1
39
211
10
93.888768
20
26.218313
11
93.951218
21
26.153005
0
LINE
8
annotation
62
1
39
211
10
93.951218
20
26.153005
11
94.024434
21
26.098854
0
LINE
8
annotation
62
1
39
211
10
94.024434
20
26.098854
11
94.107238
21
26.057666
0
LINE
8
annotation
62
1
39
211
10
94.107238
20
26.057666
11
94.198453
21
26.031248
0
LINE
8
annotation
62
1
39
211
10
94.198453
20
26.031248
11
94.198453
21
26.031248
0
LINE
8
annotation
62
1
39
211
10
94.198453
20
26.031248
11
94.567785
21
25.978469
0
LINE
8
annotation
62
1
39
211
10
94.567785
20
25.978469
11
94.937225
21
25.963653
0
LINE
8
annotation
62
1
39
211
10
94.937225
20
25.963653
11
95.304054
21
25.986074
0
LINE
8
annotation
62
1
39
211
10
95.304054
20
25.986074
11
95.665554
21
26.045002
0
LINE
8
annotation
62
1
39
211
10
95.665554
20
26.045002
11
96.019006
21
26.139709
0
LINE
8
annotation
62
1
39
211
10
96.019006
20
26.139709
11
96.361692
21
26.269467
0
LINE
8
annotation
62
1
39
211
10
96.361692
20
26.269467
11
96.690893
21
26.433547
0
LINE
8
annotation
62
1
39
211
10
96.690893
20
26.433547
11
97.003890
21
26.631221
0
LINE
8
annotation
62
1
39
211
10
97.003890
20
26.631221
11
97.297966
21
26.861760
0
LINE
8
annotation
62
1
39
211
10
97.297966
20
26.861760
11
97.297966
21
26.861760
0
LINE
8
annotation
62
1
39
211
10
97.297966
20
26.861760
11
97.326648
21
26.888743
0
LINE
8
annotation
62
1
39
211
10
97.326648
20
26.888743
11
97.353214
21
26.917739
0
LINE
8
annotation
62
1
39
211
10
97.353214
20
26.917739
11
97.377546
21
26.948551
0
LINE
8
annotation
62
1
39
211
10
97.377546
20
26.948551
11
97.399528
21
26.980985
0
LINE
8
annotation
62
1
39
211
10
97.399528
20
26.980985
11
97.419044
21
27.014845
0
LINE
8
annotation
62
1
39
211
10
97.419044
20
27.014845
11
97.435978
21
27.049934
0
LINE
8
annotation
62
1
39
211
10
97.435978
20
27.049934
11
97.450213
21
27.086056
0
LINE
8
annotation
62
1
39
211
10
97.450213
20
27.086056
11
97.461633
21
27.123017
0
LINE
8
annotation
62
1
39
211
10
97.461633
20
27.123017
11
97.470122
21
27.160619
0
LINE
8
annotation
62
1
39
211
10
97.470122
20
27.160619
11
97.470122
21
27.160619
0
LINE
8
annotation
62
1
39
211
10
97.470122
20
27.160619
11
97.479677
21
27.255463
0
LINE
8
annotation
62
1
39
211
10
97.479677
20
27.255463
11
97.472472
21
27.347982
0
LINE
8
annotation
62
1
39
211
10
97.472472
20
27.347982
11
97.449683
21
27.436392
0
LINE
8
annotation
62
1
39
211
10
97.449683
20
27.436392
11
97.412484
21
27.518910
0
LINE
8
annotation
62
1
39
211
10
97.412484
20
27.518910
11
97.362052
21
27.593752
0
LINE
8
annotation
62
1
39
211
10
97.362052
20
27.593752
11
97.299561
21
27.659135
0
LINE
8
annotation
62
1
39
211
10
97.299561
20
27.659135
11
97.226187
21
27.713276
0
LINE
8
annotation
62
1
39
211
10
97.226187
20
27.713276
11
97.143105
21
27.754391
0
LINE
8
annotation
62
1
39
211
10
97.143105
20
27.754391
11
97.051491
21
27.780696
0
LINE
8
annotation
62
1
39
211
10
97.051491
20
27.780696
11
97.051491
21
27.780696
0
LINE
8
annotation
62
1
39
211
10
97.051491
20
27.780696
11
96.682410
21
27.832811
0
LINE
8
annotation
62
1
39
211
10
96.682410
20
27.832811
11
96.313159
21
27.847128
0
LINE
8
annotation
62
1
39
211
10
96.313159
20
27.847128
11
95.946455
21
27.824375
0
LINE
8
annotation
62
1
39
211
10
95.946455
20
27.824375
11
95.585018
21
27.765281
0
LINE
8
annotation
62
1
39
211
10
95.585018
20
27.765281
11
95.231566
21
27.670574
0
LINE
8
annotation
62
1
39
211
10
95.231566
20
27.670574
11
94.888817
21
27.540982
0
LINE
8
annotation
62
1
39
211
10
94.888817
20
27.540982
11
94.559491
21
27.377234
0
LINE
8
annotation
62
1
39
211
10
94.559491
20
27.377234
11
94.246305
21
27.180059
0
LINE
8
annotation
62
1
39
211
10
94.246305
20
27.180059
11
93.951978
21
26.950184
0
LINE
8
annotation
62
1
39
211
10
93.951978
20
26.950184
11
93.951978
21
26.950184
0
LINE
8
annotation
62
1
39
211
10
93.951978
20
26.950184
11
93.923345
21
26.923285
0
LINE
8
annotation
62
1
39
211
10
93.923345
20
26.923285
11
93.896898
21
26.894483
0
LINE
8
annotation
62
1
39
211
10
93.896898
20
26.894483
11
93.872713
21
26.863889
0
LINE
8
annotation
62
1
39
211
10
93.872713
20
26.863889
11
93.850863
21
26.831616
0
LINE
8
annotation
62
1
39
211
10
93.850863
20
26.831616
11
93.831422
21
26.797773
0
LINE
8
annotation
62
1
39
211
10
93.831422
20
26.797773
11
93.814464
21
26.762473
0
LINE
8
annotation
62
1
39
211
10
93.814464
20
26.762473
11
93.800063
21
26.725827
0
LINE
8
annotation
62
1
39
211
10
93.800063
20
26.725827
11
93.788292
21
26.687946
0
LINE
8
annotation
62
1
39
211
10
93.788292
20
26.687946
11
93.779225
21
26.648942
0
LINE
8
annotation
62
1
39
211
10
105.764022
20
33.168841
11
104.740683
21
34.941316
0
LINE
8
annotation
62
1
39
211
10
104.740683
20
34.941316
11
108.322970
21
34.825784
0
LINE
8
annotation
62
1
39
211
10
108.322970
20
34.825784
11
108.322970
21
34.825784
0
LINE
8
annotation
62
1
39
211
10
108.322970
20
34.825784
11
108.326523
21
34.825225
0
LINE
8
annotation
62
1
39
211
10
108.326523
20
34.825225
11
108.330051
21
34.824758
0
LINE
8
annotation
62
1
39
211
10
108.330051
20
34.824758
11
108.333580
21
34.824383
0
LINE
8
annotation
62
1
39
211
10
108.333580
20
34.824383
11
108.337139
21
34.824099
0
LINE
8
annotation
62
1
39
211
10
108.337139
20
34.824099
11
108.340756
21
34.823906
0
LINE
8
annotation
62
1
39
211
10
108.340756
20
34.823906
11
108.344457
21
34.823803
0
LINE
8
annotation
62
1
39
211
10
108.344457
20
34.823803
11
108.348272
21
34.823790
0
LINE
8
annotation
62
1
39
211
10
108.348272
20
34.823790
11
108.352227
21
34.823867
0
LINE
8
annotation
62
1
39
211
10
108.352227
20
34.823867
11
108.356351
21
34.824033
0
LINE
8
annotation
62
1
39
211
10
108.356351
20
34.824033
11
108.356351
21
34.824033
0
LINE
8
annotation
62
1
39
211
10
108.356351
20
34.824033
11
108.540592
21
34.840237
0
LINE
8
annotation
62
1
39
211
10
108.540592
20
34.840237
11
108.713910
21
34.887628
0
LINE
8
annotation
62
1
39
211
10
108.713910
20
34.887628
11
108.873464
21
34.963275
0
LINE
8
annotation
62
1
39
211
10
108.873464
20
34.963275
11
109.016412
21
35.064245
0
LINE
8
annotation
62
1
39
211
10
109.016412
20
35.064245
11
109.139911
21
35.187608
0
LINE
8
annotation
62
1
39
211
10
109.139911
20
35.187608
11
109.241121
21
35.330430
0
LINE
8
annotation
62
1
39
211
10
109.241121
20
35.330430
11
109.317198
21
35.489781
0
LINE
8
annotation
62
1
39
211
10
109.317198
20
35.489781
11
109.365301
21
35.662730
0
LINE
8
annotation
62
1
39
211
10
109.365301
20
35.662730
11
109.382587
21
35.846343
0
LINE
8
annotation
62
1
39
211
10
109.382587
20
35.846343
11
109.382587
21
35.846343
0
LINE
8
annotation
62
1
39
211
10
109.382587
20
35.846343
11
109.365189
21
36.030433
0
LINE
8
annotation
62
1
39
211
10
109.365189
20
36.030433
11
109.317056
21
36.203631
0
LINE
8
annotation
62
1
39
211
10
109.317056
20
36.203631
11
109.241009
21
36.363072
0
LINE
8
annotation
62
1
39
211
10
109.241009
20
36.363072
11
109.139869
21
36.505892
0
LINE
8
annotation
62
1
39
211
10
109.139869
20
36.505892
11
109.016458
21
36.629226
0
LINE
8
annotation
62
1
39
211
10
109.016458
20
36.629226
11
108.873597
21
36.730209
0
LINE
8
annotation
62
1
39
211
10
108.873597
20
36.730209
11
108.714107
21
36.805978
0
LINE
8
annotation
62
1
39
211
10
108.714107
20
36.805978
11
108.540808
21
36.853667
0
LINE
8
annotation
62
1
39
211
10
108.540808
20
36.853667
11
108.356523
21
36.870412
0
LINE
8
annotation
62
1
39
211
10
108.356523
20
36.870412
11
108.066082
21
36.857899
0
LINE
8
annotation
62
1
39
211
10
107.140614
20
30.784589
11
111.131561
21
33.088764
0
LINE
8
annotation
62
1
39
211
10
111.131561
20
33.088764
11
109.731825
21
33.463611
0
LINE
8
annotation
62
1
39
211
10
116.972275
20
41.707891
11
115.779281
21
42.900884
0
LINE
8
annotation
62
1
39
211
10
115.779281
20
42.900884
11
118.656312
21
43.573186
0
LINE
8
annotation
62
1
39
211
10
118.656312
20
43.573186
11
118.656312
21
43.573186
0
LINE
8
annotation
62
1
39
211
10
118.656312
20
43.573186
11
118.659261
21
43.573498
0
LINE
8
annotation
62
1
39
211
10
118.659261
20
43.573498
11
118.662169
21
43.573879
0
LINE
8
annotation
62
1
39
211
10
118.662169
20
43.573879
11
118.665059
21
43.574334
0
LINE
8
annotation
62
1
39
211
10
118.665059
20
43.574334
11
118.667954
21
43.574867
0
LINE
8
annotation
62
1
39
211
10
118.667954
20
43.574867
11
118.670875
21
43.575485
0
LINE
8
annotation
62
1
39
211
10
118.670875
20
43.575485
11
118.673844
21
43.576193
0
LINE
8
annotation
62
1
39
211
10
118.673844
20
43.576193
11
118.676884
21
43.576996
0
LINE
8
annotation
62
1
39
211
10
118.676884
20
43.576996
11
118.680017
21
43.577901
0
LINE
8
annotation
62
1
39
211
10
118.680017
20
43.577901
11
118.683265
21
43.578913
0
LINE
8
annotation
62
1
39
211
10
118.683265
20
43.578913
11
118.683265
21
43.578913
0
LINE
8
annotation
62
1
39
211
10
118.683265
20
43.578913
11
118.826509
21
43.631124
0
LINE
8
annotation
62
1
39
211
10
118.826509
20
43.631124
11
118.954402
21
43.705837
0
LINE
8
annotation
62
1
39
211
10
118.954402
20
43.705837
11
119.065307
21
43.800112
0
LINE
8
annotation
62
1
39
211
10
119.065307
20
43.800112
11
119.157586
21
43.911008
0
LINE
8
annotation
62
1
39
211
10
119.157586
20
43.911008
11
119.229602
21
44.035584
0
LINE
8
annotation
62
1
39
211
10
119.229602
20
44.035584
11
119.279718
21
44.170899
0
LINE
8
annotation
62
1
39
211
10
119.279718
20
44.170899
11
119.306296
21
44.314013
0
LINE
8
annotation
62
1
39
211
10
119.306296
20
44.314013
11
119.307699
21
44.461985
0
LINE
8
annotation
62
1
39
211
10
119.307699
20
44.461985
11
119.282289
21
44.611875
0
LINE
8
annotation
62
1
39
211
10
119.282289
20
44.611875
11
119.282289
21
44.611875
0
LINE
8
annotation
62
1
39
211
10
119.282289
20
44.611875
11
119.229159
21
44.754744
0
LINE
8
annotation
62
1
39
211
10
119.229159
20
44.754744
11
119.153881
21
44.882382
0
LINE
8
annotation
62
1
39
211
10
119.153881
20
44.882382
11
119.059311
21
44.993112
0
LINE
8
annotation
62
1
39
211
10
119.059311
20
44.993112
11
118.948308
21
45.085253
0
LINE
8
annotation
62
1
39
211
10
118.948308
20
45.085253
11
118.823729
21
45.157127
0
LINE
8
annotation
62
1
39
211
10
118.823729
20
45.157127
11
118.688431
21
45.207055
0
LINE
8
annotation
62
1
39
211
10
118.688431
20
45.207055
11
118.545272
21
45.233358
0
LINE
8
annotation
62
1
39
211
10
118.545272
20
45.233358
11
118.397109
21
45.234356
0
LINE
8
annotation
62
1
39
211
10
118.397109
20
45.234356
11
118.246800
21
45.208372
0
LINE
8
annotation
62
1
39
211
10
118.246800
20
45.208372
11
118.018207
21
45.136442
0
LINE
8
annotation
62
1
39
211
10
119.172988
20
39.507177
11
117.979995
21
40.700171
0
LINE
8
annotation
62
1
39
211
10
117.979995
20
40.700171
11
120.857026
21
41.372472
0
LINE
8
annotation
62
1
39
211
10
120.857026
20
41.372472
11
120.857026
21
41.372472
0
LINE
8
annotation
62
1
39
211
10
120.857026
20
41.372472
11
120.859974
21
41.372785
0
LINE
8
annotation
62
1
39
211
10
120.859974
20
41.372785
11
120.862883
21
41.373166
0
LINE
8
annotation
62
1
39
211
10
120.862883
20
41.373166
11
120.865773
21
41.373620
0
LINE
8
annotation
62
1
39
211
10
120.865773
20
41.373620
11
120.868668
21
41.374153
0
LINE
8
annotation
62
1
39
211
10
120.868668
20
41.374153
11
120.871588
21
41.374771
0
LINE
8
annotation
62
1
39
211
10
120.871588
20
41.374771
11
120.874558
21
41.375479
0
LINE
8
annotation
62
1
39
211
10
120.874558
20
41.375479
11
120.877598
21
41.376283
0
LINE
8
annotation
62
1
39
211
10
120.877598
20
41.376283
11
120.880731
21
41.377188
0
LINE
8
annotation
62
1
39
211
10
120.880731
20
41.377188
11
120.883979
21
41.378199
0
LINE
8
annotation
62
1
39
211
10
120.883979
20
41.378199
11
120.883979
21
41.378199
0
LINE
8
annotation
62
1
39
211
10
120.883979
20
41.378199
11
121.027223
21
41.430411
0
LINE
8
annotation
62
1
39
211
10
121.027223
20
41.430411
11
121.155116
21
41.505124
0
LINE
8
annotation
62
1
39
211
10
121.155116
20
41.505124
11
121.266021
21
41.599399
0
LINE
8
annotation
62
1
39
211
10
121.266021
20
41.599399
11
121.358300
21
41.710294
0
LINE
8
annotation
62
1
39
211
10
121.358300
20
41.710294
11
121.430316
21
41.834870
0
LINE
8
annotation
62
1
39
211
10
121.430316
20
41.834870
11
121.480432
21
41.970185
0
LINE
8
annotation
62
1
39
211
10
121.480432
20
41.970185
11
121.507010
21
42.113299
0
LINE
8
annotation
62
1
39
211
10
121.507010
20
42.113299
11
121.508412
21
42.261272
0
LINE
8
annotation
62
1
39
211
10
121.508412
20
42.261272
11
121.483002
21
42.411161
0
LINE
8
annotation
62
1
39
211
10
121.483002
20
42.411161
11
121.483002
21
42.411161
0
LINE
8
annotation
62
1
39
211
10
121.483002
20
42.411161
11
121.429872
21
42.554030
0
LINE
8
annotation
62
1
39
211
10
121.429872
20
42.554030
11
121.354594
21
42.681669
0
LINE
8
annotation
62
1
39
211
10
121.354594
20
42.681669
11
121.260025
21
42.792398
0
LINE
8
annotation
62
1
39
211
10
121.260025
20
42.792398
11
121.149022
21
42.884540
0
LINE
8
annotation
62
1
39
211
10
121.149022
20
42.884540
11
121.024442
21
42.956414
0
LINE
8
annotation
62
1
39
211
10
121.024442
20
42.956414
11
120.889145
21
43.006342
0
LINE
8
annotation
62
1
39
211
10
120.889145
20
43.006342
11
120.745985
21
43.032644
0
LINE
8
annotation
62
1
39
211
10
120.745985
20
43.032644
11
120.597823
21
43.033643
0
LINE
8
annotation
62
1
39
211
10
120.597823
20
43.033643
11
120.447514
21
43.007658
0
LINE
8
annotation
62
1
39
211
10
120.447514
20
43.007658
11
120.218921
21
42.935728
0
LINE
8
annotation
62
1
39
211
10
125.740517
20
52.166700
11
124.279230
21
53.010374
0
LINE
8
annotation
62
1
39
211
10
124.279230
20
53.010374
11
126.884535
21
54.404564
0
LINE
8
annotation
62
1
39
211
10
126.884535
20
54.404564
11
126.884535
21
54.404564
0
LINE
8
annotation
62
1
39
211
10
126.884535
20
54.404564
11
126.887303
21
54.405630
0
LINE
8
annotation
62
1
39
211
10
126.887303
20
54.405630
11
126.890014
21
54.406751
0
LINE
8
annotation
62
1
39
211
10
126.890014
20
54.406751
11
126.892688
21
54.407938
0
LINE
8
annotation
62
1
39
211
10
126.892688
20
54.407938
11
126.895346
21
54.409202
0
LINE
8
annotation
62
1
39
211
10
126.895346
20
54.409202
11
126.898008
21
54.410555
0
LINE
8
annotation
62
1
39
211
10
126.898008
20
54.410555
11
126.900693
21
54.412008
0
LINE
8
annotation
62
1
39
211
10
126.900693
20
54.412008
11
126.903422
21
54.413571
0
LINE
8
annotation
62
1
39
211
10
126.903422
20
54.413571
11
126.906214
21
54.415256
0
LINE
8
annotation
62
1
39
211
10
126.906214
20
54.415256
11
126.909090
21
54.417074
0
LINE
8
annotation
62
1
39
211
10
126.909090
20
54.417074
11
126.909090
21
54.417074
0
LINE
8
annotation
62
1
39
211
10
126.909090
20
54.417074
11
127.033955
21
54.504591
0
LINE
8
annotation
62
1
39
211
10
127.033955
20
54.504591
11
127.138165
21
54.609872
0
LINE
8
annotation
62
1
39
211
10
127.138165
20
54.609872
11
127.220901
21
54.729653
0
LINE
8
annotation
62
1
39
211
10
127.220901
20
54.729653
11
127.281341
21
54.860669
0
LINE
8
annotation
62
1
39
211
10
127.281341
20
54.860669
11
127.318665
21
54.999656
0
LINE
8
annotation
62
1
39
211
10
127.318665
20
54.999656
11
127.332053
21
55.143349
0
LINE
8
annotation
62
1
39
211
10
127.332053
20
55.143349
11
127.320683
21
55.288483
0
LINE
8
annotation
62
1
39
211
10
127.320683
20
55.288483
11
127.283736
21
55.431793
0
LINE
8
annotation
62
1
39
211
10
127.283736
20
55.431793
11
127.220390
21
55.570015
0
LINE
8
annotation
62
1
39
211
10
127.220390
20
55.570015
11
127.220390
21
55.570015
0
LINE
8
annotation
62
1
39
211
10
127.220390
20
55.570015
11
127.132083
21
55.694280
0
LINE
8
annotation
62
1
39
211
10
127.132083
20
55.694280
11
127.026321
21
55.798098
0
LINE
8
annotation
62
1
39
211
10
127.026321
20
55.798098
11
126.906301
21
55.880588
0
LINE
8
annotation
62
1
39
211
10
126.906301
20
55.880588
11
126.775217
21
55.940867
0
LINE
8
annotation
62
1
39
211
10
126.775217
20
55.940867
11
126.636263
21
55.978053
0
LINE
8
annotation
62
1
39
211
10
126.636263
20
55.978053
11
126.492636
21
55.991264
0
LINE
8
annotation
62
1
39
211
10
126.492636
20
55.991264
11
126.347530
21
55.979616
0
LINE
8
annotation
62
1
39
211
10
126.347530
20
55.979616
11
126.204140
21
55.942229
0
LINE
8
annotation
62
1
39
211
10
126.204140
20
55.942229
11
126.065662
21
55.878219
0
LINE
8
annotation
62
1
39
211
10
126.065662
20
55.878219
11
125.863451
21
55.749561
0
LINE
8
annotation
62
1
39
211
10
126.974691
20
51.454322
11
127.705335
21
51.032485
0
LINE
8
annotation
62
1
39
211
10
127.705335
20
51.032485
11
127.705335
21
51.032485
0
LINE
8
annotation
62
1
39
211
10
127.705335
20
51.032485
11
127.843549
21
50.968405
0
LINE
8
annotation
62
1
39
211
10
127.843549
20
50.968405
11
127.986814
21
50.930989
0
LINE
8
annotation
62
1
39
211
10
127.986814
20
50.930989
11
128.131870
21
50.919341
0
LINE
8
annotation
62
1
39
211
10
128.131870
20
50.919341
11
128.275457
21
50.932561
0
LINE
8
annotation
62
1
39
211
10
128.275457
20
50.932561
11
128.414313
21
50.969752
0
LINE
8
annotation
62
1
39
211
10
128.414313
20
50.969752
11
128.545178
21
51.030015
0
LINE
8
annotation
62
1
39
211
10
128.545178
20
51.030015
11
128.664791
21
51.112453
0
LINE
8
annotation
62
1
39
211
10
128.664791
20
51.112453
11
128.769892
21
51.216167
0
LINE
8
annotation
62
1
39
211
10
128.769892
20
51.216167
11
128.857220
21
51.340260
0
LINE
8
annotation
62
1
39
211
10
128.857220
20
51.340260
11
129.068436
21
51.706097
0
LINE
8
annotation
62
1
39
211
10
129.068436
20
51.706097
11
129.068436
21
51.706097
0
LINE
8
annotation
62
1
39
211
10
129.068436
20
51.706097
11
129.132208
21
51.843717
0
LINE
8
annotation
62
1
39
211
10
129.132208
20
51.843717
11
129.169460
21
51.986566
0
LINE
8
annotation
62
1
39
211
10
129.169460
20
51.986566
11
129.181042
21
52.131364
0
LINE
8
annotation
62
1
39
211
10
129.181042
20
52.131364
11
129.167803
21
52.274835
0
LINE
8
annotation
62
1
39
211
10
129.167803
20
52.274835
11
129.130593
21
52.413700
0
LINE
8
annotation
62
1
39
211
10
129.130593
20
52.413700
11
129.070262
21
52.544682
0
LINE
8
annotation
62
1
39
211
10
129.070262
20
52.544682
11
128.987658
21
52.664502
0
LINE
8
annotation
62
1
39
211
10
128.987658
20
52.664502
11
128.883633
21
52.769883
0
LINE
8
annotation
62
1
39
211
10
128.883633
20
52.769883
11
128.759034
21
52.857546
0
LINE
8
annotation
62
1
39
211
10
128.759034
20
52.857546
11
128.393197
21
53.068763
0
LINE
8
annotation
62
1
39
211
10
128.393197
20
53.068763
11
128.759034
21
52.857546
0
LINE
8
annotation
62
1
39
211
10
128.759034
20
52.857546
11
128.759034
21
52.857546
0
LINE
8
annotation
62
1
39
211
10
128.759034
20
52.857546
11
128.897254
21
52.793476
0
LINE
8
annotation
62
1
39
211
10
128.897254
20
52.793476
11
129.040541
21
52.756097
0
LINE
8
annotation
62
1
39
211
10
129.040541
20
52.756097
11
129.185641
21
52.744524
0
LINE
8
annotation
62
1
39
211
10
129.185641
20
52.744524
11
129.329300
21
52.757871
0
LINE
8
annotation
62
1
39
211
10
129.329300
20
52.757871
11
129.468266
21
52.795252
0
LINE
8
annotation
62
1
39
211
10
129.468266
20
52.795252
11
129.599283
21
52.855780
0
LINE
8
annotation
62
1
39
211
10
129.599283
20
52.855780
11
129.719099
21
52.938568
0
LINE
8
annotation
62
1
39
211
10
129.719099
20
52.938568
11
129.824460
21
53.042732
0
LINE
8
annotation
62
1
39
211
10
129.824460
20
53.042732
11
129.912111
21
53.167384
0
LINE
8
annotation
62
1
39
211
10
129.912111
20
53.167384
11
129.912111
21
53.167384
0
LINE
8
annotation
62
1
39
211
10
129.912111
20
53.167384
11
129.975883
21
53.305005
0
LINE
8
annotation
62
1
39
211
10
129.975883
20
53.305005
11
130.013135
21
53.447853
0
LINE
8
annotation
62
1
39
211
10
130.013135
20
53.447853
11
130.024717
21
53.592652
0
LINE
8
annotation
62
1
39
211
10
130.024717
20
53.592652
11
130.011478
21
53.736122
0
LINE
8
annotation
62
1
39
211
10
130.011478
20
53.736122
11
129.974268
21
53.874988
0
LINE
8
annotation
62
1
39
211
10
129.974268
20
53.874988
11
129.913936
21
54.005969
0
LINE
8
annotation
62
1
39
211
10
129.913936
20
54.005969
11
129.831333
21
54.125789
0
LINE
8
annotation
62
1
39
211
10
129.831333
20
54.125789
11
129.727307
21
54.231170
0
LINE
8
annotation
62
1
39
211
10
129.727307
20
54.231170
11
129.602709
21
54.318834
0
LINE
8
annotation
62
1
39
211
10
129.602709
20
54.318834
11
128.872065
21
54.740671
0
LINE
8
annotation
62
1
39
211
10
131.651447
20
64.683257
11
130.153360
21
65.084668
0
LINE
8
annotation
62
1
39
211
10
130.153360
20
65.084668
11
132.134770
21
66.942266
0
LINE
8
annotation
62
1
39
211
10
132.134770
20
66.942266
11
132.134770
21
66.942266
0
LINE
8
annotation
62
1
39
211
10
132.134770
20
66.942266
11
132.136973
21
66.943870
0
LINE
8
annotation
62
1
39
211
10
132.136973
20
66.943870
11
132.139114
21
66.945510
0
LINE
8
annotation
62
1
39
211
10
132.139114
20
66.945510
11
132.141206
21
66.947200
0
LINE
8
annotation
62
1
39
211
10
132.141206
20
66.947200
11
132.143265
21
66.948955
0
LINE
8
annotation
62
1
39
211
10
132.143265
20
66.948955
11
132.145306
21
66.950790
0
LINE
8
annotation
62
1
39
211
10
132.145306
20
66.950790
11
132.147345
21
66.952718
0
LINE
8
annotation
62
1
39
211
10
132.147345
20
66.952718
11
132.149395
21
66.954755
0
LINE
8
annotation
62
1
39
211
10
132.149395
20
66.954755
11
132.151474
21
66.956916
0
LINE
8
annotation
62
1
39
211
10
132.151474
20
66.956916
11
132.153594
21
66.959214
0
LINE
8
annotation
62
1
39
211
10
132.153594
20
66.959214
11
132.153594
21
66.959214
0
LINE
8
annotation
62
1
39
211
10
132.153594
20
66.959214
11
132.243634
21
67.066619
0
LINE
8
annotation
62
1
39
211
10
132.243634
20
67.066619
11
132.311110
21
67.184882
0
LINE
8
annotation
62
1
39
211
10
132.311110
20
67.184882
11
132.356070
21
67.310910
0
LINE
8
annotation
62
1
39
211
10
132.356070
20
67.310910
11
132.378563
21
67.441610
0
LINE
8
annotation
62
1
39
211
10
132.378563
20
67.441610
11
132.378636
21
67.573886
0
LINE
8
annotation
62
1
39
211
10
132.378636
20
67.573886
11
132.356339
21
67.704646
0
LINE
8
annotation
62
1
39
211
10
132.356339
20
67.704646
11
132.311718
21
67.830796
0
LINE
8
annotation
62
1
39
211
10
132.311718
20
67.830796
11
132.244822
21
67.949242
0
LINE
8
annotation
62
1
39
211
10
132.244822
20
67.949242
11
132.155698
21
68.056891
0
LINE
8
annotation
62
1
39
211
10
132.155698
20
68.056891
11
132.155698
21
68.056891
0
LINE
8
annotation
62
1
39
211
10
132.155698
20
68.056891
11
132.047734
21
68.146210
0
LINE
8
annotation
62
1
39
211
10
132.047734
20
68.146210
11
131.929138
21
68.213223
0
LINE
8
annotation
62
1
39
211
10
131.929138
20
68.213223
11
131.802956
21
68.257908
0
LINE
8
annotation
62
1
39
211
10
131.802956
20
68.257908
11
131.672235
21
68.280242
0
LINE
8
annotation
62
1
39
211
10
131.672235
20
68.280242
11
131.540021
21
68.280201
0
LINE
8
annotation
62
1
39
211
10
131.540021
20
68.280201
11
131.409361
21
68.257761
0
LINE
8
annotation
62
1
39
211
10
131.409361
20
68.257761
11
131.283302
21
68.212901
0
LINE
8
annotation
62
1
39
211
10
131.283302
20
68.212901
11
131.164890
21
68.145595
0
LINE
8
annotation
62
1
39
211
10
131.164890
20
68.145595
11
131.057171
21
68.055822
0
LINE
8
annotation
62
1
39
211
10
131.057171
20
68.055822
11
130.908249
21
67.893490
0
LINE
8
annotation
62
1
39
211
10
134.990489
20
64.592322
11
133.117564
21
65.094171
0
LINE
8
annotation
62
1
39
211
10
133.117564
20
65.094171
11
134.568444
21
67.516986
0
LINE
8
annotation
62
1
39
211
10
134.228144
20
63.992862
11
134.629556
21
65.490949
0
LINE
8
annotation
62
1
39
211
10
75.109151
20
25.157912
11
72.093821
21
25.157912
0
LINE
8
annotation
62
1
39
211
10
72.093821
20
25.157912
11
75.109151
21
30.588504
0
LINE
8
annotation
62
1
39
211
10
75.109151
20
30.588504
11
72.093821
21
30.588504
0
LINE
8
annotation
62
1
39
211
10
80.115489
20
27.873208
11
77.146134
21
27.873208
0
LINE
8
annotation
62
1
39
211
10
84.563716
20
25.157868
11
82.151860
21
25.157868
0
LINE
8
annotation
62
1
39
211
10
82.151860
20
25.157868
11
84.380494
21
28.745682
0
LINE
8
annotation
62
1
39
211
10
84.380494
20
28.745682
11
84.380494
21
28.745682
0
LINE
8
annotation
62
1
39
211
10
84.380494
20
28.745682
11
84.383158
21
28.748979
0
LINE
8
annotation
62
1
39
211
10
84.383158
20
28.748979
11
84.385713
21
28.752304
0
LINE
8
annotation
62
1
39
211
10
84.385713
20
28.752304
11
84.388175
21
28.755684
0
LINE
8
annotation
62
1
39
211
10
84.388175
20
28.755684
11
84.390562
21
28.759149
0
LINE
8
annotation
62
1
39
211
10
84.390562
20
28.759149
11
84.392890
21
28.762726
0
LINE
8
annotation
62
1
39
211
10
84.392890
20
28.762726
11
84.395176
21
28.766444
0
LINE
8
annotation
62
1
39
211
10
84.395176
20
28.766444
11
84.397436
21
28.770329
0
LINE
8
annotation
62
1
39
211
10
84.397436
20
28.770329
11
84.399689
21
28.774411
0
LINE
8
annotation
62
1
39
211
10
84.399689
20
28.774411
11
84.401949
21
28.778717
0
LINE
8
annotation
62
1
39
211
10
84.401949
20
28.778717
11
84.401949
21
28.778717
0
LINE
8
annotation
62
1
39
211
10
84.401949
20
28.778717
11
84.493969
21
28.976291
0
LINE
8
annotation
62
1
39
211
10
84.493969
20
28.976291
11
84.547725
21
29.181094
0
LINE
8
annotation
62
1
39
211
10
84.547725
20
29.181094
11
84.564536
21
29.388498
0
LINE
8
annotation
62
1
39
211
10
84.564536
20
29.388498
11
84.545718
21
29.593876
0
LINE
8
annotation
62
1
39
211
10
84.545718
20
29.593876
11
84.492588
21
29.792599
0
LINE
8
annotation
62
1
39
211
10
84.492588
20
29.792599
11
84.406465
21
29.980040
0
LINE
8
annotation
62
1
39
211
10
84.406465
20
29.980040
11
84.288665
21
30.151572
0
LINE
8
annotation
62
1
39
211
10
84.288665
20
30.151572
11
84.140506
21
30.302567
0
LINE
8
annotation
62
1
39
211
10
84.140506
20
30.302567
11
83.963306
21
30.428396
0
LINE
8
annotation
62
1
39
211
10
83.963306
20
30.428396
11
83.963306
21
30.428396
0
LINE
8
annotation
62
1
39
211
10
83.963306
20
30.428396
11
83.765183
21
30.519108
0
LINE
8
annotation
62
1
39
211
10
83.765183
20
30.519108
11
83.560066
21
30.572036
0
LINE
8
annotation
62
1
39
211
10
83.560066
20
30.572036
11
83.352541
21
30.588371
0
LINE
8
annotation
62
1
39
211
10
83.352541
20
30.588371
11
83.147194
21
30.569305
0
LINE
8
annotation
62
1
39
211
10
83.147194
20
30.569305
11
82.948611
21
30.516029
0
LINE
8
annotation
62
1
39
211
10
82.948611
20
30.516029
11
82.761377
21
30.429733
0
LINE
8
annotation
62
1
39
211
10
82.761377
20
30.429733
11
82.590078
21
30.311609
0
LINE
8
annotation
62
1
39
211
10
82.590078
20
30.311609
11
82.439299
21
30.162850
0
LINE
8
annotation
62
1
39
211
10
82.439299
20
30.162850
11
82.313627
21
29.984644
0
LINE
8
annotation
62
1
39
211
10
82.313627
20
29.984644
11
82.155266
21
29.680864
0
LINE
8
frame
62
5
39
2
10
0.000000
20
0.000000
11
215.900000
21
0.000000
0
LINE
8
frame
62
5
39
2
10
215.900000
20
0.000000
11
215.900000
21
279.400000
0
LINE
8
frame
62
5
39
2
10
215.900000
20
279.400000
11
0.000000
21
279.400000
0
LINE
8
frame
62
5
39
2
10
0.000000
20
279.400000
11
0.000000
21
0.000000
0
ENDSEC
0
EOF
