0
SECTION
2
HEADER
9
$ACADVER
1
AC1009
0
ENDSEC
0
SECTION
2
TABLES
0
TABLE
2
VPORT
70
1
0
VPORT
2
ACTIVE
70
0
10
0.0
20
0.0
11
0.0
21
0.0
12
0.0
22
0.0
13
0.0
23
0.0
14
0.0
24
0.0
15
0.0
25
0.0
16
0.0
26
0.0
36
0.0
17
0.0
27
0.0
37
0.0
40
0.0
41
0.0
42
0.0
43
0.0
44
0.0
50
0.0
51
0.0
71
0
72
1000
73
1
74
3
75
0
76
0
77
0
78
0
0
ENDTAB
0
ENDSEC
0
SECTION
2
ENTITIES
0
LINE
8
boundary
62
5
39
2
10
26.848921
20
27.098863
11
27.376186
21
26.271961
0
LINE
8
boundary
62
5
39
2
10
27.376186
20
26.271961
11
28.078542
21
25.223004
0
LINE
8
boundary
62
5
39
2
10
28.078542
20
25.223004
11
28.803519
21
24.191056
0
LINE
8
boundary
62
5
39
2
10
28.803519
20
24.191056
11
29.551887
21
23.177305
0
LINE
8
boundary
62
5
39
2
10
29.551887
20
23.177305
11
30.324004
21
22.182849
0
LINE
8
boundary
62
5
39
2
10
30.324004
20
22.182849
11
31.120417
21
21.208924
0
LINE
8
boundary
62
5
39
2
10
31.120417
20
21.208924
11
31.941684
21
20.256629
0
LINE
8
boundary
62
5
39
2
10
31.941684
20
20.256629
11
32.788118
21
19.327024
0
LINE
8
boundary
62
5
39
2
10
32.788118
20
19.327024
11
33.660544
21
18.421472
0
LINE
8
boundary
62
5
39
2
10
33.660544
20
18.421472
11
34.559193
21
17.541016
0
LINE
8
boundary
62
5
39
2
10
34.559193
20
17.541016
11
35.484547
21
16.686765
0
LINE
8
boundary
62
5
39
2
10
35.484547
20
16.686765
11
36.437326
21
15.859928
0
LINE
8
boundary
62
5
39
2
10
36.437326
20
15.859928
11
37.417955
21
15.061639
0
LINE
8
boundary
62
5
39
2
10
37.417955
20
15.061639
11
38.426798
21
14.292974
0
LINE
8
boundary
62
5
39
2
10
38.426798
20
14.292974
11
39.464374
21
13.555113
0
LINE
8
boundary
62
5
39
2
10
39.464374
20
13.555113
11
40.531373
21
12.849106
0
LINE
8
boundary
62
5
39
2
10
40.531373
20
12.849106
11
41.628045
21
12.176050
0
LINE
8
boundary
62
5
39
2
10
41.628045
20
12.176050
11
42.755023
21
11.536966
0
LINE
8
boundary
62
5
39
2
10
42.755023
20
11.536966
11
43.912726
21
10.932936
0
LINE
8
boundary
62
5
39
2
10
43.912726
20
10.932936
11
45.101686
21
10.364962
0
LINE
8
boundary
62
5
39
2
10
45.101686
20
10.364962
11
46.322405
21
9.834052
0
LINE
8
boundary
62
5
39
2
10
46.322405
20
9.834052
11
47.575412
21
9.341152
0
LINE
8
boundary
62
5
39
2
10
47.575412
20
9.341152
11
48.861149
21
8.887148
0
LINE
8
boundary
62
5
39
2
10
48.861149
20
8.887148
11
50.180207
21
8.472954
0
LINE
8
boundary
62
5
39
2
10
50.180207
20
8.472954
11
51.532978
21
8.099338
0
LINE
8
boundary
62
5
39
2
10
51.532978
20
8.099338
11
52.920065
21
7.767184
0
LINE
8
boundary
62
5
39
2
10
52.920065
20
7.767184
11
54.341919
21
7.477159
0
LINE
8
boundary
62
5
39
2
10
54.341919
20
7.477159
11
55.799180
21
7.229966
0
LINE
8
boundary
62
5
39
2
10
55.799180
20
7.229966
11
57.292220
21
7.026259
0
LINE
8
boundary
62
5
39
2
10
57.292220
20
7.026259
11
58.821777
21
6.866592
0
LINE
8
boundary
62
5
39
2
10
58.821777
20
6.866592
11
60.388224
21
6.751407
0
LINE
8
boundary
62
5
39
2
10
60.388224
20
6.751407
11
60.920345
21
6.668381
0
LINE
8
boundary
62
5
39
2
10
60.920345
20
6.668381
11
61.576882
21
6.704722
0
LINE
8
boundary
62
5
39
2
10
61.576882
20
6.704722
11
62.142724
21
6.809170
0
LINE
8
boundary
62
5
39
2
10
62.142724
20
6.809170
11
62.683436
21
6.950838
0
LINE
8
boundary
62
5
39
2
10
62.683436
20
6.950838
11
63.181249
21
7.110398
0
LINE
8
boundary
62
5
39
2
10
63.181249
20
7.110398
11
63.780247
21
7.337281
0
LINE
8
boundary
62
5
39
2
10
63.780247
20
7.337281
11
64.401314
21
7.606782
0
LINE
8
boundary
62
5
39
2
10
64.401314
20
7.606782
11
65.038468
21
7.916946
0
LINE
8
boundary
62
5
39
2
10
65.038468
20
7.916946
11
65.685639
21
8.265850
0
LINE
8
boundary
62
5
39
2
10
65.685639
20
8.265850
11
66.336951
21
8.651662
0
LINE
8
boundary
62
5
39
2
10
66.336951
20
8.651662
11
66.986567
21
9.072532
0
LINE
8
boundary
62
5
39
2
10
66.986567
20
9.072532
11
67.628334
21
9.526494
0
LINE
8
boundary
62
5
39
2
10
67.628334
20
9.526494
11
68.256418
21
10.011853
0
LINE
8
boundary
62
5
39
2
10
68.256418
20
10.011853
11
68.864964
21
10.526836
0
LINE
8
boundary
62
5
39
2
10
68.864964
20
10.526836
11
69.447879
21
11.069671
0
LINE
8
boundary
62
5
39
2
10
69.447879
20
11.069671
11
69.999350
21
11.638786
0
LINE
8
boundary
62
5
39
2
10
69.999350
20
11.638786
11
70.513398
21
12.232520
0
LINE
8
boundary
62
5
39
2
10
70.513398
20
12.232520
11
70.984029
21
12.849190
0
LINE
8
boundary
62
5
39
2
10
70.984029
20
12.849190
11
71.405275
21
13.487462
0
LINE
8
boundary
62
5
39
2
10
71.405275
20
13.487462
11
71.771271
21
14.145764
0
LINE
8
boundary
62
5
39
2
10
71.771271
20
14.145764
11
72.075769
21
14.822635
0
LINE
8
boundary
62
5
39
2
10
72.075769
20
14.822635
11
72.312821
21
15.516678
0
LINE
8
boundary
62
5
39
2
10
72.312821
20
15.516678
11
72.476215
21
16.226546
0
LINE
8
boundary
62
5
39
2
10
72.476215
20
16.226546
11
72.559918
21
16.950915
0
LINE
8
boundary
62
5
39
2
10
72.559918
20
16.950915
11
72.557638
21
17.688503
0
LINE
8
boundary
62
5
39
2
10
72.557638
20
17.688503
11
72.462947
21
18.437905
0
LINE
8
boundary
62
5
39
2
10
72.462947
20
18.437905
11
72.269631
21
19.197923
0
LINE
8
boundary
62
5
39
2
10
72.269631
20
19.197923
11
71.971154
21
19.967302
0
LINE
8
boundary
62
5
39
2
10
71.971154
20
19.967302
11
71.560806
21
20.744675
0
LINE
8
boundary
62
5
39
2
10
71.560806
20
20.744675
11
71.278200
21
21.182702
0
LINE
8
boundary
62
5
39
2
10
71.278200
20
21.182702
11
70.721056
21
21.923131
0
LINE
8
boundary
62
5
39
2
10
70.721056
20
21.923131
11
70.377922
21
22.318604
0
LINE
8
boundary
62
5
39
2
10
70.377922
20
22.318604
11
69.589773
21
22.364009
0
LINE
8
boundary
62
5
39
2
10
69.589773
20
22.364009
11
68.796282
21
22.435938
0
LINE
8
boundary
62
5
39
2
10
68.796282
20
22.435938
11
67.997624
21
22.534389
0
LINE
8
boundary
62
5
39
2
10
67.997624
20
22.534389
11
67.194355
21
22.659352
0
LINE
8
boundary
62
5
39
2
10
67.194355
20
22.659352
11
66.386776
21
22.810968
0
LINE
8
boundary
62
5
39
2
10
66.386776
20
22.810968
11
65.575194
21
22.989100
0
LINE
8
boundary
62
5
39
2
10
65.575194
20
22.989100
11
64.760078
21
23.193878
0
LINE
8
boundary
62
5
39
2
10
64.760078
20
23.193878
11
63.941762
21
23.425286
0
LINE
8
boundary
62
5
39
2
10
63.941762
20
23.425286
11
63.120405
21
23.683300
0
LINE
8
boundary
62
5
39
2
10
63.120405
20
23.683300
11
62.296720
21
23.968007
0
LINE
8
boundary
62
5
39
2
10
62.296720
20
23.968007
11
61.470804
21
24.279272
0
LINE
8
boundary
62
5
39
2
10
61.470804
20
24.279272
11
60.643221
21
24.617257
0
LINE
8
boundary
62
5
39
2
10
60.643221
20
24.617257
11
59.814225
21
24.981819
0
LINE
8
boundary
62
5
39
2
10
59.814225
20
24.981819
11
58.984228
21
25.373063
0
LINE
8
boundary
62
5
39
2
10
58.984228
20
25.373063
11
58.153633
21
25.790890
0
LINE
8
boundary
62
5
39
2
10
58.153633
20
25.790890
11
57.322872
21
26.235269
0
LINE
8
boundary
62
5
39
2
10
57.322872
20
26.235269
11
56.492328
21
26.706311
0
LINE
8
boundary
62
5
39
2
10
56.492328
20
26.706311
11
55.662499
21
27.203846
0
LINE
8
boundary
62
5
39
2
10
55.662499
20
27.203846
11
54.833637
21
27.727892
0
LINE
8
boundary
62
5
39
2
10
54.833637
20
27.727892
11
54.006224
21
28.278380
0
LINE
8
boundary
62
5
39
2
10
54.006224
20
28.278380
11
53.180773
21
28.855277
0
LINE
8
boundary
62
5
39
2
10
53.180773
20
28.855277
11
52.357701
21
29.458530
0
LINE
8
boundary
62
5
39
2
10
52.357701
20
29.458530
11
51.537265
21
30.088010
0
LINE
8
boundary
62
5
39
2
10
51.537265
20
30.088010
11
50.720113
21
30.743691
0
LINE
8
boundary
62
5
39
2
10
50.720113
20
30.743691
11
49.906684
21
31.425527
0
LINE
8
boundary
62
5
39
2
10
49.906684
20
31.425527
11
49.097373
21
32.133327
0
LINE
8
boundary
62
5
39
2
10
49.097373
20
32.133327
11
48.292741
21
32.867071
0
LINE
8
boundary
62
5
39
2
10
48.292741
20
32.867071
11
47.493106
21
33.626597
0
LINE
8
boundary
62
5
39
2
10
47.493106
20
33.626597
11
46.699144
21
34.411838
0
LINE
8
boundary
62
5
39
2
10
46.699144
20
34.411838
11
45.911203
21
35.222614
0
LINE
8
boundary
62
5
39
2
10
45.911203
20
35.222614
11
45.129852
21
36.058797
0
LINE
8
boundary
62
5
39
2
10
45.129852
20
36.058797
11
44.355542
21
36.920220
0
LINE
8
boundary
62
5
39
2
10
44.355542
20
36.920220
11
43.588872
21
37.806797
0
LINE
8
boundary
62
5
39
2
10
43.588872
20
37.806797
11
42.830350
21
38.718333
0
LINE
8
boundary
62
5
39
2
10
42.830350
20
38.718333
11
42.080431
21
39.654595
0
LINE
8
boundary
62
5
39
2
10
42.080431
20
39.654595
11
41.339742
21
40.615465
0
LINE
8
boundary
62
5
39
2
10
41.339742
20
40.615465
11
40.608742
21
41.600711
0
LINE
8
boundary
62
5
39
2
10
40.608742
20
41.600711
11
39.888085
21
42.610143
0
LINE
8
boundary
62
5
39
2
10
39.888085
20
42.610143
11
39.178202
21
43.643538
0
LINE
8
boundary
62
5
39
2
10
39.178202
20
43.643538
11
38.479679
21
44.700649
0
LINE
8
boundary
62
5
39
2
10
38.479679
20
44.700649
11
37.793022
21
45.781282
0
LINE
8
boundary
62
5
39
2
10
37.793022
20
45.781282
11
37.118954
21
46.885215
0
LINE
8
boundary
62
5
39
2
10
37.118954
20
46.885215
11
36.458052
21
48.012155
0
LINE
8
boundary
62
5
39
2
10
36.458052
20
48.012155
11
35.810678
21
49.161837
0
LINE
8
boundary
62
5
39
2
10
35.810678
20
49.161837
11
35.177629
21
50.334031
0
LINE
8
boundary
62
5
39
2
10
35.177629
20
50.334031
11
34.559432
21
51.528412
0
LINE
8
boundary
62
5
39
2
10
34.559432
20
51.528412
11
33.956621
21
52.744714
0
LINE
8
boundary
62
5
39
2
10
33.956621
20
52.744714
11
33.369798
21
53.982671
0
LINE
8
boundary
62
5
39
2
10
33.369798
20
53.982671
11
32.799565
21
55.241926
0
LINE
8
boundary
62
5
39
2
10
32.799565
20
55.241926
11
32.246603
21
56.522226
0
LINE
8
boundary
62
5
39
2
10
32.246603
20
56.522226
11
31.711474
21
57.823221
0
LINE
8
boundary
62
5
39
2
10
31.711474
20
57.823221
11
31.194712
21
59.144568
0
LINE
8
boundary
62
5
39
2
10
31.194712
20
59.144568
11
30.696988
21
60.485977
0
LINE
8
boundary
62
5
39
2
10
30.696988
20
60.485977
11
30.218784
21
61.847129
0
LINE
8
boundary
62
5
39
2
10
30.218784
20
61.847129
11
29.760860
21
63.227564
0
LINE
8
boundary
62
5
39
2
10
29.760860
20
63.227564
11
29.323815
21
64.627068
0
LINE
8
boundary
62
5
39
2
10
29.323815
20
64.627068
11
28.908047
21
66.045219
0
LINE
8
boundary
62
5
39
2
10
28.908047
20
66.045219
11
28.514369
21
67.481703
0
LINE
8
boundary
62
5
39
2
10
28.514369
20
67.481703
11
28.143370
21
68.936066
0
LINE
8
boundary
62
5
39
2
10
28.143370
20
68.936066
11
27.795580
21
70.408010
0
LINE
8
boundary
62
5
39
2
10
27.795580
20
70.408010
11
27.471516
21
71.897140
0
LINE
8
boundary
62
5
39
2
10
27.471516
20
71.897140
11
27.171796
21
73.403015
0
LINE
8
boundary
62
5
39
2
10
27.171796
20
73.403015
11
26.897150
21
74.925377
0
LINE
8
boundary
62
5
39
2
10
26.897150
20
74.925377
11
26.648149
21
76.463704
0
LINE
8
boundary
62
5
39
2
10
26.648149
20
76.463704
11
26.344489
21
77.659601
0
LINE
8
boundary
62
5
39
2
10
26.344489
20
77.659601
11
26.056597
21
78.856063
0
LINE
8
boundary
62
5
39
2
10
26.056597
20
78.856063
11
25.783999
21
80.053067
0
LINE
8
boundary
62
5
39
2
10
25.783999
20
80.053067
11
25.526942
21
81.250406
0
LINE
8
boundary
62
5
39
2
10
25.526942
20
81.250406
11
25.284997
21
82.448008
0
LINE
8
boundary
62
5
39
2
10
25.284997
20
82.448008
11
25.058167
21
83.645800
0
LINE
8
boundary
62
5
39
2
10
25.058167
20
83.645800
11
24.649263
21
86.041389
0
LINE
8
boundary
62
5
39
2
10
24.649263
20
86.041389
11
24.298972
21
88.436416
0
LINE
8
boundary
62
5
39
2
10
24.298972
20
88.436416
11
24.006378
21
90.830061
0
LINE
8
boundary
62
5
39
2
10
24.006378
20
90.830061
11
23.770055
21
93.221560
0
LINE
8
boundary
62
5
39
2
10
23.770055
20
93.221560
11
23.588824
21
95.610319
0
LINE
8
boundary
62
5
39
2
10
23.588824
20
95.610319
11
23.461605
21
97.995624
0
LINE
8
boundary
62
5
39
2
10
23.461605
20
97.995624
11
23.387029
21
100.376810
0
LINE
8
boundary
62
5
39
2
10
23.387029
20
100.376810
11
23.363616
21
102.753296
0
LINE
8
boundary
62
5
39
2
10
23.363616
20
102.753296
11
23.390134
21
105.124474
0
LINE
8
boundary
62
5
39
2
10
23.390134
20
105.124474
11
23.465158
21
107.489813
0
LINE
8
boundary
62
5
39
2
10
23.465158
20
107.489813
11
23.587293
21
109.848872
0
LINE
8
boundary
62
5
39
2
10
23.587293
20
109.848872
11
23.755215
21
112.200997
0
LINE
8
boundary
62
5
39
2
10
23.755215
20
112.200997
11
23.967399
21
114.545923
0
LINE
8
boundary
62
5
39
2
10
23.967399
20
114.545923
11
24.222338
21
116.883091
0
LINE
8
boundary
62
5
39
2
10
24.222338
20
116.883091
11
24.518621
21
119.212113
0
LINE
8
boundary
62
5
39
2
10
24.518621
20
119.212113
11
24.854676
21
121.532619
0
LINE
8
boundary
62
5
39
2
10
24.854676
20
121.532619
11
25.229084
21
123.844232
0
LINE
8
boundary
62
5
39
2
10
25.229084
20
123.844232
11
25.640262
21
126.146636
0
LINE
8
boundary
62
5
39
2
10
25.640262
20
126.146636
11
26.086696
21
128.439474
0
LINE
8
boundary
62
5
39
2
10
26.086696
20
128.439474
11
26.566780
21
130.722440
0
LINE
8
boundary
62
5
39
2
10
26.566780
20
130.722440
11
27.079014
21
132.995377
0
LINE
8
boundary
62
5
39
2
10
27.079014
20
132.995377
11
27.622055
21
135.257850
0
LINE
8
boundary
62
5
39
2
10
27.622055
20
135.257850
11
28.194015
21
137.509819
0
LINE
8
boundary
62
5
39
2
10
28.194015
20
137.509819
11
28.793481
21
139.750880
0
LINE
8
boundary
62
5
39
2
10
28.793481
20
139.750880
11
29.418926
21
141.980958
0
LINE
8
boundary
62
5
39
2
10
29.418926
20
141.980958
11
30.068616
21
144.199819
0
LINE
8
boundary
62
5
39
2
10
30.068616
20
144.199819
11
30.741330
21
146.407259
0
LINE
8
boundary
62
5
39
2
10
30.741330
20
146.407259
11
31.435158
21
148.603223
0
LINE
8
boundary
62
5
39
2
10
31.435158
20
148.603223
11
32.148718
21
150.787454
0
LINE
8
boundary
62
5
39
2
10
32.148718
20
150.787454
11
32.880385
21
152.959910
0
LINE
8
boundary
62
5
39
2
10
32.880385
20
152.959910
11
33.628752
21
155.120612
0
LINE
8
boundary
62
5
39
2
10
33.628752
20
155.120612
11
34.392066
21
157.269256
0
LINE
8
boundary
62
5
39
2
10
34.392066
20
157.269256
11
35.169062
21
159.405951
0
LINE
8
boundary
62
5
39
2
10
35.169062
20
159.405951
11
35.958111
21
161.530498
0
LINE
8
boundary
62
5
39
2
10
35.958111
20
161.530498
11
36.757543
21
163.642906
0
LINE
8
boundary
62
5
39
2
10
36.757543
20
163.642906
11
38.382307
21
167.831303
0
LINE
8
boundary
62
5
39
2
10
38.382307
20
167.831303
11
40.031577
21
171.970845
0
LINE
8
boundary
62
5
39
2
10
40.031577
20
171.970845
11
41.693901
21
176.061927
0
LINE
8
boundary
62
5
39
2
10
41.693901
20
176.061927
11
43.358035
21
180.104679
0
LINE
8
boundary
62
5
39
2
10
43.358035
20
180.104679
11
45.013199
21
184.099649
0
LINE
8
boundary
62
5
39
2
10
45.013199
20
184.099649
11
45.242676
21
184.648106
0
LINE
8
boundary
62
5
39
2
10
45.242676
20
184.648106
11
48.254651
21
191.948842
0
LINE
8
boundary
62
5
39
2
10
48.254651
20
191.948842
11
48.447539
21
192.421351
0
LINE
8
boundary
62
5
39
2
10
48.447539
20
192.421351
11
51.338746
21
199.616401
0
LINE
8
boundary
62
5
39
2
10
51.338746
20
199.616401
11
52.798642
21
203.384936
0
LINE
8
boundary
62
5
39
2
10
52.798642
20
203.384936
11
54.192090
21
207.111391
0
LINE
8
boundary
62
5
39
2
10
54.192090
20
207.111391
11
55.511158
21
210.797287
0
LINE
8
boundary
62
5
39
2
10
55.511158
20
210.797287
11
56.140201
21
212.625431
0
LINE
8
boundary
62
5
39
2
10
56.140201
20
212.625431
11
56.747778
21
214.444005
0
LINE
8
boundary
62
5
39
2
10
56.747778
20
214.444005
11
57.691922
21
217.395862
0
LINE
8
boundary
62
5
39
2
10
57.691922
20
217.395862
11
58.605653
21
220.433041
0
LINE
8
boundary
62
5
39
2
10
58.605653
20
220.433041
11
59.048223
21
221.981770
0
LINE
8
boundary
62
5
39
2
10
59.048223
20
221.981770
11
59.479620
21
223.549767
0
LINE
8
boundary
62
5
39
2
10
59.479620
20
223.549767
11
59.898669
21
225.136157
0
LINE
8
boundary
62
5
39
2
10
59.898669
20
225.136157
11
60.304445
21
226.740243
0
LINE
8
boundary
62
5
39
2
10
60.304445
20
226.740243
11
60.695696
21
228.361754
0
LINE
8
boundary
62
5
39
2
10
60.695696
20
228.361754
11
61.071431
21
229.999510
0
LINE
8
boundary
62
5
39
2
10
61.071431
20
229.999510
11
61.430625
21
231.653317
0
LINE
8
boundary
62
5
39
2
10
61.430625
20
231.653317
11
61.772379
21
233.322338
0
LINE
8
boundary
62
5
39
2
10
61.772379
20
233.322338
11
62.095496
21
235.006064
0
LINE
8
boundary
62
5
39
2
10
62.095496
20
235.006064
11
62.399141
21
236.703790
0
LINE
8
boundary
62
5
39
2
10
62.399141
20
236.703790
11
62.682311
21
238.415174
0
LINE
8
boundary
62
5
39
2
10
62.682311
20
238.415174
11
62.944233
21
240.139363
0
LINE
8
boundary
62
5
39
2
10
62.944233
20
240.139363
11
63.183997
21
241.876020
0
LINE
8
boundary
62
5
39
2
10
63.183997
20
241.876020
11
63.400705
21
243.624433
0
LINE
8
boundary
62
5
39
2
10
63.400705
20
243.624433
11
63.593508
21
245.384295
0
LINE
8
boundary
62
5
39
2
10
63.593508
20
245.384295
11
63.761612
21
247.154841
0
LINE
8
boundary
62
5
39
2
10
63.761612
20
247.154841
11
63.904306
21
248.935741
0
LINE
8
boundary
62
5
39
2
10
63.904306
20
248.935741
11
64.020729
21
250.726470
0
LINE
8
boundary
62
5
39
2
10
64.020729
20
250.726470
11
64.110204
21
252.526444
0
LINE
8
boundary
62
5
39
2
10
64.110204
20
252.526444
11
64.171921
21
254.335031
0
LINE
8
boundary
62
5
39
2
10
64.171921
20
254.335031
11
64.205199
21
256.152355
0
LINE
8
boundary
62
5
39
2
10
64.205199
20
256.152355
11
64.209374
21
257.977231
0
LINE
8
boundary
62
5
39
2
10
64.209374
20
257.977231
11
64.183813
21
259.809497
0
LINE
8
boundary
62
5
39
2
10
64.183813
20
259.809497
11
64.127788
21
261.648724
0
LINE
8
boundary
62
5
39
2
10
64.127788
20
261.648724
11
64.040716
21
263.494571
0
LINE
8
boundary
62
5
39
2
10
64.040716
20
263.494571
11
63.921754
21
265.346123
0
LINE
8
boundary
62
5
39
2
10
63.921754
20
265.346123
11
63.770585
21
267.203466
0
LINE
8
boundary
62
5
39
2
10
63.770585
20
267.203466
11
63.586368
21
269.065937
0
LINE
8
boundary
62
5
39
2
10
63.586368
20
269.065937
11
63.368581
21
270.932898
0
LINE
8
boundary
62
5
39
2
10
63.368581
20
270.932898
11
63.116666
21
272.804400
0
LINE
8
boundary
62
5
39
2
10
63.116666
20
272.804400
11
62.829916
21
274.679572
0
LINE
8
boundary
62
5
39
2
10
62.829916
20
274.679572
11
62.507894
21
276.558092
0
LINE
8
boundary
62
5
39
2
10
62.507894
20
276.558092
11
62.149931
21
278.439536
0
LINE
8
boundary
62
5
39
2
10
62.149931
20
278.439536
11
61.755583
21
280.323545
0
LINE
8
boundary
62
5
39
2
10
61.755583
20
280.323545
11
61.324043
21
282.209568
0
LINE
8
boundary
62
5
39
2
10
61.324043
20
282.209568
11
60.854932
21
284.097280
0
LINE
8
boundary
62
5
39
2
10
60.854932
20
284.097280
11
60.347659
21
285.986036
0
LINE
8
boundary
62
5
39
2
10
60.347659
20
285.986036
11
59.801653
21
287.875758
0
LINE
8
boundary
62
5
39
2
10
59.801653
20
287.875758
11
59.216325
21
289.765598
0
LINE
8
boundary
62
5
39
2
10
59.216325
20
289.765598
11
58.591166
21
291.655557
0
LINE
8
boundary
62
5
39
2
10
58.591166
20
291.655557
11
58.263470
21
292.600362
0
LINE
8
boundary
62
5
39
2
10
58.263470
20
292.600362
11
57.925600
21
293.544805
0
LINE
8
boundary
62
5
39
2
10
57.925600
20
293.544805
11
57.577547
21
294.489308
0
LINE
8
boundary
62
5
39
2
10
57.577547
20
294.489308
11
57.219132
21
295.433353
0
LINE
8
boundary
62
5
39
2
10
57.219132
20
295.433353
11
56.850378
21
296.377014
0
LINE
8
boundary
62
5
39
2
10
56.850378
20
296.377014
11
56.471176
21
297.320154
0
LINE
8
boundary
62
5
39
2
10
56.471176
20
297.320154
11
56.081459
21
298.262858
0
LINE
8
boundary
62
5
39
2
10
56.081459
20
298.262858
11
55.681182
21
299.205162
0
LINE
8
boundary
62
5
39
2
10
55.681182
20
299.205162
11
55.270157
21
300.146886
0
LINE
8
boundary
62
5
39
2
10
55.270157
20
300.146886
11
54.848535
21
301.088076
0
LINE
8
boundary
62
5
39
2
10
54.848535
20
301.088076
11
54.416156
21
302.028231
0
LINE
8
boundary
62
5
39
2
10
54.416156
20
302.028231
11
53.972830
21
302.968053
0
LINE
8
boundary
62
5
39
2
10
53.972830
20
302.968053
11
53.518704
21
303.906838
0
LINE
8
boundary
62
5
39
2
10
53.518704
20
303.906838
11
53.053483
21
304.844930
0
LINE
8
boundary
62
5
39
2
10
53.053483
20
304.844930
11
52.577286
21
305.781890
0
LINE
8
boundary
62
5
39
2
10
52.577286
20
305.781890
11
52.089951
21
306.717951
0
LINE
8
boundary
62
5
39
2
10
52.089951
20
306.717951
11
51.591454
21
307.653047
0
LINE
8
boundary
62
5
39
2
10
51.591454
20
307.653047
11
51.081772
21
308.587025
0
LINE
8
boundary
62
5
39
2
10
51.081772
20
308.587025
11
50.560654
21
309.519877
0
LINE
8
boundary
62
5
39
2
10
50.560654
20
309.519877
11
50.028285
21
310.451593
0
LINE
8
boundary
62
5
39
2
10
50.028285
20
310.451593
11
49.484429
21
311.381886
0
LINE
8
boundary
62
5
39
2
10
49.484429
20
311.381886
11
48.928967
21
312.310927
0
LINE
8
boundary
62
5
39
2
10
48.928967
20
312.310927
11
48.362071
21
313.238742
0
LINE
8
boundary
62
5
39
2
10
48.362071
20
313.238742
11
47.783460
21
314.164985
0
LINE
8
boundary
62
5
39
2
10
47.783460
20
314.164985
11
47.193186
21
315.089792
0
LINE
8
boundary
62
5
39
2
10
47.193186
20
315.089792
11
46.591152
21
316.012975
0
LINE
8
boundary
62
5
39
2
10
46.591152
20
316.012975
11
45.977191
21
316.934537
0
LINE
8
boundary
62
5
39
2
10
45.977191
20
316.934537
11
45.351406
21
317.854559
0
LINE
8
boundary
62
5
39
2
10
45.351406
20
317.854559
11
44.713708
21
318.772679
0
LINE
8
boundary
62
5
39
2
10
44.713708
20
318.772679
11
44.063977
21
319.689061
0
LINE
8
boundary
62
5
39
2
10
44.063977
20
319.689061
11
43.402150
21
320.603810
0
LINE
8
boundary
62
5
39
2
10
43.402150
20
320.603810
11
42.728169
21
321.516391
0
LINE
8
boundary
62
5
39
2
10
42.728169
20
321.516391
11
42.042035
21
322.427141
0
LINE
8
boundary
62
5
39
2
10
42.042035
20
322.427141
11
41.343542
21
323.335676
0
LINE
8
boundary
62
5
39
2
10
41.343542
20
323.335676
11
40.632790
21
324.242326
0
LINE
8
boundary
62
5
39
2
10
40.632790
20
324.242326
11
39.909694
21
325.146849
0
LINE
8
boundary
62
5
39
2
10
39.909694
20
325.146849
11
39.174112
21
326.048884
0
LINE
8
boundary
62
5
39
2
10
39.174112
20
326.048884
11
38.425966
21
326.948876
0
LINE
8
boundary
62
5
39
2
10
38.425966
20
326.948876
11
37.665323
21
327.846428
0
LINE
8
boundary
62
5
39
2
10
37.665323
20
327.846428
11
36.892086
21
328.741524
0
LINE
8
boundary
62
5
39
2
10
36.892086
20
328.741524
11
36.680632
21
329.270213
0
LINE
8
boundary
62
5
39
2
10
36.680632
20
329.270213
11
36.495037
21
329.774845
0
LINE
8
boundary
62
5
39
2
10
36.495037
20
329.774845
11
36.328721
21
330.275222
0
LINE
8
boundary
62
5
39
2
10
36.328721
20
330.275222
11
36.085708
21
331.150054
0
LINE
8
boundary
62
5
39
2
10
36.085708
20
331.150054
11
35.929501
21
331.955388
0
LINE
8
boundary
62
5
39
2
10
35.929501
20
331.955388
11
35.860901
21
332.675795
0
LINE
8
boundary
62
5
39
2
10
35.860901
20
332.675795
11
35.874991
21
333.314295
0
LINE
8
boundary
62
5
39
2
10
35.874991
20
333.314295
11
35.966995
21
333.874631
0
LINE
8
boundary
62
5
39
2
10
35.966995
20
333.874631
11
36.132374
21
334.359925
0
LINE
8
boundary
62
5
39
2
10
36.132374
20
334.359925
11
36.508104
21
334.955319
0
LINE
8
boundary
62
5
39
2
10
36.508104
20
334.955319
11
37.023732
21
335.401753
0
LINE
8
boundary
62
5
39
2
10
37.023732
20
335.401753
11
37.664760
21
335.711276
0
LINE
8
boundary
62
5
39
2
10
37.664760
20
335.711276
11
38.154654
21
335.847156
0
LINE
8
boundary
62
5
39
2
10
38.154654
20
335.847156
11
38.689677
21
335.930895
0
LINE
8
boundary
62
5
39
2
10
38.689677
20
335.930895
11
39.265506
21
335.966191
0
LINE
8
boundary
62
5
39
2
10
39.265506
20
335.966191
11
39.878186
21
335.956124
0
LINE
8
boundary
62
5
39
2
10
39.878186
20
335.956124
11
40.523386
21
335.904599
0
LINE
8
boundary
62
5
39
2
10
40.523386
20
335.904599
11
41.197050
21
335.814955
0
LINE
8
boundary
62
5
39
2
10
41.197050
20
335.814955
11
41.895060
21
335.690666
0
LINE
8
boundary
62
5
39
2
10
41.895060
20
335.690666
11
42.613112
21
335.535341
0
LINE
8
boundary
62
5
39
2
10
42.613112
20
335.535341
11
43.347092
21
335.352508
0
LINE
8
boundary
62
5
39
2
10
43.347092
20
335.352508
11
44.092916
21
335.145694
0
LINE
8
boundary
62
5
39
2
10
44.092916
20
335.145694
11
44.846217
21
334.918538
0
LINE
8
boundary
62
5
39
2
10
44.846217
20
334.918538
11
45.602943
21
334.674184
0
LINE
8
boundary
62
5
39
2
10
45.602943
20
334.674184
11
46.358717
21
334.416265
0
LINE
8
boundary
62
5
39
2
10
46.358717
20
334.416265
11
47.109320
21
334.148546
0
LINE
8
boundary
62
5
39
2
10
47.109320
20
334.148546
11
48.578038
21
333.597149
0
LINE
8
boundary
62
5
39
2
10
48.578038
20
333.597149
11
49.974632
21
333.047839
0
LINE
8
boundary
62
5
39
2
10
49.974632
20
333.047839
11
51.264458
21
332.528548
0
LINE
8
boundary
62
5
39
2
10
51.264458
20
332.528548
11
52.080520
21
331.944174
0
LINE
8
boundary
62
5
39
2
10
52.080520
20
331.944174
11
52.909847
21
331.379293
0
LINE
8
boundary
62
5
39
2
10
52.909847
20
331.379293
11
53.751521
21
330.833806
0
LINE
8
boundary
62
5
39
2
10
53.751521
20
330.833806
11
54.605240
21
330.307839
0
LINE
8
boundary
62
5
39
2
10
54.605240
20
330.307839
11
55.470192
21
329.801027
0
LINE
8
boundary
62
5
39
2
10
55.470192
20
329.801027
11
56.345869
21
329.313616
0
LINE
8
boundary
62
5
39
2
10
56.345869
20
329.313616
11
57.231627
21
328.845533
0
LINE
8
boundary
62
5
39
2
10
57.231627
20
328.845533
11
58.126658
21
328.397009
0
LINE
8
boundary
62
5
39
2
10
58.126658
20
328.397009
11
59.030586
21
327.967322
0
LINE
8
boundary
62
5
39
2
10
59.030586
20
327.967322
11
59.942707
21
327.557144
0
LINE
8
boundary
62
5
39
2
10
59.942707
20
327.557144
11
60.862333
21
327.166293
0
LINE
8
boundary
62
5
39
2
10
60.862333
20
327.166293
11
61.788803
21
326.794392
0
LINE
8
boundary
62
5
39
2
10
61.788803
20
326.794392
11
62.721588
21
326.441720
0
LINE
8
boundary
62
5
39
2
10
62.721588
20
326.441720
11
63.660040
21
326.108142
0
LINE
8
boundary
62
5
39
2
10
63.660040
20
326.108142
11
64.603430
21
325.793980
0
LINE
8
boundary
62
5
39
2
10
64.603430
20
325.793980
11
65.551276
21
325.498766
0
LINE
8
boundary
62
5
39
2
10
65.551276
20
325.498766
11
66.502822
21
325.222427
0
LINE
8
boundary
62
5
39
2
10
66.502822
20
325.222427
11
67.457594
21
324.965367
0
LINE
8
boundary
62
5
39
2
10
67.457594
20
324.965367
11
68.414777
21
324.727131
0
LINE
8
boundary
62
5
39
2
10
68.414777
20
324.727131
11
69.373919
21
324.507969
0
LINE
8
boundary
62
5
39
2
10
69.373919
20
324.507969
11
70.334324
21
324.307724
0
LINE
8
boundary
62
5
39
2
10
70.334324
20
324.307724
11
71.295477
21
324.126567
0
LINE
8
boundary
62
5
39
2
10
71.295477
20
324.126567
11
72.256670
21
323.964151
0
LINE
8
boundary
62
5
39
2
10
72.256670
20
323.964151
11
73.217356
21
323.820739
0
LINE
8
boundary
62
5
39
2
10
73.217356
20
323.820739
11
74.177027
21
323.696097
0
LINE
8
boundary
62
5
39
2
10
74.177027
20
323.696097
11
75.134934
21
323.590318
0
LINE
8
boundary
62
5
39
2
10
75.134934
20
323.590318
11
76.090581
21
323.503526
0
LINE
8
boundary
62
5
39
2
10
76.090581
20
323.503526
11
77.043504
21
323.435363
0
LINE
8
boundary
62
5
39
2
10
77.043504
20
323.435363
11
77.992983
21
323.386109
0
LINE
8
boundary
62
5
39
2
10
77.992983
20
323.386109
11
78.938569
21
323.355699
0
LINE
8
boundary
62
5
39
2
10
78.938569
20
323.355699
11
79.879684
21
323.343870
0
LINE
8
boundary
62
5
39
2
10
79.879684
20
323.343870
11
80.815745
21
323.350576
0
LINE
8
boundary
62
5
39
2
10
80.815745
20
323.350576
11
81.746255
21
323.376356
0
LINE
8
boundary
62
5
39
2
10
81.746255
20
323.376356
11
82.670812
21
323.420643
0
LINE
8
boundary
62
5
39
2
10
82.670812
20
323.420643
11
83.588710
21
323.483754
0
LINE
8
boundary
62
5
39
2
10
83.588710
20
323.483754
11
84.499657
21
323.565441
0
LINE
8
boundary
62
5
39
2
10
84.499657
20
323.565441
11
85.403001
21
323.665853
0
LINE
8
boundary
62
5
39
2
10
85.403001
20
323.665853
11
86.298367
21
323.784969
0
LINE
8
boundary
62
5
39
2
10
86.298367
20
323.784969
11
87.185259
21
323.922668
0
LINE
8
boundary
62
5
39
2
10
87.185259
20
323.922668
11
88.063307
21
324.078956
0
LINE
8
boundary
62
5
39
2
10
88.063307
20
324.078956
11
88.931882
21
324.253957
0
LINE
8
boundary
62
5
39
2
10
88.931882
20
324.253957
11
89.790746
21
324.447481
0
LINE
8
boundary
62
5
39
2
10
89.790746
20
324.447481
11
90.639368
21
324.659954
0
LINE
8
boundary
62
5
39
2
10
90.639368
20
324.659954
11
91.477375
21
324.890864
0
LINE
8
boundary
62
5
39
2
10
91.477375
20
324.890864
11
92.304355
21
325.140381
0
LINE
8
boundary
62
5
39
2
10
92.304355
20
325.140381
11
93.119821
21
325.408510
0
LINE
8
boundary
62
5
39
2
10
93.119821
20
325.408510
11
93.923655
21
325.695251
0
LINE
8
boundary
62
5
39
2
10
93.923655
20
325.695251
11
94.715240
21
326.000653
0
LINE
8
boundary
62
5
39
2
10
94.715240
20
326.000653
11
95.494343
21
326.325016
0
LINE
8
boundary
62
5
39
2
10
95.494343
20
326.325016
11
96.260563
21
326.667533
0
LINE
8
boundary
62
5
39
2
10
96.260563
20
326.667533
11
97.013601
21
327.029226
0
LINE
8
boundary
62
5
39
2
10
97.013601
20
327.029226
11
97.753212
21
327.409250
0
LINE
8
boundary
62
5
39
2
10
97.753212
20
327.409250
11
98.478885
21
327.808177
0
LINE
8
boundary
62
5
39
2
10
98.478885
20
327.808177
11
99.190440
21
328.225594
0
LINE
8
boundary
62
5
39
2
10
99.190440
20
328.225594
11
99.887623
21
328.661934
0
LINE
8
boundary
62
5
39
2
10
99.887623
20
328.661934
11
100.569999
21
329.116875
0
LINE
8
boundary
62
5
39
2
10
100.569999
20
329.116875
11
101.237343
21
329.590540
0
LINE
8
boundary
62
5
39
2
10
101.237343
20
329.590540
11
101.889484
21
330.083152
0
LINE
8
boundary
62
5
39
2
10
101.889484
20
330.083152
11
102.526017
21
330.594386
0
LINE
8
boundary
62
5
39
2
10
102.526017
20
330.594386
11
103.146728
21
331.124552
0
LINE
8
boundary
62
5
39
2
10
103.146728
20
331.124552
11
103.751376
21
331.673274
0
LINE
8
boundary
62
5
39
2
10
103.751376
20
331.673274
11
104.339684
21
332.241355
0
LINE
8
boundary
62
5
39
2
10
104.339684
20
332.241355
11
104.911422
21
332.827974
0
LINE
8
boundary
62
5
39
2
10
104.911422
20
332.827974
11
105.466366
21
333.433464
0
LINE
8
boundary
62
5
39
2
10
105.466366
20
333.433464
11
106.125345
21
333.978131
0
LINE
8
boundary
62
5
39
2
10
106.125345
20
333.978131
11
106.717967
21
334.540427
0
LINE
8
boundary
62
5
39
2
10
106.717967
20
334.540427
11
107.246043
21
335.119384
0
LINE
8
boundary
62
5
39
2
10
107.246043
20
335.119384
11
107.711373
21
335.715300
0
LINE
8
boundary
62
5
39
2
10
107.711373
20
335.715300
11
108.115636
21
336.327209
0
LINE
8
boundary
62
5
39
2
10
108.115636
20
336.327209
11
108.460442
21
336.954695
0
LINE
8
boundary
62
5
39
2
10
108.460442
20
336.954695
11
108.747524
21
337.597501
0
LINE
8
boundary
62
5
39
2
10
108.747524
20
337.597501
11
108.978452
21
338.255212
0
LINE
8
boundary
62
5
39
2
10
108.978452
20
338.255212
11
109.154614
21
338.927398
0
LINE
8
boundary
62
5
39
2
10
109.154614
20
338.927398
11
109.277572
21
339.613261
0
LINE
8
boundary
62
5
39
2
10
109.277572
20
339.613261
11
109.348725
21
340.312748
0
LINE
8
boundary
62
5
39
2
10
109.348725
20
340.312748
11
109.369600
21
341.025323
0
LINE
8
boundary
62
5
39
2
10
109.369600
20
341.025323
11
109.341392
21
341.750497
0
LINE
8
boundary
62
5
39
2
10
109.341392
20
341.750497
11
109.265623
21
342.487915
0
LINE
8
boundary
62
5
39
2
10
109.265623
20
342.487915
11
109.143565
21
343.236863
0
LINE
8
boundary
62
5
39
2
10
109.143565
20
343.236863
11
108.976461
21
343.997146
0
LINE
8
boundary
62
5
39
2
10
108.976461
20
343.997146
11
108.765751
21
344.768188
0
LINE
8
boundary
62
5
39
2
10
108.765751
20
344.768188
11
108.512593
21
345.549629
0
LINE
8
boundary
62
5
39
2
10
108.512593
20
345.549629
11
108.218288
21
346.340954
0
LINE
8
boundary
62
5
39
2
10
108.218288
20
346.340954
11
107.884190
21
347.141620
0
LINE
8
boundary
62
5
39
2
10
107.884190
20
347.141620
11
107.511415
21
347.951250
0
LINE
8
boundary
62
5
39
2
10
107.511415
20
347.951250
11
107.101383
21
348.769530
0
LINE
8
boundary
62
5
39
2
10
107.101383
20
348.769530
11
106.655299
21
349.595790
0
LINE
8
boundary
62
5
39
2
10
106.655299
20
349.595790
11
106.174347
21
350.429792
0
LINE
8
boundary
62
5
39
2
10
106.174347
20
350.429792
11
105.659859
21
351.270892
0
LINE
8
boundary
62
5
39
2
10
105.659859
20
351.270892
11
105.113167
21
352.118400
0
LINE
8
boundary
62
5
39
2
10
105.113167
20
352.118400
11
104.535482
21
352.972481
0
LINE
8
boundary
62
5
39
2
10
104.535482
20
352.972481
11
103.928106
21
353.832241
0
LINE
8
boundary
62
5
39
2
10
103.928106
20
353.832241
11
103.292338
21
354.697304
0
LINE
8
boundary
62
5
39
2
10
103.292338
20
354.697304
11
102.629495
21
355.567354
0
LINE
8
boundary
62
5
39
2
10
102.629495
20
355.567354
11
101.940875
21
356.441705
0
LINE
8
boundary
62
5
39
2
10
101.940875
20
356.441705
11
101.227871
21
357.320044
0
LINE
8
boundary
62
5
39
2
10
101.227871
20
357.320044
11
100.491736
21
358.201798
0
LINE
8
boundary
62
5
39
2
10
100.491736
20
358.201798
11
99.733919
21
359.086630
0
LINE
8
boundary
62
5
39
2
10
99.733919
20
359.086630
11
98.955625
21
359.974300
0
LINE
8
boundary
62
5
39
2
10
98.955625
20
359.974300
11
98.158425
21
360.863789
0
LINE
8
boundary
62
5
39
2
10
98.158425
20
360.863789
11
97.343628
21
361.755112
0
LINE
8
boundary
62
5
39
2
10
97.343628
20
361.755112
11
96.512519
21
362.647517
0
LINE
8
boundary
62
5
39
2
10
96.512519
20
362.647517
11
95.666614
21
363.540698
0
LINE
8
boundary
62
5
39
2
10
95.666614
20
363.540698
11
94.807140
21
364.434306
0
LINE
8
boundary
62
5
39
2
10
94.807140
20
364.434306
11
93.935799
21
365.327663
0
LINE
8
boundary
62
5
39
2
10
93.935799
20
365.327663
11
93.053782
21
366.220332
0
LINE
8
boundary
62
5
39
2
10
93.053782
20
366.220332
11
91.263588
21
368.001992
0
LINE
8
boundary
62
5
39
2
10
91.263588
20
368.001992
11
89.447944
21
369.775289
0
LINE
8
boundary
62
5
39
2
10
89.447944
20
369.775289
11
87.618328
21
371.536533
0
LINE
8
boundary
62
5
39
2
10
87.618328
20
371.536533
11
85.786055
21
373.282145
0
LINE
8
boundary
62
5
39
2
10
85.786055
20
373.282145
11
83.962443
21
375.008260
0
LINE
8
boundary
62
5
39
2
10
83.962443
20
375.008260
11
80.386031
21
378.385955
0
LINE
8
boundary
62
5
39
2
10
80.386031
20
378.385955
11
76.977851
21
381.638347
0
LINE
8
boundary
62
5
39
2
10
76.977851
20
381.638347
11
75.363766
21
383.207901
0
LINE
8
boundary
62
5
39
2
10
75.363766
20
383.207901
11
73.824005
21
384.734283
0
LINE
8
boundary
62
5
39
2
10
73.824005
20
384.734283
11
72.895527
21
385.654885
0
LINE
8
boundary
62
5
39
2
10
72.895527
20
385.654885
11
71.971318
21
386.551176
0
LINE
8
boundary
62
5
39
2
10
71.971318
20
386.551176
11
71.051176
21
387.422939
0
LINE
8
boundary
62
5
39
2
10
71.051176
20
387.422939
11
70.134968
21
388.270793
0
LINE
8
boundary
62
5
39
2
10
70.134968
20
388.270793
11
69.222554
21
389.094813
0
LINE
8
boundary
62
5
39
2
10
69.222554
20
389.094813
11
68.313812
21
389.895693
0
LINE
8
boundary
62
5
39
2
10
68.313812
20
389.895693
11
67.408759
21
390.673543
0
LINE
8
boundary
62
5
39
2
10
67.408759
20
390.673543
11
66.507152
21
391.428863
0
LINE
8
boundary
62
5
39
2
10
66.507152
20
391.428863
11
65.608931
21
392.161747
0
LINE
8
boundary
62
5
39
2
10
65.608931
20
392.161747
11
64.713970
21
392.872806
0
LINE
8
boundary
62
5
39
2
10
64.713970
20
392.872806
11
63.822165
21
393.562499
0
LINE
8
boundary
62
5
39
2
10
63.822165
20
393.562499
11
62.933441
21
394.230726
0
LINE
8
boundary
62
5
39
2
10
62.933441
20
394.230726
11
62.047709
21
394.878358
0
LINE
8
boundary
62
5
39
2
10
62.047709
20
394.878358
11
61.164860
21
395.505332
0
LINE
8
boundary
62
5
39
2
10
61.164860
20
395.505332
11
60.284802
21
396.112095
0
LINE
8
boundary
62
5
39
2
10
60.284802
20
396.112095
11
59.407460
21
396.699133
0
LINE
8
boundary
62
5
39
2
10
59.407460
20
396.699133
11
58.532729
21
397.266706
0
LINE
8
boundary
62
5
39
2
10
58.532729
20
397.266706
11
57.660529
21
397.815211
0
LINE
8
boundary
62
5
39
2
10
57.660529
20
397.815211
11
56.790773
21
398.345329
0
LINE
8
boundary
62
5
39
2
10
56.790773
20
398.345329
11
55.923517
21
398.856866
0
LINE
8
boundary
62
5
39
2
10
55.923517
20
398.856866
11
55.058516
21
399.350475
0
LINE
8
boundary
62
5
39
2
10
55.058516
20
399.350475
11
54.195798
21
399.826545
0
LINE
8
boundary
62
5
39
2
10
54.195798
20
399.826545
11
53.335233
21
400.285425
0
LINE
8
boundary
62
5
39
2
10
53.335233
20
400.285425
11
52.476883
21
400.727329
0
LINE
8
boundary
62
5
39
2
10
52.476883
20
400.727329
11
51.620641
21
401.152861
0
LINE
8
boundary
62
5
39
2
10
51.620641
20
401.152861
11
50.766380
21
401.562456
0
LINE
8
boundary
62
5
39
2
10
50.766380
20
401.562456
11
49.914166
21
401.956277
0
LINE
8
boundary
62
5
39
2
10
49.914166
20
401.956277
11
49.063869
21
402.334747
0
LINE
8
boundary
62
5
39
2
10
49.063869
20
402.334747
11
48.215542
21
402.698068
0
LINE
8
boundary
62
5
39
2
10
48.215542
20
402.698068
11
47.369020
21
403.047153
0
LINE
8
boundary
62
5
39
2
10
47.369020
20
403.047153
11
46.524457
21
403.381858
0
LINE
8
boundary
62
5
39
2
10
46.524457
20
403.381858
11
45.681630
21
403.702879
0
LINE
8
boundary
62
5
39
2
10
45.681630
20
403.702879
11
44.840566
21
404.010549
0
LINE
8
boundary
62
5
39
2
10
44.840566
20
404.010549
11
44.001269
21
404.305133
0
LINE
8
boundary
62
5
39
2
10
44.001269
20
404.305133
11
43.163715
21
404.587077
0
LINE
8
boundary
62
5
39
2
10
43.163715
20
404.587077
11
42.327921
21
404.856710
0
LINE
8
boundary
62
5
39
2
10
42.327921
20
404.856710
11
41.493811
21
405.114517
0
LINE
8
boundary
62
5
39
2
10
41.493811
20
405.114517
11
40.661418
21
405.360902
0
LINE
8
boundary
62
5
39
2
10
40.661418
20
405.360902
11
39.830660
21
405.596210
0
LINE
8
boundary
62
5
39
2
10
39.830660
20
405.596210
11
39.001642
21
405.820769
0
LINE
8
boundary
62
5
39
2
10
39.001642
20
405.820769
11
38.174234
21
406.035153
0
LINE
8
boundary
62
5
39
2
10
38.174234
20
406.035153
11
37.348499
21
406.239521
0
LINE
8
boundary
62
5
39
2
10
37.348499
20
406.239521
11
35.702097
21
406.620368
0
LINE
8
boundary
62
5
39
2
10
35.702097
20
406.620368
11
34.062360
21
406.966202
0
LINE
8
boundary
62
5
39
2
10
34.062360
20
406.966202
11
32.429431
21
407.280306
0
LINE
8
boundary
62
5
39
2
10
32.429431
20
407.280306
11
30.803384
21
407.565986
0
LINE
8
boundary
62
5
39
2
10
30.803384
20
407.565986
11
29.184300
21
407.826326
0
LINE
8
boundary
62
5
39
2
10
29.184300
20
407.826326
11
27.572311
21
408.064400
0
LINE
8
boundary
62
5
39
2
10
27.572311
20
408.064400
11
25.967760
21
408.283498
0
LINE
8
boundary
62
5
39
2
10
25.967760
20
408.283498
11
24.370818
21
408.486796
0
LINE
8
boundary
62
5
39
2
10
24.370818
20
408.486796
11
22.781620
21
408.677404
0
LINE
8
boundary
62
5
39
2
10
22.781620
20
408.677404
11
21.822697
21
408.785777
0
LINE
8
boundary
62
5
39
2
10
21.822697
20
408.785777
11
19.627846
21
409.033938
0
LINE
8
boundary
62
5
39
2
10
19.627846
20
409.033938
11
19.264549
21
406.810858
0
LINE
8
boundary
62
5
39
2
10
19.264549
20
406.810858
11
18.397368
21
401.539153
0
LINE
8
boundary
62
5
39
2
10
18.397368
20
401.539153
11
19.450418
21
401.425012
0
LINE
8
boundary
62
5
39
2
10
19.450418
20
401.425012
11
22.725613
21
401.069952
0
LINE
8
boundary
62
5
39
2
10
22.725613
20
401.069952
11
23.938474
21
400.706282
0
LINE
8
boundary
62
5
39
2
10
23.938474
20
400.706282
11
25.133731
21
400.334005
0
LINE
8
boundary
62
5
39
2
10
25.133731
20
400.334005
11
25.714145
21
400.146267
0
LINE
8
boundary
62
5
39
2
10
25.714145
20
400.146267
11
42.756354
21
400.146267
0
LINE
8
boundary
62
5
39
2
10
42.756354
20
400.146267
11
42.756354
21
397.400267
0
LINE
8
boundary
62
5
39
2
10
42.756354
20
397.400267
11
33.611724
21
397.400267
0
LINE
8
boundary
62
5
39
2
10
33.611724
20
397.400267
11
34.069302
21
397.056664
0
LINE
8
boundary
62
5
39
2
10
34.069302
20
397.056664
11
35.109250
21
396.611917
0
LINE
8
boundary
62
5
39
2
10
35.109250
20
396.611917
11
36.132379
21
396.160124
0
LINE
8
boundary
62
5
39
2
10
36.132379
20
396.160124
11
37.138649
21
395.700901
0
LINE
8
boundary
62
5
39
2
10
37.138649
20
395.700901
11
38.128291
21
395.234818
0
LINE
8
boundary
62
5
39
2
10
38.128291
20
395.234818
11
39.101262
21
394.761831
0
LINE
8
boundary
62
5
39
2
10
39.101262
20
394.761831
11
40.057704
21
394.282228
0
LINE
8
boundary
62
5
39
2
10
40.057704
20
394.282228
11
40.997664
21
393.795941
0
LINE
8
boundary
62
5
39
2
10
40.997664
20
393.795941
11
41.921184
21
393.303374
0
LINE
8
boundary
62
5
39
2
10
41.921184
20
393.303374
11
42.828337
21
392.804506
0
LINE
8
boundary
62
5
39
2
10
42.828337
20
392.804506
11
43.719259
21
392.299583
0
LINE
8
boundary
62
5
39
2
10
43.719259
20
392.299583
11
44.593855
21
391.788669
0
LINE
8
boundary
62
5
39
2
10
44.593855
20
391.788669
11
45.452242
21
391.271867
0
LINE
8
boundary
62
5
39
2
10
45.452242
20
391.271867
11
46.294593
21
390.749456
0
LINE
8
boundary
62
5
39
2
10
46.294593
20
390.749456
11
47.120854
21
390.221461
0
LINE
8
boundary
62
5
39
2
10
47.120854
20
390.221461
11
47.931085
21
389.688269
0
LINE
8
boundary
62
5
39
2
10
47.931085
20
389.688269
11
48.725390
21
389.149694
0
LINE
8
boundary
62
5
39
2
10
48.725390
20
389.149694
11
49.503761
21
388.605895
0
LINE
8
boundary
62
5
39
2
10
49.503761
20
388.605895
11
50.266325
21
388.057395
0
LINE
8
boundary
62
5
39
2
10
50.266325
20
388.057395
11
51.013138
21
387.503817
0
LINE
8
boundary
62
5
39
2
10
51.013138
20
387.503817
11
51.744135
21
386.945901
0
LINE
8
boundary
62
5
39
2
10
51.744135
20
386.945901
11
52.459435
21
386.383471
0
LINE
8
boundary
62
5
39
2
10
52.459435
20
386.383471
11
53.159074
21
385.816602
0
LINE
8
boundary
62
5
39
2
10
53.159074
20
385.816602
11
53.843122
21
385.245447
0
LINE
8
boundary
62
5
39
2
10
53.843122
20
385.245447
11
54.511649
21
384.670066
0
LINE
8
boundary
62
5
39
2
10
54.511649
20
384.670066
11
55.164653
21
384.090933
0
LINE
8
boundary
62
5
39
2
10
55.164653
20
384.090933
11
55.802143
21
383.508077
0
LINE
8
boundary
62
5
39
2
10
55.802143
20
383.508077
11
56.424279
21
382.921364
0
LINE
8
boundary
62
5
39
2
10
56.424279
20
382.921364
11
57.030936
21
382.331384
0
LINE
8
boundary
62
5
39
2
10
57.030936
20
382.331384
11
57.622353
21
381.737844
0
LINE
8
boundary
62
5
39
2
10
57.622353
20
381.737844
11
58.198374
21
381.141203
0
LINE
8
boundary
62
5
39
2
10
58.198374
20
381.141203
11
58.759218
21
380.541266
0
LINE
8
boundary
62
5
39
2
10
58.759218
20
380.541266
11
59.304796
21
379.938474
0
LINE
8
boundary
62
5
39
2
10
59.304796
20
379.938474
11
59.835181
21
379.333060
0
LINE
8
boundary
62
5
39
2
10
59.835181
20
379.333060
11
60.350459
21
378.724689
0
LINE
8
boundary
62
5
39
2
10
60.350459
20
378.724689
11
60.850636
21
378.114068
0
LINE
8
boundary
62
5
39
2
10
60.850636
20
378.114068
11
61.335680
21
377.500847
0
LINE
8
boundary
62
5
39
2
10
61.335680
20
377.500847
11
61.805671
21
376.885446
0
LINE
8
boundary
62
5
39
2
10
61.805671
20
376.885446
11
62.260751
21
376.267854
0
LINE
8
boundary
62
5
39
2
10
62.260751
20
376.267854
11
62.700763
21
375.648379
0
LINE
8
boundary
62
5
39
2
10
62.700763
20
375.648379
11
63.125955
21
375.026937
0
LINE
8
boundary
62
5
39
2
10
63.125955
20
375.026937
11
63.536123
21
374.403890
0
LINE
8
boundary
62
5
39
2
10
63.536123
20
374.403890
11
63.931483
21
373.779131
0
LINE
8
boundary
62
5
39
2
10
63.931483
20
373.779131
11
64.311993
21
373.153135
0
LINE
8
boundary
62
5
39
2
10
64.311993
20
373.153135
11
64.677767
21
372.525887
0
LINE
8
boundary
62
5
39
2
10
64.677767
20
372.525887
11
65.028650
21
371.897341
0
LINE
8
boundary
62
5
39
2
10
65.028650
20
371.897341
11
65.364837
21
371.267702
0
LINE
8
boundary
62
5
39
2
10
65.364837
20
371.267702
11
65.686347
21
370.637092
0
LINE
8
boundary
62
5
39
2
10
65.686347
20
370.637092
11
65.993113
21
370.006093
0
LINE
8
boundary
62
5
39
2
10
65.993113
20
370.006093
11
66.285282
21
369.374197
0
LINE
8
boundary
62
5
39
2
10
66.285282
20
369.374197
11
66.562758
21
368.741872
0
LINE
8
boundary
62
5
39
2
10
66.562758
20
368.741872
11
66.825592
21
368.109279
0
LINE
8
boundary
62
5
39
2
10
66.825592
20
368.109279
11
67.073931
21
367.476220
0
LINE
8
boundary
62
5
39
2
10
67.073931
20
367.476220
11
67.307628
21
366.843422
0
LINE
8
boundary
62
5
39
2
10
67.307628
20
366.843422
11
67.526831
21
366.210296
0
LINE
8
boundary
62
5
39
2
10
67.526831
20
366.210296
11
67.494314
21
365.269288
0
LINE
8
boundary
62
5
39
2
10
67.494314
20
365.269288
11
67.487556
21
364.313406
0
LINE
8
boundary
62
5
39
2
10
67.487556
20
364.313406
11
67.501179
21
363.345829
0
LINE
8
boundary
62
5
39
2
10
67.501179
20
363.345829
11
67.530081
21
362.370262
0
LINE
8
boundary
62
5
39
2
10
67.530081
20
362.370262
11
67.612088
21
360.407832
0
LINE
8
boundary
62
5
39
2
10
67.612088
20
360.407832
11
67.690478
21
358.452694
0
LINE
8
boundary
62
5
39
2
10
67.690478
20
358.452694
11
67.714646
21
357.486165
0
LINE
8
boundary
62
5
39
2
10
67.714646
20
357.486165
11
67.721515
21
356.531624
0
LINE
8
boundary
62
5
39
2
10
67.721515
20
356.531624
11
67.705358
21
355.592079
0
LINE
8
boundary
62
5
39
2
10
67.705358
20
355.592079
11
67.660698
21
354.671084
0
LINE
8
boundary
62
5
39
2
10
67.660698
20
354.671084
11
67.581746
21
353.771325
0
LINE
8
boundary
62
5
39
2
10
67.581746
20
353.771325
11
67.462915
21
352.896877
0
LINE
8
boundary
62
5
39
2
10
67.462915
20
352.896877
11
67.298311
21
352.050467
0
LINE
8
boundary
62
5
39
2
10
67.298311
20
352.050467
11
67.082327
21
351.235566
0
LINE
8
boundary
62
5
39
2
10
67.082327
20
351.235566
11
66.808989
21
350.455490
0
LINE
8
boundary
62
5
39
2
10
66.808989
20
350.455490
11
66.472606
21
349.713192
0
LINE
8
boundary
62
5
39
2
10
66.472606
20
349.713192
11
66.067131
21
349.012094
0
LINE
8
boundary
62
5
39
2
10
66.067131
20
349.012094
11
65.586810
21
348.355682
0
LINE
8
boundary
62
5
39
2
10
65.586810
20
348.355682
11
65.025548
21
347.746600
0
LINE
8
boundary
62
5
39
2
10
65.025548
20
347.746600
11
64.377551
21
347.188767
0
LINE
8
boundary
62
5
39
2
10
64.377551
20
347.188767
11
63.636678
21
346.684890
0
LINE
8
boundary
62
5
39
2
10
63.636678
20
346.684890
11
62.797126
21
346.238595
0
LINE
8
boundary
62
5
39
2
10
62.797126
20
346.238595
11
62.318517
21
346.030546
0
LINE
8
boundary
62
5
39
2
10
62.318517
20
346.030546
11
61.831714
21
345.846241
0
LINE
8
boundary
62
5
39
2
10
61.831714
20
345.846241
11
61.339512
21
345.684072
0
LINE
8
boundary
62
5
39
2
10
61.339512
20
345.684072
11
60.797813
21
345.531408
0
LINE
8
boundary
62
5
39
2
10
60.797813
20
345.531408
11
60.226924
21
345.395614
0
LINE
8
boundary
62
5
39
2
10
60.226924
20
345.395614
11
59.626125
21
345.276922
0
LINE
8
boundary
62
5
39
2
10
59.626125
20
345.276922
11
58.994769
21
345.175825
0
LINE
8
boundary
62
5
39
2
10
58.994769
20
345.175825
11
58.332001
21
345.093114
0
LINE
8
boundary
62
5
39
2
10
58.332001
20
345.093114
11
57.637154
21
345.028532
0
LINE
8
boundary
62
5
39
2
10
57.637154
20
345.028532
11
56.909472
21
344.982818
0
LINE
8
boundary
62
5
39
2
10
56.909472
20
344.982818
11
56.148267
21
344.956601
0
LINE
8
boundary
62
5
39
2
10
56.148267
20
344.956601
11
55.352950
21
344.949935
0
LINE
8
boundary
62
5
39
2
10
55.352950
20
344.949935
11
54.522628
21
344.963307
0
LINE
8
boundary
62
5
39
2
10
54.522628
20
344.963307
11
53.656631
21
344.997528
0
LINE
8
boundary
62
5
39
2
10
53.656631
20
344.997528
11
52.754388
21
345.052215
0
LINE
8
boundary
62
5
39
2
10
52.754388
20
345.052215
11
51.815227
21
345.128562
0
LINE
8
boundary
62
5
39
2
10
51.815227
20
345.128562
11
50.154860
21
345.728493
0
LINE
8
boundary
62
5
39
2
10
50.154860
20
345.728493
11
48.537304
21
346.297806
0
LINE
8
boundary
62
5
39
2
10
48.537304
20
346.297806
11
46.954148
21
346.836755
0
LINE
8
boundary
62
5
39
2
10
46.954148
20
346.836755
11
45.396763
21
347.345934
0
LINE
8
boundary
62
5
39
2
10
45.396763
20
347.345934
11
43.856808
21
347.826018
0
LINE
8
boundary
62
5
39
2
10
43.856808
20
347.826018
11
42.325704
21
348.277059
0
LINE
8
boundary
62
5
39
2
10
42.325704
20
348.277059
11
40.795008
21
348.700113
0
LINE
8
boundary
62
5
39
2
10
40.795008
20
348.700113
11
39.256076
21
349.095229
0
LINE
8
boundary
62
5
39
2
10
39.256076
20
349.095229
11
37.700429
21
349.463146
0
LINE
8
boundary
62
5
39
2
10
37.700429
20
349.463146
11
36.119568
21
349.804423
0
LINE
8
boundary
62
5
39
2
10
36.119568
20
349.804423
11
34.504906
21
350.119321
0
LINE
8
boundary
62
5
39
2
10
34.504906
20
350.119321
11
32.847948
21
350.408628
0
LINE
8
boundary
62
5
39
2
10
32.847948
20
350.408628
11
31.140102
21
350.672514
0
LINE
8
boundary
62
5
39
2
10
31.140102
20
350.672514
11
29.372845
21
350.911781
0
LINE
8
boundary
62
5
39
2
10
29.372845
20
350.911781
11
27.537568
21
351.126934
0
LINE
8
boundary
62
5
39
2
10
27.537568
20
351.126934
11
25.625785
21
351.318360
0
LINE
8
boundary
62
5
39
2
10
25.625785
20
351.318360
11
25.470774
21
349.812841
0
LINE
8
boundary
62
5
39
2
10
25.470774
20
349.812841
11
23.722293
21
332.443910
0
LINE
8
boundary
62
5
39
2
10
23.722293
20
332.443910
11
24.126950
21
330.820435
0
LINE
8
boundary
62
5
39
2
10
24.126950
20
330.820435
11
27.579878
21
317.084807
0
LINE
8
boundary
62
5
39
2
10
27.579878
20
317.084807
11
37.211501
21
316.934807
0
LINE
8
boundary
62
5
39
2
10
37.211501
20
316.934807
11
37.211501
21
314.188808
0
LINE
8
boundary
62
5
39
2
10
37.211501
20
314.188808
11
28.355896
21
314.188808
0
LINE
8
boundary
62
5
39
2
10
28.355896
20
314.188808
11
32.798346
21
296.325929
0
LINE
8
boundary
62
5
39
2
10
32.798346
20
296.325929
11
33.472912
21
294.211283
0
LINE
8
boundary
62
5
39
2
10
33.472912
20
294.211283
11
34.113817
21
292.090509
0
LINE
8
boundary
62
5
39
2
10
34.113817
20
292.090509
11
34.721326
21
289.963568
0
LINE
8
boundary
62
5
39
2
10
34.721326
20
289.963568
11
35.295050
21
287.830864
0
LINE
8
boundary
62
5
39
2
10
35.295050
20
287.830864
11
35.835431
21
285.692115
0
LINE
8
boundary
62
5
39
2
10
35.835431
20
285.692115
11
36.342310
21
283.547671
0
LINE
8
boundary
62
5
39
2
10
36.342310
20
283.547671
11
36.815847
21
281.397638
0
LINE
8
boundary
62
5
39
2
10
36.815847
20
281.397638
11
37.255931
21
279.242314
0
LINE
8
boundary
62
5
39
2
10
37.255931
20
279.242314
11
37.662815
21
277.081293
0
LINE
8
boundary
62
5
39
2
10
37.662815
20
277.081293
11
38.036460
21
274.915110
0
LINE
8
boundary
62
5
39
2
10
38.036460
20
274.915110
11
38.376922
21
272.743736
0
LINE
8
boundary
62
5
39
2
10
38.376922
20
272.743736
11
38.684257
21
270.567138
0
LINE
8
boundary
62
5
39
2
10
38.684257
20
270.567138
11
38.958626
21
268.385710
0
LINE
8
boundary
62
5
39
2
10
38.958626
20
268.385710
11
39.200072
21
266.199415
0
LINE
8
boundary
62
5
39
2
10
39.200072
20
266.199415
11
39.408662
21
264.008024
0
LINE
8
boundary
62
5
39
2
10
39.408662
20
264.008024
11
39.584335
21
261.812058
0
LINE
8
boundary
62
5
39
2
10
39.584335
20
261.812058
11
39.727484
21
259.611353
0
LINE
8
boundary
62
5
39
2
10
39.727484
20
259.611353
11
39.837979
21
257.406002
0
LINE
8
boundary
62
5
39
2
10
39.837979
20
257.406002
11
39.915933
21
255.196024
0
LINE
8
boundary
62
5
39
2
10
39.915933
20
255.196024
11
39.961703
21
252.981784
0
LINE
8
boundary
62
5
39
2
10
39.961703
20
252.981784
11
39.975171
21
250.762945
0
LINE
8
boundary
62
5
39
2
10
39.975171
20
250.762945
11
39.956520
21
248.539826
0
LINE
8
boundary
62
5
39
2
10
39.956520
20
248.539826
11
39.905886
21
246.312460
0
LINE
8
boundary
62
5
39
2
10
39.905886
20
246.312460
11
39.823587
21
244.080790
0
LINE
8
boundary
62
5
39
2
10
39.823587
20
244.080790
11
39.709557
21
241.844806
0
LINE
8
boundary
62
5
39
2
10
39.709557
20
241.844806
11
39.564269
21
239.604937
0
LINE
8
boundary
62
5
39
2
10
39.564269
20
239.604937
11
39.387629
21
237.360946
0
LINE
8
boundary
62
5
39
2
10
39.387629
20
237.360946
11
39.180062
21
235.112916
0
LINE
8
boundary
62
5
39
2
10
39.180062
20
235.112916
11
38.941747
21
232.861091
0
LINE
8
boundary
62
5
39
2
10
38.941747
20
232.861091
11
38.672874
21
230.605417
0
LINE
8
boundary
62
5
39
2
10
38.672874
20
230.605417
11
38.373710
21
228.345803
0
LINE
8
boundary
62
5
39
2
10
38.373710
20
228.345803
11
38.044683
21
226.082596
0
LINE
8
boundary
62
5
39
2
10
38.044683
20
226.082596
11
37.685950
21
223.815568
0
LINE
8
boundary
62
5
39
2
10
37.685950
20
223.815568
11
37.297923
21
221.545131
0
LINE
8
boundary
62
5
39
2
10
37.297923
20
221.545131
11
36.880882
21
219.271054
0
LINE
8
boundary
62
5
39
2
10
36.880882
20
219.271054
11
36.435146
21
216.993650
0
LINE
8
boundary
62
5
39
2
10
36.435146
20
216.993650
11
35.961214
21
214.712902
0
LINE
8
boundary
62
5
39
2
10
35.961214
20
214.712902
11
35.459478
21
212.428862
0
LINE
8
boundary
62
5
39
2
10
35.459478
20
212.428862
11
34.930347
21
210.141814
0
LINE
8
boundary
62
5
39
2
10
34.930347
20
210.141814
11
34.374210
21
207.851692
0
LINE
8
boundary
62
5
39
2
10
34.374210
20
207.851692
11
33.791657
21
205.558713
0
LINE
8
boundary
62
5
39
2
10
33.791657
20
205.558713
11
33.183148
21
203.262866
0
LINE
8
boundary
62
5
39
2
10
33.183148
20
203.262866
11
32.549202
21
200.964436
0
LINE
8
boundary
62
5
39
2
10
32.549202
20
200.964436
11
31.890347
21
198.663522
0
LINE
8
boundary
62
5
39
2
10
31.890347
20
198.663522
11
31.207190
21
196.360311
0
LINE
8
boundary
62
5
39
2
10
31.207190
20
196.360311
11
30.500325
21
194.054971
0
LINE
8
boundary
62
5
39
2
10
30.500325
20
194.054971
11
29.770343
21
191.747504
0
LINE
8
boundary
62
5
39
2
10
29.770343
20
191.747504
11
29.017917
21
189.438362
0
LINE
8
boundary
62
5
39
2
10
29.017917
20
189.438362
11
28.243821
21
187.127528
0
LINE
8
boundary
62
5
39
2
10
28.243821
20
187.127528
11
27.448602
21
184.815527
0
LINE
8
boundary
62
5
39
2
10
27.448602
20
184.815527
11
26.632948
21
182.502212
0
LINE
8
boundary
62
5
39
2
10
26.632948
20
182.502212
11
25.797777
21
180.188100
0
LINE
8
boundary
62
5
39
2
10
25.797777
20
180.188100
11
24.943735
21
177.873468
0
LINE
8
boundary
62
5
39
2
10
24.943735
20
177.873468
11
24.071559
21
175.558491
0
LINE
8
boundary
62
5
39
2
10
24.071559
20
175.558491
11
23.182129
21
173.243425
0
LINE
8
boundary
62
5
39
2
10
23.182129
20
173.243425
11
22.276379
21
170.928720
0
LINE
8
boundary
62
5
39
2
10
22.276379
20
170.928720
11
21.355082
21
168.614690
0
LINE
8
boundary
62
5
39
2
10
21.355082
20
168.614690
11
20.418967
21
166.301667
0
LINE
8
boundary
62
5
39
2
10
20.418967
20
166.301667
11
20.159087
21
165.676843
0
LINE
8
boundary
62
5
39
2
10
20.159087
20
165.676843
11
18.506271
21
161.680001
0
LINE
8
boundary
62
5
39
2
10
18.506271
20
161.680001
11
18.216917
21
161.002226
0
LINE
8
boundary
62
5
39
2
10
18.216917
20
161.002226
11
16.545498
21
157.067319
0
LINE
8
boundary
62
5
39
2
10
16.545498
20
157.067319
11
16.224388
21
156.331877
0
LINE
8
boundary
62
5
39
2
10
16.224388
20
156.331877
11
14.544359
21
152.466905
0
LINE
8
boundary
62
5
39
2
10
14.544359
20
152.466905
11
14.350771
21
151.660124
0
LINE
8
boundary
62
5
39
2
10
14.350771
20
151.660124
11
13.411782
21
147.737488
0
LINE
8
boundary
62
5
39
2
10
13.411782
20
147.737488
11
13.204455
21
146.844090
0
LINE
8
boundary
62
5
39
2
10
13.204455
20
146.844090
11
12.275168
21
142.833366
0
LINE
8
boundary
62
5
39
2
10
12.275168
20
142.833366
11
11.714445
21
140.319461
0
LINE
8
boundary
62
5
39
2
10
11.714445
20
140.319461
11
11.605796
21
139.815714
0
LINE
8
boundary
62
5
39
2
10
11.605796
20
139.815714
11
11.163892
21
137.766230
0
LINE
8
boundary
62
5
39
2
10
11.163892
20
137.766230
11
11.054558
21
137.238168
0
LINE
8
boundary
62
5
39
2
10
11.054558
20
137.238168
11
10.627276
21
135.175232
0
LINE
8
boundary
62
5
39
2
10
10.627276
20
135.175232
11
10.518175
21
134.622366
0
LINE
8
boundary
62
5
39
2
10
10.518175
20
134.622366
11
10.108447
21
132.548227
0
LINE
8
boundary
62
5
39
2
10
10.108447
20
132.548227
11
10.000579
21
131.970145
0
LINE
8
boundary
62
5
39
2
10
10.000579
20
131.970145
11
9.611135
21
129.886809
0
LINE
8
boundary
62
5
39
2
10
9.611135
20
129.886809
11
9.505621
21
129.283205
0
LINE
8
boundary
62
5
39
2
10
9.505621
20
129.283205
11
9.139249
21
127.192828
0
LINE
8
boundary
62
5
39
2
10
9.139249
20
127.192828
11
9.037313
21
126.563583
0
LINE
8
boundary
62
5
39
2
10
9.037313
20
126.563583
11
8.696624
21
124.468176
0
LINE
8
boundary
62
5
39
2
10
8.696624
20
124.468176
11
8.599639
21
123.813314
0
LINE
8
boundary
62
5
39
2
10
8.599639
20
123.813314
11
8.287307
21
121.714669
0
LINE
8
boundary
62
5
39
2
10
8.287307
20
121.714669
11
8.196657
21
121.034442
0
LINE
8
boundary
62
5
39
2
10
8.196657
20
121.034442
11
7.914998
21
118.934378
0
LINE
8
boundary
62
5
39
2
10
7.914998
20
118.934378
11
7.832212
21
118.229243
0
LINE
8
boundary
62
5
39
2
10
7.832212
20
118.229243
11
7.583637
21
116.129426
0
LINE
8
boundary
62
5
39
2
10
7.583637
20
116.129426
11
7.510380
21
115.400137
0
LINE
8
boundary
62
5
39
2
10
7.510380
20
115.400137
11
7.297300
21
113.301942
0
LINE
8
boundary
62
5
39
2
10
7.297300
20
113.301942
11
7.235185
21
112.549437
0
LINE
8
boundary
62
5
39
2
10
7.235185
20
112.549437
11
7.059619
21
110.454338
0
LINE
8
boundary
62
5
39
2
10
7.059619
20
110.454338
11
7.010378
21
109.679899
0
LINE
8
boundary
62
5
39
2
10
7.010378
20
109.679899
11
6.874609
21
107.588897
0
LINE
8
boundary
62
5
39
2
10
6.874609
20
107.588897
11
6.840004
21
106.794090
0
LINE
8
boundary
62
5
39
2
10
6.840004
20
106.794090
11
6.746072
21
104.708045
0
LINE
8
boundary
62
5
39
2
10
6.746072
20
104.708045
11
6.727840
21
103.894758
0
LINE
8
boundary
62
5
39
2
10
6.727840
20
103.894758
11
6.677782
21
101.814508
0
LINE
8
boundary
62
5
39
2
10
6.677782
20
101.814508
11
6.667500
21
100.363803
0
LINE
8
boundary
62
5
39
2
10
6.667500
20
100.363803
11
6.673606
21
98.910907
0
LINE
8
boundary
62
5
39
2
10
6.673606
20
98.910907
11
6.696819
21
97.456203
0
LINE
8
boundary
62
5
39
2
10
6.696819
20
97.456203
11
6.737357
21
96.000089
0
LINE
8
boundary
62
5
39
2
10
6.737357
20
96.000089
11
6.795755
21
94.542943
0
LINE
8
boundary
62
5
39
2
10
6.795755
20
94.542943
11
6.872513
21
93.085049
0
LINE
8
boundary
62
5
39
2
10
6.872513
20
93.085049
11
6.968216
21
91.626838
0
LINE
8
boundary
62
5
39
2
10
6.968216
20
91.626838
11
7.083119
21
90.168714
0
LINE
8
boundary
62
5
39
2
10
7.083119
20
90.168714
11
7.217634
21
88.711148
0
LINE
8
boundary
62
5
39
2
10
7.217634
20
88.711148
11
7.372222
21
87.254345
0
LINE
8
boundary
62
5
39
2
10
7.372222
20
87.254345
11
7.547478
21
85.798904
0
LINE
8
boundary
62
5
39
2
10
7.547478
20
85.798904
11
7.743784
21
84.345285
0
LINE
8
boundary
62
5
39
2
10
7.743784
20
84.345285
11
7.961456
21
82.893789
0
LINE
8
boundary
62
5
39
2
10
7.961456
20
82.893789
11
8.201061
21
81.444883
0
LINE
8
boundary
62
5
39
2
10
8.201061
20
81.444883
11
8.462914
21
79.999078
0
LINE
8
boundary
62
5
39
2
10
8.462914
20
79.999078
11
8.747341
21
78.556759
0
LINE
8
boundary
62
5
39
2
10
8.747341
20
78.556759
11
9.055107
21
77.118476
0
LINE
8
boundary
62
5
39
2
10
9.055107
20
77.118476
11
9.386238
21
75.684625
0
LINE
8
boundary
62
5
39
2
10
9.386238
20
75.684625
11
9.741241
21
74.255757
0
LINE
8
boundary
62
5
39
2
10
9.741241
20
74.255757
11
10.120568
21
72.832360
0
LINE
8
boundary
62
5
39
2
10
10.120568
20
72.832360
11
10.524488
21
71.414822
0
LINE
8
boundary
62
5
39
2
10
10.524488
20
71.414822
11
10.953622
21
70.003820
0
LINE
8
boundary
62
5
39
2
10
10.953622
20
70.003820
11
11.408133
21
68.599758
0
LINE
8
boundary
62
5
39
2
10
11.408133
20
68.599758
11
11.888291
21
67.203214
0
LINE
8
boundary
62
5
39
2
10
11.888291
20
67.203214
11
12.394679
21
65.814712
0
LINE
8
boundary
62
5
39
2
10
12.394679
20
65.814712
11
12.927563
21
64.434760
0
LINE
8
boundary
62
5
39
2
10
12.927563
20
64.434760
11
13.243656
21
63.290891
0
LINE
8
boundary
62
5
39
2
10
13.243656
20
63.290891
11
14.058605
21
60.301969
0
LINE
8
boundary
62
5
39
2
10
14.058605
20
60.301969
11
14.386783
21
59.116131
0
LINE
8
boundary
62
5
39
2
10
14.386783
20
59.116131
11
15.251271
21
55.948273
0
LINE
8
boundary
62
5
39
2
10
15.251271
20
55.948273
11
15.424676
21
55.340075
0
LINE
8
boundary
62
5
39
2
10
15.424676
20
55.340075
11
15.884178
21
53.705436
0
LINE
8
boundary
62
5
39
2
10
15.884178
20
53.705436
11
16.064494
21
53.093736
0
LINE
8
boundary
62
5
39
2
10
16.064494
20
53.093736
11
16.548661
21
51.427912
0
LINE
8
boundary
62
5
39
2
10
16.548661
20
51.427912
11
16.736912
21
50.815264
0
LINE
8
boundary
62
5
39
2
10
16.736912
20
50.815264
11
17.249739
21
49.122879
0
LINE
8
boundary
62
5
39
2
10
17.249739
20
49.122879
11
17.446933
21
48.511949
0
LINE
8
boundary
62
5
39
2
10
17.446933
20
48.511949
11
17.992759
21
46.797673
0
LINE
8
boundary
62
5
39
2
10
17.992759
20
46.797673
11
18.199739
21
46.191123
0
LINE
8
boundary
62
5
39
2
10
18.199739
20
46.191123
11
18.782743
21
44.459864
0
LINE
8
boundary
62
5
39
2
10
18.782743
20
44.459864
11
19.000253
21
43.860417
0
LINE
8
boundary
62
5
39
2
10
19.000253
20
43.860417
11
19.624678
21
42.117186
0
LINE
8
boundary
62
5
39
2
10
19.624678
20
42.117186
11
19.853317
21
41.527551
0
LINE
8
boundary
62
5
39
2
10
19.853317
20
41.527551
11
20.523522
21
39.777599
0
LINE
8
boundary
62
5
39
2
10
20.523522
20
39.777599
11
20.995818
21
38.611471
0
LINE
8
boundary
62
5
39
2
10
20.995818
20
38.611471
11
21.484188
21
37.449184
0
LINE
8
boundary
62
5
39
2
10
21.484188
20
37.449184
11
21.989171
21
36.291763
0
LINE
8
boundary
62
5
39
2
10
21.989171
20
36.291763
11
22.511244
21
35.140288
0
LINE
8
boundary
62
5
39
2
10
22.511244
20
35.140288
11
23.051210
21
33.995770
0
LINE
8
boundary
62
5
39
2
10
23.051210
20
33.995770
11
23.609509
21
32.859385
0
LINE
8
boundary
62
5
39
2
10
23.609509
20
32.859385
11
24.186760
21
31.732102
0
LINE
8
boundary
62
5
39
2
10
24.186760
20
31.732102
11
24.783501
21
30.615163
0
LINE
8
boundary
62
5
39
2
10
24.783501
20
30.615163
11
25.400162
21
29.509487
0
LINE
8
boundary
62
5
39
2
10
25.400162
20
29.509487
11
26.037500
21
28.416277
0
LINE
8
boundary
62
5
39
2
10
26.037500
20
28.416277
11
26.695976
21
27.336761
0
LINE
8
boundary
62
5
39
2
10
26.695976
20
27.336761
11
26.848921
21
27.098863
0
LINE
8
annotation
62
1
39
211
10
43.871600
20
313.161808
11
43.871600
21
317.961808
0
LINE
8
annotation
62
1
39
211
10
43.871600
20
317.961808
11
42.804499
21
316.894405
0
LINE
8
annotation
62
1
39
211
10
49.657938
20
396.471981
11
47.613858
21
396.471981
0
LINE
8
annotation
62
1
39
211
10
47.613858
20
396.471981
11
49.502655
21
399.512700
0
LINE
8
annotation
62
1
39
211
10
49.502655
20
399.512700
11
49.502655
21
399.512700
0
LINE
8
annotation
62
1
39
211
10
49.502655
20
399.512700
11
49.504913
21
399.515494
0
LINE
8
annotation
62
1
39
211
10
49.504913
20
399.515494
11
49.507078
21
399.518312
0
LINE
8
annotation
62
1
39
211
10
49.507078
20
399.518312
11
49.509165
21
399.521177
0
LINE
8
annotation
62
1
39
211
10
49.509165
20
399.521177
11
49.511188
21
399.524114
0
LINE
8
annotation
62
1
39
211
10
49.511188
20
399.524114
11
49.513160
21
399.527145
0
LINE
8
annotation
62
1
39
211
10
49.513160
20
399.527145
11
49.515098
21
399.530296
0
LINE
8
annotation
62
1
39
211
10
49.515098
20
399.530296
11
49.517014
21
399.533589
0
LINE
8
annotation
62
1
39
211
10
49.517014
20
399.533589
11
49.518922
21
399.537048
0
LINE
8
annotation
62
1
39
211
10
49.518922
20
399.537048
11
49.520838
21
399.540697
0
LINE
8
annotation
62
1
39
211
10
49.520838
20
399.540697
11
49.520838
21
399.540697
0
LINE
8
annotation
62
1
39
211
10
49.520838
20
399.540697
11
49.598826
21
399.708144
0
LINE
8
annotation
62
1
39
211
10
49.598826
20
399.708144
11
49.644385
21
399.881717
0
LINE
8
annotation
62
1
39
211
10
49.644385
20
399.881717
11
49.658632
21
400.057495
0
LINE
8
annotation
62
1
39
211
10
49.658632
20
400.057495
11
49.642684
21
400.231555
0
LINE
8
annotation
62
1
39
211
10
49.642684
20
400.231555
11
49.597656
21
400.399976
0
LINE
8
annotation
62
1
39
211
10
49.597656
20
400.399976
11
49.524665
21
400.558835
0
LINE
8
annotation
62
1
39
211
10
49.524665
20
400.558835
11
49.424829
21
400.704210
0
LINE
8
annotation
62
1
39
211
10
49.424829
20
400.704210
11
49.299262
21
400.832180
0
LINE
8
annotation
62
1
39
211
10
49.299262
20
400.832180
11
49.149083
21
400.938822
0
LINE
8
annotation
62
1
39
211
10
49.149083
20
400.938822
11
49.149083
21
400.938822
0
LINE
8
annotation
62
1
39
211
10
49.149083
20
400.938822
11
48.981170
21
401.015702
0
LINE
8
annotation
62
1
39
211
10
48.981170
20
401.015702
11
48.807331
21
401.060559
0
LINE
8
annotation
62
1
39
211
10
48.807331
20
401.060559
11
48.631451
21
401.074403
0
LINE
8
annotation
62
1
39
211
10
48.631451
20
401.074403
11
48.457417
21
401.058244
0
LINE
8
annotation
62
1
39
211
10
48.457417
20
401.058244
11
48.289115
21
401.013092
0
LINE
8
annotation
62
1
39
211
10
48.289115
20
401.013092
11
48.130432
21
400.939955
0
LINE
8
annotation
62
1
39
211
10
48.130432
20
400.939955
11
47.985253
21
400.839844
0
LINE
8
annotation
62
1
39
211
10
47.985253
20
400.839844
11
47.857467
21
400.713768
0
LINE
8
annotation
62
1
39
211
10
47.857467
20
400.713768
11
47.750958
21
400.562737
0
LINE
8
annotation
62
1
39
211
10
47.750958
20
400.562737
11
47.616745
21
400.305279
0
LINE
8
annotation
62
1
39
211
10
48.644040
20
258.629638
11
46.228389
21
255.135620
0
LINE
8
annotation
62
1
39
211
10
46.228389
20
255.135620
11
43.812283
21
258.629638
0
LINE
8
annotation
62
1
39
211
10
46.228389
20
255.416795
11
46.228389
21
251.385864
0
LINE
8
annotation
62
1
39
211
10
55.321717
20
255.007751
11
51.361194
21
255.007751
0
LINE
8
annotation
62
1
39
211
10
59.647791
20
251.386091
11
59.647791
21
258.629411
0
LINE
8
annotation
62
1
39
211
10
59.647791
20
258.629411
11
58.037508
21
257.018674
0
LINE
8
frame
62
5
39
2
10
0.000000
20
0.000000
11
215.900000
21
0.000000
0
LINE
8
frame
62
5
39
2
10
215.900000
20
0.000000
11
215.900000
21
279.400000
0
LINE
8
frame
62
5
39
2
10
215.900000
20
279.400000
11
0.000000
21
279.400000
0
LINE
8
frame
62
5
39
2
10
0.000000
20
279.400000
11
0.000000
21
0.000000
0
ENDSEC
0
EOF
