0
SECTION
2
HEADER
9
$ACADVER
1
AC1009
0
ENDSEC
0
SECTION
2
TABLES
0
TABLE
2
VPORT
70
1
0
VPORT
2
ACTIVE
70
0
10
0.0
20
0.0
11
0.0
21
0.0
12
0.0
22
0.0
13
0.0
23
0.0
14
0.0
24
0.0
15
0.0
25
0.0
16
0.0
26
0.0
36
0.0
17
0.0
27
0.0
37
0.0
40
0.0
41
0.0
42
0.0
43
0.0
44
0.0
50
0.0
51
0.0
71
0
72
1000
73
1
74
3
75
0
76
0
77
0
78
0
0
ENDTAB
0
ENDSEC
0
SECTION
2
ENTITIES
0
LINE
8
boundary
62
5
39
2
10
29.708825
20
23.050980
11
30.305107
21
22.288800
0
LINE
8
boundary
62
5
39
2
10
30.305107
20
22.288800
11
31.110454
21
21.314126
0
LINE
8
boundary
62
5
39
2
10
31.110454
20
21.314126
11
31.941117
21
20.360951
0
LINE
8
boundary
62
5
39
2
10
31.941117
20
20.360951
11
32.797421
21
19.430377
0
LINE
8
boundary
62
5
39
2
10
32.797421
20
19.430377
11
33.680221
21
18.523700
0
LINE
8
boundary
62
5
39
2
10
33.680221
20
18.523700
11
34.589740
21
17.641984
0
LINE
8
boundary
62
5
39
2
10
34.589740
20
17.641984
11
35.526458
21
16.786314
0
LINE
8
boundary
62
5
39
2
10
35.526458
20
16.786314
11
36.491038
21
15.957874
0
LINE
8
boundary
62
5
39
2
10
36.491038
20
15.957874
11
37.483984
21
15.157769
0
LINE
8
boundary
62
5
39
2
10
37.483984
20
15.157769
11
38.505610
21
14.387101
0
LINE
8
boundary
62
5
39
2
10
38.505610
20
14.387101
11
39.556509
21
13.646997
0
LINE
8
boundary
62
5
39
2
10
39.556509
20
13.646997
11
40.637229
21
12.938523
0
LINE
8
boundary
62
5
39
2
10
40.637229
20
12.938523
11
41.748098
21
12.262676
0
LINE
8
boundary
62
5
39
2
10
41.748098
20
12.262676
11
42.889686
21
11.620519
0
LINE
8
boundary
62
5
39
2
10
42.889686
20
11.620519
11
44.062464
21
11.013095
0
LINE
8
boundary
62
5
39
2
10
44.062464
20
11.013095
11
45.266867
21
10.441355
0
LINE
8
boundary
62
5
39
2
10
45.266867
20
10.441355
11
46.503430
21
9.906362
0
LINE
8
boundary
62
5
39
2
10
46.503430
20
9.906362
11
47.772651
21
9.408946
0
LINE
8
boundary
62
5
39
2
10
47.772651
20
9.408946
11
49.074919
21
8.950000
0
LINE
8
boundary
62
5
39
2
10
49.074919
20
8.950000
11
50.410826
21
8.530430
0
LINE
8
boundary
62
5
39
2
10
50.410826
20
8.530430
11
51.780706
21
8.150945
0
LINE
8
boundary
62
5
39
2
10
51.780706
20
8.150945
11
53.185128
21
7.812377
0
LINE
8
boundary
62
5
39
2
10
53.185128
20
7.812377
11
54.624520
21
7.515444
0
LINE
8
boundary
62
5
39
2
10
54.624520
20
7.515444
11
56.099484
21
7.260751
0
LINE
8
boundary
62
5
39
2
10
56.099484
20
7.260751
11
57.610300
21
7.048963
0
LINE
8
boundary
62
5
39
2
10
57.610300
20
7.048963
11
59.157707
21
6.880594
0
LINE
8
boundary
62
5
39
2
10
59.157707
20
6.880594
11
60.741983
21
6.756020
0
LINE
8
boundary
62
5
39
2
10
60.741983
20
6.756020
11
61.280796
21
6.669656
0
LINE
8
boundary
62
5
39
2
10
61.280796
20
6.669656
11
61.943732
21
6.701933
0
LINE
8
boundary
62
5
39
2
10
61.943732
20
6.701933
11
62.531007
21
6.807344
0
LINE
8
boundary
62
5
39
2
10
62.531007
20
6.807344
11
63.076529
21
6.947138
0
LINE
8
boundary
62
5
39
2
10
63.076529
20
6.947138
11
63.654794
21
7.132823
0
LINE
8
boundary
62
5
39
2
10
63.654794
20
7.132823
11
64.161415
21
7.320735
0
LINE
8
boundary
62
5
39
2
10
64.161415
20
7.320735
11
64.785189
21
7.586291
0
LINE
8
boundary
62
5
39
2
10
64.785189
20
7.586291
11
65.424588
21
7.892387
0
LINE
8
boundary
62
5
39
2
10
65.424588
20
7.892387
11
66.073538
21
8.237107
0
LINE
8
boundary
62
5
39
2
10
66.073538
20
8.237107
11
66.726062
21
8.618686
0
LINE
8
boundary
62
5
39
2
10
66.726062
20
8.618686
11
67.376335
21
9.035274
0
LINE
8
boundary
62
5
39
2
10
67.376335
20
9.035274
11
68.018121
21
9.485053
0
LINE
8
boundary
62
5
39
2
10
68.018121
20
9.485053
11
68.645561
21
9.966235
0
LINE
8
boundary
62
5
39
2
10
68.645561
20
9.966235
11
69.252814
21
10.477213
0
LINE
8
boundary
62
5
39
2
10
69.252814
20
10.477213
11
69.833705
21
11.016208
0
LINE
8
boundary
62
5
39
2
10
69.833705
20
11.016208
11
70.382394
21
11.581717
0
LINE
8
boundary
62
5
39
2
10
70.382394
20
11.581717
11
70.892886
21
12.172119
0
LINE
8
boundary
62
5
39
2
10
70.892886
20
12.172119
11
71.359175
21
12.785815
0
LINE
8
boundary
62
5
39
2
10
71.359175
20
12.785815
11
71.775235
21
13.421491
0
LINE
8
boundary
62
5
39
2
10
71.775235
20
13.421491
11
72.135242
21
14.077674
0
LINE
8
boundary
62
5
39
2
10
72.135242
20
14.077674
11
72.432884
21
14.752880
0
LINE
8
boundary
62
5
39
2
10
72.432884
20
14.752880
11
72.662168
21
15.445856
0
LINE
8
boundary
62
5
39
2
10
72.662168
20
15.445856
11
72.816930
21
16.155244
0
LINE
8
boundary
62
5
39
2
10
72.816930
20
16.155244
11
72.891088
21
16.879800
0
LINE
8
boundary
62
5
39
2
10
72.891088
20
16.879800
11
72.878328
21
17.618262
0
LINE
8
boundary
62
5
39
2
10
72.878328
20
17.618262
11
72.772245
21
18.369323
0
LINE
8
boundary
62
5
39
2
10
72.772245
20
18.369323
11
72.566595
21
19.131772
0
LINE
8
boundary
62
5
39
2
10
72.566595
20
19.131772
11
72.254778
21
19.904383
0
LINE
8
boundary
62
5
39
2
10
72.254778
20
19.904383
11
72.018916
21
20.358263
0
LINE
8
boundary
62
5
39
2
10
72.018916
20
20.358263
11
71.573529
21
21.079643
0
LINE
8
boundary
62
5
39
2
10
71.573529
20
21.079643
11
71.232395
21
21.540951
0
LINE
8
boundary
62
5
39
2
10
71.232395
20
21.540951
11
70.907769
21
21.938536
0
LINE
8
boundary
62
5
39
2
10
70.907769
20
21.938536
11
70.482015
21
22.279625
0
LINE
8
boundary
62
5
39
2
10
70.482015
20
22.279625
11
69.820434
21
22.322024
0
LINE
8
boundary
62
5
39
2
10
69.820434
20
22.322024
11
69.019297
21
22.399871
0
LINE
8
boundary
62
5
39
2
10
69.019297
20
22.399871
11
68.212643
21
22.504186
0
LINE
8
boundary
62
5
39
2
10
68.212643
20
22.504186
11
67.401062
21
22.634999
0
LINE
8
boundary
62
5
39
2
10
67.401062
20
22.634999
11
66.584875
21
22.792407
0
LINE
8
boundary
62
5
39
2
10
66.584875
20
22.792407
11
65.764411
21
22.976318
0
LINE
8
boundary
62
5
39
2
10
65.764411
20
22.976318
11
64.940142
21
23.186758
0
LINE
8
boundary
62
5
39
2
10
64.940142
20
23.186758
11
64.112388
21
23.423772
0
LINE
8
boundary
62
5
39
2
10
64.112388
20
23.423772
11
63.281403
21
23.687349
0
LINE
8
boundary
62
5
39
2
10
63.281403
20
23.687349
11
62.447855
21
23.977486
0
LINE
8
boundary
62
5
39
2
10
62.447855
20
23.977486
11
61.611890
21
24.294136
0
LINE
8
boundary
62
5
39
2
10
61.611890
20
24.294136
11
60.774100
21
24.637405
0
LINE
8
boundary
62
5
39
2
10
60.774100
20
24.637405
11
59.934717
21
25.007175
0
LINE
8
boundary
62
5
39
2
10
59.934717
20
25.007175
11
59.094245
21
25.403498
0
LINE
8
boundary
62
5
39
2
10
59.094245
20
25.403498
11
58.253042
21
25.826309
0
LINE
8
boundary
62
5
39
2
10
58.253042
20
25.826309
11
57.411609
21
26.275579
0
LINE
8
boundary
62
5
39
2
10
57.411609
20
26.275579
11
56.570319
21
26.751358
0
LINE
8
boundary
62
5
39
2
10
56.570319
20
26.751358
11
55.729714
21
27.253569
0
LINE
8
boundary
62
5
39
2
10
55.729714
20
27.253569
11
54.890042
21
27.782112
0
LINE
8
boundary
62
5
39
2
10
54.890042
20
27.782112
11
54.051844
21
28.337013
0
LINE
8
boundary
62
5
39
2
10
54.051844
20
28.337013
11
53.215645
21
28.918209
0
LINE
8
boundary
62
5
39
2
10
53.215645
20
28.918209
11
52.381842
21
29.525604
0
LINE
8
boundary
62
5
39
2
10
52.381842
20
29.525604
11
51.550760
21
30.159119
0
LINE
8
boundary
62
5
39
2
10
51.550760
20
30.159119
11
50.723073
21
30.818703
0
LINE
8
boundary
62
5
39
2
10
50.723073
20
30.818703
11
49.899203
21
31.504327
0
LINE
8
boundary
62
5
39
2
10
49.899203
20
31.504327
11
49.079583
21
32.215778
0
LINE
8
boundary
62
5
39
2
10
49.079583
20
32.215778
11
48.264770
21
32.953029
0
LINE
8
boundary
62
5
39
2
10
48.264770
20
32.953029
11
47.455135
21
33.715941
0
LINE
8
boundary
62
5
39
2
10
47.455135
20
33.715941
11
46.651375
21
34.504455
0
LINE
8
boundary
62
5
39
2
10
46.651375
20
34.504455
11
45.853808
21
35.318354
0
LINE
8
boundary
62
5
39
2
10
45.853808
20
35.318354
11
45.063040
21
36.157532
0
LINE
8
boundary
62
5
39
2
10
45.063040
20
36.157532
11
44.279569
21
37.021855
0
LINE
8
boundary
62
5
39
2
10
44.279569
20
37.021855
11
43.503968
21
37.911178
0
LINE
8
boundary
62
5
39
2
10
43.503968
20
37.911178
11
42.736801
21
38.825340
0
LINE
8
boundary
62
5
39
2
10
42.736801
20
38.825340
11
41.978490
21
39.764130
0
LINE
8
boundary
62
5
39
2
10
41.978490
20
39.764130
11
41.229648
21
40.727390
0
LINE
8
boundary
62
5
39
2
10
41.229648
20
40.727390
11
40.490862
21
41.714947
0
LINE
8
boundary
62
5
39
2
10
40.490862
20
41.714947
11
39.762672
21
42.726562
0
LINE
8
boundary
62
5
39
2
10
39.762672
20
42.726562
11
39.045554
21
43.762014
0
LINE
8
boundary
62
5
39
2
10
39.045554
20
43.762014
11
38.340132
21
44.821080
0
LINE
8
boundary
62
5
39
2
10
38.340132
20
44.821080
11
37.646900
21
45.903584
0
LINE
8
boundary
62
5
39
2
10
37.646900
20
45.903584
11
36.966563
21
47.009282
0
LINE
8
boundary
62
5
39
2
10
36.966563
20
47.009282
11
36.299693
21
48.137906
0
LINE
8
boundary
62
5
39
2
10
36.299693
20
48.137906
11
35.646668
21
49.289169
0
LINE
8
boundary
62
5
39
2
10
35.646668
20
49.289169
11
35.008331
21
50.462843
0
LINE
8
boundary
62
5
39
2
10
35.008331
20
50.462843
11
34.385150
21
51.658672
0
LINE
8
boundary
62
5
39
2
10
34.385150
20
51.658672
11
33.777645
21
52.876322
0
LINE
8
boundary
62
5
39
2
10
33.777645
20
52.876322
11
33.186471
21
54.115536
0
LINE
8
boundary
62
5
39
2
10
33.186471
20
54.115536
11
32.612189
21
55.376003
0
LINE
8
boundary
62
5
39
2
10
32.612189
20
55.376003
11
32.055483
21
56.657479
0
LINE
8
boundary
62
5
39
2
10
32.055483
20
56.657479
11
31.516864
21
57.959543
0
LINE
8
boundary
62
5
39
2
10
31.516864
20
57.959543
11
30.996897
21
59.281919
0
LINE
8
boundary
62
5
39
2
10
30.996897
20
59.281919
11
30.496273
21
60.624370
0
LINE
8
boundary
62
5
39
2
10
30.496273
20
60.624370
11
30.015400
21
61.986455
0
LINE
8
boundary
62
5
39
2
10
30.015400
20
61.986455
11
29.555074
21
63.367844
0
LINE
8
boundary
62
5
39
2
10
29.555074
20
63.367844
11
29.115854
21
64.768189
0
LINE
8
boundary
62
5
39
2
10
29.115854
20
64.768189
11
28.698132
21
66.187213
0
LINE
8
boundary
62
5
39
2
10
28.698132
20
66.187213
11
28.302693
21
67.624492
0
LINE
8
boundary
62
5
39
2
10
28.302693
20
67.624492
11
27.930100
21
69.079678
0
LINE
8
boundary
62
5
39
2
10
27.930100
20
69.079678
11
27.580893
21
70.552412
0
LINE
8
boundary
62
5
39
2
10
27.580893
20
70.552412
11
27.255574
21
72.042319
0
LINE
8
boundary
62
5
39
2
10
27.255574
20
72.042319
11
26.954714
21
73.548977
0
LINE
8
boundary
62
5
39
2
10
26.954714
20
73.548977
11
26.679029
21
75.072082
0
LINE
8
boundary
62
5
39
2
10
26.679029
20
75.072082
11
26.429082
21
76.611175
0
LINE
8
boundary
62
5
39
2
10
26.429082
20
76.611175
11
26.125719
21
77.807541
0
LINE
8
boundary
62
5
39
2
10
26.125719
20
77.807541
11
25.838177
21
79.004477
0
LINE
8
boundary
62
5
39
2
10
25.838177
20
79.004477
11
25.566051
21
80.201921
0
LINE
8
boundary
62
5
39
2
10
25.566051
20
80.201921
11
25.309511
21
81.399697
0
LINE
8
boundary
62
5
39
2
10
25.309511
20
81.399697
11
25.068179
21
82.597737
0
LINE
8
boundary
62
5
39
2
10
25.068179
20
82.597737
11
24.842000
21
83.795914
0
LINE
8
boundary
62
5
39
2
10
24.842000
20
83.795914
11
24.434572
21
86.192333
0
LINE
8
boundary
62
5
39
2
10
24.434572
20
86.192333
11
24.085895
21
88.588207
0
LINE
8
boundary
62
5
39
2
10
24.085895
20
88.588207
11
23.794952
21
90.982632
0
LINE
8
boundary
62
5
39
2
10
23.794952
20
90.982632
11
23.560354
21
93.374925
0
LINE
8
boundary
62
5
39
2
10
23.560354
20
93.374925
11
23.380767
21
95.764518
0
LINE
8
boundary
62
5
39
2
10
23.380767
20
95.764518
11
23.255103
21
98.150648
0
LINE
8
boundary
62
5
39
2
10
23.255103
20
98.150648
11
23.181923
21
100.532646
0
LINE
8
boundary
62
5
39
2
10
23.181923
20
100.532646
11
23.159816
21
102.909990
0
LINE
8
boundary
62
5
39
2
10
23.159816
20
102.909990
11
23.187428
21
105.281979
0
LINE
8
boundary
62
5
39
2
10
23.187428
20
105.281979
11
23.263321
21
107.648183
0
LINE
8
boundary
62
5
39
2
10
23.263321
20
107.648183
11
23.386105
21
110.008062
0
LINE
8
boundary
62
5
39
2
10
23.386105
20
110.008062
11
23.554411
21
112.361045
0
LINE
8
boundary
62
5
39
2
10
23.554411
20
112.361045
11
23.766812
21
114.706773
0
LINE
8
boundary
62
5
39
2
10
23.766812
20
114.706773
11
24.021708
21
117.044739
0
LINE
8
boundary
62
5
39
2
10
24.021708
20
117.044739
11
24.317629
21
119.374538
0
LINE
8
boundary
62
5
39
2
10
24.317629
20
119.374538
11
24.653173
21
121.695733
0
LINE
8
boundary
62
5
39
2
10
24.653173
20
121.695733
11
25.026825
21
124.008068
0
LINE
8
boundary
62
5
39
2
10
25.026825
20
124.008068
11
25.437079
21
126.311083
0
LINE
8
boundary
62
5
39
2
10
25.437079
20
126.311083
11
25.882336
21
128.604489
0
LINE
8
boundary
62
5
39
2
10
25.882336
20
128.604489
11
26.361134
21
130.888027
0
LINE
8
boundary
62
5
39
2
10
26.361134
20
130.888027
11
26.871925
21
133.161323
0
LINE
8
boundary
62
5
39
2
10
26.871925
20
133.161323
11
27.413345
21
135.424170
0
LINE
8
boundary
62
5
39
2
10
27.413345
20
135.424170
11
27.983673
21
137.676362
0
LINE
8
boundary
62
5
39
2
10
27.983673
20
137.676362
11
28.581472
21
139.917598
0
LINE
8
boundary
62
5
39
2
10
28.581472
20
139.917598
11
29.205157
21
142.147656
0
LINE
8
boundary
62
5
39
2
10
29.205157
20
142.147656
11
29.853175
21
144.366476
0
LINE
8
boundary
62
5
39
2
10
29.853175
20
144.366476
11
30.524208
21
146.573749
0
LINE
8
boundary
62
5
39
2
10
30.524208
20
146.573749
11
31.216459
21
148.769383
0
LINE
8
boundary
62
5
39
2
10
31.216459
20
148.769383
11
31.928606
21
150.953163
0
LINE
8
boundary
62
5
39
2
10
31.928606
20
150.953163
11
32.658929
21
153.125138
0
LINE
8
boundary
62
5
39
2
10
32.658929
20
153.125138
11
33.406202
21
155.285081
0
LINE
8
boundary
62
5
39
2
10
33.406202
20
155.285081
11
34.168643
21
157.432926
0
LINE
8
boundary
62
5
39
2
10
34.168643
20
157.432926
11
34.945058
21
159.568637
0
LINE
8
boundary
62
5
39
2
10
34.945058
20
159.568637
11
35.733792
21
161.692050
0
LINE
8
boundary
62
5
39
2
10
35.733792
20
161.692050
11
36.533253
21
163.803253
0
LINE
8
boundary
62
5
39
2
10
36.533253
20
163.803253
11
38.159201
21
167.988751
0
LINE
8
boundary
62
5
39
2
10
38.159201
20
167.988751
11
39.811337
21
172.124927
0
LINE
8
boundary
62
5
39
2
10
39.811337
20
172.124927
11
41.478406
21
176.212059
0
LINE
8
boundary
62
5
39
2
10
41.478406
20
176.212059
11
43.149388
21
180.250525
0
LINE
8
boundary
62
5
39
2
10
43.149388
20
180.250525
11
44.813567
21
184.240637
0
LINE
8
boundary
62
5
39
2
10
44.813567
20
184.240637
11
45.141510
21
185.017458
0
LINE
8
boundary
62
5
39
2
10
45.141510
20
185.017458
11
48.079931
21
192.079222
0
LINE
8
boundary
62
5
39
2
10
48.079931
20
192.079222
11
48.383822
21
192.813725
0
LINE
8
boundary
62
5
39
2
10
48.383822
20
192.813725
11
51.198148
21
199.735266
0
LINE
8
boundary
62
5
39
2
10
51.198148
20
199.735266
11
52.678388
21
203.497744
0
LINE
8
boundary
62
5
39
2
10
52.678388
20
203.497744
11
54.094204
21
207.218241
0
LINE
8
boundary
62
5
39
2
10
54.094204
20
207.218241
11
55.437439
21
210.898119
0
LINE
8
boundary
62
5
39
2
10
55.437439
20
210.898119
11
56.079217
21
212.723319
0
LINE
8
boundary
62
5
39
2
10
56.079217
20
212.723319
11
56.699867
21
214.538927
0
LINE
8
boundary
62
5
39
2
10
56.699867
20
214.538927
11
57.666128
21
217.485982
0
LINE
8
boundary
62
5
39
2
10
57.666128
20
217.485982
11
58.603642
21
220.518346
0
LINE
8
boundary
62
5
39
2
10
58.603642
20
220.518346
11
59.058668
21
222.064621
0
LINE
8
boundary
62
5
39
2
10
59.058668
20
222.064621
11
59.502896
21
223.630111
0
LINE
8
boundary
62
5
39
2
10
59.502896
20
223.630111
11
59.935129
21
225.214126
0
LINE
8
boundary
62
5
39
2
10
59.935129
20
225.214126
11
60.354420
21
226.815938
0
LINE
8
boundary
62
5
39
2
10
60.354420
20
226.815938
11
60.759446
21
228.434862
0
LINE
8
boundary
62
5
39
2
10
60.759446
20
228.434862
11
61.149285
21
230.070280
0
LINE
8
boundary
62
5
39
2
10
61.149285
20
230.070280
11
61.522773
21
231.721744
0
LINE
8
boundary
62
5
39
2
10
61.522773
20
231.721744
11
61.879062
21
233.388343
0
LINE
8
boundary
62
5
39
2
10
61.879062
20
233.388343
11
62.216870
21
235.069794
0
LINE
8
boundary
62
5
39
2
10
62.216870
20
235.069794
11
62.535396
21
236.765283
0
LINE
8
boundary
62
5
39
2
10
62.535396
20
236.765283
11
62.833556
21
238.474293
0
LINE
8
boundary
62
5
39
2
10
62.833556
20
238.474293
11
63.110522
21
240.196304
0
LINE
8
boundary
62
5
39
2
10
63.110522
20
240.196304
11
63.365393
21
241.930727
0
LINE
8
boundary
62
5
39
2
10
63.365393
20
241.930727
11
63.597197
21
243.677166
0
LINE
8
boundary
62
5
39
2
10
63.597197
20
243.677166
11
63.805107
21
245.434906
0
LINE
8
boundary
62
5
39
2
10
63.805107
20
245.434906
11
63.988185
21
247.203371
0
LINE
8
boundary
62
5
39
2
10
63.988185
20
247.203371
11
64.145774
21
248.982165
0
LINE
8
boundary
62
5
39
2
10
64.145774
20
248.982165
11
64.276958
21
250.770975
0
LINE
8
boundary
62
5
39
2
10
64.276958
20
250.770975
11
64.381001
21
252.569008
0
LINE
8
boundary
62
5
39
2
10
64.381001
20
252.569008
11
64.457087
21
254.375988
0
LINE
8
boundary
62
5
39
2
10
64.457087
20
254.375988
11
64.504429
21
256.191310
0
LINE
8
boundary
62
5
39
2
10
64.504429
20
256.191310
11
64.522446
21
258.014611
0
LINE
8
boundary
62
5
39
2
10
64.522446
20
258.014611
11
64.510369
21
259.845175
0
LINE
8
boundary
62
5
39
2
10
64.510369
20
259.845175
11
64.467436
21
261.682802
0
LINE
8
boundary
62
5
39
2
10
64.467436
20
261.682802
11
64.393130
21
263.526938
0
LINE
8
boundary
62
5
39
2
10
64.393130
20
263.526938
11
64.286535
21
265.377145
0
LINE
8
boundary
62
5
39
2
10
64.286535
20
265.377145
11
64.147257
21
267.233051
0
LINE
8
boundary
62
5
39
2
10
64.147257
20
267.233051
11
63.974454
21
269.094094
0
LINE
8
boundary
62
5
39
2
10
63.974454
20
269.094094
11
63.767568
21
270.959844
0
LINE
8
boundary
62
5
39
2
10
63.767568
20
270.959844
11
63.526071
21
272.829944
0
LINE
8
boundary
62
5
39
2
10
63.526071
20
272.829944
11
63.249211
21
274.703781
0
LINE
8
boundary
62
5
39
2
10
63.249211
20
274.703781
11
62.936518
21
276.581118
0
LINE
8
boundary
62
5
39
2
10
62.936518
20
276.581118
11
62.587365
21
278.461408
0
LINE
8
boundary
62
5
39
2
10
62.587365
20
278.461408
11
62.201180
21
280.344297
0
LINE
8
boundary
62
5
39
2
10
62.201180
20
280.344297
11
61.777236
21
282.229212
0
LINE
8
boundary
62
5
39
2
10
61.777236
20
282.229212
11
61.315144
21
284.115876
0
LINE
8
boundary
62
5
39
2
10
61.315144
20
284.115876
11
60.814282
21
286.003650
0
LINE
8
boundary
62
5
39
2
10
60.814282
20
286.003650
11
60.274063
21
287.892335
0
LINE
8
boundary
62
5
39
2
10
60.274063
20
287.892335
11
59.694011
21
289.781347
0
LINE
8
boundary
62
5
39
2
10
59.694011
20
289.781347
11
59.073446
21
291.670328
0
LINE
8
boundary
62
5
39
2
10
59.073446
20
291.670328
11
58.747835
21
292.614635
0
LINE
8
boundary
62
5
39
2
10
58.747835
20
292.614635
11
58.411934
21
293.558667
0
LINE
8
boundary
62
5
39
2
10
58.411934
20
293.558667
11
58.065661
21
294.502629
0
LINE
8
boundary
62
5
39
2
10
58.065661
20
294.502629
11
57.708904
21
295.446172
0
LINE
8
boundary
62
5
39
2
10
57.708904
20
295.446172
11
57.341638
21
296.389576
0
LINE
8
boundary
62
5
39
2
10
57.341638
20
296.389576
11
56.963839
21
297.332259
0
LINE
8
boundary
62
5
39
2
10
56.963839
20
297.332259
11
56.575335
21
298.274565
0
LINE
8
boundary
62
5
39
2
10
56.575335
20
298.274565
11
56.176123
21
299.216491
0
LINE
8
boundary
62
5
39
2
10
56.176123
20
299.216491
11
55.766082
21
300.157754
0
LINE
8
boundary
62
5
39
2
10
55.766082
20
300.157754
11
55.345278
21
301.098432
0
LINE
8
boundary
62
5
39
2
10
55.345278
20
301.098432
11
54.913559
21
302.038301
0
LINE
8
boundary
62
5
39
2
10
54.913559
20
302.038301
11
54.470791
21
302.977539
0
LINE
8
boundary
62
5
39
2
10
54.470791
20
302.977539
11
54.017058
21
303.915963
0
LINE
8
boundary
62
5
39
2
10
54.017058
20
303.915963
11
53.552174
21
304.853527
0
LINE
8
boundary
62
5
39
2
10
53.552174
20
304.853527
11
53.076128
21
305.790136
0
LINE
8
boundary
62
5
39
2
10
53.076128
20
305.790136
11
52.588854
21
306.725772
0
LINE
8
boundary
62
5
39
2
10
52.588854
20
306.725772
11
52.090284
21
307.660618
0
LINE
8
boundary
62
5
39
2
10
52.090284
20
307.660618
11
51.580382
21
308.594040
0
LINE
8
boundary
62
5
39
2
10
51.580382
20
308.594040
11
51.058987
21
309.526348
0
LINE
8
boundary
62
5
39
2
10
51.058987
20
309.526348
11
50.526190
21
310.457611
0
LINE
8
boundary
62
5
39
2
10
50.526190
20
310.457611
11
49.981803
21
311.387659
0
LINE
8
boundary
62
5
39
2
10
49.981803
20
311.387659
11
49.425712
21
312.316292
0
LINE
8
boundary
62
5
39
2
10
49.425712
20
312.316292
11
48.858054
21
313.243511
0
LINE
8
boundary
62
5
39
2
10
48.858054
20
313.243511
11
48.278630
21
314.169191
0
LINE
8
boundary
62
5
39
2
10
48.278630
20
314.169191
11
47.687406
21
315.093645
0
LINE
8
boundary
62
5
39
2
10
47.687406
20
315.093645
11
47.084330
21
316.016353
0
LINE
8
boundary
62
5
39
2
10
47.084330
20
316.016353
11
46.469239
21
316.937525
0
LINE
8
boundary
62
5
39
2
10
46.469239
20
316.937525
11
45.842247
21
317.857072
0
LINE
8
boundary
62
5
39
2
10
45.842247
20
317.857072
11
45.203248
21
318.774649
0
LINE
8
boundary
62
5
39
2
10
45.203248
20
318.774649
11
44.552111
21
319.690706
0
LINE
8
boundary
62
5
39
2
10
44.552111
20
319.690706
11
43.888817
21
320.604685
0
LINE
8
boundary
62
5
39
2
10
43.888817
20
320.604685
11
43.213277
21
321.516868
0
LINE
8
boundary
62
5
39
2
10
43.213277
20
321.516868
11
42.525508
21
322.427173
0
LINE
8
boundary
62
5
39
2
10
42.525508
20
322.427173
11
41.825309
21
323.335250
0
LINE
8
boundary
62
5
39
2
10
41.825309
20
323.335250
11
41.112770
21
324.241187
0
LINE
8
boundary
62
5
39
2
10
41.112770
20
324.241187
11
40.387830
21
325.145144
0
LINE
8
boundary
62
5
39
2
10
40.387830
20
325.145144
11
39.650323
21
326.046719
0
LINE
8
boundary
62
5
39
2
10
39.650323
20
326.046719
11
38.900198
21
326.946060
0
LINE
8
boundary
62
5
39
2
10
38.900198
20
326.946060
11
38.137505
21
327.843078
0
LINE
8
boundary
62
5
39
2
10
38.137505
20
327.843078
11
37.362175
21
328.737686
0
LINE
8
boundary
62
5
39
2
10
37.362175
20
328.737686
11
37.149563
21
329.265583
0
LINE
8
boundary
62
5
39
2
10
37.149563
20
329.265583
11
36.962798
21
329.769931
0
LINE
8
boundary
62
5
39
2
10
36.962798
20
329.769931
11
36.797619
21
330.262242
0
LINE
8
boundary
62
5
39
2
10
36.797619
20
330.262242
11
36.550214
21
331.144110
0
LINE
8
boundary
62
5
39
2
10
36.550214
20
331.144110
11
36.391985
21
331.948838
0
LINE
8
boundary
62
5
39
2
10
36.391985
20
331.948838
11
36.321472
21
332.668465
0
LINE
8
boundary
62
5
39
2
10
36.321472
20
332.668465
11
36.333861
21
333.306447
0
LINE
8
boundary
62
5
39
2
10
36.333861
20
333.306447
11
36.424316
21
333.866199
0
LINE
8
boundary
62
5
39
2
10
36.424316
20
333.866199
11
36.588400
21
334.351078
0
LINE
8
boundary
62
5
39
2
10
36.588400
20
334.351078
11
36.962563
21
334.945927
0
LINE
8
boundary
62
5
39
2
10
36.962563
20
334.945927
11
37.477153
21
335.391799
0
LINE
8
boundary
62
5
39
2
10
37.477153
20
335.391799
11
38.117701
21
335.700888
0
LINE
8
boundary
62
5
39
2
10
38.117701
20
335.700888
11
38.607570
21
335.836664
0
LINE
8
boundary
62
5
39
2
10
38.607570
20
335.836664
11
39.142814
21
335.920133
0
LINE
8
boundary
62
5
39
2
10
39.142814
20
335.920133
11
39.719154
21
335.955231
0
LINE
8
boundary
62
5
39
2
10
39.719154
20
335.955231
11
40.332531
21
335.944939
0
LINE
8
boundary
62
5
39
2
10
40.332531
20
335.944939
11
40.978717
21
335.893219
0
LINE
8
boundary
62
5
39
2
10
40.978717
20
335.893219
11
41.653553
21
335.803350
0
LINE
8
boundary
62
5
39
2
10
41.653553
20
335.803350
11
42.352942
21
335.678947
0
LINE
8
boundary
62
5
39
2
10
42.352942
20
335.678947
11
43.072651
21
335.523697
0
LINE
8
boundary
62
5
39
2
10
43.072651
20
335.523697
11
43.808450
21
335.340607
0
LINE
8
boundary
62
5
39
2
10
43.808450
20
335.340607
11
44.556303
21
335.133575
0
LINE
8
boundary
62
5
39
2
10
44.556303
20
335.133575
11
45.311795
21
334.906300
0
LINE
8
boundary
62
5
39
2
10
45.311795
20
334.906300
11
46.070870
21
334.661842
0
LINE
8
boundary
62
5
39
2
10
46.070870
20
334.661842
11
46.829152
21
334.403807
0
LINE
8
boundary
62
5
39
2
10
46.829152
20
334.403807
11
47.582376
21
334.135935
0
LINE
8
boundary
62
5
39
2
10
47.582376
20
334.135935
11
49.056591
21
333.584241
0
LINE
8
boundary
62
5
39
2
10
49.056591
20
333.584241
11
50.458869
21
333.034619
0
LINE
8
boundary
62
5
39
2
10
50.458869
20
333.034619
11
51.754291
21
332.514791
0
LINE
8
boundary
62
5
39
2
10
51.754291
20
332.514791
11
52.574750
21
331.930470
0
LINE
8
boundary
62
5
39
2
10
52.574750
20
331.930470
11
53.408519
21
331.365431
0
LINE
8
boundary
62
5
39
2
10
53.408519
20
331.365431
11
54.254819
21
330.819841
0
LINE
8
boundary
62
5
39
2
10
54.254819
20
330.819841
11
55.113255
21
330.293597
0
LINE
8
boundary
62
5
39
2
10
55.113255
20
330.293597
11
55.983099
21
329.786655
0
LINE
8
boundary
62
5
39
2
10
55.983099
20
329.786655
11
56.863838
21
329.299053
0
LINE
8
boundary
62
5
39
2
10
56.863838
20
329.299053
11
57.754833
21
328.830665
0
LINE
8
boundary
62
5
39
2
10
57.754833
20
328.830665
11
58.655282
21
328.381767
0
LINE
8
boundary
62
5
39
2
10
58.655282
20
328.381767
11
59.564846
21
327.951793
0
LINE
8
boundary
62
5
39
2
10
59.564846
20
327.951793
11
60.482827
21
327.541128
0
LINE
8
boundary
62
5
39
2
10
60.482827
20
327.541128
11
61.408558
21
327.149699
0
LINE
8
boundary
62
5
39
2
10
61.408558
20
327.149699
11
62.341353
21
326.777410
0
LINE
8
boundary
62
5
39
2
10
62.341353
20
326.777410
11
63.280699
21
326.424139
0
LINE
8
boundary
62
5
39
2
10
63.280699
20
326.424139
11
64.225980
21
326.090165
0
LINE
8
boundary
62
5
39
2
10
64.225980
20
326.090165
11
65.176468
21
325.775154
0
LINE
8
boundary
62
5
39
2
10
65.176468
20
325.775154
11
66.131706
21
325.479228
0
LINE
8
boundary
62
5
39
2
10
66.131706
20
325.479228
11
67.090889
21
325.202306
0
LINE
8
boundary
62
5
39
2
10
67.090889
20
325.202306
11
68.053576
21
324.944559
0
LINE
8
boundary
62
5
39
2
10
68.053576
20
324.944559
11
69.018978
21
324.705680
0
LINE
8
boundary
62
5
39
2
10
69.018978
20
324.705680
11
69.986613
21
324.485796
0
LINE
8
boundary
62
5
39
2
10
69.986613
20
324.485796
11
70.955815
21
324.284714
0
LINE
8
boundary
62
5
39
2
10
70.955815
20
324.284714
11
71.926032
21
324.102653
0
LINE
8
boundary
62
5
39
2
10
71.926032
20
324.102653
11
72.896613
21
323.939529
0
LINE
8
boundary
62
5
39
2
10
72.896613
20
323.939529
11
73.866958
21
323.795390
0
LINE
8
boundary
62
5
39
2
10
73.866958
20
323.795390
11
74.836558
21
323.669872
0
LINE
8
boundary
62
5
39
2
10
74.836558
20
323.669872
11
75.804640
21
323.563398
0
LINE
8
boundary
62
5
39
2
10
75.804640
20
323.563398
11
76.770793
21
323.475652
0
LINE
8
boundary
62
5
39
2
10
76.770793
20
323.475652
11
77.734463
21
323.406635
0
LINE
8
boundary
62
5
39
2
10
77.734463
20
323.406635
11
78.694897
21
323.356575
0
LINE
8
boundary
62
5
39
2
10
78.694897
20
323.356575
11
79.651754
21
323.325283
0
LINE
8
boundary
62
5
39
2
10
79.651754
20
323.325283
11
80.604319
21
323.312588
0
LINE
8
boundary
62
5
39
2
10
80.604319
20
323.312588
11
81.552079
21
323.318689
0
LINE
8
boundary
62
5
39
2
10
81.552079
20
323.318689
11
82.494464
21
323.343606
0
LINE
8
boundary
62
5
39
2
10
82.494464
20
323.343606
11
83.431108
21
323.387165
0
LINE
8
boundary
62
5
39
2
10
83.431108
20
323.387165
11
84.361292
21
323.449572
0
LINE
8
boundary
62
5
39
2
10
84.361292
20
323.449572
11
85.284647
21
323.530430
0
LINE
8
boundary
62
5
39
2
10
85.284647
20
323.530430
11
86.200575
21
323.630078
0
LINE
8
boundary
62
5
39
2
10
86.200575
20
323.630078
11
87.108602
21
323.748506
0
LINE
8
boundary
62
5
39
2
10
87.108602
20
323.748506
11
88.008282
21
323.885679
0
LINE
8
boundary
62
5
39
2
10
88.008282
20
323.885679
11
88.899163
21
324.041329
0
LINE
8
boundary
62
5
39
2
10
88.899163
20
324.041329
11
89.780671
21
324.215758
0
LINE
8
boundary
62
5
39
2
10
89.780671
20
324.215758
11
90.652423
21
324.408849
0
LINE
8
boundary
62
5
39
2
10
90.652423
20
324.408849
11
91.513979
21
324.620612
0
LINE
8
boundary
62
5
39
2
10
91.513979
20
324.620612
11
92.364890
21
324.850997
0
LINE
8
boundary
62
5
39
2
10
92.364890
20
324.850997
11
93.204692
21
325.100144
0
LINE
8
boundary
62
5
39
2
10
93.204692
20
325.100144
11
94.032972
21
325.367756
0
LINE
8
boundary
62
5
39
2
10
94.032972
20
325.367756
11
94.849485
21
325.654309
0
LINE
8
boundary
62
5
39
2
10
94.849485
20
325.654309
11
95.653582
21
325.959384
0
LINE
8
boundary
62
5
39
2
10
95.653582
20
325.959384
11
96.445020
21
326.283232
0
LINE
8
boundary
62
5
39
2
10
96.445020
20
326.283232
11
97.223417
21
326.625665
0
LINE
8
boundary
62
5
39
2
10
97.223417
20
326.625665
11
97.988398
21
326.986943
0
LINE
8
boundary
62
5
39
2
10
97.988398
20
326.986943
11
98.739630
21
327.366760
0
LINE
8
boundary
62
5
39
2
10
98.739630
20
327.366760
11
99.476679
21
327.765339
0
LINE
8
boundary
62
5
39
2
10
99.476679
20
327.765339
11
100.199258
21
328.182785
0
LINE
8
boundary
62
5
39
2
10
100.199258
20
328.182785
11
100.907117
21
328.618826
0
LINE
8
boundary
62
5
39
2
10
100.907117
20
328.618826
11
101.599768
21
329.073891
0
LINE
8
boundary
62
5
39
2
10
101.599768
20
329.073891
11
102.276979
21
329.547633
0
LINE
8
boundary
62
5
39
2
10
102.276979
20
329.547633
11
102.938523
21
330.040010
0
LINE
8
boundary
62
5
39
2
10
102.938523
20
330.040010
11
103.583918
21
330.551309
0
LINE
8
boundary
62
5
39
2
10
103.583918
20
330.551309
11
104.212936
21
331.081586
0
LINE
8
boundary
62
5
39
2
10
104.212936
20
331.081586
11
104.825418
21
331.630506
0
LINE
8
boundary
62
5
39
2
10
104.825418
20
331.630506
11
105.420868
21
332.198374
0
LINE
8
boundary
62
5
39
2
10
105.420868
20
332.198374
11
105.999179
21
332.785171
0
LINE
8
boundary
62
5
39
2
10
105.999179
20
332.785171
11
106.560029
21
333.390818
0
LINE
8
boundary
62
5
39
2
10
106.560029
20
333.390818
11
107.227499
21
333.935758
0
LINE
8
boundary
62
5
39
2
10
107.227499
20
333.935758
11
107.826944
21
334.498100
0
LINE
8
boundary
62
5
39
2
10
107.826944
20
334.498100
11
108.360228
21
335.077393
0
LINE
8
boundary
62
5
39
2
10
108.360228
20
335.077393
11
108.829033
21
335.673219
0
LINE
8
boundary
62
5
39
2
10
108.829033
20
335.673219
11
109.235142
21
336.285311
0
LINE
8
boundary
62
5
39
2
10
109.235142
20
336.285311
11
109.580195
21
336.913000
0
LINE
8
boundary
62
5
39
2
10
109.580195
20
336.913000
11
109.865894
21
337.555979
0
LINE
8
boundary
62
5
39
2
10
109.865894
20
337.555979
11
110.093864
21
338.213628
0
LINE
8
boundary
62
5
39
2
10
110.093864
20
338.213628
11
110.265570
21
338.885890
0
LINE
8
boundary
62
5
39
2
10
110.265570
20
338.885890
11
110.382568
21
339.571912
0
LINE
8
boundary
62
5
39
2
10
110.382568
20
339.571912
11
110.446365
21
340.271458
0
LINE
8
boundary
62
5
39
2
10
110.446365
20
340.271458
11
110.458452
21
340.983841
0
LINE
8
boundary
62
5
39
2
10
110.458452
20
340.983841
11
110.420160
21
341.709022
0
LINE
8
boundary
62
5
39
2
10
110.420160
20
341.709022
11
110.332996
21
342.446419
0
LINE
8
boundary
62
5
39
2
10
110.332996
20
342.446419
11
110.198382
21
343.195281
0
LINE
8
boundary
62
5
39
2
10
110.198382
20
343.195281
11
110.017555
21
343.955419
0
LINE
8
boundary
62
5
39
2
10
110.017555
20
343.955419
11
109.792042
21
344.726541
0
LINE
8
boundary
62
5
39
2
10
109.792042
20
344.726541
11
109.523056
21
345.507769
0
LINE
8
boundary
62
5
39
2
10
109.523056
20
345.507769
11
109.211940
21
346.298937
0
LINE
8
boundary
62
5
39
2
10
109.211940
20
346.298937
11
108.860186
21
347.099625
0
LINE
8
boundary
62
5
39
2
10
108.860186
20
347.099625
11
108.468942
21
347.909239
0
LINE
8
boundary
62
5
39
2
10
108.468942
20
347.909239
11
108.039641
21
348.727230
0
LINE
8
boundary
62
5
39
2
10
108.039641
20
348.727230
11
107.573628
21
349.553494
0
LINE
8
boundary
62
5
39
2
10
107.573628
20
349.553494
11
107.072104
21
350.387281
0
LINE
8
boundary
62
5
39
2
10
107.072104
20
350.387281
11
106.536524
21
351.228145
0
LINE
8
boundary
62
5
39
2
10
106.536524
20
351.228145
11
105.968195
21
352.075816
0
LINE
8
boundary
62
5
39
2
10
105.968195
20
352.075816
11
105.368477
21
352.929614
0
LINE
8
boundary
62
5
39
2
10
105.368477
20
352.929614
11
104.738678
21
353.789400
0
LINE
8
boundary
62
5
39
2
10
104.738678
20
353.789400
11
104.080212
21
354.654416
0
LINE
8
boundary
62
5
39
2
10
104.080212
20
354.654416
11
103.394370
21
355.524366
0
LINE
8
boundary
62
5
39
2
10
103.394370
20
355.524366
11
102.682543
21
356.398652
0
LINE
8
boundary
62
5
39
2
10
102.682543
20
356.398652
11
101.946171
21
357.276998
0
LINE
8
boundary
62
5
39
2
10
101.946171
20
357.276998
11
101.186590
21
358.158779
0
LINE
8
boundary
62
5
39
2
10
101.186590
20
358.158779
11
100.405248
21
359.043670
0
LINE
8
boundary
62
5
39
2
10
100.405248
20
359.043670
11
99.603425
21
359.931177
0
LINE
8
boundary
62
5
39
2
10
99.603425
20
359.931177
11
98.782699
21
360.820866
0
LINE
8
boundary
62
5
39
2
10
98.782699
20
360.820866
11
97.944425
21
361.712207
0
LINE
8
boundary
62
5
39
2
10
97.944425
20
361.712207
11
97.090013
21
362.604718
0
LINE
8
boundary
62
5
39
2
10
97.090013
20
362.604718
11
96.220847
21
363.498026
0
LINE
8
boundary
62
5
39
2
10
96.220847
20
363.498026
11
95.338378
21
364.391569
0
LINE
8
boundary
62
5
39
2
10
95.338378
20
364.391569
11
94.444146
21
365.284918
0
LINE
8
boundary
62
5
39
2
10
94.444146
20
365.284918
11
93.539499
21
366.177664
0
LINE
8
boundary
62
5
39
2
10
93.539499
20
366.177664
11
91.704724
21
367.959281
0
LINE
8
boundary
62
5
39
2
10
91.704724
20
367.959281
11
89.845643
21
369.732875
0
LINE
8
boundary
62
5
39
2
10
89.845643
20
369.732875
11
87.973793
21
371.494318
0
LINE
8
boundary
62
5
39
2
10
87.973793
20
371.494318
11
86.100566
21
373.240027
0
LINE
8
boundary
62
5
39
2
10
86.100566
20
373.240027
11
84.237353
21
374.966273
0
LINE
8
boundary
62
5
39
2
10
84.237353
20
374.966273
11
83.748439
21
375.413308
0
LINE
8
boundary
62
5
39
2
10
83.748439
20
375.413308
11
80.585962
21
378.344115
0
LINE
8
boundary
62
5
39
2
10
80.585962
20
378.344115
11
80.080846
21
378.811690
0
LINE
8
boundary
62
5
39
2
10
80.080846
20
378.811690
11
77.108367
21
381.596707
0
LINE
8
boundary
62
5
39
2
10
77.108367
20
381.596707
11
75.461652
21
383.166251
0
LINE
8
boundary
62
5
39
2
10
75.461652
20
383.166251
11
73.890624
21
384.692563
0
LINE
8
boundary
62
5
39
2
10
73.890624
20
384.692563
11
72.943431
21
385.613217
0
LINE
8
boundary
62
5
39
2
10
72.943431
20
385.613217
11
72.001081
21
386.509217
0
LINE
8
boundary
62
5
39
2
10
72.001081
20
386.509217
11
71.063390
21
387.381094
0
LINE
8
boundary
62
5
39
2
10
71.063390
20
387.381094
11
70.130222
21
388.228815
0
LINE
8
boundary
62
5
39
2
10
70.130222
20
388.228815
11
69.201385
21
389.052938
0
LINE
8
boundary
62
5
39
2
10
69.201385
20
389.052938
11
68.276751
21
389.853691
0
LINE
8
boundary
62
5
39
2
10
68.276751
20
389.853691
11
67.356370
21
390.631439
0
LINE
8
boundary
62
5
39
2
10
67.356370
20
390.631439
11
66.439979
21
391.386820
0
LINE
8
boundary
62
5
39
2
10
66.439979
20
391.386820
11
65.527499
21
392.119770
0
LINE
8
boundary
62
5
39
2
10
65.527499
20
392.119770
11
64.618748
21
392.830834
0
LINE
8
boundary
62
5
39
2
10
64.618748
20
392.830834
11
63.713710
21
393.520366
0
LINE
8
boundary
62
5
39
2
10
63.713710
20
393.520366
11
62.812213
21
394.188578
0
LINE
8
boundary
62
5
39
2
10
62.812213
20
394.188578
11
61.914241
21
394.835993
0
LINE
8
boundary
62
5
39
2
10
61.914241
20
394.835993
11
61.019648
21
395.462961
0
LINE
8
boundary
62
5
39
2
10
61.019648
20
395.462961
11
60.128295
21
396.069656
0
LINE
8
boundary
62
5
39
2
10
60.128295
20
396.069656
11
59.240098
21
396.656726
0
LINE
8
boundary
62
5
39
2
10
59.240098
20
396.656726
11
58.355014
21
397.224262
0
LINE
8
boundary
62
5
39
2
10
58.355014
20
397.224262
11
57.472902
21
397.772856
0
LINE
8
boundary
62
5
39
2
10
57.472902
20
397.772856
11
56.593690
21
398.302746
0
LINE
8
boundary
62
5
39
2
10
56.593690
20
398.302746
11
55.717397
21
398.814335
0
LINE
8
boundary
62
5
39
2
10
55.717397
20
398.814335
11
54.843807
21
399.307837
0
LINE
8
boundary
62
5
39
2
10
54.843807
20
399.307837
11
53.972884
21
399.783819
0
LINE
8
boundary
62
5
39
2
10
53.972884
20
399.783819
11
53.104561
21
400.242636
0
LINE
8
boundary
62
5
39
2
10
53.104561
20
400.242636
11
52.238794
21
400.684681
0
LINE
8
boundary
62
5
39
2
10
52.238794
20
400.684681
11
51.375567
21
401.110183
0
LINE
8
boundary
62
5
39
2
10
51.375567
20
401.110183
11
50.514687
21
401.519679
0
LINE
8
boundary
62
5
39
2
10
50.514687
20
401.519679
11
49.656239
21
401.913441
0
LINE
8
boundary
62
5
39
2
10
49.656239
20
401.913441
11
48.800083
21
402.291912
0
LINE
8
boundary
62
5
39
2
10
48.800083
20
402.291912
11
47.946236
21
402.655335
0
LINE
8
boundary
62
5
39
2
10
47.946236
20
402.655335
11
47.094554
21
403.004329
0
LINE
8
boundary
62
5
39
2
10
47.094554
20
403.004329
11
46.245111
21
403.339063
0
LINE
8
boundary
62
5
39
2
10
46.245111
20
403.339063
11
45.397786
21
403.660042
0
LINE
8
boundary
62
5
39
2
10
45.397786
20
403.660042
11
44.552555
21
403.967611
0
LINE
8
boundary
62
5
39
2
10
44.552555
20
403.967611
11
43.709376
21
404.262114
0
LINE
8
boundary
62
5
39
2
10
43.709376
20
404.262114
11
42.868228
21
404.544070
0
LINE
8
boundary
62
5
39
2
10
42.868228
20
404.544070
11
42.029100
21
404.813774
0
LINE
8
boundary
62
5
39
2
10
42.029100
20
404.813774
11
41.191976
21
405.071638
0
LINE
8
boundary
62
5
39
2
10
41.191976
20
405.071638
11
40.356835
21
405.318018
0
LINE
8
boundary
62
5
39
2
10
40.356835
20
405.318018
11
39.523564
21
405.553241
0
LINE
8
boundary
62
5
39
2
10
39.523564
20
405.553241
11
38.692306
21
405.777869
0
LINE
8
boundary
62
5
39
2
10
38.692306
20
405.777869
11
37.862867
21
405.992181
0
LINE
8
boundary
62
5
39
2
10
37.862867
20
405.992181
11
37.035358
21
406.196594
0
LINE
8
boundary
62
5
39
2
10
37.035358
20
406.196594
11
36.490296
21
406.322335
0
LINE
8
boundary
62
5
39
2
10
36.490296
20
406.322335
11
35.386024
21
406.577256
0
LINE
8
boundary
62
5
39
2
10
35.386024
20
406.577256
11
34.829061
21
406.694481
0
LINE
8
boundary
62
5
39
2
10
34.829061
20
406.694481
11
33.744191
21
406.923189
0
LINE
8
boundary
62
5
39
2
10
33.744191
20
406.923189
11
33.174986
21
407.032562
0
LINE
8
boundary
62
5
39
2
10
33.174986
20
407.032562
11
32.109874
21
407.237336
0
LINE
8
boundary
62
5
39
2
10
32.109874
20
407.237336
11
31.528050
21
407.339417
0
LINE
8
boundary
62
5
39
2
10
31.528050
20
407.339417
11
30.483065
21
407.522951
0
LINE
8
boundary
62
5
39
2
10
30.483065
20
407.522951
11
29.888144
21
407.618528
0
LINE
8
boundary
62
5
39
2
10
29.888144
20
407.618528
11
28.863821
21
407.783237
0
LINE
8
boundary
62
5
39
2
10
28.863821
20
407.783237
11
28.255225
21
407.873118
0
LINE
8
boundary
62
5
39
2
10
28.255225
20
407.873118
11
27.252137
21
408.021292
0
LINE
8
boundary
62
5
39
2
10
27.252137
20
408.021292
11
26.629279
21
408.106362
0
LINE
8
boundary
62
5
39
2
10
26.629279
20
408.106362
11
25.648328
21
408.240401
0
LINE
8
boundary
62
5
39
2
10
25.648328
20
408.240401
11
25.010461
21
408.321593
0
LINE
8
boundary
62
5
39
2
10
25.010461
20
408.321593
11
24.052493
21
408.443763
0
LINE
8
boundary
62
5
39
2
10
24.052493
20
408.443763
11
23.398667
21
408.522288
0
LINE
8
boundary
62
5
39
2
10
23.398667
20
408.522288
11
22.464665
21
408.634419
0
LINE
8
boundary
62
5
39
2
10
22.464665
20
408.634419
11
21.075076
21
408.791626
0
LINE
8
boundary
62
5
39
2
10
21.075076
20
408.791626
11
19.314262
21
408.990886
0
LINE
8
boundary
62
5
39
2
10
19.314262
20
408.990886
11
18.872217
21
405.916661
0
LINE
8
boundary
62
5
39
2
10
18.872217
20
405.916661
11
18.222120
21
401.496452
0
LINE
8
boundary
62
5
39
2
10
18.222120
20
401.496452
11
19.662722
21
401.340290
0
LINE
8
boundary
62
5
39
2
10
19.662722
20
401.340290
11
22.547756
21
401.027363
0
LINE
8
boundary
62
5
39
2
10
22.547756
20
401.027363
11
23.763982
21
400.663768
0
LINE
8
boundary
62
5
39
2
10
23.763982
20
400.663768
11
24.962793
21
400.291379
0
LINE
8
boundary
62
5
39
2
10
24.962793
20
400.291379
11
25.546643
21
400.103213
0
LINE
8
boundary
62
5
39
2
10
25.546643
20
400.103213
11
42.578067
21
400.103213
0
LINE
8
boundary
62
5
39
2
10
42.578067
20
400.103213
11
42.578067
21
397.357213
0
LINE
8
boundary
62
5
39
2
10
42.578067
20
397.357213
11
33.478411
21
397.357213
0
LINE
8
boundary
62
5
39
2
10
33.478411
20
397.357213
11
33.935649
21
397.014690
0
LINE
8
boundary
62
5
39
2
10
33.935649
20
397.014690
11
34.981268
21
396.569966
0
LINE
8
boundary
62
5
39
2
10
34.981268
20
396.569966
11
36.010273
21
396.118159
0
LINE
8
boundary
62
5
39
2
10
36.010273
20
396.118159
11
37.022658
21
395.659033
0
LINE
8
boundary
62
5
39
2
10
37.022658
20
395.659033
11
38.018527
21
395.192966
0
LINE
8
boundary
62
5
39
2
10
38.018527
20
395.192966
11
38.997992
21
394.720111
0
LINE
8
boundary
62
5
39
2
10
38.997992
20
394.720111
11
39.961067
21
394.240515
0
LINE
8
boundary
62
5
39
2
10
39.961067
20
394.240515
11
40.907881
21
393.754496
0
LINE
8
boundary
62
5
39
2
10
40.907881
20
393.754496
11
41.838405
21
393.261933
0
LINE
8
boundary
62
5
39
2
10
41.838405
20
393.261933
11
42.752779
21
392.763172
0
LINE
8
boundary
62
5
39
2
10
42.752779
20
392.763172
11
43.651069
21
392.258231
0
LINE
8
boundary
62
5
39
2
10
43.651069
20
392.258231
11
44.533194
21
391.747396
0
LINE
8
boundary
62
5
39
2
10
44.533194
20
391.747396
11
45.399264
21
391.230665
0
LINE
8
boundary
62
5
39
2
10
45.399264
20
391.230665
11
46.249478
21
390.708377
0
LINE
8
boundary
62
5
39
2
10
46.249478
20
390.708377
11
47.083705
21
390.180455
0
LINE
8
boundary
62
5
39
2
10
47.083705
20
390.180455
11
47.902065
21
389.647234
0
LINE
8
boundary
62
5
39
2
10
47.902065
20
389.647234
11
48.704660
21
389.108764
0
LINE
8
boundary
62
5
39
2
10
48.704660
20
389.108764
11
49.491448
21
388.565261
0
LINE
8
boundary
62
5
39
2
10
49.491448
20
388.565261
11
50.262530
21
388.016753
0
LINE
8
boundary
62
5
39
2
10
50.262530
20
388.016753
11
51.017981
21
387.463391
0
LINE
8
boundary
62
5
39
2
10
51.017981
20
387.463391
11
51.757760
21
386.905500
0
LINE
8
boundary
62
5
39
2
10
51.757760
20
386.905500
11
52.481898
21
386.343119
0
LINE
8
boundary
62
5
39
2
10
52.481898
20
386.343119
11
53.190480
21
385.776057
0
LINE
8
boundary
62
5
39
2
10
53.190480
20
385.776057
11
53.883622
21
385.205102
0
LINE
8
boundary
62
5
39
2
10
53.883622
20
385.205102
11
54.561282
21
384.630074
0
LINE
8
boundary
62
5
39
2
10
54.561282
20
384.630074
11
55.223514
21
384.050913
0
LINE
8
boundary
62
5
39
2
10
55.223514
20
384.050913
11
55.870273
21
383.468130
0
LINE
8
boundary
62
5
39
2
10
55.870273
20
383.468130
11
56.501779
21
382.881503
0
LINE
8
boundary
62
5
39
2
10
56.501779
20
382.881503
11
57.117862
21
382.291610
0
LINE
8
boundary
62
5
39
2
10
57.117862
20
382.291610
11
57.718749
21
381.698178
0
LINE
8
boundary
62
5
39
2
10
57.718749
20
381.698178
11
58.304284
21
381.101413
0
LINE
8
boundary
62
5
39
2
10
58.304284
20
381.101413
11
58.874653
21
380.501806
0
LINE
8
boundary
62
5
39
2
10
58.874653
20
380.501806
11
59.429843
21
379.899137
0
LINE
8
boundary
62
5
39
2
10
59.429843
20
379.899137
11
59.969848
21
379.293620
0
LINE
8
boundary
62
5
39
2
10
59.969848
20
379.293620
11
60.494750
21
378.685445
0
LINE
8
boundary
62
5
39
2
10
60.494750
20
378.685445
11
61.004546
21
378.074770
0
LINE
8
boundary
62
5
39
2
10
61.004546
20
378.074770
11
61.499230
21
377.461667
0
LINE
8
boundary
62
5
39
2
10
61.499230
20
377.461667
11
61.978869
21
376.846385
0
LINE
8
boundary
62
5
39
2
10
61.978869
20
376.846385
11
62.443574
21
376.228810
0
LINE
8
boundary
62
5
39
2
10
62.443574
20
376.228810
11
62.893184
21
375.609399
0
LINE
8
boundary
62
5
39
2
10
62.893184
20
375.609399
11
63.327948
21
374.988120
0
LINE
8
boundary
62
5
39
2
10
63.327948
20
374.988120
11
63.747662
21
374.365153
0
LINE
8
boundary
62
5
39
2
10
63.747662
20
374.365153
11
64.152514
21
373.740617
0
LINE
8
boundary
62
5
39
2
10
64.152514
20
373.740617
11
64.542495
21
373.114614
0
LINE
8
boundary
62
5
39
2
10
64.542495
20
373.114614
11
64.917638
21
372.487326
0
LINE
8
boundary
62
5
39
2
10
64.917638
20
372.487326
11
65.277822
21
371.858880
0
LINE
8
boundary
62
5
39
2
10
65.277822
20
371.858880
11
65.623284
21
371.229431
0
LINE
8
boundary
62
5
39
2
10
65.623284
20
371.229431
11
65.953974
21
370.599030
0
LINE
8
boundary
62
5
39
2
10
65.953974
20
370.599030
11
66.269857
21
369.968002
0
LINE
8
boundary
62
5
39
2
10
66.269857
20
369.968002
11
66.570984
21
369.336286
0
LINE
8
boundary
62
5
39
2
10
66.570984
20
369.336286
11
66.857384
21
368.704064
0
LINE
8
boundary
62
5
39
2
10
66.857384
20
368.704064
11
67.129011
21
368.071530
0
LINE
8
boundary
62
5
39
2
10
67.129011
20
368.071530
11
67.386024
21
367.438642
0
LINE
8
boundary
62
5
39
2
10
67.386024
20
367.438642
11
67.628301
21
366.805737
0
LINE
8
boundary
62
5
39
2
10
67.628301
20
366.805737
11
67.855941
21
366.172902
0
LINE
8
boundary
62
5
39
2
10
67.855941
20
366.172902
11
67.834373
21
365.232111
0
LINE
8
boundary
62
5
39
2
10
67.834373
20
365.232111
11
67.838547
21
364.276473
0
LINE
8
boundary
62
5
39
2
10
67.838547
20
364.276473
11
67.863079
21
363.309238
0
LINE
8
boundary
62
5
39
2
10
67.863079
20
363.309238
11
67.902799
21
362.333849
0
LINE
8
boundary
62
5
39
2
10
67.902799
20
362.333849
11
68.005806
21
360.371908
0
LINE
8
boundary
62
5
39
2
10
68.005806
20
360.371908
11
68.104185
21
358.417531
0
LINE
8
boundary
62
5
39
2
10
68.104185
20
358.417531
11
68.137761
21
357.451294
0
LINE
8
boundary
62
5
39
2
10
68.137761
20
357.451294
11
68.153585
21
356.496992
0
LINE
8
boundary
62
5
39
2
10
68.153585
20
356.496992
11
68.145895
21
355.557728
0
LINE
8
boundary
62
5
39
2
10
68.145895
20
355.557728
11
68.109144
21
354.636905
0
LINE
8
boundary
62
5
39
2
10
68.109144
20
354.636905
11
68.037466
21
353.737691
0
LINE
8
boundary
62
5
39
2
10
68.037466
20
353.737691
11
67.925252
21
352.863455
0
LINE
8
boundary
62
5
39
2
10
67.925252
20
352.863455
11
67.766591
21
352.017477
0
LINE
8
boundary
62
5
39
2
10
67.766591
20
352.017477
11
67.555784
21
351.202926
0
LINE
8
boundary
62
5
39
2
10
67.555784
20
351.202926
11
67.286806
21
350.423257
0
LINE
8
boundary
62
5
39
2
10
67.286806
20
350.423257
11
66.953982
21
349.681416
0
LINE
8
boundary
62
5
39
2
10
66.953982
20
349.681416
11
66.551170
21
348.980955
0
LINE
8
boundary
62
5
39
2
10
66.551170
20
348.980955
11
66.072649
21
348.324775
0
LINE
8
boundary
62
5
39
2
10
66.072649
20
348.324775
11
65.512281
21
347.716386
0
LINE
8
boundary
62
5
39
2
10
65.512281
20
347.716386
11
64.864285
21
347.159047
0
LINE
8
boundary
62
5
39
2
10
64.864285
20
347.159047
11
64.122532
21
346.655877
0
LINE
8
boundary
62
5
39
2
10
64.122532
20
346.655877
11
63.281212
21
346.210091
0
LINE
8
boundary
62
5
39
2
10
63.281212
20
346.210091
11
62.787261
21
345.997176
0
LINE
8
boundary
62
5
39
2
10
62.787261
20
345.997176
11
62.298464
21
345.813599
0
LINE
8
boundary
62
5
39
2
10
62.298464
20
345.813599
11
61.781776
21
345.646166
0
LINE
8
boundary
62
5
39
2
10
61.781776
20
345.646166
11
61.275746
21
345.504239
0
LINE
8
boundary
62
5
39
2
10
61.275746
20
345.504239
11
60.702812
21
345.368740
0
LINE
8
boundary
62
5
39
2
10
60.702812
20
345.368740
11
60.099837
21
345.250596
0
LINE
8
boundary
62
5
39
2
10
60.099837
20
345.250596
11
59.466089
21
345.149938
0
LINE
8
boundary
62
5
39
2
10
59.466089
20
345.149938
11
58.800759
21
345.067401
0
LINE
8
boundary
62
5
39
2
10
58.800759
20
345.067401
11
58.103194
21
345.003213
0
LINE
8
boundary
62
5
39
2
10
58.103194
20
345.003213
11
57.372630
21
344.958063
0
LINE
8
boundary
62
5
39
2
10
57.372630
20
344.958063
11
56.608441
21
344.932076
0
LINE
8
boundary
62
5
39
2
10
56.608441
20
344.932076
11
55.809976
21
344.925908
0
LINE
8
boundary
62
5
39
2
10
55.809976
20
344.925908
11
54.976415
21
344.939633
0
LINE
8
boundary
62
5
39
2
10
54.976415
20
344.939633
11
54.107066
21
344.974024
0
LINE
8
boundary
62
5
39
2
10
54.107066
20
344.974024
11
53.201424
21
345.029296
0
LINE
8
boundary
62
5
39
2
10
53.201424
20
345.029296
11
52.258771
21
345.106029
0
LINE
8
boundary
62
5
39
2
10
52.258771
20
345.106029
11
50.590272
21
345.706339
0
LINE
8
boundary
62
5
39
2
10
50.590272
20
345.706339
11
48.965298
21
346.275728
0
LINE
8
boundary
62
5
39
2
10
48.965298
20
346.275728
11
47.375417
21
346.814956
0
LINE
8
boundary
62
5
39
2
10
47.375417
20
346.814956
11
45.811946
21
347.324406
0
LINE
8
boundary
62
5
39
2
10
45.811946
20
347.324406
11
44.266513
21
347.804643
0
LINE
8
boundary
62
5
39
2
10
44.266513
20
347.804643
11
42.730399
21
348.255852
0
LINE
8
boundary
62
5
39
2
10
42.730399
20
348.255852
11
41.195190
21
348.678892
0
LINE
8
boundary
62
5
39
2
10
41.195190
20
348.678892
11
39.652269
21
349.074183
0
LINE
8
boundary
62
5
39
2
10
39.652269
20
349.074183
11
38.093046
21
349.442124
0
LINE
8
boundary
62
5
39
2
10
38.093046
20
349.442124
11
36.509060
21
349.783465
0
LINE
8
boundary
62
5
39
2
10
36.509060
20
349.783465
11
34.891756
21
350.098369
0
LINE
8
boundary
62
5
39
2
10
34.891756
20
350.098369
11
33.232574
21
350.387632
0
LINE
8
boundary
62
5
39
2
10
33.232574
20
350.387632
11
31.522984
21
350.651598
0
LINE
8
boundary
62
5
39
2
10
31.522984
20
350.651598
11
29.754457
21
350.890772
0
LINE
8
boundary
62
5
39
2
10
29.754457
20
350.890772
11
27.918401
21
351.105886
0
LINE
8
boundary
62
5
39
2
10
27.918401
20
351.105886
11
26.006331
21
351.296912
0
LINE
8
boundary
62
5
39
2
10
26.006331
20
351.296912
11
25.900887
21
350.232543
0
LINE
8
boundary
62
5
39
2
10
25.900887
20
350.232543
11
24.190292
21
332.437651
0
LINE
8
boundary
62
5
39
2
10
24.190292
20
332.437651
11
26.035122
21
325.099237
0
LINE
8
boundary
62
5
39
2
10
26.035122
20
325.099237
11
28.087581
21
316.891754
0
LINE
8
boundary
62
5
39
2
10
28.087581
20
316.891754
11
37.694152
21
316.891754
0
LINE
8
boundary
62
5
39
2
10
37.694152
20
316.891754
11
37.694153
21
314.145755
0
LINE
8
boundary
62
5
39
2
10
37.694153
20
314.145755
11
28.822089
21
314.145754
0
LINE
8
boundary
62
5
39
2
10
28.822089
20
314.145754
11
33.088290
21
296.894649
0
LINE
8
boundary
62
5
39
2
10
33.088290
20
296.894649
11
33.223871
21
296.356294
0
LINE
8
boundary
62
5
39
2
10
33.223871
20
296.356294
11
33.887588
21
294.268504
0
LINE
8
boundary
62
5
39
2
10
33.887588
20
294.268504
11
34.526423
21
292.147388
0
LINE
8
boundary
62
5
39
2
10
34.526423
20
292.147388
11
35.131523
21
290.020161
0
LINE
8
boundary
62
5
39
2
10
35.131523
20
290.020161
11
35.702585
21
287.886867
0
LINE
8
boundary
62
5
39
2
10
35.702585
20
287.886867
11
36.239962
21
285.747584
0
LINE
8
boundary
62
5
39
2
10
36.239962
20
285.747584
11
36.743584
21
283.602600
0
LINE
8
boundary
62
5
39
2
10
36.743584
20
283.602600
11
37.213471
21
281.451898
0
LINE
8
boundary
62
5
39
2
10
37.213471
20
281.451898
11
37.649622
21
279.295563
0
LINE
8
boundary
62
5
39
2
10
37.649622
20
279.295563
11
38.052232
21
277.133915
0
LINE
8
boundary
62
5
39
2
10
38.052232
20
277.133915
11
38.415739
21
274.969934
0
LINE
8
boundary
62
5
39
2
10
38.415739
20
274.969934
11
38.745374
21
272.801038
0
LINE
8
boundary
62
5
39
2
10
38.745374
20
272.801038
11
39.041471
21
270.627040
0
LINE
8
boundary
62
5
39
2
10
39.041471
20
270.627040
11
39.304340
21
268.447989
0
LINE
8
boundary
62
5
39
2
10
39.304340
20
268.447989
11
39.533871
21
266.264139
0
LINE
8
boundary
62
5
39
2
10
39.533871
20
266.264139
11
39.730310
21
264.075414
0
LINE
8
boundary
62
5
39
2
10
39.730310
20
264.075414
11
39.893587
21
261.881917
0
LINE
8
boundary
62
5
39
2
10
39.893587
20
261.881917
11
40.024093
21
259.683809
0
LINE
8
boundary
62
5
39
2
10
40.024093
20
259.683809
11
40.121756
21
257.481042
0
LINE
8
boundary
62
5
39
2
10
40.121756
20
257.481042
11
40.186696
21
255.273778
0
LINE
8
boundary
62
5
39
2
10
40.186696
20
255.273778
11
40.219283
21
253.061992
0
LINE
8
boundary
62
5
39
2
10
40.219283
20
253.061992
11
40.219495
21
250.845886
0
LINE
8
boundary
62
5
39
2
10
40.219495
20
250.845886
11
40.187548
21
248.625362
0
LINE
8
boundary
62
5
39
2
10
40.187548
20
248.625362
11
40.123525
21
246.400641
0
LINE
8
boundary
62
5
39
2
10
40.123525
20
246.400641
11
40.027868
21
244.171713
0
LINE
8
boundary
62
5
39
2
10
40.027868
20
244.171713
11
39.900511
21
241.938560
0
LINE
8
boundary
62
5
39
2
10
39.900511
20
241.938560
11
39.741967
21
239.701282
0
LINE
8
boundary
62
5
39
2
10
39.741967
20
239.701282
11
39.552173
21
237.460075
0
LINE
8
boundary
62
5
39
2
10
39.552173
20
237.460075
11
39.331614
21
235.214775
0
LINE
8
boundary
62
5
39
2
10
39.331614
20
235.214775
11
39.080484
21
232.965586
0
LINE
8
boundary
62
5
39
2
10
39.080484
20
232.965586
11
38.799057
21
230.712581
0
LINE
8
boundary
62
5
39
2
10
38.799057
20
230.712581
11
38.487586
21
228.455586
0
LINE
8
boundary
62
5
39
2
10
38.487586
20
228.455586
11
38.146551
21
226.195005
0
LINE
8
boundary
62
5
39
2
10
38.146551
20
226.195005
11
37.776103
21
223.930686
0
LINE
8
boundary
62
5
39
2
10
37.776103
20
223.930686
11
37.376836
21
221.662782
0
LINE
8
boundary
62
5
39
2
10
37.376836
20
221.662782
11
36.948884
21
219.391369
0
LINE
8
boundary
62
5
39
2
10
36.948884
20
219.391369
11
36.492687
21
217.116480
0
LINE
8
boundary
62
5
39
2
10
36.492687
20
217.116480
11
36.008839
21
214.838192
0
LINE
8
boundary
62
5
39
2
10
36.008839
20
214.838192
11
35.497679
21
212.556590
0
LINE
8
boundary
62
5
39
2
10
35.497679
20
212.556590
11
34.959657
21
210.271827
0
LINE
8
boundary
62
5
39
2
10
34.959657
20
210.271827
11
34.395201
21
207.984018
0
LINE
8
boundary
62
5
39
2
10
34.395201
20
207.984018
11
33.804923
21
205.693140
0
LINE
8
boundary
62
5
39
2
10
33.804923
20
205.693140
11
33.189321
21
203.399495
0
LINE
8
boundary
62
5
39
2
10
33.189321
20
203.399495
11
32.548911
21
201.103107
0
LINE
8
boundary
62
5
39
2
10
32.548911
20
201.103107
11
31.884288
21
198.804092
0
LINE
8
boundary
62
5
39
2
10
31.884288
20
198.804092
11
31.196028
21
196.502651
0
LINE
8
boundary
62
5
39
2
10
31.196028
20
196.502651
11
30.484746
21
194.198868
0
LINE
8
boundary
62
5
39
2
10
30.484746
20
194.198868
11
29.751079
21
191.893051
0
LINE
8
boundary
62
5
39
2
10
29.751079
20
191.893051
11
28.995686
21
189.585302
0
LINE
8
boundary
62
5
39
2
10
28.995686
20
189.585302
11
28.219340
21
187.275750
0
LINE
8
boundary
62
5
39
2
10
28.219340
20
187.275750
11
27.422588
21
184.964752
0
LINE
8
boundary
62
5
39
2
10
27.422588
20
184.964752
11
26.606187
21
182.652415
0
LINE
8
boundary
62
5
39
2
10
26.606187
20
182.652415
11
25.770963
21
180.339046
0
LINE
8
boundary
62
5
39
2
10
25.770963
20
180.339046
11
24.917593
21
178.024935
0
LINE
8
boundary
62
5
39
2
10
24.917593
20
178.024935
11
24.046844
21
175.710243
0
LINE
8
boundary
62
5
39
2
10
24.046844
20
175.710243
11
23.159518
21
173.395368
0
LINE
8
boundary
62
5
39
2
10
23.159518
20
173.395368
11
22.256556
21
171.080601
0
LINE
8
boundary
62
5
39
2
10
22.256556
20
171.080601
11
21.338677
21
168.766290
0
LINE
8
boundary
62
5
39
2
10
21.338677
20
168.766290
11
20.406709
21
166.452646
0
LINE
8
boundary
62
5
39
2
10
20.406709
20
166.452646
11
18.504128
21
161.829347
0
LINE
8
boundary
62
5
39
2
10
18.504128
20
161.829347
11
16.555757
21
157.213777
0
LINE
8
boundary
62
5
39
2
10
16.555757
20
157.213777
11
14.569128
21
152.609642
0
LINE
8
boundary
62
5
39
2
10
14.569128
20
152.609642
11
13.438048
21
147.877860
0
LINE
8
boundary
62
5
39
2
10
13.438048
20
147.877860
11
12.303148
21
142.970945
0
LINE
8
boundary
62
5
39
2
10
12.303148
20
142.970945
11
11.743266
21
140.455391
0
LINE
8
boundary
62
5
39
2
10
11.743266
20
140.455391
11
11.193388
21
137.900463
0
LINE
8
boundary
62
5
39
2
10
11.193388
20
137.900463
11
10.657287
21
135.307655
0
LINE
8
boundary
62
5
39
2
10
10.657287
20
135.307655
11
10.138736
21
132.678729
0
LINE
8
boundary
62
5
39
2
10
10.138736
20
132.678729
11
9.641427
21
130.015377
0
LINE
8
boundary
62
5
39
2
10
9.641427
20
130.015377
11
9.169165
21
127.319392
0
LINE
8
boundary
62
5
39
2
10
9.169165
20
127.319392
11
8.725745
21
124.592661
0
LINE
8
boundary
62
5
39
2
10
8.725745
20
124.592661
11
8.315177
21
121.837067
0
LINE
8
boundary
62
5
39
2
10
8.315177
20
121.837067
11
7.941120
21
119.054720
0
LINE
8
boundary
62
5
39
2
10
7.941120
20
119.054720
11
7.607433
21
116.247693
0
LINE
8
boundary
62
5
39
2
10
7.607433
20
116.247693
11
7.318195
21
113.418271
0
LINE
8
boundary
62
5
39
2
10
7.318195
20
113.418271
11
7.077025
21
110.568736
0
LINE
8
boundary
62
5
39
2
10
7.077025
20
110.568736
11
6.887825
21
107.701476
0
LINE
8
boundary
62
5
39
2
10
6.887825
20
107.701476
11
6.754469
21
104.818983
0
LINE
8
boundary
62
5
39
2
10
6.754469
20
104.818983
11
6.680779
21
101.923885
0
LINE
8
boundary
62
5
39
2
10
6.680779
20
101.923885
11
6.667500
21
100.472473
0
LINE
8
boundary
62
5
39
2
10
6.667500
20
100.472473
11
6.670464
21
99.018973
0
LINE
8
boundary
62
5
39
2
10
6.670464
20
99.018973
11
6.690376
21
97.563644
0
LINE
8
boundary
62
5
39
2
10
6.690376
20
97.563644
11
6.727517
21
96.106978
0
LINE
8
boundary
62
5
39
2
10
6.727517
20
96.106978
11
6.782313
21
94.649327
0
LINE
8
boundary
62
5
39
2
10
6.782313
20
94.649327
11
6.855346
21
93.190997
0
LINE
8
boundary
62
5
39
2
10
6.855346
20
93.190997
11
6.947197
21
91.732422
0
LINE
8
boundary
62
5
39
2
10
6.947197
20
91.732422
11
7.058104
21
90.273945
0
LINE
8
boundary
62
5
39
2
10
7.058104
20
90.273945
11
7.188495
21
88.816130
0
LINE
8
boundary
62
5
39
2
10
7.188495
20
88.816130
11
7.338880
21
87.359103
0
LINE
8
boundary
62
5
39
2
10
7.338880
20
87.359103
11
7.509818
21
85.903569
0
LINE
8
boundary
62
5
39
2
10
7.509818
20
85.903569
11
7.701735
21
84.449854
0
LINE
8
boundary
62
5
39
2
10
7.701735
20
84.449854
11
7.914941
21
82.998371
0
LINE
8
boundary
62
5
39
2
10
7.914941
20
82.998371
11
8.149973
21
81.549555
0
LINE
8
boundary
62
5
39
2
10
8.149973
20
81.549555
11
8.407207
21
80.103859
0
LINE
8
boundary
62
5
39
2
10
8.407207
20
80.103859
11
8.687004
21
78.661746
0
LINE
8
boundary
62
5
39
2
10
8.687004
20
78.661746
11
8.990101
21
77.223756
0
LINE
8
boundary
62
5
39
2
10
8.990101
20
77.223756
11
9.316595
21
75.790251
0
LINE
8
boundary
62
5
39
2
10
9.316595
20
75.790251
11
9.666930
21
74.361762
0
LINE
8
boundary
62
5
39
2
10
9.666930
20
74.361762
11
10.041634
21
72.938821
0
LINE
8
boundary
62
5
39
2
10
10.041634
20
72.938821
11
10.440991
21
71.521817
0
LINE
8
boundary
62
5
39
2
10
10.440991
20
71.521817
11
10.865606
21
70.111379
0
LINE
8
boundary
62
5
39
2
10
10.865606
20
70.111379
11
11.315706
21
68.707968
0
LINE
8
boundary
62
5
39
2
10
11.315706
20
68.707968
11
11.791586
21
67.312098
0
LINE
8
boundary
62
5
39
2
10
11.791586
20
67.312098
11
12.293797
21
65.924310
0
LINE
8
boundary
62
5
39
2
10
12.293797
20
65.924310
11
12.822632
21
64.545155
0
LINE
8
boundary
62
5
39
2
10
12.822632
20
64.545155
11
13.082158
21
63.605212
0
LINE
8
boundary
62
5
39
2
10
13.082158
20
63.605212
11
13.947172
21
60.412845
0
LINE
8
boundary
62
5
39
2
10
13.947172
20
60.412845
11
14.228164
21
59.399301
0
LINE
8
boundary
62
5
39
2
10
14.228164
20
59.399301
11
15.135804
21
56.059308
0
LINE
8
boundary
62
5
39
2
10
15.135804
20
56.059308
11
15.289604
21
55.521790
0
LINE
8
boundary
62
5
39
2
10
15.289604
20
55.521790
11
15.767751
21
53.816457
0
LINE
8
boundary
62
5
39
2
10
15.767751
20
53.816457
11
15.930788
21
53.265922
0
LINE
8
boundary
62
5
39
2
10
15.930788
20
53.265922
11
16.431998
21
51.538903
0
LINE
8
boundary
62
5
39
2
10
16.431998
20
51.538903
11
16.605460
21
50.977591
0
LINE
8
boundary
62
5
39
2
10
16.605460
20
50.977591
11
17.133645
21
49.233787
0
LINE
8
boundary
62
5
39
2
10
17.133645
20
49.233787
11
17.318735
21
48.664141
0
LINE
8
boundary
62
5
39
2
10
17.318735
20
48.664141
11
17.878074
21
46.908499
0
LINE
8
boundary
62
5
39
2
10
17.878074
20
46.908499
11
18.075902
21
46.333167
0
LINE
8
boundary
62
5
39
2
10
18.075902
20
46.333167
11
18.670377
21
44.570569
0
LINE
8
boundary
62
5
39
2
10
18.670377
20
44.570569
11
18.881956
21
43.992330
0
LINE
8
boundary
62
5
39
2
10
18.881956
20
43.992330
11
19.515659
21
42.227761
0
LINE
8
boundary
62
5
39
2
10
19.515659
20
42.227761
11
19.741936
21
41.649560
0
LINE
8
boundary
62
5
39
2
10
19.741936
20
41.649560
11
20.418930
21
39.888029
0
LINE
8
boundary
62
5
39
2
10
20.418930
20
39.888029
11
20.893866
21
38.721831
0
LINE
8
boundary
62
5
39
2
10
20.893866
20
38.721831
11
21.385203
21
37.559436
0
LINE
8
boundary
62
5
39
2
10
21.385203
20
37.559436
11
21.893471
21
36.401920
0
LINE
8
boundary
62
5
39
2
10
21.893471
20
36.401920
11
22.419148
21
35.250319
0
LINE
8
boundary
62
5
39
2
10
22.419148
20
35.250319
11
22.963022
21
34.105672
0
LINE
8
boundary
62
5
39
2
10
22.963022
20
34.105672
11
23.525603
21
32.969099
0
LINE
8
boundary
62
5
39
2
10
23.525603
20
32.969099
11
24.107550
21
31.841649
0
LINE
8
boundary
62
5
39
2
10
24.107550
20
31.841649
11
24.709310
21
30.724507
0
LINE
8
boundary
62
5
39
2
10
24.709310
20
30.724507
11
25.331425
21
29.618583
0
LINE
8
boundary
62
5
39
2
10
25.331425
20
29.618583
11
25.974580
21
28.525097
0
LINE
8
boundary
62
5
39
2
10
25.974580
20
28.525097
11
26.639288
21
27.445267
0
LINE
8
boundary
62
5
39
2
10
26.639288
20
27.445267
11
27.326169
21
26.380079
0
LINE
8
boundary
62
5
39
2
10
27.326169
20
26.380079
11
28.035619
21
25.330693
0
LINE
8
boundary
62
5
39
2
10
28.035619
20
25.330693
11
28.768159
21
24.298272
0
LINE
8
boundary
62
5
39
2
10
28.768159
20
24.298272
11
29.524518
21
23.283923
0
LINE
8
boundary
62
5
39
2
10
29.524518
20
23.283923
11
29.708825
21
23.050980
0
LINE
8
annotation
62
1
39
211
10
44.354252
20
313.118754
11
44.354252
21
317.918754
0
LINE
8
annotation
62
1
39
211
10
44.354252
20
317.918754
11
43.287150
21
316.851352
0
LINE
8
annotation
62
1
39
211
10
49.442383
20
396.441587
11
47.409549
21
396.441587
0
LINE
8
annotation
62
1
39
211
10
47.409549
20
396.441587
11
49.287954
21
399.465579
0
LINE
8
annotation
62
1
39
211
10
49.287954
20
399.465579
11
49.287954
21
399.465579
0
LINE
8
annotation
62
1
39
211
10
49.287954
20
399.465579
11
49.290200
21
399.468358
0
LINE
8
annotation
62
1
39
211
10
49.290200
20
399.468358
11
49.292353
21
399.471160
0
LINE
8
annotation
62
1
39
211
10
49.292353
20
399.471160
11
49.294429
21
399.474010
0
LINE
8
annotation
62
1
39
211
10
49.294429
20
399.474010
11
49.296440
21
399.476930
0
LINE
8
annotation
62
1
39
211
10
49.296440
20
399.476930
11
49.298402
21
399.479945
0
LINE
8
annotation
62
1
39
211
10
49.298402
20
399.479945
11
49.300329
21
399.483078
0
LINE
8
annotation
62
1
39
211
10
49.300329
20
399.483078
11
49.302234
21
399.486353
0
LINE
8
annotation
62
1
39
211
10
49.302234
20
399.486353
11
49.304133
21
399.489793
0
LINE
8
annotation
62
1
39
211
10
49.304133
20
399.489793
11
49.306038
21
399.493422
0
LINE
8
annotation
62
1
39
211
10
49.306038
20
399.493422
11
49.306038
21
399.493422
0
LINE
8
annotation
62
1
39
211
10
49.306038
20
399.493422
11
49.383597
21
399.659948
0
LINE
8
annotation
62
1
39
211
10
49.383597
20
399.659948
11
49.428905
21
399.832566
0
LINE
8
annotation
62
1
39
211
10
49.428905
20
399.832566
11
49.443074
21
400.007377
0
LINE
8
annotation
62
1
39
211
10
49.443074
20
400.007377
11
49.427213
21
400.180480
0
LINE
8
annotation
62
1
39
211
10
49.427213
20
400.180480
11
49.382433
21
400.347974
0
LINE
8
annotation
62
1
39
211
10
49.382433
20
400.347974
11
49.309844
21
400.505959
0
LINE
8
annotation
62
1
39
211
10
49.309844
20
400.505959
11
49.210556
21
400.650535
0
LINE
8
annotation
62
1
39
211
10
49.210556
20
400.650535
11
49.085681
21
400.777800
0
LINE
8
annotation
62
1
39
211
10
49.085681
20
400.777800
11
48.936327
21
400.883856
0
LINE
8
annotation
62
1
39
211
10
48.936327
20
400.883856
11
48.936327
21
400.883856
0
LINE
8
annotation
62
1
39
211
10
48.936327
20
400.883856
11
48.769339
21
400.960312
0
LINE
8
annotation
62
1
39
211
10
48.769339
20
400.960312
11
48.596456
21
401.004923
0
LINE
8
annotation
62
1
39
211
10
48.596456
20
401.004923
11
48.421543
21
401.018691
0
LINE
8
annotation
62
1
39
211
10
48.421543
20
401.018691
11
48.248467
21
401.002621
0
LINE
8
annotation
62
1
39
211
10
48.248467
20
401.002621
11
48.081091
21
400.957717
0
LINE
8
annotation
62
1
39
211
10
48.081091
20
400.957717
11
47.923280
21
400.884982
0
LINE
8
annotation
62
1
39
211
10
47.923280
20
400.884982
11
47.778901
21
400.785422
0
LINE
8
annotation
62
1
39
211
10
47.778901
20
400.785422
11
47.651817
21
400.660040
0
LINE
8
annotation
62
1
39
211
10
47.651817
20
400.660040
11
47.545894
21
400.509839
0
LINE
8
annotation
62
1
39
211
10
47.545894
20
400.509839
11
47.412419
21
400.253797
0
LINE
8
annotation
62
1
39
211
10
76.451813
20
346.619720
11
74.036420
21
343.126076
0
LINE
8
annotation
62
1
39
211
10
74.036420
20
343.126076
11
71.620573
21
346.619720
0
LINE
8
annotation
62
1
39
211
10
74.036420
20
343.407220
11
74.036420
21
339.376721
0
LINE
8
annotation
62
1
39
211
10
83.128775
20
342.998220
11
79.168676
21
342.998220
0
LINE
8
annotation
62
1
39
211
10
89.061183
20
339.376889
11
85.844595
21
339.376889
0
LINE
8
annotation
62
1
39
211
10
85.844595
20
339.376889
11
88.816828
21
344.161801
0
LINE
8
annotation
62
1
39
211
10
88.816828
20
344.161801
11
88.816828
21
344.161801
0
LINE
8
annotation
62
1
39
211
10
88.816828
20
344.161801
11
88.820381
21
344.166198
0
LINE
8
annotation
62
1
39
211
10
88.820381
20
344.166198
11
88.823788
21
344.170632
0
LINE
8
annotation
62
1
39
211
10
88.823788
20
344.170632
11
88.827072
21
344.175141
0
LINE
8
annotation
62
1
39
211
10
88.827072
20
344.175141
11
88.830255
21
344.179762
0
LINE
8
annotation
62
1
39
211
10
88.830255
20
344.179762
11
88.833360
21
344.184533
0
LINE
8
annotation
62
1
39
211
10
88.833360
20
344.184533
11
88.836408
21
344.189490
0
LINE
8
annotation
62
1
39
211
10
88.836408
20
344.189490
11
88.839423
21
344.194672
0
LINE
8
annotation
62
1
39
211
10
88.839423
20
344.194672
11
88.842427
21
344.200116
0
LINE
8
annotation
62
1
39
211
10
88.842427
20
344.200116
11
88.845442
21
344.205858
0
LINE
8
annotation
62
1
39
211
10
88.845442
20
344.205858
11
88.845442
21
344.205858
0
LINE
8
annotation
62
1
39
211
10
88.845442
20
344.205858
11
88.968164
21
344.469354
0
LINE
8
annotation
62
1
39
211
10
88.968164
20
344.469354
11
89.039857
21
344.742491
0
LINE
8
annotation
62
1
39
211
10
89.039857
20
344.742491
11
89.062276
21
345.019097
0
LINE
8
annotation
62
1
39
211
10
89.062276
20
345.019097
11
89.037179
21
345.293000
0
LINE
8
annotation
62
1
39
211
10
89.037179
20
345.293000
11
88.966323
21
345.558029
0
LINE
8
annotation
62
1
39
211
10
88.966323
20
345.558029
11
88.851464
21
345.808012
0
LINE
8
annotation
62
1
39
211
10
88.851464
20
345.808012
11
88.694360
21
346.036776
0
LINE
8
annotation
62
1
39
211
10
88.694360
20
346.036776
11
88.496767
21
346.238151
0
LINE
8
annotation
62
1
39
211
10
88.496767
20
346.238151
11
88.260442
21
346.405964
0
LINE
8
annotation
62
1
39
211
10
88.260442
20
346.405964
11
88.260442
21
346.405964
0
LINE
8
annotation
62
1
39
211
10
88.260442
20
346.405964
11
87.996214
21
346.526943
0
LINE
8
annotation
62
1
39
211
10
87.996214
20
346.526943
11
87.722658
21
346.597531
0
LINE
8
annotation
62
1
39
211
10
87.722658
20
346.597531
11
87.445891
21
346.619316
0
LINE
8
annotation
62
1
39
211
10
87.445891
20
346.619316
11
87.172029
21
346.593888
0
LINE
8
annotation
62
1
39
211
10
87.172029
20
346.593888
11
86.907187
21
346.522836
0
LINE
8
annotation
62
1
39
211
10
86.907187
20
346.522836
11
86.657481
21
346.407747
0
LINE
8
annotation
62
1
39
211
10
86.657481
20
346.407747
11
86.429027
21
346.250211
0
LINE
8
annotation
62
1
39
211
10
86.429027
20
346.250211
11
86.227940
21
346.051816
0
LINE
8
annotation
62
1
39
211
10
86.227940
20
346.051816
11
86.060336
21
345.814152
0
LINE
8
annotation
62
1
39
211
10
86.060336
20
345.814152
11
85.849137
21
345.409013
0
LINE
8
annotation
62
1
39
211
10
95.799100
20
340.987058
11
91.777684
21
340.987058
0
LINE
8
annotation
62
1
39
211
10
91.777684
20
340.987058
11
93.383707
21
346.619493
0
LINE
8
annotation
62
1
39
211
10
94.593674
20
339.376948
11
94.593674
21
342.593535
0
LINE
8
frame
62
5
39
2
10
0.000000
20
0.000000
11
215.900000
21
0.000000
0
LINE
8
frame
62
5
39
2
10
215.900000
20
0.000000
11
215.900000
21
279.400000
0
LINE
8
frame
62
5
39
2
10
215.900000
20
279.400000
11
0.000000
21
279.400000
0
LINE
8
frame
62
5
39
2
10
0.000000
20
279.400000
11
0.000000
21
0.000000
0
ENDSEC
0
EOF
