0
SECTION
2
HEADER
9
$ACADVER
1
AC1009
0
ENDSEC
0
SECTION
2
TABLES
0
TABLE
2
VPORT
70
1
0
VPORT
2
ACTIVE
70
0
10
0.0
20
0.0
11
0.0
21
0.0
12
0.0
22
0.0
13
0.0
23
0.0
14
0.0
24
0.0
15
0.0
25
0.0
16
0.0
26
0.0
36
0.0
17
0.0
27
0.0
37
0.0
40
0.0
41
0.0
42
0.0
43
0.0
44
0.0
50
0.0
51
0.0
71
0
72
1000
73
1
74
3
75
0
76
0
77
0
78
0
0
ENDTAB
0
ENDSEC
0
SECTION
2
ENTITIES
0
LINE
8
boundary
62
5
39
2
10
55.123499
20
9.143745
11
55.680037
21
9.643181
0
LINE
8
boundary
62
5
39
2
10
55.680037
20
9.643181
11
56.231461
21
10.220316
0
LINE
8
boundary
62
5
39
2
10
56.231461
20
10.220316
11
56.739535
21
10.849663
0
LINE
8
boundary
62
5
39
2
10
56.739535
20
10.849663
11
57.198437
21
11.531138
0
LINE
8
boundary
62
5
39
2
10
57.198437
20
11.531138
11
57.602021
21
12.264668
0
LINE
8
boundary
62
5
39
2
10
57.602021
20
12.264668
11
57.944273
21
13.050338
0
LINE
8
boundary
62
5
39
2
10
57.944273
20
13.050338
11
58.219253
21
13.888116
0
LINE
8
boundary
62
5
39
2
10
58.219253
20
13.888116
11
58.421089
21
14.778206
0
LINE
8
boundary
62
5
39
2
10
58.421089
20
14.778206
11
58.499110
21
15.282644
0
LINE
8
boundary
62
5
39
2
10
58.499110
20
15.282644
11
58.573317
21
16.211731
0
LINE
8
boundary
62
5
39
2
10
58.573317
20
16.211731
11
58.581773
21
16.757536
0
LINE
8
boundary
62
5
39
2
10
58.581773
20
16.757536
11
58.564706
21
17.275685
0
LINE
8
boundary
62
5
39
2
10
58.564706
20
17.275685
11
58.523953
21
17.807216
0
LINE
8
boundary
62
5
39
2
10
58.523953
20
17.807216
11
58.458817
21
18.352280
0
LINE
8
boundary
62
5
39
2
10
58.458817
20
18.352280
11
58.375036
21
18.867210
0
LINE
8
boundary
62
5
39
2
10
58.375036
20
18.867210
11
58.260666
21
19.438997
0
LINE
8
boundary
62
5
39
2
10
58.260666
20
19.438997
11
58.119610
21
20.024664
0
LINE
8
boundary
62
5
39
2
10
58.119610
20
20.024664
11
57.951045
21
20.624411
0
LINE
8
boundary
62
5
39
2
10
57.951045
20
20.624411
11
57.754327
21
21.238307
0
LINE
8
boundary
62
5
39
2
10
57.754327
20
21.238307
11
57.528410
21
21.866578
0
LINE
8
boundary
62
5
39
2
10
57.528410
20
21.866578
11
57.272736
21
22.509470
0
LINE
8
boundary
62
5
39
2
10
57.272736
20
22.509470
11
56.576155
21
22.914677
0
LINE
8
boundary
62
5
39
2
10
56.576155
20
22.914677
11
55.844829
21
23.337314
0
LINE
8
boundary
62
5
39
2
10
55.844829
20
23.337314
11
55.113487
21
23.798871
0
LINE
8
boundary
62
5
39
2
10
55.113487
20
23.798871
11
54.382454
21
24.299006
0
LINE
8
boundary
62
5
39
2
10
54.382454
20
24.299006
11
53.652196
21
24.837409
0
LINE
8
boundary
62
5
39
2
10
53.652196
20
24.837409
11
52.922966
21
25.413549
0
LINE
8
boundary
62
5
39
2
10
52.922966
20
25.413549
11
52.195235
21
26.027018
0
LINE
8
boundary
62
5
39
2
10
52.195235
20
26.027018
11
51.469258
21
26.677484
0
LINE
8
boundary
62
5
39
2
10
51.469258
20
26.677484
11
50.745327
21
27.364489
0
LINE
8
boundary
62
5
39
2
10
50.745327
20
27.364489
11
50.023923
21
28.087467
0
LINE
8
boundary
62
5
39
2
10
50.023923
20
28.087467
11
49.305166
21
28.845955
0
LINE
8
boundary
62
5
39
2
10
49.305166
20
28.845955
11
48.589849
21
29.639499
0
LINE
8
boundary
62
5
39
2
10
48.589849
20
29.639499
11
47.877786
21
30.467574
0
LINE
8
boundary
62
5
39
2
10
47.877786
20
30.467574
11
47.169565
21
31.329680
0
LINE
8
boundary
62
5
39
2
10
47.169565
20
31.329680
11
46.465462
21
32.225256
0
LINE
8
boundary
62
5
39
2
10
46.465462
20
32.225256
11
45.765980
21
33.153674
0
LINE
8
boundary
62
5
39
2
10
45.765980
20
33.153674
11
45.071336
21
34.114542
0
LINE
8
boundary
62
5
39
2
10
45.071336
20
34.114542
11
44.381923
21
35.107154
0
LINE
8
boundary
62
5
39
2
10
44.381923
20
35.107154
11
43.698019
21
36.130976
0
LINE
8
boundary
62
5
39
2
10
43.698019
20
36.130976
11
43.019979
21
37.185444
0
LINE
8
boundary
62
5
39
2
10
43.019979
20
37.185444
11
42.348198
21
38.269911
0
LINE
8
boundary
62
5
39
2
10
42.348198
20
38.269911
11
41.683093
21
39.383821
0
LINE
8
boundary
62
5
39
2
10
41.683093
20
39.383821
11
41.024808
21
40.526486
0
LINE
8
boundary
62
5
39
2
10
41.024808
20
40.526486
11
40.373810
21
41.697352
0
LINE
8
boundary
62
5
39
2
10
40.373810
20
41.697352
11
39.730505
21
42.895848
0
LINE
8
boundary
62
5
39
2
10
39.730505
20
42.895848
11
39.095204
21
44.121194
0
LINE
8
boundary
62
5
39
2
10
39.095204
20
44.121194
11
38.468271
21
45.372832
0
LINE
8
boundary
62
5
39
2
10
38.468271
20
45.372832
11
37.850102
21
46.650201
0
LINE
8
boundary
62
5
39
2
10
37.850102
20
46.650201
11
37.241095
21
47.952611
0
LINE
8
boundary
62
5
39
2
10
37.241095
20
47.952611
11
36.641477
21
49.279382
0
LINE
8
boundary
62
5
39
2
10
36.641477
20
49.279382
11
36.051753
21
50.629957
0
LINE
8
boundary
62
5
39
2
10
36.051753
20
50.629957
11
35.472230
21
52.003609
0
LINE
8
boundary
62
5
39
2
10
35.472230
20
52.003609
11
34.903385
21
53.399738
0
LINE
8
boundary
62
5
39
2
10
34.903385
20
53.399738
11
34.345563
21
54.817755
0
LINE
8
boundary
62
5
39
2
10
34.345563
20
54.817755
11
33.799087
21
56.256929
0
LINE
8
boundary
62
5
39
2
10
33.799087
20
56.256929
11
33.264500
21
57.716744
0
LINE
8
boundary
62
5
39
2
10
33.264500
20
57.716744
11
32.742158
21
59.196465
0
LINE
8
boundary
62
5
39
2
10
32.742158
20
59.196465
11
32.232481
21
60.695527
0
LINE
8
boundary
62
5
39
2
10
32.232481
20
60.695527
11
31.735767
21
62.213295
0
LINE
8
boundary
62
5
39
2
10
31.735767
20
62.213295
11
31.252433
21
63.749135
0
LINE
8
boundary
62
5
39
2
10
31.252433
20
63.749135
11
30.783000
21
65.302476
0
LINE
8
boundary
62
5
39
2
10
30.783000
20
65.302476
11
30.327859
21
66.872721
0
LINE
8
boundary
62
5
39
2
10
30.327859
20
66.872721
11
29.887500
21
68.459199
0
LINE
8
boundary
62
5
39
2
10
29.887500
20
68.459199
11
29.462112
21
70.061457
0
LINE
8
boundary
62
5
39
2
10
29.462112
20
70.061457
11
29.052441
21
71.678749
0
LINE
8
boundary
62
5
39
2
10
29.052441
20
71.678749
11
28.658767
21
73.310613
0
LINE
8
boundary
62
5
39
2
10
28.658767
20
73.310613
11
28.281485
21
74.956442
0
LINE
8
boundary
62
5
39
2
10
28.281485
20
74.956442
11
27.921124
21
76.615688
0
LINE
8
boundary
62
5
39
2
10
27.921124
20
76.615688
11
27.704138
21
77.673243
0
LINE
8
boundary
62
5
39
2
10
27.704138
20
77.673243
11
27.574518
21
78.286396
0
LINE
8
boundary
62
5
39
2
10
27.574518
20
78.286396
11
27.239462
21
79.966699
0
LINE
8
boundary
62
5
39
2
10
27.239462
20
79.966699
11
26.922399
21
81.658524
0
LINE
8
boundary
62
5
39
2
10
26.922399
20
81.658524
11
26.623752
21
83.361357
0
LINE
8
boundary
62
5
39
2
10
26.623752
20
83.361357
11
26.344030
21
85.074654
0
LINE
8
boundary
62
5
39
2
10
26.344030
20
85.074654
11
26.083523
21
86.798014
0
LINE
8
boundary
62
5
39
2
10
26.083523
20
86.798014
11
25.842766
21
88.530803
0
LINE
8
boundary
62
5
39
2
10
25.842766
20
88.530803
11
25.622239
21
90.272620
0
LINE
8
boundary
62
5
39
2
10
25.622239
20
90.272620
11
25.422239
21
92.023077
0
LINE
8
boundary
62
5
39
2
10
25.422239
20
92.023077
11
25.243381
21
93.781674
0
LINE
8
boundary
62
5
39
2
10
25.243381
20
93.781674
11
25.085909
21
95.547902
0
LINE
8
boundary
62
5
39
2
10
25.085909
20
95.547902
11
24.950452
21
97.321409
0
LINE
8
boundary
62
5
39
2
10
24.950452
20
97.321409
11
24.837250
21
99.101814
0
LINE
8
boundary
62
5
39
2
10
24.837250
20
99.101814
11
24.746680
21
100.888671
0
LINE
8
boundary
62
5
39
2
10
24.746680
20
100.888671
11
24.679454
21
102.681599
0
LINE
8
boundary
62
5
39
2
10
24.679454
20
102.681599
11
24.635794
21
104.480141
0
LINE
8
boundary
62
5
39
2
10
24.635794
20
104.480141
11
24.498850
21
105.917282
0
LINE
8
boundary
62
5
39
2
10
24.498850
20
105.917282
11
24.375396
21
107.347235
0
LINE
8
boundary
62
5
39
2
10
24.375396
20
107.347235
11
24.264860
21
108.770219
0
LINE
8
boundary
62
5
39
2
10
24.264860
20
108.770219
11
24.167479
21
110.186114
0
LINE
8
boundary
62
5
39
2
10
24.167479
20
110.186114
11
24.082909
21
111.595134
0
LINE
8
boundary
62
5
39
2
10
24.082909
20
111.595134
11
24.011040
21
112.997352
0
LINE
8
boundary
62
5
39
2
10
24.011040
20
112.997352
11
23.904942
21
115.781578
0
LINE
8
boundary
62
5
39
2
10
23.904942
20
115.781578
11
23.847910
21
118.539459
0
LINE
8
boundary
62
5
39
2
10
23.847910
20
118.539459
11
23.838986
21
121.271526
0
LINE
8
boundary
62
5
39
2
10
23.838986
20
121.271526
11
23.876791
21
123.978469
0
LINE
8
boundary
62
5
39
2
10
23.876791
20
123.978469
11
23.960047
21
126.661032
0
LINE
8
boundary
62
5
39
2
10
23.960047
20
126.661032
11
24.087669
21
129.319759
0
LINE
8
boundary
62
5
39
2
10
24.087669
20
129.319759
11
24.258328
21
131.955310
0
LINE
8
boundary
62
5
39
2
10
24.258328
20
131.955310
11
24.470586
21
134.568381
0
LINE
8
boundary
62
5
39
2
10
24.470586
20
134.568381
11
24.723131
21
137.159574
0
LINE
8
boundary
62
5
39
2
10
24.723131
20
137.159574
11
25.014607
21
139.729510
0
LINE
8
boundary
62
5
39
2
10
25.014607
20
139.729510
11
25.343706
21
142.278855
0
LINE
8
boundary
62
5
39
2
10
25.343706
20
142.278855
11
25.708982
21
144.808091
0
LINE
8
boundary
62
5
39
2
10
25.708982
20
144.808091
11
26.109181
21
147.318007
0
LINE
8
boundary
62
5
39
2
10
26.109181
20
147.318007
11
26.542686
21
149.809029
0
LINE
8
boundary
62
5
39
2
10
26.542686
20
149.809029
11
26.637396
21
150.317297
0
LINE
8
boundary
62
5
39
2
10
26.637396
20
150.317297
11
27.008098
21
152.281780
0
LINE
8
boundary
62
5
39
2
10
27.008098
20
152.281780
11
27.112047
21
152.800770
0
LINE
8
boundary
62
5
39
2
10
27.112047
20
152.800770
11
27.503958
21
154.736801
0
LINE
8
boundary
62
5
39
2
10
27.503958
20
154.736801
11
27.617094
21
155.265755
0
LINE
8
boundary
62
5
39
2
10
27.617094
20
155.265755
11
28.028991
21
157.174724
0
LINE
8
boundary
62
5
39
2
10
28.028991
20
157.174724
11
28.151124
21
157.712885
0
LINE
8
boundary
62
5
39
2
10
28.151124
20
157.712885
11
28.581601
21
159.595928
0
LINE
8
boundary
62
5
39
2
10
28.581601
20
159.595928
11
28.712565
21
160.142570
0
LINE
8
boundary
62
5
39
2
10
28.712565
20
160.142570
11
29.160383
21
162.000993
0
LINE
8
boundary
62
5
39
2
10
29.160383
20
162.000993
11
29.299892
21
162.555382
0
LINE
8
boundary
62
5
39
2
10
29.299892
20
162.555382
11
29.763780
21
164.390452
0
LINE
8
boundary
62
5
39
2
10
29.763780
20
164.390452
11
29.911583
21
164.951870
0
LINE
8
boundary
62
5
39
2
10
29.911583
20
164.951870
11
30.390414
21
166.764683
0
LINE
8
boundary
62
5
39
2
10
30.390414
20
166.764683
11
30.546200
21
167.332448
0
LINE
8
boundary
62
5
39
2
10
30.546200
20
167.332448
11
31.038911
21
169.124178
0
LINE
8
boundary
62
5
39
2
10
31.038911
20
169.124178
11
31.202299
21
169.697627
0
LINE
8
boundary
62
5
39
2
10
31.202299
20
169.697627
11
31.707677
21
171.469433
0
LINE
8
boundary
62
5
39
2
10
31.707677
20
171.469433
11
31.878284
21
172.047901
0
LINE
8
boundary
62
5
39
2
10
31.878284
20
172.047901
11
32.395299
21
173.800737
0
LINE
8
boundary
62
5
39
2
10
32.395299
20
173.800737
11
32.572703
21
174.383602
0
LINE
8
boundary
62
5
39
2
10
32.572703
20
174.383602
11
33.100332
21
176.118600
0
LINE
8
boundary
62
5
39
2
10
33.100332
20
176.118600
11
33.284092
21
176.705257
0
LINE
8
boundary
62
5
39
2
10
33.284092
20
176.705257
11
33.821283
21
178.423382
0
LINE
8
boundary
62
5
39
2
10
33.821283
20
178.423382
11
34.010978
21
179.013249
0
LINE
8
boundary
62
5
39
2
10
34.010978
20
179.013249
11
34.556894
21
180.715408
0
LINE
8
boundary
62
5
39
2
10
34.556894
20
180.715408
11
34.751956
21
181.307912
0
LINE
8
boundary
62
5
39
2
10
34.751956
20
181.307912
11
35.305447
21
182.995109
0
LINE
8
boundary
62
5
39
2
10
35.305447
20
182.995109
11
35.505481
21
183.589724
0
LINE
8
boundary
62
5
39
2
10
35.505481
20
183.589724
11
36.065756
21
185.262674
0
LINE
8
boundary
62
5
39
2
10
36.065756
20
185.262674
11
36.270203
21
185.858889
0
LINE
8
boundary
62
5
39
2
10
36.270203
20
185.858889
11
36.836264
21
187.518582
0
LINE
8
boundary
62
5
39
2
10
36.836264
20
187.518582
11
37.044650
21
188.115895
0
LINE
8
boundary
62
5
39
2
10
37.044650
20
188.115895
11
37.615803
21
189.763055
0
LINE
8
boundary
62
5
39
2
10
37.615803
20
189.763055
11
37.827577
21
190.360993
0
LINE
8
boundary
62
5
39
2
10
37.827577
20
190.360993
11
38.402679
21
191.996367
0
LINE
8
boundary
62
5
39
2
10
38.402679
20
191.996367
11
38.617398
21
192.594492
0
LINE
8
boundary
62
5
39
2
10
38.617398
20
192.594492
11
39.195865
21
194.218834
0
LINE
8
boundary
62
5
39
2
10
39.195865
20
194.218834
11
39.412957
21
194.816683
0
LINE
8
boundary
62
5
39
2
10
39.412957
20
194.816683
11
39.993831
21
196.430612
0
LINE
8
boundary
62
5
39
2
10
39.993831
20
196.430612
11
40.212761
21
197.027826
0
LINE
8
boundary
62
5
39
2
10
40.212761
20
197.027826
11
40.795098
21
198.632028
0
LINE
8
boundary
62
5
39
2
10
40.795098
20
198.632028
11
41.232137
21
199.810803
0
LINE
8
boundary
62
5
39
2
10
41.232137
20
199.810803
11
42.403086
21
203.004491
0
LINE
8
boundary
62
5
39
2
10
42.403086
20
203.004491
11
42.841848
21
204.176791
0
LINE
8
boundary
62
5
39
2
10
42.841848
20
204.176791
11
44.009615
21
207.337795
0
LINE
8
boundary
62
5
39
2
10
44.009615
20
207.337795
11
44.446349
21
208.501049
0
LINE
8
boundary
62
5
39
2
10
44.446349
20
208.501049
11
45.604784
21
211.633286
0
LINE
8
boundary
62
5
39
2
10
45.604784
20
211.633286
11
46.035945
21
212.785226
0
LINE
8
boundary
62
5
39
2
10
46.035945
20
212.785226
11
47.179095
21
215.892211
0
LINE
8
boundary
62
5
39
2
10
47.179095
20
215.892211
11
47.601368
21
217.030818
0
LINE
8
boundary
62
5
39
2
10
47.601368
20
217.030818
11
48.723465
21
220.115400
0
LINE
8
boundary
62
5
39
2
10
48.723465
20
220.115400
11
49.517068
21
222.311163
0
LINE
8
boundary
62
5
39
2
10
49.517068
20
222.311163
11
51.688158
21
228.457937
0
LINE
8
boundary
62
5
39
2
10
51.688158
20
228.457937
11
52.415904
21
230.587469
0
LINE
8
boundary
62
5
39
2
10
52.415904
20
230.587469
11
54.434817
21
236.665603
0
LINE
8
boundary
62
5
39
2
10
54.434817
20
236.665603
11
54.772608
21
237.715247
0
LINE
8
boundary
62
5
39
2
10
54.772608
20
237.715247
11
55.708307
21
240.719895
0
LINE
8
boundary
62
5
39
2
10
55.708307
20
240.719895
11
56.023141
21
241.748771
0
LINE
8
boundary
62
5
39
2
10
56.023141
20
241.748771
11
56.906170
21
244.741437
0
LINE
8
boundary
62
5
39
2
10
56.906170
20
244.741437
11
57.196724
21
245.748947
0
LINE
8
boundary
62
5
39
2
10
57.196724
20
245.748947
11
58.022600
21
248.730402
0
LINE
8
boundary
62
5
39
2
10
58.022600
20
248.730402
11
58.158964
21
249.228216
0
LINE
8
boundary
62
5
39
2
10
58.158964
20
249.228216
11
58.548320
21
250.712779
0
LINE
8
boundary
62
5
39
2
10
58.548320
20
250.712779
11
58.678143
21
251.204968
0
LINE
8
boundary
62
5
39
2
10
58.678143
20
251.204968
11
59.051575
21
252.687106
0
LINE
8
boundary
62
5
39
2
10
59.051575
20
252.687106
11
59.248912
21
253.477455
0
LINE
8
boundary
62
5
39
2
10
59.248912
20
253.477455
11
59.823775
21
255.896232
0
LINE
8
boundary
62
5
39
2
10
59.823775
20
255.896232
11
60.009781
21
256.700476
0
LINE
8
boundary
62
5
39
2
10
60.009781
20
256.700476
11
60.558052
21
259.203400
0
LINE
8
boundary
62
5
39
2
10
60.558052
20
259.203400
11
60.908279
21
260.891563
0
LINE
8
boundary
62
5
39
2
10
60.908279
20
260.891563
11
61.245837
21
262.601601
0
LINE
8
boundary
62
5
39
2
10
61.245837
20
262.601601
11
61.569601
21
264.332709
0
LINE
8
boundary
62
5
39
2
10
61.569601
20
264.332709
11
61.878867
21
266.084034
0
LINE
8
boundary
62
5
39
2
10
61.878867
20
266.084034
11
62.172375
21
267.854693
0
LINE
8
boundary
62
5
39
2
10
62.172375
20
267.854693
11
62.449473
21
269.643935
0
LINE
8
boundary
62
5
39
2
10
62.449473
20
269.643935
11
62.709109
21
271.450861
0
LINE
8
boundary
62
5
39
2
10
62.709109
20
271.450861
11
62.950648
21
273.274760
0
LINE
8
boundary
62
5
39
2
10
62.950648
20
273.274760
11
63.172953
21
275.114717
0
LINE
8
boundary
62
5
39
2
10
63.172953
20
275.114717
11
63.375412
21
276.969955
0
LINE
8
boundary
62
5
39
2
10
63.375412
20
276.969955
11
63.557123
21
278.839751
0
LINE
8
boundary
62
5
39
2
10
63.557123
20
278.839751
11
63.717481
21
280.723326
0
LINE
8
boundary
62
5
39
2
10
63.717481
20
280.723326
11
63.855776
21
282.619834
0
LINE
8
boundary
62
5
39
2
10
63.855776
20
282.619834
11
63.971208
21
284.528641
0
LINE
8
boundary
62
5
39
2
10
63.971208
20
284.528641
11
64.063083
21
286.448903
0
LINE
8
boundary
62
5
39
2
10
64.063083
20
286.448903
11
64.130782
21
288.379984
0
LINE
8
boundary
62
5
39
2
10
64.130782
20
288.379984
11
64.173709
21
290.321096
0
LINE
8
boundary
62
5
39
2
10
64.173709
20
290.321096
11
64.191135
21
292.271658
0
LINE
8
boundary
62
5
39
2
10
64.191135
20
292.271658
11
64.182601
21
294.230766
0
LINE
8
boundary
62
5
39
2
10
64.182601
20
294.230766
11
64.147353
21
296.197995
0
LINE
8
boundary
62
5
39
2
10
64.147353
20
296.197995
11
64.084873
21
298.172579
0
LINE
8
boundary
62
5
39
2
10
64.084873
20
298.172579
11
63.994681
21
300.153880
0
LINE
8
boundary
62
5
39
2
10
63.994681
20
300.153880
11
63.876179
21
302.141271
0
LINE
8
boundary
62
5
39
2
10
63.876179
20
302.141271
11
63.728711
21
304.134138
0
LINE
8
boundary
62
5
39
2
10
63.728711
20
304.134138
11
63.551924
21
306.131883
0
LINE
8
boundary
62
5
39
2
10
63.551924
20
306.131883
11
63.344999
21
308.133896
0
LINE
8
boundary
62
5
39
2
10
63.344999
20
308.133896
11
63.107685
21
310.139684
0
LINE
8
boundary
62
5
39
2
10
63.107685
20
310.139684
11
62.839295
21
312.148621
0
LINE
8
boundary
62
5
39
2
10
62.839295
20
312.148621
11
62.539289
21
314.160151
0
LINE
8
boundary
62
5
39
2
10
62.539289
20
314.160151
11
62.207234
21
316.173792
0
LINE
8
boundary
62
5
39
2
10
62.207234
20
316.173792
11
61.842422
21
318.188913
0
LINE
8
boundary
62
5
39
2
10
61.842422
20
318.188913
11
61.444460
21
320.205149
0
LINE
8
boundary
62
5
39
2
10
61.444460
20
320.205149
11
61.012734
21
322.221870
0
LINE
8
boundary
62
5
39
2
10
61.012734
20
322.221870
11
60.546627
21
324.238574
0
LINE
8
boundary
62
5
39
2
10
60.546627
20
324.238574
11
60.045604
21
326.254925
0
LINE
8
boundary
62
5
39
2
10
60.045604
20
326.254925
11
59.509048
21
328.270317
0
LINE
8
boundary
62
5
39
2
10
59.509048
20
328.270317
11
58.936435
21
330.284266
0
LINE
8
boundary
62
5
39
2
10
58.936435
20
330.284266
11
58.327075
21
332.296410
0
LINE
8
boundary
62
5
39
2
10
58.327075
20
332.296410
11
57.680316
21
334.306104
0
LINE
8
boundary
62
5
39
2
10
57.680316
20
334.306104
11
56.995666
21
336.313203
0
LINE
8
boundary
62
5
39
2
10
56.995666
20
336.313203
11
56.638827
21
337.315524
0
LINE
8
boundary
62
5
39
2
10
56.638827
20
337.315524
11
56.272292
21
338.316954
0
LINE
8
boundary
62
5
39
2
10
56.272292
20
338.316954
11
55.895988
21
339.317551
0
LINE
8
boundary
62
5
39
2
10
55.895988
20
339.317551
11
55.509661
21
340.317033
0
LINE
8
boundary
62
5
39
2
10
55.509661
20
340.317033
11
55.113406
21
341.315637
0
LINE
8
boundary
62
5
39
2
10
55.113406
20
341.315637
11
54.707091
21
342.313092
0
LINE
8
boundary
62
5
39
2
10
54.707091
20
342.313092
11
54.290542
21
343.309340
0
LINE
8
boundary
62
5
39
2
10
54.290542
20
343.309340
11
53.863771
21
344.304515
0
LINE
8
boundary
62
5
39
2
10
53.863771
20
344.304515
11
53.426631
21
345.298388
0
LINE
8
boundary
62
5
39
2
10
53.426631
20
345.298388
11
52.979073
21
346.291040
0
LINE
8
boundary
62
5
39
2
10
52.979073
20
346.291040
11
52.521005
21
347.282158
0
LINE
8
boundary
62
5
39
2
10
52.521005
20
347.282158
11
52.052276
21
348.272007
0
LINE
8
boundary
62
5
39
2
10
52.052276
20
348.272007
11
51.572901
21
349.260326
0
LINE
8
boundary
62
5
39
2
10
51.572901
20
349.260326
11
51.082648
21
350.247102
0
LINE
8
boundary
62
5
39
2
10
51.082648
20
350.247102
11
50.581530
21
351.232381
0
LINE
8
boundary
62
5
39
2
10
50.581530
20
351.232381
11
50.069411
21
352.215893
0
LINE
8
boundary
62
5
39
2
10
50.069411
20
352.215893
11
49.546231
21
353.197903
0
LINE
8
boundary
62
5
39
2
10
49.546231
20
353.197903
11
49.011886
21
354.177981
0
LINE
8
boundary
62
5
39
2
10
49.011886
20
354.177981
11
48.466190
21
355.156347
0
LINE
8
boundary
62
5
39
2
10
48.466190
20
355.156347
11
47.909267
21
356.132919
0
LINE
8
boundary
62
5
39
2
10
47.909267
20
356.132919
11
47.340763
21
357.107551
0
LINE
8
boundary
62
5
39
2
10
47.340763
20
357.107551
11
46.760640
21
358.080165
0
LINE
8
boundary
62
5
39
2
10
46.760640
20
358.080165
11
46.168935
21
359.050711
0
LINE
8
boundary
62
5
39
2
10
46.168935
20
359.050711
11
45.565434
21
360.019247
0
LINE
8
boundary
62
5
39
2
10
45.565434
20
360.019247
11
44.950055
21
360.985637
0
LINE
8
boundary
62
5
39
2
10
44.950055
20
360.985637
11
44.322758
21
361.949820
0
LINE
8
boundary
62
5
39
2
10
44.322758
20
361.949820
11
43.683249
21
362.911756
0
LINE
8
boundary
62
5
39
2
10
43.683249
20
362.911756
11
43.031730
21
363.871409
0
LINE
8
boundary
62
5
39
2
10
43.031730
20
363.871409
11
42.367861
21
364.828619
0
LINE
8
boundary
62
5
39
2
10
42.367861
20
364.828619
11
41.691677
21
365.783393
0
LINE
8
boundary
62
5
39
2
10
41.691677
20
365.783393
11
41.003016
21
366.735772
0
LINE
8
boundary
62
5
39
2
10
41.003016
20
366.735772
11
40.301760
21
367.685660
0
LINE
8
boundary
62
5
39
2
10
40.301760
20
367.685660
11
39.587836
21
368.632774
0
LINE
8
boundary
62
5
39
2
10
39.587836
20
368.632774
11
38.861110
21
369.577350
0
LINE
8
boundary
62
5
39
2
10
38.861110
20
369.577350
11
38.121548
21
370.519135
0
LINE
8
boundary
62
5
39
2
10
38.121548
20
370.519135
11
37.369099
21
371.458200
0
LINE
8
boundary
62
5
39
2
10
37.369099
20
371.458200
11
36.603437
21
372.394301
0
LINE
8
boundary
62
5
39
2
10
36.603437
20
372.394301
11
35.824589
21
373.327558
0
LINE
8
boundary
62
5
39
2
10
35.824589
20
373.327558
11
35.032600
21
374.257942
0
LINE
8
boundary
62
5
39
2
10
35.032600
20
374.257942
11
34.227195
21
375.185182
0
LINE
8
boundary
62
5
39
2
10
34.227195
20
375.185182
11
33.976200
21
375.729908
0
LINE
8
boundary
62
5
39
2
10
33.976200
20
375.729908
11
33.751190
21
376.249661
0
LINE
8
boundary
62
5
39
2
10
33.751190
20
376.249661
11
33.551456
21
376.745016
0
LINE
8
boundary
62
5
39
2
10
33.551456
20
376.745016
11
33.352970
21
377.286455
0
LINE
8
boundary
62
5
39
2
10
33.352970
20
377.286455
11
33.098149
21
378.089144
0
LINE
8
boundary
62
5
39
2
10
33.098149
20
378.089144
11
32.911840
21
378.871632
0
LINE
8
boundary
62
5
39
2
10
32.911840
20
378.871632
11
32.812762
21
379.567522
0
LINE
8
boundary
62
5
39
2
10
32.812762
20
379.567522
11
32.796415
21
380.180608
0
LINE
8
boundary
62
5
39
2
10
32.796415
20
380.180608
11
32.858276
21
380.714467
0
LINE
8
boundary
62
5
39
2
10
32.858276
20
380.714467
11
33.007714
21
381.202315
0
LINE
8
boundary
62
5
39
2
10
33.007714
20
381.202315
11
33.325528
21
381.726553
0
LINE
8
boundary
62
5
39
2
10
33.325528
20
381.726553
11
33.797914
21
382.130869
0
LINE
8
boundary
62
5
39
2
10
33.797914
20
382.130869
11
34.396039
21
382.398164
0
LINE
8
boundary
62
5
39
2
10
34.396039
20
382.398164
11
34.891889
21
382.511065
0
LINE
8
boundary
62
5
39
2
10
34.891889
20
382.511065
11
35.400729
21
382.563827
0
LINE
8
boundary
62
5
39
2
10
35.400729
20
382.563827
11
35.910387
21
382.570445
0
LINE
8
boundary
62
5
39
2
10
35.910387
20
382.570445
11
36.493403
21
382.533839
0
LINE
8
boundary
62
5
39
2
10
36.493403
20
382.533839
11
37.426258
21
382.403272
0
LINE
8
boundary
62
5
39
2
10
37.426258
20
382.403272
11
38.080913
21
382.271009
0
LINE
8
boundary
62
5
39
2
10
38.080913
20
382.271009
11
38.756562
21
382.106978
0
LINE
8
boundary
62
5
39
2
10
38.756562
20
382.106978
11
39.448930
21
381.914572
0
LINE
8
boundary
62
5
39
2
10
39.448930
20
381.914572
11
40.153807
21
381.697648
0
LINE
8
boundary
62
5
39
2
10
40.153807
20
381.697648
11
40.866796
21
381.459598
0
LINE
8
boundary
62
5
39
2
10
40.866796
20
381.459598
11
41.583694
21
381.204136
0
LINE
8
boundary
62
5
39
2
10
41.583694
20
381.204136
11
42.300162
21
380.934856
0
LINE
8
boundary
62
5
39
2
10
42.300162
20
380.934856
11
43.011922
21
380.655371
0
LINE
8
boundary
62
5
39
2
10
43.011922
20
380.655371
11
44.404562
21
380.080475
0
LINE
8
boundary
62
5
39
2
10
44.404562
20
380.080475
11
45.727666
21
379.508147
0
LINE
8
boundary
62
5
39
2
10
45.727666
20
379.508147
11
46.947588
21
378.967347
0
LINE
8
boundary
62
5
39
2
10
46.947588
20
378.967347
11
47.742662
21
378.362017
0
LINE
8
boundary
62
5
39
2
10
47.742662
20
378.362017
11
48.546122
21
377.776599
0
LINE
8
boundary
62
5
39
2
10
48.546122
20
377.776599
11
49.357330
21
377.211044
0
LINE
8
boundary
62
5
39
2
10
49.357330
20
377.211044
11
50.175672
21
376.665229
0
LINE
8
boundary
62
5
39
2
10
50.175672
20
376.665229
11
51.000607
21
376.139238
0
LINE
8
boundary
62
5
39
2
10
51.000607
20
376.139238
11
51.831657
21
375.633206
0
LINE
8
boundary
62
5
39
2
10
51.831657
20
375.633206
11
52.668280
21
375.146993
0
LINE
8
boundary
62
5
39
2
10
52.668280
20
375.146993
11
53.509748
21
374.680840
0
LINE
8
boundary
62
5
39
2
10
53.509748
20
374.680840
11
54.355650
21
374.234562
0
LINE
8
boundary
62
5
39
2
10
54.355650
20
374.234562
11
55.205429
21
373.808261
0
LINE
8
boundary
62
5
39
2
10
55.205429
20
373.808261
11
56.058505
21
373.401852
0
LINE
8
boundary
62
5
39
2
10
56.058505
20
373.401852
11
56.914277
21
373.015555
0
LINE
8
boundary
62
5
39
2
10
56.914277
20
373.015555
11
57.772308
21
372.649284
0
LINE
8
boundary
62
5
39
2
10
57.772308
20
372.649284
11
58.631998
21
372.303024
0
LINE
8
boundary
62
5
39
2
10
58.631998
20
372.303024
11
59.492788
21
371.976740
0
LINE
8
boundary
62
5
39
2
10
59.492788
20
371.976740
11
60.354283
21
371.670671
0
LINE
8
boundary
62
5
39
2
10
60.354283
20
371.670671
11
61.215714
21
371.384561
0
LINE
8
boundary
62
5
39
2
10
61.215714
20
371.384561
11
62.076839
21
371.118609
0
LINE
8
boundary
62
5
39
2
10
62.076839
20
371.118609
11
62.936886
21
370.872684
0
LINE
8
boundary
62
5
39
2
10
62.936886
20
370.872684
11
63.795519
21
370.646873
0
LINE
8
boundary
62
5
39
2
10
63.795519
20
370.646873
11
64.652180
21
370.441168
0
LINE
8
boundary
62
5
39
2
10
64.652180
20
370.441168
11
65.506451
21
370.255613
0
LINE
8
boundary
62
5
39
2
10
65.506451
20
370.255613
11
66.357731
21
370.090159
0
LINE
8
boundary
62
5
39
2
10
66.357731
20
370.090159
11
67.205633
21
369.944821
0
LINE
8
boundary
62
5
39
2
10
67.205633
20
369.944821
11
68.049621
21
369.819574
0
LINE
8
boundary
62
5
39
2
10
68.049621
20
369.819574
11
68.889313
21
369.714418
0
LINE
8
boundary
62
5
39
2
10
68.889313
20
369.714418
11
69.724119
21
369.629281
0
LINE
8
boundary
62
5
39
2
10
69.724119
20
369.629281
11
70.553814
21
369.564332
0
LINE
8
boundary
62
5
39
2
10
70.553814
20
369.564332
11
71.377766
21
369.519313
0
LINE
8
boundary
62
5
39
2
10
71.377766
20
369.519313
11
72.195709
21
369.494424
0
LINE
8
boundary
62
5
39
2
10
72.195709
20
369.494424
11
73.007183
21
369.489517
0
LINE
8
boundary
62
5
39
2
10
73.007183
20
369.489517
11
73.811685
21
369.504560
0
LINE
8
boundary
62
5
39
2
10
73.811685
20
369.504560
11
74.608942
21
369.539664
0
LINE
8
boundary
62
5
39
2
10
74.608942
20
369.539664
11
75.398609
21
369.594644
0
LINE
8
boundary
62
5
39
2
10
75.398609
20
369.594644
11
76.180239
21
369.669608
0
LINE
8
boundary
62
5
39
2
10
76.180239
20
369.669608
11
76.953522
21
369.764414
0
LINE
8
boundary
62
5
39
2
10
76.953522
20
369.764414
11
77.718102
21
369.879052
0
LINE
8
boundary
62
5
39
2
10
77.718102
20
369.879052
11
78.473620
21
370.013459
0
LINE
8
boundary
62
5
39
2
10
78.473620
20
370.013459
11
79.219773
21
370.167690
0
LINE
8
boundary
62
5
39
2
10
79.219773
20
370.167690
11
79.956386
21
370.341639
0
LINE
8
boundary
62
5
39
2
10
79.956386
20
370.341639
11
80.682959
21
370.535216
0
LINE
8
boundary
62
5
39
2
10
80.682959
20
370.535216
11
81.399305
21
370.748471
0
LINE
8
boundary
62
5
39
2
10
81.399305
20
370.748471
11
82.105290
21
370.981360
0
LINE
8
boundary
62
5
39
2
10
82.105290
20
370.981360
11
82.800348
21
371.233647
0
LINE
8
boundary
62
5
39
2
10
82.800348
20
371.233647
11
83.484478
21
371.505471
0
LINE
8
boundary
62
5
39
2
10
83.484478
20
371.505471
11
84.157329
21
371.796752
0
LINE
8
boundary
62
5
39
2
10
84.157329
20
371.796752
11
84.818742
21
372.107349
0
LINE
8
boundary
62
5
39
2
10
84.818742
20
372.107349
11
85.468475
21
372.437335
0
LINE
8
boundary
62
5
39
2
10
85.468475
20
372.437335
11
86.106278
21
372.786552
0
LINE
8
boundary
62
5
39
2
10
86.106278
20
372.786552
11
86.732025
21
373.154992
0
LINE
8
boundary
62
5
39
2
10
86.732025
20
373.154992
11
87.345501
21
373.542532
0
LINE
8
boundary
62
5
39
2
10
87.345501
20
373.542532
11
87.946637
21
373.949292
0
LINE
8
boundary
62
5
39
2
10
87.946637
20
373.949292
11
88.535042
21
374.374930
0
LINE
8
boundary
62
5
39
2
10
88.535042
20
374.374930
11
89.110677
21
374.819672
0
LINE
8
boundary
62
5
39
2
10
89.110677
20
374.819672
11
89.673491
21
375.283308
0
LINE
8
boundary
62
5
39
2
10
89.673491
20
375.283308
11
90.223185
21
375.765885
0
LINE
8
boundary
62
5
39
2
10
90.223185
20
375.765885
11
90.759636
21
376.267191
0
LINE
8
boundary
62
5
39
2
10
90.759636
20
376.267191
11
91.282802
21
376.787311
0
LINE
8
boundary
62
5
39
2
10
91.282802
20
376.787311
11
91.792463
21
377.326031
0
LINE
8
boundary
62
5
39
2
10
91.792463
20
377.326031
11
92.288486
21
377.883559
0
LINE
8
boundary
62
5
39
2
10
92.288486
20
377.883559
11
92.770867
21
378.459681
0
LINE
8
boundary
62
5
39
2
10
92.770867
20
378.459681
11
93.239386
21
379.054401
0
LINE
8
boundary
62
5
39
2
10
93.239386
20
379.054401
11
93.694026
21
379.667621
0
LINE
8
boundary
62
5
39
2
10
93.694026
20
379.667621
11
94.134516
21
380.299352
0
LINE
8
boundary
62
5
39
2
10
94.134516
20
380.299352
11
94.664997
21
380.871397
0
LINE
8
boundary
62
5
39
2
10
94.664997
20
380.871397
11
95.140052
21
381.459198
0
LINE
8
boundary
62
5
39
2
10
95.140052
20
381.459198
11
95.561372
21
382.062313
0
LINE
8
boundary
62
5
39
2
10
95.561372
20
382.062313
11
95.930312
21
382.680206
0
LINE
8
boundary
62
5
39
2
10
95.930312
20
382.680206
11
96.248582
21
383.312596
0
LINE
8
boundary
62
5
39
2
10
96.248582
20
383.312596
11
96.517422
21
383.958927
0
LINE
8
boundary
62
5
39
2
10
96.517422
20
383.958927
11
96.738331
21
384.619057
0
LINE
8
boundary
62
5
39
2
10
96.738331
20
384.619057
11
96.912418
21
385.292275
0
LINE
8
boundary
62
5
39
2
10
96.912418
20
385.292275
11
97.040891
21
385.978333
0
LINE
8
boundary
62
5
39
2
10
97.040891
20
385.978333
11
97.124911
21
386.676876
0
LINE
8
boundary
62
5
39
2
10
97.124911
20
386.676876
11
97.165625
21
387.387474
0
LINE
8
boundary
62
5
39
2
10
97.165625
20
387.387474
11
97.164005
21
388.109863
0
LINE
8
boundary
62
5
39
2
10
97.164005
20
388.109863
11
97.121059
21
388.843589
0
LINE
8
boundary
62
5
39
2
10
97.121059
20
388.843589
11
97.037869
21
389.588285
0
LINE
8
boundary
62
5
39
2
10
97.037869
20
389.588285
11
96.915286
21
390.343739
0
LINE
8
boundary
62
5
39
2
10
96.915286
20
390.343739
11
96.754164
21
391.109329
0
LINE
8
boundary
62
5
39
2
10
96.754164
20
391.109329
11
96.555550
21
391.884980
0
LINE
8
boundary
62
5
39
2
10
96.555550
20
391.884980
11
96.320174
21
392.670256
0
LINE
8
boundary
62
5
39
2
10
96.320174
20
392.670256
11
96.049035
21
393.464704
0
LINE
8
boundary
62
5
39
2
10
96.049035
20
393.464704
11
95.742892
21
394.268008
0
LINE
8
boundary
62
5
39
2
10
95.742892
20
394.268008
11
95.402653
21
395.079860
0
LINE
8
boundary
62
5
39
2
10
95.402653
20
395.079860
11
95.029145
21
395.899823
0
LINE
8
boundary
62
5
39
2
10
95.029145
20
395.899823
11
94.623309
21
396.727485
0
LINE
8
boundary
62
5
39
2
10
94.623309
20
396.727485
11
94.185956
21
397.562800
0
LINE
8
boundary
62
5
39
2
10
94.185956
20
397.562800
11
93.717786
21
398.404731
0
LINE
8
boundary
62
5
39
2
10
93.717786
20
398.404731
11
93.220018
21
399.253555
0
LINE
8
boundary
62
5
39
2
10
93.220018
20
399.253555
11
92.693276
21
400.108514
0
LINE
8
boundary
62
5
39
2
10
92.693276
20
400.108514
11
92.138531
21
400.969184
0
LINE
8
boundary
62
5
39
2
10
92.138531
20
400.969184
11
91.556911
21
401.835295
0
LINE
8
boundary
62
5
39
2
10
91.556911
20
401.835295
11
90.949120
21
402.706524
0
LINE
8
boundary
62
5
39
2
10
90.949120
20
402.706524
11
90.316179
21
403.582145
0
LINE
8
boundary
62
5
39
2
10
90.316179
20
403.582145
11
89.659233
21
404.461941
0
LINE
8
boundary
62
5
39
2
10
89.659233
20
404.461941
11
88.979107
21
405.345467
0
LINE
8
boundary
62
5
39
2
10
88.979107
20
405.345467
11
88.276994
21
406.232279
0
LINE
8
boundary
62
5
39
2
10
88.276994
20
406.232279
11
87.553781
21
407.121886
0
LINE
8
boundary
62
5
39
2
10
87.553781
20
407.121886
11
86.810743
21
408.013946
0
LINE
8
boundary
62
5
39
2
10
86.810743
20
408.013946
11
86.048953
21
408.907790
0
LINE
8
boundary
62
5
39
2
10
86.048953
20
408.907790
11
85.269394
21
409.803080
0
LINE
8
boundary
62
5
39
2
10
85.269394
20
409.803080
11
84.473357
21
410.699429
0
LINE
8
boundary
62
5
39
2
10
84.473357
20
410.699429
11
83.661893
21
411.596237
0
LINE
8
boundary
62
5
39
2
10
83.661893
20
411.596237
11
82.836454
21
412.493066
0
LINE
8
boundary
62
5
39
2
10
82.836454
20
412.493066
11
81.997963
21
413.389489
0
LINE
8
boundary
62
5
39
2
10
81.997963
20
413.389489
11
80.287427
21
415.179080
0
LINE
8
boundary
62
5
39
2
10
80.287427
20
415.179080
11
78.540360
21
416.961175
0
LINE
8
boundary
62
5
39
2
10
78.540360
20
416.961175
11
76.767376
21
418.731651
0
LINE
8
boundary
62
5
39
2
10
76.767376
20
418.731651
11
74.979050
21
420.486627
0
LINE
8
boundary
62
5
39
2
10
74.979050
20
420.486627
11
73.186468
21
422.222370
0
LINE
8
boundary
62
5
39
2
10
73.186468
20
422.222370
11
69.632680
21
425.618961
0
LINE
8
boundary
62
5
39
2
10
69.632680
20
425.618961
11
66.196512
21
428.889313
0
LINE
8
boundary
62
5
39
2
10
66.196512
20
428.889313
11
64.551066
21
430.466987
0
LINE
8
boundary
62
5
39
2
10
64.551066
20
430.466987
11
62.969361
21
432.001009
0
LINE
8
boundary
62
5
39
2
10
62.969361
20
432.001009
11
62.010970
21
432.926122
0
LINE
8
boundary
62
5
39
2
10
62.010970
20
432.926122
11
61.055229
21
433.826435
0
LINE
8
boundary
62
5
39
2
10
61.055229
20
433.826435
11
60.102114
21
434.702080
0
LINE
8
boundary
62
5
39
2
10
60.102114
20
434.702080
11
59.151612
21
435.553496
0
LINE
8
boundary
62
5
39
2
10
59.151612
20
435.553496
11
58.203755
21
436.381064
0
LINE
8
boundary
62
5
39
2
10
58.203755
20
436.381064
11
57.258497
21
437.185178
0
LINE
8
boundary
62
5
39
2
10
57.258497
20
437.185178
11
56.316061
21
437.966079
0
LINE
8
boundary
62
5
39
2
10
56.316061
20
437.966079
11
55.376281
21
438.724062
0
LINE
8
boundary
62
5
39
2
10
55.376281
20
438.724062
11
54.439200
21
439.459676
0
LINE
8
boundary
62
5
39
2
10
54.439200
20
439.459676
11
53.504770
21
440.173247
0
LINE
8
boundary
62
5
39
2
10
53.504770
20
440.173247
11
52.573077
21
440.864937
0
LINE
8
boundary
62
5
39
2
10
52.573077
20
440.864937
11
51.644078
21
441.535306
0
LINE
8
boundary
62
5
39
2
10
51.644078
20
441.535306
11
50.717872
21
442.184670
0
LINE
8
boundary
62
5
39
2
10
50.717872
20
442.184670
11
49.794427
21
442.813414
0
LINE
8
boundary
62
5
39
2
10
49.794427
20
442.813414
11
48.873679
21
443.421833
0
LINE
8
boundary
62
5
39
2
10
48.873679
20
443.421833
11
47.955703
21
444.010409
0
LINE
8
boundary
62
5
39
2
10
47.955703
20
444.010409
11
47.040447
21
444.579362
0
LINE
8
boundary
62
5
39
2
10
47.040447
20
444.579362
11
46.127912
21
445.129224
0
LINE
8
boundary
62
5
39
2
10
46.127912
20
445.129224
11
45.218154
21
445.660335
0
LINE
8
boundary
62
5
39
2
10
45.218154
20
445.660335
11
44.311147
21
446.172912
0
LINE
8
boundary
62
5
39
2
10
44.311147
20
446.172912
11
43.406858
21
446.667418
0
LINE
8
boundary
62
5
39
2
10
43.406858
20
446.667418
11
42.742983
21
447.018667
0
LINE
8
boundary
62
5
39
2
10
42.742983
20
447.018667
11
41.598776
21
447.602834
0
LINE
8
boundary
62
5
39
2
10
41.598776
20
447.602834
11
40.696530
21
448.044542
0
LINE
8
boundary
62
5
39
2
10
40.696530
20
448.044542
11
39.797166
21
448.469897
0
LINE
8
boundary
62
5
39
2
10
39.797166
20
448.469897
11
38.900416
21
448.879190
0
LINE
8
boundary
62
5
39
2
10
38.900416
20
448.879190
11
38.006510
21
449.272760
0
LINE
8
boundary
62
5
39
2
10
38.006510
20
449.272760
11
37.115259
21
449.650921
0
LINE
8
boundary
62
5
39
2
10
37.115259
20
449.650921
11
36.226863
21
450.014184
0
LINE
8
boundary
62
5
39
2
10
36.226863
20
450.014184
11
35.341104
21
450.362884
0
LINE
8
boundary
62
5
39
2
10
35.341104
20
450.362884
11
34.458114
21
450.697363
0
LINE
8
boundary
62
5
39
2
10
34.458114
20
450.697363
11
33.577925
21
451.018222
0
LINE
8
boundary
62
5
39
2
10
33.577925
20
451.018222
11
32.700360
21
451.325512
0
LINE
8
boundary
62
5
39
2
10
32.700360
20
451.325512
11
31.825524
21
451.619862
0
LINE
8
boundary
62
5
39
2
10
31.825524
20
451.619862
11
30.953350
21
451.901583
0
LINE
8
boundary
62
5
39
2
10
30.953350
20
451.901583
11
30.083977
21
452.171088
0
LINE
8
boundary
62
5
39
2
10
30.083977
20
452.171088
11
29.217342
21
452.428864
0
LINE
8
boundary
62
5
39
2
10
29.217342
20
452.428864
11
28.353308
21
452.674879
0
LINE
8
boundary
62
5
39
2
10
28.353308
20
452.674879
11
27.491984
21
452.910122
0
LINE
8
boundary
62
5
39
2
10
27.491984
20
452.910122
11
26.633347
21
453.134685
0
LINE
8
boundary
62
5
39
2
10
26.633347
20
453.134685
11
25.777303
21
453.348808
0
LINE
8
boundary
62
5
39
2
10
25.777303
20
453.348808
11
24.923962
21
453.553126
0
LINE
8
boundary
62
5
39
2
10
24.923962
20
453.553126
11
23.276491
21
453.922083
0
LINE
8
boundary
62
5
39
2
10
23.276491
20
453.922083
11
21.593894
21
454.267644
0
LINE
8
boundary
62
5
39
2
10
21.593894
20
454.267644
11
19.921935
21
454.581767
0
LINE
8
boundary
62
5
39
2
10
19.921935
20
454.581767
11
18.260533
21
454.867329
0
LINE
8
boundary
62
5
39
2
10
18.260533
20
454.867329
11
16.609575
21
455.127489
0
LINE
8
boundary
62
5
39
2
10
16.609575
20
455.127489
11
14.968934
21
455.365543
0
LINE
8
boundary
62
5
39
2
10
14.968934
20
455.365543
11
13.338657
21
455.584543
0
LINE
8
boundary
62
5
39
2
10
13.338657
20
455.584543
11
11.718692
21
455.787509
0
LINE
8
boundary
62
5
39
2
10
11.718692
20
455.787509
11
10.108823
21
455.977627
0
LINE
8
boundary
62
5
39
2
10
10.108823
20
455.977627
11
7.150423
21
456.305972
0
LINE
8
boundary
62
5
39
2
10
7.150423
20
456.305972
11
6.686456
21
449.836640
0
LINE
8
boundary
62
5
39
2
10
6.686456
20
449.836640
11
6.687589
21
448.861539
0
LINE
8
boundary
62
5
39
2
10
6.687589
20
448.861539
11
10.597398
21
448.443293
0
LINE
8
boundary
62
5
39
2
10
10.597398
20
448.443293
11
12.231963
21
448.060814
0
LINE
8
boundary
62
5
39
2
10
12.231963
20
448.060814
11
13.493365
21
447.685706
0
LINE
8
boundary
62
5
39
2
10
13.493365
20
447.685706
11
14.188321
21
447.471723
0
LINE
8
boundary
62
5
39
2
10
14.188321
20
447.471723
11
31.172366
21
447.471723
0
LINE
8
boundary
62
5
39
2
10
31.172366
20
447.471723
11
31.172365
21
444.725723
0
LINE
8
boundary
62
5
39
2
10
31.172365
20
444.725723
11
22.464013
21
444.725723
0
LINE
8
boundary
62
5
39
2
10
22.464013
20
444.725723
11
22.932714
21
444.386911
0
LINE
8
boundary
62
5
39
2
10
22.932714
20
444.386911
11
24.032609
21
443.939385
0
LINE
8
boundary
62
5
39
2
10
24.032609
20
443.939385
11
25.114975
21
443.484662
0
LINE
8
boundary
62
5
39
2
10
25.114975
20
443.484662
11
26.179859
21
443.022613
0
LINE
8
boundary
62
5
39
2
10
26.179859
20
443.022613
11
27.227368
21
442.553675
0
LINE
8
boundary
62
5
39
2
10
27.227368
20
442.553675
11
28.257529
21
442.077731
0
LINE
8
boundary
62
5
39
2
10
28.257529
20
442.077731
11
29.270417
21
441.595089
0
LINE
8
boundary
62
5
39
2
10
29.270417
20
441.595089
11
30.266148
21
441.105871
0
LINE
8
boundary
62
5
39
2
10
30.266148
20
441.105871
11
31.244724
21
440.610198
0
LINE
8
boundary
62
5
39
2
10
31.244724
20
440.610198
11
32.206167
21
440.108263
0
LINE
8
boundary
62
5
39
2
10
32.206167
20
440.108263
11
33.150690
21
439.600138
0
LINE
8
boundary
62
5
39
2
10
33.150690
20
439.600138
11
34.071481
21
439.086740
0
LINE
8
boundary
62
5
39
2
10
34.071481
20
439.086740
11
34.971811
21
438.568018
0
LINE
8
boundary
62
5
39
2
10
34.971811
20
438.568018
11
35.855734
21
438.043457
0
LINE
8
boundary
62
5
39
2
10
35.855734
20
438.043457
11
36.723151
21
437.513417
0
LINE
8
boundary
62
5
39
2
10
36.723151
20
437.513417
11
37.574148
21
436.977706
0
LINE
8
boundary
62
5
39
2
10
37.574148
20
436.977706
11
38.408938
21
436.436832
0
LINE
8
boundary
62
5
39
2
10
38.408938
20
436.436832
11
39.227364
21
435.890576
0
LINE
8
boundary
62
5
39
2
10
39.227364
20
435.890576
11
40.029689
21
435.339305
0
LINE
8
boundary
62
5
39
2
10
40.029689
20
435.339305
11
40.815832
21
434.783328
0
LINE
8
boundary
62
5
39
2
10
40.815832
20
434.783328
11
41.585770
21
434.222302
0
LINE
8
boundary
62
5
39
2
10
41.585770
20
434.222302
11
42.339638
21
433.656778
0
LINE
8
boundary
62
5
39
2
10
42.339638
20
433.656778
11
43.077522
21
433.086803
0
LINE
8
boundary
62
5
39
2
10
43.077522
20
433.086803
11
43.799484
21
432.512535
0
LINE
8
boundary
62
5
39
2
10
43.799484
20
432.512535
11
44.505483
21
431.933970
0
LINE
8
boundary
62
5
39
2
10
44.505483
20
431.933970
11
45.195742
21
431.351329
0
LINE
8
boundary
62
5
39
2
10
45.195742
20
431.351329
11
45.870182
21
430.764999
0
LINE
8
boundary
62
5
39
2
10
45.870182
20
430.764999
11
46.528882
21
430.174493
0
LINE
8
boundary
62
5
39
2
10
46.528882
20
430.174493
11
47.171892
21
429.580653
0
LINE
8
boundary
62
5
39
2
10
47.171892
20
429.580653
11
47.799382
21
428.983181
0
LINE
8
boundary
62
5
39
2
10
47.799382
20
428.983181
11
48.411290
21
428.382308
0
LINE
8
boundary
62
5
39
2
10
48.411290
20
428.382308
11
49.007786
21
427.778339
0
LINE
8
boundary
62
5
39
2
10
49.007786
20
427.778339
11
49.588817
21
427.171253
0
LINE
8
boundary
62
5
39
2
10
49.588817
20
427.171253
11
50.154512
21
426.561224
0
LINE
8
boundary
62
5
39
2
10
50.154512
20
426.561224
11
50.705002
21
425.948426
0
LINE
8
boundary
62
5
39
2
10
50.705002
20
425.948426
11
51.240293
21
425.332937
0
LINE
8
boundary
62
5
39
2
10
51.240293
20
425.332937
11
51.760311
21
424.714816
0
LINE
8
boundary
62
5
39
2
10
51.760311
20
424.714816
11
52.265304
21
424.094366
0
LINE
8
boundary
62
5
39
2
10
52.265304
20
424.094366
11
52.755339
21
423.471669
0
LINE
8
boundary
62
5
39
2
10
52.755339
20
423.471669
11
53.230311
21
422.846886
0
LINE
8
boundary
62
5
39
2
10
53.230311
20
422.846886
11
53.690551
21
422.220087
0
LINE
8
boundary
62
5
39
2
10
53.690551
20
422.220087
11
54.135904
21
421.591462
0
LINE
8
boundary
62
5
39
2
10
54.135904
20
421.591462
11
54.566537
21
420.961090
0
LINE
8
boundary
62
5
39
2
10
54.566537
20
420.961090
11
54.982439
21
420.329158
0
LINE
8
boundary
62
5
39
2
10
54.982439
20
420.329158
11
55.383832
21
419.695767
0
LINE
8
boundary
62
5
39
2
10
55.383832
20
419.695767
11
55.770550
21
419.061028
0
LINE
8
boundary
62
5
39
2
10
55.770550
20
419.061028
11
56.142909
21
418.425173
0
LINE
8
boundary
62
5
39
2
10
56.142909
20
418.425173
11
56.500826
21
417.788257
0
LINE
8
boundary
62
5
39
2
10
56.500826
20
417.788257
11
56.844394
21
417.150351
0
LINE
8
boundary
62
5
39
2
10
56.844394
20
417.150351
11
57.173610
21
416.511636
0
LINE
8
boundary
62
5
39
2
10
57.173610
20
416.511636
11
57.488692
21
415.872453
0
LINE
8
boundary
62
5
39
2
10
57.488692
20
415.872453
11
57.789504
21
415.232688
0
LINE
8
boundary
62
5
39
2
10
57.789504
20
415.232688
11
58.076374
21
414.592479
0
LINE
8
boundary
62
5
39
2
10
58.076374
20
414.592479
11
58.349105
21
413.952052
0
LINE
8
boundary
62
5
39
2
10
58.349105
20
413.952052
11
58.607916
21
413.311522
0
LINE
8
boundary
62
5
39
2
10
58.607916
20
413.311522
11
58.660352
21
412.358668
0
LINE
8
boundary
62
5
39
2
10
58.660352
20
412.358668
11
58.737915
21
411.390262
0
LINE
8
boundary
62
5
39
2
10
58.737915
20
411.390262
11
58.835219
21
410.409832
0
LINE
8
boundary
62
5
39
2
10
58.835219
20
410.409832
11
58.947213
21
409.420657
0
LINE
8
boundary
62
5
39
2
10
58.947213
20
409.420657
11
59.193797
21
407.429798
0
LINE
8
boundary
62
5
39
2
10
59.193797
20
407.429798
11
59.435710
21
405.444692
0
LINE
8
boundary
62
5
39
2
10
59.435710
20
405.444692
11
59.541674
21
404.462616
0
LINE
8
boundary
62
5
39
2
10
59.541674
20
404.462616
11
59.630690
21
403.492187
0
LINE
8
boundary
62
5
39
2
10
59.630690
20
403.492187
11
59.697361
21
402.536690
0
LINE
8
boundary
62
5
39
2
10
59.697361
20
402.536690
11
59.736426
21
401.599351
0
LINE
8
boundary
62
5
39
2
10
59.736426
20
401.599351
11
59.742434
21
400.683623
0
LINE
8
boundary
62
5
39
2
10
59.742434
20
400.683623
11
59.710193
21
399.792873
0
LINE
8
boundary
62
5
39
2
10
59.710193
20
399.792873
11
59.634144
21
398.930309
0
LINE
8
boundary
62
5
39
2
10
59.634144
20
398.930309
11
59.509057
21
398.099520
0
LINE
8
boundary
62
5
39
2
10
59.509057
20
398.099520
11
59.329294
21
397.303758
0
LINE
8
boundary
62
5
39
2
10
59.329294
20
397.303758
11
59.089501
21
396.546321
0
LINE
8
boundary
62
5
39
2
10
59.089501
20
396.546321
11
58.784033
21
395.830637
0
LINE
8
boundary
62
5
39
2
10
58.784033
20
395.830637
11
58.407303
21
395.160022
0
LINE
8
boundary
62
5
39
2
10
58.407303
20
395.160022
11
57.953628
21
394.538003
0
LINE
8
boundary
62
5
39
2
10
57.953628
20
394.538003
11
57.417387
21
393.967900
0
LINE
8
boundary
62
5
39
2
10
57.417387
20
393.967900
11
56.792511
21
393.453078
0
LINE
8
boundary
62
5
39
2
10
56.792511
20
393.453078
11
56.073433
21
392.997086
0
LINE
8
boundary
62
5
39
2
10
56.073433
20
392.997086
11
55.253776
21
392.603229
0
LINE
8
boundary
62
5
39
2
10
55.253776
20
392.603229
11
54.763346
21
392.417525
0
LINE
8
boundary
62
5
39
2
10
54.763346
20
392.417525
11
53.822904
21
392.136789
0
LINE
8
boundary
62
5
39
2
10
53.822904
20
392.136789
11
53.289027
21
392.016099
0
LINE
8
boundary
62
5
39
2
10
53.289027
20
392.016099
11
52.725563
21
391.913611
0
LINE
8
boundary
62
5
39
2
10
52.725563
20
391.913611
11
52.131564
21
391.829742
0
LINE
8
boundary
62
5
39
2
10
52.131564
20
391.829742
11
51.506200
21
391.764821
0
LINE
8
boundary
62
5
39
2
10
51.506200
20
391.764821
11
50.848658
21
391.719495
0
LINE
8
boundary
62
5
39
2
10
50.848658
20
391.719495
11
50.158303
21
391.693997
0
LINE
8
boundary
62
5
39
2
10
50.158303
20
391.693997
11
49.434295
21
391.688887
0
LINE
8
boundary
62
5
39
2
10
49.434295
20
391.688887
11
48.675741
21
391.704559
0
LINE
8
boundary
62
5
39
2
10
48.675741
20
391.704559
11
47.881680
21
391.741437
0
LINE
8
boundary
62
5
39
2
10
47.881680
20
391.741437
11
47.051628
21
391.800104
0
LINE
8
boundary
62
5
39
2
10
47.051628
20
391.800104
11
46.184523
21
391.880751
0
LINE
8
boundary
62
5
39
2
10
46.184523
20
391.880751
11
44.600693
21
392.498772
0
LINE
8
boundary
62
5
39
2
10
44.600693
20
392.498772
11
43.054584
21
393.085411
0
LINE
8
boundary
62
5
39
2
10
43.054584
20
393.085411
11
41.538871
21
393.641139
0
LINE
8
boundary
62
5
39
2
10
41.538871
20
393.641139
11
40.046014
21
394.166592
0
LINE
8
boundary
62
5
39
2
10
40.046014
20
394.166592
11
38.568421
21
394.662087
0
LINE
8
boundary
62
5
39
2
10
38.568421
20
394.662087
11
37.098446
21
395.128284
0
LINE
8
boundary
62
5
39
2
10
37.098446
20
395.128284
11
35.628417
21
395.565765
0
LINE
8
boundary
62
5
39
2
10
35.628417
20
395.565765
11
34.150290
21
395.975018
0
LINE
8
boundary
62
5
39
2
10
34.150290
20
395.975018
11
32.656279
21
396.356802
0
LINE
8
boundary
62
5
39
2
10
32.656279
20
396.356802
11
31.138290
21
396.711483
0
LINE
8
boundary
62
5
39
2
10
31.138290
20
396.711483
11
29.588327
21
397.039613
0
LINE
8
boundary
62
5
39
2
10
29.588327
20
397.039613
11
27.998299
21
397.342106
0
LINE
8
boundary
62
5
39
2
10
27.998299
20
397.342106
11
26.359908
21
397.619172
0
LINE
8
boundary
62
5
39
2
10
26.359908
20
397.619172
11
24.664868
21
397.871791
0
LINE
8
boundary
62
5
39
2
10
24.664868
20
397.871791
11
22.904801
21
398.100232
0
LINE
8
boundary
62
5
39
2
10
22.904801
20
398.100232
11
21.071191
21
398.305099
0
LINE
8
boundary
62
5
39
2
10
21.071191
20
398.305099
11
21.130591
21
395.858889
0
LINE
8
boundary
62
5
39
2
10
21.130591
20
395.858889
11
21.586352
21
379.118566
0
LINE
8
boundary
62
5
39
2
10
21.586352
20
379.118566
11
23.559816
21
372.931712
0
LINE
8
boundary
62
5
39
2
10
23.559816
20
372.931712
11
26.315043
21
364.410263
0
LINE
8
boundary
62
5
39
2
10
26.315043
20
364.410263
11
35.116612
21
364.260264
0
LINE
8
boundary
62
5
39
2
10
35.116612
20
364.260264
11
35.116611
21
361.514264
0
LINE
8
boundary
62
5
39
2
10
35.116611
20
361.514264
11
27.310201
21
361.514264
0
LINE
8
boundary
62
5
39
2
10
27.310201
20
361.514264
11
33.647846
21
341.731145
0
LINE
8
boundary
62
5
39
2
10
33.647846
20
341.731145
11
33.836547
21
341.197787
0
LINE
8
boundary
62
5
39
2
10
33.836547
20
341.197787
11
34.442393
21
339.509770
0
LINE
8
boundary
62
5
39
2
10
34.442393
20
339.509770
11
34.624028
21
338.970059
0
LINE
8
boundary
62
5
39
2
10
34.624028
20
338.970059
11
35.201966
21
337.279038
0
LINE
8
boundary
62
5
39
2
10
35.201966
20
337.279038
11
35.376479
21
336.732934
0
LINE
8
boundary
62
5
39
2
10
35.376479
20
336.732934
11
35.926933
21
335.039037
0
LINE
8
boundary
62
5
39
2
10
35.926933
20
335.039037
11
36.094160
21
334.486508
0
LINE
8
boundary
62
5
39
2
10
36.094160
20
334.486508
11
36.617038
21
332.790009
0
LINE
8
boundary
62
5
39
2
10
36.617038
20
332.790009
11
36.776987
21
332.231067
0
LINE
8
boundary
62
5
39
2
10
36.776987
20
332.231067
11
37.272813
21
330.532186
0
LINE
8
boundary
62
5
39
2
10
37.272813
20
330.532186
11
37.425379
21
329.966744
0
LINE
8
boundary
62
5
39
2
10
37.425379
20
329.966744
11
37.894297
21
328.265572
0
LINE
8
boundary
62
5
39
2
10
37.894297
20
328.265572
11
38.039373
21
327.693644
0
LINE
8
boundary
62
5
39
2
10
38.039373
20
327.693644
11
38.481521
21
325.990365
0
LINE
8
boundary
62
5
39
2
10
38.481521
20
325.990365
11
38.619007
21
325.411891
0
LINE
8
boundary
62
5
39
2
10
38.619007
20
325.411891
11
39.034643
21
323.706782
0
LINE
8
boundary
62
5
39
2
10
39.034643
20
323.706782
11
39.164481
21
323.121722
0
LINE
8
boundary
62
5
39
2
10
39.164481
20
323.121722
11
39.553879
21
321.414921
0
LINE
8
boundary
62
5
39
2
10
39.553879
20
321.414921
11
39.675971
21
320.823260
0
LINE
8
boundary
62
5
39
2
10
39.675971
20
320.823260
11
40.039266
21
319.115006
0
LINE
8
boundary
62
5
39
2
10
40.039266
20
319.115006
11
40.153503
21
318.516732
0
LINE
8
boundary
62
5
39
2
10
40.153503
20
318.516732
11
40.490931
21
316.807194
0
LINE
8
boundary
62
5
39
2
10
40.490931
20
316.807194
11
40.597208
21
316.202223
0
LINE
8
boundary
62
5
39
2
10
40.597208
20
316.202223
11
40.908915
21
314.491667
0
LINE
8
boundary
62
5
39
2
10
40.908915
20
314.491667
11
41.007173
21
313.880003
0
LINE
8
boundary
62
5
39
2
10
41.007173
20
313.880003
11
41.293501
21
312.168586
0
LINE
8
boundary
62
5
39
2
10
41.293501
20
312.168586
11
41.383591
21
311.550221
0
LINE
8
boundary
62
5
39
2
10
41.383591
20
311.550221
11
41.644576
21
309.838157
0
LINE
8
boundary
62
5
39
2
10
41.644576
20
309.838157
11
41.726428
21
309.213051
0
LINE
8
boundary
62
5
39
2
10
41.726428
20
309.213051
11
41.962395
21
307.500503
0
LINE
8
boundary
62
5
39
2
10
41.962395
20
307.500503
11
42.035853
21
306.868676
0
LINE
8
boundary
62
5
39
2
10
42.035853
20
306.868676
11
42.246797
21
305.155957
0
LINE
8
boundary
62
5
39
2
10
42.246797
20
305.155957
11
42.311808
21
304.517376
0
LINE
8
boundary
62
5
39
2
10
42.311808
20
304.517376
11
42.498150
21
302.804637
0
LINE
8
boundary
62
5
39
2
10
42.498150
20
302.804637
11
42.554568
21
302.159279
0
LINE
8
boundary
62
5
39
2
10
42.554568
20
302.159279
11
42.716344
21
300.446695
0
LINE
8
boundary
62
5
39
2
10
42.716344
20
300.446695
11
42.764038
21
299.794640
0
LINE
8
boundary
62
5
39
2
10
42.764038
20
299.794640
11
42.901428
21
298.082532
0
LINE
8
boundary
62
5
39
2
10
42.901428
20
298.082532
11
42.940344
21
297.423712
0
LINE
8
boundary
62
5
39
2
10
42.940344
20
297.423712
11
43.053714
21
295.712134
0
LINE
8
boundary
62
5
39
2
10
43.053714
20
295.712134
11
43.083708
21
295.046672
0
LINE
8
boundary
62
5
39
2
10
43.083708
20
295.046672
11
43.173087
21
293.335960
0
LINE
8
boundary
62
5
39
2
10
43.173087
20
293.335960
11
43.194035
21
292.663832
0
LINE
8
boundary
62
5
39
2
10
43.194035
20
292.663832
11
43.259605
21
290.954184
0
LINE
8
boundary
62
5
39
2
10
43.259605
20
290.954184
11
43.271373
21
290.275411
0
LINE
8
boundary
62
5
39
2
10
43.271373
20
290.275411
11
43.313361
21
288.566959
0
LINE
8
boundary
62
5
39
2
10
43.313361
20
288.566959
11
43.315893
21
287.881625
0
LINE
8
boundary
62
5
39
2
10
43.315893
20
287.881625
11
43.334507
21
286.174582
0
LINE
8
boundary
62
5
39
2
10
43.334507
20
286.174582
11
43.327658
21
285.482793
0
LINE
8
boundary
62
5
39
2
10
43.327658
20
285.482793
11
43.323102
21
283.777513
0
LINE
8
boundary
62
5
39
2
10
43.323102
20
283.777513
11
43.306816
21
283.079294
0
LINE
8
boundary
62
5
39
2
10
43.306816
20
283.079294
11
43.279316
21
281.375830
0
LINE
8
boundary
62
5
39
2
10
43.279316
20
281.375830
11
43.253412
21
280.671279
0
LINE
8
boundary
62
5
39
2
10
43.253412
20
280.671279
11
43.203072
21
278.969921
0
LINE
8
boundary
62
5
39
2
10
43.203072
20
278.969921
11
43.167531
21
278.259179
0
LINE
8
boundary
62
5
39
2
10
43.167531
20
278.259179
11
43.094666
21
276.560073
0
LINE
8
boundary
62
5
39
2
10
43.094666
20
276.560073
11
43.049355
21
275.843210
0
LINE
8
boundary
62
5
39
2
10
43.049355
20
275.843210
11
42.954129
21
274.146586
0
LINE
8
boundary
62
5
39
2
10
42.954129
20
274.146586
11
42.898975
21
273.423761
0
LINE
8
boundary
62
5
39
2
10
42.898975
20
273.423761
11
42.781575
21
271.729784
0
LINE
8
boundary
62
5
39
2
10
42.781575
20
271.729784
11
42.716466
21
271.001124
0
LINE
8
boundary
62
5
39
2
10
42.716466
20
271.001124
11
42.577152
21
269.310016
0
LINE
8
boundary
62
5
39
2
10
42.577152
20
269.310016
11
42.502090
21
268.575689
0
LINE
8
boundary
62
5
39
2
10
42.502090
20
268.575689
11
42.341118
21
266.887635
0
LINE
8
boundary
62
5
39
2
10
42.341118
20
266.887635
11
42.255996
21
266.147783
0
LINE
8
boundary
62
5
39
2
10
42.255996
20
266.147783
11
42.073527
21
264.463029
0
LINE
8
boundary
62
5
39
2
10
42.073527
20
264.463029
11
41.978280
21
263.717875
0
LINE
8
boundary
62
5
39
2
10
41.978280
20
263.717875
11
41.774565
21
262.036526
0
LINE
8
boundary
62
5
39
2
10
41.774565
20
262.036526
11
41.669161
21
261.286271
0
LINE
8
boundary
62
5
39
2
10
41.669161
20
261.286271
11
41.444520
21
259.608590
0
LINE
8
boundary
62
5
39
2
10
41.444520
20
259.608590
11
41.328937
21
258.853429
0
LINE
8
boundary
62
5
39
2
10
41.328937
20
258.853429
11
41.083436
21
257.179518
0
LINE
8
boundary
62
5
39
2
10
41.083436
20
257.179518
11
40.957627
21
256.419675
0
LINE
8
boundary
62
5
39
2
10
40.957627
20
256.419675
11
40.691730
21
254.749826
0
LINE
8
boundary
62
5
39
2
10
40.691730
20
254.749826
11
40.555753
21
253.985586
0
LINE
8
boundary
62
5
39
2
10
40.555753
20
253.985586
11
40.269626
21
252.319853
0
LINE
8
boundary
62
5
39
2
10
40.269626
20
252.319853
11
40.123458
21
251.551432
0
LINE
8
boundary
62
5
39
2
10
40.123458
20
251.551432
11
39.817483
21
249.890075
0
LINE
8
boundary
62
5
39
2
10
39.817483
20
249.890075
11
39.661083
21
249.117771
0
LINE
8
boundary
62
5
39
2
10
39.661083
20
249.117771
11
39.335288
21
247.460933
0
LINE
8
boundary
62
5
39
2
10
39.335288
20
247.460933
11
39.168802
21
246.685058
0
LINE
8
boundary
62
5
39
2
10
39.168802
20
246.685058
11
38.823658
21
245.032876
0
LINE
8
boundary
62
5
39
2
10
38.823658
20
245.032876
11
38.647075
21
244.253689
0
LINE
8
boundary
62
5
39
2
10
38.647075
20
244.253689
11
38.282907
21
242.606393
0
LINE
8
boundary
62
5
39
2
10
38.282907
20
242.606393
11
38.096290
21
241.824232
0
LINE
8
boundary
62
5
39
2
10
38.096290
20
241.824232
11
37.713296
21
240.181950
0
LINE
8
boundary
62
5
39
2
10
37.713296
20
240.181950
11
37.516760
21
239.397164
0
LINE
8
boundary
62
5
39
2
10
37.516760
20
239.397164
11
37.115277
21
237.759965
0
LINE
8
boundary
62
5
39
2
10
37.115277
20
237.759965
11
36.908932
21
236.972906
0
LINE
8
boundary
62
5
39
2
10
36.908932
20
236.972906
11
36.489252
21
235.341140
0
LINE
8
boundary
62
5
39
2
10
36.489252
20
235.341140
11
36.273191
21
234.552128
0
LINE
8
boundary
62
5
39
2
10
36.273191
20
234.552128
11
35.835692
21
232.925746
0
LINE
8
boundary
62
5
39
2
10
35.835692
20
232.925746
11
35.610059
21
232.135193
0
LINE
8
boundary
62
5
39
2
10
35.610059
20
232.135193
11
35.154993
21
230.514438
0
LINE
8
boundary
62
5
39
2
10
35.154993
20
230.514438
11
34.919989
21
229.722741
0
LINE
8
boundary
62
5
39
2
10
34.919989
20
229.722741
11
34.447773
21
228.107799
0
LINE
8
boundary
62
5
39
2
10
34.447773
20
228.107799
11
34.203553
21
227.315309
0
LINE
8
boundary
62
5
39
2
10
34.203553
20
227.315309
11
33.714476
21
225.706130
0
LINE
8
boundary
62
5
39
2
10
33.714476
20
225.706130
11
33.461246
21
224.913317
0
LINE
8
boundary
62
5
39
2
10
33.461246
20
224.913317
11
32.955702
21
223.310244
0
LINE
8
boundary
62
5
39
2
10
32.955702
20
223.310244
11
32.693653
21
222.517494
0
LINE
8
boundary
62
5
39
2
10
32.693653
20
222.517494
11
32.171933
21
220.920507
0
LINE
8
boundary
62
5
39
2
10
32.171933
20
220.920507
11
31.901401
21
220.128288
0
LINE
8
boundary
62
5
39
2
10
31.901401
20
220.128288
11
31.363952
21
218.537566
0
LINE
8
boundary
62
5
39
2
10
31.363952
20
218.537566
11
31.085076
21
217.746309
0
LINE
8
boundary
62
5
39
2
10
31.085076
20
217.746309
11
30.532181
21
216.162017
0
LINE
8
boundary
62
5
39
2
10
30.532181
20
216.162017
11
30.245310
21
215.372178
0
LINE
8
boundary
62
5
39
2
10
30.245310
20
215.372178
11
29.677341
21
213.794333
0
LINE
8
boundary
62
5
39
2
10
29.677341
20
213.794333
11
29.382794
21
213.006380
0
LINE
8
boundary
62
5
39
2
10
29.382794
20
213.006380
11
28.800241
21
211.435158
0
LINE
8
boundary
62
5
39
2
10
28.800241
20
211.435158
11
28.498374
21
210.649578
0
LINE
8
boundary
62
5
39
2
10
28.498374
20
210.649578
11
27.901569
21
209.085027
0
LINE
8
boundary
62
5
39
2
10
27.901569
20
209.085027
11
27.592670
21
208.302298
0
LINE
8
boundary
62
5
39
2
10
27.592670
20
208.302298
11
26.982041
21
206.744563
0
LINE
8
boundary
62
5
39
2
10
26.982041
20
206.744563
11
26.666471
21
205.965212
0
LINE
8
boundary
62
5
39
2
10
26.666471
20
205.965212
11
26.042389
21
204.414345
0
LINE
8
boundary
62
5
39
2
10
26.042389
20
204.414345
11
25.383613
21
202.845412
0
LINE
8
boundary
62
5
39
2
10
25.383613
20
202.845412
11
24.105954
21
199.786976
0
LINE
8
boundary
62
5
39
2
10
24.105954
20
199.786976
11
23.424400
21
198.236061
0
LINE
8
boundary
62
5
39
2
10
23.424400
20
198.236061
11
22.099039
21
195.207729
0
LINE
8
boundary
62
5
39
2
10
22.099039
20
195.207729
11
21.398395
21
193.679015
0
LINE
8
boundary
62
5
39
2
10
21.398395
20
193.679015
11
20.028789
21
190.681321
0
LINE
8
boundary
62
5
39
2
10
20.028789
20
190.681321
11
19.600040
21
189.090685
0
LINE
8
boundary
62
5
39
2
10
19.600040
20
189.090685
11
18.729708
21
185.860603
0
LINE
8
boundary
62
5
39
2
10
18.729708
20
185.860603
11
18.298213
21
184.250460
0
LINE
8
boundary
62
5
39
2
10
18.298213
20
184.250460
11
17.392236
21
180.872460
0
LINE
8
boundary
62
5
39
2
10
17.392236
20
180.872460
11
17.181736
21
180.075139
0
LINE
8
boundary
62
5
39
2
10
17.181736
20
180.075139
11
16.717014
21
178.317899
0
LINE
8
boundary
62
5
39
2
10
16.717014
20
178.317899
11
16.510034
21
177.521270
0
LINE
8
boundary
62
5
39
2
10
16.510034
20
177.521270
11
16.041979
21
175.724142
0
LINE
8
boundary
62
5
39
2
10
16.041979
20
175.724142
11
15.839853
21
174.930122
0
LINE
8
boundary
62
5
39
2
10
15.839853
20
174.930122
11
15.370499
21
173.091942
0
LINE
8
boundary
62
5
39
2
10
15.370499
20
173.091942
11
15.174533
21
172.302612
0
LINE
8
boundary
62
5
39
2
10
15.174533
20
172.302612
11
14.706010
21
170.422269
0
LINE
8
boundary
62
5
39
2
10
14.706010
20
170.422269
11
14.517518
21
169.639740
0
LINE
8
boundary
62
5
39
2
10
14.517518
20
169.639740
11
14.051937
21
167.715769
0
LINE
8
boundary
62
5
39
2
10
14.051937
20
167.715769
11
13.872095
21
166.942301
0
LINE
8
boundary
62
5
39
2
10
13.872095
20
166.942301
11
13.411880
21
164.973246
0
LINE
8
boundary
62
5
39
2
10
13.411880
20
164.973246
11
13.241891
21
164.211210
0
LINE
8
boundary
62
5
39
2
10
13.241891
20
164.211210
11
12.789355
21
162.195497
0
LINE
8
boundary
62
5
39
2
10
12.789355
20
162.195497
11
12.630239
21
161.447270
0
LINE
8
boundary
62
5
39
2
10
12.630239
20
161.447270
11
12.188163
21
159.383148
0
LINE
8
boundary
62
5
39
2
10
12.188163
20
159.383148
11
12.040873
21
158.651233
0
LINE
8
boundary
62
5
39
2
10
12.040873
20
158.651233
11
11.611794
21
156.536845
0
LINE
8
boundary
62
5
39
2
10
11.611794
20
156.536845
11
11.477102
21
155.823759
0
LINE
8
boundary
62
5
39
2
10
11.477102
20
155.823759
11
11.063873
21
153.657284
0
LINE
8
boundary
62
5
39
2
10
11.063873
20
153.657284
11
10.942503
21
152.965609
0
LINE
8
boundary
62
5
39
2
10
10.942503
20
152.965609
11
10.548542
21
150.745049
0
LINE
8
boundary
62
5
39
2
10
10.548542
20
150.745049
11
10.440916
21
150.077303
0
LINE
8
boundary
62
5
39
2
10
10.440916
20
150.077303
11
10.069088
21
147.800775
0
LINE
8
boundary
62
5
39
2
10
10.069088
20
147.800775
11
9.975500
21
147.159456
0
LINE
8
boundary
62
5
39
2
10
9.975500
20
147.159456
11
9.629594
21
144.825007
0
LINE
8
boundary
62
5
39
2
10
9.629594
20
144.825007
11
9.550134
21
144.212561
0
LINE
8
boundary
62
5
39
2
10
9.550134
20
144.212561
11
9.233726
21
141.818234
0
LINE
8
boundary
62
5
39
2
10
9.233726
20
141.818234
11
9.168247
21
141.236962
0
LINE
8
boundary
62
5
39
2
10
9.168247
20
141.236962
11
8.885257
21
138.780990
0
LINE
8
boundary
62
5
39
2
10
8.885257
20
138.780990
11
8.730016
21
137.251176
0
LINE
8
boundary
62
5
39
2
10
8.730016
20
137.251176
11
8.588020
21
135.713891
0
LINE
8
boundary
62
5
39
2
10
8.588020
20
135.713891
11
8.459898
21
134.169206
0
LINE
8
boundary
62
5
39
2
10
8.459898
20
134.169206
11
8.345932
21
132.617278
0
LINE
8
boundary
62
5
39
2
10
8.345932
20
132.617278
11
8.246647
21
131.058163
0
LINE
8
boundary
62
5
39
2
10
8.246647
20
131.058163
11
8.162644
21
129.491837
0
LINE
8
boundary
62
5
39
2
10
8.162644
20
129.491837
11
8.094344
21
127.918340
0
LINE
8
boundary
62
5
39
2
10
8.094344
20
127.918340
11
8.042058
21
126.337780
0
LINE
8
boundary
62
5
39
2
10
8.042058
20
126.337780
11
8.006383
21
124.750312
0
LINE
8
boundary
62
5
39
2
10
8.006383
20
124.750312
11
7.987646
21
123.155845
0
LINE
8
boundary
62
5
39
2
10
7.987646
20
123.155845
11
7.986578
21
121.554547
0
LINE
8
boundary
62
5
39
2
10
7.986578
20
121.554547
11
8.003531
21
119.946464
0
LINE
8
boundary
62
5
39
2
10
8.003531
20
119.946464
11
8.038803
21
118.331652
0
LINE
8
boundary
62
5
39
2
10
8.038803
20
118.331652
11
8.093029
21
116.710128
0
LINE
8
boundary
62
5
39
2
10
8.093029
20
116.710128
11
8.166642
21
115.082037
0
LINE
8
boundary
62
5
39
2
10
8.166642
20
115.082037
11
8.259948
21
113.447477
0
LINE
8
boundary
62
5
39
2
10
8.259948
20
113.447477
11
8.373670
21
111.806448
0
LINE
8
boundary
62
5
39
2
10
8.373670
20
111.806448
11
8.507998
21
110.159047
0
LINE
8
boundary
62
5
39
2
10
8.507998
20
110.159047
11
8.663433
21
108.505432
0
LINE
8
boundary
62
5
39
2
10
8.663433
20
108.505432
11
8.840470
21
106.845630
0
LINE
8
boundary
62
5
39
2
10
8.840470
20
106.845630
11
9.039453
21
105.179687
0
LINE
8
boundary
62
5
39
2
10
9.039453
20
105.179687
11
9.261036
21
103.507835
0
LINE
8
boundary
62
5
39
2
10
9.261036
20
103.507835
11
9.505428
21
101.830077
0
LINE
8
boundary
62
5
39
2
10
9.505428
20
101.830077
11
9.773010
21
100.146616
0
LINE
8
boundary
62
5
39
2
10
9.773010
20
100.146616
11
10.064357
21
98.457493
0
LINE
8
boundary
62
5
39
2
10
10.064357
20
98.457493
11
10.379927
21
96.762924
0
LINE
8
boundary
62
5
39
2
10
10.379927
20
96.762924
11
10.725935
21
93.379845
0
LINE
8
boundary
62
5
39
2
10
10.725935
20
93.379845
11
10.869504
21
91.887432
0
LINE
8
boundary
62
5
39
2
10
10.869504
20
91.887432
11
11.342236
21
86.792228
0
LINE
8
boundary
62
5
39
2
10
11.342236
20
86.792228
11
11.603051
21
84.070170
0
LINE
8
boundary
62
5
39
2
10
11.603051
20
84.070170
11
11.878277
21
81.345812
0
LINE
8
boundary
62
5
39
2
10
11.878277
20
81.345812
11
12.178310
21
78.567047
0
LINE
8
boundary
62
5
39
2
10
12.178310
20
78.567047
11
12.509035
21
75.738081
0
LINE
8
boundary
62
5
39
2
10
12.509035
20
75.738081
11
12.876045
21
72.863194
0
LINE
8
boundary
62
5
39
2
10
12.876045
20
72.863194
11
13.284974
21
69.946893
0
LINE
8
boundary
62
5
39
2
10
13.284974
20
69.946893
11
13.741656
21
66.993732
0
LINE
8
boundary
62
5
39
2
10
13.741656
20
66.993732
11
14.009190
21
65.379065
0
LINE
8
boundary
62
5
39
2
10
14.009190
20
65.379065
11
14.273524
21
63.876314
0
LINE
8
boundary
62
5
39
2
10
14.273524
20
63.876314
11
14.552746
21
62.366886
0
LINE
8
boundary
62
5
39
2
10
14.552746
20
62.366886
11
14.847522
21
60.851446
0
LINE
8
boundary
62
5
39
2
10
14.847522
20
60.851446
11
15.158771
21
59.330671
0
LINE
8
boundary
62
5
39
2
10
15.158771
20
59.330671
11
15.487300
21
57.805206
0
LINE
8
boundary
62
5
39
2
10
15.487300
20
57.805206
11
15.833594
21
56.275700
0
LINE
8
boundary
62
5
39
2
10
15.833594
20
56.275700
11
16.198571
21
54.743062
0
LINE
8
boundary
62
5
39
2
10
16.198571
20
54.743062
11
16.582768
21
53.207856
0
LINE
8
boundary
62
5
39
2
10
16.582768
20
53.207856
11
16.987088
21
51.670839
0
LINE
8
boundary
62
5
39
2
10
16.987088
20
51.670839
11
17.412256
21
50.132909
0
LINE
8
boundary
62
5
39
2
10
17.412256
20
50.132909
11
17.858935
21
48.594797
0
LINE
8
boundary
62
5
39
2
10
17.858935
20
48.594797
11
18.327887
21
47.057335
0
LINE
8
boundary
62
5
39
2
10
18.327887
20
47.057335
11
18.819804
21
45.521399
0
LINE
8
boundary
62
5
39
2
10
18.819804
20
45.521399
11
19.335629
21
43.987797
0
LINE
8
boundary
62
5
39
2
10
19.335629
20
43.987797
11
19.875819
21
42.457589
0
LINE
8
boundary
62
5
39
2
10
19.875819
20
42.457589
11
20.441342
21
40.931586
0
LINE
8
boundary
62
5
39
2
10
20.441342
20
40.931586
11
21.032893
21
39.410833
0
LINE
8
boundary
62
5
39
2
10
21.032893
20
39.410833
11
21.651073
21
37.896304
0
LINE
8
boundary
62
5
39
2
10
21.651073
20
37.896304
11
22.296894
21
36.389059
0
LINE
8
boundary
62
5
39
2
10
22.296894
20
36.389059
11
22.970939
21
34.890172
0
LINE
8
boundary
62
5
39
2
10
22.970939
20
34.890172
11
23.673922
21
33.400813
0
LINE
8
boundary
62
5
39
2
10
23.673922
20
33.400813
11
24.406657
21
31.922115
0
LINE
8
boundary
62
5
39
2
10
24.406657
20
31.922115
11
25.170036
21
30.455248
0
LINE
8
boundary
62
5
39
2
10
25.170036
20
30.455248
11
25.964707
21
29.001571
0
LINE
8
boundary
62
5
39
2
10
25.964707
20
29.001571
11
26.791349
21
27.562363
0
LINE
8
boundary
62
5
39
2
10
26.791349
20
27.562363
11
27.650960
21
26.138937
0
LINE
8
boundary
62
5
39
2
10
27.650960
20
26.138937
11
28.544179
21
24.732778
0
LINE
8
boundary
62
5
39
2
10
28.544179
20
24.732778
11
29.471733
21
23.345281
0
LINE
8
boundary
62
5
39
2
10
29.471733
20
23.345281
11
30.434500
21
21.978078
0
LINE
8
boundary
62
5
39
2
10
30.434500
20
21.978078
11
31.433231
21
20.632696
0
LINE
8
boundary
62
5
39
2
10
31.433231
20
20.632696
11
32.468763
21
19.310902
0
LINE
8
boundary
62
5
39
2
10
32.468763
20
19.310902
11
33.541793
21
18.014350
0
LINE
8
boundary
62
5
39
2
10
33.541793
20
18.014350
11
34.653248
21
16.744836
0
LINE
8
boundary
62
5
39
2
10
34.653248
20
16.744836
11
35.803932
21
15.504301
0
LINE
8
boundary
62
5
39
2
10
35.803932
20
15.504301
11
36.994404
21
14.294694
0
LINE
8
boundary
62
5
39
2
10
36.994404
20
14.294694
11
38.225686
21
13.118083
0
LINE
8
boundary
62
5
39
2
10
38.225686
20
13.118083
11
39.498465
21
11.976568
0
LINE
8
boundary
62
5
39
2
10
39.498465
20
11.976568
11
40.813594
21
10.872361
0
LINE
8
boundary
62
5
39
2
10
40.813594
20
10.872361
11
42.171911
21
9.807865
0
LINE
8
boundary
62
5
39
2
10
42.171911
20
9.807865
11
43.574127
21
8.785350
0
LINE
8
boundary
62
5
39
2
10
43.574127
20
8.785350
11
45.021139
21
7.807417
0
LINE
8
boundary
62
5
39
2
10
45.021139
20
7.807417
11
45.498405
21
7.432119
0
LINE
8
boundary
62
5
39
2
10
45.498405
20
7.432119
11
46.266087
21
7.025351
0
LINE
8
boundary
62
5
39
2
10
46.266087
20
7.025351
11
46.804515
21
6.853936
0
LINE
8
boundary
62
5
39
2
10
46.804515
20
6.853936
11
47.334062
21
6.748262
0
LINE
8
boundary
62
5
39
2
10
47.334062
20
6.748262
11
47.904124
21
6.685707
0
LINE
8
boundary
62
5
39
2
10
47.904124
20
6.685707
11
48.433022
21
6.669443
0
LINE
8
boundary
62
5
39
2
10
48.433022
20
6.669443
11
49.063340
21
6.691229
0
LINE
8
boundary
62
5
39
2
10
49.063340
20
6.691229
11
49.717001
21
6.759734
0
LINE
8
boundary
62
5
39
2
10
49.717001
20
6.759734
11
50.387793
21
6.876081
0
LINE
8
boundary
62
5
39
2
10
50.387793
20
6.876081
11
51.069783
21
7.041159
0
LINE
8
boundary
62
5
39
2
10
51.069783
20
7.041159
11
51.756983
21
7.255854
0
LINE
8
boundary
62
5
39
2
10
51.756983
20
7.255854
11
52.443254
21
7.520819
0
LINE
8
boundary
62
5
39
2
10
52.443254
20
7.520819
11
53.122496
21
7.836642
0
LINE
8
boundary
62
5
39
2
10
53.122496
20
7.836642
11
53.788695
21
8.203854
0
LINE
8
boundary
62
5
39
2
10
53.788695
20
8.203854
11
54.435957
21
8.622676
0
LINE
8
boundary
62
5
39
2
10
54.435957
20
8.622676
11
55.091256
21
9.118064
0
LINE
8
boundary
62
5
39
2
10
55.091256
20
9.118064
11
55.123499
21
9.143745
0
LINE
8
annotation
62
1
39
211
10
41.258607
20
360.677594
11
41.258607
21
365.096933
0
LINE
8
annotation
62
1
39
211
10
41.258607
20
365.096933
11
40.276131
21
364.114180
0
LINE
8
annotation
62
1
39
211
10
37.918720
20
443.850167
11
35.921478
21
443.850167
0
LINE
8
annotation
62
1
39
211
10
35.921478
20
443.850167
11
37.766995
21
446.821213
0
LINE
8
annotation
62
1
39
211
10
37.766995
20
446.821213
11
37.766995
21
446.821213
0
LINE
8
annotation
62
1
39
211
10
37.766995
20
446.821213
11
37.769201
21
446.823943
0
LINE
8
annotation
62
1
39
211
10
37.769201
20
446.823943
11
37.771317
21
446.826697
0
LINE
8
annotation
62
1
39
211
10
37.771317
20
446.826697
11
37.773356
21
446.829496
0
LINE
8
annotation
62
1
39
211
10
37.773356
20
446.829496
11
37.775333
21
446.832365
0
LINE
8
annotation
62
1
39
211
10
37.775333
20
446.832365
11
37.777260
21
446.835328
0
LINE
8
annotation
62
1
39
211
10
37.777260
20
446.835328
11
37.779153
21
446.838406
0
LINE
8
annotation
62
1
39
211
10
37.779153
20
446.838406
11
37.781025
21
446.841623
0
LINE
8
annotation
62
1
39
211
10
37.781025
20
446.841623
11
37.782890
21
446.845003
0
LINE
8
annotation
62
1
39
211
10
37.782890
20
446.845003
11
37.784762
21
446.848569
0
LINE
8
annotation
62
1
39
211
10
37.784762
20
446.848569
11
37.784762
21
446.848569
0
LINE
8
annotation
62
1
39
211
10
37.784762
20
446.848569
11
37.860963
21
447.012179
0
LINE
8
annotation
62
1
39
211
10
37.860963
20
447.012179
11
37.905479
21
447.181775
0
LINE
8
annotation
62
1
39
211
10
37.905479
20
447.181775
11
37.919399
21
447.353525
0
LINE
8
annotation
62
1
39
211
10
37.919399
20
447.353525
11
37.903816
21
447.523597
0
LINE
8
annotation
62
1
39
211
10
37.903816
20
447.523597
11
37.859820
21
447.688159
0
LINE
8
annotation
62
1
39
211
10
37.859820
20
447.688159
11
37.788502
21
447.843378
0
LINE
8
annotation
62
1
39
211
10
37.788502
20
447.843378
11
37.690952
21
447.985422
0
LINE
8
annotation
62
1
39
211
10
37.690952
20
447.985422
11
37.568263
21
448.110459
0
LINE
8
annotation
62
1
39
211
10
37.568263
20
448.110459
11
37.421525
21
448.214658
0
LINE
8
annotation
62
1
39
211
10
37.421525
20
448.214658
11
37.421525
21
448.214658
0
LINE
8
annotation
62
1
39
211
10
37.421525
20
448.214658
11
37.257460
21
448.289776
0
LINE
8
annotation
62
1
39
211
10
37.257460
20
448.289776
11
37.087604
21
448.333605
0
LINE
8
annotation
62
1
39
211
10
37.087604
20
448.333605
11
36.915754
21
448.347132
0
LINE
8
annotation
62
1
39
211
10
36.915754
20
448.347132
11
36.745708
21
448.331344
0
LINE
8
annotation
62
1
39
211
10
36.745708
20
448.331344
11
36.581262
21
448.287226
0
LINE
8
annotation
62
1
39
211
10
36.581262
20
448.287226
11
36.426215
21
448.215765
0
LINE
8
annotation
62
1
39
211
10
36.426215
20
448.215765
11
36.284363
21
448.117948
0
LINE
8
annotation
62
1
39
211
10
36.284363
20
448.117948
11
36.159504
21
447.994761
0
LINE
8
annotation
62
1
39
211
10
36.159504
20
447.994761
11
36.055436
21
447.847190
0
LINE
8
annotation
62
1
39
211
10
36.055436
20
447.847190
11
35.924298
21
447.595631
0
LINE
8
annotation
62
1
39
211
10
66.234049
20
386.644777
11
63.534275
21
382.739800
0
LINE
8
annotation
62
1
39
211
10
63.534275
20
382.739800
11
60.833992
21
386.644777
0
LINE
8
annotation
62
1
39
211
10
63.534275
20
383.054046
11
63.534275
21
378.549006
0
LINE
8
annotation
62
1
39
211
10
73.697139
20
382.596891
11
69.270788
21
382.596891
0
LINE
8
annotation
62
1
39
211
10
78.532036
20
378.549260
11
78.532036
21
386.644523
0
LINE
8
annotation
62
1
39
211
10
78.532036
20
386.644523
11
76.732355
21
384.844334
0
LINE
8
annotation
62
1
39
211
10
85.163417
20
378.549194
11
81.568117
21
378.549194
0
LINE
8
annotation
62
1
39
211
10
81.568117
20
378.549194
11
84.890292
21
383.897469
0
LINE
8
annotation
62
1
39
211
10
84.890292
20
383.897469
11
84.890292
21
383.897469
0
LINE
8
annotation
62
1
39
211
10
84.890292
20
383.897469
11
84.894263
21
383.902383
0
LINE
8
annotation
62
1
39
211
10
84.894263
20
383.902383
11
84.898072
21
383.907340
0
LINE
8
annotation
62
1
39
211
10
84.898072
20
383.907340
11
84.901742
21
383.912379
0
LINE
8
annotation
62
1
39
211
10
84.901742
20
383.912379
11
84.905300
21
383.917545
0
LINE
8
annotation
62
1
39
211
10
84.905300
20
383.917545
11
84.908770
21
383.922877
0
LINE
8
annotation
62
1
39
211
10
84.908770
20
383.922877
11
84.912178
21
383.928418
0
LINE
8
annotation
62
1
39
211
10
84.912178
20
383.928418
11
84.915547
21
383.934210
0
LINE
8
annotation
62
1
39
211
10
84.915547
20
383.934210
11
84.918905
21
383.940294
0
LINE
8
annotation
62
1
39
211
10
84.918905
20
383.940294
11
84.922275
21
383.946713
0
LINE
8
annotation
62
1
39
211
10
84.922275
20
383.946713
11
84.922275
21
383.946713
0
LINE
8
annotation
62
1
39
211
10
84.922275
20
383.946713
11
85.059446
21
384.241232
0
LINE
8
annotation
62
1
39
211
10
85.059446
20
384.241232
11
85.139580
21
384.546528
0
LINE
8
annotation
62
1
39
211
10
85.139580
20
384.546528
11
85.164639
21
384.855701
0
LINE
8
annotation
62
1
39
211
10
85.164639
20
384.855701
11
85.136587
21
385.161852
0
LINE
8
annotation
62
1
39
211
10
85.136587
20
385.161852
11
85.057388
21
385.458085
0
LINE
8
annotation
62
1
39
211
10
85.057388
20
385.458085
11
84.929006
21
385.737500
0
LINE
8
annotation
62
1
39
211
10
84.929006
20
385.737500
11
84.753405
21
385.993198
0
LINE
8
annotation
62
1
39
211
10
84.753405
20
385.993198
11
84.532548
21
386.218282
0
LINE
8
annotation
62
1
39
211
10
84.532548
20
386.218282
11
84.268399
21
386.405853
0
LINE
8
annotation
62
1
39
211
10
84.268399
20
386.405853
11
84.268399
21
386.405853
0
LINE
8
annotation
62
1
39
211
10
84.268399
20
386.405853
11
83.973061
21
386.541076
0
LINE
8
annotation
62
1
39
211
10
83.973061
20
386.541076
11
83.667297
21
386.619975
0
LINE
8
annotation
62
1
39
211
10
83.667297
20
386.619975
11
83.357945
21
386.644325
0
LINE
8
annotation
62
1
39
211
10
83.357945
20
386.644325
11
83.051839
21
386.615904
0
LINE
8
annotation
62
1
39
211
10
83.051839
20
386.615904
11
82.755815
21
386.536485
0
LINE
8
annotation
62
1
39
211
10
82.755815
20
386.536485
11
82.476710
21
386.407846
0
LINE
8
annotation
62
1
39
211
10
82.476710
20
386.407846
11
82.221358
21
386.231762
0
LINE
8
annotation
62
1
39
211
10
82.221358
20
386.231762
11
81.996596
21
386.010009
0
LINE
8
annotation
62
1
39
211
10
81.996596
20
386.010009
11
81.809259
21
385.744363
0
LINE
8
annotation
62
1
39
211
10
81.809259
20
385.744363
11
81.573193
21
385.291523
0
LINE
8
frame
62
5
39
2
10
0.000000
20
0.000000
11
215.900000
21
0.000000
0
LINE
8
frame
62
5
39
2
10
215.900000
20
0.000000
11
215.900000
21
279.400000
0
LINE
8
frame
62
5
39
2
10
215.900000
20
279.400000
11
0.000000
21
279.400000
0
LINE
8
frame
62
5
39
2
10
0.000000
20
279.400000
11
0.000000
21
0.000000
0
ENDSEC
0
EOF
