0
SECTION
2
HEADER
9
$ACADVER
1
AC1009
0
ENDSEC
0
SECTION
2
TABLES
0
TABLE
2
VPORT
70
1
0
VPORT
2
ACTIVE
70
0
10
0.0
20
0.0
11
0.0
21
0.0
12
0.0
22
0.0
13
0.0
23
0.0
14
0.0
24
0.0
15
0.0
25
0.0
16
0.0
26
0.0
36
0.0
17
0.0
27
0.0
37
0.0
40
0.0
41
0.0
42
0.0
43
0.0
44
0.0
50
0.0
51
0.0
71
0
72
1000
73
1
74
3
75
0
76
0
77
0
78
0
0
ENDTAB
0
ENDSEC
0
SECTION
2
ENTITIES
0
LINE
8
boundary
62
5
39
2
10
55.788955
20
9.637349
11
56.362112
21
10.206288
0
LINE
8
boundary
62
5
39
2
10
56.362112
20
10.206288
11
56.895624
21
10.825242
0
LINE
8
boundary
62
5
39
2
10
56.895624
20
10.825242
11
57.383892
21
11.494146
0
LINE
8
boundary
62
5
39
2
10
57.383892
20
11.494146
11
57.820904
21
12.212709
0
LINE
8
boundary
62
5
39
2
10
57.820904
20
12.212709
11
58.200601
21
12.980814
0
LINE
8
boundary
62
5
39
2
10
58.200601
20
12.980814
11
58.517347
21
13.798191
0
LINE
8
boundary
62
5
39
2
10
58.517347
20
13.798191
11
58.668648
21
14.285283
0
LINE
8
boundary
62
5
39
2
10
58.668648
20
14.285283
11
58.860866
21
15.116638
0
LINE
8
boundary
62
5
39
2
10
58.860866
20
15.116638
11
58.948197
21
15.647647
0
LINE
8
boundary
62
5
39
2
10
58.948197
20
15.647647
11
59.028870
21
16.545848
0
LINE
8
boundary
62
5
39
2
10
59.028870
20
16.545848
11
59.043939
21
17.121322
0
LINE
8
boundary
62
5
39
2
10
59.043939
20
17.121322
11
59.031495
21
17.637401
0
LINE
8
boundary
62
5
39
2
10
59.031495
20
17.637401
11
58.995601
21
18.166028
0
LINE
8
boundary
62
5
39
2
10
58.995601
20
18.166028
11
58.935388
21
18.707239
0
LINE
8
boundary
62
5
39
2
10
58.935388
20
18.707239
11
58.850210
21
19.261078
0
LINE
8
boundary
62
5
39
2
10
58.850210
20
19.261078
11
58.739176
21
19.827705
0
LINE
8
boundary
62
5
39
2
10
58.739176
20
19.827705
11
58.601620
21
20.407141
0
LINE
8
boundary
62
5
39
2
10
58.601620
20
20.407141
11
58.462845
21
20.905283
0
LINE
8
boundary
62
5
39
2
10
58.462845
20
20.905283
11
58.274590
21
21.507584
0
LINE
8
boundary
62
5
39
2
10
58.274590
20
21.507584
11
58.057472
21
22.123055
0
LINE
8
boundary
62
5
39
2
10
58.057472
20
22.123055
11
57.810870
21
22.751846
0
LINE
8
boundary
62
5
39
2
10
57.810870
20
22.751846
11
57.162601
21
23.153777
0
LINE
8
boundary
62
5
39
2
10
57.162601
20
23.153777
11
56.436059
21
23.544602
0
LINE
8
boundary
62
5
39
2
10
56.436059
20
23.544602
11
55.709651
21
23.973632
0
LINE
8
boundary
62
5
39
2
10
55.709651
20
23.973632
11
54.983802
21
24.440600
0
LINE
8
boundary
62
5
39
2
10
54.983802
20
24.440600
11
54.258858
21
24.945104
0
LINE
8
boundary
62
5
39
2
10
54.258858
20
24.945104
11
53.535156
21
25.486647
0
LINE
8
boundary
62
5
39
2
10
53.535156
20
25.486647
11
52.813032
21
26.064882
0
LINE
8
boundary
62
5
39
2
10
52.813032
20
26.064882
11
52.092749
21
26.679397
0
LINE
8
boundary
62
5
39
2
10
52.092749
20
26.679397
11
51.374707
21
27.329738
0
LINE
8
boundary
62
5
39
2
10
51.374707
20
27.329738
11
50.659200
21
28.015440
0
LINE
8
boundary
62
5
39
2
10
50.659200
20
28.015440
11
49.946532
21
28.735938
0
LINE
8
boundary
62
5
39
2
10
49.946532
20
28.735938
11
49.237117
21
29.490867
0
LINE
8
boundary
62
5
39
2
10
49.237117
20
29.490867
11
48.531189
21
30.279668
0
LINE
8
boundary
62
5
39
2
10
48.531189
20
30.279668
11
47.829051
21
31.101853
0
LINE
8
boundary
62
5
39
2
10
47.829051
20
31.101853
11
47.131116
21
31.956886
0
LINE
8
boundary
62
5
39
2
10
47.131116
20
31.956886
11
46.437637
21
32.844175
0
LINE
8
boundary
62
5
39
2
10
46.437637
20
32.844175
11
45.749007
21
33.763263
0
LINE
8
boundary
62
5
39
2
10
45.749007
20
33.763263
11
45.065594
21
34.713524
0
LINE
8
boundary
62
5
39
2
10
45.065594
20
34.713524
11
44.387622
21
35.694417
0
LINE
8
boundary
62
5
39
2
10
44.387622
20
35.694417
11
43.715436
21
36.705376
0
LINE
8
boundary
62
5
39
2
10
43.715436
20
36.705376
11
43.049387
21
37.745804
0
LINE
8
boundary
62
5
39
2
10
43.049387
20
37.745804
11
42.389893
21
38.815139
0
LINE
8
boundary
62
5
39
2
10
42.389893
20
38.815139
11
41.737168
21
39.912774
0
LINE
8
boundary
62
5
39
2
10
41.737168
20
39.912774
11
41.091532
21
41.038063
0
LINE
8
boundary
62
5
39
2
10
41.091532
20
41.038063
11
40.453459
21
42.190519
0
LINE
8
boundary
62
5
39
2
10
40.453459
20
42.190519
11
39.823234
21
43.369448
0
LINE
8
boundary
62
5
39
2
10
39.823234
20
43.369448
11
39.201252
21
44.574191
0
LINE
8
boundary
62
5
39
2
10
39.201252
20
44.574191
11
38.587772
21
45.804276
0
LINE
8
boundary
62
5
39
2
10
38.587772
20
45.804276
11
37.983279
21
47.058985
0
LINE
8
boundary
62
5
39
2
10
37.983279
20
47.058985
11
37.387987
21
48.337782
0
LINE
8
boundary
62
5
39
2
10
37.387987
20
48.337782
11
36.802318
21
49.640001
0
LINE
8
boundary
62
5
39
2
10
36.802318
20
49.640001
11
36.226674
21
50.965047
0
LINE
8
boundary
62
5
39
2
10
36.226674
20
50.965047
11
35.661439
21
52.312304
0
LINE
8
boundary
62
5
39
2
10
35.661439
20
52.312304
11
35.106952
21
53.681166
0
LINE
8
boundary
62
5
39
2
10
35.106952
20
53.681166
11
34.563609
21
55.071073
0
LINE
8
boundary
62
5
39
2
10
34.563609
20
55.071073
11
34.031835
21
56.481366
0
LINE
8
boundary
62
5
39
2
10
34.031835
20
56.481366
11
33.512027
21
57.911473
0
LINE
8
boundary
62
5
39
2
10
33.512027
20
57.911473
11
33.004572
21
59.360828
0
LINE
8
boundary
62
5
39
2
10
33.004572
20
59.360828
11
32.509790
21
60.828823
0
LINE
8
boundary
62
5
39
2
10
32.509790
20
60.828823
11
32.346483
21
61.315757
0
LINE
8
boundary
62
5
39
2
10
32.346483
20
61.315757
11
32.028149
21
62.314849
0
LINE
8
boundary
62
5
39
2
10
32.028149
20
62.314849
11
31.866017
21
62.817809
0
LINE
8
boundary
62
5
39
2
10
31.866017
20
62.817809
11
31.559949
21
63.818389
0
LINE
8
boundary
62
5
39
2
10
31.559949
20
63.818389
11
31.399268
21
64.337589
0
LINE
8
boundary
62
5
39
2
10
31.399268
20
64.337589
11
31.105748
21
65.338887
0
LINE
8
boundary
62
5
39
2
10
31.105748
20
65.338887
11
30.946828
21
65.874445
0
LINE
8
boundary
62
5
39
2
10
30.946828
20
65.874445
11
30.665943
21
66.875752
0
LINE
8
boundary
62
5
39
2
10
30.665943
20
66.875752
11
30.509176
21
67.427809
0
LINE
8
boundary
62
5
39
2
10
30.509176
20
67.427809
11
30.240866
21
68.428470
0
LINE
8
boundary
62
5
39
2
10
30.240866
20
68.428470
11
30.086479
21
68.997145
0
LINE
8
boundary
62
5
39
2
10
30.086479
20
68.997145
11
29.831107
21
69.996409
0
LINE
8
boundary
62
5
39
2
10
29.831107
20
69.996409
11
29.679554
21
70.581794
0
LINE
8
boundary
62
5
39
2
10
29.679554
20
70.581794
11
29.436927
21
71.579147
0
LINE
8
boundary
62
5
39
2
10
29.436927
20
71.579147
11
29.288538
21
72.181321
0
LINE
8
boundary
62
5
39
2
10
29.288538
20
72.181321
11
29.058810
21
73.176125
0
LINE
8
boundary
62
5
39
2
10
29.058810
20
73.176125
11
28.913945
21
73.795143
0
LINE
8
boundary
62
5
39
2
10
28.913945
20
73.795143
11
28.697143
21
74.786815
0
LINE
8
boundary
62
5
39
2
10
28.697143
20
74.786815
11
28.556258
21
75.422715
0
LINE
8
boundary
62
5
39
2
10
28.556258
20
75.422715
11
28.352435
21
76.410761
0
LINE
8
boundary
62
5
39
2
10
28.352435
20
76.410761
11
28.215911
21
77.063544
0
LINE
8
boundary
62
5
39
2
10
28.215911
20
77.063544
11
28.025114
21
78.047437
0
LINE
8
boundary
62
5
39
2
10
28.025114
20
78.047437
11
27.893405
21
78.717073
0
LINE
8
boundary
62
5
39
2
10
27.893405
20
78.717073
11
27.715618
21
79.696347
0
LINE
8
boundary
62
5
39
2
10
27.715618
20
79.696347
11
27.589161
21
80.382798
0
LINE
8
boundary
62
5
39
2
10
27.589161
20
80.382798
11
27.424344
21
81.357040
0
LINE
8
boundary
62
5
39
2
10
27.424344
20
81.357040
11
27.303615
21
82.060237
0
LINE
8
boundary
62
5
39
2
10
27.303615
20
82.060237
11
27.151837
21
83.029079
0
LINE
8
boundary
62
5
39
2
10
27.151837
20
83.029079
11
27.037342
21
83.748936
0
LINE
8
boundary
62
5
39
2
10
27.037342
20
83.748936
11
26.898453
21
84.712058
0
LINE
8
boundary
62
5
39
2
10
26.898453
20
84.712058
11
26.790591
21
85.448433
0
LINE
8
boundary
62
5
39
2
10
26.790591
20
85.448433
11
26.664629
21
86.405424
0
LINE
8
boundary
62
5
39
2
10
26.664629
20
86.405424
11
26.563923
21
87.158139
0
LINE
8
boundary
62
5
39
2
10
26.563923
20
87.158139
11
26.450872
21
88.108813
0
LINE
8
boundary
62
5
39
2
10
26.450872
20
88.108813
11
26.357886
21
88.877692
0
LINE
8
boundary
62
5
39
2
10
26.357886
20
88.877692
11
26.257635
21
89.821853
0
LINE
8
boundary
62
5
39
2
10
26.257635
20
89.821853
11
26.172779
21
90.606693
0
LINE
8
boundary
62
5
39
2
10
26.172779
20
90.606693
11
26.085299
21
91.544118
0
LINE
8
boundary
62
5
39
2
10
26.085299
20
91.544118
11
26.009196
21
92.344627
0
LINE
8
boundary
62
5
39
2
10
26.009196
20
92.344627
11
25.934392
21
93.275176
0
LINE
8
boundary
62
5
39
2
10
25.934392
20
93.275176
11
25.867467
21
94.091076
0
LINE
8
boundary
62
5
39
2
10
25.867467
20
94.091076
11
25.805355
21
95.014686
0
LINE
8
boundary
62
5
39
2
10
25.805355
20
95.014686
11
25.748190
21
95.845687
0
LINE
8
boundary
62
5
39
2
10
25.748190
20
95.845687
11
25.698596
21
96.762294
0
LINE
8
boundary
62
5
39
2
10
25.698596
20
96.762294
11
25.651711
21
97.608035
0
LINE
8
boundary
62
5
39
2
10
25.651711
20
97.608035
11
25.614552
21
98.517632
0
LINE
8
boundary
62
5
39
2
10
25.614552
20
98.517632
11
25.578349
21
99.377714
0
LINE
8
boundary
62
5
39
2
10
25.578349
20
99.377714
11
25.553684
21
100.280364
0
LINE
8
boundary
62
5
39
2
10
25.553684
20
100.280364
11
25.528851
21
101.154388
0
LINE
8
boundary
62
5
39
2
10
25.528851
20
101.154388
11
25.516597
21
102.050128
0
LINE
8
boundary
62
5
39
2
10
25.516597
20
102.050128
11
25.503569
21
102.937609
0
LINE
8
boundary
62
5
39
2
10
25.503569
20
102.937609
11
25.442187
21
103.643967
0
LINE
8
boundary
62
5
39
2
10
25.442187
20
103.643967
11
25.378989
21
104.358171
0
LINE
8
boundary
62
5
39
2
10
25.378989
20
104.358171
11
25.324905
21
105.054024
0
LINE
8
boundary
62
5
39
2
10
25.324905
20
105.054024
11
25.268031
21
105.772134
0
LINE
8
boundary
62
5
39
2
10
25.268031
20
105.772134
11
25.220902
21
106.457857
0
LINE
8
boundary
62
5
39
2
10
25.220902
20
106.457857
11
25.170240
21
107.179729
0
LINE
8
boundary
62
5
39
2
10
25.170240
20
107.179729
11
25.129946
21
107.855524
0
LINE
8
boundary
62
5
39
2
10
25.129946
20
107.855524
11
25.085740
21
108.580839
0
LINE
8
boundary
62
5
39
2
10
25.085740
20
108.580839
11
25.052046
21
109.247066
0
LINE
8
boundary
62
5
39
2
10
25.052046
20
109.247066
11
25.014304
21
109.975644
0
LINE
8
boundary
62
5
39
2
10
25.014304
20
109.975644
11
24.986974
21
110.632591
0
LINE
8
boundary
62
5
39
2
10
24.986974
20
110.632591
11
24.955739
21
111.364202
0
LINE
8
boundary
62
5
39
2
10
24.955739
20
111.364202
11
24.919532
21
112.654539
0
LINE
8
boundary
62
5
39
2
10
24.919532
20
112.654539
11
24.876843
21
114.122765
0
LINE
8
boundary
62
5
39
2
10
24.876843
20
114.122765
11
24.864059
21
115.379157
0
LINE
8
boundary
62
5
39
2
10
24.864059
20
115.379157
11
24.847862
21
116.857135
0
LINE
8
boundary
62
5
39
2
10
24.847862
20
116.857135
11
24.857264
21
118.081849
0
LINE
8
boundary
62
5
39
2
10
24.857264
20
118.081849
11
24.867795
21
119.567741
0
LINE
8
boundary
62
5
39
2
10
24.867795
20
119.567741
11
24.898128
21
120.763185
0
LINE
8
boundary
62
5
39
2
10
24.898128
20
120.763185
11
24.935431
21
122.255194
0
LINE
8
boundary
62
5
39
2
10
24.935431
20
122.255194
11
24.985550
21
123.423705
0
LINE
8
boundary
62
5
39
2
10
24.985550
20
123.423705
11
25.049433
21
124.920157
0
LINE
8
boundary
62
5
39
2
10
25.049433
20
124.920157
11
25.118316
21
126.063987
0
LINE
8
boundary
62
5
39
2
10
25.118316
20
126.063987
11
25.208668
21
127.563094
0
LINE
8
boundary
62
5
39
2
10
25.208668
20
127.563094
11
25.295491
21
128.684450
0
LINE
8
boundary
62
5
39
2
10
25.295491
20
128.684450
11
25.411935
21
130.184542
0
LINE
8
boundary
62
5
39
2
10
25.411935
20
130.184542
11
25.515705
21
131.285626
0
LINE
8
boundary
62
5
39
2
10
25.515705
20
131.285626
11
25.657682
21
132.785150
0
LINE
8
boundary
62
5
39
2
10
25.657682
20
132.785150
11
25.777708
21
133.868030
0
LINE
8
boundary
62
5
39
2
10
25.777708
20
133.868030
11
25.944640
21
135.365385
0
LINE
8
boundary
62
5
39
2
10
25.944640
20
135.365385
11
26.080242
21
136.432075
0
LINE
8
boundary
62
5
39
2
10
26.080242
20
136.432075
11
26.271400
21
137.925827
0
LINE
8
boundary
62
5
39
2
10
26.271400
20
137.925827
11
26.422027
21
138.978300
0
LINE
8
boundary
62
5
39
2
10
26.422027
20
138.978300
11
26.636687
21
140.467045
0
LINE
8
boundary
62
5
39
2
10
26.636687
20
140.467045
11
26.801772
21
141.507075
0
LINE
8
boundary
62
5
39
2
10
26.801772
20
141.507075
11
27.039009
21
142.989436
0
LINE
8
boundary
62
5
39
2
10
27.039009
20
142.989436
11
27.218161
21
144.018845
0
LINE
8
boundary
62
5
39
2
10
27.218161
20
144.018845
11
27.477082
21
145.493660
0
LINE
8
boundary
62
5
39
2
10
27.477082
20
145.493660
11
27.669830
21
146.514071
0
LINE
8
boundary
62
5
39
2
10
27.669830
20
146.514071
11
27.949276
21
147.980095
0
LINE
8
boundary
62
5
39
2
10
27.949276
20
147.980095
11
28.155212
21
148.993112
0
LINE
8
boundary
62
5
39
2
10
28.155212
20
148.993112
11
28.454158
21
150.449298
0
LINE
8
boundary
62
5
39
2
10
28.454158
20
150.449298
11
28.672963
21
151.456349
0
LINE
8
boundary
62
5
39
2
10
28.672963
20
151.456349
11
28.990243
21
152.901712
0
LINE
8
boundary
62
5
39
2
10
28.990243
20
152.901712
11
29.221687
21
153.904198
0
LINE
8
boundary
62
5
39
2
10
29.221687
20
153.904198
11
29.556191
21
155.337793
0
LINE
8
boundary
62
5
39
2
10
29.556191
20
155.337793
11
29.799934
21
156.336969
0
LINE
8
boundary
62
5
39
2
10
29.799934
20
156.336969
11
30.150416
21
157.757972
0
LINE
8
boundary
62
5
39
2
10
30.150416
20
157.757972
11
30.406116
21
158.755034
0
LINE
8
boundary
62
5
39
2
10
30.406116
20
158.755034
11
30.771327
21
160.162667
0
LINE
8
boundary
62
5
39
2
10
30.771327
20
160.162667
11
31.038763
21
161.158714
0
LINE
8
boundary
62
5
39
2
10
31.038763
20
161.158714
11
31.417432
21
162.552344
0
LINE
8
boundary
62
5
39
2
10
31.417432
20
162.552344
11
31.696337
21
163.548363
0
LINE
8
boundary
62
5
39
2
10
31.696337
20
163.548363
11
32.087258
21
164.927280
0
LINE
8
boundary
62
5
39
2
10
32.087258
20
164.927280
11
32.377395
21
165.924199
0
LINE
8
boundary
62
5
39
2
10
32.377395
20
165.924199
11
32.779423
21
167.287929
0
LINE
8
boundary
62
5
39
2
10
32.779423
20
167.287929
11
33.080456
21
168.286645
0
LINE
8
boundary
62
5
39
2
10
33.080456
20
168.286645
11
33.492234
21
169.634730
0
LINE
8
boundary
62
5
39
2
10
33.492234
20
169.634730
11
33.803888
21
170.635903
0
LINE
8
boundary
62
5
39
2
10
33.803888
20
170.635903
11
34.224242
21
171.967800
0
LINE
8
boundary
62
5
39
2
10
34.224242
20
171.967800
11
34.546169
21
172.972185
0
LINE
8
boundary
62
5
39
2
10
34.546169
20
172.972185
11
34.973823
21
174.287640
0
LINE
8
boundary
62
5
39
2
10
34.973823
20
174.287640
11
35.305738
21
175.295884
0
LINE
8
boundary
62
5
39
2
10
35.305738
20
175.295884
11
35.739584
21
176.594539
0
LINE
8
boundary
62
5
39
2
10
35.739584
20
176.594539
11
36.081138
21
177.607136
0
LINE
8
boundary
62
5
39
2
10
36.081138
20
177.607136
11
36.520055
21
178.888718
0
LINE
8
boundary
62
5
39
2
10
36.520055
20
178.888718
11
36.870836
21
179.906217
0
LINE
8
boundary
62
5
39
2
10
36.870836
20
179.906217
11
37.313554
21
181.170503
0
LINE
8
boundary
62
5
39
2
10
37.313554
20
181.170503
11
37.673202
21
182.193283
0
LINE
8
boundary
62
5
39
2
10
37.673202
20
182.193283
11
38.118770
21
183.440142
0
LINE
8
boundary
62
5
39
2
10
38.118770
20
183.440142
11
38.486822
21
184.468674
0
LINE
8
boundary
62
5
39
2
10
38.486822
20
184.468674
11
38.934109
21
185.697948
0
LINE
8
boundary
62
5
39
2
10
38.934109
20
185.697948
11
39.310201
21
186.732524
0
LINE
8
boundary
62
5
39
2
10
39.310201
20
186.732524
11
39.758248
21
187.944088
0
LINE
8
boundary
62
5
39
2
10
39.758248
20
187.944088
11
40.141771
21
188.984996
0
LINE
8
boundary
62
5
39
2
10
40.141771
20
188.984996
11
40.589501
21
190.178797
0
LINE
8
boundary
62
5
39
2
10
40.589501
20
190.178797
11
40.980105
21
191.226298
0
LINE
8
boundary
62
5
39
2
10
40.980105
20
191.226298
11
41.426745
21
192.402303
0
LINE
8
boundary
62
5
39
2
10
41.426745
20
192.402303
11
41.823839
21
193.456579
0
LINE
8
boundary
62
5
39
2
10
41.823839
20
193.456579
11
42.268344
21
194.614708
0
LINE
8
boundary
62
5
39
2
10
42.268344
20
194.614708
11
42.671334
21
195.675997
0
LINE
8
boundary
62
5
39
2
10
42.671334
20
195.675997
11
43.112836
21
196.816361
0
LINE
8
boundary
62
5
39
2
10
43.112836
20
196.816361
11
43.928865
21
198.945852
0
LINE
8
boundary
62
5
39
2
10
43.928865
20
198.945852
11
44.805455
21
201.187674
0
LINE
8
boundary
62
5
39
2
10
44.805455
20
201.187674
11
45.638381
21
203.346869
0
LINE
8
boundary
62
5
39
2
10
45.638381
20
203.346869
11
46.493817
21
205.517448
0
LINE
8
boundary
62
5
39
2
10
46.493817
20
205.517448
11
47.338622
21
207.706794
0
LINE
8
boundary
62
5
39
2
10
47.338622
20
207.706794
11
48.167518
21
209.806744
0
LINE
8
boundary
62
5
39
2
10
48.167518
20
209.806744
11
49.018950
21
212.026379
0
LINE
8
boundary
62
5
39
2
10
49.018950
20
212.026379
11
49.816577
21
214.056527
0
LINE
8
boundary
62
5
39
2
10
49.816577
20
214.056527
11
50.669010
21
216.306081
0
LINE
8
boundary
62
5
39
2
10
50.669010
20
216.306081
11
51.431284
21
218.267378
0
LINE
8
boundary
62
5
39
2
10
51.431284
20
218.267378
11
53.100919
21
222.811490
0
LINE
8
boundary
62
5
39
2
10
53.100919
20
222.811490
11
54.521686
21
226.575138
0
LINE
8
boundary
62
5
39
2
10
54.521686
20
226.575138
11
56.129300
21
231.236846
0
LINE
8
boundary
62
5
39
2
10
56.129300
20
231.236846
11
57.371988
21
234.734178
0
LINE
8
boundary
62
5
39
2
10
57.371988
20
234.734178
11
58.142398
21
237.121544
0
LINE
8
boundary
62
5
39
2
10
58.142398
20
237.121544
11
58.688351
21
238.758984
0
LINE
8
boundary
62
5
39
2
10
58.688351
20
238.758984
11
59.424491
21
241.170295
0
LINE
8
boundary
62
5
39
2
10
59.424491
20
241.170295
11
59.922855
21
242.747776
0
LINE
8
boundary
62
5
39
2
10
59.922855
20
242.747776
11
60.619141
21
245.181470
0
LINE
8
boundary
62
5
39
2
10
60.619141
20
245.181470
11
61.069717
21
246.700806
0
LINE
8
boundary
62
5
39
2
10
61.069717
20
246.700806
11
61.401666
21
247.928234
0
LINE
8
boundary
62
5
39
2
10
61.401666
20
247.928234
11
61.608294
21
248.664098
0
LINE
8
boundary
62
5
39
2
10
61.608294
20
248.664098
11
61.928021
21
249.896355
0
LINE
8
boundary
62
5
39
2
10
61.928021
20
249.896355
11
62.122781
21
250.618613
0
LINE
8
boundary
62
5
39
2
10
62.122781
20
250.618613
11
62.616726
21
252.639948
0
LINE
8
boundary
62
5
39
2
10
62.616726
20
252.639948
11
62.910063
21
253.793918
0
LINE
8
boundary
62
5
39
2
10
62.910063
20
253.793918
11
63.383944
21
255.903465
0
LINE
8
boundary
62
5
39
2
10
63.383944
20
255.903465
11
63.655663
21
257.064143
0
LINE
8
boundary
62
5
39
2
10
63.655663
20
257.064143
11
63.883310
21
258.152393
0
LINE
8
boundary
62
5
39
2
10
63.883310
20
258.152393
11
64.010005
21
258.732705
0
LINE
8
boundary
62
5
39
2
10
64.010005
20
258.732705
11
64.230204
21
259.841986
0
LINE
8
boundary
62
5
39
2
10
64.230204
20
259.841986
11
64.350612
21
260.422451
0
LINE
8
boundary
62
5
39
2
10
64.350612
20
260.422451
11
64.562550
21
261.552342
0
LINE
8
boundary
62
5
39
2
10
64.562550
20
261.552342
11
64.676398
21
262.132526
0
LINE
8
boundary
62
5
39
2
10
64.676398
20
262.132526
11
64.879375
21
263.282670
0
LINE
8
boundary
62
5
39
2
10
64.879375
20
263.282670
11
64.986475
21
263.862077
0
LINE
8
boundary
62
5
39
2
10
64.986475
20
263.862077
11
65.179641
21
265.032097
0
LINE
8
boundary
62
5
39
2
10
65.179641
20
265.032097
11
65.279745
21
265.610316
0
LINE
8
boundary
62
5
39
2
10
65.279745
20
265.610316
11
65.462393
21
266.799824
0
LINE
8
boundary
62
5
39
2
10
65.462393
20
266.799824
11
65.555389
21
267.376436
0
LINE
8
boundary
62
5
39
2
10
65.555389
20
267.376436
11
65.726698
21
268.585027
0
LINE
8
boundary
62
5
39
2
10
65.726698
20
268.585027
11
65.812391
21
269.159629
0
LINE
8
boundary
62
5
39
2
10
65.812391
20
269.159629
11
65.971723
21
270.386917
0
LINE
8
boundary
62
5
39
2
10
65.971723
20
270.386917
11
66.050028
21
270.959176
0
LINE
8
boundary
62
5
39
2
10
66.050028
20
270.959176
11
66.196522
21
272.204630
0
LINE
8
boundary
62
5
39
2
10
66.196522
20
272.204630
11
66.267310
21
272.774177
0
LINE
8
boundary
62
5
39
2
10
66.267310
20
272.774177
11
66.400324
21
274.037422
0
LINE
8
boundary
62
5
39
2
10
66.400324
20
274.037422
11
66.463502
21
274.603923
0
LINE
8
boundary
62
5
39
2
10
66.463502
20
274.603923
11
66.582239
21
275.884466
0
LINE
8
boundary
62
5
39
2
10
66.582239
20
275.884466
11
66.637752
21
276.447666
0
LINE
8
boundary
62
5
39
2
10
66.637752
20
276.447666
11
66.741628
21
277.745099
0
LINE
8
boundary
62
5
39
2
10
66.741628
20
277.745099
11
66.789474
21
278.304726
0
LINE
8
boundary
62
5
39
2
10
66.789474
20
278.304726
11
66.877699
21
279.618495
0
LINE
8
boundary
62
5
39
2
10
66.877699
20
279.618495
11
66.917785
21
280.174283
0
LINE
8
boundary
62
5
39
2
10
66.917785
20
280.174283
11
66.989734
21
281.503918
0
LINE
8
boundary
62
5
39
2
10
66.989734
20
281.503918
11
67.022095
21
282.055642
0
LINE
8
boundary
62
5
39
2
10
67.022095
20
282.055642
11
67.077132
21
283.400625
0
LINE
8
boundary
62
5
39
2
10
67.077132
20
283.400625
11
67.101743
21
283.948090
0
LINE
8
boundary
62
5
39
2
10
67.101743
20
283.948090
11
67.139109
21
285.308023
0
LINE
8
boundary
62
5
39
2
10
67.139109
20
285.308023
11
67.155954
21
285.851076
0
LINE
8
boundary
62
5
39
2
10
67.155954
20
285.851076
11
67.175058
21
287.225251
0
LINE
8
boundary
62
5
39
2
10
67.175058
20
287.225251
11
67.184210
21
287.763681
0
LINE
8
boundary
62
5
39
2
10
67.184210
20
287.763681
11
67.184487
21
289.151703
0
LINE
8
boundary
62
5
39
2
10
67.184487
20
289.151703
11
67.185960
21
289.685471
0
LINE
8
boundary
62
5
39
2
10
67.185960
20
289.685471
11
67.166676
21
291.086743
0
LINE
8
boundary
62
5
39
2
10
67.166676
20
291.086743
11
67.160474
21
291.615655
0
LINE
8
boundary
62
5
39
2
10
67.160474
20
291.615655
11
67.121091
21
293.029627
0
LINE
8
boundary
62
5
39
2
10
67.121091
20
293.029627
11
67.107294
21
293.553666
0
LINE
8
boundary
62
5
39
2
10
67.107294
20
293.553666
11
67.047191
21
294.979826
0
LINE
8
boundary
62
5
39
2
10
67.047191
20
294.979826
11
67.025811
21
295.498911
0
LINE
8
boundary
62
5
39
2
10
67.025811
20
295.498911
11
66.944382
21
296.936669
0
LINE
8
boundary
62
5
39
2
10
66.944382
20
296.936669
11
66.915480
21
297.450733
0
LINE
8
boundary
62
5
39
2
10
66.915480
20
297.450733
11
66.812205
21
298.899412
0
LINE
8
boundary
62
5
39
2
10
66.812205
20
298.899412
11
66.775835
21
299.408448
0
LINE
8
boundary
62
5
39
2
10
66.775835
20
299.408448
11
66.650086
21
300.867601
0
LINE
8
boundary
62
5
39
2
10
66.650086
20
300.867601
11
66.457592
21
302.840665
0
LINE
8
boundary
62
5
39
2
10
66.457592
20
302.840665
11
66.234064
21
304.817894
0
LINE
8
boundary
62
5
39
2
10
66.234064
20
304.817894
11
65.979128
21
306.798850
0
LINE
8
boundary
62
5
39
2
10
65.979128
20
306.798850
11
65.692199
21
308.782916
0
LINE
8
boundary
62
5
39
2
10
65.692199
20
308.782916
11
65.372814
21
310.769599
0
LINE
8
boundary
62
5
39
2
10
65.372814
20
310.769599
11
65.020454
21
312.758277
0
LINE
8
boundary
62
5
39
2
10
65.020454
20
312.758277
11
64.634575
21
314.748556
0
LINE
8
boundary
62
5
39
2
10
64.634575
20
314.748556
11
64.214747
21
316.739816
0
LINE
8
boundary
62
5
39
2
10
64.214747
20
316.739816
11
63.760362
21
318.731618
0
LINE
8
boundary
62
5
39
2
10
63.760362
20
318.731618
11
63.270985
21
320.723448
0
LINE
8
boundary
62
5
39
2
10
63.270985
20
320.723448
11
62.745953
21
322.714872
0
LINE
8
boundary
62
5
39
2
10
62.745953
20
322.714872
11
62.184731
21
324.705325
0
LINE
8
boundary
62
5
39
2
10
62.184731
20
324.705325
11
61.586882
21
326.694426
0
LINE
8
boundary
62
5
39
2
10
61.586882
20
326.694426
11
60.951755
21
328.681631
0
LINE
8
boundary
62
5
39
2
10
60.951755
20
328.681631
11
60.278693
21
330.666535
0
LINE
8
boundary
62
5
39
2
10
60.278693
20
330.666535
11
59.567092
21
332.648700
0
LINE
8
boundary
62
5
39
2
10
59.567092
20
332.648700
11
59.114772
21
333.856496
0
LINE
8
boundary
62
5
39
2
10
59.114772
20
333.856496
11
58.732508
21
334.844875
0
LINE
8
boundary
62
5
39
2
10
58.732508
20
334.844875
11
58.340284
21
335.832403
0
LINE
8
boundary
62
5
39
2
10
58.340284
20
335.832403
11
57.938033
21
336.818948
0
LINE
8
boundary
62
5
39
2
10
57.938033
20
336.818948
11
57.525630
21
337.804573
0
LINE
8
boundary
62
5
39
2
10
57.525630
20
337.804573
11
57.103061
21
338.789080
0
LINE
8
boundary
62
5
39
2
10
57.103061
20
338.789080
11
56.670197
21
339.772526
0
LINE
8
boundary
62
5
39
2
10
56.670197
20
339.772526
11
56.226926
21
340.754744
0
LINE
8
boundary
62
5
39
2
10
56.226926
20
340.754744
11
55.773219
21
341.735812
0
LINE
8
boundary
62
5
39
2
10
55.773219
20
341.735812
11
55.308954
21
342.715663
0
LINE
8
boundary
62
5
39
2
10
55.308954
20
342.715663
11
54.834096
21
343.694071
0
LINE
8
boundary
62
5
39
2
10
54.834096
20
343.694071
11
54.348445
21
344.671208
0
LINE
8
boundary
62
5
39
2
10
54.348445
20
344.671208
11
53.852048
21
345.646793
0
LINE
8
boundary
62
5
39
2
10
53.852048
20
345.646793
11
53.344733
21
346.621011
0
LINE
8
boundary
62
5
39
2
10
53.344733
20
346.621011
11
52.826449
21
347.593660
0
LINE
8
boundary
62
5
39
2
10
52.826449
20
347.593660
11
52.297075
21
348.564692
0
LINE
8
boundary
62
5
39
2
10
52.297075
20
348.564692
11
51.756514
21
349.534105
0
LINE
8
boundary
62
5
39
2
10
51.756514
20
349.534105
11
51.204785
21
350.501755
0
LINE
8
boundary
62
5
39
2
10
51.204785
20
350.501755
11
50.641635
21
351.467676
0
LINE
8
boundary
62
5
39
2
10
50.641635
20
351.467676
11
50.067054
21
352.431817
0
LINE
8
boundary
62
5
39
2
10
50.067054
20
352.431817
11
49.480978
21
353.394123
0
LINE
8
boundary
62
5
39
2
10
49.480978
20
353.394123
11
48.883208
21
354.354386
0
LINE
8
boundary
62
5
39
2
10
48.883208
20
354.354386
11
48.273764
21
355.312751
0
LINE
8
boundary
62
5
39
2
10
48.273764
20
355.312751
11
47.652514
21
356.269016
0
LINE
8
boundary
62
5
39
2
10
47.652514
20
356.269016
11
47.019328
21
357.223212
0
LINE
8
boundary
62
5
39
2
10
47.019328
20
357.223212
11
46.374228
21
358.175375
0
LINE
8
boundary
62
5
39
2
10
46.374228
20
358.175375
11
45.716896
21
359.125180
0
LINE
8
boundary
62
5
39
2
10
45.716896
20
359.125180
11
45.047459
21
360.072742
0
LINE
8
boundary
62
5
39
2
10
45.047459
20
360.072742
11
44.365762
21
361.018068
0
LINE
8
boundary
62
5
39
2
10
44.365762
20
361.018068
11
43.671725
21
361.960928
0
LINE
8
boundary
62
5
39
2
10
43.671725
20
361.960928
11
42.965183
21
362.901386
0
LINE
8
boundary
62
5
39
2
10
42.965183
20
362.901386
11
42.246071
21
363.839385
0
LINE
8
boundary
62
5
39
2
10
42.246071
20
363.839385
11
41.514365
21
364.774819
0
LINE
8
boundary
62
5
39
2
10
41.514365
20
364.774819
11
40.769863
21
365.707608
0
LINE
8
boundary
62
5
39
2
10
40.769863
20
365.707608
11
40.012588
21
366.637752
0
LINE
8
boundary
62
5
39
2
10
40.012588
20
366.637752
11
39.242455
21
367.565144
0
LINE
8
boundary
62
5
39
2
10
39.242455
20
367.565144
11
38.459265
21
368.489771
0
LINE
8
boundary
62
5
39
2
10
38.459265
20
368.489771
11
37.662948
21
369.411538
0
LINE
8
boundary
62
5
39
2
10
37.662948
20
369.411538
11
36.853458
21
370.330360
0
LINE
8
boundary
62
5
39
2
10
36.853458
20
370.330360
11
36.030794
21
371.246183
0
LINE
8
boundary
62
5
39
2
10
36.030794
20
371.246183
11
35.629727
21
371.876728
0
LINE
8
boundary
62
5
39
2
10
35.629727
20
371.876728
11
35.387486
21
372.397671
0
LINE
8
boundary
62
5
39
2
10
35.387486
20
372.397671
11
35.171291
21
372.894439
0
LINE
8
boundary
62
5
39
2
10
35.171291
20
372.894439
11
34.980494
21
373.367449
0
LINE
8
boundary
62
5
39
2
10
34.980494
20
373.367449
11
34.774455
21
373.927254
0
LINE
8
boundary
62
5
39
2
10
34.774455
20
373.927254
11
34.554806
21
374.648709
0
LINE
8
boundary
62
5
39
2
10
34.554806
20
374.648709
11
34.387417
21
375.392502
0
LINE
8
boundary
62
5
39
2
10
34.387417
20
375.392502
11
34.307684
21
376.052160
0
LINE
8
boundary
62
5
39
2
10
34.307684
20
376.052160
11
34.310888
21
376.631173
0
LINE
8
boundary
62
5
39
2
10
34.310888
20
376.631173
11
34.392594
21
377.133290
0
LINE
8
boundary
62
5
39
2
10
34.392594
20
377.133290
11
34.570474
21
377.611149
0
LINE
8
boundary
62
5
39
2
10
34.570474
20
377.611149
11
34.909938
21
378.075250
0
LINE
8
boundary
62
5
39
2
10
34.909938
20
378.075250
11
35.412341
21
378.443473
0
LINE
8
boundary
62
5
39
2
10
35.412341
20
378.443473
11
36.040246
21
378.678905
0
LINE
8
boundary
62
5
39
2
10
36.040246
20
378.678905
11
36.580470
21
378.776191
0
LINE
8
boundary
62
5
39
2
10
36.580470
20
378.776191
11
37.110354
21
378.809483
0
LINE
8
boundary
62
5
39
2
10
37.110354
20
378.809483
11
37.679773
21
378.796646
0
LINE
8
boundary
62
5
39
2
10
37.679773
20
378.796646
11
38.212902
21
378.749100
0
LINE
8
boundary
62
5
39
2
10
38.212902
20
378.749100
11
38.771949
21
378.669173
0
LINE
8
boundary
62
5
39
2
10
38.771949
20
378.669173
11
39.428531
21
378.547921
0
LINE
8
boundary
62
5
39
2
10
39.428531
20
378.547921
11
40.107932
21
378.393959
0
LINE
8
boundary
62
5
39
2
10
40.107932
20
378.393959
11
40.805772
21
378.211046
0
LINE
8
boundary
62
5
39
2
10
40.805772
20
378.211046
11
41.517666
21
378.002755
0
LINE
8
boundary
62
5
39
2
10
41.517666
20
378.002755
11
42.239135
21
377.772728
0
LINE
8
boundary
62
5
39
2
10
42.239135
20
377.772728
11
42.965798
21
377.524575
0
LINE
8
boundary
62
5
39
2
10
42.965798
20
377.524575
11
43.693198
21
377.261793
0
LINE
8
boundary
62
5
39
2
10
43.693198
20
377.261793
11
44.416927
21
376.988083
0
LINE
8
boundary
62
5
39
2
10
44.416927
20
376.988083
11
45.683082
21
376.482184
0
LINE
8
boundary
62
5
39
2
10
45.683082
20
376.482184
11
47.044750
21
375.915112
0
LINE
8
boundary
62
5
39
2
10
47.044750
20
375.915112
11
48.307943
21
375.373237
0
LINE
8
boundary
62
5
39
2
10
48.307943
20
375.373237
11
49.208490
21
374.785899
0
LINE
8
boundary
62
5
39
2
10
49.208490
20
374.785899
11
50.027377
21
374.202171
0
LINE
8
boundary
62
5
39
2
10
50.027377
20
374.202171
11
50.853687
21
373.638117
0
LINE
8
boundary
62
5
39
2
10
50.853687
20
373.638117
11
51.686864
21
373.093817
0
LINE
8
boundary
62
5
39
2
10
51.686864
20
373.093817
11
52.526322
21
372.569222
0
LINE
8
boundary
62
5
39
2
10
52.526322
20
372.569222
11
53.371626
21
372.064457
0
LINE
8
boundary
62
5
39
2
10
53.371626
20
372.064457
11
54.222043
21
371.579338
0
LINE
8
boundary
62
5
39
2
10
54.222043
20
371.579338
11
55.076979
21
371.114065
0
LINE
8
boundary
62
5
39
2
10
55.076979
20
371.114065
11
55.935981
21
370.668482
0
LINE
8
boundary
62
5
39
2
10
55.935981
20
370.668482
11
56.798440
21
370.242752
0
LINE
8
boundary
62
5
39
2
10
56.798440
20
370.242752
11
57.663775
21
369.836743
0
LINE
8
boundary
62
5
39
2
10
57.663775
20
369.836743
11
58.531321
21
369.450485
0
LINE
8
boundary
62
5
39
2
10
58.531321
20
369.450485
11
59.400678
21
369.084081
0
LINE
8
boundary
62
5
39
2
10
59.400678
20
369.084081
11
60.271100
21
368.737423
0
LINE
8
boundary
62
5
39
2
10
60.271100
20
368.737423
11
61.142201
21
368.410592
0
LINE
8
boundary
62
5
39
2
10
61.142201
20
368.410592
11
62.013408
21
368.103516
0
LINE
8
boundary
62
5
39
2
10
62.013408
20
368.103516
11
62.883991
21
367.816266
0
LINE
8
boundary
62
5
39
2
10
62.883991
20
367.816266
11
63.753662
21
367.548763
0
LINE
8
boundary
62
5
39
2
10
63.753662
20
367.548763
11
64.621704
21
367.301134
0
LINE
8
boundary
62
5
39
2
10
64.621704
20
367.301134
11
65.487624
21
367.073178
0
LINE
8
boundary
62
5
39
2
10
65.487624
20
367.073178
11
66.350950
21
366.865088
0
LINE
8
boundary
62
5
39
2
10
66.350950
20
366.865088
11
67.211229
21
366.676677
0
LINE
8
boundary
62
5
39
2
10
67.211229
20
366.676677
11
68.067809
21
366.508079
0
LINE
8
boundary
62
5
39
2
10
68.067809
20
366.508079
11
68.920290
21
366.359215
0
LINE
8
boundary
62
5
39
2
10
68.920290
20
366.359215
11
69.768219
21
366.230211
0
LINE
8
boundary
62
5
39
2
10
69.768219
20
366.230211
11
70.611009
21
366.120799
0
LINE
8
boundary
62
5
39
2
10
70.611009
20
366.120799
11
71.448296
21
366.031191
0
LINE
8
boundary
62
5
39
2
10
71.448296
20
366.031191
11
72.279574
21
365.961198
0
LINE
8
boundary
62
5
39
2
10
72.279574
20
365.961198
11
73.104409
21
365.910947
0
LINE
8
boundary
62
5
39
2
10
73.104409
20
365.910947
11
73.922492
21
365.880368
0
LINE
8
boundary
62
5
39
2
10
73.922492
20
365.880368
11
74.733217
21
365.869271
0
LINE
8
boundary
62
5
39
2
10
74.733217
20
365.869271
11
75.536290
21
365.878014
0
LINE
8
boundary
62
5
39
2
10
75.536290
20
365.878014
11
76.331263
21
365.906260
0
LINE
8
boundary
62
5
39
2
10
76.331263
20
365.906260
11
77.117905
21
365.954178
0
LINE
8
boundary
62
5
39
2
10
77.117905
20
365.954178
11
77.895619
21
366.021545
0
LINE
8
boundary
62
5
39
2
10
77.895619
20
366.021545
11
78.664284
21
366.108468
0
LINE
8
boundary
62
5
39
2
10
78.664284
20
366.108468
11
79.423421
21
366.214888
0
LINE
8
boundary
62
5
39
2
10
79.423421
20
366.214888
11
80.172713
21
366.340719
0
LINE
8
boundary
62
5
39
2
10
80.172713
20
366.340719
11
80.911916
21
366.486113
0
LINE
8
boundary
62
5
39
2
10
80.911916
20
366.486113
11
81.640828
21
366.650851
0
LINE
8
boundary
62
5
39
2
10
81.640828
20
366.650851
11
82.358953
21
366.834987
0
LINE
8
boundary
62
5
39
2
10
82.358953
20
366.834987
11
83.066082
21
367.038408
0
LINE
8
boundary
62
5
39
2
10
83.066082
20
367.038408
11
83.762072
21
367.261213
0
LINE
8
boundary
62
5
39
2
10
83.762072
20
367.261213
11
84.446624
21
367.503229
0
LINE
8
boundary
62
5
39
2
10
84.446624
20
367.503229
11
85.119455
21
367.764518
0
LINE
8
boundary
62
5
39
2
10
85.119455
20
367.764518
11
85.780372
21
368.045029
0
LINE
8
boundary
62
5
39
2
10
85.780372
20
368.045029
11
86.429298
21
368.344691
0
LINE
8
boundary
62
5
39
2
10
86.429298
20
368.344691
11
87.065856
21
368.663490
0
LINE
8
boundary
62
5
39
2
10
87.065856
20
368.663490
11
87.689972
21
369.001490
0
LINE
8
boundary
62
5
39
2
10
87.689972
20
369.001490
11
88.301468
21
369.358432
0
LINE
8
boundary
62
5
39
2
10
88.301468
20
369.358432
11
88.900238
21
369.734491
0
LINE
8
boundary
62
5
39
2
10
88.900238
20
369.734491
11
89.486090
21
370.129502
0
LINE
8
boundary
62
5
39
2
10
89.486090
20
370.129502
11
90.058865
21
370.543526
0
LINE
8
boundary
62
5
39
2
10
90.058865
20
370.543526
11
90.618464
21
370.976478
0
LINE
8
boundary
62
5
39
2
10
90.618464
20
370.976478
11
91.164847
21
371.428321
0
LINE
8
boundary
62
5
39
2
10
91.164847
20
371.428321
11
91.697713
21
371.899084
0
LINE
8
boundary
62
5
39
2
10
91.697713
20
371.899084
11
92.217099
21
372.388666
0
LINE
8
boundary
62
5
39
2
10
92.217099
20
372.388666
11
92.723006
21
372.897099
0
LINE
8
boundary
62
5
39
2
10
92.723006
20
372.897099
11
93.215155
21
373.424272
0
LINE
8
boundary
62
5
39
2
10
93.215155
20
373.424272
11
93.693553
21
373.970264
0
LINE
8
boundary
62
5
39
2
10
93.693553
20
373.970264
11
94.158115
21
374.534998
0
LINE
8
boundary
62
5
39
2
10
94.158115
20
374.534998
11
94.608707
21
375.118446
0
LINE
8
boundary
62
5
39
2
10
94.608707
20
375.118446
11
95.045305
21
375.720681
0
LINE
8
boundary
62
5
39
2
10
95.045305
20
375.720681
11
95.467839
21
376.341513
0
LINE
8
boundary
62
5
39
2
10
95.467839
20
376.341513
11
95.989412
21
376.924745
0
LINE
8
boundary
62
5
39
2
10
95.989412
20
376.924745
11
96.446983
21
377.501919
0
LINE
8
boundary
62
5
39
2
10
96.446983
20
377.501919
11
96.851596
21
378.095188
0
LINE
8
boundary
62
5
39
2
10
96.851596
20
378.095188
11
97.204874
21
378.704091
0
LINE
8
boundary
62
5
39
2
10
97.204874
20
378.704091
11
97.508346
21
379.328358
0
LINE
8
boundary
62
5
39
2
10
97.508346
20
379.328358
11
97.763313
21
379.967427
0
LINE
8
boundary
62
5
39
2
10
97.763313
20
379.967427
11
97.971234
21
380.620935
0
LINE
8
boundary
62
5
39
2
10
97.971234
20
380.620935
11
98.133306
21
381.288420
0
LINE
8
boundary
62
5
39
2
10
98.133306
20
381.288420
11
98.250603
21
381.969549
0
LINE
8
boundary
62
5
39
2
10
98.250603
20
381.969549
11
98.324403
21
382.663855
0
LINE
8
boundary
62
5
39
2
10
98.324403
20
382.663855
11
98.355550
21
383.370873
0
LINE
8
boundary
62
5
39
2
10
98.355550
20
383.370873
11
98.345260
21
384.090280
0
LINE
8
boundary
62
5
39
2
10
98.345260
20
384.090280
11
98.294256
21
384.821760
0
LINE
8
boundary
62
5
39
2
10
98.294256
20
384.821760
11
98.203655
21
385.564704
0
LINE
8
boundary
62
5
39
2
10
98.203655
20
385.564704
11
98.074147
21
386.318787
0
LINE
8
boundary
62
5
39
2
10
98.074147
20
386.318787
11
97.906613
21
387.083642
0
LINE
8
boundary
62
5
39
2
10
97.906613
20
387.083642
11
97.701975
21
387.858806
0
LINE
8
boundary
62
5
39
2
10
97.701975
20
387.858806
11
97.460947
21
388.643953
0
LINE
8
boundary
62
5
39
2
10
97.460947
20
388.643953
11
97.184236
21
389.438628
0
LINE
8
boundary
62
5
39
2
10
97.184236
20
389.438628
11
96.884744
21
390.214283
0
LINE
8
boundary
62
5
39
2
10
96.884744
20
390.214283
11
96.540770
21
391.025753
0
LINE
8
boundary
62
5
39
2
10
96.540770
20
391.025753
11
96.163605
21
391.845397
0
LINE
8
boundary
62
5
39
2
10
96.163605
20
391.845397
11
95.754060
21
392.672976
0
LINE
8
boundary
62
5
39
2
10
95.754060
20
392.672976
11
95.312809
21
393.507936
0
LINE
8
boundary
62
5
39
2
10
95.312809
20
393.507936
11
94.840742
21
394.349823
0
LINE
8
boundary
62
5
39
2
10
94.840742
20
394.349823
11
94.338743
21
395.198309
0
LINE
8
boundary
62
5
39
2
10
94.338743
20
395.198309
11
93.807531
21
396.053007
0
LINE
8
boundary
62
5
39
2
10
93.807531
20
396.053007
11
93.247977
21
396.913272
0
LINE
8
boundary
62
5
39
2
10
93.247977
20
396.913272
11
92.661068
21
397.778821
0
LINE
8
boundary
62
5
39
2
10
92.661068
20
397.778821
11
92.047519
21
398.649225
0
LINE
8
boundary
62
5
39
2
10
92.047519
20
398.649225
11
91.408464
21
399.524016
0
LINE
8
boundary
62
5
39
2
10
91.408464
20
399.524016
11
90.744800
21
400.402767
0
LINE
8
boundary
62
5
39
2
10
90.744800
20
400.402767
11
90.057475
21
401.285079
0
LINE
8
boundary
62
5
39
2
10
90.057475
20
401.285079
11
89.347489
21
402.170402
0
LINE
8
boundary
62
5
39
2
10
89.347489
20
402.170402
11
88.615884
21
403.058378
0
LINE
8
boundary
62
5
39
2
10
88.615884
20
403.058378
11
87.863758
21
403.948483
0
LINE
8
boundary
62
5
39
2
10
87.863758
20
403.948483
11
87.092305
21
404.840288
0
LINE
8
boundary
62
5
39
2
10
87.092305
20
404.840288
11
86.302442
21
405.733370
0
LINE
8
boundary
62
5
39
2
10
86.302442
20
405.733370
11
85.495419
21
406.627177
0
LINE
8
boundary
62
5
39
2
10
85.495419
20
406.627177
11
84.672403
21
407.521375
0
LINE
8
boundary
62
5
39
2
10
84.672403
20
407.521375
11
83.834699
21
408.415417
0
LINE
8
boundary
62
5
39
2
10
83.834699
20
408.415417
11
82.983362
21
409.308903
0
LINE
8
boundary
62
5
39
2
10
82.983362
20
409.308903
11
81.359111
21
410.979246
0
LINE
8
boundary
62
5
39
2
10
81.359111
20
410.979246
11
79.589712
21
412.749808
0
LINE
8
boundary
62
5
39
2
10
79.589712
20
412.749808
11
77.791494
21
414.508749
0
LINE
8
boundary
62
5
39
2
10
77.791494
20
414.508749
11
75.975408
21
416.252410
0
LINE
8
boundary
62
5
39
2
10
75.975408
20
416.252410
11
74.152224
21
417.977028
0
LINE
8
boundary
62
5
39
2
10
74.152224
20
417.977028
11
70.823118
21
421.087456
0
LINE
8
boundary
62
5
39
2
10
70.823118
20
421.087456
11
70.226111
21
421.627234
0
LINE
8
boundary
62
5
39
2
10
70.226111
20
421.627234
11
67.320853
21
424.331571
0
LINE
8
boundary
62
5
39
2
10
67.320853
20
424.331571
11
66.702311
21
424.889351
0
LINE
8
boundary
62
5
39
2
10
66.702311
20
424.889351
11
65.326087
21
426.178604
0
LINE
8
boundary
62
5
39
2
10
65.326087
20
426.178604
11
63.698924
21
427.707719
0
LINE
8
boundary
62
5
39
2
10
63.698924
20
427.707719
11
62.596923
21
428.739214
0
LINE
8
boundary
62
5
39
2
10
62.596923
20
428.739214
11
61.618177
21
429.638900
0
LINE
8
boundary
62
5
39
2
10
61.618177
20
429.638900
11
60.642544
21
430.514279
0
LINE
8
boundary
62
5
39
2
10
60.642544
20
430.514279
11
59.669923
21
431.365493
0
LINE
8
boundary
62
5
39
2
10
59.669923
20
431.365493
11
58.700514
21
432.193129
0
LINE
8
boundary
62
5
39
2
10
58.700514
20
432.193129
11
57.734141
21
432.997500
0
LINE
8
boundary
62
5
39
2
10
57.734141
20
432.997500
11
56.771053
21
433.778878
0
LINE
8
boundary
62
5
39
2
10
56.771053
20
433.778878
11
55.811198
21
434.537569
0
LINE
8
boundary
62
5
39
2
10
55.811198
20
434.537569
11
54.854531
21
435.273987
0
LINE
8
boundary
62
5
39
2
10
54.854531
20
435.273987
11
53.901049
21
435.988518
0
LINE
8
boundary
62
5
39
2
10
53.901049
20
435.988518
11
52.950858
21
436.681516
0
LINE
8
boundary
62
5
39
2
10
52.950858
20
436.681516
11
52.003919
21
437.353275
0
LINE
8
boundary
62
5
39
2
10
52.003919
20
437.353275
11
51.060237
21
438.004121
0
LINE
8
boundary
62
5
39
2
10
51.060237
20
438.004121
11
50.119801
21
438.634527
0
LINE
8
boundary
62
5
39
2
10
50.119801
20
438.634527
11
49.182685
21
439.244770
0
LINE
8
boundary
62
5
39
2
10
49.182685
20
439.244770
11
48.248797
21
439.835153
0
LINE
8
boundary
62
5
39
2
10
48.248797
20
439.835153
11
47.318213
21
440.406206
0
LINE
8
boundary
62
5
39
2
10
47.318213
20
440.406206
11
46.390859
21
440.958152
0
LINE
8
boundary
62
5
39
2
10
46.390859
20
440.958152
11
45.466773
21
441.491507
0
LINE
8
boundary
62
5
39
2
10
45.466773
20
441.491507
11
44.545944
21
442.006437
0
LINE
8
boundary
62
5
39
2
10
44.545944
20
442.006437
11
43.628380
21
442.503364
0
LINE
8
boundary
62
5
39
2
10
43.628380
20
442.503364
11
42.714017
21
442.982761
0
LINE
8
boundary
62
5
39
2
10
42.714017
20
442.982761
11
41.802895
21
443.444916
0
LINE
8
boundary
62
5
39
2
10
41.802895
20
443.444916
11
40.894971
21
443.890261
0
LINE
8
boundary
62
5
39
2
10
40.894971
20
443.890261
11
39.990367
21
444.319103
0
LINE
8
boundary
62
5
39
2
10
39.990367
20
444.319103
11
39.088836
21
444.731858
0
LINE
8
boundary
62
5
39
2
10
39.088836
20
444.731858
11
38.190536
21
445.128913
0
LINE
8
boundary
62
5
39
2
10
38.190536
20
445.128913
11
37.295408
21
445.510575
0
LINE
8
boundary
62
5
39
2
10
37.295408
20
445.510575
11
36.403444
21
445.877252
0
LINE
8
boundary
62
5
39
2
10
36.403444
20
445.877252
11
35.514579
21
446.229315
0
LINE
8
boundary
62
5
39
2
10
35.514579
20
446.229315
11
34.628860
21
446.567259
0
LINE
8
boundary
62
5
39
2
10
34.628860
20
446.567259
11
33.746273
21
446.891327
0
LINE
8
boundary
62
5
39
2
10
33.746273
20
446.891327
11
32.866755
21
447.201951
0
LINE
8
boundary
62
5
39
2
10
32.866755
20
447.201951
11
31.990289
21
447.499464
0
LINE
8
boundary
62
5
39
2
10
31.990289
20
447.499464
11
31.116866
21
447.784375
0
LINE
8
boundary
62
5
39
2
10
31.116866
20
447.784375
11
30.246440
21
448.056953
0
LINE
8
boundary
62
5
39
2
10
30.246440
20
448.056953
11
29.379076
21
448.317664
0
LINE
8
boundary
62
5
39
2
10
29.379076
20
448.317664
11
28.514689
21
448.566770
0
LINE
8
boundary
62
5
39
2
10
28.514689
20
448.566770
11
27.653245
21
448.804809
0
LINE
8
boundary
62
5
39
2
10
27.653245
20
448.804809
11
26.794817
21
449.032078
0
LINE
8
boundary
62
5
39
2
10
26.794817
20
449.032078
11
25.939248
21
449.248990
0
LINE
8
boundary
62
5
39
2
10
25.939248
20
449.248990
11
25.086545
21
449.455889
0
LINE
8
boundary
62
5
39
2
10
25.086545
20
449.455889
11
23.669475
21
449.777522
0
LINE
8
boundary
62
5
39
2
10
23.669475
20
449.777522
11
23.103061
21
449.904078
0
LINE
8
boundary
62
5
39
2
10
23.103061
20
449.904078
11
21.988350
21
450.132432
0
LINE
8
boundary
62
5
39
2
10
21.988350
20
450.132432
11
21.413116
21
450.249995
0
LINE
8
boundary
62
5
39
2
10
21.413116
20
450.249995
11
20.318586
21
450.455008
0
LINE
8
boundary
62
5
39
2
10
20.318586
20
450.455008
11
19.734114
21
450.564235
0
LINE
8
boundary
62
5
39
2
10
19.734114
20
450.564235
11
18.659991
21
450.748255
0
LINE
8
boundary
62
5
39
2
10
18.659991
20
450.748255
11
18.065834
21
450.849903
0
LINE
8
boundary
62
5
39
2
10
18.065834
20
450.849903
11
17.012383
21
451.015332
0
LINE
8
boundary
62
5
39
2
10
17.012383
20
451.015332
11
16.407972
21
451.110119
0
LINE
8
boundary
62
5
39
2
10
16.407972
20
451.110119
11
15.375579
21
451.259415
0
LINE
8
boundary
62
5
39
2
10
15.375579
20
451.259415
11
14.760281
21
451.348274
0
LINE
8
boundary
62
5
39
2
10
14.760281
20
451.348274
11
13.749521
21
451.483607
0
LINE
8
boundary
62
5
39
2
10
13.749521
20
451.483607
11
13.122658
21
451.567428
0
LINE
8
boundary
62
5
39
2
10
13.122658
20
451.567428
11
12.134095
21
451.690928
0
LINE
8
boundary
62
5
39
2
10
12.134095
20
451.690928
11
11.494850
21
451.770701
0
LINE
8
boundary
62
5
39
2
10
11.494850
20
451.770701
11
10.529109
21
451.884543
0
LINE
8
boundary
62
5
39
2
10
10.529109
20
451.884543
11
9.876492
21
451.961400
0
LINE
8
boundary
62
5
39
2
10
9.876492
20
451.961400
11
7.987882
21
452.171259
0
LINE
8
boundary
62
5
39
2
10
7.987882
20
452.171259
11
6.667500
21
452.317880
0
LINE
8
boundary
62
5
39
2
10
6.667500
20
452.317880
11
6.749402
21
448.024560
0
LINE
8
boundary
62
5
39
2
10
6.749402
20
448.024560
11
6.827890
21
444.821849
0
LINE
8
boundary
62
5
39
2
10
6.827890
20
444.821849
11
9.335330
21
444.552583
0
LINE
8
boundary
62
5
39
2
10
9.335330
20
444.552583
11
11.202723
21
444.352337
0
LINE
8
boundary
62
5
39
2
10
11.202723
20
444.352337
11
11.977912
21
444.129421
0
LINE
8
boundary
62
5
39
2
10
11.977912
20
444.129421
11
12.468926
21
443.988553
0
LINE
8
boundary
62
5
39
2
10
12.468926
20
443.988553
11
13.244997
21
443.756843
0
LINE
8
boundary
62
5
39
2
10
13.244997
20
443.756843
11
13.833635
21
443.580196
0
LINE
8
boundary
62
5
39
2
10
13.833635
20
443.580196
11
31.346980
21
443.430195
0
LINE
8
boundary
62
5
39
2
10
31.346980
20
443.430195
11
31.346980
21
440.684195
0
LINE
8
boundary
62
5
39
2
10
31.346980
20
440.684195
11
22.609255
21
440.684196
0
LINE
8
boundary
62
5
39
2
10
22.609255
20
440.684196
11
23.103653
21
440.336349
0
LINE
8
boundary
62
5
39
2
10
23.103653
20
440.336349
11
23.853284
21
440.031800
0
LINE
8
boundary
62
5
39
2
10
23.853284
20
440.031800
11
24.945219
21
439.579231
0
LINE
8
boundary
62
5
39
2
10
24.945219
20
439.579231
11
26.020071
21
439.119418
0
LINE
8
boundary
62
5
39
2
10
26.020071
20
439.119418
11
27.077860
21
438.652650
0
LINE
8
boundary
62
5
39
2
10
27.077860
20
438.652650
11
28.118675
21
438.178868
0
LINE
8
boundary
62
5
39
2
10
28.118675
20
438.178868
11
29.142585
21
437.698395
0
LINE
8
boundary
62
5
39
2
10
29.142585
20
437.698395
11
30.149634
21
437.211292
0
LINE
8
boundary
62
5
39
2
10
30.149634
20
437.211292
11
31.139843
21
436.717682
0
LINE
8
boundary
62
5
39
2
10
31.139843
20
436.717682
11
32.113315
21
436.217804
0
LINE
8
boundary
62
5
39
2
10
32.113315
20
436.217804
11
33.070097
21
435.711717
0
LINE
8
boundary
62
5
39
2
10
33.070097
20
435.711717
11
34.010190
21
435.199621
0
LINE
8
boundary
62
5
39
2
10
34.010190
20
435.199621
11
34.933647
21
434.681571
0
LINE
8
boundary
62
5
39
2
10
34.933647
20
434.681571
11
35.840568
21
434.157817
0
LINE
8
boundary
62
5
39
2
10
35.840568
20
434.157817
11
36.731006
21
433.628541
0
LINE
8
boundary
62
5
39
2
10
36.731006
20
433.628541
11
37.604935
21
433.093719
0
LINE
8
boundary
62
5
39
2
10
37.604935
20
433.093719
11
38.462495
21
432.553603
0
LINE
8
boundary
62
5
39
2
10
38.462495
20
432.553603
11
39.303707
21
432.008338
0
LINE
8
boundary
62
5
39
2
10
39.303707
20
432.008338
11
40.128582
21
431.458017
0
LINE
8
boundary
62
5
39
2
10
40.128582
20
431.458017
11
40.937299
21
430.902875
0
LINE
8
boundary
62
5
39
2
10
40.937299
20
430.902875
11
41.729777
21
430.342961
0
LINE
8
boundary
62
5
39
2
10
41.729777
20
430.342961
11
42.506067
21
429.778388
0
LINE
8
boundary
62
5
39
2
10
42.506067
20
429.778388
11
43.266221
21
429.209380
0
LINE
8
boundary
62
5
39
2
10
43.266221
20
429.209380
11
44.010409
21
428.636153
0
LINE
8
boundary
62
5
39
2
10
44.010409
20
428.636153
11
44.738656
21
428.058740
0
LINE
8
boundary
62
5
39
2
10
44.738656
20
428.058740
11
45.450910
21
427.477243
0
LINE
8
boundary
62
5
39
2
10
45.450910
20
427.477243
11
46.147304
21
426.891978
0
LINE
8
boundary
62
5
39
2
10
46.147304
20
426.891978
11
46.827942
21
426.302824
0
LINE
8
boundary
62
5
39
2
10
46.827942
20
426.302824
11
47.492749
21
425.710178
0
LINE
8
boundary
62
5
39
2
10
47.492749
20
425.710178
11
48.141957
21
425.114053
0
LINE
8
boundary
62
5
39
2
10
48.141957
20
425.114053
11
48.775430
21
424.514505
0
LINE
8
boundary
62
5
39
2
10
48.775430
20
424.514505
11
49.393369
21
423.911865
0
LINE
8
boundary
62
5
39
2
10
49.393369
20
423.911865
11
49.995822
21
423.306095
0
LINE
8
boundary
62
5
39
2
10
49.995822
20
423.306095
11
50.582830
21
422.697521
0
LINE
8
boundary
62
5
39
2
10
50.582830
20
422.697521
11
51.154475
21
422.086130
0
LINE
8
boundary
62
5
39
2
10
51.154475
20
422.086130
11
51.710770
21
421.472221
0
LINE
8
boundary
62
5
39
2
10
51.710770
20
421.472221
11
52.251792
21
420.855613
0
LINE
8
boundary
62
5
39
2
10
52.251792
20
420.855613
11
52.777591
21
420.236840
0
LINE
8
boundary
62
5
39
2
10
52.777591
20
420.236840
11
53.288293
21
419.615720
0
LINE
8
boundary
62
5
39
2
10
53.288293
20
419.615720
11
53.783941
21
418.992597
0
LINE
8
boundary
62
5
39
2
10
53.783941
20
418.992597
11
54.264544
21
418.367450
0
LINE
8
boundary
62
5
39
2
10
54.264544
20
418.367450
11
54.730259
21
417.740639
0
LINE
8
boundary
62
5
39
2
10
54.730259
20
417.740639
11
55.181037
21
417.112052
0
LINE
8
boundary
62
5
39
2
10
55.181037
20
417.112052
11
55.617078
21
416.481943
0
LINE
8
boundary
62
5
39
2
10
55.617078
20
416.481943
11
56.038357
21
415.850434
0
LINE
8
boundary
62
5
39
2
10
56.038357
20
415.850434
11
56.444937
21
415.217707
0
LINE
8
boundary
62
5
39
2
10
56.444937
20
415.217707
11
56.836956
21
414.583813
0
LINE
8
boundary
62
5
39
2
10
56.836956
20
414.583813
11
57.214380
21
413.948860
0
LINE
8
boundary
62
5
39
2
10
57.214380
20
413.948860
11
57.577363
21
413.313182
0
LINE
8
boundary
62
5
39
2
10
57.577363
20
413.313182
11
57.925944
21
412.676577
0
LINE
8
boundary
62
5
39
2
10
57.925944
20
412.676577
11
58.260158
21
412.039577
0
LINE
8
boundary
62
5
39
2
10
58.260158
20
412.039577
11
58.579979
21
411.401977
0
LINE
8
boundary
62
5
39
2
10
58.579979
20
411.401977
11
58.885710
21
410.764100
0
LINE
8
boundary
62
5
39
2
10
58.885710
20
410.764100
11
59.177162
21
410.126022
0
LINE
8
boundary
62
5
39
2
10
59.177162
20
410.126022
11
59.454578
21
409.487840
0
LINE
8
boundary
62
5
39
2
10
59.454578
20
409.487840
11
59.563758
21
408.591328
0
LINE
8
boundary
62
5
39
2
10
59.563758
20
408.591328
11
59.660405
21
407.629723
0
LINE
8
boundary
62
5
39
2
10
59.660405
20
407.629723
11
59.777994
21
406.655511
0
LINE
8
boundary
62
5
39
2
10
59.777994
20
406.655511
11
59.911241
21
405.672172
0
LINE
8
boundary
62
5
39
2
10
59.911241
20
405.672172
11
60.177129
21
403.854007
0
LINE
8
boundary
62
5
39
2
10
60.177129
20
403.854007
11
60.467117
21
401.875837
0
LINE
8
boundary
62
5
39
2
10
60.467117
20
401.875837
11
60.624175
21
400.737158
0
LINE
8
boundary
62
5
39
2
10
60.624175
20
400.737158
11
60.738576
21
399.770182
0
LINE
8
boundary
62
5
39
2
10
60.738576
20
399.770182
11
60.830949
21
398.817639
0
LINE
8
boundary
62
5
39
2
10
60.830949
20
398.817639
11
60.896070
21
397.882935
0
LINE
8
boundary
62
5
39
2
10
60.896070
20
397.882935
11
60.928369
21
396.969339
0
LINE
8
boundary
62
5
39
2
10
60.928369
20
396.969339
11
60.932705
21
396.450111
0
LINE
8
boundary
62
5
39
2
10
60.932705
20
396.450111
11
60.922054
21
395.940610
0
LINE
8
boundary
62
5
39
2
10
60.922054
20
395.940610
11
60.870133
21
395.150969
0
LINE
8
boundary
62
5
39
2
10
60.870133
20
395.150969
11
60.767629
21
394.323423
0
LINE
8
boundary
62
5
39
2
10
60.767629
20
394.323423
11
60.610065
21
393.530557
0
LINE
8
boundary
62
5
39
2
10
60.610065
20
393.530557
11
60.391890
21
392.775570
0
LINE
8
boundary
62
5
39
2
10
60.391890
20
392.775570
11
60.107449
21
392.061990
0
LINE
8
boundary
62
5
39
2
10
60.107449
20
392.061990
11
59.751210
21
391.393046
0
LINE
8
boundary
62
5
39
2
10
59.751210
20
391.393046
11
59.317281
21
390.771983
0
LINE
8
boundary
62
5
39
2
10
59.317281
20
390.771983
11
58.799969
21
390.202297
0
LINE
8
boundary
62
5
39
2
10
58.799969
20
390.202297
11
58.193383
21
389.687155
0
LINE
8
boundary
62
5
39
2
10
58.193383
20
389.687155
11
57.491502
21
389.230026
0
LINE
8
boundary
62
5
39
2
10
57.491502
20
389.230026
11
57.036986
21
388.990556
0
LINE
8
boundary
62
5
39
2
10
57.036986
20
388.990556
11
56.246818
21
388.660318
0
LINE
8
boundary
62
5
39
2
10
56.246818
20
388.660318
11
55.696343
21
388.476924
0
LINE
8
boundary
62
5
39
2
10
55.696343
20
388.476924
11
55.193177
21
388.339348
0
LINE
8
boundary
62
5
39
2
10
55.193177
20
388.339348
11
54.660533
21
388.219268
0
LINE
8
boundary
62
5
39
2
10
54.660533
20
388.219268
11
54.097734
21
388.117220
0
LINE
8
boundary
62
5
39
2
10
54.097734
20
388.117220
11
53.503808
21
388.033530
0
LINE
8
boundary
62
5
39
2
10
53.503808
20
388.033530
11
52.989938
21
387.979926
0
LINE
8
boundary
62
5
39
2
10
52.989938
20
387.979926
11
52.338365
21
387.930999
0
LINE
8
boundary
62
5
39
2
10
52.338365
20
387.930999
11
51.653593
21
387.901545
0
LINE
8
boundary
62
5
39
2
10
51.653593
20
387.901545
11
50.934897
21
387.892043
0
LINE
8
boundary
62
5
39
2
10
50.934897
20
387.892043
11
50.181334
21
387.902877
0
LINE
8
boundary
62
5
39
2
10
50.181334
20
387.902877
11
49.392026
21
387.934579
0
LINE
8
boundary
62
5
39
2
10
49.392026
20
387.934579
11
48.566336
21
387.987481
0
LINE
8
boundary
62
5
39
2
10
48.566336
20
387.987481
11
47.703421
21
388.062000
0
LINE
8
boundary
62
5
39
2
10
47.703421
20
388.062000
11
46.245605
21
388.570071
0
LINE
8
boundary
62
5
39
2
10
46.245605
20
388.570071
11
44.679937
21
389.153516
0
LINE
8
boundary
62
5
39
2
10
44.679937
20
389.153516
11
43.146461
21
389.706411
0
LINE
8
boundary
62
5
39
2
10
43.146461
20
389.706411
11
41.637670
21
390.229287
0
LINE
8
boundary
62
5
39
2
10
41.637670
20
390.229287
11
40.146239
21
390.722586
0
LINE
8
boundary
62
5
39
2
10
40.146239
20
390.722586
11
38.664533
21
391.186809
0
LINE
8
boundary
62
5
39
2
10
38.664533
20
391.186809
11
37.185046
21
391.622625
0
LINE
8
boundary
62
5
39
2
10
37.185046
20
391.622625
11
35.699982
21
392.030474
0
LINE
8
boundary
62
5
39
2
10
35.699982
20
392.030474
11
34.201564
21
392.410787
0
LINE
8
boundary
62
5
39
2
10
34.201564
20
392.410787
11
32.681972
21
392.764268
0
LINE
8
boundary
62
5
39
2
10
32.681972
20
392.764268
11
31.133317
21
393.091405
0
LINE
8
boundary
62
5
39
2
10
31.133317
20
393.091405
11
29.547735
21
393.392702
0
LINE
8
boundary
62
5
39
2
10
29.547735
20
393.392702
11
27.917166
21
393.668792
0
LINE
8
boundary
62
5
39
2
10
27.917166
20
393.668792
11
26.233727
21
393.920289
0
LINE
8
boundary
62
5
39
2
10
26.233727
20
393.920289
11
24.489306
21
394.147693
0
LINE
8
boundary
62
5
39
2
10
24.489306
20
394.147693
11
22.675934
21
394.351477
0
LINE
8
boundary
62
5
39
2
10
22.675934
20
394.351477
11
22.168793
21
394.406009
0
LINE
8
boundary
62
5
39
2
10
22.168793
20
394.406009
11
22.760176
21
380.888218
0
LINE
8
boundary
62
5
39
2
10
22.760176
20
380.888218
11
23.019062
21
375.320944
0
LINE
8
boundary
62
5
39
2
10
23.019062
20
375.320944
11
28.176948
21
360.218736
0
LINE
8
boundary
62
5
39
2
10
28.176948
20
360.218736
11
37.135772
21
360.218736
0
LINE
8
boundary
62
5
39
2
10
37.135772
20
360.218736
11
37.135772
21
357.472736
0
LINE
8
boundary
62
5
39
2
10
37.135772
20
357.472736
11
29.176324
21
357.472736
0
LINE
8
boundary
62
5
39
2
10
29.176324
20
357.472736
11
31.269075
21
351.165037
0
LINE
8
boundary
62
5
39
2
10
31.269075
20
351.165037
11
35.723664
21
338.287431
0
LINE
8
boundary
62
5
39
2
10
35.723664
20
338.287431
11
36.292962
21
336.777643
0
LINE
8
boundary
62
5
39
2
10
36.292962
20
336.777643
11
36.554657
21
336.093000
0
LINE
8
boundary
62
5
39
2
10
36.554657
20
336.093000
11
37.098861
21
334.578909
0
LINE
8
boundary
62
5
39
2
10
37.098861
20
334.578909
11
37.350034
21
333.889526
0
LINE
8
boundary
62
5
39
2
10
37.350034
20
333.889526
11
37.869170
21
332.371784
0
LINE
8
boundary
62
5
39
2
10
37.869170
20
332.371784
11
38.110039
21
331.677217
0
LINE
8
boundary
62
5
39
2
10
38.110039
20
331.677217
11
38.603862
21
330.156496
0
LINE
8
boundary
62
5
39
2
10
38.603862
20
330.156496
11
38.834427
21
329.456247
0
LINE
8
boundary
62
5
39
2
10
38.834427
20
329.456247
11
39.303227
21
327.933055
0
LINE
8
boundary
62
5
39
2
10
39.303227
20
327.933055
11
39.523687
21
327.226599
0
LINE
8
boundary
62
5
39
2
10
39.523687
20
327.226599
11
39.967358
21
325.701616
0
LINE
8
boundary
62
5
39
2
10
39.967358
20
325.701616
11
40.177711
21
324.988551
0
LINE
8
boundary
62
5
39
2
10
40.177711
20
324.988551
11
40.596376
21
323.462300
0
LINE
8
boundary
62
5
39
2
10
40.596376
20
323.462300
11
40.796669
21
322.742131
0
LINE
8
boundary
62
5
39
2
10
40.796669
20
322.742131
11
41.190325
21
321.215322
0
LINE
8
boundary
62
5
39
2
10
41.190325
20
321.215322
11
41.380523
21
320.487643
0
LINE
8
boundary
62
5
39
2
10
41.380523
20
320.487643
11
41.749397
21
318.960632
0
LINE
8
boundary
62
5
39
2
10
41.749397
20
318.960632
11
41.929507
21
318.224965
0
LINE
8
boundary
62
5
39
2
10
41.929507
20
318.224965
11
42.273657
21
316.698478
0
LINE
8
boundary
62
5
39
2
10
42.273657
20
316.698478
11
42.443652
21
315.954461
0
LINE
8
boundary
62
5
39
2
10
42.443652
20
315.954461
11
42.763194
21
314.428973
0
LINE
8
boundary
62
5
39
2
10
42.763194
20
314.428973
11
42.922935
21
313.676125
0
LINE
8
boundary
62
5
39
2
10
42.922935
20
313.676125
11
43.218090
21
312.152265
0
LINE
8
boundary
62
5
39
2
10
43.218090
20
312.152265
11
43.367502
21
311.390237
0
LINE
8
boundary
62
5
39
2
10
43.367502
20
311.390237
11
43.638415
21
309.868413
0
LINE
8
boundary
62
5
39
2
10
43.638415
20
309.868413
11
43.777395
21
309.096811
0
LINE
8
boundary
62
5
39
2
10
43.777395
20
309.096811
11
44.024234
21
307.577665
0
LINE
8
boundary
62
5
39
2
10
44.024234
20
307.577665
11
44.152640
21
306.796091
0
LINE
8
boundary
62
5
39
2
10
44.152640
20
306.796091
11
44.375623
21
305.280098
0
LINE
8
boundary
62
5
39
2
10
44.375623
20
305.280098
11
44.493284
21
304.488180
0
LINE
8
boundary
62
5
39
2
10
44.493284
20
304.488180
11
44.692550
21
302.975903
0
LINE
8
boundary
62
5
39
2
10
44.692550
20
302.975903
11
44.799259
21
302.173317
0
LINE
8
boundary
62
5
39
2
10
44.799259
20
302.173317
11
44.975208
21
300.665230
0
LINE
8
boundary
62
5
39
2
10
44.975208
20
300.665230
11
45.070830
21
299.851629
0
LINE
8
boundary
62
5
39
2
10
45.070830
20
299.851629
11
45.223565
21
298.348260
0
LINE
8
boundary
62
5
39
2
10
45.223565
20
298.348260
11
45.307839
21
297.523212
0
LINE
8
boundary
62
5
39
2
10
45.307839
20
297.523212
11
45.437618
21
296.025114
0
LINE
8
boundary
62
5
39
2
10
45.437618
20
296.025114
11
45.510330
21
295.188423
0
LINE
8
boundary
62
5
39
2
10
45.510330
20
295.188423
11
45.617581
21
293.695997
0
LINE
8
boundary
62
5
39
2
10
45.617581
20
293.695997
11
45.678480
21
292.847215
0
LINE
8
boundary
62
5
39
2
10
45.678480
20
292.847215
11
45.763317
21
291.361071
0
LINE
8
boundary
62
5
39
2
10
45.763317
20
291.361071
11
45.812141
21
290.499991
0
LINE
8
boundary
62
5
39
2
10
45.812141
20
290.499991
11
45.874963
21
289.020552
0
LINE
8
boundary
62
5
39
2
10
45.874963
20
289.020552
11
45.911456
21
288.146815
0
LINE
8
boundary
62
5
39
2
10
45.911456
20
288.146815
11
45.952550
21
286.674644
0
LINE
8
boundary
62
5
39
2
10
45.952550
20
286.674644
11
45.976391
21
285.787989
0
LINE
8
boundary
62
5
39
2
10
45.976391
20
285.787989
11
45.996173
21
284.323587
0
LINE
8
boundary
62
5
39
2
10
45.996173
20
284.323587
11
46.007098
21
283.423718
0
LINE
8
boundary
62
5
39
2
10
46.007098
20
283.423718
11
46.005776
21
281.967504
0
LINE
8
boundary
62
5
39
2
10
46.005776
20
281.967504
11
46.003509
21
281.054192
0
LINE
8
boundary
62
5
39
2
10
46.003509
20
281.054192
11
45.981627
21
279.606701
0
LINE
8
boundary
62
5
39
2
10
45.981627
20
279.606701
11
45.965842
21
278.679652
0
LINE
8
boundary
62
5
39
2
10
45.965842
20
278.679652
11
45.923592
21
277.241393
0
LINE
8
boundary
62
5
39
2
10
45.923592
20
277.241393
11
45.893911
21
276.300398
0
LINE
8
boundary
62
5
39
2
10
45.893911
20
276.300398
11
45.831902
21
274.871866
0
LINE
8
boundary
62
5
39
2
10
45.831902
20
274.871866
11
45.788062
21
273.916660
0
LINE
8
boundary
62
5
39
2
10
45.788062
20
273.916660
11
45.706598
21
272.498286
0
LINE
8
boundary
62
5
39
2
10
45.706598
20
272.498286
11
45.648259
21
271.528667
0
LINE
8
boundary
62
5
39
2
10
45.648259
20
271.528667
11
45.547779
21
270.121015
0
LINE
8
boundary
62
5
39
2
10
45.547779
20
270.121015
11
45.474585
21
269.136805
0
LINE
8
boundary
62
5
39
2
10
45.474585
20
269.136805
11
45.355568
21
267.740323
0
LINE
8
boundary
62
5
39
2
10
45.355568
20
267.740323
11
45.267171
21
266.741246
0
LINE
8
boundary
62
5
39
2
10
45.267171
20
266.741246
11
45.130151
21
265.356406
0
LINE
8
boundary
62
5
39
2
10
45.130151
20
265.356406
11
45.026257
21
264.342354
0
LINE
8
boundary
62
5
39
2
10
45.026257
20
264.342354
11
44.871609
21
262.969634
0
LINE
8
boundary
62
5
39
2
10
44.871609
20
262.969634
11
44.751883
21
261.940397
0
LINE
8
boundary
62
5
39
2
10
44.751883
20
261.940397
11
44.580255
21
260.580389
0
LINE
8
boundary
62
5
39
2
10
44.580255
20
260.580389
11
44.444289
21
259.535815
0
LINE
8
boundary
62
5
39
2
10
44.444289
20
259.535815
11
44.256064
21
258.188946
0
LINE
8
boundary
62
5
39
2
10
44.256064
20
258.188946
11
44.103544
21
257.128901
0
LINE
8
boundary
62
5
39
2
10
44.103544
20
257.128901
11
43.899348
21
255.795612
0
LINE
8
boundary
62
5
39
2
10
43.899348
20
255.795612
11
43.729938
21
254.719951
0
LINE
8
boundary
62
5
39
2
10
43.729938
20
254.719951
11
43.510354
21
253.400820
0
LINE
8
boundary
62
5
39
2
10
43.510354
20
253.400820
11
43.323743
21
252.309375
0
LINE
8
boundary
62
5
39
2
10
43.323743
20
252.309375
11
43.089340
21
251.004848
0
LINE
8
boundary
62
5
39
2
10
43.089340
20
251.004848
11
42.885176
21
249.897548
0
LINE
8
boundary
62
5
39
2
10
42.885176
20
249.897548
11
42.636621
21
248.608132
0
LINE
8
boundary
62
5
39
2
10
42.636621
20
248.608132
11
42.414653
21
247.484843
0
LINE
8
boundary
62
5
39
2
10
42.414653
20
247.484843
11
42.152465
21
246.211085
0
LINE
8
boundary
62
5
39
2
10
42.152465
20
246.211085
11
41.912240
21
245.071723
0
LINE
8
boundary
62
5
39
2
10
41.912240
20
245.071723
11
41.637107
21
243.814069
0
LINE
8
boundary
62
5
39
2
10
41.637107
20
243.814069
11
41.378435
21
242.658565
0
LINE
8
boundary
62
5
39
2
10
41.378435
20
242.658565
11
41.091079
21
241.417540
0
LINE
8
boundary
62
5
39
2
10
41.091079
20
241.417540
11
40.813615
21
240.245768
0
LINE
8
boundary
62
5
39
2
10
40.813615
20
240.245768
11
40.514683
21
239.021935
0
LINE
8
boundary
62
5
39
2
10
40.514683
20
239.021935
11
40.218114
21
237.833858
0
LINE
8
boundary
62
5
39
2
10
40.218114
20
237.833858
11
39.908300
21
236.627675
0
LINE
8
boundary
62
5
39
2
10
39.908300
20
236.627675
11
39.592367
21
235.423191
0
LINE
8
boundary
62
5
39
2
10
39.592367
20
235.423191
11
39.272449
21
234.235311
0
LINE
8
boundary
62
5
39
2
10
39.272449
20
234.235311
11
38.936899
21
233.014383
0
LINE
8
boundary
62
5
39
2
10
38.936899
20
233.014383
11
38.607546
21
231.845177
0
LINE
8
boundary
62
5
39
2
10
38.607546
20
231.845177
11
38.252058
21
230.607696
0
LINE
8
boundary
62
5
39
2
10
38.252058
20
230.607696
11
37.914087
21
229.457835
0
LINE
8
boundary
62
5
39
2
10
37.914087
20
229.457835
11
37.538427
21
228.203847
0
LINE
8
boundary
62
5
39
2
10
37.538427
20
228.203847
11
37.192628
21
227.073875
0
LINE
8
boundary
62
5
39
2
10
37.192628
20
227.073875
11
36.796596
21
225.803227
0
LINE
8
boundary
62
5
39
2
10
36.796596
20
225.803227
11
36.443799
21
224.693654
0
LINE
8
boundary
62
5
39
2
10
36.443799
20
224.693654
11
36.027108
21
223.406299
0
LINE
8
boundary
62
5
39
2
10
36.027108
20
223.406299
11
35.668114
21
222.317800
0
LINE
8
boundary
62
5
39
2
10
35.668114
20
222.317800
11
35.230606
21
221.013746
0
LINE
8
boundary
62
5
39
2
10
35.230606
20
221.013746
11
34.866258
21
219.946842
0
LINE
8
boundary
62
5
39
2
10
34.866258
20
219.946842
11
34.407590
21
218.625944
0
LINE
8
boundary
62
5
39
2
10
34.407590
20
218.625944
11
34.038823
21
217.581288
0
LINE
8
boundary
62
5
39
2
10
34.038823
20
217.581288
11
33.558983
21
216.243578
0
LINE
8
boundary
62
5
39
2
10
33.558983
20
216.243578
11
33.186601
21
215.221803
0
LINE
8
boundary
62
5
39
2
10
33.186601
20
215.221803
11
32.685207
21
213.867139
0
LINE
8
boundary
62
5
39
2
10
32.685207
20
213.867139
11
32.310179
21
212.868893
0
LINE
8
boundary
62
5
39
2
10
32.310179
20
212.868893
11
31.787125
21
211.497179
0
LINE
8
boundary
62
5
39
2
10
31.787125
20
211.497179
11
31.410442
21
210.523138
0
LINE
8
boundary
62
5
39
2
10
31.410442
20
210.523138
11
30.865575
21
209.134300
0
LINE
8
boundary
62
5
39
2
10
30.865575
20
209.134300
11
30.488192
21
208.185160
0
LINE
8
boundary
62
5
39
2
10
30.488192
20
208.185160
11
29.921318
21
206.779071
0
LINE
8
boundary
62
5
39
2
10
29.921318
20
206.779071
11
29.544233
21
205.855584
0
LINE
8
boundary
62
5
39
2
10
29.544233
20
205.855584
11
28.955178
21
204.432102
0
LINE
8
boundary
62
5
39
2
10
28.955178
20
204.432102
11
28.579383
21
203.534971
0
LINE
8
boundary
62
5
39
2
10
28.579383
20
203.534971
11
27.967976
21
202.094015
0
LINE
8
boundary
62
5
39
2
10
27.967976
20
202.094015
11
27.211548
21
200.352621
0
LINE
8
boundary
62
5
39
2
10
27.211548
20
200.352621
11
25.933849
21
197.446691
0
LINE
8
boundary
62
5
39
2
10
25.933849
20
197.446691
11
25.194035
21
195.818506
0
LINE
8
boundary
62
5
39
2
10
25.194035
20
195.818506
11
23.826396
21
192.842134
0
LINE
8
boundary
62
5
39
2
10
23.826396
20
192.842134
11
23.112453
21
191.334467
0
LINE
8
boundary
62
5
39
2
10
23.112453
20
191.334467
11
21.653690
21
188.285302
0
LINE
8
boundary
62
5
39
2
10
21.653690
20
188.285302
11
21.235200
21
186.814372
0
LINE
8
boundary
62
5
39
2
10
21.235200
20
186.814372
11
20.271864
21
183.459596
0
LINE
8
boundary
62
5
39
2
10
20.271864
20
183.459596
11
19.862227
21
182.013302
0
LINE
8
boundary
62
5
39
2
10
19.862227
20
182.013302
11
18.848561
21
178.464751
0
LINE
8
boundary
62
5
39
2
10
18.848561
20
178.464751
11
18.653521
21
177.766611
0
LINE
8
boundary
62
5
39
2
10
18.653521
20
177.766611
11
18.129617
21
175.906395
0
LINE
8
boundary
62
5
39
2
10
18.129617
20
175.906395
11
17.940093
21
175.217855
0
LINE
8
boundary
62
5
39
2
10
17.940093
20
175.217855
11
17.410539
21
173.308656
0
LINE
8
boundary
62
5
39
2
10
17.410539
20
173.308656
11
17.227353
21
172.630317
0
LINE
8
boundary
62
5
39
2
10
17.227353
20
172.630317
11
16.694757
21
170.672459
0
LINE
8
boundary
62
5
39
2
10
16.694757
20
170.672459
11
16.518656
21
170.004740
0
LINE
8
boundary
62
5
39
2
10
16.518656
20
170.004740
11
15.985943
21
167.998839
0
LINE
8
boundary
62
5
39
2
10
15.985943
20
167.998839
11
15.817525
21
167.341881
0
LINE
8
boundary
62
5
39
2
10
15.817525
20
167.341881
11
15.287681
21
165.288586
0
LINE
8
boundary
62
5
39
2
10
15.287681
20
165.288586
11
15.127438
21
164.642262
0
LINE
8
boundary
62
5
39
2
10
15.127438
20
164.642262
11
14.603591
21
162.542643
0
LINE
8
boundary
62
5
39
2
10
14.603591
20
162.542643
11
14.451880
21
161.906508
0
LINE
8
boundary
62
5
39
2
10
14.451880
20
161.906508
11
13.937381
21
159.761913
0
LINE
8
boundary
62
5
39
2
10
13.937381
20
159.761913
11
13.794518
21
159.135171
0
LINE
8
boundary
62
5
39
2
10
13.794518
20
159.135171
11
13.293010
21
156.947142
0
LINE
8
boundary
62
5
39
2
10
13.293010
20
156.947142
11
13.159127
21
156.328595
0
LINE
8
boundary
62
5
39
2
10
13.159127
20
156.328595
11
12.674057
21
154.099208
0
LINE
8
boundary
62
5
39
2
10
12.674057
20
154.099208
11
12.549237
21
153.487269
0
LINE
8
boundary
62
5
39
2
10
12.549237
20
153.487269
11
12.084386
21
151.218840
0
LINE
8
boundary
62
5
39
2
10
12.084386
20
151.218840
11
11.968772
21
150.611489
0
LINE
8
boundary
62
5
39
2
10
11.968772
20
150.611489
11
11.528093
21
148.306861
0
LINE
8
boundary
62
5
39
2
10
11.528093
20
148.306861
11
11.421587
21
147.701551
0
LINE
8
boundary
62
5
39
2
10
11.421587
20
147.701551
11
11.008724
21
145.364069
0
LINE
8
boundary
62
5
39
2
10
11.008724
20
145.364069
11
10.911444
21
144.757829
0
LINE
8
boundary
62
5
39
2
10
10.911444
20
144.757829
11
10.530346
21
142.391114
0
LINE
8
boundary
62
5
39
2
10
10.530346
20
142.391114
11
10.442372
21
141.780425
0
LINE
8
boundary
62
5
39
2
10
10.442372
20
141.780425
11
10.096872
21
139.388734
0
LINE
8
boundary
62
5
39
2
10
10.096872
20
139.388734
11
10.018411
21
138.769642
0
LINE
8
boundary
62
5
39
2
10
10.018411
20
138.769642
11
9.712122
21
136.357639
0
LINE
8
boundary
62
5
39
2
10
9.712122
20
136.357639
11
9.539246
21
134.831562
0
LINE
8
boundary
62
5
39
2
10
9.539246
20
134.831562
11
9.379923
21
133.298503
0
LINE
8
boundary
62
5
39
2
10
9.379923
20
133.298503
11
9.234828
21
131.758626
0
LINE
8
boundary
62
5
39
2
10
9.234828
20
131.758626
11
9.104318
21
130.212025
0
LINE
8
boundary
62
5
39
2
10
9.104318
20
130.212025
11
8.988907
21
128.658820
0
LINE
8
boundary
62
5
39
2
10
8.988907
20
128.658820
11
8.889049
21
127.098966
0
LINE
8
boundary
62
5
39
2
10
8.889049
20
127.098966
11
8.805368
21
125.532599
0
LINE
8
boundary
62
5
39
2
10
8.805368
20
125.532599
11
8.738083
21
123.959828
0
LINE
8
boundary
62
5
39
2
10
8.738083
20
123.959828
11
8.687809
21
122.380807
0
LINE
8
boundary
62
5
39
2
10
8.687809
20
122.380807
11
8.654876
21
120.795447
0
LINE
8
boundary
62
5
39
2
10
8.654876
20
120.795447
11
8.640030
21
119.203989
0
LINE
8
boundary
62
5
39
2
10
8.640030
20
119.203989
11
8.643558
21
117.606542
0
LINE
8
boundary
62
5
39
2
10
8.643558
20
117.606542
11
8.665945
21
116.003098
0
LINE
8
boundary
62
5
39
2
10
8.665945
20
116.003098
11
8.707609
21
114.393758
0
LINE
8
boundary
62
5
39
2
10
8.707609
20
114.393758
11
8.769065
21
112.778687
0
LINE
8
boundary
62
5
39
2
10
8.769065
20
112.778687
11
8.850635
21
111.157971
0
LINE
8
boundary
62
5
39
2
10
8.850635
20
111.157971
11
8.953074
21
109.531677
0
LINE
8
boundary
62
5
39
2
10
8.953074
20
109.531677
11
9.076451
21
107.899926
0
LINE
8
boundary
62
5
39
2
10
9.076451
20
107.899926
11
9.221443
21
106.262897
0
LINE
8
boundary
62
5
39
2
10
9.221443
20
106.262897
11
9.273339
21
105.747729
0
LINE
8
boundary
62
5
39
2
10
9.273339
20
105.747729
11
9.388376
21
104.620634
0
LINE
8
boundary
62
5
39
2
10
9.388376
20
104.620634
11
9.449082
21
104.087671
0
LINE
8
boundary
62
5
39
2
10
9.449082
20
104.087671
11
9.577686
21
102.973261
0
LINE
8
boundary
62
5
39
2
10
9.577686
20
102.973261
11
9.647951
21
102.421939
0
LINE
8
boundary
62
5
39
2
10
9.647951
20
102.421939
11
9.789943
21
101.320915
0
LINE
8
boundary
62
5
39
2
10
9.789943
20
101.320915
11
9.870363
21
100.750641
0
LINE
8
boundary
62
5
39
2
10
9.870363
20
100.750641
11
10.025429
21
99.663779
0
LINE
8
boundary
62
5
39
2
10
10.025429
20
99.663779
11
10.116697
21
99.074054
0
LINE
8
boundary
62
5
39
2
10
10.116697
20
99.074054
11
10.284427
21
98.001969
0
LINE
8
boundary
62
5
39
2
10
10.284427
20
98.001969
11
10.387309
21
97.392293
0
LINE
8
boundary
62
5
39
2
10
10.387309
20
97.392293
11
10.567600
21
96.335619
0
LINE
8
boundary
62
5
39
2
10
10.567600
20
96.335619
11
10.682884
21
95.705539
0
LINE
8
boundary
62
5
39
2
10
10.682884
20
95.705539
11
10.875276
21
94.664913
0
LINE
8
boundary
62
5
39
2
10
10.875276
20
94.664913
11
11.057802
21
92.765148
0
LINE
8
boundary
62
5
39
2
10
11.057802
20
92.765148
11
11.345616
21
89.814583
0
LINE
8
boundary
62
5
39
2
10
11.345616
20
89.814583
11
11.545356
21
87.656874
0
LINE
8
boundary
62
5
39
2
10
11.545356
20
87.656874
11
11.825694
21
84.676539
0
LINE
8
boundary
62
5
39
2
10
11.825694
20
84.676539
11
11.939940
21
83.486688
0
LINE
8
boundary
62
5
39
2
10
11.939940
20
83.486688
11
12.084013
21
82.010673
0
LINE
8
boundary
62
5
39
2
10
12.084013
20
82.010673
11
12.211320
21
80.753765
0
LINE
8
boundary
62
5
39
2
10
12.211320
20
80.753765
11
12.362318
21
79.286288
0
LINE
8
boundary
62
5
39
2
10
12.362318
20
79.286288
11
12.506064
21
77.961745
0
LINE
8
boundary
62
5
39
2
10
12.506064
20
77.961745
11
12.666340
21
76.508099
0
LINE
8
boundary
62
5
39
2
10
12.666340
20
76.508099
11
12.830448
21
75.115423
0
LINE
8
boundary
62
5
39
2
10
12.830448
20
75.115423
11
13.002049
21
73.680743
0
LINE
8
boundary
62
5
39
2
10
13.002049
20
73.680743
11
13.190512
21
72.219734
0
LINE
8
boundary
62
5
39
2
10
13.190512
20
72.219734
11
13.375150
21
70.809090
0
LINE
8
boundary
62
5
39
2
10
13.375150
20
70.809090
11
13.592453
21
69.279840
0
LINE
8
boundary
62
5
39
2
10
13.592453
20
69.279840
11
13.791577
21
67.898135
0
LINE
8
boundary
62
5
39
2
10
13.791577
20
67.898135
11
14.042452
21
66.301095
0
LINE
8
boundary
62
5
39
2
10
14.042452
20
66.301095
11
14.257040
21
64.953048
0
LINE
8
boundary
62
5
39
2
10
14.257040
20
64.953048
11
14.397221
21
64.126102
0
LINE
8
boundary
62
5
39
2
10
14.397221
20
64.126102
11
14.510035
21
63.469317
0
LINE
8
boundary
62
5
39
2
10
14.510035
20
63.469317
11
14.660571
21
62.625804
0
LINE
8
boundary
62
5
39
2
10
14.660571
20
62.625804
11
14.777485
21
61.979022
0
LINE
8
boundary
62
5
39
2
10
14.777485
20
61.979022
11
14.939061
21
61.119101
0
LINE
8
boundary
62
5
39
2
10
14.939061
20
61.119101
11
15.060132
21
60.482886
0
LINE
8
boundary
62
5
39
2
10
15.060132
20
60.482886
11
15.233397
21
59.606848
0
LINE
8
boundary
62
5
39
2
10
15.233397
20
59.606848
11
15.358581
21
58.981638
0
LINE
8
boundary
62
5
39
2
10
15.358581
20
58.981638
11
15.544325
21
58.089725
0
LINE
8
boundary
62
5
39
2
10
15.544325
20
58.089725
11
15.673675
21
57.475964
0
LINE
8
boundary
62
5
39
2
10
15.673675
20
57.475964
11
15.872624
21
56.568458
0
LINE
8
boundary
62
5
39
2
10
15.872624
20
56.568458
11
16.006170
21
55.966603
0
LINE
8
boundary
62
5
39
2
10
16.006170
20
55.966603
11
16.219105
21
55.043834
0
LINE
8
boundary
62
5
39
2
10
16.219105
20
55.043834
11
16.356730
21
54.454257
0
LINE
8
boundary
62
5
39
2
10
16.356730
20
54.454257
11
16.584412
21
53.516716
0
LINE
8
boundary
62
5
39
2
10
16.584412
20
53.516716
11
16.726102
21
52.939854
0
LINE
8
boundary
62
5
39
2
10
16.726102
20
52.939854
11
16.969215
21
51.987903
0
LINE
8
boundary
62
5
39
2
10
16.969215
20
51.987903
11
17.114846
21
51.424012
0
LINE
8
boundary
62
5
39
2
10
17.114846
20
51.424012
11
17.374363
21
50.458123
0
LINE
8
boundary
62
5
39
2
10
17.374363
20
50.458123
11
17.523920
21
49.907580
0
LINE
8
boundary
62
5
39
2
10
17.523920
20
49.907580
11
17.800543
21
48.928377
0
LINE
8
boundary
62
5
39
2
10
17.800543
20
48.928377
11
17.953852
21
48.391491
0
LINE
8
boundary
62
5
39
2
10
17.953852
20
48.391491
11
18.248551
21
47.399511
0
LINE
8
boundary
62
5
39
2
10
18.248551
20
47.399511
11
18.405566
21
46.876500
0
LINE
8
boundary
62
5
39
2
10
18.405566
20
46.876500
11
18.719068
21
45.872378
0
LINE
8
boundary
62
5
39
2
10
18.719068
20
45.872378
11
18.879617
21
45.363475
0
LINE
8
boundary
62
5
39
2
10
18.879617
20
45.363475
11
19.212828
21
44.347983
0
LINE
8
boundary
62
5
39
2
10
19.212828
20
44.347983
11
19.376723
21
43.853430
0
LINE
8
boundary
62
5
39
2
10
19.376723
20
43.853430
11
19.730526
21
42.827211
0
LINE
8
boundary
62
5
39
2
10
19.730526
20
42.827211
11
19.897700
21
42.347120
0
LINE
8
boundary
62
5
39
2
10
19.897700
20
42.347120
11
20.272978
21
41.311075
0
LINE
8
boundary
62
5
39
2
10
20.272978
20
41.311075
11
20.840916
21
39.800637
0
LINE
8
boundary
62
5
39
2
10
20.840916
20
39.800637
11
21.434996
21
38.296893
0
LINE
8
boundary
62
5
39
2
10
21.434996
20
38.296893
11
22.055877
21
36.800937
0
LINE
8
boundary
62
5
39
2
10
22.055877
20
36.800937
11
22.704518
21
35.313888
0
LINE
8
boundary
62
5
39
2
10
22.704518
20
35.313888
11
23.381503
21
33.836912
0
LINE
8
boundary
62
5
39
2
10
23.381503
20
33.836912
11
24.087456
21
32.371213
0
LINE
8
boundary
62
5
39
2
10
24.087456
20
32.371213
11
24.823237
21
30.917963
0
LINE
8
boundary
62
5
39
2
10
24.823237
20
30.917963
11
25.589656
21
29.478456
0
LINE
8
boundary
62
5
39
2
10
25.589656
20
29.478456
11
26.387310
21
28.054035
0
LINE
8
boundary
62
5
39
2
10
26.387310
20
28.054035
11
27.216874
21
26.646022
0
LINE
8
boundary
62
5
39
2
10
27.216874
20
26.646022
11
28.079315
21
25.255879
0
LINE
8
boundary
62
5
39
2
10
28.079315
20
25.255879
11
28.975134
21
23.884994
0
LINE
8
boundary
62
5
39
2
10
28.975134
20
23.884994
11
29.905140
21
22.534874
0
LINE
8
boundary
62
5
39
2
10
29.905140
20
22.534874
11
30.870066
21
21.207103
0
LINE
8
boundary
62
5
39
2
10
30.870066
20
21.207103
11
31.870643
21
19.903317
0
LINE
8
boundary
62
5
39
2
10
31.870643
20
19.903317
11
32.907674
21
18.625184
0
LINE
8
boundary
62
5
39
2
10
32.907674
20
18.625184
11
33.981788
21
17.374506
0
LINE
8
boundary
62
5
39
2
10
33.981788
20
17.374506
11
35.093829
21
16.152966
0
LINE
8
boundary
62
5
39
2
10
35.093829
20
16.152966
11
36.244547
21
14.962453
0
LINE
8
boundary
62
5
39
2
10
36.244547
20
14.962453
11
37.434544
21
13.804906
0
LINE
8
boundary
62
5
39
2
10
37.434544
20
13.804906
11
38.664646
21
12.682332
0
LINE
8
boundary
62
5
39
2
10
38.664646
20
12.682332
11
39.935518
21
11.596839
0
LINE
8
boundary
62
5
39
2
10
39.935518
20
11.596839
11
41.248021
21
10.550507
0
LINE
8
boundary
62
5
39
2
10
41.248021
20
10.550507
11
42.602770
21
9.545606
0
LINE
8
boundary
62
5
39
2
10
42.602770
20
9.545606
11
44.000567
21
8.584379
0
LINE
8
boundary
62
5
39
2
10
44.000567
20
8.584379
11
45.442184
21
7.669171
0
LINE
8
boundary
62
5
39
2
10
45.442184
20
7.669171
11
45.919731
21
7.311251
0
LINE
8
boundary
62
5
39
2
10
45.919731
20
7.311251
11
46.682899
21
6.938612
0
LINE
8
boundary
62
5
39
2
10
46.682899
20
6.938612
11
47.219016
21
6.789419
0
LINE
8
boundary
62
5
39
2
10
47.219016
20
6.789419
11
47.746349
21
6.706175
0
LINE
8
boundary
62
5
39
2
10
47.746349
20
6.706175
11
48.314346
21
6.667500
0
LINE
8
boundary
62
5
39
2
10
48.314346
20
6.667500
11
48.840241
21
6.674782
0
LINE
8
boundary
62
5
39
2
10
48.840241
20
6.674782
11
49.467966
21
6.722385
0
LINE
8
boundary
62
5
39
2
10
49.467966
20
6.722385
11
50.118985
21
6.817181
0
LINE
8
boundary
62
5
39
2
10
50.118985
20
6.817181
11
50.787278
21
6.959861
0
LINE
8
boundary
62
5
39
2
10
50.787278
20
6.959861
11
51.466846
21
7.151136
0
LINE
8
boundary
62
5
39
2
10
51.466846
20
7.151136
11
52.151821
21
7.391581
0
LINE
8
boundary
62
5
39
2
10
52.151821
20
7.391581
11
52.836146
21
7.681460
0
LINE
8
boundary
62
5
39
2
10
52.836146
20
7.681460
11
53.513846
21
8.021198
0
LINE
8
boundary
62
5
39
2
10
53.513846
20
8.021198
11
54.179123
21
8.410997
0
LINE
8
boundary
62
5
39
2
10
54.179123
20
8.410997
11
54.825969
21
8.850903
0
LINE
8
boundary
62
5
39
2
10
54.825969
20
8.850903
11
55.489459
21
9.371700
0
LINE
8
boundary
62
5
39
2
10
55.489459
20
9.371700
11
55.788955
21
9.637349
0
LINE
8
annotation
62
1
39
211
10
43.363407
20
356.604606
11
43.363407
21
361.086866
0
LINE
8
annotation
62
1
39
211
10
43.363407
20
361.086866
11
42.366943
21
360.090121
0
LINE
8
annotation
62
1
39
211
10
37.987869
20
439.844466
11
36.022449
21
439.844466
0
LINE
8
annotation
62
1
39
211
10
36.022449
20
439.844466
11
37.838561
21
442.768174
0
LINE
8
annotation
62
1
39
211
10
37.838561
20
442.768174
11
37.838561
21
442.768174
0
LINE
8
annotation
62
1
39
211
10
37.838561
20
442.768174
11
37.840732
21
442.770861
0
LINE
8
annotation
62
1
39
211
10
37.840732
20
442.770861
11
37.842814
21
442.773570
0
LINE
8
annotation
62
1
39
211
10
37.842814
20
442.773570
11
37.844821
21
442.776325
0
LINE
8
annotation
62
1
39
211
10
37.844821
20
442.776325
11
37.846766
21
442.779149
0
LINE
8
annotation
62
1
39
211
10
37.846766
20
442.779149
11
37.848663
21
442.782064
0
LINE
8
annotation
62
1
39
211
10
37.848663
20
442.782064
11
37.850526
21
442.785093
0
LINE
8
annotation
62
1
39
211
10
37.850526
20
442.785093
11
37.852368
21
442.788259
0
LINE
8
annotation
62
1
39
211
10
37.852368
20
442.788259
11
37.854203
21
442.791585
0
LINE
8
annotation
62
1
39
211
10
37.854203
20
442.791585
11
37.856045
21
442.795094
0
LINE
8
annotation
62
1
39
211
10
37.856045
20
442.795094
11
37.856045
21
442.795094
0
LINE
8
annotation
62
1
39
211
10
37.856045
20
442.795094
11
37.931032
21
442.956097
0
LINE
8
annotation
62
1
39
211
10
37.931032
20
442.956097
11
37.974838
21
443.122991
0
LINE
8
annotation
62
1
39
211
10
37.974838
20
443.122991
11
37.988537
21
443.292005
0
LINE
8
annotation
62
1
39
211
10
37.988537
20
443.292005
11
37.973202
21
443.459367
0
LINE
8
annotation
62
1
39
211
10
37.973202
20
443.459367
11
37.929907
21
443.621307
0
LINE
8
annotation
62
1
39
211
10
37.929907
20
443.621307
11
37.859725
21
443.774053
0
LINE
8
annotation
62
1
39
211
10
37.859725
20
443.774053
11
37.763730
21
443.913834
0
LINE
8
annotation
62
1
39
211
10
37.763730
20
443.913834
11
37.642996
21
444.036879
0
LINE
8
annotation
62
1
39
211
10
37.642996
20
444.036879
11
37.498595
21
444.139417
0
LINE
8
annotation
62
1
39
211
10
37.498595
20
444.139417
11
37.498595
21
444.139417
0
LINE
8
annotation
62
1
39
211
10
37.498595
20
444.139417
11
37.337144
21
444.213338
0
LINE
8
annotation
62
1
39
211
10
37.337144
20
444.213338
11
37.169995
21
444.256470
0
LINE
8
annotation
62
1
39
211
10
37.169995
20
444.256470
11
37.000883
21
444.269781
0
LINE
8
annotation
62
1
39
211
10
37.000883
20
444.269781
11
36.833546
21
444.254244
0
LINE
8
annotation
62
1
39
211
10
36.833546
20
444.254244
11
36.671720
21
444.210829
0
LINE
8
annotation
62
1
39
211
10
36.671720
20
444.210829
11
36.519143
21
444.140507
0
LINE
8
annotation
62
1
39
211
10
36.519143
20
444.140507
11
36.379552
21
444.044248
0
LINE
8
annotation
62
1
39
211
10
36.379552
20
444.044248
11
36.256682
21
443.923024
0
LINE
8
annotation
62
1
39
211
10
36.256682
20
443.923024
11
36.154272
21
443.777804
0
LINE
8
annotation
62
1
39
211
10
36.154272
20
443.777804
11
36.025224
21
443.530253
0
LINE
8
annotation
62
1
39
211
10
66.253042
20
384.970838
11
63.577530
21
381.100956
0
LINE
8
annotation
62
1
39
211
10
63.577530
20
381.100956
11
60.901516
21
384.970838
0
LINE
8
annotation
62
1
39
211
10
63.577530
20
381.412378
11
63.577530
21
376.947826
0
LINE
8
annotation
62
1
39
211
10
73.649060
20
380.959332
11
69.262489
21
380.959332
0
LINE
8
annotation
62
1
39
211
10
78.440504
20
376.948078
11
78.440504
21
384.970587
0
LINE
8
annotation
62
1
39
211
10
78.440504
20
384.970587
11
76.656997
21
383.186577
0
LINE
8
annotation
62
1
39
211
10
85.903183
20
378.731584
11
81.448693
21
378.731584
0
LINE
8
annotation
62
1
39
211
10
81.448693
20
378.731584
11
83.227672
21
384.970587
0
LINE
8
annotation
62
1
39
211
10
84.567943
20
376.948078
11
84.567943
21
380.511066
0
LINE
8
frame
62
5
39
2
10
0.000000
20
0.000000
11
215.900000
21
0.000000
0
LINE
8
frame
62
5
39
2
10
215.900000
20
0.000000
11
215.900000
21
279.400000
0
LINE
8
frame
62
5
39
2
10
215.900000
20
279.400000
11
0.000000
21
279.400000
0
LINE
8
frame
62
5
39
2
10
0.000000
20
279.400000
11
0.000000
21
0.000000
0
ENDSEC
0
EOF
