0
SECTION
2
HEADER
9
$ACADVER
1
AC1009
0
ENDSEC
0
SECTION
2
TABLES
0
TABLE
2
VPORT
70
1
0
VPORT
2
ACTIVE
70
0
10
0.0
20
0.0
11
0.0
21
0.0
12
0.0
22
0.0
13
0.0
23
0.0
14
0.0
24
0.0
15
0.0
25
0.0
16
0.0
26
0.0
36
0.0
17
0.0
27
0.0
37
0.0
40
0.0
41
0.0
42
0.0
43
0.0
44
0.0
50
0.0
51
0.0
71
0
72
1000
73
1
74
3
75
0
76
0
77
0
78
0
0
ENDTAB
0
ENDSEC
0
SECTION
2
ENTITIES
0
LINE
8
boundary
62
5
39
2
10
24.720124
20
44.675961
11
25.289919
21
43.456787
0
LINE
8
boundary
62
5
39
2
10
25.289919
20
43.456787
11
25.975748
21
42.034765
0
LINE
8
boundary
62
5
39
2
10
25.975748
20
42.034765
11
26.688702
21
40.617467
0
LINE
8
boundary
62
5
39
2
10
26.688702
20
40.617467
11
27.429745
21
39.205829
0
LINE
8
boundary
62
5
39
2
10
27.429745
20
39.205829
11
28.199677
21
37.800759
0
LINE
8
boundary
62
5
39
2
10
28.199677
20
37.800759
11
28.999382
21
36.403376
0
LINE
8
boundary
62
5
39
2
10
28.999382
20
36.403376
11
29.829651
21
35.014646
0
LINE
8
boundary
62
5
39
2
10
29.829651
20
35.014646
11
30.691255
21
33.635589
0
LINE
8
boundary
62
5
39
2
10
30.691255
20
33.635589
11
31.585250
21
32.267343
0
LINE
8
boundary
62
5
39
2
10
31.585250
20
32.267343
11
32.512386
21
30.911018
0
LINE
8
boundary
62
5
39
2
10
32.512386
20
30.911018
11
33.473369
21
29.567837
0
LINE
8
boundary
62
5
39
2
10
33.473369
20
29.567837
11
34.469234
21
28.238943
0
LINE
8
boundary
62
5
39
2
10
34.469234
20
28.238943
11
35.500879
21
26.925546
0
LINE
8
boundary
62
5
39
2
10
35.500879
20
26.925546
11
36.569041
21
25.628946
0
LINE
8
boundary
62
5
39
2
10
36.569041
20
25.628946
11
36.897779
21
25.226197
0
LINE
8
boundary
62
5
39
2
10
36.897779
20
25.226197
11
37.674580
21
24.350531
0
LINE
8
boundary
62
5
39
2
10
37.674580
20
24.350531
11
38.024841
21
23.942096
0
LINE
8
boundary
62
5
39
2
10
38.024841
20
23.942096
11
38.818439
21
23.091614
0
LINE
8
boundary
62
5
39
2
10
38.818439
20
23.091614
11
39.190709
21
22.678789
0
LINE
8
boundary
62
5
39
2
10
39.190709
20
22.678789
11
40.001417
21
21.853566
0
LINE
8
boundary
62
5
39
2
10
40.001417
20
21.853566
11
40.396080
21
21.437749
0
LINE
8
boundary
62
5
39
2
10
40.396080
20
21.437749
11
41.224337
21
20.637878
0
LINE
8
boundary
62
5
39
2
10
41.224337
20
20.637878
11
41.641817
21
20.220411
0
LINE
8
boundary
62
5
39
2
10
41.641817
20
20.220411
11
42.488103
21
19.446019
0
LINE
8
boundary
62
5
39
2
10
42.488103
20
19.446019
11
42.928747
21
19.028345
0
LINE
8
boundary
62
5
39
2
10
42.928747
20
19.028345
11
43.793453
21
18.279578
0
LINE
8
boundary
62
5
39
2
10
43.793453
20
18.279578
11
44.257570
21
17.863123
0
LINE
8
boundary
62
5
39
2
10
44.257570
20
17.863123
11
45.141335
21
17.140148
0
LINE
8
boundary
62
5
39
2
10
45.141335
20
17.140148
11
45.629242
21
16.726363
0
LINE
8
boundary
62
5
39
2
10
45.629242
20
16.726363
11
46.532564
21
16.029378
0
LINE
8
boundary
62
5
39
2
10
46.532564
20
16.029378
11
47.044487
21
15.619721
0
LINE
8
boundary
62
5
39
2
10
47.044487
20
15.619721
11
47.967916
21
14.948927
0
LINE
8
boundary
62
5
39
2
10
47.967916
20
14.948927
11
48.504035
21
14.544834
0
LINE
8
boundary
62
5
39
2
10
48.504035
20
14.544834
11
49.448279
21
13.900572
0
LINE
8
boundary
62
5
39
2
10
49.448279
20
13.900572
11
50.008789
21
13.503535
0
LINE
8
boundary
62
5
39
2
10
50.008789
20
13.503535
11
50.974378
21
12.886089
0
LINE
8
boundary
62
5
39
2
10
50.974378
20
12.886089
11
51.559333
21
12.497573
0
LINE
8
boundary
62
5
39
2
10
51.559333
20
12.497573
11
52.546994
21
11.907336
0
LINE
8
boundary
62
5
39
2
10
52.546994
20
11.907336
11
53.156478
21
11.528815
0
LINE
8
boundary
62
5
39
2
10
53.156478
20
11.528815
11
54.166926
21
10.966262
0
LINE
8
boundary
62
5
39
2
10
54.166926
20
10.966262
11
54.800955
21
10.599220
0
LINE
8
boundary
62
5
39
2
10
54.800955
20
10.599220
11
55.835008
21
10.064799
0
LINE
8
boundary
62
5
39
2
10
55.835008
20
10.064799
11
56.493594
21
9.710636
0
LINE
8
boundary
62
5
39
2
10
56.493594
20
9.710636
11
57.551929
21
9.204962
0
LINE
8
boundary
62
5
39
2
10
57.551929
20
9.204962
11
58.234917
21
8.865192
0
LINE
8
boundary
62
5
39
2
10
58.234917
20
8.865192
11
59.318435
21
8.388865
0
LINE
8
boundary
62
5
39
2
10
59.318435
20
8.388865
11
60.025821
21
8.064841
0
LINE
8
boundary
62
5
39
2
10
60.025821
20
8.064841
11
61.135314
21
7.618566
0
LINE
8
boundary
62
5
39
2
10
61.135314
20
7.618566
11
61.866874
21
7.311723
0
LINE
8
boundary
62
5
39
2
10
61.866874
20
7.311723
11
62.406948
21
7.042856
0
LINE
8
boundary
62
5
39
2
10
62.406948
20
7.042856
11
63.058183
21
6.848069
0
LINE
8
boundary
62
5
39
2
10
63.058183
20
6.848069
11
63.618294
21
6.744425
0
LINE
8
boundary
62
5
39
2
10
63.618294
20
6.744425
11
64.226692
21
6.684465
0
LINE
8
boundary
62
5
39
2
10
64.226692
20
6.684465
11
64.876290
21
6.668788
0
LINE
8
boundary
62
5
39
2
10
64.876290
20
6.668788
11
65.559958
21
6.697788
0
LINE
8
boundary
62
5
39
2
10
65.559958
20
6.697788
11
66.270621
21
6.771980
0
LINE
8
boundary
62
5
39
2
10
66.270621
20
6.771980
11
67.001073
21
6.891613
0
LINE
8
boundary
62
5
39
2
10
67.001073
20
6.891613
11
67.744128
21
7.056968
0
LINE
8
boundary
62
5
39
2
10
67.744128
20
7.056968
11
68.492575
21
7.268180
0
LINE
8
boundary
62
5
39
2
10
68.492575
20
7.268180
11
69.239349
21
7.525346
0
LINE
8
boundary
62
5
39
2
10
69.239349
20
7.525346
11
69.977201
21
7.828422
0
LINE
8
boundary
62
5
39
2
10
69.977201
20
7.828422
11
70.698921
21
8.177337
0
LINE
8
boundary
62
5
39
2
10
70.698921
20
8.177337
11
71.397393
21
8.571921
0
LINE
8
boundary
62
5
39
2
10
71.397393
20
8.571921
11
72.065429
21
9.011872
0
LINE
8
boundary
62
5
39
2
10
72.065429
20
9.011872
11
72.509421
21
9.340454
0
LINE
8
boundary
62
5
39
2
10
72.509421
20
9.340454
11
72.930006
21
9.692122
0
LINE
8
boundary
62
5
39
2
10
72.930006
20
9.692122
11
73.391809
21
10.130559
0
LINE
8
boundary
62
5
39
2
10
73.391809
20
10.130559
11
73.759931
21
10.527145
0
LINE
8
boundary
62
5
39
2
10
73.759931
20
10.527145
11
74.154729
21
11.019927
0
LINE
8
boundary
62
5
39
2
10
74.154729
20
11.019927
11
74.459861
21
11.460496
0
LINE
8
boundary
62
5
39
2
10
74.459861
20
11.460496
11
74.774748
21
12.007318
0
LINE
8
boundary
62
5
39
2
10
74.774748
20
12.007318
11
75.006529
21
12.490869
0
LINE
8
boundary
62
5
39
2
10
75.006529
20
12.490869
11
75.228077
21
13.091407
0
LINE
8
boundary
62
5
39
2
10
75.228077
20
13.091407
11
75.376481
21
13.617031
0
LINE
8
boundary
62
5
39
2
10
75.376481
20
13.617031
11
75.491557
21
14.271101
0
LINE
8
boundary
62
5
39
2
10
75.491557
20
14.271101
11
75.546527
21
14.838003
0
LINE
8
boundary
62
5
39
2
10
75.546527
20
14.838003
11
75.541894
21
15.545807
0
LINE
8
boundary
62
5
39
2
10
75.541894
20
15.545807
11
75.493851
21
16.153368
0
LINE
8
boundary
62
5
39
2
10
75.493851
20
16.153368
11
75.356143
21
16.915482
0
LINE
8
boundary
62
5
39
2
10
75.356143
20
16.915482
11
75.195688
21
17.563339
0
LINE
8
boundary
62
5
39
2
10
75.195688
20
17.563339
11
75.037920
21
18.054509
0
LINE
8
boundary
62
5
39
2
10
75.037920
20
18.054509
11
74.849548
21
18.556368
0
LINE
8
boundary
62
5
39
2
10
74.849548
20
18.556368
11
74.629748
21
19.068934
0
LINE
8
boundary
62
5
39
2
10
74.629748
20
19.068934
11
74.377673
21
19.592405
0
LINE
8
boundary
62
5
39
2
10
74.377673
20
19.592405
11
74.092635
21
20.126798
0
LINE
8
boundary
62
5
39
2
10
74.092635
20
20.126798
11
73.773743
21
20.672301
0
LINE
8
boundary
62
5
39
2
10
73.773743
20
20.672301
11
73.420227
21
21.228949
0
LINE
8
boundary
62
5
39
2
10
73.420227
20
21.228949
11
73.031131
21
21.796993
0
LINE
8
boundary
62
5
39
2
10
73.031131
20
21.796993
11
72.605873
21
22.376594
0
LINE
8
boundary
62
5
39
2
10
72.605873
20
22.376594
11
71.983184
21
22.579249
0
LINE
8
boundary
62
5
39
2
10
71.983184
20
22.579249
11
71.062677
21
22.906618
0
LINE
8
boundary
62
5
39
2
10
71.062677
20
22.906618
11
70.136464
21
23.270410
0
LINE
8
boundary
62
5
39
2
10
70.136464
20
23.270410
11
69.205262
21
23.670432
0
LINE
8
boundary
62
5
39
2
10
69.205262
20
23.670432
11
68.269704
21
24.106477
0
LINE
8
boundary
62
5
39
2
10
68.269704
20
24.106477
11
67.330412
21
24.578243
0
LINE
8
boundary
62
5
39
2
10
67.330412
20
24.578243
11
66.387964
21
25.085520
0
LINE
8
boundary
62
5
39
2
10
66.387964
20
25.085520
11
65.443015
21
25.627995
0
LINE
8
boundary
62
5
39
2
10
65.443015
20
25.627995
11
64.496010
21
26.205451
0
LINE
8
boundary
62
5
39
2
10
64.496010
20
26.205451
11
63.547793
21
26.817500
0
LINE
8
boundary
62
5
39
2
10
63.547793
20
26.817500
11
62.598801
21
27.463828
0
LINE
8
boundary
62
5
39
2
10
62.598801
20
27.463828
11
61.649709
21
28.144083
0
LINE
8
boundary
62
5
39
2
10
61.649709
20
28.144083
11
60.701099
21
28.857958
0
LINE
8
boundary
62
5
39
2
10
60.701099
20
28.857958
11
59.753503
21
29.605075
0
LINE
8
boundary
62
5
39
2
10
59.753503
20
29.605075
11
58.807563
21
30.385018
0
LINE
8
boundary
62
5
39
2
10
58.807563
20
30.385018
11
57.863902
21
31.197374
0
LINE
8
boundary
62
5
39
2
10
57.863902
20
31.197374
11
56.923120
21
32.041781
0
LINE
8
boundary
62
5
39
2
10
56.923120
20
32.041781
11
55.985809
21
32.917765
0
LINE
8
boundary
62
5
39
2
10
55.985809
20
32.917765
11
55.052485
21
33.824958
0
LINE
8
boundary
62
5
39
2
10
55.052485
20
33.824958
11
54.123730
21
34.762842
0
LINE
8
boundary
62
5
39
2
10
54.123730
20
34.762842
11
53.200234
21
35.730998
0
LINE
8
boundary
62
5
39
2
10
53.200234
20
35.730998
11
52.282519
21
36.728924
0
LINE
8
boundary
62
5
39
2
10
52.282519
20
36.728924
11
51.371037
21
37.756175
0
LINE
8
boundary
62
5
39
2
10
51.371037
20
37.756175
11
50.466486
21
38.812213
0
LINE
8
boundary
62
5
39
2
10
50.466486
20
38.812213
11
49.569436
21
39.896598
0
LINE
8
boundary
62
5
39
2
10
49.569436
20
39.896598
11
48.680427
21
41.008764
0
LINE
8
boundary
62
5
39
2
10
48.680427
20
41.008764
11
47.800051
21
42.148174
0
LINE
8
boundary
62
5
39
2
10
47.800051
20
42.148174
11
46.928753
21
43.314399
0
LINE
8
boundary
62
5
39
2
10
46.928753
20
43.314399
11
46.067227
21
44.506849
0
LINE
8
boundary
62
5
39
2
10
46.067227
20
44.506849
11
45.215931
21
45.724976
0
LINE
8
boundary
62
5
39
2
10
45.215931
20
45.724976
11
44.375445
21
46.968270
0
LINE
8
boundary
62
5
39
2
10
44.375445
20
46.968270
11
43.546286
21
48.236149
0
LINE
8
boundary
62
5
39
2
10
43.546286
20
48.236149
11
42.729058
21
49.528105
0
LINE
8
boundary
62
5
39
2
10
42.729058
20
49.528105
11
41.924282
21
50.843537
0
LINE
8
boundary
62
5
39
2
10
41.924282
20
50.843537
11
41.132462
21
52.181875
0
LINE
8
boundary
62
5
39
2
10
41.132462
20
52.181875
11
40.354174
21
53.542630
0
LINE
8
boundary
62
5
39
2
10
40.354174
20
53.542630
11
39.589935
21
54.925171
0
LINE
8
boundary
62
5
39
2
10
39.589935
20
54.925171
11
38.840320
21
56.328949
0
LINE
8
boundary
62
5
39
2
10
38.840320
20
56.328949
11
38.105726
21
57.753389
0
LINE
8
boundary
62
5
39
2
10
38.105726
20
57.753389
11
37.386727
21
59.197917
0
LINE
8
boundary
62
5
39
2
10
37.386727
20
59.197917
11
36.683762
21
60.662010
0
LINE
8
boundary
62
5
39
2
10
36.683762
20
60.662010
11
35.997459
21
62.145065
0
LINE
8
boundary
62
5
39
2
10
35.997459
20
62.145065
11
35.328427
21
63.646468
0
LINE
8
boundary
62
5
39
2
10
35.328427
20
63.646468
11
34.676848
21
65.165753
0
LINE
8
boundary
62
5
39
2
10
34.676848
20
65.165753
11
34.043530
21
66.702241
0
LINE
8
boundary
62
5
39
2
10
34.043530
20
66.702241
11
33.428828
21
68.255418
0
LINE
8
boundary
62
5
39
2
10
33.428828
20
68.255418
11
32.833171
21
69.824734
0
LINE
8
boundary
62
5
39
2
10
32.833171
20
69.824734
11
32.616655
21
70.420424
0
LINE
8
boundary
62
5
39
2
10
32.616655
20
70.420424
11
32.238578
21
71.400244
0
LINE
8
boundary
62
5
39
2
10
32.238578
20
71.400244
11
31.652845
21
72.984583
0
LINE
8
boundary
62
5
39
2
10
31.652845
20
72.984583
11
31.087708
21
74.582659
0
LINE
8
boundary
62
5
39
2
10
31.087708
20
74.582659
11
30.543562
21
76.193989
0
LINE
8
boundary
62
5
39
2
10
30.543562
20
76.193989
11
30.020810
21
77.818056
0
LINE
8
boundary
62
5
39
2
10
30.020810
20
77.818056
11
29.519954
21
79.454380
0
LINE
8
boundary
62
5
39
2
10
29.519954
20
79.454380
11
29.041277
21
81.102473
0
LINE
8
boundary
62
5
39
2
10
29.041277
20
81.102473
11
28.585454
21
82.761771
0
LINE
8
boundary
62
5
39
2
10
28.585454
20
82.761771
11
28.152848
21
84.431842
0
LINE
8
boundary
62
5
39
2
10
28.152848
20
84.431842
11
27.743691
21
86.112271
0
LINE
8
boundary
62
5
39
2
10
27.743691
20
86.112271
11
27.358628
21
87.802557
0
LINE
8
boundary
62
5
39
2
10
27.358628
20
87.802557
11
26.998018
21
89.502197
0
LINE
8
boundary
62
5
39
2
10
26.998018
20
89.502197
11
26.662264
21
91.210786
0
LINE
8
boundary
62
5
39
2
10
26.662264
20
91.210786
11
26.351659
21
92.927935
0
LINE
8
boundary
62
5
39
2
10
26.351659
20
92.927935
11
26.066633
21
94.653158
0
LINE
8
boundary
62
5
39
2
10
26.066633
20
94.653158
11
25.807703
21
96.386052
0
LINE
8
boundary
62
5
39
2
10
25.807703
20
96.386052
11
25.575303
21
98.126184
0
LINE
8
boundary
62
5
39
2
10
25.575303
20
98.126184
11
25.286612
21
99.510882
0
LINE
8
boundary
62
5
39
2
10
25.286612
20
99.510882
11
25.014371
21
100.889717
0
LINE
8
boundary
62
5
39
2
10
25.014371
20
100.889717
11
24.758014
21
102.262884
0
LINE
8
boundary
62
5
39
2
10
24.758014
20
102.262884
11
24.517632
21
103.630221
0
LINE
8
boundary
62
5
39
2
10
24.517632
20
103.630221
11
24.292772
21
104.991854
0
LINE
8
boundary
62
5
39
2
10
24.292772
20
104.991854
11
24.083256
21
106.347855
0
LINE
8
boundary
62
5
39
2
10
24.083256
20
106.347855
11
23.979360
21
107.084305
0
LINE
8
boundary
62
5
39
2
10
23.979360
20
107.084305
11
23.709596
21
109.042913
0
LINE
8
boundary
62
5
39
2
10
23.709596
20
109.042913
11
23.616095
21
109.822793
0
LINE
8
boundary
62
5
39
2
10
23.616095
20
109.822793
11
23.394749
21
111.715753
0
LINE
8
boundary
62
5
39
2
10
23.394749
20
111.715753
11
23.313601
21
112.535804
0
LINE
8
boundary
62
5
39
2
10
23.313601
20
112.535804
11
23.137256
21
114.366557
0
LINE
8
boundary
62
5
39
2
10
23.137256
20
114.366557
11
23.070087
21
115.223489
0
LINE
8
boundary
62
5
39
2
10
23.070087
20
115.223489
11
22.935182
21
116.995740
0
LINE
8
boundary
62
5
39
2
10
22.935182
20
116.995740
11
22.883400
21
117.886351
0
LINE
8
boundary
62
5
39
2
10
22.883400
20
117.886351
11
22.786903
21
119.603730
0
LINE
8
boundary
62
5
39
2
10
22.786903
20
119.603730
11
22.751758
21
120.524704
0
LINE
8
boundary
62
5
39
2
10
22.751758
20
120.524704
11
22.690941
21
122.190780
0
LINE
8
boundary
62
5
39
2
10
22.690941
20
122.190780
11
22.673397
21
123.138810
0
LINE
8
boundary
62
5
39
2
10
22.673397
20
123.138810
11
22.645593
21
124.757216
0
LINE
8
boundary
62
5
39
2
10
22.645593
20
124.757216
11
22.646299
21
125.729190
0
LINE
8
boundary
62
5
39
2
10
22.646299
20
125.729190
11
22.649099
21
127.303536
0
LINE
8
boundary
62
5
39
2
10
22.649099
20
127.303536
11
22.668614
21
128.296254
0
LINE
8
boundary
62
5
39
2
10
22.668614
20
128.296254
11
22.699932
21
129.830009
0
LINE
8
boundary
62
5
39
2
10
22.699932
20
129.830009
11
22.738549
21
130.840434
0
LINE
8
boundary
62
5
39
2
10
22.738549
20
130.840434
11
22.796483
21
132.337011
0
LINE
8
boundary
62
5
39
2
10
22.796483
20
132.337011
11
22.854339
21
133.362231
0
LINE
8
boundary
62
5
39
2
10
22.854339
20
133.362231
11
22.937246
21
134.825031
0
LINE
8
boundary
62
5
39
2
10
22.937246
20
134.825031
11
23.014286
21
135.862135
0
LINE
8
boundary
62
5
39
2
10
23.014286
20
135.862135
11
23.120610
21
137.294268
0
LINE
8
boundary
62
5
39
2
10
23.120610
20
137.294268
11
23.216627
21
138.340592
0
LINE
8
boundary
62
5
39
2
10
23.216627
20
138.340592
11
23.345147
21
139.745252
0
LINE
8
boundary
62
5
39
2
10
23.345147
20
139.745252
11
23.459715
21
140.798173
0
LINE
8
boundary
62
5
39
2
10
23.459715
20
140.798173
11
23.609162
21
142.178259
0
LINE
8
boundary
62
5
39
2
10
23.609162
20
142.178259
11
23.741820
21
143.235367
0
LINE
8
boundary
62
5
39
2
10
23.741820
20
143.235367
11
23.911230
21
144.593732
0
LINE
8
boundary
62
5
39
2
10
23.911230
20
144.593732
11
24.061325
21
145.652681
0
LINE
8
boundary
62
5
39
2
10
24.061325
20
145.652681
11
24.249826
21
146.991947
0
LINE
8
boundary
62
5
39
2
10
24.249826
20
146.991947
11
24.416685
21
148.050602
0
LINE
8
boundary
62
5
39
2
10
24.416685
20
148.050602
11
24.623519
21
149.373360
0
LINE
8
boundary
62
5
39
2
10
24.623519
20
149.373360
11
24.806310
21
150.429672
0
LINE
8
boundary
62
5
39
2
10
24.806310
20
150.429672
11
25.030841
21
151.738215
0
LINE
8
boundary
62
5
39
2
10
25.030841
20
151.738215
11
25.228664
21
152.790320
0
LINE
8
boundary
62
5
39
2
10
25.228664
20
152.790320
11
25.470267
21
154.086913
0
LINE
8
boundary
62
5
39
2
10
25.470267
20
154.086913
11
25.682178
21
155.133112
0
LINE
8
boundary
62
5
39
2
10
25.682178
20
155.133112
11
25.940363
21
156.419799
0
LINE
8
boundary
62
5
39
2
10
25.940363
20
156.419799
11
26.165398
21
157.458475
0
LINE
8
boundary
62
5
39
2
10
26.165398
20
157.458475
11
26.439745
21
158.737167
0
LINE
8
boundary
62
5
39
2
10
26.439745
20
158.737167
11
26.676949
21
159.766840
0
LINE
8
boundary
62
5
39
2
10
26.676949
20
159.766840
11
26.967139
21
161.039318
0
LINE
8
boundary
62
5
39
2
10
26.967139
20
161.039318
11
27.215394
21
162.058775
0
LINE
8
boundary
62
5
39
2
10
27.215394
20
162.058775
11
27.520944
21
163.326725
0
LINE
8
boundary
62
5
39
2
10
27.520944
20
163.326725
11
27.779225
21
164.334685
0
LINE
8
boundary
62
5
39
2
10
27.779225
20
164.334685
11
28.099859
21
165.599517
0
LINE
8
boundary
62
5
39
2
10
28.099859
20
165.599517
11
28.367096
21
166.594941
0
LINE
8
boundary
62
5
39
2
10
28.367096
20
166.594941
11
28.702481
21
167.858016
0
LINE
8
boundary
62
5
39
2
10
28.702481
20
167.858016
11
28.977617
21
168.840006
0
LINE
8
boundary
62
5
39
2
10
28.977617
20
168.840006
11
29.327442
21
170.102644
0
LINE
8
boundary
62
5
39
2
10
29.327442
20
170.102644
11
29.609516
21
171.070285
0
LINE
8
boundary
62
5
39
2
10
29.609516
20
171.070285
11
29.973561
21
172.333536
0
LINE
8
boundary
62
5
39
2
10
29.973561
20
172.333536
11
30.261429
21
173.286151
0
LINE
8
boundary
62
5
39
2
10
30.261429
20
173.286151
11
30.639235
21
174.551091
0
LINE
8
boundary
62
5
39
2
10
30.639235
20
174.551091
11
30.932006
21
175.488030
0
LINE
8
boundary
62
5
39
2
10
30.932006
20
175.488030
11
31.323379
21
176.755496
0
LINE
8
boundary
62
5
39
2
10
31.323379
20
176.755496
11
31.620007
21
177.676225
0
LINE
8
boundary
62
5
39
2
10
31.620007
20
177.676225
11
32.024483
21
178.947043
0
LINE
8
boundary
62
5
39
2
10
32.024483
20
178.947043
11
32.324107
21
179.851101
0
LINE
8
boundary
62
5
39
2
10
32.324107
20
179.851101
11
32.741484
21
181.126017
0
LINE
8
boundary
62
5
39
2
10
32.741484
20
181.126017
11
33.043093
21
182.013035
0
LINE
8
boundary
62
5
39
2
10
33.043093
20
182.013035
11
33.472804
21
183.292643
0
LINE
8
boundary
62
5
39
2
10
33.472804
20
183.292643
11
33.775664
21
184.162336
0
LINE
8
boundary
62
5
39
2
10
33.775664
20
184.162336
11
34.217480
21
185.447226
0
LINE
8
boundary
62
5
39
2
10
34.217480
20
185.447226
11
34.520712
21
186.299301
0
LINE
8
boundary
62
5
39
2
10
34.520712
20
186.299301
11
34.974111
21
187.589825
0
LINE
8
boundary
62
5
39
2
10
34.974111
20
187.589825
11
35.276864
21
188.424190
0
LINE
8
boundary
62
5
39
2
10
35.276864
20
188.424190
11
35.741303
21
189.720912
0
LINE
8
boundary
62
5
39
2
10
35.741303
20
189.720912
11
36.339101
21
191.326008
0
LINE
8
boundary
62
5
39
2
10
36.339101
20
191.326008
11
37.303041
21
193.949069
0
LINE
8
boundary
62
5
39
2
10
37.303041
20
193.949069
11
37.891089
21
195.483430
0
LINE
8
boundary
62
5
39
2
10
37.891089
20
195.483430
11
38.892836
21
198.133350
0
LINE
8
boundary
62
5
39
2
10
38.892836
20
198.133350
11
39.466503
21
199.597515
0
LINE
8
boundary
62
5
39
2
10
39.466503
20
199.597515
11
40.501147
21
202.275534
0
LINE
8
boundary
62
5
39
2
10
40.501147
20
202.275534
11
41.056391
21
203.670470
0
LINE
8
boundary
62
5
39
2
10
41.056391
20
203.670470
11
42.118422
21
206.377254
0
LINE
8
boundary
62
5
39
2
10
42.118422
20
206.377254
11
42.651886
21
207.704407
0
LINE
8
boundary
62
5
39
2
10
42.651886
20
207.704407
11
43.735426
21
210.439818
0
LINE
8
boundary
62
5
39
2
10
43.735426
20
210.439818
11
44.719511
21
212.880950
0
LINE
8
boundary
62
5
39
2
10
44.719511
20
212.880950
11
46.931925
21
218.454027
0
LINE
8
boundary
62
5
39
2
10
46.931925
20
218.454027
11
47.805598
21
220.657324
0
LINE
8
boundary
62
5
39
2
10
47.805598
20
220.657324
11
50.019257
21
226.329589
0
LINE
8
boundary
62
5
39
2
10
50.019257
20
226.329589
11
50.412791
21
227.350892
0
LINE
8
boundary
62
5
39
2
10
50.412791
20
227.350892
11
51.500245
21
230.218782
0
LINE
8
boundary
62
5
39
2
10
51.500245
20
230.218782
11
51.862871
21
231.186913
0
LINE
8
boundary
62
5
39
2
10
51.862871
20
231.186913
11
52.927956
21
234.077346
0
LINE
8
boundary
62
5
39
2
10
52.927956
20
234.077346
11
53.259639
21
234.995263
0
LINE
8
boundary
62
5
39
2
10
53.259639
20
234.995263
11
54.294256
21
237.906520
0
LINE
8
boundary
62
5
39
2
10
54.294256
20
237.906520
11
54.951656
21
239.810526
0
LINE
8
boundary
62
5
39
2
10
54.951656
20
239.810526
11
55.590614
21
241.707658
0
LINE
8
boundary
62
5
39
2
10
55.590614
20
241.707658
11
55.813777
21
242.385998
0
LINE
8
boundary
62
5
39
2
10
55.813777
20
242.385998
11
56.592351
21
244.793734
0
LINE
8
boundary
62
5
39
2
10
56.592351
20
244.793734
11
56.803123
21
245.468244
0
LINE
8
boundary
62
5
39
2
10
56.803123
20
245.468244
11
57.573601
21
247.977477
0
LINE
8
boundary
62
5
39
2
10
57.573601
20
247.977477
11
58.053656
21
249.604244
0
LINE
8
boundary
62
5
39
2
10
58.053656
20
249.604244
11
58.524963
21
251.253269
0
LINE
8
boundary
62
5
39
2
10
58.524963
20
251.253269
11
58.986370
21
252.923868
0
LINE
8
boundary
62
5
39
2
10
58.986370
20
252.923868
11
59.436895
21
254.615395
0
LINE
8
boundary
62
5
39
2
10
59.436895
20
254.615395
11
59.875156
21
256.327108
0
LINE
8
boundary
62
5
39
2
10
59.875156
20
256.327108
11
60.300201
21
258.058313
0
LINE
8
boundary
62
5
39
2
10
60.300201
20
258.058313
11
60.710764
21
259.808411
0
LINE
8
boundary
62
5
39
2
10
60.710764
20
259.808411
11
61.105943
21
261.576823
0
LINE
8
boundary
62
5
39
2
10
61.105943
20
261.576823
11
61.484361
21
263.362668
0
LINE
8
boundary
62
5
39
2
10
61.484361
20
263.362668
11
61.845037
21
265.165477
0
LINE
8
boundary
62
5
39
2
10
61.845037
20
265.165477
11
62.186835
21
266.984544
0
LINE
8
boundary
62
5
39
2
10
62.186835
20
266.984544
11
62.508779
21
268.819151
0
LINE
8
boundary
62
5
39
2
10
62.508779
20
268.819151
11
62.809797
21
270.668899
0
LINE
8
boundary
62
5
39
2
10
62.809797
20
270.668899
11
63.088780
21
272.532867
0
LINE
8
boundary
62
5
39
2
10
63.088780
20
272.532867
11
63.344681
21
274.410643
0
LINE
8
boundary
62
5
39
2
10
63.344681
20
274.410643
11
63.576448
21
276.301511
0
LINE
8
boundary
62
5
39
2
10
63.576448
20
276.301511
11
63.783139
21
278.204965
0
LINE
8
boundary
62
5
39
2
10
63.783139
20
278.204965
11
63.963719
21
280.120407
0
LINE
8
boundary
62
5
39
2
10
63.963719
20
280.120407
11
64.117189
21
282.047030
0
LINE
8
boundary
62
5
39
2
10
64.117189
20
282.047030
11
64.242541
21
283.984520
0
LINE
8
boundary
62
5
39
2
10
64.242541
20
283.984520
11
64.338755
21
285.932049
0
LINE
8
boundary
62
5
39
2
10
64.338755
20
285.932049
11
64.404984
21
287.889226
0
LINE
8
boundary
62
5
39
2
10
64.404984
20
287.889226
11
64.440225
21
289.855274
0
LINE
8
boundary
62
5
39
2
10
64.440225
20
289.855274
11
64.443574
21
291.829836
0
LINE
8
boundary
62
5
39
2
10
64.443574
20
291.829836
11
64.414145
21
293.812193
0
LINE
8
boundary
62
5
39
2
10
64.414145
20
293.812193
11
64.350841
21
295.801651
0
LINE
8
boundary
62
5
39
2
10
64.350841
20
295.801651
11
64.253030
21
297.797835
0
LINE
8
boundary
62
5
39
2
10
64.253030
20
297.797835
11
64.119626
21
299.800173
0
LINE
8
boundary
62
5
39
2
10
64.119626
20
299.800173
11
63.949863
21
301.807912
0
LINE
8
boundary
62
5
39
2
10
63.949863
20
301.807912
11
63.742904
21
303.820554
0
LINE
8
boundary
62
5
39
2
10
63.742904
20
303.820554
11
63.497859
21
305.837760
0
LINE
8
boundary
62
5
39
2
10
63.497859
20
305.837760
11
63.213976
21
307.858457
0
LINE
8
boundary
62
5
39
2
10
63.213976
20
307.858457
11
62.890445
21
309.882469
0
LINE
8
boundary
62
5
39
2
10
62.890445
20
309.882469
11
62.526513
21
311.909087
0
LINE
8
boundary
62
5
39
2
10
62.526513
20
311.909087
11
62.121227
21
313.937736
0
LINE
8
boundary
62
5
39
2
10
62.121227
20
313.937736
11
61.674003
21
315.967966
0
LINE
8
boundary
62
5
39
2
10
61.674003
20
315.967966
11
61.184089
21
317.998831
0
LINE
8
boundary
62
5
39
2
10
61.184089
20
317.998831
11
60.650753
21
320.030035
0
LINE
8
boundary
62
5
39
2
10
60.650753
20
320.030035
11
60.073279
21
322.060955
0
LINE
8
boundary
62
5
39
2
10
60.073279
20
322.060955
11
59.450928
21
324.091054
0
LINE
8
boundary
62
5
39
2
10
59.450928
20
324.091054
11
59.122755
21
325.105486
0
LINE
8
boundary
62
5
39
2
10
59.122755
20
325.105486
11
58.783126
21
326.119516
0
LINE
8
boundary
62
5
39
2
10
58.783126
20
326.119516
11
58.432002
21
327.133130
0
LINE
8
boundary
62
5
39
2
10
58.432002
20
327.133130
11
58.069223
21
328.145891
0
LINE
8
boundary
62
5
39
2
10
58.069223
20
328.145891
11
57.694772
21
329.158316
0
LINE
8
boundary
62
5
39
2
10
57.694772
20
329.158316
11
57.308571
21
330.169649
0
LINE
8
boundary
62
5
39
2
10
57.308571
20
330.169649
11
56.910502
21
331.180411
0
LINE
8
boundary
62
5
39
2
10
56.910502
20
331.180411
11
56.500510
21
332.190128
0
LINE
8
boundary
62
5
39
2
10
56.500510
20
332.190128
11
56.078476
21
333.198929
0
LINE
8
boundary
62
5
39
2
10
56.078476
20
333.198929
11
55.644458
21
334.206808
0
LINE
8
boundary
62
5
39
2
10
55.644458
20
334.206808
11
55.198297
21
335.213360
0
LINE
8
boundary
62
5
39
2
10
55.198297
20
335.213360
11
54.739894
21
336.218865
0
LINE
8
boundary
62
5
39
2
10
54.739894
20
336.218865
11
54.269290
21
337.223016
0
LINE
8
boundary
62
5
39
2
10
54.269290
20
337.223016
11
53.786238
21
338.225979
0
LINE
8
boundary
62
5
39
2
10
53.786238
20
338.225979
11
53.290831
21
339.227347
0
LINE
8
boundary
62
5
39
2
10
53.290831
20
339.227347
11
52.782939
21
340.227253
0
LINE
8
boundary
62
5
39
2
10
52.782939
20
340.227253
11
52.262516
21
341.225699
0
LINE
8
boundary
62
5
39
2
10
52.262516
20
341.225699
11
51.729527
21
342.222345
0
LINE
8
boundary
62
5
39
2
10
51.729527
20
342.222345
11
51.183781
21
343.217257
0
LINE
8
boundary
62
5
39
2
10
51.183781
20
343.217257
11
50.625388
21
344.210577
0
LINE
8
boundary
62
5
39
2
10
50.625388
20
344.210577
11
50.054189
21
345.201869
0
LINE
8
boundary
62
5
39
2
10
50.054189
20
345.201869
11
49.470027
21
346.191296
0
LINE
8
boundary
62
5
39
2
10
49.470027
20
346.191296
11
48.873069
21
347.178627
0
LINE
8
boundary
62
5
39
2
10
48.873069
20
347.178627
11
48.263116
21
348.163838
0
LINE
8
boundary
62
5
39
2
10
48.263116
20
348.163838
11
47.640113
21
349.146989
0
LINE
8
boundary
62
5
39
2
10
47.640113
20
349.146989
11
47.004055
21
350.127800
0
LINE
8
boundary
62
5
39
2
10
47.004055
20
350.127800
11
46.354753
21
351.106314
0
LINE
8
boundary
62
5
39
2
10
46.354753
20
351.106314
11
45.692324
21
352.082501
0
LINE
8
boundary
62
5
39
2
10
45.692324
20
352.082501
11
45.016700
21
353.056189
0
LINE
8
boundary
62
5
39
2
10
45.016700
20
353.056189
11
44.327734
21
354.027301
0
LINE
8
boundary
62
5
39
2
10
44.327734
20
354.027301
11
43.625400
21
354.995791
0
LINE
8
boundary
62
5
39
2
10
43.625400
20
354.995791
11
42.909613
21
355.961743
0
LINE
8
boundary
62
5
39
2
10
42.909613
20
355.961743
11
42.180442
21
356.924752
0
LINE
8
boundary
62
5
39
2
10
42.180442
20
356.924752
11
41.437658
21
357.884959
0
LINE
8
boundary
62
5
39
2
10
41.437658
20
357.884959
11
40.681381
21
358.842255
0
LINE
8
boundary
62
5
39
2
10
40.681381
20
358.842255
11
39.911538
21
359.796563
0
LINE
8
boundary
62
5
39
2
10
39.911538
20
359.796563
11
39.127964
21
360.747894
0
LINE
8
boundary
62
5
39
2
10
39.127964
20
360.747894
11
38.330635
21
361.696071
0
LINE
8
boundary
62
5
39
2
10
38.330635
20
361.696071
11
37.519628
21
362.640994
0
LINE
8
boundary
62
5
39
2
10
37.519628
20
362.640994
11
36.694806
21
363.582678
0
LINE
8
boundary
62
5
39
2
10
36.694806
20
363.582678
11
36.460811
21
364.132150
0
LINE
8
boundary
62
5
39
2
10
36.460811
20
364.132150
11
36.253859
21
364.656332
0
LINE
8
boundary
62
5
39
2
10
36.253859
20
364.656332
11
36.073170
21
365.155587
0
LINE
8
boundary
62
5
39
2
10
36.073170
20
365.155587
11
35.889034
21
365.731390
0
LINE
8
boundary
62
5
39
2
10
35.889034
20
365.731390
11
35.682543
21
366.509088
0
LINE
8
boundary
62
5
39
2
10
35.682543
20
366.509088
11
35.542126
21
367.295854
0
LINE
8
boundary
62
5
39
2
10
35.542126
20
367.295854
11
35.491868
21
367.994649
0
LINE
8
boundary
62
5
39
2
10
35.491868
20
367.994649
11
35.526926
21
368.609332
0
LINE
8
boundary
62
5
39
2
10
35.526926
20
368.609332
11
35.642671
21
369.143551
0
LINE
8
boundary
62
5
39
2
10
35.642671
20
369.143551
11
35.859979
21
369.642888
0
LINE
8
boundary
62
5
39
2
10
35.859979
20
369.642888
11
36.254461
21
370.151794
0
LINE
8
boundary
62
5
39
2
10
36.254461
20
370.151794
11
36.819820
21
370.550854
0
LINE
8
boundary
62
5
39
2
10
36.819820
20
370.550854
11
37.316957
21
370.752423
0
LINE
8
boundary
62
5
39
2
10
37.316957
20
370.752423
11
37.824139
21
370.876532
0
LINE
8
boundary
62
5
39
2
10
37.824139
20
370.876532
11
38.379712
21
370.946653
0
LINE
8
boundary
62
5
39
2
10
38.379712
20
370.946653
11
38.923415
21
370.967563
0
LINE
8
boundary
62
5
39
2
10
38.923415
20
370.967563
11
39.560884
21
370.944574
0
LINE
8
boundary
62
5
39
2
10
39.560884
20
370.944574
11
40.234124
21
370.877931
0
LINE
8
boundary
62
5
39
2
10
40.234124
20
370.877931
11
40.938753
21
370.771426
0
LINE
8
boundary
62
5
39
2
10
40.938753
20
370.771426
11
41.670459
21
370.628683
0
LINE
8
boundary
62
5
39
2
10
41.670459
20
370.628683
11
42.424661
21
370.453376
0
LINE
8
boundary
62
5
39
2
10
42.424661
20
370.453376
11
43.196950
21
370.249095
0
LINE
8
boundary
62
5
39
2
10
43.196950
20
370.249095
11
43.982978
21
370.019579
0
LINE
8
boundary
62
5
39
2
10
43.982978
20
370.019579
11
44.778077
21
369.768670
0
LINE
8
boundary
62
5
39
2
10
44.778077
20
369.768670
11
45.577858
21
369.499706
0
LINE
8
boundary
62
5
39
2
10
45.577858
20
369.499706
11
46.377723
21
369.216517
0
LINE
8
boundary
62
5
39
2
10
46.377723
20
369.216517
11
47.173010
21
368.923034
0
LINE
8
boundary
62
5
39
2
10
47.173010
20
368.923034
11
48.731808
21
368.319229
0
LINE
8
boundary
62
5
39
2
10
48.731808
20
368.319229
11
50.216974
21
367.718096
0
LINE
8
boundary
62
5
39
2
10
50.216974
20
367.718096
11
51.590883
21
367.149357
0
LINE
8
boundary
62
5
39
2
10
51.590883
20
367.149357
11
52.468094
21
366.523810
0
LINE
8
boundary
62
5
39
2
10
52.468094
20
366.523810
11
53.359204
21
365.917364
0
LINE
8
boundary
62
5
39
2
10
53.359204
20
365.917364
11
54.263475
21
365.329871
0
LINE
8
boundary
62
5
39
2
10
54.263475
20
365.329871
11
55.180600
21
364.761729
0
LINE
8
boundary
62
5
39
2
10
55.180600
20
364.761729
11
56.109940
21
364.212777
0
LINE
8
boundary
62
5
39
2
10
56.109940
20
364.212777
11
57.051061
21
363.682954
0
LINE
8
boundary
62
5
39
2
10
57.051061
20
363.682954
11
58.003396
21
363.172287
0
LINE
8
boundary
62
5
39
2
10
58.003396
20
363.172287
11
58.966277
21
362.680898
0
LINE
8
boundary
62
5
39
2
10
58.966277
20
362.680898
11
59.939372
21
362.208723
0
LINE
8
boundary
62
5
39
2
10
59.939372
20
362.208723
11
60.922123
21
361.755897
0
LINE
8
boundary
62
5
39
2
10
60.922123
20
361.755897
11
61.913885
21
361.322163
0
LINE
8
boundary
62
5
39
2
10
61.913885
20
361.322163
11
62.914074
21
360.907921
0
LINE
8
boundary
62
5
39
2
10
62.914074
20
360.907921
11
63.922298
21
360.512916
0
LINE
8
boundary
62
5
39
2
10
63.922298
20
360.512916
11
64.937930
21
360.137193
0
LINE
8
boundary
62
5
39
2
10
64.937930
20
360.137193
11
65.960331
21
359.781017
0
LINE
8
boundary
62
5
39
2
10
65.960331
20
359.781017
11
66.989119
21
359.444219
0
LINE
8
boundary
62
5
39
2
10
66.989119
20
359.444219
11
68.023564
21
359.126716
0
LINE
8
boundary
62
5
39
2
10
68.023564
20
359.126716
11
69.063241
21
358.828758
0
LINE
8
boundary
62
5
39
2
10
69.063241
20
358.828758
11
70.107445
21
358.550380
0
LINE
8
boundary
62
5
39
2
10
70.107445
20
358.550380
11
71.155721
21
358.291432
0
LINE
8
boundary
62
5
39
2
10
71.155721
20
358.291432
11
72.207445
21
358.051973
0
LINE
8
boundary
62
5
39
2
10
72.207445
20
358.051973
11
73.262108
21
357.832145
0
LINE
8
boundary
62
5
39
2
10
73.262108
20
357.832145
11
74.319045
21
357.631899
0
LINE
8
boundary
62
5
39
2
10
74.319045
20
357.631899
11
75.377741
21
357.451392
0
LINE
8
boundary
62
5
39
2
10
75.377741
20
357.451392
11
76.437643
21
357.290492
0
LINE
8
boundary
62
5
39
2
10
76.437643
20
357.290492
11
77.450189
21
357.155620
0
LINE
8
boundary
62
5
39
2
10
77.450189
20
357.155620
11
78.528729
21
357.029624
0
LINE
8
boundary
62
5
39
2
10
78.528729
20
357.029624
11
79.559896
21
356.929442
0
LINE
8
boundary
62
5
39
2
10
79.559896
20
356.929442
11
80.589516
21
356.849080
0
LINE
8
boundary
62
5
39
2
10
80.589516
20
356.849080
11
81.617195
21
356.788407
0
LINE
8
boundary
62
5
39
2
10
81.617195
20
356.788407
11
82.642304
21
356.747311
0
LINE
8
boundary
62
5
39
2
10
82.642304
20
356.747311
11
83.664246
21
356.726074
0
LINE
8
boundary
62
5
39
2
10
83.664246
20
356.726074
11
84.682506
21
356.724776
0
LINE
8
boundary
62
5
39
2
10
84.682506
20
356.724776
11
85.696631
21
356.743081
0
LINE
8
boundary
62
5
39
2
10
85.696631
20
356.743081
11
86.705879
21
356.781487
0
LINE
8
boundary
62
5
39
2
10
86.705879
20
356.781487
11
87.709844
21
356.839602
0
LINE
8
boundary
62
5
39
2
10
87.709844
20
356.839602
11
88.707849
21
356.917619
0
LINE
8
boundary
62
5
39
2
10
88.707849
20
356.917619
11
89.699370
21
357.015713
0
LINE
8
boundary
62
5
39
2
10
89.699370
20
357.015713
11
90.683866
21
357.133795
0
LINE
8
boundary
62
5
39
2
10
90.683866
20
357.133795
11
91.660858
21
357.271946
0
LINE
8
boundary
62
5
39
2
10
91.660858
20
357.271946
11
92.629593
21
357.430078
0
LINE
8
boundary
62
5
39
2
10
92.629593
20
357.430078
11
93.589639
21
357.608378
0
LINE
8
boundary
62
5
39
2
10
93.589639
20
357.608378
11
94.540383
21
357.806703
0
LINE
8
boundary
62
5
39
2
10
94.540383
20
357.806703
11
95.481314
21
358.025293
0
LINE
8
boundary
62
5
39
2
10
95.481314
20
358.025293
11
96.411784
21
358.263914
0
LINE
8
boundary
62
5
39
2
10
96.411784
20
358.263914
11
97.331229
21
358.522787
0
LINE
8
boundary
62
5
39
2
10
97.331229
20
358.522787
11
98.239229
21
358.802023
0
LINE
8
boundary
62
5
39
2
10
98.239229
20
358.802023
11
99.135027
21
359.101542
0
LINE
8
boundary
62
5
39
2
10
99.135027
20
359.101542
11
100.018179
21
359.421357
0
LINE
8
boundary
62
5
39
2
10
100.018179
20
359.421357
11
100.888050
21
359.761414
0
LINE
8
boundary
62
5
39
2
10
100.888050
20
359.761414
11
101.744127
21
360.121868
0
LINE
8
boundary
62
5
39
2
10
101.744127
20
360.121868
11
102.585862
21
360.502634
0
LINE
8
boundary
62
5
39
2
10
102.585862
20
360.502634
11
103.412583
21
360.903880
0
LINE
8
boundary
62
5
39
2
10
103.412583
20
360.903880
11
104.223815
21
361.325658
0
LINE
8
boundary
62
5
39
2
10
104.223815
20
361.325658
11
105.019018
21
361.767725
0
LINE
8
boundary
62
5
39
2
10
105.019018
20
361.767725
11
105.797494
21
362.230500
0
LINE
8
boundary
62
5
39
2
10
105.797494
20
362.230500
11
106.558741
21
362.713610
0
LINE
8
boundary
62
5
39
2
10
106.558741
20
362.713610
11
107.302295
21
363.217318
0
LINE
8
boundary
62
5
39
2
10
107.302295
20
363.217318
11
108.027468
21
363.741603
0
LINE
8
boundary
62
5
39
2
10
108.027468
20
363.741603
11
108.733674
21
364.286520
0
LINE
8
boundary
62
5
39
2
10
108.733674
20
364.286520
11
109.420451
21
364.851942
0
LINE
8
boundary
62
5
39
2
10
109.420451
20
364.851942
11
110.087144
21
365.438057
0
LINE
8
boundary
62
5
39
2
10
110.087144
20
365.438057
11
110.733224
21
366.044750
0
LINE
8
boundary
62
5
39
2
10
110.733224
20
366.044750
11
111.358212
21
366.672277
0
LINE
8
boundary
62
5
39
2
10
111.358212
20
366.672277
11
111.772815
21
366.996027
0
LINE
8
boundary
62
5
39
2
10
111.772815
20
366.996027
11
112.186483
21
367.316556
0
LINE
8
boundary
62
5
39
2
10
112.186483
20
367.316556
11
112.814353
21
367.862089
0
LINE
8
boundary
62
5
39
2
10
112.814353
20
367.862089
11
113.410725
21
368.464471
0
LINE
8
boundary
62
5
39
2
10
113.410725
20
368.464471
11
113.930564
21
369.085971
0
LINE
8
boundary
62
5
39
2
10
113.930564
20
369.085971
11
114.375569
21
369.726447
0
LINE
8
boundary
62
5
39
2
10
114.375569
20
369.726447
11
114.747281
21
370.385006
0
LINE
8
boundary
62
5
39
2
10
114.747281
20
370.385006
11
115.047545
21
371.061213
0
LINE
8
boundary
62
5
39
2
10
115.047545
20
371.061213
11
115.278047
21
371.754390
0
LINE
8
boundary
62
5
39
2
10
115.278047
20
371.754390
11
115.440363
21
372.464207
0
LINE
8
boundary
62
5
39
2
10
115.440363
20
372.464207
11
115.536327
21
373.189861
0
LINE
8
boundary
62
5
39
2
10
115.536327
20
373.189861
11
115.567650
21
373.930842
0
LINE
8
boundary
62
5
39
2
10
115.567650
20
373.930842
11
115.536138
21
374.686543
0
LINE
8
boundary
62
5
39
2
10
115.536138
20
374.686543
11
115.443448
21
375.456586
0
LINE
8
boundary
62
5
39
2
10
115.443448
20
375.456586
11
115.291437
21
376.240311
0
LINE
8
boundary
62
5
39
2
10
115.291437
20
376.240311
11
115.081926
21
377.036957
0
LINE
8
boundary
62
5
39
2
10
115.081926
20
377.036957
11
114.816515
21
377.846055
0
LINE
8
boundary
62
5
39
2
10
114.816515
20
377.846055
11
114.497243
21
378.667118
0
LINE
8
boundary
62
5
39
2
10
114.497243
20
378.667118
11
114.293511
21
379.138260
0
LINE
8
boundary
62
5
39
2
10
114.293511
20
379.138260
11
113.920974
21
379.919822
0
LINE
8
boundary
62
5
39
2
10
113.920974
20
379.919822
11
113.674711
21
380.399504
0
LINE
8
boundary
62
5
39
2
10
113.674711
20
380.399504
11
113.263846
21
381.139434
0
LINE
8
boundary
62
5
39
2
10
113.263846
20
381.139434
11
112.749469
21
382.002136
0
LINE
8
boundary
62
5
39
2
10
112.749469
20
382.002136
11
112.190012
21
382.873985
0
LINE
8
boundary
62
5
39
2
10
112.190012
20
382.873985
11
111.587292
21
383.754380
0
LINE
8
boundary
62
5
39
2
10
111.587292
20
383.754380
11
110.943013
21
384.642630
0
LINE
8
boundary
62
5
39
2
10
110.943013
20
384.642630
11
110.259057
21
385.538247
0
LINE
8
boundary
62
5
39
2
10
110.259057
20
385.538247
11
109.537309
21
386.440834
0
LINE
8
boundary
62
5
39
2
10
109.537309
20
386.440834
11
108.779452
21
387.349488
0
LINE
8
boundary
62
5
39
2
10
108.779452
20
387.349488
11
107.987374
21
388.263946
0
LINE
8
boundary
62
5
39
2
10
107.987374
20
388.263946
11
107.162909
21
389.183422
0
LINE
8
boundary
62
5
39
2
10
107.162909
20
389.183422
11
106.307762
21
390.107457
0
LINE
8
boundary
62
5
39
2
10
106.307762
20
390.107457
11
105.423746
21
391.035570
0
LINE
8
boundary
62
5
39
2
10
105.423746
20
391.035570
11
104.512752
21
391.966966
0
LINE
8
boundary
62
5
39
2
10
104.512752
20
391.966966
11
103.576465
21
392.901502
0
LINE
8
boundary
62
5
39
2
10
103.576465
20
392.901502
11
102.616656
21
393.838279
0
LINE
8
boundary
62
5
39
2
10
102.616656
20
393.838279
11
101.635065
21
394.776928
0
LINE
8
boundary
62
5
39
2
10
101.635065
20
394.776928
11
100.633497
21
395.716745
0
LINE
8
boundary
62
5
39
2
10
100.633497
20
395.716745
11
99.613736
21
396.657508
0
LINE
8
boundary
62
5
39
2
10
99.613736
20
396.657508
11
98.577388
21
397.598284
0
LINE
8
boundary
62
5
39
2
10
98.577388
20
397.598284
11
97.526220
21
398.538841
0
LINE
8
boundary
62
5
39
2
10
97.526220
20
398.538841
11
96.461861
21
399.478659
0
LINE
8
boundary
62
5
39
2
10
96.461861
20
399.478659
11
95.386170
21
400.417192
0
LINE
8
boundary
62
5
39
2
10
95.386170
20
400.417192
11
94.300637
21
401.353666
0
LINE
8
boundary
62
5
39
2
10
94.300637
20
401.353666
11
92.218505
21
403.123427
0
LINE
8
boundary
62
5
39
2
10
92.218505
20
403.123427
11
90.004777
21
404.977845
0
LINE
8
boundary
62
5
39
2
10
90.004777
20
404.977845
11
87.784187
21
406.814924
0
LINE
8
boundary
62
5
39
2
10
87.784187
20
406.814924
11
85.569311
21
408.630919
0
LINE
8
boundary
62
5
39
2
10
85.569311
20
408.630919
11
83.372443
21
410.421721
0
LINE
8
boundary
62
5
39
2
10
83.372443
20
410.421721
11
79.286016
21
413.744566
0
LINE
8
boundary
62
5
39
2
10
79.286016
20
413.744566
11
78.872888
21
414.083639
0
LINE
8
boundary
62
5
39
2
10
78.872888
20
414.083639
11
75.200888
21
417.095283
0
LINE
8
boundary
62
5
39
2
10
75.200888
20
417.095283
11
74.804326
21
417.423824
0
LINE
8
boundary
62
5
39
2
10
74.804326
20
417.423824
11
73.071789
21
418.867877
0
LINE
8
boundary
62
5
39
2
10
73.071789
20
418.867877
11
71.227324
21
420.429834
0
LINE
8
boundary
62
5
39
2
10
71.227324
20
420.429834
11
70.047726
21
421.431108
0
LINE
8
boundary
62
5
39
2
10
70.047726
20
421.431108
11
68.950005
21
422.345969
0
LINE
8
boundary
62
5
39
2
10
68.950005
20
422.345969
11
67.861388
21
423.235361
0
LINE
8
boundary
62
5
39
2
10
67.861388
20
423.235361
11
66.781693
21
424.099398
0
LINE
8
boundary
62
5
39
2
10
66.781693
20
424.099398
11
65.710696
21
424.938585
0
LINE
8
boundary
62
5
39
2
10
65.710696
20
424.938585
11
64.648218
21
425.753359
0
LINE
8
boundary
62
5
39
2
10
64.648218
20
425.753359
11
63.594223
21
426.544232
0
LINE
8
boundary
62
5
39
2
10
63.594223
20
426.544232
11
62.548471
21
427.311662
0
LINE
8
boundary
62
5
39
2
10
62.548471
20
427.311662
11
61.510761
21
428.055631
0
LINE
8
boundary
62
5
39
2
10
61.510761
20
428.055631
11
60.480866
21
428.777077
0
LINE
8
boundary
62
5
39
2
10
60.480866
20
428.777077
11
59.458719
21
429.476212
0
LINE
8
boundary
62
5
39
2
10
59.458719
20
429.476212
11
58.444133
21
430.153345
0
LINE
8
boundary
62
5
39
2
10
58.444133
20
430.153345
11
57.436936
21
430.809056
0
LINE
8
boundary
62
5
39
2
10
57.436936
20
430.809056
11
56.436980
21
431.443661
0
LINE
8
boundary
62
5
39
2
10
56.436980
20
431.443661
11
55.444050
21
432.057659
0
LINE
8
boundary
62
5
39
2
10
55.444050
20
432.057659
11
54.458004
21
432.651346
0
LINE
8
boundary
62
5
39
2
10
54.458004
20
432.651346
11
53.478695
21
433.225084
0
LINE
8
boundary
62
5
39
2
10
53.478695
20
433.225084
11
52.505911
21
433.779343
0
LINE
8
boundary
62
5
39
2
10
52.505911
20
433.779343
11
51.539527
21
434.314623
0
LINE
8
boundary
62
5
39
2
10
51.539527
20
434.314623
11
50.579478
21
434.831083
0
LINE
8
boundary
62
5
39
2
10
50.579478
20
434.831083
11
49.625487
21
435.329410
0
LINE
8
boundary
62
5
39
2
10
49.625487
20
435.329410
11
48.677415
21
435.809854
0
LINE
8
boundary
62
5
39
2
10
48.677415
20
435.809854
11
47.735114
21
436.272667
0
LINE
8
boundary
62
5
39
2
10
47.735114
20
436.272667
11
46.798498
21
436.718651
0
LINE
8
boundary
62
5
39
2
10
46.798498
20
436.718651
11
45.867437
21
437.147731
0
LINE
8
boundary
62
5
39
2
10
45.867437
20
437.147731
11
44.941667
21
437.560618
0
LINE
8
boundary
62
5
39
2
10
44.941667
20
437.560618
11
44.021206
21
437.957536
0
LINE
8
boundary
62
5
39
2
10
44.021206
20
437.957536
11
43.105785
21
438.339174
0
LINE
8
boundary
62
5
39
2
10
43.105785
20
438.339174
11
42.195395
21
438.705488
0
LINE
8
boundary
62
5
39
2
10
42.195395
20
438.705488
11
41.289757
21
439.057115
0
LINE
8
boundary
62
5
39
2
10
41.289757
20
439.057115
11
40.388926
21
439.394490
0
LINE
8
boundary
62
5
39
2
10
40.388926
20
439.394490
11
39.492644
21
439.717977
0
LINE
8
boundary
62
5
39
2
10
39.492644
20
439.717977
11
38.600867
21
440.027816
0
LINE
8
boundary
62
5
39
2
10
38.600867
20
440.027816
11
37.713438
21
440.324577
0
LINE
8
boundary
62
5
39
2
10
37.713438
20
440.324577
11
36.830205
21
440.608667
0
LINE
8
boundary
62
5
39
2
10
36.830205
20
440.608667
11
35.951156
21
440.880372
0
LINE
8
boundary
62
5
39
2
10
35.951156
20
440.880372
11
35.076149
21
441.140175
0
LINE
8
boundary
62
5
39
2
10
35.076149
20
441.140175
11
34.205086
21
441.388403
0
LINE
8
boundary
62
5
39
2
10
34.205086
20
441.388403
11
33.337835
21
441.625373
0
LINE
8
boundary
62
5
39
2
10
33.337835
20
441.625373
11
32.474358
21
441.851675
0
LINE
8
boundary
62
5
39
2
10
32.474358
20
441.851675
11
31.614482
21
442.067674
0
LINE
8
boundary
62
5
39
2
10
31.614482
20
442.067674
11
30.758188
21
442.273662
0
LINE
8
boundary
62
5
39
2
10
30.758188
20
442.273662
11
29.192936
21
442.625869
0
LINE
8
boundary
62
5
39
2
10
29.192936
20
442.625869
11
27.505262
21
442.976745
0
LINE
8
boundary
62
5
39
2
10
27.505262
20
442.976745
11
25.830321
21
443.295581
0
LINE
8
boundary
62
5
39
2
10
25.830321
20
443.295581
11
24.167585
21
443.585346
0
LINE
8
boundary
62
5
39
2
10
24.167585
20
443.585346
11
22.516598
21
443.849342
0
LINE
8
boundary
62
5
39
2
10
22.516598
20
443.849342
11
20.876904
21
444.090649
0
LINE
8
boundary
62
5
39
2
10
20.876904
20
444.090649
11
19.248222
21
444.312494
0
LINE
8
boundary
62
5
39
2
10
19.248222
20
444.312494
11
17.630328
21
444.518024
0
LINE
8
boundary
62
5
39
2
10
17.630328
20
444.518024
11
16.022847
21
444.710560
0
LINE
8
boundary
62
5
39
2
10
16.022847
20
444.710560
11
13.126888
21
445.035912
0
LINE
8
boundary
62
5
39
2
10
13.126888
20
445.035912
11
12.529985
21
445.102610
0
LINE
8
boundary
62
5
39
2
10
12.529985
20
445.102610
11
12.299812
21
438.575785
0
LINE
8
boundary
62
5
39
2
10
12.299812
20
438.575785
11
12.261610
21
437.601787
0
LINE
8
boundary
62
5
39
2
10
12.261610
20
437.601787
11
16.082392
21
437.193704
0
LINE
8
boundary
62
5
39
2
10
16.082392
20
437.193704
11
16.671323
21
437.130780
0
LINE
8
boundary
62
5
39
2
10
16.671323
20
437.130780
11
17.783181
21
436.810752
0
LINE
8
boundary
62
5
39
2
10
17.783181
20
436.810752
11
19.038597
21
436.437487
0
LINE
8
boundary
62
5
39
2
10
19.038597
20
436.437487
11
19.762580
21
436.214948
0
LINE
8
boundary
62
5
39
2
10
19.762580
20
436.214948
11
37.127465
21
436.214948
0
LINE
8
boundary
62
5
39
2
10
37.127465
20
436.214948
11
37.127465
21
433.468948
0
LINE
8
boundary
62
5
39
2
10
37.127465
20
433.468948
11
28.082381
21
433.468949
0
LINE
8
boundary
62
5
39
2
10
28.082381
20
433.468949
11
28.511931
21
433.147228
0
LINE
8
boundary
62
5
39
2
10
28.511931
20
433.147228
11
29.625868
21
432.700156
0
LINE
8
boundary
62
5
39
2
10
29.625868
20
432.700156
11
30.724400
21
432.245488
0
LINE
8
boundary
62
5
39
2
10
30.724400
20
432.245488
11
31.807494
21
431.783490
0
LINE
8
boundary
62
5
39
2
10
31.807494
20
431.783490
11
32.875263
21
431.314187
0
LINE
8
boundary
62
5
39
2
10
32.875263
20
431.314187
11
33.927708
21
430.837843
0
LINE
8
boundary
62
5
39
2
10
33.927708
20
430.837843
11
34.964887
21
430.354507
0
LINE
8
boundary
62
5
39
2
10
34.964887
20
430.354507
11
35.986820
21
429.864551
0
LINE
8
boundary
62
5
39
2
10
35.986820
20
429.864551
11
36.993544
21
429.367652
0
LINE
8
boundary
62
5
39
2
10
36.993544
20
429.367652
11
37.985087
21
428.864428
0
LINE
8
boundary
62
5
39
2
10
37.985087
20
428.864428
11
38.961461
21
428.354744
0
LINE
8
boundary
62
5
39
2
10
38.961461
20
428.354744
11
39.922632
21
427.838941
0
LINE
8
boundary
62
5
39
2
10
39.922632
20
427.838941
11
40.868606
21
427.316775
0
LINE
8
boundary
62
5
39
2
10
40.868606
20
427.316775
11
41.799525
21
426.788831
0
LINE
8
boundary
62
5
39
2
10
41.799525
20
426.788831
11
42.715242
21
426.254995
0
LINE
8
boundary
62
5
39
2
10
42.715242
20
426.254995
11
43.615853
21
425.715389
0
LINE
8
boundary
62
5
39
2
10
43.615853
20
425.715389
11
44.501376
21
425.170358
0
LINE
8
boundary
62
5
39
2
10
44.501376
20
425.170358
11
45.371733
21
424.619821
0
LINE
8
boundary
62
5
39
2
10
45.371733
20
424.619821
11
46.226996
21
424.063958
0
LINE
8
boundary
62
5
39
2
10
46.226996
20
424.063958
11
47.067176
21
423.502985
0
LINE
8
boundary
62
5
39
2
10
47.067176
20
423.502985
11
47.892164
21
422.936991
0
LINE
8
boundary
62
5
39
2
10
47.892164
20
422.936991
11
48.702004
21
422.366216
0
LINE
8
boundary
62
5
39
2
10
48.702004
20
422.366216
11
49.496655
21
421.790503
0
LINE
8
boundary
62
5
39
2
10
49.496655
20
421.790503
11
50.276188
21
421.210413
0
LINE
8
boundary
62
5
39
2
10
50.276188
20
421.210413
11
51.040561
21
420.625880
0
LINE
8
boundary
62
5
39
2
10
51.040561
20
420.625880
11
51.789756
21
420.036857
0
LINE
8
boundary
62
5
39
2
10
51.789756
20
420.036857
11
52.523646
21
419.443913
0
LINE
8
boundary
62
5
39
2
10
52.523646
20
419.443913
11
53.242398
21
418.846608
0
LINE
8
boundary
62
5
39
2
10
53.242398
20
418.846608
11
53.945823
21
418.245577
0
LINE
8
boundary
62
5
39
2
10
53.945823
20
418.245577
11
54.634071
21
417.640778
0
LINE
8
boundary
62
5
39
2
10
54.634071
20
417.640778
11
55.306903
21
417.032354
0
LINE
8
boundary
62
5
39
2
10
55.306903
20
417.032354
11
55.964511
21
416.420506
0
LINE
8
boundary
62
5
39
2
10
55.964511
20
416.420506
11
56.606760
21
415.805318
0
LINE
8
boundary
62
5
39
2
10
56.606760
20
415.805318
11
57.233618
21
415.186903
0
LINE
8
boundary
62
5
39
2
10
57.233618
20
415.186903
11
57.845132
21
414.565333
0
LINE
8
boundary
62
5
39
2
10
57.845132
20
414.565333
11
58.441236
21
413.941043
0
LINE
8
boundary
62
5
39
2
10
58.441236
20
413.941043
11
59.021821
21
413.313809
0
LINE
8
boundary
62
5
39
2
10
59.021821
20
413.313809
11
59.586890
21
412.683948
0
LINE
8
boundary
62
5
39
2
10
59.586890
20
412.683948
11
60.136602
21
412.051687
0
LINE
8
boundary
62
5
39
2
10
60.136602
20
412.051687
11
60.670647
21
411.417109
0
LINE
8
boundary
62
5
39
2
10
60.670647
20
411.417109
11
61.189253
21
410.780141
0
LINE
8
boundary
62
5
39
2
10
61.189253
20
410.780141
11
61.692125
21
410.141264
0
LINE
8
boundary
62
5
39
2
10
61.692125
20
410.141264
11
62.179477
21
409.500397
0
LINE
8
boundary
62
5
39
2
10
62.179477
20
409.500397
11
62.651151
21
408.857642
0
LINE
8
boundary
62
5
39
2
10
62.651151
20
408.857642
11
63.107200
21
408.213454
0
LINE
8
boundary
62
5
39
2
10
63.107200
20
408.213454
11
63.547431
21
407.567648
0
LINE
8
boundary
62
5
39
2
10
63.547431
20
407.567648
11
63.972001
21
406.920558
0
LINE
8
boundary
62
5
39
2
10
63.972001
20
406.920558
11
64.380791
21
406.272078
0
LINE
8
boundary
62
5
39
2
10
64.380791
20
406.272078
11
64.773789
21
405.622847
0
LINE
8
boundary
62
5
39
2
10
64.773789
20
405.622847
11
65.150995
21
404.972433
0
LINE
8
boundary
62
5
39
2
10
65.150995
20
404.972433
11
65.512298
21
404.321323
0
LINE
8
boundary
62
5
39
2
10
65.512298
20
404.321323
11
65.857664
21
403.669543
0
LINE
8
boundary
62
5
39
2
10
65.857664
20
403.669543
11
66.187252
21
403.017344
0
LINE
8
boundary
62
5
39
2
10
66.187252
20
403.017344
11
66.500852
21
402.364706
0
LINE
8
boundary
62
5
39
2
10
66.500852
20
402.364706
11
66.798503
21
401.711965
0
LINE
8
boundary
62
5
39
2
10
66.798503
20
401.711965
11
66.871856
21
400.757988
0
LINE
8
boundary
62
5
39
2
10
66.871856
20
400.757988
11
66.959207
21
399.773401
0
LINE
8
boundary
62
5
39
2
10
66.959207
20
399.773401
11
67.067529
21
398.776041
0
LINE
8
boundary
62
5
39
2
10
67.067529
20
398.776041
11
67.191015
21
397.769400
0
LINE
8
boundary
62
5
39
2
10
67.191015
20
397.769400
11
67.454578
21
395.778331
0
LINE
8
boundary
62
5
39
2
10
67.454578
20
395.778331
11
67.711449
21
393.751683
0
LINE
8
boundary
62
5
39
2
10
67.711449
20
393.751683
11
67.824028
21
392.719097
0
LINE
8
boundary
62
5
39
2
10
67.824028
20
392.719097
11
67.911344
21
391.730410
0
LINE
8
boundary
62
5
39
2
10
67.911344
20
391.730410
11
67.971146
21
390.756934
0
LINE
8
boundary
62
5
39
2
10
67.971146
20
390.756934
11
67.997402
21
389.802352
0
LINE
8
boundary
62
5
39
2
10
67.997402
20
389.802352
11
67.983786
21
388.870153
0
LINE
8
boundary
62
5
39
2
10
67.983786
20
388.870153
11
67.923717
21
387.955397
0
LINE
8
boundary
62
5
39
2
10
67.923717
20
387.955397
11
67.811345
21
387.079987
0
LINE
8
boundary
62
5
39
2
10
67.811345
20
387.079987
11
67.640604
21
386.237671
0
LINE
8
boundary
62
5
39
2
10
67.640604
20
386.237671
11
67.405037
21
385.432131
0
LINE
8
boundary
62
5
39
2
10
67.405037
20
385.432131
11
67.098599
21
384.666653
0
LINE
8
boundary
62
5
39
2
10
67.098599
20
384.666653
11
66.714894
21
383.945021
0
LINE
8
boundary
62
5
39
2
10
66.714894
20
383.945021
11
66.247833
21
383.270730
0
LINE
8
boundary
62
5
39
2
10
66.247833
20
383.270730
11
65.682485
21
382.648279
0
LINE
8
boundary
62
5
39
2
10
65.682485
20
382.648279
11
65.013347
21
382.081101
0
LINE
8
boundary
62
5
39
2
10
65.013347
20
382.081101
11
64.241495
21
381.571703
0
LINE
8
boundary
62
5
39
2
10
64.241495
20
381.571703
11
63.361091
21
381.123932
0
LINE
8
boundary
62
5
39
2
10
63.361091
20
381.123932
11
62.878203
21
380.924195
0
LINE
8
boundary
62
5
39
2
10
62.878203
20
380.924195
11
62.365991
21
380.741144
0
LINE
8
boundary
62
5
39
2
10
62.365991
20
380.741144
11
61.823669
21
380.575141
0
LINE
8
boundary
62
5
39
2
10
61.823669
20
380.575141
11
61.250491
21
380.426650
0
LINE
8
boundary
62
5
39
2
10
61.250491
20
380.426650
11
60.645678
21
380.296355
0
LINE
8
boundary
62
5
39
2
10
60.645678
20
380.296355
11
60.008646
21
380.184190
0
LINE
8
boundary
62
5
39
2
10
60.008646
20
380.184190
11
59.338682
21
380.091077
0
LINE
8
boundary
62
5
39
2
10
59.338682
20
380.091077
11
58.634974
21
380.017088
0
LINE
8
boundary
62
5
39
2
10
58.634974
20
380.017088
11
57.896939
21
379.962741
0
LINE
8
boundary
62
5
39
2
10
57.896939
20
379.962741
11
57.123803
21
379.928613
0
LINE
8
boundary
62
5
39
2
10
57.123803
20
379.928613
11
56.315016
21
379.914954
0
LINE
8
boundary
62
5
39
2
10
56.315016
20
379.914954
11
55.469952
21
379.922235
0
LINE
8
boundary
62
5
39
2
10
55.469952
20
379.922235
11
54.587810
21
379.950765
0
LINE
8
boundary
62
5
39
2
10
54.587810
20
379.950765
11
53.667968
21
380.001109
0
LINE
8
boundary
62
5
39
2
10
53.667968
20
380.001109
11
52.709940
21
380.073741
0
LINE
8
boundary
62
5
39
2
10
52.709940
20
380.073741
11
51.713044
21
380.168699
0
LINE
8
boundary
62
5
39
2
10
51.713044
20
380.168699
11
49.932218
21
380.815785
0
LINE
8
boundary
62
5
39
2
10
49.932218
20
380.815785
11
48.201028
21
381.429136
0
LINE
8
boundary
62
5
39
2
10
48.201028
20
381.429136
11
46.510247
21
382.009538
0
LINE
8
boundary
62
5
39
2
10
46.510247
20
382.009538
11
44.850586
21
382.557895
0
LINE
8
boundary
62
5
39
2
10
44.850586
20
382.557895
11
43.213012
21
383.074838
0
LINE
8
boundary
62
5
39
2
10
43.213012
20
383.074838
11
41.588286
21
383.561164
0
LINE
8
boundary
62
5
39
2
10
41.588286
20
383.561164
11
39.967540
21
384.017678
0
LINE
8
boundary
62
5
39
2
10
39.967540
20
384.017678
11
38.341626
21
384.444974
0
LINE
8
boundary
62
5
39
2
10
38.341626
20
384.444974
11
36.701647
21
384.843828
0
LINE
8
boundary
62
5
39
2
10
36.701647
20
384.843828
11
35.038710
21
385.215036
0
LINE
8
boundary
62
5
39
2
10
35.038710
20
385.215036
11
33.343905
21
385.559082
0
LINE
8
boundary
62
5
39
2
10
33.343905
20
385.559082
11
31.608473
21
385.876708
0
LINE
8
boundary
62
5
39
2
10
31.608473
20
385.876708
11
29.823441
21
386.168683
0
LINE
8
boundary
62
5
39
2
10
29.823441
20
386.168683
11
27.980086
21
386.435502
0
LINE
8
boundary
62
5
39
2
10
27.980086
20
386.435502
11
26.069595
21
386.678011
0
LINE
8
boundary
62
5
39
2
10
26.069595
20
386.678011
11
24.083151
21
386.896796
0
LINE
8
boundary
62
5
39
2
10
24.083151
20
386.896796
11
23.804229
21
381.870173
0
LINE
8
boundary
62
5
39
2
10
23.804229
20
381.870173
11
23.023254
21
367.680496
0
LINE
8
boundary
62
5
39
2
10
23.023254
20
367.680496
11
26.161039
21
355.943620
0
LINE
8
boundary
62
5
39
2
10
26.161039
20
355.943620
11
26.906250
21
353.153487
0
LINE
8
boundary
62
5
39
2
10
26.906250
20
353.153487
11
36.524591
21
353.003489
0
LINE
8
boundary
62
5
39
2
10
36.524591
20
353.003489
11
36.524591
21
350.257489
0
LINE
8
boundary
62
5
39
2
10
36.524591
20
350.257489
11
27.730100
21
350.257489
0
LINE
8
boundary
62
5
39
2
10
27.730100
20
350.257489
11
33.037670
21
330.196933
0
LINE
8
boundary
62
5
39
2
10
33.037670
20
330.196933
11
33.293818
21
329.372100
0
LINE
8
boundary
62
5
39
2
10
33.293818
20
329.372100
11
33.727910
21
327.971254
0
LINE
8
boundary
62
5
39
2
10
33.727910
20
327.971254
11
33.968560
21
327.148139
0
LINE
8
boundary
62
5
39
2
10
33.968560
20
327.148139
11
34.380120
21
325.737390
0
LINE
8
boundary
62
5
39
2
10
34.380120
20
325.737390
11
34.605696
21
324.915458
0
LINE
8
boundary
62
5
39
2
10
34.605696
20
324.915458
11
34.994621
21
323.495588
0
LINE
8
boundary
62
5
39
2
10
34.994621
20
323.495588
11
35.205397
21
322.674454
0
LINE
8
boundary
62
5
39
2
10
35.205397
20
322.674454
11
35.571358
21
321.246259
0
LINE
8
boundary
62
5
39
2
10
35.571358
20
321.246259
11
35.767756
21
320.425400
0
LINE
8
boundary
62
5
39
2
10
35.767756
20
320.425400
11
36.110806
21
318.989457
0
LINE
8
boundary
62
5
39
2
10
36.110806
20
318.989457
11
36.293114
21
318.168398
0
LINE
8
boundary
62
5
39
2
10
36.293114
20
318.168398
11
36.613159
21
316.725421
0
LINE
8
boundary
62
5
39
2
10
36.613159
20
316.725421
11
36.781646
21
315.903852
0
LINE
8
boundary
62
5
39
2
10
36.781646
20
315.903852
11
37.078619
21
314.454588
0
LINE
8
boundary
62
5
39
2
10
37.078619
20
314.454588
11
37.233523
21
313.632009
0
LINE
8
boundary
62
5
39
2
10
37.233523
20
313.632009
11
37.507356
21
312.177086
0
LINE
8
boundary
62
5
39
2
10
37.507356
20
312.177086
11
37.648947
21
311.352986
0
LINE
8
boundary
62
5
39
2
10
37.648947
20
311.352986
11
37.899849
21
309.893141
0
LINE
8
boundary
62
5
39
2
10
37.899849
20
309.893141
11
38.028332
21
309.067150
0
LINE
8
boundary
62
5
39
2
10
38.028332
20
309.067150
11
38.256248
21
307.603025
0
LINE
8
boundary
62
5
39
2
10
38.256248
20
307.603025
11
38.371793
21
306.774708
0
LINE
8
boundary
62
5
39
2
10
38.371793
20
306.774708
11
38.576845
21
305.306996
0
LINE
8
boundary
62
5
39
2
10
38.576845
20
305.306996
11
38.679606
21
304.475874
0
LINE
8
boundary
62
5
39
2
10
38.679606
20
304.475874
11
38.861935
21
303.005301
0
LINE
8
boundary
62
5
39
2
10
38.861935
20
303.005301
11
38.952104
21
302.170950
0
LINE
8
boundary
62
5
39
2
10
38.952104
20
302.170950
11
39.111917
21
300.698167
0
LINE
8
boundary
62
5
39
2
10
39.111917
20
300.698167
11
39.189585
21
299.860196
0
LINE
8
boundary
62
5
39
2
10
39.189585
20
299.860196
11
39.327019
21
298.385911
0
LINE
8
boundary
62
5
39
2
10
39.327019
20
298.385911
11
39.392314
21
297.543786
0
LINE
8
boundary
62
5
39
2
10
39.392314
20
297.543786
11
39.507638
21
296.068646
0
LINE
8
boundary
62
5
39
2
10
39.507638
20
296.068646
11
39.560574
21
295.221988
0
LINE
8
boundary
62
5
39
2
10
39.560574
20
295.221988
11
39.653931
21
293.746723
0
LINE
8
boundary
62
5
39
2
10
39.653931
20
293.746723
11
39.694686
21
292.895012
0
LINE
8
boundary
62
5
39
2
10
39.694686
20
292.895012
11
39.766526
21
291.420309
0
LINE
8
boundary
62
5
39
2
10
39.766526
20
291.420309
11
39.795070
21
290.563107
0
LINE
8
boundary
62
5
39
2
10
39.795070
20
290.563107
11
39.845570
21
289.089593
0
LINE
8
boundary
62
5
39
2
10
39.845570
20
289.089593
11
39.861929
21
288.226465
0
LINE
8
boundary
62
5
39
2
10
39.861929
20
288.226465
11
39.891396
21
286.754984
0
LINE
8
boundary
62
5
39
2
10
39.891396
20
286.754984
11
39.895655
21
285.885464
0
LINE
8
boundary
62
5
39
2
10
39.895655
20
285.885464
11
39.904598
21
284.416517
0
LINE
8
boundary
62
5
39
2
10
39.904598
20
284.416517
11
39.896680
21
283.540131
0
LINE
8
boundary
62
5
39
2
10
39.896680
20
283.540131
11
39.885337
21
282.074610
0
LINE
8
boundary
62
5
39
2
10
39.885337
20
282.074610
11
39.865264
21
281.190843
0
LINE
8
boundary
62
5
39
2
10
39.865264
20
281.190843
11
39.834115
21
279.729300
0
LINE
8
boundary
62
5
39
2
10
39.834115
20
279.729300
11
39.801790
21
278.837699
0
LINE
8
boundary
62
5
39
2
10
39.801790
20
278.837699
11
39.751169
21
277.381005
0
LINE
8
boundary
62
5
39
2
10
39.751169
20
277.381005
11
39.706632
21
276.481148
0
LINE
8
boundary
62
5
39
2
10
39.706632
20
276.481148
11
39.637143
21
275.029825
0
LINE
8
boundary
62
5
39
2
10
39.637143
20
275.029825
11
39.580234
21
274.121132
0
LINE
8
boundary
62
5
39
2
10
39.580234
20
274.121132
11
39.492221
21
272.676077
0
LINE
8
boundary
62
5
39
2
10
39.492221
20
272.676077
11
39.422945
21
271.758145
0
LINE
8
boundary
62
5
39
2
10
39.422945
20
271.758145
11
39.317015
21
270.319984
0
LINE
8
boundary
62
5
39
2
10
39.317015
20
270.319984
11
39.235178
21
269.392287
0
LINE
8
boundary
62
5
39
2
10
39.235178
20
269.392287
11
39.111744
21
267.961775
0
LINE
8
boundary
62
5
39
2
10
39.111744
20
267.961775
11
39.017318
21
267.023813
0
LINE
8
boundary
62
5
39
2
10
39.017318
20
267.023813
11
38.877010
21
265.601705
0
LINE
8
boundary
62
5
39
2
10
38.877010
20
265.601705
11
38.769822
21
264.652939
0
LINE
8
boundary
62
5
39
2
10
38.769822
20
264.652939
11
38.613195
21
263.239893
0
LINE
8
boundary
62
5
39
2
10
38.613195
20
263.239893
11
38.493101
21
262.279904
0
LINE
8
boundary
62
5
39
2
10
38.493101
20
262.279904
11
38.320670
21
260.876838
0
LINE
8
boundary
62
5
39
2
10
38.320670
20
260.876838
11
38.187516
21
259.905083
0
LINE
8
boundary
62
5
39
2
10
38.187516
20
259.905083
11
37.999952
21
258.512578
0
LINE
8
boundary
62
5
39
2
10
37.999952
20
258.512578
11
37.853614
21
257.528502
0
LINE
8
boundary
62
5
39
2
10
37.853614
20
257.528502
11
37.651533
21
256.147398
0
LINE
8
boundary
62
5
39
2
10
37.651533
20
256.147398
11
37.491765
21
255.150523
0
LINE
8
boundary
62
5
39
2
10
37.491765
20
255.150523
11
37.275793
21
253.781616
0
LINE
8
boundary
62
5
39
2
10
37.275793
20
253.781616
11
37.102469
21
252.771476
0
LINE
8
boundary
62
5
39
2
10
37.102469
20
252.771476
11
36.873330
21
251.415520
0
LINE
8
boundary
62
5
39
2
10
36.873330
20
251.415520
11
36.686181
21
250.391479
0
LINE
8
boundary
62
5
39
2
10
36.686181
20
250.391479
11
36.444451
21
249.049265
0
LINE
8
boundary
62
5
39
2
10
36.444451
20
249.049265
11
36.243268
21
248.010857
0
LINE
8
boundary
62
5
39
2
10
36.243268
20
248.010857
11
35.989689
21
246.683185
0
LINE
8
boundary
62
5
39
2
10
35.989689
20
246.683185
11
35.774262
21
245.629894
0
LINE
8
boundary
62
5
39
2
10
35.774262
20
245.629894
11
35.509590
21
244.317531
0
LINE
8
boundary
62
5
39
2
10
35.509590
20
244.317531
11
35.279725
21
243.248787
0
LINE
8
boundary
62
5
39
2
10
35.279725
20
243.248787
11
35.004684
21
241.952625
0
LINE
8
boundary
62
5
39
2
10
35.004684
20
241.952625
11
34.760053
21
240.867886
0
LINE
8
boundary
62
5
39
2
10
34.760053
20
240.867886
11
34.475420
21
239.588676
0
LINE
8
boundary
62
5
39
2
10
34.475420
20
239.588676
11
34.215775
21
238.487390
0
LINE
8
boundary
62
5
39
2
10
34.215775
20
238.487390
11
33.922238
21
237.226035
0
LINE
8
boundary
62
5
39
2
10
33.922238
20
237.226035
11
33.647331
21
236.107693
0
LINE
8
boundary
62
5
39
2
10
33.647331
20
236.107693
11
33.345753
21
234.865061
0
LINE
8
boundary
62
5
39
2
10
33.345753
20
234.865061
11
33.055284
21
233.729007
0
LINE
8
boundary
62
5
39
2
10
33.055284
20
233.729007
11
32.746444
21
232.505942
0
LINE
8
boundary
62
5
39
2
10
32.746444
20
232.505942
11
32.440124
21
231.351690
0
LINE
8
boundary
62
5
39
2
10
32.440124
20
231.351690
11
32.124891
21
230.149027
0
LINE
8
boundary
62
5
39
2
10
32.124891
20
230.149027
11
31.802411
21
228.975954
0
LINE
8
boundary
62
5
39
2
10
31.802411
20
228.975954
11
31.481581
21
227.794666
0
LINE
8
boundary
62
5
39
2
10
31.481581
20
227.794666
11
31.142620
21
226.602228
0
LINE
8
boundary
62
5
39
2
10
31.142620
20
226.602228
11
30.817050
21
225.443232
0
LINE
8
boundary
62
5
39
2
10
30.817050
20
225.443232
11
30.461292
21
224.230759
0
LINE
8
boundary
62
5
39
2
10
30.461292
20
224.230759
11
30.131878
21
223.094946
0
LINE
8
boundary
62
5
39
2
10
30.131878
20
223.094946
11
29.758942
21
221.861887
0
LINE
8
boundary
62
5
39
2
10
29.758942
20
221.861887
11
29.426578
21
220.750230
0
LINE
8
boundary
62
5
39
2
10
29.426578
20
220.750230
11
29.036167
21
219.495963
0
LINE
8
boundary
62
5
39
2
10
29.036167
20
219.495963
11
28.701770
21
218.409443
0
LINE
8
boundary
62
5
39
2
10
28.701770
20
218.409443
11
28.293529
21
217.133292
0
LINE
8
boundary
62
5
39
2
10
28.293529
20
217.133292
11
27.958061
21
216.072872
0
LINE
8
boundary
62
5
39
2
10
27.958061
20
216.072872
11
27.531588
21
214.774276
0
LINE
8
boundary
62
5
39
2
10
27.531588
20
214.774276
11
27.195951
21
213.741012
0
LINE
8
boundary
62
5
39
2
10
27.195951
20
213.741012
11
26.750855
21
212.419165
0
LINE
8
boundary
62
5
39
2
10
26.750855
20
212.419165
11
26.416016
21
211.414083
0
LINE
8
boundary
62
5
39
2
10
26.416016
20
211.414083
11
25.951934
21
210.068463
0
LINE
8
boundary
62
5
39
2
10
25.951934
20
210.068463
11
25.618944
21
209.092662
0
LINE
8
boundary
62
5
39
2
10
25.618944
20
209.092662
11
25.135457
21
207.722504
0
LINE
8
boundary
62
5
39
2
10
25.135457
20
207.722504
11
24.805271
21
206.777053
0
LINE
8
boundary
62
5
39
2
10
24.805271
20
206.777053
11
24.301885
21
205.381592
0
LINE
8
boundary
62
5
39
2
10
24.301885
20
205.381592
11
23.975531
21
204.467638
0
LINE
8
boundary
62
5
39
2
10
23.975531
20
204.467638
11
23.451898
21
203.046164
0
LINE
8
boundary
62
5
39
2
10
23.451898
20
203.046164
11
23.130477
21
202.164816
0
LINE
8
boundary
62
5
39
2
10
23.130477
20
202.164816
11
22.586157
21
200.716554
0
LINE
8
boundary
62
5
39
2
10
22.586157
20
200.716554
11
22.270758
21
199.869055
0
LINE
8
boundary
62
5
39
2
10
22.270758
20
199.869055
11
21.705278
21
198.393228
0
LINE
8
boundary
62
5
39
2
10
21.705278
20
198.393228
11
21.396975
21
197.580841
0
LINE
8
boundary
62
5
39
2
10
21.396975
20
197.580841
11
20.809735
21
196.076565
0
LINE
8
boundary
62
5
39
2
10
20.809735
20
196.076565
11
20.509642
21
195.300521
0
LINE
8
boundary
62
5
39
2
10
20.509642
20
195.300521
11
19.254799
21
192.169202
0
LINE
8
boundary
62
5
39
2
10
19.254799
20
192.169202
11
18.697354
21
190.765476
0
LINE
8
boundary
62
5
39
2
10
18.697354
20
190.765476
11
17.347461
21
187.505788
0
LINE
8
boundary
62
5
39
2
10
17.347461
20
187.505788
11
16.839197
21
186.267710
0
LINE
8
boundary
62
5
39
2
10
16.839197
20
186.267710
11
15.389456
21
182.871011
0
LINE
8
boundary
62
5
39
2
10
15.389456
20
182.871011
11
14.940759
21
181.810968
0
LINE
8
boundary
62
5
39
2
10
14.940759
20
181.810968
11
14.081310
21
178.118756
0
LINE
8
boundary
62
5
39
2
10
14.081310
20
178.118756
11
13.840198
21
177.074791
0
LINE
8
boundary
62
5
39
2
10
13.840198
20
177.074791
11
12.955101
21
173.175618
0
LINE
8
boundary
62
5
39
2
10
12.955101
20
173.175618
11
12.728241
21
172.168709
0
LINE
8
boundary
62
5
39
2
10
12.728241
20
172.168709
11
12.285381
21
170.155070
0
LINE
8
boundary
62
5
39
2
10
12.285381
20
170.155070
11
12.176030
21
169.654247
0
LINE
8
boundary
62
5
39
2
10
12.176030
20
169.654247
11
11.735221
21
167.592069
0
LINE
8
boundary
62
5
39
2
10
11.735221
20
167.592069
11
11.195243
21
164.990997
0
LINE
8
boundary
62
5
39
2
10
11.195243
20
164.990997
11
10.668873
21
162.353395
0
LINE
8
boundary
62
5
39
2
10
10.668873
20
162.353395
11
10.159662
21
159.680547
0
LINE
8
boundary
62
5
39
2
10
10.159662
20
159.680547
11
9.671122
21
156.973904
0
LINE
8
boundary
62
5
39
2
10
9.671122
20
156.973904
11
9.206796
21
154.235060
0
LINE
8
boundary
62
5
39
2
10
9.206796
20
154.235060
11
8.770342
21
151.465376
0
LINE
8
boundary
62
5
39
2
10
8.770342
20
151.465376
11
8.365183
21
148.666463
0
LINE
8
boundary
62
5
39
2
10
8.365183
20
148.666463
11
7.994880
21
145.839905
0
LINE
8
boundary
62
5
39
2
10
7.994880
20
145.839905
11
7.930127
21
145.334627
0
LINE
8
boundary
62
5
39
2
10
7.930127
20
145.334627
11
7.663107
21
142.987195
0
LINE
8
boundary
62
5
39
2
10
7.663107
20
142.987195
11
7.603422
21
142.460629
0
LINE
8
boundary
62
5
39
2
10
7.603422
20
142.460629
11
7.373207
21
140.110036
0
LINE
8
boundary
62
5
39
2
10
7.373207
20
140.110036
11
7.319049
21
139.555623
0
LINE
8
boundary
62
5
39
2
10
7.319049
20
139.555623
11
7.128702
21
137.209841
0
LINE
8
boundary
62
5
39
2
10
7.128702
20
137.209841
11
7.080905
21
136.620318
0
LINE
8
boundary
62
5
39
2
10
7.080905
20
136.620318
11
6.933015
21
134.288092
0
LINE
8
boundary
62
5
39
2
10
6.933015
20
134.288092
11
6.892847
21
133.655601
0
LINE
8
boundary
62
5
39
2
10
6.892847
20
133.655601
11
6.789495
21
131.346262
0
LINE
8
boundary
62
5
39
2
10
6.789495
20
131.346262
11
6.758706
21
130.662504
0
LINE
8
boundary
62
5
39
2
10
6.758706
20
130.662504
11
6.724199
21
129.516484
0
LINE
8
boundary
62
5
39
2
10
6.724199
20
129.516484
11
6.690322
21
128.018673
0
LINE
8
boundary
62
5
39
2
10
6.690322
20
128.018673
11
6.671565
21
126.515379
0
LINE
8
boundary
62
5
39
2
10
6.671565
20
126.515379
11
6.668390
21
125.006750
0
LINE
8
boundary
62
5
39
2
10
6.668390
20
125.006750
11
6.681147
21
123.492988
0
LINE
8
boundary
62
5
39
2
10
6.681147
20
123.492988
11
6.710384
21
121.974113
0
LINE
8
boundary
62
5
39
2
10
6.710384
20
121.974113
11
6.756633
21
120.450254
0
LINE
8
boundary
62
5
39
2
10
6.756633
20
120.450254
11
6.820244
21
118.921562
0
LINE
8
boundary
62
5
39
2
10
6.820244
20
118.921562
11
6.901678
21
117.388220
0
LINE
8
boundary
62
5
39
2
10
6.901678
20
117.388220
11
6.930827
21
116.867481
0
LINE
8
boundary
62
5
39
2
10
6.930827
20
116.867481
11
7.001327
21
115.850234
0
LINE
8
boundary
62
5
39
2
10
7.001327
20
115.850234
11
7.038370
21
115.304249
0
LINE
8
boundary
62
5
39
2
10
7.038370
20
115.304249
11
7.119822
21
114.307791
0
LINE
8
boundary
62
5
39
2
10
7.119822
20
114.307791
11
7.165683
21
113.735470
0
LINE
8
boundary
62
5
39
2
10
7.165683
20
113.735470
11
7.257626
21
112.761018
0
LINE
8
boundary
62
5
39
2
10
7.257626
20
112.761018
11
7.313165
21
112.161279
0
LINE
8
boundary
62
5
39
2
10
7.313165
20
112.161279
11
7.415154
21
111.209987
0
LINE
8
boundary
62
5
39
2
10
7.415154
20
111.209987
11
7.481294
21
110.581758
0
LINE
8
boundary
62
5
39
2
10
7.481294
20
110.581758
11
7.592866
21
109.654791
0
LINE
8
boundary
62
5
39
2
10
7.592866
20
109.654791
11
7.670667
21
108.997070
0
LINE
8
boundary
62
5
39
2
10
7.670667
20
108.997070
11
7.791260
21
108.095566
0
LINE
8
boundary
62
5
39
2
10
7.791260
20
108.095566
11
7.881776
21
107.407410
0
LINE
8
boundary
62
5
39
2
10
7.881776
20
107.407410
11
8.010764
21
106.532436
0
LINE
8
boundary
62
5
39
2
10
8.010764
20
106.532436
11
8.115089
21
105.812943
0
LINE
8
boundary
62
5
39
2
10
8.115089
20
105.812943
11
8.251997
21
104.965462
0
LINE
8
boundary
62
5
39
2
10
8.251997
20
104.965462
11
8.371479
21
104.213778
0
LINE
8
boundary
62
5
39
2
10
8.371479
20
104.213778
11
8.515423
21
103.394768
0
LINE
8
boundary
62
5
39
2
10
8.515423
20
103.394768
11
8.651152
21
102.610104
0
LINE
8
boundary
62
5
39
2
10
8.651152
20
102.610104
11
8.801437
21
101.820488
0
LINE
8
boundary
62
5
39
2
10
8.801437
20
101.820488
11
8.954721
21
101.002161
0
LINE
8
boundary
62
5
39
2
10
8.954721
20
101.002161
11
9.110592
21
100.242718
0
LINE
8
boundary
62
5
39
2
10
9.110592
20
100.242718
11
9.282849
21
99.390105
0
LINE
8
boundary
62
5
39
2
10
9.282849
20
99.390105
11
9.443391
21
98.661565
0
LINE
8
boundary
62
5
39
2
10
9.443391
20
98.661565
11
9.635933
21
97.774040
0
LINE
8
boundary
62
5
39
2
10
9.635933
20
97.774040
11
9.800417
21
97.077107
0
LINE
8
boundary
62
5
39
2
10
9.800417
20
97.077107
11
10.014845
21
96.154222
0
LINE
8
boundary
62
5
39
2
10
10.014845
20
96.154222
11
10.182226
21
95.489515
0
LINE
8
boundary
62
5
39
2
10
10.182226
20
95.489515
11
10.419865
21
94.530908
0
LINE
8
boundary
62
5
39
2
10
10.419865
20
94.530908
11
10.589182
21
93.898928
0
LINE
8
boundary
62
5
39
2
10
10.589182
20
93.898928
11
10.851507
21
92.904231
0
LINE
8
boundary
62
5
39
2
10
10.851507
20
92.904231
11
11.021852
21
92.305432
0
LINE
8
boundary
62
5
39
2
10
11.021852
20
92.305432
11
11.310548
21
91.274466
0
LINE
8
boundary
62
5
39
2
10
11.310548
20
91.274466
11
11.480875
21
90.709215
0
LINE
8
boundary
62
5
39
2
10
11.480875
20
90.709215
11
11.797432
21
89.641839
0
LINE
8
boundary
62
5
39
2
10
11.797432
20
89.641839
11
12.115888
21
88.156282
0
LINE
8
boundary
62
5
39
2
10
12.115888
20
88.156282
11
12.802994
21
84.890094
0
LINE
8
boundary
62
5
39
2
10
12.802994
20
84.890094
11
13.086582
21
83.576708
0
LINE
8
boundary
62
5
39
2
10
13.086582
20
83.576708
11
13.873499
21
79.859631
0
LINE
8
boundary
62
5
39
2
10
13.873499
20
79.859631
11
13.999751
21
79.295204
0
LINE
8
boundary
62
5
39
2
10
13.999751
20
79.295204
11
14.447957
21
77.251532
0
LINE
8
boundary
62
5
39
2
10
14.447957
20
77.251532
11
14.564787
21
76.748575
0
LINE
8
boundary
62
5
39
2
10
14.564787
20
76.748575
11
15.056688
21
74.587995
0
LINE
8
boundary
62
5
39
2
10
15.056688
20
74.587995
11
15.705529
21
71.874002
0
LINE
8
boundary
62
5
39
2
10
15.705529
20
71.874002
11
16.400823
21
69.114610
0
LINE
8
boundary
62
5
39
2
10
16.400823
20
69.114610
11
17.148708
21
66.315082
0
LINE
8
boundary
62
5
39
2
10
17.148708
20
66.315082
11
17.955470
21
63.480863
0
LINE
8
boundary
62
5
39
2
10
17.955470
20
63.480863
11
18.827393
21
60.617575
0
LINE
8
boundary
62
5
39
2
10
18.827393
20
60.617575
11
19.289818
21
59.176806
0
LINE
8
boundary
62
5
39
2
10
19.289818
20
59.176806
11
19.496529
21
58.555793
0
LINE
8
boundary
62
5
39
2
10
19.496529
20
58.555793
11
19.747659
21
57.746559
0
LINE
8
boundary
62
5
39
2
10
19.747659
20
57.746559
11
20.206365
21
56.323939
0
LINE
8
boundary
62
5
39
2
10
20.206365
20
56.323939
11
20.684081
21
54.897876
0
LINE
8
boundary
62
5
39
2
10
20.684081
20
54.897876
11
21.181751
21
53.469108
0
LINE
8
boundary
62
5
39
2
10
21.181751
20
53.469108
11
21.700153
21
52.038357
0
LINE
8
boundary
62
5
39
2
10
21.700153
20
52.038357
11
22.240043
21
50.606414
0
LINE
8
boundary
62
5
39
2
10
22.240043
20
50.606414
11
22.802215
21
49.174086
0
LINE
8
boundary
62
5
39
2
10
22.802215
20
49.174086
11
23.387437
21
47.742095
0
LINE
8
boundary
62
5
39
2
10
23.387437
20
47.742095
11
23.996559
21
46.311295
0
LINE
8
boundary
62
5
39
2
10
23.996559
20
46.311295
11
24.630433
21
44.882589
0
LINE
8
boundary
62
5
39
2
10
24.630433
20
44.882589
11
24.720124
21
44.675961
0
LINE
8
annotation
62
1
39
211
10
43.184690
20
349.230489
11
43.184690
21
354.030489
0
LINE
8
annotation
62
1
39
211
10
43.184690
20
354.030489
11
42.117589
21
352.963086
0
LINE
8
annotation
62
1
39
211
10
43.844030
20
432.603512
11
41.855776
21
432.603512
0
LINE
8
annotation
62
1
39
211
10
41.855776
20
432.603512
11
43.692988
21
435.561187
0
LINE
8
annotation
62
1
39
211
10
43.692988
20
435.561187
11
43.692988
21
435.561187
0
LINE
8
annotation
62
1
39
211
10
43.692988
20
435.561187
11
43.695184
21
435.563905
0
LINE
8
annotation
62
1
39
211
10
43.695184
20
435.563905
11
43.697290
21
435.566646
0
LINE
8
annotation
62
1
39
211
10
43.697290
20
435.566646
11
43.699320
21
435.569433
0
LINE
8
annotation
62
1
39
211
10
43.699320
20
435.569433
11
43.701288
21
435.572289
0
LINE
8
annotation
62
1
39
211
10
43.701288
20
435.572289
11
43.703207
21
435.575238
0
LINE
8
annotation
62
1
39
211
10
43.703207
20
435.575238
11
43.705091
21
435.578302
0
LINE
8
annotation
62
1
39
211
10
43.705091
20
435.578302
11
43.706955
21
435.581505
0
LINE
8
annotation
62
1
39
211
10
43.706955
20
435.581505
11
43.708811
21
435.584870
0
LINE
8
annotation
62
1
39
211
10
43.708811
20
435.584870
11
43.710675
21
435.588419
0
LINE
8
annotation
62
1
39
211
10
43.710675
20
435.588419
11
43.710675
21
435.588419
0
LINE
8
annotation
62
1
39
211
10
43.710675
20
435.588419
11
43.786533
21
435.751293
0
LINE
8
annotation
62
1
39
211
10
43.786533
20
435.751293
11
43.830848
21
435.920126
0
LINE
8
annotation
62
1
39
211
10
43.830848
20
435.920126
11
43.844706
21
436.091103
0
LINE
8
annotation
62
1
39
211
10
43.844706
20
436.091103
11
43.829193
21
436.260410
0
LINE
8
annotation
62
1
39
211
10
43.829193
20
436.260410
11
43.785394
21
436.424231
0
LINE
8
annotation
62
1
39
211
10
43.785394
20
436.424231
11
43.714397
21
436.578751
0
LINE
8
annotation
62
1
39
211
10
43.714397
20
436.578751
11
43.617287
21
436.720156
0
LINE
8
annotation
62
1
39
211
10
43.617287
20
436.720156
11
43.495150
21
436.844631
0
LINE
8
annotation
62
1
39
211
10
43.495150
20
436.844631
11
43.349072
21
436.948360
0
LINE
8
annotation
62
1
39
211
10
43.349072
20
436.948360
11
43.349072
21
436.948360
0
LINE
8
annotation
62
1
39
211
10
43.349072
20
436.948360
11
43.185746
21
437.023140
0
LINE
8
annotation
62
1
39
211
10
43.185746
20
437.023140
11
43.016654
21
437.066773
0
LINE
8
annotation
62
1
39
211
10
43.016654
20
437.066773
11
42.845577
21
437.080239
0
LINE
8
annotation
62
1
39
211
10
42.845577
20
437.080239
11
42.676296
21
437.064521
0
LINE
8
annotation
62
1
39
211
10
42.676296
20
437.064521
11
42.512591
21
437.020602
0
LINE
8
annotation
62
1
39
211
10
42.512591
20
437.020602
11
42.358241
21
436.949462
0
LINE
8
annotation
62
1
39
211
10
42.358241
20
436.949462
11
42.217028
21
436.852085
0
LINE
8
annotation
62
1
39
211
10
42.217028
20
436.852085
11
42.092731
21
436.729453
0
LINE
8
annotation
62
1
39
211
10
42.092731
20
436.729453
11
41.989131
21
436.582546
0
LINE
8
annotation
62
1
39
211
10
41.989131
20
436.582546
11
41.858584
21
436.332120
0
LINE
8
annotation
62
1
39
211
10
80.858325
20
383.984370
11
78.226131
21
380.177143
0
LINE
8
annotation
62
1
39
211
10
78.226131
20
380.177143
11
75.593443
21
383.984370
0
LINE
8
annotation
62
1
39
211
10
78.226131
20
380.483523
11
78.226131
21
376.091254
0
LINE
8
annotation
62
1
39
211
10
88.134598
20
380.037812
11
83.819048
21
380.037812
0
LINE
8
annotation
62
1
39
211
10
91.093589
20
377.841430
11
91.093589
21
377.841430
0
LINE
8
annotation
62
1
39
211
10
91.093589
20
377.841430
11
91.121885
21
377.526296
0
LINE
8
annotation
62
1
39
211
10
91.121885
20
377.526296
11
91.203446
21
377.229914
0
LINE
8
annotation
62
1
39
211
10
91.203446
20
377.229914
11
91.333277
21
376.957176
0
LINE
8
annotation
62
1
39
211
10
91.333277
20
376.957176
11
91.506383
21
376.712974
0
LINE
8
annotation
62
1
39
211
10
91.506383
20
376.712974
11
91.717770
21
376.502202
0
LINE
8
annotation
62
1
39
211
10
91.717770
20
376.502202
11
91.962444
21
376.329751
0
LINE
8
annotation
62
1
39
211
10
91.962444
20
376.329751
11
92.235409
21
376.200514
0
LINE
8
annotation
62
1
39
211
10
92.235409
20
376.200514
11
92.531673
21
376.119384
0
LINE
8
annotation
62
1
39
211
10
92.531673
20
376.119384
11
92.846239
21
376.091254
0
LINE
8
annotation
62
1
39
211
10
92.846239
20
376.091254
11
92.846239
21
376.091254
0
LINE
8
annotation
62
1
39
211
10
92.846239
20
376.091254
11
93.160806
21
376.119384
0
LINE
8
annotation
62
1
39
211
10
93.160806
20
376.119384
11
93.457069
21
376.200514
0
LINE
8
annotation
62
1
39
211
10
93.457069
20
376.200514
11
93.730035
21
376.329751
0
LINE
8
annotation
62
1
39
211
10
93.730035
20
376.329751
11
93.974709
21
376.502202
0
LINE
8
annotation
62
1
39
211
10
93.974709
20
376.502202
11
94.186096
21
376.712974
0
LINE
8
annotation
62
1
39
211
10
94.186096
20
376.712974
11
94.359202
21
376.957176
0
LINE
8
annotation
62
1
39
211
10
94.359202
20
376.957176
11
94.489032
21
377.229914
0
LINE
8
annotation
62
1
39
211
10
94.489032
20
377.229914
11
94.570593
21
377.526296
0
LINE
8
annotation
62
1
39
211
10
94.570593
20
377.526296
11
94.598890
21
377.841430
0
LINE
8
annotation
62
1
39
211
10
94.598890
20
377.841430
11
94.598890
21
378.714538
0
LINE
8
annotation
62
1
39
211
10
94.598890
20
378.714538
11
94.598890
21
378.714538
0
LINE
8
annotation
62
1
39
211
10
94.598890
20
378.714538
11
94.570610
21
379.029825
0
LINE
8
annotation
62
1
39
211
10
94.570610
20
379.029825
11
94.489089
21
379.326616
0
LINE
8
annotation
62
1
39
211
10
94.489089
20
379.326616
11
94.359312
21
379.599947
0
LINE
8
annotation
62
1
39
211
10
94.359312
20
379.599947
11
94.186259
21
379.844852
0
LINE
8
annotation
62
1
39
211
10
94.186259
20
379.844852
11
93.974912
21
380.056363
0
LINE
8
annotation
62
1
39
211
10
93.974912
20
380.056363
11
93.730255
21
380.229517
0
LINE
8
annotation
62
1
39
211
10
93.730255
20
380.229517
11
93.457269
21
380.359346
0
LINE
8
annotation
62
1
39
211
10
93.457269
20
380.359346
11
93.160936
21
380.440886
0
LINE
8
annotation
62
1
39
211
10
93.160936
20
380.440886
11
92.846239
21
380.469169
0
LINE
8
annotation
62
1
39
211
10
92.846239
20
380.469169
11
92.846239
21
380.469169
0
LINE
8
annotation
62
1
39
211
10
92.846239
20
380.469169
11
92.531542
21
380.440869
0
LINE
8
annotation
62
1
39
211
10
92.531542
20
380.440869
11
92.235210
21
380.359289
0
LINE
8
annotation
62
1
39
211
10
92.235210
20
380.359289
11
91.962224
21
380.229407
0
LINE
8
annotation
62
1
39
211
10
91.962224
20
380.229407
11
91.717567
21
380.056201
0
LINE
8
annotation
62
1
39
211
10
91.717567
20
380.056201
11
91.506220
21
379.844648
0
LINE
8
annotation
62
1
39
211
10
91.506220
20
379.844648
11
91.333167
21
379.599727
0
LINE
8
annotation
62
1
39
211
10
91.333167
20
379.599727
11
91.203389
21
379.326417
0
LINE
8
annotation
62
1
39
211
10
91.203389
20
379.326417
11
91.121869
21
379.029694
0
LINE
8
annotation
62
1
39
211
10
91.121869
20
379.029694
11
91.093589
21
378.714538
0
LINE
8
annotation
62
1
39
211
10
91.093589
20
378.714538
11
91.093589
21
377.841430
0
LINE
8
annotation
62
1
39
211
10
94.598890
20
382.224295
11
94.598890
21
382.224295
0
LINE
8
annotation
62
1
39
211
10
94.598890
20
382.224295
11
94.570610
21
382.538125
0
LINE
8
annotation
62
1
39
211
10
94.570610
20
382.538125
11
94.489089
21
382.833814
0
LINE
8
annotation
62
1
39
211
10
94.489089
20
382.833814
11
94.359312
21
383.106349
0
LINE
8
annotation
62
1
39
211
10
94.359312
20
383.106349
11
94.186259
21
383.350714
0
LINE
8
annotation
62
1
39
211
10
94.186259
20
383.350714
11
93.974912
21
383.561893
0
LINE
8
annotation
62
1
39
211
10
93.974912
20
383.561893
11
93.730255
21
383.734874
0
LINE
8
annotation
62
1
39
211
10
93.730255
20
383.734874
11
93.457269
21
383.864640
0
LINE
8
annotation
62
1
39
211
10
93.457269
20
383.864640
11
93.160936
21
383.946177
0
LINE
8
annotation
62
1
39
211
10
93.160936
20
383.946177
11
92.846239
21
383.974471
0
LINE
8
annotation
62
1
39
211
10
92.846239
20
383.974471
11
92.846239
21
383.974471
0
LINE
8
annotation
62
1
39
211
10
92.846239
20
383.974471
11
92.531542
21
383.946177
0
LINE
8
annotation
62
1
39
211
10
92.531542
20
383.946177
11
92.235210
21
383.864640
0
LINE
8
annotation
62
1
39
211
10
92.235210
20
383.864640
11
91.962224
21
383.734874
0
LINE
8
annotation
62
1
39
211
10
91.962224
20
383.734874
11
91.717567
21
383.561893
0
LINE
8
annotation
62
1
39
211
10
91.717567
20
383.561893
11
91.506220
21
383.350714
0
LINE
8
annotation
62
1
39
211
10
91.506220
20
383.350714
11
91.333167
21
383.106349
0
LINE
8
annotation
62
1
39
211
10
91.333167
20
383.106349
11
91.203389
21
382.833814
0
LINE
8
annotation
62
1
39
211
10
91.203389
20
382.833814
11
91.121869
21
382.538125
0
LINE
8
annotation
62
1
39
211
10
91.121869
20
382.538125
11
91.093589
21
382.224295
0
LINE
8
annotation
62
1
39
211
10
91.093589
20
382.224295
11
91.093589
21
382.224295
0
LINE
8
annotation
62
1
39
211
10
91.093589
20
382.224295
11
91.121885
21
381.908991
0
LINE
8
annotation
62
1
39
211
10
91.121885
20
381.908991
11
91.203446
21
381.612154
0
LINE
8
annotation
62
1
39
211
10
91.203446
20
381.612154
11
91.333277
21
381.338758
0
LINE
8
annotation
62
1
39
211
10
91.333277
20
381.338758
11
91.506383
21
381.093775
0
LINE
8
annotation
62
1
39
211
10
91.506383
20
381.093775
11
91.717770
21
380.882181
0
LINE
8
annotation
62
1
39
211
10
91.717770
20
380.882181
11
91.962444
21
380.708949
0
LINE
8
annotation
62
1
39
211
10
91.962444
20
380.708949
11
92.235409
21
380.579054
0
LINE
8
annotation
62
1
39
211
10
92.235409
20
380.579054
11
92.531673
21
380.497469
0
LINE
8
annotation
62
1
39
211
10
92.531673
20
380.497469
11
92.846239
21
380.469169
0
LINE
8
annotation
62
1
39
211
10
92.846239
20
380.469169
11
92.846239
21
380.469169
0
LINE
8
annotation
62
1
39
211
10
92.846239
20
380.469169
11
93.160806
21
380.497469
0
LINE
8
annotation
62
1
39
211
10
93.160806
20
380.497469
11
93.457069
21
380.579054
0
LINE
8
annotation
62
1
39
211
10
93.457069
20
380.579054
11
93.730035
21
380.708949
0
LINE
8
annotation
62
1
39
211
10
93.730035
20
380.708949
11
93.974709
21
380.882181
0
LINE
8
annotation
62
1
39
211
10
93.974709
20
380.882181
11
94.186096
21
381.093775
0
LINE
8
annotation
62
1
39
211
10
94.186096
20
381.093775
11
94.359202
21
381.338758
0
LINE
8
annotation
62
1
39
211
10
94.359202
20
381.338758
11
94.489032
21
381.612154
0
LINE
8
annotation
62
1
39
211
10
94.489032
20
381.612154
11
94.570593
21
381.908991
0
LINE
8
annotation
62
1
39
211
10
94.570593
20
381.908991
11
94.598890
21
382.224295
0
LINE
8
frame
62
5
39
2
10
0.000000
20
0.000000
11
215.900000
21
0.000000
0
LINE
8
frame
62
5
39
2
10
215.900000
20
0.000000
11
215.900000
21
279.400000
0
LINE
8
frame
62
5
39
2
10
215.900000
20
279.400000
11
0.000000
21
279.400000
0
LINE
8
frame
62
5
39
2
10
0.000000
20
279.400000
11
0.000000
21
0.000000
0
ENDSEC
0
EOF
