0
SECTION
2
HEADER
9
$ACADVER
1
AC1009
0
ENDSEC
0
SECTION
2
TABLES
0
TABLE
2
VPORT
70
1
0
VPORT
2
ACTIVE
70
0
10
0.0
20
0.0
11
0.0
21
0.0
12
0.0
22
0.0
13
0.0
23
0.0
14
0.0
24
0.0
15
0.0
25
0.0
16
0.0
26
0.0
36
0.0
17
0.0
27
0.0
37
0.0
40
0.0
41
0.0
42
0.0
43
0.0
44
0.0
50
0.0
51
0.0
71
0
72
1000
73
1
74
3
75
0
76
0
77
0
78
0
0
ENDTAB
0
ENDSEC
0
SECTION
2
ENTITIES
0
LINE
8
boundary
62
5
39
2
10
75.711294
20
9.868490
11
76.347889
21
10.388231
0
LINE
8
boundary
62
5
39
2
10
76.347889
20
10.388231
11
76.776514
21
10.768038
0
LINE
8
boundary
62
5
39
2
10
76.776514
20
10.768038
11
77.282880
21
11.286184
0
LINE
8
boundary
62
5
39
2
10
77.282880
20
11.286184
11
77.798091
21
11.889814
0
LINE
8
boundary
62
5
39
2
10
77.798091
20
11.889814
11
78.253506
21
12.523193
0
LINE
8
boundary
62
5
39
2
10
78.253506
20
12.523193
11
78.642362
21
13.185305
0
LINE
8
boundary
62
5
39
2
10
78.642362
20
13.185305
11
78.957598
21
13.874821
0
LINE
8
boundary
62
5
39
2
10
78.957598
20
13.874821
11
79.192317
21
14.590716
0
LINE
8
boundary
62
5
39
2
10
79.192317
20
14.590716
11
79.339871
21
15.331816
0
LINE
8
boundary
62
5
39
2
10
79.339871
20
15.331816
11
79.393039
21
16.097145
0
LINE
8
boundary
62
5
39
2
10
79.393039
20
16.097145
11
79.345224
21
16.885668
0
LINE
8
boundary
62
5
39
2
10
79.345224
20
16.885668
11
79.189680
21
17.696440
0
LINE
8
boundary
62
5
39
2
10
79.189680
20
17.696440
11
79.042175
21
18.203041
0
LINE
8
boundary
62
5
39
2
10
79.042175
20
18.203041
11
78.739698
21
18.952467
0
LINE
8
boundary
62
5
39
2
10
78.739698
20
18.952467
11
78.479808
21
19.479941
0
LINE
8
boundary
62
5
39
2
10
78.479808
20
19.479941
11
78.009538
21
20.253882
0
LINE
8
boundary
62
5
39
2
10
78.009538
20
20.253882
11
77.700171
21
20.697338
0
LINE
8
boundary
62
5
39
2
10
77.700171
20
20.697338
11
77.356286
21
21.145500
0
LINE
8
boundary
62
5
39
2
10
77.356286
20
21.145500
11
76.977251
21
21.598269
0
LINE
8
boundary
62
5
39
2
10
76.977251
20
21.598269
11
76.562182
21
22.055551
0
LINE
8
boundary
62
5
39
2
10
76.562182
20
22.055551
11
76.110265
21
22.517338
0
LINE
8
boundary
62
5
39
2
10
76.110265
20
22.517338
11
75.285573
21
22.724707
0
LINE
8
boundary
62
5
39
2
10
75.285573
20
22.724707
11
74.339316
21
22.876893
0
LINE
8
boundary
62
5
39
2
10
74.339316
20
22.876893
11
73.385826
21
23.059150
0
LINE
8
boundary
62
5
39
2
10
73.385826
20
23.059150
11
72.425835
21
23.271442
0
LINE
8
boundary
62
5
39
2
10
72.425835
20
23.271442
11
71.460045
21
23.513700
0
LINE
8
boundary
62
5
39
2
10
71.460045
20
23.513700
11
70.489064
21
23.785767
0
LINE
8
boundary
62
5
39
2
10
70.489064
20
23.785767
11
69.513631
21
24.087554
0
LINE
8
boundary
62
5
39
2
10
69.513631
20
24.087554
11
68.534272
21
24.418918
0
LINE
8
boundary
62
5
39
2
10
68.534272
20
24.418918
11
67.551565
21
24.779809
0
LINE
8
boundary
62
5
39
2
10
67.551565
20
24.779809
11
66.566376
21
25.170040
0
LINE
8
boundary
62
5
39
2
10
66.566376
20
25.170040
11
65.579192
21
25.589451
0
LINE
8
boundary
62
5
39
2
10
65.579192
20
25.589451
11
64.590760
21
26.037934
0
LINE
8
boundary
62
5
39
2
10
64.590760
20
26.037934
11
63.601663
21
26.515307
0
LINE
8
boundary
62
5
39
2
10
63.601663
20
26.515307
11
62.612517
21
27.021430
0
LINE
8
boundary
62
5
39
2
10
62.612517
20
27.021430
11
61.623927
21
27.556094
0
LINE
8
boundary
62
5
39
2
10
61.623927
20
27.556094
11
60.636726
21
28.119142
0
LINE
8
boundary
62
5
39
2
10
60.636726
20
28.119142
11
59.651390
21
28.710404
0
LINE
8
boundary
62
5
39
2
10
59.651390
20
28.710404
11
58.668656
21
29.329626
0
LINE
8
boundary
62
5
39
2
10
58.668656
20
29.329626
11
57.689044
21
29.976636
0
LINE
8
boundary
62
5
39
2
10
57.689044
20
29.976636
11
56.713207
21
30.651213
0
LINE
8
boundary
62
5
39
2
10
56.713207
20
30.651213
11
55.741829
21
31.353134
0
LINE
8
boundary
62
5
39
2
10
55.741829
20
31.353134
11
54.775610
21
32.082185
0
LINE
8
boundary
62
5
39
2
10
54.775610
20
32.082185
11
53.814888
21
32.838056
0
LINE
8
boundary
62
5
39
2
10
53.814888
20
32.838056
11
52.860514
21
33.620539
0
LINE
8
boundary
62
5
39
2
10
52.860514
20
33.620539
11
51.912956
21
34.429421
0
LINE
8
boundary
62
5
39
2
10
51.912956
20
34.429421
11
50.972912
21
35.264368
0
LINE
8
boundary
62
5
39
2
10
50.972912
20
35.264368
11
50.041024
21
36.125123
0
LINE
8
boundary
62
5
39
2
10
50.041024
20
36.125123
11
49.117699
21
37.011434
0
LINE
8
boundary
62
5
39
2
10
49.117699
20
37.011434
11
48.203722
21
37.923016
0
LINE
8
boundary
62
5
39
2
10
48.203722
20
37.923016
11
47.299523
21
38.859548
0
LINE
8
boundary
62
5
39
2
10
47.299523
20
38.859548
11
46.405727
21
39.820718
0
LINE
8
boundary
62
5
39
2
10
46.405727
20
39.820718
11
45.522949
21
40.806259
0
LINE
8
boundary
62
5
39
2
10
45.522949
20
40.806259
11
44.651687
21
41.815821
0
LINE
8
boundary
62
5
39
2
10
44.651687
20
41.815821
11
43.792576
21
42.849119
0
LINE
8
boundary
62
5
39
2
10
43.792576
20
42.849119
11
42.946084
21
43.905821
0
LINE
8
boundary
62
5
39
2
10
42.946084
20
43.905821
11
42.627221
21
44.310844
0
LINE
8
boundary
62
5
39
2
10
42.627221
20
44.310844
11
42.112903
21
44.985590
0
LINE
8
boundary
62
5
39
2
10
42.112903
20
44.985590
11
41.792468
21
45.408258
0
LINE
8
boundary
62
5
39
2
10
41.792468
20
45.408258
11
41.293421
21
46.088097
0
LINE
8
boundary
62
5
39
2
10
41.293421
20
46.088097
11
40.971586
21
46.528937
0
LINE
8
boundary
62
5
39
2
10
40.971586
20
46.528937
11
40.488282
21
47.213038
0
LINE
8
boundary
62
5
39
2
10
40.488282
20
47.213038
11
40.165386
21
47.672579
0
LINE
8
boundary
62
5
39
2
10
40.165386
20
47.672579
11
39.697938
21
48.360013
0
LINE
8
boundary
62
5
39
2
10
39.697938
20
48.360013
11
39.374136
21
48.838808
0
LINE
8
boundary
62
5
39
2
10
39.374136
20
48.838808
11
38.922873
21
49.528700
0
LINE
8
boundary
62
5
39
2
10
38.922873
20
49.528700
11
38.598537
21
50.027261
0
LINE
8
boundary
62
5
39
2
10
38.598537
20
50.027261
11
38.163662
21
50.718741
0
LINE
8
boundary
62
5
39
2
10
38.163662
20
50.718741
11
37.839108
21
51.237668
0
LINE
8
boundary
62
5
39
2
10
37.839108
20
51.237668
11
37.420831
21
51.929850
0
LINE
8
boundary
62
5
39
2
10
37.420831
20
51.929850
11
37.096426
21
52.469634
0
LINE
8
boundary
62
5
39
2
10
37.096426
20
52.469634
11
36.694851
21
53.161611
0
LINE
8
boundary
62
5
39
2
10
36.694851
20
53.161611
11
36.371070
21
53.722840
0
LINE
8
boundary
62
5
39
2
10
36.371070
20
53.722840
11
35.986262
21
54.413714
0
LINE
8
boundary
62
5
39
2
10
35.986262
20
54.413714
11
35.663332
21
54.996846
0
LINE
8
boundary
62
5
39
2
10
35.663332
20
54.996846
11
35.295477
21
55.685750
0
LINE
8
boundary
62
5
39
2
10
35.295477
20
55.685750
11
34.974040
21
56.291374
0
LINE
8
boundary
62
5
39
2
10
34.974040
20
56.291374
11
34.623087
21
56.977424
0
LINE
8
boundary
62
5
39
2
10
34.623087
20
56.977424
11
34.303468
21
57.605982
0
LINE
8
boundary
62
5
39
2
10
34.303468
20
57.605982
11
33.969403
21
58.288321
0
LINE
8
boundary
62
5
39
2
10
33.969403
20
58.288321
11
33.652266
21
58.940352
0
LINE
8
boundary
62
5
39
2
10
33.652266
20
58.940352
11
33.335071
21
59.618129
0
LINE
8
boundary
62
5
39
2
10
33.335071
20
59.618129
11
33.020812
21
60.294104
0
LINE
8
boundary
62
5
39
2
10
33.020812
20
60.294104
11
32.720404
21
60.966505
0
LINE
8
boundary
62
5
39
2
10
32.720404
20
60.966505
11
32.409711
21
61.666849
0
LINE
8
boundary
62
5
39
2
10
32.409711
20
61.666849
11
32.125979
21
62.333036
0
LINE
8
boundary
62
5
39
2
10
32.125979
20
62.333036
11
31.819380
21
63.058200
0
LINE
8
boundary
62
5
39
2
10
31.819380
20
63.058200
11
31.552209
21
63.717433
0
LINE
8
boundary
62
5
39
2
10
31.552209
20
63.717433
11
31.250398
21
64.467792
0
LINE
8
boundary
62
5
39
2
10
31.250398
20
64.467792
11
30.999502
21
65.119264
0
LINE
8
boundary
62
5
39
2
10
30.999502
20
65.119264
11
30.703135
21
65.895217
0
LINE
8
boundary
62
5
39
2
10
30.703135
20
65.895217
11
30.468435
21
66.538261
0
LINE
8
boundary
62
5
39
2
10
30.468435
20
66.538261
11
30.178243
21
67.340135
0
LINE
8
boundary
62
5
39
2
10
30.178243
20
67.340135
11
29.959289
21
67.974055
0
LINE
8
boundary
62
5
39
2
10
29.959289
20
67.974055
11
29.675894
21
68.802154
0
LINE
8
boundary
62
5
39
2
10
29.675894
20
68.802154
11
29.472523
21
69.426262
0
LINE
8
boundary
62
5
39
2
10
29.472523
20
69.426262
11
29.196738
21
70.280825
0
LINE
8
boundary
62
5
39
2
10
29.196738
20
70.280825
11
29.008607
21
70.894549
0
LINE
8
boundary
62
5
39
2
10
29.008607
20
70.894549
11
28.741319
21
71.775796
0
LINE
8
boundary
62
5
39
2
10
28.741319
20
71.775796
11
28.568015
21
72.378600
0
LINE
8
boundary
62
5
39
2
10
28.568015
20
72.378600
11
28.309854
21
73.286724
0
LINE
8
boundary
62
5
39
2
10
28.309854
20
73.286724
11
28.151048
21
73.878086
0
LINE
8
boundary
62
5
39
2
10
28.151048
20
73.878086
11
27.902950
21
74.813186
0
LINE
8
boundary
62
5
39
2
10
27.902950
20
74.813186
11
27.758175
21
75.392631
0
LINE
8
boundary
62
5
39
2
10
27.758175
20
75.392631
11
27.521031
21
76.354776
0
LINE
8
boundary
62
5
39
2
10
27.521031
20
76.354776
11
27.389915
21
76.921933
0
LINE
8
boundary
62
5
39
2
10
27.389915
20
76.921933
11
27.164550
21
77.911119
0
LINE
8
boundary
62
5
39
2
10
27.164550
20
77.911119
11
27.046567
21
78.465645
0
LINE
8
boundary
62
5
39
2
10
27.046567
20
78.465645
11
26.833783
21
79.481837
0
LINE
8
boundary
62
5
39
2
10
26.833783
20
79.481837
11
26.728436
21
80.023435
0
LINE
8
boundary
62
5
39
2
10
26.728436
20
80.023435
11
26.529156
21
81.066483
0
LINE
8
boundary
62
5
39
2
10
26.529156
20
81.066483
11
26.436039
21
81.594974
0
LINE
8
boundary
62
5
39
2
10
26.436039
20
81.594974
11
26.251306
21
82.664774
0
LINE
8
boundary
62
5
39
2
10
26.251306
20
82.664774
11
26.169917
21
83.179993
0
LINE
8
boundary
62
5
39
2
10
26.169917
20
83.179993
11
26.000602
21
84.276209
0
LINE
8
boundary
62
5
39
2
10
26.000602
20
84.276209
11
25.698693
21
85.537709
0
LINE
8
boundary
62
5
39
2
10
25.698693
20
85.537709
11
25.413695
21
86.797647
0
LINE
8
boundary
62
5
39
2
10
25.413695
20
86.797647
11
25.145089
21
88.056039
0
LINE
8
boundary
62
5
39
2
10
25.145089
20
88.056039
11
24.892946
21
89.312685
0
LINE
8
boundary
62
5
39
2
10
24.892946
20
89.312685
11
24.656854
21
90.567606
0
LINE
8
boundary
62
5
39
2
10
24.656854
20
90.567606
11
24.436599
21
91.820775
0
LINE
8
boundary
62
5
39
2
10
24.436599
20
91.820775
11
24.335868
21
92.451729
0
LINE
8
boundary
62
5
39
2
10
24.335868
20
92.451729
11
24.042846
21
94.321556
0
LINE
8
boundary
62
5
39
2
10
24.042846
20
94.321556
11
23.963155
21
94.908016
0
LINE
8
boundary
62
5
39
2
10
23.963155
20
94.908016
11
23.709853
21
96.814600
0
LINE
8
boundary
62
5
39
2
10
23.709853
20
96.814600
11
23.648595
21
97.358670
0
LINE
8
boundary
62
5
39
2
10
23.648595
20
97.358670
11
23.436086
21
99.299481
0
LINE
8
boundary
62
5
39
2
10
23.436086
20
99.299481
11
23.219627
21
101.775809
0
LINE
8
boundary
62
5
39
2
10
23.219627
20
101.775809
11
23.058836
21
104.243364
0
LINE
8
boundary
62
5
39
2
10
23.058836
20
104.243364
11
22.952139
21
106.701767
0
LINE
8
boundary
62
5
39
2
10
22.952139
20
106.701767
11
22.897809
21
109.150715
0
LINE
8
boundary
62
5
39
2
10
22.897809
20
109.150715
11
22.894050
21
111.589959
0
LINE
8
boundary
62
5
39
2
10
22.894050
20
111.589959
11
22.939416
21
114.019235
0
LINE
8
boundary
62
5
39
2
10
22.939416
20
114.019235
11
23.032177
21
116.438310
0
LINE
8
boundary
62
5
39
2
10
23.032177
20
116.438310
11
23.170803
21
118.846964
0
LINE
8
boundary
62
5
39
2
10
23.170803
20
118.846964
11
23.353649
21
121.244909
0
LINE
8
boundary
62
5
39
2
10
23.353649
20
121.244909
11
23.579345
21
123.632125
0
LINE
8
boundary
62
5
39
2
10
23.579345
20
123.632125
11
23.846149
21
126.008352
0
LINE
8
boundary
62
5
39
2
10
23.846149
20
126.008352
11
24.152410
21
128.373358
0
LINE
8
boundary
62
5
39
2
10
24.152410
20
128.373358
11
24.496859
21
130.727118
0
LINE
8
boundary
62
5
39
2
10
24.496859
20
130.727118
11
24.877924
21
133.069456
0
LINE
8
boundary
62
5
39
2
10
24.877924
20
133.069456
11
25.294056
21
135.400261
0
LINE
8
boundary
62
5
39
2
10
25.294056
20
135.400261
11
25.743869
21
137.719388
0
LINE
8
boundary
62
5
39
2
10
25.743869
20
137.719388
11
26.225753
21
140.026744
0
LINE
8
boundary
62
5
39
2
10
26.225753
20
140.026744
11
26.738369
21
142.322245
0
LINE
8
boundary
62
5
39
2
10
26.738369
20
142.322245
11
27.280330
21
144.605763
0
LINE
8
boundary
62
5
39
2
10
27.280330
20
144.605763
11
27.850145
21
146.877386
0
LINE
8
boundary
62
5
39
2
10
27.850145
20
146.877386
11
28.446421
21
149.136881
0
LINE
8
boundary
62
5
39
2
10
28.446421
20
149.136881
11
29.067790
21
151.384285
0
LINE
8
boundary
62
5
39
2
10
29.067790
20
151.384285
11
29.712677
21
153.619518
0
LINE
8
boundary
62
5
39
2
10
29.712677
20
153.619518
11
30.380124
21
155.842587
0
LINE
8
boundary
62
5
39
2
10
30.380124
20
155.842587
11
31.068338
21
158.053394
0
LINE
8
boundary
62
5
39
2
10
31.068338
20
158.053394
11
31.776239
21
160.252002
0
LINE
8
boundary
62
5
39
2
10
31.776239
20
160.252002
11
32.502329
21
162.438351
0
LINE
8
boundary
62
5
39
2
10
32.502329
20
162.438351
11
33.245493
21
164.612485
0
LINE
8
boundary
62
5
39
2
10
33.245493
20
164.612485
11
34.004107
21
166.774346
0
LINE
8
boundary
62
5
39
2
10
34.004107
20
166.774346
11
34.777215
21
168.924074
0
LINE
8
boundary
62
5
39
2
10
34.777215
20
168.924074
11
35.563378
21
171.061530
0
LINE
8
boundary
62
5
39
2
10
35.563378
20
171.061530
11
36.361154
21
173.186873
0
LINE
8
boundary
62
5
39
2
10
36.361154
20
173.186873
11
36.598834
21
173.808575
0
LINE
8
boundary
62
5
39
2
10
36.598834
20
173.808575
11
37.987087
21
177.401187
0
LINE
8
boundary
62
5
39
2
10
37.987087
20
177.401187
11
38.249715
21
178.066732
0
LINE
8
boundary
62
5
39
2
10
38.249715
20
178.066732
11
39.644979
21
181.567400
0
LINE
8
boundary
62
5
39
2
10
39.644979
20
181.567400
11
39.932051
21
182.276640
0
LINE
8
boundary
62
5
39
2
10
39.932051
20
182.276640
11
41.324982
21
185.686041
0
LINE
8
boundary
62
5
39
2
10
41.324982
20
185.686041
11
41.635399
21
186.438179
0
LINE
8
boundary
62
5
39
2
10
41.635399
20
186.438179
11
43.017292
21
189.757721
0
LINE
8
boundary
62
5
39
2
10
43.017292
20
189.757721
11
43.349379
21
190.551367
0
LINE
8
boundary
62
5
39
2
10
43.349379
20
190.551367
11
44.712229
21
193.783032
0
LINE
8
boundary
62
5
39
2
10
44.712229
20
193.783032
11
45.407757
21
195.430121
0
LINE
8
boundary
62
5
39
2
10
45.407757
20
195.430121
11
48.072322
21
201.698197
0
LINE
8
boundary
62
5
39
2
10
48.072322
20
201.698197
11
48.824935
21
203.492537
0
LINE
8
boundary
62
5
39
2
10
48.824935
20
203.492537
11
51.331308
21
209.438860
0
LINE
8
boundary
62
5
39
2
10
51.331308
20
209.438860
11
51.730070
21
210.409085
0
LINE
8
boundary
62
5
39
2
10
51.730070
20
210.409085
11
52.900226
21
213.246466
0
LINE
8
boundary
62
5
39
2
10
52.900226
20
213.246466
11
53.301356
21
214.244615
0
LINE
8
boundary
62
5
39
2
10
53.301356
20
214.244615
11
54.416654
21
217.013694
0
LINE
8
boundary
62
5
39
2
10
54.416654
20
217.013694
11
54.815956
21
218.037147
0
LINE
8
boundary
62
5
39
2
10
54.815956
20
218.037147
11
55.872309
21
220.741811
0
LINE
8
boundary
62
5
39
2
10
55.872309
20
220.741811
11
56.071643
21
221.266974
0
LINE
8
boundary
62
5
39
2
10
56.071643
20
221.266974
11
56.574416
21
222.591623
0
LINE
8
boundary
62
5
39
2
10
56.574416
20
222.591623
11
56.771514
21
223.121967
0
LINE
8
boundary
62
5
39
2
10
56.771514
20
223.121967
11
57.258061
21
224.432161
0
LINE
8
boundary
62
5
39
2
10
57.258061
20
224.432161
11
57.572252
21
225.304774
0
LINE
8
boundary
62
5
39
2
10
57.572252
20
225.304774
11
58.332695
21
227.420406
0
LINE
8
boundary
62
5
39
2
10
58.332695
20
227.420406
11
58.648636
21
228.338081
0
LINE
8
boundary
62
5
39
2
10
58.648636
20
228.338081
11
59.389235
21
230.495985
0
LINE
8
boundary
62
5
39
2
10
59.389235
20
230.495985
11
59.907630
21
232.064705
0
LINE
8
boundary
62
5
39
2
10
59.907630
20
232.064705
11
60.065193
21
232.553451
0
LINE
8
boundary
62
5
39
2
10
60.065193
20
232.553451
11
60.417915
21
233.653029
0
LINE
8
boundary
62
5
39
2
10
60.417915
20
233.653029
11
60.574089
21
234.152282
0
LINE
8
boundary
62
5
39
2
10
60.574089
20
234.152282
11
60.918541
21
235.260196
0
LINE
8
boundary
62
5
39
2
10
60.918541
20
235.260196
11
61.072944
21
235.769745
0
LINE
8
boundary
62
5
39
2
10
61.072944
20
235.769745
11
61.408704
21
236.885609
0
LINE
8
boundary
62
5
39
2
10
61.408704
20
236.885609
11
61.560799
21
237.405204
0
LINE
8
boundary
62
5
39
2
10
61.560799
20
237.405204
11
61.886928
21
238.528570
0
LINE
8
boundary
62
5
39
2
10
61.886928
20
238.528570
11
62.036254
21
239.057972
0
LINE
8
boundary
62
5
39
2
10
62.036254
20
239.057972
11
62.352159
21
240.188276
0
LINE
8
boundary
62
5
39
2
10
62.352159
20
240.188276
11
62.498250
21
240.727278
0
LINE
8
boundary
62
5
39
2
10
62.498250
20
240.727278
11
62.803117
21
241.864250
0
LINE
8
boundary
62
5
39
2
10
62.803117
20
241.864250
11
62.945501
21
242.412563
0
LINE
8
boundary
62
5
39
2
10
62.945501
20
242.412563
11
63.238859
21
243.555748
0
LINE
8
boundary
62
5
39
2
10
63.238859
20
243.555748
11
63.376986
21
244.113138
0
LINE
8
boundary
62
5
39
2
10
63.376986
20
244.113138
11
63.657949
21
245.262119
0
LINE
8
boundary
62
5
39
2
10
63.657949
20
245.262119
11
63.791359
21
245.828299
0
LINE
8
boundary
62
5
39
2
10
63.791359
20
245.828299
11
64.059309
21
246.982781
0
LINE
8
boundary
62
5
39
2
10
64.059309
20
246.982781
11
64.187462
21
247.557473
0
LINE
8
boundary
62
5
39
2
10
64.187462
20
247.557473
11
64.441758
21
248.717160
0
LINE
8
boundary
62
5
39
2
10
64.441758
20
248.717160
11
64.564253
21
249.300061
0
LINE
8
boundary
62
5
39
2
10
64.564253
20
249.300061
11
64.804308
21
250.464573
0
LINE
8
boundary
62
5
39
2
10
64.804308
20
250.464573
11
64.920609
21
251.055410
0
LINE
8
boundary
62
5
39
2
10
64.920609
20
251.055410
11
65.145813
21
252.224432
0
LINE
8
boundary
62
5
39
2
10
65.145813
20
252.224432
11
65.255410
21
252.822945
0
LINE
8
boundary
62
5
39
2
10
65.255410
20
252.822945
11
65.465156
21
253.996316
0
LINE
8
boundary
62
5
39
2
10
65.465156
20
253.996316
11
65.567531
21
254.602161
0
LINE
8
boundary
62
5
39
2
10
65.567531
20
254.602161
11
65.761127
21
255.779542
0
LINE
8
boundary
62
5
39
2
10
65.761127
20
255.779542
11
65.855796
21
256.392398
0
LINE
8
boundary
62
5
39
2
10
65.855796
20
256.392398
11
66.032632
21
257.573467
0
LINE
8
boundary
62
5
39
2
10
66.032632
20
257.573467
11
66.119161
21
258.193051
0
LINE
8
boundary
62
5
39
2
10
66.119161
20
258.193051
11
66.278777
21
259.377687
0
LINE
8
boundary
62
5
39
2
10
66.278777
20
259.377687
11
66.356661
21
260.003771
0
LINE
8
boundary
62
5
39
2
10
66.356661
20
260.003771
11
66.498399
21
261.191666
0
LINE
8
boundary
62
5
39
2
10
66.498399
20
261.191666
11
66.567161
21
261.823806
0
LINE
8
boundary
62
5
39
2
10
66.567161
20
261.823806
11
66.690406
21
263.014743
0
LINE
8
boundary
62
5
39
2
10
66.690406
20
263.014743
11
66.749587
21
263.652739
0
LINE
8
boundary
62
5
39
2
10
66.749587
20
263.652739
11
66.853841
21
264.846600
0
LINE
8
boundary
62
5
39
2
10
66.853841
20
264.846600
11
66.902915
21
265.490079
0
LINE
8
boundary
62
5
39
2
10
66.902915
20
265.490079
11
66.987542
21
266.686592
0
LINE
8
boundary
62
5
39
2
10
66.987542
20
266.686592
11
67.026143
21
267.335240
0
LINE
8
boundary
62
5
39
2
10
67.026143
20
267.335240
11
67.090730
21
268.534237
0
LINE
8
boundary
62
5
39
2
10
67.090730
20
268.534237
11
67.118398
21
269.187705
0
LINE
8
boundary
62
5
39
2
10
67.118398
20
269.187705
11
67.162285
21
270.388992
0
LINE
8
boundary
62
5
39
2
10
67.162285
20
270.388992
11
67.178569
21
271.047080
0
LINE
8
boundary
62
5
39
2
10
67.178569
20
271.047080
11
67.201245
21
272.250506
0
LINE
8
boundary
62
5
39
2
10
67.201245
20
272.250506
11
67.205750
21
272.912798
0
LINE
8
boundary
62
5
39
2
10
67.205750
20
272.912798
11
67.206714
21
274.118254
0
LINE
8
boundary
62
5
39
2
10
67.206714
20
274.118254
11
67.198949
21
274.784457
0
LINE
8
boundary
62
5
39
2
10
67.198949
20
274.784457
11
67.177497
21
275.991621
0
LINE
8
boundary
62
5
39
2
10
67.177497
20
275.991621
11
67.157170
21
276.661441
0
LINE
8
boundary
62
5
39
2
10
67.157170
20
276.661441
11
67.113038
21
277.870343
0
LINE
8
boundary
62
5
39
2
10
67.113038
20
277.870343
11
67.079638
21
278.543455
0
LINE
8
boundary
62
5
39
2
10
67.079638
20
278.543455
11
67.012102
21
279.753840
0
LINE
8
boundary
62
5
39
2
10
67.012102
20
279.753840
11
66.965331
21
280.429897
0
LINE
8
boundary
62
5
39
2
10
66.965331
20
280.429897
11
66.873908
21
281.641668
0
LINE
8
boundary
62
5
39
2
10
66.873908
20
281.641668
11
66.813426
21
282.320398
0
LINE
8
boundary
62
5
39
2
10
66.813426
20
282.320398
11
66.697742
21
283.533297
0
LINE
8
boundary
62
5
39
2
10
66.697742
20
283.533297
11
66.623166
21
284.214339
0
LINE
8
boundary
62
5
39
2
10
66.623166
20
284.214339
11
66.482514
21
285.428443
0
LINE
8
boundary
62
5
39
2
10
66.482514
20
285.428443
11
66.393505
21
286.111540
0
LINE
8
boundary
62
5
39
2
10
66.393505
20
286.111540
11
66.227550
21
287.326642
0
LINE
8
boundary
62
5
39
2
10
66.227550
20
287.326642
11
66.123819
21
288.011419
0
LINE
8
boundary
62
5
39
2
10
66.123819
20
288.011419
11
65.931970
21
289.227187
0
LINE
8
boundary
62
5
39
2
10
65.931970
20
289.227187
11
65.813222
21
289.913360
0
LINE
8
boundary
62
5
39
2
10
65.813222
20
289.913360
11
65.595058
21
291.129931
0
LINE
8
boundary
62
5
39
2
10
65.595058
20
291.129931
11
65.460937
21
291.817213
0
LINE
8
boundary
62
5
39
2
10
65.460937
20
291.817213
11
65.215787
21
293.034269
0
LINE
8
boundary
62
5
39
2
10
65.215787
20
293.034269
11
65.066094
21
293.722257
0
LINE
8
boundary
62
5
39
2
10
65.066094
20
293.722257
11
64.793631
21
294.939763
0
LINE
8
boundary
62
5
39
2
10
64.793631
20
294.939763
11
64.628124
21
295.628200
0
LINE
8
boundary
62
5
39
2
10
64.628124
20
295.628200
11
64.327865
21
296.846057
0
LINE
8
boundary
62
5
39
2
10
64.327865
20
296.846057
11
64.146297
21
297.534630
0
LINE
8
boundary
62
5
39
2
10
64.146297
20
297.534630
11
63.817644
21
298.752696
0
LINE
8
boundary
62
5
39
2
10
63.817644
20
298.752696
11
63.619788
21
299.441039
0
LINE
8
boundary
62
5
39
2
10
63.619788
20
299.441039
11
63.262326
21
300.659113
0
LINE
8
boundary
62
5
39
2
10
63.262326
20
300.659113
11
63.047973
21
301.346921
0
LINE
8
boundary
62
5
39
2
10
63.047973
20
301.346921
11
62.661157
21
302.565040
0
LINE
8
boundary
62
5
39
2
10
62.661157
20
302.565040
11
62.343220
21
303.517664
0
LINE
8
boundary
62
5
39
2
10
62.343220
20
303.517664
11
62.013660
21
304.469943
0
LINE
8
boundary
62
5
39
2
10
62.013660
20
304.469943
11
61.672363
21
305.421938
0
LINE
8
boundary
62
5
39
2
10
61.672363
20
305.421938
11
61.319074
21
306.373463
0
LINE
8
boundary
62
5
39
2
10
61.319074
20
306.373463
11
60.953941
21
307.324447
0
LINE
8
boundary
62
5
39
2
10
60.953941
20
307.324447
11
60.576893
21
308.274902
0
LINE
8
boundary
62
5
39
2
10
60.576893
20
308.274902
11
60.187695
21
309.224865
0
LINE
8
boundary
62
5
39
2
10
60.187695
20
309.224865
11
59.786370
21
310.174154
0
LINE
8
boundary
62
5
39
2
10
59.786370
20
310.174154
11
59.372824
21
311.122713
0
LINE
8
boundary
62
5
39
2
10
59.372824
20
311.122713
11
58.947013
21
312.070595
0
LINE
8
boundary
62
5
39
2
10
58.947013
20
312.070595
11
58.508886
21
313.017570
0
LINE
8
boundary
62
5
39
2
10
58.508886
20
313.017570
11
58.058317
21
313.963795
0
LINE
8
boundary
62
5
39
2
10
58.058317
20
313.963795
11
57.595301
21
314.908924
0
LINE
8
boundary
62
5
39
2
10
57.595301
20
314.908924
11
57.119754
21
315.853221
0
LINE
8
boundary
62
5
39
2
10
57.119754
20
315.853221
11
56.631592
21
316.796455
0
LINE
8
boundary
62
5
39
2
10
56.631592
20
316.796455
11
56.130739
21
317.738483
0
LINE
8
boundary
62
5
39
2
10
56.130739
20
317.738483
11
55.617185
21
318.679514
0
LINE
8
boundary
62
5
39
2
10
55.617185
20
318.679514
11
55.090945
21
319.619216
0
LINE
8
boundary
62
5
39
2
10
55.090945
20
319.619216
11
54.551714
21
320.557679
0
LINE
8
boundary
62
5
39
2
10
54.551714
20
320.557679
11
53.999702
21
321.494876
0
LINE
8
boundary
62
5
39
2
10
53.999702
20
321.494876
11
53.434650
21
322.430677
0
LINE
8
boundary
62
5
39
2
10
53.434650
20
322.430677
11
52.856592
21
323.364983
0
LINE
8
boundary
62
5
39
2
10
52.856592
20
323.364983
11
52.265528
21
324.297764
0
LINE
8
boundary
62
5
39
2
10
52.265528
20
324.297764
11
51.661332
21
325.229031
0
LINE
8
boundary
62
5
39
2
10
51.661332
20
325.229031
11
51.043989
21
326.158740
0
LINE
8
boundary
62
5
39
2
10
51.043989
20
326.158740
11
50.413369
21
327.086678
0
LINE
8
boundary
62
5
39
2
10
50.413369
20
327.086678
11
49.769468
21
328.012963
0
LINE
8
boundary
62
5
39
2
10
49.769468
20
328.012963
11
49.112258
21
328.937427
0
LINE
8
boundary
62
5
39
2
10
49.112258
20
328.937427
11
48.441863
21
329.860019
0
LINE
8
boundary
62
5
39
2
10
48.441863
20
329.860019
11
47.757872
21
330.780635
0
LINE
8
boundary
62
5
39
2
10
47.757872
20
330.780635
11
47.060493
21
331.699263
0
LINE
8
boundary
62
5
39
2
10
47.060493
20
331.699263
11
46.349534
21
332.615952
0
LINE
8
boundary
62
5
39
2
10
46.349534
20
332.615952
11
45.625105
21
333.530548
0
LINE
8
boundary
62
5
39
2
10
45.625105
20
333.530548
11
44.887007
21
334.442897
0
LINE
8
boundary
62
5
39
2
10
44.887007
20
334.442897
11
44.135339
21
335.353083
0
LINE
8
boundary
62
5
39
2
10
44.135339
20
335.353083
11
43.369996
21
336.260985
0
LINE
8
boundary
62
5
39
2
10
43.369996
20
336.260985
11
42.590893
21
337.166468
0
LINE
8
boundary
62
5
39
2
10
42.590893
20
337.166468
11
41.798011
21
338.069568
0
LINE
8
boundary
62
5
39
2
10
41.798011
20
338.069568
11
40.991369
21
338.970231
0
LINE
8
boundary
62
5
39
2
10
40.991369
20
338.970231
11
40.170900
21
339.868295
0
LINE
8
boundary
62
5
39
2
10
40.170900
20
339.868295
11
39.939770
21
340.397884
0
LINE
8
boundary
62
5
39
2
10
39.939770
20
340.397884
11
39.735540
21
340.903570
0
LINE
8
boundary
62
5
39
2
10
39.735540
20
340.903570
11
39.557429
21
341.385712
0
LINE
8
boundary
62
5
39
2
10
39.557429
20
341.385712
11
39.363712
21
341.986497
0
LINE
8
boundary
62
5
39
2
10
39.363712
20
341.986497
11
39.173649
21
342.695309
0
LINE
8
boundary
62
5
39
2
10
39.173649
20
342.695309
11
39.075428
21
343.209461
0
LINE
8
boundary
62
5
39
2
10
39.075428
20
343.209461
11
39.002673
21
343.808785
0
LINE
8
boundary
62
5
39
2
10
39.002673
20
343.808785
11
38.998839
21
344.447983
0
LINE
8
boundary
62
5
39
2
10
38.998839
20
344.447983
11
39.077432
21
345.008456
0
LINE
8
boundary
62
5
39
2
10
39.077432
20
345.008456
11
39.234130
21
345.493998
0
LINE
8
boundary
62
5
39
2
10
39.234130
20
345.493998
11
39.512803
21
345.970484
0
LINE
8
boundary
62
5
39
2
10
39.512803
20
345.970484
11
39.936629
21
346.402284
0
LINE
8
boundary
62
5
39
2
10
39.936629
20
346.402284
11
40.407953
21
346.689106
0
LINE
8
boundary
62
5
39
2
10
40.407953
20
346.689106
11
41.027414
21
346.917893
0
LINE
8
boundary
62
5
39
2
10
41.027414
20
346.917893
11
41.556960
21
347.026552
0
LINE
8
boundary
62
5
39
2
10
41.556960
20
347.026552
11
42.133286
21
347.084540
0
LINE
8
boundary
62
5
39
2
10
42.133286
20
347.084540
11
42.751898
21
347.095621
0
LINE
8
boundary
62
5
39
2
10
42.751898
20
347.095621
11
43.408495
21
347.063178
0
LINE
8
boundary
62
5
39
2
10
43.408495
20
347.063178
11
44.017415
21
346.997249
0
LINE
8
boundary
62
5
39
2
10
44.017415
20
346.997249
11
44.735884
21
346.892559
0
LINE
8
boundary
62
5
39
2
10
44.735884
20
346.892559
11
45.479904
21
346.754296
0
LINE
8
boundary
62
5
39
2
10
45.479904
20
346.754296
11
46.244820
21
346.586000
0
LINE
8
boundary
62
5
39
2
10
46.244820
20
346.586000
11
47.026261
21
346.391324
0
LINE
8
boundary
62
5
39
2
10
47.026261
20
346.391324
11
47.819582
21
346.173774
0
LINE
8
boundary
62
5
39
2
10
47.819582
20
346.173774
11
48.620354
21
345.937024
0
LINE
8
boundary
62
5
39
2
10
48.620354
20
345.937024
11
49.423941
21
345.684614
0
LINE
8
boundary
62
5
39
2
10
49.423941
20
345.684614
11
50.225656
21
345.419870
0
LINE
8
boundary
62
5
39
2
10
50.225656
20
345.419870
11
51.337811
21
345.032397
0
LINE
8
boundary
62
5
39
2
10
51.337811
20
345.032397
11
52.257503
21
344.705215
0
LINE
8
boundary
62
5
39
2
10
52.257503
20
344.705215
11
52.877969
21
344.474625
0
LINE
8
boundary
62
5
39
2
10
52.877969
20
344.474625
11
53.745426
21
344.151955
0
LINE
8
boundary
62
5
39
2
10
53.745426
20
344.151955
11
54.327187
21
343.931009
0
LINE
8
boundary
62
5
39
2
10
54.327187
20
343.931009
11
55.122217
21
343.628917
0
LINE
8
boundary
62
5
39
2
10
55.122217
20
343.628917
11
56.000642
21
343.041680
0
LINE
8
boundary
62
5
39
2
10
56.000642
20
343.041680
11
56.893103
21
342.473807
0
LINE
8
boundary
62
5
39
2
10
56.893103
20
342.473807
11
57.799048
21
341.925304
0
LINE
8
boundary
62
5
39
2
10
57.799048
20
341.925304
11
58.718125
21
341.396186
0
LINE
8
boundary
62
5
39
2
10
58.718125
20
341.396186
11
59.649657
21
340.886394
0
LINE
8
boundary
62
5
39
2
10
59.649657
20
340.886394
11
60.593301
21
340.395962
0
LINE
8
boundary
62
5
39
2
10
60.593301
20
340.395962
11
61.548422
21
339.924752
0
LINE
8
boundary
62
5
39
2
10
61.548422
20
339.924752
11
62.514421
21
339.472917
0
LINE
8
boundary
62
5
39
2
10
62.514421
20
339.472917
11
63.491030
21
339.040236
0
LINE
8
boundary
62
5
39
2
10
63.491030
20
339.040236
11
64.477529
21
338.626892
0
LINE
8
boundary
62
5
39
2
10
64.477529
20
338.626892
11
65.473357
21
338.232702
0
LINE
8
boundary
62
5
39
2
10
65.473357
20
338.232702
11
66.477918
21
337.857761
0
LINE
8
boundary
62
5
39
2
10
66.477918
20
337.857761
11
67.490914
21
337.502064
0
LINE
8
boundary
62
5
39
2
10
67.490914
20
337.502064
11
68.511570
21
337.165466
0
LINE
8
boundary
62
5
39
2
10
68.511570
20
337.165466
11
69.539423
21
336.848167
0
LINE
8
boundary
62
5
39
2
10
69.539423
20
336.848167
11
70.573938
21
336.549954
0
LINE
8
boundary
62
5
39
2
10
70.573938
20
336.549954
11
71.614428
21
336.270768
0
LINE
8
boundary
62
5
39
2
10
71.614428
20
336.270768
11
72.108672
21
336.148206
0
LINE
8
boundary
62
5
39
2
10
72.108672
20
336.148206
11
72.660466
21
336.010834
0
LINE
8
boundary
62
5
39
2
10
72.660466
20
336.010834
11
73.160153
21
335.896570
0
LINE
8
boundary
62
5
39
2
10
73.160153
20
335.896570
11
73.711370
21
335.769991
0
LINE
8
boundary
62
5
39
2
10
73.711370
20
335.769991
11
74.216329
21
335.664144
0
LINE
8
boundary
62
5
39
2
10
74.216329
20
335.664144
11
74.766649
21
335.548278
0
LINE
8
boundary
62
5
39
2
10
74.766649
20
335.548278
11
75.276576
21
335.450890
0
LINE
8
boundary
62
5
39
2
10
75.276576
20
335.450890
11
75.825685
21
335.345448
0
LINE
8
boundary
62
5
39
2
10
75.825685
20
335.345448
11
76.340331
21
335.256748
0
LINE
8
boundary
62
5
39
2
10
76.340331
20
335.256748
11
76.887954
21
335.161852
0
LINE
8
boundary
62
5
39
2
10
76.887954
20
335.161852
11
77.407064
21
335.081854
0
LINE
8
boundary
62
5
39
2
10
77.407064
20
335.081854
11
77.952811
21
334.997232
0
LINE
8
boundary
62
5
39
2
10
77.952811
20
334.997232
11
78.476105
21
334.926140
0
LINE
8
boundary
62
5
39
2
10
78.476105
20
334.926140
11
79.019710
21
334.851657
0
LINE
8
boundary
62
5
39
2
10
79.019710
20
334.851657
11
79.546899
21
334.789470
0
LINE
8
boundary
62
5
39
2
10
79.546899
20
334.789470
11
80.088080
21
334.725134
0
LINE
8
boundary
62
5
39
2
10
80.088080
20
334.725134
11
80.618785
21
334.671947
0
LINE
8
boundary
62
5
39
2
10
80.618785
20
334.671947
11
81.157169
21
334.617476
0
LINE
8
boundary
62
5
39
2
10
81.157169
20
334.617476
11
81.691197
21
334.573514
0
LINE
8
boundary
62
5
39
2
10
81.691197
20
334.573514
11
82.226560
21
334.528986
0
LINE
8
boundary
62
5
39
2
10
82.226560
20
334.528986
11
82.763571
21
334.494204
0
LINE
8
boundary
62
5
39
2
10
82.763571
20
334.494204
11
83.295659
21
334.459269
0
LINE
8
boundary
62
5
39
2
10
83.295659
20
334.459269
11
83.835271
21
334.433935
0
LINE
8
boundary
62
5
39
2
10
83.835271
20
334.433935
11
84.363734
21
334.408626
0
LINE
8
boundary
62
5
39
2
10
84.363734
20
334.408626
11
84.905672
21
334.392764
0
LINE
8
boundary
62
5
39
2
10
84.905672
20
334.392764
11
85.430307
21
334.376939
0
LINE
8
boundary
62
5
39
2
10
85.430307
20
334.376939
11
85.974183
21
334.370546
0
LINE
8
boundary
62
5
39
2
10
85.974183
20
334.370546
11
86.494728
21
334.364135
0
LINE
8
boundary
62
5
39
2
10
86.494728
20
334.364135
11
87.040213
21
334.367460
0
LINE
8
boundary
62
5
39
2
10
87.040213
20
334.367460
11
87.556321
21
334.370173
0
LINE
8
boundary
62
5
39
2
10
87.556321
20
334.370173
11
88.103016
21
334.383270
0
LINE
8
boundary
62
5
39
2
10
88.103016
20
334.383270
11
88.614511
21
334.395209
0
LINE
8
boundary
62
5
39
2
10
88.614511
20
334.395209
11
89.162162
21
334.418195
0
LINE
8
boundary
62
5
39
2
10
89.162162
20
334.418195
11
90.216928
21
334.472005
0
LINE
8
boundary
62
5
39
2
10
90.216928
20
334.472005
11
91.266743
21
334.544885
0
LINE
8
boundary
62
5
39
2
10
91.266743
20
334.544885
11
92.310958
21
334.636606
0
LINE
8
boundary
62
5
39
2
10
92.310958
20
334.636606
11
93.348896
21
334.747409
0
LINE
8
boundary
62
5
39
2
10
93.348896
20
334.747409
11
94.380005
21
334.877081
0
LINE
8
boundary
62
5
39
2
10
94.380005
20
334.877081
11
95.403702
21
335.025688
0
LINE
8
boundary
62
5
39
2
10
95.403702
20
335.025688
11
96.419278
21
335.193174
0
LINE
8
boundary
62
5
39
2
10
96.419278
20
335.193174
11
97.426091
21
335.379610
0
LINE
8
boundary
62
5
39
2
10
97.426091
20
335.379610
11
98.423622
21
335.584948
0
LINE
8
boundary
62
5
39
2
10
98.423622
20
335.584948
11
99.411167
21
335.809237
0
LINE
8
boundary
62
5
39
2
10
99.411167
20
335.809237
11
100.388034
21
336.052323
0
LINE
8
boundary
62
5
39
2
10
100.388034
20
336.052323
11
101.353643
21
336.314267
0
LINE
8
boundary
62
5
39
2
10
101.353643
20
336.314267
11
102.307424
21
336.595115
0
LINE
8
boundary
62
5
39
2
10
102.307424
20
336.595115
11
103.248692
21
336.894839
0
LINE
8
boundary
62
5
39
2
10
103.248692
20
336.894839
11
104.176819
21
337.213438
0
LINE
8
boundary
62
5
39
2
10
104.176819
20
337.213438
11
105.091157
21
337.550968
0
LINE
8
boundary
62
5
39
2
10
105.091157
20
337.550968
11
105.991134
21
337.907313
0
LINE
8
boundary
62
5
39
2
10
105.991134
20
337.907313
11
106.876042
21
338.282400
0
LINE
8
boundary
62
5
39
2
10
106.876042
20
338.282400
11
107.745360
21
338.676461
0
LINE
8
boundary
62
5
39
2
10
107.745360
20
338.676461
11
108.598298
21
339.089336
0
LINE
8
boundary
62
5
39
2
10
108.598298
20
339.089336
11
109.434408
21
339.521166
0
LINE
8
boundary
62
5
39
2
10
109.434408
20
339.521166
11
110.252944
21
339.971806
0
LINE
8
boundary
62
5
39
2
10
110.252944
20
339.971806
11
111.053211
21
340.441351
0
LINE
8
boundary
62
5
39
2
10
111.053211
20
340.441351
11
111.834788
21
340.929721
0
LINE
8
boundary
62
5
39
2
10
111.834788
20
340.929721
11
112.596847
21
341.437043
0
LINE
8
boundary
62
5
39
2
10
112.596847
20
341.437043
11
113.338911
21
341.963332
0
LINE
8
boundary
62
5
39
2
10
113.338911
20
341.963332
11
114.060226
21
342.508380
0
LINE
8
boundary
62
5
39
2
10
114.060226
20
342.508380
11
114.760304
21
343.072436
0
LINE
8
boundary
62
5
39
2
10
114.760304
20
343.072436
11
115.438423
21
343.655481
0
LINE
8
boundary
62
5
39
2
10
115.438423
20
343.655481
11
116.094009
21
344.257250
0
LINE
8
boundary
62
5
39
2
10
116.094009
20
344.257250
11
116.594084
21
344.668238
0
LINE
8
boundary
62
5
39
2
10
116.594084
20
344.668238
11
117.134143
21
345.055709
0
LINE
8
boundary
62
5
39
2
10
117.134143
20
345.055709
11
117.691165
21
345.504951
0
LINE
8
boundary
62
5
39
2
10
117.691165
20
345.504951
11
118.142654
21
345.909580
0
LINE
8
boundary
62
5
39
2
10
118.142654
20
345.909580
11
118.603028
21
346.379694
0
LINE
8
boundary
62
5
39
2
10
118.603028
20
346.379694
11
118.969067
21
346.800831
0
LINE
8
boundary
62
5
39
2
10
118.969067
20
346.800831
11
119.335565
21
347.291119
0
LINE
8
boundary
62
5
39
2
10
119.335565
20
347.291119
11
119.619202
21
347.728052
0
LINE
8
boundary
62
5
39
2
10
119.619202
20
347.728052
11
119.894616
21
348.237664
0
LINE
8
boundary
62
5
39
2
10
119.894616
20
348.237664
11
120.174103
21
348.887473
0
LINE
8
boundary
62
5
39
2
10
120.174103
20
348.887473
11
120.381144
21
349.551880
0
LINE
8
boundary
62
5
39
2
10
120.381144
20
349.551880
11
120.517463
21
350.230352
0
LINE
8
boundary
62
5
39
2
10
120.517463
20
350.230352
11
120.585126
21
350.922419
0
LINE
8
boundary
62
5
39
2
10
120.585126
20
350.922419
11
120.585860
21
351.627808
0
LINE
8
boundary
62
5
39
2
10
120.585860
20
351.627808
11
120.521725
21
352.345980
0
LINE
8
boundary
62
5
39
2
10
120.521725
20
352.345980
11
120.441728
21
352.851135
0
LINE
8
boundary
62
5
39
2
10
120.441728
20
352.851135
11
120.307844
21
353.446246
0
LINE
8
boundary
62
5
39
2
10
120.307844
20
353.446246
11
120.164879
21
353.962905
0
LINE
8
boundary
62
5
39
2
10
120.164879
20
353.962905
11
119.958619
21
354.572714
0
LINE
8
boundary
62
5
39
2
10
119.958619
20
354.572714
11
119.755675
21
355.100062
0
LINE
8
boundary
62
5
39
2
10
119.755675
20
355.100062
11
119.480619
21
355.724079
0
LINE
8
boundary
62
5
39
2
10
119.480619
20
355.724079
11
119.221068
21
356.261503
0
LINE
8
boundary
62
5
39
2
10
119.221068
20
356.261503
11
118.880370
21
356.898790
0
LINE
8
boundary
62
5
39
2
10
118.880370
20
356.898790
11
118.567308
21
357.445484
0
LINE
8
boundary
62
5
39
2
10
118.567308
20
357.445484
11
118.255604
21
357.944912
0
LINE
8
boundary
62
5
39
2
10
118.255604
20
357.944912
11
117.726027
21
358.752929
0
LINE
8
boundary
62
5
39
2
10
117.726027
20
358.752929
11
117.149407
21
359.569722
0
LINE
8
boundary
62
5
39
2
10
117.149407
20
359.569722
11
116.527807
21
360.394772
0
LINE
8
boundary
62
5
39
2
10
116.527807
20
360.394772
11
115.863119
21
361.227631
0
LINE
8
boundary
62
5
39
2
10
115.863119
20
361.227631
11
115.157277
21
362.067831
0
LINE
8
boundary
62
5
39
2
10
115.157277
20
362.067831
11
114.412299
21
362.914901
0
LINE
8
boundary
62
5
39
2
10
114.412299
20
362.914901
11
113.630089
21
363.768541
0
LINE
8
boundary
62
5
39
2
10
113.630089
20
363.768541
11
112.812417
21
364.628049
0
LINE
8
boundary
62
5
39
2
10
112.812417
20
364.628049
11
111.961465
21
365.493231
0
LINE
8
boundary
62
5
39
2
10
111.961465
20
365.493231
11
111.078929
21
366.363505
0
LINE
8
boundary
62
5
39
2
10
111.078929
20
366.363505
11
110.166721
21
367.238470
0
LINE
8
boundary
62
5
39
2
10
110.166721
20
367.238470
11
109.226779
21
368.117555
0
LINE
8
boundary
62
5
39
2
10
109.226779
20
368.117555
11
108.260973
21
369.000431
0
LINE
8
boundary
62
5
39
2
10
108.260973
20
369.000431
11
107.271150
21
369.886635
0
LINE
8
boundary
62
5
39
2
10
107.271150
20
369.886635
11
106.259042
21
370.775653
0
LINE
8
boundary
62
5
39
2
10
106.259042
20
370.775653
11
105.226596
21
371.667027
0
LINE
8
boundary
62
5
39
2
10
105.226596
20
371.667027
11
104.175587
21
372.560301
0
LINE
8
boundary
62
5
39
2
10
104.175587
20
372.560301
11
103.107821
21
373.455052
0
LINE
8
boundary
62
5
39
2
10
103.107821
20
373.455052
11
102.025021
21
374.350684
0
LINE
8
boundary
62
5
39
2
10
102.025021
20
374.350684
11
100.928863
21
375.246867
0
LINE
8
boundary
62
5
39
2
10
100.928863
20
375.246867
11
99.821233
21
376.143070
0
LINE
8
boundary
62
5
39
2
10
99.821233
20
376.143070
11
98.703824
21
377.038845
0
LINE
8
boundary
62
5
39
2
10
98.703824
20
377.038845
11
96.810224
21
378.537026
0
LINE
8
boundary
62
5
39
2
10
96.810224
20
378.537026
11
96.077772
21
379.119056
0
LINE
8
boundary
62
5
39
2
10
96.077772
20
379.119056
11
94.530905
21
380.323885
0
LINE
8
boundary
62
5
39
2
10
94.530905
20
380.323885
11
93.804984
21
380.893847
0
LINE
8
boundary
62
5
39
2
10
93.804984
20
380.893847
11
92.243228
21
382.100144
0
LINE
8
boundary
62
5
39
2
10
92.243228
20
382.100144
11
91.528621
21
382.656505
0
LINE
8
boundary
62
5
39
2
10
91.528621
20
382.656505
11
89.960143
21
383.861937
0
LINE
8
boundary
62
5
39
2
10
89.960143
20
383.861937
11
89.261285
21
384.403334
0
LINE
8
boundary
62
5
39
2
10
89.261285
20
384.403334
11
87.694251
21
385.605529
0
LINE
8
boundary
62
5
39
2
10
87.694251
20
385.605529
11
87.015179
21
386.130626
0
LINE
8
boundary
62
5
39
2
10
87.015179
20
386.130626
11
83.894832
21
388.532913
0
LINE
8
boundary
62
5
39
2
10
83.894832
20
388.532913
11
82.635002
21
389.510378
0
LINE
8
boundary
62
5
39
2
10
82.635002
20
389.510378
11
79.622059
21
391.865682
0
LINE
8
boundary
62
5
39
2
10
79.622059
20
391.865682
11
78.481183
21
392.764469
0
LINE
8
boundary
62
5
39
2
10
78.481183
20
392.764469
11
77.047198
21
393.908316
0
LINE
8
boundary
62
5
39
2
10
77.047198
20
393.908316
11
76.516967
21
394.334592
0
LINE
8
boundary
62
5
39
2
10
76.516967
20
394.334592
11
75.135563
21
395.457463
0
LINE
8
boundary
62
5
39
2
10
75.135563
20
395.457463
11
74.642605
21
395.861383
0
LINE
8
boundary
62
5
39
2
10
74.642605
20
395.861383
11
73.806782
21
396.542209
0
LINE
8
boundary
62
5
39
2
10
73.806782
20
396.542209
11
72.680729
21
397.448843
0
LINE
8
boundary
62
5
39
2
10
72.680729
20
397.448843
11
71.564668
21
398.330897
0
LINE
8
boundary
62
5
39
2
10
71.564668
20
398.330897
11
70.458308
21
399.188507
0
LINE
8
boundary
62
5
39
2
10
70.458308
20
399.188507
11
69.361407
21
400.022313
0
LINE
8
boundary
62
5
39
2
10
69.361407
20
400.022313
11
68.273738
21
400.832311
0
LINE
8
boundary
62
5
39
2
10
68.273738
20
400.832311
11
67.195348
21
401.619072
0
LINE
8
boundary
62
5
39
2
10
67.195348
20
401.619072
11
66.125853
21
402.382908
0
LINE
8
boundary
62
5
39
2
10
66.125853
20
402.382908
11
65.065113
21
403.124135
0
LINE
8
boundary
62
5
39
2
10
65.065113
20
403.124135
11
64.012949
21
403.843217
0
LINE
8
boundary
62
5
39
2
10
64.012949
20
403.843217
11
62.969145
21
404.540316
0
LINE
8
boundary
62
5
39
2
10
62.969145
20
404.540316
11
61.933626
21
405.215994
0
LINE
8
boundary
62
5
39
2
10
61.933626
20
405.215994
11
60.906118
21
405.870595
0
LINE
8
boundary
62
5
39
2
10
60.906118
20
405.870595
11
59.886493
21
406.504264
0
LINE
8
boundary
62
5
39
2
10
59.886493
20
406.504264
11
58.874493
21
407.117579
0
LINE
8
boundary
62
5
39
2
10
58.874493
20
407.117579
11
57.869991
21
407.710775
0
LINE
8
boundary
62
5
39
2
10
57.869991
20
407.710775
11
56.872869
21
408.284450
0
LINE
8
boundary
62
5
39
2
10
56.872869
20
408.284450
11
55.882860
21
408.838773
0
LINE
8
boundary
62
5
39
2
10
55.882860
20
408.838773
11
54.899818
21
409.374082
0
LINE
8
boundary
62
5
39
2
10
54.899818
20
409.374082
11
53.923601
21
409.890971
0
LINE
8
boundary
62
5
39
2
10
53.923601
20
409.890971
11
52.954121
21
410.389586
0
LINE
8
boundary
62
5
39
2
10
52.954121
20
410.389586
11
51.990981
21
410.870312
0
LINE
8
boundary
62
5
39
2
10
51.990981
20
410.870312
11
51.034241
21
411.333827
0
LINE
8
boundary
62
5
39
2
10
51.034241
20
411.333827
11
50.083645
21
411.780105
0
LINE
8
boundary
62
5
39
2
10
50.083645
20
411.780105
11
49.139122
21
412.209925
0
LINE
8
boundary
62
5
39
2
10
49.139122
20
412.209925
11
48.200310
21
412.623322
0
LINE
8
boundary
62
5
39
2
10
48.200310
20
412.623322
11
47.267360
21
413.020955
0
LINE
8
boundary
62
5
39
2
10
47.267360
20
413.020955
11
46.339868
21
413.402981
0
LINE
8
boundary
62
5
39
2
10
46.339868
20
413.402981
11
45.417833
21
413.769908
0
LINE
8
boundary
62
5
39
2
10
45.417833
20
413.769908
11
44.501053
21
414.122149
0
LINE
8
boundary
62
5
39
2
10
44.501053
20
414.122149
11
43.589396
21
414.460000
0
LINE
8
boundary
62
5
39
2
10
43.589396
20
414.460000
11
42.682858
21
414.783949
0
LINE
8
boundary
62
5
39
2
10
42.682858
20
414.783949
11
41.781102
21
415.094356
0
LINE
8
boundary
62
5
39
2
10
41.781102
20
415.094356
11
40.884047
21
415.391490
0
LINE
8
boundary
62
5
39
2
10
40.884047
20
415.391490
11
39.991638
21
415.676062
0
LINE
8
boundary
62
5
39
2
10
39.991638
20
415.676062
11
39.103745
21
415.948092
0
LINE
8
boundary
62
5
39
2
10
39.103745
20
415.948092
11
38.220204
21
416.208210
0
LINE
8
boundary
62
5
39
2
10
38.220204
20
416.208210
11
37.340913
21
416.456710
0
LINE
8
boundary
62
5
39
2
10
37.340913
20
416.456710
11
36.465819
21
416.693858
0
LINE
8
boundary
62
5
39
2
10
36.465819
20
416.693858
11
35.594775
21
416.920537
0
LINE
8
boundary
62
5
39
2
10
35.594775
20
416.920537
11
34.727587
21
417.136598
0
LINE
8
boundary
62
5
39
2
10
34.727587
20
417.136598
11
33.864312
21
417.342744
0
LINE
8
boundary
62
5
39
2
10
33.864312
20
417.342744
11
32.243006
21
417.705103
0
LINE
8
boundary
62
5
39
2
10
32.243006
20
417.705103
11
30.536773
21
418.056503
0
LINE
8
boundary
62
5
39
2
10
30.536773
20
418.056503
11
28.844269
21
418.375485
0
LINE
8
boundary
62
5
39
2
10
28.844269
20
418.375485
11
27.164822
21
418.665446
0
LINE
8
boundary
62
5
39
2
10
27.164822
20
418.665446
11
25.497670
21
418.929371
0
LINE
8
boundary
62
5
39
2
10
25.497670
20
418.929371
11
23.842228
21
419.170614
0
LINE
8
boundary
62
5
39
2
10
23.842228
20
419.170614
11
22.198184
21
419.392499
0
LINE
8
boundary
62
5
39
2
10
22.198184
20
419.392499
11
20.564958
21
419.598061
0
LINE
8
boundary
62
5
39
2
10
20.564958
20
419.598061
11
18.942083
21
419.790769
0
LINE
8
boundary
62
5
39
2
10
18.942083
20
419.790769
11
15.817802
21
420.139858
0
LINE
8
boundary
62
5
39
2
10
15.817802
20
420.139858
11
15.474045
21
413.803032
0
LINE
8
boundary
62
5
39
2
10
15.474045
20
413.803032
11
15.441698
21
412.667067
0
LINE
8
boundary
62
5
39
2
10
15.441698
20
412.667067
11
19.018339
21
412.287488
0
LINE
8
boundary
62
5
39
2
10
19.018339
20
412.287488
11
19.860854
21
412.198031
0
LINE
8
boundary
62
5
39
2
10
19.860854
20
412.198031
11
20.900770
21
411.900725
0
LINE
8
boundary
62
5
39
2
10
20.900770
20
411.900725
11
22.154529
21
411.531413
0
LINE
8
boundary
62
5
39
2
10
22.154529
20
411.531413
11
23.002918
21
411.273318
0
LINE
8
boundary
62
5
39
2
10
23.002918
20
411.273318
11
40.436410
21
411.273318
0
LINE
8
boundary
62
5
39
2
10
40.436410
20
411.273318
11
40.436410
21
408.527318
0
LINE
8
boundary
62
5
39
2
10
40.436410
20
408.527318
11
31.389758
21
408.527319
0
LINE
8
boundary
62
5
39
2
10
31.389758
20
408.527319
11
31.875079
21
408.185864
0
LINE
8
boundary
62
5
39
2
10
31.875079
20
408.185864
11
32.749289
21
407.838107
0
LINE
8
boundary
62
5
39
2
10
32.749289
20
407.838107
11
33.850729
21
407.389297
0
LINE
8
boundary
62
5
39
2
10
33.850729
20
407.389297
11
34.937111
21
406.933228
0
LINE
8
boundary
62
5
39
2
10
34.937111
20
406.933228
11
36.008552
21
406.470362
0
LINE
8
boundary
62
5
39
2
10
36.008552
20
406.470362
11
37.065019
21
406.000683
0
LINE
8
boundary
62
5
39
2
10
37.065019
20
406.000683
11
38.106593
21
405.524139
0
LINE
8
boundary
62
5
39
2
10
38.106593
20
405.524139
11
39.133236
21
405.041178
0
LINE
8
boundary
62
5
39
2
10
39.133236
20
405.041178
11
40.144948
21
404.551746
0
LINE
8
boundary
62
5
39
2
10
40.144948
20
404.551746
11
41.141764
21
404.056006
0
LINE
8
boundary
62
5
39
2
10
41.141764
20
404.056006
11
42.123761
21
403.554164
0
LINE
8
boundary
62
5
39
2
10
42.123761
20
403.554164
11
43.090865
21
403.046434
0
LINE
8
boundary
62
5
39
2
10
43.090865
20
403.046434
11
44.042992
21
402.532641
0
LINE
8
boundary
62
5
39
2
10
44.042992
20
402.532641
11
44.980364
21
402.013412
0
LINE
8
boundary
62
5
39
2
10
44.980364
20
402.013412
11
45.902804
21
401.488575
0
LINE
8
boundary
62
5
39
2
10
45.902804
20
401.488575
11
46.810379
21
400.958294
0
LINE
8
boundary
62
5
39
2
10
46.810379
20
400.958294
11
47.703165
21
400.422863
0
LINE
8
boundary
62
5
39
2
10
47.703165
20
400.422863
11
48.580945
21
399.882218
0
LINE
8
boundary
62
5
39
2
10
48.580945
20
399.882218
11
49.443936
21
399.336633
0
LINE
8
boundary
62
5
39
2
10
49.443936
20
399.336633
11
50.292041
21
398.786294
0
LINE
8
boundary
62
5
39
2
10
50.292041
20
398.786294
11
51.125176
21
398.231137
0
LINE
8
boundary
62
5
39
2
10
51.125176
20
398.231137
11
51.943277
21
397.671532
0
LINE
8
boundary
62
5
39
2
10
51.943277
20
397.671532
11
52.746455
21
397.107447
0
LINE
8
boundary
62
5
39
2
10
52.746455
20
397.107447
11
53.534688
21
396.539107
0
LINE
8
boundary
62
5
39
2
10
53.534688
20
396.539107
11
54.307895
21
395.966724
0
LINE
8
boundary
62
5
39
2
10
54.307895
20
395.966724
11
55.066082
21
395.390318
0
LINE
8
boundary
62
5
39
2
10
55.066082
20
395.390318
11
55.809213
21
394.810142
0
LINE
8
boundary
62
5
39
2
10
55.809213
20
394.810142
11
56.537303
21
394.226244
0
LINE
8
boundary
62
5
39
2
10
56.537303
20
394.226244
11
57.250183
21
393.638832
0
LINE
8
boundary
62
5
39
2
10
57.250183
20
393.638832
11
57.947955
21
393.047944
0
LINE
8
boundary
62
5
39
2
10
57.947955
20
393.047944
11
58.630513
21
392.453773
0
LINE
8
boundary
62
5
39
2
10
58.630513
20
392.453773
11
59.297834
21
391.856480
0
LINE
8
boundary
62
5
39
2
10
59.297834
20
391.856480
11
59.949995
21
391.256201
0
LINE
8
boundary
62
5
39
2
10
59.949995
20
391.256201
11
60.586830
21
390.653076
0
LINE
8
boundary
62
5
39
2
10
60.586830
20
390.653076
11
61.208370
21
390.047209
0
LINE
8
boundary
62
5
39
2
10
61.208370
20
390.047209
11
61.814518
21
389.438669
0
LINE
8
boundary
62
5
39
2
10
61.814518
20
389.438669
11
62.405251
21
388.827756
0
LINE
8
boundary
62
5
39
2
10
62.405251
20
388.827756
11
62.980515
21
388.214531
0
LINE
8
boundary
62
5
39
2
10
62.980515
20
388.214531
11
63.540350
21
387.599196
0
LINE
8
boundary
62
5
39
2
10
63.540350
20
387.599196
11
64.084625
21
386.981726
0
LINE
8
boundary
62
5
39
2
10
64.084625
20
386.981726
11
64.613366
21
386.362327
0
LINE
8
boundary
62
5
39
2
10
64.613366
20
386.362327
11
65.126484
21
385.741276
0
LINE
8
boundary
62
5
39
2
10
65.126484
20
385.741276
11
65.623982
21
385.118524
0
LINE
8
boundary
62
5
39
2
10
65.623982
20
385.118524
11
66.105743
21
384.494387
0
LINE
8
boundary
62
5
39
2
10
66.105743
20
384.494387
11
66.571877
21
383.868817
0
LINE
8
boundary
62
5
39
2
10
66.571877
20
383.868817
11
67.022116
21
383.241926
0
LINE
8
boundary
62
5
39
2
10
67.022116
20
383.241926
11
67.456605
21
382.614023
0
LINE
8
boundary
62
5
39
2
10
67.456605
20
382.614023
11
67.875308
21
381.985234
0
LINE
8
boundary
62
5
39
2
10
67.875308
20
381.985234
11
68.278078
21
381.355613
0
LINE
8
boundary
62
5
39
2
10
68.278078
20
381.355613
11
68.664926
21
380.725218
0
LINE
8
boundary
62
5
39
2
10
68.664926
20
380.725218
11
69.035806
21
380.094333
0
LINE
8
boundary
62
5
39
2
10
69.035806
20
380.094333
11
69.390617
21
379.462963
0
LINE
8
boundary
62
5
39
2
10
69.390617
20
379.462963
11
69.729423
21
378.831377
0
LINE
8
boundary
62
5
39
2
10
69.729423
20
378.831377
11
70.052203
21
378.199576
0
LINE
8
boundary
62
5
39
2
10
70.052203
20
378.199576
11
70.358797
21
377.567685
0
LINE
8
boundary
62
5
39
2
10
70.358797
20
377.567685
11
70.509769
21
376.743238
0
LINE
8
boundary
62
5
39
2
10
70.509769
20
376.743238
11
70.588944
21
375.796705
0
LINE
8
boundary
62
5
39
2
10
70.588944
20
375.796705
11
70.690772
21
374.837187
0
LINE
8
boundary
62
5
39
2
10
70.690772
20
374.837187
11
70.809450
21
373.868344
0
LINE
8
boundary
62
5
39
2
10
70.809450
20
373.868344
11
71.021138
21
372.301092
0
LINE
8
boundary
62
5
39
2
10
71.021138
20
372.301092
11
71.127060
21
371.526061
0
LINE
8
boundary
62
5
39
2
10
71.127060
20
371.526061
11
71.279817
21
370.357831
0
LINE
8
boundary
62
5
39
2
10
71.279817
20
370.357831
11
71.382473
21
369.569184
0
LINE
8
boundary
62
5
39
2
10
71.382473
20
369.569184
11
71.445830
21
368.996808
0
LINE
8
boundary
62
5
39
2
10
71.445830
20
368.996808
11
71.539468
21
368.040174
0
LINE
8
boundary
62
5
39
2
10
71.539468
20
368.040174
11
71.607538
21
367.097079
0
LINE
8
boundary
62
5
39
2
10
71.607538
20
367.097079
11
71.643979
21
366.170785
0
LINE
8
boundary
62
5
39
2
10
71.643979
20
366.170785
11
71.642496
21
365.264529
0
LINE
8
boundary
62
5
39
2
10
71.642496
20
365.264529
11
71.619370
21
364.629805
0
LINE
8
boundary
62
5
39
2
10
71.619370
20
364.629805
11
71.569034
21
364.007140
0
LINE
8
boundary
62
5
39
2
10
71.569034
20
364.007140
11
71.478512
21
363.341389
0
LINE
8
boundary
62
5
39
2
10
71.478512
20
363.341389
11
71.368277
21
362.747837
0
LINE
8
boundary
62
5
39
2
10
71.368277
20
362.747837
11
71.206729
21
362.121855
0
LINE
8
boundary
62
5
39
2
10
71.206729
20
362.121855
11
71.025913
21
361.562950
0
LINE
8
boundary
62
5
39
2
10
71.025913
20
361.562950
11
70.782920
21
360.982531
0
LINE
8
boundary
62
5
39
2
10
70.782920
20
360.982531
11
70.520857
21
360.463821
0
LINE
8
boundary
62
5
39
2
10
70.520857
20
360.463821
11
70.185940
21
359.934204
0
LINE
8
boundary
62
5
39
2
10
70.185940
20
359.934204
11
69.831716
21
359.461251
0
LINE
8
boundary
62
5
39
2
10
69.831716
20
359.461251
11
69.394869
21
358.987735
0
LINE
8
boundary
62
5
39
2
10
69.394869
20
358.987735
11
68.937652
21
358.566424
0
LINE
8
boundary
62
5
39
2
10
68.937652
20
358.566424
11
68.389060
21
358.154359
0
LINE
8
boundary
62
5
39
2
10
68.389060
20
358.154359
11
67.817927
21
357.790242
0
LINE
8
boundary
62
5
39
2
10
67.817927
20
357.790242
11
67.148240
21
357.444904
0
LINE
8
boundary
62
5
39
2
10
67.148240
20
357.444904
11
66.678854
21
357.237860
0
LINE
8
boundary
62
5
39
2
10
66.678854
20
357.237860
11
66.180478
21
357.046246
0
LINE
8
boundary
62
5
39
2
10
66.180478
20
357.046246
11
65.652336
21
356.870369
0
LINE
8
boundary
62
5
39
2
10
65.652336
20
356.870369
11
65.093760
21
356.710793
0
LINE
8
boundary
62
5
39
2
10
65.093760
20
356.710793
11
64.503948
21
356.567734
0
LINE
8
boundary
62
5
39
2
10
64.503948
20
356.567734
11
63.882224
21
356.441729
0
LINE
8
boundary
62
5
39
2
10
63.882224
20
356.441729
11
63.227962
21
356.333117
0
LINE
8
boundary
62
5
39
2
10
63.227962
20
356.333117
11
62.540601
21
356.242477
0
LINE
8
boundary
62
5
39
2
10
62.540601
20
356.242477
11
61.819229
21
356.170011
0
LINE
8
boundary
62
5
39
2
10
61.819229
20
356.170011
11
61.063293
21
356.116094
0
LINE
8
boundary
62
5
39
2
10
61.063293
20
356.116094
11
60.272287
21
356.081324
0
LINE
8
boundary
62
5
39
2
10
60.272287
20
356.081324
11
59.445486
21
356.066014
0
LINE
8
boundary
62
5
39
2
10
59.445486
20
356.066014
11
58.582277
21
356.070537
0
LINE
8
boundary
62
5
39
2
10
58.582277
20
356.070537
11
57.682036
21
356.095425
0
LINE
8
boundary
62
5
39
2
10
57.682036
20
356.095425
11
56.744210
21
356.140892
0
LINE
8
boundary
62
5
39
2
10
56.744210
20
356.140892
11
55.768265
21
356.207475
0
LINE
8
boundary
62
5
39
2
10
55.768265
20
356.207475
11
55.258999
21
356.247165
0
LINE
8
boundary
62
5
39
2
10
55.258999
20
356.247165
11
54.386780
21
356.541597
0
LINE
8
boundary
62
5
39
2
10
54.386780
20
356.541597
11
53.474132
21
356.850109
0
LINE
8
boundary
62
5
39
2
10
53.474132
20
356.850109
11
52.634737
21
357.126787
0
LINE
8
boundary
62
5
39
2
10
52.634737
20
357.126787
11
51.739660
21
357.422165
0
LINE
8
boundary
62
5
39
2
10
51.739660
20
357.422165
11
50.928377
21
357.681437
0
LINE
8
boundary
62
5
39
2
10
50.928377
20
357.681437
11
50.046112
21
357.963691
0
LINE
8
boundary
62
5
39
2
10
50.046112
20
357.963691
11
49.258352
21
358.206119
0
LINE
8
boundary
62
5
39
2
10
49.258352
20
358.206119
11
48.384259
21
358.475468
0
LINE
8
boundary
62
5
39
2
10
48.384259
20
358.475468
11
47.615844
21
358.701381
0
LINE
8
boundary
62
5
39
2
10
47.615844
20
358.701381
11
46.744994
21
358.957721
0
LINE
8
boundary
62
5
39
2
10
46.744994
20
358.957721
11
45.991906
21
359.167598
0
LINE
8
boundary
62
5
39
2
10
45.991906
20
359.167598
11
45.119066
21
359.411080
0
LINE
8
boundary
62
5
39
2
10
45.119066
20
359.411080
11
44.377640
21
359.605303
0
LINE
8
boundary
62
5
39
2
10
44.377640
20
359.605303
11
43.497636
21
359.836120
0
LINE
8
boundary
62
5
39
2
10
43.497636
20
359.836120
11
42.764355
21
360.015161
0
LINE
8
boundary
62
5
39
2
10
42.764355
20
360.015161
11
41.871542
21
360.233265
0
LINE
8
boundary
62
5
39
2
10
41.871542
20
360.233265
11
41.143313
21
360.397409
0
LINE
8
boundary
62
5
39
2
10
41.143313
20
360.397409
11
40.231861
21
360.603146
0
LINE
8
boundary
62
5
39
2
10
40.231861
20
360.603146
11
39.505989
21
360.752883
0
LINE
8
boundary
62
5
39
2
10
39.505989
20
360.752883
11
38.569647
21
360.946183
0
LINE
8
boundary
62
5
39
2
10
38.569647
20
360.946183
11
37.843913
21
361.081826
0
LINE
8
boundary
62
5
39
2
10
37.843913
20
361.081826
11
36.876178
21
361.262835
0
LINE
8
boundary
62
5
39
2
10
36.876178
20
361.262835
11
36.148797
21
361.384849
0
LINE
8
boundary
62
5
39
2
10
36.148797
20
361.384849
11
35.142606
21
361.553863
0
LINE
8
boundary
62
5
39
2
10
35.142606
20
361.553863
11
34.412462
21
361.662624
0
LINE
8
boundary
62
5
39
2
10
34.412462
20
361.662624
11
33.360074
21
361.819489
0
LINE
8
boundary
62
5
39
2
10
33.360074
20
361.819489
11
32.626767
21
361.915445
0
LINE
8
boundary
62
5
39
2
10
32.626767
20
361.915445
11
31.519862
21
362.060440
0
LINE
8
boundary
62
5
39
2
10
31.519862
20
362.060440
11
30.783976
21
362.144034
0
LINE
8
boundary
62
5
39
2
10
30.783976
20
362.144034
11
29.613207
21
362.277129
0
LINE
8
boundary
62
5
39
2
10
29.613207
20
362.277129
11
28.876423
21
362.348799
0
LINE
8
boundary
62
5
39
2
10
28.876423
20
362.348799
11
27.631373
21
362.469980
0
LINE
8
boundary
62
5
39
2
10
27.631373
20
362.469980
11
27.280269
21
356.641273
0
LINE
8
boundary
62
5
39
2
10
27.280269
20
356.641273
11
26.521675
21
343.599339
0
LINE
8
boundary
62
5
39
2
10
26.521675
20
343.599339
11
28.070652
21
337.707773
0
LINE
8
boundary
62
5
39
2
10
28.070652
20
337.707773
11
30.604500
21
328.211858
0
LINE
8
boundary
62
5
39
2
10
30.604500
20
328.211858
11
40.725509
21
328.061859
0
LINE
8
boundary
62
5
39
2
10
40.725509
20
328.061859
11
40.725510
21
325.315859
0
LINE
8
boundary
62
5
39
2
10
40.725510
20
325.315859
11
31.427581
21
325.315859
0
LINE
8
boundary
62
5
39
2
10
31.427581
20
325.315859
11
36.157866
21
307.399918
0
LINE
8
boundary
62
5
39
2
10
36.157866
20
307.399918
11
36.818764
21
305.275067
0
LINE
8
boundary
62
5
39
2
10
36.818764
20
305.275067
11
37.440808
21
303.143343
0
LINE
8
boundary
62
5
39
2
10
37.440808
20
303.143343
11
38.024299
21
301.004982
0
LINE
8
boundary
62
5
39
2
10
38.024299
20
301.004982
11
38.569154
21
298.860158
0
LINE
8
boundary
62
5
39
2
10
38.569154
20
298.860158
11
39.075842
21
296.708870
0
LINE
8
boundary
62
5
39
2
10
39.075842
20
296.708870
11
39.544610
21
294.551391
0
LINE
8
boundary
62
5
39
2
10
39.544610
20
294.551391
11
39.975539
21
292.387744
0
LINE
8
boundary
62
5
39
2
10
39.975539
20
292.387744
11
40.368977
21
290.218182
0
LINE
8
boundary
62
5
39
2
10
40.368977
20
290.218182
11
40.725113
21
288.042540
0
LINE
8
boundary
62
5
39
2
10
40.725113
20
288.042540
11
41.044347
21
285.861208
0
LINE
8
boundary
62
5
39
2
10
41.044347
20
285.861208
11
41.326971
21
283.674150
0
LINE
8
boundary
62
5
39
2
10
41.326971
20
283.674150
11
41.573236
21
281.481521
0
LINE
8
boundary
62
5
39
2
10
41.573236
20
281.481521
11
41.783515
21
279.283379
0
LINE
8
boundary
62
5
39
2
10
41.783515
20
279.283379
11
41.958077
21
277.079895
0
LINE
8
boundary
62
5
39
2
10
41.958077
20
277.079895
11
42.097367
21
274.871054
0
LINE
8
boundary
62
5
39
2
10
42.097367
20
274.871054
11
42.201574
21
272.657201
0
LINE
8
boundary
62
5
39
2
10
42.201574
20
272.657201
11
42.271292
21
270.438170
0
LINE
8
boundary
62
5
39
2
10
42.271292
20
270.438170
11
42.306718
21
268.214192
0
LINE
8
boundary
62
5
39
2
10
42.306718
20
268.214192
11
42.308280
21
265.985246
0
LINE
8
boundary
62
5
39
2
10
42.308280
20
265.985246
11
42.276468
21
263.751546
0
LINE
8
boundary
62
5
39
2
10
42.276468
20
263.751546
11
42.211553
21
261.513183
0
LINE
8
boundary
62
5
39
2
10
42.211553
20
261.513183
11
42.114113
21
259.270180
0
LINE
8
boundary
62
5
39
2
10
42.114113
20
259.270180
11
41.984342
21
257.022583
0
LINE
8
boundary
62
5
39
2
10
41.984342
20
257.022583
11
41.823000
21
254.770613
0
LINE
8
boundary
62
5
39
2
10
41.823000
20
254.770613
11
41.630281
21
252.514422
0
LINE
8
boundary
62
5
39
2
10
41.630281
20
252.514422
11
41.406829
21
250.253857
0
LINE
8
boundary
62
5
39
2
10
41.406829
20
250.253857
11
41.152920
21
247.989335
0
LINE
8
boundary
62
5
39
2
10
41.152920
20
247.989335
11
40.869310
21
245.720682
0
LINE
8
boundary
62
5
39
2
10
40.869310
20
245.720682
11
40.556219
21
243.448163
0
LINE
8
boundary
62
5
39
2
10
40.556219
20
243.448163
11
40.214272
21
241.171792
0
LINE
8
boundary
62
5
39
2
10
40.214272
20
241.171792
11
39.843897
21
238.891751
0
LINE
8
boundary
62
5
39
2
10
39.843897
20
238.891751
11
39.445804
21
236.608120
0
LINE
8
boundary
62
5
39
2
10
39.445804
20
236.608120
11
39.020243
21
234.321006
0
LINE
8
boundary
62
5
39
2
10
39.020243
20
234.321006
11
38.568002
21
232.030612
0
LINE
8
boundary
62
5
39
2
10
38.568002
20
232.030612
11
38.089364
21
229.736944
0
LINE
8
boundary
62
5
39
2
10
38.089364
20
229.736944
11
37.584976
21
227.440295
0
LINE
8
boundary
62
5
39
2
10
37.584976
20
227.440295
11
37.055445
21
225.140642
0
LINE
8
boundary
62
5
39
2
10
37.055445
20
225.140642
11
36.501393
21
222.838259
0
LINE
8
boundary
62
5
39
2
10
36.501393
20
222.838259
11
35.923300
21
220.533322
0
LINE
8
boundary
62
5
39
2
10
35.923300
20
220.533322
11
35.321599
21
218.225927
0
LINE
8
boundary
62
5
39
2
10
35.321599
20
218.225927
11
34.697058
21
215.916209
0
LINE
8
boundary
62
5
39
2
10
34.697058
20
215.916209
11
34.050229
21
213.604489
0
LINE
8
boundary
62
5
39
2
10
34.050229
20
213.604489
11
33.381688
21
211.290824
0
LINE
8
boundary
62
5
39
2
10
33.381688
20
211.290824
11
32.692044
21
208.975526
0
LINE
8
boundary
62
5
39
2
10
32.692044
20
208.975526
11
31.981878
21
206.658766
0
LINE
8
boundary
62
5
39
2
10
31.981878
20
206.658766
11
31.251823
21
204.340769
0
LINE
8
boundary
62
5
39
2
10
31.251823
20
204.340769
11
30.502366
21
202.021718
0
LINE
8
boundary
62
5
39
2
10
30.502366
20
202.021718
11
29.734327
21
199.702007
0
LINE
8
boundary
62
5
39
2
10
29.734327
20
199.702007
11
29.280969
21
198.363636
0
LINE
8
boundary
62
5
39
2
10
29.280969
20
198.363636
11
28.940495
21
197.391233
0
LINE
8
boundary
62
5
39
2
10
28.940495
20
197.391233
11
28.118657
21
195.093945
0
LINE
8
boundary
62
5
39
2
10
28.118657
20
195.093945
11
27.280464
21
192.797578
0
LINE
8
boundary
62
5
39
2
10
27.280464
20
192.797578
11
26.426706
21
190.502676
0
LINE
8
boundary
62
5
39
2
10
26.426706
20
190.502676
11
25.557923
21
188.209527
0
LINE
8
boundary
62
5
39
2
10
25.557923
20
188.209527
11
24.674878
21
185.918485
0
LINE
8
boundary
62
5
39
2
10
24.674878
20
185.918485
11
23.778431
21
183.629940
0
LINE
8
boundary
62
5
39
2
10
23.778431
20
183.629940
11
22.869208
21
181.344320
0
LINE
8
boundary
62
5
39
2
10
22.869208
20
181.344320
11
21.948005
21
179.062004
0
LINE
8
boundary
62
5
39
2
10
21.948005
20
179.062004
11
21.015418
21
176.783546
0
LINE
8
boundary
62
5
39
2
10
21.015418
20
176.783546
11
19.252215
21
172.557893
0
LINE
8
boundary
62
5
39
2
10
19.252215
20
172.557893
11
18.975460
21
171.899483
0
LINE
8
boundary
62
5
39
2
10
18.975460
20
171.899483
11
17.353841
21
168.106416
0
LINE
8
boundary
62
5
39
2
10
17.353841
20
168.106416
11
17.006159
21
167.298923
0
LINE
8
boundary
62
5
39
2
10
17.006159
20
167.298923
11
15.429157
21
163.686038
0
LINE
8
boundary
62
5
39
2
10
15.429157
20
163.686038
11
15.002987
21
162.717084
0
LINE
8
boundary
62
5
39
2
10
15.002987
20
162.717084
11
14.115351
21
159.092318
0
LINE
8
boundary
62
5
39
2
10
14.115351
20
159.092318
11
13.838366
21
157.972515
0
LINE
8
boundary
62
5
39
2
10
13.838366
20
157.972515
11
12.966526
21
154.292968
0
LINE
8
boundary
62
5
39
2
10
12.966526
20
154.292968
11
12.669438
21
153.053167
0
LINE
8
boundary
62
5
39
2
10
12.669438
20
153.053167
11
12.246462
21
151.199795
0
LINE
8
boundary
62
5
39
2
10
12.246462
20
151.199795
11
12.092026
21
150.531245
0
LINE
8
boundary
62
5
39
2
10
12.092026
20
150.531245
11
11.680357
21
148.667685
0
LINE
8
boundary
62
5
39
2
10
11.680357
20
148.667685
11
11.524174
21
147.969542
0
LINE
8
boundary
62
5
39
2
10
11.524174
20
147.969542
11
11.125968
21
146.096023
0
LINE
8
boundary
62
5
39
2
10
11.125968
20
146.096023
11
10.969451
21
145.369490
0
LINE
8
boundary
62
5
39
2
10
10.969451
20
145.369490
11
10.586729
21
143.485713
0
LINE
8
boundary
62
5
39
2
10
10.586729
20
143.485713
11
10.431511
21
142.732577
0
LINE
8
boundary
62
5
39
2
10
10.431511
20
142.732577
11
10.066243
21
140.837709
0
LINE
8
boundary
62
5
39
2
10
10.066243
20
140.837709
11
9.914057
21
140.060235
0
LINE
8
boundary
62
5
39
2
10
9.914057
20
140.060235
11
9.568068
21
138.152866
0
LINE
8
boundary
62
5
39
2
10
9.568068
20
138.152866
11
9.420737
21
137.353988
0
LINE
8
boundary
62
5
39
2
10
9.420737
20
137.353988
11
9.095859
21
135.432214
0
LINE
8
boundary
62
5
39
2
10
9.095859
20
135.432214
11
8.955306
21
134.615564
0
LINE
8
boundary
62
5
39
2
10
8.955306
20
134.615564
11
8.653540
21
132.676677
0
LINE
8
boundary
62
5
39
2
10
8.653540
20
132.676677
11
8.521787
21
131.846506
0
LINE
8
boundary
62
5
39
2
10
8.521787
20
131.846506
11
8.244937
21
129.887144
0
LINE
8
boundary
62
5
39
2
10
8.244937
20
129.887144
11
8.123830
21
129.048514
0
LINE
8
boundary
62
5
39
2
10
8.123830
20
129.048514
11
7.873866
21
127.064639
0
LINE
8
boundary
62
5
39
2
10
7.873866
20
127.064639
11
7.765237
21
126.223353
0
LINE
8
boundary
62
5
39
2
10
7.765237
20
126.223353
11
7.544658
21
124.210211
0
LINE
8
boundary
62
5
39
2
10
7.544658
20
124.210211
11
7.450288
21
123.372907
0
LINE
8
boundary
62
5
39
2
10
7.450288
20
123.372907
11
7.261418
21
121.325012
0
LINE
8
boundary
62
5
39
2
10
7.261418
20
121.325012
11
7.182638
21
120.499058
0
LINE
8
boundary
62
5
39
2
10
7.182638
20
120.499058
11
7.028528
21
118.410230
0
LINE
8
boundary
62
5
39
2
10
7.028528
20
118.410230
11
6.966488
21
117.603746
0
LINE
8
boundary
62
5
39
2
10
6.966488
20
117.603746
11
6.850501
21
115.467143
0
LINE
8
boundary
62
5
39
2
10
6.850501
20
115.467143
11
6.805800
21
114.688964
0
LINE
8
boundary
62
5
39
2
10
6.805800
20
114.688964
11
6.732033
21
112.497240
0
LINE
8
boundary
62
5
39
2
10
6.732033
20
112.497240
11
6.704773
21
111.756827
0
LINE
8
boundary
62
5
39
2
10
6.704773
20
111.756827
11
6.685337
21
110.642254
0
LINE
8
boundary
62
5
39
2
10
6.685337
20
110.642254
11
6.670779
21
109.153918
0
LINE
8
boundary
62
5
39
2
10
6.670779
20
109.153918
11
6.673516
21
107.661090
0
LINE
8
boundary
62
5
39
2
10
6.673516
20
107.661090
11
6.693970
21
106.164070
0
LINE
8
boundary
62
5
39
2
10
6.693970
20
106.164070
11
6.732771
21
104.663183
0
LINE
8
boundary
62
5
39
2
10
6.732771
20
104.663183
11
6.790561
21
103.158631
0
LINE
8
boundary
62
5
39
2
10
6.790561
20
103.158631
11
6.868024
21
101.650795
0
LINE
8
boundary
62
5
39
2
10
6.868024
20
101.650795
11
6.965583
21
100.139951
0
LINE
8
boundary
62
5
39
2
10
6.965583
20
100.139951
11
7.083872
21
98.626542
0
LINE
8
boundary
62
5
39
2
10
7.083872
20
98.626542
11
7.223498
21
97.110810
0
LINE
8
boundary
62
5
39
2
10
7.223498
20
97.110810
11
7.385204
21
95.593199
0
LINE
8
boundary
62
5
39
2
10
7.385204
20
95.593199
11
7.569493
21
94.074139
0
LINE
8
boundary
62
5
39
2
10
7.569493
20
94.074139
11
7.777148
21
92.553930
0
LINE
8
boundary
62
5
39
2
10
7.777148
20
92.553930
11
8.008514
21
91.033002
0
LINE
8
boundary
62
5
39
2
10
8.008514
20
91.033002
11
8.264469
21
89.511781
0
LINE
8
boundary
62
5
39
2
10
8.264469
20
89.511781
11
8.545434
21
87.990726
0
LINE
8
boundary
62
5
39
2
10
8.545434
20
87.990726
11
8.852322
21
86.470323
0
LINE
8
boundary
62
5
39
2
10
8.852322
20
86.470323
11
9.154508
21
84.973011
0
LINE
8
boundary
62
5
39
2
10
9.154508
20
84.973011
11
9.474141
21
83.482970
0
LINE
8
boundary
62
5
39
2
10
9.474141
20
83.482970
11
9.818898
21
81.995246
0
LINE
8
boundary
62
5
39
2
10
9.818898
20
81.995246
11
10.189316
21
80.510249
0
LINE
8
boundary
62
5
39
2
10
10.189316
20
80.510249
11
10.586049
21
79.028447
0
LINE
8
boundary
62
5
39
2
10
10.586049
20
79.028447
11
11.009428
21
77.550232
0
LINE
8
boundary
62
5
39
2
10
11.009428
20
77.550232
11
11.460219
21
76.075997
0
LINE
8
boundary
62
5
39
2
10
11.460219
20
76.075997
11
11.938788
21
74.606169
0
LINE
8
boundary
62
5
39
2
10
11.938788
20
74.606169
11
12.445893
21
73.141235
0
LINE
8
boundary
62
5
39
2
10
12.445893
20
73.141235
11
12.647112
21
72.330168
0
LINE
8
boundary
62
5
39
2
10
12.647112
20
72.330168
11
13.518672
21
68.790137
0
LINE
8
boundary
62
5
39
2
10
13.518672
20
68.790137
11
13.797479
21
67.682316
0
LINE
8
boundary
62
5
39
2
10
13.797479
20
67.682316
11
14.667892
21
64.194818
0
LINE
8
boundary
62
5
39
2
10
14.667892
20
64.194818
11
14.848889
21
63.503889
0
LINE
8
boundary
62
5
39
2
10
14.848889
20
63.503889
11
15.286125
21
61.820833
0
LINE
8
boundary
62
5
39
2
10
15.286125
20
61.820833
11
15.496120
21
61.050871
0
LINE
8
boundary
62
5
39
2
10
15.496120
20
61.050871
11
15.941437
21
59.404363
0
LINE
8
boundary
62
5
39
2
10
15.941437
20
59.404363
11
16.184649
21
58.554779
0
LINE
8
boundary
62
5
39
2
10
16.184649
20
58.554779
11
16.639799
21
56.951949
0
LINE
8
boundary
62
5
39
2
10
16.639799
20
56.951949
11
16.921045
21
56.022875
0
LINE
8
boundary
62
5
39
2
10
16.921045
20
56.022875
11
17.387441
21
54.470238
0
LINE
8
boundary
62
5
39
2
10
17.387441
20
54.470238
11
17.711960
21
53.462634
0
LINE
8
boundary
62
5
39
2
10
17.711960
20
53.462634
11
18.190437
21
51.966097
0
LINE
8
boundary
62
5
39
2
10
18.190437
20
51.966097
11
18.563930
21
50.881807
0
LINE
8
boundary
62
5
39
2
10
18.563930
20
50.881807
11
19.054954
21
49.446559
0
LINE
8
boundary
62
5
39
2
10
19.054954
20
49.446559
11
19.483513
21
48.288410
0
LINE
8
boundary
62
5
39
2
10
19.483513
20
48.288410
11
19.987065
21
46.918900
0
LINE
8
boundary
62
5
39
2
10
19.987065
20
46.918900
11
20.225353
21
46.310060
0
LINE
8
boundary
62
5
39
2
10
20.225353
20
46.310060
11
20.480479
21
45.654341
0
LINE
8
boundary
62
5
39
2
10
20.480479
20
45.654341
11
20.735040
21
45.028667
0
LINE
8
boundary
62
5
39
2
10
20.735040
20
45.028667
11
20.993215
21
44.390496
0
LINE
8
boundary
62
5
39
2
10
20.993215
20
44.390496
11
21.264891
21
43.748699
0
LINE
8
boundary
62
5
39
2
10
21.264891
20
43.748699
11
21.526016
21
43.128440
0
LINE
8
boundary
62
5
39
2
10
21.526016
20
43.128440
11
21.815572
21
42.471172
0
LINE
8
boundary
62
5
39
2
10
21.815572
20
42.471172
11
22.079425
21
41.869070
0
LINE
8
boundary
62
5
39
2
10
22.079425
20
41.869070
11
22.387865
21
41.197134
0
LINE
8
boundary
62
5
39
2
10
22.387865
20
41.197134
11
22.654533
21
40.613398
0
LINE
8
boundary
62
5
39
2
10
22.654533
20
40.613398
11
22.982768
21
39.927630
0
LINE
8
boundary
62
5
39
2
10
22.982768
20
39.927630
11
23.252029
21
39.362440
0
LINE
8
boundary
62
5
39
2
10
23.252029
20
39.362440
11
23.600966
21
38.663742
0
LINE
8
boundary
62
5
39
2
10
23.600966
20
38.663742
11
23.872717
21
38.117161
0
LINE
8
boundary
62
5
39
2
10
23.872717
20
38.117161
11
24.243220
21
37.406576
0
LINE
8
boundary
62
5
39
2
10
24.243220
20
37.406576
11
24.517304
21
36.878708
0
LINE
8
boundary
62
5
39
2
10
24.517304
20
36.878708
11
24.910298
21
36.157182
0
LINE
8
boundary
62
5
39
2
10
24.910298
20
36.157182
11
25.186545
21
35.647953
0
LINE
8
boundary
62
5
39
2
10
25.186545
20
35.647953
11
25.603013
21
34.916647
0
LINE
8
boundary
62
5
39
2
10
25.603013
20
34.916647
11
25.881336
21
34.426055
0
LINE
8
boundary
62
5
39
2
10
25.881336
20
34.426055
11
26.322138
21
33.686140
0
LINE
8
boundary
62
5
39
2
10
26.322138
20
33.686140
11
26.602394
21
33.214105
0
LINE
8
boundary
62
5
39
2
10
26.602394
20
33.214105
11
27.068493
21
32.466791
0
LINE
8
boundary
62
5
39
2
10
27.068493
20
32.466791
11
27.350481
21
32.013136
0
LINE
8
boundary
62
5
39
2
10
27.350481
20
32.013136
11
27.842818
21
31.259721
0
LINE
8
boundary
62
5
39
2
10
27.842818
20
31.259721
11
28.126459
21
30.824266
0
LINE
8
boundary
62
5
39
2
10
28.126459
20
30.824266
11
28.645801
21
30.066077
0
LINE
8
boundary
62
5
39
2
10
28.645801
20
30.066077
11
29.478313
21
28.887003
0
LINE
8
boundary
62
5
39
2
10
29.478313
20
28.887003
11
30.341088
21
27.723701
0
LINE
8
boundary
62
5
39
2
10
30.341088
20
27.723701
11
31.234857
21
26.577339
0
LINE
8
boundary
62
5
39
2
10
31.234857
20
26.577339
11
32.160472
21
25.449096
0
LINE
8
boundary
62
5
39
2
10
32.160472
20
25.449096
11
33.118379
21
24.340125
0
LINE
8
boundary
62
5
39
2
10
33.118379
20
24.340125
11
34.109685
21
23.251696
0
LINE
8
boundary
62
5
39
2
10
34.109685
20
23.251696
11
35.134892
21
22.184985
0
LINE
8
boundary
62
5
39
2
10
35.134892
20
22.184985
11
36.194747
21
21.141170
0
LINE
8
boundary
62
5
39
2
10
36.194747
20
21.141170
11
37.289959
21
20.121492
0
LINE
8
boundary
62
5
39
2
10
37.289959
20
20.121492
11
38.421373
21
19.127169
0
LINE
8
boundary
62
5
39
2
10
38.421373
20
19.127169
11
39.589571
21
18.159389
0
LINE
8
boundary
62
5
39
2
10
39.589571
20
18.159389
11
40.795206
21
17.219425
0
LINE
8
boundary
62
5
39
2
10
40.795206
20
17.219425
11
42.039124
21
16.308455
0
LINE
8
boundary
62
5
39
2
10
42.039124
20
16.308455
11
43.321834
21
15.427669
0
LINE
8
boundary
62
5
39
2
10
43.321834
20
15.427669
11
44.644134
21
14.578320
0
LINE
8
boundary
62
5
39
2
10
44.644134
20
14.578320
11
46.006578
21
13.761582
0
LINE
8
boundary
62
5
39
2
10
46.006578
20
13.761582
11
47.409800
21
12.978680
0
LINE
8
boundary
62
5
39
2
10
47.409800
20
12.978680
11
48.854571
21
12.230842
0
LINE
8
boundary
62
5
39
2
10
48.854571
20
12.230842
11
50.341517
21
11.519255
0
LINE
8
boundary
62
5
39
2
10
50.341517
20
11.519255
11
51.871191
21
10.845016
0
LINE
8
boundary
62
5
39
2
10
51.871191
20
10.845016
11
53.444238
21
10.209375
0
LINE
8
boundary
62
5
39
2
10
53.444238
20
10.209375
11
55.061217
21
9.613380
0
LINE
8
boundary
62
5
39
2
10
55.061217
20
9.613380
11
56.722702
21
9.058276
0
LINE
8
boundary
62
5
39
2
10
56.722702
20
9.058276
11
58.429310
21
8.545126
0
LINE
8
boundary
62
5
39
2
10
58.429310
20
8.545126
11
60.181659
21
8.075003
0
LINE
8
boundary
62
5
39
2
10
60.181659
20
8.075003
11
61.980119
21
7.649013
0
LINE
8
boundary
62
5
39
2
10
61.980119
20
7.649013
11
63.825483
21
7.268176
0
LINE
8
boundary
62
5
39
2
10
63.825483
20
7.268176
11
65.718158
21
6.933457
0
LINE
8
boundary
62
5
39
2
10
65.718158
20
6.933457
11
66.241806
21
6.815535
0
LINE
8
boundary
62
5
39
2
10
66.241806
20
6.815535
11
66.933826
21
6.689283
0
LINE
8
boundary
62
5
39
2
10
66.933826
20
6.689283
11
67.520405
21
6.667500
0
LINE
8
boundary
62
5
39
2
10
67.520405
20
6.667500
11
68.110378
21
6.700405
0
LINE
8
boundary
62
5
39
2
10
68.110378
20
6.700405
11
68.624186
21
6.767706
0
LINE
8
boundary
62
5
39
2
10
68.624186
20
6.767706
11
69.285285
21
6.886868
0
LINE
8
boundary
62
5
39
2
10
69.285285
20
6.886868
11
69.976004
21
7.051845
0
LINE
8
boundary
62
5
39
2
10
69.976004
20
7.051845
11
70.689220
21
7.261406
0
LINE
8
boundary
62
5
39
2
10
70.689220
20
7.261406
11
71.417725
21
7.514266
0
LINE
8
boundary
62
5
39
2
10
71.417725
20
7.514266
11
72.154369
21
7.809116
0
LINE
8
boundary
62
5
39
2
10
72.154369
20
7.809116
11
72.892050
21
8.144737
0
LINE
8
boundary
62
5
39
2
10
72.892050
20
8.144737
11
73.623735
21
8.519786
0
LINE
8
boundary
62
5
39
2
10
73.623735
20
8.519786
11
74.342206
21
8.932943
0
LINE
8
boundary
62
5
39
2
10
74.342206
20
8.932943
11
75.040369
21
9.382946
0
LINE
8
boundary
62
5
39
2
10
75.040369
20
9.382946
11
75.711294
21
9.868490
0
LINE
8
annotation
62
1
39
211
10
47.385609
20
324.288859
11
47.385609
21
329.088859
0
LINE
8
annotation
62
1
39
211
10
47.385609
20
329.088859
11
46.318507
21
328.021456
0
LINE
8
annotation
62
1
39
211
10
47.131620
20
407.669136
11
45.149809
21
407.669136
0
LINE
8
annotation
62
1
39
211
10
45.149809
20
407.669136
11
46.981067
21
410.617226
0
LINE
8
annotation
62
1
39
211
10
46.981067
20
410.617226
11
46.981067
21
410.617226
0
LINE
8
annotation
62
1
39
211
10
46.981067
20
410.617226
11
46.983256
21
410.619935
0
LINE
8
annotation
62
1
39
211
10
46.983256
20
410.619935
11
46.985356
21
410.622667
0
LINE
8
annotation
62
1
39
211
10
46.985356
20
410.622667
11
46.987379
21
410.625445
0
LINE
8
annotation
62
1
39
211
10
46.987379
20
410.625445
11
46.989340
21
410.628292
0
LINE
8
annotation
62
1
39
211
10
46.989340
20
410.628292
11
46.991253
21
410.631231
0
LINE
8
annotation
62
1
39
211
10
46.991253
20
410.631231
11
46.993131
21
410.634286
0
LINE
8
annotation
62
1
39
211
10
46.993131
20
410.634286
11
46.994989
21
410.637478
0
LINE
8
annotation
62
1
39
211
10
46.994989
20
410.637478
11
46.996839
21
410.640832
0
LINE
8
annotation
62
1
39
211
10
46.996839
20
410.640832
11
46.998697
21
410.644370
0
LINE
8
annotation
62
1
39
211
10
46.998697
20
410.644370
11
46.998697
21
410.644370
0
LINE
8
annotation
62
1
39
211
10
46.998697
20
410.644370
11
47.074309
21
410.806716
0
LINE
8
annotation
62
1
39
211
10
47.074309
20
410.806716
11
47.118480
21
410.975002
0
LINE
8
annotation
62
1
39
211
10
47.118480
20
410.975002
11
47.132293
21
411.145425
0
LINE
8
annotation
62
1
39
211
10
47.132293
20
411.145425
11
47.116831
21
411.314183
0
LINE
8
annotation
62
1
39
211
10
47.116831
20
411.314183
11
47.073174
21
411.477473
0
LINE
8
annotation
62
1
39
211
10
47.073174
20
411.477473
11
47.002407
21
411.631493
0
LINE
8
annotation
62
1
39
211
10
47.002407
20
411.631493
11
46.905612
21
411.772439
0
LINE
8
annotation
62
1
39
211
10
46.905612
20
411.772439
11
46.783871
21
411.896511
0
LINE
8
annotation
62
1
39
211
10
46.783871
20
411.896511
11
46.638266
21
411.999904
0
LINE
8
annotation
62
1
39
211
10
46.638266
20
411.999904
11
46.638266
21
411.999904
0
LINE
8
annotation
62
1
39
211
10
46.638266
20
411.999904
11
46.475469
21
412.074442
0
LINE
8
annotation
62
1
39
211
10
46.475469
20
412.074442
11
46.306925
21
412.117933
0
LINE
8
annotation
62
1
39
211
10
46.306925
20
412.117933
11
46.136403
21
412.131355
0
LINE
8
annotation
62
1
39
211
10
46.136403
20
412.131355
11
45.967671
21
412.115688
0
LINE
8
annotation
62
1
39
211
10
45.967671
20
412.115688
11
45.804496
21
412.071911
0
LINE
8
annotation
62
1
39
211
10
45.804496
20
412.071911
11
45.650646
21
412.001003
0
LINE
8
annotation
62
1
39
211
10
45.650646
20
412.001003
11
45.509891
21
411.903941
0
LINE
8
annotation
62
1
39
211
10
45.509891
20
411.903941
11
45.385997
21
411.781706
0
LINE
8
annotation
62
1
39
211
10
45.385997
20
411.781706
11
45.282732
21
411.635275
0
LINE
8
annotation
62
1
39
211
10
45.282732
20
411.635275
11
45.152608
21
411.385660
0
LINE
8
annotation
62
1
39
211
10
79.206407
20
349.596689
11
76.723954
21
346.006046
0
LINE
8
annotation
62
1
39
211
10
76.723954
20
346.006046
11
74.241033
21
349.596689
0
LINE
8
annotation
62
1
39
211
10
76.723954
20
346.294997
11
76.723954
21
342.152594
0
LINE
8
annotation
62
1
39
211
10
86.068750
20
345.874642
11
81.998701
21
345.874642
0
LINE
8
annotation
62
1
39
211
10
92.165865
20
342.152767
11
88.859972
21
342.152767
0
LINE
8
annotation
62
1
39
211
10
88.859972
20
342.152767
11
91.914725
21
347.070528
0
LINE
8
annotation
62
1
39
211
10
91.914725
20
347.070528
11
91.914725
21
347.070528
0
LINE
8
annotation
62
1
39
211
10
91.914725
20
347.070528
11
91.918377
21
347.075047
0
LINE
8
annotation
62
1
39
211
10
91.918377
20
347.075047
11
91.921879
21
347.079604
0
LINE
8
annotation
62
1
39
211
10
91.921879
20
347.079604
11
91.925254
21
347.084238
0
LINE
8
annotation
62
1
39
211
10
91.925254
20
347.084238
11
91.928525
21
347.088988
0
LINE
8
annotation
62
1
39
211
10
91.928525
20
347.088988
11
91.931716
21
347.093891
0
LINE
8
annotation
62
1
39
211
10
91.931716
20
347.093891
11
91.934849
21
347.098986
0
LINE
8
annotation
62
1
39
211
10
91.934849
20
347.098986
11
91.937948
21
347.104312
0
LINE
8
annotation
62
1
39
211
10
91.937948
20
347.104312
11
91.941035
21
347.109906
0
LINE
8
annotation
62
1
39
211
10
91.941035
20
347.109906
11
91.944134
21
347.115808
0
LINE
8
annotation
62
1
39
211
10
91.944134
20
347.115808
11
91.944134
21
347.115808
0
LINE
8
annotation
62
1
39
211
10
91.944134
20
347.115808
11
92.070264
21
347.386620
0
LINE
8
annotation
62
1
39
211
10
92.070264
20
347.386620
11
92.143947
21
347.667340
0
LINE
8
annotation
62
1
39
211
10
92.143947
20
347.667340
11
92.166988
21
347.951626
0
LINE
8
annotation
62
1
39
211
10
92.166988
20
347.951626
11
92.141195
21
348.233134
0
LINE
8
annotation
62
1
39
211
10
92.141195
20
348.233134
11
92.068371
21
348.505521
0
LINE
8
annotation
62
1
39
211
10
92.068371
20
348.505521
11
91.950323
21
348.762444
0
LINE
8
annotation
62
1
39
211
10
91.950323
20
348.762444
11
91.788857
21
348.997560
0
LINE
8
annotation
62
1
39
211
10
91.788857
20
348.997560
11
91.585778
21
349.204526
0
LINE
8
annotation
62
1
39
211
10
91.585778
20
349.204526
11
91.342892
21
349.376998
0
LINE
8
annotation
62
1
39
211
10
91.342892
20
349.376998
11
91.342892
21
349.376998
0
LINE
8
annotation
62
1
39
211
10
91.342892
20
349.376998
11
91.071327
21
349.501336
0
LINE
8
annotation
62
1
39
211
10
91.071327
20
349.501336
11
90.790177
21
349.573883
0
LINE
8
annotation
62
1
39
211
10
90.790177
20
349.573883
11
90.505726
21
349.596274
0
LINE
8
annotation
62
1
39
211
10
90.505726
20
349.596274
11
90.224260
21
349.570140
0
LINE
8
annotation
62
1
39
211
10
90.224260
20
349.570140
11
89.952065
21
349.497114
0
LINE
8
annotation
62
1
39
211
10
89.952065
20
349.497114
11
89.695426
21
349.378830
0
LINE
8
annotation
62
1
39
211
10
89.695426
20
349.378830
11
89.460629
21
349.216920
0
LINE
8
annotation
62
1
39
211
10
89.460629
20
349.216920
11
89.253960
21
349.013018
0
LINE
8
annotation
62
1
39
211
10
89.253960
20
349.013018
11
89.081703
21
348.768755
0
LINE
8
annotation
62
1
39
211
10
89.081703
20
348.768755
11
88.864640
21
348.352367
0
LINE
8
annotation
62
1
39
211
10
96.153431
20
342.251012
11
96.153431
21
342.251012
0
LINE
8
annotation
62
1
39
211
10
96.153431
20
342.251012
11
96.326431
21
342.186340
0
LINE
8
annotation
62
1
39
211
10
96.326431
20
342.186340
11
96.503856
21
342.154210
0
LINE
8
annotation
62
1
39
211
10
96.503856
20
342.154210
11
96.681696
21
342.153312
0
LINE
8
annotation
62
1
39
211
10
96.681696
20
342.153312
11
96.855940
21
342.182335
0
LINE
8
annotation
62
1
39
211
10
96.855940
20
342.182335
11
97.022577
21
342.239969
0
LINE
8
annotation
62
1
39
211
10
97.022577
20
342.239969
11
97.177595
21
342.324905
0
LINE
8
annotation
62
1
39
211
10
97.177595
20
342.324905
11
97.316985
21
342.435832
0
LINE
8
annotation
62
1
39
211
10
97.316985
20
342.435832
11
97.436734
21
342.571439
0
LINE
8
annotation
62
1
39
211
10
97.436734
20
342.571439
11
97.532832
21
342.730418
0
LINE
8
annotation
62
1
39
211
10
97.532832
20
342.730418
11
97.532832
21
342.730418
0
LINE
8
annotation
62
1
39
211
10
97.532832
20
342.730418
11
97.819552
21
343.401557
0
LINE
8
annotation
62
1
39
211
10
97.819552
20
343.401557
11
98.034592
21
344.092121
0
LINE
8
annotation
62
1
39
211
10
98.034592
20
344.092121
11
98.177952
21
344.796605
0
LINE
8
annotation
62
1
39
211
10
98.177952
20
344.796605
11
98.249633
21
345.509503
0
LINE
8
annotation
62
1
39
211
10
98.249633
20
345.509503
11
98.249633
21
346.225309
0
LINE
8
annotation
62
1
39
211
10
98.249633
20
346.225309
11
98.177952
21
346.938518
0
LINE
8
annotation
62
1
39
211
10
98.177952
20
346.938518
11
98.034592
21
347.643625
0
LINE
8
annotation
62
1
39
211
10
98.034592
20
347.643625
11
97.819552
21
348.335123
0
LINE
8
annotation
62
1
39
211
10
97.819552
20
348.335123
11
97.532832
21
349.007507
0
LINE
8
annotation
62
1
39
211
10
97.532832
20
349.007507
11
97.532832
21
349.007507
0
LINE
8
annotation
62
1
39
211
10
97.532832
20
349.007507
11
97.496369
21
349.075364
0
LINE
8
annotation
62
1
39
211
10
97.496369
20
349.075364
11
97.455032
21
349.140241
0
LINE
8
annotation
62
1
39
211
10
97.455032
20
349.140241
11
97.409129
21
349.201817
0
LINE
8
annotation
62
1
39
211
10
97.409129
20
349.201817
11
97.358974
21
349.259774
0
LINE
8
annotation
62
1
39
211
10
97.358974
20
349.259774
11
97.304877
21
349.313793
0
LINE
8
annotation
62
1
39
211
10
97.304877
20
349.313793
11
97.247149
21
349.363556
0
LINE
8
annotation
62
1
39
211
10
97.247149
20
349.363556
11
97.186102
21
349.408742
0
LINE
8
annotation
62
1
39
211
10
97.186102
20
349.408742
11
97.122046
21
349.449034
0
LINE
8
annotation
62
1
39
211
10
97.122046
20
349.449034
11
97.055293
21
349.484112
0
LINE
8
annotation
62
1
39
211
10
97.055293
20
349.484112
11
97.055293
21
349.484112
0
LINE
8
annotation
62
1
39
211
10
97.055293
20
349.484112
11
96.880921
21
349.550185
0
LINE
8
annotation
62
1
39
211
10
96.880921
20
349.550185
11
96.702456
21
349.583413
0
LINE
8
annotation
62
1
39
211
10
96.702456
20
349.583413
11
96.523865
21
349.585114
0
LINE
8
annotation
62
1
39
211
10
96.523865
20
349.585114
11
96.349112
21
349.556605
0
LINE
8
annotation
62
1
39
211
10
96.349112
20
349.556605
11
96.182162
21
349.499204
0
LINE
8
annotation
62
1
39
211
10
96.182162
20
349.499204
11
96.026980
21
349.414230
0
LINE
8
annotation
62
1
39
211
10
96.026980
20
349.414230
11
95.887531
21
349.302999
0
LINE
8
annotation
62
1
39
211
10
95.887531
20
349.302999
11
95.767780
21
349.166830
0
LINE
8
annotation
62
1
39
211
10
95.767780
20
349.166830
11
95.671692
21
349.007040
0
LINE
8
annotation
62
1
39
211
10
95.671692
20
349.007040
11
95.671692
21
349.007040
0
LINE
8
annotation
62
1
39
211
10
95.671692
20
349.007040
11
95.386354
21
348.336039
0
LINE
8
annotation
62
1
39
211
10
95.386354
20
348.336039
11
95.172352
21
347.645578
0
LINE
8
annotation
62
1
39
211
10
95.172352
20
347.645578
11
95.029683
21
346.941164
0
LINE
8
annotation
62
1
39
211
10
95.029683
20
346.941164
11
94.958349
21
346.228300
0
LINE
8
annotation
62
1
39
211
10
94.958349
20
346.228300
11
94.958349
21
345.512494
0
LINE
8
annotation
62
1
39
211
10
94.958349
20
345.512494
11
95.029683
21
344.799250
0
LINE
8
annotation
62
1
39
211
10
95.029683
20
344.799250
11
95.172352
21
344.094075
0
LINE
8
annotation
62
1
39
211
10
95.172352
20
344.094075
11
95.386354
21
343.402473
0
LINE
8
annotation
62
1
39
211
10
95.386354
20
343.402473
11
95.671692
21
342.729951
0
LINE
8
annotation
62
1
39
211
10
95.671692
20
342.729951
11
95.671692
21
342.729951
0
LINE
8
annotation
62
1
39
211
10
95.671692
20
342.729951
11
95.708021
21
342.662228
0
LINE
8
annotation
62
1
39
211
10
95.708021
20
342.662228
11
95.749054
21
342.597675
0
LINE
8
annotation
62
1
39
211
10
95.749054
20
342.597675
11
95.794616
21
342.536487
0
LINE
8
annotation
62
1
39
211
10
95.794616
20
342.536487
11
95.844535
21
342.478861
0
LINE
8
annotation
62
1
39
211
10
95.844535
20
342.478861
11
95.898638
21
342.424993
0
LINE
8
annotation
62
1
39
211
10
95.898638
20
342.424993
11
95.956752
21
342.375078
0
LINE
8
annotation
62
1
39
211
10
95.956752
20
342.375078
11
96.018704
21
342.329312
0
LINE
8
annotation
62
1
39
211
10
96.018704
20
342.329312
11
96.084322
21
342.287891
0
LINE
8
annotation
62
1
39
211
10
96.084322
20
342.287891
11
96.153431
21
342.251012
0
LINE
8
frame
62
5
39
2
10
0.000000
20
0.000000
11
215.900000
21
0.000000
0
LINE
8
frame
62
5
39
2
10
215.900000
20
0.000000
11
215.900000
21
279.400000
0
LINE
8
frame
62
5
39
2
10
215.900000
20
279.400000
11
0.000000
21
279.400000
0
LINE
8
frame
62
5
39
2
10
0.000000
20
279.400000
11
0.000000
21
0.000000
0
ENDSEC
0
EOF
