0
SECTION
2
HEADER
9
$ACADVER
1
AC1009
0
ENDSEC
0
SECTION
2
TABLES
0
TABLE
2
VPORT
70
1
0
VPORT
2
ACTIVE
70
0
10
0.0
20
0.0
11
0.0
21
0.0
12
0.0
22
0.0
13
0.0
23
0.0
14
0.0
24
0.0
15
0.0
25
0.0
16
0.0
26
0.0
36
0.0
17
0.0
27
0.0
37
0.0
40
0.0
41
0.0
42
0.0
43
0.0
44
0.0
50
0.0
51
0.0
71
0
72
1000
73
1
74
3
75
0
76
0
77
0
78
0
0
ENDTAB
0
ENDSEC
0
SECTION
2
ENTITIES
0
LINE
8
boundary
62
5
39
2
10
48.739604
20
6.879592
11
49.249842
21
6.772835
0
LINE
8
boundary
62
5
39
2
10
49.249842
20
6.772835
11
49.832429
21
6.698872
0
LINE
8
boundary
62
5
39
2
10
49.832429
20
6.698872
11
50.449746
21
6.668631
0
LINE
8
boundary
62
5
39
2
10
50.449746
20
6.668631
11
51.095538
21
6.683385
0
LINE
8
boundary
62
5
39
2
10
51.095538
20
6.683385
11
51.763592
21
6.744333
0
LINE
8
boundary
62
5
39
2
10
51.763592
20
6.744333
11
52.447624
21
6.852635
0
LINE
8
boundary
62
5
39
2
10
52.447624
20
6.852635
11
53.141497
21
7.009272
0
LINE
8
boundary
62
5
39
2
10
53.141497
20
7.009272
11
53.838927
21
7.215254
0
LINE
8
boundary
62
5
39
2
10
53.838927
20
7.215254
11
54.533662
21
7.471287
0
LINE
8
boundary
62
5
39
2
10
54.533662
20
7.471287
11
55.219376
21
7.778163
0
LINE
8
boundary
62
5
39
2
10
55.219376
20
7.778163
11
55.890074
21
8.136451
0
LINE
8
boundary
62
5
39
2
10
55.890074
20
8.136451
11
56.539427
21
8.546561
0
LINE
8
boundary
62
5
39
2
10
56.539427
20
8.546561
11
57.171301
21
9.016476
0
LINE
8
boundary
62
5
39
2
10
57.171301
20
9.016476
11
57.757746
21
9.531528
0
LINE
8
boundary
62
5
39
2
10
57.757746
20
9.531528
11
58.304262
21
10.099217
0
LINE
8
boundary
62
5
39
2
10
58.304262
20
10.099217
11
58.804671
21
10.719883
0
LINE
8
boundary
62
5
39
2
10
58.804671
20
10.719883
11
59.252920
21
11.393634
0
LINE
8
boundary
62
5
39
2
10
59.252920
20
11.393634
11
59.642856
21
12.120625
0
LINE
8
boundary
62
5
39
2
10
59.642856
20
12.120625
11
59.968200
21
12.901109
0
LINE
8
boundary
62
5
39
2
10
59.968200
20
12.901109
11
60.222945
21
13.735269
0
LINE
8
boundary
62
5
39
2
10
60.222945
20
13.735269
11
60.400913
21
14.623391
0
LINE
8
boundary
62
5
39
2
10
60.400913
20
14.623391
11
60.486788
21
15.568069
0
LINE
8
boundary
62
5
39
2
10
60.486788
20
15.568069
11
60.475644
21
16.569277
0
LINE
8
boundary
62
5
39
2
10
60.475644
20
16.569277
11
60.434872
21
17.090557
0
LINE
8
boundary
62
5
39
2
10
60.434872
20
17.090557
11
60.369537
21
17.625749
0
LINE
8
boundary
62
5
39
2
10
60.369537
20
17.625749
11
60.278901
21
18.174976
0
LINE
8
boundary
62
5
39
2
10
60.278901
20
18.174976
11
60.162152
21
18.738263
0
LINE
8
boundary
62
5
39
2
10
60.162152
20
18.738263
11
60.018510
21
19.315831
0
LINE
8
boundary
62
5
39
2
10
60.018510
20
19.315831
11
59.847239
21
19.907819
0
LINE
8
boundary
62
5
39
2
10
59.847239
20
19.907819
11
59.647584
21
20.514379
0
LINE
8
boundary
62
5
39
2
10
59.647584
20
20.514379
11
59.418673
21
21.135726
0
LINE
8
boundary
62
5
39
2
10
59.418673
20
21.135726
11
59.159646
21
21.771962
0
LINE
8
boundary
62
5
39
2
10
59.159646
20
21.771962
11
58.869871
21
22.423375
0
LINE
8
boundary
62
5
39
2
10
58.869871
20
22.423375
11
58.111866
21
22.825297
0
LINE
8
boundary
62
5
39
2
10
58.111866
20
22.825297
11
57.352029
21
23.266169
0
LINE
8
boundary
62
5
39
2
10
57.352029
20
23.266169
11
56.590720
21
23.745772
0
LINE
8
boundary
62
5
39
2
10
56.590720
20
23.745772
11
55.828572
21
24.263655
0
LINE
8
boundary
62
5
39
2
10
55.828572
20
24.263655
11
55.065784
21
24.819447
0
LINE
8
boundary
62
5
39
2
10
55.065784
20
24.819447
11
54.302846
21
25.412739
0
LINE
8
boundary
62
5
39
2
10
54.302846
20
25.412739
11
53.540201
21
26.042999
0
LINE
8
boundary
62
5
39
2
10
53.540201
20
26.042999
11
52.778158
21
26.709906
0
LINE
8
boundary
62
5
39
2
10
52.778158
20
26.709906
11
52.016998
21
27.412971
0
LINE
8
boundary
62
5
39
2
10
52.016998
20
27.412971
11
51.257411
21
28.151689
0
LINE
8
boundary
62
5
39
2
10
51.257411
20
28.151689
11
50.499524
21
28.925553
0
LINE
8
boundary
62
5
39
2
10
50.499524
20
28.925553
11
49.743963
21
29.734097
0
LINE
8
boundary
62
5
39
2
10
49.743963
20
29.734097
11
48.990889
21
30.576782
0
LINE
8
boundary
62
5
39
2
10
48.990889
20
30.576782
11
48.240756
21
31.453086
0
LINE
8
boundary
62
5
39
2
10
48.240756
20
31.453086
11
47.494009
21
32.362498
0
LINE
8
boundary
62
5
39
2
10
47.494009
20
32.362498
11
46.750998
21
33.304319
0
LINE
8
boundary
62
5
39
2
10
46.750998
20
33.304319
11
46.012231
21
34.278165
0
LINE
8
boundary
62
5
39
2
10
46.012231
20
34.278165
11
45.278012
21
35.283319
0
LINE
8
boundary
62
5
39
2
10
45.278012
20
35.283319
11
44.548610
21
36.319295
0
LINE
8
boundary
62
5
39
2
10
44.548610
20
36.319295
11
43.824604
21
37.385441
0
LINE
8
boundary
62
5
39
2
10
43.824604
20
37.385441
11
43.106354
21
38.481168
0
LINE
8
boundary
62
5
39
2
10
43.106354
20
38.481168
11
42.394226
21
39.605861
0
LINE
8
boundary
62
5
39
2
10
42.394226
20
39.605861
11
41.688559
21
40.758881
0
LINE
8
boundary
62
5
39
2
10
41.688559
20
40.758881
11
40.989763
21
41.939633
0
LINE
8
boundary
62
5
39
2
10
40.989763
20
41.939633
11
40.298364
21
43.147512
0
LINE
8
boundary
62
5
39
2
10
40.298364
20
43.147512
11
39.614639
21
44.381853
0
LINE
8
boundary
62
5
39
2
10
39.614639
20
44.381853
11
38.939128
21
45.641966
0
LINE
8
boundary
62
5
39
2
10
38.939128
20
45.641966
11
38.271961
21
46.927330
0
LINE
8
boundary
62
5
39
2
10
38.271961
20
46.927330
11
37.613856
21
48.237251
0
LINE
8
boundary
62
5
39
2
10
37.613856
20
48.237251
11
36.965010
21
49.571052
0
LINE
8
boundary
62
5
39
2
10
36.965010
20
49.571052
11
36.325925
21
50.928144
0
LINE
8
boundary
62
5
39
2
10
36.325925
20
50.928144
11
35.696956
21
52.307852
0
LINE
8
boundary
62
5
39
2
10
35.696956
20
52.307852
11
35.078622
21
53.709552
0
LINE
8
boundary
62
5
39
2
10
35.078622
20
53.709552
11
34.471234
21
55.132605
0
LINE
8
boundary
62
5
39
2
10
34.471234
20
55.132605
11
33.875238
21
56.576334
0
LINE
8
boundary
62
5
39
2
10
33.875238
20
56.576334
11
33.291061
21
58.040216
0
LINE
8
boundary
62
5
39
2
10
33.291061
20
58.040216
11
32.719225
21
59.523500
0
LINE
8
boundary
62
5
39
2
10
32.719225
20
59.523500
11
32.160068
21
61.025577
0
LINE
8
boundary
62
5
39
2
10
32.160068
20
61.025577
11
31.613919
21
62.545911
0
LINE
8
boundary
62
5
39
2
10
31.613919
20
62.545911
11
31.081318
21
64.083753
0
LINE
8
boundary
62
5
39
2
10
31.081318
20
64.083753
11
30.562599
21
65.638636
0
LINE
8
boundary
62
5
39
2
10
30.562599
20
65.638636
11
30.058289
21
67.209892
0
LINE
8
boundary
62
5
39
2
10
30.058289
20
67.209892
11
29.568876
21
68.796917
0
LINE
8
boundary
62
5
39
2
10
29.568876
20
68.796917
11
29.094544
21
70.399141
0
LINE
8
boundary
62
5
39
2
10
29.094544
20
70.399141
11
28.636043
21
72.015940
0
LINE
8
boundary
62
5
39
2
10
28.636043
20
72.015940
11
28.193569
21
73.646776
0
LINE
8
boundary
62
5
39
2
10
28.193569
20
73.646776
11
27.767648
21
75.291109
0
LINE
8
boundary
62
5
39
2
10
27.767648
20
75.291109
11
27.358685
21
76.948336
0
LINE
8
boundary
62
5
39
2
10
27.358685
20
76.948336
11
26.967107
21
78.617955
0
LINE
8
boundary
62
5
39
2
10
26.967107
20
78.617955
11
26.593422
21
80.299367
0
LINE
8
boundary
62
5
39
2
10
26.593422
20
80.299367
11
26.238088
21
81.992101
0
LINE
8
boundary
62
5
39
2
10
26.238088
20
81.992101
11
25.901336
21
83.695589
0
LINE
8
boundary
62
5
39
2
10
25.901336
20
83.695589
11
25.583867
21
85.409401
0
LINE
8
boundary
62
5
39
2
10
25.583867
20
85.409401
11
25.285858
21
87.133053
0
LINE
8
boundary
62
5
39
2
10
25.285858
20
87.133053
11
25.199999
21
87.646790
0
LINE
8
boundary
62
5
39
2
10
25.199999
20
87.646790
11
25.007892
21
88.865912
0
LINE
8
boundary
62
5
39
2
10
25.007892
20
88.865912
11
24.925665
21
89.398906
0
LINE
8
boundary
62
5
39
2
10
24.925665
20
89.398906
11
24.750433
21
90.607611
0
LINE
8
boundary
62
5
39
2
10
24.750433
20
90.607611
11
24.672304
21
91.160022
0
LINE
8
boundary
62
5
39
2
10
24.672304
20
91.160022
11
24.513714
21
92.357735
0
LINE
8
boundary
62
5
39
2
10
24.513714
20
92.357735
11
24.440277
21
92.929645
0
LINE
8
boundary
62
5
39
2
10
24.440277
20
92.929645
11
24.298389
21
94.115762
0
LINE
8
boundary
62
5
39
2
10
24.298389
20
94.115762
11
24.230145
21
94.707257
0
LINE
8
boundary
62
5
39
2
10
24.230145
20
94.707257
11
24.104758
21
95.881243
0
LINE
8
boundary
62
5
39
2
10
24.104758
20
95.881243
11
24.042309
21
96.492374
0
LINE
8
boundary
62
5
39
2
10
24.042309
20
96.492374
11
23.933281
21
97.653801
0
LINE
8
boundary
62
5
39
2
10
23.933281
20
97.653801
11
23.877191
21
98.284583
0
LINE
8
boundary
62
5
39
2
10
23.877191
20
98.284583
11
23.784347
21
99.433022
0
LINE
8
boundary
62
5
39
2
10
23.784347
20
99.433022
11
23.735170
21
100.083401
0
LINE
8
boundary
62
5
39
2
10
23.735170
20
100.083401
11
23.658257
21
101.218470
0
LINE
8
boundary
62
5
39
2
10
23.658257
20
101.218470
11
23.616670
21
101.888430
0
LINE
8
boundary
62
5
39
2
10
23.616670
20
101.888430
11
23.555638
21
103.009777
0
LINE
8
boundary
62
5
39
2
10
23.555638
20
103.009777
11
23.522297
21
103.699163
0
LINE
8
boundary
62
5
39
2
10
23.522297
20
103.699163
11
23.476864
21
104.806481
0
LINE
8
boundary
62
5
39
2
10
23.476864
20
104.806481
11
23.409702
21
105.371234
0
LINE
8
boundary
62
5
39
2
10
23.409702
20
105.371234
11
23.312836
21
106.242763
0
LINE
8
boundary
62
5
39
2
10
23.312836
20
106.242763
11
23.250003
21
106.815998
0
LINE
8
boundary
62
5
39
2
10
23.250003
20
106.815998
11
23.162620
21
107.671728
0
LINE
8
boundary
62
5
39
2
10
23.162620
20
107.671728
11
23.104136
21
108.253354
0
LINE
8
boundary
62
5
39
2
10
23.104136
20
108.253354
11
23.025783
21
109.093633
0
LINE
8
boundary
62
5
39
2
10
23.025783
20
109.093633
11
22.971875
21
109.683342
0
LINE
8
boundary
62
5
39
2
10
22.971875
20
109.683342
11
22.902370
21
110.508336
0
LINE
8
boundary
62
5
39
2
10
22.902370
20
110.508336
11
22.853145
21
111.106015
0
LINE
8
boundary
62
5
39
2
10
22.853145
20
111.106015
11
22.792134
21
111.916046
0
LINE
8
boundary
62
5
39
2
10
22.792134
20
111.916046
11
22.747775
21
112.521525
0
LINE
8
boundary
62
5
39
2
10
22.747775
20
112.521525
11
22.694899
21
113.316848
0
LINE
8
boundary
62
5
39
2
10
22.694899
20
113.316848
11
22.621216
21
114.551431
0
LINE
8
boundary
62
5
39
2
10
22.621216
20
114.551431
11
22.539002
21
116.097898
0
LINE
8
boundary
62
5
39
2
10
22.539002
20
116.097898
11
22.486322
21
117.361179
0
LINE
8
boundary
62
5
39
2
10
22.486322
20
117.361179
11
22.433393
21
118.852189
0
LINE
8
boundary
62
5
39
2
10
22.433393
20
118.852189
11
22.402694
21
120.142466
0
LINE
8
boundary
62
5
39
2
10
22.402694
20
120.142466
11
22.376939
21
121.580253
0
LINE
8
boundary
62
5
39
2
10
22.376939
20
121.580253
11
22.368932
21
122.895857
0
LINE
8
boundary
62
5
39
2
10
22.368932
20
122.895857
11
22.368200
21
124.282715
0
LINE
8
boundary
62
5
39
2
10
22.368200
20
124.282715
11
22.383528
21
125.622042
0
LINE
8
boundary
62
5
39
2
10
22.383528
20
125.622042
11
22.405902
21
126.960429
0
LINE
8
boundary
62
5
39
2
10
22.405902
20
126.960429
11
22.445176
21
128.321692
0
LINE
8
boundary
62
5
39
2
10
22.445176
20
128.321692
11
22.488854
21
129.613871
0
LINE
8
boundary
62
5
39
2
10
22.488854
20
129.613871
11
22.552378
21
130.995329
0
LINE
8
boundary
62
5
39
2
10
22.552378
20
130.995329
11
22.615648
21
132.243667
0
LINE
8
boundary
62
5
39
2
10
22.615648
20
132.243667
11
22.703704
21
133.643734
0
LINE
8
boundary
62
5
39
2
10
22.703704
20
133.643734
11
22.784868
21
134.850601
0
LINE
8
boundary
62
5
39
2
10
22.784868
20
134.850601
11
22.897551
21
136.267473
0
LINE
8
boundary
62
5
39
2
10
22.897551
20
136.267473
11
22.995190
21
137.435175
0
LINE
8
boundary
62
5
39
2
10
22.995190
20
137.435175
11
23.132511
21
138.867223
0
LINE
8
boundary
62
5
39
2
10
23.132511
20
138.867223
11
23.245230
21
139.998087
0
LINE
8
boundary
62
5
39
2
10
23.245230
20
139.998087
11
23.407106
21
141.443693
0
LINE
8
boundary
62
5
39
2
10
23.407106
20
141.443693
11
23.533673
21
142.539976
0
LINE
8
boundary
62
5
39
2
10
23.533673
20
142.539976
11
23.719797
21
143.997452
0
LINE
8
boundary
62
5
39
2
10
23.719797
20
143.997452
11
23.859036
21
145.061325
0
LINE
8
boundary
62
5
39
2
10
23.859036
20
145.061325
11
24.069112
21
146.529156
0
LINE
8
boundary
62
5
39
2
10
24.069112
20
146.529156
11
24.220055
21
147.562866
0
LINE
8
boundary
62
5
39
2
10
24.220055
20
147.562866
11
24.453594
21
149.039540
0
LINE
8
boundary
62
5
39
2
10
24.453594
20
149.039540
11
24.615209
21
150.045135
0
LINE
8
boundary
62
5
39
2
10
24.615209
20
150.045135
11
24.871570
21
151.529147
0
LINE
8
boundary
62
5
39
2
10
24.871570
20
151.529147
11
25.043041
21
152.508675
0
LINE
8
boundary
62
5
39
2
10
25.043041
20
152.508675
11
25.321660
21
153.998589
0
LINE
8
boundary
62
5
39
2
10
25.321660
20
153.998589
11
25.502192
21
154.954052
0
LINE
8
boundary
62
5
39
2
10
25.502192
20
154.954052
11
25.802327
21
156.448539
0
LINE
8
boundary
62
5
39
2
10
25.802327
20
156.448539
11
25.991320
21
157.381846
0
LINE
8
boundary
62
5
39
2
10
25.991320
20
157.381846
11
26.312159
21
158.879588
0
LINE
8
boundary
62
5
39
2
10
26.312159
20
158.879588
11
26.508927
21
159.792538
0
LINE
8
boundary
62
5
39
2
10
26.508927
20
159.792538
11
26.849557
21
161.292272
0
LINE
8
boundary
62
5
39
2
10
26.849557
20
161.292272
11
27.053606
21
162.186637
0
LINE
8
boundary
62
5
39
2
10
27.053606
20
162.186637
11
27.413099
21
163.687228
0
LINE
8
boundary
62
5
39
2
10
27.413099
20
163.687228
11
27.623892
21
164.564687
0
LINE
8
boundary
62
5
39
2
10
27.623892
20
164.564687
11
28.001263
21
166.064955
0
LINE
8
boundary
62
5
39
2
10
28.001263
20
166.064955
11
28.218413
21
166.927087
0
LINE
8
boundary
62
5
39
2
10
28.218413
20
166.927087
11
28.612727
21
168.425988
0
LINE
8
boundary
62
5
39
2
10
28.612727
20
168.425988
11
28.835876
21
169.274330
0
LINE
8
boundary
62
5
39
2
10
28.835876
20
169.274330
11
29.245930
21
170.770924
0
LINE
8
boundary
62
5
39
2
10
29.245930
20
170.770924
11
29.474700
21
171.606925
0
LINE
8
boundary
62
5
39
2
10
29.474700
20
171.606925
11
29.899470
21
173.100182
0
LINE
8
boundary
62
5
39
2
10
29.899470
20
173.100182
11
30.133565
21
173.925193
0
LINE
8
boundary
62
5
39
2
10
30.133565
20
173.925193
11
30.571907
21
175.414275
0
LINE
8
boundary
62
5
39
2
10
30.571907
20
175.414275
11
30.811036
21
176.229596
0
LINE
8
boundary
62
5
39
2
10
30.811036
20
176.229596
11
31.261802
21
177.713686
0
LINE
8
boundary
62
5
39
2
10
31.261802
20
177.713686
11
31.505707
21
178.520533
0
LINE
8
boundary
62
5
39
2
10
31.505707
20
178.520533
11
31.967891
21
179.998833
0
LINE
8
boundary
62
5
39
2
10
31.967891
20
179.998833
11
32.216394
21
180.798352
0
LINE
8
boundary
62
5
39
2
10
32.216394
20
180.798352
11
32.688642
21
182.270219
0
LINE
8
boundary
62
5
39
2
10
32.688642
20
182.270219
11
32.941403
21
183.063486
0
LINE
8
boundary
62
5
39
2
10
32.941403
20
183.063486
11
33.422699
21
184.528142
0
LINE
8
boundary
62
5
39
2
10
33.422699
20
184.528142
11
33.679621
21
185.316182
0
LINE
8
boundary
62
5
39
2
10
33.679621
20
185.316182
11
34.168767
21
186.773084
0
LINE
8
boundary
62
5
39
2
10
34.168767
20
186.773084
11
34.429569
21
187.556859
0
LINE
8
boundary
62
5
39
2
10
34.429569
20
187.556859
11
34.925520
21
189.005438
0
LINE
8
boundary
62
5
39
2
10
34.925520
20
189.005438
11
35.190045
21
189.785824
0
LINE
8
boundary
62
5
39
2
10
35.190045
20
189.785824
11
35.691538
21
191.225547
0
LINE
8
boundary
62
5
39
2
10
35.691538
20
191.225547
11
35.959531
21
192.003365
0
LINE
8
boundary
62
5
39
2
10
35.959531
20
192.003365
11
36.465641
21
193.433734
0
LINE
8
boundary
62
5
39
2
10
36.465641
20
193.433734
11
36.736981
21
194.209773
0
LINE
8
boundary
62
5
39
2
10
36.736981
20
194.209773
11
37.246577
21
195.630342
0
LINE
8
boundary
62
5
39
2
10
37.246577
20
195.630342
11
37.520986
21
196.405285
0
LINE
8
boundary
62
5
39
2
10
37.520986
20
196.405285
11
38.032814
21
197.815673
0
LINE
8
boundary
62
5
39
2
10
38.032814
20
197.815673
11
38.310030
21
198.590238
0
LINE
8
boundary
62
5
39
2
10
38.310030
20
198.590238
11
39.331725
21
201.364482
0
LINE
8
boundary
62
5
39
2
10
39.331725
20
201.364482
11
39.899115
21
202.929194
0
LINE
8
boundary
62
5
39
2
10
39.899115
20
202.929194
11
40.918266
21
205.658580
0
LINE
8
boundary
62
5
39
2
10
40.918266
20
205.658580
11
41.494298
21
207.228546
0
LINE
8
boundary
62
5
39
2
10
41.494298
20
207.228546
11
42.503604
21
209.911106
0
LINE
8
boundary
62
5
39
2
10
42.503604
20
209.911106
11
43.086038
21
211.489888
0
LINE
8
boundary
62
5
39
2
10
43.086038
20
211.489888
11
44.078537
21
214.123996
0
LINE
8
boundary
62
5
39
2
10
44.078537
20
214.123996
11
44.664931
21
215.714665
0
LINE
8
boundary
62
5
39
2
10
44.664931
20
215.714665
11
45.634316
21
218.299025
0
LINE
8
boundary
62
5
39
2
10
45.634316
20
218.299025
11
46.221994
21
219.904046
0
LINE
8
boundary
62
5
39
2
10
46.221994
20
219.904046
11
48.049919
21
224.867935
0
LINE
8
boundary
62
5
39
2
10
48.049919
20
224.867935
11
49.236307
21
228.180993
0
LINE
8
boundary
62
5
39
2
10
49.236307
20
228.180993
11
50.912031
21
232.943641
0
LINE
8
boundary
62
5
39
2
10
50.912031
20
232.943641
11
52.063710
21
236.327834
0
LINE
8
boundary
62
5
39
2
10
52.063710
20
236.327834
11
52.841640
21
238.655505
0
LINE
8
boundary
62
5
39
2
10
52.841640
20
238.655505
11
53.388389
21
240.354241
0
LINE
8
boundary
62
5
39
2
10
53.388389
20
240.354241
11
54.116303
21
242.630618
0
LINE
8
boundary
62
5
39
2
10
54.116303
20
242.630618
11
54.644021
21
244.349959
0
LINE
8
boundary
62
5
39
2
10
54.644021
20
244.349959
11
55.319364
21
246.575667
0
LINE
8
boundary
62
5
39
2
10
55.319364
20
246.575667
11
55.824198
21
248.315448
0
LINE
8
boundary
62
5
39
2
10
55.824198
20
248.315448
11
56.142514
21
249.413829
0
LINE
8
boundary
62
5
39
2
10
56.142514
20
249.413829
11
56.383828
21
250.287033
0
LINE
8
boundary
62
5
39
2
10
56.383828
20
250.287033
11
56.688031
21
251.372830
0
LINE
8
boundary
62
5
39
2
10
56.688031
20
251.372830
11
56.922186
21
252.251210
0
LINE
8
boundary
62
5
39
2
10
56.922186
20
252.251210
11
57.387240
21
253.994920
0
LINE
8
boundary
62
5
39
2
10
57.387240
20
253.994920
11
57.754095
21
255.445290
0
LINE
8
boundary
62
5
39
2
10
57.754095
20
255.445290
11
58.195943
21
257.219955
0
LINE
8
boundary
62
5
39
2
10
58.195943
20
257.219955
11
58.553007
21
258.738841
0
LINE
8
boundary
62
5
39
2
10
58.553007
20
258.738841
11
58.764376
21
259.638501
0
LINE
8
boundary
62
5
39
2
10
58.764376
20
259.638501
11
58.937299
21
260.420824
0
LINE
8
boundary
62
5
39
2
10
58.937299
20
260.420824
11
59.141218
21
261.326191
0
LINE
8
boundary
62
5
39
2
10
59.141218
20
261.326191
11
59.310051
21
262.125174
0
LINE
8
boundary
62
5
39
2
10
59.310051
20
262.125174
11
59.505993
21
263.035553
0
LINE
8
boundary
62
5
39
2
10
59.505993
20
263.035553
11
59.670119
21
263.851115
0
LINE
8
boundary
62
5
39
2
10
59.670119
20
263.851115
11
59.857671
21
264.765890
0
LINE
8
boundary
62
5
39
2
10
59.857671
20
264.765890
11
60.016634
21
265.597838
0
LINE
8
boundary
62
5
39
2
10
60.016634
20
265.597838
11
60.195300
21
266.516338
0
LINE
8
boundary
62
5
39
2
10
60.195300
20
266.516338
11
60.348414
21
267.364429
0
LINE
8
boundary
62
5
39
2
10
60.348414
20
267.364429
11
60.517827
21
268.286144
0
LINE
8
boundary
62
5
39
2
10
60.517827
20
268.286144
11
60.664612
21
269.150207
0
LINE
8
boundary
62
5
39
2
10
60.664612
20
269.150207
11
60.824364
21
270.074533
0
LINE
8
boundary
62
5
39
2
10
60.824364
20
270.074533
11
60.964182
21
270.954330
0
LINE
8
boundary
62
5
39
2
10
60.964182
20
270.954330
11
61.113992
21
271.880717
0
LINE
8
boundary
62
5
39
2
10
61.113992
20
271.880717
11
61.246345
21
272.776062
0
LINE
8
boundary
62
5
39
2
10
61.246345
20
272.776062
11
61.385747
21
273.703916
0
LINE
8
boundary
62
5
39
2
10
61.385747
20
273.703916
11
61.509990
21
274.614456
0
LINE
8
boundary
62
5
39
2
10
61.509990
20
274.614456
11
61.638688
21
275.543363
0
LINE
8
boundary
62
5
39
2
10
61.638688
20
275.543363
11
61.754253
21
276.468919
0
LINE
8
boundary
62
5
39
2
10
61.754253
20
276.468919
11
61.871987
21
277.398340
0
LINE
8
boundary
62
5
39
2
10
61.871987
20
277.398340
11
61.978292
21
278.338636
0
LINE
8
boundary
62
5
39
2
10
61.978292
20
278.338636
11
62.084855
21
279.268104
0
LINE
8
boundary
62
5
39
2
10
62.084855
20
279.268104
11
62.181369
21
280.222822
0
LINE
8
boundary
62
5
39
2
10
62.181369
20
280.222822
11
62.276396
21
281.151905
0
LINE
8
boundary
62
5
39
2
10
62.276396
20
281.151905
11
62.362517
21
282.120700
0
LINE
8
boundary
62
5
39
2
10
62.362517
20
282.120700
11
62.445830
21
283.048952
0
LINE
8
boundary
62
5
39
2
10
62.445830
20
283.048952
11
62.521003
21
284.031620
0
LINE
8
boundary
62
5
39
2
10
62.521003
20
284.031620
11
62.592341
21
284.958648
0
LINE
8
boundary
62
5
39
2
10
62.592341
20
284.958648
11
62.655971
21
285.954767
0
LINE
8
boundary
62
5
39
2
10
62.655971
20
285.954767
11
62.715168
21
286.880273
0
LINE
8
boundary
62
5
39
2
10
62.715168
20
286.880273
11
62.766699
21
287.889498
0
LINE
8
boundary
62
5
39
2
10
62.766699
20
287.889498
11
62.813604
21
288.813030
0
LINE
8
boundary
62
5
39
2
10
62.813604
20
288.813030
11
62.852467
21
289.835017
0
LINE
8
boundary
62
5
39
2
10
62.852467
20
289.835017
11
62.886852
21
290.756312
0
LINE
8
boundary
62
5
39
2
10
62.886852
20
290.756312
11
62.912505
21
291.790723
0
LINE
8
boundary
62
5
39
2
10
62.912505
20
291.790723
11
62.934217
21
292.709432
0
LINE
8
boundary
62
5
39
2
10
62.934217
20
292.709432
11
62.946067
21
293.755832
0
LINE
8
boundary
62
5
39
2
10
62.946067
20
293.755832
11
62.955017
21
294.671750
0
LINE
8
boundary
62
5
39
2
10
62.955017
20
294.671750
11
62.952529
21
295.729736
0
LINE
8
boundary
62
5
39
2
10
62.952529
20
295.729736
11
62.948446
21
296.642537
0
LINE
8
boundary
62
5
39
2
10
62.948446
20
296.642537
11
62.931058
21
297.711778
0
LINE
8
boundary
62
5
39
2
10
62.931058
20
297.711778
11
62.913965
21
298.621275
0
LINE
8
boundary
62
5
39
2
10
62.913965
20
298.621275
11
62.881160
21
299.701237
0
LINE
8
boundary
62
5
39
2
10
62.881160
20
299.701237
11
62.850845
21
300.607183
0
LINE
8
boundary
62
5
39
2
10
62.850845
20
300.607183
11
62.802055
21
301.697496
0
LINE
8
boundary
62
5
39
2
10
62.802055
20
301.697496
11
62.758471
21
302.599792
0
LINE
8
boundary
62
5
39
2
10
62.758471
20
302.599792
11
62.693157
21
303.699965
0
LINE
8
boundary
62
5
39
2
10
62.693157
20
303.699965
11
62.636135
21
304.598352
0
LINE
8
boundary
62
5
39
2
10
62.636135
20
304.598352
11
62.553831
21
305.707968
0
LINE
8
boundary
62
5
39
2
10
62.553831
20
305.707968
11
62.483224
21
306.602382
0
LINE
8
boundary
62
5
39
2
10
62.483224
20
306.602382
11
62.383280
21
307.720943
0
LINE
8
boundary
62
5
39
2
10
62.383280
20
307.720943
11
62.299071
21
308.611204
0
LINE
8
boundary
62
5
39
2
10
62.299071
20
308.611204
11
62.181106
21
309.738295
0
LINE
8
boundary
62
5
39
2
10
62.181106
20
309.738295
11
62.083119
21
310.624376
0
LINE
8
boundary
62
5
39
2
10
62.083119
20
310.624376
11
61.946540
21
311.759451
0
LINE
8
boundary
62
5
39
2
10
61.946540
20
311.759451
11
61.834660
21
312.641192
0
LINE
8
boundary
62
5
39
2
10
61.834660
20
312.641192
11
61.678948
21
313.783649
0
LINE
8
boundary
62
5
39
2
10
61.678948
20
313.783649
11
61.553125
21
314.661064
0
LINE
8
boundary
62
5
39
2
10
61.553125
20
314.661064
11
61.377871
21
315.810601
0
LINE
8
boundary
62
5
39
2
10
61.377871
20
315.810601
11
61.237911
21
316.683627
0
LINE
8
boundary
62
5
39
2
10
61.237911
20
316.683627
11
61.042540
21
317.839613
0
LINE
8
boundary
62
5
39
2
10
61.042540
20
317.839613
11
60.888387
21
318.708246
0
LINE
8
boundary
62
5
39
2
10
60.888387
20
318.708246
11
60.672459
21
319.870184
0
LINE
8
boundary
62
5
39
2
10
60.672459
20
319.870184
11
60.503924
21
320.734365
0
LINE
8
boundary
62
5
39
2
10
60.503924
20
320.734365
11
60.266990
21
321.901637
0
LINE
8
boundary
62
5
39
2
10
60.266990
20
321.901637
11
60.083996
21
322.761399
0
LINE
8
boundary
62
5
39
2
10
60.083996
20
322.761399
11
59.825581
21
323.933561
0
LINE
8
boundary
62
5
39
2
10
59.825581
20
323.933561
11
59.627851
21
324.789011
0
LINE
8
boundary
62
5
39
2
10
59.627851
20
324.789011
11
59.347419
21
325.965488
0
LINE
8
boundary
62
5
39
2
10
59.347419
20
325.965488
11
59.134920
21
326.816584
0
LINE
8
boundary
62
5
39
2
10
59.134920
20
326.816584
11
58.832128
21
327.996867
0
LINE
8
boundary
62
5
39
2
10
58.832128
20
327.996867
11
58.604588
21
328.843617
0
LINE
8
boundary
62
5
39
2
10
58.604588
20
328.843617
11
58.278953
21
330.027014
0
LINE
8
boundary
62
5
39
2
10
58.278953
20
330.027014
11
58.036271
21
330.869605
0
LINE
8
boundary
62
5
39
2
10
58.036271
20
330.869605
11
57.687370
21
332.055709
0
LINE
8
boundary
62
5
39
2
10
57.687370
20
332.055709
11
57.429238
21
332.894119
0
LINE
8
boundary
62
5
39
2
10
57.429238
20
332.894119
11
57.056619
21
334.082153
0
LINE
8
boundary
62
5
39
2
10
57.056619
20
334.082153
11
56.782868
21
334.916496
0
LINE
8
boundary
62
5
39
2
10
56.782868
20
334.916496
11
56.386194
21
336.106152
0
LINE
8
boundary
62
5
39
2
10
56.386194
20
336.106152
11
56.035871
21
337.117051
0
LINE
8
boundary
62
5
39
2
10
56.035871
20
337.117051
11
55.675421
21
338.127049
0
LINE
8
boundary
62
5
39
2
10
55.675421
20
338.127049
11
55.304737
21
339.136192
0
LINE
8
boundary
62
5
39
2
10
55.304737
20
339.136192
11
54.923712
21
340.144363
0
LINE
8
boundary
62
5
39
2
10
54.923712
20
340.144363
11
54.532255
21
341.151591
0
LINE
8
boundary
62
5
39
2
10
54.532255
20
341.151591
11
54.130346
21
342.157682
0
LINE
8
boundary
62
5
39
2
10
54.130346
20
342.157682
11
53.717866
21
343.162670
0
LINE
8
boundary
62
5
39
2
10
53.717866
20
343.162670
11
53.294702
21
344.166450
0
LINE
8
boundary
62
5
39
2
10
53.294702
20
344.166450
11
52.860817
21
345.169065
0
LINE
8
boundary
62
5
39
2
10
52.860817
20
345.169065
11
52.416149
21
346.170371
0
LINE
8
boundary
62
5
39
2
10
52.416149
20
346.170371
11
51.960579
21
347.170255
0
LINE
8
boundary
62
5
39
2
10
51.960579
20
347.170255
11
51.493992
21
348.168735
0
LINE
8
boundary
62
5
39
2
10
51.493992
20
348.168735
11
51.016394
21
349.165687
0
LINE
8
boundary
62
5
39
2
10
51.016394
20
349.165687
11
50.527596
21
350.161178
0
LINE
8
boundary
62
5
39
2
10
50.527596
20
350.161178
11
50.027586
21
351.155017
0
LINE
8
boundary
62
5
39
2
10
50.027586
20
351.155017
11
49.516246
21
352.147115
0
LINE
8
boundary
62
5
39
2
10
49.516246
20
352.147115
11
48.993518
21
353.137634
0
LINE
8
boundary
62
5
39
2
10
48.993518
20
353.137634
11
48.459369
21
354.126252
0
LINE
8
boundary
62
5
39
2
10
48.459369
20
354.126252
11
47.913521
21
355.113106
0
LINE
8
boundary
62
5
39
2
10
47.913521
20
355.113106
11
47.356139
21
356.098038
0
LINE
8
boundary
62
5
39
2
10
47.356139
20
356.098038
11
46.786971
21
357.081000
0
LINE
8
boundary
62
5
39
2
10
46.786971
20
357.081000
11
46.205889
21
358.062012
0
LINE
8
boundary
62
5
39
2
10
46.205889
20
358.062012
11
45.612970
21
359.040825
0
LINE
8
boundary
62
5
39
2
10
45.612970
20
359.040825
11
45.008011
21
360.017513
0
LINE
8
boundary
62
5
39
2
10
45.008011
20
360.017513
11
44.391002
21
360.992113
0
LINE
8
boundary
62
5
39
2
10
44.391002
20
360.992113
11
43.761805
21
361.964312
0
LINE
8
boundary
62
5
39
2
10
43.761805
20
361.964312
11
43.120233
21
362.934246
0
LINE
8
boundary
62
5
39
2
10
43.120233
20
362.934246
11
42.466418
21
363.901856
0
LINE
8
boundary
62
5
39
2
10
42.466418
20
363.901856
11
41.800137
21
364.866952
0
LINE
8
boundary
62
5
39
2
10
41.800137
20
364.866952
11
41.121330
21
365.829535
0
LINE
8
boundary
62
5
39
2
10
41.121330
20
365.829535
11
40.429919
21
366.789519
0
LINE
8
boundary
62
5
39
2
10
40.429919
20
366.789519
11
39.725736
21
367.746890
0
LINE
8
boundary
62
5
39
2
10
39.725736
20
367.746890
11
39.008825
21
368.701632
0
LINE
8
boundary
62
5
39
2
10
39.008825
20
368.701632
11
38.278990
21
369.653606
0
LINE
8
boundary
62
5
39
2
10
38.278990
20
369.653606
11
37.536202
21
370.602659
0
LINE
8
boundary
62
5
39
2
10
37.536202
20
370.602659
11
36.780408
21
371.548935
0
LINE
8
boundary
62
5
39
2
10
36.780408
20
371.548935
11
36.011397
21
372.492232
0
LINE
8
boundary
62
5
39
2
10
36.011397
20
372.492232
11
35.229100
21
373.432406
0
LINE
8
boundary
62
5
39
2
10
35.229100
20
373.432406
11
34.433581
21
374.369622
0
LINE
8
boundary
62
5
39
2
10
34.433581
20
374.369622
11
34.099715
21
374.755181
0
LINE
8
boundary
62
5
39
2
10
34.099715
20
374.755181
11
33.624689
21
375.303668
0
LINE
8
boundary
62
5
39
2
10
33.624689
20
375.303668
11
33.376986
21
375.851275
0
LINE
8
boundary
62
5
39
2
10
33.376986
20
375.851275
11
33.155426
21
376.373694
0
LINE
8
boundary
62
5
39
2
10
33.155426
20
376.373694
11
32.959290
21
376.871505
0
LINE
8
boundary
62
5
39
2
10
32.959290
20
376.871505
11
32.728594
21
377.528029
0
LINE
8
boundary
62
5
39
2
10
32.728594
20
377.528029
11
32.517817
21
378.221826
0
LINE
8
boundary
62
5
39
2
10
32.517817
20
378.221826
11
32.386656
21
378.779588
0
LINE
8
boundary
62
5
39
2
10
32.386656
20
378.779588
11
32.284328
21
379.367430
0
LINE
8
boundary
62
5
39
2
10
32.284328
20
379.367430
11
32.236555
21
380.023669
0
LINE
8
boundary
62
5
39
2
10
32.236555
20
380.023669
11
32.269568
21
380.598285
0
LINE
8
boundary
62
5
39
2
10
32.269568
20
380.598285
11
32.379024
21
381.094992
0
LINE
8
boundary
62
5
39
2
10
32.379024
20
381.094992
11
32.605974
21
381.589390
0
LINE
8
boundary
62
5
39
2
10
32.605974
20
381.589390
11
32.957229
21
382.020131
0
LINE
8
boundary
62
5
39
2
10
32.957229
20
382.020131
11
33.372629
21
382.312627
0
LINE
8
boundary
62
5
39
2
10
33.372629
20
382.312627
11
33.915028
21
382.538801
0
LINE
8
boundary
62
5
39
2
10
33.915028
20
382.538801
11
34.485046
21
382.657827
0
LINE
8
boundary
62
5
39
2
10
34.485046
20
382.657827
11
35.011601
21
382.702846
0
LINE
8
boundary
62
5
39
2
10
35.011601
20
382.702846
11
35.578236
21
382.700143
0
LINE
8
boundary
62
5
39
2
10
35.578236
20
382.700143
11
36.180604
21
382.653243
0
LINE
8
boundary
62
5
39
2
10
36.180604
20
382.653243
11
37.020463
21
382.531497
0
LINE
8
boundary
62
5
39
2
10
37.020463
20
382.531497
11
37.690166
21
382.396137
0
LINE
8
boundary
62
5
39
2
10
37.690166
20
382.396137
11
38.381306
21
382.228557
0
LINE
8
boundary
62
5
39
2
10
38.381306
20
382.228557
11
39.089569
21
382.032514
0
LINE
8
boundary
62
5
39
2
10
39.089569
20
382.032514
11
39.810665
21
381.811674
0
LINE
8
boundary
62
5
39
2
10
39.810665
20
381.811674
11
40.540260
21
381.569643
0
LINE
8
boundary
62
5
39
2
10
40.540260
20
381.569643
11
41.273972
21
381.310016
0
LINE
8
boundary
62
5
39
2
10
41.273972
20
381.310016
11
42.007547
21
381.036466
0
LINE
8
boundary
62
5
39
2
10
42.007547
20
381.036466
11
42.736475
21
380.752706
0
LINE
8
boundary
62
5
39
2
10
42.736475
20
380.752706
11
43.224473
21
380.553401
0
LINE
8
boundary
62
5
39
2
10
43.224473
20
380.553401
11
44.163725
21
380.169010
0
LINE
8
boundary
62
5
39
2
10
44.163725
20
380.169010
11
45.520954
21
379.588000
0
LINE
8
boundary
62
5
39
2
10
45.520954
20
379.588000
11
46.773651
21
379.038934
0
LINE
8
boundary
62
5
39
2
10
46.773651
20
379.038934
11
47.586956
21
378.427036
0
LINE
8
boundary
62
5
39
2
10
47.586956
20
378.427036
11
48.409892
21
377.834896
0
LINE
8
boundary
62
5
39
2
10
48.409892
20
377.834896
11
49.241725
21
377.262399
0
LINE
8
boundary
62
5
39
2
10
49.241725
20
377.262399
11
50.082103
21
376.709741
0
LINE
8
boundary
62
5
39
2
10
50.082103
20
376.709741
11
50.930371
21
376.176951
0
LINE
8
boundary
62
5
39
2
10
50.930371
20
376.176951
11
51.786054
21
375.663888
0
LINE
8
boundary
62
5
39
2
10
51.786054
20
375.663888
11
52.648606
21
375.170685
0
LINE
8
boundary
62
5
39
2
10
52.648606
20
375.170685
11
53.517394
21
374.697434
0
LINE
8
boundary
62
5
39
2
10
53.517394
20
374.697434
11
54.392018
21
374.244031
0
LINE
8
boundary
62
5
39
2
10
54.392018
20
374.244031
11
55.271903
21
373.810620
0
LINE
8
boundary
62
5
39
2
10
55.271903
20
373.810620
11
56.156478
21
373.397026
0
LINE
8
boundary
62
5
39
2
10
56.156478
20
373.397026
11
57.045137
21
373.003542
0
LINE
8
boundary
62
5
39
2
10
57.045137
20
373.003542
11
57.937497
21
372.630165
0
LINE
8
boundary
62
5
39
2
10
57.937497
20
372.630165
11
58.832937
21
372.276644
0
LINE
8
boundary
62
5
39
2
10
58.832937
20
372.276644
11
59.730912
21
371.943299
0
LINE
8
boundary
62
5
39
2
10
59.730912
20
371.943299
11
60.630981
21
371.630089
0
LINE
8
boundary
62
5
39
2
10
60.630981
20
371.630089
11
61.532493
21
371.336890
0
LINE
8
boundary
62
5
39
2
10
61.532493
20
371.336890
11
62.435101
21
371.063884
0
LINE
8
boundary
62
5
39
2
10
62.435101
20
371.063884
11
63.337998
21
370.810988
0
LINE
8
boundary
62
5
39
2
10
63.337998
20
370.810988
11
64.240993
21
370.578365
0
LINE
8
boundary
62
5
39
2
10
64.240993
20
370.578365
11
65.143341
21
370.365818
0
LINE
8
boundary
62
5
39
2
10
65.143341
20
370.365818
11
66.044691
21
370.173491
0
LINE
8
boundary
62
5
39
2
10
66.044691
20
370.173491
11
66.944468
21
370.001483
0
LINE
8
boundary
62
5
39
2
10
66.944468
20
370.001483
11
67.842176
21
369.849569
0
LINE
8
boundary
62
5
39
2
10
67.842176
20
369.849569
11
68.737381
21
369.717951
0
LINE
8
boundary
62
5
39
2
10
68.737381
20
369.717951
11
69.629454
21
369.606548
0
LINE
8
boundary
62
5
39
2
10
69.629454
20
369.606548
11
70.518057
21
369.515416
0
LINE
8
boundary
62
5
39
2
10
70.518057
20
369.515416
11
71.402738
21
369.444511
0
LINE
8
boundary
62
5
39
2
10
71.402738
20
369.444511
11
72.282930
21
369.393923
0
LINE
8
boundary
62
5
39
2
10
72.282930
20
369.393923
11
73.158232
21
369.363496
0
LINE
8
boundary
62
5
39
2
10
73.158232
20
369.363496
11
74.028123
21
369.353262
0
LINE
8
boundary
62
5
39
2
10
74.028123
20
369.353262
11
74.892196
21
369.363280
0
LINE
8
boundary
62
5
39
2
10
74.892196
20
369.363280
11
75.749967
21
369.393498
0
LINE
8
boundary
62
5
39
2
10
75.749967
20
369.393498
11
76.601184
21
369.443878
0
LINE
8
boundary
62
5
39
2
10
76.601184
20
369.443878
11
77.445191
21
369.514556
0
LINE
8
boundary
62
5
39
2
10
77.445191
20
369.514556
11
78.281735
21
369.605280
0
LINE
8
boundary
62
5
39
2
10
78.281735
20
369.605280
11
79.110294
21
369.716119
0
LINE
8
boundary
62
5
39
2
10
79.110294
20
369.716119
11
79.930532
21
369.847038
0
LINE
8
boundary
62
5
39
2
10
79.930532
20
369.847038
11
80.742017
21
369.998105
0
LINE
8
boundary
62
5
39
2
10
80.742017
20
369.998105
11
81.544472
21
370.169195
0
LINE
8
boundary
62
5
39
2
10
81.544472
20
370.169195
11
82.337348
21
370.360201
0
LINE
8
boundary
62
5
39
2
10
82.337348
20
370.360201
11
83.120406
21
370.571194
0
LINE
8
boundary
62
5
39
2
10
83.120406
20
370.571194
11
83.893222
21
370.802235
0
LINE
8
boundary
62
5
39
2
10
83.893222
20
370.802235
11
84.655481
21
371.053016
0
LINE
8
boundary
62
5
39
2
10
84.655481
20
371.053016
11
85.406771
21
371.323682
0
LINE
8
boundary
62
5
39
2
10
85.406771
20
371.323682
11
86.146756
21
371.614152
0
LINE
8
boundary
62
5
39
2
10
86.146756
20
371.614152
11
86.875258
21
371.924337
0
LINE
8
boundary
62
5
39
2
10
86.875258
20
371.924337
11
87.591700
21
372.254256
0
LINE
8
boundary
62
5
39
2
10
87.591700
20
372.254256
11
88.295968
21
372.603795
0
LINE
8
boundary
62
5
39
2
10
88.295968
20
372.603795
11
88.987696
21
372.972915
0
LINE
8
boundary
62
5
39
2
10
88.987696
20
372.972915
11
89.666503
21
373.361637
0
LINE
8
boundary
62
5
39
2
10
89.666503
20
373.361637
11
90.332241
21
373.769724
0
LINE
8
boundary
62
5
39
2
10
90.332241
20
373.769724
11
90.984445
21
374.197231
0
LINE
8
boundary
62
5
39
2
10
90.984445
20
374.197231
11
91.622922
21
374.644159
0
LINE
8
boundary
62
5
39
2
10
91.622922
20
374.644159
11
92.247486
21
375.110421
0
LINE
8
boundary
62
5
39
2
10
92.247486
20
375.110421
11
92.857673
21
375.595909
0
LINE
8
boundary
62
5
39
2
10
92.857673
20
375.595909
11
93.453289
21
376.100532
0
LINE
8
boundary
62
5
39
2
10
93.453289
20
376.100532
11
94.034146
21
376.624417
0
LINE
8
boundary
62
5
39
2
10
94.034146
20
376.624417
11
94.599929
21
377.167239
0
LINE
8
boundary
62
5
39
2
10
94.599929
20
377.167239
11
95.150337
21
377.729242
0
LINE
8
boundary
62
5
39
2
10
95.150337
20
377.729242
11
95.685191
21
378.310102
0
LINE
8
boundary
62
5
39
2
10
95.685191
20
378.310102
11
96.204151
21
378.909941
0
LINE
8
boundary
62
5
39
2
10
96.204151
20
378.909941
11
96.707078
21
379.528621
0
LINE
8
boundary
62
5
39
2
10
96.707078
20
379.528621
11
97.193690
21
380.166184
0
LINE
8
boundary
62
5
39
2
10
97.193690
20
380.166184
11
97.781070
21
380.743191
0
LINE
8
boundary
62
5
39
2
10
97.781070
20
380.743191
11
98.305938
21
381.336386
0
LINE
8
boundary
62
5
39
2
10
98.305938
20
381.336386
11
98.769895
21
381.945216
0
LINE
8
boundary
62
5
39
2
10
98.769895
20
381.945216
11
99.174588
21
382.569237
0
LINE
8
boundary
62
5
39
2
10
99.174588
20
382.569237
11
99.521575
21
383.208012
0
LINE
8
boundary
62
5
39
2
10
99.521575
20
383.208012
11
99.812149
21
383.860934
0
LINE
8
boundary
62
5
39
2
10
99.812149
20
383.860934
11
100.047995
21
384.527796
0
LINE
8
boundary
62
5
39
2
10
100.047995
20
384.527796
11
100.230505
21
385.207992
0
LINE
8
boundary
62
5
39
2
10
100.230505
20
385.207992
11
100.360898
21
385.901252
0
LINE
8
boundary
62
5
39
2
10
100.360898
20
385.901252
11
100.440664
21
386.607027
0
LINE
8
boundary
62
5
39
2
10
100.440664
20
386.607027
11
100.470957
21
387.324982
0
LINE
8
boundary
62
5
39
2
10
100.470957
20
387.324982
11
100.453287
21
388.054853
0
LINE
8
boundary
62
5
39
2
10
100.453287
20
388.054853
11
100.388818
21
388.796203
0
LINE
8
boundary
62
5
39
2
10
100.388818
20
388.796203
11
100.278608
21
389.548464
0
LINE
8
boundary
62
5
39
2
10
100.278608
20
389.548464
11
100.124152
21
390.311497
0
LINE
8
boundary
62
5
39
2
10
100.124152
20
390.311497
11
99.926432
21
391.084875
0
LINE
8
boundary
62
5
39
2
10
99.926432
20
391.084875
11
99.686862
21
391.868264
0
LINE
8
boundary
62
5
39
2
10
99.686862
20
391.868264
11
99.406380
21
392.661220
0
LINE
8
boundary
62
5
39
2
10
99.406380
20
392.661220
11
99.086280
21
393.463422
0
LINE
8
boundary
62
5
39
2
10
99.086280
20
393.463422
11
98.727697
21
394.274450
0
LINE
8
boundary
62
5
39
2
10
98.727697
20
394.274450
11
98.331780
21
395.094068
0
LINE
8
boundary
62
5
39
2
10
98.331780
20
395.094068
11
97.899753
21
395.921754
0
LINE
8
boundary
62
5
39
2
10
97.899753
20
395.921754
11
97.432681
21
396.757156
0
LINE
8
boundary
62
5
39
2
10
97.432681
20
396.757156
11
96.931742
21
397.600013
0
LINE
8
boundary
62
5
39
2
10
96.931742
20
397.600013
11
96.398006
21
398.449600
0
LINE
8
boundary
62
5
39
2
10
96.398006
20
398.449600
11
95.832796
21
399.305989
0
LINE
8
boundary
62
5
39
2
10
95.832796
20
399.305989
11
95.237179
21
400.168509
0
LINE
8
boundary
62
5
39
2
10
95.237179
20
400.168509
11
94.612387
21
401.036793
0
LINE
8
boundary
62
5
39
2
10
94.612387
20
401.036793
11
93.959560
21
401.910360
0
LINE
8
boundary
62
5
39
2
10
93.959560
20
401.910360
11
93.279901
21
402.788931
0
LINE
8
boundary
62
5
39
2
10
93.279901
20
402.788931
11
92.574511
21
403.671874
0
LINE
8
boundary
62
5
39
2
10
92.574511
20
403.671874
11
91.844816
21
404.558959
0
LINE
8
boundary
62
5
39
2
10
91.844816
20
404.558959
11
91.091879
21
405.449769
0
LINE
8
boundary
62
5
39
2
10
91.091879
20
405.449769
11
90.316995
21
406.343652
0
LINE
8
boundary
62
5
39
2
10
90.316995
20
406.343652
11
89.521330
21
407.240305
0
LINE
8
boundary
62
5
39
2
10
89.521330
20
407.240305
11
88.706262
21
408.139196
0
LINE
8
boundary
62
5
39
2
10
88.706262
20
408.139196
11
87.873010
21
409.039983
0
LINE
8
boundary
62
5
39
2
10
87.873010
20
409.039983
11
87.022764
21
409.942003
0
LINE
8
boundary
62
5
39
2
10
87.022764
20
409.942003
11
86.156945
21
410.844903
0
LINE
8
boundary
62
5
39
2
10
86.156945
20
410.844903
11
85.276704
21
411.748250
0
LINE
8
boundary
62
5
39
2
10
85.276704
20
411.748250
11
84.383552
21
412.651497
0
LINE
8
boundary
62
5
39
2
10
84.383552
20
412.651497
11
83.478710
21
413.554185
0
LINE
8
boundary
62
5
39
2
10
83.478710
20
413.554185
11
81.639240
21
415.355893
0
LINE
8
boundary
62
5
39
2
10
81.639240
20
415.355893
11
79.769174
21
417.149402
0
LINE
8
boundary
62
5
39
2
10
79.769174
20
417.149402
11
77.879485
21
418.930805
0
LINE
8
boundary
62
5
39
2
10
77.879485
20
418.930805
11
75.981104
21
420.696042
0
LINE
8
boundary
62
5
39
2
10
75.981104
20
420.696042
11
74.085223
21
422.441281
0
LINE
8
boundary
62
5
39
2
10
74.085223
20
422.441281
11
73.324399
21
423.121281
0
LINE
8
boundary
62
5
39
2
10
73.324399
20
423.121281
11
70.345673
21
425.854867
0
LINE
8
boundary
62
5
39
2
10
70.345673
20
425.854867
11
69.602854
21
426.520281
0
LINE
8
boundary
62
5
39
2
10
69.602854
20
426.520281
11
66.750965
21
429.139623
0
LINE
8
boundary
62
5
39
2
10
66.750965
20
429.139623
11
65.035943
21
430.723544
0
LINE
8
boundary
62
5
39
2
10
65.035943
20
430.723544
11
63.390891
21
432.263054
0
LINE
8
boundary
62
5
39
2
10
63.390891
20
432.263054
11
62.395963
21
433.191350
0
LINE
8
boundary
62
5
39
2
10
62.395963
20
433.191350
11
61.405464
21
434.094630
0
LINE
8
boundary
62
5
39
2
10
61.405464
20
434.094630
11
60.419370
21
434.973029
0
LINE
8
boundary
62
5
39
2
10
60.419370
20
434.973029
11
59.437507
21
435.826998
0
LINE
8
boundary
62
5
39
2
10
59.437507
20
435.826998
11
58.459903
21
436.656898
0
LINE
8
boundary
62
5
39
2
10
58.459903
20
436.656898
11
57.486428
21
437.463087
0
LINE
8
boundary
62
5
39
2
10
57.486428
20
437.463087
11
56.517264
21
438.245922
0
LINE
8
boundary
62
5
39
2
10
56.517264
20
438.245922
11
55.552193
21
439.005856
0
LINE
8
boundary
62
5
39
2
10
55.552193
20
439.005856
11
54.591252
21
439.743011
0
LINE
8
boundary
62
5
39
2
10
54.591252
20
439.743011
11
53.634271
21
440.458171
0
LINE
8
boundary
62
5
39
2
10
53.634271
20
440.458171
11
52.681360
21
441.151292
0
LINE
8
boundary
62
5
39
2
10
52.681360
20
441.151292
11
51.732393
21
441.823018
0
LINE
8
boundary
62
5
39
2
10
51.732393
20
441.823018
11
50.787366
21
442.473544
0
LINE
8
boundary
62
5
39
2
10
50.787366
20
442.473544
11
49.846228
21
443.103333
0
LINE
8
boundary
62
5
39
2
10
49.846228
20
443.103333
11
48.908966
21
443.712801
0
LINE
8
boundary
62
5
39
2
10
48.908966
20
443.712801
11
47.975459
21
444.302281
0
LINE
8
boundary
62
5
39
2
10
47.975459
20
444.302281
11
47.045755
21
444.872059
0
LINE
8
boundary
62
5
39
2
10
47.045755
20
444.872059
11
46.119707
21
445.422679
0
LINE
8
boundary
62
5
39
2
10
46.119707
20
445.422679
11
45.197329
21
445.954547
0
LINE
8
boundary
62
5
39
2
10
45.197329
20
445.954547
11
44.278654
21
446.467712
0
LINE
8
boundary
62
5
39
2
10
44.278654
20
446.467712
11
43.363569
21
446.962868
0
LINE
8
boundary
62
5
39
2
10
43.363569
20
446.962868
11
42.451906
21
447.440219
0
LINE
8
boundary
62
5
39
2
10
42.451906
20
447.440219
11
41.543792
21
447.900343
0
LINE
8
boundary
62
5
39
2
10
41.543792
20
447.900343
11
40.639211
21
448.343533
0
LINE
8
boundary
62
5
39
2
10
40.639211
20
448.343533
11
39.738105
21
448.770171
0
LINE
8
boundary
62
5
39
2
10
39.738105
20
448.770171
11
38.840229
21
449.180540
0
LINE
8
boundary
62
5
39
2
10
38.840229
20
449.180540
11
37.945838
21
449.575173
0
LINE
8
boundary
62
5
39
2
10
37.945838
20
449.575173
11
37.054650
21
449.954398
0
LINE
8
boundary
62
5
39
2
10
37.054650
20
449.954398
11
36.166876
21
450.318500
0
LINE
8
boundary
62
5
39
2
10
36.166876
20
450.318500
11
35.282216
21
450.668114
0
LINE
8
boundary
62
5
39
2
10
35.282216
20
450.668114
11
34.400804
21
451.003470
0
LINE
8
boundary
62
5
39
2
10
34.400804
20
451.003470
11
33.522537
21
451.324944
0
LINE
8
boundary
62
5
39
2
10
33.522537
20
451.324944
11
32.647414
21
451.632978
0
LINE
8
boundary
62
5
39
2
10
32.647414
20
451.632978
11
31.775298
21
451.927817
0
LINE
8
boundary
62
5
39
2
10
31.775298
20
451.927817
11
30.906273
21
452.210234
0
LINE
8
boundary
62
5
39
2
10
30.906273
20
452.210234
11
30.040259
21
452.480183
0
LINE
8
boundary
62
5
39
2
10
30.040259
20
452.480183
11
29.177202
21
452.738315
0
LINE
8
boundary
62
5
39
2
10
29.177202
20
452.738315
11
28.317125
21
452.984873
0
LINE
8
boundary
62
5
39
2
10
28.317125
20
452.984873
11
27.459907
21
453.220333
0
LINE
8
boundary
62
5
39
2
10
27.459907
20
453.220333
11
26.605646
21
453.445240
0
LINE
8
boundary
62
5
39
2
10
26.605646
20
453.445240
11
25.754141
21
453.659708
0
LINE
8
boundary
62
5
39
2
10
25.754141
20
453.659708
11
24.905445
21
453.864282
0
LINE
8
boundary
62
5
39
2
10
24.905445
20
453.864282
11
23.216400
21
454.245165
0
LINE
8
boundary
62
5
39
2
10
23.216400
20
454.245165
11
21.538242
21
454.591251
0
LINE
8
boundary
62
5
39
2
10
21.538242
20
454.591251
11
19.870662
21
454.905551
0
LINE
8
boundary
62
5
39
2
10
19.870662
20
454.905551
11
18.213441
21
455.191344
0
LINE
8
boundary
62
5
39
2
10
18.213441
20
455.191344
11
16.566406
21
455.451551
0
LINE
8
boundary
62
5
39
2
10
16.566406
20
455.451551
11
14.929243
21
455.689805
0
LINE
8
boundary
62
5
39
2
10
14.929243
20
455.689805
11
13.301920
21
455.909011
0
LINE
8
boundary
62
5
39
2
10
13.301920
20
455.909011
11
11.684193
21
456.112200
0
LINE
8
boundary
62
5
39
2
10
11.684193
20
456.112200
11
10.075730
21
456.302949
0
LINE
8
boundary
62
5
39
2
10
10.075730
20
456.302949
11
6.886517
21
456.659447
0
LINE
8
boundary
62
5
39
2
10
6.886517
20
456.659447
11
6.786114
21
449.160487
0
LINE
8
boundary
62
5
39
2
10
6.786114
20
449.160487
11
11.147746
21
448.690145
0
LINE
8
boundary
62
5
39
2
10
11.147746
20
448.690145
11
12.403139
21
448.325847
0
LINE
8
boundary
62
5
39
2
10
12.403139
20
448.325847
11
13.641736
21
447.952655
0
LINE
8
boundary
62
5
39
2
10
13.641736
20
447.952655
11
14.220876
21
447.771776
0
LINE
8
boundary
62
5
39
2
10
14.220876
20
447.771776
11
31.251140
21
447.771776
0
LINE
8
boundary
62
5
39
2
10
31.251140
20
447.771776
11
31.251140
21
445.025776
0
LINE
8
boundary
62
5
39
2
10
31.251140
20
445.025776
11
22.431722
21
445.025776
0
LINE
8
boundary
62
5
39
2
10
22.431722
20
445.025776
11
22.947941
21
444.666638
0
LINE
8
boundary
62
5
39
2
10
22.947941
20
444.666638
11
24.036489
21
444.220342
0
LINE
8
boundary
62
5
39
2
10
24.036489
20
444.220342
11
25.108637
21
443.766822
0
LINE
8
boundary
62
5
39
2
10
25.108637
20
443.766822
11
26.164243
21
443.305834
0
LINE
8
boundary
62
5
39
2
10
26.164243
20
443.305834
11
27.203553
21
442.837887
0
LINE
8
boundary
62
5
39
2
10
27.203553
20
442.837887
11
28.226399
21
442.362886
0
LINE
8
boundary
62
5
39
2
10
28.226399
20
442.362886
11
29.233000
21
441.881117
0
LINE
8
boundary
62
5
39
2
10
29.233000
20
441.881117
11
30.223302
21
441.392659
0
LINE
8
boundary
62
5
39
2
10
30.223302
20
441.392659
11
31.197348
21
440.897658
0
LINE
8
boundary
62
5
39
2
10
31.197348
20
440.897658
11
32.155196
21
440.396226
0
LINE
8
boundary
62
5
39
2
10
32.155196
20
440.396226
11
33.096907
21
439.888720
0
LINE
8
boundary
62
5
39
2
10
33.096907
20
439.888720
11
34.022418
21
439.374891
0
LINE
8
boundary
62
5
39
2
10
34.022418
20
439.374891
11
34.931805
21
438.855179
0
LINE
8
boundary
62
5
39
2
10
34.931805
20
438.855179
11
35.825160
21
438.329644
0
LINE
8
boundary
62
5
39
2
10
35.825160
20
438.329644
11
36.702485
21
437.798505
0
LINE
8
boundary
62
5
39
2
10
36.702485
20
437.798505
11
37.563792
21
437.261761
0
LINE
8
boundary
62
5
39
2
10
37.563792
20
437.261761
11
38.409207
21
436.719667
0
LINE
8
boundary
62
5
39
2
10
38.409207
20
436.719667
11
39.238628
21
436.172157
0
LINE
8
boundary
62
5
39
2
10
39.238628
20
436.172157
11
40.052248
21
435.619707
0
LINE
8
boundary
62
5
39
2
10
40.052248
20
435.619707
11
40.850053
21
435.062219
0
LINE
8
boundary
62
5
39
2
10
40.850053
20
435.062219
11
41.632005
21
434.499923
0
LINE
8
boundary
62
5
39
2
10
41.632005
20
434.499923
11
42.398157
21
433.933009
0
LINE
8
boundary
62
5
39
2
10
42.398157
20
433.933009
11
43.148570
21
433.361456
0
LINE
8
boundary
62
5
39
2
10
43.148570
20
433.361456
11
43.883415
21
432.785534
0
LINE
8
boundary
62
5
39
2
10
43.883415
20
432.785534
11
44.602545
21
432.205425
0
LINE
8
boundary
62
5
39
2
10
44.602545
20
432.205425
11
45.306138
21
431.621082
0
LINE
8
boundary
62
5
39
2
10
45.306138
20
431.621082
11
45.994055
21
431.032854
0
LINE
8
boundary
62
5
39
2
10
45.994055
20
431.032854
11
46.666576
21
430.440641
0
LINE
8
boundary
62
5
39
2
10
46.666576
20
430.440641
11
47.323489
21
429.845001
0
LINE
8
boundary
62
5
39
2
10
47.323489
20
429.845001
11
47.965122
21
429.245524
0
LINE
8
boundary
62
5
39
2
10
47.965122
20
429.245524
11
48.591175
21
428.642726
0
LINE
8
boundary
62
5
39
2
10
48.591175
20
428.642726
11
49.202042
21
428.036638
0
LINE
8
boundary
62
5
39
2
10
49.202042
20
428.036638
11
49.797496
21
427.427426
0
LINE
8
boundary
62
5
39
2
10
49.797496
20
427.427426
11
50.377732
21
426.815254
0
LINE
8
boundary
62
5
39
2
10
50.377732
20
426.815254
11
50.942736
21
426.200181
0
LINE
8
boundary
62
5
39
2
10
50.942736
20
426.200181
11
51.492582
21
425.582417
0
LINE
8
boundary
62
5
39
2
10
51.492582
20
425.582417
11
52.027218
21
424.961945
0
LINE
8
boundary
62
5
39
2
10
52.027218
20
424.961945
11
52.546756
21
424.339077
0
LINE
8
boundary
62
5
39
2
10
52.546756
20
424.339077
11
53.051302
21
423.713863
0
LINE
8
boundary
62
5
39
2
10
53.051302
20
423.713863
11
53.540774
21
423.086543
0
LINE
8
boundary
62
5
39
2
10
53.540774
20
423.086543
11
54.015350
21
422.457108
0
LINE
8
boundary
62
5
39
2
10
54.015350
20
422.457108
11
54.474912
21
421.825944
0
LINE
8
boundary
62
5
39
2
10
54.474912
20
421.825944
11
54.919642
21
421.192728
0
LINE
8
boundary
62
5
39
2
10
54.919642
20
421.192728
11
55.349488
21
420.558083
0
LINE
8
boundary
62
5
39
2
10
55.349488
20
420.558083
11
55.764623
21
419.921853
0
LINE
8
boundary
62
5
39
2
10
55.764623
20
419.921853
11
56.164853
21
419.284262
0
LINE
8
boundary
62
5
39
2
10
56.164853
20
419.284262
11
56.550515
21
418.645538
0
LINE
8
boundary
62
5
39
2
10
56.550515
20
418.645538
11
56.921471
21
418.005611
0
LINE
8
boundary
62
5
39
2
10
56.921471
20
418.005611
11
57.277776
21
417.364858
0
LINE
8
boundary
62
5
39
2
10
57.277776
20
417.364858
11
57.619463
21
416.723108
0
LINE
8
boundary
62
5
39
2
10
57.619463
20
416.723108
11
57.946630
21
416.080790
0
LINE
8
boundary
62
5
39
2
10
57.946630
20
416.080790
11
58.259160
21
415.437888
0
LINE
8
boundary
62
5
39
2
10
58.259160
20
415.437888
11
58.557385
21
414.794511
0
LINE
8
boundary
62
5
39
2
10
58.557385
20
414.794511
11
58.841034
21
414.150903
0
LINE
8
boundary
62
5
39
2
10
58.841034
20
414.150903
11
59.110382
21
413.507151
0
LINE
8
boundary
62
5
39
2
10
59.110382
20
413.507151
11
59.167399
21
412.549893
0
LINE
8
boundary
62
5
39
2
10
59.167399
20
412.549893
11
59.249960
21
411.577033
0
LINE
8
boundary
62
5
39
2
10
59.249960
20
411.577033
11
59.352449
21
410.591844
0
LINE
8
boundary
62
5
39
2
10
59.352449
20
410.591844
11
59.469747
21
409.597873
0
LINE
8
boundary
62
5
39
2
10
59.469747
20
409.597873
11
59.726534
21
407.596907
0
LINE
8
boundary
62
5
39
2
10
59.726534
20
407.596907
11
59.976768
21
405.601511
0
LINE
8
boundary
62
5
39
2
10
59.976768
20
405.601511
11
60.085743
21
404.614307
0
LINE
8
boundary
62
5
39
2
10
60.085743
20
404.614307
11
60.176710
21
403.638691
0
LINE
8
boundary
62
5
39
2
10
60.176710
20
403.638691
11
60.243995
21
402.677991
0
LINE
8
boundary
62
5
39
2
10
60.243995
20
402.677991
11
60.282232
21
401.735660
0
LINE
8
boundary
62
5
39
2
10
60.282232
20
401.735660
11
60.285717
21
400.815036
0
LINE
8
boundary
62
5
39
2
10
60.285717
20
400.815036
11
60.267268
21
400.257729
0
LINE
8
boundary
62
5
39
2
10
60.267268
20
400.257729
11
60.213757
21
399.482384
0
LINE
8
boundary
62
5
39
2
10
60.213757
20
399.482384
11
60.151876
21
398.950754
0
LINE
8
boundary
62
5
39
2
10
60.151876
20
398.950754
11
60.032256
21
398.217771
0
LINE
8
boundary
62
5
39
2
10
60.032256
20
398.217771
11
59.918786
21
397.716576
0
LINE
8
boundary
62
5
39
2
10
59.918786
20
397.716576
11
59.722145
21
397.032683
0
LINE
8
boundary
62
5
39
2
10
59.722145
20
397.032683
11
59.434537
21
396.292640
0
LINE
8
boundary
62
5
39
2
10
59.434537
20
396.292640
11
59.075475
21
395.596319
0
LINE
8
boundary
62
5
39
2
10
59.075475
20
395.596319
11
58.639258
21
394.947481
0
LINE
8
boundary
62
5
39
2
10
58.639258
20
394.947481
11
58.119996
21
394.349382
0
LINE
8
boundary
62
5
39
2
10
58.119996
20
394.349382
11
57.745204
21
394.002040
0
LINE
8
boundary
62
5
39
2
10
57.745204
20
394.002040
11
57.172864
21
393.555040
0
LINE
8
boundary
62
5
39
2
10
57.172864
20
393.555040
11
56.705960
21
393.261518
0
LINE
8
boundary
62
5
39
2
10
56.705960
20
393.261518
11
56.005875
21
392.894527
0
LINE
8
boundary
62
5
39
2
10
56.005875
20
392.894527
11
55.437457
21
392.660032
0
LINE
8
boundary
62
5
39
2
10
55.437457
20
392.660032
11
54.599043
21
392.379513
0
LINE
8
boundary
62
5
39
2
10
54.599043
20
392.379513
11
54.073238
21
392.242254
0
LINE
8
boundary
62
5
39
2
10
54.073238
20
392.242254
11
53.517793
21
392.122916
0
LINE
8
boundary
62
5
39
2
10
53.517793
20
392.122916
11
52.931992
21
392.021882
0
LINE
8
boundary
62
5
39
2
10
52.931992
20
392.021882
11
52.314933
21
391.939752
0
LINE
8
boundary
62
5
39
2
10
52.314933
20
391.939752
11
51.665990
21
391.876813
0
LINE
8
boundary
62
5
39
2
10
51.665990
20
391.876813
11
50.984216
21
391.833501
0
LINE
8
boundary
62
5
39
2
10
50.984216
20
391.833501
11
50.269053
21
391.810403
0
LINE
8
boundary
62
5
39
2
10
50.269053
20
391.810403
11
49.519692
21
391.807818
0
LINE
8
boundary
62
5
39
2
10
49.519692
20
391.807818
11
48.735309
21
391.826327
0
LINE
8
boundary
62
5
39
2
10
48.735309
20
391.826327
11
47.915093
21
391.866206
0
LINE
8
boundary
62
5
39
2
10
47.915093
20
391.866206
11
47.058404
21
391.927960
0
LINE
8
boundary
62
5
39
2
10
47.058404
20
391.927960
11
46.164426
21
392.012050
0
LINE
8
boundary
62
5
39
2
10
46.164426
20
392.012050
11
45.665826
21
392.203630
0
LINE
8
boundary
62
5
39
2
10
45.665826
20
392.203630
11
44.538822
21
392.638116
0
LINE
8
boundary
62
5
39
2
10
44.538822
20
392.638116
11
44.046955
21
392.822100
0
LINE
8
boundary
62
5
39
2
10
44.046955
20
392.822100
11
42.953959
21
393.232292
0
LINE
8
boundary
62
5
39
2
10
42.953959
20
393.232292
11
42.466710
21
393.408667
0
LINE
8
boundary
62
5
39
2
10
42.466710
20
393.408667
11
41.401998
21
393.795164
0
LINE
8
boundary
62
5
39
2
10
41.401998
20
393.795164
11
40.917064
21
393.963848
0
LINE
8
boundary
62
5
39
2
10
40.917064
20
393.963848
11
39.874997
21
394.327236
0
LINE
8
boundary
62
5
39
2
10
39.874997
20
394.327236
11
39.389965
21
394.488205
0
LINE
8
boundary
62
5
39
2
10
39.389965
20
394.488205
11
38.365080
21
394.829011
0
LINE
8
boundary
62
5
39
2
10
38.365080
20
394.829011
11
37.877327
21
394.982303
0
LINE
8
boundary
62
5
39
2
10
37.877327
20
394.982303
11
36.864246
21
395.301290
0
LINE
8
boundary
62
5
39
2
10
36.864246
20
395.301290
11
36.371036
21
395.446943
0
LINE
8
boundary
62
5
39
2
10
36.371036
20
395.446943
11
35.364580
21
395.744604
0
LINE
8
boundary
62
5
39
2
10
35.364580
20
395.744604
11
34.862891
21
395.882626
0
LINE
8
boundary
62
5
39
2
10
34.862891
20
395.882626
11
33.857765
21
396.159347
0
LINE
8
boundary
62
5
39
2
10
33.857765
20
396.159347
11
33.344490
21
396.289841
0
LINE
8
boundary
62
5
39
2
10
33.344490
20
396.289841
11
32.335832
21
396.546473
0
LINE
8
boundary
62
5
39
2
10
32.335832
20
396.546473
11
31.807623
21
396.669506
0
LINE
8
boundary
62
5
39
2
10
31.807623
20
396.669506
11
30.790564
21
396.906380
0
LINE
8
boundary
62
5
39
2
10
30.790564
20
396.906380
11
30.243794
21
397.021994
0
LINE
8
boundary
62
5
39
2
10
30.243794
20
397.021994
11
29.213750
21
397.239646
0
LINE
8
boundary
62
5
39
2
10
29.213750
20
397.239646
11
28.644557
21
397.347943
0
LINE
8
boundary
62
5
39
2
10
28.644557
20
397.347943
11
27.597190
21
397.547027
0
LINE
8
boundary
62
5
39
2
10
27.597190
20
397.547027
11
27.001329
21
397.648029
0
LINE
8
boundary
62
5
39
2
10
27.001329
20
397.648029
11
25.932463
21
397.828904
0
LINE
8
boundary
62
5
39
2
10
25.932463
20
397.828904
11
25.305306
21
397.922821
0
LINE
8
boundary
62
5
39
2
10
25.305306
20
397.922821
11
24.211253
21
398.086265
0
LINE
8
boundary
62
5
39
2
10
24.211253
20
398.086265
11
23.547737
21
398.173051
0
LINE
8
boundary
62
5
39
2
10
23.547737
20
398.173051
11
22.425166
21
398.319456
0
LINE
8
boundary
62
5
39
2
10
22.425166
20
398.319456
11
21.719551
21
398.399261
0
LINE
8
boundary
62
5
39
2
10
21.719551
20
398.399261
11
20.565616
21
398.529171
0
LINE
8
boundary
62
5
39
2
10
20.565616
20
398.529171
11
20.653629
21
390.478505
0
LINE
8
boundary
62
5
39
2
10
20.653629
20
390.478505
11
20.804985
21
379.300386
0
LINE
8
boundary
62
5
39
2
10
20.804985
20
379.300386
11
25.290962
21
364.710317
0
LINE
8
boundary
62
5
39
2
10
25.290962
20
364.710317
11
34.225996
21
364.560317
0
LINE
8
boundary
62
5
39
2
10
34.225996
20
364.560317
11
34.225996
21
361.814317
0
LINE
8
boundary
62
5
39
2
10
34.225996
20
361.814317
11
26.239047
21
361.814317
0
LINE
8
boundary
62
5
39
2
10
26.239047
20
361.814317
11
32.425513
21
341.759713
0
LINE
8
boundary
62
5
39
2
10
32.425513
20
341.759713
11
32.841308
21
340.543863
0
LINE
8
boundary
62
5
39
2
10
32.841308
20
340.543863
11
33.194178
21
339.526978
0
LINE
8
boundary
62
5
39
2
10
33.194178
20
339.526978
11
33.591987
21
338.301005
0
LINE
8
boundary
62
5
39
2
10
33.591987
20
338.301005
11
33.927083
21
337.284805
0
LINE
8
boundary
62
5
39
2
10
33.927083
20
337.284805
11
34.306970
21
336.048730
0
LINE
8
boundary
62
5
39
2
10
34.306970
20
336.048730
11
34.624481
21
335.033594
0
LINE
8
boundary
62
5
39
2
10
34.624481
20
335.033594
11
34.986351
21
333.787162
0
LINE
8
boundary
62
5
39
2
10
34.986351
20
333.787162
11
35.286282
21
332.773496
0
LINE
8
boundary
62
5
39
2
10
35.286282
20
332.773496
11
35.630231
21
331.516350
0
LINE
8
boundary
62
5
39
2
10
35.630231
20
331.516350
11
35.912907
21
330.504636
0
LINE
8
boundary
62
5
39
2
10
35.912907
20
330.504636
11
36.238924
21
329.236652
0
LINE
8
boundary
62
5
39
2
10
36.238924
20
329.236652
11
36.504485
21
328.227200
0
LINE
8
boundary
62
5
39
2
10
36.504485
20
328.227200
11
36.812476
21
326.948160
0
LINE
8
boundary
62
5
39
2
10
36.812476
20
326.948160
11
37.061076
21
325.941455
0
LINE
8
boundary
62
5
39
2
10
37.061076
20
325.941455
11
37.350996
21
324.651149
0
LINE
8
boundary
62
5
39
2
10
37.350996
20
324.651149
11
37.582816
21
323.647554
0
LINE
8
boundary
62
5
39
2
10
37.582816
20
323.647554
11
37.854666
21
322.345810
0
LINE
8
boundary
62
5
39
2
10
37.854666
20
322.345810
11
38.069981
21
321.345697
0
LINE
8
boundary
62
5
39
2
10
38.069981
20
321.345697
11
38.323668
21
320.032294
0
LINE
8
boundary
62
5
39
2
10
38.323668
20
320.032294
11
38.522676
21
319.036088
0
LINE
8
boundary
62
5
39
2
10
38.522676
20
319.036088
11
38.758111
21
317.710845
0
LINE
8
boundary
62
5
39
2
10
38.758111
20
317.710845
11
38.941032
21
316.718970
0
LINE
8
boundary
62
5
39
2
10
38.941032
20
316.718970
11
39.158125
21
315.381701
0
LINE
8
boundary
62
5
39
2
10
39.158125
20
315.381701
11
39.325192
21
314.394452
0
LINE
8
boundary
62
5
39
2
10
39.325192
20
314.394452
11
39.523840
21
313.045029
0
LINE
8
boundary
62
5
39
2
10
39.523840
20
313.045029
11
39.675363
21
312.062823
0
LINE
8
boundary
62
5
39
2
10
39.675363
20
312.062823
11
39.855493
21
310.701115
0
LINE
8
boundary
62
5
39
2
10
39.855493
20
310.701115
11
39.991670
21
309.724350
0
LINE
8
boundary
62
5
39
2
10
39.991670
20
309.724350
11
40.153129
21
308.350084
0
LINE
8
boundary
62
5
39
2
10
40.153129
20
308.350084
11
40.274282
21
307.379093
0
LINE
8
boundary
62
5
39
2
10
40.274282
20
307.379093
11
40.416872
21
305.992284
0
LINE
8
boundary
62
5
39
2
10
40.416872
20
305.992284
11
40.523204
21
305.027487
0
LINE
8
boundary
62
5
39
2
10
40.523204
20
305.027487
11
40.646912
21
303.627927
0
LINE
8
boundary
62
5
39
2
10
40.646912
20
303.627927
11
40.738805
21
302.669619
0
LINE
8
boundary
62
5
39
2
10
40.738805
20
302.669619
11
40.843421
21
301.257174
0
LINE
8
boundary
62
5
39
2
10
40.843421
20
301.257174
11
40.921111
21
300.305675
0
LINE
8
boundary
62
5
39
2
10
40.921111
20
300.305675
11
41.006447
21
298.880363
0
LINE
8
boundary
62
5
39
2
10
41.006447
20
298.880363
11
41.070220
21
297.936114
0
LINE
8
boundary
62
5
39
2
10
41.070220
20
297.936114
11
41.136249
21
296.497699
0
LINE
8
boundary
62
5
39
2
10
41.136249
20
296.497699
11
41.186493
21
295.560908
0
LINE
8
boundary
62
5
39
2
10
41.186493
20
295.560908
11
41.232958
21
294.109494
0
LINE
8
boundary
62
5
39
2
10
41.232958
20
294.109494
11
41.269947
21
293.180637
0
LINE
8
boundary
62
5
39
2
10
41.269947
20
293.180637
11
41.296695
21
291.716094
0
LINE
8
boundary
62
5
39
2
10
41.296695
20
291.716094
11
41.320748
21
290.795399
0
LINE
8
boundary
62
5
39
2
10
41.320748
20
290.795399
11
41.327586
21
289.317579
0
LINE
8
boundary
62
5
39
2
10
41.327586
20
289.317579
11
41.339000
21
288.405323
0
LINE
8
boundary
62
5
39
2
10
41.339000
20
288.405323
11
41.325876
21
286.914392
0
LINE
8
boundary
62
5
39
2
10
41.325876
20
286.914392
11
41.325074
21
286.010915
0
LINE
8
boundary
62
5
39
2
10
41.325074
20
286.010915
11
41.291698
21
284.506712
0
LINE
8
boundary
62
5
39
2
10
41.291698
20
284.506712
11
41.278960
21
283.612350
0
LINE
8
boundary
62
5
39
2
10
41.278960
20
283.612350
11
41.225300
21
282.094957
0
LINE
8
boundary
62
5
39
2
10
41.225300
20
282.094957
11
41.201054
21
281.209928
0
LINE
8
boundary
62
5
39
2
10
41.201054
20
281.209928
11
41.126828
21
279.679388
0
LINE
8
boundary
62
5
39
2
10
41.126828
20
279.679388
11
41.091326
21
278.803981
0
LINE
8
boundary
62
5
39
2
10
41.091326
20
278.803981
11
40.996437
21
277.260374
0
LINE
8
boundary
62
5
39
2
10
40.996437
20
277.260374
11
40.950132
21
276.394891
0
LINE
8
boundary
62
5
39
2
10
40.950132
20
276.394891
11
40.834472
21
274.838150
0
LINE
8
boundary
62
5
39
2
10
40.834472
20
274.838150
11
40.777684
21
273.982793
0
LINE
8
boundary
62
5
39
2
10
40.777684
20
273.982793
11
40.641030
21
272.413186
0
LINE
8
boundary
62
5
39
2
10
40.641030
20
272.413186
11
40.574145
21
271.568236
0
LINE
8
boundary
62
5
39
2
10
40.574145
20
271.568236
11
40.416357
21
269.985704
0
LINE
8
boundary
62
5
39
2
10
40.416357
20
269.985704
11
40.339712
21
269.151381
0
LINE
8
boundary
62
5
39
2
10
40.339712
20
269.151381
11
40.160768
21
267.556162
0
LINE
8
boundary
62
5
39
2
10
40.160768
20
267.556162
11
40.074814
21
266.732699
0
LINE
8
boundary
62
5
39
2
10
40.074814
20
266.732699
11
39.874488
21
265.124844
0
LINE
8
boundary
62
5
39
2
10
39.874488
20
265.124844
11
39.779567
21
264.312431
0
LINE
8
boundary
62
5
39
2
10
39.779567
20
264.312431
11
39.557836
21
262.692184
0
LINE
8
boundary
62
5
39
2
10
39.557836
20
262.692184
11
39.454316
21
261.891060
0
LINE
8
boundary
62
5
39
2
10
39.454316
20
261.891060
11
39.210952
21
260.258552
0
LINE
8
boundary
62
5
39
2
10
39.210952
20
260.258552
11
39.099225
21
259.468907
0
LINE
8
boundary
62
5
39
2
10
39.099225
20
259.468907
11
38.834203
21
257.824367
0
LINE
8
boundary
62
5
39
2
10
38.834203
20
257.824367
11
38.714670
21
257.046373
0
LINE
8
boundary
62
5
39
2
10
38.714670
20
257.046373
11
38.427996
21
255.389986
0
LINE
8
boundary
62
5
39
2
10
38.427996
20
255.389986
11
38.301014
21
254.623802
0
LINE
8
boundary
62
5
39
2
10
38.301014
20
254.623802
11
37.992591
21
252.955868
0
LINE
8
boundary
62
5
39
2
10
37.992591
20
252.955868
11
37.858617
21
252.201704
0
LINE
8
boundary
62
5
39
2
10
37.858617
20
252.201704
11
37.528399
21
250.522402
0
LINE
8
boundary
62
5
39
2
10
37.528399
20
250.522402
11
37.387789
21
249.780372
0
LINE
8
boundary
62
5
39
2
10
37.387789
20
249.780372
11
37.035669
21
248.090001
0
LINE
8
boundary
62
5
39
2
10
37.035669
20
248.090001
11
36.888762
21
247.360278
0
LINE
8
boundary
62
5
39
2
10
36.888762
20
247.360278
11
36.514811
21
245.659180
0
LINE
8
boundary
62
5
39
2
10
36.514811
20
245.659180
11
36.362088
21
244.941914
0
LINE
8
boundary
62
5
39
2
10
36.362088
20
244.941914
11
35.966342
21
243.230405
0
LINE
8
boundary
62
5
39
2
10
35.966342
20
243.230405
11
35.808142
21
242.525690
0
LINE
8
boundary
62
5
39
2
10
35.808142
20
242.525690
11
35.390555
21
240.804028
0
LINE
8
boundary
62
5
39
2
10
35.390555
20
240.804028
11
35.227264
21
240.112006
0
LINE
8
boundary
62
5
39
2
10
35.227264
20
240.112006
11
34.787956
21
238.380540
0
LINE
8
boundary
62
5
39
2
10
34.787956
20
238.380540
11
34.619987
21
237.701336
0
LINE
8
boundary
62
5
39
2
10
34.619987
20
237.701336
11
34.158998
21
235.960475
0
LINE
8
boundary
62
5
39
2
10
34.158998
20
235.960475
11
33.986737
21
235.294199
0
LINE
8
boundary
62
5
39
2
10
33.986737
20
235.294199
11
33.504157
21
233.544312
0
LINE
8
boundary
62
5
39
2
10
33.504157
20
233.544312
11
33.327974
21
232.891036
0
LINE
8
boundary
62
5
39
2
10
33.327974
20
232.891036
11
32.823869
21
231.132448
0
LINE
8
boundary
62
5
39
2
10
32.823869
20
231.132448
11
32.644149
21
230.492298
0
LINE
8
boundary
62
5
39
2
10
32.644149
20
230.492298
11
32.118685
21
228.725473
0
LINE
8
boundary
62
5
39
2
10
32.118685
20
228.725473
11
31.935841
21
228.098545
0
LINE
8
boundary
62
5
39
2
10
31.935841
20
228.098545
11
31.389243
21
226.323857
0
LINE
8
boundary
62
5
39
2
10
31.389243
20
226.323857
11
31.203640
21
225.710197
0
LINE
8
boundary
62
5
39
2
10
31.203640
20
225.710197
11
30.636023
21
223.928060
0
LINE
8
boundary
62
5
39
2
10
30.636023
20
223.928060
11
30.448046
21
223.327812
0
LINE
8
boundary
62
5
39
2
10
30.448046
20
223.327812
11
29.859520
21
221.538670
0
LINE
8
boundary
62
5
39
2
10
29.859520
20
221.538670
11
29.669529
21
220.951874
0
LINE
8
boundary
62
5
39
2
10
29.669529
20
220.951874
11
29.060476
21
219.156214
0
LINE
8
boundary
62
5
39
2
10
29.060476
20
219.156214
11
28.868913
21
218.582981
0
LINE
8
boundary
62
5
39
2
10
28.868913
20
218.582981
11
28.239465
21
216.781160
0
LINE
8
boundary
62
5
39
2
10
28.239465
20
216.781160
11
28.046630
21
216.221555
0
LINE
8
boundary
62
5
39
2
10
28.046630
20
216.221555
11
27.397030
21
214.414074
0
LINE
8
boundary
62
5
39
2
10
27.397030
20
214.414074
11
27.203335
21
213.868179
0
LINE
8
boundary
62
5
39
2
10
27.203335
20
213.868179
11
26.533972
21
212.055451
0
LINE
8
boundary
62
5
39
2
10
26.533972
20
212.055451
11
26.339810
21
211.523345
0
LINE
8
boundary
62
5
39
2
10
26.339810
20
211.523345
11
25.650965
21
209.705871
0
LINE
8
boundary
62
5
39
2
10
25.650965
20
209.705871
11
25.456730
21
209.187662
0
LINE
8
boundary
62
5
39
2
10
25.456730
20
209.187662
11
24.748697
21
207.365845
0
LINE
8
boundary
62
5
39
2
10
24.748697
20
207.365845
11
24.554733
21
206.861608
0
LINE
8
boundary
62
5
39
2
10
24.554733
20
206.861608
11
23.827794
21
205.035899
0
LINE
8
boundary
62
5
39
2
10
23.827794
20
205.035899
11
23.634476
21
204.545766
0
LINE
8
boundary
62
5
39
2
10
23.634476
20
204.545766
11
22.116496
21
200.862070
0
LINE
8
boundary
62
5
39
2
10
22.116496
20
200.862070
11
21.742532
21
199.946860
0
LINE
8
boundary
62
5
39
2
10
21.742532
20
199.946860
11
20.152996
21
196.252240
0
LINE
8
boundary
62
5
39
2
10
20.152996
20
196.252240
11
19.787001
21
195.395430
0
LINE
8
boundary
62
5
39
2
10
19.787001
20
195.395430
11
18.129359
21
191.693195
0
LINE
8
boundary
62
5
39
2
10
18.129359
20
191.693195
11
17.774546
21
190.895966
0
LINE
8
boundary
62
5
39
2
10
17.774546
20
190.895966
11
16.750886
21
186.951658
0
LINE
8
boundary
62
5
39
2
10
16.750886
20
186.951658
11
16.529117
21
186.094937
0
LINE
8
boundary
62
5
39
2
10
16.529117
20
186.094937
11
15.481616
21
182.022240
0
LINE
8
boundary
62
5
39
2
10
15.481616
20
182.022240
11
15.251469
21
181.126345
0
LINE
8
boundary
62
5
39
2
10
15.251469
20
181.126345
11
14.727130
21
179.051235
0
LINE
8
boundary
62
5
39
2
10
14.727130
20
179.051235
11
14.086980
21
176.480494
0
LINE
8
boundary
62
5
39
2
10
14.086980
20
176.480494
11
13.451527
21
173.872969
0
LINE
8
boundary
62
5
39
2
10
13.451527
20
173.872969
11
13.330293
21
173.374094
0
LINE
8
boundary
62
5
39
2
10
13.330293
20
173.374094
11
12.824119
21
171.229805
0
LINE
8
boundary
62
5
39
2
10
12.824119
20
171.229805
11
12.701908
21
170.713405
0
LINE
8
boundary
62
5
39
2
10
12.701908
20
170.713405
11
12.208134
21
168.551932
0
LINE
8
boundary
62
5
39
2
10
12.208134
20
168.551932
11
12.085189
21
168.015607
0
LINE
8
boundary
62
5
39
2
10
12.085189
20
168.015607
11
11.606972
21
165.840460
0
LINE
8
boundary
62
5
39
2
10
11.606972
20
165.840460
11
11.483519
21
165.281498
0
LINE
8
boundary
62
5
39
2
10
11.483519
20
165.281498
11
11.024031
21
163.096380
0
LINE
8
boundary
62
5
39
2
10
11.024031
20
163.096380
11
10.900426
21
162.511813
0
LINE
8
boundary
62
5
39
2
10
10.900426
20
162.511813
11
10.462900
21
160.320657
0
LINE
8
boundary
62
5
39
2
10
10.462900
20
160.320657
11
10.339541
21
159.707174
0
LINE
8
boundary
62
5
39
2
10
10.339541
20
159.707174
11
9.926908
21
157.514248
0
LINE
8
boundary
62
5
39
2
10
9.926908
20
157.514248
11
9.804333
21
156.868233
0
LINE
8
boundary
62
5
39
2
10
9.804333
20
156.868233
11
9.419549
21
154.678071
0
LINE
8
boundary
62
5
39
2
10
9.419549
20
154.678071
11
9.298427
21
153.995625
0
LINE
8
boundary
62
5
39
2
10
9.298427
20
153.995625
11
8.944413
21
151.813033
0
LINE
8
boundary
62
5
39
2
10
8.944413
20
151.813033
11
8.825692
21
151.089974
0
LINE
8
boundary
62
5
39
2
10
8.825692
20
151.089974
11
8.504877
21
148.920005
0
LINE
8
boundary
62
5
39
2
10
8.504877
20
148.920005
11
8.389626
21
148.151905
0
LINE
8
boundary
62
5
39
2
10
8.389626
20
148.151905
11
8.104316
21
145.999669
0
LINE
8
boundary
62
5
39
2
10
8.104316
20
145.999669
11
7.993941
21
145.181858
0
LINE
8
boundary
62
5
39
2
10
7.993941
20
145.181858
11
7.746245
21
143.052797
0
LINE
8
boundary
62
5
39
2
10
7.746245
20
143.052797
11
7.642477
21
142.180424
0
LINE
8
boundary
62
5
39
2
10
7.642477
20
142.180424
11
7.433992
21
140.080041
0
LINE
8
boundary
62
5
39
2
10
7.433992
20
140.080041
11
7.338887
21
139.148120
0
LINE
8
boundary
62
5
39
2
10
7.338887
20
139.148120
11
7.249601
21
138.108560
0
LINE
8
boundary
62
5
39
2
10
7.249601
20
138.108560
11
7.127233
21
136.590162
0
LINE
8
boundary
62
5
39
2
10
7.127233
20
136.590162
11
7.018406
21
135.064874
0
LINE
8
boundary
62
5
39
2
10
7.018406
20
135.064874
11
6.981680
21
134.542950
0
LINE
8
boundary
62
5
39
2
10
6.981680
20
134.542950
11
6.923499
21
133.532866
0
LINE
8
boundary
62
5
39
2
10
6.923499
20
133.532866
11
6.890667
21
132.993022
0
LINE
8
boundary
62
5
39
2
10
6.890667
20
132.993022
11
6.842976
21
131.994148
0
LINE
8
boundary
62
5
39
2
10
6.842976
20
131.994148
11
6.814433
21
131.435794
0
LINE
8
boundary
62
5
39
2
10
6.814433
20
131.435794
11
6.777311
21
130.448768
0
LINE
8
boundary
62
5
39
2
10
6.777311
20
130.448768
11
6.753567
21
129.871252
0
LINE
8
boundary
62
5
39
2
10
6.753567
20
129.871252
11
6.726945
21
128.896730
0
LINE
8
boundary
62
5
39
2
10
6.726945
20
128.896730
11
6.708515
21
128.299448
0
LINE
8
boundary
62
5
39
2
10
6.708515
20
128.299448
11
6.692326
21
127.338122
0
LINE
8
boundary
62
5
39
2
10
6.692326
20
127.338122
11
6.679629
21
126.720506
0
LINE
8
boundary
62
5
39
2
10
6.679629
20
126.720506
11
6.673845
21
125.773044
0
LINE
8
boundary
62
5
39
2
10
6.673845
20
125.773044
11
6.667500
21
125.134562
0
LINE
8
boundary
62
5
39
2
10
6.667500
20
125.134562
11
6.671886
21
124.201462
0
LINE
8
boundary
62
5
39
2
10
6.671886
20
124.201462
11
6.672399
21
123.541488
0
LINE
8
boundary
62
5
39
2
10
6.672399
20
123.541488
11
6.687021
21
122.623421
0
LINE
8
boundary
62
5
39
2
10
6.687021
20
122.623421
11
6.695093
21
121.941505
0
LINE
8
boundary
62
5
39
2
10
6.695093
20
121.941505
11
6.719667
21
121.039024
0
LINE
8
boundary
62
5
39
2
10
6.719667
20
121.039024
11
6.735923
21
120.334646
0
LINE
8
boundary
62
5
39
2
10
6.735923
20
120.334646
11
6.770287
21
119.448279
0
LINE
8
boundary
62
5
39
2
10
6.770287
20
119.448279
11
6.795322
21
118.720965
0
LINE
8
boundary
62
5
39
2
10
6.795322
20
118.720965
11
6.839221
21
117.851194
0
LINE
8
boundary
62
5
39
2
10
6.839221
20
117.851194
11
6.873797
21
117.100485
0
LINE
8
boundary
62
5
39
2
10
6.873797
20
117.100485
11
6.927026
21
116.247797
0
LINE
8
boundary
62
5
39
2
10
6.927026
20
116.247797
11
6.971782
21
115.473320
0
LINE
8
boundary
62
5
39
2
10
6.971782
20
115.473320
11
7.033973
21
114.638194
0
LINE
8
boundary
62
5
39
2
10
7.033973
20
114.638194
11
7.089682
21
113.839594
0
LINE
8
boundary
62
5
39
2
10
7.089682
20
113.839594
11
7.160709
21
113.022412
0
LINE
8
boundary
62
5
39
2
10
7.160709
20
113.022412
11
7.228234
21
112.199317
0
LINE
8
boundary
62
5
39
2
10
7.228234
20
112.199317
11
7.307619
21
111.400459
0
LINE
8
boundary
62
5
39
2
10
7.307619
20
111.400459
11
7.387586
21
110.552585
0
LINE
8
boundary
62
5
39
2
10
7.387586
20
110.552585
11
7.474990
21
109.772413
0
LINE
8
boundary
62
5
39
2
10
7.474990
20
109.772413
11
7.568290
21
108.899541
0
LINE
8
boundary
62
5
39
2
10
7.568290
20
108.899541
11
7.663418
21
108.138335
0
LINE
8
boundary
62
5
39
2
10
7.663418
20
108.138335
11
7.770856
21
107.240236
0
LINE
8
boundary
62
5
39
2
10
7.770856
20
107.240236
11
7.873288
21
106.498235
0
LINE
8
boundary
62
5
39
2
10
7.873288
20
106.498235
11
7.995689
21
105.574710
0
LINE
8
boundary
62
5
39
2
10
7.995689
20
105.574710
11
8.105074
21
104.852161
0
LINE
8
boundary
62
5
39
2
10
8.105074
20
104.852161
11
8.243357
21
103.903108
0
LINE
8
boundary
62
5
39
2
10
8.243357
20
103.903108
11
8.359229
21
103.200236
0
LINE
8
boundary
62
5
39
2
10
8.359229
20
103.200236
11
8.514185
21
102.225602
0
LINE
8
boundary
62
5
39
2
10
8.514185
20
102.225602
11
8.636089
21
101.542483
0
LINE
8
boundary
62
5
39
2
10
8.636089
20
101.542483
11
8.808565
21
100.542196
0
LINE
8
boundary
62
5
39
2
10
8.808565
20
100.542196
11
8.936125
21
99.879011
0
LINE
8
boundary
62
5
39
2
10
8.936125
20
99.879011
11
9.127068
21
98.853124
0
LINE
8
boundary
62
5
39
2
10
9.127068
20
98.853124
11
9.259859
21
98.209890
0
LINE
8
boundary
62
5
39
2
10
9.259859
20
98.209890
11
9.470131
21
97.158412
0
LINE
8
boundary
62
5
39
2
10
9.470131
20
97.158412
11
9.686057
21
95.416474
0
LINE
8
boundary
62
5
39
2
10
9.686057
20
95.416474
11
10.056863
21
92.256837
0
LINE
8
boundary
62
5
39
2
10
10.056863
20
92.256837
11
10.259339
21
90.594862
0
LINE
8
boundary
62
5
39
2
10
10.259339
20
90.594862
11
10.664610
21
87.064669
0
LINE
8
boundary
62
5
39
2
10
10.664610
20
87.064669
11
10.763860
21
86.277518
0
LINE
8
boundary
62
5
39
2
10
10.763860
20
86.277518
11
10.990534
21
84.370031
0
LINE
8
boundary
62
5
39
2
10
10.990534
20
84.370031
11
11.089817
21
83.617270
0
LINE
8
boundary
62
5
39
2
10
11.089817
20
83.617270
11
11.338862
21
81.615396
0
LINE
8
boundary
62
5
39
2
10
11.338862
20
81.615396
11
11.438663
21
80.900871
0
LINE
8
boundary
62
5
39
2
10
11.438663
20
80.900871
11
11.715135
21
78.805228
0
LINE
8
boundary
62
5
39
2
10
11.715135
20
78.805228
11
11.815725
21
78.132346
0
LINE
8
boundary
62
5
39
2
10
11.815725
20
78.132346
11
12.125221
21
75.943876
0
LINE
8
boundary
62
5
39
2
10
12.125221
20
75.943876
11
12.226482
21
75.315636
0
LINE
8
boundary
62
5
39
2
10
12.226482
20
75.315636
11
12.574838
21
73.035975
0
LINE
8
boundary
62
5
39
2
10
12.574838
20
73.035975
11
12.676427
21
72.454943
0
LINE
8
boundary
62
5
39
2
10
12.676427
20
72.454943
11
13.069849
21
70.086195
0
LINE
8
boundary
62
5
39
2
10
13.069849
20
70.086195
11
13.171061
21
69.554417
0
LINE
8
boundary
62
5
39
2
10
13.171061
20
69.554417
11
13.615991
21
67.099470
0
LINE
8
boundary
62
5
39
2
10
13.615991
20
67.099470
11
13.910102
21
65.593767
0
LINE
8
boundary
62
5
39
2
10
13.910102
20
65.593767
11
14.219206
21
64.080701
0
LINE
8
boundary
62
5
39
2
10
14.219206
20
64.080701
11
14.544073
21
62.560927
0
LINE
8
boundary
62
5
39
2
10
14.544073
20
62.560927
11
14.885244
21
61.035204
0
LINE
8
boundary
62
5
39
2
10
14.885244
20
61.035204
11
15.243640
21
59.504055
0
LINE
8
boundary
62
5
39
2
10
15.243640
20
59.504055
11
15.620065
21
57.968333
0
LINE
8
boundary
62
5
39
2
10
15.620065
20
57.968333
11
16.015061
21
56.428581
0
LINE
8
boundary
62
5
39
2
10
16.015061
20
56.428581
11
16.429486
21
54.885784
0
LINE
8
boundary
62
5
39
2
10
16.429486
20
54.885784
11
16.863950
21
53.340443
0
LINE
8
boundary
62
5
39
2
10
16.863950
20
53.340443
11
17.319303
21
51.793421
0
LINE
8
boundary
62
5
39
2
10
17.319303
20
51.793421
11
17.796260
21
50.245597
0
LINE
8
boundary
62
5
39
2
10
17.796260
20
50.245597
11
18.295635
21
48.697664
0
LINE
8
boundary
62
5
39
2
10
18.295635
20
48.697664
11
18.818057
21
47.150458
0
LINE
8
boundary
62
5
39
2
10
18.818057
20
47.150458
11
19.364186
21
45.605014
0
LINE
8
boundary
62
5
39
2
10
19.364186
20
45.605014
11
19.935016
21
44.062001
0
LINE
8
boundary
62
5
39
2
10
19.935016
20
44.062001
11
20.531051
21
42.522442
0
LINE
8
boundary
62
5
39
2
10
20.531051
20
42.522442
11
21.153233
21
40.987305
0
LINE
8
boundary
62
5
39
2
10
21.153233
20
40.987305
11
21.802190
21
39.457550
0
LINE
8
boundary
62
5
39
2
10
21.802190
20
39.457550
11
22.478546
21
37.934123
0
LINE
8
boundary
62
5
39
2
10
22.478546
20
37.934123
11
23.183370
21
36.418162
0
LINE
8
boundary
62
5
39
2
10
23.183370
20
36.418162
11
23.491173
21
35.785862
0
LINE
8
boundary
62
5
39
2
10
23.491173
20
35.785862
11
23.905697
21
34.918811
0
LINE
8
boundary
62
5
39
2
10
23.905697
20
34.918811
11
24.649386
21
33.434640
0
LINE
8
boundary
62
5
39
2
10
24.649386
20
33.434640
11
25.423762
21
31.960680
0
LINE
8
boundary
62
5
39
2
10
25.423762
20
31.960680
11
26.229594
21
30.498125
0
LINE
8
boundary
62
5
39
2
10
26.229594
20
30.498125
11
27.067421
21
29.048281
0
LINE
8
boundary
62
5
39
2
10
27.067421
20
29.048281
11
27.938209
21
27.612394
0
LINE
8
boundary
62
5
39
2
10
27.938209
20
27.612394
11
28.842697
21
26.191754
0
LINE
8
boundary
62
5
39
2
10
28.842697
20
26.191754
11
29.781665
21
24.787724
0
LINE
8
boundary
62
5
39
2
10
29.781665
20
24.787724
11
30.755911
21
23.401760
0
LINE
8
boundary
62
5
39
2
10
30.755911
20
23.401760
11
31.766241
21
22.035281
0
LINE
8
boundary
62
5
39
2
10
31.766241
20
22.035281
11
32.813351
21
20.689971
0
LINE
8
boundary
62
5
39
2
10
32.813351
20
20.689971
11
33.898232
21
19.367366
0
LINE
8
boundary
62
5
39
2
10
33.898232
20
19.367366
11
35.021537
21
18.069075
0
LINE
8
boundary
62
5
39
2
10
35.021537
20
18.069075
11
36.184115
21
16.796904
0
LINE
8
boundary
62
5
39
2
10
36.184115
20
16.796904
11
37.386859
21
15.552611
0
LINE
8
boundary
62
5
39
2
10
37.386859
20
15.552611
11
38.630285
21
14.338062
0
LINE
8
boundary
62
5
39
2
10
38.630285
20
14.338062
11
39.915312
21
13.155343
0
LINE
8
boundary
62
5
39
2
10
39.915312
20
13.155343
11
41.242803
21
12.006350
0
LINE
8
boundary
62
5
39
2
10
41.242803
20
12.006350
11
42.613495
21
10.893186
0
LINE
8
boundary
62
5
39
2
10
42.613495
20
10.893186
11
44.028161
21
9.818139
0
LINE
8
boundary
62
5
39
2
10
44.028161
20
9.818139
11
45.487536
21
8.783372
0
LINE
8
boundary
62
5
39
2
10
45.487536
20
8.783372
11
46.992449
21
7.791236
0
LINE
8
boundary
62
5
39
2
10
46.992449
20
7.791236
11
47.400306
21
7.467621
0
LINE
8
boundary
62
5
39
2
10
47.400306
20
7.467621
11
48.213674
21
7.045993
0
LINE
8
boundary
62
5
39
2
10
48.213674
20
7.045993
11
48.708168
21
6.889013
0
LINE
8
boundary
62
5
39
2
10
48.708168
20
6.889013
11
48.739604
21
6.879592
0
LINE
8
annotation
62
1
39
211
10
40.464950
20
360.942029
11
40.464950
21
365.432605
0
LINE
8
annotation
62
1
39
211
10
40.464950
20
365.432605
11
39.466638
21
364.434011
0
LINE
8
annotation
62
1
39
211
10
37.932638
20
444.172252
11
35.954965
21
444.172252
0
LINE
8
annotation
62
1
39
211
10
35.954965
20
444.172252
11
37.782400
21
447.114187
0
LINE
8
annotation
62
1
39
211
10
37.782400
20
447.114187
11
37.782400
21
447.114187
0
LINE
8
annotation
62
1
39
211
10
37.782400
20
447.114187
11
37.784584
21
447.116891
0
LINE
8
annotation
62
1
39
211
10
37.784584
20
447.116891
11
37.786679
21
447.119617
0
LINE
8
annotation
62
1
39
211
10
37.786679
20
447.119617
11
37.788698
21
447.122389
0
LINE
8
annotation
62
1
39
211
10
37.788698
20
447.122389
11
37.790655
21
447.125230
0
LINE
8
annotation
62
1
39
211
10
37.790655
20
447.125230
11
37.792564
21
447.128164
0
LINE
8
annotation
62
1
39
211
10
37.792564
20
447.128164
11
37.794438
21
447.131212
0
LINE
8
annotation
62
1
39
211
10
37.794438
20
447.131212
11
37.796292
21
447.134397
0
LINE
8
annotation
62
1
39
211
10
37.796292
20
447.134397
11
37.798139
21
447.137744
0
LINE
8
annotation
62
1
39
211
10
37.798139
20
447.137744
11
37.799992
21
447.141275
0
LINE
8
annotation
62
1
39
211
10
37.799992
20
447.141275
11
37.799992
21
447.141275
0
LINE
8
annotation
62
1
39
211
10
37.799992
20
447.141275
11
37.875447
21
447.303282
0
LINE
8
annotation
62
1
39
211
10
37.875447
20
447.303282
11
37.919526
21
447.471216
0
LINE
8
annotation
62
1
39
211
10
37.919526
20
447.471216
11
37.933310
21
447.641284
0
LINE
8
annotation
62
1
39
211
10
37.933310
20
447.641284
11
37.917880
21
447.809689
0
LINE
8
annotation
62
1
39
211
10
37.917880
20
447.809689
11
37.874315
21
447.972638
0
LINE
8
annotation
62
1
39
211
10
37.874315
20
447.972638
11
37.803695
21
448.126337
0
LINE
8
annotation
62
1
39
211
10
37.803695
20
448.126337
11
37.707102
21
448.266989
0
LINE
8
annotation
62
1
39
211
10
37.707102
20
448.266989
11
37.585615
21
448.390801
0
LINE
8
annotation
62
1
39
211
10
37.585615
20
448.390801
11
37.440314
21
448.493979
0
LINE
8
annotation
62
1
39
211
10
37.440314
20
448.493979
11
37.440314
21
448.493979
0
LINE
8
annotation
62
1
39
211
10
37.440314
20
448.493979
11
37.277857
21
448.568361
0
LINE
8
annotation
62
1
39
211
10
37.277857
20
448.568361
11
37.109665
21
448.611761
0
LINE
8
annotation
62
1
39
211
10
37.109665
20
448.611761
11
36.939499
21
448.625156
0
LINE
8
annotation
62
1
39
211
10
36.939499
20
448.625156
11
36.771118
21
448.609522
0
LINE
8
annotation
62
1
39
211
10
36.771118
20
448.609522
11
36.608284
21
448.565836
0
LINE
8
annotation
62
1
39
211
10
36.608284
20
448.565836
11
36.454756
21
448.495075
0
LINE
8
annotation
62
1
39
211
10
36.454756
20
448.495075
11
36.314294
21
448.398216
0
LINE
8
annotation
62
1
39
211
10
36.314294
20
448.398216
11
36.190659
21
448.276236
0
LINE
8
annotation
62
1
39
211
10
36.190659
20
448.276236
11
36.087610
21
448.130112
0
LINE
8
annotation
62
1
39
211
10
36.087610
20
448.130112
11
35.957757
21
447.881018
0
LINE
8
annotation
62
1
39
211
10
65.277199
20
386.898347
11
62.575623
21
382.990764
0
LINE
8
annotation
62
1
39
211
10
62.575623
20
382.990764
11
59.873538
21
386.898347
0
LINE
8
annotation
62
1
39
211
10
62.575623
20
383.305220
11
62.575623
21
378.797174
0
LINE
8
annotation
62
1
39
211
10
72.745269
20
382.847760
11
68.315964
21
382.847760
0
LINE
8
annotation
62
1
39
211
10
77.583392
20
378.797428
11
77.583392
21
386.898093
0
LINE
8
annotation
62
1
39
211
10
77.583392
20
386.898093
11
75.782511
21
385.096703
0
LINE
8
annotation
62
1
39
211
10
82.422023
20
378.797428
11
82.422023
21
386.898093
0
LINE
8
annotation
62
1
39
211
10
82.422023
20
386.898093
11
80.621142
21
385.096703
0
LINE
8
frame
62
5
39
2
10
0.000000
20
0.000000
11
215.900000
21
0.000000
0
LINE
8
frame
62
5
39
2
10
215.900000
20
0.000000
11
215.900000
21
279.400000
0
LINE
8
frame
62
5
39
2
10
215.900000
20
279.400000
11
0.000000
21
279.400000
0
LINE
8
frame
62
5
39
2
10
0.000000
20
279.400000
11
0.000000
21
0.000000
0
ENDSEC
0
EOF
