0
SECTION
2
HEADER
9
$ACADVER
1
AC1009
0
ENDSEC
0
SECTION
2
TABLES
0
TABLE
2
VPORT
70
1
0
VPORT
2
ACTIVE
70
0
10
0.0
20
0.0
11
0.0
21
0.0
12
0.0
22
0.0
13
0.0
23
0.0
14
0.0
24
0.0
15
0.0
25
0.0
16
0.0
26
0.0
36
0.0
17
0.0
27
0.0
37
0.0
40
0.0
41
0.0
42
0.0
43
0.0
44
0.0
50
0.0
51
0.0
71
0
72
1000
73
1
74
3
75
0
76
0
77
0
78
0
0
ENDTAB
0
ENDSEC
0
SECTION
2
ENTITIES
0
LINE
8
boundary
62
5
39
2
10
38.610847
20
23.469766
11
39.550212
21
22.495674
0
LINE
8
boundary
62
5
39
2
10
39.550212
20
22.495674
11
40.726016
21
21.338913
0
LINE
8
boundary
62
5
39
2
10
40.726016
20
21.338913
11
41.941525
21
20.205790
0
LINE
8
boundary
62
5
39
2
10
41.941525
20
20.205790
11
43.197395
21
19.097783
0
LINE
8
boundary
62
5
39
2
10
43.197395
20
19.097783
11
44.494589
21
18.016300
0
LINE
8
boundary
62
5
39
2
10
44.494589
20
18.016300
11
45.833939
21
16.963005
0
LINE
8
boundary
62
5
39
2
10
45.833939
20
16.963005
11
47.216280
21
15.939472
0
LINE
8
boundary
62
5
39
2
10
47.216280
20
15.939472
11
48.642460
21
14.947273
0
LINE
8
boundary
62
5
39
2
10
48.642460
20
14.947273
11
50.113363
21
13.988051
0
LINE
8
boundary
62
5
39
2
10
50.113363
20
13.988051
11
51.629742
21
13.063445
0
LINE
8
boundary
62
5
39
2
10
51.629742
20
13.063445
11
53.192515
21
12.175348
0
LINE
8
boundary
62
5
39
2
10
53.192515
20
12.175348
11
54.802325
21
11.325339
0
LINE
8
boundary
62
5
39
2
10
54.802325
20
11.325339
11
56.460045
21
10.515386
0
LINE
8
boundary
62
5
39
2
10
56.460045
20
10.515386
11
58.166462
21
9.747208
0
LINE
8
boundary
62
5
39
2
10
58.166462
20
9.747208
11
59.922415
21
9.022714
0
LINE
8
boundary
62
5
39
2
10
59.922415
20
9.022714
11
61.728520
21
8.343929
0
LINE
8
boundary
62
5
39
2
10
61.728520
20
8.343929
11
63.585731
21
7.712665
0
LINE
8
boundary
62
5
39
2
10
63.585731
20
7.712665
11
65.494630
21
7.130942
0
LINE
8
boundary
62
5
39
2
10
65.494630
20
7.130942
11
66.032537
21
6.921554
0
LINE
8
boundary
62
5
39
2
10
66.032537
20
6.921554
11
66.535152
21
6.787343
0
LINE
8
boundary
62
5
39
2
10
66.535152
20
6.787343
11
67.044977
21
6.710347
0
LINE
8
boundary
62
5
39
2
10
67.044977
20
6.710347
11
67.641309
21
6.669986
0
LINE
8
boundary
62
5
39
2
10
67.641309
20
6.669986
11
68.283587
21
6.675154
0
LINE
8
boundary
62
5
39
2
10
68.283587
20
6.675154
11
68.964357
21
6.725772
0
LINE
8
boundary
62
5
39
2
10
68.964357
20
6.725772
11
69.676402
21
6.821684
0
LINE
8
boundary
62
5
39
2
10
69.676402
20
6.821684
11
70.412340
21
6.962638
0
LINE
8
boundary
62
5
39
2
10
70.412340
20
6.962638
11
71.164816
21
7.148258
0
LINE
8
boundary
62
5
39
2
10
71.164816
20
7.148258
11
71.926443
21
7.378066
0
LINE
8
boundary
62
5
39
2
10
71.926443
20
7.378066
11
72.689790
21
7.651718
0
LINE
8
boundary
62
5
39
2
10
72.689790
20
7.651718
11
73.447702
21
7.968595
0
LINE
8
boundary
62
5
39
2
10
73.447702
20
7.968595
11
74.192583
21
8.328018
0
LINE
8
boundary
62
5
39
2
10
74.192583
20
8.328018
11
74.917119
21
8.729273
0
LINE
8
boundary
62
5
39
2
10
74.917119
20
8.729273
11
75.614098
21
9.171713
0
LINE
8
boundary
62
5
39
2
10
75.614098
20
9.171713
11
76.275981
21
9.654420
0
LINE
8
boundary
62
5
39
2
10
76.275981
20
9.654420
11
76.913997
21
10.192375
0
LINE
8
boundary
62
5
39
2
10
76.913997
20
10.192375
11
77.482249
21
10.754053
0
LINE
8
boundary
62
5
39
2
10
77.482249
20
10.754053
11
77.993440
21
11.353352
0
LINE
8
boundary
62
5
39
2
10
77.993440
20
11.353352
11
78.440328
21
11.989548
0
LINE
8
boundary
62
5
39
2
10
78.440328
20
11.989548
11
78.815964
21
12.661754
0
LINE
8
boundary
62
5
39
2
10
78.815964
20
12.661754
11
79.112923
21
13.369101
0
LINE
8
boundary
62
5
39
2
10
79.112923
20
13.369101
11
79.324193
21
14.111001
0
LINE
8
boundary
62
5
39
2
10
79.324193
20
14.111001
11
79.442663
21
14.886724
0
LINE
8
boundary
62
5
39
2
10
79.442663
20
14.886724
11
79.461480
21
15.695831
0
LINE
8
boundary
62
5
39
2
10
79.461480
20
15.695831
11
79.373605
21
16.537959
0
LINE
8
boundary
62
5
39
2
10
79.373605
20
16.537959
11
79.172005
21
17.412752
0
LINE
8
boundary
62
5
39
2
10
79.172005
20
17.412752
11
78.850037
21
18.320262
0
LINE
8
boundary
62
5
39
2
10
78.850037
20
18.320262
11
78.641765
21
18.786331
0
LINE
8
boundary
62
5
39
2
10
78.641765
20
18.786331
11
78.400799
21
19.260614
0
LINE
8
boundary
62
5
39
2
10
78.400799
20
19.260614
11
78.126300
21
19.743220
0
LINE
8
boundary
62
5
39
2
10
78.126300
20
19.743220
11
77.817515
21
20.234163
0
LINE
8
boundary
62
5
39
2
10
77.817515
20
20.234163
11
77.473584
21
20.733676
0
LINE
8
boundary
62
5
39
2
10
77.473584
20
20.733676
11
77.093703
21
21.241662
0
LINE
8
boundary
62
5
39
2
10
77.093703
20
21.241662
11
76.676883
21
21.758314
0
LINE
8
boundary
62
5
39
2
10
76.676883
20
21.758314
11
76.222548
21
22.283835
0
LINE
8
boundary
62
5
39
2
10
76.222548
20
22.283835
11
75.287590
21
22.521341
0
LINE
8
boundary
62
5
39
2
10
75.287590
20
22.521341
11
74.328971
21
22.781340
0
LINE
8
boundary
62
5
39
2
10
74.328971
20
22.781340
11
73.363974
21
23.075892
0
LINE
8
boundary
62
5
39
2
10
73.363974
20
23.075892
11
72.393465
21
23.404827
0
LINE
8
boundary
62
5
39
2
10
72.393465
20
23.404827
11
71.418062
21
23.768098
0
LINE
8
boundary
62
5
39
2
10
71.418062
20
23.768098
11
70.438359
21
24.165464
0
LINE
8
boundary
62
5
39
2
10
70.438359
20
24.165464
11
69.455092
21
24.596800
0
LINE
8
boundary
62
5
39
2
10
69.455092
20
24.596800
11
68.468872
21
25.061913
0
LINE
8
boundary
62
5
39
2
10
68.468872
20
25.061913
11
67.480154
21
25.560641
0
LINE
8
boundary
62
5
39
2
10
67.480154
20
25.560641
11
66.489920
21
26.092780
0
LINE
8
boundary
62
5
39
2
10
66.489920
20
26.092780
11
65.498549
21
26.657974
0
LINE
8
boundary
62
5
39
2
10
65.498549
20
26.657974
11
64.506830
21
27.256133
0
LINE
8
boundary
62
5
39
2
10
64.506830
20
27.256133
11
63.515289
21
27.886930
0
LINE
8
boundary
62
5
39
2
10
63.515289
20
27.886930
11
62.524562
21
28.550105
0
LINE
8
boundary
62
5
39
2
10
62.524562
20
28.550105
11
61.535305
21
29.245373
0
LINE
8
boundary
62
5
39
2
10
61.535305
20
29.245373
11
60.548174
21
29.972370
0
LINE
8
boundary
62
5
39
2
10
60.548174
20
29.972370
11
59.563753
21
30.730909
0
LINE
8
boundary
62
5
39
2
10
59.563753
20
30.730909
11
58.571831
21
31.518666
0
LINE
8
boundary
62
5
39
2
10
58.571831
20
31.518666
11
57.581717
21
32.336631
0
LINE
8
boundary
62
5
39
2
10
57.581717
20
32.336631
11
56.595885
21
33.184673
0
LINE
8
boundary
62
5
39
2
10
56.595885
20
33.184673
11
55.614986
21
34.062437
0
LINE
8
boundary
62
5
39
2
10
55.614986
20
34.062437
11
54.639595
21
34.969498
0
LINE
8
boundary
62
5
39
2
10
54.639595
20
34.969498
11
53.670130
21
35.905441
0
LINE
8
boundary
62
5
39
2
10
53.670130
20
35.905441
11
52.707438
21
36.869876
0
LINE
8
boundary
62
5
39
2
10
52.707438
20
36.869876
11
51.752042
21
37.862394
0
LINE
8
boundary
62
5
39
2
10
51.752042
20
37.862394
11
50.804519
21
38.882427
0
LINE
8
boundary
62
5
39
2
10
50.804519
20
38.882427
11
49.865495
21
39.929627
0
LINE
8
boundary
62
5
39
2
10
49.865495
20
39.929627
11
48.935438
21
41.003554
0
LINE
8
boundary
62
5
39
2
10
48.935438
20
41.003554
11
48.015095
21
42.103657
0
LINE
8
boundary
62
5
39
2
10
48.015095
20
42.103657
11
47.104897
21
43.229500
0
LINE
8
boundary
62
5
39
2
10
47.104897
20
43.229500
11
46.205474
21
44.380562
0
LINE
8
boundary
62
5
39
2
10
46.205474
20
44.380562
11
45.317379
21
45.556399
0
LINE
8
boundary
62
5
39
2
10
45.317379
20
45.556399
11
44.441250
21
46.756468
0
LINE
8
boundary
62
5
39
2
10
44.441250
20
46.756468
11
43.577571
21
47.980310
0
LINE
8
boundary
62
5
39
2
10
43.577571
20
47.980310
11
42.726875
21
49.227381
0
LINE
8
boundary
62
5
39
2
10
42.726875
20
49.227381
11
41.889789
21
50.497211
0
LINE
8
boundary
62
5
39
2
10
41.889789
20
50.497211
11
41.066785
21
51.789252
0
LINE
8
boundary
62
5
39
2
10
41.066785
20
51.789252
11
40.258546
21
53.102997
0
LINE
8
boundary
62
5
39
2
10
40.258546
20
53.102997
11
39.465329
21
54.437921
0
LINE
8
boundary
62
5
39
2
10
39.465329
20
54.437921
11
38.687867
21
55.793489
0
LINE
8
boundary
62
5
39
2
10
38.687867
20
55.793489
11
37.926519
21
57.169202
0
LINE
8
boundary
62
5
39
2
10
37.926519
20
57.169202
11
37.182005
21
58.564564
0
LINE
8
boundary
62
5
39
2
10
37.182005
20
58.564564
11
36.454807
21
59.979017
0
LINE
8
boundary
62
5
39
2
10
36.454807
20
59.979017
11
35.745188
21
61.412053
0
LINE
8
boundary
62
5
39
2
10
35.745188
20
61.412053
11
35.053960
21
62.863115
0
LINE
8
boundary
62
5
39
2
10
35.053960
20
62.863115
11
34.381485
21
64.331719
0
LINE
8
boundary
62
5
39
2
10
34.381485
20
64.331719
11
33.728155
21
65.817383
0
LINE
8
boundary
62
5
39
2
10
33.728155
20
65.817383
11
33.094567
21
67.319529
0
LINE
8
boundary
62
5
39
2
10
33.094567
20
67.319529
11
32.481180
21
68.837690
0
LINE
8
boundary
62
5
39
2
10
32.481180
20
68.837690
11
31.888501
21
70.371305
0
LINE
8
boundary
62
5
39
2
10
31.888501
20
70.371305
11
31.316978
21
71.919937
0
LINE
8
boundary
62
5
39
2
10
31.316978
20
71.919937
11
30.767039
21
73.482986
0
LINE
8
boundary
62
5
39
2
10
30.767039
20
73.482986
11
30.239171
21
75.060107
0
LINE
8
boundary
62
5
39
2
10
30.239171
20
75.060107
11
29.733751
21
76.650745
0
LINE
8
boundary
62
5
39
2
10
29.733751
20
76.650745
11
29.251341
21
78.254352
0
LINE
8
boundary
62
5
39
2
10
29.251341
20
78.254352
11
28.792408
21
79.870485
0
LINE
8
boundary
62
5
39
2
10
28.792408
20
79.870485
11
28.658813
21
80.367477
0
LINE
8
boundary
62
5
39
2
10
28.658813
20
80.367477
11
28.357148
21
81.498734
0
LINE
8
boundary
62
5
39
2
10
28.357148
20
81.498734
11
28.226556
21
82.017159
0
LINE
8
boundary
62
5
39
2
10
28.226556
20
82.017159
11
27.946282
21
83.138577
0
LINE
8
boundary
62
5
39
2
10
27.946282
20
83.138577
11
27.819403
21
83.678397
0
LINE
8
boundary
62
5
39
2
10
27.819403
20
83.678397
11
27.560113
21
84.789517
0
LINE
8
boundary
62
5
39
2
10
27.560113
20
84.789517
11
27.437642
21
85.350694
0
LINE
8
boundary
62
5
39
2
10
27.437642
20
85.350694
11
27.199091
21
86.451184
0
LINE
8
boundary
62
5
39
2
10
27.199091
20
86.451184
11
27.081729
21
87.033566
0
LINE
8
boundary
62
5
39
2
10
27.081729
20
87.033566
11
26.863510
21
88.123110
0
LINE
8
boundary
62
5
39
2
10
26.863510
20
88.123110
11
26.752008
21
88.726492
0
LINE
8
boundary
62
5
39
2
10
26.752008
20
88.726492
11
26.553814
21
89.804806
0
LINE
8
boundary
62
5
39
2
10
26.553814
20
89.804806
11
26.448971
21
90.428912
0
LINE
8
boundary
62
5
39
2
10
26.448971
20
90.428912
11
26.270571
21
91.495886
0
LINE
8
boundary
62
5
39
2
10
26.270571
20
91.495886
11
26.173147
21
92.140340
0
LINE
8
boundary
62
5
39
2
10
26.173147
20
92.140340
11
26.014161
21
93.195848
0
LINE
8
boundary
62
5
39
2
10
26.014161
20
93.195848
11
25.893655
21
93.720438
0
LINE
8
boundary
62
5
39
2
10
25.893655
20
93.720438
11
25.705861
21
94.543831
0
LINE
8
boundary
62
5
39
2
10
25.705861
20
94.543831
11
25.589288
21
95.078862
0
LINE
8
boundary
62
5
39
2
10
25.589288
20
95.078862
11
25.414355
21
95.887202
0
LINE
8
boundary
62
5
39
2
10
25.414355
20
95.887202
11
25.301833
21
96.432430
0
LINE
8
boundary
62
5
39
2
10
25.301833
20
96.432430
11
25.139083
21
97.226104
0
LINE
8
boundary
62
5
39
2
10
25.139083
20
97.226104
11
25.030952
21
97.781163
0
LINE
8
boundary
62
5
39
2
10
25.030952
20
97.781163
11
24.880079
21
98.560384
0
LINE
8
boundary
62
5
39
2
10
24.880079
20
98.560384
11
24.776505
21
99.125003
0
LINE
8
boundary
62
5
39
2
10
24.776505
20
99.125003
11
24.636952
21
99.890104
0
LINE
8
boundary
62
5
39
2
10
24.636952
20
99.890104
11
24.538159
21
100.463959
0
LINE
8
boundary
62
5
39
2
10
24.538159
20
100.463959
11
24.409476
21
101.215289
0
LINE
8
boundary
62
5
39
2
10
24.409476
20
101.215289
11
24.227009
21
102.389872
0
LINE
8
boundary
62
5
39
2
10
24.227009
20
102.389872
11
24.000879
21
103.851975
0
LINE
8
boundary
62
5
39
2
10
24.000879
20
103.851975
11
23.839908
21
105.059452
0
LINE
8
boundary
62
5
39
2
10
23.839908
20
105.059452
11
23.652386
21
106.470473
0
LINE
8
boundary
62
5
39
2
10
23.652386
20
106.470473
11
23.514267
21
107.707972
0
LINE
8
boundary
62
5
39
2
10
23.514267
20
107.707972
11
23.362405
21
109.070799
0
LINE
8
boundary
62
5
39
2
10
23.362405
20
109.070799
11
23.248199
21
110.335390
0
LINE
8
boundary
62
5
39
2
10
23.248199
20
110.335390
11
23.129125
21
111.653005
0
LINE
8
boundary
62
5
39
2
10
23.129125
20
111.653005
11
23.039683
21
112.941800
0
LINE
8
boundary
62
5
39
2
10
23.039683
20
112.941800
11
22.950781
21
114.217381
0
LINE
8
boundary
62
5
39
2
10
22.950781
20
114.217381
11
22.886846
21
115.527407
0
LINE
8
boundary
62
5
39
2
10
22.886846
20
115.527407
11
22.825870
21
116.763997
0
LINE
8
boundary
62
5
39
2
10
22.825870
20
116.763997
11
22.787933
21
118.092208
0
LINE
8
boundary
62
5
39
2
10
22.787933
20
118.092208
11
22.752778
21
119.292859
0
LINE
8
boundary
62
5
39
2
10
22.752778
20
119.292859
11
22.740949
21
120.636468
0
LINE
8
boundary
62
5
39
2
10
22.740949
20
120.636468
11
22.729606
21
121.804376
0
LINE
8
boundary
62
5
39
2
10
22.729606
20
121.804376
11
22.744055
21
123.160394
0
LINE
8
boundary
62
5
39
2
10
22.744055
20
123.160394
11
22.754908
21
124.298544
0
LINE
8
boundary
62
5
39
2
10
22.754908
20
124.298544
11
22.795430
21
125.664253
0
LINE
8
boundary
62
5
39
2
10
22.795430
20
125.664253
11
22.826973
21
126.775647
0
LINE
8
boundary
62
5
39
2
10
22.826973
20
126.775647
11
22.893319
21
128.148333
0
LINE
8
boundary
62
5
39
2
10
22.893319
20
128.148333
11
22.944285
21
129.235937
0
LINE
8
boundary
62
5
39
2
10
22.944285
20
129.235937
11
23.036010
21
130.612917
0
LINE
8
boundary
62
5
39
2
10
23.036010
20
130.612917
11
23.105294
21
131.679468
0
LINE
8
boundary
62
5
39
2
10
23.105294
20
131.679468
11
23.221798
21
133.058360
0
LINE
8
boundary
62
5
39
2
10
23.221798
20
133.058360
11
23.308460
21
134.106643
0
LINE
8
boundary
62
5
39
2
10
23.308460
20
134.106643
11
23.448934
21
135.485063
0
LINE
8
boundary
62
5
39
2
10
23.448934
20
135.485063
11
23.552123
21
136.517604
0
LINE
8
boundary
62
5
39
2
10
23.552123
20
136.517604
11
23.715762
21
137.893280
0
LINE
8
boundary
62
5
39
2
10
23.715762
20
137.893280
11
23.834840
21
138.912576
0
LINE
8
boundary
62
5
39
2
10
23.834840
20
138.912576
11
24.020653
21
140.283424
0
LINE
8
boundary
62
5
39
2
10
24.020653
20
140.283424
11
24.155036
21
141.291774
0
LINE
8
boundary
62
5
39
2
10
24.155036
20
141.291774
11
24.362029
21
142.655927
0
LINE
8
boundary
62
5
39
2
10
24.362029
20
142.655927
11
24.511303
21
143.655542
0
LINE
8
boundary
62
5
39
2
10
24.511303
20
143.655542
11
24.738376
21
145.011084
0
LINE
8
boundary
62
5
39
2
10
24.738376
20
145.011084
11
24.902152
21
146.003958
0
LINE
8
boundary
62
5
39
2
10
24.902152
20
146.003958
11
25.148096
21
147.349311
0
LINE
8
boundary
62
5
39
2
10
25.148096
20
147.349311
11
25.326058
21
148.337359
0
LINE
8
boundary
62
5
39
2
10
25.326058
20
148.337359
11
25.589612
21
149.670963
0
LINE
8
boundary
62
5
39
2
10
25.589612
20
149.670963
11
25.781506
21
150.655954
0
LINE
8
boundary
62
5
39
2
10
25.781506
20
150.655954
11
26.061531
21
151.976433
0
LINE
8
boundary
62
5
39
2
10
26.061531
20
151.976433
11
26.267187
21
152.959957
0
LINE
8
boundary
62
5
39
2
10
26.267187
20
152.959957
11
26.562421
21
154.266065
0
LINE
8
boundary
62
5
39
2
10
26.562421
20
154.266065
11
26.781726
21
155.249556
0
LINE
8
boundary
62
5
39
2
10
26.781726
20
155.249556
11
27.090841
21
156.540281
0
LINE
8
boundary
62
5
39
2
10
27.090841
20
156.540281
11
27.323585
21
157.525165
0
LINE
8
boundary
62
5
39
2
10
27.323585
20
157.525165
11
27.645332
21
158.799357
0
LINE
8
boundary
62
5
39
2
10
27.645332
20
158.799357
11
27.891409
21
159.786743
0
LINE
8
boundary
62
5
39
2
10
27.891409
20
159.786743
11
28.224525
21
161.043695
0
LINE
8
boundary
62
5
39
2
10
28.224525
20
161.043695
11
28.483805
21
162.034687
0
LINE
8
boundary
62
5
39
2
10
28.483805
20
162.034687
11
28.827026
21
163.273609
0
LINE
8
boundary
62
5
39
2
10
28.827026
20
163.273609
11
29.099360
21
164.269219
0
LINE
8
boundary
62
5
39
2
10
29.099360
20
164.269219
11
29.451548
21
165.489468
0
LINE
8
boundary
62
5
39
2
10
29.451548
20
165.489468
11
29.736889
21
166.490464
0
LINE
8
boundary
62
5
39
2
10
29.736889
20
166.490464
11
30.096735
21
167.691555
0
LINE
8
boundary
62
5
39
2
10
30.096735
20
167.691555
11
30.394798
21
168.698726
0
LINE
8
boundary
62
5
39
2
10
30.394798
20
168.698726
11
30.761213
21
169.880125
0
LINE
8
boundary
62
5
39
2
10
30.761213
20
169.880125
11
31.071926
21
170.894104
0
LINE
8
boundary
62
5
39
2
10
31.071926
20
170.894104
11
31.443768
21
172.055603
0
LINE
8
boundary
62
5
39
2
10
31.443768
20
172.055603
11
31.766849
21
173.076932
0
LINE
8
boundary
62
5
39
2
10
31.766849
20
173.076932
11
32.143108
21
174.218191
0
LINE
8
boundary
62
5
39
2
10
32.143108
20
174.218191
11
32.478404
21
175.247342
0
LINE
8
boundary
62
5
39
2
10
32.478404
20
175.247342
11
32.857870
21
176.368232
0
LINE
8
boundary
62
5
39
2
10
32.857870
20
176.368232
11
33.204991
21
177.405565
0
LINE
8
boundary
62
5
39
2
10
33.204991
20
177.405565
11
33.586893
21
178.505950
0
LINE
8
boundary
62
5
39
2
10
33.586893
20
178.505950
11
33.945693
21
179.551814
0
LINE
8
boundary
62
5
39
2
10
33.945693
20
179.551814
11
34.328999
21
180.631618
0
LINE
8
boundary
62
5
39
2
10
34.328999
20
180.631618
11
34.699083
21
181.686169
0
LINE
8
boundary
62
5
39
2
10
34.699083
20
181.686169
11
35.082778
21
182.745475
0
LINE
8
boundary
62
5
39
2
10
35.082778
20
182.745475
11
35.463670
21
183.808981
0
LINE
8
boundary
62
5
39
2
10
35.463670
20
183.808981
11
36.224466
21
185.852905
0
LINE
8
boundary
62
5
39
2
10
36.224466
20
185.852905
11
37.022271
21
188.020472
0
LINE
8
boundary
62
5
39
2
10
37.022271
20
188.020472
11
37.775653
21
189.984655
0
LINE
8
boundary
62
5
39
2
10
37.775653
20
189.984655
11
38.611434
21
192.187685
0
LINE
8
boundary
62
5
39
2
10
38.611434
20
192.187685
11
39.352061
21
194.073944
0
LINE
8
boundary
62
5
39
2
10
39.352061
20
194.073944
11
40.221469
21
196.312162
0
LINE
8
boundary
62
5
39
2
10
40.221469
20
196.312162
11
40.944630
21
198.122947
0
LINE
8
boundary
62
5
39
2
10
40.944630
20
198.122947
11
41.842655
21
200.395307
0
LINE
8
boundary
62
5
39
2
10
41.842655
20
200.395307
11
42.544369
21
202.133309
0
LINE
8
boundary
62
5
39
2
10
42.544369
20
202.133309
11
43.465564
21
204.438394
0
LINE
8
boundary
62
5
39
2
10
43.465564
20
204.438394
11
44.778312
21
207.675597
0
LINE
8
boundary
62
5
39
2
10
44.778312
20
207.675597
11
46.679037
21
212.410022
0
LINE
8
boundary
62
5
39
2
10
46.679037
20
212.410022
11
47.874921
21
215.402792
0
LINE
8
boundary
62
5
39
2
10
47.874921
20
215.402792
11
49.788742
21
220.237703
0
LINE
8
boundary
62
5
39
2
10
49.788742
20
220.237703
11
50.342364
21
221.661648
0
LINE
8
boundary
62
5
39
2
10
50.342364
20
221.661648
11
51.282354
21
224.100874
0
LINE
8
boundary
62
5
39
2
10
51.282354
20
224.100874
11
51.801228
21
225.472905
0
LINE
8
boundary
62
5
39
2
10
51.801228
20
225.472905
11
52.723305
21
227.931950
0
LINE
8
boundary
62
5
39
2
10
52.723305
20
227.931950
11
53.206598
21
229.255829
0
LINE
8
boundary
62
5
39
2
10
53.206598
20
229.255829
11
54.103236
21
231.732217
0
LINE
8
boundary
62
5
39
2
10
54.103236
20
231.732217
11
54.331871
21
232.379028
0
LINE
8
boundary
62
5
39
2
10
54.331871
20
232.379028
11
54.767521
21
233.621165
0
LINE
8
boundary
62
5
39
2
10
54.767521
20
233.621165
11
54.986936
21
234.257235
0
LINE
8
boundary
62
5
39
2
10
54.986936
20
234.257235
11
55.413380
21
235.502905
0
LINE
8
boundary
62
5
39
2
10
55.413380
20
235.502905
11
55.751385
21
236.519016
0
LINE
8
boundary
62
5
39
2
10
55.751385
20
236.519016
11
56.426292
21
238.563023
0
LINE
8
boundary
62
5
39
2
10
56.426292
20
238.563023
11
56.751056
21
239.590643
0
LINE
8
boundary
62
5
39
2
10
56.751056
20
239.590643
11
57.418929
21
241.718905
0
LINE
8
boundary
62
5
39
2
10
57.418929
20
241.718905
11
57.575830
21
242.237257
0
LINE
8
boundary
62
5
39
2
10
57.575830
20
242.237257
11
57.904726
21
243.331067
0
LINE
8
boundary
62
5
39
2
10
57.904726
20
243.331067
11
58.057365
21
243.851518
0
LINE
8
boundary
62
5
39
2
10
58.057365
20
243.851518
11
58.381780
21
244.964893
0
LINE
8
boundary
62
5
39
2
10
58.381780
20
244.964893
11
58.529870
21
245.487314
0
LINE
8
boundary
62
5
39
2
10
58.529870
20
245.487314
11
58.848919
21
246.619896
0
LINE
8
boundary
62
5
39
2
10
58.848919
20
246.619896
11
58.992258
21
247.144097
0
LINE
8
boundary
62
5
39
2
10
58.992258
20
247.144097
11
59.305168
21
248.295274
0
LINE
8
boundary
62
5
39
2
10
59.305168
20
248.295274
11
59.443425
21
248.821158
0
LINE
8
boundary
62
5
39
2
10
59.443425
20
248.821158
11
59.749089
21
249.990421
0
LINE
8
boundary
62
5
39
2
10
59.749089
20
249.990421
11
59.882084
21
250.517857
0
LINE
8
boundary
62
5
39
2
10
59.882084
20
250.517857
11
60.179724
21
251.704576
0
LINE
8
boundary
62
5
39
2
10
60.179724
20
251.704576
11
60.307192
21
252.233486
0
LINE
8
boundary
62
5
39
2
10
60.307192
20
252.233486
11
60.595801
21
253.437224
0
LINE
8
boundary
62
5
39
2
10
60.595801
20
253.437224
11
60.717574
21
253.967583
0
LINE
8
boundary
62
5
39
2
10
60.717574
20
253.967583
11
60.996412
21
255.187586
0
LINE
8
boundary
62
5
39
2
10
60.996412
20
255.187586
11
61.112198
21
255.719275
0
LINE
8
boundary
62
5
39
2
10
61.112198
20
255.719275
11
61.380137
21
256.955048
0
LINE
8
boundary
62
5
39
2
10
61.380137
20
256.955048
11
61.489749
21
257.488130
0
LINE
8
boundary
62
5
39
2
10
61.489749
20
257.488130
11
61.745962
21
258.739099
0
LINE
8
boundary
62
5
39
2
10
61.745962
20
258.739099
11
61.849192
21
259.273536
0
LINE
8
boundary
62
5
39
2
10
61.849192
20
259.273536
11
62.092806
21
260.538872
0
LINE
8
boundary
62
5
39
2
10
62.092806
20
260.538872
11
62.189476
21
261.074690
0
LINE
8
boundary
62
5
39
2
10
62.189476
20
261.074690
11
62.419641
21
262.353928
0
LINE
8
boundary
62
5
39
2
10
62.419641
20
262.353928
11
62.509536
21
262.891144
0
LINE
8
boundary
62
5
39
2
10
62.509536
20
262.891144
11
62.725342
21
264.183489
0
LINE
8
boundary
62
5
39
2
10
62.725342
20
264.183489
11
62.808261
21
264.722182
0
LINE
8
boundary
62
5
39
2
10
62.808261
20
264.722182
11
63.008849
21
266.027129
0
LINE
8
boundary
62
5
39
2
10
63.008849
20
266.027129
11
63.084576
21
266.567382
0
LINE
8
boundary
62
5
39
2
10
63.084576
20
266.567382
11
63.269074
21
267.884108
0
LINE
8
boundary
62
5
39
2
10
63.269074
20
267.884108
11
63.337391
21
268.425996
0
LINE
8
boundary
62
5
39
2
10
63.337391
20
268.425996
11
63.504954
21
269.753927
0
LINE
8
boundary
62
5
39
2
10
63.504954
20
269.753927
11
63.565693
21
270.297490
0
LINE
8
boundary
62
5
39
2
10
63.565693
20
270.297490
11
63.715542
21
271.635887
0
LINE
8
boundary
62
5
39
2
10
63.715542
20
271.635887
11
63.768459
21
272.181380
0
LINE
8
boundary
62
5
39
2
10
63.768459
20
272.181380
11
63.899798
21
273.529558
0
LINE
8
boundary
62
5
39
2
10
63.899798
20
273.529558
11
63.944690
21
274.076936
0
LINE
8
boundary
62
5
39
2
10
63.944690
20
274.076936
11
64.056730
21
275.434139
0
LINE
8
boundary
62
5
39
2
10
64.056730
20
275.434139
11
64.093345
21
275.983672
0
LINE
8
boundary
62
5
39
2
10
64.093345
20
275.983672
11
64.185322
21
277.349208
0
LINE
8
boundary
62
5
39
2
10
64.185322
20
277.349208
11
64.213421
21
277.901016
0
LINE
8
boundary
62
5
39
2
10
64.213421
20
277.901016
11
64.284502
21
279.274256
0
LINE
8
boundary
62
5
39
2
10
64.284502
20
279.274256
11
64.303862
21
279.828450
0
LINE
8
boundary
62
5
39
2
10
64.303862
20
279.828450
11
64.353496
21
281.208504
0
LINE
8
boundary
62
5
39
2
10
64.353496
20
281.208504
11
64.363867
21
281.765255
0
LINE
8
boundary
62
5
39
2
10
64.363867
20
281.765255
11
64.391310
21
283.151488
0
LINE
8
boundary
62
5
39
2
10
64.391310
20
283.151488
11
64.392401
21
283.711044
0
LINE
8
boundary
62
5
39
2
10
64.392401
20
283.711044
11
64.396957
21
285.102755
0
LINE
8
boundary
62
5
39
2
10
64.396957
20
285.102755
11
64.388517
21
285.665213
0
LINE
8
boundary
62
5
39
2
10
64.388517
20
285.665213
11
64.369656
21
287.061550
0
LINE
8
boundary
62
5
39
2
10
64.369656
20
287.061550
11
64.351329
21
287.627139
0
LINE
8
boundary
62
5
39
2
10
64.351329
20
287.627139
11
64.308264
21
289.027477
0
LINE
8
boundary
62
5
39
2
10
64.308264
20
289.027477
11
64.279819
21
289.596363
0
LINE
8
boundary
62
5
39
2
10
64.279819
20
289.596363
11
64.212150
21
290.999984
0
LINE
8
boundary
62
5
39
2
10
64.212150
20
290.999984
11
64.173202
21
291.572360
0
LINE
8
boundary
62
5
39
2
10
64.173202
20
291.572360
11
64.080282
21
292.978324
0
LINE
8
boundary
62
5
39
2
10
64.080282
20
292.978324
11
64.030513
21
293.554359
0
LINE
8
boundary
62
5
39
2
10
64.030513
20
293.554359
11
63.911890
21
294.962069
0
LINE
8
boundary
62
5
39
2
10
63.911890
20
294.962069
11
63.850961
21
295.542046
0
LINE
8
boundary
62
5
39
2
10
63.850961
20
295.542046
11
63.706169
21
296.950763
0
LINE
8
boundary
62
5
39
2
10
63.706169
20
296.950763
11
63.633683
21
297.534772
0
LINE
8
boundary
62
5
39
2
10
63.633683
20
297.534772
11
63.462257
21
298.943655
0
LINE
8
boundary
62
5
39
2
10
63.462257
20
298.943655
11
63.377843
21
299.531967
0
LINE
8
boundary
62
5
39
2
10
63.377843
20
299.531967
11
63.179415
21
300.940291
0
LINE
8
boundary
62
5
39
2
10
63.179415
20
300.940291
11
63.082649
21
301.533059
0
LINE
8
boundary
62
5
39
2
10
63.082649
20
301.533059
11
62.856826
21
302.940109
0
LINE
8
boundary
62
5
39
2
10
62.856826
20
302.940109
11
62.747301
21
303.537561
0
LINE
8
boundary
62
5
39
2
10
62.747301
20
303.537561
11
62.493827
21
304.942609
0
LINE
8
boundary
62
5
39
2
10
62.493827
20
304.942609
11
62.371036
21
305.544931
0
LINE
8
boundary
62
5
39
2
10
62.371036
20
305.544931
11
62.089462
21
306.947175
0
LINE
8
boundary
62
5
39
2
10
62.089462
20
306.947175
11
61.952985
21
307.554522
0
LINE
8
boundary
62
5
39
2
10
61.952985
20
307.554522
11
61.643202
21
308.953251
0
LINE
8
boundary
62
5
39
2
10
61.643202
20
308.953251
11
61.492545
21
309.565844
0
LINE
8
boundary
62
5
39
2
10
61.492545
20
309.565844
11
61.154311
21
310.960270
0
LINE
8
boundary
62
5
39
2
10
61.154311
20
310.960270
11
60.988951
21
311.578299
0
LINE
8
boundary
62
5
39
2
10
60.988951
20
311.578299
11
60.622086
21
312.967706
0
LINE
8
boundary
62
5
39
2
10
60.622086
20
312.967706
11
60.441479
21
313.591337
0
LINE
8
boundary
62
5
39
2
10
60.441479
20
313.591337
11
60.045855
21
314.974924
0
LINE
8
boundary
62
5
39
2
10
60.045855
20
314.974924
11
59.849440
21
315.604319
0
LINE
8
boundary
62
5
39
2
10
59.849440
20
315.604319
11
59.424940
21
316.981492
0
LINE
8
boundary
62
5
39
2
10
59.424940
20
316.981492
11
59.097576
21
317.984324
0
LINE
8
boundary
62
5
39
2
10
59.097576
20
317.984324
11
58.758804
21
318.986716
0
LINE
8
boundary
62
5
39
2
10
58.758804
20
318.986716
11
58.408612
21
319.988731
0
LINE
8
boundary
62
5
39
2
10
58.408612
20
319.988731
11
58.046837
21
320.990142
0
LINE
8
boundary
62
5
39
2
10
58.046837
20
320.990142
11
57.673463
21
321.990991
0
LINE
8
boundary
62
5
39
2
10
57.673463
20
321.990991
11
57.288415
21
322.991035
0
LINE
8
boundary
62
5
39
2
10
57.288415
20
322.991035
11
56.891592
21
323.990421
0
LINE
8
boundary
62
5
39
2
10
56.891592
20
323.990421
11
56.482976
21
324.989036
0
LINE
8
boundary
62
5
39
2
10
56.482976
20
324.989036
11
56.062371
21
325.986686
0
LINE
8
boundary
62
5
39
2
10
56.062371
20
325.986686
11
55.629883
21
326.983500
0
LINE
8
boundary
62
5
39
2
10
55.629883
20
326.983500
11
55.185398
21
327.979055
0
LINE
8
boundary
62
5
39
2
10
55.185398
20
327.979055
11
54.728778
21
328.973702
0
LINE
8
boundary
62
5
39
2
10
54.728778
20
328.973702
11
54.260075
21
329.967028
0
LINE
8
boundary
62
5
39
2
10
54.260075
20
329.967028
11
53.779042
21
330.959253
0
LINE
8
boundary
62
5
39
2
10
53.779042
20
330.959253
11
53.285818
21
331.950026
0
LINE
8
boundary
62
5
39
2
10
53.285818
20
331.950026
11
52.780214
21
332.939421
0
LINE
8
boundary
62
5
39
2
10
52.780214
20
332.939421
11
52.262258
21
333.927445
0
LINE
8
boundary
62
5
39
2
10
52.262258
20
333.927445
11
51.731871
21
334.913855
0
LINE
8
boundary
62
5
39
2
10
51.731871
20
334.913855
11
51.188868
21
335.898677
0
LINE
8
boundary
62
5
39
2
10
51.188868
20
335.898677
11
50.633416
21
336.881837
0
LINE
8
boundary
62
5
39
2
10
50.633416
20
336.881837
11
50.065291
21
337.863233
0
LINE
8
boundary
62
5
39
2
10
50.065291
20
337.863233
11
49.484401
21
338.842747
0
LINE
8
boundary
62
5
39
2
10
49.484401
20
338.842747
11
48.890895
21
339.820388
0
LINE
8
boundary
62
5
39
2
10
48.890895
20
339.820388
11
48.284556
21
340.796123
0
LINE
8
boundary
62
5
39
2
10
48.284556
20
340.796123
11
47.665381
21
341.769757
0
LINE
8
boundary
62
5
39
2
10
47.665381
20
341.769757
11
47.033327
21
342.741212
0
LINE
8
boundary
62
5
39
2
10
47.033327
20
342.741212
11
46.388231
21
343.710587
0
LINE
8
boundary
62
5
39
2
10
46.388231
20
343.710587
11
45.730204
21
344.677664
0
LINE
8
boundary
62
5
39
2
10
45.730204
20
344.677664
11
45.059188
21
345.642428
0
LINE
8
boundary
62
5
39
2
10
45.059188
20
345.642428
11
44.375044
21
346.604836
0
LINE
8
boundary
62
5
39
2
10
44.375044
20
346.604836
11
43.677772
21
347.564656
0
LINE
8
boundary
62
5
39
2
10
43.677772
20
347.564656
11
42.967259
21
348.522095
0
LINE
8
boundary
62
5
39
2
10
42.967259
20
348.522095
11
42.243549
21
349.476875
0
LINE
8
boundary
62
5
39
2
10
42.243549
20
349.476875
11
41.506487
21
350.428899
0
LINE
8
boundary
62
5
39
2
10
41.506487
20
350.428899
11
40.756164
21
351.378081
0
LINE
8
boundary
62
5
39
2
10
40.756164
20
351.378081
11
39.992496
21
352.324573
0
LINE
8
boundary
62
5
39
2
10
39.992496
20
352.324573
11
39.215344
21
353.268139
0
LINE
8
boundary
62
5
39
2
10
39.215344
20
353.268139
11
38.424669
21
354.208741
0
LINE
8
boundary
62
5
39
2
10
38.424669
20
354.208741
11
38.089594
21
354.598080
0
LINE
8
boundary
62
5
39
2
10
38.089594
20
354.598080
11
37.620571
21
355.146259
0
LINE
8
boundary
62
5
39
2
10
37.620571
20
355.146259
11
37.276412
21
355.538201
0
LINE
8
boundary
62
5
39
2
10
37.276412
20
355.538201
11
36.802902
21
356.080615
0
LINE
8
boundary
62
5
39
2
10
36.802902
20
356.080615
11
36.574242
21
356.626933
0
LINE
8
boundary
62
5
39
2
10
36.574242
20
356.626933
11
36.372505
21
357.148032
0
LINE
8
boundary
62
5
39
2
10
36.372505
20
357.148032
11
36.196918
21
357.644430
0
LINE
8
boundary
62
5
39
2
10
36.196918
20
357.644430
11
35.994169
21
358.304793
0
LINE
8
boundary
62
5
39
2
10
35.994169
20
358.304793
11
35.820736
21
358.990593
0
LINE
8
boundary
62
5
39
2
10
35.820736
20
358.990593
11
35.720702
21
359.551930
0
LINE
8
boundary
62
5
39
2
10
35.720702
20
359.551930
11
35.657272
21
360.132050
0
LINE
8
boundary
62
5
39
2
10
35.657272
20
360.132050
11
35.658209
21
360.785475
0
LINE
8
boundary
62
5
39
2
10
35.658209
20
360.785475
11
35.741438
21
361.357268
0
LINE
8
boundary
62
5
39
2
10
35.741438
20
361.357268
11
35.902376
21
361.851024
0
LINE
8
boundary
62
5
39
2
10
35.902376
20
361.851024
11
36.194044
21
362.344407
0
LINE
8
boundary
62
5
39
2
10
36.194044
20
362.344407
11
36.614208
21
362.768466
0
LINE
8
boundary
62
5
39
2
10
36.614208
20
362.768466
11
37.097703
21
363.058463
0
LINE
8
boundary
62
5
39
2
10
37.097703
20
363.058463
11
37.712087
21
363.278948
0
LINE
8
boundary
62
5
39
2
10
37.712087
20
363.278948
11
38.243796
21
363.381937
0
LINE
8
boundary
62
5
39
2
10
38.243796
20
363.381937
11
38.821972
21
363.432550
0
LINE
8
boundary
62
5
39
2
10
38.821972
20
363.432550
11
39.442066
21
363.434455
0
LINE
8
boundary
62
5
39
2
10
39.442066
20
363.434455
11
40.099833
21
363.391263
0
LINE
8
boundary
62
5
39
2
10
40.099833
20
363.391263
11
40.699045
21
363.316286
0
LINE
8
boundary
62
5
39
2
10
40.699045
20
363.316286
11
41.411389
21
363.199949
0
LINE
8
boundary
62
5
39
2
10
41.411389
20
363.199949
11
42.148728
21
363.049149
0
LINE
8
boundary
62
5
39
2
10
42.148728
20
363.049149
11
42.906634
21
362.867628
0
LINE
8
boundary
62
5
39
2
10
42.906634
20
362.867628
11
43.408486
21
362.736619
0
LINE
8
boundary
62
5
39
2
10
43.408486
20
362.736619
11
44.195151
21
362.510627
0
LINE
8
boundary
62
5
39
2
10
44.195151
20
362.510627
11
44.990808
21
362.263337
0
LINE
8
boundary
62
5
39
2
10
44.990808
20
362.263337
11
45.791080
21
361.998218
0
LINE
8
boundary
62
5
39
2
10
45.791080
20
361.998218
11
46.591394
21
361.719008
0
LINE
8
boundary
62
5
39
2
10
46.591394
20
361.719008
11
47.387149
21
361.429474
0
LINE
8
boundary
62
5
39
2
10
47.387149
20
361.429474
11
47.888528
21
361.239232
0
LINE
8
boundary
62
5
39
2
10
47.888528
20
361.239232
11
48.946941
21
360.833886
0
LINE
8
boundary
62
5
39
2
10
48.946941
20
360.833886
11
50.433305
21
360.240879
0
LINE
8
boundary
62
5
39
2
10
50.433305
20
360.240879
11
51.808648
21
359.680012
0
LINE
8
boundary
62
5
39
2
10
51.808648
20
359.680012
11
52.684364
21
359.060951
0
LINE
8
boundary
62
5
39
2
10
52.684364
20
359.060951
11
53.574568
21
358.461147
0
LINE
8
boundary
62
5
39
2
10
53.574568
20
358.461147
11
54.478461
21
357.880337
0
LINE
8
boundary
62
5
39
2
10
54.478461
20
357.880337
11
55.395731
21
357.319106
0
LINE
8
boundary
62
5
39
2
10
55.395731
20
357.319106
11
56.325742
21
356.776838
0
LINE
8
boundary
62
5
39
2
10
56.325742
20
356.776838
11
57.268081
21
356.253829
0
LINE
8
boundary
62
5
39
2
10
57.268081
20
356.253829
11
58.222168
21
355.750100
0
LINE
8
boundary
62
5
39
2
10
58.222168
20
355.750100
11
59.187295
21
355.265586
0
LINE
8
boundary
62
5
39
2
10
59.187295
20
355.265586
11
60.163171
21
354.800367
0
LINE
8
boundary
62
5
39
2
10
60.163171
20
354.800367
11
61.149167
21
354.354458
0
LINE
8
boundary
62
5
39
2
10
61.149167
20
354.354458
11
62.144725
21
353.927834
0
LINE
8
boundary
62
5
39
2
10
62.144725
20
353.927834
11
63.149190
21
353.520504
0
LINE
8
boundary
62
5
39
2
10
63.149190
20
353.520504
11
64.162144
21
353.132512
0
LINE
8
boundary
62
5
39
2
10
64.162144
20
353.132512
11
65.183012
21
352.763848
0
LINE
8
boundary
62
5
39
2
10
65.183012
20
352.763848
11
66.211153
21
352.414547
0
LINE
8
boundary
62
5
39
2
10
66.211153
20
352.414547
11
67.246110
21
352.084649
0
LINE
8
boundary
62
5
39
2
10
67.246110
20
352.084649
11
68.287187
21
351.774120
0
LINE
8
boundary
62
5
39
2
10
68.287187
20
351.774120
11
69.333945
21
351.483055
0
LINE
8
boundary
62
5
39
2
10
69.333945
20
351.483055
11
70.385639
21
351.211440
0
LINE
8
boundary
62
5
39
2
10
70.385639
20
351.211440
11
71.441863
21
350.959207
0
LINE
8
boundary
62
5
39
2
10
71.441863
20
350.959207
11
72.501947
21
350.726392
0
LINE
8
boundary
62
5
39
2
10
72.501947
20
350.726392
11
73.565341
21
350.513342
0
LINE
8
boundary
62
5
39
2
10
73.565341
20
350.513342
11
74.631437
21
350.319485
0
LINE
8
boundary
62
5
39
2
10
74.631437
20
350.319485
11
75.699635
21
350.145368
0
LINE
8
boundary
62
5
39
2
10
75.699635
20
350.145368
11
76.769413
21
349.990816
0
LINE
8
boundary
62
5
39
2
10
76.769413
20
349.990816
11
77.840050
21
349.855704
0
LINE
8
boundary
62
5
39
2
10
77.840050
20
349.855704
11
78.911016
21
349.740374
0
LINE
8
boundary
62
5
39
2
10
78.911016
20
349.740374
11
79.981800
21
349.644511
0
LINE
8
boundary
62
5
39
2
10
79.981800
20
349.644511
11
81.051638
21
349.568376
0
LINE
8
boundary
62
5
39
2
10
81.051638
20
349.568376
11
82.120050
21
349.511944
0
LINE
8
boundary
62
5
39
2
10
82.120050
20
349.511944
11
83.186379
21
349.475199
0
LINE
8
boundary
62
5
39
2
10
83.186379
20
349.475199
11
84.249977
21
349.458104
0
LINE
8
boundary
62
5
39
2
10
84.249977
20
349.458104
11
85.310250
21
349.460824
0
LINE
8
boundary
62
5
39
2
10
85.310250
20
349.460824
11
86.366738
21
349.483253
0
LINE
8
boundary
62
5
39
2
10
86.366738
20
349.483253
11
87.418549
21
349.525552
0
LINE
8
boundary
62
5
39
2
10
87.418549
20
349.525552
11
88.465335
21
349.587558
0
LINE
8
boundary
62
5
39
2
10
88.465335
20
349.587558
11
89.506332
21
349.669438
0
LINE
8
boundary
62
5
39
2
10
89.506332
20
349.669438
11
90.540915
21
349.771218
0
LINE
8
boundary
62
5
39
2
10
90.540915
20
349.771218
11
91.568524
21
349.892914
0
LINE
8
boundary
62
5
39
2
10
91.568524
20
349.892914
11
92.588610
21
350.034452
0
LINE
8
boundary
62
5
39
2
10
92.588610
20
350.034452
11
93.600355
21
350.196032
0
LINE
8
boundary
62
5
39
2
10
93.600355
20
350.196032
11
94.603300
21
350.377393
0
LINE
8
boundary
62
5
39
2
10
94.603300
20
350.377393
11
95.596737
21
350.578927
0
LINE
8
boundary
62
5
39
2
10
95.596737
20
350.578927
11
96.580101
21
350.800329
0
LINE
8
boundary
62
5
39
2
10
96.580101
20
350.800329
11
97.552707
21
351.041822
0
LINE
8
boundary
62
5
39
2
10
97.552707
20
351.041822
11
98.513894
21
351.303400
0
LINE
8
boundary
62
5
39
2
10
98.513894
20
351.303400
11
99.463232
21
351.584939
0
LINE
8
boundary
62
5
39
2
10
99.463232
20
351.584939
11
100.399870
21
351.886659
0
LINE
8
boundary
62
5
39
2
10
100.399870
20
351.886659
11
101.323286
21
352.208655
0
LINE
8
boundary
62
5
39
2
10
101.323286
20
352.208655
11
102.232861
21
352.550557
0
LINE
8
boundary
62
5
39
2
10
102.232861
20
352.550557
11
103.127933
21
352.912826
0
LINE
8
boundary
62
5
39
2
10
103.127933
20
352.912826
11
104.007943
21
353.295074
0
LINE
8
boundary
62
5
39
2
10
104.007943
20
353.295074
11
104.872181
21
353.697710
0
LINE
8
boundary
62
5
39
2
10
104.872181
20
353.697710
11
105.720078
21
354.120586
0
LINE
8
boundary
62
5
39
2
10
105.720078
20
354.120586
11
106.551054
21
354.563768
0
LINE
8
boundary
62
5
39
2
10
106.551054
20
354.563768
11
107.364368
21
355.027158
0
LINE
8
boundary
62
5
39
2
10
107.364368
20
355.027158
11
108.159463
21
355.510822
0
LINE
8
boundary
62
5
39
2
10
108.159463
20
355.510822
11
108.935763
21
356.014864
0
LINE
8
boundary
62
5
39
2
10
108.935763
20
356.014864
11
109.692630
21
356.539177
0
LINE
8
boundary
62
5
39
2
10
109.692630
20
356.539177
11
110.429380
21
357.084040
0
LINE
8
boundary
62
5
39
2
10
110.429380
20
357.084040
11
111.145496
21
357.649143
0
LINE
8
boundary
62
5
39
2
10
111.145496
20
357.649143
11
111.840298
21
358.234748
0
LINE
8
boundary
62
5
39
2
10
111.840298
20
358.234748
11
112.513256
21
358.840792
0
LINE
8
boundary
62
5
39
2
10
112.513256
20
358.840792
11
113.163761
21
359.467130
0
LINE
8
boundary
62
5
39
2
10
113.163761
20
359.467130
11
113.603144
21
359.772613
0
LINE
8
boundary
62
5
39
2
10
113.603144
20
359.772613
11
114.305677
21
360.314782
0
LINE
8
boundary
62
5
39
2
10
114.305677
20
360.314782
11
114.963163
21
360.904726
0
LINE
8
boundary
62
5
39
2
10
114.963163
20
360.904726
11
115.539769
21
361.513732
0
LINE
8
boundary
62
5
39
2
10
115.539769
20
361.513732
11
116.037191
21
362.141440
0
LINE
8
boundary
62
5
39
2
10
116.037191
20
362.141440
11
116.457192
21
362.787248
0
LINE
8
boundary
62
5
39
2
10
116.457192
20
362.787248
11
116.801683
21
363.450655
0
LINE
8
boundary
62
5
39
2
10
116.801683
20
363.450655
11
117.072350
21
364.131011
0
LINE
8
boundary
62
5
39
2
10
117.072350
20
364.131011
11
117.271139
21
364.828005
0
LINE
8
boundary
62
5
39
2
10
117.271139
20
364.828005
11
117.399905
21
365.540692
0
LINE
8
boundary
62
5
39
2
10
117.399905
20
365.540692
11
117.460509
21
366.268730
0
LINE
8
boundary
62
5
39
2
10
117.460509
20
366.268730
11
117.454947
21
367.011774
0
LINE
8
boundary
62
5
39
2
10
117.454947
20
367.011774
11
117.385095
21
367.768872
0
LINE
8
boundary
62
5
39
2
10
117.385095
20
367.768872
11
117.252842
21
368.539779
0
LINE
8
boundary
62
5
39
2
10
117.252842
20
368.539779
11
117.060288
21
369.323730
0
LINE
8
boundary
62
5
39
2
10
117.060288
20
369.323730
11
116.809185
21
370.120238
0
LINE
8
boundary
62
5
39
2
10
116.809185
20
370.120238
11
116.501584
21
370.928728
0
LINE
8
boundary
62
5
39
2
10
116.501584
20
370.928728
11
116.139522
21
371.748583
0
LINE
8
boundary
62
5
39
2
10
116.139522
20
371.748583
11
115.724930
21
372.579422
0
LINE
8
boundary
62
5
39
2
10
115.724930
20
372.579422
11
115.451766
21
373.078728
0
LINE
8
boundary
62
5
39
2
10
115.451766
20
373.078728
11
115.008793
21
373.844586
0
LINE
8
boundary
62
5
39
2
10
115.008793
20
373.844586
11
114.471413
21
374.700011
0
LINE
8
boundary
62
5
39
2
10
114.471413
20
374.700011
11
113.888430
21
375.564463
0
LINE
8
boundary
62
5
39
2
10
113.888430
20
375.564463
11
113.261843
21
376.437118
0
LINE
8
boundary
62
5
39
2
10
113.261843
20
376.437118
11
112.593425
21
377.317626
0
LINE
8
boundary
62
5
39
2
10
112.593425
20
377.317626
11
111.885263
21
378.205325
0
LINE
8
boundary
62
5
39
2
10
111.885263
20
378.205325
11
111.139370
21
379.099771
0
LINE
8
boundary
62
5
39
2
10
111.139370
20
379.099771
11
110.357528
21
380.000332
0
LINE
8
boundary
62
5
39
2
10
110.357528
20
380.000332
11
109.541750
21
380.906391
0
LINE
8
boundary
62
5
39
2
10
109.541750
20
380.906391
11
108.693963
21
381.817750
0
LINE
8
boundary
62
5
39
2
10
108.693963
20
381.817750
11
107.816031
21
382.733442
0
LINE
8
boundary
62
5
39
2
10
107.816031
20
382.733442
11
106.909788
21
383.653155
0
LINE
8
boundary
62
5
39
2
10
106.909788
20
383.653155
11
105.977295
21
384.576335
0
LINE
8
boundary
62
5
39
2
10
105.977295
20
384.576335
11
105.020202
21
385.502453
0
LINE
8
boundary
62
5
39
2
10
105.020202
20
385.502453
11
104.040485
21
386.430991
0
LINE
8
boundary
62
5
39
2
10
104.040485
20
386.430991
11
103.039827
21
387.361426
0
LINE
8
boundary
62
5
39
2
10
103.039827
20
387.361426
11
102.020180
21
388.293272
0
LINE
8
boundary
62
5
39
2
10
102.020180
20
388.293272
11
100.983349
21
389.225979
0
LINE
8
boundary
62
5
39
2
10
100.983349
20
389.225979
11
99.931008
21
390.158937
0
LINE
8
boundary
62
5
39
2
10
99.931008
20
390.158937
11
98.864889
21
391.091795
0
LINE
8
boundary
62
5
39
2
10
98.864889
20
391.091795
11
97.786711
21
392.024024
0
LINE
8
boundary
62
5
39
2
10
97.786711
20
392.024024
11
96.698358
21
392.955045
0
LINE
8
boundary
62
5
39
2
10
96.698358
20
392.955045
11
95.601341
21
393.884462
0
LINE
8
boundary
62
5
39
2
10
95.601341
20
393.884462
11
93.388194
21
395.736361
0
LINE
8
boundary
62
5
39
2
10
93.388194
20
395.736361
11
91.160377
21
397.575675
0
LINE
8
boundary
62
5
39
2
10
91.160377
20
397.575675
11
88.930764
21
399.398573
0
LINE
8
boundary
62
5
39
2
10
88.930764
20
399.398573
11
86.711749
21
401.201356
0
LINE
8
boundary
62
5
39
2
10
86.711749
20
401.201356
11
84.515491
21
402.980154
0
LINE
8
boundary
62
5
39
2
10
84.515491
20
402.980154
11
84.029762
21
403.373309
0
LINE
8
boundary
62
5
39
2
10
84.029762
20
403.373309
11
80.238342
21
406.450316
0
LINE
8
boundary
62
5
39
2
10
80.238342
20
406.450316
11
79.790032
21
406.818394
0
LINE
8
boundary
62
5
39
2
10
79.790032
20
406.818394
11
76.190769
21
409.778732
0
LINE
8
boundary
62
5
39
2
10
76.190769
20
409.778732
11
74.280319
21
411.380453
0
LINE
8
boundary
62
5
39
2
10
74.280319
20
411.380453
11
72.459724
21
412.935717
0
LINE
8
boundary
62
5
39
2
10
72.459724
20
412.935717
11
71.364392
21
413.872524
0
LINE
8
boundary
62
5
39
2
10
71.364392
20
413.872524
11
70.278656
21
414.783627
0
LINE
8
boundary
62
5
39
2
10
70.278656
20
414.783627
11
69.202199
21
415.669217
0
LINE
8
boundary
62
5
39
2
10
69.202199
20
415.669217
11
68.134798
21
416.529765
0
LINE
8
boundary
62
5
39
2
10
68.134798
20
416.529765
11
67.076179
21
417.365700
0
LINE
8
boundary
62
5
39
2
10
67.076179
20
417.365700
11
66.026167
21
418.177394
0
LINE
8
boundary
62
5
39
2
10
66.026167
20
418.177394
11
64.984661
21
418.965210
0
LINE
8
boundary
62
5
39
2
10
64.984661
20
418.965210
11
63.951350
21
419.729592
0
LINE
8
boundary
62
5
39
2
10
63.951350
20
419.729592
11
62.926071
21
420.471053
0
LINE
8
boundary
62
5
39
2
10
62.926071
20
420.471053
11
61.908537
21
421.189777
0
LINE
8
boundary
62
5
39
2
10
61.908537
20
421.189777
11
60.898636
21
421.886402
0
LINE
8
boundary
62
5
39
2
10
60.898636
20
421.886402
11
59.896162
21
422.561136
0
LINE
8
boundary
62
5
39
2
10
59.896162
20
422.561136
11
58.900890
21
423.214703
0
LINE
8
boundary
62
5
39
2
10
58.900890
20
423.214703
11
57.912734
21
423.846936
0
LINE
8
boundary
62
5
39
2
10
57.912734
20
423.846936
11
56.931381
21
424.458708
0
LINE
8
boundary
62
5
39
2
10
56.931381
20
424.458708
11
55.956690
21
425.050234
0
LINE
8
boundary
62
5
39
2
10
55.956690
20
425.050234
11
54.988505
21
425.621927
0
LINE
8
boundary
62
5
39
2
10
54.988505
20
425.621927
11
54.026600
21
426.174177
0
LINE
8
boundary
62
5
39
2
10
54.026600
20
426.174177
11
53.070844
21
426.707536
0
LINE
8
boundary
62
5
39
2
10
53.070844
20
426.707536
11
52.121160
21
427.222046
0
LINE
8
boundary
62
5
39
2
10
52.121160
20
427.222046
11
51.177206
21
427.718405
0
LINE
8
boundary
62
5
39
2
10
51.177206
20
427.718405
11
50.238930
21
428.196863
0
LINE
8
boundary
62
5
39
2
10
50.238930
20
428.196863
11
49.306108
21
428.657968
0
LINE
8
boundary
62
5
39
2
10
49.306108
20
428.657968
11
48.378652
21
429.102023
0
LINE
8
boundary
62
5
39
2
10
48.378652
20
429.102023
11
47.456447
21
429.529328
0
LINE
8
boundary
62
5
39
2
10
47.456447
20
429.529328
11
46.539193
21
429.940567
0
LINE
8
boundary
62
5
39
2
10
46.539193
20
429.940567
11
45.626962
21
430.335777
0
LINE
8
boundary
62
5
39
2
10
45.626962
20
430.335777
11
44.719469
21
430.715466
0
LINE
8
boundary
62
5
39
2
10
44.719469
20
430.715466
11
43.816635
21
431.080179
0
LINE
8
boundary
62
5
39
2
10
43.816635
20
431.080179
11
42.918250
21
431.430059
0
LINE
8
boundary
62
5
39
2
10
42.918250
20
431.430059
11
42.024349
21
431.765871
0
LINE
8
boundary
62
5
39
2
10
42.024349
20
431.765871
11
41.134700
21
432.087652
0
LINE
8
boundary
62
5
39
2
10
41.134700
20
432.087652
11
40.249180
21
432.395963
0
LINE
8
boundary
62
5
39
2
10
40.249180
20
432.395963
11
39.367714
21
432.691110
0
LINE
8
boundary
62
5
39
2
10
39.367714
20
432.691110
11
38.490126
21
432.973627
0
LINE
8
boundary
62
5
39
2
10
38.490126
20
432.973627
11
37.616406
21
433.243971
0
LINE
8
boundary
62
5
39
2
10
37.616406
20
433.243971
11
36.746433
21
433.502121
0
LINE
8
boundary
62
5
39
2
10
36.746433
20
433.502121
11
35.880102
21
433.748931
0
LINE
8
boundary
62
5
39
2
10
35.880102
20
433.748931
11
35.017279
21
433.984498
0
LINE
8
boundary
62
5
39
2
10
35.017279
20
433.984498
11
34.157948
21
434.209438
0
LINE
8
boundary
62
5
39
2
10
34.157948
20
434.209438
11
33.301954
21
434.424052
0
LINE
8
boundary
62
5
39
2
10
33.301954
20
434.424052
11
32.449230
21
434.628620
0
LINE
8
boundary
62
5
39
2
10
32.449230
20
434.628620
11
30.753363
21
435.009815
0
LINE
8
boundary
62
5
39
2
10
30.753363
20
435.009815
11
29.069784
21
435.355920
0
LINE
8
boundary
62
5
39
2
10
29.069784
20
435.355920
11
27.397937
21
435.670241
0
LINE
8
boundary
62
5
39
2
10
27.397937
20
435.670241
11
25.737444
21
435.956077
0
LINE
8
boundary
62
5
39
2
10
25.737444
20
435.956077
11
24.087829
21
436.216497
0
LINE
8
boundary
62
5
39
2
10
24.087829
20
436.216497
11
22.448713
21
436.454687
0
LINE
8
boundary
62
5
39
2
10
22.448713
20
436.454687
11
20.819971
21
436.673882
0
LINE
8
boundary
62
5
39
2
10
20.819971
20
436.673882
11
19.201361
21
436.877165
0
LINE
8
boundary
62
5
39
2
10
19.201361
20
436.877165
11
17.592587
21
437.067779
0
LINE
8
boundary
62
5
39
2
10
17.592587
20
437.067779
11
14.404376
21
437.424321
0
LINE
8
boundary
62
5
39
2
10
14.404376
20
437.424321
11
13.832397
21
429.923972
0
LINE
8
boundary
62
5
39
2
10
13.832397
20
429.923972
11
18.243419
21
429.453129
0
LINE
8
boundary
62
5
39
2
10
18.243419
20
429.453129
11
19.501470
21
429.088478
0
LINE
8
boundary
62
5
39
2
10
19.501470
20
429.088478
11
20.743409
21
428.715019
0
LINE
8
boundary
62
5
39
2
10
20.743409
20
428.715019
11
21.315704
21
428.536651
0
LINE
8
boundary
62
5
39
2
10
21.315704
20
428.536651
11
38.684434
21
428.536651
0
LINE
8
boundary
62
5
39
2
10
38.684434
20
428.536651
11
38.684434
21
425.790651
0
LINE
8
boundary
62
5
39
2
10
38.684434
20
425.790651
11
29.569977
21
425.790651
0
LINE
8
boundary
62
5
39
2
10
29.569977
20
425.790651
11
30.107584
21
425.424877
0
LINE
8
boundary
62
5
39
2
10
30.107584
20
425.424877
11
31.207738
21
424.977877
0
LINE
8
boundary
62
5
39
2
10
31.207738
20
424.977877
11
32.292451
21
424.523545
0
LINE
8
boundary
62
5
39
2
10
32.292451
20
424.523545
11
33.361711
21
424.061763
0
LINE
8
boundary
62
5
39
2
10
33.361711
20
424.061763
11
34.415636
21
423.592761
0
LINE
8
boundary
62
5
39
2
10
34.415636
20
423.592761
11
35.454241
21
423.116884
0
LINE
8
boundary
62
5
39
2
10
35.454241
20
423.116884
11
36.477575
21
422.633958
0
LINE
8
boundary
62
5
39
2
10
36.477575
20
422.633958
11
37.485686
21
422.144287
0
LINE
8
boundary
62
5
39
2
10
37.485686
20
422.144287
11
38.478557
21
421.647993
0
LINE
8
boundary
62
5
39
2
10
38.478557
20
421.647993
11
39.456277
21
421.145276
0
LINE
8
boundary
62
5
39
2
10
39.456277
20
421.145276
11
40.418900
21
420.636154
0
LINE
8
boundary
62
5
39
2
10
40.418900
20
420.636154
11
41.366309
21
420.120882
0
LINE
8
boundary
62
5
39
2
10
41.366309
20
420.120882
11
42.298550
21
419.599459
0
LINE
8
boundary
62
5
39
2
10
42.298550
20
419.599459
11
43.215777
21
419.072219
0
LINE
8
boundary
62
5
39
2
10
43.215777
20
419.072219
11
44.117850
21
418.539205
0
LINE
8
boundary
62
5
39
2
10
44.117850
20
418.539205
11
45.004871
21
418.000379
0
LINE
8
boundary
62
5
39
2
10
45.004871
20
418.000379
11
45.876812
21
417.456168
0
LINE
8
boundary
62
5
39
2
10
45.876812
20
417.456168
11
46.733683
21
416.906674
0
LINE
8
boundary
62
5
39
2
10
46.733683
20
416.906674
11
47.575498
21
416.351835
0
LINE
8
boundary
62
5
39
2
10
47.575498
20
416.351835
11
48.402321
21
415.791885
0
LINE
8
boundary
62
5
39
2
10
48.402321
20
415.791885
11
49.214005
21
415.227098
0
LINE
8
boundary
62
5
39
2
10
49.214005
20
415.227098
11
50.010581
21
414.657292
0
LINE
8
boundary
62
5
39
2
10
50.010581
20
414.657292
11
50.792057
21
414.083056
0
LINE
8
boundary
62
5
39
2
10
50.792057
20
414.083056
11
51.558504
21
413.504110
0
LINE
8
boundary
62
5
39
2
10
51.558504
20
413.504110
11
52.309813
21
412.920959
0
LINE
8
boundary
62
5
39
2
10
52.309813
20
412.920959
11
53.046078
21
412.333291
0
LINE
8
boundary
62
5
39
2
10
53.046078
20
412.333291
11
53.767062
21
411.741797
0
LINE
8
boundary
62
5
39
2
10
53.767062
20
411.741797
11
54.473036
21
411.146172
0
LINE
8
boundary
62
5
39
2
10
54.473036
20
411.146172
11
55.163710
21
410.546836
0
LINE
8
boundary
62
5
39
2
10
55.163710
20
410.546836
11
55.839302
21
409.943728
0
LINE
8
boundary
62
5
39
2
10
55.839302
20
409.943728
11
56.499571
21
409.337094
0
LINE
8
boundary
62
5
39
2
10
56.499571
20
409.337094
11
57.144680
21
408.726942
0
LINE
8
boundary
62
5
39
2
10
57.144680
20
408.726942
11
57.774475
21
408.113624
0
LINE
8
boundary
62
5
39
2
10
57.774475
20
408.113624
11
58.388985
21
407.497196
0
LINE
8
boundary
62
5
39
2
10
58.388985
20
407.497196
11
58.988225
21
406.877769
0
LINE
8
boundary
62
5
39
2
10
58.988225
20
406.877769
11
59.572085
21
406.255436
0
LINE
8
boundary
62
5
39
2
10
59.572085
20
406.255436
11
60.140516
21
405.630418
0
LINE
8
boundary
62
5
39
2
10
60.140516
20
405.630418
11
60.693506
21
405.002918
0
LINE
8
boundary
62
5
39
2
10
60.693506
20
405.002918
11
61.231176
21
404.372883
0
LINE
8
boundary
62
5
39
2
10
61.231176
20
404.372883
11
61.753238
21
403.740584
0
LINE
8
boundary
62
5
39
2
10
61.753238
20
403.740584
11
62.259907
21
403.106183
0
LINE
8
boundary
62
5
39
2
10
62.259907
20
403.106183
11
62.750900
21
402.469807
0
LINE
8
boundary
62
5
39
2
10
62.750900
20
402.469807
11
63.226411
21
401.831476
0
LINE
8
boundary
62
5
39
2
10
63.226411
20
401.831476
11
63.686265
21
401.191492
0
LINE
8
boundary
62
5
39
2
10
63.686265
20
401.191492
11
64.130561
21
400.549977
0
LINE
8
boundary
62
5
39
2
10
64.130561
20
400.549977
11
64.559012
21
399.907038
0
LINE
8
boundary
62
5
39
2
10
64.559012
20
399.907038
11
64.971832
21
399.262791
0
LINE
8
boundary
62
5
39
2
10
64.971832
20
399.262791
11
65.368930
21
398.617305
0
LINE
8
boundary
62
5
39
2
10
65.368930
20
398.617305
11
65.750220
21
397.970911
0
LINE
8
boundary
62
5
39
2
10
65.750220
20
397.970911
11
66.115695
21
397.323623
0
LINE
8
boundary
62
5
39
2
10
66.115695
20
397.323623
11
66.465274
21
396.675672
0
LINE
8
boundary
62
5
39
2
10
66.465274
20
396.675672
11
66.798909
21
396.027192
0
LINE
8
boundary
62
5
39
2
10
66.798909
20
396.027192
11
67.116742
21
395.378148
0
LINE
8
boundary
62
5
39
2
10
67.116742
20
395.378148
11
67.418500
21
394.728907
0
LINE
8
boundary
62
5
39
2
10
67.418500
20
394.728907
11
67.704337
21
394.079523
0
LINE
8
boundary
62
5
39
2
10
67.704337
20
394.079523
11
67.743963
21
393.116331
0
LINE
8
boundary
62
5
39
2
10
67.743963
20
393.116331
11
67.810509
21
392.137368
0
LINE
8
boundary
62
5
39
2
10
67.810509
20
392.137368
11
67.897932
21
391.145749
0
LINE
8
boundary
62
5
39
2
10
67.897932
20
391.145749
11
68.000479
21
390.145356
0
LINE
8
boundary
62
5
39
2
10
68.000479
20
390.145356
11
68.226842
21
388.131179
0
LINE
8
boundary
62
5
39
2
10
68.226842
20
388.131179
11
68.441426
21
386.122926
0
LINE
8
boundary
62
5
39
2
10
68.441426
20
386.122926
11
68.529058
21
385.129506
0
LINE
8
boundary
62
5
39
2
10
68.529058
20
385.129506
11
68.595452
21
384.148104
0
LINE
8
boundary
62
5
39
2
10
68.595452
20
384.148104
11
68.634259
21
383.181946
0
LINE
8
boundary
62
5
39
2
10
68.634259
20
383.181946
11
68.639422
21
382.234802
0
LINE
8
boundary
62
5
39
2
10
68.639422
20
382.234802
11
68.604491
21
381.309816
0
LINE
8
boundary
62
5
39
2
10
68.604491
20
381.309816
11
68.561018
21
380.771373
0
LINE
8
boundary
62
5
39
2
10
68.561018
20
380.771373
11
68.463453
21
379.972107
0
LINE
8
boundary
62
5
39
2
10
68.463453
20
379.972107
11
68.372141
21
379.458749
0
LINE
8
boundary
62
5
39
2
10
68.372141
20
379.458749
11
68.196891
21
378.704437
0
LINE
8
boundary
62
5
39
2
10
68.196891
20
378.704437
11
67.938929
21
377.904086
0
LINE
8
boundary
62
5
39
2
10
67.938929
20
377.904086
11
67.609530
21
377.143455
0
LINE
8
boundary
62
5
39
2
10
67.609530
20
377.143455
11
67.202223
21
376.426384
0
LINE
8
boundary
62
5
39
2
10
67.202223
20
376.426384
11
66.710957
21
375.756118
0
LINE
8
boundary
62
5
39
2
10
66.710957
20
375.756118
11
66.368016
21
375.375789
0
LINE
8
boundary
62
5
39
2
10
66.368016
20
375.375789
11
65.802711
21
374.846340
0
LINE
8
boundary
62
5
39
2
10
65.802711
20
374.846340
11
65.369728
21
374.513941
0
LINE
8
boundary
62
5
39
2
10
65.369728
20
374.513941
11
64.670617
21
374.061779
0
LINE
8
boundary
62
5
39
2
10
64.670617
20
374.061779
11
64.138080
21
373.781995
0
LINE
8
boundary
62
5
39
2
10
64.138080
20
373.781995
11
63.672123
21
373.569069
0
LINE
8
boundary
62
5
39
2
10
63.672123
20
373.569069
11
63.177123
21
373.372479
0
LINE
8
boundary
62
5
39
2
10
63.177123
20
373.372479
11
62.652476
21
373.192424
0
LINE
8
boundary
62
5
39
2
10
62.652476
20
373.192424
11
62.097377
21
373.029436
0
LINE
8
boundary
62
5
39
2
10
62.097377
20
373.029436
11
61.511053
21
372.883984
0
LINE
8
boundary
62
5
39
2
10
61.511053
20
372.883984
11
60.892783
21
372.756597
0
LINE
8
boundary
62
5
39
2
10
60.892783
20
372.756597
11
60.241888
21
372.647499
0
LINE
8
boundary
62
5
39
2
10
60.241888
20
372.647499
11
59.729622
21
372.575824
0
LINE
8
boundary
62
5
39
2
10
59.729622
20
372.575824
11
59.021987
21
372.500476
0
LINE
8
boundary
62
5
39
2
10
59.021987
20
372.500476
11
58.280097
21
372.444423
0
LINE
8
boundary
62
5
39
2
10
58.280097
20
372.444423
11
57.503235
21
372.408388
0
LINE
8
boundary
62
5
39
2
10
57.503235
20
372.408388
11
56.690855
21
372.392676
0
LINE
8
boundary
62
5
39
2
10
56.690855
20
372.392676
11
55.842306
21
372.397660
0
LINE
8
boundary
62
5
39
2
10
55.842306
20
372.397660
11
54.956887
21
372.423869
0
LINE
8
boundary
62
5
39
2
10
54.956887
20
372.423869
11
54.033921
21
372.471738
0
LINE
8
boundary
62
5
39
2
10
54.033921
20
372.471738
11
53.072987
21
372.541451
0
LINE
8
boundary
62
5
39
2
10
53.072987
20
372.541451
11
52.073410
21
372.633623
0
LINE
8
boundary
62
5
39
2
10
52.073410
20
372.633623
11
51.574042
21
372.812093
0
LINE
8
boundary
62
5
39
2
10
51.574042
20
372.812093
11
50.293770
21
373.273284
0
LINE
8
boundary
62
5
39
2
10
50.293770
20
373.273284
11
49.796396
21
373.446753
0
LINE
8
boundary
62
5
39
2
10
49.796396
20
373.446753
11
48.564184
21
373.879868
0
LINE
8
boundary
62
5
39
2
10
48.564184
20
373.879868
11
48.066597
21
374.048081
0
LINE
8
boundary
62
5
39
2
10
48.066597
20
374.048081
11
46.875310
21
374.453943
0
LINE
8
boundary
62
5
39
2
10
46.875310
20
374.453943
11
46.374997
21
374.616809
0
LINE
8
boundary
62
5
39
2
10
46.374997
20
374.616809
11
45.217741
21
374.996330
0
LINE
8
boundary
62
5
39
2
10
45.217741
20
374.996330
11
44.712007
21
375.153651
0
LINE
8
boundary
62
5
39
2
10
44.712007
20
375.153651
11
43.582424
21
375.507717
0
LINE
8
boundary
62
5
39
2
10
43.582424
20
375.507717
11
43.068168
21
375.659454
0
LINE
8
boundary
62
5
39
2
10
43.068168
20
375.659454
11
41.960010
21
375.988782
0
LINE
8
boundary
62
5
39
2
10
41.960010
20
375.988782
11
41.433963
21
376.134828
0
LINE
8
boundary
62
5
39
2
10
41.433963
20
376.134828
11
40.341621
21
376.440315
0
LINE
8
boundary
62
5
39
2
10
40.341621
20
376.440315
11
39.800054
21
376.580609
0
LINE
8
boundary
62
5
39
2
10
39.800054
20
376.580609
11
38.718083
21
376.862904
0
LINE
8
boundary
62
5
39
2
10
38.718083
20
376.862904
11
38.156908
21
376.997359
0
LINE
8
boundary
62
5
39
2
10
38.156908
20
376.997359
11
37.080415
21
377.257212
0
LINE
8
boundary
62
5
39
2
10
37.080415
20
377.257212
11
36.495109
21
377.385889
0
LINE
8
boundary
62
5
39
2
10
36.495109
20
377.385889
11
35.419715
21
377.623958
0
LINE
8
boundary
62
5
39
2
10
35.419715
20
377.623958
11
34.805233
21
377.746776
0
LINE
8
boundary
62
5
39
2
10
34.805233
20
377.746776
11
33.727080
21
377.963880
0
LINE
8
boundary
62
5
39
2
10
33.727080
20
377.963880
11
33.077734
21
378.080821
0
LINE
8
boundary
62
5
39
2
10
33.077734
20
378.080821
11
31.993686
21
378.277533
0
LINE
8
boundary
62
5
39
2
10
31.993686
20
378.277533
11
31.303025
21
378.388586
0
LINE
8
boundary
62
5
39
2
10
31.303025
20
378.388586
11
30.210621
21
378.565545
0
LINE
8
boundary
62
5
39
2
10
30.210621
20
378.565545
11
29.471262
21
378.670622
0
LINE
8
boundary
62
5
39
2
10
29.471262
20
378.670622
11
28.369108
21
378.828571
0
LINE
8
boundary
62
5
39
2
10
28.369108
20
378.828571
11
27.572557
21
378.927791
0
LINE
8
boundary
62
5
39
2
10
27.572557
20
378.927791
11
26.460367
21
379.067411
0
LINE
8
boundary
62
5
39
2
10
26.460367
20
379.067411
11
25.596671
21
379.160436
0
LINE
8
boundary
62
5
39
2
10
25.596671
20
379.160436
11
24.475562
21
379.282354
0
LINE
8
boundary
62
5
39
2
10
24.475562
20
379.282354
11
23.814480
21
369.809038
0
LINE
8
boundary
62
5
39
2
10
23.814480
20
369.809038
11
23.137086
21
360.120475
0
LINE
8
boundary
62
5
39
2
10
23.137086
20
360.120475
11
26.952239
21
345.475190
0
LINE
8
boundary
62
5
39
2
10
26.952239
20
345.475190
11
36.652288
21
345.325192
0
LINE
8
boundary
62
5
39
2
10
36.652288
20
345.325192
11
36.652288
21
342.579191
0
LINE
8
boundary
62
5
39
2
10
36.652288
20
342.579191
11
27.756034
21
342.579191
0
LINE
8
boundary
62
5
39
2
10
27.756034
20
342.579191
11
27.929374
21
341.724251
0
LINE
8
boundary
62
5
39
2
10
27.929374
20
341.724251
11
32.808568
21
322.860885
0
LINE
8
boundary
62
5
39
2
10
32.808568
20
322.860885
11
33.174251
21
321.676184
0
LINE
8
boundary
62
5
39
2
10
33.174251
20
321.676184
11
33.487016
21
320.653724
0
LINE
8
boundary
62
5
39
2
10
33.487016
20
320.653724
11
33.830128
21
319.473249
0
LINE
8
boundary
62
5
39
2
10
33.830128
20
319.473249
11
34.128017
21
318.438774
0
LINE
8
boundary
62
5
39
2
10
34.128017
20
318.438774
11
34.449142
21
317.262218
0
LINE
8
boundary
62
5
39
2
10
34.449142
20
317.262218
11
34.731831
21
316.216263
0
LINE
8
boundary
62
5
39
2
10
34.731831
20
316.216263
11
35.031349
21
315.043217
0
LINE
8
boundary
62
5
39
2
10
35.031349
20
315.043217
11
35.298417
21
313.986499
0
LINE
8
boundary
62
5
39
2
10
35.298417
20
313.986499
11
35.576919
21
312.816556
0
LINE
8
boundary
62
5
39
2
10
35.576919
20
312.816556
11
35.828189
21
311.749600
0
LINE
8
boundary
62
5
39
2
10
35.828189
20
311.749600
11
36.086098
21
310.582327
0
LINE
8
boundary
62
5
39
2
10
36.086098
20
310.582327
11
36.321313
21
309.505707
0
LINE
8
boundary
62
5
39
2
10
36.321313
20
309.505707
11
36.559042
21
308.340884
0
LINE
8
boundary
62
5
39
2
10
36.559042
20
308.340884
11
36.777975
21
307.255381
0
LINE
8
boundary
62
5
39
2
10
36.777975
20
307.255381
11
36.995887
21
306.092496
0
LINE
8
boundary
62
5
39
2
10
36.995887
20
306.092496
11
37.198337
21
304.998657
0
LINE
8
boundary
62
5
39
2
10
37.198337
20
304.998657
11
37.396925
21
303.837279
0
LINE
8
boundary
62
5
39
2
10
37.396925
20
303.837279
11
37.582810
21
302.735621
0
LINE
8
boundary
62
5
39
2
10
37.582810
20
302.735621
11
37.762346
21
301.575518
0
LINE
8
boundary
62
5
39
2
10
37.762346
20
301.575518
11
37.931550
21
300.466744
0
LINE
8
boundary
62
5
39
2
10
37.931550
20
300.466744
11
38.092395
21
299.307320
0
LINE
8
boundary
62
5
39
2
10
38.092395
20
299.307320
11
38.244824
21
298.192072
0
LINE
8
boundary
62
5
39
2
10
38.244824
20
298.192072
11
38.387295
21
297.033080
0
LINE
8
boundary
62
5
39
2
10
38.387295
20
297.033080
11
38.522883
21
295.911939
0
LINE
8
boundary
62
5
39
2
10
38.522883
20
295.911939
11
38.647318
21
294.752862
0
LINE
8
boundary
62
5
39
2
10
38.647318
20
294.752862
11
38.766133
21
293.626478
0
LINE
8
boundary
62
5
39
2
10
38.766133
20
293.626478
11
38.872779
21
292.466897
0
LINE
8
boundary
62
5
39
2
10
38.872779
20
292.466897
11
38.974769
21
291.335983
0
LINE
8
boundary
62
5
39
2
10
38.974769
20
291.335983
11
39.063873
21
290.175554
0
LINE
8
boundary
62
5
39
2
10
39.063873
20
290.175554
11
39.149139
21
289.040647
0
LINE
8
boundary
62
5
39
2
10
39.149139
20
289.040647
11
39.220904
21
287.878846
0
LINE
8
boundary
62
5
39
2
10
39.220904
20
287.878846
11
39.289420
21
286.740705
0
LINE
8
boundary
62
5
39
2
10
39.289420
20
286.740705
11
39.344196
21
285.577050
0
LINE
8
boundary
62
5
39
2
10
39.344196
20
285.577050
11
39.396228
21
284.436235
0
LINE
8
boundary
62
5
39
2
10
39.396228
20
284.436235
11
39.434071
21
283.270384
0
LINE
8
boundary
62
5
39
2
10
39.434071
20
283.270384
11
39.469650
21
282.127591
0
LINE
8
boundary
62
5
39
2
10
39.469650
20
282.127591
11
39.490771
21
280.958964
0
LINE
8
boundary
62
5
39
2
10
39.490771
20
280.958964
11
39.510047
21
279.814927
0
LINE
8
boundary
62
5
39
2
10
39.510047
20
279.814927
11
39.514702
21
278.643018
0
LINE
8
boundary
62
5
39
2
10
39.514702
20
278.643018
11
39.517974
21
277.498427
0
LINE
8
boundary
62
5
39
2
10
39.517974
20
277.498427
11
39.506213
21
276.322885
0
LINE
8
boundary
62
5
39
2
10
39.506213
20
276.322885
11
39.493614
21
275.178418
0
LINE
8
boundary
62
5
39
2
10
39.493614
20
275.178418
11
39.465562
21
273.998704
0
LINE
8
boundary
62
5
39
2
10
39.465562
20
273.998704
11
39.437394
21
272.855030
0
LINE
8
boundary
62
5
39
2
10
39.437394
20
272.855030
11
39.393150
21
271.670473
0
LINE
8
boundary
62
5
39
2
10
39.393150
20
271.670473
11
39.349630
21
270.528337
0
LINE
8
boundary
62
5
39
2
10
39.349630
20
270.528337
11
39.289352
21
269.338615
0
LINE
8
boundary
62
5
39
2
10
39.289352
20
269.338615
11
39.230893
21
268.198831
0
LINE
8
boundary
62
5
39
2
10
39.230893
20
268.198831
11
39.154541
21
267.003318
0
LINE
8
boundary
62
5
39
2
10
39.154541
20
267.003318
11
39.081374
21
265.866500
0
LINE
8
boundary
62
5
39
2
10
39.081374
20
265.866500
11
38.989101
21
264.664594
0
LINE
8
boundary
62
5
39
2
10
38.989101
20
264.664594
11
38.901709
21
263.531616
0
LINE
8
boundary
62
5
39
2
10
38.901709
20
263.531616
11
38.793445
21
262.322851
0
LINE
8
boundary
62
5
39
2
10
38.793445
20
262.322851
11
38.692090
21
261.194431
0
LINE
8
boundary
62
5
39
2
10
38.692090
20
261.194431
11
38.567925
21
259.978180
0
LINE
8
boundary
62
5
39
2
10
38.567925
20
259.978180
11
38.453139
21
258.855095
0
LINE
8
boundary
62
5
39
2
10
38.453139
20
258.855095
11
38.313024
21
257.630850
0
LINE
8
boundary
62
5
39
2
10
38.313024
20
257.630850
11
38.185199
21
256.513851
0
LINE
8
boundary
62
5
39
2
10
38.185199
20
256.513851
11
38.029101
21
255.280965
0
LINE
8
boundary
62
5
39
2
10
38.029101
20
255.280965
11
37.888712
21
254.170954
0
LINE
8
boundary
62
5
39
2
10
37.888712
20
254.170954
11
37.716569
21
252.928822
0
LINE
8
boundary
62
5
39
2
10
37.716569
20
252.928822
11
37.564105
21
251.826589
0
LINE
8
boundary
62
5
39
2
10
37.564105
20
251.826589
11
37.375905
21
250.574610
0
LINE
8
boundary
62
5
39
2
10
37.375905
20
250.574610
11
37.211960
21
249.480931
0
LINE
8
boundary
62
5
39
2
10
37.211960
20
249.480931
11
37.007578
21
248.218529
0
LINE
8
boundary
62
5
39
2
10
37.007578
20
248.218529
11
36.832612
21
247.134304
0
LINE
8
boundary
62
5
39
2
10
36.832612
20
247.134304
11
36.611988
21
245.860788
0
LINE
8
boundary
62
5
39
2
10
36.611988
20
245.860788
11
36.426660
21
244.786946
0
LINE
8
boundary
62
5
39
2
10
36.426660
20
244.786946
11
36.189633
21
243.501706
0
LINE
8
boundary
62
5
39
2
10
36.189633
20
243.501706
11
35.994489
21
242.439006
0
LINE
8
boundary
62
5
39
2
10
35.994489
20
242.439006
11
35.740900
21
241.141344
0
LINE
8
boundary
62
5
39
2
10
35.740900
20
241.141344
11
35.536564
21
240.090751
0
LINE
8
boundary
62
5
39
2
10
35.536564
20
240.090751
11
35.266339
21
238.779981
0
LINE
8
boundary
62
5
39
2
10
35.266339
20
238.779981
11
35.053490
21
237.742418
0
LINE
8
boundary
62
5
39
2
10
35.053490
20
237.742418
11
34.766419
21
236.418000
0
LINE
8
boundary
62
5
39
2
10
34.766419
20
236.418000
11
34.545776
21
235.394372
0
LINE
8
boundary
62
5
39
2
10
34.545776
20
235.394372
11
34.241696
21
234.055453
0
LINE
8
boundary
62
5
39
2
10
34.241696
20
234.055453
11
34.013890
21
233.046723
0
LINE
8
boundary
62
5
39
2
10
34.013890
20
233.046723
11
33.692540
21
231.692669
0
LINE
8
boundary
62
5
39
2
10
33.692540
20
231.692669
11
33.458315
21
230.699793
0
LINE
8
boundary
62
5
39
2
10
33.458315
20
230.699793
11
33.119514
21
229.329892
0
LINE
8
boundary
62
5
39
2
10
33.119514
20
229.329892
11
32.879635
21
228.353903
0
LINE
8
boundary
62
5
39
2
10
32.879635
20
228.353903
11
32.523141
21
226.967401
0
LINE
8
boundary
62
5
39
2
10
32.523141
20
226.967401
11
32.278375
21
226.009226
0
LINE
8
boundary
62
5
39
2
10
32.278375
20
226.009226
11
31.903951
21
224.605434
0
LINE
8
boundary
62
5
39
2
10
31.903951
20
224.605434
11
31.655099
21
223.666184
0
LINE
8
boundary
62
5
39
2
10
31.655099
20
223.666184
11
31.262451
21
222.244220
0
LINE
8
boundary
62
5
39
2
10
31.262451
20
222.244220
11
31.010335
21
221.324900
0
LINE
8
boundary
62
5
39
2
10
31.010335
20
221.324900
11
30.599193
21
219.884173
0
LINE
8
boundary
62
5
39
2
10
30.599193
20
219.884173
11
30.344643
21
218.985897
0
LINE
8
boundary
62
5
39
2
10
30.344643
20
218.985897
11
29.914666
21
217.525451
0
LINE
8
boundary
62
5
39
2
10
29.914666
20
217.525451
11
29.658576
21
216.649263
0
LINE
8
boundary
62
5
39
2
10
29.658576
20
216.649263
11
29.209497
21
215.168360
0
LINE
8
boundary
62
5
39
2
10
29.209497
20
215.168360
11
28.952717
21
214.315422
0
LINE
8
boundary
62
5
39
2
10
28.952717
20
214.315422
11
28.484138
21
212.813292
0
LINE
8
boundary
62
5
39
2
10
28.484138
20
212.813292
11
28.227625
21
211.984758
0
LINE
8
boundary
62
5
39
2
10
28.227625
20
211.984758
11
27.739304
21
210.460407
0
LINE
8
boundary
62
5
39
2
10
27.739304
20
210.460407
11
27.483997
21
209.657415
0
LINE
8
boundary
62
5
39
2
10
27.483997
20
209.657415
11
26.975469
21
208.110163
0
LINE
8
boundary
62
5
39
2
10
26.975469
20
208.110163
11
26.722313
21
207.333979
0
LINE
8
boundary
62
5
39
2
10
26.722313
20
207.333979
11
26.193174
21
205.762841
0
LINE
8
boundary
62
5
39
2
10
26.193174
20
205.762841
11
25.943157
21
205.014625
0
LINE
8
boundary
62
5
39
2
10
25.943157
20
205.014625
11
25.393084
21
203.418714
0
LINE
8
boundary
62
5
39
2
10
25.393084
20
203.418714
11
25.147231
21
202.699826
0
LINE
8
boundary
62
5
39
2
10
25.147231
20
202.699826
11
24.575744
21
201.078239
0
LINE
8
boundary
62
5
39
2
10
24.575744
20
201.078239
11
24.335102
21
200.389943
0
LINE
8
boundary
62
5
39
2
10
24.335102
20
200.389943
11
23.741742
21
198.741660
0
LINE
8
boundary
62
5
39
2
10
23.741742
20
198.741660
11
23.507330
21
198.085279
0
LINE
8
boundary
62
5
39
2
10
23.507330
20
198.085279
11
22.891695
21
196.409374
0
LINE
8
boundary
62
5
39
2
10
22.891695
20
196.409374
11
22.664649
21
195.786315
0
LINE
8
boundary
62
5
39
2
10
22.664649
20
195.786315
11
22.026271
21
194.081766
0
LINE
8
boundary
62
5
39
2
10
22.026271
20
194.081766
11
21.807712
21
193.493438
0
LINE
8
boundary
62
5
39
2
10
21.807712
20
193.493438
11
21.146102
21
191.759144
0
LINE
8
boundary
62
5
39
2
10
21.146102
20
191.759144
11
20.937175
21
191.207031
0
LINE
8
boundary
62
5
39
2
10
20.937175
20
191.207031
11
20.251661
21
189.441882
0
LINE
8
boundary
62
5
39
2
10
20.251661
20
189.441882
11
20.053504
21
188.927493
0
LINE
8
boundary
62
5
39
2
10
20.053504
20
188.927493
11
18.593773
21
185.261312
0
LINE
8
boundary
62
5
39
2
10
18.593773
20
185.261312
11
18.249978
21
184.390920
0
LINE
8
boundary
62
5
39
2
10
18.249978
20
184.390920
11
16.686060
21
180.583371
0
LINE
8
boundary
62
5
39
2
10
16.686060
20
180.583371
11
16.402451
21
179.887355
0
LINE
8
boundary
62
5
39
2
10
16.402451
20
179.887355
11
14.729235
21
175.927523
0
LINE
8
boundary
62
5
39
2
10
14.729235
20
175.927523
11
14.516631
21
175.420402
0
LINE
8
boundary
62
5
39
2
10
14.516631
20
175.420402
11
13.538896
21
171.141197
0
LINE
8
boundary
62
5
39
2
10
13.538896
20
171.141197
11
12.433029
21
166.171763
0
LINE
8
boundary
62
5
39
2
10
12.433029
20
166.171763
11
11.849401
21
163.462319
0
LINE
8
boundary
62
5
39
2
10
11.849401
20
163.462319
11
11.314188
21
160.894993
0
LINE
8
boundary
62
5
39
2
10
11.314188
20
160.894993
11
10.790572
21
158.289522
0
LINE
8
boundary
62
5
39
2
10
10.790572
20
158.289522
11
10.282045
21
155.647606
0
LINE
8
boundary
62
5
39
2
10
10.282045
20
155.647606
11
9.792292
21
152.970478
0
LINE
8
boundary
62
5
39
2
10
9.792292
20
152.970478
11
9.324790
21
150.259942
0
LINE
8
boundary
62
5
39
2
10
9.324790
20
150.259942
11
8.883285
21
147.517607
0
LINE
8
boundary
62
5
39
2
10
8.883285
20
147.517607
11
8.471389
21
144.745151
0
LINE
8
boundary
62
5
39
2
10
8.471389
20
144.745151
11
8.092618
21
141.944251
0
LINE
8
boundary
62
5
39
2
10
8.092618
20
141.944251
11
7.750648
21
139.116770
0
LINE
8
boundary
62
5
39
2
10
7.750648
20
139.116770
11
7.449172
21
136.264467
0
LINE
8
boundary
62
5
39
2
10
7.449172
20
136.264467
11
7.191605
21
133.389239
0
LINE
8
boundary
62
5
39
2
10
7.191605
20
133.389239
11
6.981467
21
130.492824
0
LINE
8
boundary
62
5
39
2
10
6.981467
20
130.492824
11
6.822342
21
127.576964
0
LINE
8
boundary
62
5
39
2
10
6.822342
20
127.576964
11
6.717574
21
124.643470
0
LINE
8
boundary
62
5
39
2
10
6.717574
20
124.643470
11
6.683860
21
123.073303
0
LINE
8
boundary
62
5
39
2
10
6.683860
20
123.073303
11
6.668500
21
121.584663
0
LINE
8
boundary
62
5
39
2
10
6.668500
20
121.584663
11
6.668816
21
120.091246
0
LINE
8
boundary
62
5
39
2
10
6.668816
20
120.091246
11
6.685071
21
118.593343
0
LINE
8
boundary
62
5
39
2
10
6.685071
20
118.593343
11
6.717753
21
117.091136
0
LINE
8
boundary
62
5
39
2
10
6.717753
20
117.091136
11
6.767386
21
115.584725
0
LINE
8
boundary
62
5
39
2
10
6.767386
20
115.584725
11
6.834586
21
114.074260
0
LINE
8
boundary
62
5
39
2
10
6.834586
20
114.074260
11
6.919533
21
112.559957
0
LINE
8
boundary
62
5
39
2
10
6.919533
20
112.559957
11
7.022836
21
111.042042
0
LINE
8
boundary
62
5
39
2
10
7.022836
20
111.042042
11
7.144812
21
109.520560
0
LINE
8
boundary
62
5
39
2
10
7.144812
20
109.520560
11
7.286091
21
107.995786
0
LINE
8
boundary
62
5
39
2
10
7.286091
20
107.995786
11
7.447218
21
106.467864
0
LINE
8
boundary
62
5
39
2
10
7.447218
20
106.467864
11
7.628514
21
104.936951
0
LINE
8
boundary
62
5
39
2
10
7.628514
20
104.936951
11
7.830506
21
103.403152
0
LINE
8
boundary
62
5
39
2
10
7.830506
20
103.403152
11
8.053676
21
101.866683
0
LINE
8
boundary
62
5
39
2
10
8.053676
20
101.866683
11
8.298427
21
100.327713
0
LINE
8
boundary
62
5
39
2
10
8.298427
20
100.327713
11
8.565508
21
98.786397
0
LINE
8
boundary
62
5
39
2
10
8.565508
20
98.786397
11
8.855212
21
97.242887
0
LINE
8
boundary
62
5
39
2
10
8.855212
20
97.242887
11
9.167999
21
95.697377
0
LINE
8
boundary
62
5
39
2
10
9.167999
20
95.697377
11
9.504453
21
94.150039
0
LINE
8
boundary
62
5
39
2
10
9.504453
20
94.150039
11
9.620643
21
93.625595
0
LINE
8
boundary
62
5
39
2
10
9.620643
20
93.625595
11
9.865105
21
92.601023
0
LINE
8
boundary
62
5
39
2
10
9.865105
20
92.601023
11
9.996880
21
92.045399
0
LINE
8
boundary
62
5
39
2
10
9.996880
20
92.045399
11
10.250470
21
91.050523
0
LINE
8
boundary
62
5
39
2
10
10.250470
20
91.050523
11
10.399257
21
90.463299
0
LINE
8
boundary
62
5
39
2
10
10.399257
20
90.463299
11
10.661133
21
89.498737
0
LINE
8
boundary
62
5
39
2
10
10.661133
20
89.498737
11
10.828151
21
88.879576
0
LINE
8
boundary
62
5
39
2
10
10.828151
20
88.879576
11
11.097471
21
87.945884
0
LINE
8
boundary
62
5
39
2
10
11.097471
20
87.945884
11
11.284076
21
87.294521
0
LINE
8
boundary
62
5
39
2
10
11.284076
20
87.294521
11
11.560087
21
86.392117
0
LINE
8
boundary
62
5
39
2
10
11.560087
20
86.392117
11
11.767752
21
85.708398
0
LINE
8
boundary
62
5
39
2
10
11.767752
20
85.708398
11
12.049585
21
84.837701
0
LINE
8
boundary
62
5
39
2
10
12.049585
20
84.837701
11
12.279677
21
84.121574
0
LINE
8
boundary
62
5
39
2
10
12.279677
20
84.121574
11
12.832203
21
81.752194
0
LINE
8
boundary
62
5
39
2
10
12.832203
20
81.752194
11
13.357862
21
79.484273
0
LINE
8
boundary
62
5
39
2
10
13.357862
20
79.484273
11
13.891720
21
77.214587
0
LINE
8
boundary
62
5
39
2
10
13.891720
20
77.214587
11
14.507480
21
74.580128
0
LINE
8
boundary
62
5
39
2
10
14.507480
20
74.580128
11
14.771996
21
73.494407
0
LINE
8
boundary
62
5
39
2
10
14.771996
20
73.494407
11
15.123931
21
72.040639
0
LINE
8
boundary
62
5
39
2
10
15.123931
20
72.040639
11
15.387371
21
70.998527
0
LINE
8
boundary
62
5
39
2
10
15.387371
20
70.998527
11
15.776275
21
69.449956
0
LINE
8
boundary
62
5
39
2
10
15.776275
20
69.449956
11
16.038920
21
68.456607
0
LINE
8
boundary
62
5
39
2
10
16.038920
20
68.456607
11
16.470354
21
66.813525
0
LINE
8
boundary
62
5
39
2
10
16.470354
20
66.813525
11
16.732183
21
65.873615
0
LINE
8
boundary
62
5
39
2
10
16.732183
20
65.873615
11
17.212424
21
64.136861
0
LINE
8
boundary
62
5
39
2
10
17.212424
20
64.136861
11
17.472928
21
63.254578
0
LINE
8
boundary
62
5
39
2
10
17.472928
20
63.254578
11
18.008728
21
61.425827
0
LINE
8
boundary
62
5
39
2
10
18.008728
20
61.425827
11
18.266968
21
60.604734
0
LINE
8
boundary
62
5
39
2
10
18.266968
20
60.604734
11
18.865379
21
58.686324
0
LINE
8
boundary
62
5
39
2
10
18.865379
20
58.686324
11
19.120060
21
57.929358
0
LINE
8
boundary
62
5
39
2
10
19.120060
20
57.929358
11
19.788693
21
55.924667
0
LINE
8
boundary
62
5
39
2
10
19.788693
20
55.924667
11
20.277362
21
54.537461
0
LINE
8
boundary
62
5
39
2
10
20.277362
20
54.537461
11
20.785079
21
53.147099
0
LINE
8
boundary
62
5
39
2
10
20.785079
20
53.147099
11
21.312660
21
51.754497
0
LINE
8
boundary
62
5
39
2
10
21.312660
20
51.754497
11
21.860806
21
50.360413
0
LINE
8
boundary
62
5
39
2
10
21.860806
20
50.360413
11
22.430441
21
48.965815
0
LINE
8
boundary
62
5
39
2
10
22.430441
20
48.965815
11
23.022364
21
47.571534
0
LINE
8
boundary
62
5
39
2
10
23.022364
20
47.571534
11
23.637342
21
46.178481
0
LINE
8
boundary
62
5
39
2
10
23.637342
20
46.178481
11
24.276182
21
44.787674
0
LINE
8
boundary
62
5
39
2
10
24.276182
20
44.787674
11
24.939638
21
43.399925
0
LINE
8
boundary
62
5
39
2
10
24.939638
20
43.399925
11
25.628599
21
42.016231
0
LINE
8
boundary
62
5
39
2
10
25.628599
20
42.016231
11
26.343883
21
40.637738
0
LINE
8
boundary
62
5
39
2
10
26.343883
20
40.637738
11
27.086380
21
39.265314
0
LINE
8
boundary
62
5
39
2
10
27.086380
20
39.265314
11
27.856743
21
37.900042
0
LINE
8
boundary
62
5
39
2
10
27.856743
20
37.900042
11
28.655772
21
36.542985
0
LINE
8
boundary
62
5
39
2
10
28.655772
20
36.542985
11
29.484445
21
35.195228
0
LINE
8
boundary
62
5
39
2
10
29.484445
20
35.195228
11
30.343497
21
33.857884
0
LINE
8
boundary
62
5
39
2
10
30.343497
20
33.857884
11
31.233799
21
32.532108
0
LINE
8
boundary
62
5
39
2
10
31.233799
20
32.532108
11
32.156112
21
31.219050
0
LINE
8
boundary
62
5
39
2
10
32.156112
20
31.219050
11
33.111147
21
29.919856
0
LINE
8
boundary
62
5
39
2
10
33.111147
20
29.919856
11
34.099987
21
28.635812
0
LINE
8
boundary
62
5
39
2
10
34.099987
20
28.635812
11
35.123214
21
27.368174
0
LINE
8
boundary
62
5
39
2
10
35.123214
20
27.368174
11
36.181572
21
26.118196
0
LINE
8
boundary
62
5
39
2
10
36.181572
20
26.118196
11
37.276124
21
24.887213
0
LINE
8
boundary
62
5
39
2
10
37.276124
20
24.887213
11
38.407602
21
23.676462
0
LINE
8
boundary
62
5
39
2
10
38.407602
20
23.676462
11
38.610847
21
23.469766
0
LINE
8
annotation
62
1
39
211
10
43.312387
20
341.552191
11
43.312387
21
346.352191
0
LINE
8
annotation
62
1
39
211
10
43.312387
20
346.352191
11
42.245286
21
345.284789
0
LINE
8
annotation
62
1
39
211
10
45.483665
20
424.897134
11
43.470468
21
424.897134
0
LINE
8
annotation
62
1
39
211
10
43.470468
20
424.897134
11
45.330728
21
427.891912
0
LINE
8
annotation
62
1
39
211
10
45.330728
20
427.891912
11
45.330728
21
427.891912
0
LINE
8
annotation
62
1
39
211
10
45.330728
20
427.891912
11
45.332952
21
427.894664
0
LINE
8
annotation
62
1
39
211
10
45.332952
20
427.894664
11
45.335084
21
427.897439
0
LINE
8
annotation
62
1
39
211
10
45.335084
20
427.897439
11
45.337140
21
427.900261
0
LINE
8
annotation
62
1
39
211
10
45.337140
20
427.900261
11
45.339132
21
427.903154
0
LINE
8
annotation
62
1
39
211
10
45.339132
20
427.903154
11
45.341075
21
427.906139
0
LINE
8
annotation
62
1
39
211
10
45.341075
20
427.906139
11
45.342983
21
427.909242
0
LINE
8
annotation
62
1
39
211
10
45.342983
20
427.909242
11
45.344870
21
427.912485
0
LINE
8
annotation
62
1
39
211
10
45.344870
20
427.912485
11
45.346750
21
427.915892
0
LINE
8
annotation
62
1
39
211
10
45.346750
20
427.915892
11
45.348637
21
427.919486
0
LINE
8
annotation
62
1
39
211
10
45.348637
20
427.919486
11
45.348637
21
427.919486
0
LINE
8
annotation
62
1
39
211
10
45.348637
20
427.919486
11
45.425446
21
428.084403
0
LINE
8
annotation
62
1
39
211
10
45.425446
20
428.084403
11
45.470317
21
428.255354
0
LINE
8
annotation
62
1
39
211
10
45.470317
20
428.255354
11
45.484349
21
428.428476
0
LINE
8
annotation
62
1
39
211
10
45.484349
20
428.428476
11
45.468641
21
428.599907
0
LINE
8
annotation
62
1
39
211
10
45.468641
20
428.599907
11
45.424294
21
428.765783
0
LINE
8
annotation
62
1
39
211
10
45.424294
20
428.765783
11
45.352406
21
428.922242
0
LINE
8
annotation
62
1
39
211
10
45.352406
20
428.922242
11
45.254078
21
429.065421
0
LINE
8
annotation
62
1
39
211
10
45.254078
20
429.065421
11
45.130408
21
429.191457
0
LINE
8
annotation
62
1
39
211
10
45.130408
20
429.191457
11
44.982498
21
429.296488
0
LINE
8
annotation
62
1
39
211
10
44.982498
20
429.296488
11
44.982498
21
429.296488
0
LINE
8
annotation
62
1
39
211
10
44.982498
20
429.296488
11
44.817122
21
429.372206
0
LINE
8
annotation
62
1
39
211
10
44.817122
20
429.372206
11
44.645909
21
429.416386
0
LINE
8
annotation
62
1
39
211
10
44.645909
20
429.416386
11
44.472687
21
429.430021
0
LINE
8
annotation
62
1
39
211
10
44.472687
20
429.430021
11
44.301282
21
429.414106
0
LINE
8
annotation
62
1
39
211
10
44.301282
20
429.414106
11
44.135523
21
429.369635
0
LINE
8
annotation
62
1
39
211
10
44.135523
20
429.369635
11
43.979237
21
429.297604
0
LINE
8
annotation
62
1
39
211
10
43.979237
20
429.297604
11
43.836252
21
429.199005
0
LINE
8
annotation
62
1
39
211
10
43.836252
20
429.199005
11
43.710396
21
429.074834
0
LINE
8
annotation
62
1
39
211
10
43.710396
20
429.074834
11
43.605496
21
428.926085
0
LINE
8
annotation
62
1
39
211
10
43.605496
20
428.926085
11
43.473311
21
428.672516
0
LINE
8
annotation
62
1
39
211
10
84.824786
20
363.913945
11
82.238689
21
360.173393
0
LINE
8
annotation
62
1
39
211
10
82.238689
20
360.173393
11
79.652107
21
363.913945
0
LINE
8
annotation
62
1
39
211
10
82.238689
20
360.474408
11
82.238689
21
356.159060
0
LINE
8
annotation
62
1
39
211
10
91.973630
20
360.036503
11
87.733657
21
360.036503
0
LINE
8
annotation
62
1
39
211
10
96.604945
20
356.159303
11
98.328847
21
363.913702
0
LINE
8
annotation
62
1
39
211
10
98.328847
20
363.913702
11
94.880556
21
363.913702
0
LINE
8
annotation
62
1
39
211
10
98.328847
20
360.460548
11
96.604945
21
360.460548
0
LINE
8
frame
62
5
39
2
10
0.000000
20
0.000000
11
215.900000
21
0.000000
0
LINE
8
frame
62
5
39
2
10
215.900000
20
0.000000
11
215.900000
21
279.400000
0
LINE
8
frame
62
5
39
2
10
215.900000
20
279.400000
11
0.000000
21
279.400000
0
LINE
8
frame
62
5
39
2
10
0.000000
20
279.400000
11
0.000000
21
0.000000
0
ENDSEC
0
EOF
