0
SECTION
2
HEADER
9
$ACADVER
1
AC1009
0
ENDSEC
0
SECTION
2
TABLES
0
TABLE
2
VPORT
70
1
0
VPORT
2
ACTIVE
70
0
10
0.0
20
0.0
11
0.0
21
0.0
12
0.0
22
0.0
13
0.0
23
0.0
14
0.0
24
0.0
15
0.0
25
0.0
16
0.0
26
0.0
36
0.0
17
0.0
27
0.0
37
0.0
40
0.0
41
0.0
42
0.0
43
0.0
44
0.0
50
0.0
51
0.0
71
0
72
1000
73
1
74
3
75
0
76
0
77
0
78
0
0
ENDTAB
0
ENDSEC
0
SECTION
2
ENTITIES
0
LINE
8
boundary
62
5
39
2
10
65.741630
20
9.308244
11
66.220238
21
9.673551
0
LINE
8
boundary
62
5
39
2
10
66.220238
20
9.673551
11
66.679503
21
10.066643
0
LINE
8
boundary
62
5
39
2
10
66.679503
20
10.066643
11
67.133813
21
10.511315
0
LINE
8
boundary
62
5
39
2
10
67.133813
20
10.511315
11
67.548063
21
10.954909
0
LINE
8
boundary
62
5
39
2
10
67.548063
20
10.954909
11
67.945662
21
11.447761
0
LINE
8
boundary
62
5
39
2
10
67.945662
20
11.447761
11
68.303554
21
11.941910
0
LINE
8
boundary
62
5
39
2
10
68.303554
20
11.941910
11
68.633741
21
12.481316
0
LINE
8
boundary
62
5
39
2
10
68.633741
20
12.481316
11
68.923831
21
13.025941
0
LINE
8
boundary
62
5
39
2
10
68.923831
20
13.025941
11
69.175727
21
13.610135
0
LINE
8
boundary
62
5
39
2
10
69.175727
20
13.610135
11
69.386257
21
14.205342
0
LINE
8
boundary
62
5
39
2
10
69.386257
20
14.205342
11
69.549656
21
14.832457
0
LINE
8
boundary
62
5
39
2
10
69.549656
20
14.832457
11
69.668382
21
15.478506
0
LINE
8
boundary
62
5
39
2
10
69.668382
20
15.478506
11
69.733224
21
16.146762
0
LINE
8
boundary
62
5
39
2
10
69.733224
20
16.146762
11
69.747654
21
16.843931
0
LINE
8
boundary
62
5
39
2
10
69.747654
20
16.843931
11
69.704436
21
17.551540
0
LINE
8
boundary
62
5
39
2
10
69.704436
20
17.551540
11
69.601393
21
18.300461
0
LINE
8
boundary
62
5
39
2
10
69.601393
20
18.300461
11
69.498641
21
18.806071
0
LINE
8
boundary
62
5
39
2
10
69.498641
20
18.806071
11
69.367429
21
19.321714
0
LINE
8
boundary
62
5
39
2
10
69.367429
20
19.321714
11
69.206993
21
19.847311
0
LINE
8
boundary
62
5
39
2
10
69.206993
20
19.847311
11
69.016387
21
20.382894
0
LINE
8
boundary
62
5
39
2
10
69.016387
20
20.382894
11
68.794839
21
20.928424
0
LINE
8
boundary
62
5
39
2
10
68.794839
20
20.928424
11
68.541486
21
21.484017
0
LINE
8
boundary
62
5
39
2
10
68.541486
20
21.484017
11
68.255601
21
22.049540
0
LINE
8
boundary
62
5
39
2
10
68.255601
20
22.049540
11
67.935902
21
22.625097
0
LINE
8
boundary
62
5
39
2
10
67.935902
20
22.625097
11
67.582040
21
23.210720
0
LINE
8
boundary
62
5
39
2
10
67.582040
20
23.210720
11
66.731276
21
23.492041
0
LINE
8
boundary
62
5
39
2
10
66.731276
20
23.492041
11
65.876981
21
23.809007
0
LINE
8
boundary
62
5
39
2
10
65.876981
20
23.809007
11
65.019616
21
24.161282
0
LINE
8
boundary
62
5
39
2
10
65.019616
20
24.161282
11
64.159707
21
24.548595
0
LINE
8
boundary
62
5
39
2
10
64.159707
20
24.548595
11
63.297694
21
24.970688
0
LINE
8
boundary
62
5
39
2
10
63.297694
20
24.970688
11
62.434128
21
25.427193
0
LINE
8
boundary
62
5
39
2
10
62.434128
20
25.427193
11
61.569506
21
25.917810
0
LINE
8
boundary
62
5
39
2
10
61.569506
20
25.917810
11
60.704197
21
26.442294
0
LINE
8
boundary
62
5
39
2
10
60.704197
20
26.442294
11
59.838557
21
27.000212
0
LINE
8
boundary
62
5
39
2
10
59.838557
20
27.000212
11
58.973449
21
27.591243
0
LINE
8
boundary
62
5
39
2
10
58.973449
20
27.591243
11
58.108913
21
28.214958
0
LINE
8
boundary
62
5
39
2
10
58.108913
20
28.214958
11
57.245870
21
28.871123
0
LINE
8
boundary
62
5
39
2
10
57.245870
20
28.871123
11
56.384379
21
29.559216
0
LINE
8
boundary
62
5
39
2
10
56.384379
20
29.559216
11
55.525123
21
30.278957
0
LINE
8
boundary
62
5
39
2
10
55.525123
20
30.278957
11
54.668546
21
31.029874
0
LINE
8
boundary
62
5
39
2
10
54.668546
20
31.029874
11
53.815202
21
31.811535
0
LINE
8
boundary
62
5
39
2
10
53.815202
20
31.811535
11
52.965490
21
32.623617
0
LINE
8
boundary
62
5
39
2
10
52.965490
20
32.623617
11
52.120014
21
33.465597
0
LINE
8
boundary
62
5
39
2
10
52.120014
20
33.465597
11
51.279087
21
34.337109
0
LINE
8
boundary
62
5
39
2
10
51.279087
20
34.337109
11
50.443269
21
35.237673
0
LINE
8
boundary
62
5
39
2
10
50.443269
20
35.237673
11
49.613094
21
36.166876
0
LINE
8
boundary
62
5
39
2
10
49.613094
20
36.166876
11
48.789096
21
37.124243
0
LINE
8
boundary
62
5
39
2
10
48.789096
20
37.124243
11
47.971566
21
38.109298
0
LINE
8
boundary
62
5
39
2
10
47.971566
20
38.109298
11
47.161093
21
39.121563
0
LINE
8
boundary
62
5
39
2
10
47.161093
20
39.121563
11
46.358190
21
40.160678
0
LINE
8
boundary
62
5
39
2
10
46.358190
20
40.160678
11
45.563368
21
41.226045
0
LINE
8
boundary
62
5
39
2
10
45.563368
20
41.226045
11
44.777137
21
42.317202
0
LINE
8
boundary
62
5
39
2
10
44.777137
20
42.317202
11
43.999815
21
43.433725
0
LINE
8
boundary
62
5
39
2
10
43.999815
20
43.433725
11
43.232122
21
44.575123
0
LINE
8
boundary
62
5
39
2
10
43.232122
20
44.575123
11
42.474336
21
45.740880
0
LINE
8
boundary
62
5
39
2
10
42.474336
20
45.740880
11
41.727114
21
46.930507
0
LINE
8
boundary
62
5
39
2
10
41.727114
20
46.930507
11
40.990795
21
48.143556
0
LINE
8
boundary
62
5
39
2
10
40.990795
20
48.143556
11
40.266120
21
49.379481
0
LINE
8
boundary
62
5
39
2
10
40.266120
20
49.379481
11
39.553334
21
50.637840
0
LINE
8
boundary
62
5
39
2
10
39.553334
20
50.637840
11
38.852985
21
51.918118
0
LINE
8
boundary
62
5
39
2
10
38.852985
20
51.918118
11
38.165699
21
53.219866
0
LINE
8
boundary
62
5
39
2
10
38.165699
20
53.219866
11
37.491858
21
54.542539
0
LINE
8
boundary
62
5
39
2
10
37.491858
20
54.542539
11
36.832050
21
55.885668
0
LINE
8
boundary
62
5
39
2
10
36.832050
20
55.885668
11
36.186621
21
57.248769
0
LINE
8
boundary
62
5
39
2
10
36.186621
20
57.248769
11
35.556062
21
58.631345
0
LINE
8
boundary
62
5
39
2
10
35.556062
20
58.631345
11
34.914043
21
60.018628
0
LINE
8
boundary
62
5
39
2
10
34.914043
20
60.018628
11
34.274879
21
61.416716
0
LINE
8
boundary
62
5
39
2
10
34.274879
20
61.416716
11
33.652382
21
62.831910
0
LINE
8
boundary
62
5
39
2
10
33.652382
20
62.831910
11
33.046640
21
64.263755
0
LINE
8
boundary
62
5
39
2
10
33.046640
20
64.263755
11
32.458523
21
65.711879
0
LINE
8
boundary
62
5
39
2
10
32.458523
20
65.711879
11
31.888182
21
67.175806
0
LINE
8
boundary
62
5
39
2
10
31.888182
20
67.175806
11
31.336150
21
68.655129
0
LINE
8
boundary
62
5
39
2
10
31.336150
20
68.655129
11
30.802837
21
70.149448
0
LINE
8
boundary
62
5
39
2
10
30.802837
20
70.149448
11
30.288803
21
71.658345
0
LINE
8
boundary
62
5
39
2
10
30.288803
20
71.658345
11
29.794435
21
73.181405
0
LINE
8
boundary
62
5
39
2
10
29.794435
20
73.181405
11
29.320141
21
74.718269
0
LINE
8
boundary
62
5
39
2
10
29.320141
20
74.718269
11
28.866394
21
76.268523
0
LINE
8
boundary
62
5
39
2
10
28.866394
20
76.268523
11
28.433691
21
77.831862
0
LINE
8
boundary
62
5
39
2
10
28.433691
20
77.831862
11
28.022279
21
79.407882
0
LINE
8
boundary
62
5
39
2
10
28.022279
20
79.407882
11
27.632726
21
80.996205
0
LINE
8
boundary
62
5
39
2
10
27.632726
20
80.996205
11
27.265507
21
82.596491
0
LINE
8
boundary
62
5
39
2
10
27.265507
20
82.596491
11
26.920943
21
84.208453
0
LINE
8
boundary
62
5
39
2
10
26.920943
20
84.208453
11
26.599505
21
85.831730
0
LINE
8
boundary
62
5
39
2
10
26.599505
20
85.831730
11
26.499858
21
86.333025
0
LINE
8
boundary
62
5
39
2
10
26.499858
20
86.333025
11
26.301665
21
87.465998
0
LINE
8
boundary
62
5
39
2
10
26.301665
20
87.465998
11
26.204405
21
87.999139
0
LINE
8
boundary
62
5
39
2
10
26.204405
20
87.999139
11
26.027750
21
89.110941
0
LINE
8
boundary
62
5
39
2
10
26.027750
20
89.110941
11
25.933996
21
89.675894
0
LINE
8
boundary
62
5
39
2
10
25.933996
20
89.675894
11
25.778237
21
90.766318
0
LINE
8
boundary
62
5
39
2
10
25.778237
20
90.766318
11
25.689021
21
91.362946
0
LINE
8
boundary
62
5
39
2
10
25.689021
20
91.362946
11
25.553478
21
92.431755
0
LINE
8
boundary
62
5
39
2
10
25.553478
20
92.431755
11
25.469849
21
93.059828
0
LINE
8
boundary
62
5
39
2
10
25.469849
20
93.059828
11
25.354002
21
94.106996
0
LINE
8
boundary
62
5
39
2
10
25.354002
20
94.106996
11
25.277118
21
94.766278
0
LINE
8
boundary
62
5
39
2
10
25.277118
20
94.766278
11
25.180234
21
95.791751
0
LINE
8
boundary
62
5
39
2
10
25.180234
20
95.791751
11
25.111159
21
96.481834
0
LINE
8
boundary
62
5
39
2
10
25.111159
20
96.481834
11
24.974440
21
97.272531
0
LINE
8
boundary
62
5
39
2
10
24.974440
20
97.272531
11
24.873028
21
97.836991
0
LINE
8
boundary
62
5
39
2
10
24.873028
20
97.836991
11
24.748711
21
98.606549
0
LINE
8
boundary
62
5
39
2
10
24.748711
20
98.606549
11
24.651111
21
99.187510
0
LINE
8
boundary
62
5
39
2
10
24.651111
20
99.187510
11
24.538298
21
99.936424
0
LINE
8
boundary
62
5
39
2
10
24.538298
20
99.936424
11
24.444757
21
100.533503
0
LINE
8
boundary
62
5
39
2
10
24.444757
20
100.533503
11
24.343216
21
101.262203
0
LINE
8
boundary
62
5
39
2
10
24.343216
20
101.262203
11
24.254204
21
101.874866
0
LINE
8
boundary
62
5
39
2
10
24.254204
20
101.874866
11
24.163138
21
102.583877
0
LINE
8
boundary
62
5
39
2
10
24.163138
20
102.583877
11
24.078957
21
103.211690
0
LINE
8
boundary
62
5
39
2
10
24.078957
20
103.211690
11
23.997854
21
103.901506
0
LINE
8
boundary
62
5
39
2
10
23.997854
20
103.901506
11
23.918830
21
104.544028
0
LINE
8
boundary
62
5
39
2
10
23.918830
20
104.544028
11
23.784528
21
105.870333
0
LINE
8
boundary
62
5
39
2
10
23.784528
20
105.870333
11
23.643554
21
107.195224
0
LINE
8
boundary
62
5
39
2
10
23.643554
20
107.195224
11
23.543074
21
108.451065
0
LINE
8
boundary
62
5
39
2
10
23.543074
20
108.451065
11
23.426482
21
109.828694
0
LINE
8
boundary
62
5
39
2
10
23.426482
20
109.828694
11
23.356418
21
111.018020
0
LINE
8
boundary
62
5
39
2
10
23.356418
20
111.018020
11
23.266311
21
112.444539
0
LINE
8
boundary
62
5
39
2
10
23.266311
20
112.444539
11
23.223243
21
113.571463
0
LINE
8
boundary
62
5
39
2
10
23.223243
20
113.571463
11
23.161345
21
115.043022
0
LINE
8
boundary
62
5
39
2
10
23.161345
20
115.043022
11
23.142190
21
116.111642
0
LINE
8
boundary
62
5
39
2
10
23.142190
20
116.111642
11
23.109921
21
117.624467
0
LINE
8
boundary
62
5
39
2
10
23.109921
20
117.624467
11
23.112026
21
118.638835
0
LINE
8
boundary
62
5
39
2
10
23.112026
20
118.638835
11
23.110561
21
120.189012
0
LINE
8
boundary
62
5
39
2
10
23.110561
20
120.189012
11
23.131558
21
121.153197
0
LINE
8
boundary
62
5
39
2
10
23.131558
20
121.153197
11
23.161884
21
122.736849
0
LINE
8
boundary
62
5
39
2
10
23.161884
20
122.736849
11
23.199508
21
123.654901
0
LINE
8
boundary
62
5
39
2
10
23.199508
20
123.654901
11
23.261952
21
125.268300
0
LINE
8
boundary
62
5
39
2
10
23.261952
20
125.268300
11
23.314383
21
126.144166
0
LINE
8
boundary
62
5
39
2
10
23.314383
20
126.144166
11
23.409369
21
127.783494
0
LINE
8
boundary
62
5
39
2
10
23.409369
20
127.783494
11
23.474961
21
128.621050
0
LINE
8
boundary
62
5
39
2
10
23.474961
20
128.621050
11
23.602509
21
130.282716
0
LINE
8
boundary
62
5
39
2
10
23.602509
20
130.282716
11
23.679933
21
131.085755
0
LINE
8
boundary
62
5
39
2
10
23.679933
20
131.085755
11
23.839952
21
132.766202
0
LINE
8
boundary
62
5
39
2
10
23.839952
20
132.766202
11
23.928061
21
133.538355
0
LINE
8
boundary
62
5
39
2
10
23.928061
20
133.538355
11
24.120056
21
135.234073
0
LINE
8
boundary
62
5
39
2
10
24.120056
20
135.234073
11
24.217927
21
135.978924
0
LINE
8
boundary
62
5
39
2
10
24.217927
20
135.978924
11
24.441468
21
137.686672
0
LINE
8
boundary
62
5
39
2
10
24.441468
20
137.686672
11
24.548336
21
138.407547
0
LINE
8
boundary
62
5
39
2
10
24.548336
20
138.407547
11
24.802477
21
140.124112
0
LINE
8
boundary
62
5
39
2
10
24.802477
20
140.124112
11
24.917762
21
140.824269
0
LINE
8
boundary
62
5
39
2
10
24.917762
20
140.824269
11
25.201566
21
142.546635
0
LINE
8
boundary
62
5
39
2
10
25.201566
20
142.546635
11
25.324836
21
143.229166
0
LINE
8
boundary
62
5
39
2
10
25.324836
20
143.229166
11
25.637161
21
144.954441
0
LINE
8
boundary
62
5
39
2
10
25.637161
20
144.954441
11
25.768174
21
145.622228
0
LINE
8
boundary
62
5
39
2
10
25.768174
20
145.622228
11
26.108024
21
147.347766
0
LINE
8
boundary
62
5
39
2
10
26.108024
20
147.347766
11
26.246590
21
148.003557
0
LINE
8
boundary
62
5
39
2
10
26.246590
20
148.003557
11
26.612526
21
149.726728
0
LINE
8
boundary
62
5
39
2
10
26.612526
20
149.726728
11
26.758527
21
150.373094
0
LINE
8
boundary
62
5
39
2
10
26.758527
20
150.373094
11
27.149088
21
152.091532
0
LINE
8
boundary
62
5
39
2
10
27.149088
20
152.091532
11
27.302559
21
152.730883
0
LINE
8
boundary
62
5
39
2
10
27.302559
20
152.730883
11
27.716312
21
154.442380
0
LINE
8
boundary
62
5
39
2
10
27.716312
20
154.442380
11
27.877324
21
155.076934
0
LINE
8
boundary
62
5
39
2
10
27.877324
20
155.076934
11
28.312742
21
156.779425
0
LINE
8
boundary
62
5
39
2
10
28.312742
20
156.779425
11
28.481451
21
157.411259
0
LINE
8
boundary
62
5
39
2
10
28.481451
20
157.411259
11
28.936990
21
159.102832
0
LINE
8
boundary
62
5
39
2
10
28.936990
20
159.102832
11
29.113497
21
159.733876
0
LINE
8
boundary
62
5
39
2
10
29.113497
20
159.733876
11
29.587574
21
161.412861
0
LINE
8
boundary
62
5
39
2
10
29.587574
20
161.412861
11
29.772097
21
162.044821
0
LINE
8
boundary
62
5
39
2
10
29.772097
20
162.044821
11
30.263038
21
163.709493
0
LINE
8
boundary
62
5
39
2
10
30.263038
20
163.709493
11
30.455782
21
164.344011
0
LINE
8
boundary
62
5
39
2
10
30.455782
20
164.344011
11
30.961971
21
165.992969
0
LINE
8
boundary
62
5
39
2
10
30.961971
20
165.992969
11
31.163099
21
166.631507
0
LINE
8
boundary
62
5
39
2
10
31.163099
20
166.631507
11
31.682842
21
168.263474
0
LINE
8
boundary
62
5
39
2
10
31.682842
20
168.263474
11
31.892598
21
168.907304
0
LINE
8
boundary
62
5
39
2
10
31.892598
20
168.907304
11
32.424517
21
170.521055
0
LINE
8
boundary
62
5
39
2
10
32.424517
20
170.521055
11
32.643029
21
171.171437
0
LINE
8
boundary
62
5
39
2
10
32.643029
20
171.171437
11
33.185346
21
172.765989
0
LINE
8
boundary
62
5
39
2
10
33.185346
20
172.765989
11
33.412837
21
173.423944
0
LINE
8
boundary
62
5
39
2
10
33.412837
20
173.423944
11
33.964141
21
174.998213
0
LINE
8
boundary
62
5
39
2
10
33.964141
20
174.998213
11
34.200712
21
175.664718
0
LINE
8
boundary
62
5
39
2
10
34.200712
20
175.664718
11
34.759329
21
177.218024
0
LINE
8
boundary
62
5
39
2
10
34.759329
20
177.218024
11
35.005136
21
177.893930
0
LINE
8
boundary
62
5
39
2
10
35.005136
20
177.893930
11
35.569782
21
179.425515
0
LINE
8
boundary
62
5
39
2
10
35.569782
20
179.425515
11
35.824836
21
180.111560
0
LINE
8
boundary
62
5
39
2
10
35.824836
20
180.111560
11
36.393883
21
181.620752
0
LINE
8
boundary
62
5
39
2
10
36.393883
20
181.620752
11
36.658308
21
182.317599
0
LINE
8
boundary
62
5
39
2
10
36.658308
20
182.317599
11
37.230577
21
183.803942
0
LINE
8
boundary
62
5
39
2
10
37.230577
20
183.803942
11
37.504362
21
184.512125
0
LINE
8
boundary
62
5
39
2
10
37.504362
20
184.512125
11
38.078403
21
185.975040
0
LINE
8
boundary
62
5
39
2
10
38.078403
20
185.975040
11
38.361423
21
186.695096
0
LINE
8
boundary
62
5
39
2
10
38.361423
20
186.695096
11
38.935932
21
188.134314
0
LINE
8
boundary
62
5
39
2
10
38.935932
20
188.134314
11
39.522381
21
189.593745
0
LINE
8
boundary
62
5
39
2
10
39.522381
20
189.593745
11
40.675297
21
192.417653
0
LINE
8
boundary
62
5
39
2
10
40.675297
20
192.417653
11
41.297417
21
193.928972
0
LINE
8
boundary
62
5
39
2
10
41.297417
20
193.928972
11
42.438415
21
196.654752
0
LINE
8
boundary
62
5
39
2
10
42.438415
20
196.654752
11
43.094529
21
198.219782
0
LINE
8
boundary
62
5
39
2
10
43.094529
20
198.219782
11
44.215104
21
200.846480
0
LINE
8
boundary
62
5
39
2
10
44.215104
20
200.846480
11
44.902678
21
202.466245
0
LINE
8
boundary
62
5
39
2
10
44.902678
20
202.466245
11
45.995425
21
204.993700
0
LINE
8
boundary
62
5
39
2
10
45.995425
20
204.993700
11
46.711324
21
206.668538
0
LINE
8
boundary
62
5
39
2
10
46.711324
20
206.668538
11
47.769388
21
209.097088
0
LINE
8
boundary
62
5
39
2
10
47.769388
20
209.097088
11
49.247500
21
212.557457
0
LINE
8
boundary
62
5
39
2
10
49.247500
20
212.557457
11
51.259886
21
217.175851
0
LINE
8
boundary
62
5
39
2
10
51.259886
20
217.175851
11
52.801961
21
220.859127
0
LINE
8
boundary
62
5
39
2
10
52.801961
20
220.859127
11
54.611476
21
225.089464
0
LINE
8
boundary
62
5
39
2
10
54.611476
20
225.089464
11
55.399528
21
227.030244
0
LINE
8
boundary
62
5
39
2
10
55.399528
20
227.030244
11
56.212371
21
228.986514
0
LINE
8
boundary
62
5
39
2
10
56.212371
20
228.986514
11
56.996838
21
230.976513
0
LINE
8
boundary
62
5
39
2
10
56.996838
20
230.976513
11
57.751243
21
232.844853
0
LINE
8
boundary
62
5
39
2
10
57.751243
20
232.844853
11
58.525290
21
234.882410
0
LINE
8
boundary
62
5
39
2
10
58.525290
20
234.882410
11
59.219710
21
236.665402
0
LINE
8
boundary
62
5
39
2
10
59.219710
20
236.665402
11
59.601378
21
237.704334
0
LINE
8
boundary
62
5
39
2
10
59.601378
20
237.704334
11
59.924625
21
238.561819
0
LINE
8
boundary
62
5
39
2
10
59.924625
20
238.561819
11
60.300692
21
239.611684
0
LINE
8
boundary
62
5
39
2
10
60.300692
20
239.611684
11
60.608756
21
240.449196
0
LINE
8
boundary
62
5
39
2
10
60.608756
20
240.449196
11
61.207969
21
242.185549
0
LINE
8
boundary
62
5
39
2
10
61.207969
20
242.185549
11
61.679132
21
243.514382
0
LINE
8
boundary
62
5
39
2
10
61.679132
20
243.514382
11
62.278592
21
245.345431
0
LINE
8
boundary
62
5
39
2
10
62.278592
20
245.345431
11
62.724690
21
246.670130
0
LINE
8
boundary
62
5
39
2
10
62.724690
20
246.670130
11
63.022789
21
247.622051
0
LINE
8
boundary
62
5
39
2
10
63.022789
20
247.622051
11
63.234929
21
248.279929
0
LINE
8
boundary
62
5
39
2
10
63.234929
20
248.279929
11
63.530594
21
249.255258
0
LINE
8
boundary
62
5
39
2
10
63.530594
20
249.255258
11
63.735118
21
249.910082
0
LINE
8
boundary
62
5
39
2
10
63.735118
20
249.910082
11
64.027318
21
250.908693
0
LINE
8
boundary
62
5
39
2
10
64.027318
20
250.908693
11
64.223774
21
251.559763
0
LINE
8
boundary
62
5
39
2
10
64.223774
20
251.559763
11
64.511813
21
252.581545
0
LINE
8
boundary
62
5
39
2
10
64.511813
20
252.581545
11
64.699932
21
253.228222
0
LINE
8
boundary
62
5
39
2
10
64.699932
20
253.228222
11
64.982732
21
254.273060
0
LINE
8
boundary
62
5
39
2
10
64.982732
20
254.273060
11
65.162119
21
254.914701
0
LINE
8
boundary
62
5
39
2
10
65.162119
20
254.914701
11
65.438812
21
255.982444
0
LINE
8
boundary
62
5
39
2
10
65.438812
20
255.982444
11
65.609226
21
256.618491
0
LINE
8
boundary
62
5
39
2
10
65.609226
20
256.618491
11
65.878801
21
257.709042
0
LINE
8
boundary
62
5
39
2
10
65.878801
20
257.709042
11
66.039941
21
258.338887
0
LINE
8
boundary
62
5
39
2
10
66.039941
20
258.338887
11
66.301509
21
259.452085
0
LINE
8
boundary
62
5
39
2
10
66.301509
20
259.452085
11
66.453258
21
260.075292
0
LINE
8
boundary
62
5
39
2
10
66.453258
20
260.075292
11
66.705624
21
261.210872
0
LINE
8
boundary
62
5
39
2
10
66.705624
20
261.210872
11
66.847657
21
261.826803
0
LINE
8
boundary
62
5
39
2
10
66.847657
20
261.826803
11
67.089871
21
262.984657
0
LINE
8
boundary
62
5
39
2
10
67.089871
20
262.984657
11
67.222141
21
263.592887
0
LINE
8
boundary
62
5
39
2
10
67.222141
20
263.592887
11
67.453145
21
264.772784
0
LINE
8
boundary
62
5
39
2
10
67.453145
20
264.772784
11
67.575445
21
265.372883
0
LINE
8
boundary
62
5
39
2
10
67.575445
20
265.372883
11
67.794161
21
266.574628
0
LINE
8
boundary
62
5
39
2
10
67.794161
20
266.574628
11
67.906516
21
267.166100
0
LINE
8
boundary
62
5
39
2
10
67.906516
20
267.166100
11
68.111915
21
268.389398
0
LINE
8
boundary
62
5
39
2
10
68.111915
20
268.389398
11
68.214238
21
268.971903
0
LINE
8
boundary
62
5
39
2
10
68.214238
20
268.971903
11
68.405197
21
270.216587
0
LINE
8
boundary
62
5
39
2
10
68.405197
20
270.216587
11
68.497436
21
270.789711
0
LINE
8
boundary
62
5
39
2
10
68.497436
20
270.789711
11
68.672731
21
272.055400
0
LINE
8
boundary
62
5
39
2
10
68.672731
20
272.055400
11
68.754914
21
272.618799
0
LINE
8
boundary
62
5
39
2
10
68.754914
20
272.618799
11
68.913477
21
273.905267
0
LINE
8
boundary
62
5
39
2
10
68.913477
20
273.905267
11
68.985648
21
274.458637
0
LINE
8
boundary
62
5
39
2
10
68.985648
20
274.458637
11
69.126359
21
275.765559
0
LINE
8
boundary
62
5
39
2
10
69.126359
20
275.765559
11
69.188593
21
276.308551
0
LINE
8
boundary
62
5
39
2
10
69.188593
20
276.308551
11
69.310294
21
277.635746
0
LINE
8
boundary
62
5
39
2
10
69.310294
20
277.635746
11
69.362721
21
278.168174
0
LINE
8
boundary
62
5
39
2
10
69.362721
20
278.168174
11
69.464200
21
279.515100
0
LINE
8
boundary
62
5
39
2
10
69.464200
20
279.515100
11
69.506887
21
280.036674
0
LINE
8
boundary
62
5
39
2
10
69.506887
20
280.036674
11
69.586920
21
281.403085
0
LINE
8
boundary
62
5
39
2
10
69.586920
20
281.403085
11
69.620065
21
281.913603
0
LINE
8
boundary
62
5
39
2
10
69.620065
20
281.913603
11
69.677528
21
283.299132
0
LINE
8
boundary
62
5
39
2
10
69.677528
20
283.299132
11
69.735052
21
285.202613
0
LINE
8
boundary
62
5
39
2
10
69.735052
20
285.202613
11
69.758436
21
287.112981
0
LINE
8
boundary
62
5
39
2
10
69.758436
20
287.112981
11
69.746687
21
289.029727
0
LINE
8
boundary
62
5
39
2
10
69.746687
20
289.029727
11
69.698941
21
290.952244
0
LINE
8
boundary
62
5
39
2
10
69.698941
20
290.952244
11
69.614104
21
292.880059
0
LINE
8
boundary
62
5
39
2
10
69.614104
20
292.880059
11
69.491448
21
294.812625
0
LINE
8
boundary
62
5
39
2
10
69.491448
20
294.812625
11
69.329987
21
296.749327
0
LINE
8
boundary
62
5
39
2
10
69.329987
20
296.749327
11
69.128829
21
298.689690
0
LINE
8
boundary
62
5
39
2
10
69.128829
20
298.689690
11
68.887235
21
300.633257
0
LINE
8
boundary
62
5
39
2
10
68.887235
20
300.633257
11
68.604279
21
302.579437
0
LINE
8
boundary
62
5
39
2
10
68.604279
20
302.579437
11
68.279318
21
304.527806
0
LINE
8
boundary
62
5
39
2
10
68.279318
20
304.527806
11
67.911405
21
306.477808
0
LINE
8
boundary
62
5
39
2
10
67.911405
20
306.477808
11
67.499908
21
308.428918
0
LINE
8
boundary
62
5
39
2
10
67.499908
20
308.428918
11
67.044037
21
310.380773
0
LINE
8
boundary
62
5
39
2
10
67.044037
20
310.380773
11
66.543064
21
312.332720
0
LINE
8
boundary
62
5
39
2
10
66.543064
20
312.332720
11
65.996417
21
314.284351
0
LINE
8
boundary
62
5
39
2
10
65.996417
20
314.284351
11
65.403346
21
316.235197
0
LINE
8
boundary
62
5
39
2
10
65.403346
20
316.235197
11
64.763272
21
318.184776
0
LINE
8
boundary
62
5
39
2
10
64.763272
20
318.184776
11
64.075534
21
320.132579
0
LINE
8
boundary
62
5
39
2
10
64.075534
20
320.132579
11
63.662370
21
321.247034
0
LINE
8
boundary
62
5
39
2
10
63.662370
20
321.247034
11
63.287498
21
322.217199
0
LINE
8
boundary
62
5
39
2
10
63.287498
20
322.217199
11
62.900371
21
323.186808
0
LINE
8
boundary
62
5
39
2
10
62.900371
20
323.186808
11
62.501010
21
324.155572
0
LINE
8
boundary
62
5
39
2
10
62.501010
20
324.155572
11
62.089335
21
325.123819
0
LINE
8
boundary
62
5
39
2
10
62.089335
20
325.123819
11
61.665333
21
326.091102
0
LINE
8
boundary
62
5
39
2
10
61.665333
20
326.091102
11
61.228874
21
327.057574
0
LINE
8
boundary
62
5
39
2
10
61.228874
20
327.057574
11
60.779869
21
328.023078
0
LINE
8
boundary
62
5
39
2
10
60.779869
20
328.023078
11
60.318324
21
328.987656
0
LINE
8
boundary
62
5
39
2
10
60.318324
20
328.987656
11
59.844251
21
329.951274
0
LINE
8
boundary
62
5
39
2
10
59.844251
20
329.951274
11
59.357397
21
330.913674
0
LINE
8
boundary
62
5
39
2
10
59.357397
20
330.913674
11
58.857800
21
331.874978
0
LINE
8
boundary
62
5
39
2
10
58.857800
20
331.874978
11
58.345505
21
332.834971
0
LINE
8
boundary
62
5
39
2
10
58.345505
20
332.834971
11
57.820251
21
333.793832
0
LINE
8
boundary
62
5
39
2
10
57.820251
20
333.793832
11
57.282141
21
334.751275
0
LINE
8
boundary
62
5
39
2
10
57.282141
20
334.751275
11
56.731063
21
335.707248
0
LINE
8
boundary
62
5
39
2
10
56.731063
20
335.707248
11
56.167053
21
336.662011
0
LINE
8
boundary
62
5
39
2
10
56.167053
20
336.662011
11
55.589936
21
337.615071
0
LINE
8
boundary
62
5
39
2
10
55.589936
20
337.615071
11
54.999671
21
338.566620
0
LINE
8
boundary
62
5
39
2
10
54.999671
20
338.566620
11
54.396352
21
339.516532
0
LINE
8
boundary
62
5
39
2
10
54.396352
20
339.516532
11
53.779765
21
340.464798
0
LINE
8
boundary
62
5
39
2
10
53.779765
20
340.464798
11
53.149902
21
341.411300
0
LINE
8
boundary
62
5
39
2
10
53.149902
20
341.411300
11
52.506818
21
342.356024
0
LINE
8
boundary
62
5
39
2
10
52.506818
20
342.356024
11
51.850346
21
343.298852
0
LINE
8
boundary
62
5
39
2
10
51.850346
20
343.298852
11
51.180560
21
344.239764
0
LINE
8
boundary
62
5
39
2
10
51.180560
20
344.239764
11
50.497316
21
345.178642
0
LINE
8
boundary
62
5
39
2
10
50.497316
20
345.178642
11
49.800595
21
346.115469
0
LINE
8
boundary
62
5
39
2
10
49.800595
20
346.115469
11
49.090417
21
347.050210
0
LINE
8
boundary
62
5
39
2
10
49.090417
20
347.050210
11
48.366690
21
347.982817
0
LINE
8
boundary
62
5
39
2
10
48.366690
20
347.982817
11
47.629458
21
348.913218
0
LINE
8
boundary
62
5
39
2
10
47.629458
20
348.913218
11
46.878573
21
349.841229
0
LINE
8
boundary
62
5
39
2
10
46.878573
20
349.841229
11
46.114078
21
350.766948
0
LINE
8
boundary
62
5
39
2
10
46.114078
20
350.766948
11
45.335985
21
351.690226
0
LINE
8
boundary
62
5
39
2
10
45.335985
20
351.690226
11
44.544108
21
352.611027
0
LINE
8
boundary
62
5
39
2
10
44.544108
20
352.611027
11
43.738485
21
353.529256
0
LINE
8
boundary
62
5
39
2
10
43.738485
20
353.529256
11
42.919293
21
354.444921
0
LINE
8
boundary
62
5
39
2
10
42.919293
20
354.444921
11
42.086146
21
355.357868
0
LINE
8
boundary
62
5
39
2
10
42.086146
20
355.357868
11
41.239201
21
356.267976
0
LINE
8
boundary
62
5
39
2
10
41.239201
20
356.267976
11
40.378535
21
357.175377
0
LINE
8
boundary
62
5
39
2
10
40.378535
20
357.175377
11
39.503995
21
358.079989
0
LINE
8
boundary
62
5
39
2
10
39.503995
20
358.079989
11
39.165622
21
358.658761
0
LINE
8
boundary
62
5
39
2
10
39.165622
20
358.658761
11
38.927020
21
359.171726
0
LINE
8
boundary
62
5
39
2
10
38.927020
20
359.171726
11
38.716163
21
359.660783
0
LINE
8
boundary
62
5
39
2
10
38.716163
20
359.660783
11
38.511030
21
360.181333
0
LINE
8
boundary
62
5
39
2
10
38.511030
20
360.181333
11
38.243546
21
360.989521
0
LINE
8
boundary
62
5
39
2
10
38.243546
20
360.989521
11
38.055453
21
361.764125
0
LINE
8
boundary
62
5
39
2
10
38.055453
20
361.764125
11
37.962987
21
362.453968
0
LINE
8
boundary
62
5
39
2
10
37.962987
20
362.453968
11
37.961224
21
363.062415
0
LINE
8
boundary
62
5
39
2
10
37.961224
20
363.062415
11
38.045171
21
363.593122
0
LINE
8
boundary
62
5
39
2
10
38.045171
20
363.593122
11
38.219350
21
364.070436
0
LINE
8
boundary
62
5
39
2
10
38.219350
20
364.070436
11
38.598986
21
364.602319
0
LINE
8
boundary
62
5
39
2
10
38.598986
20
364.602319
11
39.143196
21
365.007744
0
LINE
8
boundary
62
5
39
2
10
39.143196
20
365.007744
11
39.826922
21
365.277921
0
LINE
8
boundary
62
5
39
2
10
39.826922
20
365.277921
11
40.352365
21
365.388866
0
LINE
8
boundary
62
5
39
2
10
40.352365
20
365.388866
11
40.928256
21
365.448496
0
LINE
8
boundary
62
5
39
2
10
40.928256
20
365.448496
11
41.549796
21
365.460439
0
LINE
8
boundary
62
5
39
2
10
41.549796
20
365.460439
11
42.212293
21
365.428279
0
LINE
8
boundary
62
5
39
2
10
42.212293
20
365.428279
11
43.254526
21
365.307314
0
LINE
8
boundary
62
5
39
2
10
43.254526
20
365.307314
11
44.000113
21
365.181295
0
LINE
8
boundary
62
5
39
2
10
44.000113
20
365.181295
11
44.770528
21
365.023333
0
LINE
8
boundary
62
5
39
2
10
44.770528
20
365.023333
11
45.560959
21
364.837237
0
LINE
8
boundary
62
5
39
2
10
45.560959
20
364.837237
11
46.366798
21
364.626596
0
LINE
8
boundary
62
5
39
2
10
46.366798
20
364.626596
11
47.183073
21
364.394869
0
LINE
8
boundary
62
5
39
2
10
47.183073
20
364.394869
11
48.004981
21
364.145914
0
LINE
8
boundary
62
5
39
2
10
48.004981
20
364.145914
11
48.827839
21
363.882968
0
LINE
8
boundary
62
5
39
2
10
48.827839
20
363.882968
11
49.646522
21
363.609961
0
LINE
8
boundary
62
5
39
2
10
49.646522
20
363.609961
11
51.244210
21
363.050447
0
LINE
8
boundary
62
5
39
2
10
51.244210
20
363.050447
11
52.780358
21
362.488443
0
LINE
8
boundary
62
5
39
2
10
52.780358
20
362.488443
11
53.660087
21
362.159438
0
LINE
8
boundary
62
5
39
2
10
53.660087
20
362.159438
11
54.189191
21
361.958395
0
LINE
8
boundary
62
5
39
2
10
54.189191
20
361.958395
11
55.095708
21
361.366251
0
LINE
8
boundary
62
5
39
2
10
55.095708
20
361.366251
11
56.014260
21
360.793491
0
LINE
8
boundary
62
5
39
2
10
56.014260
20
360.793491
11
56.944069
21
360.240046
0
LINE
8
boundary
62
5
39
2
10
56.944069
20
360.240046
11
57.884867
21
359.706093
0
LINE
8
boundary
62
5
39
2
10
57.884867
20
359.706093
11
58.836048
21
359.191551
0
LINE
8
boundary
62
5
39
2
10
58.836048
20
359.191551
11
59.797154
21
358.696442
0
LINE
8
boundary
62
5
39
2
10
59.797154
20
358.696442
11
60.767578
21
358.220626
0
LINE
8
boundary
62
5
39
2
10
60.767578
20
358.220626
11
61.746683
21
357.764335
0
LINE
8
boundary
62
5
39
2
10
61.746683
20
357.764335
11
62.734170
21
357.327420
0
LINE
8
boundary
62
5
39
2
10
62.734170
20
357.327420
11
63.729357
21
356.909706
0
LINE
8
boundary
62
5
39
2
10
63.729357
20
356.909706
11
64.731767
21
356.511435
0
LINE
8
boundary
62
5
39
2
10
64.731767
20
356.511435
11
65.740687
21
356.132551
0
LINE
8
boundary
62
5
39
2
10
65.740687
20
356.132551
11
66.755780
21
355.773031
0
LINE
8
boundary
62
5
39
2
10
66.755780
20
355.773031
11
67.776336
21
355.432771
0
LINE
8
boundary
62
5
39
2
10
67.776336
20
355.432771
11
68.801848
21
355.111908
0
LINE
8
boundary
62
5
39
2
10
68.801848
20
355.111908
11
69.831764
21
354.810336
0
LINE
8
boundary
62
5
39
2
10
69.831764
20
354.810336
11
70.865457
21
354.527985
0
LINE
8
boundary
62
5
39
2
10
70.865457
20
354.527985
11
71.902502
21
354.264944
0
LINE
8
boundary
62
5
39
2
10
71.902502
20
354.264944
11
72.942087
21
354.021311
0
LINE
8
boundary
62
5
39
2
10
72.942087
20
354.021311
11
73.983809
21
353.796892
0
LINE
8
boundary
62
5
39
2
10
73.983809
20
353.796892
11
75.027104
21
353.591659
0
LINE
8
boundary
62
5
39
2
10
75.027104
20
353.591659
11
76.071343
21
353.405732
0
LINE
8
boundary
62
5
39
2
10
76.071343
20
353.405732
11
77.115916
21
353.239129
0
LINE
8
boundary
62
5
39
2
10
77.115916
20
353.239129
11
78.160261
21
353.091598
0
LINE
8
boundary
62
5
39
2
10
78.160261
20
353.091598
11
79.203891
21
352.963397
0
LINE
8
boundary
62
5
39
2
10
79.203891
20
352.963397
11
80.245971
21
352.854367
0
LINE
8
boundary
62
5
39
2
10
80.245971
20
352.854367
11
81.286158
21
352.764553
0
LINE
8
boundary
62
5
39
2
10
81.286158
20
352.764553
11
82.323835
21
352.693913
0
LINE
8
boundary
62
5
39
2
10
82.323835
20
352.693913
11
83.358291
21
352.642440
0
LINE
8
boundary
62
5
39
2
10
83.358291
20
352.642440
11
84.389045
21
352.610077
0
LINE
8
boundary
62
5
39
2
10
84.389045
20
352.610077
11
85.415428
21
352.596931
0
LINE
8
boundary
62
5
39
2
10
85.415428
20
352.596931
11
86.436827
21
352.602834
0
LINE
8
boundary
62
5
39
2
10
86.436827
20
352.602834
11
87.452759
21
352.627926
0
LINE
8
boundary
62
5
39
2
10
87.452759
20
352.627926
11
88.462721
21
352.672220
0
LINE
8
boundary
62
5
39
2
10
88.462721
20
352.672220
11
89.465786
21
352.735480
0
LINE
8
boundary
62
5
39
2
10
89.465786
20
352.735480
11
90.461669
21
352.817807
0
LINE
8
boundary
62
5
39
2
10
90.461669
20
352.817807
11
91.449640
21
352.919228
0
LINE
8
boundary
62
5
39
2
10
91.449640
20
352.919228
11
92.429190
21
353.039687
0
LINE
8
boundary
62
5
39
2
10
92.429190
20
353.039687
11
93.399717
21
353.179293
0
LINE
8
boundary
62
5
39
2
10
93.399717
20
353.179293
11
94.360611
21
353.337879
0
LINE
8
boundary
62
5
39
2
10
94.360611
20
353.337879
11
95.311233
21
353.515502
0
LINE
8
boundary
62
5
39
2
10
95.311233
20
353.515502
11
96.251139
21
353.712103
0
LINE
8
boundary
62
5
39
2
10
96.251139
20
353.712103
11
97.179654
21
353.927785
0
LINE
8
boundary
62
5
39
2
10
97.179654
20
353.927785
11
98.096279
21
354.162472
0
LINE
8
boundary
62
5
39
2
10
98.096279
20
354.162472
11
99.000246
21
354.416043
0
LINE
8
boundary
62
5
39
2
10
99.000246
20
354.416043
11
99.891156
21
354.688619
0
LINE
8
boundary
62
5
39
2
10
99.891156
20
354.688619
11
100.768501
21
354.980204
0
LINE
8
boundary
62
5
39
2
10
100.768501
20
354.980204
11
101.631438
21
355.290760
0
LINE
8
boundary
62
5
39
2
10
101.631438
20
355.290760
11
102.479637
21
355.620290
0
LINE
8
boundary
62
5
39
2
10
102.479637
20
355.620290
11
103.312465
21
355.968724
0
LINE
8
boundary
62
5
39
2
10
103.312465
20
355.968724
11
104.129304
21
356.336061
0
LINE
8
boundary
62
5
39
2
10
104.129304
20
356.336061
11
104.929774
21
356.722359
0
LINE
8
boundary
62
5
39
2
10
104.929774
20
356.722359
11
105.713070
21
357.127651
0
LINE
8
boundary
62
5
39
2
10
105.713070
20
357.127651
11
106.478819
21
357.551796
0
LINE
8
boundary
62
5
39
2
10
106.478819
20
357.551796
11
107.226538
21
357.994935
0
LINE
8
boundary
62
5
39
2
10
107.226538
20
357.994935
11
107.955330
21
358.456967
0
LINE
8
boundary
62
5
39
2
10
107.955330
20
358.456967
11
108.664980
21
358.937925
0
LINE
8
boundary
62
5
39
2
10
108.664980
20
358.937925
11
109.354890
21
359.437877
0
LINE
8
boundary
62
5
39
2
10
109.354890
20
359.437877
11
110.024458
21
359.956575
0
LINE
8
boundary
62
5
39
2
10
110.024458
20
359.956575
11
110.673098
21
360.494392
0
LINE
8
boundary
62
5
39
2
10
110.673098
20
360.494392
11
111.300440
21
361.051056
0
LINE
8
boundary
62
5
39
2
10
111.300440
20
361.051056
11
111.905809
21
361.626724
0
LINE
8
boundary
62
5
39
2
10
111.905809
20
361.626724
11
112.488719
21
362.221320
0
LINE
8
boundary
62
5
39
2
10
112.488719
20
362.221320
11
113.048827
21
362.834776
0
LINE
8
boundary
62
5
39
2
10
113.048827
20
362.834776
11
113.487057
21
363.179733
0
LINE
8
boundary
62
5
39
2
10
113.487057
20
363.179733
11
114.051815
21
363.669632
0
LINE
8
boundary
62
5
39
2
10
114.051815
20
363.669632
11
114.416634
21
364.032544
0
LINE
8
boundary
62
5
39
2
10
114.416634
20
364.032544
11
114.876329
21
364.543038
0
LINE
8
boundary
62
5
39
2
10
114.876329
20
364.543038
11
115.329811
21
365.145885
0
LINE
8
boundary
62
5
39
2
10
115.329811
20
365.145885
11
115.708553
21
365.764783
0
LINE
8
boundary
62
5
39
2
10
115.708553
20
365.764783
11
116.014126
21
366.399058
0
LINE
8
boundary
62
5
39
2
10
116.014126
20
366.399058
11
116.248461
21
367.048618
0
LINE
8
boundary
62
5
39
2
10
116.248461
20
367.048618
11
116.413398
21
367.712741
0
LINE
8
boundary
62
5
39
2
10
116.413398
20
367.712741
11
116.510639
21
368.391117
0
LINE
8
boundary
62
5
39
2
10
116.510639
20
368.391117
11
116.542060
21
369.083160
0
LINE
8
boundary
62
5
39
2
10
116.542060
20
369.083160
11
116.509304
21
369.788592
0
LINE
8
boundary
62
5
39
2
10
116.509304
20
369.788592
11
116.414419
21
370.506893
0
LINE
8
boundary
62
5
39
2
10
116.414419
20
370.506893
11
116.258962
21
371.237625
0
LINE
8
boundary
62
5
39
2
10
116.258962
20
371.237625
11
116.045017
21
371.980379
0
LINE
8
boundary
62
5
39
2
10
116.045017
20
371.980379
11
115.877572
21
372.465543
0
LINE
8
boundary
62
5
39
2
10
115.877572
20
372.465543
11
115.618018
21
373.116031
0
LINE
8
boundary
62
5
39
2
10
115.618018
20
373.116031
11
115.397531
21
373.612420
0
LINE
8
boundary
62
5
39
2
10
115.397531
20
373.612420
11
115.069205
21
374.276074
0
LINE
8
boundary
62
5
39
2
10
115.069205
20
374.276074
11
114.798380
21
374.782961
0
LINE
8
boundary
62
5
39
2
10
114.798380
20
374.782961
11
114.404769
21
375.459137
0
LINE
8
boundary
62
5
39
2
10
114.404769
20
375.459137
11
114.010060
21
376.094043
0
LINE
8
boundary
62
5
39
2
10
114.010060
20
376.094043
11
113.630692
21
376.663566
0
LINE
8
boundary
62
5
39
2
10
113.630692
20
376.663566
11
113.056686
21
377.477782
0
LINE
8
boundary
62
5
39
2
10
113.056686
20
377.477782
11
112.438601
21
378.300378
0
LINE
8
boundary
62
5
39
2
10
112.438601
20
378.300378
11
111.778119
21
379.130946
0
LINE
8
boundary
62
5
39
2
10
111.778119
20
379.130946
11
111.076914
21
379.969100
0
LINE
8
boundary
62
5
39
2
10
111.076914
20
379.969100
11
110.336886
21
380.814226
0
LINE
8
boundary
62
5
39
2
10
110.336886
20
380.814226
11
109.559832
21
381.666017
0
LINE
8
boundary
62
5
39
2
10
109.559832
20
381.666017
11
108.747503
21
382.524084
0
LINE
8
boundary
62
5
39
2
10
108.747503
20
382.524084
11
107.901678
21
383.387715
0
LINE
8
boundary
62
5
39
2
10
107.901678
20
383.387715
11
107.024132
21
384.256624
0
LINE
8
boundary
62
5
39
2
10
107.024132
20
384.256624
11
106.116613
21
385.130407
0
LINE
8
boundary
62
5
39
2
10
106.116613
20
385.130407
11
105.180783
21
386.008487
0
LINE
8
boundary
62
5
39
2
10
105.180783
20
386.008487
11
104.218617
21
386.890397
0
LINE
8
boundary
62
5
39
2
10
104.218617
20
386.890397
11
103.231654
21
387.775867
0
LINE
8
boundary
62
5
39
2
10
103.231654
20
387.775867
11
102.221710
21
388.664262
0
LINE
8
boundary
62
5
39
2
10
102.221710
20
388.664262
11
101.190416
21
389.555236
0
LINE
8
boundary
62
5
39
2
10
101.190416
20
389.555236
11
100.139666
21
390.448253
0
LINE
8
boundary
62
5
39
2
10
100.139666
20
390.448253
11
99.071050
21
391.342822
0
LINE
8
boundary
62
5
39
2
10
99.071050
20
391.342822
11
97.986268
21
392.238569
0
LINE
8
boundary
62
5
39
2
10
97.986268
20
392.238569
11
96.886905
21
393.134882
0
LINE
8
boundary
62
5
39
2
10
96.886905
20
393.134882
11
95.774753
21
394.031509
0
LINE
8
boundary
62
5
39
2
10
95.774753
20
394.031509
11
94.651555
21
394.927806
0
LINE
8
boundary
62
5
39
2
10
94.651555
20
394.927806
11
93.518746
21
395.823352
0
LINE
8
boundary
62
5
39
2
10
93.518746
20
395.823352
11
92.892955
21
396.323535
0
LINE
8
boundary
62
5
39
2
10
92.892955
20
396.323535
11
91.231292
21
397.610483
0
LINE
8
boundary
62
5
39
2
10
91.231292
20
397.610483
11
90.605528
21
398.103856
0
LINE
8
boundary
62
5
39
2
10
90.605528
20
398.103856
11
88.925182
21
399.389062
0
LINE
8
boundary
62
5
39
2
10
88.925182
20
399.389062
11
88.303134
21
399.874470
0
LINE
8
boundary
62
5
39
2
10
88.303134
20
399.874470
11
86.613296
21
401.155194
0
LINE
8
boundary
62
5
39
2
10
86.613296
20
401.155194
11
85.998509
21
401.631576
0
LINE
8
boundary
62
5
39
2
10
85.998509
20
401.631576
11
84.308067
21
402.905163
0
LINE
8
boundary
62
5
39
2
10
84.308067
20
402.905163
11
83.703850
21
403.371584
0
LINE
8
boundary
62
5
39
2
10
83.703850
20
403.371584
11
82.021856
21
404.635267
0
LINE
8
boundary
62
5
39
2
10
82.021856
20
404.635267
11
80.839115
21
405.548327
0
LINE
8
boundary
62
5
39
2
10
80.839115
20
405.548327
11
77.554536
21
408.019747
0
LINE
8
boundary
62
5
39
2
10
77.554536
20
408.019747
11
76.450419
21
408.881591
0
LINE
8
boundary
62
5
39
2
10
76.450419
20
408.881591
11
73.305689
21
411.277570
0
LINE
8
boundary
62
5
39
2
10
73.305689
20
411.277570
11
72.797521
21
411.681066
0
LINE
8
boundary
62
5
39
2
10
72.797521
20
411.681066
11
71.291562
21
412.849125
0
LINE
8
boundary
62
5
39
2
10
71.291562
20
412.849125
11
70.810126
21
413.237847
0
LINE
8
boundary
62
5
39
2
10
70.810126
20
413.237847
11
69.366074
21
414.377271
0
LINE
8
boundary
62
5
39
2
10
69.366074
20
414.377271
11
68.205901
21
415.298921
0
LINE
8
boundary
62
5
39
2
10
68.205901
20
415.298921
11
67.056358
21
416.195872
0
LINE
8
boundary
62
5
39
2
10
67.056358
20
416.195872
11
65.917169
21
417.068427
0
LINE
8
boundary
62
5
39
2
10
65.917169
20
417.068427
11
64.788071
21
417.916850
0
LINE
8
boundary
62
5
39
2
10
64.788071
20
417.916850
11
63.668944
21
418.741661
0
LINE
8
boundary
62
5
39
2
10
63.668944
20
418.741661
11
62.559458
21
419.543001
0
LINE
8
boundary
62
5
39
2
10
62.559458
20
419.543001
11
61.459731
21
420.321402
0
LINE
8
boundary
62
5
39
2
10
61.459731
20
420.321402
11
60.369317
21
421.077049
0
LINE
8
boundary
62
5
39
2
10
60.369317
20
421.077049
11
59.288136
21
421.810374
0
LINE
8
boundary
62
5
39
2
10
59.288136
20
421.810374
11
58.215925
21
422.521789
0
LINE
8
boundary
62
5
39
2
10
58.215925
20
422.521789
11
57.152537
21
423.211620
0
LINE
8
boundary
62
5
39
2
10
57.152537
20
423.211620
11
56.097857
21
423.880152
0
LINE
8
boundary
62
5
39
2
10
56.097857
20
423.880152
11
55.051599
21
424.527849
0
LINE
8
boundary
62
5
39
2
10
55.051599
20
424.527849
11
54.013689
21
425.154955
0
LINE
8
boundary
62
5
39
2
10
54.013689
20
425.154955
11
52.983823
21
425.761868
0
LINE
8
boundary
62
5
39
2
10
52.983823
20
425.761868
11
51.961914
21
426.349110
0
LINE
8
boundary
62
5
39
2
10
51.961914
20
426.349110
11
50.947809
21
426.916826
0
LINE
8
boundary
62
5
39
2
10
50.947809
20
426.916826
11
49.941199
21
427.465445
0
LINE
8
boundary
62
5
39
2
10
49.941199
20
427.465445
11
48.942080
21
427.995425
0
LINE
8
boundary
62
5
39
2
10
48.942080
20
427.995425
11
47.950209
21
428.507062
0
LINE
8
boundary
62
5
39
2
10
47.950209
20
428.507062
11
46.965380
21
429.000754
0
LINE
8
boundary
62
5
39
2
10
46.965380
20
429.000754
11
45.987463
21
429.476809
0
LINE
8
boundary
62
5
39
2
10
45.987463
20
429.476809
11
45.016296
21
429.935708
0
LINE
8
boundary
62
5
39
2
10
45.016296
20
429.935708
11
44.051747
21
430.377673
0
LINE
8
boundary
62
5
39
2
10
44.051747
20
430.377673
11
43.093704
21
430.803278
0
LINE
8
boundary
62
5
39
2
10
43.093704
20
430.803278
11
42.141822
21
431.212855
0
LINE
8
boundary
62
5
39
2
10
42.141822
20
431.212855
11
41.196196
21
431.606590
0
LINE
8
boundary
62
5
39
2
10
41.196196
20
431.606590
11
40.256452
21
431.984972
0
LINE
8
boundary
62
5
39
2
10
40.256452
20
431.984972
11
39.322695
21
432.348455
0
LINE
8
boundary
62
5
39
2
10
39.322695
20
432.348455
11
38.394497
21
432.697516
0
LINE
8
boundary
62
5
39
2
10
38.394497
20
432.697516
11
37.471900
21
433.032289
0
LINE
8
boundary
62
5
39
2
10
37.471900
20
433.032289
11
36.554812
21
433.353277
0
LINE
8
boundary
62
5
39
2
10
36.554812
20
433.353277
11
35.642918
21
433.660802
0
LINE
8
boundary
62
5
39
2
10
35.642918
20
433.660802
11
34.736211
21
433.955335
0
LINE
8
boundary
62
5
39
2
10
34.736211
20
433.955335
11
33.834478
21
434.237396
0
LINE
8
boundary
62
5
39
2
10
33.834478
20
434.237396
11
32.937688
21
434.507055
0
LINE
8
boundary
62
5
39
2
10
32.937688
20
434.507055
11
32.045692
21
434.764835
0
LINE
8
boundary
62
5
39
2
10
32.045692
20
434.764835
11
31.158347
21
435.011142
0
LINE
8
boundary
62
5
39
2
10
31.158347
20
435.011142
11
30.275527
21
435.246462
0
LINE
8
boundary
62
5
39
2
10
30.275527
20
435.246462
11
29.397189
21
435.471129
0
LINE
8
boundary
62
5
39
2
10
29.397189
20
435.471129
11
28.523079
21
435.685434
0
LINE
8
boundary
62
5
39
2
10
28.523079
20
435.685434
11
27.653203
21
435.889859
0
LINE
8
boundary
62
5
39
2
10
27.653203
20
435.889859
11
25.925607
21
436.270543
0
LINE
8
boundary
62
5
39
2
10
25.925607
20
436.270543
11
24.213584
21
436.616409
0
LINE
8
boundary
62
5
39
2
10
24.213584
20
436.616409
11
22.516365
21
436.930581
0
LINE
8
boundary
62
5
39
2
10
22.516365
20
436.930581
11
20.833194
21
437.216216
0
LINE
8
boundary
62
5
39
2
10
20.833194
20
437.216216
11
19.163387
21
437.476402
0
LINE
8
boundary
62
5
39
2
10
19.163387
20
437.476402
11
17.506231
21
437.714489
0
LINE
8
boundary
62
5
39
2
10
17.506231
20
437.714489
11
15.861353
21
437.933671
0
LINE
8
boundary
62
5
39
2
10
15.861353
20
437.933671
11
14.228039
21
438.136909
0
LINE
8
boundary
62
5
39
2
10
14.228039
20
438.136909
11
12.605725
21
438.327689
0
LINE
8
boundary
62
5
39
2
10
12.605725
20
438.327689
11
12.087880
21
438.385176
0
LINE
8
boundary
62
5
39
2
10
12.087880
20
438.385176
11
9.392543
21
438.684095
0
LINE
8
boundary
62
5
39
2
10
9.392543
20
438.684095
11
9.432690
21
437.660968
0
LINE
8
boundary
62
5
39
2
10
9.432690
20
437.660968
11
9.732941
21
431.189735
0
LINE
8
boundary
62
5
39
2
10
9.732941
20
431.189735
11
14.161509
21
430.720561
0
LINE
8
boundary
62
5
39
2
10
14.161509
20
430.720561
11
15.451232
21
430.356936
0
LINE
8
boundary
62
5
39
2
10
15.451232
20
430.356936
11
16.725680
21
429.984566
0
LINE
8
boundary
62
5
39
2
10
16.725680
20
429.984566
11
17.347193
21
429.796430
0
LINE
8
boundary
62
5
39
2
10
17.347193
20
429.796430
11
34.746957
21
429.796430
0
LINE
8
boundary
62
5
39
2
10
34.746957
20
429.796430
11
34.746956
21
427.050430
0
LINE
8
boundary
62
5
39
2
10
34.746956
20
427.050430
11
25.875375
21
427.050430
0
LINE
8
boundary
62
5
39
2
10
25.875375
20
427.050430
11
26.374328
21
426.707526
0
LINE
8
boundary
62
5
39
2
10
26.374328
20
426.707526
11
27.512783
21
426.262775
0
LINE
8
boundary
62
5
39
2
10
27.512783
20
426.262775
11
28.636287
21
425.810827
0
LINE
8
boundary
62
5
39
2
10
28.636287
20
425.810827
11
29.744873
21
425.351598
0
LINE
8
boundary
62
5
39
2
10
29.744873
20
425.351598
11
30.838583
21
424.885538
0
LINE
8
boundary
62
5
39
2
10
30.838583
20
424.885538
11
31.917467
21
424.412489
0
LINE
8
boundary
62
5
39
2
10
31.917467
20
424.412489
11
32.981531
21
423.932755
0
LINE
8
boundary
62
5
39
2
10
32.981531
20
423.932755
11
34.030806
21
423.446507
0
LINE
8
boundary
62
5
39
2
10
34.030806
20
423.446507
11
35.065302
21
422.953774
0
LINE
8
boundary
62
5
39
2
10
35.065302
20
422.953774
11
36.085011
21
422.454747
0
LINE
8
boundary
62
5
39
2
10
36.085011
20
422.454747
11
37.089996
21
421.949675
0
LINE
8
boundary
62
5
39
2
10
37.089996
20
421.949675
11
38.080192
21
421.438625
0
LINE
8
boundary
62
5
39
2
10
38.080192
20
421.438625
11
39.055510
21
420.921630
0
LINE
8
boundary
62
5
39
2
10
39.055510
20
420.921630
11
40.016248
21
420.398971
0
LINE
8
boundary
62
5
39
2
10
40.016248
20
420.398971
11
40.962126
21
419.870970
0
LINE
8
boundary
62
5
39
2
10
40.962126
20
419.870970
11
41.893223
21
419.337365
0
LINE
8
boundary
62
5
39
2
10
41.893223
20
419.337365
11
42.809632
21
418.798549
0
LINE
8
boundary
62
5
39
2
10
42.809632
20
418.798549
11
43.711308
21
418.254607
0
LINE
8
boundary
62
5
39
2
10
43.711308
20
418.254607
11
44.598160
21
417.705695
0
LINE
8
boundary
62
5
39
2
10
44.598160
20
417.705695
11
45.470326
21
417.151911
0
LINE
8
boundary
62
5
39
2
10
45.470326
20
417.151911
11
46.327621
21
416.593491
0
LINE
8
boundary
62
5
39
2
10
46.327621
20
416.593491
11
47.170071
21
416.030592
0
LINE
8
boundary
62
5
39
2
10
47.170071
20
416.030592
11
47.997727
21
415.463180
0
LINE
8
boundary
62
5
39
2
10
47.997727
20
415.463180
11
48.810601
21
414.891660
0
LINE
8
boundary
62
5
39
2
10
48.810601
20
414.891660
11
49.608616
21
414.315891
0
LINE
8
boundary
62
5
39
2
10
49.608616
20
414.315891
11
50.391774
21
413.736189
0
LINE
8
boundary
62
5
39
2
10
50.391774
20
413.736189
11
51.159983
21
413.152605
0
LINE
8
boundary
62
5
39
2
10
51.159983
20
413.152605
11
51.913350
21
412.565411
0
LINE
8
boundary
62
5
39
2
10
51.913350
20
412.565411
11
52.651678
21
411.974689
0
LINE
8
boundary
62
5
39
2
10
52.651678
20
411.974689
11
53.375199
21
411.380467
0
LINE
8
boundary
62
5
39
2
10
53.375199
20
411.380467
11
54.083639
21
410.782913
0
LINE
8
boundary
62
5
39
2
10
54.083639
20
410.782913
11
54.777081
21
410.182336
0
LINE
8
boundary
62
5
39
2
10
54.777081
20
410.182336
11
55.455514
21
409.578812
0
LINE
8
boundary
62
5
39
2
10
55.455514
20
409.578812
11
56.118897
21
408.972298
0
LINE
8
boundary
62
5
39
2
10
56.118897
20
408.972298
11
56.767178
21
408.363083
0
LINE
8
boundary
62
5
39
2
10
56.767178
20
408.363083
11
57.400350
21
407.751381
0
LINE
8
boundary
62
5
39
2
10
57.400350
20
407.751381
11
58.018337
21
407.137069
0
LINE
8
boundary
62
5
39
2
10
58.018337
20
407.137069
11
58.621138
21
406.520578
0
LINE
8
boundary
62
5
39
2
10
58.621138
20
406.520578
11
59.208811
21
405.901926
0
LINE
8
boundary
62
5
39
2
10
59.208811
20
405.901926
11
59.781134
21
405.281202
0
LINE
8
boundary
62
5
39
2
10
59.781134
20
405.281202
11
60.338253
21
404.658535
0
LINE
8
boundary
62
5
39
2
10
60.338253
20
404.658535
11
60.880026
21
404.034279
0
LINE
8
boundary
62
5
39
2
10
60.880026
20
404.034279
11
61.406489
21
403.408245
0
LINE
8
boundary
62
5
39
2
10
61.406489
20
403.408245
11
61.917531
21
402.780754
0
LINE
8
boundary
62
5
39
2
10
61.917531
20
402.780754
11
62.413298
21
402.151901
0
LINE
8
boundary
62
5
39
2
10
62.413298
20
402.151901
11
62.893458
21
401.521783
0
LINE
8
boundary
62
5
39
2
10
62.893458
20
401.521783
11
63.358257
21
400.890718
0
LINE
8
boundary
62
5
39
2
10
63.358257
20
400.890718
11
63.807508
21
400.258525
0
LINE
8
boundary
62
5
39
2
10
63.807508
20
400.258525
11
64.241270
21
399.625700
0
LINE
8
boundary
62
5
39
2
10
64.241270
20
399.625700
11
64.659487
21
398.991965
0
LINE
8
boundary
62
5
39
2
10
64.659487
20
398.991965
11
65.062017
21
398.357864
0
LINE
8
boundary
62
5
39
2
10
65.062017
20
398.357864
11
65.448846
21
397.723346
0
LINE
8
boundary
62
5
39
2
10
65.448846
20
397.723346
11
65.820221
21
397.088438
0
LINE
8
boundary
62
5
39
2
10
65.820221
20
397.088438
11
66.175716
21
396.453488
0
LINE
8
boundary
62
5
39
2
10
66.175716
20
396.453488
11
66.515553
21
395.818408
0
LINE
8
boundary
62
5
39
2
10
66.515553
20
395.818408
11
66.645589
21
394.874341
0
LINE
8
boundary
62
5
39
2
10
66.645589
20
394.874341
11
66.803182
21
393.915184
0
LINE
8
boundary
62
5
39
2
10
66.803182
20
393.915184
11
66.982102
21
392.944253
0
LINE
8
boundary
62
5
39
2
10
66.982102
20
392.944253
11
67.176302
21
391.964938
0
LINE
8
boundary
62
5
39
2
10
67.176302
20
391.964938
11
67.585952
21
389.994583
0
LINE
8
boundary
62
5
39
2
10
67.585952
20
389.994583
11
67.982779
21
388.031016
0
LINE
8
boundary
62
5
39
2
10
67.982779
20
388.031016
11
68.160665
21
387.060031
0
LINE
8
boundary
62
5
39
2
10
68.160665
20
387.060031
11
68.316645
21
386.100856
0
LINE
8
boundary
62
5
39
2
10
68.316645
20
386.100856
11
68.444205
21
385.156626
0
LINE
8
boundary
62
5
39
2
10
68.444205
20
385.156626
11
68.537216
21
384.230706
0
LINE
8
boundary
62
5
39
2
10
68.537216
20
384.230706
11
68.589038
21
383.326488
0
LINE
8
boundary
62
5
39
2
10
68.589038
20
383.326488
11
68.596469
21
382.810254
0
LINE
8
boundary
62
5
39
2
10
68.596469
20
382.810254
11
68.575911
21
382.017874
0
LINE
8
boundary
62
5
39
2
10
68.575911
20
382.017874
11
68.497015
21
381.182182
0
LINE
8
boundary
62
5
39
2
10
68.497015
20
381.182182
11
68.354754
21
380.379787
0
LINE
8
boundary
62
5
39
2
10
68.354754
20
380.379787
11
68.142562
21
379.613778
0
LINE
8
boundary
62
5
39
2
10
68.142562
20
379.613778
11
67.853984
21
378.887729
0
LINE
8
boundary
62
5
39
2
10
67.853984
20
378.887729
11
67.482692
21
378.204658
0
LINE
8
boundary
62
5
39
2
10
67.482692
20
378.204658
11
67.022267
21
377.567946
0
LINE
8
boundary
62
5
39
2
10
67.022267
20
377.567946
11
66.466239
21
376.981030
0
LINE
8
boundary
62
5
39
2
10
66.466239
20
376.981030
11
65.808592
21
376.447146
0
LINE
8
boundary
62
5
39
2
10
65.808592
20
376.447146
11
65.042690
21
375.969529
0
LINE
8
boundary
62
5
39
2
10
65.042690
20
375.969529
11
64.561773
21
375.728030
0
LINE
8
boundary
62
5
39
2
10
64.561773
20
375.728030
11
63.677743
21
375.365965
0
LINE
8
boundary
62
5
39
2
10
63.677743
20
375.365965
11
63.162042
21
375.196595
0
LINE
8
boundary
62
5
39
2
10
63.162042
20
375.196595
11
62.614736
21
375.043692
0
LINE
8
boundary
62
5
39
2
10
62.614736
20
375.043692
11
62.034963
21
374.907825
0
LINE
8
boundary
62
5
39
2
10
62.034963
20
374.907825
11
61.422110
21
374.789298
0
LINE
8
boundary
62
5
39
2
10
61.422110
20
374.789298
11
60.775472
21
374.688726
0
LINE
8
boundary
62
5
39
2
10
60.775472
20
374.688726
11
60.094243
21
374.606293
0
LINE
8
boundary
62
5
39
2
10
60.094243
20
374.606293
11
59.377617
21
374.542527
0
LINE
8
boundary
62
5
39
2
10
59.377617
20
374.542527
11
58.624998
21
374.497829
0
LINE
8
boundary
62
5
39
2
10
58.624998
20
374.497829
11
57.835691
21
374.472590
0
LINE
8
boundary
62
5
39
2
10
57.835691
20
374.472590
11
57.009056
21
374.467271
0
LINE
8
boundary
62
5
39
2
10
57.009056
20
374.467271
11
56.144211
21
374.482406
0
LINE
8
boundary
62
5
39
2
10
56.144211
20
374.482406
11
55.240611
21
374.518183
0
LINE
8
boundary
62
5
39
2
10
55.240611
20
374.518183
11
54.297527
21
374.575003
0
LINE
8
boundary
62
5
39
2
10
54.297527
20
374.575003
11
53.314471
21
374.653633
0
LINE
8
boundary
62
5
39
2
10
53.314471
20
374.653633
11
51.520051
21
375.260475
0
LINE
8
boundary
62
5
39
2
10
51.520051
20
375.260475
11
49.776070
21
375.836109
0
LINE
8
boundary
62
5
39
2
10
49.776070
20
375.836109
11
48.073628
21
376.381108
0
LINE
8
boundary
62
5
39
2
10
48.073628
20
376.381108
11
46.403618
21
376.896030
0
LINE
8
boundary
62
5
39
2
10
46.403618
20
376.896030
11
44.757127
21
377.381447
0
LINE
8
boundary
62
5
39
2
10
44.757127
20
377.381447
11
43.125043
21
377.837657
0
LINE
8
boundary
62
5
39
2
10
43.125043
20
377.837657
11
41.498744
21
378.265476
0
LINE
8
boundary
62
5
39
2
10
41.498744
20
378.265476
11
39.869192
21
378.665237
0
LINE
8
boundary
62
5
39
2
10
39.869192
20
378.665237
11
39.251795
21
378.805299
0
LINE
8
boundary
62
5
39
2
10
39.251795
20
378.805299
11
38.218685
21
379.035480
0
LINE
8
boundary
62
5
39
2
10
38.218685
20
379.035480
11
36.542572
21
379.377799
0
LINE
8
boundary
62
5
39
2
10
36.542572
20
379.377799
11
34.838133
21
379.693766
0
LINE
8
boundary
62
5
39
2
10
34.838133
20
379.693766
11
33.097003
21
379.984285
0
LINE
8
boundary
62
5
39
2
10
33.097003
20
379.984285
11
31.310993
21
380.249777
0
LINE
8
boundary
62
5
39
2
10
31.310993
20
380.249777
11
29.472004
21
380.490842
0
LINE
8
boundary
62
5
39
2
10
29.472004
20
380.490842
11
27.572360
21
380.707892
0
LINE
8
boundary
62
5
39
2
10
27.572360
20
380.707892
11
25.604219
21
380.901540
0
LINE
8
boundary
62
5
39
2
10
25.604219
20
380.901540
11
25.418159
21
365.980764
0
LINE
8
boundary
62
5
39
2
10
25.418159
20
365.980764
11
25.416846
21
361.970493
0
LINE
8
boundary
62
5
39
2
10
25.416846
20
361.970493
11
30.257926
21
346.734970
0
LINE
8
boundary
62
5
39
2
10
30.257926
20
346.734970
11
40.475232
21
346.584970
0
LINE
8
boundary
62
5
39
2
10
40.475232
20
346.584970
11
40.475232
21
343.838971
0
LINE
8
boundary
62
5
39
2
10
40.475232
20
343.838971
11
31.236091
21
343.838970
0
LINE
8
boundary
62
5
39
2
10
31.236091
20
343.838970
11
32.790318
21
338.765197
0
LINE
8
boundary
62
5
39
2
10
32.790318
20
338.765197
11
37.012841
21
325.439435
0
LINE
8
boundary
62
5
39
2
10
37.012841
20
325.439435
11
37.503064
21
324.057365
0
LINE
8
boundary
62
5
39
2
10
37.503064
20
324.057365
11
37.775882
21
323.286064
0
LINE
8
boundary
62
5
39
2
10
37.775882
20
323.286064
11
38.237086
21
321.907694
0
LINE
8
boundary
62
5
39
2
10
38.237086
20
321.907694
11
38.498153
21
321.124832
0
LINE
8
boundary
62
5
39
2
10
38.498153
20
321.124832
11
38.930568
21
319.751208
0
LINE
8
boundary
62
5
39
2
10
38.930568
20
319.751208
11
39.179878
21
318.956050
0
LINE
8
boundary
62
5
39
2
10
39.179878
20
318.956050
11
39.583598
21
317.588006
0
LINE
8
boundary
62
5
39
2
10
39.583598
20
317.588006
11
39.820920
21
316.779829
0
LINE
8
boundary
62
5
39
2
10
39.820920
20
316.779829
11
40.196397
21
315.418153
0
LINE
8
boundary
62
5
39
2
10
40.196397
20
315.418153
11
40.421742
21
314.596234
0
LINE
8
boundary
62
5
39
2
10
40.421742
20
314.596234
11
40.769266
21
313.241721
0
LINE
8
boundary
62
5
39
2
10
40.769266
20
313.241721
11
40.982404
21
312.405429
0
LINE
8
boundary
62
5
39
2
10
40.982404
20
312.405429
11
41.302397
21
311.058864
0
LINE
8
boundary
62
5
39
2
10
41.302397
20
311.058864
11
41.503066
21
310.207582
0
LINE
8
boundary
62
5
39
2
10
41.503066
20
310.207582
11
41.795903
21
308.869747
0
LINE
8
boundary
62
5
39
2
10
41.795903
20
308.869747
11
41.983869
21
308.002838
0
LINE
8
boundary
62
5
39
2
10
41.983869
20
308.002838
11
42.250137
21
306.674277
0
LINE
8
boundary
62
5
39
2
10
42.250137
20
306.674277
11
42.425191
21
305.791175
0
LINE
8
boundary
62
5
39
2
10
42.425191
20
305.791175
11
42.665343
21
304.472783
0
LINE
8
boundary
62
5
39
2
10
42.665343
20
304.472783
11
42.827142
21
303.572932
0
LINE
8
boundary
62
5
39
2
10
42.827142
20
303.572932
11
43.041775
21
302.265172
0
LINE
8
boundary
62
5
39
2
10
43.041775
20
302.265172
11
43.190019
21
301.348036
0
LINE
8
boundary
62
5
39
2
10
43.190019
20
301.348036
11
43.379635
21
300.051678
0
LINE
8
boundary
62
5
39
2
10
43.379635
20
300.051678
11
43.513953
21
299.116765
0
LINE
8
boundary
62
5
39
2
10
43.513953
20
299.116765
11
43.679366
21
297.832454
0
LINE
8
boundary
62
5
39
2
10
43.679366
20
297.832454
11
43.799432
21
296.879277
0
LINE
8
boundary
62
5
39
2
10
43.799432
20
296.879277
11
43.941108
21
295.607429
0
LINE
8
boundary
62
5
39
2
10
43.941108
20
295.607429
11
44.046560
21
294.635480
0
LINE
8
boundary
62
5
39
2
10
44.046560
20
294.635480
11
44.165259
21
293.376795
0
LINE
8
boundary
62
5
39
2
10
44.165259
20
293.376795
11
44.255675
21
292.385661
0
LINE
8
boundary
62
5
39
2
10
44.255675
20
292.385661
11
44.352021
21
291.140743
0
LINE
8
boundary
62
5
39
2
10
44.352021
20
291.140743
11
44.426998
21
290.129979
0
LINE
8
boundary
62
5
39
2
10
44.426998
20
290.129979
11
44.501836
21
288.899352
0
LINE
8
boundary
62
5
39
2
10
44.501836
20
288.899352
11
44.561027
21
287.868543
0
LINE
8
boundary
62
5
39
2
10
44.561027
20
287.868543
11
44.614949
21
286.652607
0
LINE
8
boundary
62
5
39
2
10
44.614949
20
286.652607
11
44.657926
21
285.601330
0
LINE
8
boundary
62
5
39
2
10
44.657926
20
285.601330
11
44.691776
21
284.400809
0
LINE
8
boundary
62
5
39
2
10
44.691776
20
284.400809
11
44.718101
21
283.328685
0
LINE
8
boundary
62
5
39
2
10
44.718101
20
283.328685
11
44.732603
21
282.143892
0
LINE
8
boundary
62
5
39
2
10
44.732603
20
282.143892
11
44.741945
21
281.050574
0
LINE
8
boundary
62
5
39
2
10
44.741945
20
281.050574
11
44.737947
21
279.882188
0
LINE
8
boundary
62
5
39
2
10
44.737947
20
279.882188
11
44.729787
21
278.767320
0
LINE
8
boundary
62
5
39
2
10
44.729787
20
278.767320
11
44.707989
21
277.615702
0
LINE
8
boundary
62
5
39
2
10
44.707989
20
277.615702
11
44.681968
21
276.478866
0
LINE
8
boundary
62
5
39
2
10
44.681968
20
276.478866
11
44.643209
21
275.344563
0
LINE
8
boundary
62
5
39
2
10
44.643209
20
275.344563
11
44.598855
21
274.185535
0
LINE
8
boundary
62
5
39
2
10
44.598855
20
274.185535
11
44.544015
21
273.068958
0
LINE
8
boundary
62
5
39
2
10
44.544015
20
273.068958
11
44.480986
21
271.887331
0
LINE
8
boundary
62
5
39
2
10
44.480986
20
271.887331
11
44.410836
21
270.788994
0
LINE
8
boundary
62
5
39
2
10
44.410836
20
270.788994
11
44.328698
21
269.584461
0
LINE
8
boundary
62
5
39
2
10
44.328698
20
269.584461
11
44.244086
21
268.504831
0
LINE
8
boundary
62
5
39
2
10
44.244086
20
268.504831
11
44.142463
21
267.277095
0
LINE
8
boundary
62
5
39
2
10
44.142463
20
267.277095
11
44.044181
21
266.216594
0
LINE
8
boundary
62
5
39
2
10
44.044181
20
266.216594
11
43.922539
21
264.965387
0
LINE
8
boundary
62
5
39
2
10
43.922539
20
264.965387
11
43.811481
21
263.924524
0
LINE
8
boundary
62
5
39
2
10
43.811481
20
263.924524
11
43.669647
21
262.649559
0
LINE
8
boundary
62
5
39
2
10
43.669647
20
262.649559
11
43.546687
21
261.628726
0
LINE
8
boundary
62
5
39
2
10
43.546687
20
261.628726
11
43.384082
21
260.329632
0
LINE
8
boundary
62
5
39
2
10
43.384082
20
260.329632
11
43.250069
21
259.329342
0
LINE
8
boundary
62
5
39
2
10
43.250069
20
259.329342
11
43.066413
21
258.005978
0
LINE
8
boundary
62
5
39
2
10
43.066413
20
258.005978
11
42.922116
21
257.026603
0
LINE
8
boundary
62
5
39
2
10
42.922116
20
257.026603
11
42.716967
21
255.678589
0
LINE
8
boundary
62
5
39
2
10
42.716967
20
255.678589
11
42.563358
21
254.720700
0
LINE
8
boundary
62
5
39
2
10
42.563358
20
254.720700
11
42.336455
21
253.347847
0
LINE
8
boundary
62
5
39
2
10
42.336455
20
253.347847
11
42.174314
21
252.411779
0
LINE
8
boundary
62
5
39
2
10
42.174314
20
252.411779
11
41.925202
21
251.013748
0
LINE
8
boundary
62
5
39
2
10
41.925202
20
251.013748
11
41.755500
21
250.100085
0
LINE
8
boundary
62
5
39
2
10
41.755500
20
250.100085
11
41.483918
21
248.676708
0
LINE
8
boundary
62
5
39
2
10
41.483918
20
248.676708
11
41.307394
21
247.785861
0
LINE
8
boundary
62
5
39
2
10
41.307394
20
247.785861
11
41.012854
21
246.336824
0
LINE
8
boundary
62
5
39
2
10
41.012854
20
246.336824
11
40.830456
21
245.469261
0
LINE
8
boundary
62
5
39
2
10
40.830456
20
245.469261
11
40.512729
21
243.994360
0
LINE
8
boundary
62
5
39
2
10
40.512729
20
243.994360
11
40.325358
21
243.150625
0
LINE
8
boundary
62
5
39
2
10
40.325358
20
243.150625
11
39.984160
21
241.649538
0
LINE
8
boundary
62
5
39
2
10
39.984160
20
241.649538
11
39.792603
21
240.830102
0
LINE
8
boundary
62
5
39
2
10
39.792603
20
240.830102
11
39.427553
21
239.302623
0
LINE
8
boundary
62
5
39
2
10
39.427553
20
239.302623
11
39.232804
21
238.507993
0
LINE
8
boundary
62
5
39
2
10
39.232804
20
238.507993
11
38.843663
21
236.953817
0
LINE
8
boundary
62
5
39
2
10
38.843663
20
236.953817
11
38.646483
21
236.184521
0
LINE
8
boundary
62
5
39
2
10
38.646483
20
236.184521
11
38.232796
21
234.603448
0
LINE
8
boundary
62
5
39
2
10
38.232796
20
234.603448
11
38.034144
21
233.860055
0
LINE
8
boundary
62
5
39
2
10
38.034144
20
233.860055
11
37.595786
21
232.251754
0
LINE
8
boundary
62
5
39
2
10
37.595786
20
232.251754
11
37.396527
21
231.534815
0
LINE
8
boundary
62
5
39
2
10
37.396527
20
231.534815
11
36.933105
21
229.899069
0
LINE
8
boundary
62
5
39
2
10
36.933105
20
229.899069
11
36.734130
21
229.209150
0
LINE
8
boundary
62
5
39
2
10
36.734130
20
229.209150
11
36.245423
21
227.545627
0
LINE
8
boundary
62
5
39
2
10
36.245423
20
227.545627
11
36.047660
21
226.883338
0
LINE
8
boundary
62
5
39
2
10
36.047660
20
226.883338
11
35.533395
21
225.191785
0
LINE
8
boundary
62
5
39
2
10
35.533395
20
225.191785
11
35.337686
21
224.557775
0
LINE
8
boundary
62
5
39
2
10
35.337686
20
224.557775
11
34.797563
21
222.837862
0
LINE
8
boundary
62
5
39
2
10
34.797563
20
222.837862
11
34.604877
21
222.232764
0
LINE
8
boundary
62
5
39
2
10
34.604877
20
222.232764
11
34.038611
21
220.484179
0
LINE
8
boundary
62
5
39
2
10
34.038611
20
220.484179
11
33.849827
21
219.908671
0
LINE
8
boundary
62
5
39
2
10
33.849827
20
219.908671
11
33.257176
21
218.131077
0
LINE
8
boundary
62
5
39
2
10
33.257176
20
218.131077
11
33.073241
21
217.585883
0
LINE
8
boundary
62
5
39
2
10
33.073241
20
217.585883
11
32.453853
21
215.778964
0
LINE
8
boundary
62
5
39
2
10
32.453853
20
215.778964
11
32.275708
21
215.264825
0
LINE
8
boundary
62
5
39
2
10
32.275708
20
215.264825
11
31.629467
21
213.428130
0
LINE
8
boundary
62
5
39
2
10
31.629467
20
213.428130
11
31.458067
21
212.945840
0
LINE
8
boundary
62
5
39
2
10
31.458067
20
212.945840
11
30.784627
21
211.079058
0
LINE
8
boundary
62
5
39
2
10
30.784627
20
211.079058
11
29.919963
21
208.732088
0
LINE
8
boundary
62
5
39
2
10
29.919963
20
208.732088
11
29.036236
21
206.387627
0
LINE
8
boundary
62
5
39
2
10
29.036236
20
206.387627
11
28.134055
21
204.046163
0
LINE
8
boundary
62
5
39
2
10
28.134055
20
204.046163
11
27.214151
21
201.708073
0
LINE
8
boundary
62
5
39
2
10
27.214151
20
201.708073
11
26.277463
21
199.373837
0
LINE
8
boundary
62
5
39
2
10
26.277463
20
199.373837
11
25.324513
21
197.043923
0
LINE
8
boundary
62
5
39
2
10
25.324513
20
197.043923
11
24.356146
21
194.718850
0
LINE
8
boundary
62
5
39
2
10
24.356146
20
194.718850
11
23.373051
21
192.398988
0
LINE
8
boundary
62
5
39
2
10
23.373051
20
192.398988
11
21.365718
21
187.777288
0
LINE
8
boundary
62
5
39
2
10
21.365718
20
187.777288
11
19.879099
21
184.456489
0
LINE
8
boundary
62
5
39
2
10
19.879099
20
184.456489
11
19.305149
21
183.230638
0
LINE
8
boundary
62
5
39
2
10
19.305149
20
183.230638
11
17.198999
21
178.846529
0
LINE
8
boundary
62
5
39
2
10
17.198999
20
178.846529
11
15.857837
21
174.180614
0
LINE
8
boundary
62
5
39
2
10
15.857837
20
174.180614
11
14.542281
21
169.333375
0
LINE
8
boundary
62
5
39
2
10
14.542281
20
169.333375
11
13.821483
21
166.608687
0
LINE
8
boundary
62
5
39
2
10
13.821483
20
166.608687
11
13.165774
21
164.056901
0
LINE
8
boundary
62
5
39
2
10
13.165774
20
164.056901
11
12.519862
21
161.465047
0
LINE
8
boundary
62
5
39
2
10
12.519862
20
161.465047
11
11.887330
21
158.833902
0
LINE
8
boundary
62
5
39
2
10
11.887330
20
158.833902
11
11.271921
21
156.163936
0
LINE
8
boundary
62
5
39
2
10
11.271921
20
156.163936
11
10.677284
21
153.455580
0
LINE
8
boundary
62
5
39
2
10
10.677284
20
153.455580
11
10.107198
21
150.709475
0
LINE
8
boundary
62
5
39
2
10
10.107198
20
150.709475
11
9.565778
21
147.925889
0
LINE
8
boundary
62
5
39
2
10
9.565778
20
147.925889
11
9.056812
21
145.105259
0
LINE
8
boundary
62
5
39
2
10
9.056812
20
145.105259
11
8.584503
21
142.247850
0
LINE
8
boundary
62
5
39
2
10
8.584503
20
142.247850
11
8.153174
21
139.354017
0
LINE
8
boundary
62
5
39
2
10
8.153174
20
139.354017
11
7.767255
21
136.424065
0
LINE
8
boundary
62
5
39
2
10
7.767255
20
136.424065
11
7.431230
21
133.458261
0
LINE
8
boundary
62
5
39
2
10
7.431230
20
133.458261
11
7.149900
21
130.456928
0
LINE
8
boundary
62
5
39
2
10
7.149900
20
130.456928
11
6.928176
21
127.420389
0
LINE
8
boundary
62
5
39
2
10
6.928176
20
127.420389
11
6.833587
21
125.772445
0
LINE
8
boundary
62
5
39
2
10
6.833587
20
125.772445
11
6.765541
21
124.247749
0
LINE
8
boundary
62
5
39
2
10
6.765541
20
124.247749
11
6.714948
21
122.716063
0
LINE
8
boundary
62
5
39
2
10
6.714948
20
122.716063
11
6.682105
21
121.177635
0
LINE
8
boundary
62
5
39
2
10
6.682105
20
121.177635
11
6.667864
21
119.632555
0
LINE
8
boundary
62
5
39
2
10
6.667864
20
119.632555
11
6.672755
21
118.080986
0
LINE
8
boundary
62
5
39
2
10
6.672755
20
118.080986
11
6.697626
21
116.523011
0
LINE
8
boundary
62
5
39
2
10
6.697626
20
116.523011
11
6.715743
21
114.983302
0
LINE
8
boundary
62
5
39
2
10
6.715743
20
114.983302
11
6.751765
21
113.440058
0
LINE
8
boundary
62
5
39
2
10
6.751765
20
113.440058
11
6.806921
21
111.892529
0
LINE
8
boundary
62
5
39
2
10
6.806921
20
111.892529
11
6.882074
21
110.341102
0
LINE
8
boundary
62
5
39
2
10
6.882074
20
110.341102
11
6.977486
21
108.785932
0
LINE
8
boundary
62
5
39
2
10
6.977486
20
108.785932
11
7.093716
21
107.227163
0
LINE
8
boundary
62
5
39
2
10
7.093716
20
107.227163
11
7.231220
21
105.665005
0
LINE
8
boundary
62
5
39
2
10
7.231220
20
105.665005
11
7.390710
21
104.099660
0
LINE
8
boundary
62
5
39
2
10
7.390710
20
104.099660
11
7.572440
21
102.531338
0
LINE
8
boundary
62
5
39
2
10
7.572440
20
102.531338
11
7.777368
21
100.960247
0
LINE
8
boundary
62
5
39
2
10
7.777368
20
100.960247
11
8.005576
21
99.386619
0
LINE
8
boundary
62
5
39
2
10
8.005576
20
99.386619
11
8.257865
21
97.810696
0
LINE
8
boundary
62
5
39
2
10
8.257865
20
97.810696
11
8.534661
21
96.232632
0
LINE
8
boundary
62
5
39
2
10
8.534661
20
96.232632
11
8.836556
21
94.652684
0
LINE
8
boundary
62
5
39
2
10
8.836556
20
94.652684
11
9.164175
21
93.071108
0
LINE
8
boundary
62
5
39
2
10
9.164175
20
93.071108
11
9.280161
21
92.544538
0
LINE
8
boundary
62
5
39
2
10
9.280161
20
92.544538
11
9.517948
21
91.488132
0
LINE
8
boundary
62
5
39
2
10
9.517948
20
91.488132
11
9.653008
21
90.917835
0
LINE
8
boundary
62
5
39
2
10
9.653008
20
90.917835
11
9.898235
21
89.904021
0
LINE
8
boundary
62
5
39
2
10
9.898235
20
89.904021
11
10.054286
21
89.289438
0
LINE
8
boundary
62
5
39
2
10
10.054286
20
89.289438
11
10.305856
21
88.319028
0
LINE
8
boundary
62
5
39
2
10
10.305856
20
88.319028
11
10.484728
21
87.659712
0
LINE
8
boundary
62
5
39
2
10
10.484728
20
87.659712
11
10.741255
21
86.733420
0
LINE
8
boundary
62
5
39
2
10
10.741255
20
86.733420
11
11.126018
21
84.584448
0
LINE
8
boundary
62
5
39
2
10
11.126018
20
84.584448
11
11.586601
21
82.078615
0
LINE
8
boundary
62
5
39
2
10
11.586601
20
82.078615
11
12.063336
21
79.423364
0
LINE
8
boundary
62
5
39
2
10
12.063336
20
79.423364
11
12.483323
21
77.147836
0
LINE
8
boundary
62
5
39
2
10
12.483323
20
77.147836
11
12.768427
21
75.620773
0
LINE
8
boundary
62
5
39
2
10
12.768427
20
75.620773
11
12.966240
21
74.591694
0
LINE
8
boundary
62
5
39
2
10
12.966240
20
74.591694
11
13.290236
21
72.929491
0
LINE
8
boundary
62
5
39
2
10
13.290236
20
72.929491
11
13.480401
21
71.981993
0
LINE
8
boundary
62
5
39
2
10
13.480401
20
71.981993
11
13.850346
21
70.181758
0
LINE
8
boundary
62
5
39
2
10
13.850346
20
70.181758
11
14.031818
21
69.324169
0
LINE
8
boundary
62
5
39
2
10
14.031818
20
69.324169
11
14.455940
21
67.383718
0
LINE
8
boundary
62
5
39
2
10
14.455940
20
67.383718
11
14.626937
21
66.623668
0
LINE
8
boundary
62
5
39
2
10
14.626937
20
66.623668
11
15.113934
21
64.541643
0
LINE
8
boundary
62
5
39
2
10
15.113934
20
64.541643
11
15.271734
21
63.886115
0
LINE
8
boundary
62
5
39
2
10
15.271734
20
63.886115
11
15.831646
21
61.662159
0
LINE
8
boundary
62
5
39
2
10
15.831646
20
61.662159
11
15.972745
21
61.117312
0
LINE
8
boundary
62
5
39
2
10
15.972745
20
61.117312
11
16.615998
21
58.752198
0
LINE
8
boundary
62
5
39
2
10
16.615998
20
58.752198
11
17.089652
21
57.098185
0
LINE
8
boundary
62
5
39
2
10
17.089652
20
57.098185
11
17.521622
21
55.660008
0
LINE
8
boundary
62
5
39
2
10
17.521622
20
55.660008
11
17.973095
21
54.218318
0
LINE
8
boundary
62
5
39
2
10
17.973095
20
54.218318
11
18.444772
21
52.774018
0
LINE
8
boundary
62
5
39
2
10
18.444772
20
52.774018
11
18.937629
21
51.327938
0
LINE
8
boundary
62
5
39
2
10
18.937629
20
51.327938
11
19.452641
21
49.881103
0
LINE
8
boundary
62
5
39
2
10
19.452641
20
49.881103
11
19.980840
21
48.460304
0
LINE
8
boundary
62
5
39
2
10
19.980840
20
48.460304
11
20.490572
21
47.021359
0
LINE
8
boundary
62
5
39
2
10
20.490572
20
47.021359
11
21.014121
21
45.609641
0
LINE
8
boundary
62
5
39
2
10
21.014121
20
45.609641
11
21.561051
21
44.200845
0
LINE
8
boundary
62
5
39
2
10
21.561051
20
44.200845
11
22.131837
21
42.795900
0
LINE
8
boundary
62
5
39
2
10
22.131837
20
42.795900
11
22.727580
21
41.395688
0
LINE
8
boundary
62
5
39
2
10
22.727580
20
41.395688
11
23.348817
21
40.001119
0
LINE
8
boundary
62
5
39
2
10
23.348817
20
40.001119
11
23.996324
21
38.613377
0
LINE
8
boundary
62
5
39
2
10
23.996324
20
38.613377
11
24.671152
21
37.233212
0
LINE
8
boundary
62
5
39
2
10
24.671152
20
37.233212
11
25.373735
21
35.861810
0
LINE
8
boundary
62
5
39
2
10
25.373735
20
35.861810
11
26.105118
21
34.500199
0
LINE
8
boundary
62
5
39
2
10
26.105118
20
34.500199
11
26.865943
21
33.149463
0
LINE
8
boundary
62
5
39
2
10
26.865943
20
33.149463
11
27.656847
21
31.810591
0
LINE
8
boundary
62
5
39
2
10
27.656847
20
31.810591
11
28.479046
21
30.484820
0
LINE
8
boundary
62
5
39
2
10
28.479046
20
30.484820
11
29.332962
21
29.173268
0
LINE
8
boundary
62
5
39
2
10
29.332962
20
29.173268
11
30.219191
21
27.877080
0
LINE
8
boundary
62
5
39
2
10
30.219191
20
27.877080
11
31.138841
21
26.597461
0
LINE
8
boundary
62
5
39
2
10
31.138841
20
26.597461
11
32.092700
21
25.335636
0
LINE
8
boundary
62
5
39
2
10
32.092700
20
25.335636
11
32.412380
21
24.926016
0
LINE
8
boundary
62
5
39
2
10
32.412380
20
24.926016
11
33.081222
21
24.092854
0
LINE
8
boundary
62
5
39
2
10
33.081222
20
24.092854
11
33.429119
21
23.669899
0
LINE
8
boundary
62
5
39
2
10
33.429119
20
23.669899
11
34.105365
21
22.870435
0
LINE
8
boundary
62
5
39
2
10
34.105365
20
22.870435
11
34.482503
21
22.435830
0
LINE
8
boundary
62
5
39
2
10
34.482503
20
22.435830
11
35.166039
21
21.669648
0
LINE
8
boundary
62
5
39
2
10
35.166039
20
21.669648
11
35.573292
21
21.225100
0
LINE
8
boundary
62
5
39
2
10
35.573292
20
21.225100
11
36.263633
21
20.491823
0
LINE
8
boundary
62
5
39
2
10
36.263633
20
20.491823
11
36.702023
21
20.039133
0
LINE
8
boundary
62
5
39
2
10
36.702023
20
20.039133
11
37.399135
21
19.338306
0
LINE
8
boundary
62
5
39
2
10
37.399135
20
19.338306
11
37.869512
21
18.879316
0
LINE
8
boundary
62
5
39
2
10
37.869512
20
18.879316
11
38.573217
21
18.210524
0
LINE
8
boundary
62
5
39
2
10
38.573217
20
18.210524
11
39.076461
21
17.747145
0
LINE
8
boundary
62
5
39
2
10
39.076461
20
17.747145
11
39.786582
21
17.109897
0
LINE
8
boundary
62
5
39
2
10
39.786582
20
17.109897
11
40.323566
21
16.644103
0
LINE
8
boundary
62
5
39
2
10
40.323566
20
16.644103
11
41.040091
21
16.037987
0
LINE
8
boundary
62
5
39
2
10
41.040091
20
16.037987
11
41.611528
21
15.571704
0
LINE
8
boundary
62
5
39
2
10
41.611528
20
15.571704
11
42.334331
21
14.996160
0
LINE
8
boundary
62
5
39
2
10
42.334331
20
14.996160
11
42.941037
21
14.531403
0
LINE
8
boundary
62
5
39
2
10
42.941037
20
14.531403
11
43.670133
21
13.985887
0
LINE
8
boundary
62
5
39
2
10
43.670133
20
13.985887
11
44.312763
21
13.524741
0
LINE
8
boundary
62
5
39
2
10
44.312763
20
13.524741
11
45.048239
21
13.008825
0
LINE
8
boundary
62
5
39
2
10
45.048239
20
13.008825
11
45.727402
21
12.553330
0
LINE
8
boundary
62
5
39
2
10
45.727402
20
12.553330
11
46.469159
21
12.066455
0
LINE
8
boundary
62
5
39
2
10
46.469159
20
12.066455
11
47.185471
21
11.618709
0
LINE
8
boundary
62
5
39
2
10
47.185471
20
11.618709
11
47.933765
21
11.160406
0
LINE
8
boundary
62
5
39
2
10
47.933765
20
11.160406
11
48.687727
21
10.722576
0
LINE
8
boundary
62
5
39
2
10
48.687727
20
10.722576
11
49.442629
21
10.292368
0
LINE
8
boundary
62
5
39
2
10
49.442629
20
10.292368
11
50.234789
21
9.866467
0
LINE
8
boundary
62
5
39
2
10
50.234789
20
9.866467
11
50.996599
21
9.463810
0
LINE
8
boundary
62
5
39
2
10
50.996599
20
9.463810
11
51.827269
21
9.052058
0
LINE
8
boundary
62
5
39
2
10
51.827269
20
9.052058
11
52.596210
21
8.676588
0
LINE
8
boundary
62
5
39
2
10
52.596210
20
8.676588
11
53.465814
21
8.281042
0
LINE
8
boundary
62
5
39
2
10
53.465814
20
8.281042
11
54.242243
21
7.932274
0
LINE
8
boundary
62
5
39
2
10
54.242243
20
7.932274
11
55.150982
21
7.554999
0
LINE
8
boundary
62
5
39
2
10
55.150982
20
7.554999
11
55.935279
21
7.232534
0
LINE
8
boundary
62
5
39
2
10
55.935279
20
7.232534
11
56.414622
21
6.980189
0
LINE
8
boundary
62
5
39
2
10
56.414622
20
6.980189
11
57.003521
21
6.806005
0
LINE
8
boundary
62
5
39
2
10
57.003521
20
6.806005
11
57.526116
21
6.718844
0
LINE
8
boundary
62
5
39
2
10
57.526116
20
6.718844
11
58.098348
21
6.678263
0
LINE
8
boundary
62
5
39
2
10
58.098348
20
6.678263
11
58.713440
21
6.684445
0
LINE
8
boundary
62
5
39
2
10
58.713440
20
6.684445
11
59.364654
21
6.737427
0
LINE
8
boundary
62
5
39
2
10
59.364654
20
6.737427
11
60.045187
21
6.837293
0
LINE
8
boundary
62
5
39
2
10
60.045187
20
6.837293
11
60.748340
21
6.983991
0
LINE
8
boundary
62
5
39
2
10
60.748340
20
6.983991
11
61.467349
21
7.177413
0
LINE
8
boundary
62
5
39
2
10
61.467349
20
7.177413
11
62.195461
21
7.417436
0
LINE
8
boundary
62
5
39
2
10
62.195461
20
7.417436
11
62.926194
21
7.703946
0
LINE
8
boundary
62
5
39
2
10
62.926194
20
7.703946
11
63.652810
21
8.036558
0
LINE
8
boundary
62
5
39
2
10
63.652810
20
8.036558
11
64.368614
21
8.415065
0
LINE
8
boundary
62
5
39
2
10
64.368614
20
8.415065
11
65.067045
21
8.839114
0
LINE
8
boundary
62
5
39
2
10
65.067045
20
8.839114
11
65.741630
21
9.308244
0
LINE
8
annotation
62
1
39
211
10
47.135331
20
342.811971
11
47.135331
21
347.611971
0
LINE
8
annotation
62
1
39
211
10
47.135331
20
347.611971
11
46.068230
21
346.544568
0
LINE
8
annotation
62
1
39
211
10
41.339288
20
426.227195
11
39.388519
21
426.227195
0
LINE
8
annotation
62
1
39
211
10
39.388519
20
426.227195
11
41.191093
21
429.129109
0
LINE
8
annotation
62
1
39
211
10
41.191093
20
429.129109
11
41.191093
21
429.129109
0
LINE
8
annotation
62
1
39
211
10
41.191093
20
429.129109
11
41.193248
21
429.131775
0
LINE
8
annotation
62
1
39
211
10
41.193248
20
429.131775
11
41.195315
21
429.134464
0
LINE
8
annotation
62
1
39
211
10
41.195315
20
429.134464
11
41.197307
21
429.137199
0
LINE
8
annotation
62
1
39
211
10
41.197307
20
429.137199
11
41.199237
21
429.140001
0
LINE
8
annotation
62
1
39
211
10
41.199237
20
429.140001
11
41.201120
21
429.142895
0
LINE
8
annotation
62
1
39
211
10
41.201120
20
429.142895
11
41.202969
21
429.145901
0
LINE
8
annotation
62
1
39
211
10
41.202969
20
429.145901
11
41.204797
21
429.149044
0
LINE
8
annotation
62
1
39
211
10
41.204797
20
429.149044
11
41.206619
21
429.152345
0
LINE
8
annotation
62
1
39
211
10
41.206619
20
429.152345
11
41.208447
21
429.155828
0
LINE
8
annotation
62
1
39
211
10
41.208447
20
429.155828
11
41.208447
21
429.155828
0
LINE
8
annotation
62
1
39
211
10
41.208447
20
429.155828
11
41.282875
21
429.315631
0
LINE
8
annotation
62
1
39
211
10
41.282875
20
429.315631
11
41.326355
21
429.481281
0
LINE
8
annotation
62
1
39
211
10
41.326355
20
429.481281
11
41.339951
21
429.649034
0
LINE
8
annotation
62
1
39
211
10
41.339951
20
429.649034
11
41.324730
21
429.815149
0
LINE
8
annotation
62
1
39
211
10
41.324730
20
429.815149
11
41.281758
21
429.975881
0
LINE
8
annotation
62
1
39
211
10
41.281758
20
429.975881
11
41.212099
21
430.127489
0
LINE
8
annotation
62
1
39
211
10
41.212099
20
430.127489
11
41.116820
21
430.266228
0
LINE
8
annotation
62
1
39
211
10
41.116820
20
430.266228
11
40.996986
21
430.388356
0
LINE
8
annotation
62
1
39
211
10
40.996986
20
430.388356
11
40.853662
21
430.490130
0
LINE
8
annotation
62
1
39
211
10
40.853662
20
430.490130
11
40.853662
21
430.490130
0
LINE
8
annotation
62
1
39
211
10
40.853662
20
430.490130
11
40.693414
21
430.563500
0
LINE
8
annotation
62
1
39
211
10
40.693414
20
430.563500
11
40.527511
21
430.606309
0
LINE
8
annotation
62
1
39
211
10
40.527511
20
430.606309
11
40.359659
21
430.619522
0
LINE
8
annotation
62
1
39
211
10
40.359659
20
430.619522
11
40.193570
21
430.604101
0
LINE
8
annotation
62
1
39
211
10
40.193570
20
430.604101
11
40.032951
21
430.561009
0
LINE
8
annotation
62
1
39
211
10
40.032951
20
430.561009
11
39.881511
21
430.491211
0
LINE
8
annotation
62
1
39
211
10
39.881511
20
430.491211
11
39.742960
21
430.395670
0
LINE
8
annotation
62
1
39
211
10
39.742960
20
430.395670
11
39.621007
21
430.275349
0
LINE
8
annotation
62
1
39
211
10
39.621007
20
430.275349
11
39.519360
21
430.131212
0
LINE
8
annotation
62
1
39
211
10
39.519360
20
430.131212
11
39.391274
21
429.885507
0
LINE
8
annotation
62
1
39
211
10
82.106750
20
378.460601
11
79.513091
21
374.709111
0
LINE
8
annotation
62
1
39
211
10
79.513091
20
374.709111
11
76.918944
21
378.460601
0
LINE
8
annotation
62
1
39
211
10
79.513091
20
375.011005
11
79.513091
21
370.683037
0
LINE
8
annotation
62
1
39
211
10
89.276502
20
374.571819
11
85.024129
21
374.571819
0
LINE
8
annotation
62
1
39
211
10
93.921361
20
370.683281
11
93.921361
21
378.460357
0
LINE
8
annotation
62
1
39
211
10
93.921361
20
378.460357
11
92.192417
21
376.730926
0
LINE
8
annotation
62
1
39
211
10
98.566708
20
370.683281
11
100.295652
21
378.460357
0
LINE
8
annotation
62
1
39
211
10
100.295652
20
378.460357
11
96.837277
21
378.460357
0
LINE
8
annotation
62
1
39
211
10
100.295652
20
374.997105
11
98.566708
21
374.997105
0
LINE
8
frame
62
5
39
2
10
0.000000
20
0.000000
11
215.900000
21
0.000000
0
LINE
8
frame
62
5
39
2
10
215.900000
20
0.000000
11
215.900000
21
279.400000
0
LINE
8
frame
62
5
39
2
10
215.900000
20
279.400000
11
0.000000
21
279.400000
0
LINE
8
frame
62
5
39
2
10
0.000000
20
279.400000
11
0.000000
21
0.000000
0
ENDSEC
0
EOF
