0
SECTION
2
HEADER
9
$ACADVER
1
AC1009
0
ENDSEC
0
SECTION
2
TABLES
0
TABLE
2
VPORT
70
1
0
VPORT
2
ACTIVE
70
0
10
0.0
20
0.0
11
0.0
21
0.0
12
0.0
22
0.0
13
0.0
23
0.0
14
0.0
24
0.0
15
0.0
25
0.0
16
0.0
26
0.0
36
0.0
17
0.0
27
0.0
37
0.0
40
0.0
41
0.0
42
0.0
43
0.0
44
0.0
50
0.0
51
0.0
71
0
72
1000
73
1
74
3
75
0
76
0
77
0
78
0
0
ENDTAB
0
ENDSEC
0
SECTION
2
ENTITIES
0
LINE
8
boundary
62
5
39
2
10
26.885688
20
27.773965
11
27.569828
21
26.696249
0
LINE
8
boundary
62
5
39
2
10
27.569828
20
26.696249
11
28.276194
21
25.634100
0
LINE
8
boundary
62
5
39
2
10
28.276194
20
25.634100
11
29.005335
21
24.588728
0
LINE
8
boundary
62
5
39
2
10
29.005335
20
24.588728
11
29.757953
21
23.561273
0
LINE
8
boundary
62
5
39
2
10
29.757953
20
23.561273
11
30.534516
21
22.552933
0
LINE
8
boundary
62
5
39
2
10
30.534516
20
22.552933
11
31.335524
21
21.564862
0
LINE
8
boundary
62
5
39
2
10
31.335524
20
21.564862
11
32.161512
21
20.598247
0
LINE
8
boundary
62
5
39
2
10
32.161512
20
20.598247
11
33.012835
21
19.654104
0
LINE
8
boundary
62
5
39
2
10
33.012835
20
19.654104
11
33.890332
21
18.733870
0
LINE
8
boundary
62
5
39
2
10
33.890332
20
18.733870
11
34.794247
21
17.838540
0
LINE
8
boundary
62
5
39
2
10
34.794247
20
17.838540
11
35.725067
21
16.969324
0
LINE
8
boundary
62
5
39
2
10
35.725067
20
16.969324
11
36.683479
21
16.127365
0
LINE
8
boundary
62
5
39
2
10
36.683479
20
16.127365
11
37.669956
21
15.313894
0
LINE
8
boundary
62
5
39
2
10
37.669956
20
15.313894
11
38.684894
21
14.529985
0
LINE
8
boundary
62
5
39
2
10
38.684894
20
14.529985
11
39.728829
21
13.776820
0
LINE
8
boundary
62
5
39
2
10
39.728829
20
13.776820
11
40.802390
21
13.055542
0
LINE
8
boundary
62
5
39
2
10
40.802390
20
13.055542
11
41.905909
21
12.367205
0
LINE
8
boundary
62
5
39
2
10
41.905909
20
12.367205
11
43.039972
21
11.712910
0
LINE
8
boundary
62
5
39
2
10
43.039972
20
11.712910
11
44.205057
21
11.093769
0
LINE
8
boundary
62
5
39
2
10
44.205057
20
11.093769
11
45.401688
21
10.510846
0
LINE
8
boundary
62
5
39
2
10
45.401688
20
10.510846
11
46.630389
21
9.965181
0
LINE
8
boundary
62
5
39
2
10
46.630389
20
9.965181
11
47.891702
21
9.457718
0
LINE
8
boundary
62
5
39
2
10
47.891702
20
9.457718
11
49.186072
21
8.989403
0
LINE
8
boundary
62
5
39
2
10
49.186072
20
8.989403
11
50.514105
21
8.561273
0
LINE
8
boundary
62
5
39
2
10
50.514105
20
8.561273
11
51.876217
21
8.174082
0
LINE
8
boundary
62
5
39
2
10
51.876217
20
8.174082
11
53.273026
21
7.828781
0
LINE
8
boundary
62
5
39
2
10
53.273026
20
7.828781
11
54.704990
21
7.526128
0
LINE
8
boundary
62
5
39
2
10
54.704990
20
7.526128
11
56.172743
21
7.266807
0
LINE
8
boundary
62
5
39
2
10
56.172743
20
7.266807
11
57.676688
21
7.051612
0
LINE
8
boundary
62
5
39
2
10
57.676688
20
7.051612
11
59.217595
21
6.881151
0
LINE
8
boundary
62
5
39
2
10
59.217595
20
6.881151
11
60.795829
21
6.755904
0
LINE
8
boundary
62
5
39
2
10
60.795829
20
6.755904
11
61.331851
21
6.669524
0
LINE
8
boundary
62
5
39
2
10
61.331851
20
6.669524
11
61.993530
21
6.702323
0
LINE
8
boundary
62
5
39
2
10
61.993530
20
6.702323
11
62.545574
21
6.799481
0
LINE
8
boundary
62
5
39
2
10
62.545574
20
6.799481
11
63.089470
21
6.937123
0
LINE
8
boundary
62
5
39
2
10
63.089470
20
6.937123
11
63.611077
21
7.100884
0
LINE
8
boundary
62
5
39
2
10
63.611077
20
7.100884
11
64.215133
21
7.325595
0
LINE
8
boundary
62
5
39
2
10
64.215133
20
7.325595
11
64.841524
21
7.593088
0
LINE
8
boundary
62
5
39
2
10
64.841524
20
7.593088
11
65.484203
21
7.901441
0
LINE
8
boundary
62
5
39
2
10
65.484203
20
7.901441
11
66.137079
21
8.248800
0
LINE
8
boundary
62
5
39
2
10
66.137079
20
8.248800
11
66.794144
21
8.633271
0
LINE
8
boundary
62
5
39
2
10
66.794144
20
8.633271
11
67.449607
21
9.053093
0
LINE
8
boundary
62
5
39
2
10
67.449607
20
9.053093
11
68.097186
21
9.506339
0
LINE
8
boundary
62
5
39
2
10
68.097186
20
9.506339
11
68.731046
21
9.991234
0
LINE
8
boundary
62
5
39
2
10
68.731046
20
9.991234
11
69.345225
21
10.506082
0
LINE
8
boundary
62
5
39
2
10
69.345225
20
10.506082
11
69.933633
21
11.049061
0
LINE
8
boundary
62
5
39
2
10
69.933633
20
11.049061
11
70.490376
21
11.618616
0
LINE
8
boundary
62
5
39
2
10
70.490376
20
11.618616
11
71.009447
21
12.213044
0
LINE
8
boundary
62
5
39
2
10
71.009447
20
12.213044
11
71.484751
21
12.830704
0
LINE
8
boundary
62
5
39
2
10
71.484751
20
12.830704
11
71.910286
21
13.470177
0
LINE
8
boundary
62
5
39
2
10
71.910286
20
13.470177
11
72.280179
21
14.129925
0
LINE
8
boundary
62
5
39
2
10
72.280179
20
14.129925
11
72.588080
21
14.808429
0
LINE
8
boundary
62
5
39
2
10
72.588080
20
14.808429
11
72.828004
21
15.504344
0
LINE
8
boundary
62
5
39
2
10
72.828004
20
15.504344
11
72.993695
21
16.216231
0
LINE
8
boundary
62
5
39
2
10
72.993695
20
16.216231
11
73.079067
21
16.942781
0
LINE
8
boundary
62
5
39
2
10
73.079067
20
16.942781
11
73.077779
21
17.682719
0
LINE
8
boundary
62
5
39
2
10
73.077779
20
17.682719
11
72.983362
21
18.434644
0
LINE
8
boundary
62
5
39
2
10
72.983362
20
18.434644
11
72.789550
21
19.197373
0
LINE
8
boundary
62
5
39
2
10
72.789550
20
19.197373
11
72.489700
21
19.969653
0
LINE
8
boundary
62
5
39
2
10
72.489700
20
19.969653
11
72.077131
21
20.750192
0
LINE
8
boundary
62
5
39
2
10
72.077131
20
20.750192
11
71.545318
21
21.537907
0
LINE
8
boundary
62
5
39
2
10
71.545318
20
21.537907
11
71.208907
21
21.961185
0
LINE
8
boundary
62
5
39
2
10
71.208907
20
21.961185
11
70.832689
21
22.335364
0
LINE
8
boundary
62
5
39
2
10
70.832689
20
22.335364
11
70.092883
21
22.378811
0
LINE
8
boundary
62
5
39
2
10
70.092883
20
22.378811
11
69.293379
21
22.452993
0
LINE
8
boundary
62
5
39
2
10
69.293379
20
22.452993
11
68.488701
21
22.553994
0
LINE
8
boundary
62
5
39
2
10
68.488701
20
22.553994
11
67.679430
21
22.681879
0
LINE
8
boundary
62
5
39
2
10
67.679430
20
22.681879
11
66.865897
21
22.836739
0
LINE
8
boundary
62
5
39
2
10
66.865897
20
22.836739
11
66.048367
21
23.018462
0
LINE
8
boundary
62
5
39
2
10
66.048367
20
23.018462
11
65.227356
21
23.227128
0
LINE
8
boundary
62
5
39
2
10
65.227356
20
23.227128
11
64.403143
21
23.462792
0
LINE
8
boundary
62
5
39
2
10
64.403143
20
23.462792
11
63.575935
21
23.725381
0
LINE
8
boundary
62
5
39
2
10
63.575935
20
23.725381
11
62.746444
21
24.014991
0
LINE
8
boundary
62
5
39
2
10
62.746444
20
24.014991
11
61.914739
21
24.331467
0
LINE
8
boundary
62
5
39
2
10
61.914739
20
24.331467
11
61.081424
21
24.675006
0
LINE
8
boundary
62
5
39
2
10
61.081424
20
24.675006
11
60.246694
21
25.045444
0
LINE
8
boundary
62
5
39
2
10
60.246694
20
25.045444
11
59.411052
21
25.442873
0
LINE
8
boundary
62
5
39
2
10
59.411052
20
25.442873
11
58.574838
21
25.867187
0
LINE
8
boundary
62
5
39
2
10
58.574838
20
25.867187
11
57.738477
21
26.318388
0
LINE
8
boundary
62
5
39
2
10
57.738477
20
26.318388
11
56.902420
21
26.796516
0
LINE
8
boundary
62
5
39
2
10
56.902420
20
26.796516
11
56.067099
21
27.301453
0
LINE
8
boundary
62
5
39
2
10
56.067099
20
27.301453
11
55.232767
21
27.833156
0
LINE
8
boundary
62
5
39
2
10
55.232767
20
27.833156
11
54.399975
21
28.391586
0
LINE
8
boundary
62
5
39
2
10
54.399975
20
28.391586
11
53.569170
21
28.976714
0
LINE
8
boundary
62
5
39
2
10
53.569170
20
28.976714
11
52.740797
21
29.588466
0
LINE
8
boundary
62
5
39
2
10
52.740797
20
29.588466
11
51.915093
21
30.226651
0
LINE
8
boundary
62
5
39
2
10
51.915093
20
30.226651
11
51.092756
21
30.891299
0
LINE
8
boundary
62
5
39
2
10
51.092756
20
30.891299
11
50.274145
21
31.582357
0
LINE
8
boundary
62
5
39
2
10
50.274145
20
31.582357
11
49.459712
21
32.299578
0
LINE
8
boundary
62
5
39
2
10
49.459712
20
32.299578
11
48.650006
21
33.042919
0
LINE
8
boundary
62
5
39
2
10
48.650006
20
33.042919
11
47.845374
21
33.812265
0
LINE
8
boundary
62
5
39
2
10
47.845374
20
33.812265
11
47.046416
21
34.607522
0
LINE
8
boundary
62
5
39
2
10
47.046416
20
34.607522
11
46.253533
21
35.428422
0
LINE
8
boundary
62
5
39
2
10
46.253533
20
35.428422
11
45.467281
21
36.274933
0
LINE
8
boundary
62
5
39
2
10
45.467281
20
36.274933
11
44.688153
21
37.146825
0
LINE
8
boundary
62
5
39
2
10
44.688153
20
37.146825
11
43.916686
21
38.043976
0
LINE
8
boundary
62
5
39
2
10
43.916686
20
38.043976
11
43.153365
21
38.966178
0
LINE
8
boundary
62
5
39
2
10
43.153365
20
38.966178
11
42.398742
21
39.913231
0
LINE
8
boundary
62
5
39
2
10
42.398742
20
39.913231
11
41.653365
21
40.884954
0
LINE
8
boundary
62
5
39
2
10
41.653365
20
40.884954
11
40.917750
21
41.881126
0
LINE
8
boundary
62
5
39
2
10
40.917750
20
41.881126
11
40.192536
21
42.901545
0
LINE
8
boundary
62
5
39
2
10
40.192536
20
42.901545
11
39.478105
21
43.945931
0
LINE
8
boundary
62
5
39
2
10
39.478105
20
43.945931
11
38.775099
21
45.014053
0
LINE
8
boundary
62
5
39
2
10
38.775099
20
45.014053
11
38.083997
21
46.105700
0
LINE
8
boundary
62
5
39
2
10
38.083997
20
46.105700
11
37.405533
21
47.220615
0
LINE
8
boundary
62
5
39
2
10
37.405533
20
47.220615
11
36.740262
21
48.358532
0
LINE
8
boundary
62
5
39
2
10
36.740262
20
48.358532
11
36.088570
21
49.519113
0
LINE
8
boundary
62
5
39
2
10
36.088570
20
49.519113
11
35.451275
21
50.702116
0
LINE
8
boundary
62
5
39
2
10
35.451275
20
50.702116
11
34.828858
21
51.907259
0
LINE
8
boundary
62
5
39
2
10
34.828858
20
51.907259
11
34.221872
21
53.134213
0
LINE
8
boundary
62
5
39
2
10
34.221872
20
53.134213
11
33.630949
21
54.382690
0
LINE
8
boundary
62
5
39
2
10
33.630949
20
54.382690
11
33.056651
21
55.652355
0
LINE
8
boundary
62
5
39
2
10
33.056651
20
55.652355
11
32.499676
21
56.942899
0
LINE
8
boundary
62
5
39
2
10
32.499676
20
56.942899
11
31.960601
21
58.253970
0
LINE
8
boundary
62
5
39
2
10
31.960601
20
58.253970
11
31.439967
21
59.585219
0
LINE
8
boundary
62
5
39
2
10
31.439967
20
59.585219
11
30.938426
21
60.936334
0
LINE
8
boundary
62
5
39
2
10
30.938426
20
60.936334
11
30.456475
21
62.306985
0
LINE
8
boundary
62
5
39
2
10
30.456475
20
62.306985
11
29.994877
21
63.696708
0
LINE
8
boundary
62
5
39
2
10
29.994877
20
63.696708
11
29.554227
21
65.105239
0
LINE
8
boundary
62
5
39
2
10
29.554227
20
65.105239
11
29.134915
21
66.532164
0
LINE
8
boundary
62
5
39
2
10
29.134915
20
66.532164
11
28.737781
21
67.977177
0
LINE
8
boundary
62
5
39
2
10
28.737781
20
67.977177
11
28.363379
21
69.439776
0
LINE
8
boundary
62
5
39
2
10
28.363379
20
69.439776
11
28.012292
21
70.919696
0
LINE
8
boundary
62
5
39
2
10
28.012292
20
70.919696
11
27.685034
21
72.416505
0
LINE
8
boundary
62
5
39
2
10
27.685034
20
72.416505
11
27.382205
21
73.929770
0
LINE
8
boundary
62
5
39
2
10
27.382205
20
73.929770
11
27.104533
21
75.459170
0
LINE
8
boundary
62
5
39
2
10
27.104533
20
75.459170
11
26.852635
21
77.004226
0
LINE
8
boundary
62
5
39
2
10
26.852635
20
77.004226
11
26.545744
21
78.206819
0
LINE
8
boundary
62
5
39
2
10
26.545744
20
78.206819
11
26.254696
21
79.409758
0
LINE
8
boundary
62
5
39
2
10
26.254696
20
79.409758
11
25.979041
21
80.613012
0
LINE
8
boundary
62
5
39
2
10
25.979041
20
80.613012
11
25.718937
21
81.816391
0
LINE
8
boundary
62
5
39
2
10
25.718937
20
81.816391
11
25.474056
21
83.019841
0
LINE
8
boundary
62
5
39
2
10
25.474056
20
83.019841
11
25.244278
21
84.223196
0
LINE
8
boundary
62
5
39
2
10
25.244278
20
84.223196
11
24.829784
21
86.629408
0
LINE
8
boundary
62
5
39
2
10
24.829784
20
86.629408
11
24.474180
21
89.034242
0
LINE
8
boundary
62
5
39
2
10
24.474180
20
89.034242
11
24.176490
21
91.436862
0
LINE
8
boundary
62
5
39
2
10
24.176490
20
91.436862
11
23.935390
21
93.836575
0
LINE
8
boundary
62
5
39
2
10
23.935390
20
93.836575
11
23.749592
21
96.232839
0
LINE
8
boundary
62
5
39
2
10
23.749592
20
96.232839
11
23.618051
21
98.624935
0
LINE
8
boundary
62
5
39
2
10
23.618051
20
98.624935
11
23.539406
21
101.012201
0
LINE
8
boundary
62
5
39
2
10
23.539406
20
101.012201
11
23.512186
21
103.394184
0
LINE
8
boundary
62
5
39
2
10
23.512186
20
103.394184
11
23.535137
21
105.770242
0
LINE
8
boundary
62
5
39
2
10
23.535137
20
105.770242
11
23.606787
21
108.139890
0
LINE
8
boundary
62
5
39
2
10
23.606787
20
108.139890
11
23.725802
21
110.502781
0
LINE
8
boundary
62
5
39
2
10
23.725802
20
110.502781
11
23.890811
21
112.858223
0
LINE
8
boundary
62
5
39
2
10
23.890811
20
112.858223
11
24.100303
21
115.206021
0
LINE
8
boundary
62
5
39
2
10
24.100303
20
115.206021
11
24.352735
21
117.545700
0
LINE
8
boundary
62
5
39
2
10
24.352735
20
117.545700
11
24.646678
21
119.876829
0
LINE
8
boundary
62
5
39
2
10
24.646678
20
119.876829
11
24.980593
21
122.199119
0
LINE
8
boundary
62
5
39
2
10
24.980593
20
122.199119
11
25.352999
21
124.512288
0
LINE
8
boundary
62
5
39
2
10
25.352999
20
124.512288
11
25.762355
21
126.815995
0
LINE
8
boundary
62
5
39
2
10
25.762355
20
126.815995
11
26.207089
21
129.109910
0
LINE
8
boundary
62
5
39
2
10
26.207089
20
129.109910
11
26.685577
21
131.393823
0
LINE
8
boundary
62
5
39
2
10
26.685577
20
131.393823
11
27.196416
21
133.667521
0
LINE
8
boundary
62
5
39
2
10
27.196416
20
133.667521
11
27.738064
21
135.930735
0
LINE
8
boundary
62
5
39
2
10
27.738064
20
135.930735
11
28.308754
21
138.183336
0
LINE
8
boundary
62
5
39
2
10
28.308754
20
138.183336
11
28.907063
21
140.425005
0
LINE
8
boundary
62
5
39
2
10
28.907063
20
140.425005
11
29.531342
21
142.655712
0
LINE
8
boundary
62
5
39
2
10
29.531342
20
142.655712
11
30.180037
21
144.875246
0
LINE
8
boundary
62
5
39
2
10
30.180037
20
144.875246
11
30.851736
21
147.083383
0
LINE
8
boundary
62
5
39
2
10
30.851736
20
147.083383
11
31.544598
21
149.280145
0
LINE
8
boundary
62
5
39
2
10
31.544598
20
149.280145
11
32.257190
21
151.465346
0
LINE
8
boundary
62
5
39
2
10
32.257190
20
151.465346
11
32.987935
21
153.638928
0
LINE
8
boundary
62
5
39
2
10
32.987935
20
153.638928
11
33.735402
21
155.800809
0
LINE
8
boundary
62
5
39
2
10
33.735402
20
155.800809
11
34.497765
21
157.950845
0
LINE
8
boundary
62
5
39
2
10
34.497765
20
157.950845
11
35.273853
21
160.089128
0
LINE
8
boundary
62
5
39
2
10
35.273853
20
160.089128
11
36.061969
21
162.215461
0
LINE
8
boundary
62
5
39
2
10
36.061969
20
162.215461
11
36.860442
21
164.329884
0
LINE
8
boundary
62
5
39
2
10
36.860442
20
164.329884
11
38.483194
21
168.523030
0
LINE
8
boundary
62
5
39
2
10
38.483194
20
168.523030
11
40.130313
21
172.668327
0
LINE
8
boundary
62
5
39
2
10
40.130313
20
172.668327
11
41.790333
21
176.766144
0
LINE
8
boundary
62
5
39
2
10
41.790333
20
176.766144
11
43.451987
21
180.816733
0
LINE
8
boundary
62
5
39
2
10
43.451987
20
180.816733
11
45.104440
21
184.820524
0
LINE
8
boundary
62
5
39
2
10
45.104440
20
184.820524
11
48.339910
21
192.690306
0
LINE
8
boundary
62
5
39
2
10
48.339910
20
192.690306
11
51.417322
21
200.381942
0
LINE
8
boundary
62
5
39
2
10
51.417322
20
200.381942
11
52.807242
21
203.991145
0
LINE
8
boundary
62
5
39
2
10
52.807242
20
203.991145
11
54.239404
21
207.885446
0
LINE
8
boundary
62
5
39
2
10
54.239404
20
207.885446
11
55.534734
21
211.570743
0
LINE
8
boundary
62
5
39
2
10
55.534734
20
211.570743
11
56.159416
21
213.418134
0
LINE
8
boundary
62
5
39
2
10
56.159416
20
213.418134
11
56.757640
21
215.240843
0
LINE
8
boundary
62
5
39
2
10
56.757640
20
215.240843
11
57.682457
21
218.184166
0
LINE
8
boundary
62
5
39
2
10
57.682457
20
218.184166
11
58.581974
21
221.225968
0
LINE
8
boundary
62
5
39
2
10
58.581974
20
221.225968
11
59.025377
21
222.803255
0
LINE
8
boundary
62
5
39
2
10
59.025377
20
222.803255
11
59.450576
21
224.375922
0
LINE
8
boundary
62
5
39
2
10
59.450576
20
224.375922
11
59.863684
21
225.967291
0
LINE
8
boundary
62
5
39
2
10
59.863684
20
225.967291
11
60.263798
21
227.576547
0
LINE
8
boundary
62
5
39
2
10
60.263798
20
227.576547
11
60.649570
21
229.203237
0
LINE
8
boundary
62
5
39
2
10
60.649570
20
229.203237
11
61.020199
21
230.846618
0
LINE
8
boundary
62
5
39
2
10
61.020199
20
230.846618
11
61.374461
21
232.506045
0
LINE
8
boundary
62
5
39
2
10
61.374461
20
232.506045
11
61.711555
21
234.181034
0
LINE
8
boundary
62
5
39
2
10
61.711555
20
234.181034
11
62.030336
21
235.870740
0
LINE
8
boundary
62
5
39
2
10
62.030336
20
235.870740
11
62.329869
21
237.574641
0
LINE
8
boundary
62
5
39
2
10
62.329869
20
237.574641
11
62.609195
21
239.292335
0
LINE
8
boundary
62
5
39
2
10
62.609195
20
239.292335
11
62.867525
21
241.022967
0
LINE
8
boundary
62
5
39
2
10
62.867525
20
241.022967
11
63.103957
21
242.766153
0
LINE
8
boundary
62
5
39
2
10
63.103957
20
242.766153
11
63.317524
21
244.521486
0
LINE
8
boundary
62
5
39
2
10
63.317524
20
244.521486
11
63.507475
21
246.288131
0
LINE
8
boundary
62
5
39
2
10
63.507475
20
246.288131
11
63.672924
21
248.065514
0
LINE
8
boundary
62
5
39
2
10
63.672924
20
248.065514
11
63.813113
21
249.853437
0
LINE
8
boundary
62
5
39
2
10
63.813113
20
249.853437
11
63.927295
21
251.651213
0
LINE
8
boundary
62
5
39
2
10
63.927295
20
251.651213
11
64.014665
21
253.458257
0
LINE
8
boundary
62
5
39
2
10
64.014665
20
253.458257
11
64.074482
21
255.274305
0
LINE
8
boundary
62
5
39
2
10
64.074482
20
255.274305
11
64.105986
21
257.098624
0
LINE
8
boundary
62
5
39
2
10
64.105986
20
257.098624
11
64.108558
21
258.930823
0
LINE
8
boundary
62
5
39
2
10
64.108558
20
258.930823
11
64.081480
21
260.770421
0
LINE
8
boundary
62
5
39
2
10
64.081480
20
260.770421
11
64.024050
21
262.617059
0
LINE
8
boundary
62
5
39
2
10
64.024050
20
262.617059
11
63.935700
21
264.470118
0
LINE
8
boundary
62
5
39
2
10
63.935700
20
264.470118
11
63.815579
21
266.329211
0
LINE
8
boundary
62
5
39
2
10
63.815579
20
266.329211
11
63.663271
21
268.193877
0
LINE
8
boundary
62
5
39
2
10
63.663271
20
268.193877
11
63.477945
21
270.063741
0
LINE
8
boundary
62
5
39
2
10
63.477945
20
270.063741
11
63.259108
21
271.938323
0
LINE
8
boundary
62
5
39
2
10
63.259108
20
271.938323
11
63.006185
21
273.817005
0
LINE
8
boundary
62
5
39
2
10
63.006185
20
273.817005
11
62.718488
21
275.699531
0
LINE
8
boundary
62
5
39
2
10
62.718488
20
275.699531
11
62.395479
21
277.585340
0
LINE
8
boundary
62
5
39
2
10
62.395479
20
277.585340
11
62.036582
21
279.474215
0
LINE
8
boundary
62
5
39
2
10
62.036582
20
279.474215
11
61.641245
21
281.365488
0
LINE
8
boundary
62
5
39
2
10
61.641245
20
281.365488
11
61.208702
21
283.258903
0
LINE
8
boundary
62
5
39
2
10
61.208702
20
283.258903
11
60.738584
21
285.153964
0
LINE
8
boundary
62
5
39
2
10
60.738584
20
285.153964
11
60.230276
21
287.050127
0
LINE
8
boundary
62
5
39
2
10
60.230276
20
287.050127
11
59.683171
21
288.947095
0
LINE
8
boundary
62
5
39
2
10
59.683171
20
288.947095
11
59.096744
21
290.844497
0
LINE
8
boundary
62
5
39
2
10
59.096744
20
290.844497
11
58.470359
21
292.741777
0
LINE
8
boundary
62
5
39
2
10
58.470359
20
292.741777
11
58.141411
21
293.692275
0
LINE
8
boundary
62
5
39
2
10
58.141411
20
293.692275
11
57.803162
21
294.639773
0
LINE
8
boundary
62
5
39
2
10
57.803162
20
294.639773
11
57.454693
21
295.587094
0
LINE
8
boundary
62
5
39
2
10
57.454693
20
295.587094
11
57.227888
21
296.185719
0
LINE
8
boundary
62
5
39
2
10
57.227888
20
296.185719
11
56.722544
21
297.479648
0
LINE
8
boundary
62
5
39
2
10
56.722544
20
297.479648
11
56.339887
21
298.424900
0
LINE
8
boundary
62
5
39
2
10
56.339887
20
298.424900
11
55.946666
21
299.369742
0
LINE
8
boundary
62
5
39
2
10
55.946666
20
299.369742
11
55.542840
21
300.314049
0
LINE
8
boundary
62
5
39
2
10
55.542840
20
300.314049
11
55.128292
21
301.257896
0
LINE
8
boundary
62
5
39
2
10
55.128292
20
301.257896
11
54.703100
21
302.200920
0
LINE
8
boundary
62
5
39
2
10
54.703100
20
302.200920
11
54.267124
21
303.143119
0
LINE
8
boundary
62
5
39
2
10
54.267124
20
303.143119
11
53.820195
21
304.084906
0
LINE
8
boundary
62
5
39
2
10
53.820195
20
304.084906
11
53.362442
21
305.025649
0
LINE
8
boundary
62
5
39
2
10
53.362442
20
305.025649
11
52.893594
21
305.965643
0
LINE
8
boundary
62
5
39
2
10
52.893594
20
305.965643
11
52.413723
21
306.904569
0
LINE
8
boundary
62
5
39
2
10
52.413723
20
306.904569
11
51.922750
21
307.842562
0
LINE
8
boundary
62
5
39
2
10
51.922750
20
307.842562
11
51.420585
21
308.779610
0
LINE
8
boundary
62
5
39
2
10
51.420585
20
308.779610
11
50.907215
21
309.715268
0
LINE
8
boundary
62
5
39
2
10
50.907215
20
309.715268
11
50.382396
21
310.649989
0
LINE
8
boundary
62
5
39
2
10
50.382396
20
310.649989
11
49.846304
21
311.583608
0
LINE
8
boundary
62
5
39
2
10
49.846304
20
311.583608
11
49.298735
21
312.515855
0
LINE
8
boundary
62
5
39
2
10
49.298735
20
312.515855
11
48.739548
21
313.446761
0
LINE
8
boundary
62
5
39
2
10
48.739548
20
313.446761
11
48.168891
21
314.376287
0
LINE
8
boundary
62
5
39
2
10
48.168891
20
314.376287
11
47.586555
21
315.304157
0
LINE
8
boundary
62
5
39
2
10
47.586555
20
315.304157
11
46.992542
21
316.230809
0
LINE
8
boundary
62
5
39
2
10
46.992542
20
316.230809
11
46.386726
21
317.155955
0
LINE
8
boundary
62
5
39
2
10
46.386726
20
317.155955
11
45.769013
21
318.079278
0
LINE
8
boundary
62
5
39
2
10
45.769013
20
318.079278
11
45.139477
21
319.001084
0
LINE
8
boundary
62
5
39
2
10
45.139477
20
319.001084
11
44.498019
21
319.920929
0
LINE
8
boundary
62
5
39
2
10
44.498019
20
319.920929
11
43.844509
21
320.839196
0
LINE
8
boundary
62
5
39
2
10
43.844509
20
320.839196
11
43.178918
21
321.755403
0
LINE
8
boundary
62
5
39
2
10
43.178918
20
321.755403
11
42.501116
21
322.669899
0
LINE
8
boundary
62
5
39
2
10
42.501116
20
322.669899
11
41.811170
21
323.582424
0
LINE
8
boundary
62
5
39
2
10
41.811170
20
323.582424
11
41.108925
21
324.492826
0
LINE
8
boundary
62
5
39
2
10
41.108925
20
324.492826
11
40.394335
21
325.401069
0
LINE
8
boundary
62
5
39
2
10
40.394335
20
325.401069
11
39.667485
21
326.307159
0
LINE
8
boundary
62
5
39
2
10
39.667485
20
326.307159
11
38.928055
21
327.211145
0
LINE
8
boundary
62
5
39
2
10
38.928055
20
327.211145
11
38.176140
21
328.112773
0
LINE
8
boundary
62
5
39
2
10
38.176140
20
328.112773
11
37.411699
21
329.011917
0
LINE
8
boundary
62
5
39
2
10
37.411699
20
329.011917
11
36.634638
21
329.908902
0
LINE
8
boundary
62
5
39
2
10
36.634638
20
329.908902
11
36.422497
21
330.438251
0
LINE
8
boundary
62
5
39
2
10
36.422497
20
330.438251
11
36.236332
21
330.943848
0
LINE
8
boundary
62
5
39
2
10
36.236332
20
330.943848
11
36.075283
21
331.425970
0
LINE
8
boundary
62
5
39
2
10
36.075283
20
331.425970
11
35.826264
21
332.321489
0
LINE
8
boundary
62
5
39
2
10
35.826264
20
332.321489
11
35.670204
21
333.128193
0
LINE
8
boundary
62
5
39
2
10
35.670204
20
333.128193
11
35.602164
21
333.849698
0
LINE
8
boundary
62
5
39
2
10
35.602164
20
333.849698
11
35.617244
21
334.489274
0
LINE
8
boundary
62
5
39
2
10
35.617244
20
334.489274
11
35.710624
21
335.050449
0
LINE
8
boundary
62
5
39
2
10
35.710624
20
335.050449
11
35.877778
21
335.536624
0
LINE
8
boundary
62
5
39
2
10
35.877778
20
335.536624
11
36.256708
21
336.132861
0
LINE
8
boundary
62
5
39
2
10
36.256708
20
336.132861
11
36.776197
21
336.580045
0
LINE
8
boundary
62
5
39
2
10
36.776197
20
336.580045
11
37.421661
21
336.889840
0
LINE
8
boundary
62
5
39
2
10
37.421661
20
336.889840
11
37.914782
21
337.025980
0
LINE
8
boundary
62
5
39
2
10
37.914782
20
337.025980
11
38.453260
21
337.109812
0
LINE
8
boundary
62
5
39
2
10
38.453260
20
337.109812
11
39.032712
21
337.145044
0
LINE
8
boundary
62
5
39
2
10
39.032712
20
337.145044
11
39.649160
21
337.135004
0
LINE
8
boundary
62
5
39
2
10
39.649160
20
337.135004
11
40.298293
21
337.083364
0
LINE
8
boundary
62
5
39
2
10
40.298293
20
337.083364
11
40.975985
21
336.993583
0
LINE
8
boundary
62
5
39
2
10
40.975985
20
336.993583
11
41.678173
21
336.869021
0
LINE
8
boundary
62
5
39
2
10
41.678173
20
336.869021
11
42.400463
21
336.713730
0
LINE
8
boundary
62
5
39
2
10
42.400463
20
336.713730
11
43.138822
21
336.530572
0
LINE
8
boundary
62
5
39
2
10
43.138822
20
336.530572
11
43.889062
21
336.323526
0
LINE
8
boundary
62
5
39
2
10
43.889062
20
336.323526
11
44.646824
21
336.096064
0
LINE
8
boundary
62
5
39
2
10
44.646824
20
336.096064
11
45.408012
21
335.851462
0
LINE
8
boundary
62
5
39
2
10
45.408012
20
335.851462
11
46.168319
21
335.593284
0
LINE
8
boundary
62
5
39
2
10
46.168319
20
335.593284
11
46.923372
21
335.325301
0
LINE
8
boundary
62
5
39
2
10
46.923372
20
335.325301
11
48.400947
21
334.773306
0
LINE
8
boundary
62
5
39
2
10
48.400947
20
334.773306
11
49.806089
21
334.223561
0
LINE
8
boundary
62
5
39
2
10
49.806089
20
334.223561
11
51.103871
21
333.703811
0
LINE
8
boundary
62
5
39
2
10
51.103871
20
333.703811
11
51.924791
21
333.118762
0
LINE
8
boundary
62
5
39
2
10
51.924791
20
333.118762
11
52.759094
21
332.553318
0
LINE
8
boundary
62
5
39
2
10
52.759094
20
332.553318
11
53.605995
21
332.007349
0
LINE
8
boundary
62
5
39
2
10
53.605995
20
332.007349
11
54.465097
21
331.480798
0
LINE
8
boundary
62
5
39
2
10
54.465097
20
331.480798
11
55.335598
21
330.973740
0
LINE
8
boundary
62
5
39
2
10
55.335598
20
330.973740
11
56.217051
21
330.485993
0
LINE
8
boundary
62
5
39
2
10
56.217051
20
330.485993
11
57.108723
21
330.017744
0
LINE
8
boundary
62
5
39
2
10
57.108723
20
330.017744
11
58.009834
21
329.568949
0
LINE
8
boundary
62
5
39
2
10
58.009834
20
329.568949
11
58.920034
21
329.139279
0
LINE
8
boundary
62
5
39
2
10
58.920034
20
329.139279
11
59.838617
21
328.729121
0
LINE
8
boundary
62
5
39
2
10
59.838617
20
328.729121
11
60.764862
21
328.338224
0
LINE
8
boundary
62
5
39
2
10
60.764862
20
328.338224
11
61.698126
21
327.966526
0
LINE
8
boundary
62
5
39
2
10
61.698126
20
327.966526
11
62.637884
21
327.614040
0
LINE
8
boundary
62
5
39
2
10
62.637884
20
327.614040
11
63.583452
21
327.280947
0
LINE
8
boundary
62
5
39
2
10
63.583452
20
327.280947
11
64.534158
21
326.966982
0
LINE
8
boundary
62
5
39
2
10
64.534158
20
326.966982
11
65.489472
21
326.672133
0
LINE
8
boundary
62
5
39
2
10
65.489472
20
326.672133
11
66.445346
21
326.396483
0
LINE
8
boundary
62
5
39
2
10
66.445346
20
326.396483
11
67.402646
21
326.140111
0
LINE
8
boundary
62
5
39
2
10
67.402646
20
326.140111
11
68.362665
21
325.902835
0
LINE
8
boundary
62
5
39
2
10
68.362665
20
325.902835
11
69.324960
21
325.684489
0
LINE
8
boundary
62
5
39
2
10
69.324960
20
325.684489
11
70.288822
21
325.485133
0
LINE
8
boundary
62
5
39
2
10
70.288822
20
325.485133
11
71.253748
21
325.304782
0
LINE
8
boundary
62
5
39
2
10
71.253748
20
325.304782
11
72.219086
21
325.143319
0
LINE
8
boundary
62
5
39
2
10
72.219086
20
325.143319
11
73.184219
21
325.000906
0
LINE
8
boundary
62
5
39
2
10
73.184219
20
325.000906
11
74.148661
21
324.877274
0
LINE
8
boundary
62
5
39
2
10
74.148661
20
324.877274
11
75.111628
21
324.772576
0
LINE
8
boundary
62
5
39
2
10
75.111628
20
324.772576
11
76.072756
21
324.686653
0
LINE
8
boundary
62
5
39
2
10
76.072756
20
324.686653
11
77.031442
21
324.619726
0
LINE
8
boundary
62
5
39
2
10
77.031442
20
324.619726
11
77.987028
21
324.571535
0
LINE
8
boundary
62
5
39
2
10
77.987028
20
324.571535
11
78.939050
21
324.542196
0
LINE
8
boundary
62
5
39
2
10
78.939050
20
324.542196
11
79.886928
21
324.531524
0
LINE
8
boundary
62
5
39
2
10
79.886928
20
324.531524
11
80.830111
21
324.539626
0
LINE
8
boundary
62
5
39
2
10
80.830111
20
324.539626
11
81.768032
21
324.566554
0
LINE
8
boundary
62
5
39
2
10
81.768032
20
324.566554
11
82.700351
21
324.612141
0
LINE
8
boundary
62
5
39
2
10
82.700351
20
324.612141
11
83.626288
21
324.676481
0
LINE
8
boundary
62
5
39
2
10
83.626288
20
324.676481
11
84.545591
21
324.759605
0
LINE
8
boundary
62
5
39
2
10
84.545591
20
324.759605
11
85.457597
21
324.861197
0
LINE
8
boundary
62
5
39
2
10
85.457597
20
324.861197
11
86.361882
21
324.981563
0
LINE
8
boundary
62
5
39
2
10
86.361882
20
324.981563
11
87.257984
21
325.120675
0
LINE
8
boundary
62
5
39
2
10
87.257984
20
325.120675
11
88.145494
21
325.278313
0
LINE
8
boundary
62
5
39
2
10
88.145494
20
325.278313
11
89.023806
21
325.454771
0
LINE
8
boundary
62
5
39
2
10
89.023806
20
325.454771
11
89.892569
21
325.649704
0
LINE
8
boundary
62
5
39
2
10
89.892569
20
325.649704
11
90.751358
21
325.863284
0
LINE
8
boundary
62
5
39
2
10
90.751358
20
325.863284
11
91.599697
21
326.095554
0
LINE
8
boundary
62
5
39
2
10
91.599697
20
326.095554
11
92.437209
21
326.346485
0
LINE
8
boundary
62
5
39
2
10
92.437209
20
326.346485
11
93.263373
21
326.615831
0
LINE
8
boundary
62
5
39
2
10
93.263373
20
326.615831
11
94.078005
21
326.904053
0
LINE
8
boundary
62
5
39
2
10
94.078005
20
326.904053
11
94.880506
21
327.210884
0
LINE
8
boundary
62
5
39
2
10
94.880506
20
327.210884
11
95.670652
21
327.536303
0
LINE
8
boundary
62
5
39
2
10
95.670652
20
327.536303
11
96.447976
21
327.880154
0
LINE
8
boundary
62
5
39
2
10
96.447976
20
327.880154
11
97.212140
21
328.242891
0
LINE
8
boundary
62
5
39
2
10
97.212140
20
328.242891
11
97.962878
21
328.624109
0
LINE
8
boundary
62
5
39
2
10
97.962878
20
328.624109
11
98.699711
21
329.024056
0
LINE
8
boundary
62
5
39
2
10
98.699711
20
329.024056
11
99.422363
21
329.442782
0
LINE
8
boundary
62
5
39
2
10
99.422363
20
329.442782
11
100.130611
21
329.879985
0
LINE
8
boundary
62
5
39
2
10
100.130611
20
329.879985
11
100.823946
21
330.336016
0
LINE
8
boundary
62
5
39
2
10
100.823946
20
330.336016
11
101.502131
21
330.810836
0
LINE
8
boundary
62
5
39
2
10
101.502131
20
330.810836
11
102.164970
21
331.304230
0
LINE
8
boundary
62
5
39
2
10
102.164970
20
331.304230
11
102.812049
21
331.816354
0
LINE
8
boundary
62
5
39
2
10
102.812049
20
331.816354
11
103.443075
21
332.347489
0
LINE
8
boundary
62
5
39
2
10
103.443075
20
332.347489
11
104.057830
21
332.897008
0
LINE
8
boundary
62
5
39
2
10
104.057830
20
332.897008
11
104.655954
21
333.465697
0
LINE
8
boundary
62
5
39
2
10
104.655954
20
333.465697
11
105.237223
21
334.053027
0
LINE
8
boundary
62
5
39
2
10
105.237223
20
334.053027
11
105.801424
21
334.659215
0
LINE
8
boundary
62
5
39
2
10
105.801424
20
334.659215
11
106.474261
21
335.208921
0
LINE
8
boundary
62
5
39
2
10
106.474261
20
335.208921
11
107.077080
21
335.771830
0
LINE
8
boundary
62
5
39
2
10
107.077080
20
335.771830
11
107.614136
21
336.351535
0
LINE
8
boundary
62
5
39
2
10
107.614136
20
336.351535
11
108.087164
21
336.947646
0
LINE
8
boundary
62
5
39
2
10
108.087164
20
336.947646
11
108.497916
21
337.559943
0
LINE
8
boundary
62
5
39
2
10
108.497916
20
337.559943
11
108.847985
21
338.187812
0
LINE
8
boundary
62
5
39
2
10
108.847985
20
338.187812
11
109.139056
21
338.830973
0
LINE
8
boundary
62
5
39
2
10
109.139056
20
338.830973
11
109.372793
21
339.488770
0
LINE
8
boundary
62
5
39
2
10
109.372793
20
339.488770
11
109.550582
21
340.161047
0
LINE
8
boundary
62
5
39
2
10
109.550582
20
340.161047
11
109.674069
21
340.847101
0
LINE
8
boundary
62
5
39
2
10
109.674069
20
340.847101
11
109.744682
21
341.546557
0
LINE
8
boundary
62
5
39
2
10
109.744682
20
341.546557
11
109.763952
21
342.258991
0
LINE
8
boundary
62
5
39
2
10
109.763952
20
342.258991
11
109.733176
21
342.984050
0
LINE
8
boundary
62
5
39
2
10
109.733176
20
342.984050
11
109.653874
21
343.721277
0
LINE
8
boundary
62
5
39
2
10
109.653874
20
343.721277
11
109.527457
21
344.470102
0
LINE
8
boundary
62
5
39
2
10
109.527457
20
344.470102
11
109.355146
21
345.230091
0
LINE
8
boundary
62
5
39
2
10
109.355146
20
345.230091
11
109.138530
21
346.001011
0
LINE
8
boundary
62
5
39
2
10
109.138530
20
346.001011
11
108.878743
21
346.782174
0
LINE
8
boundary
62
5
39
2
10
108.878743
20
346.782174
11
108.577224
21
347.573147
0
LINE
8
boundary
62
5
39
2
10
108.577224
20
347.573147
11
108.237601
21
348.368496
0
LINE
8
boundary
62
5
39
2
10
108.237601
20
348.368496
11
107.856894
21
349.177840
0
LINE
8
boundary
62
5
39
2
10
107.856894
20
349.177840
11
107.438448
21
349.995505
0
LINE
8
boundary
62
5
39
2
10
107.438448
20
349.995505
11
106.983658
21
350.821435
0
LINE
8
boundary
62
5
39
2
10
106.983658
20
350.821435
11
106.493666
21
351.654937
0
LINE
8
boundary
62
5
39
2
10
106.493666
20
351.654937
11
105.969947
21
352.495370
0
LINE
8
boundary
62
5
39
2
10
105.969947
20
352.495370
11
105.413835
21
353.342694
0
LINE
8
boundary
62
5
39
2
10
105.413835
20
353.342694
11
104.826597
21
354.196308
0
LINE
8
boundary
62
5
39
2
10
104.826597
20
354.196308
11
104.209619
21
355.055629
0
LINE
8
boundary
62
5
39
2
10
104.209619
20
355.055629
11
103.564258
21
355.920246
0
LINE
8
boundary
62
5
39
2
10
103.564258
20
355.920246
11
102.891800
21
356.789820
0
LINE
8
boundary
62
5
39
2
10
102.891800
20
356.789820
11
102.193664
21
357.663726
0
LINE
8
boundary
62
5
39
2
10
102.193664
20
357.663726
11
101.471267
21
358.541733
0
LINE
8
boundary
62
5
39
2
10
101.471267
20
358.541733
11
100.725911
21
359.423165
0
LINE
8
boundary
62
5
39
2
10
100.725911
20
359.423165
11
99.959034
21
360.307786
0
LINE
8
boundary
62
5
39
2
10
99.959034
20
360.307786
11
99.171888
21
361.195115
0
LINE
8
boundary
62
5
39
2
10
99.171888
20
361.195115
11
98.366079
21
362.084510
0
LINE
8
boundary
62
5
39
2
10
98.366079
20
362.084510
11
97.542967
21
362.975617
0
LINE
8
boundary
62
5
39
2
10
97.542967
20
362.975617
11
96.703881
21
363.867829
0
LINE
8
boundary
62
5
39
2
10
96.703881
20
363.867829
11
95.850251
21
364.760931
0
LINE
8
boundary
62
5
39
2
10
95.850251
20
364.760931
11
94.983450
21
365.654365
0
LINE
8
boundary
62
5
39
2
10
94.983450
20
365.654365
11
94.105036
21
366.547660
0
LINE
8
boundary
62
5
39
2
10
94.105036
20
366.547660
11
93.216361
21
367.440284
0
LINE
8
boundary
62
5
39
2
10
93.216361
20
367.440284
11
91.426045
21
369.210144
0
LINE
8
boundary
62
5
39
2
10
91.426045
20
369.210144
11
89.599369
21
370.984357
0
LINE
8
boundary
62
5
39
2
10
89.599369
20
370.984357
11
87.760010
21
372.746857
0
LINE
8
boundary
62
5
39
2
10
87.760010
20
372.746857
11
85.919326
21
374.493888
0
LINE
8
boundary
62
5
39
2
10
85.919326
20
374.493888
11
84.088597
21
376.221482
0
LINE
8
boundary
62
5
39
2
10
84.088597
20
376.221482
11
80.517399
21
379.588773
0
LINE
8
boundary
62
5
39
2
10
80.517399
20
379.588773
11
77.099060
21
382.849789
0
LINE
8
boundary
62
5
39
2
10
77.099060
20
382.849789
11
75.472448
21
384.432191
0
LINE
8
boundary
62
5
39
2
10
75.472448
20
384.432191
11
73.932423
21
385.960935
0
LINE
8
boundary
62
5
39
2
10
73.932423
20
385.960935
11
73.002240
21
386.885074
0
LINE
8
boundary
62
5
39
2
10
73.002240
20
386.885074
11
72.079155
21
387.782080
0
LINE
8
boundary
62
5
39
2
10
72.079155
20
387.782080
11
71.160361
21
388.654959
0
LINE
8
boundary
62
5
39
2
10
71.160361
20
388.654959
11
70.245681
21
389.503659
0
LINE
8
boundary
62
5
39
2
10
70.245681
20
389.503659
11
69.334894
21
390.328919
0
LINE
8
boundary
62
5
39
2
10
69.334894
20
390.328919
11
68.424806
21
391.129793
0
LINE
8
boundary
62
5
39
2
10
68.424806
20
391.129793
11
67.518221
21
391.907849
0
LINE
8
boundary
62
5
39
2
10
67.518221
20
391.907849
11
66.615151
21
392.663400
0
LINE
8
boundary
62
5
39
2
10
66.615151
20
392.663400
11
65.715567
21
393.396472
0
LINE
8
boundary
62
5
39
2
10
65.715567
20
393.396472
11
64.819233
21
394.107816
0
LINE
8
boundary
62
5
39
2
10
64.819233
20
394.107816
11
63.926167
21
394.797433
0
LINE
8
boundary
62
5
39
2
10
63.926167
20
394.797433
11
63.036181
21
395.465924
0
LINE
8
boundary
62
5
39
2
10
63.036181
20
395.465924
11
62.149216
21
396.113514
0
LINE
8
boundary
62
5
39
2
10
62.149216
20
396.113514
11
61.265218
21
396.740680
0
LINE
8
boundary
62
5
39
2
10
61.265218
20
396.740680
11
60.383962
21
397.347548
0
LINE
8
boundary
62
5
39
2
10
60.383962
20
397.347548
11
59.505451
21
397.934649
0
LINE
8
boundary
62
5
39
2
10
59.505451
20
397.934649
11
58.629570
21
398.502419
0
LINE
8
boundary
62
5
39
2
10
58.629570
20
398.502419
11
57.756226
21
399.051101
0
LINE
8
boundary
62
5
39
2
10
57.756226
20
399.051101
11
56.885307
21
399.581087
0
LINE
8
boundary
62
5
39
2
10
56.885307
20
399.581087
11
56.016860
21
400.092851
0
LINE
8
boundary
62
5
39
2
10
56.016860
20
400.092851
11
55.150684
21
400.586499
0
LINE
8
boundary
62
5
39
2
10
55.150684
20
400.586499
11
54.286734
21
401.062634
0
LINE
8
boundary
62
5
39
2
10
54.286734
20
401.062634
11
53.424957
21
401.521474
0
LINE
8
boundary
62
5
39
2
10
53.424957
20
401.521474
11
52.565308
21
401.963688
0
LINE
8
boundary
62
5
39
2
10
52.565308
20
401.963688
11
51.707769
21
402.389291
0
LINE
8
boundary
62
5
39
2
10
51.707769
20
402.389291
11
50.852172
21
402.798862
0
LINE
8
boundary
62
5
39
2
10
50.852172
20
402.798862
11
49.998605
21
403.192617
0
LINE
8
boundary
62
5
39
2
10
49.998605
20
403.192617
11
49.146925
21
403.571200
0
LINE
8
boundary
62
5
39
2
10
49.146925
20
403.571200
11
48.297119
21
403.934782
0
LINE
8
boundary
62
5
39
2
10
48.297119
20
403.934782
11
47.449097
21
404.283772
0
LINE
8
boundary
62
5
39
2
10
47.449097
20
404.283772
11
46.602982
21
404.618629
0
LINE
8
boundary
62
5
39
2
10
46.602982
20
404.618629
11
45.758586
21
404.939547
0
LINE
8
boundary
62
5
39
2
10
45.758586
20
404.939547
11
44.915906
21
405.247232
0
LINE
8
boundary
62
5
39
2
10
44.915906
20
405.247232
11
44.074955
21
405.541836
0
LINE
8
boundary
62
5
39
2
10
44.074955
20
405.541836
11
43.235684
21
405.823796
0
LINE
8
boundary
62
5
39
2
10
43.235684
20
405.823796
11
42.398083
21
406.093494
0
LINE
8
boundary
62
5
39
2
10
42.398083
20
406.093494
11
41.562148
21
406.351440
0
LINE
8
boundary
62
5
39
2
10
41.562148
20
406.351440
11
40.727911
21
406.597678
0
LINE
8
boundary
62
5
39
2
10
40.727911
20
406.597678
11
39.895212
21
406.833055
0
LINE
8
boundary
62
5
39
2
10
39.895212
20
406.833055
11
39.064241
21
407.057719
0
LINE
8
boundary
62
5
39
2
10
39.064241
20
407.057719
11
38.234812
21
407.272097
0
LINE
8
boundary
62
5
39
2
10
38.234812
20
407.272097
11
37.407031
21
407.476535
0
LINE
8
boundary
62
5
39
2
10
37.407031
20
407.476535
11
35.756350
21
407.857222
0
LINE
8
boundary
62
5
39
2
10
35.756350
20
407.857222
11
34.112234
21
408.203101
0
LINE
8
boundary
62
5
39
2
10
34.112234
20
408.203101
11
32.474721
21
408.517402
0
LINE
8
boundary
62
5
39
2
10
32.474721
20
408.517402
11
30.843948
21
408.802962
0
LINE
8
boundary
62
5
39
2
10
30.843948
20
408.802962
11
29.220015
21
409.063247
0
LINE
8
boundary
62
5
39
2
10
29.220015
20
409.063247
11
27.603068
21
409.301405
0
LINE
8
boundary
62
5
39
2
10
27.603068
20
409.301405
11
25.993465
21
409.520504
0
LINE
8
boundary
62
5
39
2
10
25.993465
20
409.520504
11
24.391417
21
409.723842
0
LINE
8
boundary
62
5
39
2
10
24.391417
20
409.723842
11
22.797070
21
409.914455
0
LINE
8
boundary
62
5
39
2
10
22.797070
20
409.914455
11
22.287387
21
409.971896
0
LINE
8
boundary
62
5
39
2
10
22.287387
20
409.971896
11
19.633000
21
410.270918
0
LINE
8
boundary
62
5
39
2
10
19.633000
20
410.270918
11
19.408089
21
408.979063
0
LINE
8
boundary
62
5
39
2
10
19.408089
20
408.979063
11
18.336005
21
402.775546
0
LINE
8
boundary
62
5
39
2
10
18.336005
20
402.775546
11
18.996600
21
402.704176
0
LINE
8
boundary
62
5
39
2
10
18.996600
20
402.704176
11
22.680223
21
402.306321
0
LINE
8
boundary
62
5
39
2
10
22.680223
20
402.306321
11
23.895883
21
401.942586
0
LINE
8
boundary
62
5
39
2
10
23.895883
20
401.942586
11
25.093788
21
401.570129
0
LINE
8
boundary
62
5
39
2
10
25.093788
20
401.570129
11
25.672568
21
401.383247
0
LINE
8
boundary
62
5
39
2
10
25.672568
20
401.383247
11
42.683128
21
401.383248
0
LINE
8
boundary
62
5
39
2
10
42.683128
20
401.383248
11
42.683129
21
398.637247
0
LINE
8
boundary
62
5
39
2
10
42.683129
20
398.637247
11
33.585439
21
398.637248
0
LINE
8
boundary
62
5
39
2
10
33.585439
20
398.637248
11
34.047672
21
398.292093
0
LINE
8
boundary
62
5
39
2
10
34.047672
20
398.292093
11
35.089567
21
397.847234
0
LINE
8
boundary
62
5
39
2
10
35.089567
20
397.847234
11
36.114553
21
397.395213
0
LINE
8
boundary
62
5
39
2
10
36.114553
20
397.395213
11
37.122664
21
396.935936
0
LINE
8
boundary
62
5
39
2
10
37.122664
20
396.935936
11
38.114013
21
396.469623
0
LINE
8
boundary
62
5
39
2
10
38.114013
20
396.469623
11
39.088695
21
395.996515
0
LINE
8
boundary
62
5
39
2
10
39.088695
20
395.996515
11
40.046757
21
395.516659
0
LINE
8
boundary
62
5
39
2
10
40.046757
20
395.516659
11
40.988275
21
395.030389
0
LINE
8
boundary
62
5
39
2
10
40.988275
20
395.030389
11
41.913296
21
394.537619
0
LINE
8
boundary
62
5
39
2
10
41.913296
20
394.537619
11
42.821918
21
394.038548
0
LINE
8
boundary
62
5
39
2
10
42.821918
20
394.038548
11
43.714289
21
393.533399
0
LINE
8
boundary
62
5
39
2
10
43.714289
20
393.533399
11
44.590254
21
393.022311
0
LINE
8
boundary
62
5
39
2
10
44.590254
20
393.022311
11
45.449962
21
392.505337
0
LINE
8
boundary
62
5
39
2
10
45.449962
20
392.505337
11
46.293598
21
391.982882
0
LINE
8
boundary
62
5
39
2
10
46.293598
20
391.982882
11
47.121061
21
391.454717
0
LINE
8
boundary
62
5
39
2
10
47.121061
20
391.454717
11
47.932496
21
390.921156
0
LINE
8
boundary
62
5
39
2
10
47.932496
20
390.921156
11
48.727963
21
390.382498
0
LINE
8
boundary
62
5
39
2
10
48.727963
20
390.382498
11
49.507490
21
389.838465
0
LINE
8
boundary
62
5
39
2
10
49.507490
20
389.838465
11
50.271132
21
389.289782
0
LINE
8
boundary
62
5
39
2
10
50.271132
20
389.289782
11
51.018992
21
388.736198
0
LINE
8
boundary
62
5
39
2
10
51.018992
20
388.736198
11
51.751030
21
388.177892
0
LINE
8
boundary
62
5
39
2
10
51.751030
20
388.177892
11
52.467280
21
387.615219
0
LINE
8
boundary
62
5
39
2
10
52.467280
20
387.615219
11
53.167852
21
387.047998
0
LINE
8
boundary
62
5
39
2
10
53.167852
20
387.047998
11
53.852834
21
386.476651
0
LINE
8
boundary
62
5
39
2
10
53.852834
20
386.476651
11
54.522232
21
385.901148
0
LINE
8
boundary
62
5
39
2
10
54.522232
20
385.901148
11
55.176100
21
385.321798
0
LINE
8
boundary
62
5
39
2
10
55.176100
20
385.321798
11
55.814408
21
384.738762
0
LINE
8
boundary
62
5
39
2
10
55.814408
20
384.738762
11
56.437324
21
384.151734
0
LINE
8
boundary
62
5
39
2
10
56.437324
20
384.151734
11
57.044754
21
383.561532
0
LINE
8
boundary
62
5
39
2
10
57.044754
20
383.561532
11
57.636899
21
382.967718
0
LINE
8
boundary
62
5
39
2
10
57.636899
20
382.967718
11
58.213628
21
382.370842
0
LINE
8
boundary
62
5
39
2
10
58.213628
20
382.370842
11
58.775153
21
381.770671
0
LINE
8
boundary
62
5
39
2
10
58.775153
20
381.770671
11
59.321360
21
381.167711
0
LINE
8
boundary
62
5
39
2
10
59.321360
20
381.167711
11
59.852357
21
380.561851
0
LINE
8
boundary
62
5
39
2
10
59.852357
20
380.561851
11
60.368219
21
379.953356
0
LINE
8
boundary
62
5
39
2
10
60.368219
20
379.953356
11
60.868930
21
379.342346
0
LINE
8
boundary
62
5
39
2
10
60.868930
20
379.342346
11
61.354490
21
378.728852
0
LINE
8
boundary
62
5
39
2
10
61.354490
20
378.728852
11
61.824976
21
378.113249
0
LINE
8
boundary
62
5
39
2
10
61.824976
20
378.113249
11
62.280491
21
377.495323
0
LINE
8
boundary
62
5
39
2
10
62.280491
20
377.495323
11
62.720925
21
376.875627
0
LINE
8
boundary
62
5
39
2
10
62.720925
20
376.875627
11
63.146496
21
376.253968
0
LINE
8
boundary
62
5
39
2
10
63.146496
20
376.253968
11
63.556992
21
375.630638
0
LINE
8
boundary
62
5
39
2
10
63.556992
20
375.630638
11
63.952676
21
375.005553
0
LINE
8
boundary
62
5
39
2
10
63.952676
20
375.005553
11
64.333459
21
374.379197
0
LINE
8
boundary
62
5
39
2
10
64.333459
20
374.379197
11
64.699457
21
373.751402
0
LINE
8
boundary
62
5
39
2
10
64.699457
20
373.751402
11
65.050482
21
373.122826
0
LINE
8
boundary
62
5
39
2
10
65.050482
20
373.122826
11
65.386815
21
372.492932
0
LINE
8
boundary
62
5
39
2
10
65.386815
20
372.492932
11
65.708428
21
371.861937
0
LINE
8
boundary
62
5
39
2
10
65.708428
20
371.861937
11
66.015256
21
371.230602
0
LINE
8
boundary
62
5
39
2
10
66.015256
20
371.230602
11
66.307392
21
370.598372
0
LINE
8
boundary
62
5
39
2
10
66.307392
20
370.598372
11
66.584843
21
369.965633
0
LINE
8
boundary
62
5
39
2
10
66.584843
20
369.965633
11
66.847554
21
369.332712
0
LINE
8
boundary
62
5
39
2
10
66.847554
20
369.332712
11
67.095731
21
368.699439
0
LINE
8
boundary
62
5
39
2
10
67.095731
20
368.699439
11
67.329222
21
368.066228
0
LINE
8
boundary
62
5
39
2
10
67.329222
20
368.066228
11
67.548158
21
367.432738
0
LINE
8
boundary
62
5
39
2
10
67.548158
20
367.432738
11
67.512813
21
366.491048
0
LINE
8
boundary
62
5
39
2
10
67.512813
20
366.491048
11
67.503391
21
365.534497
0
LINE
8
boundary
62
5
39
2
10
67.503391
20
365.534497
11
67.514583
21
364.566196
0
LINE
8
boundary
62
5
39
2
10
67.514583
20
364.566196
11
67.541157
21
363.589902
0
LINE
8
boundary
62
5
39
2
10
67.541157
20
363.589902
11
67.618840
21
361.625770
0
LINE
8
boundary
62
5
39
2
10
67.618840
20
361.625770
11
67.693170
21
359.669243
0
LINE
8
boundary
62
5
39
2
10
67.693170
20
359.669243
11
67.715295
21
358.701874
0
LINE
8
boundary
62
5
39
2
10
67.715295
20
358.701874
11
67.720103
21
357.746375
0
LINE
8
boundary
62
5
39
2
10
67.720103
20
357.746375
11
67.701777
21
356.805931
0
LINE
8
boundary
62
5
39
2
10
67.701777
20
356.805931
11
67.654808
21
355.883983
0
LINE
8
boundary
62
5
39
2
10
67.654808
20
355.883983
11
67.573417
21
354.983484
0
LINE
8
boundary
62
5
39
2
10
67.573417
20
354.983484
11
67.451908
21
354.107937
0
LINE
8
boundary
62
5
39
2
10
67.451908
20
354.107937
11
67.284381
21
353.260791
0
LINE
8
boundary
62
5
39
2
10
67.284381
20
353.260791
11
67.065175
21
352.444824
0
LINE
8
boundary
62
5
39
2
10
67.065175
20
352.444824
11
66.788267
21
351.663692
0
LINE
8
boundary
62
5
39
2
10
66.788267
20
351.663692
11
66.447948
21
350.920410
0
LINE
8
boundary
62
5
39
2
10
66.447948
20
350.920410
11
66.038097
21
350.218540
0
LINE
8
boundary
62
5
39
2
10
66.038097
20
350.218540
11
65.552931
21
349.560799
0
LINE
8
boundary
62
5
39
2
10
65.552931
20
349.560799
11
64.986330
21
348.950889
0
LINE
8
boundary
62
5
39
2
10
64.986330
20
348.950889
11
64.332462
21
348.391998
0
LINE
8
boundary
62
5
39
2
10
64.332462
20
348.391998
11
63.585187
21
347.887119
0
LINE
8
boundary
62
5
39
2
10
63.585187
20
347.887119
11
62.738637
21
347.439788
0
LINE
8
boundary
62
5
39
2
10
62.738637
20
347.439788
11
62.271872
21
347.237129
0
LINE
8
boundary
62
5
39
2
10
62.271872
20
347.237129
11
61.786684
21
347.053146
0
LINE
8
boundary
62
5
39
2
10
61.786684
20
347.053146
11
61.269371
21
346.883704
0
LINE
8
boundary
62
5
39
2
10
61.269371
20
346.883704
11
60.723497
21
346.730424
0
LINE
8
boundary
62
5
39
2
10
60.723497
20
346.730424
11
60.148245
21
346.594235
0
LINE
8
boundary
62
5
39
2
10
60.148245
20
346.594235
11
59.542975
21
346.475028
0
LINE
8
boundary
62
5
39
2
10
59.542975
20
346.475028
11
58.906948
21
346.373650
0
LINE
8
boundary
62
5
39
2
10
58.906948
20
346.373650
11
58.239391
21
346.290280
0
LINE
8
boundary
62
5
39
2
10
58.239391
20
346.290280
11
57.539551
21
346.225342
0
LINE
8
boundary
62
5
39
2
10
57.539551
20
346.225342
11
56.806731
21
346.179374
0
LINE
8
boundary
62
5
39
2
10
56.806731
20
346.179374
11
56.040262
21
346.152599
0
LINE
8
boundary
62
5
39
2
10
56.040262
20
346.152599
11
55.239495
21
346.145627
0
LINE
8
boundary
62
5
39
2
10
55.239495
20
346.145627
11
54.403573
21
346.158656
0
LINE
8
boundary
62
5
39
2
10
54.403573
20
346.158656
11
53.531834
21
346.192368
0
LINE
8
boundary
62
5
39
2
10
53.531834
20
346.192368
11
52.623708
21
346.247052
0
LINE
8
boundary
62
5
39
2
10
52.623708
20
346.247052
11
51.678497
21
346.323183
0
LINE
8
boundary
62
5
39
2
10
51.678497
20
346.323183
11
50.008550
21
346.923354
0
LINE
8
boundary
62
5
39
2
10
50.008550
20
346.923354
11
48.381817
21
347.492919
0
LINE
8
boundary
62
5
39
2
10
48.381817
20
347.492919
11
46.789776
21
348.032299
0
LINE
8
boundary
62
5
39
2
10
46.789776
20
348.032299
11
45.223798
21
348.541876
0
LINE
8
boundary
62
5
39
2
10
45.223798
20
348.541876
11
43.675427
21
349.022527
0
LINE
8
boundary
62
5
39
2
10
43.675427
20
349.022527
11
42.136001
21
349.474022
0
LINE
8
boundary
62
5
39
2
10
42.136001
20
349.474022
11
40.597034
21
349.897380
0
LINE
8
boundary
62
5
39
2
10
40.597034
20
349.897380
11
39.049873
21
350.293093
0
LINE
8
boundary
62
5
39
2
10
39.049873
20
350.293093
11
37.485849
21
350.661529
0
LINE
8
boundary
62
5
39
2
10
37.485849
20
350.661529
11
35.896484
21
351.003270
0
LINE
8
boundary
62
5
39
2
10
35.896484
20
351.003270
11
34.273159
21
351.318826
0
LINE
8
boundary
62
5
39
2
10
34.273159
20
351.318826
11
32.607278
21
351.608551
0
LINE
8
boundary
62
5
39
2
10
32.607278
20
351.608551
11
30.890194
21
351.873263
0
LINE
8
boundary
62
5
39
2
10
30.890194
20
351.873263
11
29.113339
21
352.113154
0
LINE
8
boundary
62
5
39
2
10
29.113339
20
352.113154
11
27.268032
21
352.329117
0
LINE
8
boundary
62
5
39
2
10
27.268032
20
352.329117
11
25.345697
21
352.521214
0
LINE
8
boundary
62
5
39
2
10
25.345697
20
352.521214
11
25.150578
21
350.661374
0
LINE
8
boundary
62
5
39
2
10
25.150578
20
350.661374
11
23.389028
21
333.623136
0
LINE
8
boundary
62
5
39
2
10
23.389028
20
333.623136
11
24.117297
21
330.725167
0
LINE
8
boundary
62
5
39
2
10
24.117297
20
330.725167
11
27.280858
21
318.171788
0
LINE
8
boundary
62
5
39
2
10
27.280858
20
318.171788
11
36.887795
21
318.171788
0
LINE
8
boundary
62
5
39
2
10
36.887795
20
318.171788
11
36.887795
21
315.425788
0
LINE
8
boundary
62
5
39
2
10
36.887795
20
315.425788
11
28.020975
21
315.425788
0
LINE
8
boundary
62
5
39
2
10
28.020975
20
315.425788
11
32.508027
21
297.429773
0
LINE
8
boundary
62
5
39
2
10
32.508027
20
297.429773
11
33.188560
21
295.309711
0
LINE
8
boundary
62
5
39
2
10
33.188560
20
295.309711
11
33.835435
21
293.183276
0
LINE
8
boundary
62
5
39
2
10
33.835435
20
293.183276
11
34.448941
21
291.050718
0
LINE
8
boundary
62
5
39
2
10
34.448941
20
291.050718
11
35.028759
21
288.912013
0
LINE
8
boundary
62
5
39
2
10
35.028759
20
288.912013
11
35.575186
21
286.767436
0
LINE
8
boundary
62
5
39
2
10
35.575186
20
286.767436
11
36.088214
21
284.617068
0
LINE
8
boundary
62
5
39
2
10
36.088214
20
284.617068
11
36.567846
21
282.460963
0
LINE
8
boundary
62
5
39
2
10
36.567846
20
282.460963
11
37.014072
21
280.299271
0
LINE
8
boundary
62
5
39
2
10
37.014072
20
280.299271
11
37.427076
21
278.132025
0
LINE
8
boundary
62
5
39
2
10
37.427076
20
278.132025
11
37.806874
21
275.959468
0
LINE
8
boundary
62
5
39
2
10
37.806874
20
275.959468
11
38.153499
21
273.781759
0
LINE
8
boundary
62
5
39
2
10
38.153499
20
273.781759
11
38.466971
21
271.598694
0
LINE
8
boundary
62
5
39
2
10
38.466971
20
271.598694
11
38.747473
21
269.410663
0
LINE
8
boundary
62
5
39
2
10
38.747473
20
269.410663
11
38.995021
21
267.217543
0
LINE
8
boundary
62
5
39
2
10
38.995021
20
267.217543
11
39.209703
21
265.019582
0
LINE
8
boundary
62
5
39
2
10
39.209703
20
265.019582
11
39.391453
21
262.816838
0
LINE
8
boundary
62
5
39
2
10
39.391453
20
262.816838
11
39.540653
21
260.609152
0
LINE
8
boundary
62
5
39
2
10
39.540653
20
260.609152
11
39.657182
21
258.396874
0
LINE
8
boundary
62
5
39
2
10
39.657182
20
258.396874
11
39.741138
21
256.180126
0
LINE
8
boundary
62
5
39
2
10
39.741138
20
256.180126
11
39.792831
21
253.958630
0
LINE
8
boundary
62
5
39
2
10
39.792831
20
253.958630
11
39.812182
21
251.732900
0
LINE
8
boundary
62
5
39
2
10
39.812182
20
251.732900
11
39.799433
21
249.502643
0
LINE
8
boundary
62
5
39
2
10
39.799433
20
249.502643
11
39.754559
21
247.268183
0
LINE
8
boundary
62
5
39
2
10
39.754559
20
247.268183
11
39.678027
21
245.029404
0
LINE
8
boundary
62
5
39
2
10
39.678027
20
245.029404
11
39.569706
21
242.786501
0
LINE
8
boundary
62
5
39
2
10
39.569706
20
242.786501
11
39.430008
21
240.539449
0
LINE
8
boundary
62
5
39
2
10
39.430008
20
240.539449
11
39.258889
21
238.288534
0
LINE
8
boundary
62
5
39
2
10
39.258889
20
238.288534
11
39.056809
21
236.033500
0
LINE
8
boundary
62
5
39
2
10
39.056809
20
236.033500
11
38.823867
21
233.774644
0
LINE
8
boundary
62
5
39
2
10
38.823867
20
233.774644
11
38.560253
21
231.512217
0
LINE
8
boundary
62
5
39
2
10
38.560253
20
231.512217
11
38.266264
21
229.245758
0
LINE
8
boundary
62
5
39
2
10
38.266264
20
229.245758
11
37.942332
21
226.975836
0
LINE
8
boundary
62
5
39
2
10
37.942332
20
226.975836
11
37.588536
21
224.702357
0
LINE
8
boundary
62
5
39
2
10
37.588536
20
224.702357
11
37.205383
21
222.425416
0
LINE
8
boundary
62
5
39
2
10
37.205383
20
222.425416
11
36.793006
21
220.145201
0
LINE
8
boundary
62
5
39
2
10
36.793006
20
220.145201
11
36.351867
21
217.861648
0
LINE
8
boundary
62
5
39
2
10
36.351867
20
217.861648
11
35.882393
21
215.575000
0
LINE
8
boundary
62
5
39
2
10
35.882393
20
215.575000
11
35.384935
21
213.285372
0
LINE
8
boundary
62
5
39
2
10
35.384935
20
213.285372
11
34.859927
21
210.992842
0
LINE
8
boundary
62
5
39
2
10
34.859927
20
210.992842
11
34.307771
21
208.697471
0
LINE
8
boundary
62
5
39
2
10
34.307771
20
208.697471
11
33.728976
21
206.399519
0
LINE
8
boundary
62
5
39
2
10
33.728976
20
206.399519
11
33.124042
21
204.099129
0
LINE
8
boundary
62
5
39
2
10
33.124042
20
204.099129
11
32.493513
21
201.796402
0
LINE
8
boundary
62
5
39
2
10
32.493513
20
201.796402
11
31.837839
21
199.491477
0
LINE
8
boundary
62
5
39
2
10
31.837839
20
199.491477
11
31.157661
21
197.184606
0
LINE
8
boundary
62
5
39
2
10
31.157661
20
197.184606
11
30.453561
21
194.875894
0
LINE
8
boundary
62
5
39
2
10
30.453561
20
194.875894
11
29.726115
21
192.565630
0
LINE
8
boundary
62
5
39
2
10
29.726115
20
192.565630
11
28.975963
21
190.254045
0
LINE
8
boundary
62
5
39
2
10
28.975963
20
190.254045
11
28.203860
21
187.941273
0
LINE
8
boundary
62
5
39
2
10
28.203860
20
187.941273
11
27.410413
21
185.627628
0
LINE
8
boundary
62
5
39
2
10
27.410413
20
185.627628
11
26.596318
21
183.313300
0
LINE
8
boundary
62
5
39
2
10
26.596318
20
183.313300
11
25.762387
21
180.998561
0
LINE
8
boundary
62
5
39
2
10
25.762387
20
180.998561
11
24.909298
21
178.683816
0
LINE
8
boundary
62
5
39
2
10
24.909298
20
178.683816
11
24.037799
21
176.369233
0
LINE
8
boundary
62
5
39
2
10
24.037799
20
176.369233
11
23.148766
21
174.055206
0
LINE
8
boundary
62
5
39
2
10
23.148766
20
174.055206
11
22.243089
21
171.742018
0
LINE
8
boundary
62
5
39
2
10
22.243089
20
171.742018
11
21.321539
21
169.430130
0
LINE
8
boundary
62
5
39
2
10
21.321539
20
169.430130
11
20.384916
21
167.119714
0
LINE
8
boundary
62
5
39
2
10
20.384916
20
167.119714
11
20.032728
21
166.275388
0
LINE
8
boundary
62
5
39
2
10
20.032728
20
166.275388
11
18.470220
21
162.505233
0
LINE
8
boundary
62
5
39
2
10
18.470220
20
162.505233
11
18.064796
21
161.559671
0
LINE
8
boundary
62
5
39
2
10
18.064796
20
161.559671
11
16.506220
21
157.902065
0
LINE
8
boundary
62
5
39
2
10
16.506220
20
157.902065
11
16.041895
21
156.844563
0
LINE
8
boundary
62
5
39
2
10
16.041895
20
156.844563
11
14.500570
21
153.313738
0
LINE
8
boundary
62
5
39
2
10
14.500570
20
153.313738
11
14.215246
21
152.124645
0
LINE
8
boundary
62
5
39
2
10
14.215246
20
152.124645
11
13.371111
21
148.588201
0
LINE
8
boundary
62
5
39
2
10
13.371111
20
148.588201
11
13.063948
21
147.265471
0
LINE
8
boundary
62
5
39
2
10
13.063948
20
147.265471
11
12.237398
21
143.688825
0
LINE
8
boundary
62
5
39
2
10
12.237398
20
143.688825
11
12.078377
21
142.977192
0
LINE
8
boundary
62
5
39
2
10
12.078377
20
142.977192
11
11.678113
21
141.177525
0
LINE
8
boundary
62
5
39
2
10
11.678113
20
141.177525
11
11.516671
21
140.429994
0
LINE
8
boundary
62
5
39
2
10
11.516671
20
140.429994
11
11.129016
21
138.626991
0
LINE
8
boundary
62
5
39
2
10
11.129016
20
138.626991
11
10.966437
21
137.842975
0
LINE
8
boundary
62
5
39
2
10
10.966437
20
137.842975
11
10.593925
21
136.038777
0
LINE
8
boundary
62
5
39
2
10
10.593925
20
136.038777
11
10.431684
21
135.217978
0
LINE
8
boundary
62
5
39
2
10
10.431684
20
135.217978
11
10.076617
21
133.414522
0
LINE
8
boundary
62
5
39
2
10
10.076617
20
133.414522
11
9.916305
21
132.556801
0
LINE
8
boundary
62
5
39
2
10
9.916305
20
132.556801
11
9.580995
21
130.755817
0
LINE
8
boundary
62
5
39
2
10
9.580995
20
130.755817
11
9.424397
21
129.861415
0
LINE
8
boundary
62
5
39
2
10
9.424397
20
129.861415
11
9.110884
21
128.064438
0
LINE
8
boundary
62
5
39
2
10
9.110884
20
128.064438
11
8.959919
21
127.133923
0
LINE
8
boundary
62
5
39
2
10
8.959919
20
127.133923
11
8.670205
21
125.342164
0
LINE
8
boundary
62
5
39
2
10
8.670205
20
125.342164
11
8.526997
21
124.376422
0
LINE
8
boundary
62
5
39
2
10
8.526997
20
124.376422
11
8.262984
21
122.590804
0
LINE
8
boundary
62
5
39
2
10
8.262984
20
122.590804
11
8.129646
21
121.591173
0
LINE
8
boundary
62
5
39
2
10
8.129646
20
121.591173
11
7.892992
21
119.812315
0
LINE
8
boundary
62
5
39
2
10
7.892992
20
119.812315
11
7.771820
21
118.780593
0
LINE
8
boundary
62
5
39
2
10
7.771820
20
118.780593
11
7.564189
21
117.008728
0
LINE
8
boundary
62
5
39
2
10
7.564189
20
117.008728
11
7.457602
21
115.947095
0
LINE
8
boundary
62
5
39
2
10
7.457602
20
115.947095
11
7.280660
21
114.182148
0
LINE
8
boundary
62
5
39
2
10
7.280660
20
114.182148
11
7.190912
21
113.093377
0
LINE
8
boundary
62
5
39
2
10
7.190912
20
113.093377
11
7.046095
21
111.334838
0
LINE
8
boundary
62
5
39
2
10
7.046095
20
111.334838
11
6.975612
21
110.222071
0
LINE
8
boundary
62
5
39
2
10
6.975612
20
110.222071
11
6.864503
21
108.468996
0
LINE
8
boundary
62
5
39
2
10
6.864503
20
108.468996
11
6.815535
21
107.335861
0
LINE
8
boundary
62
5
39
2
10
6.815535
20
107.335861
11
6.739720
21
105.586998
0
LINE
8
boundary
62
5
39
2
10
6.739720
20
105.586998
11
6.714401
21
104.437670
0
LINE
8
boundary
62
5
39
2
10
6.714401
20
104.437670
11
6.675567
21
102.691408
0
LINE
8
boundary
62
5
39
2
10
6.675567
20
102.691408
11
6.672451
21
102.112307
0
LINE
8
boundary
62
5
39
2
10
6.672451
20
102.112307
11
6.667500
21
101.239324
0
LINE
8
boundary
62
5
39
2
10
6.667500
20
101.239324
11
6.670995
21
100.657746
0
LINE
8
boundary
62
5
39
2
10
6.670995
20
100.657746
11
6.675920
21
99.784804
0
LINE
8
boundary
62
5
39
2
10
6.675920
20
99.784804
11
6.686328
21
99.201404
0
LINE
8
boundary
62
5
39
2
10
6.686328
20
99.201404
11
6.701568
21
98.328195
0
LINE
8
boundary
62
5
39
2
10
6.701568
20
98.328195
11
6.718976
21
97.743601
0
LINE
8
boundary
62
5
39
2
10
6.718976
20
97.743601
11
6.744629
21
96.869891
0
LINE
8
boundary
62
5
39
2
10
6.744629
20
96.869891
11
6.769264
21
96.284779
0
LINE
8
boundary
62
5
39
2
10
6.769264
20
96.284779
11
6.805659
21
95.410273
0
LINE
8
boundary
62
5
39
2
10
6.805659
20
95.410273
11
6.837686
21
94.825270
0
LINE
8
boundary
62
5
39
2
10
6.837686
20
94.825270
11
6.885165
21
93.949601
0
LINE
8
boundary
62
5
39
2
10
6.885165
20
93.949601
11
6.924774
21
93.365394
0
LINE
8
boundary
62
5
39
2
10
6.924774
20
93.365394
11
6.983736
21
92.488289
0
LINE
8
boundary
62
5
39
2
10
6.983736
20
92.488289
11
7.030955
21
91.905594
0
LINE
8
boundary
62
5
39
2
10
7.030955
20
91.905594
11
7.101585
21
91.026728
0
LINE
8
boundary
62
5
39
2
10
7.101585
20
91.026728
11
7.156490
21
90.446246
0
LINE
8
boundary
62
5
39
2
10
7.156490
20
90.446246
11
7.239204
21
89.565403
0
LINE
8
boundary
62
5
39
2
10
7.239204
20
89.565403
11
7.301843
21
88.987767
0
LINE
8
boundary
62
5
39
2
10
7.301843
20
88.987767
11
7.397013
21
88.104471
0
LINE
8
boundary
62
5
39
2
10
7.397013
20
88.104471
11
7.467504
21
87.530430
0
LINE
8
boundary
62
5
39
2
10
7.467504
20
87.530430
11
7.575587
21
86.644565
0
LINE
8
boundary
62
5
39
2
10
7.575587
20
86.644565
11
7.653903
21
86.074856
0
LINE
8
boundary
62
5
39
2
10
7.653903
20
86.074856
11
7.775332
21
85.186093
0
LINE
8
boundary
62
5
39
2
10
7.775332
20
85.186093
11
7.861405
21
84.621335
0
LINE
8
boundary
62
5
39
2
10
7.861405
20
84.621335
11
7.996592
21
83.729353
0
LINE
8
boundary
62
5
39
2
10
7.996592
20
83.729353
11
8.090440
21
83.170227
0
LINE
8
boundary
62
5
39
2
10
8.090440
20
83.170227
11
8.239888
21
82.274831
0
LINE
8
boundary
62
5
39
2
10
8.239888
20
82.274831
11
8.341378
21
81.722042
0
LINE
8
boundary
62
5
39
2
10
8.341378
20
81.722042
11
8.505549
21
80.822964
0
LINE
8
boundary
62
5
39
2
10
8.505549
20
80.822964
11
8.614540
21
80.277117
0
LINE
8
boundary
62
5
39
2
10
8.614540
20
80.277117
11
8.793919
21
79.374202
0
LINE
8
boundary
62
5
39
2
10
8.793919
20
79.374202
11
8.910426
21
78.835946
0
LINE
8
boundary
62
5
39
2
10
8.910426
20
78.835946
11
9.105780
21
77.929050
0
LINE
8
boundary
62
5
39
2
10
9.105780
20
77.929050
11
9.229493
21
77.398963
0
LINE
8
boundary
62
5
39
2
10
9.229493
20
77.398963
11
9.441103
21
76.487893
0
LINE
8
boundary
62
5
39
2
10
9.441103
20
76.487893
11
9.571884
21
75.966574
0
LINE
8
boundary
62
5
39
2
10
9.571884
20
75.966574
11
9.800417
21
75.051280
0
LINE
8
boundary
62
5
39
2
10
9.800417
20
75.051280
11
9.938074
21
74.539266
0
LINE
8
boundary
62
5
39
2
10
9.938074
20
74.539266
11
10.184211
21
73.619691
0
LINE
8
boundary
62
5
39
2
10
10.184211
20
73.619691
11
10.328474
21
73.117450
0
LINE
8
boundary
62
5
39
2
10
10.328474
20
73.117450
11
10.592711
21
72.193524
0
LINE
8
boundary
62
5
39
2
10
10.592711
20
72.193524
11
10.743411
21
71.701599
0
LINE
8
boundary
62
5
39
2
10
10.743411
20
71.701599
11
11.026567
21
70.773412
0
LINE
8
boundary
62
5
39
2
10
11.026567
20
70.773412
11
11.485915
21
69.359800
0
LINE
8
boundary
62
5
39
2
10
11.485915
20
69.359800
11
11.971040
21
67.953210
0
LINE
8
boundary
62
5
39
2
10
11.971040
20
67.953210
11
12.482528
21
66.554221
0
LINE
8
boundary
62
5
39
2
10
12.482528
20
66.554221
11
13.020615
21
65.163301
0
LINE
8
boundary
62
5
39
2
10
13.020615
20
65.163301
11
13.375283
21
63.876249
0
LINE
8
boundary
62
5
39
2
10
13.375283
20
63.876249
11
14.162577
21
61.005475
0
LINE
8
boundary
62
5
39
2
10
14.162577
20
61.005475
11
14.520607
21
59.706656
0
LINE
8
boundary
62
5
39
2
10
14.520607
20
59.706656
11
15.365837
21
56.625157
0
LINE
8
boundary
62
5
39
2
10
15.365837
20
56.625157
11
15.550495
21
55.974346
0
LINE
8
boundary
62
5
39
2
10
15.550495
20
55.974346
11
16.004040
21
54.368176
0
LINE
8
boundary
62
5
39
2
10
16.004040
20
54.368176
11
16.193336
21
53.722531
0
LINE
8
boundary
62
5
39
2
10
16.193336
20
53.722531
11
16.673799
21
52.075852
0
LINE
8
boundary
62
5
39
2
10
16.673799
20
52.075852
11
16.868597
21
51.438109
0
LINE
8
boundary
62
5
39
2
10
16.868597
20
51.438109
11
17.380209
21
49.755292
0
LINE
8
boundary
62
5
39
2
10
17.380209
20
49.755292
11
17.581344
21
49.128129
0
LINE
8
boundary
62
5
39
2
10
17.581344
20
49.128129
11
18.128622
21
47.413748
0
LINE
8
boundary
62
5
39
2
10
18.128622
20
47.413748
11
18.336687
21
46.799800
0
LINE
8
boundary
62
5
39
2
10
18.336687
20
46.799800
11
18.924115
21
45.058738
0
LINE
8
boundary
62
5
39
2
10
18.924115
20
45.058738
11
19.139566
21
44.460519
0
LINE
8
boundary
62
5
39
2
10
19.139566
20
44.460519
11
19.771736
21
42.697914
0
LINE
8
boundary
62
5
39
2
10
19.771736
20
42.697914
11
19.994903
21
42.117816
0
LINE
8
boundary
62
5
39
2
10
19.994903
20
42.117816
11
20.676397
21
40.339186
0
LINE
8
boundary
62
5
39
2
10
20.676397
20
40.339186
11
21.151690
21
39.163125
0
LINE
8
boundary
62
5
39
2
10
21.151690
20
39.163125
11
21.643068
21
37.990600
0
LINE
8
boundary
62
5
39
2
10
21.643068
20
37.990600
11
22.151200
21
36.822716
0
LINE
8
boundary
62
5
39
2
10
22.151200
20
36.822716
11
22.676433
21
35.660450
0
LINE
8
boundary
62
5
39
2
10
22.676433
20
35.660450
11
23.219614
21
34.504919
0
LINE
8
boundary
62
5
39
2
10
23.219614
20
34.504919
11
23.781252
21
33.357229
0
LINE
8
boundary
62
5
39
2
10
23.781252
20
33.357229
11
24.361917
21
32.218357
0
LINE
8
boundary
62
5
39
2
10
24.361917
20
32.218357
11
24.962112
21
31.089548
0
LINE
8
boundary
62
5
39
2
10
24.962112
20
31.089548
11
25.582407
21
29.971765
0
LINE
8
boundary
62
5
39
2
10
25.582407
20
29.971765
11
26.223422
21
28.866165
0
LINE
8
boundary
62
5
39
2
10
26.223422
20
28.866165
11
26.885688
21
27.773965
0
LINE
8
annotation
62
1
39
211
10
43.547894
20
314.398788
11
43.547894
21
319.198788
0
LINE
8
annotation
62
1
39
211
10
43.547894
20
319.198788
11
42.480792
21
318.131386
0
LINE
8
annotation
62
1
39
211
10
49.661047
20
397.683031
11
47.593936
21
397.683031
0
LINE
8
annotation
62
1
39
211
10
47.593936
20
397.683031
11
49.504014
21
400.758012
0
LINE
8
annotation
62
1
39
211
10
49.504014
20
400.758012
11
49.504014
21
400.758012
0
LINE
8
annotation
62
1
39
211
10
49.504014
20
400.758012
11
49.506298
21
400.760838
0
LINE
8
annotation
62
1
39
211
10
49.506298
20
400.760838
11
49.508487
21
400.763687
0
LINE
8
annotation
62
1
39
211
10
49.508487
20
400.763687
11
49.510598
21
400.766585
0
LINE
8
annotation
62
1
39
211
10
49.510598
20
400.766585
11
49.512643
21
400.769555
0
LINE
8
annotation
62
1
39
211
10
49.512643
20
400.769555
11
49.514639
21
400.772620
0
LINE
8
annotation
62
1
39
211
10
49.514639
20
400.772620
11
49.516598
21
400.775806
0
LINE
8
annotation
62
1
39
211
10
49.516598
20
400.775806
11
49.518535
21
400.779136
0
LINE
8
annotation
62
1
39
211
10
49.518535
20
400.779136
11
49.520465
21
400.782635
0
LINE
8
annotation
62
1
39
211
10
49.520465
20
400.782635
11
49.522403
21
400.786325
0
LINE
8
annotation
62
1
39
211
10
49.522403
20
400.786325
11
49.522403
21
400.786325
0
LINE
8
annotation
62
1
39
211
10
49.522403
20
400.786325
11
49.601270
21
400.955658
0
LINE
8
annotation
62
1
39
211
10
49.601270
20
400.955658
11
49.647342
21
401.131187
0
LINE
8
annotation
62
1
39
211
10
49.647342
20
401.131187
11
49.661750
21
401.308946
0
LINE
8
annotation
62
1
39
211
10
49.661750
20
401.308946
11
49.645621
21
401.484967
0
LINE
8
annotation
62
1
39
211
10
49.645621
20
401.484967
11
49.600086
21
401.655286
0
LINE
8
annotation
62
1
39
211
10
49.600086
20
401.655286
11
49.526273
21
401.815935
0
LINE
8
annotation
62
1
39
211
10
49.526273
20
401.815935
11
49.425311
21
401.962948
0
LINE
8
annotation
62
1
39
211
10
49.425311
20
401.962948
11
49.298330
21
402.092360
0
LINE
8
annotation
62
1
39
211
10
49.298330
20
402.092360
11
49.146458
21
402.200203
0
LINE
8
annotation
62
1
39
211
10
49.146458
20
402.200203
11
49.146458
21
402.200203
0
LINE
8
annotation
62
1
39
211
10
49.146458
20
402.200203
11
48.976654
21
402.277949
0
LINE
8
annotation
62
1
39
211
10
48.976654
20
402.277949
11
48.800856
21
402.323312
0
LINE
8
annotation
62
1
39
211
10
48.800856
20
402.323312
11
48.622994
21
402.337313
0
LINE
8
annotation
62
1
39
211
10
48.622994
20
402.337313
11
48.446999
21
402.320972
0
LINE
8
annotation
62
1
39
211
10
48.446999
20
402.320972
11
48.276801
21
402.275310
0
LINE
8
annotation
62
1
39
211
10
48.276801
20
402.275310
11
48.116330
21
402.201349
0
LINE
8
annotation
62
1
39
211
10
48.116330
20
402.201349
11
47.969515
21
402.100110
0
LINE
8
annotation
62
1
39
211
10
47.969515
20
402.100110
11
47.840289
21
401.972614
0
LINE
8
annotation
62
1
39
211
10
47.840289
20
401.972614
11
47.732580
21
401.819881
0
LINE
8
annotation
62
1
39
211
10
47.732580
20
401.819881
11
47.596854
21
401.559521
0
LINE
8
annotation
62
1
39
211
10
79.540724
20
354.008247
11
77.117646
21
350.503487
0
LINE
8
annotation
62
1
39
211
10
77.117646
20
350.503487
11
74.694113
21
354.008247
0
LINE
8
annotation
62
1
39
211
10
77.117646
20
350.785526
11
77.117646
21
346.742203
0
LINE
8
annotation
62
1
39
211
10
86.238930
20
350.375225
11
82.266231
21
350.375225
0
LINE
8
annotation
62
1
39
211
10
92.190212
20
346.742372
11
88.963391
21
346.742372
0
LINE
8
annotation
62
1
39
211
10
88.963391
20
346.742372
11
91.945079
21
351.542508
0
LINE
8
annotation
62
1
39
211
10
91.945079
20
351.542508
11
91.945079
21
351.542508
0
LINE
8
annotation
62
1
39
211
10
91.945079
20
351.542508
11
91.948644
21
351.546919
0
LINE
8
annotation
62
1
39
211
10
91.948644
20
351.546919
11
91.952062
21
351.551367
0
LINE
8
annotation
62
1
39
211
10
91.952062
20
351.551367
11
91.955356
21
351.555890
0
LINE
8
annotation
62
1
39
211
10
91.955356
20
351.555890
11
91.958550
21
351.560526
0
LINE
8
annotation
62
1
39
211
10
91.958550
20
351.560526
11
91.961664
21
351.565312
0
LINE
8
annotation
62
1
39
211
10
91.961664
20
351.565312
11
91.964722
21
351.570285
0
LINE
8
annotation
62
1
39
211
10
91.964722
20
351.570285
11
91.967747
21
351.575483
0
LINE
8
annotation
62
1
39
211
10
91.967747
20
351.575483
11
91.970760
21
351.580944
0
LINE
8
annotation
62
1
39
211
10
91.970760
20
351.580944
11
91.973784
21
351.586705
0
LINE
8
annotation
62
1
39
211
10
91.973784
20
351.586705
11
91.973784
21
351.586705
0
LINE
8
annotation
62
1
39
211
10
91.973784
20
351.586705
11
92.096898
21
351.851039
0
LINE
8
annotation
62
1
39
211
10
92.096898
20
351.851039
11
92.168818
21
352.125045
0
LINE
8
annotation
62
1
39
211
10
92.168818
20
352.125045
11
92.191309
21
352.402531
0
LINE
8
annotation
62
1
39
211
10
92.191309
20
352.402531
11
92.166132
21
352.677306
0
LINE
8
annotation
62
1
39
211
10
92.166132
20
352.677306
11
92.095050
21
352.943178
0
LINE
8
annotation
62
1
39
211
10
92.095050
20
352.943178
11
91.979826
21
353.193956
0
LINE
8
annotation
62
1
39
211
10
91.979826
20
353.193956
11
91.822222
21
353.423448
0
LINE
8
annotation
62
1
39
211
10
91.822222
20
353.423448
11
91.624000
21
353.625464
0
LINE
8
annotation
62
1
39
211
10
91.624000
20
353.625464
11
91.386924
21
353.793811
0
LINE
8
annotation
62
1
39
211
10
91.386924
20
353.793811
11
91.386924
21
353.793811
0
LINE
8
annotation
62
1
39
211
10
91.386924
20
353.793811
11
91.121854
21
353.915175
0
LINE
8
annotation
62
1
39
211
10
91.121854
20
353.915175
11
90.847428
21
353.985987
0
LINE
8
annotation
62
1
39
211
10
90.847428
20
353.985987
11
90.569781
21
354.007842
0
LINE
8
annotation
62
1
39
211
10
90.569781
20
354.007842
11
90.295048
21
353.982333
0
LINE
8
annotation
62
1
39
211
10
90.295048
20
353.982333
11
90.029363
21
353.911054
0
LINE
8
annotation
62
1
39
211
10
90.029363
20
353.911054
11
89.778863
21
353.795599
0
LINE
8
annotation
62
1
39
211
10
89.778863
20
353.795599
11
89.549682
21
353.637562
0
LINE
8
annotation
62
1
39
211
10
89.549682
20
353.637562
11
89.347955
21
353.438536
0
LINE
8
annotation
62
1
39
211
10
89.347955
20
353.438536
11
89.179818
21
353.200116
0
LINE
8
annotation
62
1
39
211
10
89.179818
20
353.200116
11
88.967947
21
352.793687
0
LINE
8
frame
62
5
39
2
10
0.000000
20
0.000000
11
215.900000
21
0.000000
0
LINE
8
frame
62
5
39
2
10
215.900000
20
0.000000
11
215.900000
21
279.400000
0
LINE
8
frame
62
5
39
2
10
215.900000
20
279.400000
11
0.000000
21
279.400000
0
LINE
8
frame
62
5
39
2
10
0.000000
20
279.400000
11
0.000000
21
0.000000
0
ENDSEC
0
EOF
