0
SECTION
2
HEADER
9
$ACADVER
1
AC1009
0
ENDSEC
0
SECTION
2
TABLES
0
TABLE
2
VPORT
70
1
0
VPORT
2
ACTIVE
70
0
10
0.0
20
0.0
11
0.0
21
0.0
12
0.0
22
0.0
13
0.0
23
0.0
14
0.0
24
0.0
15
0.0
25
0.0
16
0.0
26
0.0
36
0.0
17
0.0
27
0.0
37
0.0
40
0.0
41
0.0
42
0.0
43
0.0
44
0.0
50
0.0
51
0.0
71
0
72
1000
73
1
74
3
75
0
76
0
77
0
78
0
0
ENDTAB
0
ENDSEC
0
SECTION
2
ENTITIES
0
LINE
8
boundary
62
5
39
2
10
32.440092
20
28.830497
11
32.845628
21
28.282934
0
LINE
8
boundary
62
5
39
2
10
32.845628
20
28.282934
11
33.449305
21
27.438486
0
LINE
8
boundary
62
5
39
2
10
33.449305
20
27.438486
11
33.859676
21
26.910047
0
LINE
8
boundary
62
5
39
2
10
33.859676
20
26.910047
11
34.494529
21
26.063045
0
LINE
8
boundary
62
5
39
2
10
34.494529
20
26.063045
11
34.909814
21
25.553347
0
LINE
8
boundary
62
5
39
2
10
34.909814
20
25.553347
11
35.576620
21
24.705441
0
LINE
8
boundary
62
5
39
2
10
35.576620
20
24.705441
11
35.996876
21
24.214174
0
LINE
8
boundary
62
5
39
2
10
35.996876
20
24.214174
11
36.696206
21
23.367112
0
LINE
8
boundary
62
5
39
2
10
36.696206
20
23.367112
11
37.121579
21
22.893885
0
LINE
8
boundary
62
5
39
2
10
37.121579
20
22.893885
11
37.854129
21
22.049435
0
LINE
8
boundary
62
5
39
2
10
37.854129
20
22.049435
11
38.284771
21
21.593934
0
LINE
8
boundary
62
5
39
2
10
38.284771
20
21.593934
11
39.051182
21
20.753897
0
LINE
8
boundary
62
5
39
2
10
39.051182
20
20.753897
11
39.487260
21
20.315791
0
LINE
8
boundary
62
5
39
2
10
39.487260
20
20.315791
11
40.287990
21
19.482090
0
LINE
8
boundary
62
5
39
2
10
40.287990
20
19.482090
11
40.729774
21
19.061053
0
LINE
8
boundary
62
5
39
2
10
40.729774
20
19.061053
11
41.565513
21
18.235587
0
LINE
8
boundary
62
5
39
2
10
41.565513
20
18.235587
11
42.013245
21
17.831306
0
LINE
8
boundary
62
5
39
2
10
42.013245
20
17.831306
11
42.884361
21
17.015952
0
LINE
8
boundary
62
5
39
2
10
42.884361
20
17.015952
11
43.338336
21
16.628108
0
LINE
8
boundary
62
5
39
2
10
43.338336
20
16.628108
11
44.245280
21
15.824867
0
LINE
8
boundary
62
5
39
2
10
44.245280
20
15.824867
11
44.705861
21
15.453208
0
LINE
8
boundary
62
5
39
2
10
44.705861
20
15.453208
11
45.649062
21
14.664106
0
LINE
8
boundary
62
5
39
2
10
45.649062
20
14.664106
11
46.116585
21
14.308386
0
LINE
8
boundary
62
5
39
2
10
46.116585
20
14.308386
11
47.096298
21
13.535420
0
LINE
8
boundary
62
5
39
2
10
47.096298
20
13.535420
11
47.571188
21
13.195436
0
LINE
8
boundary
62
5
39
2
10
47.571188
20
13.195436
11
48.587696
21
12.440690
0
LINE
8
boundary
62
5
39
2
10
48.587696
20
12.440690
11
49.070419
21
12.116280
0
LINE
8
boundary
62
5
39
2
10
49.070419
20
12.116280
11
50.124026
21
11.381798
0
LINE
8
boundary
62
5
39
2
10
50.124026
20
11.381798
11
50.615101
21
11.072784
0
LINE
8
boundary
62
5
39
2
10
50.615101
20
11.072784
11
51.705934
21
10.360620
0
LINE
8
boundary
62
5
39
2
10
51.705934
20
10.360620
11
52.205840
21
10.066979
0
LINE
8
boundary
62
5
39
2
10
52.205840
20
10.066979
11
53.333969
21
9.379323
0
LINE
8
boundary
62
5
39
2
10
53.333969
20
9.379323
11
53.843367
21
9.100956
0
LINE
8
boundary
62
5
39
2
10
53.843367
20
9.100956
11
55.008938
21
8.439812
0
LINE
8
boundary
62
5
39
2
10
55.008938
20
8.439812
11
55.528413
21
8.176758
0
LINE
8
boundary
62
5
39
2
10
55.528413
20
8.176758
11
56.731377
21
7.544304
0
LINE
8
boundary
62
5
39
2
10
56.731377
20
7.544304
11
57.169655
21
7.264840
0
LINE
8
boundary
62
5
39
2
10
57.169655
20
7.264840
11
57.694928
21
7.039151
0
LINE
8
boundary
62
5
39
2
10
57.694928
20
7.039151
11
58.208314
21
6.883042
0
LINE
8
boundary
62
5
39
2
10
58.208314
20
6.883042
11
58.771735
21
6.768440
0
LINE
8
boundary
62
5
39
2
10
58.771735
20
6.768440
11
59.378448
21
6.696332
0
LINE
8
boundary
62
5
39
2
10
59.378448
20
6.696332
11
60.021729
21
6.667831
0
LINE
8
boundary
62
5
39
2
10
60.021729
20
6.667831
11
60.694763
21
6.683902
0
LINE
8
boundary
62
5
39
2
10
60.694763
20
6.683902
11
61.390747
21
6.745374
0
LINE
8
boundary
62
5
39
2
10
61.390747
20
6.745374
11
62.102864
21
6.853103
0
LINE
8
boundary
62
5
39
2
10
62.102864
20
6.853103
11
62.601827
21
6.951903
0
LINE
8
boundary
62
5
39
2
10
62.601827
20
6.951903
11
63.324821
21
7.139275
0
LINE
8
boundary
62
5
39
2
10
63.324821
20
7.139275
11
64.045576
21
7.374319
0
LINE
8
boundary
62
5
39
2
10
64.045576
20
7.374319
11
64.757135
21
7.657465
0
LINE
8
boundary
62
5
39
2
10
64.757135
20
7.657465
11
65.452740
21
7.989095
0
LINE
8
boundary
62
5
39
2
10
65.452740
20
7.989095
11
66.125815
21
8.369483
0
LINE
8
boundary
62
5
39
2
10
66.125815
20
8.369483
11
66.769535
21
8.798760
0
LINE
8
boundary
62
5
39
2
10
66.769535
20
8.798760
11
67.175296
21
9.110079
0
LINE
8
boundary
62
5
39
2
10
67.175296
20
9.110079
11
67.665527
21
9.534847
0
LINE
8
boundary
62
5
39
2
10
67.665527
20
9.534847
11
68.029240
21
9.896356
0
LINE
8
boundary
62
5
39
2
10
68.029240
20
9.896356
11
68.457966
21
10.381470
0
LINE
8
boundary
62
5
39
2
10
68.457966
20
10.381470
11
68.769234
21
10.793820
0
LINE
8
boundary
62
5
39
2
10
68.769234
20
10.793820
11
69.124501
21
11.338973
0
LINE
8
boundary
62
5
39
2
10
69.124501
20
11.338973
11
69.373004
21
11.802620
0
LINE
8
boundary
62
5
39
2
10
69.373004
20
11.802620
11
69.642951
21
12.407141
0
LINE
8
boundary
62
5
39
2
10
69.642951
20
12.407141
11
69.817911
21
12.922805
0
LINE
8
boundary
62
5
39
2
10
69.817911
20
12.922805
11
69.990999
21
13.586191
0
LINE
8
boundary
62
5
39
2
10
69.990999
20
13.586191
11
70.081777
21
14.154573
0
LINE
8
boundary
62
5
39
2
10
70.081777
20
14.154573
11
70.146615
21
14.876475
0
LINE
8
boundary
62
5
39
2
10
70.146615
20
14.876475
11
70.142422
21
15.498585
0
LINE
8
boundary
62
5
39
2
10
70.142422
20
15.498585
11
70.087967
21
16.278773
0
LINE
8
boundary
62
5
39
2
10
70.087967
20
16.278773
11
69.977489
21
16.955885
0
LINE
8
boundary
62
5
39
2
10
69.977489
20
16.955885
11
69.868638
21
17.467114
0
LINE
8
boundary
62
5
39
2
10
69.868638
20
17.467114
11
69.731458
21
17.991210
0
LINE
8
boundary
62
5
39
2
10
69.731458
20
17.991210
11
69.565139
21
18.528288
0
LINE
8
boundary
62
5
39
2
10
69.565139
20
18.528288
11
69.368827
21
19.078400
0
LINE
8
boundary
62
5
39
2
10
69.368827
20
19.078400
11
69.141709
21
19.641739
0
LINE
8
boundary
62
5
39
2
10
69.141709
20
19.641739
11
68.883034
21
20.218398
0
LINE
8
boundary
62
5
39
2
10
68.883034
20
20.218398
11
68.591990
21
20.808560
0
LINE
8
boundary
62
5
39
2
10
68.591990
20
20.808560
11
68.267684
21
21.412350
0
LINE
8
boundary
62
5
39
2
10
68.267684
20
21.412350
11
67.909290
21
22.029998
0
LINE
8
boundary
62
5
39
2
10
67.909290
20
22.029998
11
67.337438
21
22.555202
0
LINE
8
boundary
62
5
39
2
10
67.337438
20
22.555202
11
66.828501
21
22.776319
0
LINE
8
boundary
62
5
39
2
10
66.828501
20
22.776319
11
65.966304
21
23.180490
0
LINE
8
boundary
62
5
39
2
10
65.966304
20
23.180490
11
65.099916
21
23.621929
0
LINE
8
boundary
62
5
39
2
10
65.099916
20
23.621929
11
64.230092
21
24.100342
0
LINE
8
boundary
62
5
39
2
10
64.230092
20
24.100342
11
63.357374
21
24.615410
0
LINE
8
boundary
62
5
39
2
10
63.357374
20
24.615410
11
62.482159
21
25.166736
0
LINE
8
boundary
62
5
39
2
10
62.482159
20
25.166736
11
61.605125
21
25.753950
0
LINE
8
boundary
62
5
39
2
10
61.605125
20
25.753950
11
60.726752
21
26.376700
0
LINE
8
boundary
62
5
39
2
10
60.726752
20
26.376700
11
59.847397
21
27.034592
0
LINE
8
boundary
62
5
39
2
10
59.847397
20
27.034592
11
58.967936
21
27.727189
0
LINE
8
boundary
62
5
39
2
10
58.967936
20
27.727189
11
58.088593
21
28.453993
0
LINE
8
boundary
62
5
39
2
10
58.088593
20
28.453993
11
57.210151
21
29.214676
0
LINE
8
boundary
62
5
39
2
10
57.210151
20
29.214676
11
56.823145
21
29.556435
0
LINE
8
boundary
62
5
39
2
10
56.823145
20
29.556435
11
56.332873
21
30.008730
0
LINE
8
boundary
62
5
39
2
10
56.332873
20
30.008730
11
55.942817
21
30.368273
0
LINE
8
boundary
62
5
39
2
10
55.942817
20
30.368273
11
55.457406
21
30.835686
0
LINE
8
boundary
62
5
39
2
10
55.457406
20
30.835686
11
55.064330
21
31.213329
0
LINE
8
boundary
62
5
39
2
10
55.064330
20
31.213329
11
54.584315
21
31.695100
0
LINE
8
boundary
62
5
39
2
10
54.584315
20
31.695100
11
54.188259
21
32.091101
0
LINE
8
boundary
62
5
39
2
10
54.188259
20
32.091101
11
53.714088
21
32.586346
0
LINE
8
boundary
62
5
39
2
10
53.714088
20
32.586346
11
53.315108
21
33.001109
0
LINE
8
boundary
62
5
39
2
10
53.315108
20
33.001109
11
52.847246
21
33.509100
0
LINE
8
boundary
62
5
39
2
10
52.847246
20
33.509100
11
52.445396
21
33.942905
0
LINE
8
boundary
62
5
39
2
10
52.445396
20
33.942905
11
51.984382
21
34.462715
0
LINE
8
boundary
62
5
39
2
10
51.984382
20
34.462715
11
51.579672
21
34.915947
0
LINE
8
boundary
62
5
39
2
10
51.579672
20
34.915947
11
51.125849
21
35.446702
0
LINE
8
boundary
62
5
39
2
10
51.125849
20
35.446702
11
50.718388
21
35.919718
0
LINE
8
boundary
62
5
39
2
10
50.718388
20
35.919718
11
50.272274
21
36.460542
0
LINE
8
boundary
62
5
39
2
10
50.272274
20
36.460542
11
49.862148
21
36.953729
0
LINE
8
boundary
62
5
39
2
10
49.862148
20
36.953729
11
49.424166
21
37.503670
0
LINE
8
boundary
62
5
39
2
10
49.424166
20
37.503670
11
49.011465
21
38.017429
0
LINE
8
boundary
62
5
39
2
10
49.011465
20
38.017429
11
48.582028
21
38.575535
0
LINE
8
boundary
62
5
39
2
10
48.582028
20
38.575535
11
48.166802
21
39.110267
0
LINE
8
boundary
62
5
39
2
10
48.166802
20
39.110267
11
47.746267
21
39.675586
0
LINE
8
boundary
62
5
39
2
10
47.746267
20
39.675586
11
47.328694
21
40.231701
0
LINE
8
boundary
62
5
39
2
10
47.328694
20
40.231701
11
46.917520
21
40.803245
0
LINE
8
boundary
62
5
39
2
10
46.917520
20
40.803245
11
46.497699
21
41.381187
0
LINE
8
boundary
62
5
39
2
10
46.497699
20
41.381187
11
46.096250
21
41.957983
0
LINE
8
boundary
62
5
39
2
10
46.096250
20
41.957983
11
45.674339
21
42.558141
0
LINE
8
boundary
62
5
39
2
10
45.674339
20
42.558141
11
45.282953
21
43.139100
0
LINE
8
boundary
62
5
39
2
10
45.282953
20
43.139100
11
44.859143
21
43.761961
0
LINE
8
boundary
62
5
39
2
10
44.859143
20
43.761961
11
44.478182
21
44.346128
0
LINE
8
boundary
62
5
39
2
10
44.478182
20
44.346128
11
44.052548
21
44.992146
0
LINE
8
boundary
62
5
39
2
10
44.052548
20
44.992146
11
43.682267
21
45.578479
0
LINE
8
boundary
62
5
39
2
10
43.682267
20
45.578479
11
43.255146
21
46.248081
0
LINE
8
boundary
62
5
39
2
10
43.255146
20
46.248081
11
42.895937
21
46.835504
0
LINE
8
boundary
62
5
39
2
10
42.895937
20
46.835504
11
42.467422
21
47.529155
0
LINE
8
boundary
62
5
39
2
10
42.467422
20
47.529155
11
42.119454
21
48.116619
0
LINE
8
boundary
62
5
39
2
10
42.119454
20
48.116619
11
41.689851
21
48.834790
0
LINE
8
boundary
62
5
39
2
10
41.689851
20
48.834790
11
41.353477
21
49.421252
0
LINE
8
boundary
62
5
39
2
10
41.353477
20
49.421252
11
40.922988
21
50.164400
0
LINE
8
boundary
62
5
39
2
10
40.922988
20
50.164400
11
40.598358
21
50.748796
0
LINE
8
boundary
62
5
39
2
10
40.598358
20
50.748796
11
40.167357
21
51.517409
0
LINE
8
boundary
62
5
39
2
10
40.167357
20
51.517409
11
39.854750
21
52.098655
0
LINE
8
boundary
62
5
39
2
10
39.854750
20
52.098655
11
39.423470
21
52.893163
0
LINE
8
boundary
62
5
39
2
10
39.423470
20
52.893163
11
39.123026
21
53.470232
0
LINE
8
boundary
62
5
39
2
10
39.123026
20
53.470232
11
38.691793
21
54.291108
0
LINE
8
boundary
62
5
39
2
10
38.691793
20
54.291108
11
38.403663
21
54.862914
0
LINE
8
boundary
62
5
39
2
10
38.403663
20
54.862914
11
37.972854
21
55.710629
0
LINE
8
boundary
62
5
39
2
10
37.972854
20
55.710629
11
37.697190
21
56.276141
0
LINE
8
boundary
62
5
39
2
10
37.697190
20
56.276141
11
37.267194
21
57.151141
0
LINE
8
boundary
62
5
39
2
10
37.267194
20
57.151141
11
37.004069
21
57.709295
0
LINE
8
boundary
62
5
39
2
10
37.004069
20
57.709295
11
36.575320
21
58.612008
0
LINE
8
boundary
62
5
39
2
10
36.575320
20
58.612008
11
36.324833
21
59.161772
0
LINE
8
boundary
62
5
39
2
10
36.324833
20
59.161772
11
35.897670
21
60.092656
0
LINE
8
boundary
62
5
39
2
10
35.897670
20
60.092656
11
35.659819
21
60.632993
0
LINE
8
boundary
62
5
39
2
10
35.659819
20
60.632993
11
35.234738
21
61.592464
0
LINE
8
boundary
62
5
39
2
10
35.234738
20
61.592464
11
35.009532
21
62.122379
0
LINE
8
boundary
62
5
39
2
10
35.009532
20
62.122379
11
34.586989
21
63.110871
0
LINE
8
boundary
62
5
39
2
10
34.586989
20
63.110871
11
34.374400
21
63.629388
0
LINE
8
boundary
62
5
39
2
10
34.374400
20
63.629388
11
33.955025
21
64.647283
0
LINE
8
boundary
62
5
39
2
10
33.955025
20
64.647283
11
33.755014
21
65.153407
0
LINE
8
boundary
62
5
39
2
10
33.755014
20
65.153407
11
33.339321
21
66.201060
0
LINE
8
boundary
62
5
39
2
10
33.339321
20
66.201060
11
33.151830
21
66.693848
0
LINE
8
boundary
62
5
39
2
10
33.151830
20
66.693848
11
32.740296
21
67.771662
0
LINE
8
boundary
62
5
39
2
10
32.740296
20
67.771662
11
32.565102
21
68.250187
0
LINE
8
boundary
62
5
39
2
10
32.565102
20
68.250187
11
32.158519
21
69.358468
0
LINE
8
boundary
62
5
39
2
10
32.158519
20
69.358468
11
31.594450
21
70.960890
0
LINE
8
boundary
62
5
39
2
10
31.594450
20
70.960890
11
31.048535
21
72.578369
0
LINE
8
boundary
62
5
39
2
10
31.048535
20
72.578369
11
30.521229
21
74.210326
0
LINE
8
boundary
62
5
39
2
10
30.521229
20
74.210326
11
30.013070
21
75.856218
0
LINE
8
boundary
62
5
39
2
10
30.013070
20
75.856218
11
29.524528
21
77.515407
0
LINE
8
boundary
62
5
39
2
10
29.524528
20
77.515407
11
29.056068
21
79.187385
0
LINE
8
boundary
62
5
39
2
10
29.056068
20
79.187385
11
28.608145
21
80.871552
0
LINE
8
boundary
62
5
39
2
10
28.608145
20
80.871552
11
28.181212
21
82.567397
0
LINE
8
boundary
62
5
39
2
10
28.181212
20
82.567397
11
27.775651
21
84.274455
0
LINE
8
boundary
62
5
39
2
10
27.775651
20
84.274455
11
27.392043
21
85.992021
0
LINE
8
boundary
62
5
39
2
10
27.392043
20
85.992021
11
27.030821
21
87.719628
0
LINE
8
boundary
62
5
39
2
10
27.030821
20
87.719628
11
26.692291
21
89.456821
0
LINE
8
boundary
62
5
39
2
10
26.692291
20
89.456821
11
26.377018
21
91.203048
0
LINE
8
boundary
62
5
39
2
10
26.377018
20
91.203048
11
26.085381
21
92.957714
0
LINE
8
boundary
62
5
39
2
10
26.085381
20
92.957714
11
25.817829
21
94.720447
0
LINE
8
boundary
62
5
39
2
10
25.817829
20
94.720447
11
25.574686
21
96.490671
0
LINE
8
boundary
62
5
39
2
10
25.574686
20
96.490671
11
25.356313
21
98.267975
0
LINE
8
boundary
62
5
39
2
10
25.356313
20
98.267975
11
25.163354
21
100.051796
0
LINE
8
boundary
62
5
39
2
10
25.163354
20
100.051796
11
24.996080
21
101.841669
0
LINE
8
boundary
62
5
39
2
10
24.996080
20
101.841669
11
24.764062
21
103.279978
0
LINE
8
boundary
62
5
39
2
10
24.764062
20
103.279978
11
24.544610
21
104.698662
0
LINE
8
boundary
62
5
39
2
10
24.544610
20
104.698662
11
24.340191
21
106.110559
0
LINE
8
boundary
62
5
39
2
10
24.340191
20
106.110559
11
24.129663
21
107.506145
0
LINE
8
boundary
62
5
39
2
10
24.129663
20
107.506145
11
23.931468
21
108.893954
0
LINE
8
boundary
62
5
39
2
10
23.931468
20
108.893954
11
23.748100
21
110.275254
0
LINE
8
boundary
62
5
39
2
10
23.748100
20
110.275254
11
23.425147
21
113.018472
0
LINE
8
boundary
62
5
39
2
10
23.425147
20
113.018472
11
23.159080
21
115.736342
0
LINE
8
boundary
62
5
39
2
10
23.159080
20
115.736342
11
22.948492
21
118.429276
0
LINE
8
boundary
62
5
39
2
10
22.948492
20
118.429276
11
22.791642
21
121.097816
0
LINE
8
boundary
62
5
39
2
10
22.791642
20
121.097816
11
22.686857
21
123.742660
0
LINE
8
boundary
62
5
39
2
10
22.686857
20
123.742660
11
22.632816
21
126.364179
0
LINE
8
boundary
62
5
39
2
10
22.632816
20
126.364179
11
22.627860
21
128.962906
0
LINE
8
boundary
62
5
39
2
10
22.627860
20
128.962906
11
22.670301
21
131.539445
0
LINE
8
boundary
62
5
39
2
10
22.670301
20
131.539445
11
22.758701
21
134.094263
0
LINE
8
boundary
62
5
39
2
10
22.758701
20
134.094263
11
22.891462
21
136.627900
0
LINE
8
boundary
62
5
39
2
10
22.891462
20
136.627900
11
23.067112
21
139.140896
0
LINE
8
boundary
62
5
39
2
10
23.067112
20
139.140896
11
23.110874
21
139.650512
0
LINE
8
boundary
62
5
39
2
10
23.110874
20
139.650512
11
23.284142
21
141.633698
0
LINE
8
boundary
62
5
39
2
10
23.284142
20
141.633698
11
23.338583
21
142.162328
0
LINE
8
boundary
62
5
39
2
10
23.338583
20
142.162328
11
23.541070
21
144.106866
0
LINE
8
boundary
62
5
39
2
10
23.541070
20
144.106866
11
23.606247
21
144.651668
0
LINE
8
boundary
62
5
39
2
10
23.606247
20
144.651668
11
23.836292
21
146.560827
0
LINE
8
boundary
62
5
39
2
10
23.836292
20
146.560827
11
23.912183
21
147.119164
0
LINE
8
boundary
62
5
39
2
10
23.912183
20
147.119164
11
24.168366
21
148.996121
0
LINE
8
boundary
62
5
39
2
10
24.168366
20
148.996121
11
24.254795
21
149.565408
0
LINE
8
boundary
62
5
39
2
10
24.254795
20
149.565408
11
24.535833
21
151.413165
0
LINE
8
boundary
62
5
39
2
10
24.535833
20
151.413165
11
24.632520
21
151.991043
0
LINE
8
boundary
62
5
39
2
10
24.632520
20
151.991043
11
24.937277
21
153.812473
0
LINE
8
boundary
62
5
39
2
10
24.937277
20
153.812473
11
25.043836
21
154.396675
0
LINE
8
boundary
62
5
39
2
10
25.043836
20
154.396675
11
25.371164
21
156.194421
0
LINE
8
boundary
62
5
39
2
10
25.371164
20
156.194421
11
25.487095
21
156.782851
0
LINE
8
boundary
62
5
39
2
10
25.487095
20
156.782851
11
25.836125
21
158.559494
0
LINE
8
boundary
62
5
39
2
10
25.836125
20
158.559494
11
25.960874
21
159.150181
0
LINE
8
boundary
62
5
39
2
10
25.960874
20
159.150181
11
26.330619
21
160.908073
0
LINE
8
boundary
62
5
39
2
10
26.330619
20
160.908073
11
26.463590
21
161.499185
0
LINE
8
boundary
62
5
39
2
10
26.463590
20
161.499185
11
26.853330
21
163.240660
0
LINE
8
boundary
62
5
39
2
10
26.853330
20
163.240660
11
26.993896
21
163.830528
0
LINE
8
boundary
62
5
39
2
10
26.993896
20
163.830528
11
27.402929
21
165.557485
0
LINE
8
boundary
62
5
39
2
10
27.402929
20
165.557485
11
27.550327
21
166.144570
0
LINE
8
boundary
62
5
39
2
10
27.550327
20
166.144570
11
27.977863
21
167.859166
0
LINE
8
boundary
62
5
39
2
10
27.977863
20
167.859166
11
28.131393
21
168.442010
0
LINE
8
boundary
62
5
39
2
10
28.131393
20
168.442010
11
28.576842
21
170.145886
0
LINE
8
boundary
62
5
39
2
10
28.576842
20
170.145886
11
28.735749
21
170.723180
0
LINE
8
boundary
62
5
39
2
10
28.735749
20
170.723180
11
29.198457
21
172.418063
0
LINE
8
boundary
62
5
39
2
10
29.198457
20
172.418063
11
29.361992
21
172.988665
0
LINE
8
boundary
62
5
39
2
10
29.361992
20
172.988665
11
29.841283
21
174.676125
0
LINE
8
boundary
62
5
39
2
10
29.841283
20
174.676125
11
30.008728
21
175.238926
0
LINE
8
boundary
62
5
39
2
10
30.008728
20
175.238926
11
30.504229
21
176.920325
0
LINE
8
boundary
62
5
39
2
10
30.504229
20
176.920325
11
30.674760
21
177.474385
0
LINE
8
boundary
62
5
39
2
10
30.674760
20
177.474385
11
31.185666
21
179.151024
0
LINE
8
boundary
62
5
39
2
10
31.185666
20
179.151024
11
31.358610
21
179.695439
0
LINE
8
boundary
62
5
39
2
10
31.358610
20
179.695439
11
31.884443
21
181.368534
0
LINE
8
boundary
62
5
39
2
10
31.884443
20
181.368534
11
32.059015
21
181.902542
0
LINE
8
boundary
62
5
39
2
10
32.059015
20
181.902542
11
32.599125
21
183.573240
0
LINE
8
boundary
62
5
39
2
10
32.599125
20
183.573240
11
32.774699
21
184.096165
0
LINE
8
boundary
62
5
39
2
10
32.774699
20
184.096165
11
33.328610
21
185.765311
0
LINE
8
boundary
62
5
39
2
10
33.328610
20
185.765311
11
33.504424
21
186.276532
0
LINE
8
boundary
62
5
39
2
10
33.504424
20
186.276532
11
34.071327
21
187.945186
0
LINE
8
boundary
62
5
39
2
10
34.071327
20
187.945186
11
34.246814
21
188.444191
0
LINE
8
boundary
62
5
39
2
10
34.246814
20
188.444191
11
34.826328
21
190.113034
0
LINE
8
boundary
62
5
39
2
10
34.826328
20
190.113034
11
35.000821
21
190.599310
0
LINE
8
boundary
62
5
39
2
10
35.000821
20
190.599310
11
35.592192
21
192.269121
0
LINE
8
boundary
62
5
39
2
10
35.592192
20
192.269121
11
36.367507
21
194.413811
0
LINE
8
boundary
62
5
39
2
10
36.367507
20
194.413811
11
36.705303
21
195.316447
0
LINE
8
boundary
62
5
39
2
10
36.705303
20
195.316447
11
37.942269
21
198.669798
0
LINE
8
boundary
62
5
39
2
10
37.942269
20
198.669798
11
38.268055
21
199.518023
0
LINE
8
boundary
62
5
39
2
10
38.268055
20
199.518023
11
39.540811
21
202.882904
0
LINE
8
boundary
62
5
39
2
10
39.540811
20
202.882904
11
39.851218
21
203.675436
0
LINE
8
boundary
62
5
39
2
10
39.851218
20
203.675436
11
41.153585
21
207.054987
0
LINE
8
boundary
62
5
39
2
10
41.153585
20
207.054987
11
41.445796
21
207.791191
0
LINE
8
boundary
62
5
39
2
10
41.445796
20
207.791191
11
42.771140
21
211.187809
0
LINE
8
boundary
62
5
39
2
10
42.771140
20
211.187809
11
43.042946
21
211.867512
0
LINE
8
boundary
62
5
39
2
10
43.042946
20
211.867512
11
44.384347
21
215.282795
0
LINE
8
boundary
62
5
39
2
10
44.384347
20
215.282795
11
44.865163
21
216.485744
0
LINE
8
boundary
62
5
39
2
10
44.865163
20
216.485744
11
47.561571
21
223.365695
0
LINE
8
boundary
62
5
39
2
10
47.561571
20
223.365695
11
47.950135
21
224.358409
0
LINE
8
boundary
62
5
39
2
10
47.950135
20
224.358409
11
50.615293
21
231.314951
0
LINE
8
boundary
62
5
39
2
10
50.615293
20
231.314951
11
52.074703
21
235.242732
0
LINE
8
boundary
62
5
39
2
10
52.074703
20
235.242732
11
53.477989
21
239.140842
0
LINE
8
boundary
62
5
39
2
10
53.477989
20
239.140842
11
54.817331
21
243.010467
0
LINE
8
boundary
62
5
39
2
10
54.817331
20
243.010467
11
55.460404
21
244.934934
0
LINE
8
boundary
62
5
39
2
10
55.460404
20
244.934934
11
56.084554
21
246.852703
0
LINE
8
boundary
62
5
39
2
10
56.084554
20
246.852703
11
57.061076
21
249.972779
0
LINE
8
boundary
62
5
39
2
10
57.061076
20
249.972779
11
58.015085
21
253.192125
0
LINE
8
boundary
62
5
39
2
10
58.015085
20
253.192125
11
58.480747
21
254.837138
0
LINE
8
boundary
62
5
39
2
10
58.480747
20
254.837138
11
58.937245
21
256.504838
0
LINE
8
boundary
62
5
39
2
10
58.937245
20
256.504838
11
59.383346
21
258.194396
0
LINE
8
boundary
62
5
39
2
10
59.383346
20
258.194396
11
59.818119
21
259.905131
0
LINE
8
boundary
62
5
39
2
10
59.818119
20
259.905131
11
60.240217
21
261.636369
0
LINE
8
boundary
62
5
39
2
10
60.240217
20
261.636369
11
60.648695
21
263.387315
0
LINE
8
boundary
62
5
39
2
10
60.648695
20
263.387315
11
61.042347
21
265.157306
0
LINE
8
boundary
62
5
39
2
10
61.042347
20
265.157306
11
61.420235
21
266.945764
0
LINE
8
boundary
62
5
39
2
10
61.420235
20
266.945764
11
61.781050
21
268.751853
0
LINE
8
boundary
62
5
39
2
10
61.781050
20
268.751853
11
61.908453
21
269.429429
0
LINE
8
boundary
62
5
39
2
10
61.908453
20
269.429429
11
62.111518
21
270.571418
0
LINE
8
boundary
62
5
39
2
10
62.111518
20
270.571418
11
62.415912
21
272.405051
0
LINE
8
boundary
62
5
39
2
10
62.415912
20
272.405051
11
62.700578
21
274.254404
0
LINE
8
boundary
62
5
39
2
10
62.700578
20
274.254404
11
62.964525
21
276.118710
0
LINE
8
boundary
62
5
39
2
10
62.964525
20
276.118710
11
63.206765
21
277.997394
0
LINE
8
boundary
62
5
39
2
10
63.206765
20
277.997394
11
63.426283
21
279.889698
0
LINE
8
boundary
62
5
39
2
10
63.426283
20
279.889698
11
63.622186
21
281.795161
0
LINE
8
boundary
62
5
39
2
10
63.622186
20
281.795161
11
63.793520
21
283.713072
0
LINE
8
boundary
62
5
39
2
10
63.793520
20
283.713072
11
63.939421
21
285.642853
0
LINE
8
boundary
62
5
39
2
10
63.939421
20
285.642853
11
64.058894
21
287.583821
0
LINE
8
boundary
62
5
39
2
10
64.058894
20
287.583821
11
64.151026
21
289.535418
0
LINE
8
boundary
62
5
39
2
10
64.151026
20
289.535418
11
64.214866
21
291.497042
0
LINE
8
boundary
62
5
39
2
10
64.214866
20
291.497042
11
64.249676
21
293.468043
0
LINE
8
boundary
62
5
39
2
10
64.249676
20
293.468043
11
64.254505
21
295.447879
0
LINE
8
boundary
62
5
39
2
10
64.254505
20
295.447879
11
64.228491
21
297.435956
0
LINE
8
boundary
62
5
39
2
10
64.228491
20
297.435956
11
64.170838
21
299.431664
0
LINE
8
boundary
62
5
39
2
10
64.170838
20
299.431664
11
64.080491
21
301.434396
0
LINE
8
boundary
62
5
39
2
10
64.080491
20
301.434396
11
63.956891
21
303.443703
0
LINE
8
boundary
62
5
39
2
10
63.956891
20
303.443703
11
63.798994
21
305.458865
0
LINE
8
boundary
62
5
39
2
10
63.798994
20
305.458865
11
63.606036
21
307.479314
0
LINE
8
boundary
62
5
39
2
10
63.606036
20
307.479314
11
63.377264
21
309.504460
0
LINE
8
boundary
62
5
39
2
10
63.377264
20
309.504460
11
63.111821
21
311.533751
0
LINE
8
boundary
62
5
39
2
10
63.111821
20
311.533751
11
62.808990
21
313.566616
0
LINE
8
boundary
62
5
39
2
10
62.808990
20
313.566616
11
62.467901
21
315.602475
0
LINE
8
boundary
62
5
39
2
10
62.467901
20
315.602475
11
62.087900
21
317.640857
0
LINE
8
boundary
62
5
39
2
10
62.087900
20
317.640857
11
61.668076
21
319.681009
0
LINE
8
boundary
62
5
39
2
10
61.668076
20
319.681009
11
61.207758
21
321.722585
0
LINE
8
boundary
62
5
39
2
10
61.207758
20
321.722585
11
60.706215
21
323.764714
0
LINE
8
boundary
62
5
39
2
10
60.706215
20
323.764714
11
60.162724
21
325.807115
0
LINE
8
boundary
62
5
39
2
10
60.162724
20
325.807115
11
59.576466
21
327.848909
0
LINE
8
boundary
62
5
39
2
10
59.576466
20
327.848909
11
58.946794
21
329.889855
0
LINE
8
boundary
62
5
39
2
10
58.946794
20
329.889855
11
58.591266
21
330.985591
0
LINE
8
boundary
62
5
39
2
10
58.591266
20
330.985591
11
58.248017
21
332.004886
0
LINE
8
boundary
62
5
39
2
10
58.248017
20
332.004886
11
57.893643
21
333.023595
0
LINE
8
boundary
62
5
39
2
10
57.893643
20
333.023595
11
57.527958
21
334.041650
0
LINE
8
boundary
62
5
39
2
10
57.527958
20
334.041650
11
57.150926
21
335.059056
0
LINE
8
boundary
62
5
39
2
10
57.150926
20
335.059056
11
56.762462
21
336.075548
0
LINE
8
boundary
62
5
39
2
10
56.762462
20
336.075548
11
56.362464
21
337.091194
0
LINE
8
boundary
62
5
39
2
10
56.362464
20
337.091194
11
55.950873
21
338.105816
0
LINE
8
boundary
62
5
39
2
10
55.950873
20
338.105816
11
55.527568
21
339.119566
0
LINE
8
boundary
62
5
39
2
10
55.527568
20
339.119566
11
55.092534
21
340.132221
0
LINE
8
boundary
62
5
39
2
10
55.092534
20
340.132221
11
54.645655
21
341.143549
0
LINE
8
boundary
62
5
39
2
10
54.645655
20
341.143549
11
54.186863
21
342.153724
0
LINE
8
boundary
62
5
39
2
10
54.186863
20
342.153724
11
53.716077
21
343.162555
0
LINE
8
boundary
62
5
39
2
10
53.716077
20
343.162555
11
53.233170
21
344.170063
0
LINE
8
boundary
62
5
39
2
10
53.233170
20
344.170063
11
52.738169
21
345.176075
0
LINE
8
boundary
62
5
39
2
10
52.738169
20
345.176075
11
52.230896
21
346.180526
0
LINE
8
boundary
62
5
39
2
10
52.230896
20
346.180526
11
51.711344
21
347.183455
0
LINE
8
boundary
62
5
39
2
10
51.711344
20
347.183455
11
51.179474
21
348.184611
0
LINE
8
boundary
62
5
39
2
10
51.179474
20
348.184611
11
50.635050
21
349.184080
0
LINE
8
boundary
62
5
39
2
10
50.635050
20
349.184080
11
50.078185
21
350.181692
0
LINE
8
boundary
62
5
39
2
10
50.078185
20
350.181692
11
49.508721
21
351.177472
0
LINE
8
boundary
62
5
39
2
10
49.508721
20
351.177472
11
48.926498
21
352.171351
0
LINE
8
boundary
62
5
39
2
10
48.926498
20
352.171351
11
48.331608
21
353.163207
0
LINE
8
boundary
62
5
39
2
10
48.331608
20
353.163207
11
47.723905
21
354.152697
0
LINE
8
boundary
62
5
39
2
10
47.723905
20
354.152697
11
47.103278
21
355.140223
0
LINE
8
boundary
62
5
39
2
10
47.103278
20
355.140223
11
46.469743
21
356.125409
0
LINE
8
boundary
62
5
39
2
10
46.469743
20
356.125409
11
45.823080
21
357.108305
0
LINE
8
boundary
62
5
39
2
10
45.823080
20
357.108305
11
45.163390
21
358.088766
0
LINE
8
boundary
62
5
39
2
10
45.163390
20
358.088766
11
44.490552
21
359.066822
0
LINE
8
boundary
62
5
39
2
10
44.490552
20
359.066822
11
43.804482
21
360.042460
0
LINE
8
boundary
62
5
39
2
10
43.804482
20
360.042460
11
43.105117
21
361.015410
0
LINE
8
boundary
62
5
39
2
10
43.105117
20
361.015410
11
42.392325
21
361.985617
0
LINE
8
boundary
62
5
39
2
10
42.392325
20
361.985617
11
41.666161
21
362.953179
0
LINE
8
boundary
62
5
39
2
10
41.666161
20
362.953179
11
40.926435
21
363.917848
0
LINE
8
boundary
62
5
39
2
10
40.926435
20
363.917848
11
40.173152
21
364.879626
0
LINE
8
boundary
62
5
39
2
10
40.173152
20
364.879626
11
39.406307
21
365.838547
0
LINE
8
boundary
62
5
39
2
10
39.406307
20
365.838547
11
38.625673
21
366.794374
0
LINE
8
boundary
62
5
39
2
10
38.625673
20
366.794374
11
37.831253
21
367.747097
0
LINE
8
boundary
62
5
39
2
10
37.831253
20
367.747097
11
37.023066
21
368.696587
0
LINE
8
boundary
62
5
39
2
10
37.023066
20
368.696587
11
36.200952
21
369.643058
0
LINE
8
boundary
62
5
39
2
10
36.200952
20
369.643058
11
35.943900
21
370.204618
0
LINE
8
boundary
62
5
39
2
10
35.943900
20
370.204618
11
35.728912
21
370.730600
0
LINE
8
boundary
62
5
39
2
10
35.728912
20
370.730600
11
35.539866
21
371.231521
0
LINE
8
boundary
62
5
39
2
10
35.539866
20
371.231521
11
35.371121
21
371.722612
0
LINE
8
boundary
62
5
39
2
10
35.371121
20
371.722612
11
35.122380
21
372.589386
0
LINE
8
boundary
62
5
39
2
10
35.122380
20
372.589386
11
34.962680
21
373.378656
0
LINE
8
boundary
62
5
39
2
10
34.962680
20
373.378656
11
34.892219
21
374.079986
0
LINE
8
boundary
62
5
39
2
10
34.892219
20
374.079986
11
34.906148
21
374.697001
0
LINE
8
boundary
62
5
39
2
10
34.906148
20
374.697001
11
34.999995
21
375.233576
0
LINE
8
boundary
62
5
39
2
10
34.999995
20
375.233576
11
35.280403
21
375.895580
0
LINE
8
boundary
62
5
39
2
10
35.280403
20
375.895580
11
35.714982
21
376.397816
0
LINE
8
boundary
62
5
39
2
10
35.714982
20
376.397816
11
36.288435
21
376.752473
0
LINE
8
boundary
62
5
39
2
10
36.288435
20
376.752473
11
36.986089
21
376.972149
0
LINE
8
boundary
62
5
39
2
10
36.986089
20
376.972149
11
37.512861
21
377.049784
0
LINE
8
boundary
62
5
39
2
10
37.512861
20
377.049784
11
38.083787
21
377.076504
0
LINE
8
boundary
62
5
39
2
10
38.083787
20
377.076504
11
38.694663
21
377.055963
0
LINE
8
boundary
62
5
39
2
10
38.694663
20
377.055963
11
39.341050
21
376.992019
0
LINE
8
boundary
62
5
39
2
10
39.341050
20
376.992019
11
39.988041
21
376.892337
0
LINE
8
boundary
62
5
39
2
10
39.988041
20
376.892337
11
40.689670
21
376.754165
0
LINE
8
boundary
62
5
39
2
10
40.689670
20
376.754165
11
41.413829
21
376.583300
0
LINE
8
boundary
62
5
39
2
10
41.413829
20
376.583300
11
42.156182
21
376.383403
0
LINE
8
boundary
62
5
39
2
10
42.156182
20
376.383403
11
42.912493
21
376.158101
0
LINE
8
boundary
62
5
39
2
10
42.912493
20
376.158101
11
43.678254
21
375.911015
0
LINE
8
boundary
62
5
39
2
10
43.678254
20
375.911015
11
44.449154
21
375.645936
0
LINE
8
boundary
62
5
39
2
10
44.449154
20
375.645936
11
45.220781
21
375.366166
0
LINE
8
boundary
62
5
39
2
10
45.220781
20
375.366166
11
45.988583
21
375.075700
0
LINE
8
boundary
62
5
39
2
10
45.988583
20
375.075700
11
47.394559
21
374.516287
0
LINE
8
boundary
62
5
39
2
10
47.394559
20
374.516287
11
48.831891
21
373.920278
0
LINE
8
boundary
62
5
39
2
10
48.831891
20
373.920278
11
50.167848
21
373.352031
0
LINE
8
boundary
62
5
39
2
10
50.167848
20
373.352031
11
51.088476
21
372.736981
0
LINE
8
boundary
62
5
39
2
10
51.088476
20
372.736981
11
51.950978
21
372.130109
0
LINE
8
boundary
62
5
39
2
10
51.950978
20
372.130109
11
52.824846
21
371.542419
0
LINE
8
boundary
62
5
39
2
10
52.824846
20
371.542419
11
53.709768
21
370.974126
0
LINE
8
boundary
62
5
39
2
10
53.709768
20
370.974126
11
54.605100
21
370.425059
0
LINE
8
boundary
62
5
39
2
10
54.605100
20
370.425059
11
55.510421
21
369.895277
0
LINE
8
boundary
62
5
39
2
10
55.510421
20
369.895277
11
56.425233
21
369.384789
0
LINE
8
boundary
62
5
39
2
10
56.425233
20
369.384789
11
57.348884
21
368.893653
0
LINE
8
boundary
62
5
39
2
10
57.348884
20
368.893653
11
58.281026
21
368.421882
0
LINE
8
boundary
62
5
39
2
10
58.281026
20
368.421882
11
59.221126
21
367.969483
0
LINE
8
boundary
62
5
39
2
10
59.221126
20
367.969483
11
60.168596
21
367.536443
0
LINE
8
boundary
62
5
39
2
10
60.168596
20
367.536443
11
61.122914
21
367.122798
0
LINE
8
boundary
62
5
39
2
10
61.122914
20
367.122798
11
62.083589
21
366.728605
0
LINE
8
boundary
62
5
39
2
10
62.083589
20
366.728605
11
63.050138
21
366.353869
0
LINE
8
boundary
62
5
39
2
10
63.050138
20
366.353869
11
64.021974
21
365.998751
0
LINE
8
boundary
62
5
39
2
10
64.021974
20
365.998751
11
64.998633
21
365.663013
0
LINE
8
boundary
62
5
39
2
10
64.998633
20
365.663013
11
65.979551
21
365.346813
0
LINE
8
boundary
62
5
39
2
10
65.979551
20
365.346813
11
66.964246
21
365.050255
0
LINE
8
boundary
62
5
39
2
10
66.964246
20
365.050255
11
67.952104
21
364.773344
0
LINE
8
boundary
62
5
39
2
10
67.952104
20
364.773344
11
68.942651
21
364.515956
0
LINE
8
boundary
62
5
39
2
10
68.942651
20
364.515956
11
69.935373
21
364.278251
0
LINE
8
boundary
62
5
39
2
10
69.935373
20
364.278251
11
70.929794
21
364.060334
0
LINE
8
boundary
62
5
39
2
10
70.929794
20
364.060334
11
71.925275
21
363.862037
0
LINE
8
boundary
62
5
39
2
10
71.925275
20
363.862037
11
72.921371
21
363.683525
0
LINE
8
boundary
62
5
39
2
10
72.921371
20
363.683525
11
73.917557
21
363.524764
0
LINE
8
boundary
62
5
39
2
10
73.917557
20
363.524764
11
74.913219
21
363.385943
0
LINE
8
boundary
62
5
39
2
10
74.913219
20
363.385943
11
75.907881
21
363.266818
0
LINE
8
boundary
62
5
39
2
10
75.907881
20
363.266818
11
76.901100
21
363.167649
0
LINE
8
boundary
62
5
39
2
10
76.901100
20
363.167649
11
77.892161
21
363.088266
0
LINE
8
boundary
62
5
39
2
10
77.892161
20
363.088266
11
78.880765
21
363.028923
0
LINE
8
boundary
62
5
39
2
10
78.880765
20
363.028923
11
79.866213
21
362.989454
0
LINE
8
boundary
62
5
39
2
10
79.866213
20
362.989454
11
80.847994
21
362.969930
0
LINE
8
boundary
62
5
39
2
10
80.847994
20
362.969930
11
81.825673
21
362.970505
0
LINE
8
boundary
62
5
39
2
10
81.825673
20
362.970505
11
82.798704
21
362.991133
0
LINE
8
boundary
62
5
39
2
10
82.798704
20
362.991133
11
83.766462
21
363.031683
0
LINE
8
boundary
62
5
39
2
10
83.766462
20
363.031683
11
84.728582
21
363.092391
0
LINE
8
boundary
62
5
39
2
10
84.728582
20
363.092391
11
85.684436
21
363.173174
0
LINE
8
boundary
62
5
39
2
10
85.684436
20
363.173174
11
86.633527
21
363.274065
0
LINE
8
boundary
62
5
39
2
10
86.633527
20
363.274065
11
87.575332
21
363.395195
0
LINE
8
boundary
62
5
39
2
10
87.575332
20
363.395195
11
88.509390
21
363.536370
0
LINE
8
boundary
62
5
39
2
10
88.509390
20
363.536370
11
89.435123
21
363.697814
0
LINE
8
boundary
62
5
39
2
10
89.435123
20
363.697814
11
90.352011
21
363.879310
0
LINE
8
boundary
62
5
39
2
10
90.352011
20
363.879310
11
91.259580
21
364.081134
0
LINE
8
boundary
62
5
39
2
10
91.259580
20
364.081134
11
92.157319
21
364.303131
0
LINE
8
boundary
62
5
39
2
10
92.157319
20
364.303131
11
93.044640
21
364.545224
0
LINE
8
boundary
62
5
39
2
10
93.044640
20
364.545224
11
93.921037
21
364.807727
0
LINE
8
boundary
62
5
39
2
10
93.921037
20
364.807727
11
94.786148
21
365.090479
0
LINE
8
boundary
62
5
39
2
10
94.786148
20
365.090479
11
95.639270
21
365.393437
0
LINE
8
boundary
62
5
39
2
10
95.639270
20
365.393437
11
96.480005
21
365.716748
0
LINE
8
boundary
62
5
39
2
10
96.480005
20
365.716748
11
97.307838
21
366.060228
0
LINE
8
boundary
62
5
39
2
10
97.307838
20
366.060228
11
98.122221
21
366.424010
0
LINE
8
boundary
62
5
39
2
10
98.122221
20
366.424010
11
98.922700
21
366.808127
0
LINE
8
boundary
62
5
39
2
10
98.922700
20
366.808127
11
99.708751
21
367.212546
0
LINE
8
boundary
62
5
39
2
10
99.708751
20
367.212546
11
100.479818
21
367.637208
0
LINE
8
boundary
62
5
39
2
10
100.479818
20
367.637208
11
101.235488
21
368.082139
0
LINE
8
boundary
62
5
39
2
10
101.235488
20
368.082139
11
101.975206
21
368.547359
0
LINE
8
boundary
62
5
39
2
10
101.975206
20
368.547359
11
102.698477
21
369.032977
0
LINE
8
boundary
62
5
39
2
10
102.698477
20
369.032977
11
103.404803
21
369.538846
0
LINE
8
boundary
62
5
39
2
10
103.404803
20
369.538846
11
104.093694
21
370.064953
0
LINE
8
boundary
62
5
39
2
10
104.093694
20
370.064953
11
104.764630
21
370.611406
0
LINE
8
boundary
62
5
39
2
10
104.764630
20
370.611406
11
105.417117
21
371.178084
0
LINE
8
boundary
62
5
39
2
10
105.417117
20
371.178084
11
106.050641
21
371.765095
0
LINE
8
boundary
62
5
39
2
10
106.050641
20
371.765095
11
106.664780
21
372.372402
0
LINE
8
boundary
62
5
39
2
10
106.664780
20
372.372402
11
107.259016
21
372.999853
0
LINE
8
boundary
62
5
39
2
10
107.259016
20
372.999853
11
107.706467
21
373.416757
0
LINE
8
boundary
62
5
39
2
10
107.706467
20
373.416757
11
108.188285
21
373.812912
0
LINE
8
boundary
62
5
39
2
10
108.188285
20
373.812912
11
108.704315
21
374.288427
0
LINE
8
boundary
62
5
39
2
10
108.704315
20
374.288427
11
109.109540
21
374.705294
0
LINE
8
boundary
62
5
39
2
10
109.109540
20
374.705294
11
109.535103
21
375.202587
0
LINE
8
boundary
62
5
39
2
10
109.535103
20
375.202587
11
109.865750
21
375.639044
0
LINE
8
boundary
62
5
39
2
10
109.865750
20
375.639044
11
110.204248
21
376.157310
0
LINE
8
boundary
62
5
39
2
10
110.204248
20
376.157310
11
110.462392
21
376.612487
0
LINE
8
boundary
62
5
39
2
10
110.462392
20
376.612487
11
110.717147
21
377.150722
0
LINE
8
boundary
62
5
39
2
10
110.717147
20
377.150722
11
110.905107
21
377.623656
0
LINE
8
boundary
62
5
39
2
10
110.905107
20
377.623656
11
111.079335
21
378.181067
0
LINE
8
boundary
62
5
39
2
10
111.079335
20
378.181067
11
111.239737
21
378.887564
0
LINE
8
boundary
62
5
39
2
10
111.239737
20
378.887564
11
111.337227
21
379.609151
0
LINE
8
boundary
62
5
39
2
10
111.337227
20
379.609151
11
111.370634
21
380.119848
0
LINE
8
boundary
62
5
39
2
10
111.370634
20
380.119848
11
111.369062
21
380.718590
0
LINE
8
boundary
62
5
39
2
10
111.369062
20
380.718590
11
111.340447
21
381.243854
0
LINE
8
boundary
62
5
39
2
10
111.340447
20
381.243854
11
111.268574
21
381.858947
0
LINE
8
boundary
62
5
39
2
10
111.268574
20
381.858947
11
111.180407
21
382.397967
0
LINE
8
boundary
62
5
39
2
10
111.180407
20
382.397967
11
111.041367
21
383.028482
0
LINE
8
boundary
62
5
39
2
10
111.041367
20
383.028482
11
110.896359
21
383.580151
0
LINE
8
boundary
62
5
39
2
10
110.896359
20
383.580151
11
110.692864
21
384.225485
0
LINE
8
boundary
62
5
39
2
10
110.692864
20
384.225485
11
110.493714
21
384.788891
0
LINE
8
boundary
62
5
39
2
10
110.493714
20
384.788891
11
110.228846
21
385.448042
0
LINE
8
boundary
62
5
39
2
10
110.228846
20
385.448042
11
109.978244
21
386.022353
0
LINE
8
boundary
62
5
39
2
10
109.978244
20
386.022353
11
109.654825
21
386.694604
0
LINE
8
boundary
62
5
39
2
10
109.654825
20
386.694604
11
109.298226
21
387.374672
0
LINE
8
boundary
62
5
39
2
10
109.298226
20
387.374672
11
108.820882
21
388.226126
0
LINE
8
boundary
62
5
39
2
10
108.820882
20
388.226126
11
108.300071
21
389.086506
0
LINE
8
boundary
62
5
39
2
10
108.300071
20
389.086506
11
107.737528
21
389.955352
0
LINE
8
boundary
62
5
39
2
10
107.737528
20
389.955352
11
107.134863
21
390.832114
0
LINE
8
boundary
62
5
39
2
10
107.134863
20
390.832114
11
106.493695
21
391.716212
0
LINE
8
boundary
62
5
39
2
10
106.493695
20
391.716212
11
105.815772
21
392.607255
0
LINE
8
boundary
62
5
39
2
10
105.815772
20
392.607255
11
105.102712
21
393.504665
0
LINE
8
boundary
62
5
39
2
10
105.102712
20
393.504665
11
104.356222
21
394.407904
0
LINE
8
boundary
62
5
39
2
10
104.356222
20
394.407904
11
103.577964
21
395.316427
0
LINE
8
boundary
62
5
39
2
10
103.577964
20
395.316427
11
102.769511
21
396.229750
0
LINE
8
boundary
62
5
39
2
10
102.769511
20
396.229750
11
101.932529
21
397.147361
0
LINE
8
boundary
62
5
39
2
10
101.932529
20
397.147361
11
101.068811
21
398.068749
0
LINE
8
boundary
62
5
39
2
10
101.068811
20
398.068749
11
100.179865
21
398.993318
0
LINE
8
boundary
62
5
39
2
10
100.179865
20
398.993318
11
99.267378
21
399.920634
0
LINE
8
boundary
62
5
39
2
10
99.267378
20
399.920634
11
98.332973
21
400.850187
0
LINE
8
boundary
62
5
39
2
10
98.332973
20
400.850187
11
97.378294
21
401.781392
0
LINE
8
boundary
62
5
39
2
10
97.378294
20
401.781392
11
96.405026
21
402.713749
0
LINE
8
boundary
62
5
39
2
10
96.405026
20
402.713749
11
95.414744
21
403.646771
0
LINE
8
boundary
62
5
39
2
10
95.414744
20
403.646771
11
94.409009
21
404.579940
0
LINE
8
boundary
62
5
39
2
10
94.409009
20
404.579940
11
93.389423
21
405.512738
0
LINE
8
boundary
62
5
39
2
10
93.389423
20
405.512738
11
92.357718
21
406.444686
0
LINE
8
boundary
62
5
39
2
10
92.357718
20
406.444686
11
91.315393
21
407.375210
0
LINE
8
boundary
62
5
39
2
10
91.315393
20
407.375210
11
89.570401
21
408.905971
0
LINE
8
boundary
62
5
39
2
10
89.570401
20
408.905971
11
88.834477
21
409.555901
0
LINE
8
boundary
62
5
39
2
10
88.834477
20
409.555901
11
87.437922
21
410.753752
0
LINE
8
boundary
62
5
39
2
10
87.437922
20
410.753752
11
86.700222
21
411.394578
0
LINE
8
boundary
62
5
39
2
10
86.700222
20
411.394578
11
85.292322
21
412.586326
0
LINE
8
boundary
62
5
39
2
10
85.292322
20
412.586326
11
84.556693
21
413.217224
0
LINE
8
boundary
62
5
39
2
10
84.556693
20
413.217224
11
83.145953
21
414.399796
0
LINE
8
boundary
62
5
39
2
10
83.145953
20
414.399796
11
82.415935
21
415.019997
0
LINE
8
boundary
62
5
39
2
10
82.415935
20
415.019997
11
81.010899
21
416.190256
0
LINE
8
boundary
62
5
39
2
10
81.010899
20
416.190256
11
80.289908
21
416.799052
0
LINE
8
boundary
62
5
39
2
10
80.289908
20
416.799052
11
77.513398
21
419.104427
0
LINE
8
boundary
62
5
39
2
10
77.513398
20
419.104427
11
76.129097
21
420.270205
0
LINE
8
boundary
62
5
39
2
10
76.129097
20
420.270205
11
73.478544
21
422.486764
0
LINE
8
boundary
62
5
39
2
10
73.478544
20
422.486764
11
72.166655
21
423.600121
0
LINE
8
boundary
62
5
39
2
10
72.166655
20
423.600121
11
70.916673
21
424.660868
0
LINE
8
boundary
62
5
39
2
10
70.916673
20
424.660868
11
70.287816
21
425.202637
0
LINE
8
boundary
62
5
39
2
10
70.287816
20
425.202637
11
69.093349
21
426.232186
0
LINE
8
boundary
62
5
39
2
10
69.093349
20
426.232186
11
68.492081
21
426.758454
0
LINE
8
boundary
62
5
39
2
10
68.492081
20
426.758454
11
67.773836
21
427.377008
0
LINE
8
boundary
62
5
39
2
10
67.773836
20
427.377008
11
66.697048
21
428.297015
0
LINE
8
boundary
62
5
39
2
10
66.697048
20
428.297015
11
65.628376
21
429.191412
0
LINE
8
boundary
62
5
39
2
10
65.628376
20
429.191412
11
64.567643
21
430.060396
0
LINE
8
boundary
62
5
39
2
10
64.567643
20
430.060396
11
63.514734
21
430.904673
0
LINE
8
boundary
62
5
39
2
10
63.514734
20
430.904673
11
62.469458
21
431.724570
0
LINE
8
boundary
62
5
39
2
10
62.469458
20
431.724570
11
61.431758
21
432.520320
0
LINE
8
boundary
62
5
39
2
10
61.431758
20
432.520320
11
60.401483
21
433.292519
0
LINE
8
boundary
62
5
39
2
10
60.401483
20
433.292519
11
59.378488
21
434.041583
0
LINE
8
boundary
62
5
39
2
10
59.378488
20
434.041583
11
58.362503
21
434.767655
0
LINE
8
boundary
62
5
39
2
10
58.362503
20
434.767655
11
57.353552
21
435.471623
0
LINE
8
boundary
62
5
39
2
10
57.353552
20
435.471623
11
56.351449
21
436.153546
0
LINE
8
boundary
62
5
39
2
10
56.351449
20
436.153546
11
55.356014
21
436.813775
0
LINE
8
boundary
62
5
39
2
10
55.356014
20
436.813775
11
54.367195
21
437.453036
0
LINE
8
boundary
62
5
39
2
10
54.367195
20
437.453036
11
53.384791
21
438.071399
0
LINE
8
boundary
62
5
39
2
10
53.384791
20
438.071399
11
52.408677
21
438.669546
0
LINE
8
boundary
62
5
39
2
10
52.408677
20
438.669546
11
51.438701
21
439.247547
0
LINE
8
boundary
62
5
39
2
10
51.438701
20
439.247547
11
50.474725
21
439.806124
0
LINE
8
boundary
62
5
39
2
10
50.474725
20
439.806124
11
49.516631
21
440.345535
0
LINE
8
boundary
62
5
39
2
10
49.516631
20
440.345535
11
48.564361
21
440.866105
0
LINE
8
boundary
62
5
39
2
10
48.564361
20
440.866105
11
47.617722
21
441.368394
0
LINE
8
boundary
62
5
39
2
10
47.617722
20
441.368394
11
46.676535
21
441.852604
0
LINE
8
boundary
62
5
39
2
10
46.676535
20
441.852604
11
45.740735
21
442.319419
0
LINE
8
boundary
62
5
39
2
10
45.740735
20
442.319419
11
44.810183
21
442.769008
0
LINE
8
boundary
62
5
39
2
10
44.810183
20
442.769008
11
43.884823
21
443.201818
0
LINE
8
boundary
62
5
39
2
10
43.884823
20
443.201818
11
42.964433
21
443.618172
0
LINE
8
boundary
62
5
39
2
10
42.964433
20
443.618172
11
42.048965
21
444.018596
0
LINE
8
boundary
62
5
39
2
10
42.048965
20
444.018596
11
41.138287
21
444.403543
0
LINE
8
boundary
62
5
39
2
10
41.138287
20
444.403543
11
40.232336
21
444.773159
0
LINE
8
boundary
62
5
39
2
10
40.232336
20
444.773159
11
39.330892
21
445.128069
0
LINE
8
boundary
62
5
39
2
10
39.330892
20
445.128069
11
38.433947
21
445.468407
0
LINE
8
boundary
62
5
39
2
10
38.433947
20
445.468407
11
37.541389
21
445.794939
0
LINE
8
boundary
62
5
39
2
10
37.541389
20
445.794939
11
36.653068
21
446.107730
0
LINE
8
boundary
62
5
39
2
10
36.653068
20
446.107730
11
35.768895
21
446.407304
0
LINE
8
boundary
62
5
39
2
10
35.768895
20
446.407304
11
34.888774
21
446.694193
0
LINE
8
boundary
62
5
39
2
10
34.888774
20
446.694193
11
34.012633
21
446.968527
0
LINE
8
boundary
62
5
39
2
10
34.012633
20
446.968527
11
33.140412
21
447.230879
0
LINE
8
boundary
62
5
39
2
10
33.140412
20
447.230879
11
32.271955
21
447.481622
0
LINE
8
boundary
62
5
39
2
10
32.271955
20
447.481622
11
31.407220
21
447.720986
0
LINE
8
boundary
62
5
39
2
10
31.407220
20
447.720986
11
30.546128
21
447.949706
0
LINE
8
boundary
62
5
39
2
10
30.546128
20
447.949706
11
29.688582
21
448.167905
0
LINE
8
boundary
62
5
39
2
10
29.688582
20
448.167905
11
28.834461
21
448.375960
0
LINE
8
boundary
62
5
39
2
10
28.834461
20
448.375960
11
27.466083
21
448.687855
0
LINE
8
boundary
62
5
39
2
10
27.466083
20
448.687855
11
26.800332
21
448.837416
0
LINE
8
boundary
62
5
39
2
10
26.800332
20
448.837416
11
25.782073
21
449.046254
0
LINE
8
boundary
62
5
39
2
10
25.782073
20
449.046254
11
25.114077
21
449.183601
0
LINE
8
boundary
62
5
39
2
10
25.114077
20
449.183601
11
24.110771
21
449.371910
0
LINE
8
boundary
62
5
39
2
10
24.110771
20
449.371910
11
23.440166
21
449.498014
0
LINE
8
boundary
62
5
39
2
10
23.440166
20
449.498014
11
22.451756
21
449.667818
0
LINE
8
boundary
62
5
39
2
10
22.451756
20
449.667818
11
21.778156
21
449.783793
0
LINE
8
boundary
62
5
39
2
10
21.778156
20
449.783793
11
20.804537
21
449.937241
0
LINE
8
boundary
62
5
39
2
10
20.804537
20
449.937241
11
20.127506
21
450.044131
0
LINE
8
boundary
62
5
39
2
10
20.127506
20
450.044131
11
19.168749
21
450.183337
0
LINE
8
boundary
62
5
39
2
10
19.168749
20
450.183337
11
18.487841
21
450.282272
0
LINE
8
boundary
62
5
39
2
10
18.487841
20
450.282272
11
17.544140
21
450.409180
0
LINE
8
boundary
62
5
39
2
10
17.544140
20
450.409180
11
16.858903
21
450.501517
0
LINE
8
boundary
62
5
39
2
10
16.858903
20
450.501517
11
15.930478
21
450.618098
0
LINE
8
boundary
62
5
39
2
10
15.930478
20
450.618098
11
15.240407
21
450.704783
0
LINE
8
boundary
62
5
39
2
10
15.240407
20
450.704783
11
14.327454
21
450.812938
0
LINE
8
boundary
62
5
39
2
10
14.327454
20
450.812938
11
13.631902
21
450.895497
0
LINE
8
boundary
62
5
39
2
10
13.631902
20
450.895497
11
11.823723
21
451.097649
0
LINE
8
boundary
62
5
39
2
10
11.823723
20
451.097649
11
10.444375
21
451.251949
0
LINE
8
boundary
62
5
39
2
10
10.444375
20
451.251949
11
10.349437
21
446.872612
0
LINE
8
boundary
62
5
39
2
10
10.349437
20
446.872612
11
10.263190
21
443.751331
0
LINE
8
boundary
62
5
39
2
10
10.263190
20
443.751331
11
12.847381
21
443.474398
0
LINE
8
boundary
62
5
39
2
10
12.847381
20
443.474398
11
14.655298
21
443.280424
0
LINE
8
boundary
62
5
39
2
10
14.655298
20
443.280424
11
15.432202
21
443.056434
0
LINE
8
boundary
62
5
39
2
10
15.432202
20
443.056434
11
16.691222
21
442.684774
0
LINE
8
boundary
62
5
39
2
10
16.691222
20
442.684774
11
17.256646
21
442.514326
0
LINE
8
boundary
62
5
39
2
10
17.256646
20
442.514326
11
34.998097
21
442.364325
0
LINE
8
boundary
62
5
39
2
10
34.998097
20
442.364325
11
34.998096
21
439.618325
0
LINE
8
boundary
62
5
39
2
10
34.998096
20
439.618325
11
26.033225
21
439.618326
0
LINE
8
boundary
62
5
39
2
10
26.033225
20
439.618326
11
26.575397
21
439.251488
0
LINE
8
boundary
62
5
39
2
10
26.575397
20
439.251488
11
27.291616
21
438.962232
0
LINE
8
boundary
62
5
39
2
10
27.291616
20
438.962232
11
28.389695
21
438.509241
0
LINE
8
boundary
62
5
39
2
10
28.389695
20
438.509241
11
29.472024
21
438.048892
0
LINE
8
boundary
62
5
39
2
10
29.472024
20
438.048892
11
30.538690
21
437.581259
0
LINE
8
boundary
62
5
39
2
10
30.538690
20
437.581259
11
31.589754
21
437.106588
0
LINE
8
boundary
62
5
39
2
10
31.589754
20
437.106588
11
32.625227
21
436.625003
0
LINE
8
boundary
62
5
39
2
10
32.625227
20
436.625003
11
33.645151
21
436.136563
0
LINE
8
boundary
62
5
39
2
10
33.645151
20
436.136563
11
34.649578
21
435.641504
0
LINE
8
boundary
62
5
39
2
10
34.649578
20
435.641504
11
35.638514
21
435.139892
0
LINE
8
boundary
62
5
39
2
10
35.638514
20
435.139892
11
36.612048
21
434.631924
0
LINE
8
boundary
62
5
39
2
10
36.612048
20
434.631924
11
37.570151
21
434.117692
0
LINE
8
boundary
62
5
39
2
10
37.570151
20
434.117692
11
38.512789
21
433.597287
0
LINE
8
boundary
62
5
39
2
10
38.512789
20
433.597287
11
39.440106
21
433.070954
0
LINE
8
boundary
62
5
39
2
10
39.440106
20
433.070954
11
40.352085
21
432.538936
0
LINE
8
boundary
62
5
39
2
10
40.352085
20
432.538936
11
41.248663
21
432.001075
0
LINE
8
boundary
62
5
39
2
10
41.248663
20
432.001075
11
42.129970
21
431.457590
0
LINE
8
boundary
62
5
39
2
10
42.129970
20
431.457590
11
42.995934
21
430.908747
0
LINE
8
boundary
62
5
39
2
10
42.995934
20
430.908747
11
43.846621
21
430.354612
0
LINE
8
boundary
62
5
39
2
10
43.846621
20
430.354612
11
44.682062
21
429.795379
0
LINE
8
boundary
62
5
39
2
10
44.682062
20
429.795379
11
45.502193
21
429.231147
0
LINE
8
boundary
62
5
39
2
10
45.502193
20
429.231147
11
46.307017
21
428.662001
0
LINE
8
boundary
62
5
39
2
10
46.307017
20
428.662001
11
47.096549
21
428.088101
0
LINE
8
boundary
62
5
39
2
10
47.096549
20
428.088101
11
47.870870
21
427.509760
0
LINE
8
boundary
62
5
39
2
10
47.870870
20
427.509760
11
48.629870
21
426.926823
0
LINE
8
boundary
62
5
39
2
10
48.629870
20
426.926823
11
49.373680
21
426.339654
0
LINE
8
boundary
62
5
39
2
10
49.373680
20
426.339654
11
50.102148
21
425.748353
0
LINE
8
boundary
62
5
39
2
10
50.102148
20
425.748353
11
50.815364
21
425.152842
0
LINE
8
boundary
62
5
39
2
10
50.815364
20
425.152842
11
51.513283
21
424.553579
0
LINE
8
boundary
62
5
39
2
10
51.513283
20
424.553579
11
52.195949
21
423.950447
0
LINE
8
boundary
62
5
39
2
10
52.195949
20
423.950447
11
52.863297
21
423.343761
0
LINE
8
boundary
62
5
39
2
10
52.863297
20
423.343761
11
53.515363
21
422.733674
0
LINE
8
boundary
62
5
39
2
10
53.515363
20
422.733674
11
54.152144
21
422.120229
0
LINE
8
boundary
62
5
39
2
10
54.152144
20
422.120229
11
54.773584
21
421.503416
0
LINE
8
boundary
62
5
39
2
10
54.773584
20
421.503416
11
55.379766
21
420.883658
0
LINE
8
boundary
62
5
39
2
10
55.379766
20
420.883658
11
55.970580
21
420.261007
0
LINE
8
boundary
62
5
39
2
10
55.970580
20
420.261007
11
56.546039
21
419.635470
0
LINE
8
boundary
62
5
39
2
10
56.546039
20
419.635470
11
57.106118
21
419.007324
0
LINE
8
boundary
62
5
39
2
10
57.106118
20
419.007324
11
57.650930
21
418.376769
0
LINE
8
boundary
62
5
39
2
10
57.650930
20
418.376769
11
58.180293
21
417.743646
0
LINE
8
boundary
62
5
39
2
10
58.180293
20
417.743646
11
58.694305
21
417.108393
0
LINE
8
boundary
62
5
39
2
10
58.694305
20
417.108393
11
59.192888
21
416.471173
0
LINE
8
boundary
62
5
39
2
10
59.192888
20
416.471173
11
59.676082
21
415.831898
0
LINE
8
boundary
62
5
39
2
10
59.676082
20
415.831898
11
60.143862
21
415.190869
0
LINE
8
boundary
62
5
39
2
10
60.143862
20
415.190869
11
60.596235
21
414.548023
0
LINE
8
boundary
62
5
39
2
10
60.596235
20
414.548023
11
61.033121
21
413.903755
0
LINE
8
boundary
62
5
39
2
10
61.033121
20
413.903755
11
61.454535
21
413.258159
0
LINE
8
boundary
62
5
39
2
10
61.454535
20
413.258159
11
61.860542
21
412.611174
0
LINE
8
boundary
62
5
39
2
10
61.860542
20
412.611174
11
62.251045
21
411.963269
0
LINE
8
boundary
62
5
39
2
10
62.251045
20
411.963269
11
62.626094
21
411.314242
0
LINE
8
boundary
62
5
39
2
10
62.626094
20
411.314242
11
62.985584
21
410.664435
0
LINE
8
boundary
62
5
39
2
10
62.985584
20
410.664435
11
63.329510
21
410.013943
0
LINE
8
boundary
62
5
39
2
10
63.329510
20
410.013943
11
63.657979
21
409.362914
0
LINE
8
boundary
62
5
39
2
10
63.657979
20
409.362914
11
63.970884
21
408.711564
0
LINE
8
boundary
62
5
39
2
10
63.970884
20
408.711564
11
64.268214
21
408.059843
0
LINE
8
boundary
62
5
39
2
10
64.268214
20
408.059843
11
64.402072
21
407.186399
0
LINE
8
boundary
62
5
39
2
10
64.402072
20
407.186399
11
64.485921
21
406.207077
0
LINE
8
boundary
62
5
39
2
10
64.485921
20
406.207077
11
64.592019
21
405.214120
0
LINE
8
boundary
62
5
39
2
10
64.592019
20
405.214120
11
64.714639
21
404.210824
0
LINE
8
boundary
62
5
39
2
10
64.714639
20
404.210824
11
64.947542
21
402.481446
0
LINE
8
boundary
62
5
39
2
10
64.947542
20
402.481446
11
65.025007
21
401.894859
0
LINE
8
boundary
62
5
39
2
10
65.025007
20
401.894859
11
65.214614
21
400.455777
0
LINE
8
boundary
62
5
39
2
10
65.214614
20
400.455777
11
65.288078
21
399.878449
0
LINE
8
boundary
62
5
39
2
10
65.288078
20
399.878449
11
65.369448
21
399.163673
0
LINE
8
boundary
62
5
39
2
10
65.369448
20
399.163673
11
65.467336
21
398.172468
0
LINE
8
boundary
62
5
39
2
10
65.467336
20
398.172468
11
65.540164
21
397.195681
0
LINE
8
boundary
62
5
39
2
10
65.540164
20
397.195681
11
65.582006
21
396.236577
0
LINE
8
boundary
62
5
39
2
10
65.582006
20
396.236577
11
65.586699
21
395.298733
0
LINE
8
boundary
62
5
39
2
10
65.586699
20
395.298733
11
65.570830
21
394.712325
0
LINE
8
boundary
62
5
39
2
10
65.570830
20
394.712325
11
65.534280
21
394.139285
0
LINE
8
boundary
62
5
39
2
10
65.534280
20
394.139285
11
65.448619
21
393.382120
0
LINE
8
boundary
62
5
39
2
10
65.448619
20
393.382120
11
65.361602
21
392.839933
0
LINE
8
boundary
62
5
39
2
10
65.361602
20
392.839933
11
65.200198
21
392.124790
0
LINE
8
boundary
62
5
39
2
10
65.200198
20
392.124790
11
65.054446
21
391.618543
0
LINE
8
boundary
62
5
39
2
10
65.054446
20
391.618543
11
64.805067
21
390.952467
0
LINE
8
boundary
62
5
39
2
10
64.805067
20
390.952467
11
64.592390
21
390.487072
0
LINE
8
boundary
62
5
39
2
10
64.592390
20
390.487072
11
64.242518
21
389.877074
0
LINE
8
boundary
62
5
39
2
10
64.242518
20
389.877074
11
63.954936
21
389.457538
0
LINE
8
boundary
62
5
39
2
10
63.954936
20
389.457538
11
63.491962
21
388.910749
0
LINE
8
boundary
62
5
39
2
10
63.491962
20
388.910749
11
63.121593
21
388.541892
0
LINE
8
boundary
62
5
39
2
10
63.121593
20
388.541892
11
62.532899
21
388.065548
0
LINE
8
boundary
62
5
39
2
10
62.532899
20
388.065548
11
62.072267
21
387.751989
0
LINE
8
boundary
62
5
39
2
10
62.072267
20
387.751989
11
61.344638
21
387.353382
0
LINE
8
boundary
62
5
39
2
10
61.344638
20
387.353382
11
60.786662
21
387.099849
0
LINE
8
boundary
62
5
39
2
10
60.786662
20
387.099849
11
60.302174
21
386.915079
0
LINE
8
boundary
62
5
39
2
10
60.302174
20
386.915079
11
59.788537
21
386.747476
0
LINE
8
boundary
62
5
39
2
10
59.788537
20
386.747476
11
59.244941
21
386.597272
0
LINE
8
boundary
62
5
39
2
10
59.244941
20
386.597272
11
58.670651
21
386.465105
0
LINE
8
boundary
62
5
39
2
10
58.670651
20
386.465105
11
58.065010
21
386.351071
0
LINE
8
boundary
62
5
39
2
10
58.065010
20
386.351071
11
57.427323
21
386.256035
0
LINE
8
boundary
62
5
39
2
10
57.427323
20
386.256035
11
56.901417
21
386.196858
0
LINE
8
boundary
62
5
39
2
10
56.901417
20
386.196858
11
56.202283
21
386.136245
0
LINE
8
boundary
62
5
39
2
10
56.202283
20
386.136245
11
55.468721
21
386.095716
0
LINE
8
boundary
62
5
39
2
10
55.468721
20
386.095716
11
54.700042
21
386.075767
0
LINE
8
boundary
62
5
39
2
10
54.700042
20
386.075767
11
53.895633
21
386.076735
0
LINE
8
boundary
62
5
39
2
10
53.895633
20
386.076735
11
53.054646
21
386.099312
0
LINE
8
boundary
62
5
39
2
10
53.054646
20
386.099312
11
52.176357
21
386.143559
0
LINE
8
boundary
62
5
39
2
10
52.176357
20
386.143559
11
51.260144
21
386.210188
0
LINE
8
boundary
62
5
39
2
10
51.260144
20
386.210188
11
50.305340
21
386.299555
0
LINE
8
boundary
62
5
39
2
10
50.305340
20
386.299555
11
48.709419
21
386.846821
0
LINE
8
boundary
62
5
39
2
10
48.709419
20
386.846821
11
47.012293
21
387.467918
0
LINE
8
boundary
62
5
39
2
10
47.012293
20
387.467918
11
45.355120
21
388.055844
0
LINE
8
boundary
62
5
39
2
10
45.355120
20
388.055844
11
43.728877
21
388.611340
0
LINE
8
boundary
62
5
39
2
10
43.728877
20
388.611340
11
42.124705
21
389.135159
0
LINE
8
boundary
62
5
39
2
10
42.124705
20
389.135159
11
40.533560
21
389.628284
0
LINE
8
boundary
62
5
39
2
10
40.533560
20
389.628284
11
38.946649
21
390.091170
0
LINE
8
boundary
62
5
39
2
10
38.946649
20
390.091170
11
37.354960
21
390.524662
0
LINE
8
boundary
62
5
39
2
10
37.354960
20
390.524662
11
35.749492
21
390.929481
0
LINE
8
boundary
62
5
39
2
10
35.749492
20
390.929481
11
34.121282
21
391.306392
0
LINE
8
boundary
62
5
39
2
10
34.121282
20
391.306392
11
32.461346
21
391.655754
0
LINE
8
boundary
62
5
39
2
10
32.461346
20
391.655754
11
30.760515
21
391.978722
0
LINE
8
boundary
62
5
39
2
10
30.760515
20
391.978722
11
29.009609
21
392.275694
0
LINE
8
boundary
62
5
39
2
10
29.009609
20
392.275694
11
27.199251
21
392.547344
0
LINE
8
boundary
62
5
39
2
10
27.199251
20
392.547344
11
25.319977
21
392.794334
0
LINE
8
boundary
62
5
39
2
10
25.319977
20
392.794334
11
23.361969
21
393.017210
0
LINE
8
boundary
62
5
39
2
10
23.361969
20
393.017210
11
23.139363
21
386.481645
0
LINE
8
boundary
62
5
39
2
10
23.139363
20
386.481645
11
22.658266
21
373.775692
0
LINE
8
boundary
62
5
39
2
10
22.658266
20
373.775692
11
23.447069
21
370.929985
0
LINE
8
boundary
62
5
39
2
10
23.447069
20
370.929985
11
26.688746
21
359.302867
0
LINE
8
boundary
62
5
39
2
10
26.688746
20
359.302867
11
35.996368
21
359.152867
0
LINE
8
boundary
62
5
39
2
10
35.996368
20
359.152867
11
35.996368
21
356.406867
0
LINE
8
boundary
62
5
39
2
10
35.996368
20
356.406867
11
27.548280
21
356.406866
0
LINE
8
boundary
62
5
39
2
10
27.548280
20
356.406866
11
33.141976
21
336.156678
0
LINE
8
boundary
62
5
39
2
10
33.141976
20
336.156678
11
33.853889
21
333.919444
0
LINE
8
boundary
62
5
39
2
10
33.853889
20
333.919444
11
34.527685
21
331.673552
0
LINE
8
boundary
62
5
39
2
10
34.527685
20
331.673552
11
35.163649
21
329.419325
0
LINE
8
boundary
62
5
39
2
10
35.163649
20
329.419325
11
35.761750
21
327.157070
0
LINE
8
boundary
62
5
39
2
10
35.761750
20
327.157070
11
36.322473
21
324.886929
0
LINE
8
boundary
62
5
39
2
10
36.322473
20
324.886929
11
36.845973
21
322.609197
0
LINE
8
boundary
62
5
39
2
10
36.845973
20
322.609197
11
37.332472
21
320.324188
0
LINE
8
boundary
62
5
39
2
10
37.332472
20
320.324188
11
37.782161
21
318.032158
0
LINE
8
boundary
62
5
39
2
10
37.782161
20
318.032158
11
38.195448
21
315.733107
0
LINE
8
boundary
62
5
39
2
10
38.195448
20
315.733107
11
38.572520
21
313.427663
0
LINE
8
boundary
62
5
39
2
10
38.572520
20
313.427663
11
38.913627
21
311.115727
0
LINE
8
boundary
62
5
39
2
10
38.913627
20
311.115727
11
39.219062
21
308.797865
0
LINE
8
boundary
62
5
39
2
10
39.219062
20
308.797865
11
39.489256
21
306.474176
0
LINE
8
boundary
62
5
39
2
10
39.489256
20
306.474176
11
39.724357
21
304.144875
0
LINE
8
boundary
62
5
39
2
10
39.724357
20
304.144875
11
39.924789
21
301.810286
0
LINE
8
boundary
62
5
39
2
10
39.924789
20
301.810286
11
40.090606
21
299.470658
0
LINE
8
boundary
62
5
39
2
10
40.090606
20
299.470658
11
40.222535
21
297.126199
0
LINE
8
boundary
62
5
39
2
10
40.222535
20
297.126199
11
40.320623
21
294.777186
0
LINE
8
boundary
62
5
39
2
10
40.320623
20
294.777186
11
40.385234
21
292.423908
0
LINE
8
boundary
62
5
39
2
10
40.385234
20
292.423908
11
40.416892
21
290.066387
0
LINE
8
boundary
62
5
39
2
10
40.416892
20
290.066387
11
40.415751
21
287.705324
0
LINE
8
boundary
62
5
39
2
10
40.415751
20
287.705324
11
40.382260
21
285.340583
0
LINE
8
boundary
62
5
39
2
10
40.382260
20
285.340583
11
40.316695
21
282.972670
0
LINE
8
boundary
62
5
39
2
10
40.316695
20
282.972670
11
40.219587
21
280.601640
0
LINE
8
boundary
62
5
39
2
10
40.219587
20
280.601640
11
40.091162
21
278.227858
0
LINE
8
boundary
62
5
39
2
10
40.091162
20
278.227858
11
39.931993
21
275.851604
0
LINE
8
boundary
62
5
39
2
10
39.931993
20
275.851604
11
39.742228
21
273.473113
0
LINE
8
boundary
62
5
39
2
10
39.742228
20
273.473113
11
39.522490
21
271.092634
0
LINE
8
boundary
62
5
39
2
10
39.522490
20
271.092634
11
39.466735
21
270.576489
0
LINE
8
boundary
62
5
39
2
10
39.466735
20
270.576489
11
39.273108
21
268.710609
0
LINE
8
boundary
62
5
39
2
10
39.273108
20
268.710609
11
39.209411
21
268.181040
0
LINE
8
boundary
62
5
39
2
10
39.209411
20
268.181040
11
38.994462
21
266.327075
0
LINE
8
boundary
62
5
39
2
10
38.994462
20
266.327075
11
38.922564
21
265.783637
0
LINE
8
boundary
62
5
39
2
10
38.922564
20
265.783637
11
38.686959
21
263.942398
0
LINE
8
boundary
62
5
39
2
10
38.686959
20
263.942398
11
38.606569
21
263.384719
0
LINE
8
boundary
62
5
39
2
10
38.606569
20
263.384719
11
38.351134
21
261.556947
0
LINE
8
boundary
62
5
39
2
10
38.351134
20
261.556947
11
38.261946
21
260.984643
0
LINE
8
boundary
62
5
39
2
10
38.261946
20
260.984643
11
37.987331
21
259.170904
0
LINE
8
boundary
62
5
39
2
10
37.987331
20
259.170904
11
37.889066
21
258.583578
0
LINE
8
boundary
62
5
39
2
10
37.889066
20
258.583578
11
37.596079
21
256.784640
0
LINE
8
boundary
62
5
39
2
10
37.596079
20
256.784640
11
37.488379
21
256.181907
0
LINE
8
boundary
62
5
39
2
10
37.488379
20
256.181907
11
37.177708
21
254.398468
0
LINE
8
boundary
62
5
39
2
10
37.177708
20
254.398468
11
37.060271
21
253.779937
0
LINE
8
boundary
62
5
39
2
10
37.060271
20
253.779937
11
36.732689
21
252.012581
0
LINE
8
boundary
62
5
39
2
10
36.732689
20
252.012581
11
36.605216
21
251.377856
0
LINE
8
boundary
62
5
39
2
10
36.605216
20
251.377856
11
36.261554
21
249.627322
0
LINE
8
boundary
62
5
39
2
10
36.261554
20
249.627322
11
36.123714
21
248.976054
0
LINE
8
boundary
62
5
39
2
10
36.123714
20
248.976054
11
35.764808
21
247.243151
0
LINE
8
boundary
62
5
39
2
10
35.764808
20
247.243151
11
35.616269
21
246.574909
0
LINE
8
boundary
62
5
39
2
10
35.616269
20
246.574909
11
35.242907
21
244.860250
0
LINE
8
boundary
62
5
39
2
10
35.242907
20
244.860250
11
35.083292
21
244.174679
0
LINE
8
boundary
62
5
39
2
10
35.083292
20
244.174679
11
34.696229
21
242.478970
0
LINE
8
boundary
62
5
39
2
10
34.696229
20
242.478970
11
34.525237
21
241.775699
0
LINE
8
boundary
62
5
39
2
10
34.525237
20
241.775699
11
34.125382
21
240.099689
0
LINE
8
boundary
62
5
39
2
10
34.125382
20
240.099689
11
33.942651
21
239.378309
0
LINE
8
boundary
62
5
39
2
10
33.942651
20
239.378309
11
33.530829
21
237.722737
0
LINE
8
boundary
62
5
39
2
10
33.530829
20
237.722737
11
33.336031
21
236.982843
0
LINE
8
boundary
62
5
39
2
10
33.336031
20
236.982843
11
32.913120
21
235.348450
0
LINE
8
boundary
62
5
39
2
10
32.913120
20
235.348450
11
32.705870
21
234.589683
0
LINE
8
boundary
62
5
39
2
10
32.705870
20
234.589683
11
32.272750
21
232.977215
0
LINE
8
boundary
62
5
39
2
10
32.272750
20
232.977215
11
32.052683
21
232.199176
0
LINE
8
boundary
62
5
39
2
10
32.052683
20
232.199176
11
31.610201
21
230.609384
0
LINE
8
boundary
62
5
39
2
10
31.610201
20
230.609384
11
31.376964
21
229.811647
0
LINE
8
boundary
62
5
39
2
10
31.376964
20
229.811647
11
30.926067
21
228.245306
0
LINE
8
boundary
62
5
39
2
10
30.926067
20
228.245306
11
30.679291
21
227.427479
0
LINE
8
boundary
62
5
39
2
10
30.679291
20
227.427479
11
30.220864
21
225.885415
0
LINE
8
boundary
62
5
39
2
10
30.220864
20
225.885415
11
29.960165
21
225.047086
0
LINE
8
boundary
62
5
39
2
10
29.960165
20
225.047086
11
29.495145
21
223.530056
0
LINE
8
boundary
62
5
39
2
10
29.495145
20
223.530056
11
29.220181
21
222.670781
0
LINE
8
boundary
62
5
39
2
10
29.220181
20
222.670781
11
28.749587
21
221.179589
0
LINE
8
boundary
62
5
39
2
10
28.749587
20
221.179589
11
28.459921
21
220.298958
0
LINE
8
boundary
62
5
39
2
10
28.459921
20
220.298958
11
27.984621
21
218.834568
0
LINE
8
boundary
62
5
39
2
10
27.984621
20
218.834568
11
27.679841
21
217.932105
0
LINE
8
boundary
62
5
39
2
10
27.679841
20
217.932105
11
27.200835
21
216.495238
0
LINE
8
boundary
62
5
39
2
10
27.200835
20
216.495238
11
26.880605
21
215.570516
0
LINE
8
boundary
62
5
39
2
10
26.880605
20
215.570516
11
26.398935
21
214.162167
0
LINE
8
boundary
62
5
39
2
10
26.398935
20
214.162167
11
26.062791
21
213.214687
0
LINE
8
boundary
62
5
39
2
10
26.062791
20
213.214687
11
25.579416
21
211.835730
0
LINE
8
boundary
62
5
39
2
10
25.579416
20
211.835730
11
25.226923
21
210.865007
0
LINE
8
boundary
62
5
39
2
10
25.226923
20
210.865007
11
24.742852
21
209.516321
0
LINE
8
boundary
62
5
39
2
10
24.742852
20
209.516321
11
24.373630
21
208.521779
0
LINE
8
boundary
62
5
39
2
10
24.373630
20
208.521779
11
23.889989
21
207.204405
0
LINE
8
boundary
62
5
39
2
10
23.889989
20
207.204405
11
23.503611
21
206.185548
0
LINE
8
boundary
62
5
39
2
10
23.503611
20
206.185548
11
23.021472
21
204.900406
0
LINE
8
boundary
62
5
39
2
10
23.021472
20
204.900406
11
22.617448
21
203.856699
0
LINE
8
boundary
62
5
39
2
10
22.617448
20
203.856699
11
22.137899
21
202.604893
0
LINE
8
boundary
62
5
39
2
10
22.137899
20
202.604893
11
21.715724
21
201.535665
0
LINE
8
boundary
62
5
39
2
10
21.715724
20
201.535665
11
21.239837
21
200.318270
0
LINE
8
boundary
62
5
39
2
10
21.239837
20
200.318270
11
20.329658
21
198.076639
0
LINE
8
boundary
62
5
39
2
10
20.329658
20
198.076639
11
19.403216
21
195.773484
0
LINE
8
boundary
62
5
39
2
10
19.403216
20
195.773484
11
18.412655
21
193.418193
0
LINE
8
boundary
62
5
39
2
10
18.412655
20
193.418193
11
17.517009
21
191.270067
0
LINE
8
boundary
62
5
39
2
10
17.517009
20
191.270067
11
16.441394
21
188.794362
0
LINE
8
boundary
62
5
39
2
10
16.441394
20
188.794362
11
15.586964
21
186.811958
0
LINE
8
boundary
62
5
39
2
10
15.586964
20
186.811958
11
14.935085
21
184.095129
0
LINE
8
boundary
62
5
39
2
10
14.935085
20
184.095129
11
14.449202
21
182.057566
0
LINE
8
boundary
62
5
39
2
10
14.449202
20
182.057566
11
13.775686
21
179.190041
0
LINE
8
boundary
62
5
39
2
10
13.775686
20
179.190041
11
13.295295
21
177.133850
0
LINE
8
boundary
62
5
39
2
10
13.295295
20
177.133850
11
12.958080
21
175.656940
0
LINE
8
boundary
62
5
39
2
10
12.958080
20
175.656940
11
12.720279
21
174.610563
0
LINE
8
boundary
62
5
39
2
10
12.720279
20
174.610563
11
12.384217
21
173.100127
0
LINE
8
boundary
62
5
39
2
10
12.384217
20
173.100127
11
12.151006
21
172.047437
0
LINE
8
boundary
62
5
39
2
10
12.151006
20
172.047437
11
11.818583
21
170.505477
0
LINE
8
boundary
62
5
39
2
10
11.818583
20
170.505477
11
11.590828
21
169.445172
0
LINE
8
boundary
62
5
39
2
10
11.590828
20
169.445172
11
11.264567
21
167.874365
0
LINE
8
boundary
62
5
39
2
10
11.264567
20
167.874365
11
11.043072
21
166.804670
0
LINE
8
boundary
62
5
39
2
10
11.043072
20
166.804670
11
10.725636
21
165.208015
0
LINE
8
boundary
62
5
39
2
10
10.725636
20
165.208015
11
10.511188
21
164.126648
0
LINE
8
boundary
62
5
39
2
10
10.511188
20
164.126648
11
10.205328
21
162.507792
0
LINE
8
boundary
62
5
39
2
10
10.205328
20
162.507792
11
9.998625
21
161.411857
0
LINE
8
boundary
62
5
39
2
10
9.998625
20
161.411857
11
9.707071
21
159.775067
0
LINE
8
boundary
62
5
39
2
10
9.707071
20
159.775067
11
9.508842
21
158.661153
0
LINE
8
boundary
62
5
39
2
10
9.508842
20
158.661153
11
9.234469
21
157.011206
0
LINE
8
boundary
62
5
39
2
10
9.234469
20
157.011206
11
9.045545
21
155.875180
0
LINE
8
boundary
62
5
39
2
10
9.045545
20
155.875180
11
8.790975
21
154.217562
0
LINE
8
boundary
62
5
39
2
10
8.790975
20
154.217562
11
8.612187
21
153.054747
0
LINE
8
boundary
62
5
39
2
10
8.612187
20
153.054747
11
8.380042
21
151.395493
0
LINE
8
boundary
62
5
39
2
10
8.380042
20
151.395493
11
8.212424
21
150.200516
0
LINE
8
boundary
62
5
39
2
10
8.212424
20
150.200516
11
8.005260
21
148.546387
0
LINE
8
boundary
62
5
39
2
10
8.005260
20
148.546387
11
7.850136
21
147.313226
0
LINE
8
boundary
62
5
39
2
10
7.850136
20
147.313226
11
7.670020
21
145.671590
0
LINE
8
boundary
62
5
39
2
10
7.670020
20
145.671590
11
7.528843
21
144.393638
0
LINE
8
boundary
62
5
39
2
10
7.528843
20
144.393638
11
7.377668
21
142.772390
0
LINE
8
boundary
62
5
39
2
10
7.377668
20
142.772390
11
7.252407
21
141.442422
0
LINE
8
boundary
62
5
39
2
10
7.252407
20
141.442422
11
7.131661
21
139.849986
0
LINE
8
boundary
62
5
39
2
10
7.131661
20
139.849986
11
7.024688
21
138.460213
0
LINE
8
boundary
62
5
39
2
10
7.024688
20
138.460213
11
6.935317
21
136.905548
0
LINE
8
boundary
62
5
39
2
10
6.935317
20
136.905548
11
6.849519
21
135.447792
0
LINE
8
boundary
62
5
39
2
10
6.849519
20
135.447792
11
6.816758
21
134.688248
0
LINE
8
boundary
62
5
39
2
10
6.816758
20
134.688248
11
6.782916
21
133.930466
0
LINE
8
boundary
62
5
39
2
10
6.782916
20
133.930466
11
6.758033
21
133.183852
0
LINE
8
boundary
62
5
39
2
10
6.758033
20
133.183852
11
6.730843
21
132.405843
0
LINE
8
boundary
62
5
39
2
10
6.730843
20
132.405843
11
6.713919
21
131.673343
0
LINE
8
boundary
62
5
39
2
10
6.713919
20
131.673343
11
6.694000
21
130.873948
0
LINE
8
boundary
62
5
39
2
10
6.694000
20
130.873948
11
6.684784
21
130.156886
0
LINE
8
boundary
62
5
39
2
10
6.684784
20
130.156886
11
6.672689
21
129.335024
0
LINE
8
boundary
62
5
39
2
10
6.672689
20
129.335024
11
6.671107
21
128.634576
0
LINE
8
boundary
62
5
39
2
10
6.671107
20
128.634576
11
6.667500
21
127.789088
0
LINE
8
boundary
62
5
39
2
10
6.667500
20
127.789088
11
6.673359
21
127.106467
0
LINE
8
boundary
62
5
39
2
10
6.673359
20
127.106467
11
6.678939
21
126.236186
0
LINE
8
boundary
62
5
39
2
10
6.678939
20
126.236186
11
6.692019
21
125.572600
0
LINE
8
boundary
62
5
39
2
10
6.692019
20
125.572600
11
6.707647
21
124.676369
0
LINE
8
boundary
62
5
39
2
10
6.707647
20
124.676369
11
6.727547
21
124.033107
0
LINE
8
boundary
62
5
39
2
10
6.727547
20
124.033107
11
6.753886
21
123.109831
0
LINE
8
boundary
62
5
39
2
10
6.753886
20
123.109831
11
6.780291
21
122.488080
0
LINE
8
boundary
62
5
39
2
10
6.780291
20
122.488080
11
6.818262
21
121.536684
0
LINE
8
boundary
62
5
39
2
10
6.818262
20
121.536684
11
6.850726
21
120.937596
0
LINE
8
boundary
62
5
39
2
10
6.850726
20
120.937596
11
6.901231
21
119.956887
0
LINE
8
boundary
62
5
39
2
10
6.901231
20
119.956887
11
6.939371
21
119.381641
0
LINE
8
boundary
62
5
39
2
10
6.939371
20
119.381641
11
7.003465
21
118.370663
0
LINE
8
boundary
62
5
39
2
10
7.003465
20
118.370663
11
7.046706
21
117.820402
0
LINE
8
boundary
62
5
39
2
10
7.046706
20
117.820402
11
7.125441
21
116.778100
0
LINE
8
boundary
62
5
39
2
10
7.125441
20
116.778100
11
7.173173
21
116.253878
0
LINE
8
boundary
62
5
39
2
10
7.173173
20
116.253878
11
7.267603
21
115.179254
0
LINE
8
boundary
62
5
39
2
10
7.267603
20
115.179254
11
7.430541
21
113.574210
0
LINE
8
boundary
62
5
39
2
10
7.430541
20
113.574210
11
7.614690
21
111.963141
0
LINE
8
boundary
62
5
39
2
10
7.614690
20
111.963141
11
7.820557
21
110.346145
0
LINE
8
boundary
62
5
39
2
10
7.820557
20
110.346145
11
8.048978
21
108.723303
0
LINE
8
boundary
62
5
39
2
10
8.048978
20
108.723303
11
8.300171
21
107.094724
0
LINE
8
boundary
62
5
39
2
10
8.300171
20
107.094724
11
8.574668
21
105.460614
0
LINE
8
boundary
62
5
39
2
10
8.574668
20
105.460614
11
8.873155
21
103.821044
0
LINE
8
boundary
62
5
39
2
10
8.873155
20
103.821044
11
9.196019
21
102.176109
0
LINE
8
boundary
62
5
39
2
10
9.196019
20
102.176109
11
9.544030
21
100.525990
0
LINE
8
boundary
62
5
39
2
10
9.544030
20
100.525990
11
9.917557
21
98.870870
0
LINE
8
boundary
62
5
39
2
10
9.917557
20
98.870870
11
10.317076
21
97.210831
0
LINE
8
boundary
62
5
39
2
10
10.317076
20
97.210831
11
10.743216
21
95.546063
0
LINE
8
boundary
62
5
39
2
10
10.743216
20
95.546063
11
11.196539
21
93.876780
0
LINE
8
boundary
62
5
39
2
10
11.196539
20
93.876780
11
11.949423
21
89.854039
0
LINE
8
boundary
62
5
39
2
10
11.949423
20
89.854039
11
12.078875
21
89.081091
0
LINE
8
boundary
62
5
39
2
10
12.078875
20
89.081091
11
12.885170
21
84.262316
0
LINE
8
boundary
62
5
39
2
10
12.885170
20
84.262316
11
13.354303
21
81.531253
0
LINE
8
boundary
62
5
39
2
10
13.354303
20
81.531253
11
13.824231
21
78.908572
0
LINE
8
boundary
62
5
39
2
10
13.824231
20
78.908572
11
14.325966
21
76.236301
0
LINE
8
boundary
62
5
39
2
10
14.325966
20
76.236301
11
14.864902
21
73.518552
0
LINE
8
boundary
62
5
39
2
10
14.864902
20
73.518552
11
14.965416
21
72.997190
0
LINE
8
boundary
62
5
39
2
10
14.965416
20
72.997190
11
15.446570
21
70.759610
0
LINE
8
boundary
62
5
39
2
10
15.446570
20
70.759610
11
15.573485
21
70.143455
0
LINE
8
boundary
62
5
39
2
10
15.573485
20
70.143455
11
16.076470
21
67.963750
0
LINE
8
boundary
62
5
39
2
10
16.076470
20
67.963750
11
16.234097
21
67.251138
0
LINE
8
boundary
62
5
39
2
10
16.234097
20
67.251138
11
16.760158
21
65.135422
0
LINE
8
boundary
62
5
39
2
10
16.760158
20
65.135422
11
16.953355
21
64.325497
0
LINE
8
boundary
62
5
39
2
10
16.953355
20
64.325497
11
17.227158
21
63.285859
0
LINE
8
boundary
62
5
39
2
10
17.227158
20
63.285859
11
17.616858
21
61.830257
0
LINE
8
boundary
62
5
39
2
10
17.616858
20
61.830257
11
18.023566
21
60.368891
0
LINE
8
boundary
62
5
39
2
10
18.023566
20
60.368891
11
18.448029
21
58.902457
0
LINE
8
boundary
62
5
39
2
10
18.448029
20
58.902457
11
18.592691
21
58.395763
0
LINE
8
boundary
62
5
39
2
10
18.592691
20
58.395763
11
18.890974
21
57.431627
0
LINE
8
boundary
62
5
39
2
10
18.890974
20
57.431627
11
19.048843
21
56.901136
0
LINE
8
boundary
62
5
39
2
10
19.048843
20
56.901136
11
19.353272
21
55.957028
0
LINE
8
boundary
62
5
39
2
10
19.353272
20
55.957028
11
19.525135
21
55.403104
0
LINE
8
boundary
62
5
39
2
10
19.525135
20
55.403104
11
19.835640
21
54.479368
0
LINE
8
boundary
62
5
39
2
10
19.835640
20
54.479368
11
20.022308
21
53.902413
0
LINE
8
boundary
62
5
39
2
10
20.022308
20
53.902413
11
20.338844
21
52.999415
0
LINE
8
boundary
62
5
39
2
10
20.338844
20
52.999415
11
20.541163
21
52.399939
0
LINE
8
boundary
62
5
39
2
10
20.541163
20
52.399939
11
20.863605
21
51.517854
0
LINE
8
boundary
62
5
39
2
10
20.863605
20
51.517854
11
21.082432
21
50.896338
0
LINE
8
boundary
62
5
39
2
10
21.082432
20
50.896338
11
21.410733
21
50.035405
0
LINE
8
boundary
62
5
39
2
10
21.410733
20
50.035405
11
21.646948
21
49.392482
0
LINE
8
boundary
62
5
39
2
10
21.646948
20
49.392482
11
21.981083
21
48.552936
0
LINE
8
boundary
62
5
39
2
10
21.981083
20
48.552936
11
22.235573
21
47.889318
0
LINE
8
boundary
62
5
39
2
10
22.235573
20
47.889318
11
22.575418
21
47.071187
0
LINE
8
boundary
62
5
39
2
10
22.575418
20
47.071187
11
22.849108
21
46.387598
0
LINE
8
boundary
62
5
39
2
10
22.849108
20
46.387598
11
23.194497
21
45.590973
0
LINE
8
boundary
62
5
39
2
10
23.194497
20
45.590973
11
23.488247
21
44.888209
0
LINE
8
boundary
62
5
39
2
10
23.488247
20
44.888209
11
23.839047
21
44.113135
0
LINE
8
boundary
62
5
39
2
10
23.839047
20
44.113135
11
24.153726
21
43.392135
0
LINE
8
boundary
62
5
39
2
10
24.153726
20
43.392135
11
24.509958
21
42.638531
0
LINE
8
boundary
62
5
39
2
10
24.509958
20
42.638531
11
24.846553
21
41.900171
0
LINE
8
boundary
62
5
39
2
10
24.846553
20
41.900171
11
25.208015
21
41.168043
0
LINE
8
boundary
62
5
39
2
10
25.208015
20
41.168043
11
25.567410
21
40.413441
0
LINE
8
boundary
62
5
39
2
10
25.567410
20
40.413441
11
25.934066
21
39.702655
0
LINE
8
boundary
62
5
39
2
10
25.934066
20
39.702655
11
26.317144
21
38.932862
0
LINE
8
boundary
62
5
39
2
10
26.317144
20
38.932862
11
26.688861
21
38.243289
0
LINE
8
boundary
62
5
39
2
10
26.688861
20
38.243289
11
27.096543
21
37.459447
0
LINE
8
boundary
62
5
39
2
10
27.096543
20
37.459447
11
27.473177
21
36.790902
0
LINE
8
boundary
62
5
39
2
10
27.473177
20
36.790902
11
27.906269
21
35.994223
0
LINE
8
boundary
62
5
39
2
10
27.906269
20
35.994223
11
28.287910
21
35.346500
0
LINE
8
boundary
62
5
39
2
10
28.287910
20
35.346500
11
28.747446
21
34.538296
0
LINE
8
boundary
62
5
39
2
10
28.747446
20
34.538296
11
29.133885
21
33.911179
0
LINE
8
boundary
62
5
39
2
10
29.133885
20
33.911179
11
29.620575
21
33.092821
0
LINE
8
boundary
62
5
39
2
10
29.620575
20
33.092821
11
30.011765
21
32.486053
0
LINE
8
boundary
62
5
39
2
10
30.011765
20
32.486053
11
30.526432
21
31.658927
0
LINE
8
boundary
62
5
39
2
10
30.526432
20
31.658927
11
30.922437
21
31.072203
0
LINE
8
boundary
62
5
39
2
10
30.922437
20
31.072203
11
31.466020
21
30.237739
0
LINE
8
boundary
62
5
39
2
10
31.466020
20
30.237739
11
31.866812
21
29.670746
0
LINE
8
boundary
62
5
39
2
10
31.866812
20
29.670746
11
32.440092
21
28.830497
0
LINE
8
annotation
62
1
39
211
10
42.656467
20
355.379866
11
42.656467
21
360.179866
0
LINE
8
annotation
62
1
39
211
10
42.656467
20
360.179866
11
41.589366
21
359.112464
0
LINE
8
annotation
62
1
39
211
10
41.691267
20
438.760836
11
39.710072
21
438.760836
0
LINE
8
annotation
62
1
39
211
10
39.710072
20
438.760836
11
41.540761
21
441.708011
0
LINE
8
annotation
62
1
39
211
10
41.540761
20
441.708011
11
41.540761
21
441.708011
0
LINE
8
annotation
62
1
39
211
10
41.540761
20
441.708011
11
41.542949
21
441.710719
0
LINE
8
annotation
62
1
39
211
10
41.542949
20
441.710719
11
41.545048
21
441.713450
0
LINE
8
annotation
62
1
39
211
10
41.545048
20
441.713450
11
41.547071
21
441.716227
0
LINE
8
annotation
62
1
39
211
10
41.547071
20
441.716227
11
41.549031
21
441.719074
0
LINE
8
annotation
62
1
39
211
10
41.549031
20
441.719074
11
41.550944
21
441.722012
0
LINE
8
annotation
62
1
39
211
10
41.550944
20
441.722012
11
41.552821
21
441.725065
0
LINE
8
annotation
62
1
39
211
10
41.552821
20
441.725065
11
41.554678
21
441.728257
0
LINE
8
annotation
62
1
39
211
10
41.554678
20
441.728257
11
41.556528
21
441.731610
0
LINE
8
annotation
62
1
39
211
10
41.556528
20
441.731610
11
41.558385
21
441.735147
0
LINE
8
annotation
62
1
39
211
10
41.558385
20
441.735147
11
41.558385
21
441.735147
0
LINE
8
annotation
62
1
39
211
10
41.558385
20
441.735147
11
41.633974
21
441.897442
0
LINE
8
annotation
62
1
39
211
10
41.633974
20
441.897442
11
41.678132
21
442.065676
0
LINE
8
annotation
62
1
39
211
10
41.678132
20
442.065676
11
41.691940
21
442.236046
0
LINE
8
annotation
62
1
39
211
10
41.691940
20
442.236046
11
41.676482
21
442.404751
0
LINE
8
annotation
62
1
39
211
10
41.676482
20
442.404751
11
41.632840
21
442.567991
0
LINE
8
annotation
62
1
39
211
10
41.632840
20
442.567991
11
41.562095
21
442.721963
0
LINE
8
annotation
62
1
39
211
10
41.562095
20
442.721963
11
41.465329
21
442.862866
0
LINE
8
annotation
62
1
39
211
10
41.465329
20
442.862866
11
41.343626
21
442.986898
0
LINE
8
annotation
62
1
39
211
10
41.343626
20
442.986898
11
41.198066
21
443.090260
0
LINE
8
annotation
62
1
39
211
10
41.198066
20
443.090260
11
41.198066
21
443.090260
0
LINE
8
annotation
62
1
39
211
10
41.198066
20
443.090260
11
41.035320
21
443.164774
0
LINE
8
annotation
62
1
39
211
10
41.035320
20
443.164774
11
40.866828
21
443.208252
0
LINE
8
annotation
62
1
39
211
10
40.866828
20
443.208252
11
40.696359
21
443.221670
0
LINE
8
annotation
62
1
39
211
10
40.696359
20
443.221670
11
40.527679
21
443.206008
0
LINE
8
annotation
62
1
39
211
10
40.527679
20
443.206008
11
40.364555
21
443.162245
0
LINE
8
annotation
62
1
39
211
10
40.364555
20
443.162245
11
40.210753
21
443.091358
0
LINE
8
annotation
62
1
39
211
10
40.210753
20
443.091358
11
40.070041
21
442.994327
0
LINE
8
annotation
62
1
39
211
10
40.070041
20
442.994327
11
39.946186
21
442.872129
0
LINE
8
annotation
62
1
39
211
10
39.946186
20
442.872129
11
39.842953
21
442.725744
0
LINE
8
annotation
62
1
39
211
10
39.842953
20
442.725744
11
39.712869
21
442.476207
0
LINE
8
annotation
62
1
39
211
10
79.038657
20
389.276485
11
76.369545
21
385.415859
0
LINE
8
annotation
62
1
39
211
10
76.369545
20
385.415859
11
73.699931
21
389.276485
0
LINE
8
annotation
62
1
39
211
10
76.369545
20
385.726536
11
76.369545
21
381.272663
0
LINE
8
annotation
62
1
39
211
10
86.416984
20
385.274574
11
82.040906
21
385.274574
0
LINE
8
annotation
62
1
39
211
10
90.304838
20
381.272914
11
90.304838
21
381.272914
0
LINE
8
annotation
62
1
39
211
10
90.304838
20
381.272914
11
90.813074
21
381.462308
0
LINE
8
annotation
62
1
39
211
10
90.813074
20
381.462308
11
91.279572
21
381.718308
0
LINE
8
annotation
62
1
39
211
10
91.279572
20
381.718308
11
91.699511
21
382.034391
0
LINE
8
annotation
62
1
39
211
10
91.699511
20
382.034391
11
92.068070
21
382.404036
0
LINE
8
annotation
62
1
39
211
10
92.068070
20
382.404036
11
92.380428
21
382.820719
0
LINE
8
annotation
62
1
39
211
10
92.380428
20
382.820719
11
92.631765
21
383.277917
0
LINE
8
annotation
62
1
39
211
10
92.631765
20
383.277917
11
92.817260
21
383.769109
0
LINE
8
annotation
62
1
39
211
10
92.817260
20
383.769109
11
92.932092
21
384.287771
0
LINE
8
annotation
62
1
39
211
10
92.932092
20
384.287771
11
92.971441
21
384.827380
0
LINE
8
annotation
62
1
39
211
10
92.971441
20
384.827380
11
92.971441
21
387.496492
0
LINE
8
annotation
62
1
39
211
10
92.971441
20
387.496492
11
92.971441
21
387.496492
0
LINE
8
annotation
62
1
39
211
10
92.971441
20
387.496492
11
92.942829
21
387.816217
0
LINE
8
annotation
62
1
39
211
10
92.942829
20
387.816217
11
92.860331
21
388.117218
0
LINE
8
annotation
62
1
39
211
10
92.860331
20
388.117218
11
92.728948
21
388.394449
0
LINE
8
annotation
62
1
39
211
10
92.728948
20
388.394449
11
92.553682
21
388.642868
0
LINE
8
annotation
62
1
39
211
10
92.553682
20
388.642868
11
92.339537
21
388.857430
0
LINE
8
annotation
62
1
39
211
10
92.339537
20
388.857430
11
92.091514
21
389.033091
0
LINE
8
annotation
62
1
39
211
10
92.091514
20
389.033091
11
91.814617
21
389.164808
0
LINE
8
annotation
62
1
39
211
10
91.814617
20
389.164808
11
91.513847
21
389.247537
0
LINE
8
annotation
62
1
39
211
10
91.513847
20
389.247537
11
91.194208
21
389.276234
0
LINE
8
annotation
62
1
39
211
10
91.194208
20
389.276234
11
91.194208
21
389.276234
0
LINE
8
annotation
62
1
39
211
10
91.194208
20
389.276234
11
90.875229
21
389.247537
0
LINE
8
annotation
62
1
39
211
10
90.875229
20
389.247537
11
90.574810
21
389.164808
0
LINE
8
annotation
62
1
39
211
10
90.574810
20
389.164808
11
90.298016
21
389.033091
0
LINE
8
annotation
62
1
39
211
10
90.298016
20
389.033091
11
90.049911
21
388.857430
0
LINE
8
annotation
62
1
39
211
10
90.049911
20
388.857430
11
89.835559
21
388.642868
0
LINE
8
annotation
62
1
39
211
10
89.835559
20
388.642868
11
89.660025
21
388.394449
0
LINE
8
annotation
62
1
39
211
10
89.660025
20
388.394449
11
89.528373
21
388.117218
0
LINE
8
annotation
62
1
39
211
10
89.528373
20
388.117218
11
89.445668
21
387.816217
0
LINE
8
annotation
62
1
39
211
10
89.445668
20
387.816217
11
89.416975
21
387.496492
0
LINE
8
annotation
62
1
39
211
10
89.416975
20
387.496492
11
89.416975
21
386.606621
0
LINE
8
annotation
62
1
39
211
10
89.416975
20
386.606621
11
89.416975
21
386.606621
0
LINE
8
annotation
62
1
39
211
10
89.416975
20
386.606621
11
89.445668
21
386.286912
0
LINE
8
annotation
62
1
39
211
10
89.445668
20
386.286912
11
89.528373
21
385.985958
0
LINE
8
annotation
62
1
39
211
10
89.528373
20
385.985958
11
89.660025
21
385.708793
0
LINE
8
annotation
62
1
39
211
10
89.660025
20
385.708793
11
89.835559
21
385.460454
0
LINE
8
annotation
62
1
39
211
10
89.835559
20
385.460454
11
90.049911
21
385.245975
0
LINE
8
annotation
62
1
39
211
10
90.049911
20
385.245975
11
90.298016
21
385.070393
0
LINE
8
annotation
62
1
39
211
10
90.298016
20
385.070393
11
90.574810
21
384.938743
0
LINE
8
annotation
62
1
39
211
10
90.574810
20
384.938743
11
90.875229
21
384.856060
0
LINE
8
annotation
62
1
39
211
10
90.875229
20
384.856060
11
91.194208
21
384.827380
0
LINE
8
annotation
62
1
39
211
10
91.194208
20
384.827380
11
92.971441
21
384.827380
0
LINE
8
annotation
62
1
39
211
10
89.194883
20
380.272499
11
93.196543
21
380.272499
0
LINE
8
frame
62
5
39
2
10
0.000000
20
0.000000
11
215.900000
21
0.000000
0
LINE
8
frame
62
5
39
2
10
215.900000
20
0.000000
11
215.900000
21
279.400000
0
LINE
8
frame
62
5
39
2
10
215.900000
20
279.400000
11
0.000000
21
279.400000
0
LINE
8
frame
62
5
39
2
10
0.000000
20
279.400000
11
0.000000
21
0.000000
0
ENDSEC
0
EOF
