0
SECTION
2
HEADER
9
$ACADVER
1
AC1009
0
ENDSEC
0
SECTION
2
TABLES
0
TABLE
2
VPORT
70
1
0
VPORT
2
ACTIVE
70
0
10
0.0
20
0.0
11
0.0
21
0.0
12
0.0
22
0.0
13
0.0
23
0.0
14
0.0
24
0.0
15
0.0
25
0.0
16
0.0
26
0.0
36
0.0
17
0.0
27
0.0
37
0.0
40
0.0
41
0.0
42
0.0
43
0.0
44
0.0
50
0.0
51
0.0
71
0
72
1000
73
1
74
3
75
0
76
0
77
0
78
0
0
ENDTAB
0
ENDSEC
0
SECTION
2
ENTITIES
0
LINE
8
hole
62
5
39
2
10
50.479216
20
32.010513
11
45.772520
21
35.213458
0
LINE
8
hole
62
5
39
2
10
45.772520
20
35.213458
11
41.152728
21
38.358489
0
LINE
8
hole
62
5
39
2
10
41.152728
20
38.358489
11
37.367628
21
42.512400
0
LINE
8
hole
62
5
39
2
10
37.367628
20
42.512400
11
33.548719
21
46.659878
0
LINE
8
hole
62
5
39
2
10
33.548719
20
46.659878
11
30.795126
21
51.568345
0
LINE
8
hole
62
5
39
2
10
30.795126
20
51.568345
11
27.932305
21
56.544846
0
LINE
8
hole
62
5
39
2
10
27.932305
20
56.544846
11
26.295212
21
62.025310
0
LINE
8
hole
62
5
39
2
10
26.295212
20
62.025310
11
24.521376
21
67.668835
0
LINE
8
hole
62
5
39
2
10
24.521376
20
67.668835
11
24.082601
21
73.592040
0
LINE
8
hole
62
5
39
2
10
24.082601
20
73.592040
11
23.526900
21
79.819687
0
LINE
8
hole
62
5
39
2
10
23.526900
20
79.819687
11
24.342244
21
85.672759
0
LINE
8
hole
62
5
39
2
10
24.342244
20
85.672759
11
25.123260
21
91.939618
0
LINE
8
hole
62
5
39
2
10
25.123260
20
91.939618
11
27.062984
21
97.232880
0
LINE
8
hole
62
5
39
2
10
27.062984
20
97.232880
11
29.079884
21
102.980510
0
LINE
8
hole
62
5
39
2
10
29.079884
20
102.980510
11
32.017621
21
107.625372
0
LINE
8
hole
62
5
39
2
10
32.017621
20
107.625372
11
35.161992
21
112.748321
0
LINE
8
hole
62
5
39
2
10
35.161992
20
112.748321
11
38.971799
21
116.613807
0
LINE
8
hole
62
5
39
2
10
38.971799
20
116.613807
11
43.112758
21
120.921949
0
LINE
8
hole
62
5
39
2
10
43.112758
20
120.921949
11
47.660037
21
123.869368
0
LINE
8
hole
62
5
39
2
10
47.660037
20
123.869368
11
52.627386
21
127.158589
0
LINE
8
hole
62
5
39
2
10
52.627386
20
127.158589
11
57.787101
21
129.053173
0
LINE
8
hole
62
5
39
2
10
57.787101
20
129.053173
11
63.402578
21
131.146954
0
LINE
8
hole
62
5
39
2
10
63.402578
20
131.146954
11
69.097424
21
131.844397
0
LINE
8
hole
62
5
39
2
10
69.097424
20
131.844397
11
75.244310
21
132.592346
0
LINE
8
hole
62
5
39
2
10
75.244310
20
132.592346
11
81.008356
21
131.953133
0
LINE
8
hole
62
5
39
2
10
81.008356
20
131.953133
11
87.112033
21
131.241474
0
LINE
8
hole
62
5
39
2
10
87.112033
20
131.241474
11
92.448250
21
129.335539
0
LINE
8
hole
62
5
39
2
10
92.448250
20
129.335539
11
97.951038
21
127.318281
0
LINE
8
hole
62
5
39
2
10
97.951038
20
127.318281
11
102.728069
21
124.253719
0
LINE
8
hole
62
5
39
2
10
102.728069
20
124.253719
11
107.541769
21
121.106358
0
LINE
8
hole
62
5
39
2
10
107.541769
20
121.106358
11
111.572140
21
117.013023
0
LINE
8
hole
62
5
39
2
10
111.572140
20
117.013023
11
115.546583
21
112.917537
0
LINE
8
hole
62
5
39
2
10
115.546583
20
112.917537
11
118.631847
21
107.954719
0
LINE
8
hole
62
5
39
2
10
118.631847
20
107.954719
11
121.615951
21
103.103646
0
LINE
8
hole
62
5
39
2
10
121.615951
20
103.103646
11
123.572422
21
97.436329
0
LINE
8
hole
62
5
39
2
10
123.572422
20
97.436329
11
125.439601
21
91.999180
0
LINE
8
hole
62
5
39
2
10
125.439601
20
91.999180
11
126.094474
21
85.750129
0
LINE
8
hole
62
5
39
2
10
126.094474
20
85.750129
11
126.727654
21
79.812241
0
LINE
8
hole
62
5
39
2
10
126.727654
20
79.812241
11
125.944436
21
73.527412
0
LINE
8
hole
62
5
39
2
10
125.944436
20
73.527412
11
125.239579
21
67.604567
0
LINE
8
hole
62
5
39
2
10
125.239579
20
67.604567
11
123.121587
21
61.837279
0
LINE
8
hole
62
5
39
2
10
123.121587
20
61.837279
11
121.198117
21
56.442333
0
LINE
8
hole
62
5
39
2
10
121.198117
20
56.442333
11
117.883751
21
51.326277
0
LINE
8
hole
62
5
39
2
10
117.883751
20
51.326277
11
114.870664
21
46.540478
0
LINE
8
hole
62
5
39
2
10
114.870664
20
46.540478
11
110.519093
21
42.258452
0
LINE
8
hole
62
5
39
2
10
110.519093
20
42.258452
11
106.559204
21
38.243860
0
LINE
8
hole
62
5
39
2
10
106.559204
20
38.243860
11
101.360970
21
34.984983
0
LINE
8
hole
62
5
39
2
10
101.360970
20
34.984983
11
96.623726
21
31.920200
0
LINE
8
hole
62
5
39
2
10
96.623726
20
31.920200
11
90.781687
21
29.856029
0
LINE
8
hole
62
5
39
2
10
90.781687
20
29.856029
11
85.433624
21
27.902558
0
LINE
8
hole
62
5
39
2
10
85.433624
20
27.902558
11
79.120077
21
27.189040
0
LINE
8
hole
62
5
39
2
10
79.120077
20
27.189040
11
73.262837
21
26.498724
0
LINE
8
hole
62
5
39
2
10
73.262837
20
26.498724
11
67.076092
21
27.245980
0
LINE
8
hole
62
5
39
2
10
67.076092
20
27.245980
11
61.248237
21
27.952966
0
LINE
8
hole
62
5
39
2
10
61.248237
20
27.952966
11
55.747427
21
30.017664
0
LINE
8
hole
62
5
39
2
10
55.747427
20
30.017664
11
50.479216
21
32.010513
0
LINE
8
boundary
62
5
39
2
10
42.193647
20
14.339128
11
47.526279
21
22.825930
0
LINE
8
boundary
62
5
39
2
10
47.526279
20
22.825930
11
49.904384
21
21.452930
0
LINE
8
boundary
62
5
39
2
10
49.904384
20
21.452930
11
45.156421
21
13.229216
0
LINE
8
boundary
62
5
39
2
10
45.156421
20
13.229216
11
56.781202
21
8.699187
0
LINE
8
boundary
62
5
39
2
10
56.781202
20
8.699187
11
60.166941
21
8.276839
0
LINE
8
boundary
62
5
39
2
10
60.166941
20
8.276839
11
61.235857
21
8.143564
0
LINE
8
boundary
62
5
39
2
10
61.235857
20
8.143564
11
63.824196
21
17.803376
0
LINE
8
boundary
62
5
39
2
10
63.824196
20
17.803376
11
66.476629
21
17.092659
0
LINE
8
boundary
62
5
39
2
10
66.476629
20
17.092659
11
63.994868
21
7.830603
0
LINE
8
boundary
62
5
39
2
10
63.994868
20
7.830603
11
73.074457
21
6.667500
0
LINE
8
boundary
62
5
39
2
10
73.074457
20
6.667500
11
78.439883
21
7.283868
0
LINE
8
boundary
62
5
39
2
10
78.439883
20
7.283868
11
80.206319
21
7.487018
0
LINE
8
boundary
62
5
39
2
10
80.206319
20
7.487018
11
80.356316
21
17.444678
0
LINE
8
boundary
62
5
39
2
10
80.356316
20
17.444678
11
83.102316
21
17.444678
0
LINE
8
boundary
62
5
39
2
10
83.102316
20
17.444678
11
83.102316
21
7.847624
0
LINE
8
boundary
62
5
39
2
10
83.102316
20
7.847624
11
89.643055
21
8.572292
0
LINE
8
boundary
62
5
39
2
10
89.643055
20
8.572292
11
95.995841
21
10.866367
0
LINE
8
boundary
62
5
39
2
10
95.995841
20
10.866367
11
98.416000
21
11.740912
0
LINE
8
boundary
62
5
39
2
10
98.416000
20
11.740912
11
95.873955
21
21.227954
0
LINE
8
boundary
62
5
39
2
10
95.873955
20
21.227954
11
98.526388
21
21.938671
0
LINE
8
boundary
62
5
39
2
10
98.526388
20
21.938671
11
101.001934
21
12.699806
0
LINE
8
boundary
62
5
39
2
10
101.001934
20
12.699806
11
104.974628
21
14.110926
0
LINE
8
boundary
62
5
39
2
10
104.974628
20
14.110926
11
111.475879
21
18.286973
0
LINE
8
boundary
62
5
39
2
10
111.475879
20
18.286973
11
114.198629
21
20.036830
0
LINE
8
boundary
62
5
39
2
10
114.198629
20
20.036830
11
109.465269
21
28.535249
0
LINE
8
boundary
62
5
39
2
10
109.465269
20
28.535249
11
111.843375
21
29.908249
0
LINE
8
boundary
62
5
39
2
10
111.843375
20
29.908249
11
116.628919
21
21.619445
0
LINE
8
boundary
62
5
39
2
10
116.628919
20
21.619445
11
118.514983
21
22.810864
0
LINE
8
boundary
62
5
39
2
10
118.514983
20
22.810864
11
124.419122
21
28.782412
0
LINE
8
boundary
62
5
39
2
10
124.419122
20
28.782412
11
127.250106
21
31.646695
0
LINE
8
boundary
62
5
39
2
10
127.250106
20
31.646695
11
120.537503
21
38.571427
0
LINE
8
boundary
62
5
39
2
10
120.537503
20
38.571427
11
122.479218
21
40.513142
0
LINE
8
boundary
62
5
39
2
10
122.479218
20
40.513142
11
129.278010
21
33.714351
0
LINE
8
boundary
62
5
39
2
10
129.278010
20
33.714351
11
129.766418
21
34.192604
0
LINE
8
boundary
62
5
39
2
10
129.766418
20
34.192604
11
134.441882
21
41.642693
0
LINE
8
boundary
62
5
39
2
10
134.441882
20
41.642693
11
136.968955
21
45.670101
0
LINE
8
boundary
62
5
39
2
10
136.968955
20
45.670101
11
128.816714
21
50.550003
0
LINE
8
boundary
62
5
39
2
10
128.816714
20
50.550003
11
130.189714
21
52.928109
0
LINE
8
boundary
62
5
39
2
10
130.189714
20
52.928109
11
138.397691
21
48.189232
0
LINE
8
boundary
62
5
39
2
10
138.397691
20
48.189232
11
141.256265
21
56.172663
0
LINE
8
boundary
62
5
39
2
10
141.256265
20
56.172663
11
143.069643
21
61.308513
0
LINE
8
boundary
62
5
39
2
10
143.069643
20
61.308513
11
134.083868
21
63.871535
0
LINE
8
boundary
62
5
39
2
10
134.083868
20
63.871535
11
134.794585
21
66.523967
0
LINE
8
boundary
62
5
39
2
10
134.794585
20
66.523967
11
143.791390
21
64.113281
0
LINE
8
boundary
62
5
39
2
10
143.791390
20
64.113281
11
144.702478
21
71.684109
0
LINE
8
boundary
62
5
39
2
10
144.702478
20
71.684109
11
145.412297
21
77.798329
0
LINE
8
boundary
62
5
39
2
10
145.412297
20
77.798329
11
136.169239
21
77.948329
0
LINE
8
boundary
62
5
39
2
10
136.169239
20
77.948329
11
136.169240
21
80.694329
0
LINE
8
boundary
62
5
39
2
10
136.169240
20
80.694329
11
145.513254
21
80.694329
0
LINE
8
boundary
62
5
39
2
10
145.513254
20
80.694329
11
144.843212
21
87.126448
0
LINE
8
boundary
62
5
39
2
10
144.843212
20
87.126448
11
144.050576
21
94.443535
0
LINE
8
boundary
62
5
39
2
10
144.050576
20
94.443535
11
135.084114
21
92.196270
0
LINE
8
boundary
62
5
39
2
10
135.084114
20
92.196270
11
134.373397
21
94.848702
0
LINE
8
boundary
62
5
39
2
10
134.373397
20
94.848702
11
143.501212
21
97.294493
0
LINE
8
boundary
62
5
39
2
10
143.501212
20
97.294493
11
142.110040
21
101.396354
0
LINE
8
boundary
62
5
39
2
10
142.110040
20
101.396354
11
138.940719
21
110.593740
0
LINE
8
boundary
62
5
39
2
10
138.940719
20
110.593740
11
130.766888
21
106.047780
0
LINE
8
boundary
62
5
39
2
10
130.766888
20
106.047780
11
129.393888
21
108.425886
0
LINE
8
boundary
62
5
39
2
10
129.393888
20
108.425886
11
137.603160
21
113.165512
0
LINE
8
boundary
62
5
39
2
10
137.603160
20
113.165512
11
137.139379
21
113.944164
0
LINE
8
boundary
62
5
39
2
10
137.139379
20
113.944164
11
130.995633
21
123.886320
0
LINE
8
boundary
62
5
39
2
10
130.995633
20
123.886320
11
130.458431
21
124.755274
0
LINE
8
boundary
62
5
39
2
10
130.458431
20
124.755274
11
129.930857
21
125.369023
0
LINE
8
boundary
62
5
39
2
10
129.930857
20
125.369023
11
123.115791
21
118.766089
0
LINE
8
boundary
62
5
39
2
10
123.115791
20
118.766089
11
121.174076
21
120.707804
0
LINE
8
boundary
62
5
39
2
10
121.174076
20
120.707804
11
127.897863
21
127.431590
0
LINE
8
boundary
62
5
39
2
10
127.897863
20
127.431590
11
122.159768
21
133.301017
0
LINE
8
boundary
62
5
39
2
10
122.159768
20
133.301017
11
119.456466
21
136.060960
0
LINE
8
boundary
62
5
39
2
10
119.456466
20
136.060960
11
117.115457
21
137.565924
0
LINE
8
boundary
62
5
39
2
10
117.115457
20
137.565924
11
112.324569
21
129.567862
0
LINE
8
boundary
62
5
39
2
10
112.324569
20
129.567862
11
109.946463
21
130.940862
0
LINE
8
boundary
62
5
39
2
10
109.946463
20
130.940862
11
114.675073
21
139.131054
0
LINE
8
boundary
62
5
39
2
10
114.675073
20
139.131054
11
112.972198
21
140.229500
0
LINE
8
boundary
62
5
39
2
10
112.972198
20
140.229500
11
106.426811
21
144.440068
0
LINE
8
boundary
62
5
39
2
10
106.426811
20
144.440068
11
102.997868
21
145.659132
0
LINE
8
boundary
62
5
39
2
10
102.997868
20
145.659132
11
101.217116
21
146.293082
0
LINE
8
boundary
62
5
39
2
10
101.217116
20
146.293082
11
98.680406
21
137.388685
0
LINE
8
boundary
62
5
39
2
10
98.680406
20
137.388685
11
96.027640
21
138.098155
0
LINE
8
boundary
62
5
39
2
10
96.027640
20
138.098155
11
98.479942
21
147.267519
0
LINE
8
boundary
62
5
39
2
10
98.479942
20
147.267519
11
93.658539
21
148.983944
0
LINE
8
boundary
62
5
39
2
10
93.658539
20
148.983944
11
92.227463
21
149.492700
0
LINE
8
boundary
62
5
39
2
10
92.227463
20
149.492700
11
91.708234
21
149.677536
0
LINE
8
boundary
62
5
39
2
10
91.708234
20
149.677536
11
83.252316
21
150.580509
0
LINE
8
boundary
62
5
39
2
10
83.252316
20
150.580509
11
83.102316
21
141.426374
0
LINE
8
boundary
62
5
39
2
10
83.102316
20
141.426374
11
80.356316
21
141.426374
0
LINE
8
boundary
62
5
39
2
10
80.356316
20
141.426374
11
80.356316
21
150.889761
0
LINE
8
boundary
62
5
39
2
10
80.356316
20
150.889761
11
75.751684
21
151.383319
0
LINE
8
boundary
62
5
39
2
10
75.751684
20
151.383319
11
67.442498
21
150.311675
0
LINE
8
boundary
62
5
39
2
10
67.442498
20
150.311675
11
64.389536
21
149.918690
0
LINE
8
boundary
62
5
39
2
10
64.389536
20
149.918690
11
66.577954
21
141.171846
0
LINE
8
boundary
62
5
39
2
10
66.577954
20
141.171846
11
63.925522
21
140.461129
0
LINE
8
boundary
62
5
39
2
10
63.925522
20
140.461129
11
61.491338
21
149.545627
0
LINE
8
boundary
62
5
39
2
10
61.491338
20
149.545627
11
59.891174
21
149.339650
0
LINE
8
boundary
62
5
39
2
10
59.891174
20
149.339650
11
54.060596
21
147.141095
0
LINE
8
boundary
62
5
39
2
10
54.060596
20
147.141095
11
46.071346
21
144.128745
0
LINE
8
boundary
62
5
39
2
10
46.071346
20
144.128745
11
50.471600
21
136.207281
0
LINE
8
boundary
62
5
39
2
10
50.471600
20
136.207281
11
48.093494
21
134.834282
0
LINE
8
boundary
62
5
39
2
10
48.093494
20
134.834282
11
43.585927
21
142.641617
0
LINE
8
boundary
62
5
39
2
10
43.585927
20
142.641617
11
40.379163
21
140.535185
0
LINE
8
boundary
62
5
39
2
10
40.379163
20
140.535185
11
32.708033
21
135.438661
0
LINE
8
boundary
62
5
39
2
10
32.708033
20
135.438661
11
30.289068
21
132.915420
0
LINE
8
boundary
62
5
39
2
10
30.289068
20
132.915420
11
36.322978
21
126.669383
0
LINE
8
boundary
62
5
39
2
10
36.322978
20
126.669383
11
34.381262
21
124.727667
0
LINE
8
boundary
62
5
39
2
10
34.381262
20
124.727667
11
28.294017
21
130.814913
0
LINE
8
boundary
62
5
39
2
10
28.294017
20
130.814913
11
27.110515
21
129.599846
0
LINE
8
boundary
62
5
39
2
10
27.110515
20
129.599846
11
22.136641
21
124.410518
0
LINE
8
boundary
62
5
39
2
10
22.136641
20
124.410518
11
18.104889
21
117.813518
0
LINE
8
boundary
62
5
39
2
10
18.104889
20
117.813518
11
25.331644
21
113.467944
0
LINE
8
boundary
62
5
39
2
10
25.331644
20
113.467944
11
23.958644
21
111.089838
0
LINE
8
boundary
62
5
39
2
10
23.958644
20
111.089838
11
16.599905
21
115.338409
0
LINE
8
boundary
62
5
39
2
10
16.599905
20
115.338409
11
15.825858
21
114.084427
0
LINE
8
boundary
62
5
39
2
10
15.825858
20
114.084427
11
14.060128
21
111.194908
0
LINE
8
boundary
62
5
39
2
10
14.060128
20
111.194908
11
10.224233
21
100.250970
0
LINE
8
boundary
62
5
39
2
10
10.224233
20
100.250970
11
18.057914
21
97.803464
0
LINE
8
boundary
62
5
39
2
10
18.057914
20
97.803464
11
17.347197
21
95.151032
0
LINE
8
boundary
62
5
39
2
10
17.347197
20
95.151032
11
9.202230
21
97.333469
0
LINE
8
boundary
62
5
39
2
10
9.202230
20
97.333469
11
8.800529
21
96.186737
0
LINE
8
boundary
62
5
39
2
10
8.800529
20
96.186737
11
8.622303
21
94.817109
0
LINE
8
boundary
62
5
39
2
10
8.622303
20
94.817109
11
6.806714
21
80.844328
0
LINE
8
boundary
62
5
39
2
10
6.806714
20
80.844328
11
15.070577
21
80.694329
0
LINE
8
boundary
62
5
39
2
10
15.070577
20
80.694329
11
15.070577
21
77.948329
0
LINE
8
boundary
62
5
39
2
10
15.070577
20
77.948329
11
6.825455
21
77.948329
0
LINE
8
boundary
62
5
39
2
10
6.825455
20
77.948329
11
7.112194
21
73.825980
0
LINE
8
boundary
62
5
39
2
10
7.112194
20
73.825980
11
7.905620
21
63.277025
0
LINE
8
boundary
62
5
39
2
10
7.905620
20
63.277025
11
8.486714
21
61.272759
0
LINE
8
boundary
62
5
39
2
10
8.486714
20
61.272759
11
16.785819
21
63.341206
0
LINE
8
boundary
62
5
39
2
10
16.785819
20
63.341206
11
17.496536
21
60.688773
0
LINE
8
boundary
62
5
39
2
10
17.496536
20
60.688773
11
9.306207
21
58.494181
0
LINE
8
boundary
62
5
39
2
10
9.306207
20
58.494181
11
10.471124
21
54.428266
0
LINE
8
boundary
62
5
39
2
10
10.471124
20
54.428266
11
12.327407
21
48.041289
0
LINE
8
boundary
62
5
39
2
10
12.327407
20
48.041289
11
15.230588
21
42.686880
0
LINE
8
boundary
62
5
39
2
10
15.230588
20
42.686880
11
22.921315
21
46.953918
0
LINE
8
boundary
62
5
39
2
10
22.921315
20
46.953918
11
24.294315
21
44.575812
0
LINE
8
boundary
62
5
39
2
10
24.294315
20
44.575812
11
16.616899
21
40.143253
0
LINE
8
boundary
62
5
39
2
10
16.616899
20
40.143253
11
17.920174
21
37.726410
0
LINE
8
boundary
62
5
39
2
10
17.920174
20
37.726410
11
19.674767
21
34.495869
0
LINE
8
boundary
62
5
39
2
10
19.674767
20
34.495869
11
26.736304
21
26.482163
0
LINE
8
boundary
62
5
39
2
10
26.736304
20
26.482163
11
33.334941
21
32.868669
0
LINE
8
boundary
62
5
39
2
10
33.334941
20
32.868669
11
35.276656
21
30.926954
0
LINE
8
boundary
62
5
39
2
10
35.276656
20
30.926954
11
28.655328
21
24.305626
0
LINE
8
boundary
62
5
39
2
10
28.655328
20
24.305626
11
29.716378
21
23.101288
0
LINE
8
boundary
62
5
39
2
10
29.716378
20
23.101288
11
36.157676
21
18.577542
0
LINE
8
boundary
62
5
39
2
10
36.157676
20
18.577542
11
42.193647
21
14.339128
0
LINE
8
annotation
62
1
39
211
10
130.575339
20
76.921329
11
130.575339
21
81.721329
0
LINE
8
annotation
62
1
39
211
10
130.575339
20
81.721329
11
129.508237
21
80.653927
0
LINE
8
annotation
62
1
39
211
10
130.460700
20
89.894161
11
128.401544
21
89.342412
0
LINE
8
annotation
62
1
39
211
10
128.401544
20
89.342412
11
129.483504
21
92.915393
0
LINE
8
annotation
62
1
39
211
10
129.483504
20
92.915393
11
129.483504
21
92.915393
0
LINE
8
annotation
62
1
39
211
10
129.483504
20
92.915393
11
129.485024
21
92.918817
0
LINE
8
annotation
62
1
39
211
10
129.485024
20
92.918817
11
129.486445
21
92.922240
0
LINE
8
annotation
62
1
39
211
10
129.486445
20
92.922240
11
129.487774
21
92.925690
0
LINE
8
annotation
62
1
39
211
10
129.487774
20
92.925690
11
129.489019
21
92.929194
0
LINE
8
annotation
62
1
39
211
10
129.489019
20
92.929194
11
129.490188
21
92.932780
0
LINE
8
annotation
62
1
39
211
10
129.490188
20
92.932780
11
129.491289
21
92.936477
0
LINE
8
annotation
62
1
39
211
10
129.491289
20
92.936477
11
129.492331
21
92.940311
0
LINE
8
annotation
62
1
39
211
10
129.492331
20
92.940311
11
129.493320
21
92.944311
0
LINE
8
annotation
62
1
39
211
10
129.493320
20
92.944311
11
129.494265
21
92.948505
0
LINE
8
annotation
62
1
39
211
10
129.494265
20
92.948505
11
129.494265
21
92.948505
0
LINE
8
annotation
62
1
39
211
10
129.494265
20
92.948505
11
129.527630
21
93.138237
0
LINE
8
annotation
62
1
39
211
10
129.527630
20
93.138237
11
129.526673
21
93.325388
0
LINE
8
annotation
62
1
39
211
10
129.526673
20
93.325388
11
129.493578
21
93.506308
0
LINE
8
annotation
62
1
39
211
10
129.493578
20
93.506308
11
129.430529
21
93.677347
0
LINE
8
annotation
62
1
39
211
10
129.430529
20
93.677347
11
129.339708
21
93.834856
0
LINE
8
annotation
62
1
39
211
10
129.339708
20
93.834856
11
129.223299
21
93.975185
0
LINE
8
annotation
62
1
39
211
10
129.223299
20
93.975185
11
129.083485
21
94.094684
0
LINE
8
annotation
62
1
39
211
10
129.083485
20
94.094684
11
128.922450
21
94.189704
0
LINE
8
annotation
62
1
39
211
10
128.922450
20
94.189704
11
128.742377
21
94.256595
0
LINE
8
annotation
62
1
39
211
10
128.742377
20
94.256595
11
128.742377
21
94.256595
0
LINE
8
annotation
62
1
39
211
10
128.742377
20
94.256595
11
128.552475
21
94.288718
0
LINE
8
annotation
62
1
39
211
10
128.552475
20
94.288718
11
128.365245
21
94.286982
0
LINE
8
annotation
62
1
39
211
10
128.365245
20
94.286982
11
128.184331
21
94.253454
0
LINE
8
annotation
62
1
39
211
10
128.184331
20
94.253454
11
128.013375
21
94.190200
0
LINE
8
annotation
62
1
39
211
10
128.013375
20
94.190200
11
127.856020
21
94.099285
0
LINE
8
annotation
62
1
39
211
10
127.856020
20
94.099285
11
127.715907
21
93.982777
0
LINE
8
annotation
62
1
39
211
10
127.715907
20
93.982777
11
127.596681
21
93.842740
0
LINE
8
annotation
62
1
39
211
10
127.596681
20
93.842740
11
127.501983
21
93.681241
0
LINE
8
annotation
62
1
39
211
10
127.501983
20
93.681241
11
127.435456
21
93.500346
0
LINE
8
annotation
62
1
39
211
10
127.435456
20
93.500346
11
127.369747
21
93.204762
0
LINE
8
annotation
62
1
39
211
10
125.050559
20
101.561753
11
125.973654
21
102.094702
0
LINE
8
annotation
62
1
39
211
10
125.973654
20
102.094702
11
125.973654
21
102.094702
0
LINE
8
annotation
62
1
39
211
10
125.973654
20
102.094702
11
126.131076
21
102.205447
0
LINE
8
annotation
62
1
39
211
10
126.131076
20
102.205447
11
126.262514
21
102.338563
0
LINE
8
annotation
62
1
39
211
10
126.262514
20
102.338563
11
126.366891
21
102.489916
0
LINE
8
annotation
62
1
39
211
10
126.366891
20
102.489916
11
126.443130
21
102.655370
0
LINE
8
annotation
62
1
39
211
10
126.443130
20
102.655370
11
126.490153
21
102.830791
0
LINE
8
annotation
62
1
39
211
10
126.490153
20
102.830791
11
126.506884
21
103.012043
0
LINE
8
annotation
62
1
39
211
10
126.506884
20
103.012043
11
126.492246
21
103.194992
0
LINE
8
annotation
62
1
39
211
10
126.492246
20
103.194992
11
126.445161
21
103.375503
0
LINE
8
annotation
62
1
39
211
10
126.445161
20
103.375503
11
126.364552
21
103.549441
0
LINE
8
annotation
62
1
39
211
10
126.364552
20
103.549441
11
126.097701
21
104.011640
0
LINE
8
annotation
62
1
39
211
10
126.097701
20
104.011640
11
126.097701
21
104.011640
0
LINE
8
annotation
62
1
39
211
10
126.097701
20
104.011640
11
125.987411
21
104.168350
0
LINE
8
annotation
62
1
39
211
10
125.987411
20
104.168350
11
125.854647
21
104.299346
0
LINE
8
annotation
62
1
39
211
10
125.854647
20
104.299346
11
125.703534
21
104.403487
0
LINE
8
annotation
62
1
39
211
10
125.703534
20
104.403487
11
125.538195
21
104.479632
0
LINE
8
annotation
62
1
39
211
10
125.538195
20
104.479632
11
125.362752
21
104.526640
0
LINE
8
annotation
62
1
39
211
10
125.362752
20
104.526640
11
125.181329
21
104.543370
0
LINE
8
annotation
62
1
39
211
10
125.181329
20
104.543370
11
124.998049
21
104.528682
0
LINE
8
annotation
62
1
39
211
10
124.998049
20
104.528682
11
124.817035
21
104.481433
0
LINE
8
annotation
62
1
39
211
10
124.817035
20
104.481433
11
124.642411
21
104.400482
0
LINE
8
annotation
62
1
39
211
10
124.642411
20
104.400482
11
124.180212
21
104.133632
0
LINE
8
annotation
62
1
39
211
10
124.180212
20
104.133632
11
124.642411
21
104.400482
0
LINE
8
annotation
62
1
39
211
10
124.642411
20
104.400482
11
124.642411
21
104.400482
0
LINE
8
annotation
62
1
39
211
10
124.642411
20
104.400482
11
124.799826
21
104.511240
0
LINE
8
annotation
62
1
39
211
10
124.799826
20
104.511240
11
124.931237
21
104.644403
0
LINE
8
annotation
62
1
39
211
10
124.931237
20
104.644403
11
125.035559
21
104.795851
0
LINE
8
annotation
62
1
39
211
10
125.035559
20
104.795851
11
125.111705
21
104.961465
0
LINE
8
annotation
62
1
39
211
10
125.111705
20
104.961465
11
125.158590
21
105.137126
0
LINE
8
annotation
62
1
39
211
10
125.158590
20
105.137126
11
125.175129
21
105.318712
0
LINE
8
annotation
62
1
39
211
10
125.175129
20
105.318712
11
125.160234
21
105.502105
0
LINE
8
annotation
62
1
39
211
10
125.160234
20
105.502105
11
125.112821
21
105.683183
0
LINE
8
annotation
62
1
39
211
10
125.112821
20
105.683183
11
125.031804
21
105.857829
0
LINE
8
annotation
62
1
39
211
10
125.031804
20
105.857829
11
125.031804
21
105.857829
0
LINE
8
annotation
62
1
39
211
10
125.031804
20
105.857829
11
124.921513
21
106.014538
0
LINE
8
annotation
62
1
39
211
10
124.921513
20
106.014538
11
124.788750
21
106.145534
0
LINE
8
annotation
62
1
39
211
10
124.788750
20
106.145534
11
124.637637
21
106.249675
0
LINE
8
annotation
62
1
39
211
10
124.637637
20
106.249675
11
124.472297
21
106.325820
0
LINE
8
annotation
62
1
39
211
10
124.472297
20
106.325820
11
124.296854
21
106.372829
0
LINE
8
annotation
62
1
39
211
10
124.296854
20
106.372829
11
124.115431
21
106.389559
0
LINE
8
annotation
62
1
39
211
10
124.115431
20
106.389559
11
123.932151
21
106.374870
0
LINE
8
annotation
62
1
39
211
10
123.932151
20
106.374870
11
123.751138
21
106.327621
0
LINE
8
annotation
62
1
39
211
10
123.751138
20
106.327621
11
123.576513
21
106.246671
0
LINE
8
annotation
62
1
39
211
10
123.576513
20
106.246671
11
122.653419
21
105.713722
0
LINE
8
annotation
62
1
39
211
10
119.696855
20
115.403865
11
117.812278
21
113.519287
0
LINE
8
annotation
62
1
39
211
10
117.812278
20
113.519287
11
115.925359
21
116.911484
0
LINE
8
annotation
62
1
39
211
10
119.886505
20
114.084405
11
118.379098
21
115.591812
0
LINE
8
annotation
62
1
39
211
10
109.617228
20
122.824608
11
110.150176
21
123.747703
0
LINE
8
annotation
62
1
39
211
10
110.150176
20
123.747703
11
110.150176
21
123.747703
0
LINE
8
annotation
62
1
39
211
10
110.150176
20
123.747703
11
110.230934
21
123.921981
0
LINE
8
annotation
62
1
39
211
10
110.230934
20
123.921981
11
110.278077
21
124.102812
0
LINE
8
annotation
62
1
39
211
10
110.278077
20
124.102812
11
110.292701
21
124.286058
0
LINE
8
annotation
62
1
39
211
10
110.292701
20
124.286058
11
110.275905
21
124.467577
0
LINE
8
annotation
62
1
39
211
10
110.275905
20
124.467577
11
110.228783
21
124.643228
0
LINE
8
annotation
62
1
39
211
10
110.228783
20
124.643228
11
110.152434
21
124.808871
0
LINE
8
annotation
62
1
39
211
10
110.152434
20
124.808871
11
110.047954
21
124.960366
0
LINE
8
annotation
62
1
39
211
10
110.047954
20
124.960366
11
109.916440
21
125.093571
0
LINE
8
annotation
62
1
39
211
10
109.916440
20
125.093571
11
109.758988
21
125.204348
0
LINE
8
annotation
62
1
39
211
10
109.758988
20
125.204348
11
109.299135
21
125.469844
0
LINE
8
annotation
62
1
39
211
10
109.299135
20
125.469844
11
109.299135
21
125.469844
0
LINE
8
annotation
62
1
39
211
10
109.299135
20
125.469844
11
109.124560
21
125.550775
0
LINE
8
annotation
62
1
39
211
10
109.124560
20
125.550775
11
108.943671
21
125.597964
0
LINE
8
annotation
62
1
39
211
10
108.943671
20
125.597964
11
108.760561
21
125.612547
0
LINE
8
annotation
62
1
39
211
10
108.760561
20
125.612547
11
108.579322
21
125.595659
0
LINE
8
annotation
62
1
39
211
10
108.579322
20
125.595659
11
108.404044
21
125.548439
0
LINE
8
annotation
62
1
39
211
10
108.404044
20
125.548439
11
108.238821
21
125.472021
0
LINE
8
annotation
62
1
39
211
10
108.238821
20
125.472021
11
108.087744
21
125.367541
0
LINE
8
annotation
62
1
39
211
10
108.087744
20
125.367541
11
107.954905
21
125.236138
0
LINE
8
annotation
62
1
39
211
10
107.954905
20
125.236138
11
107.844396
21
125.078946
0
LINE
8
annotation
62
1
39
211
10
107.844396
20
125.078946
11
107.311447
21
124.155851
0
LINE
8
annotation
62
1
39
211
10
107.311447
20
124.155851
11
105.460306
21
125.224608
0
LINE
8
annotation
62
1
39
211
10
105.460306
20
125.224608
11
106.526203
21
127.070797
0
LINE
8
annotation
62
1
39
211
10
93.590632
20
132.960976
11
93.590632
21
132.960976
0
LINE
8
annotation
62
1
39
211
10
93.590632
20
132.960976
11
93.622341
21
132.636411
0
LINE
8
annotation
62
1
39
211
10
93.622341
20
132.636411
11
93.698969
21
132.325868
0
LINE
8
annotation
62
1
39
211
10
93.698969
20
132.325868
11
93.817527
21
132.033124
0
LINE
8
annotation
62
1
39
211
10
93.817527
20
132.033124
11
93.975022
21
131.761957
0
LINE
8
annotation
62
1
39
211
10
93.975022
20
131.761957
11
94.168465
21
131.516144
0
LINE
8
annotation
62
1
39
211
10
94.168465
20
131.516144
11
94.394865
21
131.299462
0
LINE
8
annotation
62
1
39
211
10
94.394865
20
131.299462
11
94.651232
21
131.115688
0
LINE
8
annotation
62
1
39
211
10
94.651232
20
131.115688
11
94.934575
21
130.968600
0
LINE
8
annotation
62
1
39
211
10
94.934575
20
130.968600
11
95.241903
21
130.861976
0
LINE
8
annotation
62
1
39
211
10
95.241903
20
130.861976
11
96.783120
21
130.449784
0
LINE
8
annotation
62
1
39
211
10
96.783120
20
130.449784
11
96.783120
21
130.449784
0
LINE
8
annotation
62
1
39
211
10
96.783120
20
130.449784
11
96.972801
21
130.416869
0
LINE
8
annotation
62
1
39
211
10
96.972801
20
130.416869
11
97.159986
21
130.418153
0
LINE
8
annotation
62
1
39
211
10
97.159986
20
130.418153
11
97.340972
21
130.451483
0
LINE
8
annotation
62
1
39
211
10
97.340972
20
130.451483
11
97.512057
21
130.514704
0
LINE
8
annotation
62
1
39
211
10
97.512057
20
130.514704
11
97.669538
21
130.605662
0
LINE
8
annotation
62
1
39
211
10
97.669538
20
130.605662
11
97.809713
21
130.722204
0
LINE
8
annotation
62
1
39
211
10
97.809713
20
130.722204
11
97.928880
21
130.862175
0
LINE
8
annotation
62
1
39
211
10
97.928880
20
130.862175
11
98.023337
21
131.023422
0
LINE
8
annotation
62
1
39
211
10
98.023337
20
131.023422
11
98.089381
21
131.203791
0
LINE
8
annotation
62
1
39
211
10
98.089381
20
131.203791
11
98.089381
21
131.203791
0
LINE
8
annotation
62
1
39
211
10
98.089381
20
131.203791
11
98.122294
21
131.393430
0
LINE
8
annotation
62
1
39
211
10
98.122294
20
131.393430
11
98.120994
21
131.580504
0
LINE
8
annotation
62
1
39
211
10
98.120994
20
131.580504
11
98.087624
21
131.761335
0
LINE
8
annotation
62
1
39
211
10
98.087624
20
131.761335
11
98.024326
21
131.932244
0
LINE
8
annotation
62
1
39
211
10
98.024326
20
131.932244
11
97.933242
21
132.089552
0
LINE
8
annotation
62
1
39
211
10
97.933242
20
132.089552
11
97.816516
21
132.229580
0
LINE
8
annotation
62
1
39
211
10
97.816516
20
132.229580
11
97.676288
21
132.348649
0
LINE
8
annotation
62
1
39
211
10
97.676288
20
132.348649
11
97.514702
21
132.443082
0
LINE
8
annotation
62
1
39
211
10
97.514702
20
132.443082
11
97.333901
21
132.509199
0
LINE
8
annotation
62
1
39
211
10
97.333901
20
132.509199
11
96.820937
21
132.646389
0
LINE
8
annotation
62
1
39
211
10
96.820937
20
132.646389
11
96.820937
21
132.646389
0
LINE
8
annotation
62
1
39
211
10
96.820937
20
132.646389
11
96.631358
21
132.679328
0
LINE
8
annotation
62
1
39
211
10
96.631358
20
132.679328
11
96.444446
21
132.678100
0
LINE
8
annotation
62
1
39
211
10
96.444446
20
132.678100
11
96.263850
21
132.644833
0
LINE
8
annotation
62
1
39
211
10
96.263850
20
132.644833
11
96.093220
21
132.581657
0
LINE
8
annotation
62
1
39
211
10
96.093220
20
132.581657
11
95.936205
21
132.490702
0
LINE
8
annotation
62
1
39
211
10
95.936205
20
132.490702
11
95.796455
21
132.374097
0
LINE
8
annotation
62
1
39
211
10
95.796455
20
132.374097
11
95.677621
21
132.233973
0
LINE
8
annotation
62
1
39
211
10
95.677621
20
132.233973
11
95.583350
21
132.072458
0
LINE
8
annotation
62
1
39
211
10
95.583350
20
132.072458
11
95.517293
21
131.891683
0
LINE
8
annotation
62
1
39
211
10
95.517293
20
131.891683
11
95.241903
21
130.861976
0
LINE
8
annotation
62
1
39
211
10
98.359127
20
129.890096
11
98.979203
21
132.208610
0
LINE
8
annotation
62
1
39
211
10
84.129316
20
135.298772
11
79.329316
21
136.365874
0
LINE
8
annotation
62
1
39
211
10
79.329316
20
136.365874
11
79.329316
21
134.231370
0
LINE
8
annotation
62
1
39
211
10
81.466830
20
136.365874
11
81.466830
21
135.298772
0
LINE
8
annotation
62
1
39
211
10
68.403796
20
134.213820
11
68.403796
21
134.213820
0
LINE
8
annotation
62
1
39
211
10
68.403796
20
134.213820
11
68.584464
21
134.280046
0
LINE
8
annotation
62
1
39
211
10
68.584464
20
134.280046
11
68.745733
21
134.374610
0
LINE
8
annotation
62
1
39
211
10
68.745733
20
134.374610
11
68.885515
21
134.493808
0
LINE
8
annotation
62
1
39
211
10
68.885515
20
134.493808
11
69.001721
21
134.633936
0
LINE
8
annotation
62
1
39
211
10
69.001721
20
134.633936
11
69.092264
21
134.791290
0
LINE
8
annotation
62
1
39
211
10
69.092264
20
134.791290
11
69.155056
21
134.962165
0
LINE
8
annotation
62
1
39
211
10
69.155056
20
134.962165
11
69.188009
21
135.142859
0
LINE
8
annotation
62
1
39
211
10
69.188009
20
135.142859
11
69.189035
21
135.329666
0
LINE
8
annotation
62
1
39
211
10
69.189035
20
135.329666
11
69.156046
21
135.518883
0
LINE
8
annotation
62
1
39
211
10
69.156046
20
135.518883
11
69.156046
21
135.518883
0
LINE
8
annotation
62
1
39
211
10
69.156046
20
135.518883
11
69.090007
21
135.699244
0
LINE
8
annotation
62
1
39
211
10
69.090007
20
135.699244
11
68.995715
21
135.860511
0
LINE
8
annotation
62
1
39
211
10
68.995715
20
135.860511
11
68.876830
21
136.000520
0
LINE
8
annotation
62
1
39
211
10
68.876830
20
136.000520
11
68.737013
21
136.117106
0
LINE
8
annotation
62
1
39
211
10
68.737013
20
136.117106
11
68.579923
21
136.208107
0
LINE
8
annotation
62
1
39
211
10
68.579923
20
136.208107
11
68.409222
21
136.271358
0
LINE
8
annotation
62
1
39
211
10
68.409222
20
136.271358
11
68.228568
21
136.304696
0
LINE
8
annotation
62
1
39
211
10
68.228568
20
136.304696
11
68.041623
21
136.305957
0
LINE
8
annotation
62
1
39
211
10
68.041623
20
136.305957
11
67.852047
21
136.272976
0
LINE
8
annotation
62
1
39
211
10
67.852047
20
136.272976
11
67.339148
21
136.135545
0
LINE
8
annotation
62
1
39
211
10
67.339148
20
136.135545
11
67.339148
21
136.135545
0
LINE
8
annotation
62
1
39
211
10
67.339148
20
136.135545
11
67.158388
21
136.069305
0
LINE
8
annotation
62
1
39
211
10
67.158388
20
136.069305
11
66.996872
21
135.974700
0
LINE
8
annotation
62
1
39
211
10
66.996872
20
135.974700
11
66.856734
21
135.855440
0
LINE
8
annotation
62
1
39
211
10
66.856734
20
135.855440
11
66.740107
21
135.715233
0
LINE
8
annotation
62
1
39
211
10
66.740107
20
135.715233
11
66.649123
21
135.557786
0
LINE
8
annotation
62
1
39
211
10
66.649123
20
135.557786
11
66.585915
21
135.386810
0
LINE
8
annotation
62
1
39
211
10
66.585915
20
135.386810
11
66.552617
21
135.206011
0
LINE
8
annotation
62
1
39
211
10
66.552617
20
135.206011
11
66.551362
21
135.019099
0
LINE
8
annotation
62
1
39
211
10
66.551362
20
135.019099
11
66.584282
21
134.829781
0
LINE
8
annotation
62
1
39
211
10
66.584282
20
134.829781
11
66.584282
21
134.829781
0
LINE
8
annotation
62
1
39
211
10
66.584282
20
134.829781
11
66.650441
21
134.649370
0
LINE
8
annotation
62
1
39
211
10
66.650441
20
134.649370
11
66.745008
21
134.488133
0
LINE
8
annotation
62
1
39
211
10
66.745008
20
134.488133
11
66.864275
21
134.348214
0
LINE
8
annotation
62
1
39
211
10
66.864275
20
134.348214
11
67.004534
21
134.231756
0
LINE
8
annotation
62
1
39
211
10
67.004534
20
134.231756
11
67.162075
21
134.140902
0
LINE
8
annotation
62
1
39
211
10
67.162075
20
134.140902
11
67.333191
21
134.077795
0
LINE
8
annotation
62
1
39
211
10
67.333191
20
134.077795
11
67.514172
21
134.044579
0
LINE
8
annotation
62
1
39
211
10
67.514172
20
134.044579
11
67.701310
21
134.043396
0
LINE
8
annotation
62
1
39
211
10
67.701310
20
134.043396
11
67.890897
21
134.076389
0
LINE
8
annotation
62
1
39
211
10
67.890897
20
134.076389
11
68.403796
21
134.213820
0
LINE
8
annotation
62
1
39
211
10
65.277376
20
135.583095
11
65.277376
21
135.583095
0
LINE
8
annotation
62
1
39
211
10
65.277376
20
135.583095
11
65.097471
21
135.517083
0
LINE
8
annotation
62
1
39
211
10
65.097471
20
135.517083
11
64.936602
21
135.422652
0
LINE
8
annotation
62
1
39
211
10
64.936602
20
135.422652
11
64.796932
21
135.303518
0
LINE
8
annotation
62
1
39
211
10
64.796932
20
135.303518
11
64.680622
21
135.163395
0
LINE
8
annotation
62
1
39
211
10
64.680622
20
135.163395
11
64.589833
21
135.006001
0
LINE
8
annotation
62
1
39
211
10
64.589833
20
135.006001
11
64.526727
21
134.835052
0
LINE
8
annotation
62
1
39
211
10
64.526727
20
134.835052
11
64.493467
21
134.654263
0
LINE
8
annotation
62
1
39
211
10
64.493467
20
134.654263
11
64.492212
21
134.467351
0
LINE
8
annotation
62
1
39
211
10
64.492212
20
134.467351
11
64.525126
21
134.278032
0
LINE
8
annotation
62
1
39
211
10
64.525126
20
134.278032
11
64.525126
21
134.278032
0
LINE
8
annotation
62
1
39
211
10
64.525126
20
134.278032
11
64.591282
21
134.097620
0
LINE
8
annotation
62
1
39
211
10
64.591282
20
134.097620
11
64.685824
21
133.936376
0
LINE
8
annotation
62
1
39
211
10
64.685824
20
133.936376
11
64.805023
21
133.796439
0
LINE
8
annotation
62
1
39
211
10
64.805023
20
133.796439
11
64.945149
21
133.679945
0
LINE
8
annotation
62
1
39
211
10
64.945149
20
133.679945
11
65.102471
21
133.589033
0
LINE
8
annotation
62
1
39
211
10
65.102471
20
133.589033
11
65.273260
21
133.525838
0
LINE
8
annotation
62
1
39
211
10
65.273260
20
133.525838
11
65.453785
21
133.492500
0
LINE
8
annotation
62
1
39
211
10
65.453785
20
133.492500
11
65.640317
21
133.491154
0
LINE
8
annotation
62
1
39
211
10
65.640317
20
133.491154
11
65.829125
21
133.523939
0
LINE
8
annotation
62
1
39
211
10
65.829125
20
133.523939
11
65.829125
21
133.523939
0
LINE
8
annotation
62
1
39
211
10
65.829125
20
133.523939
11
66.009893
21
133.590192
0
LINE
8
annotation
62
1
39
211
10
66.009893
20
133.590192
11
66.171429
21
133.684828
0
LINE
8
annotation
62
1
39
211
10
66.171429
20
133.684828
11
66.311597
21
133.804129
0
LINE
8
annotation
62
1
39
211
10
66.311597
20
133.804129
11
66.428262
21
133.944380
0
LINE
8
annotation
62
1
39
211
10
66.428262
20
133.944380
11
66.519288
21
134.101863
0
LINE
8
annotation
62
1
39
211
10
66.519288
20
134.101863
11
66.582538
21
134.272861
0
LINE
8
annotation
62
1
39
211
10
66.582538
20
134.272861
11
66.615878
21
134.453658
0
LINE
8
annotation
62
1
39
211
10
66.615878
20
134.453658
11
66.617171
21
134.640537
0
LINE
8
annotation
62
1
39
211
10
66.617171
20
134.640537
11
66.584282
21
134.829781
0
LINE
8
annotation
62
1
39
211
10
66.584282
20
134.829781
11
66.584282
21
134.829781
0
LINE
8
annotation
62
1
39
211
10
66.584282
20
134.829781
11
66.518143
21
135.010116
0
LINE
8
annotation
62
1
39
211
10
66.518143
20
135.010116
11
66.423584
21
135.171311
0
LINE
8
annotation
62
1
39
211
10
66.423584
20
135.171311
11
66.304312
21
135.311216
0
LINE
8
annotation
62
1
39
211
10
66.304312
20
135.311216
11
66.164036
21
135.427680
0
LINE
8
annotation
62
1
39
211
10
66.164036
20
135.427680
11
66.006464
21
135.518551
0
LINE
8
annotation
62
1
39
211
10
66.006464
20
135.518551
11
65.835304
21
135.581679
0
LINE
8
annotation
62
1
39
211
10
65.835304
20
135.581679
11
65.654264
21
135.614913
0
LINE
8
annotation
62
1
39
211
10
65.654264
20
135.614913
11
65.467052
21
135.616102
0
LINE
8
annotation
62
1
39
211
10
65.467052
20
135.616102
11
65.277376
21
135.583095
0
LINE
8
annotation
62
1
39
211
10
54.691660
20
130.951924
11
54.691660
21
130.951924
0
LINE
8
annotation
62
1
39
211
10
54.691660
20
130.951924
11
54.440881
21
131.159107
0
LINE
8
annotation
62
1
39
211
10
54.440881
20
131.159107
11
54.168024
21
131.324637
0
LINE
8
annotation
62
1
39
211
10
54.168024
20
131.324637
11
53.877921
21
131.447968
0
LINE
8
annotation
62
1
39
211
10
53.877921
20
131.447968
11
53.575406
21
131.528550
0
LINE
8
annotation
62
1
39
211
10
53.575406
20
131.528550
11
53.265312
21
131.565835
0
LINE
8
annotation
62
1
39
211
10
53.265312
20
131.565835
11
52.952474
21
131.559277
0
LINE
8
annotation
62
1
39
211
10
52.952474
20
131.559277
11
52.641723
21
131.508327
0
LINE
8
annotation
62
1
39
211
10
52.641723
20
131.508327
11
52.337895
21
131.412437
0
LINE
8
annotation
62
1
39
211
10
52.337895
20
131.412437
11
52.045823
21
131.271059
0
LINE
8
annotation
62
1
39
211
10
52.045823
20
131.271059
11
50.659487
21
130.470657
0
LINE
8
annotation
62
1
39
211
10
50.659487
20
130.470657
11
50.659487
21
130.470657
0
LINE
8
annotation
62
1
39
211
10
50.659487
20
130.470657
11
50.502001
21
130.359919
0
LINE
8
annotation
62
1
39
211
10
50.502001
20
130.359919
11
50.370401
21
130.226806
0
LINE
8
annotation
62
1
39
211
10
50.370401
20
130.226806
11
50.265806
21
130.075431
0
LINE
8
annotation
62
1
39
211
10
50.265806
20
130.075431
11
50.189335
21
129.909904
0
LINE
8
annotation
62
1
39
211
10
50.189335
20
129.909904
11
50.142109
21
129.734335
0
LINE
8
annotation
62
1
39
211
10
50.142109
20
129.734335
11
50.125246
21
129.552835
0
LINE
8
annotation
62
1
39
211
10
50.125246
20
129.552835
11
50.139867
21
129.369516
0
LINE
8
annotation
62
1
39
211
10
50.139867
20
129.369516
11
50.187091
21
129.188488
0
LINE
8
annotation
62
1
39
211
10
50.187091
20
129.188488
11
50.268038
21
129.013862
0
LINE
8
annotation
62
1
39
211
10
50.268038
20
129.013862
11
50.268038
21
129.013862
0
LINE
8
annotation
62
1
39
211
10
50.268038
20
129.013862
11
50.378597
21
128.856790
0
LINE
8
annotation
62
1
39
211
10
50.378597
20
128.856790
11
50.511655
21
128.725561
0
LINE
8
annotation
62
1
39
211
10
50.511655
20
128.725561
11
50.663072
21
128.621293
0
LINE
8
annotation
62
1
39
211
10
50.663072
20
128.621293
11
50.828712
21
128.545104
0
LINE
8
annotation
62
1
39
211
10
50.828712
20
128.545104
11
51.004434
21
128.498111
0
LINE
8
annotation
62
1
39
211
10
51.004434
20
128.498111
11
51.186101
21
128.481434
0
LINE
8
annotation
62
1
39
211
10
51.186101
20
128.481434
11
51.369574
21
128.496189
0
LINE
8
annotation
62
1
39
211
10
51.369574
20
128.496189
11
51.550714
21
128.543494
0
LINE
8
annotation
62
1
39
211
10
51.550714
20
128.543494
11
51.725384
21
128.624469
0
LINE
8
annotation
62
1
39
211
10
51.725384
20
128.624469
11
52.187583
21
128.891319
0
LINE
8
annotation
62
1
39
211
10
52.187583
20
128.891319
11
52.187583
21
128.891319
0
LINE
8
annotation
62
1
39
211
10
52.187583
20
128.891319
11
52.345035
21
129.002096
0
LINE
8
annotation
62
1
39
211
10
52.345035
20
129.002096
11
52.476549
21
129.135301
0
LINE
8
annotation
62
1
39
211
10
52.476549
20
129.135301
11
52.581029
21
129.286796
0
LINE
8
annotation
62
1
39
211
10
52.581029
20
129.286796
11
52.657378
21
129.452439
0
LINE
8
annotation
62
1
39
211
10
52.657378
20
129.452439
11
52.704500
21
129.628090
0
LINE
8
annotation
62
1
39
211
10
52.704500
20
129.628090
11
52.721296
21
129.809609
0
LINE
8
annotation
62
1
39
211
10
52.721296
20
129.809609
11
52.706672
21
129.992855
0
LINE
8
annotation
62
1
39
211
10
52.706672
20
129.992855
11
52.659529
21
130.173686
0
LINE
8
annotation
62
1
39
211
10
52.659529
20
130.173686
11
52.578771
21
130.347964
0
LINE
8
annotation
62
1
39
211
10
52.578771
20
130.347964
11
52.045823
21
131.271059
0
LINE
8
annotation
62
1
39
211
10
55.544124
20
130.675413
11
54.344124
21
132.753874
0
LINE
8
annotation
62
1
39
211
10
41.772887
20
122.297017
11
38.753629
21
119.277759
0
LINE
8
annotation
62
1
39
211
10
38.753629
20
119.277759
11
40.096257
21
119.277948
0
LINE
8
annotation
62
1
39
211
10
40.115961
20
123.874292
11
40.115961
21
123.874292
0
LINE
8
annotation
62
1
39
211
10
40.115961
20
123.874292
11
40.072022
21
123.970695
0
LINE
8
annotation
62
1
39
211
10
40.072022
20
123.970695
11
40.013088
21
124.055694
0
LINE
8
annotation
62
1
39
211
10
40.013088
20
124.055694
11
39.941317
21
124.128193
0
LINE
8
annotation
62
1
39
211
10
39.941317
20
124.128193
11
39.858869
21
124.187097
0
LINE
8
annotation
62
1
39
211
10
39.858869
20
124.187097
11
39.767901
21
124.231310
0
LINE
8
annotation
62
1
39
211
10
39.767901
20
124.231310
11
39.670571
21
124.259737
0
LINE
8
annotation
62
1
39
211
10
39.670571
20
124.259737
11
39.569039
21
124.271282
0
LINE
8
annotation
62
1
39
211
10
39.569039
20
124.271282
11
39.465462
21
124.264850
0
LINE
8
annotation
62
1
39
211
10
39.465462
20
124.264850
11
39.361999
21
124.239344
0
LINE
8
annotation
62
1
39
211
10
39.361999
20
124.239344
11
39.361999
21
124.239344
0
LINE
8
annotation
62
1
39
211
10
39.361999
20
124.239344
11
38.973475
21
124.083418
0
LINE
8
annotation
62
1
39
211
10
38.973475
20
124.083418
11
38.606147
21
123.890537
0
LINE
8
annotation
62
1
39
211
10
38.606147
20
123.890537
11
38.262248
21
123.662936
0
LINE
8
annotation
62
1
39
211
10
38.262248
20
123.662936
11
37.944010
21
123.402848
0
LINE
8
annotation
62
1
39
211
10
37.944010
20
123.402848
11
37.653667
21
123.112505
0
LINE
8
annotation
62
1
39
211
10
37.653667
20
123.112505
11
37.393452
21
122.794141
0
LINE
8
annotation
62
1
39
211
10
37.393452
20
122.794141
11
37.165599
21
122.449989
0
LINE
8
annotation
62
1
39
211
10
37.165599
20
122.449989
11
36.972340
21
122.082282
0
LINE
8
annotation
62
1
39
211
10
36.972340
20
122.082282
11
36.815908
21
121.693254
0
LINE
8
annotation
62
1
39
211
10
36.815908
20
121.693254
11
36.815908
21
121.693254
0
LINE
8
annotation
62
1
39
211
10
36.815908
20
121.693254
11
36.803174
21
121.650940
0
LINE
8
annotation
62
1
39
211
10
36.803174
20
121.650940
11
36.793626
21
121.607857
0
LINE
8
annotation
62
1
39
211
10
36.793626
20
121.607857
11
36.787268
21
121.564262
0
LINE
8
annotation
62
1
39
211
10
36.787268
20
121.564262
11
36.784104
21
121.520410
0
LINE
8
annotation
62
1
39
211
10
36.784104
20
121.520410
11
36.784136
21
121.476556
0
LINE
8
annotation
62
1
39
211
10
36.784136
20
121.476556
11
36.787367
21
121.432957
0
LINE
8
annotation
62
1
39
211
10
36.787367
20
121.432957
11
36.793800
21
121.389867
0
LINE
8
annotation
62
1
39
211
10
36.793800
20
121.389867
11
36.803439
21
121.347542
0
LINE
8
annotation
62
1
39
211
10
36.803439
20
121.347542
11
36.816287
21
121.306237
0
LINE
8
annotation
62
1
39
211
10
36.816287
20
121.306237
11
36.816287
21
121.306237
0
LINE
8
annotation
62
1
39
211
10
36.816287
20
121.306237
11
36.860215
21
121.208709
0
LINE
8
annotation
62
1
39
211
10
36.860215
20
121.208709
11
36.919125
21
121.122843
0
LINE
8
annotation
62
1
39
211
10
36.919125
20
121.122843
11
36.990875
21
121.049713
0
LINE
8
annotation
62
1
39
211
10
36.990875
20
121.049713
11
37.073321
21
120.990394
0
LINE
8
annotation
62
1
39
211
10
37.073321
20
120.990394
11
37.164322
21
120.945959
0
LINE
8
annotation
62
1
39
211
10
37.164322
20
120.945959
11
37.261733
21
120.917482
0
LINE
8
annotation
62
1
39
211
10
37.261733
20
120.917482
11
37.363413
21
120.906036
0
LINE
8
annotation
62
1
39
211
10
37.363413
20
120.906036
11
37.467218
21
120.912696
0
LINE
8
annotation
62
1
39
211
10
37.467218
20
120.912696
11
37.571007
21
120.938534
0
LINE
8
annotation
62
1
39
211
10
37.571007
20
120.938534
11
37.571007
21
120.938534
0
LINE
8
annotation
62
1
39
211
10
37.571007
20
120.938534
11
37.958913
21
121.094966
0
LINE
8
annotation
62
1
39
211
10
37.958913
20
121.094966
11
38.325779
21
121.288225
0
LINE
8
annotation
62
1
39
211
10
38.325779
20
121.288225
11
38.669369
21
121.516078
0
LINE
8
annotation
62
1
39
211
10
38.669369
20
121.516078
11
38.987453
21
121.776293
0
LINE
8
annotation
62
1
39
211
10
38.987453
20
121.776293
11
39.277796
21
122.066636
0
LINE
8
annotation
62
1
39
211
10
39.277796
20
122.066636
11
39.538165
21
122.384873
0
LINE
8
annotation
62
1
39
211
10
39.538165
20
122.384873
11
39.766327
21
122.728773
0
LINE
8
annotation
62
1
39
211
10
39.766327
20
122.728773
11
39.960049
21
123.096101
0
LINE
8
annotation
62
1
39
211
10
39.960049
20
123.096101
11
40.117097
21
123.484625
0
LINE
8
annotation
62
1
39
211
10
40.117097
20
123.484625
11
40.117097
21
123.484625
0
LINE
8
annotation
62
1
39
211
10
40.117097
20
123.484625
11
40.129831
21
123.526830
0
LINE
8
annotation
62
1
39
211
10
40.129831
20
123.526830
11
40.139371
21
123.569657
0
LINE
8
annotation
62
1
39
211
10
40.139371
20
123.569657
11
40.145709
21
123.612957
0
LINE
8
annotation
62
1
39
211
10
40.145709
20
123.612957
11
40.148835
21
123.656579
0
LINE
8
annotation
62
1
39
211
10
40.148835
20
123.656579
11
40.148740
21
123.700374
0
LINE
8
annotation
62
1
39
211
10
40.148740
20
123.700374
11
40.145415
21
123.744192
0
LINE
8
annotation
62
1
39
211
10
40.145415
20
123.744192
11
40.138849
21
123.787885
0
LINE
8
annotation
62
1
39
211
10
40.138849
20
123.787885
11
40.129035
21
123.831301
0
LINE
8
annotation
62
1
39
211
10
40.129035
20
123.831301
11
40.115961
21
123.874292
0
LINE
8
annotation
62
1
39
211
10
31.604030
20
110.906149
11
29.313417
21
106.938690
0
LINE
8
annotation
62
1
39
211
10
29.313417
20
106.938690
11
30.704810
21
107.311723
0
LINE
8
annotation
62
1
39
211
10
29.234217
20
112.274361
11
26.943604
21
108.306903
0
LINE
8
annotation
62
1
39
211
10
26.943604
20
108.306903
11
28.334997
21
108.679936
0
LINE
8
annotation
62
1
39
211
10
24.537390
20
96.719636
11
23.500501
21
92.849917
0
LINE
8
annotation
62
1
39
211
10
23.500501
20
92.849917
11
24.591368
21
93.479934
0
LINE
8
annotation
62
1
39
211
10
21.367448
20
97.569053
11
23.086082
21
97.108546
0
LINE
8
annotation
62
1
39
211
10
23.086082
20
97.108546
11
20.812969
21
94.977473
0
LINE
8
annotation
62
1
39
211
10
20.812969
20
94.977473
11
20.812969
21
94.977473
0
LINE
8
annotation
62
1
39
211
10
20.812969
20
94.977473
11
20.810442
21
94.975632
0
LINE
8
annotation
62
1
39
211
10
20.810442
20
94.975632
11
20.807986
21
94.973751
0
LINE
8
annotation
62
1
39
211
10
20.807986
20
94.973751
11
20.805586
21
94.971812
0
LINE
8
annotation
62
1
39
211
10
20.805586
20
94.971812
11
20.803224
21
94.969799
0
LINE
8
annotation
62
1
39
211
10
20.803224
20
94.969799
11
20.800882
21
94.967694
0
LINE
8
annotation
62
1
39
211
10
20.800882
20
94.967694
11
20.798543
21
94.965482
0
LINE
8
annotation
62
1
39
211
10
20.798543
20
94.965482
11
20.796191
21
94.963145
0
LINE
8
annotation
62
1
39
211
10
20.796191
20
94.963145
11
20.793806
21
94.960666
0
LINE
8
annotation
62
1
39
211
10
20.793806
20
94.960666
11
20.791373
21
94.958030
0
LINE
8
annotation
62
1
39
211
10
20.791373
20
94.958030
11
20.791373
21
94.958030
0
LINE
8
annotation
62
1
39
211
10
20.791373
20
94.958030
11
20.688078
21
94.834813
0
LINE
8
annotation
62
1
39
211
10
20.688078
20
94.834813
11
20.610669
21
94.699138
0
LINE
8
annotation
62
1
39
211
10
20.610669
20
94.699138
11
20.559089
21
94.554556
0
LINE
8
annotation
62
1
39
211
10
20.559089
20
94.554556
11
20.533285
21
94.404616
0
LINE
8
annotation
62
1
39
211
10
20.533285
20
94.404616
11
20.533201
21
94.252866
0
LINE
8
annotation
62
1
39
211
10
20.533201
20
94.252866
11
20.558781
21
94.102855
0
LINE
8
annotation
62
1
39
211
10
20.558781
20
94.102855
11
20.609971
21
93.958133
0
LINE
8
annotation
62
1
39
211
10
20.609971
20
93.958133
11
20.686716
21
93.822250
0
LINE
8
annotation
62
1
39
211
10
20.686716
20
93.822250
11
20.788960
21
93.698753
0
LINE
8
annotation
62
1
39
211
10
20.788960
20
93.698753
11
20.788960
21
93.698753
0
LINE
8
annotation
62
1
39
211
10
20.788960
20
93.698753
11
20.912818
21
93.596285
0
LINE
8
annotation
62
1
39
211
10
20.912818
20
93.596285
11
21.048874
21
93.519405
0
LINE
8
annotation
62
1
39
211
10
21.048874
20
93.519405
11
21.193633
21
93.468141
0
LINE
8
annotation
62
1
39
211
10
21.193633
20
93.468141
11
21.343599
21
93.442520
0
LINE
8
annotation
62
1
39
211
10
21.343599
20
93.442520
11
21.495277
21
93.442567
0
LINE
8
annotation
62
1
39
211
10
21.495277
20
93.442567
11
21.645173
21
93.468310
0
LINE
8
annotation
62
1
39
211
10
21.645173
20
93.468310
11
21.789791
21
93.519775
0
LINE
8
annotation
62
1
39
211
10
21.789791
20
93.519775
11
21.925635
21
93.596989
0
LINE
8
annotation
62
1
39
211
10
21.925635
20
93.596989
11
22.049212
21
93.699979
0
LINE
8
annotation
62
1
39
211
10
22.049212
20
93.699979
11
22.220059
21
93.886210
0
LINE
8
annotation
62
1
39
211
10
21.698671
20
81.352546
11
21.698671
21
77.290112
0
LINE
8
annotation
62
1
39
211
10
21.698671
20
77.290112
11
22.601802
21
78.193498
0
LINE
8
annotation
62
1
39
211
10
20.175386
20
81.352418
11
19.273274
21
81.352418
0
LINE
8
annotation
62
1
39
211
10
19.273274
20
81.352418
11
19.273274
21
81.352418
0
LINE
8
annotation
62
1
39
211
10
19.273274
20
81.352418
11
19.111027
21
81.337864
0
LINE
8
annotation
62
1
39
211
10
19.111027
20
81.337864
11
18.958358
21
81.295917
0
LINE
8
annotation
62
1
39
211
10
18.958358
20
81.295917
11
18.817807
21
81.229151
0
LINE
8
annotation
62
1
39
211
10
18.817807
20
81.229151
11
18.691912
21
81.140143
0
LINE
8
annotation
62
1
39
211
10
18.691912
20
81.140143
11
18.583213
21
81.031467
0
LINE
8
annotation
62
1
39
211
10
18.583213
20
81.031467
11
18.494250
21
80.905698
0
LINE
8
annotation
62
1
39
211
10
18.494250
20
80.905698
11
18.427561
21
80.765411
0
LINE
8
annotation
62
1
39
211
10
18.427561
20
80.765411
11
18.385685
21
80.613180
0
LINE
8
annotation
62
1
39
211
10
18.385685
20
80.613180
11
18.371162
21
80.451580
0
LINE
8
annotation
62
1
39
211
10
18.371162
20
80.451580
11
18.371162
21
79.999887
0
LINE
8
annotation
62
1
39
211
10
18.371162
20
79.999887
11
18.371162
21
79.999887
0
LINE
8
annotation
62
1
39
211
10
18.371162
20
79.999887
11
18.385685
21
79.838355
0
LINE
8
annotation
62
1
39
211
10
18.385685
20
79.838355
11
18.427561
21
79.686160
0
LINE
8
annotation
62
1
39
211
10
18.427561
20
79.686160
11
18.494250
21
79.545883
0
LINE
8
annotation
62
1
39
211
10
18.494250
20
79.545883
11
18.583213
21
79.420105
0
LINE
8
annotation
62
1
39
211
10
18.583213
20
79.420105
11
18.691912
21
79.311408
0
LINE
8
annotation
62
1
39
211
10
18.691912
20
79.311408
11
18.817807
21
79.222373
0
LINE
8
annotation
62
1
39
211
10
18.817807
20
79.222373
11
18.958358
21
79.155581
0
LINE
8
annotation
62
1
39
211
10
18.958358
20
79.155581
11
19.111027
21
79.113612
0
LINE
8
annotation
62
1
39
211
10
19.111027
20
79.113612
11
19.273274
21
79.099049
0
LINE
8
annotation
62
1
39
211
10
19.273274
20
79.099049
11
19.724967
21
79.099049
0
LINE
8
annotation
62
1
39
211
10
19.724967
20
79.099049
11
19.273274
21
79.099049
0
LINE
8
annotation
62
1
39
211
10
19.273274
20
79.099049
11
19.273274
21
79.099049
0
LINE
8
annotation
62
1
39
211
10
19.273274
20
79.099049
11
19.111027
21
79.084483
0
LINE
8
annotation
62
1
39
211
10
19.111027
20
79.084483
11
18.958358
21
79.042490
0
LINE
8
annotation
62
1
39
211
10
18.958358
20
79.042490
11
18.817807
21
78.975631
0
LINE
8
annotation
62
1
39
211
10
18.817807
20
78.975631
11
18.691912
21
78.886467
0
LINE
8
annotation
62
1
39
211
10
18.691912
20
78.886467
11
18.583213
21
78.777557
0
LINE
8
annotation
62
1
39
211
10
18.583213
20
78.777557
11
18.494250
21
78.651461
0
LINE
8
annotation
62
1
39
211
10
18.494250
20
78.651461
11
18.427561
21
78.510740
0
LINE
8
annotation
62
1
39
211
10
18.427561
20
78.510740
11
18.385685
21
78.357954
0
LINE
8
annotation
62
1
39
211
10
18.385685
20
78.357954
11
18.371162
21
78.195664
0
LINE
8
annotation
62
1
39
211
10
18.371162
20
78.195664
11
18.371162
21
78.195664
0
LINE
8
annotation
62
1
39
211
10
18.371162
20
78.195664
11
18.385685
21
78.034131
0
LINE
8
annotation
62
1
39
211
10
18.385685
20
78.034131
11
18.427561
21
77.881936
0
LINE
8
annotation
62
1
39
211
10
18.427561
20
77.881936
11
18.494250
21
77.741659
0
LINE
8
annotation
62
1
39
211
10
18.494250
20
77.741659
11
18.583213
21
77.615881
0
LINE
8
annotation
62
1
39
211
10
18.583213
20
77.615881
11
18.691912
21
77.507184
0
LINE
8
annotation
62
1
39
211
10
18.691912
20
77.507184
11
18.817807
21
77.418149
0
LINE
8
annotation
62
1
39
211
10
18.817807
20
77.418149
11
18.958358
21
77.351357
0
LINE
8
annotation
62
1
39
211
10
18.958358
20
77.351357
11
19.111027
21
77.309388
0
LINE
8
annotation
62
1
39
211
10
19.111027
20
77.309388
11
19.273274
21
77.294825
0
LINE
8
annotation
62
1
39
211
10
19.273274
20
77.294825
11
20.175386
21
77.294825
0
LINE
8
annotation
62
1
39
211
10
23.281357
20
65.601956
11
24.252212
21
61.978675
0
LINE
8
annotation
62
1
39
211
10
24.252212
20
61.978675
11
24.841819
21
63.000238
0
LINE
8
annotation
62
1
39
211
10
20.126751
20
63.893348
11
22.138574
21
64.432414
0
LINE
8
annotation
62
1
39
211
10
22.138574
20
64.432414
11
22.090139
21
61.399350
0
LINE
8
annotation
62
1
39
211
10
20.513964
20
64.860435
11
20.945144
21
63.251250
0
LINE
8
annotation
62
1
39
211
10
28.673972
20
51.208921
11
30.855584
21
47.430257
0
LINE
8
annotation
62
1
39
211
10
30.855584
20
47.430257
11
31.210492
21
48.755540
0
LINE
8
annotation
62
1
39
211
10
27.257092
20
50.390885
11
26.417994
21
49.906431
0
LINE
8
annotation
62
1
39
211
10
26.417994
20
49.906431
11
26.417994
21
49.906431
0
LINE
8
annotation
62
1
39
211
10
26.417994
20
49.906431
11
26.275211
21
49.805941
0
LINE
8
annotation
62
1
39
211
10
26.275211
20
49.805941
11
26.155910
21
49.685012
0
LINE
8
annotation
62
1
39
211
10
26.155910
20
49.685012
11
26.061112
21
49.547405
0
LINE
8
annotation
62
1
39
211
10
26.061112
20
49.547405
11
25.991834
21
49.396875
0
LINE
8
annotation
62
1
39
211
10
25.991834
20
49.396875
11
25.949095
21
49.237182
0
LINE
8
annotation
62
1
39
211
10
25.949095
20
49.237182
11
25.933913
21
49.072083
0
LINE
8
annotation
62
1
39
211
10
25.933913
20
49.072083
11
25.947307
21
48.905337
0
LINE
8
annotation
62
1
39
211
10
25.947307
20
48.905337
11
25.990296
21
48.740701
0
LINE
8
annotation
62
1
39
211
10
25.990296
20
48.740701
11
26.063897
21
48.581933
0
LINE
8
annotation
62
1
39
211
10
26.063897
20
48.581933
11
26.305235
21
48.163925
0
LINE
8
annotation
62
1
39
211
10
26.305235
20
48.163925
11
26.305235
21
48.163925
0
LINE
8
annotation
62
1
39
211
10
26.305235
20
48.163925
11
26.405881
21
48.020869
0
LINE
8
annotation
62
1
39
211
10
26.405881
20
48.020869
11
26.526833
21
47.901506
0
LINE
8
annotation
62
1
39
211
10
26.526833
20
47.901506
11
26.664353
21
47.806802
0
LINE
8
annotation
62
1
39
211
10
26.664353
20
47.806802
11
26.814704
21
47.737723
0
LINE
8
annotation
62
1
39
211
10
26.814704
20
47.737723
11
26.974148
21
47.695232
0
LINE
8
annotation
62
1
39
211
10
26.974148
20
47.695232
11
27.138947
21
47.680296
0
LINE
8
annotation
62
1
39
211
10
27.138947
20
47.680296
11
27.305364
21
47.693879
0
LINE
8
annotation
62
1
39
211
10
27.305364
20
47.693879
11
27.469661
21
47.736947
0
LINE
8
annotation
62
1
39
211
10
27.469661
20
47.736947
11
27.628101
21
47.810465
0
LINE
8
annotation
62
1
39
211
10
27.628101
20
47.810465
11
28.467198
21
48.294918
0
LINE
8
annotation
62
1
39
211
10
28.467198
20
48.294918
11
29.438704
21
46.612221
0
LINE
8
annotation
62
1
39
211
10
29.438704
20
46.612221
11
27.760509
21
45.643315
0
LINE
8
annotation
62
1
39
211
10
37.918129
20
38.711581
11
41.119568
21
35.510142
0
LINE
8
annotation
62
1
39
211
10
41.119568
20
35.510142
11
41.119367
21
36.933785
0
LINE
8
annotation
62
1
39
211
10
38.851247
20
33.241821
11
38.851247
21
33.241821
0
LINE
8
annotation
62
1
39
211
10
38.851247
20
33.241821
11
38.978546
21
33.521841
0
LINE
8
annotation
62
1
39
211
10
38.978546
20
33.521841
11
39.062545
21
33.811612
0
LINE
8
annotation
62
1
39
211
10
39.062545
20
33.811612
11
39.103901
21
34.106638
0
LINE
8
annotation
62
1
39
211
10
39.103901
20
34.106638
11
39.103275
21
34.402422
0
LINE
8
annotation
62
1
39
211
10
39.103275
20
34.402422
11
39.061325
21
34.694469
0
LINE
8
annotation
62
1
39
211
10
39.061325
20
34.694469
11
38.978712
21
34.978281
0
LINE
8
annotation
62
1
39
211
10
38.978712
20
34.978281
11
38.856093
21
35.249364
0
LINE
8
annotation
62
1
39
211
10
38.856093
20
35.249364
11
38.694129
21
35.503220
0
LINE
8
annotation
62
1
39
211
10
38.694129
20
35.503220
11
38.493479
21
35.735353
0
LINE
8
annotation
62
1
39
211
10
38.493479
20
35.735353
11
37.429411
21
36.799421
0
LINE
8
annotation
62
1
39
211
10
37.429411
20
36.799421
11
37.429411
21
36.799421
0
LINE
8
annotation
62
1
39
211
10
37.429411
20
36.799421
11
37.290045
21
36.915831
0
LINE
8
annotation
62
1
39
211
10
37.290045
20
36.915831
11
37.136576
21
37.003134
0
LINE
8
annotation
62
1
39
211
10
37.136576
20
37.003134
11
36.973044
21
37.061341
0
LINE
8
annotation
62
1
39
211
10
36.973044
20
37.061341
11
36.803489
21
37.090464
0
LINE
8
annotation
62
1
39
211
10
36.803489
20
37.090464
11
36.631951
21
37.090515
0
LINE
8
annotation
62
1
39
211
10
36.631951
20
37.090515
11
36.462470
21
37.061504
0
LINE
8
annotation
62
1
39
211
10
36.462470
20
37.061504
11
36.299087
21
37.003445
0
LINE
8
annotation
62
1
39
211
10
36.299087
20
37.003445
11
36.145841
21
36.916347
0
LINE
8
annotation
62
1
39
211
10
36.145841
20
36.916347
11
36.006773
21
36.800224
0
LINE
8
annotation
62
1
39
211
10
36.006773
20
36.800224
11
36.006773
21
36.800224
0
LINE
8
annotation
62
1
39
211
10
36.006773
20
36.800224
11
35.890385
21
36.660891
0
LINE
8
annotation
62
1
39
211
10
35.890385
20
36.660891
11
35.803147
21
36.507505
0
LINE
8
annotation
62
1
39
211
10
35.803147
20
36.507505
11
35.745046
21
36.344080
0
LINE
8
annotation
62
1
39
211
10
35.745046
20
36.344080
11
35.716069
21
36.174632
0
LINE
8
annotation
62
1
39
211
10
35.716069
20
36.174632
11
35.716202
21
36.003177
0
LINE
8
annotation
62
1
39
211
10
35.716202
20
36.003177
11
35.745433
21
35.833729
0
LINE
8
annotation
62
1
39
211
10
35.745433
20
35.833729
11
35.803747
21
35.670305
0
LINE
8
annotation
62
1
39
211
10
35.803747
20
35.670305
11
35.891133
21
35.516918
0
LINE
8
annotation
62
1
39
211
10
35.891133
20
35.516918
11
36.007576
21
35.377586
0
LINE
8
annotation
62
1
39
211
10
36.007576
20
35.377586
11
36.361730
21
35.023432
0
LINE
8
annotation
62
1
39
211
10
36.361730
20
35.023432
11
36.361730
21
35.023432
0
LINE
8
annotation
62
1
39
211
10
36.361730
20
35.023432
11
36.501000
21
34.907051
0
LINE
8
annotation
62
1
39
211
10
36.501000
20
34.907051
11
36.654221
21
34.819831
0
LINE
8
annotation
62
1
39
211
10
36.654221
20
34.819831
11
36.817405
21
34.761757
0
LINE
8
annotation
62
1
39
211
10
36.817405
20
34.761757
11
36.986568
21
34.732812
0
LINE
8
annotation
62
1
39
211
10
36.986568
20
34.732812
11
37.157723
21
34.732978
0
LINE
8
annotation
62
1
39
211
10
37.157723
20
34.732978
11
37.326886
21
34.762241
0
LINE
8
annotation
62
1
39
211
10
37.326886
20
34.762241
11
37.490070
21
34.820582
0
LINE
8
annotation
62
1
39
211
10
37.490070
20
34.820582
11
37.643290
21
34.907986
0
LINE
8
annotation
62
1
39
211
10
37.643290
20
34.907986
11
37.782561
21
35.024435
0
LINE
8
annotation
62
1
39
211
10
37.782561
20
35.024435
11
38.493479
21
35.735353
0
LINE
8
annotation
62
1
39
211
10
36.406551
20
38.000362
11
34.805832
21
36.399643
0
LINE
8
annotation
62
1
39
211
10
50.458092
20
29.725795
11
54.413936
21
27.441888
0
LINE
8
annotation
62
1
39
211
10
54.413936
20
27.441888
11
54.041995
21
28.829208
0
LINE
8
annotation
62
1
39
211
10
49.093885
20
27.362919
11
52.541987
21
24.199577
0
LINE
8
annotation
62
1
39
211
10
52.541987
20
24.199577
11
53.557614
21
25.958695
0
LINE
8
annotation
62
1
39
211
10
50.780389
20
25.216636
11
51.288131
21
26.096071
0
LINE
8
annotation
62
1
39
211
10
64.866293
20
25.291607
11
69.318262
21
24.098706
0
LINE
8
annotation
62
1
39
211
10
69.318262
20
24.098706
11
68.593450
21
25.353707
0
LINE
8
annotation
62
1
39
211
10
65.406070
20
23.357772
11
65.406070
21
23.357772
0
LINE
8
annotation
62
1
39
211
10
65.406070
20
23.357772
11
65.224036
21
23.389440
0
LINE
8
annotation
62
1
39
211
10
65.224036
20
23.389440
11
65.044530
21
23.388230
0
LINE
8
annotation
62
1
39
211
10
65.044530
20
23.388230
11
64.871064
21
23.356219
0
LINE
8
annotation
62
1
39
211
10
64.871064
20
23.356219
11
64.707154
21
23.295484
0
LINE
8
annotation
62
1
39
211
10
64.707154
20
23.295484
11
64.556315
21
23.208104
0
LINE
8
annotation
62
1
39
211
10
64.556315
20
23.208104
11
64.422061
21
23.096156
0
LINE
8
annotation
62
1
39
211
10
64.422061
20
23.096156
11
64.307907
21
22.961718
0
LINE
8
annotation
62
1
39
211
10
64.307907
20
22.961718
11
64.217366
21
22.806868
0
LINE
8
annotation
62
1
39
211
10
64.217366
20
22.806868
11
64.153955
21
22.633683
0
LINE
8
annotation
62
1
39
211
10
64.153955
20
22.633683
11
64.153955
21
22.633683
0
LINE
8
annotation
62
1
39
211
10
64.153955
20
22.633683
11
64.122278
21
22.451994
0
LINE
8
annotation
62
1
39
211
10
64.122278
20
22.451994
11
64.123263
21
22.272620
0
LINE
8
annotation
62
1
39
211
10
64.123263
20
22.272620
11
64.154905
21
22.099116
0
LINE
8
annotation
62
1
39
211
10
64.154905
20
22.099116
11
64.215199
21
21.935039
0
LINE
8
annotation
62
1
39
211
10
64.215199
20
21.935039
11
64.302139
21
21.783946
0
LINE
8
annotation
62
1
39
211
10
64.302139
20
21.783946
11
64.413722
21
21.649394
0
LINE
8
annotation
62
1
39
211
10
64.413722
20
21.649394
11
64.547942
21
21.534938
0
LINE
8
annotation
62
1
39
211
10
64.547942
20
21.534938
11
64.702794
21
21.444137
0
LINE
8
annotation
62
1
39
211
10
64.702794
20
21.444137
11
64.876274
21
21.380546
0
LINE
8
annotation
62
1
39
211
10
64.876274
20
21.380546
11
65.368765
21
21.248583
0
LINE
8
annotation
62
1
39
211
10
65.368765
20
21.248583
11
65.368765
21
21.248583
0
LINE
8
annotation
62
1
39
211
10
65.368765
20
21.248583
11
65.550882
21
21.216882
0
LINE
8
annotation
62
1
39
211
10
65.550882
20
21.216882
11
65.730614
21
21.218008
0
LINE
8
annotation
62
1
39
211
10
65.730614
20
21.218008
11
65.904406
21
21.249900
0
LINE
8
annotation
62
1
39
211
10
65.904406
20
21.249900
11
66.068704
21
21.310498
0
LINE
8
annotation
62
1
39
211
10
66.068704
20
21.310498
11
66.219954
21
21.397743
0
LINE
8
annotation
62
1
39
211
10
66.219954
20
21.397743
11
66.354602
21
21.509576
0
LINE
8
annotation
62
1
39
211
10
66.354602
20
21.509576
11
66.469094
21
21.643936
0
LINE
8
annotation
62
1
39
211
10
66.469094
20
21.643936
11
66.559876
21
21.798763
0
LINE
8
annotation
62
1
39
211
10
66.559876
20
21.798763
11
66.623393
21
21.971999
0
LINE
8
annotation
62
1
39
211
10
66.623393
20
21.971999
11
66.623393
21
21.971999
0
LINE
8
annotation
62
1
39
211
10
66.623393
20
21.971999
11
66.654994
21
22.153786
0
LINE
8
annotation
62
1
39
211
10
66.654994
20
22.153786
11
66.653765
21
22.333268
0
LINE
8
annotation
62
1
39
211
10
66.653765
20
22.333268
11
66.621763
21
22.506881
0
LINE
8
annotation
62
1
39
211
10
66.621763
20
22.506881
11
66.561040
21
22.671063
0
LINE
8
annotation
62
1
39
211
10
66.561040
20
22.671063
11
66.473653
21
22.822251
0
LINE
8
annotation
62
1
39
211
10
66.473653
20
22.822251
11
66.361657
21
22.956882
0
LINE
8
annotation
62
1
39
211
10
66.361657
20
22.956882
11
66.227106
21
23.071394
0
LINE
8
annotation
62
1
39
211
10
66.227106
20
23.071394
11
66.072056
21
23.162224
0
LINE
8
annotation
62
1
39
211
10
66.072056
20
23.162224
11
65.898561
21
23.225809
0
LINE
8
annotation
62
1
39
211
10
65.898561
20
23.225809
11
65.406070
21
23.357772
0
LINE
8
annotation
62
1
39
211
10
67.348504
20
20.718114
11
67.348504
21
20.718114
0
LINE
8
annotation
62
1
39
211
10
67.348504
20
20.718114
11
67.529800
21
20.686633
0
LINE
8
annotation
62
1
39
211
10
67.529800
20
20.686633
11
67.708909
21
20.687925
0
LINE
8
annotation
62
1
39
211
10
67.708909
20
20.687925
11
67.882252
21
20.719937
0
LINE
8
annotation
62
1
39
211
10
67.882252
20
20.719937
11
68.046246
21
20.780617
0
LINE
8
annotation
62
1
39
211
10
68.046246
20
20.780617
11
68.197308
21
20.867913
0
LINE
8
annotation
62
1
39
211
10
68.197308
20
20.867913
11
68.331859
21
20.979771
0
LINE
8
annotation
62
1
39
211
10
68.331859
20
20.979771
11
68.446315
21
21.114141
0
LINE
8
annotation
62
1
39
211
10
68.446315
20
21.114141
11
68.537096
21
21.268969
0
LINE
8
annotation
62
1
39
211
10
68.537096
20
21.268969
11
68.600619
21
21.442203
0
LINE
8
annotation
62
1
39
211
10
68.600619
20
21.442203
11
68.600619
21
21.442203
0
LINE
8
annotation
62
1
39
211
10
68.600619
20
21.442203
11
68.632223
21
21.623989
0
LINE
8
annotation
62
1
39
211
10
68.632223
20
21.623989
11
68.631019
21
21.803464
0
LINE
8
annotation
62
1
39
211
10
68.631019
20
21.803464
11
68.599082
21
21.977060
0
LINE
8
annotation
62
1
39
211
10
68.599082
20
21.977060
11
68.538487
21
22.141208
0
LINE
8
annotation
62
1
39
211
10
68.538487
20
22.141208
11
68.451310
21
22.292339
0
LINE
8
annotation
62
1
39
211
10
68.451310
20
22.292339
11
68.339628
21
22.426886
0
LINE
8
annotation
62
1
39
211
10
68.339628
20
22.426886
11
68.205515
21
22.541281
0
LINE
8
annotation
62
1
39
211
10
68.205515
20
22.541281
11
68.051047
21
22.631955
0
LINE
8
annotation
62
1
39
211
10
68.051047
20
22.631955
11
67.878300
21
22.695340
0
LINE
8
annotation
62
1
39
211
10
67.878300
20
22.695340
11
67.878300
21
22.695340
0
LINE
8
annotation
62
1
39
211
10
67.878300
20
22.695340
11
67.696171
21
22.727034
0
LINE
8
annotation
62
1
39
211
10
67.696171
20
22.727034
11
67.516408
21
22.725892
0
LINE
8
annotation
62
1
39
211
10
67.516408
20
22.725892
11
67.342571
21
22.693980
0
LINE
8
annotation
62
1
39
211
10
67.342571
20
22.693980
11
67.178221
21
22.633364
0
LINE
8
annotation
62
1
39
211
10
67.178221
20
22.633364
11
67.026918
21
22.546108
0
LINE
8
annotation
62
1
39
211
10
67.026918
20
22.546108
11
66.892223
21
22.434278
0
LINE
8
annotation
62
1
39
211
10
66.892223
20
22.434278
11
66.777697
21
22.299940
0
LINE
8
annotation
62
1
39
211
10
66.777697
20
22.299940
11
66.686900
21
22.145158
0
LINE
8
annotation
62
1
39
211
10
66.686900
20
22.145158
11
66.623393
21
21.971999
0
LINE
8
annotation
62
1
39
211
10
66.623393
20
21.971999
11
66.623393
21
21.971999
0
LINE
8
annotation
62
1
39
211
10
66.623393
20
21.971999
11
66.591812
21
21.790285
0
LINE
8
annotation
62
1
39
211
10
66.591812
20
21.790285
11
66.593054
21
21.610841
0
LINE
8
annotation
62
1
39
211
10
66.593054
20
21.610841
11
66.625067
21
21.437238
0
LINE
8
annotation
62
1
39
211
10
66.625067
20
21.437238
11
66.685801
21
21.273043
0
LINE
8
annotation
62
1
39
211
10
66.685801
20
21.273043
11
66.773205
21
21.121826
0
LINE
8
annotation
62
1
39
211
10
66.773205
20
21.121826
11
66.885228
21
20.987156
0
LINE
8
annotation
62
1
39
211
10
66.885228
20
20.987156
11
67.019820
21
20.872601
0
LINE
8
annotation
62
1
39
211
10
67.019820
20
20.872601
11
67.174928
21
20.781730
0
LINE
8
annotation
62
1
39
211
10
67.174928
20
20.781730
11
67.348504
21
20.718114
0
LINE
8
annotation
62
1
39
211
10
79.424808
20
24.947468
11
84.033825
21
24.947468
0
LINE
8
annotation
62
1
39
211
10
84.033825
20
24.947468
11
83.008892
21
25.972112
0
LINE
8
annotation
62
1
39
211
10
79.424808
20
22.708210
11
79.424808
21
22.708210
0
LINE
8
annotation
62
1
39
211
10
79.424808
20
22.708210
11
79.533877
21
22.415523
0
LINE
8
annotation
62
1
39
211
10
79.533877
20
22.415523
11
79.681305
21
22.146872
0
LINE
8
annotation
62
1
39
211
10
79.681305
20
22.146872
11
79.863333
21
21.905034
0
LINE
8
annotation
62
1
39
211
10
79.863333
20
21.905034
11
80.076207
21
21.692786
0
LINE
8
annotation
62
1
39
211
10
80.076207
20
21.692786
11
80.316170
21
21.512902
0
LINE
8
annotation
62
1
39
211
10
80.316170
20
21.512902
11
80.579465
21
21.368160
0
LINE
8
annotation
62
1
39
211
10
80.579465
20
21.368160
11
80.862337
21
21.261336
0
LINE
8
annotation
62
1
39
211
10
80.862337
20
21.261336
11
81.161028
21
21.195206
0
LINE
8
annotation
62
1
39
211
10
81.161028
20
21.195206
11
81.471782
21
21.172545
0
LINE
8
annotation
62
1
39
211
10
81.471782
20
21.172545
11
83.008892
21
21.172545
0
LINE
8
annotation
62
1
39
211
10
83.008892
20
21.172545
11
83.008892
21
21.172545
0
LINE
8
annotation
62
1
39
211
10
83.008892
20
21.172545
11
83.193019
21
21.189022
0
LINE
8
annotation
62
1
39
211
10
83.193019
20
21.189022
11
83.366361
21
21.236532
0
LINE
8
annotation
62
1
39
211
10
83.366361
20
21.236532
11
83.526015
21
21.312194
0
LINE
8
annotation
62
1
39
211
10
83.526015
20
21.312194
11
83.669077
21
21.413127
0
LINE
8
annotation
62
1
39
211
10
83.669077
20
21.413127
11
83.792640
21
21.536451
0
LINE
8
annotation
62
1
39
211
10
83.792640
20
21.536451
11
83.893802
21
21.679284
0
LINE
8
annotation
62
1
39
211
10
83.893802
20
21.679284
11
83.969656
21
21.838746
0
LINE
8
annotation
62
1
39
211
10
83.969656
20
21.838746
11
84.017299
21
22.011956
0
LINE
8
annotation
62
1
39
211
10
84.017299
20
22.011956
11
84.033825
21
22.196033
0
LINE
8
annotation
62
1
39
211
10
84.033825
20
22.196033
11
84.033825
21
22.196033
0
LINE
8
annotation
62
1
39
211
10
84.033825
20
22.196033
11
84.017299
21
22.379729
0
LINE
8
annotation
62
1
39
211
10
84.017299
20
22.379729
11
83.969656
21
22.552736
0
LINE
8
annotation
62
1
39
211
10
83.969656
20
22.552736
11
83.893802
21
22.712139
0
LINE
8
annotation
62
1
39
211
10
83.893802
20
22.712139
11
83.792640
21
22.855020
0
LINE
8
annotation
62
1
39
211
10
83.792640
20
22.855020
11
83.669077
21
22.978462
0
LINE
8
annotation
62
1
39
211
10
83.669077
20
22.978462
11
83.526015
21
23.079550
0
LINE
8
annotation
62
1
39
211
10
83.526015
20
23.079550
11
83.366361
21
23.155367
0
LINE
8
annotation
62
1
39
211
10
83.366361
20
23.155367
11
83.193019
21
23.202996
0
LINE
8
annotation
62
1
39
211
10
83.193019
20
23.202996
11
83.008892
21
23.219520
0
LINE
8
annotation
62
1
39
211
10
83.008892
20
23.219520
11
82.496426
21
23.219520
0
LINE
8
annotation
62
1
39
211
10
82.496426
20
23.219520
11
82.496426
21
23.219520
0
LINE
8
annotation
62
1
39
211
10
82.496426
20
23.219520
11
82.312310
21
23.202996
0
LINE
8
annotation
62
1
39
211
10
82.312310
20
23.202996
11
82.138994
21
23.155367
0
LINE
8
annotation
62
1
39
211
10
82.138994
20
23.155367
11
81.979378
21
23.079550
0
LINE
8
annotation
62
1
39
211
10
81.979378
20
23.079550
11
81.836362
21
22.978462
0
LINE
8
annotation
62
1
39
211
10
81.836362
20
22.978462
11
81.712847
21
22.855020
0
LINE
8
annotation
62
1
39
211
10
81.712847
20
22.855020
11
81.611731
21
22.712139
0
LINE
8
annotation
62
1
39
211
10
81.611731
20
22.712139
11
81.535915
21
22.552736
0
LINE
8
annotation
62
1
39
211
10
81.535915
20
22.552736
11
81.488299
21
22.379729
0
LINE
8
annotation
62
1
39
211
10
81.488299
20
22.379729
11
81.471782
21
22.196033
0
LINE
8
annotation
62
1
39
211
10
81.471782
20
22.196033
11
81.471782
21
21.172545
0
LINE
8
annotation
62
1
39
211
10
78.848680
20
23.347420
11
78.848680
21
21.042911
0
LINE
8
annotation
62
1
39
211
10
93.592776
20
27.695120
11
93.155378
21
29.327510
0
LINE
8
annotation
62
1
39
211
10
93.155378
20
29.327510
11
95.987849
21
28.469789
0
LINE
8
annotation
62
1
39
211
10
95.987849
20
28.469789
11
95.987849
21
28.469789
0
LINE
8
annotation
62
1
39
211
10
95.987849
20
28.469789
11
95.990563
21
28.468584
0
LINE
8
annotation
62
1
39
211
10
95.990563
20
28.468584
11
95.993277
21
28.467458
0
LINE
8
annotation
62
1
39
211
10
95.993277
20
28.467458
11
95.996012
21
28.466404
0
LINE
8
annotation
62
1
39
211
10
95.996012
20
28.466404
11
95.998790
21
28.465417
0
LINE
8
annotation
62
1
39
211
10
95.998790
20
28.465417
11
96.001633
21
28.464491
0
LINE
8
annotation
62
1
39
211
10
96.001633
20
28.464491
11
96.004563
21
28.463618
0
LINE
8
annotation
62
1
39
211
10
96.004563
20
28.463618
11
96.007603
21
28.462792
0
LINE
8
annotation
62
1
39
211
10
96.007603
20
28.462792
11
96.010774
21
28.462008
0
LINE
8
annotation
62
1
39
211
10
96.010774
20
28.462008
11
96.014098
21
28.461259
0
LINE
8
annotation
62
1
39
211
10
96.014098
20
28.461259
11
96.014098
21
28.461259
0
LINE
8
annotation
62
1
39
211
10
96.014098
20
28.461259
11
96.164508
21
28.434809
0
LINE
8
annotation
62
1
39
211
10
96.164508
20
28.434809
11
96.312872
21
28.435567
0
LINE
8
annotation
62
1
39
211
10
96.312872
20
28.435567
11
96.456295
21
28.461803
0
LINE
8
annotation
62
1
39
211
10
96.456295
20
28.461803
11
96.591886
21
28.511786
0
LINE
8
annotation
62
1
39
211
10
96.591886
20
28.511786
11
96.716751
21
28.583784
0
LINE
8
annotation
62
1
39
211
10
96.716751
20
28.583784
11
96.827996
21
28.676067
0
LINE
8
annotation
62
1
39
211
10
96.827996
20
28.676067
11
96.922729
21
28.786903
0
LINE
8
annotation
62
1
39
211
10
96.922729
20
28.786903
11
96.998056
21
28.914563
0
LINE
8
annotation
62
1
39
211
10
96.998056
20
28.914563
11
97.051083
21
29.057315
0
LINE
8
annotation
62
1
39
211
10
97.051083
20
29.057315
11
97.051083
21
29.057315
0
LINE
8
annotation
62
1
39
211
10
97.051083
20
29.057315
11
97.076549
21
29.207860
0
LINE
8
annotation
62
1
39
211
10
97.076549
20
29.207860
11
97.075173
21
29.356286
0
LINE
8
annotation
62
1
39
211
10
97.075173
20
29.356286
11
97.048594
21
29.499705
0
LINE
8
annotation
62
1
39
211
10
97.048594
20
29.499705
11
96.998449
21
29.635230
0
LINE
8
annotation
62
1
39
211
10
96.998449
20
29.635230
11
96.926377
21
29.759973
0
LINE
8
annotation
62
1
39
211
10
96.926377
20
29.759973
11
96.834015
21
29.871047
0
LINE
8
annotation
62
1
39
211
10
96.834015
20
29.871047
11
96.723001
21
29.965563
0
LINE
8
annotation
62
1
39
211
10
96.723001
20
29.965563
11
96.594973
21
30.040635
0
LINE
8
annotation
62
1
39
211
10
96.594973
20
30.040635
11
96.451569
21
30.093374
0
LINE
8
annotation
62
1
39
211
10
96.451569
20
30.093374
11
96.217245
21
30.145464
0
LINE
8
annotation
62
1
39
211
10
94.168876
20
25.739131
11
94.168876
21
25.739131
0
LINE
8
annotation
62
1
39
211
10
94.168876
20
25.739131
11
94.159831
21
25.645150
0
LINE
8
annotation
62
1
39
211
10
94.159831
20
25.645150
11
94.167441
21
25.553290
0
LINE
8
annotation
62
1
39
211
10
94.167441
20
25.553290
11
94.190527
21
25.465357
0
LINE
8
annotation
62
1
39
211
10
94.190527
20
25.465357
11
94.227912
21
25.383158
0
LINE
8
annotation
62
1
39
211
10
94.227912
20
25.383158
11
94.278419
21
25.308501
0
LINE
8
annotation
62
1
39
211
10
94.278419
20
25.308501
11
94.340868
21
25.243194
0
LINE
8
annotation
62
1
39
211
10
94.340868
20
25.243194
11
94.414084
21
25.189042
0
LINE
8
annotation
62
1
39
211
10
94.414084
20
25.189042
11
94.496889
21
25.147854
0
LINE
8
annotation
62
1
39
211
10
94.496889
20
25.147854
11
94.588104
21
25.121437
0
LINE
8
annotation
62
1
39
211
10
94.588104
20
25.121437
11
94.588104
21
25.121437
0
LINE
8
annotation
62
1
39
211
10
94.588104
20
25.121437
11
94.957436
21
25.068657
0
LINE
8
annotation
62
1
39
211
10
94.957436
20
25.068657
11
95.326876
21
25.053842
0
LINE
8
annotation
62
1
39
211
10
95.326876
20
25.053842
11
95.693705
21
25.076262
0
LINE
8
annotation
62
1
39
211
10
95.693705
20
25.076262
11
96.055205
21
25.135190
0
LINE
8
annotation
62
1
39
211
10
96.055205
20
25.135190
11
96.408657
21
25.229898
0
LINE
8
annotation
62
1
39
211
10
96.408657
20
25.229898
11
96.751343
21
25.359656
0
LINE
8
annotation
62
1
39
211
10
96.751343
20
25.359656
11
97.080544
21
25.523736
0
LINE
8
annotation
62
1
39
211
10
97.080544
20
25.523736
11
97.393541
21
25.721410
0
LINE
8
annotation
62
1
39
211
10
97.393541
20
25.721410
11
97.687617
21
25.951949
0
LINE
8
annotation
62
1
39
211
10
97.687617
20
25.951949
11
97.687617
21
25.951949
0
LINE
8
annotation
62
1
39
211
10
97.687617
20
25.951949
11
97.716299
21
25.978932
0
LINE
8
annotation
62
1
39
211
10
97.716299
20
25.978932
11
97.742865
21
26.007927
0
LINE
8
annotation
62
1
39
211
10
97.742865
20
26.007927
11
97.767197
21
26.038740
0
LINE
8
annotation
62
1
39
211
10
97.767197
20
26.038740
11
97.789179
21
26.071174
0
LINE
8
annotation
62
1
39
211
10
97.789179
20
26.071174
11
97.808695
21
26.105033
0
LINE
8
annotation
62
1
39
211
10
97.808695
20
26.105033
11
97.825629
21
26.140122
0
LINE
8
annotation
62
1
39
211
10
97.825629
20
26.140122
11
97.839864
21
26.176245
0
LINE
8
annotation
62
1
39
211
10
97.839864
20
26.176245
11
97.851284
21
26.213205
0
LINE
8
annotation
62
1
39
211
10
97.851284
20
26.213205
11
97.859773
21
26.250808
0
LINE
8
annotation
62
1
39
211
10
97.859773
20
26.250808
11
97.859773
21
26.250808
0
LINE
8
annotation
62
1
39
211
10
97.859773
20
26.250808
11
97.869328
21
26.345652
0
LINE
8
annotation
62
1
39
211
10
97.869328
20
26.345652
11
97.862123
21
26.438171
0
LINE
8
annotation
62
1
39
211
10
97.862123
20
26.438171
11
97.839334
21
26.526581
0
LINE
8
annotation
62
1
39
211
10
97.839334
20
26.526581
11
97.802135
21
26.609099
0
LINE
8
annotation
62
1
39
211
10
97.802135
20
26.609099
11
97.751703
21
26.683941
0
LINE
8
annotation
62
1
39
211
10
97.751703
20
26.683941
11
97.689212
21
26.749324
0
LINE
8
annotation
62
1
39
211
10
97.689212
20
26.749324
11
97.615838
21
26.803465
0
LINE
8
annotation
62
1
39
211
10
97.615838
20
26.803465
11
97.532756
21
26.844579
0
LINE
8
annotation
62
1
39
211
10
97.532756
20
26.844579
11
97.441141
21
26.870884
0
LINE
8
annotation
62
1
39
211
10
97.441141
20
26.870884
11
97.441141
21
26.870884
0
LINE
8
annotation
62
1
39
211
10
97.441141
20
26.870884
11
97.072061
21
26.923000
0
LINE
8
annotation
62
1
39
211
10
97.072061
20
26.923000
11
96.702810
21
26.937317
0
LINE
8
annotation
62
1
39
211
10
96.702810
20
26.937317
11
96.336106
21
26.914564
0
LINE
8
annotation
62
1
39
211
10
96.336106
20
26.914564
11
95.974669
21
26.855470
0
LINE
8
annotation
62
1
39
211
10
95.974669
20
26.855470
11
95.621217
21
26.760762
0
LINE
8
annotation
62
1
39
211
10
95.621217
20
26.760762
11
95.278468
21
26.631171
0
LINE
8
annotation
62
1
39
211
10
95.278468
20
26.631171
11
94.949142
21
26.467423
0
LINE
8
annotation
62
1
39
211
10
94.949142
20
26.467423
11
94.635956
21
26.270247
0
LINE
8
annotation
62
1
39
211
10
94.635956
20
26.270247
11
94.341629
21
26.040373
0
LINE
8
annotation
62
1
39
211
10
94.341629
20
26.040373
11
94.341629
21
26.040373
0
LINE
8
annotation
62
1
39
211
10
94.341629
20
26.040373
11
94.312995
21
26.013473
0
LINE
8
annotation
62
1
39
211
10
94.312995
20
26.013473
11
94.286549
21
25.984671
0
LINE
8
annotation
62
1
39
211
10
94.286549
20
25.984671
11
94.262364
21
25.954078
0
LINE
8
annotation
62
1
39
211
10
94.262364
20
25.954078
11
94.240514
21
25.921804
0
LINE
8
annotation
62
1
39
211
10
94.240514
20
25.921804
11
94.221073
21
25.887962
0
LINE
8
annotation
62
1
39
211
10
94.221073
20
25.887962
11
94.204115
21
25.852662
0
LINE
8
annotation
62
1
39
211
10
94.204115
20
25.852662
11
94.189713
21
25.816016
0
LINE
8
annotation
62
1
39
211
10
94.189713
20
25.816016
11
94.177942
21
25.778135
0
LINE
8
annotation
62
1
39
211
10
94.177942
20
25.778135
11
94.168876
21
25.739131
0
LINE
8
annotation
62
1
39
211
10
105.418540
20
33.681966
11
104.395201
21
35.454441
0
LINE
8
annotation
62
1
39
211
10
104.395201
20
35.454441
11
107.977488
21
35.338909
0
LINE
8
annotation
62
1
39
211
10
107.977488
20
35.338909
11
107.977488
21
35.338909
0
LINE
8
annotation
62
1
39
211
10
107.977488
20
35.338909
11
107.981041
21
35.338350
0
LINE
8
annotation
62
1
39
211
10
107.981041
20
35.338350
11
107.984569
21
35.337883
0
LINE
8
annotation
62
1
39
211
10
107.984569
20
35.337883
11
107.988098
21
35.337508
0
LINE
8
annotation
62
1
39
211
10
107.988098
20
35.337508
11
107.991657
21
35.337224
0
LINE
8
annotation
62
1
39
211
10
107.991657
20
35.337224
11
107.995274
21
35.337031
0
LINE
8
annotation
62
1
39
211
10
107.995274
20
35.337031
11
107.998975
21
35.336928
0
LINE
8
annotation
62
1
39
211
10
107.998975
20
35.336928
11
108.002790
21
35.336915
0
LINE
8
annotation
62
1
39
211
10
108.002790
20
35.336915
11
108.006745
21
35.336992
0
LINE
8
annotation
62
1
39
211
10
108.006745
20
35.336992
11
108.010868
21
35.337158
0
LINE
8
annotation
62
1
39
211
10
108.010868
20
35.337158
11
108.010868
21
35.337158
0
LINE
8
annotation
62
1
39
211
10
108.010868
20
35.337158
11
108.195109
21
35.353362
0
LINE
8
annotation
62
1
39
211
10
108.195109
20
35.353362
11
108.368428
21
35.400753
0
LINE
8
annotation
62
1
39
211
10
108.368428
20
35.400753
11
108.527982
21
35.476400
0
LINE
8
annotation
62
1
39
211
10
108.527982
20
35.476400
11
108.670930
21
35.577370
0
LINE
8
annotation
62
1
39
211
10
108.670930
20
35.577370
11
108.794429
21
35.700733
0
LINE
8
annotation
62
1
39
211
10
108.794429
20
35.700733
11
108.895639
21
35.843555
0
LINE
8
annotation
62
1
39
211
10
108.895639
20
35.843555
11
108.971716
21
36.002906
0
LINE
8
annotation
62
1
39
211
10
108.971716
20
36.002906
11
109.019819
21
36.175855
0
LINE
8
annotation
62
1
39
211
10
109.019819
20
36.175855
11
109.037105
21
36.359468
0
LINE
8
annotation
62
1
39
211
10
109.037105
20
36.359468
11
109.037105
21
36.359468
0
LINE
8
annotation
62
1
39
211
10
109.037105
20
36.359468
11
109.019707
21
36.543558
0
LINE
8
annotation
62
1
39
211
10
109.019707
20
36.543558
11
108.971574
21
36.716756
0
LINE
8
annotation
62
1
39
211
10
108.971574
20
36.716756
11
108.895527
21
36.876197
0
LINE
8
annotation
62
1
39
211
10
108.895527
20
36.876197
11
108.794387
21
37.019017
0
LINE
8
annotation
62
1
39
211
10
108.794387
20
37.019017
11
108.670976
21
37.142351
0
LINE
8
annotation
62
1
39
211
10
108.670976
20
37.142351
11
108.528115
21
37.243335
0
LINE
8
annotation
62
1
39
211
10
108.528115
20
37.243335
11
108.368624
21
37.319103
0
LINE
8
annotation
62
1
39
211
10
108.368624
20
37.319103
11
108.195326
21
37.366792
0
LINE
8
annotation
62
1
39
211
10
108.195326
20
37.366792
11
108.011041
21
37.383537
0
LINE
8
annotation
62
1
39
211
10
108.011041
20
37.383537
11
107.720600
21
37.371024
0
LINE
8
annotation
62
1
39
211
10
106.795132
20
31.297714
11
110.786079
21
33.601889
0
LINE
8
annotation
62
1
39
211
10
110.786079
20
33.601889
11
109.386343
21
33.976736
0
LINE
8
annotation
62
1
39
211
10
115.328612
20
43.035817
11
114.135619
21
44.228810
0
LINE
8
annotation
62
1
39
211
10
114.135619
20
44.228810
11
117.012650
21
44.901112
0
LINE
8
annotation
62
1
39
211
10
117.012650
20
44.901112
11
117.012650
21
44.901112
0
LINE
8
annotation
62
1
39
211
10
117.012650
20
44.901112
11
117.015599
21
44.901424
0
LINE
8
annotation
62
1
39
211
10
117.015599
20
44.901424
11
117.018507
21
44.901805
0
LINE
8
annotation
62
1
39
211
10
117.018507
20
44.901805
11
117.021397
21
44.902260
0
LINE
8
annotation
62
1
39
211
10
117.021397
20
44.902260
11
117.024292
21
44.902793
0
LINE
8
annotation
62
1
39
211
10
117.024292
20
44.902793
11
117.027212
21
44.903411
0
LINE
8
annotation
62
1
39
211
10
117.027212
20
44.903411
11
117.030182
21
44.904119
0
LINE
8
annotation
62
1
39
211
10
117.030182
20
44.904119
11
117.033222
21
44.904922
0
LINE
8
annotation
62
1
39
211
10
117.033222
20
44.904922
11
117.036355
21
44.905827
0
LINE
8
annotation
62
1
39
211
10
117.036355
20
44.905827
11
117.039603
21
44.906839
0
LINE
8
annotation
62
1
39
211
10
117.039603
20
44.906839
11
117.039603
21
44.906839
0
LINE
8
annotation
62
1
39
211
10
117.039603
20
44.906839
11
117.182847
21
44.959050
0
LINE
8
annotation
62
1
39
211
10
117.182847
20
44.959050
11
117.310740
21
45.033763
0
LINE
8
annotation
62
1
39
211
10
117.310740
20
45.033763
11
117.421645
21
45.128038
0
LINE
8
annotation
62
1
39
211
10
117.421645
20
45.128038
11
117.513924
21
45.238934
0
LINE
8
annotation
62
1
39
211
10
117.513924
20
45.238934
11
117.585940
21
45.363510
0
LINE
8
annotation
62
1
39
211
10
117.585940
20
45.363510
11
117.636056
21
45.498825
0
LINE
8
annotation
62
1
39
211
10
117.636056
20
45.498825
11
117.662634
21
45.641939
0
LINE
8
annotation
62
1
39
211
10
117.662634
20
45.641939
11
117.664036
21
45.789911
0
LINE
8
annotation
62
1
39
211
10
117.664036
20
45.789911
11
117.638626
21
45.939801
0
LINE
8
annotation
62
1
39
211
10
117.638626
20
45.939801
11
117.638626
21
45.939801
0
LINE
8
annotation
62
1
39
211
10
117.638626
20
45.939801
11
117.585497
21
46.082670
0
LINE
8
annotation
62
1
39
211
10
117.585497
20
46.082670
11
117.510218
21
46.210308
0
LINE
8
annotation
62
1
39
211
10
117.510218
20
46.210308
11
117.415649
21
46.321038
0
LINE
8
annotation
62
1
39
211
10
117.415649
20
46.321038
11
117.304646
21
46.413179
0
LINE
8
annotation
62
1
39
211
10
117.304646
20
46.413179
11
117.180067
21
46.485053
0
LINE
8
annotation
62
1
39
211
10
117.180067
20
46.485053
11
117.044769
21
46.534981
0
LINE
8
annotation
62
1
39
211
10
117.044769
20
46.534981
11
116.901610
21
46.561284
0
LINE
8
annotation
62
1
39
211
10
116.901610
20
46.561284
11
116.753447
21
46.562282
0
LINE
8
annotation
62
1
39
211
10
116.753447
20
46.562282
11
116.603138
21
46.536298
0
LINE
8
annotation
62
1
39
211
10
116.603138
20
46.536298
11
116.374545
21
46.464368
0
LINE
8
annotation
62
1
39
211
10
117.529326
20
40.835103
11
116.336332
21
42.028097
0
LINE
8
annotation
62
1
39
211
10
116.336332
20
42.028097
11
119.213364
21
42.700398
0
LINE
8
annotation
62
1
39
211
10
119.213364
20
42.700398
11
119.213364
21
42.700398
0
LINE
8
annotation
62
1
39
211
10
119.213364
20
42.700398
11
119.216312
21
42.700711
0
LINE
8
annotation
62
1
39
211
10
119.216312
20
42.700711
11
119.219220
21
42.701092
0
LINE
8
annotation
62
1
39
211
10
119.219220
20
42.701092
11
119.222111
21
42.701546
0
LINE
8
annotation
62
1
39
211
10
119.222111
20
42.701546
11
119.225005
21
42.702079
0
LINE
8
annotation
62
1
39
211
10
119.225005
20
42.702079
11
119.227926
21
42.702697
0
LINE
8
annotation
62
1
39
211
10
119.227926
20
42.702697
11
119.230895
21
42.703405
0
LINE
8
annotation
62
1
39
211
10
119.230895
20
42.703405
11
119.233935
21
42.704209
0
LINE
8
annotation
62
1
39
211
10
119.233935
20
42.704209
11
119.237068
21
42.705114
0
LINE
8
annotation
62
1
39
211
10
119.237068
20
42.705114
11
119.240316
21
42.706125
0
LINE
8
annotation
62
1
39
211
10
119.240316
20
42.706125
11
119.240316
21
42.706125
0
LINE
8
annotation
62
1
39
211
10
119.240316
20
42.706125
11
119.383560
21
42.758337
0
LINE
8
annotation
62
1
39
211
10
119.383560
20
42.758337
11
119.511453
21
42.833050
0
LINE
8
annotation
62
1
39
211
10
119.511453
20
42.833050
11
119.622358
21
42.927325
0
LINE
8
annotation
62
1
39
211
10
119.622358
20
42.927325
11
119.714637
21
43.038220
0
LINE
8
annotation
62
1
39
211
10
119.714637
20
43.038220
11
119.786654
21
43.162796
0
LINE
8
annotation
62
1
39
211
10
119.786654
20
43.162796
11
119.836769
21
43.298111
0
LINE
8
annotation
62
1
39
211
10
119.836769
20
43.298111
11
119.863347
21
43.441225
0
LINE
8
annotation
62
1
39
211
10
119.863347
20
43.441225
11
119.864750
21
43.589198
0
LINE
8
annotation
62
1
39
211
10
119.864750
20
43.589198
11
119.839340
21
43.739087
0
LINE
8
annotation
62
1
39
211
10
119.839340
20
43.739087
11
119.839340
21
43.739087
0
LINE
8
annotation
62
1
39
211
10
119.839340
20
43.739087
11
119.786210
21
43.881956
0
LINE
8
annotation
62
1
39
211
10
119.786210
20
43.881956
11
119.710932
21
44.009595
0
LINE
8
annotation
62
1
39
211
10
119.710932
20
44.009595
11
119.616362
21
44.120324
0
LINE
8
annotation
62
1
39
211
10
119.616362
20
44.120324
11
119.505359
21
44.212466
0
LINE
8
annotation
62
1
39
211
10
119.505359
20
44.212466
11
119.380780
21
44.284340
0
LINE
8
annotation
62
1
39
211
10
119.380780
20
44.284340
11
119.245482
21
44.334267
0
LINE
8
annotation
62
1
39
211
10
119.245482
20
44.334267
11
119.102323
21
44.360570
0
LINE
8
annotation
62
1
39
211
10
119.102323
20
44.360570
11
118.954160
21
44.361569
0
LINE
8
annotation
62
1
39
211
10
118.954160
20
44.361569
11
118.803851
21
44.335584
0
LINE
8
annotation
62
1
39
211
10
118.803851
20
44.335584
11
118.575259
21
44.263654
0
LINE
8
annotation
62
1
39
211
10
122.653476
20
53.507851
11
121.197282
21
54.348585
0
LINE
8
annotation
62
1
39
211
10
121.197282
20
54.348585
11
123.793508
21
55.737916
0
LINE
8
annotation
62
1
39
211
10
123.793508
20
55.737916
11
123.793508
21
55.737916
0
LINE
8
annotation
62
1
39
211
10
123.793508
20
55.737916
11
123.796265
21
55.738978
0
LINE
8
annotation
62
1
39
211
10
123.796265
20
55.738978
11
123.798967
21
55.740095
0
LINE
8
annotation
62
1
39
211
10
123.798967
20
55.740095
11
123.801632
21
55.741278
0
LINE
8
annotation
62
1
39
211
10
123.801632
20
55.741278
11
123.804281
21
55.742538
0
LINE
8
annotation
62
1
39
211
10
123.804281
20
55.742538
11
123.806933
21
55.743886
0
LINE
8
annotation
62
1
39
211
10
123.806933
20
55.743886
11
123.809609
21
55.745333
0
LINE
8
annotation
62
1
39
211
10
123.809609
20
55.745333
11
123.812328
21
55.746891
0
LINE
8
annotation
62
1
39
211
10
123.812328
20
55.746891
11
123.815111
21
55.748570
0
LINE
8
annotation
62
1
39
211
10
123.815111
20
55.748570
11
123.817977
21
55.750382
0
LINE
8
annotation
62
1
39
211
10
123.817977
20
55.750382
11
123.817977
21
55.750382
0
LINE
8
annotation
62
1
39
211
10
123.817977
20
55.750382
11
123.942406
21
55.837594
0
LINE
8
annotation
62
1
39
211
10
123.942406
20
55.837594
11
124.046254
21
55.942508
0
LINE
8
annotation
62
1
39
211
10
124.046254
20
55.942508
11
124.128701
21
56.061872
0
LINE
8
annotation
62
1
39
211
10
124.128701
20
56.061872
11
124.188930
21
56.192431
0
LINE
8
annotation
62
1
39
211
10
124.188930
20
56.192431
11
124.226125
21
56.330934
0
LINE
8
annotation
62
1
39
211
10
124.226125
20
56.330934
11
124.239465
21
56.474125
0
LINE
8
annotation
62
1
39
211
10
124.239465
20
56.474125
11
124.228135
21
56.618753
0
LINE
8
annotation
62
1
39
211
10
124.228135
20
56.618753
11
124.191316
21
56.761564
0
LINE
8
annotation
62
1
39
211
10
124.191316
20
56.761564
11
124.128191
21
56.899305
0
LINE
8
annotation
62
1
39
211
10
124.128191
20
56.899305
11
124.128191
21
56.899305
0
LINE
8
annotation
62
1
39
211
10
124.128191
20
56.899305
11
124.040192
21
57.023136
0
LINE
8
annotation
62
1
39
211
10
124.040192
20
57.023136
11
123.934799
21
57.126593
0
LINE
8
annotation
62
1
39
211
10
123.934799
20
57.126593
11
123.815197
21
57.208795
0
LINE
8
annotation
62
1
39
211
10
123.815197
20
57.208795
11
123.684570
21
57.268864
0
LINE
8
annotation
62
1
39
211
10
123.684570
20
57.268864
11
123.546101
21
57.305921
0
LINE
8
annotation
62
1
39
211
10
123.546101
20
57.305921
11
123.402974
21
57.319085
0
LINE
8
annotation
62
1
39
211
10
123.402974
20
57.319085
11
123.258374
21
57.307478
0
LINE
8
annotation
62
1
39
211
10
123.258374
20
57.307478
11
123.115484
21
57.270221
0
LINE
8
annotation
62
1
39
211
10
123.115484
20
57.270221
11
122.977488
21
57.206435
0
LINE
8
annotation
62
1
39
211
10
122.977488
20
57.206435
11
122.775982
21
57.078225
0
LINE
8
annotation
62
1
39
211
10
123.883349
20
52.797956
11
124.611446
21
52.377589
0
LINE
8
annotation
62
1
39
211
10
124.611446
20
52.377589
11
124.611446
21
52.377589
0
LINE
8
annotation
62
1
39
211
10
124.611446
20
52.377589
11
124.749178
21
52.313732
0
LINE
8
annotation
62
1
39
211
10
124.749178
20
52.313732
11
124.891944
21
52.276447
0
LINE
8
annotation
62
1
39
211
10
124.891944
20
52.276447
11
125.036495
21
52.264840
0
LINE
8
annotation
62
1
39
211
10
125.036495
20
52.264840
11
125.179581
21
52.278014
0
LINE
8
annotation
62
1
39
211
10
125.179581
20
52.278014
11
125.317953
21
52.315075
0
LINE
8
annotation
62
1
39
211
10
125.317953
20
52.315075
11
125.448362
21
52.375128
0
LINE
8
annotation
62
1
39
211
10
125.448362
20
52.375128
11
125.567558
21
52.457279
0
LINE
8
annotation
62
1
39
211
10
125.567558
20
52.457279
11
125.672293
21
52.560631
0
LINE
8
annotation
62
1
39
211
10
125.672293
20
52.560631
11
125.759317
21
52.684291
0
LINE
8
annotation
62
1
39
211
10
125.759317
20
52.684291
11
125.969797
21
53.048854
0
LINE
8
annotation
62
1
39
211
10
125.969797
20
53.048854
11
125.969797
21
53.048854
0
LINE
8
annotation
62
1
39
211
10
125.969797
20
53.048854
11
126.033347
21
53.185994
0
LINE
8
annotation
62
1
39
211
10
126.033347
20
53.185994
11
126.070469
21
53.328345
0
LINE
8
annotation
62
1
39
211
10
126.070469
20
53.328345
11
126.082010
21
53.472639
0
LINE
8
annotation
62
1
39
211
10
126.082010
20
53.472639
11
126.068817
21
53.615610
0
LINE
8
annotation
62
1
39
211
10
126.068817
20
53.615610
11
126.031737
21
53.753991
0
LINE
8
annotation
62
1
39
211
10
126.031737
20
53.753991
11
125.971616
21
53.884516
0
LINE
8
annotation
62
1
39
211
10
125.971616
20
53.884516
11
125.889300
21
54.003919
0
LINE
8
annotation
62
1
39
211
10
125.889300
20
54.003919
11
125.785637
21
54.108932
0
LINE
8
annotation
62
1
39
211
10
125.785637
20
54.108932
11
125.661473
21
54.196290
0
LINE
8
annotation
62
1
39
211
10
125.661473
20
54.196290
11
125.296911
21
54.406770
0
LINE
8
annotation
62
1
39
211
10
125.296911
20
54.406770
11
125.661473
21
54.196290
0
LINE
8
annotation
62
1
39
211
10
125.661473
20
54.196290
11
125.661473
21
54.196290
0
LINE
8
annotation
62
1
39
211
10
125.661473
20
54.196290
11
125.799211
21
54.132443
0
LINE
8
annotation
62
1
39
211
10
125.799211
20
54.132443
11
125.941998
21
54.095194
0
LINE
8
annotation
62
1
39
211
10
125.941998
20
54.095194
11
126.086593
21
54.083662
0
LINE
8
annotation
62
1
39
211
10
126.086593
20
54.083662
11
126.229752
21
54.096962
0
LINE
8
annotation
62
1
39
211
10
126.229752
20
54.096962
11
126.368233
21
54.134212
0
LINE
8
annotation
62
1
39
211
10
126.368233
20
54.134212
11
126.498794
21
54.194529
0
LINE
8
annotation
62
1
39
211
10
126.498794
20
54.194529
11
126.618192
21
54.277029
0
LINE
8
annotation
62
1
39
211
10
126.618192
20
54.277029
11
126.723185
21
54.380830
0
LINE
8
annotation
62
1
39
211
10
126.723185
20
54.380830
11
126.810531
21
54.505048
0
LINE
8
annotation
62
1
39
211
10
126.810531
20
54.505048
11
126.810531
21
54.505048
0
LINE
8
annotation
62
1
39
211
10
126.810531
20
54.505048
11
126.874081
21
54.642189
0
LINE
8
annotation
62
1
39
211
10
126.874081
20
54.642189
11
126.911203
21
54.784539
0
LINE
8
annotation
62
1
39
211
10
126.911203
20
54.784539
11
126.922744
21
54.928833
0
LINE
8
annotation
62
1
39
211
10
126.922744
20
54.928833
11
126.909551
21
55.071804
0
LINE
8
annotation
62
1
39
211
10
126.909551
20
55.071804
11
126.872471
21
55.210185
0
LINE
8
annotation
62
1
39
211
10
126.872471
20
55.210185
11
126.812350
21
55.340710
0
LINE
8
annotation
62
1
39
211
10
126.812350
20
55.340710
11
126.730034
21
55.460113
0
LINE
8
annotation
62
1
39
211
10
126.730034
20
55.460113
11
126.626371
21
55.565126
0
LINE
8
annotation
62
1
39
211
10
126.626371
20
55.565126
11
126.502207
21
55.652484
0
LINE
8
annotation
62
1
39
211
10
126.502207
20
55.652484
11
125.774110
21
56.072851
0
LINE
8
annotation
62
1
39
211
10
127.299552
20
65.316126
11
125.812229
21
65.714653
0
LINE
8
annotation
62
1
39
211
10
125.812229
20
65.714653
11
127.779403
21
67.558905
0
LINE
8
annotation
62
1
39
211
10
127.779403
20
67.558905
11
127.779403
21
67.558905
0
LINE
8
annotation
62
1
39
211
10
127.779403
20
67.558905
11
127.781591
21
67.560497
0
LINE
8
annotation
62
1
39
211
10
127.781591
20
67.560497
11
127.783716
21
67.562125
0
LINE
8
annotation
62
1
39
211
10
127.783716
20
67.562125
11
127.785793
21
67.563803
0
LINE
8
annotation
62
1
39
211
10
127.785793
20
67.563803
11
127.787837
21
67.565546
0
LINE
8
annotation
62
1
39
211
10
127.787837
20
67.565546
11
127.789864
21
67.567367
0
LINE
8
annotation
62
1
39
211
10
127.789864
20
67.567367
11
127.791888
21
67.569282
0
LINE
8
annotation
62
1
39
211
10
127.791888
20
67.569282
11
127.793924
21
67.571304
0
LINE
8
annotation
62
1
39
211
10
127.793924
20
67.571304
11
127.795987
21
67.573449
0
LINE
8
annotation
62
1
39
211
10
127.795987
20
67.573449
11
127.798093
21
67.575731
0
LINE
8
annotation
62
1
39
211
10
127.798093
20
67.575731
11
127.798093
21
67.575731
0
LINE
8
annotation
62
1
39
211
10
127.798093
20
67.575731
11
127.887485
21
67.682364
0
LINE
8
annotation
62
1
39
211
10
127.887485
20
67.682364
11
127.954476
21
67.799778
0
LINE
8
annotation
62
1
39
211
10
127.954476
20
67.799778
11
127.999114
21
67.924901
0
LINE
8
annotation
62
1
39
211
10
127.999114
20
67.924901
11
128.021445
21
68.054661
0
LINE
8
annotation
62
1
39
211
10
128.021445
20
68.054661
11
128.021518
21
68.185987
0
LINE
8
annotation
62
1
39
211
10
128.021518
20
68.185987
11
127.999380
21
68.315807
0
LINE
8
annotation
62
1
39
211
10
127.999380
20
68.315807
11
127.955080
21
68.441051
0
LINE
8
annotation
62
1
39
211
10
127.955080
20
68.441051
11
127.888664
21
68.558646
0
LINE
8
annotation
62
1
39
211
10
127.888664
20
68.558646
11
127.800181
21
68.665521
0
LINE
8
annotation
62
1
39
211
10
127.800181
20
68.665521
11
127.800181
21
68.665521
0
LINE
8
annotation
62
1
39
211
10
127.800181
20
68.665521
11
127.692993
21
68.754198
0
LINE
8
annotation
62
1
39
211
10
127.692993
20
68.754198
11
127.575249
21
68.820731
0
LINE
8
annotation
62
1
39
211
10
127.575249
20
68.820731
11
127.449974
21
68.865095
0
LINE
8
annotation
62
1
39
211
10
127.449974
20
68.865095
11
127.320191
21
68.887268
0
LINE
8
annotation
62
1
39
211
10
127.320191
20
68.887268
11
127.188928
21
68.887227
0
LINE
8
annotation
62
1
39
211
10
127.188928
20
68.887227
11
127.059206
21
68.864949
0
LINE
8
annotation
62
1
39
211
10
127.059206
20
68.864949
11
126.934053
21
68.820410
0
LINE
8
annotation
62
1
39
211
10
126.934053
20
68.820410
11
126.816491
21
68.753588
0
LINE
8
annotation
62
1
39
211
10
126.816491
20
68.753588
11
126.709547
21
68.664460
0
LINE
8
annotation
62
1
39
211
10
126.709547
20
68.664460
11
126.561694
21
68.503294
0
LINE
8
annotation
62
1
39
211
10
130.614606
20
65.225844
11
128.755136
21
65.724087
0
LINE
8
annotation
62
1
39
211
10
128.755136
20
65.724087
11
130.195592
21
68.129496
0
LINE
8
annotation
62
1
39
211
10
129.857738
20
64.630691
11
130.256265
21
66.118014
0
LINE
8
annotation
62
1
39
211
10
55.551113
20
19.884995
11
52.658104
21
19.884995
0
LINE
8
annotation
62
1
39
211
10
52.658104
20
19.884995
11
55.551113
21
25.095285
0
LINE
8
annotation
62
1
39
211
10
55.551113
20
25.095285
11
52.658104
21
25.095285
0
LINE
8
annotation
62
1
39
211
10
60.354359
20
22.490140
11
57.505462
21
22.490140
0
LINE
8
annotation
62
1
39
211
10
63.466206
20
19.884995
11
63.466206
21
25.095285
0
LINE
8
annotation
62
1
39
211
10
63.466206
20
25.095285
11
62.307891
21
23.936644
0
LINE
8
frame
62
5
39
2
10
0.000000
20
0.000000
11
215.900000
21
0.000000
0
LINE
8
frame
62
5
39
2
10
215.900000
20
0.000000
11
215.900000
21
279.400000
0
LINE
8
frame
62
5
39
2
10
215.900000
20
279.400000
11
0.000000
21
279.400000
0
LINE
8
frame
62
5
39
2
10
0.000000
20
279.400000
11
0.000000
21
0.000000
0
ENDSEC
0
EOF
