0
SECTION
2
HEADER
9
$ACADVER
1
AC1009
0
ENDSEC
0
SECTION
2
TABLES
0
TABLE
2
VPORT
70
1
0
VPORT
2
ACTIVE
70
0
10
0.0
20
0.0
11
0.0
21
0.0
12
0.0
22
0.0
13
0.0
23
0.0
14
0.0
24
0.0
15
0.0
25
0.0
16
0.0
26
0.0
36
0.0
17
0.0
27
0.0
37
0.0
40
0.0
41
0.0
42
0.0
43
0.0
44
0.0
50
0.0
51
0.0
71
0
72
1000
73
1
74
3
75
0
76
0
77
0
78
0
0
ENDTAB
0
ENDSEC
0
SECTION
2
ENTITIES
0
LINE
8
boundary
62
5
39
2
10
72.185989
20
10.258602
11
72.701750
21
10.745159
0
LINE
8
boundary
62
5
39
2
10
72.701750
20
10.745159
11
73.068996
21
11.141480
0
LINE
8
boundary
62
5
39
2
10
73.068996
20
11.141480
11
73.521256
21
11.680570
0
LINE
8
boundary
62
5
39
2
10
73.521256
20
11.680570
11
73.832038
21
12.112551
0
LINE
8
boundary
62
5
39
2
10
73.832038
20
12.112551
11
74.207143
21
12.703480
0
LINE
8
boundary
62
5
39
2
10
74.207143
20
12.703480
11
74.452063
21
13.169192
0
LINE
8
boundary
62
5
39
2
10
74.452063
20
13.169192
11
74.735977
21
13.811025
0
LINE
8
boundary
62
5
39
2
10
74.735977
20
13.811025
11
74.905548
21
14.308613
0
LINE
8
boundary
62
5
39
2
10
74.905548
20
14.308613
11
75.084005
21
15.000657
0
LINE
8
boundary
62
5
39
2
10
75.084005
20
15.000657
11
75.169589
21
15.528133
0
LINE
8
boundary
62
5
39
2
10
75.169589
20
15.528133
11
75.227902
21
16.269872
0
LINE
8
boundary
62
5
39
2
10
75.227902
20
16.269872
11
75.221142
21
16.825379
0
LINE
8
boundary
62
5
39
2
10
75.221142
20
16.825379
11
75.144610
21
17.616411
0
LINE
8
boundary
62
5
39
2
10
75.144610
20
17.616411
11
75.037386
21
18.198031
0
LINE
8
boundary
62
5
39
2
10
75.037386
20
18.198031
11
74.810762
21
19.038252
0
LINE
8
boundary
62
5
39
2
10
74.810762
20
19.038252
11
74.639775
21
19.528692
0
LINE
8
boundary
62
5
39
2
10
74.639775
20
19.528692
11
74.437532
21
20.027194
0
LINE
8
boundary
62
5
39
2
10
74.437532
20
20.027194
11
74.203142
21
20.533825
0
LINE
8
boundary
62
5
39
2
10
74.203142
20
20.533825
11
73.935926
21
21.048499
0
LINE
8
boundary
62
5
39
2
10
73.935926
20
21.048499
11
73.634828
21
21.571256
0
LINE
8
boundary
62
5
39
2
10
73.634828
20
21.571256
11
73.299180
21
22.101985
0
LINE
8
boundary
62
5
39
2
10
73.299180
20
22.101985
11
72.927897
21
22.640688
0
LINE
8
boundary
62
5
39
2
10
72.927897
20
22.640688
11
72.520447
21
23.187429
0
LINE
8
boundary
62
5
39
2
10
72.520447
20
23.187429
11
71.610783
21
23.414296
0
LINE
8
boundary
62
5
39
2
10
71.610783
20
23.414296
11
70.695973
21
23.675300
0
LINE
8
boundary
62
5
39
2
10
70.695973
20
23.675300
11
69.776671
21
23.970167
0
LINE
8
boundary
62
5
39
2
10
69.776671
20
23.970167
11
68.853539
21
24.298698
0
LINE
8
boundary
62
5
39
2
10
68.853539
20
24.298698
11
67.926964
21
24.660736
0
LINE
8
boundary
62
5
39
2
10
67.926964
20
24.660736
11
66.997748
21
25.055954
0
LINE
8
boundary
62
5
39
2
10
66.997748
20
25.055954
11
66.066373
21
25.484130
0
LINE
8
boundary
62
5
39
2
10
66.066373
20
25.484130
11
65.133403
21
25.944998
0
LINE
8
boundary
62
5
39
2
10
65.133403
20
25.944998
11
64.199199
21
26.438320
0
LINE
8
boundary
62
5
39
2
10
64.199199
20
26.438320
11
63.264726
21
26.963758
0
LINE
8
boundary
62
5
39
2
10
63.264726
20
26.963758
11
62.330181
21
27.520993
0
LINE
8
boundary
62
5
39
2
10
62.330181
20
27.520993
11
61.396457
21
28.109830
0
LINE
8
boundary
62
5
39
2
10
61.396457
20
28.109830
11
60.463836
21
28.729844
0
LINE
8
boundary
62
5
39
2
10
60.463836
20
28.729844
11
59.532861
21
29.380779
0
LINE
8
boundary
62
5
39
2
10
59.532861
20
29.380779
11
58.604293
21
30.062284
0
LINE
8
boundary
62
5
39
2
10
58.604293
20
30.062284
11
57.678731
21
30.774006
0
LINE
8
boundary
62
5
39
2
10
57.678731
20
30.774006
11
56.756482
21
31.515656
0
LINE
8
boundary
62
5
39
2
10
56.756482
20
31.515656
11
55.838467
21
32.286824
0
LINE
8
boundary
62
5
39
2
10
55.838467
20
32.286824
11
54.924925
21
33.087104
0
LINE
8
boundary
62
5
39
2
10
54.924925
20
33.087104
11
54.016509
21
33.916216
0
LINE
8
boundary
62
5
39
2
10
54.016509
20
33.916216
11
53.113819
21
34.773769
0
LINE
8
boundary
62
5
39
2
10
53.113819
20
34.773769
11
52.217433
21
35.659356
0
LINE
8
boundary
62
5
39
2
10
52.217433
20
35.659356
11
51.327677
21
36.572542
0
LINE
8
boundary
62
5
39
2
10
51.327677
20
36.572542
11
50.445377
21
37.512985
0
LINE
8
boundary
62
5
39
2
10
50.445377
20
37.512985
11
49.570843
21
38.480358
0
LINE
8
boundary
62
5
39
2
10
49.570843
20
38.480358
11
48.704760
21
39.474081
0
LINE
8
boundary
62
5
39
2
10
48.704760
20
39.474081
11
47.812457
21
40.481011
0
LINE
8
boundary
62
5
39
2
10
47.812457
20
40.481011
11
46.929598
21
41.512755
0
LINE
8
boundary
62
5
39
2
10
46.929598
20
41.512755
11
46.056963
21
42.568849
0
LINE
8
boundary
62
5
39
2
10
46.056963
20
42.568849
11
45.194844
21
43.648800
0
LINE
8
boundary
62
5
39
2
10
45.194844
20
43.648800
11
44.343907
21
44.752249
0
LINE
8
boundary
62
5
39
2
10
44.343907
20
44.752249
11
43.504696
21
45.878723
0
LINE
8
boundary
62
5
39
2
10
43.504696
20
45.878723
11
42.677678
21
47.027801
0
LINE
8
boundary
62
5
39
2
10
42.677678
20
47.027801
11
41.863380
21
48.199059
0
LINE
8
boundary
62
5
39
2
10
41.863380
20
48.199059
11
41.062317
21
49.392054
0
LINE
8
boundary
62
5
39
2
10
41.062317
20
49.392054
11
40.275049
21
50.606364
0
LINE
8
boundary
62
5
39
2
10
40.275049
20
50.606364
11
39.502042
21
51.841563
0
LINE
8
boundary
62
5
39
2
10
39.502042
20
51.841563
11
38.743784
21
53.097226
0
LINE
8
boundary
62
5
39
2
10
38.743784
20
53.097226
11
38.000710
21
54.372875
0
LINE
8
boundary
62
5
39
2
10
38.000710
20
54.372875
11
37.273365
21
55.668094
0
LINE
8
boundary
62
5
39
2
10
37.273365
20
55.668094
11
36.562150
21
56.982511
0
LINE
8
boundary
62
5
39
2
10
36.562150
20
56.982511
11
35.867587
21
58.315695
0
LINE
8
boundary
62
5
39
2
10
35.867587
20
58.315695
11
35.190214
21
59.667204
0
LINE
8
boundary
62
5
39
2
10
35.190214
20
59.667204
11
34.530326
21
61.036637
0
LINE
8
boundary
62
5
39
2
10
34.530326
20
61.036637
11
33.888627
21
62.423593
0
LINE
8
boundary
62
5
39
2
10
33.888627
20
62.423593
11
33.265406
21
63.827628
0
LINE
8
boundary
62
5
39
2
10
33.265406
20
63.827628
11
32.661062
21
65.248399
0
LINE
8
boundary
62
5
39
2
10
32.661062
20
65.248399
11
32.076132
21
66.685481
0
LINE
8
boundary
62
5
39
2
10
32.076132
20
66.685481
11
31.510991
21
68.138511
0
LINE
8
boundary
62
5
39
2
10
31.510991
20
68.138511
11
30.966249
21
69.607073
0
LINE
8
boundary
62
5
39
2
10
30.966249
20
69.607073
11
30.780072
21
70.109363
0
LINE
8
boundary
62
5
39
2
10
30.780072
20
70.109363
11
30.442110
21
71.090798
0
LINE
8
boundary
62
5
39
2
10
30.442110
20
71.090798
11
30.254684
21
71.622861
0
LINE
8
boundary
62
5
39
2
10
30.254684
20
71.622861
11
29.939086
21
72.589305
0
LINE
8
boundary
62
5
39
2
10
29.939086
20
72.589305
11
29.751238
21
73.151561
0
LINE
8
boundary
62
5
39
2
10
29.751238
20
73.151561
11
29.457653
21
74.102264
0
LINE
8
boundary
62
5
39
2
10
29.457653
20
74.102264
11
29.270329
21
74.695120
0
LINE
8
boundary
62
5
39
2
10
29.270329
20
74.695120
11
28.998076
21
75.629350
0
LINE
8
boundary
62
5
39
2
10
28.998076
20
75.629350
11
28.812084
21
76.253114
0
LINE
8
boundary
62
5
39
2
10
28.812084
20
76.253114
11
28.560941
21
77.170134
0
LINE
8
boundary
62
5
39
2
10
28.560941
20
77.170134
11
28.377341
21
77.825039
0
LINE
8
boundary
62
5
39
2
10
28.377341
20
77.825039
11
28.146632
21
78.724268
0
LINE
8
boundary
62
5
39
2
10
28.146632
20
78.724268
11
27.966377
21
79.410538
0
LINE
8
boundary
62
5
39
2
10
27.966377
20
79.410538
11
27.755459
21
80.291468
0
LINE
8
boundary
62
5
39
2
10
27.755459
20
80.291468
11
27.579480
21
81.009286
0
LINE
8
boundary
62
5
39
2
10
27.579480
20
81.009286
11
27.387936
21
81.871414
0
LINE
8
boundary
62
5
39
2
10
27.387936
20
81.871414
11
27.217400
21
82.620802
0
LINE
8
boundary
62
5
39
2
10
27.217400
20
82.620802
11
27.044449
21
83.463722
0
LINE
8
boundary
62
5
39
2
10
27.044449
20
83.463722
11
26.880241
21
84.244718
0
LINE
8
boundary
62
5
39
2
10
26.880241
20
84.244718
11
26.725354
21
85.068137
0
LINE
8
boundary
62
5
39
2
10
26.725354
20
85.068137
11
26.568644
21
85.880683
0
LINE
8
boundary
62
5
39
2
10
26.568644
20
85.880683
11
26.431102
21
86.684318
0
LINE
8
boundary
62
5
39
2
10
26.431102
20
86.684318
11
26.282944
21
87.528265
0
LINE
8
boundary
62
5
39
2
10
26.282944
20
87.528265
11
26.162054
21
88.311927
0
LINE
8
boundary
62
5
39
2
10
26.162054
20
88.311927
11
26.023405
21
89.187072
0
LINE
8
boundary
62
5
39
2
10
26.023405
20
89.187072
11
25.918561
21
89.950715
0
LINE
8
boundary
62
5
39
2
10
25.918561
20
89.950715
11
25.790679
21
90.856809
0
LINE
8
boundary
62
5
39
2
10
25.790679
20
90.856809
11
25.701173
21
91.600372
0
LINE
8
boundary
62
5
39
2
10
25.701173
20
91.600372
11
25.585115
21
92.537029
0
LINE
8
boundary
62
5
39
2
10
25.585115
20
92.537029
11
25.471529
21
93.104627
0
LINE
8
boundary
62
5
39
2
10
25.471529
20
93.104627
11
25.316972
21
93.860052
0
LINE
8
boundary
62
5
39
2
10
25.316972
20
93.860052
11
25.213698
21
94.409257
0
LINE
8
boundary
62
5
39
2
10
25.213698
20
94.409257
11
25.065561
21
95.179429
0
LINE
8
boundary
62
5
39
2
10
25.065561
20
95.179429
11
24.971883
21
95.710691
0
LINE
8
boundary
62
5
39
2
10
24.971883
20
95.710691
11
24.830257
21
96.495325
0
LINE
8
boundary
62
5
39
2
10
24.830257
20
96.495325
11
24.745713
21
97.008967
0
LINE
8
boundary
62
5
39
2
10
24.745713
20
97.008967
11
24.611140
21
97.807552
0
LINE
8
boundary
62
5
39
2
10
24.611140
20
97.807552
11
24.407821
21
99.116187
0
LINE
8
boundary
62
5
39
2
10
24.407821
20
99.116187
11
24.220096
21
100.421259
0
LINE
8
boundary
62
5
39
2
10
24.220096
20
100.421259
11
24.105842
21
101.338134
0
LINE
8
boundary
62
5
39
2
10
24.105842
20
101.338134
11
23.890680
21
103.020593
0
LINE
8
boundary
62
5
39
2
10
23.890680
20
103.020593
11
23.803155
21
103.875522
0
LINE
8
boundary
62
5
39
2
10
23.803155
20
103.875522
11
23.621069
21
105.605545
0
LINE
8
boundary
62
5
39
2
10
23.621069
20
105.605545
11
23.556942
21
106.401960
0
LINE
8
boundary
62
5
39
2
10
23.556942
20
106.401960
11
23.409646
21
108.176074
0
LINE
8
boundary
62
5
39
2
10
23.409646
20
108.176074
11
23.365824
21
108.917506
0
LINE
8
boundary
62
5
39
2
10
23.365824
20
108.917506
11
23.254651
21
110.732193
0
LINE
8
boundary
62
5
39
2
10
23.254651
20
110.732193
11
23.228341
21
111.422258
0
LINE
8
boundary
62
5
39
2
10
23.228341
20
111.422258
11
23.154393
21
113.274068
0
LINE
8
boundary
62
5
39
2
10
23.154393
20
113.274068
11
23.143124
21
113.916345
0
LINE
8
boundary
62
5
39
2
10
23.143124
20
113.916345
11
23.107261
21
115.801666
0
LINE
8
boundary
62
5
39
2
10
23.107261
20
115.801666
11
23.108862
21
116.399758
0
LINE
8
boundary
62
5
39
2
10
23.108862
20
116.399758
11
23.111744
21
118.314967
0
LINE
8
boundary
62
5
39
2
10
23.111744
20
118.314967
11
23.124193
21
118.872495
0
LINE
8
boundary
62
5
39
2
10
23.124193
20
118.872495
11
23.165849
21
120.814151
0
LINE
8
boundary
62
5
39
2
10
23.165849
20
120.814151
11
23.187513
21
121.334640
0
LINE
8
boundary
62
5
39
2
10
23.187513
20
121.334640
11
23.268139
21
123.299196
0
LINE
8
boundary
62
5
39
2
10
23.268139
20
123.299196
11
23.416951
21
125.770190
0
LINE
8
boundary
62
5
39
2
10
23.416951
20
125.770190
11
23.610876
21
128.227260
0
LINE
8
boundary
62
5
39
2
10
23.610876
20
128.227260
11
23.848023
21
130.670326
0
LINE
8
boundary
62
5
39
2
10
23.848023
20
130.670326
11
24.127263
21
133.099671
0
LINE
8
boundary
62
5
39
2
10
24.127263
20
133.099671
11
24.446654
21
135.515247
0
LINE
8
boundary
62
5
39
2
10
24.446654
20
135.515247
11
24.804804
21
137.917136
0
LINE
8
boundary
62
5
39
2
10
24.804804
20
137.917136
11
25.200103
21
140.305453
0
LINE
8
boundary
62
5
39
2
10
25.200103
20
140.305453
11
25.631261
21
142.680337
0
LINE
8
boundary
62
5
39
2
10
25.631261
20
142.680337
11
26.096647
21
145.041775
0
LINE
8
boundary
62
5
39
2
10
26.096647
20
145.041775
11
26.594798
21
147.389847
0
LINE
8
boundary
62
5
39
2
10
26.594798
20
147.389847
11
27.124123
21
149.724756
0
LINE
8
boundary
62
5
39
2
10
27.124123
20
149.724756
11
27.683360
21
152.046434
0
LINE
8
boundary
62
5
39
2
10
27.683360
20
152.046434
11
28.271077
21
154.355057
0
LINE
8
boundary
62
5
39
2
10
28.271077
20
154.355057
11
28.885702
21
156.650739
0
LINE
8
boundary
62
5
39
2
10
28.885702
20
156.650739
11
29.526012
21
158.933469
0
LINE
8
boundary
62
5
39
2
10
29.526012
20
158.933469
11
30.190406
21
161.203380
0
LINE
8
boundary
62
5
39
2
10
30.190406
20
161.203380
11
30.877608
21
163.460550
0
LINE
8
boundary
62
5
39
2
10
30.877608
20
163.460550
11
31.586284
21
165.705019
0
LINE
8
boundary
62
5
39
2
10
31.586284
20
165.705019
11
32.314983
21
167.936950
0
LINE
8
boundary
62
5
39
2
10
32.314983
20
167.936950
11
33.062356
21
170.156344
0
LINE
8
boundary
62
5
39
2
10
33.062356
20
170.156344
11
33.827079
21
172.363326
0
LINE
8
boundary
62
5
39
2
10
33.827079
20
172.363326
11
34.607922
21
174.557985
0
LINE
8
boundary
62
5
39
2
10
34.607922
20
174.557985
11
35.403379
21
176.740400
0
LINE
8
boundary
62
5
39
2
10
35.403379
20
176.740400
11
36.212339
21
178.910646
0
LINE
8
boundary
62
5
39
2
10
36.212339
20
178.910646
11
37.033451
21
181.068783
0
LINE
8
boundary
62
5
39
2
10
37.033451
20
181.068783
11
37.865318
21
183.214967
0
LINE
8
boundary
62
5
39
2
10
37.865318
20
183.214967
11
38.198838
21
184.063890
0
LINE
8
boundary
62
5
39
2
10
38.198838
20
184.063890
11
39.556543
21
187.471648
0
LINE
8
boundary
62
5
39
2
10
39.556543
20
187.471648
11
39.920119
21
188.371809
0
LINE
8
boundary
62
5
39
2
10
39.920119
20
188.371809
11
41.276004
21
191.681316
0
LINE
8
boundary
62
5
39
2
10
41.276004
20
191.681316
11
41.669174
21
192.633953
0
LINE
8
boundary
62
5
39
2
10
41.669174
20
192.633953
11
43.013850
21
195.844753
0
LINE
8
boundary
62
5
39
2
10
43.013850
20
195.844753
11
43.435579
21
196.850352
0
LINE
8
boundary
62
5
39
2
10
43.435579
20
196.850352
11
44.760220
21
199.962726
0
LINE
8
boundary
62
5
39
2
10
44.760220
20
199.962726
11
45.208686
21
201.021091
0
LINE
8
boundary
62
5
39
2
10
45.208686
20
201.021091
11
46.505600
21
204.035967
0
LINE
8
boundary
62
5
39
2
10
46.505600
20
204.035967
11
47.445740
21
206.244731
0
LINE
8
boundary
62
5
39
2
10
47.445740
20
206.244731
11
49.955078
21
212.051537
0
LINE
8
boundary
62
5
39
2
10
49.955078
20
212.051537
11
50.969519
21
214.465445
0
LINE
8
boundary
62
5
39
2
10
50.969519
20
214.465445
11
53.288398
21
219.898399
0
LINE
8
boundary
62
5
39
2
10
53.288398
20
219.898399
11
53.823721
21
221.204126
0
LINE
8
boundary
62
5
39
2
10
53.823721
20
221.204126
11
54.888731
21
223.760866
0
LINE
8
boundary
62
5
39
2
10
54.888731
20
223.760866
11
55.428430
21
225.111040
0
LINE
8
boundary
62
5
39
2
10
55.428430
20
225.111040
11
56.432900
21
227.583982
0
LINE
8
boundary
62
5
39
2
10
56.432900
20
227.583982
11
56.971718
21
228.976587
0
LINE
8
boundary
62
5
39
2
10
56.971718
20
228.976587
11
57.912361
21
231.368756
0
LINE
8
boundary
62
5
39
2
10
57.912361
20
231.368756
11
58.181421
21
232.085317
0
LINE
8
boundary
62
5
39
2
10
58.181421
20
232.085317
11
58.624927
21
233.247097
0
LINE
8
boundary
62
5
39
2
10
58.624927
20
233.247097
11
58.891517
21
233.973259
0
LINE
8
boundary
62
5
39
2
10
58.891517
20
233.973259
11
59.318111
21
235.116284
0
LINE
8
boundary
62
5
39
2
10
59.318111
20
235.116284
11
59.744762
21
236.318433
0
LINE
8
boundary
62
5
39
2
10
59.744762
20
236.318433
11
60.406202
21
238.151578
0
LINE
8
boundary
62
5
39
2
10
60.406202
20
238.151578
11
60.836775
21
239.424117
0
LINE
8
boundary
62
5
39
2
10
60.836775
20
239.424117
11
61.474010
21
241.276114
0
LINE
8
boundary
62
5
39
2
10
61.474010
20
241.276114
11
61.690229
21
241.941452
0
LINE
8
boundary
62
5
39
2
10
61.690229
20
241.941452
11
61.997134
21
242.869906
0
LINE
8
boundary
62
5
39
2
10
61.997134
20
242.869906
11
62.212561
21
243.552730
0
LINE
8
boundary
62
5
39
2
10
62.212561
20
243.552730
11
62.511324
21
244.483733
0
LINE
8
boundary
62
5
39
2
10
62.511324
20
244.483733
11
62.725277
21
245.183944
0
LINE
8
boundary
62
5
39
2
10
62.725277
20
245.183944
11
63.015299
21
246.116777
0
LINE
8
boundary
62
5
39
2
10
63.015299
20
246.116777
11
63.227229
21
246.834309
0
LINE
8
boundary
62
5
39
2
10
63.227229
20
246.834309
11
63.508022
21
247.768407
0
LINE
8
boundary
62
5
39
2
10
63.508022
20
247.768407
11
63.717193
21
248.503144
0
LINE
8
boundary
62
5
39
2
10
63.717193
20
248.503144
11
63.987971
21
249.437793
0
LINE
8
boundary
62
5
39
2
10
63.987971
20
249.437793
11
64.193747
21
250.189673
0
LINE
8
boundary
62
5
39
2
10
64.193747
20
250.189673
11
64.454159
21
251.124287
0
LINE
8
boundary
62
5
39
2
10
64.454159
20
251.124287
11
64.655788
21
251.893144
0
LINE
8
boundary
62
5
39
2
10
64.655788
20
251.893144
11
64.905194
21
252.827189
0
LINE
8
boundary
62
5
39
2
10
64.905194
20
252.827189
11
65.102076
21
253.613026
0
LINE
8
boundary
62
5
39
2
10
65.102076
20
253.613026
11
65.340129
21
254.545972
0
LINE
8
boundary
62
5
39
2
10
65.340129
20
254.545972
11
65.531345
21
255.348496
0
LINE
8
boundary
62
5
39
2
10
65.531345
20
255.348496
11
65.757432
21
256.279702
0
LINE
8
boundary
62
5
39
2
10
65.757432
20
256.279702
11
65.942375
21
257.098838
0
LINE
8
boundary
62
5
39
2
10
65.942375
20
257.098838
11
66.156124
21
258.027834
0
LINE
8
boundary
62
5
39
2
10
66.156124
20
258.027834
11
66.333873
21
258.863460
0
LINE
8
boundary
62
5
39
2
10
66.333873
20
258.863460
11
66.534875
21
259.789777
0
LINE
8
boundary
62
5
39
2
10
66.534875
20
259.789777
11
66.704811
21
260.641633
0
LINE
8
boundary
62
5
39
2
10
66.704811
20
260.641633
11
66.892690
21
261.564849
0
LINE
8
boundary
62
5
39
2
10
66.892690
20
261.564849
11
67.053956
21
262.432840
0
LINE
8
boundary
62
5
39
2
10
67.053956
20
262.432840
11
67.228384
21
263.352442
0
LINE
8
boundary
62
5
39
2
10
67.228384
20
263.352442
11
67.380109
21
264.236329
0
LINE
8
boundary
62
5
39
2
10
67.380109
20
264.236329
11
67.540721
21
265.151989
0
LINE
8
boundary
62
5
39
2
10
67.540721
20
265.151989
11
67.682103
21
266.051568
0
LINE
8
boundary
62
5
39
2
10
67.682103
20
266.051568
11
67.828613
21
266.962767
0
LINE
8
boundary
62
5
39
2
10
67.828613
20
266.962767
11
67.958808
21
267.877850
0
LINE
8
boundary
62
5
39
2
10
67.958808
20
267.877850
11
68.090911
21
268.784363
0
LINE
8
boundary
62
5
39
2
10
68.090911
20
268.784363
11
68.209072
21
269.714634
0
LINE
8
boundary
62
5
39
2
10
68.209072
20
269.714634
11
68.326526
21
270.616000
0
LINE
8
boundary
62
5
39
2
10
68.326526
20
270.616000
11
68.431846
21
271.561355
0
LINE
8
boundary
62
5
39
2
10
68.431846
20
271.561355
11
68.534468
21
272.457334
0
LINE
8
boundary
62
5
39
2
10
68.534468
20
272.457334
11
68.625962
21
273.417446
0
LINE
8
boundary
62
5
39
2
10
68.625962
20
273.417446
11
68.713483
21
274.307628
0
LINE
8
boundary
62
5
39
2
10
68.713483
20
274.307628
11
68.790355
21
275.282241
0
LINE
8
boundary
62
5
39
2
10
68.790355
20
275.282241
11
68.862578
21
276.166436
0
LINE
8
boundary
62
5
39
2
10
68.862578
20
276.166436
11
68.923872
21
277.155287
0
LINE
8
boundary
62
5
39
2
10
68.923872
20
277.155287
11
68.980632
21
278.033216
0
LINE
8
boundary
62
5
39
2
10
68.980632
20
278.033216
11
69.025532
21
279.036004
0
LINE
8
boundary
62
5
39
2
10
69.025532
20
279.036004
11
69.066753
21
279.907381
0
LINE
8
boundary
62
5
39
2
10
69.066753
20
279.907381
11
69.094319
21
280.923860
0
LINE
8
boundary
62
5
39
2
10
69.094319
20
280.923860
11
69.119825
21
281.788442
0
LINE
8
boundary
62
5
39
2
10
69.119825
20
281.788442
11
69.129143
21
282.818226
0
LINE
8
boundary
62
5
39
2
10
69.129143
20
282.818226
11
69.138842
21
283.675900
0
LINE
8
boundary
62
5
39
2
10
69.138842
20
283.675900
11
69.129096
21
284.718769
0
LINE
8
boundary
62
5
39
2
10
69.129096
20
284.718769
11
69.122867
21
285.569295
0
LINE
8
boundary
62
5
39
2
10
69.122867
20
285.569295
11
69.092975
21
286.624796
0
LINE
8
boundary
62
5
39
2
10
69.092975
20
286.624796
11
69.070744
21
287.468052
0
LINE
8
boundary
62
5
39
2
10
69.070744
20
287.468052
11
69.020026
21
288.535885
0
LINE
8
boundary
62
5
39
2
10
69.020026
20
288.535885
11
68.981796
21
289.371670
0
LINE
8
boundary
62
5
39
2
10
68.981796
20
289.371670
11
68.909227
21
290.451539
0
LINE
8
boundary
62
5
39
2
10
68.909227
20
290.451539
11
68.854889
21
291.279786
0
LINE
8
boundary
62
5
39
2
10
68.854889
20
291.279786
11
68.759537
21
292.371200
0
LINE
8
boundary
62
5
39
2
10
68.759537
20
292.371200
11
68.689115
21
293.191781
0
LINE
8
boundary
62
5
39
2
10
68.689115
20
293.191781
11
68.570205
21
294.294451
0
LINE
8
boundary
62
5
39
2
10
68.570205
20
294.294451
11
68.483630
21
295.107263
0
LINE
8
boundary
62
5
39
2
10
68.483630
20
295.107263
11
68.340237
21
296.220748
0
LINE
8
boundary
62
5
39
2
10
68.340237
20
296.220748
11
68.237513
21
297.025804
0
LINE
8
boundary
62
5
39
2
10
68.237513
20
297.025804
11
68.068806
21
298.149628
0
LINE
8
boundary
62
5
39
2
10
68.068806
20
298.149628
11
67.949968
21
298.946803
0
LINE
8
boundary
62
5
39
2
10
67.949968
20
298.946803
11
67.755051
21
300.080608
0
LINE
8
boundary
62
5
39
2
10
67.755051
20
300.080608
11
67.620091
21
300.869911
0
LINE
8
boundary
62
5
39
2
10
67.620091
20
300.869911
11
67.398175
21
302.013174
0
LINE
8
boundary
62
5
39
2
10
67.398175
20
302.013174
11
67.247137
21
302.794638
0
LINE
8
boundary
62
5
39
2
10
67.247137
20
302.794638
11
66.997340
21
303.946946
0
LINE
8
boundary
62
5
39
2
10
66.997340
20
303.946946
11
66.830130
21
304.720515
0
LINE
8
boundary
62
5
39
2
10
66.830130
20
304.720515
11
66.551755
21
305.881400
0
LINE
8
boundary
62
5
39
2
10
66.551755
20
305.881400
11
66.368521
21
306.647181
0
LINE
8
boundary
62
5
39
2
10
66.368521
20
306.647181
11
66.060706
21
307.815986
0
LINE
8
boundary
62
5
39
2
10
66.060706
20
307.815986
11
65.861404
21
308.574007
0
LINE
8
boundary
62
5
39
2
10
65.861404
20
308.574007
11
65.523461
21
309.750376
0
LINE
8
boundary
62
5
39
2
10
65.523461
20
309.750376
11
65.308136
21
310.500716
0
LINE
8
boundary
62
5
39
2
10
65.308136
20
310.500716
11
64.939327
21
311.684033
0
LINE
8
boundary
62
5
39
2
10
64.939327
20
311.684033
11
64.707922
21
312.426791
0
LINE
8
boundary
62
5
39
2
10
64.707922
20
312.426791
11
64.307507
21
313.616470
0
LINE
8
boundary
62
5
39
2
10
64.307507
20
313.616470
11
64.060069
21
314.351782
0
LINE
8
boundary
62
5
39
2
10
64.060069
20
314.351782
11
63.848315
21
314.947577
0
LINE
8
boundary
62
5
39
2
10
63.848315
20
314.947577
11
63.498215
21
315.910894
0
LINE
8
boundary
62
5
39
2
10
63.498215
20
315.910894
11
63.136019
21
316.873704
0
LINE
8
boundary
62
5
39
2
10
63.136019
20
316.873704
11
62.761405
21
317.835884
0
LINE
8
boundary
62
5
39
2
10
62.761405
20
317.835884
11
62.374453
21
318.797564
0
LINE
8
boundary
62
5
39
2
10
62.374453
20
318.797564
11
61.975115
21
319.758441
0
LINE
8
boundary
62
5
39
2
10
61.975115
20
319.758441
11
61.563199
21
320.718527
0
LINE
8
boundary
62
5
39
2
10
61.563199
20
320.718527
11
61.138779
21
321.677878
0
LINE
8
boundary
62
5
39
2
10
61.138779
20
321.677878
11
60.701597
21
322.636402
0
LINE
8
boundary
62
5
39
2
10
60.701597
20
322.636402
11
60.251771
21
323.594065
0
LINE
8
boundary
62
5
39
2
10
60.251771
20
323.594065
11
59.789148
21
324.550645
0
LINE
8
boundary
62
5
39
2
10
59.789148
20
324.550645
11
59.313699
21
325.506183
0
LINE
8
boundary
62
5
39
2
10
59.313699
20
325.506183
11
58.825334
21
326.460607
0
LINE
8
boundary
62
5
39
2
10
58.825334
20
326.460607
11
58.323955
21
327.414031
0
LINE
8
boundary
62
5
39
2
10
58.323955
20
327.414031
11
57.809607
21
328.366189
0
LINE
8
boundary
62
5
39
2
10
57.809607
20
328.366189
11
57.282169
21
329.317009
0
LINE
8
boundary
62
5
39
2
10
57.282169
20
329.317009
11
56.741541
21
330.266579
0
LINE
8
boundary
62
5
39
2
10
56.741541
20
330.266579
11
56.187808
21
331.214764
0
LINE
8
boundary
62
5
39
2
10
56.187808
20
331.214764
11
55.620822
21
332.161469
0
LINE
8
boundary
62
5
39
2
10
55.620822
20
332.161469
11
55.040505
21
333.106691
0
LINE
8
boundary
62
5
39
2
10
55.040505
20
333.106691
11
54.446910
21
334.050349
0
LINE
8
boundary
62
5
39
2
10
54.446910
20
334.050349
11
53.839842
21
334.992364
0
LINE
8
boundary
62
5
39
2
10
53.839842
20
334.992364
11
53.219379
21
335.932735
0
LINE
8
boundary
62
5
39
2
10
53.219379
20
335.932735
11
52.585422
21
336.871244
0
LINE
8
boundary
62
5
39
2
10
52.585422
20
336.871244
11
51.937955
21
337.808118
0
LINE
8
boundary
62
5
39
2
10
51.937955
20
337.808118
11
51.276932
21
338.743092
0
LINE
8
boundary
62
5
39
2
10
51.276932
20
338.743092
11
50.602259
21
339.676056
0
LINE
8
boundary
62
5
39
2
10
50.602259
20
339.676056
11
49.913924
21
340.607086
0
LINE
8
boundary
62
5
39
2
10
49.913924
20
340.607086
11
49.211934
21
341.536056
0
LINE
8
boundary
62
5
39
2
10
49.211934
20
341.536056
11
48.496268
21
342.462848
0
LINE
8
boundary
62
5
39
2
10
48.496268
20
342.462848
11
47.766838
21
343.387543
0
LINE
8
boundary
62
5
39
2
10
47.766838
20
343.387543
11
47.023596
21
344.310030
0
LINE
8
boundary
62
5
39
2
10
47.023596
20
344.310030
11
46.266600
21
345.230135
0
LINE
8
boundary
62
5
39
2
10
46.266600
20
345.230135
11
45.495677
21
346.147856
0
LINE
8
boundary
62
5
39
2
10
45.495677
20
346.147856
11
44.710878
21
347.063165
0
LINE
8
boundary
62
5
39
2
10
44.710878
20
347.063165
11
43.912266
21
347.976007
0
LINE
8
boundary
62
5
39
2
10
43.912266
20
347.976007
11
43.099687
21
348.886245
0
LINE
8
boundary
62
5
39
2
10
43.099687
20
348.886245
11
42.273125
21
349.793848
0
LINE
8
boundary
62
5
39
2
10
42.273125
20
349.793848
11
41.432648
21
350.698751
0
LINE
8
boundary
62
5
39
2
10
41.432648
20
350.698751
11
40.578139
21
351.600900
0
LINE
8
boundary
62
5
39
2
10
40.578139
20
351.600900
11
40.103870
21
352.267151
0
LINE
8
boundary
62
5
39
2
10
40.103870
20
352.267151
11
39.869149
21
352.784476
0
LINE
8
boundary
62
5
39
2
10
39.869149
20
352.784476
11
39.661948
21
353.277912
0
LINE
8
boundary
62
5
39
2
10
39.661948
20
353.277912
11
39.419495
21
353.915690
0
LINE
8
boundary
62
5
39
2
10
39.419495
20
353.915690
11
39.198705
21
354.619594
0
LINE
8
boundary
62
5
39
2
10
39.198705
20
354.619594
11
39.060937
21
355.163631
0
LINE
8
boundary
62
5
39
2
10
39.060937
20
355.163631
11
38.959884
21
355.762301
0
LINE
8
boundary
62
5
39
2
10
38.959884
20
355.762301
11
38.917090
21
356.419378
0
LINE
8
boundary
62
5
39
2
10
38.917090
20
356.419378
11
38.961602
21
356.996680
0
LINE
8
boundary
62
5
39
2
10
38.961602
20
356.996680
11
39.088865
21
357.497714
0
LINE
8
boundary
62
5
39
2
10
39.088865
20
357.497714
11
39.334264
21
357.993678
0
LINE
8
boundary
62
5
39
2
10
39.334264
20
357.993678
11
39.737407
21
358.439695
0
LINE
8
boundary
62
5
39
2
10
39.737407
20
358.439695
11
40.183498
21
358.740231
0
LINE
8
boundary
62
5
39
2
10
40.183498
20
358.740231
11
40.799792
21
358.981940
0
LINE
8
boundary
62
5
39
2
10
40.799792
20
358.981940
11
41.324383
21
359.099359
0
LINE
8
boundary
62
5
39
2
10
41.324383
20
359.099359
11
41.899192
21
359.165172
0
LINE
8
boundary
62
5
39
2
10
41.899192
20
359.165172
11
42.519411
21
359.183135
0
LINE
8
boundary
62
5
39
2
10
42.519411
20
359.183135
11
43.180546
21
359.156603
0
LINE
8
boundary
62
5
39
2
10
43.180546
20
359.156603
11
44.132207
21
359.053718
0
LINE
8
boundary
62
5
39
2
10
44.132207
20
359.053718
11
44.872678
21
358.936924
0
LINE
8
boundary
62
5
39
2
10
44.872678
20
358.936924
11
45.638694
21
358.787518
0
LINE
8
boundary
62
5
39
2
10
45.638694
20
358.787518
11
46.425452
21
358.609122
0
LINE
8
boundary
62
5
39
2
10
46.425452
20
358.609122
11
47.228437
21
358.405296
0
LINE
8
boundary
62
5
39
2
10
47.228437
20
358.405296
11
48.042782
21
358.179791
0
LINE
8
boundary
62
5
39
2
10
48.042782
20
358.179791
11
48.863753
21
357.935925
0
LINE
8
boundary
62
5
39
2
10
48.863753
20
357.935925
11
49.686646
21
357.677471
0
LINE
8
boundary
62
5
39
2
10
49.686646
20
357.677471
11
50.506451
21
357.408020
0
LINE
8
boundary
62
5
39
2
10
50.506451
20
357.408020
11
51.903996
21
356.923772
0
LINE
8
boundary
62
5
39
2
10
51.903996
20
356.923772
11
53.459005
21
356.363393
0
LINE
8
boundary
62
5
39
2
10
53.459005
20
356.363393
11
54.908310
21
355.826604
0
LINE
8
boundary
62
5
39
2
10
54.908310
20
355.826604
11
55.947476
21
355.250160
0
LINE
8
boundary
62
5
39
2
10
55.947476
20
355.250160
11
56.869479
21
354.673406
0
LINE
8
boundary
62
5
39
2
10
56.869479
20
354.673406
11
57.804667
21
354.116067
0
LINE
8
boundary
62
5
39
2
10
57.804667
20
354.116067
11
58.752631
21
353.578228
0
LINE
8
boundary
62
5
39
2
10
58.752631
20
353.578228
11
59.712761
21
353.059925
0
LINE
8
boundary
62
5
39
2
10
59.712761
20
353.059925
11
60.684661
21
352.560906
0
LINE
8
boundary
62
5
39
2
10
60.684661
20
352.560906
11
61.667726
21
352.081324
0
LINE
8
boundary
62
5
39
2
10
61.667726
20
352.081324
11
62.661361
21
351.621087
0
LINE
8
boundary
62
5
39
2
10
62.661361
20
351.621087
11
63.665167
21
351.180279
0
LINE
8
boundary
62
5
39
2
10
63.665167
20
351.180279
11
64.678683
21
350.759016
0
LINE
8
boundary
62
5
39
2
10
64.678683
20
350.759016
11
65.701135
21
350.357005
0
LINE
8
boundary
62
5
39
2
10
65.701135
20
350.357005
11
66.732064
21
349.974419
0
LINE
8
boundary
62
5
39
2
10
66.732064
20
349.974419
11
67.770942
21
349.611278
0
LINE
8
boundary
62
5
39
2
10
67.770942
20
349.611278
11
68.817263
21
349.267528
0
LINE
8
boundary
62
5
39
2
10
68.817263
20
349.267528
11
69.870357
21
348.943109
0
LINE
8
boundary
62
5
39
2
10
69.870357
20
348.943109
11
70.929763
21
348.638081
0
LINE
8
boundary
62
5
39
2
10
70.929763
20
348.638081
11
71.994859
21
348.352424
0
LINE
8
boundary
62
5
39
2
10
71.994859
20
348.352424
11
73.065043
21
348.086042
0
LINE
8
boundary
62
5
39
2
10
73.065043
20
348.086042
11
74.139727
21
347.839092
0
LINE
8
boundary
62
5
39
2
10
74.139727
20
347.839092
11
75.218465
21
347.611463
0
LINE
8
boundary
62
5
39
2
10
75.218465
20
347.611463
11
76.300488
21
347.403131
0
LINE
8
boundary
62
5
39
2
10
76.300488
20
347.403131
11
77.385351
21
347.214082
0
LINE
8
boundary
62
5
39
2
10
77.385351
20
347.214082
11
78.472439
21
347.044409
0
LINE
8
boundary
62
5
39
2
10
78.472439
20
347.044409
11
79.561054
21
346.893946
0
LINE
8
boundary
62
5
39
2
10
79.561054
20
346.893946
11
80.650792
21
346.762871
0
LINE
8
boundary
62
5
39
2
10
80.650792
20
346.762871
11
81.740766
21
346.650980
0
LINE
8
boundary
62
5
39
2
10
81.740766
20
346.650980
11
82.830618
21
346.558354
0
LINE
8
boundary
62
5
39
2
10
82.830618
20
346.558354
11
83.919640
21
346.484965
0
LINE
8
boundary
62
5
39
2
10
83.919640
20
346.484965
11
85.007240
21
346.430864
0
LINE
8
boundary
62
5
39
2
10
85.007240
20
346.430864
11
86.092779
21
346.395971
0
LINE
8
boundary
62
5
39
2
10
86.092779
20
346.395971
11
87.175646
21
346.380202
0
LINE
8
boundary
62
5
39
2
10
87.175646
20
346.380202
11
88.255186
21
346.383624
0
LINE
8
boundary
62
5
39
2
10
88.255186
20
346.383624
11
89.330845
21
346.406344
0
LINE
8
boundary
62
5
39
2
10
89.330845
20
346.406344
11
90.402020
21
346.448097
0
LINE
8
boundary
62
5
39
2
10
90.402020
20
346.448097
11
91.467936
21
346.509063
0
LINE
8
boundary
62
5
39
2
10
91.467936
20
346.509063
11
92.528134
21
346.589234
0
LINE
8
boundary
62
5
39
2
10
92.528134
20
346.589234
11
93.581830
21
346.688372
0
LINE
8
boundary
62
5
39
2
10
93.581830
20
346.688372
11
94.628452
21
346.806781
0
LINE
8
boundary
62
5
39
2
10
94.628452
20
346.806781
11
95.667394
21
346.944256
0
LINE
8
boundary
62
5
39
2
10
95.667394
20
346.944256
11
96.698081
21
347.100753
0
LINE
8
boundary
62
5
39
2
10
96.698081
20
347.100753
11
97.719608
21
347.276363
0
LINE
8
boundary
62
5
39
2
10
97.719608
20
347.276363
11
98.731675
21
347.471130
0
LINE
8
boundary
62
5
39
2
10
98.731675
20
347.471130
11
99.733391
21
347.684924
0
LINE
8
boundary
62
5
39
2
10
99.733391
20
347.684924
11
100.724187
21
347.917732
0
LINE
8
boundary
62
5
39
2
10
100.724187
20
347.917732
11
101.703429
21
348.169541
0
LINE
8
boundary
62
5
39
2
10
101.703429
20
348.169541
11
102.670407
21
348.440477
0
LINE
8
boundary
62
5
39
2
10
102.670407
20
348.440477
11
103.624522
21
348.730319
0
LINE
8
boundary
62
5
39
2
10
103.624522
20
348.730319
11
104.565102
21
349.039274
0
LINE
8
boundary
62
5
39
2
10
104.565102
20
349.039274
11
105.491534
21
349.367318
0
LINE
8
boundary
62
5
39
2
10
105.491534
20
349.367318
11
106.403096
21
349.714165
0
LINE
8
boundary
62
5
39
2
10
106.403096
20
349.714165
11
107.299145
21
350.080097
0
LINE
8
boundary
62
5
39
2
10
107.299145
20
350.080097
11
108.179178
21
350.464977
0
LINE
8
boundary
62
5
39
2
10
108.179178
20
350.464977
11
109.042275
21
350.868883
0
LINE
8
boundary
62
5
39
2
10
109.042275
20
350.868883
11
109.887985
21
351.291772
0
LINE
8
boundary
62
5
39
2
10
109.887985
20
351.291772
11
110.715619
21
351.733688
0
LINE
8
boundary
62
5
39
2
10
110.715619
20
351.733688
11
111.524432
21
352.194498
0
LINE
8
boundary
62
5
39
2
10
111.524432
20
352.194498
11
112.313792
21
352.674430
0
LINE
8
boundary
62
5
39
2
10
112.313792
20
352.674430
11
113.083131
21
353.173264
0
LINE
8
boundary
62
5
39
2
10
113.083131
20
353.173264
11
113.831743
21
353.690982
0
LINE
8
boundary
62
5
39
2
10
113.831743
20
353.690982
11
114.558935
21
354.227811
0
LINE
8
boundary
62
5
39
2
10
114.558935
20
354.227811
11
115.264077
21
354.783520
0
LINE
8
boundary
62
5
39
2
10
115.264077
20
354.783520
11
115.946525
21
355.358393
0
LINE
8
boundary
62
5
39
2
10
115.946525
20
355.358393
11
116.605639
21
355.952152
0
LINE
8
boundary
62
5
39
2
10
116.605639
20
355.952152
11
117.240894
21
356.564932
0
LINE
8
boundary
62
5
39
2
10
117.240894
20
356.564932
11
117.656982
21
356.858600
0
LINE
8
boundary
62
5
39
2
10
117.656982
20
356.858600
11
118.371563
21
357.409806
0
LINE
8
boundary
62
5
39
2
10
118.371563
20
357.409806
11
119.013819
21
357.986718
0
LINE
8
boundary
62
5
39
2
10
119.013819
20
357.986718
11
119.572812
21
358.580100
0
LINE
8
boundary
62
5
39
2
10
119.572812
20
358.580100
11
120.050444
21
359.189843
0
LINE
8
boundary
62
5
39
2
10
120.050444
20
359.189843
11
120.448416
21
359.815188
0
LINE
8
boundary
62
5
39
2
10
120.448416
20
359.815188
11
120.768798
21
360.455693
0
LINE
8
boundary
62
5
39
2
10
120.768798
20
360.455693
11
121.013078
21
361.111193
0
LINE
8
boundary
62
5
39
2
10
121.013078
20
361.111193
11
121.183414
21
361.781121
0
LINE
8
boundary
62
5
39
2
10
121.183414
20
361.781121
11
121.281628
21
362.464805
0
LINE
8
boundary
62
5
39
2
10
121.281628
20
362.464805
11
121.309598
21
363.162074
0
LINE
8
boundary
62
5
39
2
10
121.309598
20
363.162074
11
121.269369
21
363.872451
0
LINE
8
boundary
62
5
39
2
10
121.269369
20
363.872451
11
121.162853
21
364.595536
0
LINE
8
boundary
62
5
39
2
10
121.162853
20
364.595536
11
120.980561
21
365.330205
0
LINE
8
boundary
62
5
39
2
10
120.980561
20
365.330205
11
120.732887
21
366.076455
0
LINE
8
boundary
62
5
39
2
10
120.732887
20
366.076455
11
120.425470
21
366.834065
0
LINE
8
boundary
62
5
39
2
10
120.425470
20
366.834065
11
120.060635
21
367.602550
0
LINE
8
boundary
62
5
39
2
10
120.060635
20
367.602550
11
119.640128
21
368.381509
0
LINE
8
boundary
62
5
39
2
10
119.640128
20
368.381509
11
119.166039
21
369.170410
0
LINE
8
boundary
62
5
39
2
10
119.166039
20
369.170410
11
118.358717
21
370.371600
0
LINE
8
boundary
62
5
39
2
10
118.358717
20
370.371600
11
117.759174
21
371.183688
0
LINE
8
boundary
62
5
39
2
10
117.759174
20
371.183688
11
117.113028
21
372.004070
0
LINE
8
boundary
62
5
39
2
10
117.113028
20
372.004070
11
116.422191
21
372.832582
0
LINE
8
boundary
62
5
39
2
10
116.422191
20
372.832582
11
115.688476
21
373.668718
0
LINE
8
boundary
62
5
39
2
10
115.688476
20
373.668718
11
114.914027
21
374.511778
0
LINE
8
boundary
62
5
39
2
10
114.914027
20
374.511778
11
114.100759
21
375.361623
0
LINE
8
boundary
62
5
39
2
10
114.100759
20
375.361623
11
113.250647
21
376.217758
0
LINE
8
boundary
62
5
39
2
10
113.250647
20
376.217758
11
112.365567
21
377.079576
0
LINE
8
boundary
62
5
39
2
10
112.365567
20
377.079576
11
111.447487
21
377.946715
0
LINE
8
boundary
62
5
39
2
10
111.447487
20
377.946715
11
110.498254
21
378.818691
0
LINE
8
boundary
62
5
39
2
10
110.498254
20
378.818691
11
109.519817
21
379.695100
0
LINE
8
boundary
62
5
39
2
10
109.519817
20
379.695100
11
108.514249
21
380.575446
0
LINE
8
boundary
62
5
39
2
10
108.514249
20
380.575446
11
107.483179
21
381.459380
0
LINE
8
boundary
62
5
39
2
10
107.483179
20
381.459380
11
106.428647
21
382.346213
0
LINE
8
boundary
62
5
39
2
10
106.428647
20
382.346213
11
105.352414
21
383.235780
0
LINE
8
boundary
62
5
39
2
10
105.352414
20
383.235780
11
104.256355
21
384.127338
0
LINE
8
boundary
62
5
39
2
10
104.256355
20
384.127338
11
103.142375
21
385.020590
0
LINE
8
boundary
62
5
39
2
10
103.142375
20
385.020590
11
102.012214
21
385.915091
0
LINE
8
boundary
62
5
39
2
10
102.012214
20
385.915091
11
100.867473
21
386.810162
0
LINE
8
boundary
62
5
39
2
10
100.867473
20
386.810162
11
99.710160
21
387.705609
0
LINE
8
boundary
62
5
39
2
10
99.710160
20
387.705609
11
98.542091
21
388.600870
0
LINE
8
boundary
62
5
39
2
10
98.542091
20
388.600870
11
97.364759
21
389.495382
0
LINE
8
boundary
62
5
39
2
10
97.364759
20
389.495382
11
94.989628
21
391.280488
0
LINE
8
boundary
62
5
39
2
10
94.989628
20
391.280488
11
92.598327
21
393.057210
0
LINE
8
boundary
62
5
39
2
10
92.598327
20
393.057210
11
90.204067
21
394.821743
0
LINE
8
boundary
62
5
39
2
10
90.204067
20
394.821743
11
87.819694
21
396.570358
0
LINE
8
boundary
62
5
39
2
10
87.819694
20
396.570358
11
85.457915
21
398.299076
0
LINE
8
boundary
62
5
39
2
10
85.457915
20
398.299076
11
80.851082
21
401.681491
0
LINE
8
boundary
62
5
39
2
10
80.851082
20
401.681491
11
76.479035
21
404.937555
0
LINE
8
boundary
62
5
39
2
10
76.479035
20
404.937555
11
74.409628
21
406.508571
0
LINE
8
boundary
62
5
39
2
10
74.409628
20
406.508571
11
72.432965
21
408.036054
0
LINE
8
boundary
62
5
39
2
10
72.432965
20
408.036054
11
71.242829
21
408.957477
0
LINE
8
boundary
62
5
39
2
10
71.242829
20
408.957477
11
70.064376
21
409.854044
0
LINE
8
boundary
62
5
39
2
10
70.064376
20
409.854044
11
68.897391
21
410.726358
0
LINE
8
boundary
62
5
39
2
10
68.897391
20
410.726358
11
67.741527
21
411.574614
0
LINE
8
boundary
62
5
39
2
10
67.741527
20
411.574614
11
66.596638
21
412.399139
0
LINE
8
boundary
62
5
39
2
10
66.596638
20
412.399139
11
65.462422
21
413.200262
0
LINE
8
boundary
62
5
39
2
10
65.462422
20
413.200262
11
64.338912
21
413.978423
0
LINE
8
boundary
62
5
39
2
10
64.338912
20
413.978423
11
63.225749
21
414.734042
0
LINE
8
boundary
62
5
39
2
10
63.225749
20
414.734042
11
62.122736
21
415.467238
0
LINE
8
boundary
62
5
39
2
10
62.122736
20
415.467238
11
61.029546
21
416.178421
0
LINE
8
boundary
62
5
39
2
10
61.029546
20
416.178421
11
59.946083
21
416.868183
0
LINE
8
boundary
62
5
39
2
10
59.946083
20
416.868183
11
58.872229
21
417.536559
0
LINE
8
boundary
62
5
39
2
10
58.872229
20
417.536559
11
57.807645
21
418.184104
0
LINE
8
boundary
62
5
39
2
10
57.807645
20
418.184104
11
56.752243
21
418.811198
0
LINE
8
boundary
62
5
39
2
10
56.752243
20
418.811198
11
55.705647
21
419.418041
0
LINE
8
boundary
62
5
39
2
10
55.705647
20
419.418041
11
54.667777
21
420.005241
0
LINE
8
boundary
62
5
39
2
10
54.667777
20
420.005241
11
53.638401
21
420.572848
0
LINE
8
boundary
62
5
39
2
10
53.638401
20
420.572848
11
52.617354
21
421.121366
0
LINE
8
boundary
62
5
39
2
10
52.617354
20
421.121366
11
51.604387
21
421.651324
0
LINE
8
boundary
62
5
39
2
10
51.604387
20
421.651324
11
50.599390
21
422.162990
0
LINE
8
boundary
62
5
39
2
10
50.599390
20
422.162990
11
49.602116
21
422.656526
0
LINE
8
boundary
62
5
39
2
10
49.602116
20
422.656526
11
48.612307
21
423.132632
0
LINE
8
boundary
62
5
39
2
10
48.612307
20
423.132632
11
47.629886
21
423.591360
0
LINE
8
boundary
62
5
39
2
10
47.629886
20
423.591360
11
46.654588
21
424.033451
0
LINE
8
boundary
62
5
39
2
10
46.654588
20
424.033451
11
45.686381
21
424.458873
0
LINE
8
boundary
62
5
39
2
10
45.686381
20
424.458873
11
44.724923
21
424.868420
0
LINE
8
boundary
62
5
39
2
10
44.724923
20
424.868420
11
43.770183
21
425.262166
0
LINE
8
boundary
62
5
39
2
10
43.770183
20
425.262166
11
42.821805
21
425.640671
0
LINE
8
boundary
62
5
39
2
10
42.821805
20
425.640671
11
41.879755
21
426.004118
0
LINE
8
boundary
62
5
39
2
10
41.879755
20
426.004118
11
40.943881
21
426.353089
0
LINE
8
boundary
62
5
39
2
10
40.943881
20
426.353089
11
40.013931
21
426.687853
0
LINE
8
boundary
62
5
39
2
10
40.013931
20
426.687853
11
39.089893
21
427.008768
0
LINE
8
boundary
62
5
39
2
10
39.089893
20
427.008768
11
38.171429
21
427.316352
0
LINE
8
boundary
62
5
39
2
10
38.171429
20
427.316352
11
37.258522
21
427.610928
0
LINE
8
boundary
62
5
39
2
10
37.258522
20
427.610928
11
36.350857
21
427.892781
0
LINE
8
boundary
62
5
39
2
10
36.350857
20
427.892781
11
35.448506
21
428.162480
0
LINE
8
boundary
62
5
39
2
10
35.448506
20
428.162480
11
34.551201
21
428.420287
0
LINE
8
boundary
62
5
39
2
10
34.551201
20
428.420287
11
33.658852
21
428.666659
0
LINE
8
boundary
62
5
39
2
10
33.658852
20
428.666659
11
32.771300
21
428.901967
0
LINE
8
boundary
62
5
39
2
10
32.771300
20
428.901967
11
31.888492
21
429.126546
0
LINE
8
boundary
62
5
39
2
10
31.888492
20
429.126546
11
31.010083
21
429.340827
0
LINE
8
boundary
62
5
39
2
10
31.010083
20
429.340827
11
30.136153
21
429.545271
0
LINE
8
boundary
62
5
39
2
10
30.136153
20
429.545271
11
28.401096
21
429.925896
0
LINE
8
boundary
62
5
39
2
10
28.401096
20
429.925896
11
26.682327
21
430.271825
0
LINE
8
boundary
62
5
39
2
10
26.682327
20
430.271825
11
24.978934
21
430.586024
0
LINE
8
boundary
62
5
39
2
10
24.978934
20
430.586024
11
23.290150
21
430.871573
0
LINE
8
boundary
62
5
39
2
10
23.290150
20
430.871573
11
21.615202
21
431.131824
0
LINE
8
boundary
62
5
39
2
10
21.615202
20
431.131824
11
19.953281
21
431.369939
0
LINE
8
boundary
62
5
39
2
10
19.953281
20
431.369939
11
18.303975
21
431.589064
0
LINE
8
boundary
62
5
39
2
10
18.303975
20
431.589064
11
16.666548
21
431.792346
0
LINE
8
boundary
62
5
39
2
10
16.666548
20
431.792346
11
15.040359
21
431.983060
0
LINE
8
boundary
62
5
39
2
10
15.040359
20
431.983060
11
11.820228
21
432.339504
0
LINE
8
boundary
62
5
39
2
10
11.820228
20
432.339504
11
11.994324
21
428.041699
0
LINE
8
boundary
62
5
39
2
10
11.994324
20
428.041699
11
12.066761
21
425.034757
0
LINE
8
boundary
62
5
39
2
10
12.066761
20
425.034757
11
16.493326
21
424.382168
0
LINE
8
boundary
62
5
39
2
10
16.493326
20
424.382168
11
17.838316
21
424.016094
0
LINE
8
boundary
62
5
39
2
10
17.838316
20
424.016094
11
19.125870
21
423.642983
0
LINE
8
boundary
62
5
39
2
10
19.125870
20
423.642983
11
19.763055
21
423.451832
0
LINE
8
boundary
62
5
39
2
10
19.763055
20
423.451832
11
37.213470
21
423.451833
0
LINE
8
boundary
62
5
39
2
10
37.213470
20
423.451833
11
37.213470
21
420.705833
0
LINE
8
boundary
62
5
39
2
10
37.213470
20
420.705833
11
28.353770
21
420.705833
0
LINE
8
boundary
62
5
39
2
10
28.353770
20
420.705833
11
28.853735
21
420.363682
0
LINE
8
boundary
62
5
39
2
10
28.853735
20
420.363682
11
30.000114
21
419.918916
0
LINE
8
boundary
62
5
39
2
10
30.000114
20
419.918916
11
31.131855
21
419.467150
0
LINE
8
boundary
62
5
39
2
10
31.131855
20
419.467150
11
32.248910
21
419.007996
0
LINE
8
boundary
62
5
39
2
10
32.248910
20
419.007996
11
33.351347
21
418.541963
0
LINE
8
boundary
62
5
39
2
10
33.351347
20
418.541963
11
34.439197
21
418.068977
0
LINE
8
boundary
62
5
39
2
10
34.439197
20
418.068977
11
35.512454
21
417.589331
0
LINE
8
boundary
62
5
39
2
10
35.512454
20
417.589331
11
36.571176
21
417.103143
0
LINE
8
boundary
62
5
39
2
10
36.571176
20
417.103143
11
37.615235
21
416.610536
0
LINE
8
boundary
62
5
39
2
10
37.615235
20
416.610536
11
38.644809
21
416.111703
0
LINE
8
boundary
62
5
39
2
10
38.644809
20
416.111703
11
39.659899
21
415.606695
0
LINE
8
boundary
62
5
39
2
10
39.659899
20
415.606695
11
40.660331
21
415.095608
0
LINE
8
boundary
62
5
39
2
10
40.660331
20
415.095608
11
41.646179
21
414.578849
0
LINE
8
boundary
62
5
39
2
10
41.646179
20
414.578849
11
42.617492
21
414.056351
0
LINE
8
boundary
62
5
39
2
10
42.617492
20
414.056351
11
43.574292
21
413.528380
0
LINE
8
boundary
62
5
39
2
10
43.574292
20
413.528380
11
44.516384
21
412.994885
0
LINE
8
boundary
62
5
39
2
10
44.516384
20
412.994885
11
45.443927
21
412.456350
0
LINE
8
boundary
62
5
39
2
10
45.443927
20
412.456350
11
46.356813
21
411.912536
0
LINE
8
boundary
62
5
39
2
10
46.356813
20
411.912536
11
47.255059
21
411.363756
0
LINE
8
boundary
62
5
39
2
10
47.255059
20
411.363756
11
48.138736
21
410.810155
0
LINE
8
boundary
62
5
39
2
10
48.138736
20
410.810155
11
49.007622
21
410.251953
0
LINE
8
boundary
62
5
39
2
10
49.007622
20
410.251953
11
49.861770
21
409.689233
0
LINE
8
boundary
62
5
39
2
10
49.861770
20
409.689233
11
50.701176
21
409.121972
0
LINE
8
boundary
62
5
39
2
10
50.701176
20
409.121972
11
51.525801
21
408.550689
0
LINE
8
boundary
62
5
39
2
10
51.525801
20
408.550689
11
52.335665
21
407.975118
0
LINE
8
boundary
62
5
39
2
10
52.335665
20
407.975118
11
53.130716
21
407.395564
0
LINE
8
boundary
62
5
39
2
10
53.130716
20
407.395564
11
53.910698
21
406.812292
0
LINE
8
boundary
62
5
39
2
10
53.910698
20
406.812292
11
54.675919
21
406.225302
0
LINE
8
boundary
62
5
39
2
10
54.675919
20
406.225302
11
55.426084
21
405.634837
0
LINE
8
boundary
62
5
39
2
10
55.426084
20
405.634837
11
56.161313
21
405.040870
0
LINE
8
boundary
62
5
39
2
10
56.161313
20
405.040870
11
56.881407
21
404.443732
0
LINE
8
boundary
62
5
39
2
10
56.881407
20
404.443732
11
57.586490
21
403.843372
0
LINE
8
boundary
62
5
39
2
10
57.586490
20
403.843372
11
58.176219
21
403.327649
0
LINE
8
boundary
62
5
39
2
10
58.176219
20
403.327649
11
58.945940
21
402.634582
0
LINE
8
boundary
62
5
39
2
10
58.945940
20
402.634582
11
59.600718
21
402.026348
0
LINE
8
boundary
62
5
39
2
10
59.600718
20
402.026348
11
60.239995
21
401.415563
0
LINE
8
boundary
62
5
39
2
10
60.239995
20
401.415563
11
60.863521
21
400.802177
0
LINE
8
boundary
62
5
39
2
10
60.863521
20
400.802177
11
61.471551
21
400.186834
0
LINE
8
boundary
62
5
39
2
10
61.471551
20
400.186834
11
62.063993
21
399.569170
0
LINE
8
boundary
62
5
39
2
10
62.063993
20
399.569170
11
62.640615
21
398.949641
0
LINE
8
boundary
62
5
39
2
10
62.640615
20
398.949641
11
63.201563
21
398.328108
0
LINE
8
boundary
62
5
39
2
10
63.201563
20
398.328108
11
63.746604
21
397.705027
0
LINE
8
boundary
62
5
39
2
10
63.746604
20
397.705027
11
64.275764
21
397.080172
0
LINE
8
boundary
62
5
39
2
10
64.275764
20
397.080172
11
64.789031
21
396.454046
0
LINE
8
boundary
62
5
39
2
10
64.789031
20
396.454046
11
65.286438
21
395.826481
0
LINE
8
boundary
62
5
39
2
10
65.286438
20
395.826481
11
65.767578
21
395.197817
0
LINE
8
boundary
62
5
39
2
10
65.767578
20
395.197817
11
66.232822
21
394.568101
0
LINE
8
boundary
62
5
39
2
10
66.232822
20
394.568101
11
66.681966
21
393.937376
0
LINE
8
boundary
62
5
39
2
10
66.681966
20
393.937376
11
67.114908
21
393.306086
0
LINE
8
boundary
62
5
39
2
10
67.114908
20
393.306086
11
67.531588
21
392.673934
0
LINE
8
boundary
62
5
39
2
10
67.531588
20
392.673934
11
67.932059
21
392.041450
0
LINE
8
boundary
62
5
39
2
10
67.932059
20
392.041450
11
68.316058
21
391.408524
0
LINE
8
boundary
62
5
39
2
10
68.316058
20
391.408524
11
68.683939
21
390.775295
0
LINE
8
boundary
62
5
39
2
10
68.683939
20
390.775295
11
69.035247
21
390.142054
0
LINE
8
boundary
62
5
39
2
10
69.035247
20
390.142054
11
69.370089
21
389.508717
0
LINE
8
boundary
62
5
39
2
10
69.370089
20
389.508717
11
69.484426
21
388.577763
0
LINE
8
boundary
62
5
39
2
10
69.484426
20
388.577763
11
69.618751
21
387.623612
0
LINE
8
boundary
62
5
39
2
10
69.618751
20
387.623612
11
69.774166
21
386.657743
0
LINE
8
boundary
62
5
39
2
10
69.774166
20
386.657743
11
69.944742
21
385.683479
0
LINE
8
boundary
62
5
39
2
10
69.944742
20
385.683479
11
70.297148
21
383.771908
0
LINE
8
boundary
62
5
39
2
10
70.297148
20
383.771908
11
70.642860
21
381.824940
0
LINE
8
boundary
62
5
39
2
10
70.642860
20
381.824940
11
70.805334
21
380.802684
0
LINE
8
boundary
62
5
39
2
10
70.805334
20
380.802684
11
70.935011
21
379.847807
0
LINE
8
boundary
62
5
39
2
10
70.935011
20
379.847807
11
71.035715
21
378.907673
0
LINE
8
boundary
62
5
39
2
10
71.035715
20
378.907673
11
71.101100
21
377.985492
0
LINE
8
boundary
62
5
39
2
10
71.101100
20
377.985492
11
71.124626
21
377.084657
0
LINE
8
boundary
62
5
39
2
10
71.124626
20
377.084657
11
71.118446
21
376.574322
0
LINE
8
boundary
62
5
39
2
10
71.118446
20
376.574322
11
71.065956
21
375.745144
0
LINE
8
boundary
62
5
39
2
10
71.065956
20
375.745144
11
70.954446
21
374.911475
0
LINE
8
boundary
62
5
39
2
10
70.954446
20
374.911475
11
70.778163
21
374.110681
0
LINE
8
boundary
62
5
39
2
10
70.778163
20
374.110681
11
70.530685
21
373.346066
0
LINE
8
boundary
62
5
39
2
10
70.530685
20
373.346066
11
70.205509
21
372.620929
0
LINE
8
boundary
62
5
39
2
10
70.205509
20
372.620929
11
69.796340
21
371.938545
0
LINE
8
boundary
62
5
39
2
10
69.796340
20
371.938545
11
69.296778
21
371.302184
0
LINE
8
boundary
62
5
39
2
10
69.296778
20
371.302184
11
68.700420
21
370.715178
0
LINE
8
boundary
62
5
39
2
10
68.700420
20
370.715178
11
68.001346
21
370.180562
0
LINE
8
boundary
62
5
39
2
10
68.001346
20
370.180562
11
67.564240
21
369.904790
0
LINE
8
boundary
62
5
39
2
10
67.564240
20
369.904790
11
66.746168
21
369.484268
0
LINE
8
boundary
62
5
39
2
10
66.746168
20
369.484268
11
66.269711
21
369.282015
0
LINE
8
boundary
62
5
39
2
10
66.269711
20
369.282015
11
65.763022
21
369.095324
0
LINE
8
boundary
62
5
39
2
10
65.763022
20
369.095324
11
65.225336
21
368.924595
0
LINE
8
boundary
62
5
39
2
10
65.225336
20
368.924595
11
64.655961
21
368.770231
0
LINE
8
boundary
62
5
39
2
10
64.655961
20
368.770231
11
64.054071
21
368.632694
0
LINE
8
boundary
62
5
39
2
10
64.054071
20
368.632694
11
63.419072
21
368.512361
0
LINE
8
boundary
62
5
39
2
10
63.419072
20
368.512361
11
62.750354
21
368.409655
0
LINE
8
boundary
62
5
39
2
10
62.750354
20
368.409655
11
62.047089
21
368.324914
0
LINE
8
boundary
62
5
39
2
10
62.047089
20
368.324914
11
61.308511
21
368.258668
0
LINE
8
boundary
62
5
39
2
10
61.308511
20
368.258668
11
60.534149
21
368.211224
0
LINE
8
boundary
62
5
39
2
10
60.534149
20
368.211224
11
59.723247
21
368.183054
0
LINE
8
boundary
62
5
39
2
10
59.723247
20
368.183054
11
58.875353
21
368.174537
0
LINE
8
boundary
62
5
39
2
10
58.875353
20
368.174537
11
57.989548
21
368.185991
0
LINE
8
boundary
62
5
39
2
10
57.989548
20
368.185991
11
57.065419
21
368.217951
0
LINE
8
boundary
62
5
39
2
10
57.065419
20
368.217951
11
56.102333
21
368.270836
0
LINE
8
boundary
62
5
39
2
10
56.102333
20
368.270836
11
55.099736
21
368.344969
0
LINE
8
boundary
62
5
39
2
10
55.099736
20
368.344969
11
53.422313
21
368.853979
0
LINE
8
boundary
62
5
39
2
10
53.422313
20
368.853979
11
51.645268
21
369.430358
0
LINE
8
boundary
62
5
39
2
10
51.645268
20
369.430358
11
49.912537
21
369.976397
0
LINE
8
boundary
62
5
39
2
10
49.912537
20
369.976397
11
48.214805
21
370.492571
0
LINE
8
boundary
62
5
39
2
10
48.214805
20
370.492571
11
46.543049
21
370.979379
0
LINE
8
boundary
62
5
39
2
10
46.543049
20
370.979379
11
44.888204
21
371.437230
0
LINE
8
boundary
62
5
39
2
10
44.888204
20
371.437230
11
43.241605
21
371.866838
0
LINE
8
boundary
62
5
39
2
10
43.241605
20
371.866838
11
41.594223
21
372.268649
0
LINE
8
boundary
62
5
39
2
10
41.594223
20
372.268649
11
39.937445
21
372.643092
0
LINE
8
boundary
62
5
39
2
10
39.937445
20
372.643092
11
38.262624
21
372.990862
0
LINE
8
boundary
62
5
39
2
10
38.262624
20
372.990862
11
36.561308
21
373.312303
0
LINE
8
boundary
62
5
39
2
10
36.561308
20
373.312303
11
34.825136
21
373.608069
0
LINE
8
boundary
62
5
39
2
10
34.825136
20
373.608069
11
33.045922
21
373.878655
0
LINE
8
boundary
62
5
39
2
10
33.045922
20
373.878655
11
32.539149
21
373.953256
0
LINE
8
boundary
62
5
39
2
10
32.539149
20
373.953256
11
31.215555
21
374.124611
0
LINE
8
boundary
62
5
39
2
10
31.215555
20
374.124611
11
30.667915
21
374.195551
0
LINE
8
boundary
62
5
39
2
10
30.667915
20
374.195551
11
29.326234
21
374.346469
0
LINE
8
boundary
62
5
39
2
10
29.326234
20
374.346469
11
28.730494
21
374.413549
0
LINE
8
boundary
62
5
39
2
10
28.730494
20
374.413549
11
27.370392
21
374.544831
0
LINE
8
boundary
62
5
39
2
10
27.370392
20
374.544831
11
26.718072
21
374.607881
0
LINE
8
boundary
62
5
39
2
10
26.718072
20
374.607881
11
26.491192
21
363.699250
0
LINE
8
boundary
62
5
39
2
10
26.491192
20
363.699250
11
26.319854
21
355.691501
0
LINE
8
boundary
62
5
39
2
10
26.319854
20
355.691501
11
30.771001
21
340.713240
0
LINE
8
boundary
62
5
39
2
10
30.771001
20
340.713240
11
41.124035
21
340.240374
0
LINE
8
boundary
62
5
39
2
10
41.124035
20
340.240374
11
41.124035
21
337.494373
0
LINE
8
boundary
62
5
39
2
10
41.124035
20
337.494373
11
31.781785
21
337.494373
0
LINE
8
boundary
62
5
39
2
10
31.781785
20
337.494373
11
37.131387
21
319.296316
0
LINE
8
boundary
62
5
39
2
10
37.131387
20
319.296316
11
37.423593
21
318.423612
0
LINE
8
boundary
62
5
39
2
10
37.423593
20
318.423612
11
37.848477
21
317.154465
0
LINE
8
boundary
62
5
39
2
10
37.848477
20
317.154465
11
38.122427
21
316.284090
0
LINE
8
boundary
62
5
39
2
10
38.122427
20
316.284090
11
38.524822
21
315.005251
0
LINE
8
boundary
62
5
39
2
10
38.524822
20
315.005251
11
38.780658
21
314.137983
0
LINE
8
boundary
62
5
39
2
10
38.780658
20
314.137983
11
39.160775
21
312.848772
0
LINE
8
boundary
62
5
39
2
10
39.160775
20
312.848772
11
39.398488
21
311.985307
0
LINE
8
boundary
62
5
39
2
10
39.398488
20
311.985307
11
39.756144
21
310.685309
0
LINE
8
boundary
62
5
39
2
10
39.756144
20
310.685309
11
39.976090
21
309.826289
0
LINE
8
boundary
62
5
39
2
10
39.976090
20
309.826289
11
40.311493
21
308.514818
0
LINE
8
boundary
62
5
39
2
10
40.311493
20
308.514818
11
40.513843
21
307.660914
0
LINE
8
boundary
62
5
39
2
10
40.513843
20
307.660914
11
40.826945
21
306.337454
0
LINE
8
boundary
62
5
39
2
10
40.826945
20
306.337454
11
41.011918
21
305.489306
0
LINE
8
boundary
62
5
39
2
10
41.011918
20
305.489306
11
41.302749
21
304.153489
0
LINE
8
boundary
62
5
39
2
10
41.302749
20
304.153489
11
41.470668
21
303.311661
0
LINE
8
boundary
62
5
39
2
10
41.470668
20
303.311661
11
41.739021
21
301.962921
0
LINE
8
boundary
62
5
39
2
10
41.739021
20
301.962921
11
41.890286
21
301.127996
0
LINE
8
boundary
62
5
39
2
10
41.890286
20
301.127996
11
42.136321
21
299.765814
0
LINE
8
boundary
62
5
39
2
10
42.136321
20
299.765814
11
42.271257
21
298.938349
0
LINE
8
boundary
62
5
39
2
10
42.271257
20
298.938349
11
42.494746
21
297.562505
0
LINE
8
boundary
62
5
39
2
10
42.494746
20
297.562505
11
42.613775
21
296.743033
0
LINE
8
boundary
62
5
39
2
10
42.613775
20
296.743033
11
42.814674
21
295.352928
0
LINE
8
boundary
62
5
39
2
10
42.814674
20
295.352928
11
42.918187
21
294.541985
0
LINE
8
boundary
62
5
39
2
10
42.918187
20
294.541985
11
43.096318
21
293.137261
0
LINE
8
boundary
62
5
39
2
10
43.096318
20
293.137261
11
43.184785
21
292.335358
0
LINE
8
boundary
62
5
39
2
10
43.184785
20
292.335358
11
43.340158
21
290.915592
0
LINE
8
boundary
62
5
39
2
10
43.340158
20
290.915592
11
43.414057
21
290.123196
0
LINE
8
boundary
62
5
39
2
10
43.414057
20
290.123196
11
43.546476
21
288.688128
0
LINE
8
boundary
62
5
39
2
10
43.546476
20
288.688128
11
43.606262
21
287.905753
0
LINE
8
boundary
62
5
39
2
10
43.606262
20
287.905753
11
43.715637
21
286.454890
0
LINE
8
boundary
62
5
39
2
10
43.715637
20
286.454890
11
43.761816
21
285.683002
0
LINE
8
boundary
62
5
39
2
10
43.761816
20
285.683002
11
43.847830
21
284.216074
0
LINE
8
boundary
62
5
39
2
10
43.847830
20
284.216074
11
43.880956
21
283.455137
0
LINE
8
boundary
62
5
39
2
10
43.880956
20
283.455137
11
43.943748
21
281.971697
0
LINE
8
boundary
62
5
39
2
10
43.943748
20
281.971697
11
43.964354
21
281.222150
0
LINE
8
boundary
62
5
39
2
10
43.964354
20
281.222150
11
44.003615
21
279.721912
0
LINE
8
boundary
62
5
39
2
10
44.003615
20
279.721912
11
44.012224
21
278.984218
0
LINE
8
boundary
62
5
39
2
10
44.012224
20
278.984218
11
44.027722
21
277.466857
0
LINE
8
boundary
62
5
39
2
10
44.027722
20
277.466857
11
44.024962
21
276.741478
0
LINE
8
boundary
62
5
39
2
10
44.024962
20
276.741478
11
44.016849
21
275.206683
0
LINE
8
boundary
62
5
39
2
10
44.016849
20
275.206683
11
44.003228
21
274.494055
0
LINE
8
boundary
62
5
39
2
10
44.003228
20
274.494055
11
43.971037
21
272.941480
0
LINE
8
boundary
62
5
39
2
10
43.971037
20
272.941480
11
43.947172
21
272.241998
0
LINE
8
boundary
62
5
39
2
10
43.947172
20
272.241998
11
43.890891
21
270.671299
0
LINE
8
boundary
62
5
39
2
10
43.890891
20
270.671299
11
43.857352
21
269.985469
0
LINE
8
boundary
62
5
39
2
10
43.857352
20
269.985469
11
43.776772
21
268.396386
0
LINE
8
boundary
62
5
39
2
10
43.776772
20
268.396386
11
43.734198
21
267.724590
0
LINE
8
boundary
62
5
39
2
10
43.734198
20
267.724590
11
43.629334
21
266.116817
0
LINE
8
boundary
62
5
39
2
10
43.629334
20
266.116817
11
43.578333
21
265.459494
0
LINE
8
boundary
62
5
39
2
10
43.578333
20
265.459494
11
43.448798
21
263.832670
0
LINE
8
boundary
62
5
39
2
10
43.448798
20
263.832670
11
43.389997
21
263.190259
0
LINE
8
boundary
62
5
39
2
10
43.389997
20
263.190259
11
43.235860
21
261.544108
0
LINE
8
boundary
62
5
39
2
10
43.235860
20
261.544108
11
43.169820
21
260.917056
0
LINE
8
boundary
62
5
39
2
10
43.169820
20
260.917056
11
42.990762
21
259.251301
0
LINE
8
boundary
62
5
39
2
10
42.990762
20
259.251301
11
42.918226
21
258.640055
0
LINE
8
boundary
62
5
39
2
10
42.918226
20
258.640055
11
42.714324
21
256.954407
0
LINE
8
boundary
62
5
39
2
10
42.714324
20
256.954407
11
42.635839
21
256.359359
0
LINE
8
boundary
62
5
39
2
10
42.635839
20
256.359359
11
42.406775
21
254.653463
0
LINE
8
boundary
62
5
39
2
10
42.406775
20
254.653463
11
42.323029
21
254.075129
0
LINE
8
boundary
62
5
39
2
10
42.323029
20
254.075129
11
42.068705
21
252.348831
0
LINE
8
boundary
62
5
39
2
10
42.068705
20
252.348831
11
41.980317
21
251.787612
0
LINE
8
boundary
62
5
39
2
10
41.980317
20
251.787612
11
41.700648
21
250.040461
0
LINE
8
boundary
62
5
39
2
10
41.700648
20
250.040461
11
41.608316
21
249.496865
0
LINE
8
boundary
62
5
39
2
10
41.608316
20
249.496865
11
41.303183
21
247.728604
0
LINE
8
boundary
62
5
39
2
10
41.303183
20
247.728604
11
41.207524
21
247.203055
0
LINE
8
boundary
62
5
39
2
10
41.207524
20
247.203055
11
40.876764
21
245.413360
0
LINE
8
boundary
62
5
39
2
10
40.876764
20
245.413360
11
40.778472
21
244.906375
0
LINE
8
boundary
62
5
39
2
10
40.778472
20
244.906375
11
40.422093
21
243.095042
0
LINE
8
boundary
62
5
39
2
10
40.422093
20
243.095042
11
39.939459
21
240.773739
0
LINE
8
boundary
62
5
39
2
10
39.939459
20
240.773739
11
39.429537
21
238.449643
0
LINE
8
boundary
62
5
39
2
10
39.429537
20
238.449643
11
38.892908
21
236.122961
0
LINE
8
boundary
62
5
39
2
10
38.892908
20
236.122961
11
38.330247
21
233.793929
0
LINE
8
boundary
62
5
39
2
10
38.330247
20
233.793929
11
37.742102
21
231.462788
0
LINE
8
boundary
62
5
39
2
10
37.742102
20
231.462788
11
37.128816
21
229.129667
0
LINE
8
boundary
62
5
39
2
10
37.128816
20
229.129667
11
36.491244
21
226.794945
0
LINE
8
boundary
62
5
39
2
10
36.491244
20
226.794945
11
35.829896
21
224.458816
0
LINE
8
boundary
62
5
39
2
10
35.829896
20
224.458816
11
35.145390
21
222.121432
0
LINE
8
boundary
62
5
39
2
10
35.145390
20
222.121432
11
34.438321
21
219.783191
0
LINE
8
boundary
62
5
39
2
10
34.438321
20
219.783191
11
33.709336
21
217.444390
0
LINE
8
boundary
62
5
39
2
10
33.709336
20
217.444390
11
32.959096
21
215.105238
0
LINE
8
boundary
62
5
39
2
10
32.959096
20
215.105238
11
32.188042
21
212.766087
0
LINE
8
boundary
62
5
39
2
10
32.188042
20
212.766087
11
31.397055
21
210.427245
0
LINE
8
boundary
62
5
39
2
10
31.397055
20
210.427245
11
30.586580
21
208.089012
0
LINE
8
boundary
62
5
39
2
10
30.586580
20
208.089012
11
29.757481
21
205.751850
0
LINE
8
boundary
62
5
39
2
10
29.757481
20
205.751850
11
28.910161
21
203.415967
0
LINE
8
boundary
62
5
39
2
10
28.910161
20
203.415967
11
28.045531
21
201.081868
0
LINE
8
boundary
62
5
39
2
10
28.045531
20
201.081868
11
27.164066
21
198.749902
0
LINE
8
boundary
62
5
39
2
10
27.164066
20
198.749902
11
26.917783
21
198.110625
0
LINE
8
boundary
62
5
39
2
10
26.917783
20
198.110625
11
26.247868
21
196.443839
0
LINE
8
boundary
62
5
39
2
10
26.247868
20
196.443839
11
25.310038
21
194.150466
0
LINE
8
boundary
62
5
39
2
10
25.310038
20
194.150466
11
24.358635
21
191.861484
0
LINE
8
boundary
62
5
39
2
10
24.358635
20
191.861484
11
23.394217
21
189.577404
0
LINE
8
boundary
62
5
39
2
10
23.394217
20
189.577404
11
22.417612
21
187.298743
0
LINE
8
boundary
62
5
39
2
10
22.417612
20
187.298743
11
20.530854
21
182.987750
0
LINE
8
boundary
62
5
39
2
10
20.530854
20
182.987750
11
20.321765
21
182.515108
0
LINE
8
boundary
62
5
39
2
10
20.321765
20
182.515108
11
18.541649
21
178.554333
0
LINE
8
boundary
62
5
39
2
10
18.541649
20
178.554333
11
18.253954
21
177.920798
0
LINE
8
boundary
62
5
39
2
10
18.253954
20
177.920798
11
16.523052
21
174.159240
0
LINE
8
boundary
62
5
39
2
10
16.523052
20
174.159240
11
16.148450
21
173.353510
0
LINE
8
boundary
62
5
39
2
10
16.148450
20
173.353510
11
15.149141
21
169.551243
0
LINE
8
boundary
62
5
39
2
10
15.149141
20
169.551243
11
14.893959
21
168.589965
0
LINE
8
boundary
62
5
39
2
10
14.893959
20
168.589965
11
13.908972
21
164.736512
0
LINE
8
boundary
62
5
39
2
10
13.908972
20
164.736512
11
13.629063
21
163.652550
0
LINE
8
boundary
62
5
39
2
10
13.629063
20
163.652550
11
13.148927
21
161.711316
0
LINE
8
boundary
62
5
39
2
10
13.148927
20
161.711316
11
13.001574
21
161.121596
0
LINE
8
boundary
62
5
39
2
10
13.001574
20
161.121596
11
12.532737
21
159.170652
0
LINE
8
boundary
62
5
39
2
10
12.532737
20
159.170652
11
12.382208
21
158.550710
0
LINE
8
boundary
62
5
39
2
10
12.382208
20
158.550710
11
11.926871
21
156.589937
0
LINE
8
boundary
62
5
39
2
10
11.926871
20
156.589937
11
11.774598
21
155.941060
0
LINE
8
boundary
62
5
39
2
10
11.774598
20
155.941060
11
11.334927
21
153.969987
0
LINE
8
boundary
62
5
39
2
10
11.334927
20
153.969987
11
11.182550
21
153.294076
0
LINE
8
boundary
62
5
39
2
10
11.182550
20
153.294076
11
10.760516
21
151.311396
0
LINE
8
boundary
62
5
39
2
10
10.760516
20
151.311396
11
10.609778
21
150.610838
0
LINE
8
boundary
62
5
39
2
10
10.609778
20
150.610838
11
10.207171
21
148.614742
0
LINE
8
boundary
62
5
39
2
10
10.207171
20
148.614742
11
10.059951
21
147.892701
0
LINE
8
boundary
62
5
39
2
10
10.059951
20
147.892701
11
9.678794
21
145.880819
0
LINE
8
boundary
62
5
39
2
10
9.678794
20
145.880819
11
9.537059
21
145.141085
0
LINE
8
boundary
62
5
39
2
10
9.537059
20
145.141085
11
9.179143
21
143.109994
0
LINE
8
boundary
62
5
39
2
10
9.179143
20
143.109994
11
9.044965
21
142.357187
0
LINE
8
boundary
62
5
39
2
10
9.044965
20
142.357187
11
8.712199
21
140.302943
0
LINE
8
boundary
62
5
39
2
10
8.712199
20
140.302943
11
8.587525
21
139.542442
0
LINE
8
boundary
62
5
39
2
10
8.587525
20
139.542442
11
8.281889
21
137.460138
0
LINE
8
boundary
62
5
39
2
10
8.281889
20
137.460138
11
8.168668
21
136.698213
0
LINE
8
boundary
62
5
39
2
10
8.168668
20
136.698213
11
7.892702
21
134.582110
0
LINE
8
boundary
62
5
39
2
10
7.892702
20
134.582110
11
7.792782
21
133.825954
0
LINE
8
boundary
62
5
39
2
10
7.792782
20
133.825954
11
7.548776
21
131.669522
0
LINE
8
boundary
62
5
39
2
10
7.548776
20
131.669522
11
7.463621
21
130.927217
0
LINE
8
boundary
62
5
39
2
10
7.463621
20
130.927217
11
7.254726
21
128.722894
0
LINE
8
boundary
62
5
39
2
10
7.254726
20
128.722894
11
7.185478
21
128.003375
0
LINE
8
boundary
62
5
39
2
10
7.185478
20
128.003375
11
7.015110
21
125.742800
0
LINE
8
boundary
62
5
39
2
10
7.015110
20
125.742800
11
6.962434
21
125.055935
0
LINE
8
boundary
62
5
39
2
10
6.962434
20
125.055935
11
6.834974
21
122.730020
0
LINE
8
boundary
62
5
39
2
10
6.834974
20
122.730020
11
6.798944
21
122.086512
0
LINE
8
boundary
62
5
39
2
10
6.798944
20
122.086512
11
6.753070
21
120.901377
0
LINE
8
boundary
62
5
39
2
10
6.753070
20
120.901377
11
6.707469
21
119.389276
0
LINE
8
boundary
62
5
39
2
10
6.707469
20
119.389276
11
6.679293
21
117.871013
0
LINE
8
boundary
62
5
39
2
10
6.679293
20
117.871013
11
6.668881
21
116.346814
0
LINE
8
boundary
62
5
39
2
10
6.668881
20
116.346814
11
6.676998
21
114.816887
0
LINE
8
boundary
62
5
39
2
10
6.676998
20
114.816887
11
6.704305
21
113.281344
0
LINE
8
boundary
62
5
39
2
10
6.704305
20
113.281344
11
6.751420
21
111.740441
0
LINE
8
boundary
62
5
39
2
10
6.751420
20
111.740441
11
6.818842
21
110.194354
0
LINE
8
boundary
62
5
39
2
10
6.818842
20
110.194354
11
6.907408
21
108.643443
0
LINE
8
boundary
62
5
39
2
10
6.907408
20
108.643443
11
7.017572
21
107.087782
0
LINE
8
boundary
62
5
39
2
10
7.017572
20
107.087782
11
7.150245
21
105.527776
0
LINE
8
boundary
62
5
39
2
10
7.150245
20
105.527776
11
7.305953
21
103.963676
0
LINE
8
boundary
62
5
39
2
10
7.305953
20
103.963676
11
7.485417
21
102.395691
0
LINE
8
boundary
62
5
39
2
10
7.485417
20
102.395691
11
7.677665
21
100.913518
0
LINE
8
boundary
62
5
39
2
10
7.677665
20
100.913518
11
7.873414
21
99.284359
0
LINE
8
boundary
62
5
39
2
10
7.873414
20
99.284359
11
8.082465
21
97.741088
0
LINE
8
boundary
62
5
39
2
10
8.082465
20
97.741088
11
8.314924
21
96.196396
0
LINE
8
boundary
62
5
39
2
10
8.314924
20
96.196396
11
8.571090
21
94.650510
0
LINE
8
boundary
62
5
39
2
10
8.571090
20
94.650510
11
8.851701
21
93.103817
0
LINE
8
boundary
62
5
39
2
10
8.851701
20
93.103817
11
9.157129
21
91.556480
0
LINE
8
boundary
62
5
39
2
10
9.157129
20
91.556480
11
9.488135
21
90.008816
0
LINE
8
boundary
62
5
39
2
10
9.488135
20
90.008816
11
9.845302
21
88.461133
0
LINE
8
boundary
62
5
39
2
10
9.845302
20
88.461133
11
10.229022
21
86.913770
0
LINE
8
boundary
62
5
39
2
10
10.229022
20
86.913770
11
10.639829
21
85.366946
0
LINE
8
boundary
62
5
39
2
10
10.639829
20
85.366946
11
11.078481
21
83.821069
0
LINE
8
boundary
62
5
39
2
10
11.078481
20
83.821069
11
11.545498
21
82.276405
0
LINE
8
boundary
62
5
39
2
10
11.545498
20
82.276405
11
11.826211
21
80.909331
0
LINE
8
boundary
62
5
39
2
10
11.826211
20
80.909331
11
12.491064
21
77.723158
0
LINE
8
boundary
62
5
39
2
10
12.491064
20
77.723158
11
12.861024
21
75.937977
0
LINE
8
boundary
62
5
39
2
10
12.861024
20
75.937977
11
13.500597
21
72.903742
0
LINE
8
boundary
62
5
39
2
10
13.500597
20
72.903742
11
13.732305
21
71.829704
0
LINE
8
boundary
62
5
39
2
10
13.732305
20
71.829704
11
14.044621
21
70.407781
0
LINE
8
boundary
62
5
39
2
10
14.044621
20
70.407781
11
14.311949
21
69.219762
0
LINE
8
boundary
62
5
39
2
10
14.311949
20
69.219762
11
14.623101
21
67.861797
0
LINE
8
boundary
62
5
39
2
10
14.623101
20
67.861797
11
14.932053
21
66.557203
0
LINE
8
boundary
62
5
39
2
10
14.932053
20
66.557203
11
15.242101
21
65.271566
0
LINE
8
boundary
62
5
39
2
10
15.242101
20
65.271566
11
15.599634
21
63.848418
0
LINE
8
boundary
62
5
39
2
10
15.599634
20
63.848418
11
15.908051
21
62.642919
0
LINE
8
boundary
62
5
39
2
10
15.908051
20
62.642919
11
16.321751
21
61.100115
0
LINE
8
boundary
62
5
39
2
10
16.321751
20
61.100115
11
16.627157
21
59.981916
0
LINE
8
boundary
62
5
39
2
10
16.627157
20
59.981916
11
17.105599
21
58.319287
0
LINE
8
boundary
62
5
39
2
10
17.105599
20
58.319287
11
17.405870
21
57.294772
0
LINE
8
boundary
62
5
39
2
10
17.405870
20
57.294772
11
17.958228
21
55.513268
0
LINE
8
boundary
62
5
39
2
10
17.958228
20
55.513268
11
18.250487
21
54.587886
0
LINE
8
boundary
62
5
39
2
10
18.250487
20
54.587886
11
18.556781
21
53.655589
0
LINE
8
boundary
62
5
39
2
10
18.556781
20
53.655589
11
19.028002
21
52.268537
0
LINE
8
boundary
62
5
39
2
10
19.028002
20
52.268537
11
19.519528
21
50.879476
0
LINE
8
boundary
62
5
39
2
10
19.519528
20
50.879476
11
20.032094
21
49.489416
0
LINE
8
boundary
62
5
39
2
10
20.032094
20
49.489416
11
20.566642
21
48.099258
0
LINE
8
boundary
62
5
39
2
10
20.566642
20
48.099258
11
21.124044
21
46.710030
0
LINE
8
boundary
62
5
39
2
10
21.124044
20
46.710030
11
21.705109
21
45.322627
0
LINE
8
boundary
62
5
39
2
10
21.705109
20
45.322627
11
22.310842
21
43.938200
0
LINE
8
boundary
62
5
39
2
10
22.310842
20
43.938200
11
22.941810
21
42.557617
0
LINE
8
boundary
62
5
39
2
10
22.941810
20
42.557617
11
23.599066
21
41.181970
0
LINE
8
boundary
62
5
39
2
10
23.599066
20
41.181970
11
24.283423
21
39.812397
0
LINE
8
boundary
62
5
39
2
10
24.283423
20
39.812397
11
24.995800
21
38.449924
0
LINE
8
boundary
62
5
39
2
10
24.995800
20
38.449924
11
25.736834
21
37.095585
0
LINE
8
boundary
62
5
39
2
10
25.736834
20
37.095585
11
26.507595
21
35.750569
0
LINE
8
boundary
62
5
39
2
10
26.507595
20
35.750569
11
27.308875
21
34.415909
0
LINE
8
boundary
62
5
39
2
10
27.308875
20
34.415909
11
28.141356
21
33.092867
0
LINE
8
boundary
62
5
39
2
10
28.141356
20
33.092867
11
29.006073
21
31.782581
0
LINE
8
boundary
62
5
39
2
10
29.006073
20
31.782581
11
29.458861
21
31.128528
0
LINE
8
boundary
62
5
39
2
10
29.458861
20
31.128528
11
29.870856
21
30.496676
0
LINE
8
boundary
62
5
39
2
10
29.870856
20
30.496676
11
30.734255
21
29.235853
0
LINE
8
boundary
62
5
39
2
10
30.734255
20
29.235853
11
31.630724
21
27.990490
0
LINE
8
boundary
62
5
39
2
10
31.630724
20
27.990490
11
32.560758
21
26.761681
0
LINE
8
boundary
62
5
39
2
10
32.560758
20
26.761681
11
33.525059
21
25.550648
0
LINE
8
boundary
62
5
39
2
10
33.525059
20
25.550648
11
34.524683
21
24.358548
0
LINE
8
boundary
62
5
39
2
10
34.524683
20
24.358548
11
35.560557
21
23.186649
0
LINE
8
boundary
62
5
39
2
10
35.560557
20
23.186649
11
36.633171
21
22.036195
0
LINE
8
boundary
62
5
39
2
10
36.633171
20
22.036195
11
37.743394
21
20.908527
0
LINE
8
boundary
62
5
39
2
10
37.743394
20
20.908527
11
38.892263
21
19.804876
0
LINE
8
boundary
62
5
39
2
10
38.892263
20
19.804876
11
40.080314
21
18.726592
0
LINE
8
boundary
62
5
39
2
10
40.080314
20
18.726592
11
41.308432
21
17.674965
0
LINE
8
boundary
62
5
39
2
10
41.308432
20
17.674965
11
42.577475
21
16.651446
0
LINE
8
boundary
62
5
39
2
10
42.577475
20
16.651446
11
43.887975
21
15.657370
0
LINE
8
boundary
62
5
39
2
10
43.887975
20
15.657370
11
45.241058
21
14.694201
0
LINE
8
boundary
62
5
39
2
10
45.241058
20
14.694201
11
46.637293
21
13.763335
0
LINE
8
boundary
62
5
39
2
10
46.637293
20
13.763335
11
48.077486
21
12.866148
0
LINE
8
boundary
62
5
39
2
10
48.077486
20
12.866148
11
49.562466
21
12.004235
0
LINE
8
boundary
62
5
39
2
10
49.562466
20
12.004235
11
51.092805
21
11.178956
0
LINE
8
boundary
62
5
39
2
10
51.092805
20
11.178956
11
52.669371
21
10.391883
0
LINE
8
boundary
62
5
39
2
10
52.669371
20
10.391883
11
54.292862
21
9.644535
0
LINE
8
boundary
62
5
39
2
10
54.292862
20
9.644535
11
55.964046
21
8.938340
0
LINE
8
boundary
62
5
39
2
10
55.964046
20
8.938340
11
56.458920
21
8.745287
0
LINE
8
boundary
62
5
39
2
10
56.458920
20
8.745287
11
57.683558
21
8.274997
0
LINE
8
boundary
62
5
39
2
10
57.683558
20
8.274997
11
58.206899
21
8.090118
0
LINE
8
boundary
62
5
39
2
10
58.206899
20
8.090118
11
59.452221
21
7.655895
0
LINE
8
boundary
62
5
39
2
10
59.452221
20
7.655895
11
60.004143
21
7.480709
0
LINE
8
boundary
62
5
39
2
10
60.004143
20
7.480709
11
61.270666
21
7.082623
0
LINE
8
boundary
62
5
39
2
10
61.270666
20
7.082623
11
61.890681
21
6.836313
0
LINE
8
boundary
62
5
39
2
10
61.890681
20
6.836313
11
62.654967
21
6.698912
0
LINE
8
boundary
62
5
39
2
10
62.654967
20
6.698912
11
63.232849
21
6.667500
0
LINE
8
boundary
62
5
39
2
10
63.232849
20
6.667500
11
63.857266
21
6.683884
0
LINE
8
boundary
62
5
39
2
10
63.857266
20
6.683884
11
64.521194
21
6.747744
0
LINE
8
boundary
62
5
39
2
10
64.521194
20
6.747744
11
65.217456
21
6.858783
0
LINE
8
boundary
62
5
39
2
10
65.217456
20
6.858783
11
65.939075
21
7.016604
0
LINE
8
boundary
62
5
39
2
10
65.939075
20
7.016604
11
66.678839
21
7.220739
0
LINE
8
boundary
62
5
39
2
10
66.678839
20
7.220739
11
67.429689
21
7.470669
0
LINE
8
boundary
62
5
39
2
10
67.429689
20
7.470669
11
68.184614
21
7.765909
0
LINE
8
boundary
62
5
39
2
10
68.184614
20
7.765909
11
68.936525
21
8.105877
0
LINE
8
boundary
62
5
39
2
10
68.936525
20
8.105877
11
69.678347
21
8.489916
0
LINE
8
boundary
62
5
39
2
10
69.678347
20
8.489916
11
70.402820
21
8.917390
0
LINE
8
boundary
62
5
39
2
10
70.402820
20
8.917390
11
71.103235
21
9.387604
0
LINE
8
boundary
62
5
39
2
10
71.103235
20
9.387604
11
71.772296
21
9.899772
0
LINE
8
boundary
62
5
39
2
10
71.772296
20
9.899772
11
72.185989
21
10.258602
0
LINE
8
annotation
62
1
39
211
10
47.784134
20
336.467373
11
47.784134
21
341.267373
0
LINE
8
annotation
62
1
39
211
10
47.784134
20
341.267373
11
46.717033
21
340.199971
0
LINE
8
annotation
62
1
39
211
10
43.858170
20
419.864809
11
41.891600
21
419.864809
0
LINE
8
annotation
62
1
39
211
10
41.891600
20
419.864809
11
43.708775
21
422.790227
0
LINE
8
annotation
62
1
39
211
10
43.708775
20
422.790227
11
43.708775
21
422.790227
0
LINE
8
annotation
62
1
39
211
10
43.708775
20
422.790227
11
43.710947
21
422.792915
0
LINE
8
annotation
62
1
39
211
10
43.710947
20
422.792915
11
43.713030
21
422.795626
0
LINE
8
annotation
62
1
39
211
10
43.713030
20
422.795626
11
43.715038
21
422.798383
0
LINE
8
annotation
62
1
39
211
10
43.715038
20
422.798383
11
43.716984
21
422.801208
0
LINE
8
annotation
62
1
39
211
10
43.716984
20
422.801208
11
43.718882
21
422.804125
0
LINE
8
annotation
62
1
39
211
10
43.718882
20
422.804125
11
43.720746
21
422.807156
0
LINE
8
annotation
62
1
39
211
10
43.720746
20
422.807156
11
43.722589
21
422.810324
0
LINE
8
annotation
62
1
39
211
10
43.722589
20
422.810324
11
43.724426
21
422.813652
0
LINE
8
annotation
62
1
39
211
10
43.724426
20
422.813652
11
43.726269
21
422.817163
0
LINE
8
annotation
62
1
39
211
10
43.726269
20
422.817163
11
43.726269
21
422.817163
0
LINE
8
annotation
62
1
39
211
10
43.726269
20
422.817163
11
43.801300
21
422.978260
0
LINE
8
annotation
62
1
39
211
10
43.801300
20
422.978260
11
43.845132
21
423.145252
0
LINE
8
annotation
62
1
39
211
10
43.845132
20
423.145252
11
43.858838
21
423.314364
0
LINE
8
annotation
62
1
39
211
10
43.858838
20
423.314364
11
43.843494
21
423.481824
0
LINE
8
annotation
62
1
39
211
10
43.843494
20
423.481824
11
43.800174
21
423.643859
0
LINE
8
annotation
62
1
39
211
10
43.800174
20
423.643859
11
43.729951
21
423.796694
0
LINE
8
annotation
62
1
39
211
10
43.729951
20
423.796694
11
43.633900
21
423.936557
0
LINE
8
annotation
62
1
39
211
10
43.633900
20
423.936557
11
43.513095
21
424.059674
0
LINE
8
annotation
62
1
39
211
10
43.513095
20
424.059674
11
43.368610
21
424.162272
0
LINE
8
annotation
62
1
39
211
10
43.368610
20
424.162272
11
43.368610
21
424.162272
0
LINE
8
annotation
62
1
39
211
10
43.368610
20
424.162272
11
43.207065
21
424.236237
0
LINE
8
annotation
62
1
39
211
10
43.207065
20
424.236237
11
43.039817
21
424.279393
0
LINE
8
annotation
62
1
39
211
10
43.039817
20
424.279393
11
42.870606
21
424.292712
0
LINE
8
annotation
62
1
39
211
10
42.870606
20
424.292712
11
42.703171
21
424.277166
0
LINE
8
annotation
62
1
39
211
10
42.703171
20
424.277166
11
42.541251
21
424.233726
0
LINE
8
annotation
62
1
39
211
10
42.541251
20
424.233726
11
42.388585
21
424.163362
0
LINE
8
annotation
62
1
39
211
10
42.388585
20
424.163362
11
42.248912
21
424.067047
0
LINE
8
annotation
62
1
39
211
10
42.248912
20
424.067047
11
42.125971
21
423.945752
0
LINE
8
annotation
62
1
39
211
10
42.125971
20
423.945752
11
42.023501
21
423.800448
0
LINE
8
annotation
62
1
39
211
10
42.023501
20
423.800448
11
41.894377
21
423.552752
0
LINE
8
annotation
62
1
39
211
10
80.865707
20
373.000452
11
78.310138
21
369.304056
0
LINE
8
annotation
62
1
39
211
10
78.310138
20
369.304056
11
75.754089
21
373.000452
0
LINE
8
annotation
62
1
39
211
10
78.310138
20
369.601517
11
78.310138
21
365.337109
0
LINE
8
annotation
62
1
39
211
10
87.930163
20
369.168781
11
83.740241
21
369.168781
0
LINE
8
annotation
62
1
39
211
10
92.506809
20
365.337350
11
92.506809
21
373.000212
0
LINE
8
annotation
62
1
39
211
10
92.506809
20
373.000212
11
90.803256
21
371.296179
0
LINE
8
annotation
62
1
39
211
10
95.380142
20
367.036337
11
95.380142
21
367.036337
0
LINE
8
annotation
62
1
39
211
10
95.380142
20
367.036337
11
95.407615
21
366.730377
0
LINE
8
annotation
62
1
39
211
10
95.407615
20
366.730377
11
95.486802
21
366.442623
0
LINE
8
annotation
62
1
39
211
10
95.486802
20
366.442623
11
95.612853
21
366.177824
0
LINE
8
annotation
62
1
39
211
10
95.612853
20
366.177824
11
95.780920
21
365.940731
0
LINE
8
annotation
62
1
39
211
10
95.780920
20
365.940731
11
95.986153
21
365.736094
0
LINE
8
annotation
62
1
39
211
10
95.986153
20
365.736094
11
96.223704
21
365.568664
0
LINE
8
annotation
62
1
39
211
10
96.223704
20
365.568664
11
96.488724
21
365.443189
0
LINE
8
annotation
62
1
39
211
10
96.488724
20
365.443189
11
96.776363
21
365.364421
0
LINE
8
annotation
62
1
39
211
10
96.776363
20
365.364421
11
97.081772
21
365.337109
0
LINE
8
annotation
62
1
39
211
10
97.081772
20
365.337109
11
97.081772
21
365.337109
0
LINE
8
annotation
62
1
39
211
10
97.081772
20
365.337109
11
97.387181
21
365.364421
0
LINE
8
annotation
62
1
39
211
10
97.387181
20
365.364421
11
97.674820
21
365.443189
0
LINE
8
annotation
62
1
39
211
10
97.674820
20
365.443189
11
97.939840
21
365.568664
0
LINE
8
annotation
62
1
39
211
10
97.939840
20
365.568664
11
98.177391
21
365.736094
0
LINE
8
annotation
62
1
39
211
10
98.177391
20
365.736094
11
98.382624
21
365.940731
0
LINE
8
annotation
62
1
39
211
10
98.382624
20
365.940731
11
98.550691
21
366.177824
0
LINE
8
annotation
62
1
39
211
10
98.550691
20
366.177824
11
98.676742
21
366.442623
0
LINE
8
annotation
62
1
39
211
10
98.676742
20
366.442623
11
98.755929
21
366.730377
0
LINE
8
annotation
62
1
39
211
10
98.755929
20
366.730377
11
98.783402
21
367.036337
0
LINE
8
annotation
62
1
39
211
10
98.783402
20
367.036337
11
98.783402
21
367.884028
0
LINE
8
annotation
62
1
39
211
10
98.783402
20
367.884028
11
98.783402
21
367.884028
0
LINE
8
annotation
62
1
39
211
10
98.783402
20
367.884028
11
98.755945
21
368.190137
0
LINE
8
annotation
62
1
39
211
10
98.755945
20
368.190137
11
98.676798
21
368.478288
0
LINE
8
annotation
62
1
39
211
10
98.676798
20
368.478288
11
98.550798
21
368.743663
0
LINE
8
annotation
62
1
39
211
10
98.550798
20
368.743663
11
98.382782
21
368.981438
0
LINE
8
annotation
62
1
39
211
10
98.382782
20
368.981438
11
98.177589
21
369.186792
0
LINE
8
annotation
62
1
39
211
10
98.177589
20
369.186792
11
97.940053
21
369.354905
0
LINE
8
annotation
62
1
39
211
10
97.940053
20
369.354905
11
97.675014
21
369.480955
0
LINE
8
annotation
62
1
39
211
10
97.675014
20
369.480955
11
97.387308
21
369.560121
0
LINE
8
annotation
62
1
39
211
10
97.387308
20
369.560121
11
97.081772
21
369.587581
0
LINE
8
annotation
62
1
39
211
10
97.081772
20
369.587581
11
97.081772
21
369.587581
0
LINE
8
annotation
62
1
39
211
10
97.081772
20
369.587581
11
96.776236
21
369.560105
0
LINE
8
annotation
62
1
39
211
10
96.776236
20
369.560105
11
96.488530
21
369.480900
0
LINE
8
annotation
62
1
39
211
10
96.488530
20
369.480900
11
96.223491
21
369.354799
0
LINE
8
annotation
62
1
39
211
10
96.223491
20
369.354799
11
95.985955
21
369.186634
0
LINE
8
annotation
62
1
39
211
10
95.985955
20
369.186634
11
95.780762
21
368.981240
0
LINE
8
annotation
62
1
39
211
10
95.780762
20
368.981240
11
95.612746
21
368.743449
0
LINE
8
annotation
62
1
39
211
10
95.612746
20
368.743449
11
95.486746
21
368.478095
0
LINE
8
annotation
62
1
39
211
10
95.486746
20
368.478095
11
95.407599
21
368.190010
0
LINE
8
annotation
62
1
39
211
10
95.407599
20
368.190010
11
95.380142
21
367.884028
0
LINE
8
annotation
62
1
39
211
10
95.380142
20
367.884028
11
95.380142
21
367.036337
0
LINE
8
annotation
62
1
39
211
10
98.783402
20
371.291614
11
98.783402
21
371.291614
0
LINE
8
annotation
62
1
39
211
10
98.783402
20
371.291614
11
98.755945
21
371.596308
0
LINE
8
annotation
62
1
39
211
10
98.755945
20
371.596308
11
98.676798
21
371.883390
0
LINE
8
annotation
62
1
39
211
10
98.676798
20
371.883390
11
98.550798
21
372.147991
0
LINE
8
annotation
62
1
39
211
10
98.550798
20
372.147991
11
98.382782
21
372.385242
0
LINE
8
annotation
62
1
39
211
10
98.382782
20
372.385242
11
98.177589
21
372.590274
0
LINE
8
annotation
62
1
39
211
10
98.177589
20
372.590274
11
97.940053
21
372.758219
0
LINE
8
annotation
62
1
39
211
10
97.940053
20
372.758219
11
97.675014
21
372.884208
0
LINE
8
annotation
62
1
39
211
10
97.675014
20
372.884208
11
97.387308
21
372.963371
0
LINE
8
annotation
62
1
39
211
10
97.387308
20
372.963371
11
97.081772
21
372.990841
0
LINE
8
annotation
62
1
39
211
10
97.081772
20
372.990841
11
97.081772
21
372.990841
0
LINE
8
annotation
62
1
39
211
10
97.081772
20
372.990841
11
96.776236
21
372.963371
0
LINE
8
annotation
62
1
39
211
10
96.776236
20
372.963371
11
96.488530
21
372.884208
0
LINE
8
annotation
62
1
39
211
10
96.488530
20
372.884208
11
96.223491
21
372.758219
0
LINE
8
annotation
62
1
39
211
10
96.223491
20
372.758219
11
95.985955
21
372.590274
0
LINE
8
annotation
62
1
39
211
10
95.985955
20
372.590274
11
95.780762
21
372.385242
0
LINE
8
annotation
62
1
39
211
10
95.780762
20
372.385242
11
95.612746
21
372.147991
0
LINE
8
annotation
62
1
39
211
10
95.612746
20
372.147991
11
95.486746
21
371.883390
0
LINE
8
annotation
62
1
39
211
10
95.486746
20
371.883390
11
95.407599
21
371.596308
0
LINE
8
annotation
62
1
39
211
10
95.407599
20
371.596308
11
95.380142
21
371.291614
0
LINE
8
annotation
62
1
39
211
10
95.380142
20
371.291614
11
95.380142
21
371.291614
0
LINE
8
annotation
62
1
39
211
10
95.380142
20
371.291614
11
95.407615
21
370.985489
0
LINE
8
annotation
62
1
39
211
10
95.407615
20
370.985489
11
95.486802
21
370.697293
0
LINE
8
annotation
62
1
39
211
10
95.486802
20
370.697293
11
95.612853
21
370.431855
0
LINE
8
annotation
62
1
39
211
10
95.612853
20
370.431855
11
95.780920
21
370.194004
0
LINE
8
annotation
62
1
39
211
10
95.780920
20
370.194004
11
95.986153
21
369.988570
0
LINE
8
annotation
62
1
39
211
10
95.986153
20
369.988570
11
96.223704
21
369.820381
0
LINE
8
annotation
62
1
39
211
10
96.223704
20
369.820381
11
96.488724
21
369.694267
0
LINE
8
annotation
62
1
39
211
10
96.488724
20
369.694267
11
96.776363
21
369.615057
0
LINE
8
annotation
62
1
39
211
10
96.776363
20
369.615057
11
97.081772
21
369.587581
0
LINE
8
annotation
62
1
39
211
10
97.081772
20
369.587581
11
97.081772
21
369.587581
0
LINE
8
annotation
62
1
39
211
10
97.081772
20
369.587581
11
97.387181
21
369.615057
0
LINE
8
annotation
62
1
39
211
10
97.387181
20
369.615057
11
97.674820
21
369.694267
0
LINE
8
annotation
62
1
39
211
10
97.674820
20
369.694267
11
97.939840
21
369.820381
0
LINE
8
annotation
62
1
39
211
10
97.939840
20
369.820381
11
98.177391
21
369.988570
0
LINE
8
annotation
62
1
39
211
10
98.177391
20
369.988570
11
98.382624
21
370.194004
0
LINE
8
annotation
62
1
39
211
10
98.382624
20
370.194004
11
98.550691
21
370.431855
0
LINE
8
annotation
62
1
39
211
10
98.550691
20
370.431855
11
98.676742
21
370.697293
0
LINE
8
annotation
62
1
39
211
10
98.676742
20
370.697293
11
98.755929
21
370.985489
0
LINE
8
annotation
62
1
39
211
10
98.755929
20
370.985489
11
98.783402
21
371.291614
0
LINE
8
frame
62
5
39
2
10
0.000000
20
0.000000
11
215.900000
21
0.000000
0
LINE
8
frame
62
5
39
2
10
215.900000
20
0.000000
11
215.900000
21
279.400000
0
LINE
8
frame
62
5
39
2
10
215.900000
20
279.400000
11
0.000000
21
279.400000
0
LINE
8
frame
62
5
39
2
10
0.000000
20
279.400000
11
0.000000
21
0.000000
0
ENDSEC
0
EOF
