0
SECTION
2
HEADER
9
$ACADVER
1
AC1009
0
ENDSEC
0
SECTION
2
TABLES
0
TABLE
2
VPORT
70
1
0
VPORT
2
ACTIVE
70
0
10
0.0
20
0.0
11
0.0
21
0.0
12
0.0
22
0.0
13
0.0
23
0.0
14
0.0
24
0.0
15
0.0
25
0.0
16
0.0
26
0.0
36
0.0
17
0.0
27
0.0
37
0.0
40
0.0
41
0.0
42
0.0
43
0.0
44
0.0
50
0.0
51
0.0
71
0
72
1000
73
1
74
3
75
0
76
0
77
0
78
0
0
ENDTAB
0
ENDSEC
0
SECTION
2
ENTITIES
0
LINE
8
boundary
62
5
39
2
10
26.558463
20
29.938063
11
27.235516
21
28.819243
0
LINE
8
boundary
62
5
39
2
10
27.235516
20
28.819243
11
27.935111
21
27.714261
0
LINE
8
boundary
62
5
39
2
10
27.935111
20
27.714261
11
28.657599
21
26.624244
0
LINE
8
boundary
62
5
39
2
10
28.657599
20
26.624244
11
29.403622
21
25.550387
0
LINE
8
boundary
62
5
39
2
10
29.403622
20
25.550387
11
30.173837
21
24.493818
0
LINE
8
boundary
62
5
39
2
10
30.173837
20
24.493818
11
30.968780
21
23.455792
0
LINE
8
boundary
62
5
39
2
10
30.968780
20
23.455792
11
31.788911
21
22.437425
0
LINE
8
boundary
62
5
39
2
10
31.788911
20
22.437425
11
32.634831
21
21.439913
0
LINE
8
boundary
62
5
39
2
10
32.634831
20
21.439913
11
33.506978
21
20.464399
0
LINE
8
boundary
62
5
39
2
10
33.506978
20
20.464399
11
34.406147
21
19.512196
0
LINE
8
boundary
62
5
39
2
10
34.406147
20
19.512196
11
35.332579
21
18.584389
0
LINE
8
boundary
62
5
39
2
10
35.332579
20
18.584389
11
36.286813
21
17.682175
0
LINE
8
boundary
62
5
39
2
10
36.286813
20
17.682175
11
37.269597
21
16.806846
0
LINE
8
boundary
62
5
39
2
10
37.269597
20
16.806846
11
38.281365
21
15.959454
0
LINE
8
boundary
62
5
39
2
10
38.281365
20
15.959454
11
39.322548
21
15.141255
0
LINE
8
boundary
62
5
39
2
10
39.322548
20
15.141255
11
40.393685
21
14.353475
0
LINE
8
boundary
62
5
39
2
10
40.393685
20
14.353475
11
41.495438
21
13.597220
0
LINE
8
boundary
62
5
39
2
10
41.495438
20
13.597220
11
42.628116
21
12.873605
0
LINE
8
boundary
62
5
39
2
10
42.628116
20
12.873605
11
43.792438
21
12.183833
0
LINE
8
boundary
62
5
39
2
10
43.792438
20
12.183833
11
44.988731
21
11.528984
0
LINE
8
boundary
62
5
39
2
10
44.988731
20
11.528984
11
46.217607
21
10.910224
0
LINE
8
boundary
62
5
39
2
10
46.217607
20
10.910224
11
47.479594
21
10.328642
0
LINE
8
boundary
62
5
39
2
10
47.479594
20
10.328642
11
48.775269
21
9.785271
0
LINE
8
boundary
62
5
39
2
10
48.775269
20
9.785271
11
50.105007
21
9.281109
0
LINE
8
boundary
62
5
39
2
10
50.105007
20
9.281109
11
51.469482
21
8.817204
0
LINE
8
boundary
62
5
39
2
10
51.469482
20
8.817204
11
52.869057
21
8.394447
0
LINE
8
boundary
62
5
39
2
10
52.869057
20
8.394447
11
54.304370
21
8.013857
0
LINE
8
boundary
62
5
39
2
10
54.304370
20
8.013857
11
55.775842
21
7.676267
0
LINE
8
boundary
62
5
39
2
10
55.775842
20
7.676267
11
57.284168
21
7.382509
0
LINE
8
boundary
62
5
39
2
10
57.284168
20
7.382509
11
58.829643
21
7.133396
0
LINE
8
boundary
62
5
39
2
10
58.829643
20
7.133396
11
60.413101
21
6.929685
0
LINE
8
boundary
62
5
39
2
10
60.413101
20
6.929685
11
61.927287
21
6.782373
0
LINE
8
boundary
62
5
39
2
10
61.927287
20
6.782373
11
62.583683
21
6.673843
0
LINE
8
boundary
62
5
39
2
10
62.583683
20
6.673843
11
63.258629
21
6.693197
0
LINE
8
boundary
62
5
39
2
10
63.258629
20
6.693197
11
63.768438
21
6.768510
0
LINE
8
boundary
62
5
39
2
10
63.768438
20
6.768510
11
64.318785
21
6.891710
0
LINE
8
boundary
62
5
39
2
10
64.318785
20
6.891710
11
64.903302
21
7.061062
0
LINE
8
boundary
62
5
39
2
10
64.903302
20
7.061062
11
65.515978
21
7.274877
0
LINE
8
boundary
62
5
39
2
10
65.515978
20
7.274877
11
66.150489
21
7.531369
0
LINE
8
boundary
62
5
39
2
10
66.150489
20
7.531369
11
66.800798
21
7.828711
0
LINE
8
boundary
62
5
39
2
10
66.800798
20
7.828711
11
67.460678
21
8.165178
0
LINE
8
boundary
62
5
39
2
10
67.460678
20
8.165178
11
68.124007
21
8.539003
0
LINE
8
boundary
62
5
39
2
10
68.124007
20
8.539003
11
68.784932
21
8.948500
0
LINE
8
boundary
62
5
39
2
10
68.784932
20
8.948500
11
69.437085
21
9.391853
0
LINE
8
boundary
62
5
39
2
10
69.437085
20
9.391853
11
70.074552
21
9.867404
0
LINE
8
boundary
62
5
39
2
10
70.074552
20
9.867404
11
70.691304
21
10.373481
0
LINE
8
boundary
62
5
39
2
10
70.691304
20
10.373481
11
71.281153
21
10.908406
0
LINE
8
boundary
62
5
39
2
10
71.281153
20
10.908406
11
71.844223
21
11.476755
0
LINE
8
boundary
62
5
39
2
10
71.844223
20
11.476755
11
72.362414
21
12.065571
0
LINE
8
boundary
62
5
39
2
10
72.362414
20
12.065571
11
72.835513
21
12.678498
0
LINE
8
boundary
62
5
39
2
10
72.835513
20
12.678498
11
73.257376
21
13.314242
0
LINE
8
boundary
62
5
39
2
10
73.257376
20
13.314242
11
73.622079
21
13.971339
0
LINE
8
boundary
62
5
39
2
10
73.622079
20
13.971339
11
73.923237
21
14.648279
0
LINE
8
boundary
62
5
39
2
10
73.923237
20
14.648279
11
74.154816
21
15.343777
0
LINE
8
boundary
62
5
39
2
10
74.154816
20
15.343777
11
74.310541
21
16.056487
0
LINE
8
boundary
62
5
39
2
10
74.310541
20
16.056487
11
74.384262
21
16.785204
0
LINE
8
boundary
62
5
39
2
10
74.384262
20
16.785204
11
74.369602
21
17.528656
0
LINE
8
boundary
62
5
39
2
10
74.369602
20
17.528656
11
74.260057
21
18.285648
0
LINE
8
boundary
62
5
39
2
10
74.260057
20
18.285648
11
74.049370
21
19.055033
0
LINE
8
boundary
62
5
39
2
10
74.049370
20
19.055033
11
73.730883
21
19.835729
0
LINE
8
boundary
62
5
39
2
10
73.730883
20
19.835729
11
73.297867
21
20.626618
0
LINE
8
boundary
62
5
39
2
10
73.297867
20
20.626618
11
72.743744
21
21.426763
0
LINE
8
boundary
62
5
39
2
10
72.743744
20
21.426763
11
72.418978
21
21.829965
0
LINE
8
boundary
62
5
39
2
10
72.418978
20
21.829965
11
72.061387
21
22.235124
0
LINE
8
boundary
62
5
39
2
10
72.061387
20
22.235124
11
71.270049
21
22.310312
0
LINE
8
boundary
62
5
39
2
10
71.270049
20
22.310312
11
70.454545
21
22.397030
0
LINE
8
boundary
62
5
39
2
10
70.454545
20
22.397030
11
69.633435
21
22.511238
0
LINE
8
boundary
62
5
39
2
10
69.633435
20
22.511238
11
68.807279
21
22.652978
0
LINE
8
boundary
62
5
39
2
10
68.807279
20
22.652978
11
67.976510
21
22.822316
0
LINE
8
boundary
62
5
39
2
10
67.976510
20
22.822316
11
67.141391
21
23.019200
0
LINE
8
boundary
62
5
39
2
10
67.141391
20
23.019200
11
66.302438
21
23.243673
0
LINE
8
boundary
62
5
39
2
10
66.302438
20
23.243673
11
65.460062
21
23.495740
0
LINE
8
boundary
62
5
39
2
10
65.460062
20
23.495740
11
64.614437
21
23.775390
0
LINE
8
boundary
62
5
39
2
10
64.614437
20
23.775390
11
63.766309
21
24.082674
0
LINE
8
boundary
62
5
39
2
10
63.766309
20
24.082674
11
62.915814
21
24.417495
0
LINE
8
boundary
62
5
39
2
10
62.915814
20
24.417495
11
62.063540
21
24.779914
0
LINE
8
boundary
62
5
39
2
10
62.063540
20
24.779914
11
61.209798
21
25.169881
0
LINE
8
boundary
62
5
39
2
10
61.209798
20
25.169881
11
60.355049
21
25.587408
0
LINE
8
boundary
62
5
39
2
10
60.355049
20
25.587408
11
59.499686
21
26.032448
0
LINE
8
boundary
62
5
39
2
10
59.499686
20
26.032448
11
58.644216
21
26.504930
0
LINE
8
boundary
62
5
39
2
10
58.644216
20
26.504930
11
57.789047
21
27.004876
0
LINE
8
boundary
62
5
39
2
10
57.789047
20
27.004876
11
56.934699
21
27.532194
0
LINE
8
boundary
62
5
39
2
10
56.934699
20
27.532194
11
56.081415
21
28.086840
0
LINE
8
boundary
62
5
39
2
10
56.081415
20
28.086840
11
55.229840
21
28.668747
0
LINE
8
boundary
62
5
39
2
10
55.229840
20
28.668747
11
54.380371
21
29.277846
0
LINE
8
boundary
62
5
39
2
10
54.380371
20
29.277846
11
53.533532
21
29.914078
0
LINE
8
boundary
62
5
39
2
10
53.533532
20
29.914078
11
52.689578
21
30.577223
0
LINE
8
boundary
62
5
39
2
10
52.689578
20
30.577223
11
51.849250
21
31.267323
0
LINE
8
boundary
62
5
39
2
10
51.849250
20
31.267323
11
51.012891
21
31.984264
0
LINE
8
boundary
62
5
39
2
10
51.012891
20
31.984264
11
50.181049
21
32.727803
0
LINE
8
boundary
62
5
39
2
10
50.181049
20
32.727803
11
49.354202
21
33.497913
0
LINE
8
boundary
62
5
39
2
10
49.354202
20
33.497913
11
48.532779
21
34.294427
0
LINE
8
boundary
62
5
39
2
10
48.532779
20
34.294427
11
47.717459
21
35.117187
0
LINE
8
boundary
62
5
39
2
10
47.717459
20
35.117187
11
46.908522
21
35.966005
0
LINE
8
boundary
62
5
39
2
10
46.908522
20
35.966005
11
46.106673
21
36.840767
0
LINE
8
boundary
62
5
39
2
10
46.106673
20
36.840767
11
45.312326
21
37.741235
0
LINE
8
boundary
62
5
39
2
10
45.312326
20
37.741235
11
44.927267
21
38.194708
0
LINE
8
boundary
62
5
39
2
10
44.927267
20
38.194708
11
44.523521
21
38.665456
0
LINE
8
boundary
62
5
39
2
10
44.523521
20
38.665456
11
43.740830
21
39.613218
0
LINE
8
boundary
62
5
39
2
10
43.740830
20
39.613218
11
42.967153
21
40.585839
0
LINE
8
boundary
62
5
39
2
10
42.967153
20
40.585839
11
42.203113
21
41.583160
0
LINE
8
boundary
62
5
39
2
10
42.203113
20
41.583160
11
41.449168
21
42.604886
0
LINE
8
boundary
62
5
39
2
10
41.449168
20
42.604886
11
40.706090
21
43.650838
0
LINE
8
boundary
62
5
39
2
10
40.706090
20
43.650838
11
39.974181
21
44.720680
0
LINE
8
boundary
62
5
39
2
10
39.974181
20
44.720680
11
39.254086
21
45.814140
0
LINE
8
boundary
62
5
39
2
10
39.254086
20
45.814140
11
38.546365
21
46.930986
0
LINE
8
boundary
62
5
39
2
10
38.546365
20
46.930986
11
37.851679
21
48.070945
0
LINE
8
boundary
62
5
39
2
10
37.851679
20
48.070945
11
37.170639
21
49.233708
0
LINE
8
boundary
62
5
39
2
10
37.170639
20
49.233708
11
36.503567
21
50.418900
0
LINE
8
boundary
62
5
39
2
10
36.503567
20
50.418900
11
35.851324
21
51.626283
0
LINE
8
boundary
62
5
39
2
10
35.851324
20
51.626283
11
35.214476
21
52.855499
0
LINE
8
boundary
62
5
39
2
10
35.214476
20
52.855499
11
34.593408
21
54.106213
0
LINE
8
boundary
62
5
39
2
10
34.593408
20
54.106213
11
33.988879
21
55.378112
0
LINE
8
boundary
62
5
39
2
10
33.988879
20
55.378112
11
33.401421
21
56.670857
0
LINE
8
boundary
62
5
39
2
10
33.401421
20
56.670857
11
32.831691
21
57.984063
0
LINE
8
boundary
62
5
39
2
10
32.831691
20
57.984063
11
32.280314
21
59.317364
0
LINE
8
boundary
62
5
39
2
10
32.280314
20
59.317364
11
31.747808
21
60.670411
0
LINE
8
boundary
62
5
39
2
10
31.747808
20
60.670411
11
31.234792
21
62.042878
0
LINE
8
boundary
62
5
39
2
10
31.234792
20
62.042878
11
30.741757
21
63.434333
0
LINE
8
boundary
62
5
39
2
10
30.741757
20
63.434333
11
30.269515
21
64.844410
0
LINE
8
boundary
62
5
39
2
10
30.269515
20
64.844410
11
29.818611
21
66.272729
0
LINE
8
boundary
62
5
39
2
10
29.818611
20
66.272729
11
29.389451
21
67.718867
0
LINE
8
boundary
62
5
39
2
10
29.389451
20
67.718867
11
28.982857
21
69.182537
0
LINE
8
boundary
62
5
39
2
10
28.982857
20
69.182537
11
28.599381
21
70.663198
0
LINE
8
boundary
62
5
39
2
10
28.599381
20
70.663198
11
28.239598
21
72.160552
0
LINE
8
boundary
62
5
39
2
10
28.239598
20
72.160552
11
27.903956
21
73.674160
0
LINE
8
boundary
62
5
39
2
10
27.903956
20
73.674160
11
27.593125
21
75.203585
0
LINE
8
boundary
62
5
39
2
10
27.593125
20
75.203585
11
27.307756
21
76.748502
0
LINE
8
boundary
62
5
39
2
10
27.307756
20
76.748502
11
27.048534
21
78.308414
0
LINE
8
boundary
62
5
39
2
10
27.048534
20
78.308414
11
26.734918
21
79.525398
0
LINE
8
boundary
62
5
39
2
10
26.734918
20
79.525398
11
26.437389
21
80.742303
0
LINE
8
boundary
62
5
39
2
10
26.437389
20
80.742303
11
26.155496
21
81.959029
0
LINE
8
boundary
62
5
39
2
10
26.155496
20
81.959029
11
25.889405
21
83.175406
0
LINE
8
boundary
62
5
39
2
10
25.889405
20
83.175406
11
25.638783
21
84.391400
0
LINE
8
boundary
62
5
39
2
10
25.638783
20
84.391400
11
25.403477
21
85.606930
0
LINE
8
boundary
62
5
39
2
10
25.403477
20
85.606930
11
24.978468
21
88.036030
0
LINE
8
boundary
62
5
39
2
10
24.978468
20
88.036030
11
24.613078
21
90.462062
0
LINE
8
boundary
62
5
39
2
10
24.613078
20
90.462062
11
24.306280
21
92.884271
0
LINE
8
boundary
62
5
39
2
10
24.306280
20
92.884271
11
24.056636
21
95.302012
0
LINE
8
boundary
62
5
39
2
10
24.056636
20
95.302012
11
23.862870
21
97.714723
0
LINE
8
boundary
62
5
39
2
10
23.862870
20
97.714723
11
23.723813
21
100.121862
0
LINE
8
boundary
62
5
39
2
10
23.723813
20
100.121862
11
23.638116
21
102.522789
0
LINE
8
boundary
62
5
39
2
10
23.638116
20
102.522789
11
23.604220
21
104.917123
0
LINE
8
boundary
62
5
39
2
10
23.604220
20
104.917123
11
23.620849
21
107.304286
0
LINE
8
boundary
62
5
39
2
10
23.620849
20
107.304286
11
23.686490
21
109.683961
0
LINE
8
boundary
62
5
39
2
10
23.686490
20
109.683961
11
23.799797
21
112.055680
0
LINE
8
boundary
62
5
39
2
10
23.799797
20
112.055680
11
23.959289
21
114.419016
0
LINE
8
boundary
62
5
39
2
10
23.959289
20
114.419016
11
24.163591
21
116.773776
0
LINE
8
boundary
62
5
39
2
10
24.163591
20
116.773776
11
24.410952
21
119.119517
0
LINE
8
boundary
62
5
39
2
10
24.410952
20
119.119517
11
24.700057
21
121.455943
0
LINE
8
boundary
62
5
39
2
10
24.700057
20
121.455943
11
25.029284
21
123.782826
0
LINE
8
boundary
62
5
39
2
10
25.029284
20
123.782826
11
25.397180
21
126.099943
0
LINE
8
boundary
62
5
39
2
10
25.397180
20
126.099943
11
25.802212
21
128.406979
0
LINE
8
boundary
62
5
39
2
10
25.802212
20
128.406979
11
26.242768
21
130.703746
0
LINE
8
boundary
62
5
39
2
10
26.242768
20
130.703746
11
26.717223
21
132.990105
0
LINE
8
boundary
62
5
39
2
10
26.717223
20
132.990105
11
27.224202
21
135.265780
0
LINE
8
boundary
62
5
39
2
10
27.224202
20
135.265780
11
27.762108
21
137.530766
0
LINE
8
boundary
62
5
39
2
10
27.762108
20
137.530766
11
28.329264
21
139.784765
0
LINE
8
boundary
62
5
39
2
10
28.329264
20
139.784765
11
28.924212
21
142.027732
0
LINE
8
boundary
62
5
39
2
10
28.924212
20
142.027732
11
29.545318
21
144.259484
0
LINE
8
boundary
62
5
39
2
10
29.545318
20
144.259484
11
30.191015
21
146.479998
0
LINE
8
boundary
62
5
39
2
10
30.191015
20
146.479998
11
30.859873
21
148.689190
0
LINE
8
boundary
62
5
39
2
10
30.859873
20
148.689190
11
31.550186
21
150.886843
0
LINE
8
boundary
62
5
39
2
10
31.550186
20
150.886843
11
32.260487
21
153.073027
0
LINE
8
boundary
62
5
39
2
10
32.260487
20
153.073027
11
32.989162
21
155.247677
0
LINE
8
boundary
62
5
39
2
10
32.989162
20
155.247677
11
33.734826
21
157.410724
0
LINE
8
boundary
62
5
39
2
10
33.734826
20
157.410724
11
34.495700
21
159.562186
0
LINE
8
boundary
62
5
39
2
10
34.495700
20
159.562186
11
34.904352
21
160.690638
0
LINE
8
boundary
62
5
39
2
10
34.904352
20
160.690638
11
35.259039
21
161.694467
0
LINE
8
boundary
62
5
39
2
10
35.259039
20
161.694467
11
36.021554
21
163.806876
0
LINE
8
boundary
62
5
39
2
10
36.021554
20
163.806876
11
36.794643
21
165.908088
0
LINE
8
boundary
62
5
39
2
10
36.794643
20
165.908088
11
38.344921
21
170.016247
0
LINE
8
boundary
62
5
39
2
10
38.344921
20
170.016247
11
39.934085
21
174.116493
0
LINE
8
boundary
62
5
39
2
10
39.934085
20
174.116493
11
41.539425
21
178.174668
0
LINE
8
boundary
62
5
39
2
10
41.539425
20
178.174668
11
43.150463
21
182.191513
0
LINE
8
boundary
62
5
39
2
10
43.150463
20
182.191513
11
44.757412
21
186.167365
0
LINE
8
boundary
62
5
39
2
10
44.757412
20
186.167365
11
47.773745
21
193.638907
0
LINE
8
boundary
62
5
39
2
10
47.773745
20
193.638907
11
48.058849
21
194.346043
0
LINE
8
boundary
62
5
39
2
10
48.058849
20
194.346043
11
50.787582
21
201.269782
0
LINE
8
boundary
62
5
39
2
10
50.787582
20
201.269782
11
51.101442
21
202.065783
0
LINE
8
boundary
62
5
39
2
10
51.101442
20
202.065783
11
52.391131
21
205.456410
0
LINE
8
boundary
62
5
39
2
10
52.391131
20
205.456410
11
53.773613
21
209.201388
0
LINE
8
boundary
62
5
39
2
10
53.773613
20
209.201388
11
55.088018
21
212.910713
0
LINE
8
boundary
62
5
39
2
10
55.088018
20
212.910713
11
55.793670
21
214.971403
0
LINE
8
boundary
62
5
39
2
10
55.793670
20
214.971403
11
56.401245
21
216.805992
0
LINE
8
boundary
62
5
39
2
10
56.401245
20
216.805992
11
57.302223
21
219.644793
0
LINE
8
boundary
62
5
39
2
10
57.302223
20
219.644793
11
58.219274
21
222.697701
0
LINE
8
boundary
62
5
39
2
10
58.219274
20
222.697701
11
58.721376
21
224.446597
0
LINE
8
boundary
62
5
39
2
10
58.721376
20
224.446597
11
59.155887
21
226.028047
0
LINE
8
boundary
62
5
39
2
10
59.155887
20
226.028047
11
59.578784
21
227.628501
0
LINE
8
boundary
62
5
39
2
10
59.578784
20
227.628501
11
59.989140
21
229.247498
0
LINE
8
boundary
62
5
39
2
10
59.989140
20
229.247498
11
60.385633
21
230.884178
0
LINE
8
boundary
62
5
39
2
10
60.385633
20
230.884178
11
60.767349
21
232.537823
0
LINE
8
boundary
62
5
39
2
10
60.767349
20
232.537823
11
61.133079
21
234.208000
0
LINE
8
boundary
62
5
39
2
10
61.133079
20
234.208000
11
61.481994
21
235.893888
0
LINE
8
boundary
62
5
39
2
10
61.481994
20
235.893888
11
61.812891
21
237.594991
0
LINE
8
boundary
62
5
39
2
10
61.812891
20
237.594991
11
62.124773
21
239.310625
0
LINE
8
boundary
62
5
39
2
10
62.124773
20
239.310625
11
62.416707
21
241.040282
0
LINE
8
boundary
62
5
39
2
10
62.416707
20
241.040282
11
62.687736
21
242.783088
0
LINE
8
boundary
62
5
39
2
10
62.687736
20
242.783088
11
62.937038
21
244.538754
0
LINE
8
boundary
62
5
39
2
10
62.937038
20
244.538754
11
63.163581
21
246.306559
0
LINE
8
boundary
62
5
39
2
10
63.163581
20
246.306559
11
63.366504
21
248.086053
0
LINE
8
boundary
62
5
39
2
10
63.366504
20
248.086053
11
63.544881
21
249.876585
0
LINE
8
boundary
62
5
39
2
10
63.544881
20
249.876585
11
63.697985
21
251.677641
0
LINE
8
boundary
62
5
39
2
10
63.697985
20
251.677641
11
63.824930
21
253.488650
0
LINE
8
boundary
62
5
39
2
10
63.824930
20
253.488650
11
63.924899
21
255.309198
0
LINE
8
boundary
62
5
39
2
10
63.924899
20
255.309198
11
63.997079
21
257.138707
0
LINE
8
boundary
62
5
39
2
10
63.997079
20
257.138707
11
64.040672
21
258.976657
0
LINE
8
boundary
62
5
39
2
10
64.040672
20
258.976657
11
64.054992
21
260.822493
0
LINE
8
boundary
62
5
39
2
10
64.054992
20
260.822493
11
64.039335
21
262.675710
0
LINE
8
boundary
62
5
39
2
10
64.039335
20
262.675710
11
63.992885
21
264.536051
0
LINE
8
boundary
62
5
39
2
10
63.992885
20
264.536051
11
63.915054
21
266.402860
0
LINE
8
boundary
62
5
39
2
10
63.915054
20
266.402860
11
63.804977
21
268.275546
0
LINE
8
boundary
62
5
39
2
10
63.804977
20
268.275546
11
63.662113
21
270.153958
0
LINE
8
boundary
62
5
39
2
10
63.662113
20
270.153958
11
63.485709
21
272.037328
0
LINE
8
boundary
62
5
39
2
10
63.485709
20
272.037328
11
63.275174
21
273.925479
0
LINE
8
boundary
62
5
39
2
10
63.275174
20
273.925479
11
63.029903
21
275.817537
0
LINE
8
boundary
62
5
39
2
10
63.029903
20
275.817537
11
62.749195
21
277.713533
0
LINE
8
boundary
62
5
39
2
10
62.749195
20
277.713533
11
62.432432
21
279.612791
0
LINE
8
boundary
62
5
39
2
10
62.432432
20
279.612791
11
62.079096
21
281.514728
0
LINE
8
boundary
62
5
39
2
10
62.079096
20
281.514728
11
61.688599
21
283.419161
0
LINE
8
boundary
62
5
39
2
10
61.688599
20
283.419161
11
61.260149
21
285.325544
0
LINE
8
boundary
62
5
39
2
10
61.260149
20
285.325544
11
60.793299
21
287.233492
0
LINE
8
boundary
62
5
39
2
10
60.793299
20
287.233492
11
60.287562
21
289.142421
0
LINE
8
boundary
62
5
39
2
10
60.287562
20
289.142421
11
59.742248
21
291.052043
0
LINE
8
boundary
62
5
39
2
10
59.742248
20
291.052043
11
59.156798
21
292.962026
0
LINE
8
boundary
62
5
39
2
10
59.156798
20
292.962026
11
58.530669
21
294.871644
0
LINE
8
boundary
62
5
39
2
10
58.530669
20
294.871644
11
58.178815
21
295.896342
0
LINE
8
boundary
62
5
39
2
10
58.178815
20
295.896342
11
57.839653
21
296.849362
0
LINE
8
boundary
62
5
39
2
10
57.839653
20
296.849362
11
57.490115
21
297.802111
0
LINE
8
boundary
62
5
39
2
10
57.490115
20
297.802111
11
57.130103
21
298.754590
0
LINE
8
boundary
62
5
39
2
10
57.130103
20
298.754590
11
56.759524
21
299.706604
0
LINE
8
boundary
62
5
39
2
10
56.759524
20
299.706604
11
56.378417
21
300.658111
0
LINE
8
boundary
62
5
39
2
10
56.378417
20
300.658111
11
55.986544
21
301.609307
0
LINE
8
boundary
62
5
39
2
10
55.986544
20
301.609307
11
55.583986
21
302.559816
0
LINE
8
boundary
62
5
39
2
10
55.583986
20
302.559816
11
55.170563
21
303.509689
0
LINE
8
boundary
62
5
39
2
10
55.170563
20
303.509689
11
54.746294
21
304.459051
0
LINE
8
boundary
62
5
39
2
10
54.746294
20
304.459051
11
54.311135
21
305.407478
0
LINE
8
boundary
62
5
39
2
10
54.311135
20
305.407478
11
53.864957
21
306.355394
0
LINE
8
boundary
62
5
39
2
10
53.864957
20
306.355394
11
53.407722
21
307.302285
0
LINE
8
boundary
62
5
39
2
10
53.407722
20
307.302285
11
52.939354
21
308.248268
0
LINE
8
boundary
62
5
39
2
10
52.939354
20
308.248268
11
52.459788
21
309.193342
0
LINE
8
boundary
62
5
39
2
10
52.459788
20
309.193342
11
51.968976
21
310.137427
0
LINE
8
boundary
62
5
39
2
10
51.968976
20
310.137427
11
51.466858
21
311.080597
0
LINE
8
boundary
62
5
39
2
10
51.466858
20
311.080597
11
50.953431
21
312.022313
0
LINE
8
boundary
62
5
39
2
10
50.953431
20
312.022313
11
50.428441
21
312.963127
0
LINE
8
boundary
62
5
39
2
10
50.428441
20
312.963127
11
49.892055
21
313.902849
0
LINE
8
boundary
62
5
39
2
10
49.892055
20
313.902849
11
49.344052
21
314.841131
0
LINE
8
boundary
62
5
39
2
10
49.344052
20
314.841131
11
48.784337
21
315.777966
0
LINE
8
boundary
62
5
39
2
10
48.784337
20
315.777966
11
48.213019
21
316.713651
0
LINE
8
boundary
62
5
39
2
10
48.213019
20
316.713651
11
47.629944
21
317.647731
0
LINE
8
boundary
62
5
39
2
10
47.629944
20
317.647731
11
47.035037
21
318.580415
0
LINE
8
boundary
62
5
39
2
10
47.035037
20
318.580415
11
46.428271
21
319.511434
0
LINE
8
boundary
62
5
39
2
10
46.428271
20
319.511434
11
45.809469
21
320.440883
0
LINE
8
boundary
62
5
39
2
10
45.809469
20
320.440883
11
45.178724
21
321.368618
0
LINE
8
boundary
62
5
39
2
10
45.178724
20
321.368618
11
44.535954
21
322.294709
0
LINE
8
boundary
62
5
39
2
10
44.535954
20
322.294709
11
43.881034
21
323.218999
0
LINE
8
boundary
62
5
39
2
10
43.881034
20
323.218999
11
43.213895
21
324.141400
0
LINE
8
boundary
62
5
39
2
10
43.213895
20
324.141400
11
42.534469
21
325.062062
0
LINE
8
boundary
62
5
39
2
10
42.534469
20
325.062062
11
41.842775
21
325.980594
0
LINE
8
boundary
62
5
39
2
10
41.842775
20
325.980594
11
41.138656
21
326.897201
0
LINE
8
boundary
62
5
39
2
10
41.138656
20
326.897201
11
40.422091
21
327.811712
0
LINE
8
boundary
62
5
39
2
10
40.422091
20
327.811712
11
39.693116
21
328.724101
0
LINE
8
boundary
62
5
39
2
10
39.693116
20
328.724101
11
38.951453
21
329.634188
0
LINE
8
boundary
62
5
39
2
10
38.951453
20
329.634188
11
38.197051
21
330.542256
0
LINE
8
boundary
62
5
39
2
10
38.197051
20
330.542256
11
37.423437
21
331.444922
0
LINE
8
boundary
62
5
39
2
10
37.423437
20
331.444922
11
36.636577
21
332.345161
0
LINE
8
boundary
62
5
39
2
10
36.636577
20
332.345161
11
36.421862
21
332.876178
0
LINE
8
boundary
62
5
39
2
10
36.421862
20
332.876178
11
36.233470
21
333.383225
0
LINE
8
boundary
62
5
39
2
10
36.233470
20
333.383225
11
36.070500
21
333.866977
0
LINE
8
boundary
62
5
39
2
10
36.070500
20
333.866977
11
35.818500
21
334.765062
0
LINE
8
boundary
62
5
39
2
10
35.818500
20
334.765062
11
35.660579
21
335.574144
0
LINE
8
boundary
62
5
39
2
10
35.660579
20
335.574144
11
35.591778
21
336.297526
0
LINE
8
boundary
62
5
39
2
10
35.591778
20
336.297526
11
35.607169
21
336.938624
0
LINE
8
boundary
62
5
39
2
10
35.607169
20
336.938624
11
35.701812
21
337.501005
0
LINE
8
boundary
62
5
39
2
10
35.701812
20
337.501005
11
35.871114
21
337.988373
0
LINE
8
boundary
62
5
39
2
10
35.871114
20
337.988373
11
36.254917
21
338.585738
0
LINE
8
boundary
62
5
39
2
10
36.254917
20
338.585738
11
36.781137
21
339.033481
0
LINE
8
boundary
62
5
39
2
10
36.781137
20
339.033481
11
37.435055
21
339.343557
0
LINE
8
boundary
62
5
39
2
10
37.435055
20
339.343557
11
37.928611
21
339.479503
0
LINE
8
boundary
62
5
39
2
10
37.928611
20
339.479503
11
38.466410
21
339.562871
0
LINE
8
boundary
62
5
39
2
10
38.466410
20
339.562871
11
39.045235
21
339.597712
0
LINE
8
boundary
62
5
39
2
10
39.045235
20
339.597712
11
39.661146
21
339.587293
0
LINE
8
boundary
62
5
39
2
10
39.661146
20
339.587293
11
40.309832
21
339.535130
0
LINE
8
boundary
62
5
39
2
10
40.309832
20
339.535130
11
40.982355
21
339.445356
0
LINE
8
boundary
62
5
39
2
10
40.982355
20
339.445356
11
41.683254
21
339.320911
0
LINE
8
boundary
62
5
39
2
10
41.683254
20
339.320911
11
42.404482
21
339.165213
0
LINE
8
boundary
62
5
39
2
10
42.404482
20
339.165213
11
43.141904
21
338.982167
0
LINE
8
boundary
62
5
39
2
10
43.141904
20
338.982167
11
43.891476
21
338.774990
0
LINE
8
boundary
62
5
39
2
10
43.891476
20
338.774990
11
44.648908
21
338.547306
0
LINE
8
boundary
62
5
39
2
10
44.648908
20
338.547306
11
45.410080
21
338.302643
0
LINE
8
boundary
62
5
39
2
10
45.410080
20
338.302643
11
46.170768
21
338.044267
0
LINE
8
boundary
62
5
39
2
10
46.170768
20
338.044267
11
46.926567
21
337.775969
0
LINE
8
boundary
62
5
39
2
10
46.926567
20
337.775969
11
48.377400
21
337.233987
0
LINE
8
boundary
62
5
39
2
10
48.377400
20
337.233987
11
49.785447
21
336.683822
0
LINE
8
boundary
62
5
39
2
10
49.785447
20
336.683822
11
51.089267
21
336.162310
0
LINE
8
boundary
62
5
39
2
10
51.089267
20
336.162310
11
51.935157
21
335.579382
0
LINE
8
boundary
62
5
39
2
10
51.935157
20
335.579382
11
52.771611
21
335.012070
0
LINE
8
boundary
62
5
39
2
10
52.771611
20
335.012070
11
53.620967
21
334.464181
0
LINE
8
boundary
62
5
39
2
10
53.620967
20
334.464181
11
54.482822
21
333.935831
0
LINE
8
boundary
62
5
39
2
10
54.482822
20
333.935831
11
55.356489
21
333.426790
0
LINE
8
boundary
62
5
39
2
10
55.356489
20
333.426790
11
56.241481
21
332.937282
0
LINE
8
boundary
62
5
39
2
10
56.241481
20
332.937282
11
57.137146
21
332.467041
0
LINE
8
boundary
62
5
39
2
10
57.137146
20
332.467041
11
58.042784
21
332.016225
0
LINE
8
boundary
62
5
39
2
10
58.042784
20
332.016225
11
58.957974
21
331.584693
0
LINE
8
boundary
62
5
39
2
10
58.957974
20
331.584693
11
59.882035
21
331.172700
0
LINE
8
boundary
62
5
39
2
10
59.882035
20
331.172700
11
60.814349
21
330.779791
0
LINE
8
boundary
62
5
39
2
10
60.814349
20
330.779791
11
61.754293
21
330.406214
0
LINE
8
boundary
62
5
39
2
10
61.754293
20
330.406214
11
62.701311
21
330.052043
0
LINE
8
boundary
62
5
39
2
10
62.701311
20
330.052043
11
63.654773
21
329.717017
0
LINE
8
boundary
62
5
39
2
10
63.654773
20
329.717017
11
64.614099
21
329.401225
0
LINE
8
boundary
62
5
39
2
10
64.614099
20
329.401225
11
65.578665
21
329.104674
0
LINE
8
boundary
62
5
39
2
10
65.578665
20
329.104674
11
66.547819
21
328.827290
0
LINE
8
boundary
62
5
39
2
10
66.547819
20
328.827290
11
67.521099
21
328.568968
0
LINE
8
boundary
62
5
39
2
10
67.521099
20
328.568968
11
68.497680
21
328.330108
0
LINE
8
boundary
62
5
39
2
10
68.497680
20
328.330108
11
69.477131
21
328.110189
0
LINE
8
boundary
62
5
39
2
10
69.477131
20
328.110189
11
70.458826
21
327.909348
0
LINE
8
boundary
62
5
39
2
10
70.458826
20
327.909348
11
71.442145
21
327.727717
0
LINE
8
boundary
62
5
39
2
10
71.442145
20
327.727717
11
72.426519
21
327.565127
0
LINE
8
boundary
62
5
39
2
10
72.426519
20
327.565127
11
73.411342
21
327.421465
0
LINE
8
boundary
62
5
39
2
10
73.411342
20
327.421465
11
74.396045
21
327.296992
0
LINE
8
boundary
62
5
39
2
10
74.396045
20
327.296992
11
75.379921
21
327.191436
0
LINE
8
boundary
62
5
39
2
10
75.379921
20
327.191436
11
76.362556
21
327.104818
0
LINE
8
boundary
62
5
39
2
10
76.362556
20
327.104818
11
77.343333
21
327.037349
0
LINE
8
boundary
62
5
39
2
10
77.343333
20
327.037349
11
78.321604
21
326.988583
0
LINE
8
boundary
62
5
39
2
10
78.321604
20
326.988583
11
79.296911
21
326.958861
0
LINE
8
boundary
62
5
39
2
10
79.296911
20
326.958861
11
80.268666
21
326.948011
0
LINE
8
boundary
62
5
39
2
10
80.268666
20
326.948011
11
81.236203
21
326.956104
0
LINE
8
boundary
62
5
39
2
10
81.236203
20
326.956104
11
82.199047
21
326.983084
0
LINE
8
boundary
62
5
39
2
10
82.199047
20
326.983084
11
83.156748
21
327.028814
0
LINE
8
boundary
62
5
39
2
10
83.156748
20
327.028814
11
84.108607
21
327.093456
0
LINE
8
boundary
62
5
39
2
10
84.108607
20
327.093456
11
85.054252
21
327.176817
0
LINE
8
boundary
62
5
39
2
10
85.054252
20
327.176817
11
85.993035
21
327.279062
0
LINE
8
boundary
62
5
39
2
10
85.993035
20
327.279062
11
86.924456
21
327.399998
0
LINE
8
boundary
62
5
39
2
10
86.924456
20
327.399998
11
87.848093
21
327.539752
0
LINE
8
boundary
62
5
39
2
10
87.848093
20
327.539752
11
88.763406
21
327.698223
0
LINE
8
boundary
62
5
39
2
10
88.763406
20
327.698223
11
89.669830
21
327.875456
0
LINE
8
boundary
62
5
39
2
10
89.669830
20
327.875456
11
90.566934
21
328.071383
0
LINE
8
boundary
62
5
39
2
10
90.566934
20
328.071383
11
91.454277
21
328.286052
0
LINE
8
boundary
62
5
39
2
10
91.454277
20
328.286052
11
92.331296
21
328.519419
0
LINE
8
boundary
62
5
39
2
10
92.331296
20
328.519419
11
93.197595
21
328.771341
0
LINE
8
boundary
62
5
39
2
10
93.197595
20
328.771341
11
94.052633
21
329.042195
0
LINE
8
boundary
62
5
39
2
10
94.052633
20
329.042195
11
94.896103
21
329.331469
0
LINE
8
boundary
62
5
39
2
10
94.896103
20
329.331469
11
95.727383
21
329.639579
0
LINE
8
boundary
62
5
39
2
10
95.727383
20
329.639579
11
96.546185
21
329.966308
0
LINE
8
boundary
62
5
39
2
10
96.546185
20
329.966308
11
97.352012
21
330.311753
0
LINE
8
boundary
62
5
39
2
10
97.352012
20
330.311753
11
98.144451
21
330.675819
0
LINE
8
boundary
62
5
39
2
10
98.144451
20
330.675819
11
98.923177
21
331.058498
0
LINE
8
boundary
62
5
39
2
10
98.923177
20
331.058498
11
99.687595
21
331.459994
0
LINE
8
boundary
62
5
39
2
10
99.687595
20
331.459994
11
100.437445
21
331.879862
0
LINE
8
boundary
62
5
39
2
10
100.437445
20
331.879862
11
101.172406
21
332.318615
0
LINE
8
boundary
62
5
39
2
10
101.172406
20
332.318615
11
101.891938
21
332.776067
0
LINE
8
boundary
62
5
39
2
10
101.891938
20
332.776067
11
102.595662
21
333.252101
0
LINE
8
boundary
62
5
39
2
10
102.595662
20
333.252101
11
103.283353
21
333.746960
0
LINE
8
boundary
62
5
39
2
10
103.283353
20
333.746960
11
103.954520
21
334.260292
0
LINE
8
boundary
62
5
39
2
10
103.954520
20
334.260292
11
104.608823
21
334.792533
0
LINE
8
boundary
62
5
39
2
10
104.608823
20
334.792533
11
105.245961
21
335.343400
0
LINE
8
boundary
62
5
39
2
10
105.245961
20
335.343400
11
105.865503
21
335.913128
0
LINE
8
boundary
62
5
39
2
10
105.865503
20
335.913128
11
106.467181
21
336.501556
0
LINE
8
boundary
62
5
39
2
10
106.467181
20
336.501556
11
107.050633
21
337.108662
0
LINE
8
boundary
62
5
39
2
10
107.050633
20
337.108662
11
107.464483
21
337.441504
0
LINE
8
boundary
62
5
39
2
10
107.464483
20
337.441504
11
108.089888
21
337.970580
0
LINE
8
boundary
62
5
39
2
10
108.089888
20
337.970580
11
108.680778
21
338.543776
0
LINE
8
boundary
62
5
39
2
10
108.680778
20
338.543776
11
109.203348
21
339.133331
0
LINE
8
boundary
62
5
39
2
10
109.203348
20
339.133331
11
109.659309
21
339.738894
0
LINE
8
boundary
62
5
39
2
10
109.659309
20
339.738894
11
110.050353
21
340.360086
0
LINE
8
boundary
62
5
39
2
10
110.050353
20
340.360086
11
110.378226
21
340.996625
0
LINE
8
boundary
62
5
39
2
10
110.378226
20
340.996625
11
110.644557
21
341.647897
0
LINE
8
boundary
62
5
39
2
10
110.644557
20
341.647897
11
110.850958
21
342.313681
0
LINE
8
boundary
62
5
39
2
10
110.850958
20
342.313681
11
110.999105
21
342.993279
0
LINE
8
boundary
62
5
39
2
10
110.999105
20
342.993279
11
111.090568
21
343.686339
0
LINE
8
boundary
62
5
39
2
10
111.090568
20
343.686339
11
111.126959
21
344.392517
0
LINE
8
boundary
62
5
39
2
10
111.126959
20
344.392517
11
111.109858
21
345.111417
0
LINE
8
boundary
62
5
39
2
10
111.109858
20
345.111417
11
111.040703
21
345.842413
0
LINE
8
boundary
62
5
39
2
10
111.040703
20
345.842413
11
110.921238
21
346.585320
0
LINE
8
boundary
62
5
39
2
10
110.921238
20
346.585320
11
110.752752
21
347.339552
0
LINE
8
boundary
62
5
39
2
10
110.752752
20
347.339552
11
110.536864
21
348.104627
0
LINE
8
boundary
62
5
39
2
10
110.536864
20
348.104627
11
110.275107
21
348.880158
0
LINE
8
boundary
62
5
39
2
10
110.275107
20
348.880158
11
109.968982
21
349.665672
0
LINE
8
boundary
62
5
39
2
10
109.968982
20
349.665672
11
109.449605
21
350.820251
0
LINE
8
boundary
62
5
39
2
10
109.449605
20
350.820251
11
109.041208
21
351.628214
0
LINE
8
boundary
62
5
39
2
10
109.041208
20
351.628214
11
108.593584
21
352.444696
0
LINE
8
boundary
62
5
39
2
10
108.593584
20
352.444696
11
108.108229
21
353.269186
0
LINE
8
boundary
62
5
39
2
10
108.108229
20
353.269186
11
107.586481
21
354.101534
0
LINE
8
boundary
62
5
39
2
10
107.586481
20
354.101534
11
107.029898
21
354.940565
0
LINE
8
boundary
62
5
39
2
10
107.029898
20
354.940565
11
106.439986
21
355.786623
0
LINE
8
boundary
62
5
39
2
10
106.439986
20
355.786623
11
105.818155
21
356.638922
0
LINE
8
boundary
62
5
39
2
10
105.818155
20
356.638922
11
105.165908
21
357.496923
0
LINE
8
boundary
62
5
39
2
10
105.165908
20
357.496923
11
104.484721
21
358.360464
0
LINE
8
boundary
62
5
39
2
10
104.484721
20
358.360464
11
103.776049
21
359.228741
0
LINE
8
boundary
62
5
39
2
10
103.776049
20
359.228741
11
103.041342
21
360.101692
0
LINE
8
boundary
62
5
39
2
10
103.041342
20
360.101692
11
102.282164
21
360.978503
0
LINE
8
boundary
62
5
39
2
10
102.282164
20
360.978503
11
101.499949
21
361.859073
0
LINE
8
boundary
62
5
39
2
10
101.499949
20
361.859073
11
100.696157
21
362.742656
0
LINE
8
boundary
62
5
39
2
10
100.696157
20
362.742656
11
99.872215
21
363.628990
0
LINE
8
boundary
62
5
39
2
10
99.872215
20
363.628990
11
99.029745
21
364.517594
0
LINE
8
boundary
62
5
39
2
10
99.029745
20
364.517594
11
98.170174
21
365.407786
0
LINE
8
boundary
62
5
39
2
10
98.170174
20
365.407786
11
97.294897
21
366.299441
0
LINE
8
boundary
62
5
39
2
10
97.294897
20
366.299441
11
96.405473
21
367.191860
0
LINE
8
boundary
62
5
39
2
10
96.405473
20
367.191860
11
95.503256
21
368.084713
0
LINE
8
boundary
62
5
39
2
10
95.503256
20
368.084713
11
94.589886
21
368.977492
0
LINE
8
boundary
62
5
39
2
10
94.589886
20
368.977492
11
93.666772
21
369.869803
0
LINE
8
boundary
62
5
39
2
10
93.666772
20
369.869803
11
91.910576
21
371.544557
0
LINE
8
boundary
62
5
39
2
10
91.910576
20
371.544557
11
90.021788
21
373.317263
0
LINE
8
boundary
62
5
39
2
10
90.021788
20
373.317263
11
88.122327
21
375.078669
0
LINE
8
boundary
62
5
39
2
10
88.122327
20
375.078669
11
86.223614
21
376.825046
0
LINE
8
boundary
62
5
39
2
10
86.223614
20
376.825046
11
84.336946
21
378.552699
0
LINE
8
boundary
62
5
39
2
10
84.336946
20
378.552699
11
80.876204
21
381.726417
0
LINE
8
boundary
62
5
39
2
10
80.876204
20
381.726417
11
80.408403
21
382.149014
0
LINE
8
boundary
62
5
39
2
10
80.408403
20
382.149014
11
77.357063
21
384.990193
0
LINE
8
boundary
62
5
39
2
10
77.357063
20
384.990193
11
76.905625
21
385.404356
0
LINE
8
boundary
62
5
39
2
10
76.905625
20
385.404356
11
75.469422
21
386.770071
0
LINE
8
boundary
62
5
39
2
10
75.469422
20
386.770071
11
73.883778
21
388.301682
0
LINE
8
boundary
62
5
39
2
10
73.883778
20
388.301682
11
72.851601
21
389.301746
0
LINE
8
boundary
62
5
39
2
10
72.851601
20
389.301746
11
71.906979
21
390.201353
0
LINE
8
boundary
62
5
39
2
10
71.906979
20
390.201353
11
70.967529
21
391.076730
0
LINE
8
boundary
62
5
39
2
10
70.967529
20
391.076730
11
70.033116
21
391.927941
0
LINE
8
boundary
62
5
39
2
10
70.033116
20
391.927941
11
69.103546
21
392.755720
0
LINE
8
boundary
62
5
39
2
10
69.103546
20
392.755720
11
68.178649
21
393.560087
0
LINE
8
boundary
62
5
39
2
10
68.178649
20
393.560087
11
67.258393
21
394.341454
0
LINE
8
boundary
62
5
39
2
10
67.258393
20
394.341454
11
66.342533
21
395.100213
0
LINE
8
boundary
62
5
39
2
10
66.342533
20
395.100213
11
65.430886
21
395.836783
0
LINE
8
boundary
62
5
39
2
10
65.430886
20
395.836783
11
64.523364
21
396.551092
0
LINE
8
boundary
62
5
39
2
10
64.523364
20
396.551092
11
63.619839
21
397.244014
0
LINE
8
boundary
62
5
39
2
10
63.619839
20
397.244014
11
62.720152
21
397.915688
0
LINE
8
boundary
62
5
39
2
10
62.720152
20
397.915688
11
61.824171
21
398.566503
0
LINE
8
boundary
62
5
39
2
10
61.824171
20
398.566503
11
60.931845
21
399.196748
0
LINE
8
boundary
62
5
39
2
10
60.931845
20
399.196748
11
60.042945
21
399.806769
0
LINE
8
boundary
62
5
39
2
10
60.042945
20
399.806769
11
59.157407
21
400.397026
0
LINE
8
boundary
62
5
39
2
10
59.157407
20
400.397026
11
58.275147
21
400.967741
0
LINE
8
boundary
62
5
39
2
10
58.275147
20
400.967741
11
57.395971
21
401.519386
0
LINE
8
boundary
62
5
39
2
10
57.395971
20
401.519386
11
56.519831
21
402.052537
0
LINE
8
boundary
62
5
39
2
10
56.519831
20
402.052537
11
55.646669
21
402.567037
0
LINE
8
boundary
62
5
39
2
10
55.646669
20
402.567037
11
54.776381
21
403.063510
0
LINE
8
boundary
62
5
39
2
10
54.776381
20
403.063510
11
53.908758
21
403.542485
0
LINE
8
boundary
62
5
39
2
10
53.908758
20
403.542485
11
53.043864
21
404.004109
0
LINE
8
boundary
62
5
39
2
10
53.043864
20
404.004109
11
52.181513
21
404.448934
0
LINE
8
boundary
62
5
39
2
10
52.181513
20
404.448934
11
51.321705
21
404.877280
0
LINE
8
boundary
62
5
39
2
10
51.321705
20
404.877280
11
50.464289
21
405.289509
0
LINE
8
boundary
62
5
39
2
10
50.464289
20
405.289509
11
49.609325
21
405.685751
0
LINE
8
boundary
62
5
39
2
10
49.609325
20
405.685751
11
48.756583
21
406.066930
0
LINE
8
boundary
62
5
39
2
10
48.756583
20
406.066930
11
47.906137
21
406.432801
0
LINE
8
boundary
62
5
39
2
10
47.906137
20
406.432801
11
47.057824
21
406.784220
0
LINE
8
boundary
62
5
39
2
10
47.057824
20
406.784220
11
46.211705
21
407.121320
0
LINE
8
boundary
62
5
39
2
10
46.211705
20
407.121320
11
45.367668
21
407.444613
0
LINE
8
boundary
62
5
39
2
10
45.367668
20
407.444613
11
44.525642
21
407.754390
0
LINE
8
boundary
62
5
39
2
10
44.525642
20
407.754390
11
43.685607
21
408.051078
0
LINE
8
boundary
62
5
39
2
10
43.685607
20
408.051078
11
42.847491
21
408.335148
0
LINE
8
boundary
62
5
39
2
10
42.847491
20
408.335148
11
42.011317
21
408.606959
0
LINE
8
boundary
62
5
39
2
10
42.011317
20
408.606959
11
41.177073
21
408.866629
0
LINE
8
boundary
62
5
39
2
10
41.177073
20
408.866629
11
40.344687
21
409.114794
0
LINE
8
boundary
62
5
39
2
10
40.344687
20
409.114794
11
39.514055
21
409.351914
0
LINE
8
boundary
62
5
39
2
10
39.514055
20
409.351914
11
38.685315
21
409.578355
0
LINE
8
boundary
62
5
39
2
10
38.685315
20
409.578355
11
37.858326
21
409.794375
0
LINE
8
boundary
62
5
39
2
10
37.858326
20
409.794375
11
37.033090
21
410.000447
0
LINE
8
boundary
62
5
39
2
10
37.033090
20
410.000447
11
35.471938
21
410.364018
0
LINE
8
boundary
62
5
39
2
10
35.471938
20
410.364018
11
33.829198
21
410.715589
0
LINE
8
boundary
62
5
39
2
10
33.829198
20
410.715589
11
32.193085
21
411.034542
0
LINE
8
boundary
62
5
39
2
10
32.193085
20
411.034542
11
30.563607
21
411.324570
0
LINE
8
boundary
62
5
39
2
10
30.563607
20
411.324570
11
28.940694
21
411.588772
0
LINE
8
boundary
62
5
39
2
10
28.940694
20
411.588772
11
27.324417
21
411.830318
0
LINE
8
boundary
62
5
39
2
10
27.324417
20
411.830318
11
25.714950
21
412.052609
0
LINE
8
boundary
62
5
39
2
10
25.714950
20
412.052609
11
24.112461
21
412.258632
0
LINE
8
boundary
62
5
39
2
10
24.112461
20
412.258632
11
22.516915
21
412.451714
0
LINE
8
boundary
62
5
39
2
10
22.516915
20
412.451714
11
19.387750
21
412.807884
0
LINE
8
boundary
62
5
39
2
10
19.387750
20
412.807884
11
18.306348
21
406.704567
0
LINE
8
boundary
62
5
39
2
10
18.306348
20
406.704567
11
18.068545
21
405.321168
0
LINE
8
boundary
62
5
39
2
10
18.068545
20
405.321168
11
18.900035
21
405.231936
0
LINE
8
boundary
62
5
39
2
10
18.900035
20
405.231936
11
22.281622
21
404.863965
0
LINE
8
boundary
62
5
39
2
10
22.281622
20
404.863965
11
23.565946
21
404.499234
0
LINE
8
boundary
62
5
39
2
10
23.565946
20
404.499234
11
24.751264
21
404.129317
0
LINE
8
boundary
62
5
39
2
10
24.751264
20
404.129317
11
25.368450
21
403.929596
0
LINE
8
boundary
62
5
39
2
10
25.368450
20
403.929596
11
42.344489
21
403.929596
0
LINE
8
boundary
62
5
39
2
10
42.344489
20
403.929596
11
42.344489
21
401.183596
0
LINE
8
boundary
62
5
39
2
10
42.344489
20
401.183596
11
33.253216
21
401.183596
0
LINE
8
boundary
62
5
39
2
10
33.253216
20
401.183596
11
33.720336
21
400.835932
0
LINE
8
boundary
62
5
39
2
10
33.720336
20
400.835932
11
34.681702
21
400.424463
0
LINE
8
boundary
62
5
39
2
10
34.681702
20
400.424463
11
35.703706
21
399.973936
0
LINE
8
boundary
62
5
39
2
10
35.703706
20
399.973936
11
36.709567
21
399.516117
0
LINE
8
boundary
62
5
39
2
10
36.709567
20
399.516117
11
37.699253
21
399.051316
0
LINE
8
boundary
62
5
39
2
10
37.699253
20
399.051316
11
38.673024
21
398.579463
0
LINE
8
boundary
62
5
39
2
10
38.673024
20
398.579463
11
39.630721
21
398.100910
0
LINE
8
boundary
62
5
39
2
10
39.630721
20
398.100910
11
40.572507
21
397.615694
0
LINE
8
boundary
62
5
39
2
10
40.572507
20
397.615694
11
41.498404
21
397.123917
0
LINE
8
boundary
62
5
39
2
10
41.498404
20
397.123917
11
42.408430
21
396.625904
0
LINE
8
boundary
62
5
39
2
10
42.408430
20
396.625904
11
43.302647
21
396.121829
0
LINE
8
boundary
62
5
39
2
10
43.302647
20
396.121829
11
44.181091
21
395.611504
0
LINE
8
boundary
62
5
39
2
10
44.181091
20
395.611504
11
45.043732
21
395.095377
0
LINE
8
boundary
62
5
39
2
10
45.043732
20
395.095377
11
45.890771
21
394.573518
0
LINE
8
boundary
62
5
39
2
10
45.890771
20
394.573518
11
46.722132
21
394.046036
0
LINE
8
boundary
62
5
39
2
10
46.722132
20
394.046036
11
47.537893
21
393.513129
0
LINE
8
boundary
62
5
39
2
10
47.537893
20
393.513129
11
48.338096
21
392.974881
0
LINE
8
boundary
62
5
39
2
10
48.338096
20
392.974881
11
49.122749
21
392.431480
0
LINE
8
boundary
62
5
39
2
10
49.122749
20
392.431480
11
49.891963
21
391.883114
0
LINE
8
boundary
62
5
39
2
10
49.891963
20
391.883114
11
50.645754
21
391.329929
0
LINE
8
boundary
62
5
39
2
10
50.645754
20
391.329929
11
51.384079
21
390.771912
0
LINE
8
boundary
62
5
39
2
10
51.384079
20
390.771912
11
52.106984
21
390.209330
0
LINE
8
boundary
62
5
39
2
10
52.106984
20
390.209330
11
52.814558
21
389.642329
0
LINE
8
boundary
62
5
39
2
10
52.814558
20
389.642329
11
53.506829
21
389.071028
0
LINE
8
boundary
62
5
39
2
10
53.506829
20
389.071028
11
54.183829
21
388.495742
0
LINE
8
boundary
62
5
39
2
10
54.183829
20
388.495742
11
54.845597
21
387.916379
0
LINE
8
boundary
62
5
39
2
10
54.845597
20
387.916379
11
55.492053
21
387.333130
0
LINE
8
boundary
62
5
39
2
10
55.492053
20
387.333130
11
56.123414
21
386.746105
0
LINE
8
boundary
62
5
39
2
10
56.123414
20
386.746105
11
56.739541
21
386.155619
0
LINE
8
boundary
62
5
39
2
10
56.739541
20
386.155619
11
57.340580
21
385.561669
0
LINE
8
boundary
62
5
39
2
10
57.340580
20
385.561669
11
57.926398
21
384.964319
0
LINE
8
boundary
62
5
39
2
10
57.926398
20
384.964319
11
58.497216
21
384.363897
0
LINE
8
boundary
62
5
39
2
10
58.497216
20
384.363897
11
59.052963
21
383.760594
0
LINE
8
boundary
62
5
39
2
10
59.052963
20
383.760594
11
59.593627
21
383.154407
0
LINE
8
boundary
62
5
39
2
10
59.593627
20
383.154407
11
60.119325
21
382.545319
0
LINE
8
boundary
62
5
39
2
10
60.119325
20
382.545319
11
60.630011
21
381.933776
0
LINE
8
boundary
62
5
39
2
10
60.630011
20
381.933776
11
61.125669
21
381.319796
0
LINE
8
boundary
62
5
39
2
10
61.125669
20
381.319796
11
61.606350
21
380.703460
0
LINE
8
boundary
62
5
39
2
10
61.606350
20
380.703460
11
62.072198
21
380.084929
0
LINE
8
boundary
62
5
39
2
10
62.072198
20
380.084929
11
62.523031
21
379.464529
0
LINE
8
boundary
62
5
39
2
10
62.523031
20
379.464529
11
62.959043
21
378.842064
0
LINE
8
boundary
62
5
39
2
10
62.959043
20
378.842064
11
63.380058
21
378.217970
0
LINE
8
boundary
62
5
39
2
10
63.380058
20
378.217970
11
63.786300
21
377.592264
0
LINE
8
boundary
62
5
39
2
10
63.786300
20
377.592264
11
64.177630
21
376.964940
0
LINE
8
boundary
62
5
39
2
10
64.177630
20
376.964940
11
64.554174
21
376.336434
0
LINE
8
boundary
62
5
39
2
10
64.554174
20
376.336434
11
64.915817
21
375.706646
0
LINE
8
boundary
62
5
39
2
10
64.915817
20
375.706646
11
65.262674
21
375.075835
0
LINE
8
boundary
62
5
39
2
10
65.262674
20
375.075835
11
65.594769
21
374.444076
0
LINE
8
boundary
62
5
39
2
10
65.594769
20
374.444076
11
65.912073
21
373.811572
0
LINE
8
boundary
62
5
39
2
10
65.912073
20
373.811572
11
66.214627
21
373.178238
0
LINE
8
boundary
62
5
39
2
10
66.214627
20
373.178238
11
66.502388
21
372.544460
0
LINE
8
boundary
62
5
39
2
10
66.502388
20
372.544460
11
66.775357
21
371.910281
0
LINE
8
boundary
62
5
39
2
10
66.775357
20
371.910281
11
67.033637
21
371.275891
0
LINE
8
boundary
62
5
39
2
10
67.033637
20
371.275891
11
67.277148
21
370.641319
0
LINE
8
boundary
62
5
39
2
10
67.277148
20
370.641319
11
67.505984
21
370.006748
0
LINE
8
boundary
62
5
39
2
10
67.505984
20
370.006748
11
67.505184
21
369.092549
0
LINE
8
boundary
62
5
39
2
10
67.505184
20
369.092549
11
67.503262
21
368.134810
0
LINE
8
boundary
62
5
39
2
10
67.503262
20
368.134810
11
67.522460
21
367.165204
0
LINE
8
boundary
62
5
39
2
10
67.522460
20
367.165204
11
67.557470
21
366.186986
0
LINE
8
boundary
62
5
39
2
10
67.557470
20
366.186986
11
67.648303
21
364.309218
0
LINE
8
boundary
62
5
39
2
10
67.648303
20
364.309218
11
67.741241
21
362.345034
0
LINE
8
boundary
62
5
39
2
10
67.741241
20
362.345034
11
67.777911
21
361.285168
0
LINE
8
boundary
62
5
39
2
10
67.777911
20
361.285168
11
67.792179
21
360.325932
0
LINE
8
boundary
62
5
39
2
10
67.792179
20
360.325932
11
67.783242
21
359.381610
0
LINE
8
boundary
62
5
39
2
10
67.783242
20
359.381610
11
67.745475
21
358.455340
0
LINE
8
boundary
62
5
39
2
10
67.745475
20
358.455340
11
67.672953
21
357.550407
0
LINE
8
boundary
62
5
39
2
10
67.672953
20
357.550407
11
67.613983
21
357.030319
0
LINE
8
boundary
62
5
39
2
10
67.613983
20
357.030319
11
67.481133
21
356.203287
0
LINE
8
boundary
62
5
39
2
10
67.481133
20
356.203287
11
67.294256
21
355.367674
0
LINE
8
boundary
62
5
39
2
10
67.294256
20
355.367674
11
67.051987
21
354.565075
0
LINE
8
boundary
62
5
39
2
10
67.051987
20
354.565075
11
66.748298
21
353.798723
0
LINE
8
boundary
62
5
39
2
10
66.748298
20
353.798723
11
66.377219
21
353.071980
0
LINE
8
boundary
62
5
39
2
10
66.377219
20
353.071980
11
65.932818
21
352.387821
0
LINE
8
boundary
62
5
39
2
10
65.932818
20
352.387821
11
65.409024
21
351.749850
0
LINE
8
boundary
62
5
39
2
10
65.409024
20
351.749850
11
64.799843
21
351.161102
0
LINE
8
boundary
62
5
39
2
10
64.799843
20
351.161102
11
64.099385
21
350.624953
0
LINE
8
boundary
62
5
39
2
10
64.099385
20
350.624953
11
63.301467
21
350.144518
0
LINE
8
boundary
62
5
39
2
10
63.301467
20
350.144518
11
62.831409
21
349.909994
0
LINE
8
boundary
62
5
39
2
10
62.831409
20
349.909994
11
61.909003
21
349.535871
0
LINE
8
boundary
62
5
39
2
10
61.909003
20
349.535871
11
61.389746
21
349.364556
0
LINE
8
boundary
62
5
39
2
10
61.389746
20
349.364556
11
60.841625
21
349.209673
0
LINE
8
boundary
62
5
39
2
10
60.841625
20
349.209673
11
60.263937
21
349.071604
0
LINE
8
boundary
62
5
39
2
10
60.263937
20
349.071604
11
59.655969
21
348.950868
0
LINE
8
boundary
62
5
39
2
10
59.655969
20
348.950868
11
59.017064
21
348.847847
0
LINE
8
boundary
62
5
39
2
10
59.017064
20
348.847847
11
58.346379
21
348.762859
0
LINE
8
boundary
62
5
39
2
10
58.346379
20
348.762859
11
57.643216
21
348.696578
0
LINE
8
boundary
62
5
39
2
10
57.643216
20
348.696578
11
56.906894
21
348.649081
0
LINE
8
boundary
62
5
39
2
10
56.906894
20
348.649081
11
56.136687
21
348.621043
0
LINE
8
boundary
62
5
39
2
10
56.136687
20
348.621043
11
55.332003
21
348.612908
0
LINE
8
boundary
62
5
39
2
10
55.332003
20
348.612908
11
54.492008
21
348.625043
0
LINE
8
boundary
62
5
39
2
10
54.492008
20
348.625043
11
53.615947
21
348.657930
0
LINE
8
boundary
62
5
39
2
10
53.615947
20
348.657930
11
52.703318
21
348.711902
0
LINE
8
boundary
62
5
39
2
10
52.703318
20
348.711902
11
51.753452
21
348.787466
0
LINE
8
boundary
62
5
39
2
10
51.753452
20
348.787466
11
50.104882
21
349.365544
0
LINE
8
boundary
62
5
39
2
10
50.104882
20
349.365544
11
48.462205
21
349.940774
0
LINE
8
boundary
62
5
39
2
10
48.462205
20
349.940774
11
46.855771
21
350.485549
0
LINE
8
boundary
62
5
39
2
10
46.855771
20
350.485549
11
45.276649
21
351.000491
0
LINE
8
boundary
62
5
39
2
10
45.276649
20
351.000491
11
43.716213
21
351.485896
0
LINE
8
boundary
62
5
39
2
10
43.716213
20
351.485896
11
42.165411
21
351.942353
0
LINE
8
boundary
62
5
39
2
10
42.165411
20
351.942353
11
40.615670
21
352.370547
0
LINE
8
boundary
62
5
39
2
10
40.615670
20
352.370547
11
39.058014
21
352.770530
0
LINE
8
boundary
62
5
39
2
10
39.058014
20
352.770530
11
37.483533
21
353.143364
0
LINE
8
boundary
62
5
39
2
10
37.483533
20
353.143364
11
35.883401
21
353.489253
0
LINE
8
boundary
62
5
39
2
10
35.883401
20
353.489253
11
34.241801
21
353.806846
0
LINE
8
boundary
62
5
39
2
10
34.241801
20
353.806846
11
32.555740
21
354.098409
0
LINE
8
boundary
62
5
39
2
10
32.555740
20
354.098409
11
30.818330
21
354.364660
0
LINE
8
boundary
62
5
39
2
10
30.818330
20
354.364660
11
29.020827
21
354.606320
0
LINE
8
boundary
62
5
39
2
10
29.020827
20
354.606320
11
27.154563
21
354.824124
0
LINE
8
boundary
62
5
39
2
10
27.154563
20
354.824124
11
25.210767
21
355.018180
0
LINE
8
boundary
62
5
39
2
10
25.210767
20
355.018180
11
25.098309
21
353.947652
0
LINE
8
boundary
62
5
39
2
10
25.098309
20
353.947652
11
23.236048
21
336.086365
0
LINE
8
boundary
62
5
39
2
10
23.236048
20
336.086365
11
23.849454
21
333.670657
0
LINE
8
boundary
62
5
39
2
10
23.849454
20
333.670657
11
27.130468
21
320.718136
0
LINE
8
boundary
62
5
39
2
10
27.130468
20
320.718136
11
36.747621
21
320.718137
0
LINE
8
boundary
62
5
39
2
10
36.747621
20
320.718137
11
36.747621
21
317.972136
0
LINE
8
boundary
62
5
39
2
10
36.747621
20
317.972136
11
27.874356
21
317.972136
0
LINE
8
boundary
62
5
39
2
10
27.874356
20
317.972136
11
32.436448
21
299.771617
0
LINE
8
boundary
62
5
39
2
10
32.436448
20
299.771617
11
33.122461
21
297.642115
0
LINE
8
boundary
62
5
39
2
10
33.122461
20
297.642115
11
33.774519
21
295.505913
0
LINE
8
boundary
62
5
39
2
10
33.774519
20
295.505913
11
34.392663
21
293.363395
0
LINE
8
boundary
62
5
39
2
10
34.392663
20
293.363395
11
34.976659
21
291.214732
0
LINE
8
boundary
62
5
39
2
10
34.976659
20
291.214732
11
35.526871
21
289.059856
0
LINE
8
boundary
62
5
39
2
10
35.526871
20
289.059856
11
36.043206
21
286.899054
0
LINE
8
boundary
62
5
39
2
10
36.043206
20
286.899054
11
36.525794
21
284.732452
0
LINE
8
boundary
62
5
39
2
10
36.525794
20
284.732452
11
36.974462
21
282.560135
0
LINE
8
boundary
62
5
39
2
10
36.974462
20
282.560135
11
37.114824
21
281.823597
0
LINE
8
boundary
62
5
39
2
10
37.114824
20
281.823597
11
37.382767
21
280.386069
0
LINE
8
boundary
62
5
39
2
10
37.382767
20
280.386069
11
37.754621
21
278.208424
0
LINE
8
boundary
62
5
39
2
10
37.754621
20
278.208424
11
38.093540
21
276.024822
0
LINE
8
boundary
62
5
39
2
10
38.093540
20
276.024822
11
38.399543
21
273.835818
0
LINE
8
boundary
62
5
39
2
10
38.399543
20
273.835818
11
38.672908
21
271.641047
0
LINE
8
boundary
62
5
39
2
10
38.672908
20
271.641047
11
38.913582
21
269.440990
0
LINE
8
boundary
62
5
39
2
10
38.913582
20
269.440990
11
39.121704
21
267.235581
0
LINE
8
boundary
62
5
39
2
10
39.121704
20
267.235581
11
39.297290
21
265.024794
0
LINE
8
boundary
62
5
39
2
10
39.297290
20
265.024794
11
39.440651
21
262.808896
0
LINE
8
boundary
62
5
39
2
10
39.440651
20
262.808896
11
39.551705
21
260.588110
0
LINE
8
boundary
62
5
39
2
10
39.551705
20
260.588110
11
39.630624
21
258.362160
0
LINE
8
boundary
62
5
39
2
10
39.630624
20
258.362160
11
39.677734
21
256.131264
0
LINE
8
boundary
62
5
39
2
10
39.677734
20
256.131264
11
39.692994
21
253.895542
0
LINE
8
boundary
62
5
39
2
10
39.692994
20
253.895542
11
39.676599
21
251.655051
0
LINE
8
boundary
62
5
39
2
10
39.676599
20
251.655051
11
39.628641
21
249.409822
0
LINE
8
boundary
62
5
39
2
10
39.628641
20
249.409822
11
39.549490
21
247.160147
0
LINE
8
boundary
62
5
39
2
10
39.549490
20
247.160147
11
39.439173
21
244.905831
0
LINE
8
boundary
62
5
39
2
10
39.439173
20
244.905831
11
39.298070
21
242.647064
0
LINE
8
boundary
62
5
39
2
10
39.298070
20
242.647064
11
39.126170
21
240.383899
0
LINE
8
boundary
62
5
39
2
10
39.126170
20
240.383899
11
38.923895
21
238.116574
0
LINE
8
boundary
62
5
39
2
10
38.923895
20
238.116574
11
38.691431
21
235.844964
0
LINE
8
boundary
62
5
39
2
10
38.691431
20
235.844964
11
38.429006
21
233.569235
0
LINE
8
boundary
62
5
39
2
10
38.429006
20
233.569235
11
38.136873
21
231.289453
0
LINE
8
boundary
62
5
39
2
10
38.136873
20
231.289453
11
37.815461
21
229.005710
0
LINE
8
boundary
62
5
39
2
10
37.815461
20
229.005710
11
37.464950
21
226.718229
0
LINE
8
boundary
62
5
39
2
10
37.464950
20
226.718229
11
37.085712
21
224.426896
0
LINE
8
boundary
62
5
39
2
10
37.085712
20
224.426896
11
36.678080
21
222.131949
0
LINE
8
boundary
62
5
39
2
10
36.678080
20
222.131949
11
36.242319
21
219.833464
0
LINE
8
boundary
62
5
39
2
10
36.242319
20
219.833464
11
35.778883
21
217.531637
0
LINE
8
boundary
62
5
39
2
10
35.778883
20
217.531637
11
35.288279
21
215.226367
0
LINE
8
boundary
62
5
39
2
10
35.288279
20
215.226367
11
34.770825
21
212.918029
0
LINE
8
boundary
62
5
39
2
10
34.770825
20
212.918029
11
34.582367
21
212.117167
0
LINE
8
boundary
62
5
39
2
10
34.582367
20
212.117167
11
34.220447
21
210.612089
0
LINE
8
boundary
62
5
39
2
10
34.220447
20
210.612089
11
33.640273
21
208.306944
0
LINE
8
boundary
62
5
39
2
10
33.640273
20
208.306944
11
33.034157
21
205.999830
0
LINE
8
boundary
62
5
39
2
10
33.034157
20
205.999830
11
32.402688
21
203.690828
0
LINE
8
boundary
62
5
39
2
10
32.402688
20
203.690828
11
31.746373
21
201.380373
0
LINE
8
boundary
62
5
39
2
10
31.746373
20
201.380373
11
31.065756
21
199.068506
0
LINE
8
boundary
62
5
39
2
10
31.065756
20
199.068506
11
30.361409
21
196.755514
0
LINE
8
boundary
62
5
39
2
10
30.361409
20
196.755514
11
29.634061
21
194.441545
0
LINE
8
boundary
62
5
39
2
10
29.634061
20
194.441545
11
28.884244
21
192.126888
0
LINE
8
boundary
62
5
39
2
10
28.884244
20
192.126888
11
28.112739
21
189.811790
0
LINE
8
boundary
62
5
39
2
10
28.112739
20
189.811790
11
27.320052
21
187.496587
0
LINE
8
boundary
62
5
39
2
10
27.320052
20
187.496587
11
26.506999
21
185.181360
0
LINE
8
boundary
62
5
39
2
10
26.506999
20
185.181360
11
25.674319
21
182.866640
0
LINE
8
boundary
62
5
39
2
10
25.674319
20
182.866640
11
24.822686
21
180.552655
0
LINE
8
boundary
62
5
39
2
10
24.822686
20
180.552655
11
23.952828
21
178.239591
0
LINE
8
boundary
62
5
39
2
10
23.952828
20
178.239591
11
23.065655
21
175.927956
0
LINE
8
boundary
62
5
39
2
10
23.065655
20
175.927956
11
22.161931
21
173.618045
0
LINE
8
boundary
62
5
39
2
10
22.161931
20
173.618045
11
21.242506
21
171.310217
0
LINE
8
boundary
62
5
39
2
10
21.242506
20
171.310217
11
20.308107
21
169.004862
0
LINE
8
boundary
62
5
39
2
10
20.308107
20
169.004862
11
19.996674
21
168.258247
0
LINE
8
boundary
62
5
39
2
10
19.996674
20
168.258247
11
18.398088
21
164.403062
0
LINE
8
boundary
62
5
39
2
10
18.398088
20
164.403062
11
18.016299
21
163.513500
0
LINE
8
boundary
62
5
39
2
10
18.016299
20
163.513500
11
16.438919
21
159.816201
0
LINE
8
boundary
62
5
39
2
10
16.438919
20
159.816201
11
15.977273
21
158.767028
0
LINE
8
boundary
62
5
39
2
10
15.977273
20
158.767028
11
14.438019
21
155.247836
0
LINE
8
boundary
62
5
39
2
10
14.438019
20
155.247836
11
14.143902
21
154.016952
0
LINE
8
boundary
62
5
39
2
10
14.143902
20
154.016952
11
13.315563
21
150.527145
0
LINE
8
boundary
62
5
39
2
10
13.315563
20
150.527145
11
12.993224
21
149.134009
0
LINE
8
boundary
62
5
39
2
10
12.993224
20
149.134009
11
12.188872
21
145.633670
0
LINE
8
boundary
62
5
39
2
10
12.188872
20
145.633670
11
12.019905
21
144.874985
0
LINE
8
boundary
62
5
39
2
10
12.019905
20
144.874985
11
11.633071
21
143.125503
0
LINE
8
boundary
62
5
39
2
10
11.633071
20
143.125503
11
11.460331
21
142.323111
0
LINE
8
boundary
62
5
39
2
10
11.460331
20
142.323111
11
11.087475
21
140.578167
0
LINE
8
boundary
62
5
39
2
10
11.087475
20
140.578167
11
10.912438
21
139.731436
0
LINE
8
boundary
62
5
39
2
10
10.912438
20
139.731436
11
10.555780
21
137.993145
0
LINE
8
boundary
62
5
39
2
10
10.555780
20
137.993145
11
10.380101
21
137.101800
0
LINE
8
boundary
62
5
39
2
10
10.380101
20
137.101800
11
10.041780
21
135.371998
0
LINE
8
boundary
62
5
39
2
10
10.041780
20
135.371998
11
9.867391
21
134.436149
0
LINE
8
boundary
62
5
39
2
10
9.867391
20
134.436149
11
9.549467
21
132.716167
0
LINE
8
boundary
62
5
39
2
10
9.549467
20
132.716167
11
9.378426
21
131.736398
0
LINE
8
boundary
62
5
39
2
10
9.378426
20
131.736398
11
9.082569
21
130.027356
0
LINE
8
boundary
62
5
39
2
10
9.082569
20
130.027356
11
8.917175
21
129.004746
0
LINE
8
boundary
62
5
39
2
10
8.917175
20
129.004746
11
8.644988
21
127.307217
0
LINE
8
boundary
62
5
39
2
10
8.644988
20
127.307217
11
8.487729
21
126.243396
0
LINE
8
boundary
62
5
39
2
10
8.487729
20
126.243396
11
8.240839
21
124.557468
0
LINE
8
boundary
62
5
39
2
10
8.240839
20
124.557468
11
8.094243
21
123.454680
0
LINE
8
boundary
62
5
39
2
10
8.094243
20
123.454680
11
7.873812
21
121.779902
0
LINE
8
boundary
62
5
39
2
10
7.873812
20
121.779902
11
7.740567
21
120.641015
0
LINE
8
boundary
62
5
39
2
10
7.740567
20
120.641015
11
7.547960
21
118.976396
0
LINE
8
boundary
62
5
39
2
10
7.547960
20
118.976396
11
7.430837
21
117.804965
0
LINE
8
boundary
62
5
39
2
10
7.430837
20
117.804965
11
7.267309
21
116.149004
0
LINE
8
boundary
62
5
39
2
10
7.267309
20
116.149004
11
7.168934
21
114.949240
0
LINE
8
boundary
62
5
39
2
10
7.168934
20
114.949240
11
7.035637
21
113.299710
0
LINE
8
boundary
62
5
39
2
10
7.035637
20
113.299710
11
6.958645
21
112.076437
0
LINE
8
boundary
62
5
39
2
10
6.958645
20
112.076437
11
6.856905
21
110.430697
0
LINE
8
boundary
62
5
39
2
10
6.856905
20
110.430697
11
6.803746
21
109.189415
0
LINE
8
boundary
62
5
39
2
10
6.803746
20
109.189415
11
6.735074
21
107.544084
0
LINE
8
boundary
62
5
39
2
10
6.735074
20
107.544084
11
6.707959
21
106.290857
0
LINE
8
boundary
62
5
39
2
10
6.707959
20
106.290857
11
6.674005
21
104.642269
0
LINE
8
boundary
62
5
39
2
10
6.674005
20
104.642269
11
6.670851
21
104.013726
0
LINE
8
boundary
62
5
39
2
10
6.670851
20
104.013726
11
6.667500
21
103.186427
0
LINE
8
boundary
62
5
39
2
10
6.667500
20
103.186427
11
6.671484
21
102.557275
0
LINE
8
boundary
62
5
39
2
10
6.671484
20
102.557275
11
6.677574
21
101.727710
0
LINE
8
boundary
62
5
39
2
10
6.677574
20
101.727710
11
6.689008
21
101.098803
0
LINE
8
boundary
62
5
39
2
10
6.689008
20
101.098803
11
6.704914
21
100.266396
0
LINE
8
boundary
62
5
39
2
10
6.704914
20
100.266396
11
6.723808
21
99.638683
0
LINE
8
boundary
62
5
39
2
10
6.723808
20
99.638683
11
6.749720
21
98.802890
0
LINE
8
boundary
62
5
39
2
10
6.749720
20
98.802890
11
6.776235
21
98.177302
0
LINE
8
boundary
62
5
39
2
10
6.776235
20
98.177302
11
6.812594
21
97.337540
0
LINE
8
boundary
62
5
39
2
10
6.812594
20
97.337540
11
6.846842
21
96.714955
0
LINE
8
boundary
62
5
39
2
10
6.846842
20
96.714955
11
6.894027
21
95.870584
0
LINE
8
boundary
62
5
39
2
10
6.894027
20
95.870584
11
6.936108
21
95.251973
0
LINE
8
boundary
62
5
39
2
10
6.936108
20
95.251973
11
6.994614
21
94.402437
0
LINE
8
boundary
62
5
39
2
10
6.994614
20
94.402437
11
7.044431
21
93.788735
0
LINE
8
boundary
62
5
39
2
10
7.044431
20
93.788735
11
7.114563
21
92.933420
0
LINE
8
boundary
62
5
39
2
10
7.114563
20
92.933420
11
7.172130
21
92.325619
0
LINE
8
boundary
62
5
39
2
10
7.172130
20
92.325619
11
7.254447
21
91.464027
0
LINE
8
boundary
62
5
39
2
10
7.254447
20
91.464027
11
7.319700
21
90.862943
0
LINE
8
boundary
62
5
39
2
10
7.319700
20
90.862943
11
7.414622
21
89.994412
0
LINE
8
boundary
62
5
39
2
10
7.414622
20
89.994412
11
7.487484
21
89.401084
0
LINE
8
boundary
62
5
39
2
10
7.487484
20
89.401084
11
7.595741
21
88.525174
0
LINE
8
boundary
62
5
39
2
10
7.595741
20
88.525174
11
7.676078
21
87.940483
0
LINE
8
boundary
62
5
39
2
10
7.676078
20
87.940483
11
7.798164
21
87.056646
0
LINE
8
boundary
62
5
39
2
10
7.798164
20
87.056646
11
7.885774
21
86.481434
0
LINE
8
boundary
62
5
39
2
10
7.885774
20
86.481434
11
8.022312
21
85.589173
0
LINE
8
boundary
62
5
39
2
10
8.022312
20
85.589173
11
8.116989
21
85.024318
0
LINE
8
boundary
62
5
39
2
10
8.116989
20
85.024318
11
8.268657
21
84.123184
0
LINE
8
boundary
62
5
39
2
10
8.268657
20
84.123184
11
8.370125
21
83.569483
0
LINE
8
boundary
62
5
39
2
10
8.370125
20
83.569483
11
8.537568
21
82.659121
0
LINE
8
boundary
62
5
39
2
10
8.537568
20
82.659121
11
8.645518
21
82.117385
0
LINE
8
boundary
62
5
39
2
10
8.645518
20
82.117385
11
8.829455
21
81.197390
0
LINE
8
boundary
62
5
39
2
10
8.829455
20
81.197390
11
8.943688
21
80.668356
0
LINE
8
boundary
62
5
39
2
10
8.943688
20
80.668356
11
9.145019
21
79.738489
0
LINE
8
boundary
62
5
39
2
10
9.145019
20
79.738489
11
9.265011
21
79.222825
0
LINE
8
boundary
62
5
39
2
10
9.265011
20
79.222825
11
9.484402
21
78.282788
0
LINE
8
boundary
62
5
39
2
10
9.484402
20
78.282788
11
9.609811
21
77.781161
0
LINE
8
boundary
62
5
39
2
10
9.609811
20
77.781161
11
9.847957
21
76.830808
0
LINE
8
boundary
62
5
39
2
10
9.847957
20
76.830808
11
10.236369
21
75.383006
0
LINE
8
boundary
62
5
39
2
10
10.236369
20
75.383006
11
10.649780
21
73.939755
0
LINE
8
boundary
62
5
39
2
10
10.649780
20
73.939755
11
11.088884
21
72.501702
0
LINE
8
boundary
62
5
39
2
10
11.088884
20
72.501702
11
11.553873
21
71.069286
0
LINE
8
boundary
62
5
39
2
10
11.553873
20
71.069286
11
12.044990
21
69.642971
0
LINE
8
boundary
62
5
39
2
10
12.044990
20
69.642971
11
12.562911
21
68.223321
0
LINE
8
boundary
62
5
39
2
10
12.562911
20
68.223321
11
13.107836
21
66.810869
0
LINE
8
boundary
62
5
39
2
10
13.107836
20
66.810869
11
13.408413
21
65.716514
0
LINE
8
boundary
62
5
39
2
10
13.408413
20
65.716514
11
14.266592
21
62.602300
0
LINE
8
boundary
62
5
39
2
10
14.266592
20
62.602300
11
14.557405
21
61.544123
0
LINE
8
boundary
62
5
39
2
10
14.557405
20
61.544123
11
15.488849
21
58.167549
0
LINE
8
boundary
62
5
39
2
10
15.488849
20
58.167549
11
15.632759
21
57.658947
0
LINE
8
boundary
62
5
39
2
10
15.632759
20
57.658947
11
16.137581
21
55.881526
0
LINE
8
boundary
62
5
39
2
10
16.137581
20
55.881526
11
16.281408
21
55.389564
0
LINE
8
boundary
62
5
39
2
10
16.281408
20
55.389564
11
16.818769
21
53.558785
0
LINE
8
boundary
62
5
39
2
10
16.818769
20
53.558785
11
17.537517
21
51.206239
0
LINE
8
boundary
62
5
39
2
10
17.537517
20
51.206239
11
18.299358
21
48.831016
0
LINE
8
boundary
62
5
39
2
10
18.299358
20
48.831016
11
19.109522
21
46.440480
0
LINE
8
boundary
62
5
39
2
10
19.109522
20
46.440480
11
19.973104
21
44.042149
0
LINE
8
boundary
62
5
39
2
10
19.973104
20
44.042149
11
20.895298
21
41.643835
0
LINE
8
boundary
62
5
39
2
10
20.895298
20
41.643835
11
21.379943
21
40.447148
0
LINE
8
boundary
62
5
39
2
10
21.379943
20
40.447148
11
21.881153
21
39.253452
0
LINE
8
boundary
62
5
39
2
10
21.881153
20
39.253452
11
22.399530
21
38.063797
0
LINE
8
boundary
62
5
39
2
10
22.399530
20
38.063797
11
22.935554
21
36.879200
0
LINE
8
boundary
62
5
39
2
10
22.935554
20
36.879200
11
23.489981
21
35.700724
0
LINE
8
boundary
62
5
39
2
10
23.489981
20
35.700724
11
24.063403
21
34.529461
0
LINE
8
boundary
62
5
39
2
10
24.063403
20
34.529461
11
24.656426
21
33.366448
0
LINE
8
boundary
62
5
39
2
10
24.656426
20
33.366448
11
25.269519
21
32.212872
0
LINE
8
boundary
62
5
39
2
10
25.269519
20
32.212872
11
25.903340
21
31.069678
0
LINE
8
boundary
62
5
39
2
10
25.903340
20
31.069678
11
26.558463
21
29.938063
0
LINE
8
annotation
62
1
39
211
10
43.407720
20
316.945136
11
43.407720
21
321.745136
0
LINE
8
annotation
62
1
39
211
10
43.407720
20
321.745136
11
42.340618
21
320.677734
0
LINE
8
annotation
62
1
39
211
10
49.241648
20
400.256813
11
47.198904
21
400.256813
0
LINE
8
annotation
62
1
39
211
10
47.198904
20
400.256813
11
49.086467
21
403.295546
0
LINE
8
annotation
62
1
39
211
10
49.086467
20
403.295546
11
49.086467
21
403.295546
0
LINE
8
annotation
62
1
39
211
10
49.086467
20
403.295546
11
49.088723
21
403.298338
0
LINE
8
annotation
62
1
39
211
10
49.088723
20
403.298338
11
49.090887
21
403.301154
0
LINE
8
annotation
62
1
39
211
10
49.090887
20
403.301154
11
49.092973
21
403.304018
0
LINE
8
annotation
62
1
39
211
10
49.092973
20
403.304018
11
49.094994
21
403.306952
0
LINE
8
annotation
62
1
39
211
10
49.094994
20
403.306952
11
49.096966
21
403.309982
0
LINE
8
annotation
62
1
39
211
10
49.096966
20
403.309982
11
49.098902
21
403.313130
0
LINE
8
annotation
62
1
39
211
10
49.098902
20
403.313130
11
49.100816
21
403.316421
0
LINE
8
annotation
62
1
39
211
10
49.100816
20
403.316421
11
49.102724
21
403.319878
0
LINE
8
annotation
62
1
39
211
10
49.102724
20
403.319878
11
49.104639
21
403.323525
0
LINE
8
annotation
62
1
39
211
10
49.104639
20
403.323525
11
49.104639
21
403.323525
0
LINE
8
annotation
62
1
39
211
10
49.104639
20
403.323525
11
49.182576
21
403.490862
0
LINE
8
annotation
62
1
39
211
10
49.182576
20
403.490862
11
49.228105
21
403.664322
0
LINE
8
annotation
62
1
39
211
10
49.228105
20
403.664322
11
49.242343
21
403.839985
0
LINE
8
annotation
62
1
39
211
10
49.242343
20
403.839985
11
49.226405
21
404.013931
0
LINE
8
annotation
62
1
39
211
10
49.226405
20
404.013931
11
49.181406
21
404.182242
0
LINE
8
annotation
62
1
39
211
10
49.181406
20
404.182242
11
49.108463
21
404.340997
0
LINE
8
annotation
62
1
39
211
10
49.108463
20
404.340997
11
49.008692
21
404.486278
0
LINE
8
annotation
62
1
39
211
10
49.008692
20
404.486278
11
48.883207
21
404.614164
0
LINE
8
annotation
62
1
39
211
10
48.883207
20
404.614164
11
48.733126
21
404.720736
0
LINE
8
annotation
62
1
39
211
10
48.733126
20
404.720736
11
48.733126
21
404.720736
0
LINE
8
annotation
62
1
39
211
10
48.733126
20
404.720736
11
48.565323
21
404.797566
0
LINE
8
annotation
62
1
39
211
10
48.565323
20
404.797566
11
48.391597
21
404.842394
0
LINE
8
annotation
62
1
39
211
10
48.391597
20
404.842394
11
48.215832
21
404.856229
0
LINE
8
annotation
62
1
39
211
10
48.215832
20
404.856229
11
48.041912
21
404.840081
0
LINE
8
annotation
62
1
39
211
10
48.041912
20
404.840081
11
47.873720
21
404.794958
0
LINE
8
annotation
62
1
39
211
10
47.873720
20
404.794958
11
47.715140
21
404.721869
0
LINE
8
annotation
62
1
39
211
10
47.715140
20
404.721869
11
47.570057
21
404.621823
0
LINE
8
annotation
62
1
39
211
10
47.570057
20
404.621823
11
47.442354
21
404.495829
0
LINE
8
annotation
62
1
39
211
10
47.442354
20
404.495829
11
47.335914
21
404.344897
0
LINE
8
annotation
62
1
39
211
10
47.335914
20
404.344897
11
47.201789
21
404.087607
0
LINE
8
annotation
62
1
39
211
10
80.357580
20
356.199592
11
77.919215
21
352.672720
0
LINE
8
annotation
62
1
39
211
10
77.919215
20
352.672720
11
75.480392
21
356.199592
0
LINE
8
annotation
62
1
39
211
10
77.919215
20
352.956539
11
77.919215
21
348.887707
0
LINE
8
annotation
62
1
39
211
10
87.098044
20
352.543649
11
83.100282
21
352.543649
0
LINE
8
annotation
62
1
39
211
10
89.839141
20
348.888165
11
91.462731
21
348.888165
0
LINE
8
annotation
62
1
39
211
10
91.462731
20
348.888165
11
91.462731
21
348.888165
0
LINE
8
annotation
62
1
39
211
10
91.462731
20
348.888165
11
91.754737
21
348.914360
0
LINE
8
annotation
62
1
39
211
10
91.754737
20
348.914360
11
92.029505
21
348.989856
0
LINE
8
annotation
62
1
39
211
10
92.029505
20
348.989856
11
92.282465
21
349.110017
0
LINE
8
annotation
62
1
39
211
10
92.282465
20
349.110017
11
92.509045
21
349.270211
0
LINE
8
annotation
62
1
39
211
10
92.509045
20
349.270211
11
92.704678
21
349.465802
0
LINE
8
annotation
62
1
39
211
10
92.704678
20
349.465802
11
92.864791
21
349.692157
0
LINE
8
annotation
62
1
39
211
10
92.864791
20
349.692157
11
92.984816
21
349.944642
0
LINE
8
annotation
62
1
39
211
10
92.984816
20
349.944642
11
93.060183
21
350.218622
0
LINE
8
annotation
62
1
39
211
10
93.060183
20
350.218622
11
93.086320
21
350.509463
0
LINE
8
annotation
62
1
39
211
10
93.086320
20
350.509463
11
93.086320
21
351.322404
0
LINE
8
annotation
62
1
39
211
10
93.086320
20
351.322404
11
93.086320
21
351.322404
0
LINE
8
annotation
62
1
39
211
10
93.086320
20
351.322404
11
93.060183
21
351.613124
0
LINE
8
annotation
62
1
39
211
10
93.060183
20
351.613124
11
92.984816
21
351.887040
0
LINE
8
annotation
62
1
39
211
10
92.984816
20
351.887040
11
92.864791
21
352.139505
0
LINE
8
annotation
62
1
39
211
10
92.864791
20
352.139505
11
92.704678
21
352.365875
0
LINE
8
annotation
62
1
39
211
10
92.704678
20
352.365875
11
92.509045
21
352.561504
0
LINE
8
annotation
62
1
39
211
10
92.509045
20
352.561504
11
92.282465
21
352.721747
0
LINE
8
annotation
62
1
39
211
10
92.282465
20
352.721747
11
92.029505
21
352.841958
0
LINE
8
annotation
62
1
39
211
10
92.029505
20
352.841958
11
91.754737
21
352.917491
0
LINE
8
annotation
62
1
39
211
10
91.754737
20
352.917491
11
91.462731
21
352.943701
0
LINE
8
annotation
62
1
39
211
10
91.462731
20
352.943701
11
90.649790
21
352.943701
0
LINE
8
annotation
62
1
39
211
10
90.649790
20
352.943701
11
91.462731
21
352.943701
0
LINE
8
annotation
62
1
39
211
10
91.462731
20
352.943701
11
91.462731
21
352.943701
0
LINE
8
annotation
62
1
39
211
10
91.462731
20
352.943701
11
91.754737
21
352.969917
0
LINE
8
annotation
62
1
39
211
10
91.754737
20
352.969917
11
92.029505
21
353.045494
0
LINE
8
annotation
62
1
39
211
10
92.029505
20
353.045494
11
92.282465
21
353.165824
0
LINE
8
annotation
62
1
39
211
10
92.282465
20
353.165824
11
92.509045
21
353.326299
0
LINE
8
annotation
62
1
39
211
10
92.509045
20
353.326299
11
92.704678
21
353.522312
0
LINE
8
annotation
62
1
39
211
10
92.704678
20
353.522312
11
92.864791
21
353.749255
0
LINE
8
annotation
62
1
39
211
10
92.864791
20
353.749255
11
92.984816
21
354.002519
0
LINE
8
annotation
62
1
39
211
10
92.984816
20
354.002519
11
93.060183
21
354.277498
0
LINE
8
annotation
62
1
39
211
10
93.060183
20
354.277498
11
93.086320
21
354.569583
0
LINE
8
annotation
62
1
39
211
10
93.086320
20
354.569583
11
93.086320
21
354.569583
0
LINE
8
annotation
62
1
39
211
10
93.086320
20
354.569583
11
93.060183
21
354.860303
0
LINE
8
annotation
62
1
39
211
10
93.060183
20
354.860303
11
92.984816
21
355.134219
0
LINE
8
annotation
62
1
39
211
10
92.984816
20
355.134219
11
92.864791
21
355.386684
0
LINE
8
annotation
62
1
39
211
10
92.864791
20
355.386684
11
92.704678
21
355.613055
0
LINE
8
annotation
62
1
39
211
10
92.704678
20
355.613055
11
92.509045
21
355.808684
0
LINE
8
annotation
62
1
39
211
10
92.509045
20
355.808684
11
92.282465
21
355.968926
0
LINE
8
annotation
62
1
39
211
10
92.282465
20
355.968926
11
92.029505
21
356.089137
0
LINE
8
annotation
62
1
39
211
10
92.029505
20
356.089137
11
91.754737
21
356.164670
0
LINE
8
annotation
62
1
39
211
10
91.754737
20
356.164670
11
91.462731
21
356.190880
0
LINE
8
annotation
62
1
39
211
10
91.462731
20
356.190880
11
89.839141
21
356.190880
0
LINE
8
frame
62
5
39
2
10
0.000000
20
0.000000
11
215.900000
21
0.000000
0
LINE
8
frame
62
5
39
2
10
215.900000
20
0.000000
11
215.900000
21
279.400000
0
LINE
8
frame
62
5
39
2
10
215.900000
20
279.400000
11
0.000000
21
279.400000
0
LINE
8
frame
62
5
39
2
10
0.000000
20
279.400000
11
0.000000
21
0.000000
0
ENDSEC
0
EOF
