0
SECTION
2
HEADER
9
$ACADVER
1
AC1009
0
ENDSEC
0
SECTION
2
TABLES
0
TABLE
2
VPORT
70
1
0
VPORT
2
ACTIVE
70
0
10
0.0
20
0.0
11
0.0
21
0.0
12
0.0
22
0.0
13
0.0
23
0.0
14
0.0
24
0.0
15
0.0
25
0.0
16
0.0
26
0.0
36
0.0
17
0.0
27
0.0
37
0.0
40
0.0
41
0.0
42
0.0
43
0.0
44
0.0
50
0.0
51
0.0
71
0
72
1000
73
1
74
3
75
0
76
0
77
0
78
0
0
ENDTAB
0
ENDSEC
0
SECTION
2
ENTITIES
0
LINE
8
boundary
62
5
39
2
10
51.309939
20
9.313263
11
52.189853
21
9.016085
0
LINE
8
boundary
62
5
39
2
10
52.189853
20
9.016085
11
52.761804
21
8.846753
0
LINE
8
boundary
62
5
39
2
10
52.761804
20
8.846753
11
53.667537
21
8.572747
0
LINE
8
boundary
62
5
39
2
10
53.667537
20
8.572747
11
54.250837
21
8.419977
0
LINE
8
boundary
62
5
39
2
10
54.250837
20
8.419977
11
55.183055
21
8.169829
0
LINE
8
boundary
62
5
39
2
10
55.183055
20
8.169829
11
55.777569
21
8.033832
0
LINE
8
boundary
62
5
39
2
10
55.777569
20
8.033832
11
56.736815
21
7.808108
0
LINE
8
boundary
62
5
39
2
10
56.736815
20
7.808108
11
57.342405
21
7.688995
0
LINE
8
boundary
62
5
39
2
10
57.342405
20
7.688995
11
58.329353
21
7.488305
0
LINE
8
boundary
62
5
39
2
10
58.329353
20
7.488305
11
58.945813
21
7.386215
0
LINE
8
boundary
62
5
39
2
10
58.945813
20
7.386215
11
59.960894
21
7.211162
0
LINE
8
boundary
62
5
39
2
10
59.960894
20
7.211162
11
60.588135
21
7.126155
0
LINE
8
boundary
62
5
39
2
10
60.588135
20
7.126155
11
61.632038
21
6.977274
0
LINE
8
boundary
62
5
39
2
10
61.632038
20
6.977274
11
62.269914
21
6.909365
0
LINE
8
boundary
62
5
39
2
10
62.269914
20
6.909365
11
63.343045
21
6.787242
0
LINE
8
boundary
62
5
39
2
10
63.343045
20
6.787242
11
63.927987
21
6.677902
0
LINE
8
boundary
62
5
39
2
10
63.927987
20
6.677902
11
64.640300
21
6.684785
0
LINE
8
boundary
62
5
39
2
10
64.640300
20
6.684785
11
65.174926
21
6.751328
0
LINE
8
boundary
62
5
39
2
10
65.174926
20
6.751328
11
65.749990
21
6.865479
0
LINE
8
boundary
62
5
39
2
10
65.749990
20
6.865479
11
66.358824
21
7.025616
0
LINE
8
boundary
62
5
39
2
10
66.358824
20
7.025616
11
66.995029
21
7.230073
0
LINE
8
boundary
62
5
39
2
10
66.995029
20
7.230073
11
67.652045
21
7.477198
0
LINE
8
boundary
62
5
39
2
10
67.652045
20
7.477198
11
68.323489
21
7.765286
0
LINE
8
boundary
62
5
39
2
10
68.323489
20
7.765286
11
69.002859
21
8.092649
0
LINE
8
boundary
62
5
39
2
10
69.002859
20
8.092649
11
69.683718
21
8.457701
0
LINE
8
boundary
62
5
39
2
10
69.683718
20
8.457701
11
70.359815
21
8.858842
0
LINE
8
boundary
62
5
39
2
10
70.359815
20
8.858842
11
71.024594
21
9.294361
0
LINE
8
boundary
62
5
39
2
10
71.024594
20
9.294361
11
71.671692
21
9.762718
0
LINE
8
boundary
62
5
39
2
10
71.671692
20
9.762718
11
72.294884
21
10.262488
0
LINE
8
boundary
62
5
39
2
10
72.294884
20
10.262488
11
72.887674
21
10.791998
0
LINE
8
boundary
62
5
39
2
10
72.887674
20
10.791998
11
73.269069
21
11.171651
0
LINE
8
boundary
62
5
39
2
10
73.269069
20
11.171651
11
73.706159
21
11.639131
0
LINE
8
boundary
62
5
39
2
10
73.706159
20
11.639131
11
74.042487
21
12.046217
0
LINE
8
boundary
62
5
39
2
10
74.042487
20
12.046217
11
74.420672
21
12.545295
0
LINE
8
boundary
62
5
39
2
10
74.420672
20
12.545295
11
74.702167
21
12.977810
0
LINE
8
boundary
62
5
39
2
10
74.702167
20
12.977810
11
75.009760
21
13.506110
0
LINE
8
boundary
62
5
39
2
10
75.009760
20
13.506110
11
75.322332
21
14.174805
0
LINE
8
boundary
62
5
39
2
10
75.322332
20
14.174805
11
75.563227
21
14.864606
0
LINE
8
boundary
62
5
39
2
10
75.563227
20
14.864606
11
75.726301
21
15.574282
0
LINE
8
boundary
62
5
39
2
10
75.726301
20
15.574282
11
75.804827
21
16.302729
0
LINE
8
boundary
62
5
39
2
10
75.804827
20
16.302729
11
75.801264
21
16.812740
0
LINE
8
boundary
62
5
39
2
10
75.801264
20
16.812740
11
75.750230
21
17.428055
0
LINE
8
boundary
62
5
39
2
10
75.750230
20
17.428055
11
75.645377
21
17.955291
0
LINE
8
boundary
62
5
39
2
10
75.645377
20
17.955291
11
75.469222
21
18.589319
0
LINE
8
boundary
62
5
39
2
10
75.469222
20
18.589319
11
75.252803
21
19.132201
0
LINE
8
boundary
62
5
39
2
10
75.252803
20
19.132201
11
74.939682
21
19.782931
0
LINE
8
boundary
62
5
39
2
10
74.939682
20
19.782931
11
74.601045
21
20.339919
0
LINE
8
boundary
62
5
39
2
10
74.601045
20
20.339919
11
74.139111
21
21.005396
0
LINE
8
boundary
62
5
39
2
10
74.139111
20
21.005396
11
73.808169
21
21.418695
0
LINE
8
boundary
62
5
39
2
10
73.808169
20
21.418695
11
73.443595
21
21.834665
0
LINE
8
boundary
62
5
39
2
10
73.443595
20
21.834665
11
73.044783
21
22.253276
0
LINE
8
boundary
62
5
39
2
10
73.044783
20
22.253276
11
72.192158
21
22.332598
0
LINE
8
boundary
62
5
39
2
10
72.192158
20
22.332598
11
71.332520
21
22.439421
0
LINE
8
boundary
62
5
39
2
10
71.332520
20
22.439421
11
70.466257
21
22.573694
0
LINE
8
boundary
62
5
39
2
10
70.466257
20
22.573694
11
69.593888
21
22.735429
0
LINE
8
boundary
62
5
39
2
10
69.593888
20
22.735429
11
68.715948
21
22.924649
0
LINE
8
boundary
62
5
39
2
10
68.715948
20
22.924649
11
67.832860
21
23.141288
0
LINE
8
boundary
62
5
39
2
10
67.832860
20
23.141288
11
66.945210
21
23.385313
0
LINE
8
boundary
62
5
39
2
10
66.945210
20
23.385313
11
66.053397
21
23.656739
0
LINE
8
boundary
62
5
39
2
10
66.053397
20
23.656739
11
65.157786
21
23.955513
0
LINE
8
boundary
62
5
39
2
10
65.157786
20
23.955513
11
64.259210
21
24.281641
0
LINE
8
boundary
62
5
39
2
10
64.259210
20
24.281641
11
63.357891
21
24.634984
0
LINE
8
boundary
62
5
39
2
10
63.357891
20
24.634984
11
62.454535
21
25.015633
0
LINE
8
boundary
62
5
39
2
10
62.454535
20
25.015633
11
61.549423
21
25.423450
0
LINE
8
boundary
62
5
39
2
10
61.549423
20
25.423450
11
60.643237
21
25.858435
0
LINE
8
boundary
62
5
39
2
10
60.643237
20
25.858435
11
59.736431
21
26.320478
0
LINE
8
boundary
62
5
39
2
10
59.736431
20
26.320478
11
58.829556
21
26.809525
0
LINE
8
boundary
62
5
39
2
10
58.829556
20
26.809525
11
57.923169
21
27.325592
0
LINE
8
boundary
62
5
39
2
10
57.923169
20
27.325592
11
57.017888
21
27.868517
0
LINE
8
boundary
62
5
39
2
10
57.017888
20
27.868517
11
56.114049
21
28.438247
0
LINE
8
boundary
62
5
39
2
10
56.114049
20
28.438247
11
55.212257
21
29.034696
0
LINE
8
boundary
62
5
39
2
10
55.212257
20
29.034696
11
54.313118
21
29.657749
0
LINE
8
boundary
62
5
39
2
10
54.313118
20
29.657749
11
53.417186
21
30.307355
0
LINE
8
boundary
62
5
39
2
10
53.417186
20
30.307355
11
52.524852
21
30.983287
0
LINE
8
boundary
62
5
39
2
10
52.524852
20
30.983287
11
51.636823
21
31.685516
0
LINE
8
boundary
62
5
39
2
10
51.636823
20
31.685516
11
50.753634
21
32.413957
0
LINE
8
boundary
62
5
39
2
10
50.753634
20
32.413957
11
49.875829
21
33.168363
0
LINE
8
boundary
62
5
39
2
10
49.875829
20
33.168363
11
49.004020
21
33.948653
0
LINE
8
boundary
62
5
39
2
10
49.004020
20
33.948653
11
48.138553
21
34.754644
0
LINE
8
boundary
62
5
39
2
10
48.138553
20
34.754644
11
47.280310
21
35.586232
0
LINE
8
boundary
62
5
39
2
10
47.280310
20
35.586232
11
46.429610
21
36.443170
0
LINE
8
boundary
62
5
39
2
10
46.429610
20
36.443170
11
45.587106
21
37.325337
0
LINE
8
boundary
62
5
39
2
10
45.587106
20
37.325337
11
44.753369
21
38.232515
0
LINE
8
boundary
62
5
39
2
10
44.753369
20
38.232515
11
43.929008
21
39.164517
0
LINE
8
boundary
62
5
39
2
10
43.929008
20
39.164517
11
43.114560
21
40.121165
0
LINE
8
boundary
62
5
39
2
10
43.114560
20
40.121165
11
42.310602
21
41.102187
0
LINE
8
boundary
62
5
39
2
10
42.310602
20
41.102187
11
41.517745
21
42.107457
0
LINE
8
boundary
62
5
39
2
10
41.517745
20
42.107457
11
40.736524
21
43.136640
0
LINE
8
boundary
62
5
39
2
10
40.736524
20
43.136640
11
39.967582
21
44.189579
0
LINE
8
boundary
62
5
39
2
10
39.967582
20
44.189579
11
39.211331
21
45.265959
0
LINE
8
boundary
62
5
39
2
10
39.211331
20
45.265959
11
38.468440
21
46.365515
0
LINE
8
boundary
62
5
39
2
10
38.468440
20
46.365515
11
37.739446
21
47.488073
0
LINE
8
boundary
62
5
39
2
10
37.739446
20
47.488073
11
37.024936
21
48.633304
0
LINE
8
boundary
62
5
39
2
10
37.024936
20
48.633304
11
36.325624
21
49.800944
0
LINE
8
boundary
62
5
39
2
10
36.325624
20
49.800944
11
35.641761
21
50.990696
0
LINE
8
boundary
62
5
39
2
10
35.641761
20
50.990696
11
34.974298
21
52.202284
0
LINE
8
boundary
62
5
39
2
10
34.974298
20
52.202284
11
34.323542
21
53.435380
0
LINE
8
boundary
62
5
39
2
10
34.323542
20
53.435380
11
33.690028
21
54.689666
0
LINE
8
boundary
62
5
39
2
10
33.690028
20
54.689666
11
33.074441
21
55.964863
0
LINE
8
boundary
62
5
39
2
10
33.074441
20
55.964863
11
32.477304
21
57.260632
0
LINE
8
boundary
62
5
39
2
10
32.477304
20
57.260632
11
31.899118
21
58.576659
0
LINE
8
boundary
62
5
39
2
10
31.899118
20
58.576659
11
31.340555
21
59.912590
0
LINE
8
boundary
62
5
39
2
10
31.340555
20
59.912590
11
30.802013
21
61.268056
0
LINE
8
boundary
62
5
39
2
10
30.802013
20
61.268056
11
30.284162
21
62.642811
0
LINE
8
boundary
62
5
39
2
10
30.284162
20
62.642811
11
29.787346
21
64.036418
0
LINE
8
boundary
62
5
39
2
10
29.787346
20
64.036418
11
29.312294
21
65.448520
0
LINE
8
boundary
62
5
39
2
10
29.312294
20
65.448520
11
28.859529
21
66.878798
0
LINE
8
boundary
62
5
39
2
10
28.859529
20
66.878798
11
28.429404
21
68.326886
0
LINE
8
boundary
62
5
39
2
10
28.429404
20
68.326886
11
28.022644
21
69.792416
0
LINE
8
boundary
62
5
39
2
10
28.022644
20
69.792416
11
27.639646
21
71.274943
0
LINE
8
boundary
62
5
39
2
10
27.639646
20
71.274943
11
27.280964
21
72.774164
0
LINE
8
boundary
62
5
39
2
10
27.280964
20
72.774164
11
26.947032
21
74.289718
0
LINE
8
boundary
62
5
39
2
10
26.947032
20
74.289718
11
26.638273
21
75.821119
0
LINE
8
boundary
62
5
39
2
10
26.638273
20
75.821119
11
26.355444
21
77.368090
0
LINE
8
boundary
62
5
39
2
10
26.355444
20
77.368090
11
26.098980
21
78.930182
0
LINE
8
boundary
62
5
39
2
10
26.098980
20
78.930182
11
25.792224
21
80.147396
0
LINE
8
boundary
62
5
39
2
10
25.792224
20
80.147396
11
25.501872
21
81.364499
0
LINE
8
boundary
62
5
39
2
10
25.501872
20
81.364499
11
25.227452
21
82.581446
0
LINE
8
boundary
62
5
39
2
10
25.227452
20
82.581446
11
24.969007
21
83.798122
0
LINE
8
boundary
62
5
39
2
10
24.969007
20
83.798122
11
24.726259
21
85.014396
0
LINE
8
boundary
62
5
39
2
10
24.726259
20
85.014396
11
24.498970
21
86.230253
0
LINE
8
boundary
62
5
39
2
10
24.498970
20
86.230253
11
24.407463
21
86.757996
0
LINE
8
boundary
62
5
39
2
10
24.407463
20
86.757996
11
24.090283
21
88.660157
0
LINE
8
boundary
62
5
39
2
10
24.090283
20
88.660157
11
24.015181
21
89.164475
0
LINE
8
boundary
62
5
39
2
10
24.015181
20
89.164475
11
23.741322
21
91.087233
0
LINE
8
boundary
62
5
39
2
10
23.741322
20
91.087233
11
23.450874
21
93.510725
0
LINE
8
boundary
62
5
39
2
10
23.450874
20
93.510725
11
23.217247
21
95.930041
0
LINE
8
boundary
62
5
39
2
10
23.217247
20
95.930041
11
23.038955
21
98.344714
0
LINE
8
boundary
62
5
39
2
10
23.038955
20
98.344714
11
22.914681
21
100.754050
0
LINE
8
boundary
62
5
39
2
10
22.914681
20
100.754050
11
22.842890
21
103.157531
0
LINE
8
boundary
62
5
39
2
10
22.842890
20
103.157531
11
22.821896
21
105.554734
0
LINE
8
boundary
62
5
39
2
10
22.821896
20
105.554734
11
22.850265
21
107.945057
0
LINE
8
boundary
62
5
39
2
10
22.850265
20
107.945057
11
22.926507
21
110.328152
0
LINE
8
boundary
62
5
39
2
10
22.926507
20
110.328152
11
23.049146
21
112.703550
0
LINE
8
boundary
62
5
39
2
10
23.049146
20
112.703550
11
23.216669
21
115.070770
0
LINE
8
boundary
62
5
39
2
10
23.216669
20
115.070770
11
23.427648
21
117.429600
0
LINE
8
boundary
62
5
39
2
10
23.427648
20
117.429600
11
23.680433
21
119.779536
0
LINE
8
boundary
62
5
39
2
10
23.680433
20
119.779536
11
23.973591
21
122.120289
0
LINE
8
boundary
62
5
39
2
10
23.973591
20
122.120289
11
24.305583
21
124.451540
0
LINE
8
boundary
62
5
39
2
10
24.305583
20
124.451540
11
24.674999
21
126.773009
0
LINE
8
boundary
62
5
39
2
10
24.674999
20
126.773009
11
25.080401
21
129.084427
0
LINE
8
boundary
62
5
39
2
10
25.080401
20
129.084427
11
25.520193
21
131.385441
0
LINE
8
boundary
62
5
39
2
10
25.520193
20
131.385441
11
25.992807
21
133.675905
0
LINE
8
boundary
62
5
39
2
10
25.992807
20
133.675905
11
26.496995
21
135.955542
0
LINE
8
boundary
62
5
39
2
10
26.496995
20
135.955542
11
27.031276
21
138.224183
0
LINE
8
boundary
62
5
39
2
10
27.031276
20
138.224183
11
27.594074
21
140.481673
0
LINE
8
boundary
62
5
39
2
10
27.594074
20
140.481673
11
28.183987
21
142.727712
0
LINE
8
boundary
62
5
39
2
10
28.183987
20
142.727712
11
28.799556
21
144.962257
0
LINE
8
boundary
62
5
39
2
10
28.799556
20
144.962257
11
29.439304
21
147.185126
0
LINE
8
boundary
62
5
39
2
10
29.439304
20
147.185126
11
30.101991
21
149.396187
0
LINE
8
boundary
62
5
39
2
10
30.101991
20
149.396187
11
30.786008
21
151.595365
0
LINE
8
boundary
62
5
39
2
10
30.786008
20
151.595365
11
31.489986
21
153.782477
0
LINE
8
boundary
62
5
39
2
10
31.489986
20
153.782477
11
32.212529
21
155.957573
0
LINE
8
boundary
62
5
39
2
10
32.212529
20
155.957573
11
32.952315
21
158.120431
0
LINE
8
boundary
62
5
39
2
10
32.952315
20
158.120431
11
33.707737
21
160.271191
0
LINE
8
boundary
62
5
39
2
10
33.707737
20
160.271191
11
34.477707
21
162.409654
0
LINE
8
boundary
62
5
39
2
10
34.477707
20
162.409654
11
35.260790
21
164.535766
0
LINE
8
boundary
62
5
39
2
10
35.260790
20
164.535766
11
36.055391
21
166.649699
0
LINE
8
boundary
62
5
39
2
10
36.055391
20
166.649699
11
36.293411
21
167.267176
0
LINE
8
boundary
62
5
39
2
10
36.293411
20
167.267176
11
37.674464
21
170.840547
0
LINE
8
boundary
62
5
39
2
10
37.674464
20
170.840547
11
37.927627
21
171.476763
0
LINE
8
boundary
62
5
39
2
10
37.927627
20
171.476763
11
39.324226
21
174.982357
0
LINE
8
boundary
62
5
39
2
10
39.324226
20
174.982357
11
39.591301
21
175.636796
0
LINE
8
boundary
62
5
39
2
10
39.591301
20
175.636796
11
40.994309
21
179.075387
0
LINE
8
boundary
62
5
39
2
10
40.994309
20
179.075387
11
41.273672
21
179.747144
0
LINE
8
boundary
62
5
39
2
10
41.273672
20
179.747144
11
42.674259
21
183.120191
0
LINE
8
boundary
62
5
39
2
10
42.674259
20
183.120191
11
42.964003
21
183.807925
0
LINE
8
boundary
62
5
39
2
10
42.964003
20
183.807925
11
44.354003
21
187.117275
0
LINE
8
boundary
62
5
39
2
10
44.354003
20
187.117275
11
44.938833
21
188.495254
0
LINE
8
boundary
62
5
39
2
10
44.938833
20
188.495254
11
47.673059
21
194.971722
0
LINE
8
boundary
62
5
39
2
10
47.673059
20
194.971722
11
48.271924
21
196.397562
0
LINE
8
boundary
62
5
39
2
10
48.271924
20
196.397562
11
50.874375
21
202.646490
0
LINE
8
boundary
62
5
39
2
10
50.874375
20
202.646490
11
51.178516
21
203.388244
0
LINE
8
boundary
62
5
39
2
10
51.178516
20
203.388244
11
52.407623
21
206.419435
0
LINE
8
boundary
62
5
39
2
10
52.407623
20
206.419435
11
52.706106
21
207.166172
0
LINE
8
boundary
62
5
39
2
10
52.706106
20
207.166172
11
53.883736
21
210.151019
0
LINE
8
boundary
62
5
39
2
10
53.883736
20
210.151019
11
54.173695
21
210.900840
0
LINE
8
boundary
62
5
39
2
10
54.173695
20
210.900840
11
55.294311
21
213.842771
0
LINE
8
boundary
62
5
39
2
10
55.294311
20
213.842771
11
55.972234
21
215.674113
0
LINE
8
boundary
62
5
39
2
10
55.972234
20
215.674113
11
56.630578
21
217.496093
0
LINE
8
boundary
62
5
39
2
10
56.630578
20
217.496093
11
56.848208
21
218.110864
0
LINE
8
boundary
62
5
39
2
10
56.848208
20
218.110864
11
57.661528
21
220.453767
0
LINE
8
boundary
62
5
39
2
10
57.661528
20
220.453767
11
57.875893
21
221.089766
0
LINE
8
boundary
62
5
39
2
10
57.875893
20
221.089766
11
58.669751
21
223.497417
0
LINE
8
boundary
62
5
39
2
10
58.669751
20
223.497417
11
59.162422
21
225.049688
0
LINE
8
boundary
62
5
39
2
10
59.162422
20
225.049688
11
59.645669
21
226.621289
0
LINE
8
boundary
62
5
39
2
10
59.645669
20
226.621289
11
60.118285
21
228.211484
0
LINE
8
boundary
62
5
39
2
10
60.118285
20
228.211484
11
60.579282
21
229.819810
0
LINE
8
boundary
62
5
39
2
10
60.579282
20
229.819810
11
61.027287
21
231.445362
0
LINE
8
boundary
62
5
39
2
10
61.027287
20
231.445362
11
61.461307
21
233.087517
0
LINE
8
boundary
62
5
39
2
10
61.461307
20
233.087517
11
61.880005
21
234.745755
0
LINE
8
boundary
62
5
39
2
10
61.880005
20
234.745755
11
62.282558
21
236.419496
0
LINE
8
boundary
62
5
39
2
10
62.282558
20
236.419496
11
62.667615
21
238.107809
0
LINE
8
boundary
62
5
39
2
10
62.667615
20
238.107809
11
63.034059
21
239.810463
0
LINE
8
boundary
62
5
39
2
10
63.034059
20
239.810463
11
63.380885
21
241.526788
0
LINE
8
boundary
62
5
39
2
10
63.380885
20
241.526788
11
63.707099
21
243.256117
0
LINE
8
boundary
62
5
39
2
10
63.707099
20
243.256117
11
64.011643
21
244.997888
0
LINE
8
boundary
62
5
39
2
10
64.011643
20
244.997888
11
64.293437
21
246.751596
0
LINE
8
boundary
62
5
39
2
10
64.293437
20
246.751596
11
64.551487
21
248.516785
0
LINE
8
boundary
62
5
39
2
10
64.551487
20
248.516785
11
64.784815
21
250.292792
0
LINE
8
boundary
62
5
39
2
10
64.784815
20
250.292792
11
64.992437
21
252.079104
0
LINE
8
boundary
62
5
39
2
10
64.992437
20
252.079104
11
65.173519
21
253.875390
0
LINE
8
boundary
62
5
39
2
10
65.173519
20
253.875390
11
65.327016
21
255.680815
0
LINE
8
boundary
62
5
39
2
10
65.327016
20
255.680815
11
65.451993
21
257.495148
0
LINE
8
boundary
62
5
39
2
10
65.451993
20
257.495148
11
65.547588
21
259.317800
0
LINE
8
boundary
62
5
39
2
10
65.547588
20
259.317800
11
65.612962
21
261.148450
0
LINE
8
boundary
62
5
39
2
10
65.612962
20
261.148450
11
65.647256
21
262.986344
0
LINE
8
boundary
62
5
39
2
10
65.647256
20
262.986344
11
65.649607
21
264.831232
0
LINE
8
boundary
62
5
39
2
10
65.649607
20
264.831232
11
65.619256
21
266.682470
0
LINE
8
boundary
62
5
39
2
10
65.619256
20
266.682470
11
65.555201
21
268.539692
0
LINE
8
boundary
62
5
39
2
10
65.555201
20
268.539692
11
65.456981
21
270.402571
0
LINE
8
boundary
62
5
39
2
10
65.456981
20
270.402571
11
65.323547
21
272.270503
0
LINE
8
boundary
62
5
39
2
10
65.323547
20
272.270503
11
65.154232
21
274.142899
0
LINE
8
boundary
62
5
39
2
10
65.154232
20
274.142899
11
64.948383
21
276.019610
0
LINE
8
boundary
62
5
39
2
10
64.948383
20
276.019610
11
64.705199
21
277.900068
0
LINE
8
boundary
62
5
39
2
10
64.705199
20
277.900068
11
64.424078
21
279.783744
0
LINE
8
boundary
62
5
39
2
10
64.424078
20
279.783744
11
64.104190
21
281.670337
0
LINE
8
boundary
62
5
39
2
10
64.104190
20
281.670337
11
63.745110
21
283.559301
0
LINE
8
boundary
62
5
39
2
10
63.745110
20
283.559301
11
63.345901
21
285.450204
0
LINE
8
boundary
62
5
39
2
10
63.345901
20
285.450204
11
62.906137
21
287.342715
0
LINE
8
boundary
62
5
39
2
10
62.906137
20
287.342715
11
62.425080
21
289.236298
0
LINE
8
boundary
62
5
39
2
10
62.425080
20
289.236298
11
61.902214
21
291.130412
0
LINE
8
boundary
62
5
39
2
10
61.902214
20
291.130412
11
61.336909
21
293.024853
0
LINE
8
boundary
62
5
39
2
10
61.336909
20
293.024853
11
60.728619
21
294.919078
0
LINE
8
boundary
62
5
39
2
10
60.728619
20
294.919078
11
60.408155
21
295.866016
0
LINE
8
boundary
62
5
39
2
10
60.408155
20
295.866016
11
60.076696
21
296.812594
0
LINE
8
boundary
62
5
39
2
10
60.076696
20
296.812594
11
59.734351
21
297.759021
0
LINE
8
boundary
62
5
39
2
10
59.734351
20
297.759021
11
59.380777
21
298.704924
0
LINE
8
boundary
62
5
39
2
10
59.380777
20
298.704924
11
59.016065
21
299.650634
0
LINE
8
boundary
62
5
39
2
10
59.016065
20
299.650634
11
58.640206
21
300.595808
0
LINE
8
boundary
62
5
39
2
10
58.640206
20
300.595808
11
58.252976
21
301.540517
0
LINE
8
boundary
62
5
39
2
10
58.252976
20
301.540517
11
57.854382
21
302.484609
0
LINE
8
boundary
62
5
39
2
10
57.854382
20
302.484609
11
57.444391
21
303.428194
0
LINE
8
boundary
62
5
39
2
10
57.444391
20
303.428194
11
57.022928
21
304.371014
0
LINE
8
boundary
62
5
39
2
10
57.022928
20
304.371014
11
56.589949
21
305.313123
0
LINE
8
boundary
62
5
39
2
10
56.589949
20
305.313123
11
56.145330
21
306.254484
0
LINE
8
boundary
62
5
39
2
10
56.145330
20
306.254484
11
55.689117
21
307.194889
0
LINE
8
boundary
62
5
39
2
10
55.689117
20
307.194889
11
55.221113
21
308.134501
0
LINE
8
boundary
62
5
39
2
10
55.221113
20
308.134501
11
54.741358
21
309.073159
0
LINE
8
boundary
62
5
39
2
10
54.741358
20
309.073159
11
54.249764
21
310.010748
0
LINE
8
boundary
62
5
39
2
10
54.249764
20
310.010748
11
53.746321
21
310.947402
0
LINE
8
boundary
62
5
39
2
10
53.746321
20
310.947402
11
53.230941
21
311.882722
0
LINE
8
boundary
62
5
39
2
10
53.230941
20
311.882722
11
52.703448
21
312.817014
0
LINE
8
boundary
62
5
39
2
10
52.703448
20
312.817014
11
52.164045
21
313.750055
0
LINE
8
boundary
62
5
39
2
10
52.164045
20
313.750055
11
51.612443
21
314.681700
0
LINE
8
boundary
62
5
39
2
10
51.612443
20
314.681700
11
51.048583
21
315.612010
0
LINE
8
boundary
62
5
39
2
10
51.048583
20
315.612010
11
50.472656
21
316.540913
0
LINE
8
boundary
62
5
39
2
10
50.472656
20
316.540913
11
49.884345
21
317.468278
0
LINE
8
boundary
62
5
39
2
10
49.884345
20
317.468278
11
49.283724
21
318.394229
0
LINE
8
boundary
62
5
39
2
10
49.283724
20
318.394229
11
48.670764
21
319.318475
0
LINE
8
boundary
62
5
39
2
10
48.670764
20
319.318475
11
48.045255
21
320.240965
0
LINE
8
boundary
62
5
39
2
10
48.045255
20
320.240965
11
47.407326
21
321.162017
0
LINE
8
boundary
62
5
39
2
10
47.407326
20
321.162017
11
46.756916
21
322.081162
0
LINE
8
boundary
62
5
39
2
10
46.756916
20
322.081162
11
46.093871
21
322.998431
0
LINE
8
boundary
62
5
39
2
10
46.093871
20
322.998431
11
45.418217
21
323.913730
0
LINE
8
boundary
62
5
39
2
10
45.418217
20
323.913730
11
44.729763
21
324.827224
0
LINE
8
boundary
62
5
39
2
10
44.729763
20
324.827224
11
44.028689
21
325.738607
0
LINE
8
boundary
62
5
39
2
10
44.028689
20
325.738607
11
43.314719
21
326.647769
0
LINE
8
boundary
62
5
39
2
10
43.314719
20
326.647769
11
42.588013
21
327.554985
0
LINE
8
boundary
62
5
39
2
10
42.588013
20
327.554985
11
41.848424
21
328.459933
0
LINE
8
boundary
62
5
39
2
10
41.848424
20
328.459933
11
41.095756
21
329.362604
0
LINE
8
boundary
62
5
39
2
10
41.095756
20
329.362604
11
40.330156
21
330.262895
0
LINE
8
boundary
62
5
39
2
10
40.330156
20
330.262895
11
39.551592
21
331.160796
0
LINE
8
boundary
62
5
39
2
10
39.551592
20
331.160796
11
38.759931
21
332.056302
0
LINE
8
boundary
62
5
39
2
10
38.759931
20
332.056302
11
38.541046
21
332.584465
0
LINE
8
boundary
62
5
39
2
10
38.541046
20
332.584465
11
38.348354
21
333.088983
0
LINE
8
boundary
62
5
39
2
10
38.348354
20
333.088983
11
38.181068
21
333.569985
0
LINE
8
boundary
62
5
39
2
10
38.181068
20
333.569985
11
38.025808
21
334.075634
0
LINE
8
boundary
62
5
39
2
10
38.025808
20
334.075634
11
37.825532
21
334.876882
0
LINE
8
boundary
62
5
39
2
10
37.825532
20
334.876882
11
37.704180
21
335.638642
0
LINE
8
boundary
62
5
39
2
10
37.704180
20
335.638642
11
37.669697
21
336.317076
0
LINE
8
boundary
62
5
39
2
10
37.669697
20
336.317076
11
37.717184
21
336.915462
0
LINE
8
boundary
62
5
39
2
10
37.717184
20
336.915462
11
37.842235
21
337.437329
0
LINE
8
boundary
62
5
39
2
10
37.842235
20
337.437329
11
38.055362
21
337.909958
0
LINE
8
boundary
62
5
39
2
10
38.055362
20
337.909958
11
38.463858
21
338.429504
0
LINE
8
boundary
62
5
39
2
10
38.463858
20
338.429504
11
39.026664
21
338.827988
0
LINE
8
boundary
62
5
39
2
10
39.026664
20
338.827988
11
39.503984
21
339.028874
0
LINE
8
boundary
62
5
39
2
10
39.503984
20
339.028874
11
40.004112
21
339.160790
0
LINE
8
boundary
62
5
39
2
10
40.004112
20
339.160790
11
40.511165
21
339.237485
0
LINE
8
boundary
62
5
39
2
10
40.511165
20
339.237485
11
41.096602
21
339.271887
0
LINE
8
boundary
62
5
39
2
10
41.096602
20
339.271887
11
41.720420
21
339.261145
0
LINE
8
boundary
62
5
39
2
10
41.720420
20
339.261145
11
42.378279
21
339.208883
0
LINE
8
boundary
62
5
39
2
10
42.378279
20
339.208883
11
43.065946
21
339.118492
0
LINE
8
boundary
62
5
39
2
10
43.065946
20
339.118492
11
43.779264
21
338.993470
0
LINE
8
boundary
62
5
39
2
10
43.779264
20
338.993470
11
44.513848
21
338.837420
0
LINE
8
boundary
62
5
39
2
10
44.513848
20
338.837420
11
45.265499
21
338.653812
0
LINE
8
boundary
62
5
39
2
10
45.265499
20
338.653812
11
46.029942
21
338.446210
0
LINE
8
boundary
62
5
39
2
10
46.029942
20
338.446210
11
46.802782
21
338.217949
0
LINE
8
boundary
62
5
39
2
10
46.802782
20
338.217949
11
47.579824
21
337.972815
0
LINE
8
boundary
62
5
39
2
10
47.579824
20
337.972815
11
48.356559
21
337.714102
0
LINE
8
boundary
62
5
39
2
10
48.356559
20
337.714102
11
49.128587
21
337.445511
0
LINE
8
boundary
62
5
39
2
10
49.128587
20
337.445511
11
50.641040
21
336.892121
0
LINE
8
boundary
62
5
39
2
10
50.641040
20
336.892121
11
52.081376
21
336.340949
0
LINE
8
boundary
62
5
39
2
10
52.081376
20
336.340949
11
53.413368
21
335.819807
0
LINE
8
boundary
62
5
39
2
10
53.413368
20
335.819807
11
54.259399
21
335.234320
0
LINE
8
boundary
62
5
39
2
10
54.259399
20
335.234320
11
55.119394
21
334.668273
0
LINE
8
boundary
62
5
39
2
10
55.119394
20
334.668273
11
55.992631
21
334.121669
0
LINE
8
boundary
62
5
39
2
10
55.992631
20
334.121669
11
56.878729
21
333.594194
0
LINE
8
boundary
62
5
39
2
10
56.878729
20
333.594194
11
57.777032
21
333.086167
0
LINE
8
boundary
62
5
39
2
10
57.777032
20
333.086167
11
58.687075
21
332.597275
0
LINE
8
boundary
62
5
39
2
10
58.687075
20
332.597275
11
59.608245
21
332.127809
0
LINE
8
boundary
62
5
39
2
10
59.608245
20
332.127809
11
60.539851
21
331.677481
0
LINE
8
boundary
62
5
39
2
10
60.539851
20
331.677481
11
61.481539
21
331.246360
0
LINE
8
boundary
62
5
39
2
10
61.481539
20
331.246360
11
62.432717
21
330.834516
0
LINE
8
boundary
62
5
39
2
10
62.432717
20
330.834516
11
63.392755
21
330.441780
0
LINE
8
boundary
62
5
39
2
10
63.392755
20
330.441780
11
64.360921
21
330.068254
0
LINE
8
boundary
62
5
39
2
10
64.360921
20
330.068254
11
65.336862
21
329.713830
0
LINE
8
boundary
62
5
39
2
10
65.336862
20
329.713830
11
66.319926
21
329.378535
0
LINE
8
boundary
62
5
39
2
10
66.319926
20
329.378535
11
67.309446
21
329.062355
0
LINE
8
boundary
62
5
39
2
10
67.309446
20
329.062355
11
68.305003
21
328.765305
0
LINE
8
boundary
62
5
39
2
10
68.305003
20
328.765305
11
69.305819
21
328.487215
0
LINE
8
boundary
62
5
39
2
10
69.305819
20
328.487215
11
70.311463
21
328.228165
0
LINE
8
boundary
62
5
39
2
10
70.311463
20
328.228165
11
71.321091
21
327.988167
0
LINE
8
boundary
62
5
39
2
10
71.321091
20
327.988167
11
72.334383
21
327.767157
0
LINE
8
boundary
62
5
39
2
10
72.334383
20
327.767157
11
73.350678
21
327.565166
0
LINE
8
boundary
62
5
39
2
10
73.350678
20
327.565166
11
74.369290
21
327.382139
0
LINE
8
boundary
62
5
39
2
10
74.369290
20
327.382139
11
75.389684
21
327.218002
0
LINE
8
boundary
62
5
39
2
10
75.389684
20
327.218002
11
76.411302
21
327.072778
0
LINE
8
boundary
62
5
39
2
10
76.411302
20
327.072778
11
77.433487
21
326.946553
0
LINE
8
boundary
62
5
39
2
10
77.433487
20
326.946553
11
78.455586
21
326.839256
0
LINE
8
boundary
62
5
39
2
10
78.455586
20
326.839256
11
79.477089
21
326.750783
0
LINE
8
boundary
62
5
39
2
10
79.477089
20
326.750783
11
80.497452
21
326.681200
0
LINE
8
boundary
62
5
39
2
10
80.497452
20
326.681200
11
81.515943
21
326.630405
0
LINE
8
boundary
62
5
39
2
10
81.515943
20
326.630405
11
82.532079
21
326.598499
0
LINE
8
boundary
62
5
39
2
10
82.532079
20
326.598499
11
83.545253
21
326.585343
0
LINE
8
boundary
62
5
39
2
10
83.545253
20
326.585343
11
84.554789
21
326.591171
0
LINE
8
boundary
62
5
39
2
10
84.554789
20
326.591171
11
85.560182
21
326.615765
0
LINE
8
boundary
62
5
39
2
10
85.560182
20
326.615765
11
86.560890
21
326.659009
0
LINE
8
boundary
62
5
39
2
10
86.560890
20
326.659009
11
87.556149
21
326.721145
0
LINE
8
boundary
62
5
39
2
10
87.556149
20
326.721145
11
88.545651
21
326.802111
0
LINE
8
boundary
62
5
39
2
10
88.545651
20
326.802111
11
89.528537
21
326.901693
0
LINE
8
boundary
62
5
39
2
10
89.528537
20
326.901693
11
90.504403
21
327.020185
0
LINE
8
boundary
62
5
39
2
10
90.504403
20
327.020185
11
91.472629
21
327.157366
0
LINE
8
boundary
62
5
39
2
10
91.472629
20
327.157366
11
92.432767
21
327.313340
0
LINE
8
boundary
62
5
39
2
10
92.432767
20
327.313340
11
93.384063
21
327.488085
0
LINE
8
boundary
62
5
39
2
10
93.384063
20
327.488085
11
94.326040
21
327.681371
0
LINE
8
boundary
62
5
39
2
10
94.326040
20
327.681371
11
95.258171
21
327.893695
0
LINE
8
boundary
62
5
39
2
10
95.258171
20
327.893695
11
96.179889
21
328.124497
0
LINE
8
boundary
62
5
39
2
10
96.179889
20
328.124497
11
97.090619
21
328.374234
0
LINE
8
boundary
62
5
39
2
10
97.090619
20
328.374234
11
97.989751
21
328.642496
0
LINE
8
boundary
62
5
39
2
10
97.989751
20
328.642496
11
98.876945
21
328.929575
0
LINE
8
boundary
62
5
39
2
10
98.876945
20
328.929575
11
99.751513
21
329.235473
0
LINE
8
boundary
62
5
39
2
10
99.751513
20
329.235473
11
100.612969
21
329.560061
0
LINE
8
boundary
62
5
39
2
10
100.612969
20
329.560061
11
101.460737
21
329.903424
0
LINE
8
boundary
62
5
39
2
10
101.460737
20
329.903424
11
102.294434
21
330.265509
0
LINE
8
boundary
62
5
39
2
10
102.294434
20
330.265509
11
103.113460
21
330.646324
0
LINE
8
boundary
62
5
39
2
10
103.113460
20
330.646324
11
103.917244
21
331.046004
0
LINE
8
boundary
62
5
39
2
10
103.917244
20
331.046004
11
104.705335
21
331.464387
0
LINE
8
boundary
62
5
39
2
10
104.705335
20
331.464387
11
105.477368
21
331.901528
0
LINE
8
boundary
62
5
39
2
10
105.477368
20
331.901528
11
106.232564
21
332.357429
0
LINE
8
boundary
62
5
39
2
10
106.232564
20
332.357429
11
106.970610
21
332.832287
0
LINE
8
boundary
62
5
39
2
10
106.970610
20
332.832287
11
107.691101
21
333.325848
0
LINE
8
boundary
62
5
39
2
10
107.691101
20
333.325848
11
108.393444
21
333.838358
0
LINE
8
boundary
62
5
39
2
10
108.393444
20
333.838358
11
109.077121
21
334.369459
0
LINE
8
boundary
62
5
39
2
10
109.077121
20
334.369459
11
109.741743
21
334.919622
0
LINE
8
boundary
62
5
39
2
10
109.741743
20
334.919622
11
110.386799
21
335.488549
0
LINE
8
boundary
62
5
39
2
10
110.386799
20
335.488549
11
111.011861
21
336.076360
0
LINE
8
boundary
62
5
39
2
10
111.011861
20
336.076360
11
111.616574
21
336.683198
0
LINE
8
boundary
62
5
39
2
10
111.616574
20
336.683198
11
112.080052
21
337.023977
0
LINE
8
boundary
62
5
39
2
10
112.080052
20
337.023977
11
112.675232
21
337.508756
0
LINE
8
boundary
62
5
39
2
10
112.675232
20
337.508756
11
113.066781
21
337.866260
0
LINE
8
boundary
62
5
39
2
10
113.066781
20
337.866260
11
113.563481
21
338.372989
0
LINE
8
boundary
62
5
39
2
10
113.563481
20
338.372989
11
114.063948
21
338.969804
0
LINE
8
boundary
62
5
39
2
10
114.063948
20
338.969804
11
114.493164
21
339.582595
0
LINE
8
boundary
62
5
39
2
10
114.493164
20
339.582595
11
114.852825
21
340.211103
0
LINE
8
boundary
62
5
39
2
10
114.852825
20
340.211103
11
115.144720
21
340.854667
0
LINE
8
boundary
62
5
39
2
10
115.144720
20
340.854667
11
115.370698
21
341.512992
0
LINE
8
boundary
62
5
39
2
10
115.370698
20
341.512992
11
115.532306
21
342.185598
0
LINE
8
boundary
62
5
39
2
10
115.532306
20
342.185598
11
115.631405
21
342.871967
0
LINE
8
boundary
62
5
39
2
10
115.631405
20
342.871967
11
115.669759
21
343.571903
0
LINE
8
boundary
62
5
39
2
10
115.669759
20
343.571903
11
115.649090
21
344.284769
0
LINE
8
boundary
62
5
39
2
10
115.649090
20
344.284769
11
115.571062
21
345.010206
0
LINE
8
boundary
62
5
39
2
10
115.571062
20
345.010206
11
115.437451
21
345.747693
0
LINE
8
boundary
62
5
39
2
10
115.437451
20
345.747693
11
115.249947
21
346.496631
0
LINE
8
boundary
62
5
39
2
10
115.249947
20
346.496631
11
115.010203
21
347.257012
0
LINE
8
boundary
62
5
39
2
10
115.010203
20
347.257012
11
114.828992
21
347.746209
0
LINE
8
boundary
62
5
39
2
10
114.828992
20
347.746209
11
114.556589
21
348.417372
0
LINE
8
boundary
62
5
39
2
10
114.556589
20
348.417372
11
114.328419
21
348.917301
0
LINE
8
boundary
62
5
39
2
10
114.328419
20
348.917301
11
113.995106
21
349.600370
0
LINE
8
boundary
62
5
39
2
10
113.995106
20
349.600370
11
113.563777
21
350.400998
0
LINE
8
boundary
62
5
39
2
10
113.563777
20
350.400998
11
113.088718
21
351.210617
0
LINE
8
boundary
62
5
39
2
10
113.088718
20
351.210617
11
112.571633
21
352.028604
0
LINE
8
boundary
62
5
39
2
10
112.571633
20
352.028604
11
112.014389
21
352.854651
0
LINE
8
boundary
62
5
39
2
10
112.014389
20
352.854651
11
111.418344
21
353.688390
0
LINE
8
boundary
62
5
39
2
10
111.418344
20
353.688390
11
110.785399
21
354.529265
0
LINE
8
boundary
62
5
39
2
10
110.785399
20
354.529265
11
110.117226
21
355.376875
0
LINE
8
boundary
62
5
39
2
10
110.117226
20
355.376875
11
109.415459
21
356.230720
0
LINE
8
boundary
62
5
39
2
10
109.415459
20
356.230720
11
108.681712
21
357.090475
0
LINE
8
boundary
62
5
39
2
10
108.681712
20
357.090475
11
107.917711
21
357.955407
0
LINE
8
boundary
62
5
39
2
10
107.917711
20
357.955407
11
107.125110
21
358.825458
0
LINE
8
boundary
62
5
39
2
10
107.125110
20
358.825458
11
106.305416
21
359.699781
0
LINE
8
boundary
62
5
39
2
10
106.305416
20
359.699781
11
105.460589
21
360.578100
0
LINE
8
boundary
62
5
39
2
10
105.460589
20
360.578100
11
104.591992
21
361.460105
0
LINE
8
boundary
62
5
39
2
10
104.591992
20
361.460105
11
103.701363
21
362.345062
0
LINE
8
boundary
62
5
39
2
10
103.701363
20
362.345062
11
102.790142
21
363.232583
0
LINE
8
boundary
62
5
39
2
10
102.790142
20
363.232583
11
101.860268
21
364.122355
0
LINE
8
boundary
62
5
39
2
10
101.860268
20
364.122355
11
100.913224
21
365.013817
0
LINE
8
boundary
62
5
39
2
10
100.913224
20
365.013817
11
99.950547
21
365.906409
0
LINE
8
boundary
62
5
39
2
10
99.950547
20
365.906409
11
98.973854
21
366.799849
0
LINE
8
boundary
62
5
39
2
10
98.973854
20
366.799849
11
97.984592
21
367.693695
0
LINE
8
boundary
62
5
39
2
10
97.984592
20
367.693695
11
96.984720
21
368.587240
0
LINE
8
boundary
62
5
39
2
10
96.984720
20
368.587240
11
95.975422
21
369.480149
0
LINE
8
boundary
62
5
39
2
10
95.975422
20
369.480149
11
95.280636
21
370.079280
0
LINE
8
boundary
62
5
39
2
10
95.280636
20
370.079280
11
93.935201
21
371.262267
0
LINE
8
boundary
62
5
39
2
10
93.935201
20
371.262267
11
93.220606
21
371.870591
0
LINE
8
boundary
62
5
39
2
10
93.220606
20
371.870591
11
91.876341
21
373.036362
0
LINE
8
boundary
62
5
39
2
10
91.876341
20
373.036362
11
91.145353
21
373.652745
0
LINE
8
boundary
62
5
39
2
10
91.145353
20
373.652745
11
89.810777
21
374.798136
0
LINE
8
boundary
62
5
39
2
10
89.810777
20
374.798136
11
89.067134
21
375.421644
0
LINE
8
boundary
62
5
39
2
10
89.067134
20
375.421644
11
87.750561
21
376.544340
0
LINE
8
boundary
62
5
39
2
10
87.750561
20
376.544340
11
86.998045
21
377.173726
0
LINE
8
boundary
62
5
39
2
10
86.998045
20
377.173726
11
85.707187
21
378.270904
0
LINE
8
boundary
62
5
39
2
10
85.707187
20
378.270904
11
84.177138
21
379.554338
0
LINE
8
boundary
62
5
39
2
10
84.177138
20
379.554338
11
81.716853
21
381.649482
0
LINE
8
boundary
62
5
39
2
10
81.716853
20
381.649482
11
80.203356
21
382.938298
0
LINE
8
boundary
62
5
39
2
10
80.203356
20
382.938298
11
77.929151
21
384.902620
0
LINE
8
boundary
62
5
39
2
10
77.929151
20
384.902620
11
77.197900
21
385.538322
0
LINE
8
boundary
62
5
39
2
10
77.197900
20
385.538322
11
76.138166
21
386.472349
0
LINE
8
boundary
62
5
39
2
10
76.138166
20
386.472349
11
75.426061
21
387.103601
0
LINE
8
boundary
62
5
39
2
10
75.426061
20
387.103601
11
74.429936
21
387.998834
0
LINE
8
boundary
62
5
39
2
10
74.429936
20
387.998834
11
73.995268
21
388.384785
0
LINE
8
boundary
62
5
39
2
10
73.995268
20
388.384785
11
73.401006
21
388.919596
0
LINE
8
boundary
62
5
39
2
10
73.401006
20
388.919596
11
72.963988
21
389.300134
0
LINE
8
boundary
62
5
39
2
10
72.963988
20
389.300134
11
72.379562
21
389.815738
0
LINE
8
boundary
62
5
39
2
10
72.379562
20
389.815738
11
71.940144
21
390.190716
0
LINE
8
boundary
62
5
39
2
10
71.940144
20
390.190716
11
71.365194
21
390.687564
0
LINE
8
boundary
62
5
39
2
10
71.365194
20
390.687564
11
70.923373
21
391.056788
0
LINE
8
boundary
62
5
39
2
10
70.923373
20
391.056788
11
70.357778
21
391.535249
0
LINE
8
boundary
62
5
39
2
10
70.357778
20
391.535249
11
69.913589
21
391.898695
0
LINE
8
boundary
62
5
39
2
10
69.913589
20
391.898695
11
69.357142
21
392.359526
0
LINE
8
boundary
62
5
39
2
10
69.357142
20
392.359526
11
68.910571
21
392.717007
0
LINE
8
boundary
62
5
39
2
10
68.910571
20
392.717007
11
68.363062
21
393.160343
0
LINE
8
boundary
62
5
39
2
10
68.363062
20
393.160343
11
67.914195
21
393.511757
0
LINE
8
boundary
62
5
39
2
10
67.914195
20
393.511757
11
67.375535
21
393.938213
0
LINE
8
boundary
62
5
39
2
10
67.375535
20
393.938213
11
66.924320
21
394.283426
0
LINE
8
boundary
62
5
39
2
10
66.924320
20
394.283426
11
66.394272
21
394.693453
0
LINE
8
boundary
62
5
39
2
10
66.394272
20
394.693453
11
65.940768
21
395.032433
0
LINE
8
boundary
62
5
39
2
10
65.940768
20
395.032433
11
65.419142
21
395.426398
0
LINE
8
boundary
62
5
39
2
10
65.419142
20
395.426398
11
64.963338
21
395.759016
0
LINE
8
boundary
62
5
39
2
10
64.963338
20
395.759016
11
64.449943
21
396.137514
0
LINE
8
boundary
62
5
39
2
10
64.449943
20
396.137514
11
63.991878
21
396.463696
0
LINE
8
boundary
62
5
39
2
10
63.991878
20
396.463696
11
63.486575
21
396.826991
0
LINE
8
boundary
62
5
39
2
10
63.486575
20
396.826991
11
63.026279
21
397.146604
0
LINE
8
boundary
62
5
39
2
10
63.026279
20
397.146604
11
62.528908
21
397.495253
0
LINE
8
boundary
62
5
39
2
10
62.528908
20
397.495253
11
62.066394
21
397.808282
0
LINE
8
boundary
62
5
39
2
10
62.066394
20
397.808282
11
61.576741
21
398.142681
0
LINE
8
boundary
62
5
39
2
10
61.576741
20
398.142681
11
61.112028
21
398.449007
0
LINE
8
boundary
62
5
39
2
10
61.112028
20
398.449007
11
60.630012
21
398.769582
0
LINE
8
boundary
62
5
39
2
10
60.630012
20
398.769582
11
60.163126
21
399.069193
0
LINE
8
boundary
62
5
39
2
10
60.163126
20
399.069193
11
59.688502
21
399.376315
0
LINE
8
boundary
62
5
39
2
10
59.688502
20
399.376315
11
59.219430
21
399.669176
0
LINE
8
boundary
62
5
39
2
10
59.219430
20
399.669176
11
58.752054
21
399.963392
0
LINE
8
boundary
62
5
39
2
10
58.752054
20
399.963392
11
58.280891
21
400.249376
0
LINE
8
boundary
62
5
39
2
10
58.280891
20
400.249376
11
57.820621
21
400.530897
0
LINE
8
boundary
62
5
39
2
10
57.820621
20
400.530897
11
57.347315
21
400.810029
0
LINE
8
boundary
62
5
39
2
10
57.347315
20
400.810029
11
56.894027
21
401.079435
0
LINE
8
boundary
62
5
39
2
10
56.894027
20
401.079435
11
56.418643
21
401.351785
0
LINE
8
boundary
62
5
39
2
10
56.418643
20
401.351785
11
55.972135
21
401.609346
0
LINE
8
boundary
62
5
39
2
10
55.972135
20
401.609346
11
55.494711
21
401.874650
0
LINE
8
boundary
62
5
39
2
10
55.494711
20
401.874650
11
54.575459
21
402.379360
0
LINE
8
boundary
62
5
39
2
10
54.575459
20
402.379360
11
53.660648
21
402.865970
0
LINE
8
boundary
62
5
39
2
10
53.660648
20
402.865970
11
52.750197
21
403.335015
0
LINE
8
boundary
62
5
39
2
10
52.750197
20
403.335015
11
51.844086
21
403.786945
0
LINE
8
boundary
62
5
39
2
10
51.844086
20
403.786945
11
50.942094
21
404.222077
0
LINE
8
boundary
62
5
39
2
10
50.942094
20
404.222077
11
50.044188
21
404.640717
0
LINE
8
boundary
62
5
39
2
10
50.044188
20
404.640717
11
49.150214
21
405.043480
0
LINE
8
boundary
62
5
39
2
10
49.150214
20
405.043480
11
48.260128
21
405.430378
0
LINE
8
boundary
62
5
39
2
10
48.260128
20
405.430378
11
47.373819
21
405.802081
0
LINE
8
boundary
62
5
39
2
10
47.373819
20
405.802081
11
46.491165
21
406.158970
0
LINE
8
boundary
62
5
39
2
10
46.491165
20
406.158970
11
45.612108
21
406.501360
0
LINE
8
boundary
62
5
39
2
10
45.612108
20
406.501360
11
44.736557
21
406.829672
0
LINE
8
boundary
62
5
39
2
10
44.736557
20
406.829672
11
43.864415
21
407.144314
0
LINE
8
boundary
62
5
39
2
10
43.864415
20
407.144314
11
42.995609
21
407.445588
0
LINE
8
boundary
62
5
39
2
10
42.995609
20
407.445588
11
42.129996
21
407.733936
0
LINE
8
boundary
62
5
39
2
10
42.129996
20
407.733936
11
41.267614
21
408.009858
0
LINE
8
boundary
62
5
39
2
10
41.267614
20
408.009858
11
40.408382
21
408.273608
0
LINE
8
boundary
62
5
39
2
10
40.408382
20
408.273608
11
39.552183
21
408.525665
0
LINE
8
boundary
62
5
39
2
10
39.552183
20
408.525665
11
38.698930
21
408.766290
0
LINE
8
boundary
62
5
39
2
10
38.698930
20
408.766290
11
37.848644
21
408.996088
0
LINE
8
boundary
62
5
39
2
10
37.848644
20
408.996088
11
37.001189
21
409.215362
0
LINE
8
boundary
62
5
39
2
10
37.001189
20
409.215362
11
36.156525
21
409.424434
0
LINE
8
boundary
62
5
39
2
10
36.156525
20
409.424434
11
34.785615
21
409.741445
0
LINE
8
boundary
62
5
39
2
10
34.785615
20
409.741445
11
34.162722
21
409.883454
0
LINE
8
boundary
62
5
39
2
10
34.162722
20
409.883454
11
33.106098
21
410.103250
0
LINE
8
boundary
62
5
39
2
10
33.106098
20
410.103250
11
32.501046
21
410.229329
0
LINE
8
boundary
62
5
39
2
10
32.501046
20
410.229329
11
31.436944
21
410.431695
0
LINE
8
boundary
62
5
39
2
10
31.436944
20
410.431695
11
30.849558
21
410.543516
0
LINE
8
boundary
62
5
39
2
10
30.849558
20
410.543516
11
29.777742
21
410.729896
0
LINE
8
boundary
62
5
39
2
10
29.777742
20
410.729896
11
29.207984
21
410.829162
0
LINE
8
boundary
62
5
39
2
10
29.207984
20
410.829162
11
28.128209
21
411.001294
0
LINE
8
boundary
62
5
39
2
10
28.128209
20
411.001294
11
27.576077
21
411.089358
0
LINE
8
boundary
62
5
39
2
10
27.576077
20
411.089358
11
26.487914
21
411.248937
0
LINE
8
boundary
62
5
39
2
10
26.487914
20
411.248937
11
25.953587
21
411.327444
0
LINE
8
boundary
62
5
39
2
10
25.953587
20
411.327444
11
24.856762
21
411.476447
0
LINE
8
boundary
62
5
39
2
10
24.856762
20
411.476447
11
24.340575
21
411.546623
0
LINE
8
boundary
62
5
39
2
10
24.340575
20
411.546623
11
23.234482
21
411.686787
0
LINE
8
boundary
62
5
39
2
10
23.234482
20
411.686787
11
21.620783
21
411.883287
0
LINE
8
boundary
62
5
39
2
10
21.620783
20
411.883287
11
18.843313
21
412.199676
0
LINE
8
boundary
62
5
39
2
10
18.843313
20
412.199676
11
17.980586
21
412.297005
0
LINE
8
boundary
62
5
39
2
10
17.980586
20
412.297005
11
17.555931
21
407.438721
0
LINE
8
boundary
62
5
39
2
10
17.555931
20
407.438721
11
17.310122
21
404.803107
0
LINE
8
boundary
62
5
39
2
10
17.310122
20
404.803107
11
19.784398
21
404.536576
0
LINE
8
boundary
62
5
39
2
10
19.784398
20
404.536576
11
21.664306
21
404.333939
0
LINE
8
boundary
62
5
39
2
10
21.664306
20
404.333939
11
22.376893
21
404.124768
0
LINE
8
boundary
62
5
39
2
10
22.376893
20
404.124768
11
22.901684
21
403.970426
0
LINE
8
boundary
62
5
39
2
10
22.901684
20
403.970426
11
23.595741
21
403.758899
0
LINE
8
boundary
62
5
39
2
10
23.595741
20
403.758899
11
24.122523
21
403.598096
0
LINE
8
boundary
62
5
39
2
10
24.122523
20
403.598096
11
24.719929
21
403.409367
0
LINE
8
boundary
62
5
39
2
10
24.719929
20
403.409367
11
41.879866
21
403.409368
0
LINE
8
boundary
62
5
39
2
10
41.879866
20
403.409368
11
41.879866
21
400.663368
0
LINE
8
boundary
62
5
39
2
10
41.879866
20
400.663368
11
32.832966
21
400.663368
0
LINE
8
boundary
62
5
39
2
10
32.832966
20
400.663368
11
33.299981
21
400.321745
0
LINE
8
boundary
62
5
39
2
10
33.299981
20
400.321745
11
33.851081
21
400.094094
0
LINE
8
boundary
62
5
39
2
10
33.851081
20
400.094094
11
34.374608
21
399.877186
0
LINE
8
boundary
62
5
39
2
10
34.374608
20
399.877186
11
34.911890
21
399.648222
0
LINE
8
boundary
62
5
39
2
10
34.911890
20
399.648222
11
35.433289
21
399.425369
0
LINE
8
boundary
62
5
39
2
10
35.433289
20
399.425369
11
35.957082
21
399.195127
0
LINE
8
boundary
62
5
39
2
10
35.957082
20
399.195127
11
36.476035
21
398.966277
0
LINE
8
boundary
62
5
39
2
10
36.476035
20
398.966277
11
36.986685
21
398.734967
0
LINE
8
boundary
62
5
39
2
10
36.986685
20
398.734967
11
37.502991
21
398.500279
0
LINE
8
boundary
62
5
39
2
10
37.502991
20
398.500279
11
38.000778
21
398.267982
0
LINE
8
boundary
62
5
39
2
10
38.000778
20
398.267982
11
38.514160
21
398.027524
0
LINE
8
boundary
62
5
39
2
10
38.514160
20
398.027524
11
38.999357
21
397.794255
0
LINE
8
boundary
62
5
39
2
10
38.999357
20
397.794255
11
39.509636
21
397.547984
0
LINE
8
boundary
62
5
39
2
10
39.509636
20
397.547984
11
39.982553
21
397.313858
0
LINE
8
boundary
62
5
39
2
10
39.982553
20
397.313858
11
40.489432
21
397.061905
0
LINE
8
boundary
62
5
39
2
10
40.489432
20
397.061905
11
40.950260
21
396.826913
0
LINE
8
boundary
62
5
39
2
10
40.950260
20
396.826913
11
41.453554
21
396.569288
0
LINE
8
boundary
62
5
39
2
10
41.453554
20
396.569288
11
42.402171
21
396.070613
0
LINE
8
boundary
62
5
39
2
10
42.402171
20
396.070613
11
43.335190
21
395.565832
0
LINE
8
boundary
62
5
39
2
10
43.335190
20
395.565832
11
44.252703
21
395.055035
0
LINE
8
boundary
62
5
39
2
10
44.252703
20
395.055035
11
45.154624
21
394.538300
0
LINE
8
boundary
62
5
39
2
10
45.154624
20
394.538300
11
46.041183
21
394.016048
0
LINE
8
boundary
62
5
39
2
10
46.041183
20
394.016048
11
46.912261
21
393.488245
0
LINE
8
boundary
62
5
39
2
10
46.912261
20
393.488245
11
47.767954
21
392.954965
0
LINE
8
boundary
62
5
39
2
10
47.767954
20
392.954965
11
48.608265
21
392.416612
0
LINE
8
boundary
62
5
39
2
10
48.608265
20
392.416612
11
49.433265
21
391.872998
0
LINE
8
boundary
62
5
39
2
10
49.433265
20
391.872998
11
50.242877
21
391.324569
0
LINE
8
boundary
62
5
39
2
10
50.242877
20
391.324569
11
51.037276
21
390.771259
0
LINE
8
boundary
62
5
39
2
10
51.037276
20
390.771259
11
51.816335
21
390.213323
0
LINE
8
boundary
62
5
39
2
10
51.816335
20
390.213323
11
52.580040
21
389.650875
0
LINE
8
boundary
62
5
39
2
10
52.580040
20
389.650875
11
53.328515
21
389.084124
0
LINE
8
boundary
62
5
39
2
10
53.328515
20
389.084124
11
54.061767
21
388.513009
0
LINE
8
boundary
62
5
39
2
10
54.061767
20
388.513009
11
54.779781
21
387.937912
0
LINE
8
boundary
62
5
39
2
10
54.779781
20
387.937912
11
55.482619
21
387.358784
0
LINE
8
boundary
62
5
39
2
10
55.482619
20
387.358784
11
56.170126
21
386.775961
0
LINE
8
boundary
62
5
39
2
10
56.170126
20
386.775961
11
56.842539
21
386.189341
0
LINE
8
boundary
62
5
39
2
10
56.842539
20
386.189341
11
57.499633
21
385.599391
0
LINE
8
boundary
62
5
39
2
10
57.499633
20
385.599391
11
58.141663
21
385.005859
0
LINE
8
boundary
62
5
39
2
10
58.141663
20
385.005859
11
58.768344
21
384.409272
0
LINE
8
boundary
62
5
39
2
10
58.768344
20
384.409272
11
59.379924
21
383.809505
0
LINE
8
boundary
62
5
39
2
10
59.379924
20
383.809505
11
59.976293
21
383.206764
0
LINE
8
boundary
62
5
39
2
10
59.976293
20
383.206764
11
60.557471
21
382.601281
0
LINE
8
boundary
62
5
39
2
10
60.557471
20
382.601281
11
61.123505
21
381.992993
0
LINE
8
boundary
62
5
39
2
10
61.123505
20
381.992993
11
61.674308
21
381.382431
0
LINE
8
boundary
62
5
39
2
10
61.674308
20
381.382431
11
62.209860
21
380.769059
0
LINE
8
boundary
62
5
39
2
10
62.209860
20
380.769059
11
62.730235
21
380.153740
0
LINE
8
boundary
62
5
39
2
10
62.730235
20
380.153740
11
63.235454
21
379.536121
0
LINE
8
boundary
62
5
39
2
10
63.235454
20
379.536121
11
63.725360
21
378.916708
0
LINE
8
boundary
62
5
39
2
10
63.725360
20
378.916708
11
64.200201
21
378.295349
0
LINE
8
boundary
62
5
39
2
10
64.200201
20
378.295349
11
64.659696
21
377.672306
0
LINE
8
boundary
62
5
39
2
10
64.659696
20
377.672306
11
65.104032
21
377.047620
0
LINE
8
boundary
62
5
39
2
10
65.104032
20
377.047620
11
65.533083
21
376.421523
0
LINE
8
boundary
62
5
39
2
10
65.533083
20
376.421523
11
65.946992
21
375.794267
0
LINE
8
boundary
62
5
39
2
10
65.946992
20
375.794267
11
66.345538
21
375.165637
0
LINE
8
boundary
62
5
39
2
10
66.345538
20
375.165637
11
66.728845
21
374.536031
0
LINE
8
boundary
62
5
39
2
10
66.728845
20
374.536031
11
67.096915
21
373.905505
0
LINE
8
boundary
62
5
39
2
10
67.096915
20
373.905505
11
67.449727
21
373.274370
0
LINE
8
boundary
62
5
39
2
10
67.449727
20
373.274370
11
67.787246
21
372.642409
0
LINE
8
boundary
62
5
39
2
10
67.787246
20
372.642409
11
68.109468
21
372.010198
0
LINE
8
boundary
62
5
39
2
10
68.109468
20
372.010198
11
68.416310
21
371.377511
0
LINE
8
boundary
62
5
39
2
10
68.416310
20
371.377511
11
68.707907
21
370.744399
0
LINE
8
boundary
62
5
39
2
10
68.707907
20
370.744399
11
68.984155
21
370.111525
0
LINE
8
boundary
62
5
39
2
10
68.984155
20
370.111525
11
69.245039
21
369.478411
0
LINE
8
boundary
62
5
39
2
10
69.245039
20
369.478411
11
69.261363
21
368.537461
0
LINE
8
boundary
62
5
39
2
10
69.261363
20
368.537461
11
69.303804
21
367.581650
0
LINE
8
boundary
62
5
39
2
10
69.303804
20
367.581650
11
69.366757
21
366.614259
0
LINE
8
boundary
62
5
39
2
10
69.366757
20
366.614259
11
69.444628
21
365.638704
0
LINE
8
boundary
62
5
39
2
10
69.444628
20
365.638704
11
69.499056
21
365.050161
0
LINE
8
boundary
62
5
39
2
10
69.499056
20
365.050161
11
69.622280
21
363.676304
0
LINE
8
boundary
62
5
39
2
10
69.622280
20
363.676304
11
69.672573
21
363.104185
0
LINE
8
boundary
62
5
39
2
10
69.672573
20
363.104185
11
69.790939
21
361.721365
0
LINE
8
boundary
62
5
39
2
10
69.790939
20
361.721365
11
69.857305
21
360.754850
0
LINE
8
boundary
62
5
39
2
10
69.857305
20
360.754850
11
69.903968
21
359.800294
0
LINE
8
boundary
62
5
39
2
10
69.903968
20
359.800294
11
69.924938
21
358.860745
0
LINE
8
boundary
62
5
39
2
10
69.924938
20
358.860745
11
69.914332
21
357.939549
0
LINE
8
boundary
62
5
39
2
10
69.914332
20
357.939549
11
69.865961
21
357.040147
0
LINE
8
boundary
62
5
39
2
10
69.865961
20
357.040147
11
69.811727
21
356.482407
0
LINE
8
boundary
62
5
39
2
10
69.811727
20
356.482407
11
69.709832
21
355.738884
0
LINE
8
boundary
62
5
39
2
10
69.709832
20
355.738884
11
69.607815
21
355.209938
0
LINE
8
boundary
62
5
39
2
10
69.607815
20
355.209938
11
69.434914
21
354.504794
0
LINE
8
boundary
62
5
39
2
10
69.434914
20
354.504794
11
69.276979
21
354.009289
0
LINE
8
boundary
62
5
39
2
10
69.276979
20
354.009289
11
69.020860
21
353.348824
0
LINE
8
boundary
62
5
39
2
10
69.020860
20
353.348824
11
68.798666
21
352.890970
0
LINE
8
boundary
62
5
39
2
10
68.798666
20
352.890970
11
68.446986
21
352.282173
0
LINE
8
boundary
62
5
39
2
10
68.446986
20
352.282173
11
68.152488
21
351.866487
0
LINE
8
boundary
62
5
39
2
10
68.152488
20
351.866487
11
67.693004
21
351.315729
0
LINE
8
boundary
62
5
39
2
10
67.693004
20
351.315729
11
67.317862
21
350.946339
0
LINE
8
boundary
62
5
39
2
10
67.317862
20
350.946339
11
66.738326
21
350.460549
0
LINE
8
boundary
62
5
39
2
10
66.738326
20
350.460549
11
66.274783
21
350.141695
0
LINE
8
boundary
62
5
39
2
10
66.274783
20
350.141695
11
65.562554
21
349.727368
0
LINE
8
boundary
62
5
39
2
10
65.562554
20
349.727368
11
65.002880
21
349.463571
0
LINE
8
boundary
62
5
39
2
10
65.002880
20
349.463571
11
64.524657
21
349.267525
0
LINE
8
boundary
62
5
39
2
10
64.524657
20
349.267525
11
64.018100
21
349.087038
0
LINE
8
boundary
62
5
39
2
10
64.018100
20
349.087038
11
63.482581
21
348.922818
0
LINE
8
boundary
62
5
39
2
10
63.482581
20
348.922818
11
62.917246
21
348.775000
0
LINE
8
boundary
62
5
39
2
10
62.917246
20
348.775000
11
62.321418
21
348.644039
0
LINE
8
boundary
62
5
39
2
10
62.321418
20
348.644039
11
61.694467
21
348.530397
0
LINE
8
boundary
62
5
39
2
10
61.694467
20
348.530397
11
61.035757
21
348.434598
0
LINE
8
boundary
62
5
39
2
10
61.035757
20
348.434598
11
60.511220
21
348.371490
0
LINE
8
boundary
62
5
39
2
10
60.511220
20
348.371490
11
59.793359
21
348.307800
0
LINE
8
boundary
62
5
39
2
10
59.793359
20
348.307800
11
59.041585
21
348.262967
0
LINE
8
boundary
62
5
39
2
10
59.041585
20
348.262967
11
58.255351
21
348.237481
0
LINE
8
boundary
62
5
39
2
10
58.255351
20
348.237481
11
57.433973
21
348.231734
0
LINE
8
boundary
62
5
39
2
10
57.433973
20
348.231734
11
56.576821
21
348.246123
0
LINE
8
boundary
62
5
39
2
10
56.576821
20
348.246123
11
55.683104
21
348.281147
0
LINE
8
boundary
62
5
39
2
10
55.683104
20
348.281147
11
54.752391
21
348.337007
0
LINE
8
boundary
62
5
39
2
10
54.752391
20
348.337007
11
53.784055
21
348.414344
0
LINE
8
boundary
62
5
39
2
10
53.784055
20
348.414344
11
52.064131
21
349.015760
0
LINE
8
boundary
62
5
39
2
10
52.064131
20
349.015760
11
50.391358
21
349.586383
0
LINE
8
boundary
62
5
39
2
10
50.391358
20
349.586383
11
48.756656
21
350.126633
0
LINE
8
boundary
62
5
39
2
10
48.756656
20
350.126633
11
47.151165
21
350.637065
0
LINE
8
boundary
62
5
39
2
10
47.151165
20
350.637065
11
45.566048
21
351.118220
0
LINE
8
boundary
62
5
39
2
10
45.566048
20
351.118220
11
43.992382
21
351.570393
0
LINE
8
boundary
62
5
39
2
10
43.992382
20
351.570393
11
42.421473
21
351.994167
0
LINE
8
boundary
62
5
39
2
10
42.421473
20
351.994167
11
40.844567
21
352.390322
0
LINE
8
boundary
62
5
39
2
10
40.844567
20
352.390322
11
39.252757
21
352.759144
0
LINE
8
boundary
62
5
39
2
10
39.252757
20
352.759144
11
37.637502
21
353.101148
0
LINE
8
boundary
62
5
39
2
10
37.637502
20
353.101148
11
35.990107
21
353.416765
0
LINE
8
boundary
62
5
39
2
10
35.990107
20
353.416765
11
34.301986
21
353.706633
0
LINE
8
boundary
62
5
39
2
10
34.301986
20
353.706633
11
32.564403
21
353.971408
0
LINE
8
boundary
62
5
39
2
10
32.564403
20
353.971408
11
30.768776
21
354.211230
0
LINE
8
boundary
62
5
39
2
10
30.768776
20
354.211230
11
28.906549
21
354.426900
0
LINE
8
boundary
62
5
39
2
10
28.906549
20
354.426900
11
26.969111
21
354.618753
0
LINE
8
boundary
62
5
39
2
10
26.969111
20
354.618753
11
26.769163
21
352.279179
0
LINE
8
boundary
62
5
39
2
10
26.769163
20
352.279179
11
25.416666
21
335.766825
0
LINE
8
boundary
62
5
39
2
10
25.416666
20
335.766825
11
25.623524
21
334.935594
0
LINE
8
boundary
62
5
39
2
10
25.623524
20
334.935594
11
29.332802
21
320.347905
0
LINE
8
boundary
62
5
39
2
10
29.332802
20
320.347905
11
39.110145
21
320.197909
0
LINE
8
boundary
62
5
39
2
10
39.110145
20
320.197909
11
39.110145
21
317.451908
0
LINE
8
boundary
62
5
39
2
10
39.110145
20
317.451908
11
30.117622
21
317.451908
0
LINE
8
boundary
62
5
39
2
10
30.117622
20
317.451908
11
34.590096
21
299.672244
0
LINE
8
boundary
62
5
39
2
10
34.590096
20
299.672244
11
35.245613
21
297.557363
0
LINE
8
boundary
62
5
39
2
10
35.245613
20
297.557363
11
35.864893
21
295.435943
0
LINE
8
boundary
62
5
39
2
10
35.864893
20
295.435943
11
36.448108
21
293.308262
0
LINE
8
boundary
62
5
39
2
10
36.448108
20
293.308262
11
36.995238
21
291.174497
0
LINE
8
boundary
62
5
39
2
10
36.995238
20
291.174497
11
37.506577
21
289.034700
0
LINE
8
boundary
62
5
39
2
10
37.506577
20
289.034700
11
37.982118
21
286.888979
0
LINE
8
boundary
62
5
39
2
10
37.982118
20
286.888979
11
38.422146
21
284.737569
0
LINE
8
boundary
62
5
39
2
10
38.422146
20
284.737569
11
38.826590
21
282.580499
0
LINE
8
boundary
62
5
39
2
10
38.826590
20
282.580499
11
39.195764
21
280.417797
0
LINE
8
boundary
62
5
39
2
10
39.195764
20
280.417797
11
39.529849
21
278.249817
0
LINE
8
boundary
62
5
39
2
10
39.529849
20
278.249817
11
39.828994
21
276.076411
0
LINE
8
boundary
62
5
39
2
10
39.828994
20
276.076411
11
40.093265
21
273.897767
0
LINE
8
boundary
62
5
39
2
10
40.093265
20
273.897767
11
40.323104
21
271.713970
0
LINE
8
boundary
62
5
39
2
10
40.323104
20
271.713970
11
40.518483
21
269.525099
0
LINE
8
boundary
62
5
39
2
10
40.518483
20
269.525099
11
40.679876
21
267.331253
0
LINE
8
boundary
62
5
39
2
10
40.679876
20
267.331253
11
40.807147
21
265.132543
0
LINE
8
boundary
62
5
39
2
10
40.807147
20
265.132543
11
40.900910
21
262.929188
0
LINE
8
boundary
62
5
39
2
10
40.900910
20
262.929188
11
40.961174
21
260.721053
0
LINE
8
boundary
62
5
39
2
10
40.961174
20
260.721053
11
40.988244
21
258.508226
0
LINE
8
boundary
62
5
39
2
10
40.988244
20
258.508226
11
40.982539
21
256.290831
0
LINE
8
boundary
62
5
39
2
10
40.982539
20
256.290831
11
40.944217
21
254.069111
0
LINE
8
boundary
62
5
39
2
10
40.944217
20
254.069111
11
40.873638
21
251.842737
0
LINE
8
boundary
62
5
39
2
10
40.873638
20
251.842737
11
40.770994
21
249.612205
0
LINE
8
boundary
62
5
39
2
10
40.770994
20
249.612205
11
40.636793
21
247.377295
0
LINE
8
boundary
62
5
39
2
10
40.636793
20
247.377295
11
40.471281
21
245.138248
0
LINE
8
boundary
62
5
39
2
10
40.471281
20
245.138248
11
40.274853
21
242.895108
0
LINE
8
boundary
62
5
39
2
10
40.274853
20
242.895108
11
40.047777
21
240.647898
0
LINE
8
boundary
62
5
39
2
10
40.047777
20
240.647898
11
39.790570
21
238.396645
0
LINE
8
boundary
62
5
39
2
10
39.790570
20
238.396645
11
39.503604
21
236.141509
0
LINE
8
boundary
62
5
39
2
10
39.503604
20
236.141509
11
39.187204
21
233.882662
0
LINE
8
boundary
62
5
39
2
10
39.187204
20
233.882662
11
38.841788
21
231.619895
0
LINE
8
boundary
62
5
39
2
10
38.841788
20
231.619895
11
38.467943
21
229.353586
0
LINE
8
boundary
62
5
39
2
10
38.467943
20
229.353586
11
38.065999
21
227.083559
0
LINE
8
boundary
62
5
39
2
10
38.065999
20
227.083559
11
37.636468
21
224.810110
0
LINE
8
boundary
62
5
39
2
10
37.636468
20
224.810110
11
37.179752
21
222.533239
0
LINE
8
boundary
62
5
39
2
10
37.179752
20
222.533239
11
36.696377
21
220.253045
0
LINE
8
boundary
62
5
39
2
10
36.696377
20
220.253045
11
36.186891
21
217.969560
0
LINE
8
boundary
62
5
39
2
10
36.186891
20
217.969560
11
35.651885
21
215.683115
0
LINE
8
boundary
62
5
39
2
10
35.651885
20
215.683115
11
35.091727
21
213.393596
0
LINE
8
boundary
62
5
39
2
10
35.091727
20
213.393596
11
34.507016
21
211.101198
0
LINE
8
boundary
62
5
39
2
10
34.507016
20
211.101198
11
33.898404
21
208.806049
0
LINE
8
boundary
62
5
39
2
10
33.898404
20
208.806049
11
33.266336
21
206.508323
0
LINE
8
boundary
62
5
39
2
10
33.266336
20
206.508323
11
32.611449
21
204.208161
0
LINE
8
boundary
62
5
39
2
10
32.611449
20
204.208161
11
31.934413
21
201.905624
0
LINE
8
boundary
62
5
39
2
10
31.934413
20
201.905624
11
31.235772
21
199.601042
0
LINE
8
boundary
62
5
39
2
10
31.235772
20
199.601042
11
30.516167
21
197.294451
0
LINE
8
boundary
62
5
39
2
10
30.516167
20
197.294451
11
29.776147
21
194.986037
0
LINE
8
boundary
62
5
39
2
10
29.776147
20
194.986037
11
29.016476
21
192.676152
0
LINE
8
boundary
62
5
39
2
10
29.016476
20
192.676152
11
28.237876
21
190.364843
0
LINE
8
boundary
62
5
39
2
10
28.237876
20
190.364843
11
27.440876
21
188.052407
0
LINE
8
boundary
62
5
39
2
10
27.440876
20
188.052407
11
26.626184
21
185.739050
0
LINE
8
boundary
62
5
39
2
10
26.626184
20
185.739050
11
25.794657
21
183.425137
0
LINE
8
boundary
62
5
39
2
10
25.794657
20
183.425137
11
24.946797
21
181.110805
0
LINE
8
boundary
62
5
39
2
10
24.946797
20
181.110805
11
24.293795
21
179.360641
0
LINE
8
boundary
62
5
39
2
10
24.293795
20
179.360641
11
24.080653
21
178.800010
0
LINE
8
boundary
62
5
39
2
10
24.080653
20
178.800010
11
23.191716
21
176.501207
0
LINE
8
boundary
62
5
39
2
10
23.191716
20
176.501207
11
22.288952
21
174.203865
0
LINE
8
boundary
62
5
39
2
10
22.288952
20
174.203865
11
21.373263
21
171.908264
0
LINE
8
boundary
62
5
39
2
10
21.373263
20
171.908264
11
20.445227
21
169.614778
0
LINE
8
boundary
62
5
39
2
10
20.445227
20
169.614778
11
18.601516
21
165.147259
0
LINE
8
boundary
62
5
39
2
10
18.601516
20
165.147259
11
16.692550
21
160.625196
0
LINE
8
boundary
62
5
39
2
10
16.692550
20
160.625196
11
14.753925
21
156.124679
0
LINE
8
boundary
62
5
39
2
10
14.753925
20
156.124679
11
13.555439
21
151.451903
0
LINE
8
boundary
62
5
39
2
10
13.555439
20
151.451903
11
12.427949
21
146.594497
0
LINE
8
boundary
62
5
39
2
10
12.427949
20
146.594497
11
12.303520
21
146.059754
0
LINE
8
boundary
62
5
39
2
10
12.303520
20
146.059754
11
11.807731
21
143.829571
0
LINE
8
boundary
62
5
39
2
10
11.807731
20
143.829571
11
11.258366
21
141.284569
0
LINE
8
boundary
62
5
39
2
10
11.258366
20
141.284569
11
10.722142
21
138.700564
0
LINE
8
boundary
62
5
39
2
10
10.722142
20
138.700564
11
10.202699
21
136.078739
0
LINE
8
boundary
62
5
39
2
10
10.202699
20
136.078739
11
9.703689
21
133.420466
0
LINE
8
boundary
62
5
39
2
10
9.703689
20
133.420466
11
9.228862
21
130.727061
0
LINE
8
boundary
62
5
39
2
10
9.228862
20
130.727061
11
8.781968
21
127.999996
0
LINE
8
boundary
62
5
39
2
10
8.781968
20
127.999996
11
8.366906
21
125.240599
0
LINE
8
boundary
62
5
39
2
10
8.366906
20
125.240599
11
7.987500
21
122.450484
0
LINE
8
boundary
62
5
39
2
10
7.987500
20
122.450484
11
7.647632
21
119.631139
0
LINE
8
boundary
62
5
39
2
10
7.647632
20
119.631139
11
7.351616
21
116.784461
0
LINE
8
boundary
62
5
39
2
10
7.351616
20
116.784461
11
7.103296
21
113.912113
0
LINE
8
boundary
62
5
39
2
10
7.103296
20
113.912113
11
6.906897
21
111.016081
0
LINE
8
boundary
62
5
39
2
10
6.906897
20
111.016081
11
6.766722
21
108.098380
0
LINE
8
boundary
62
5
39
2
10
6.766722
20
108.098380
11
6.687037
21
105.161333
0
LINE
8
boundary
62
5
39
2
10
6.687037
20
105.161333
11
6.668789
21
103.579267
0
LINE
8
boundary
62
5
39
2
10
6.668789
20
103.579267
11
6.670980
21
102.109775
0
LINE
8
boundary
62
5
39
2
10
6.670980
20
102.109775
11
6.690443
21
100.637403
0
LINE
8
boundary
62
5
39
2
10
6.690443
20
100.637403
11
6.727542
21
99.162622
0
LINE
8
boundary
62
5
39
2
10
6.727542
20
99.162622
11
6.782819
21
97.685730
0
LINE
8
boundary
62
5
39
2
10
6.782819
20
97.685730
11
6.856856
21
96.207103
0
LINE
8
boundary
62
5
39
2
10
6.856856
20
96.207103
11
6.950243
21
94.727087
0
LINE
8
boundary
62
5
39
2
10
6.950243
20
94.727087
11
7.063378
21
93.246146
0
LINE
8
boundary
62
5
39
2
10
7.063378
20
93.246146
11
7.196726
21
91.764672
0
LINE
8
boundary
62
5
39
2
10
7.196726
20
91.764672
11
7.325360
21
90.528028
0
LINE
8
boundary
62
5
39
2
10
7.325360
20
90.528028
11
7.507074
21
88.816486
0
LINE
8
boundary
62
5
39
2
10
7.507074
20
88.816486
11
7.686730
21
87.349079
0
LINE
8
boundary
62
5
39
2
10
7.686730
20
87.349079
11
7.887670
21
85.883098
0
LINE
8
boundary
62
5
39
2
10
7.887670
20
85.883098
11
8.110432
21
84.419019
0
LINE
8
boundary
62
5
39
2
10
8.110432
20
84.419019
11
8.355449
21
82.957246
0
LINE
8
boundary
62
5
39
2
10
8.355449
20
82.957246
11
8.623111
21
81.498234
0
LINE
8
boundary
62
5
39
2
10
8.623111
20
81.498234
11
8.914218
21
80.042475
0
LINE
8
boundary
62
5
39
2
10
8.914218
20
80.042475
11
9.228992
21
78.590309
0
LINE
8
boundary
62
5
39
2
10
9.228992
20
78.590309
11
9.567894
21
77.142256
0
LINE
8
boundary
62
5
39
2
10
9.567894
20
77.142256
11
9.931553
21
75.698781
0
LINE
8
boundary
62
5
39
2
10
9.931553
20
75.698781
11
10.320288
21
74.260250
0
LINE
8
boundary
62
5
39
2
10
10.320288
20
74.260250
11
10.734826
21
72.827274
0
LINE
8
boundary
62
5
39
2
10
10.734826
20
72.827274
11
11.175419
21
71.400296
0
LINE
8
boundary
62
5
39
2
10
11.175419
20
71.400296
11
11.642500
21
69.979721
0
LINE
8
boundary
62
5
39
2
10
11.642500
20
69.979721
11
12.136685
21
68.566180
0
LINE
8
boundary
62
5
39
2
10
12.136685
20
68.566180
11
12.658426
21
67.160141
0
LINE
8
boundary
62
5
39
2
10
12.658426
20
67.160141
11
12.863221
21
66.400594
0
LINE
8
boundary
62
5
39
2
10
12.863221
20
66.400594
11
13.772057
21
62.958954
0
LINE
8
boundary
62
5
39
2
10
13.772057
20
62.958954
11
14.024340
21
62.033204
0
LINE
8
boundary
62
5
39
2
10
14.024340
20
62.033204
11
14.958203
21
58.529614
0
LINE
8
boundary
62
5
39
2
10
14.958203
20
58.529614
11
15.110418
21
57.991092
0
LINE
8
boundary
62
5
39
2
10
15.110418
20
57.991092
11
15.592603
21
56.245823
0
LINE
8
boundary
62
5
39
2
10
15.592603
20
56.245823
11
15.762424
21
55.667070
0
LINE
8
boundary
62
5
39
2
10
15.762424
20
55.667070
11
16.262119
21
53.925010
0
LINE
8
boundary
62
5
39
2
10
16.262119
20
53.925010
11
16.451811
21
53.307345
0
LINE
8
boundary
62
5
39
2
10
16.451811
20
53.307345
11
16.972234
21
51.574226
0
LINE
8
boundary
62
5
39
2
10
16.972234
20
51.574226
11
17.184232
21
50.919473
0
LINE
8
boundary
62
5
39
2
10
17.184232
20
50.919473
11
17.728638
21
49.200581
0
LINE
8
boundary
62
5
39
2
10
17.728638
20
49.200581
11
17.965494
21
48.511063
0
LINE
8
boundary
62
5
39
2
10
17.965494
20
48.511063
11
18.536923
21
46.811493
0
LINE
8
boundary
62
5
39
2
10
18.536923
20
46.811493
11
18.801289
21
46.090053
0
LINE
8
boundary
62
5
39
2
10
18.801289
20
46.090053
11
19.402577
21
44.414461
0
LINE
8
boundary
62
5
39
2
10
19.402577
20
44.414461
11
19.697108
21
43.664497
0
LINE
8
boundary
62
5
39
2
10
19.697108
20
43.664497
11
20.331059
21
42.017290
0
LINE
8
boundary
62
5
39
2
10
20.331059
20
42.017290
11
20.820605
21
40.821113
0
LINE
8
boundary
62
5
39
2
10
20.820605
20
40.821113
11
21.327976
21
39.627879
0
LINE
8
boundary
62
5
39
2
10
21.327976
20
39.627879
11
21.853811
21
38.438636
0
LINE
8
boundary
62
5
39
2
10
21.853811
20
38.438636
11
22.398573
21
37.254376
0
LINE
8
boundary
62
5
39
2
10
22.398573
20
37.254376
11
22.963245
21
36.076154
0
LINE
8
boundary
62
5
39
2
10
22.963245
20
36.076154
11
23.548337
21
34.905058
0
LINE
8
boundary
62
5
39
2
10
23.548337
20
34.905058
11
24.154524
21
33.742105
0
LINE
8
boundary
62
5
39
2
10
24.154524
20
33.742105
11
24.782503
21
32.588473
0
LINE
8
boundary
62
5
39
2
10
24.782503
20
32.588473
11
25.432790
21
31.445065
0
LINE
8
boundary
62
5
39
2
10
25.432790
20
31.445065
11
26.106157
21
30.313104
0
LINE
8
boundary
62
5
39
2
10
26.106157
20
30.313104
11
26.803215
21
29.193704
0
LINE
8
boundary
62
5
39
2
10
26.803215
20
29.193704
11
27.524660
21
28.087949
0
LINE
8
boundary
62
5
39
2
10
27.524660
20
28.087949
11
28.271032
21
26.996919
0
LINE
8
boundary
62
5
39
2
10
28.271032
20
26.996919
11
29.042844
21
25.921784
0
LINE
8
boundary
62
5
39
2
10
29.042844
20
25.921784
11
29.352115
21
25.515479
0
LINE
8
boundary
62
5
39
2
10
29.352115
20
25.515479
11
29.840970
21
24.863664
0
LINE
8
boundary
62
5
39
2
10
29.840970
20
24.863664
11
30.162608
21
24.461746
0
LINE
8
boundary
62
5
39
2
10
30.162608
20
24.461746
11
30.665840
21
23.823678
0
LINE
8
boundary
62
5
39
2
10
30.665840
20
23.823678
11
31.000015
21
23.426976
0
LINE
8
boundary
62
5
39
2
10
31.000015
20
23.426976
11
31.518152
21
22.803038
0
LINE
8
boundary
62
5
39
2
10
31.518152
20
22.803038
11
31.864991
21
22.412334
0
LINE
8
boundary
62
5
39
2
10
31.864991
20
22.412334
11
32.398506
21
21.802830
0
LINE
8
boundary
62
5
39
2
10
32.398506
20
21.802830
11
32.758048
21
21.418870
0
LINE
8
boundary
62
5
39
2
10
32.758048
20
21.418870
11
33.307319
21
20.824139
0
LINE
8
boundary
62
5
39
2
10
33.307319
20
20.824139
11
33.679726
21
20.447778
0
LINE
8
boundary
62
5
39
2
10
33.679726
20
20.447778
11
34.245428
21
19.868260
0
LINE
8
boundary
62
5
39
2
10
34.245428
20
19.868260
11
34.630726
21
19.500220
0
LINE
8
boundary
62
5
39
2
10
34.630726
20
19.500220
11
35.213286
21
18.936212
0
LINE
8
boundary
62
5
39
2
10
35.213286
20
18.936212
11
35.611438
21
18.577230
0
LINE
8
boundary
62
5
39
2
10
35.611438
20
18.577230
11
36.211306
21
18.029149
0
LINE
8
boundary
62
5
39
2
10
36.211306
20
18.029149
11
36.622439
21
17.679987
0
LINE
8
boundary
62
5
39
2
10
36.622439
20
17.679987
11
37.240315
21
17.148264
0
LINE
8
boundary
62
5
39
2
10
37.240315
20
17.148264
11
37.664380
21
16.809598
0
LINE
8
boundary
62
5
39
2
10
37.664380
20
16.809598
11
38.300773
21
16.294658
0
LINE
8
boundary
62
5
39
2
10
38.300773
20
16.294658
11
38.737692
21
15.967174
0
LINE
8
boundary
62
5
39
2
10
38.737692
20
15.967174
11
39.393160
21
15.469445
0
LINE
8
boundary
62
5
39
2
10
39.393160
20
15.469445
11
39.842925
21
15.153820
0
LINE
8
boundary
62
5
39
2
10
39.842925
20
15.153820
11
40.518049
21
14.673755
0
LINE
8
boundary
62
5
39
2
10
40.518049
20
14.673755
11
40.980611
21
14.370571
0
LINE
8
boundary
62
5
39
2
10
40.980611
20
14.370571
11
41.676053
21
13.908704
0
LINE
8
boundary
62
5
39
2
10
41.676053
20
13.908704
11
42.151289
21
13.618550
0
LINE
8
boundary
62
5
39
2
10
42.151289
20
13.618550
11
42.867605
21
13.175300
0
LINE
8
boundary
62
5
39
2
10
42.867605
20
13.175300
11
43.355411
21
12.898730
0
LINE
8
boundary
62
5
39
2
10
43.355411
20
12.898730
11
44.093163
21
12.474644
0
LINE
8
boundary
62
5
39
2
10
44.093163
20
12.474644
11
44.593426
21
12.212180
0
LINE
8
boundary
62
5
39
2
10
44.593426
20
12.212180
11
45.353335
21
11.807823
0
LINE
8
boundary
62
5
39
2
10
45.353335
20
11.807823
11
45.865918
21
11.559928
0
LINE
8
boundary
62
5
39
2
10
45.865918
20
11.559928
11
46.648558
21
11.175848
0
LINE
8
boundary
62
5
39
2
10
46.648558
20
11.175848
11
47.173348
21
10.942976
0
LINE
8
boundary
62
5
39
2
10
47.173348
20
10.942976
11
47.979325
21
10.579733
0
LINE
8
boundary
62
5
39
2
10
47.979325
20
10.579733
11
48.516150
21
10.362252
0
LINE
8
boundary
62
5
39
2
10
48.516150
20
10.362252
11
49.346189
21
10.020447
0
LINE
8
boundary
62
5
39
2
10
49.346189
20
10.020447
11
49.894901
21
9.818723
0
LINE
8
boundary
62
5
39
2
10
49.894901
20
9.818723
11
50.749524
21
9.498895
0
LINE
8
boundary
62
5
39
2
10
50.749524
20
9.498895
11
51.309939
21
9.313263
0
LINE
8
annotation
62
1
39
211
10
45.770244
20
316.424908
11
45.770244
21
321.224908
0
LINE
8
annotation
62
1
39
211
10
45.770244
20
321.224908
11
44.703143
21
320.157506
0
LINE
8
annotation
62
1
39
211
10
48.653047
20
399.778700
11
46.647710
21
399.778700
0
LINE
8
annotation
62
1
39
211
10
46.647710
20
399.778700
11
48.500707
21
402.761786
0
LINE
8
annotation
62
1
39
211
10
48.500707
20
402.761786
11
48.500707
21
402.761786
0
LINE
8
annotation
62
1
39
211
10
48.500707
20
402.761786
11
48.502922
21
402.764527
0
LINE
8
annotation
62
1
39
211
10
48.502922
20
402.764527
11
48.505046
21
402.767291
0
LINE
8
annotation
62
1
39
211
10
48.505046
20
402.767291
11
48.507093
21
402.770102
0
LINE
8
annotation
62
1
39
211
10
48.507093
20
402.770102
11
48.509078
21
402.772983
0
LINE
8
annotation
62
1
39
211
10
48.509078
20
402.772983
11
48.511013
21
402.775957
0
LINE
8
annotation
62
1
39
211
10
48.511013
20
402.775957
11
48.512914
21
402.779048
0
LINE
8
annotation
62
1
39
211
10
48.512914
20
402.779048
11
48.514794
21
402.782278
0
LINE
8
annotation
62
1
39
211
10
48.514794
20
402.782278
11
48.516666
21
402.785672
0
LINE
8
annotation
62
1
39
211
10
48.516666
20
402.785672
11
48.518546
21
402.789252
0
LINE
8
annotation
62
1
39
211
10
48.518546
20
402.789252
11
48.518546
21
402.789252
0
LINE
8
annotation
62
1
39
211
10
48.518546
20
402.789252
11
48.595056
21
402.953525
0
LINE
8
annotation
62
1
39
211
10
48.595056
20
402.953525
11
48.639751
21
403.123809
0
LINE
8
annotation
62
1
39
211
10
48.639751
20
403.123809
11
48.653728
21
403.296255
0
LINE
8
annotation
62
1
39
211
10
48.653728
20
403.296255
11
48.638082
21
403.467016
0
LINE
8
annotation
62
1
39
211
10
48.638082
20
403.467016
11
48.593907
21
403.632244
0
LINE
8
annotation
62
1
39
211
10
48.593907
20
403.632244
11
48.522300
21
403.788092
0
LINE
8
annotation
62
1
39
211
10
48.522300
20
403.788092
11
48.424356
21
403.930712
0
LINE
8
annotation
62
1
39
211
10
48.424356
20
403.930712
11
48.301169
21
404.056257
0
LINE
8
annotation
62
1
39
211
10
48.301169
20
404.056257
11
48.153836
21
404.160877
0
LINE
8
annotation
62
1
39
211
10
48.153836
20
404.160877
11
48.153836
21
404.160877
0
LINE
8
annotation
62
1
39
211
10
48.153836
20
404.160877
11
47.989106
21
404.236300
0
LINE
8
annotation
62
1
39
211
10
47.989106
20
404.236300
11
47.818562
21
404.280307
0
LINE
8
annotation
62
1
39
211
10
47.818562
20
404.280307
11
47.646016
21
404.293889
0
LINE
8
annotation
62
1
39
211
10
47.646016
20
404.293889
11
47.475280
21
404.278036
0
LINE
8
annotation
62
1
39
211
10
47.475280
20
404.278036
11
47.310168
21
404.233739
0
LINE
8
annotation
62
1
39
211
10
47.310168
20
404.233739
11
47.154493
21
404.161989
0
LINE
8
annotation
62
1
39
211
10
47.154493
20
404.161989
11
47.012066
21
404.063775
0
LINE
8
annotation
62
1
39
211
10
47.012066
20
404.063775
11
46.886701
21
403.940089
0
LINE
8
annotation
62
1
39
211
10
46.886701
20
403.940089
11
46.782211
21
403.791920
0
LINE
8
annotation
62
1
39
211
10
46.782211
20
403.791920
11
46.650542
21
403.539342
0
LINE
8
annotation
62
1
39
211
10
82.778779
20
349.413300
11
80.343537
21
345.890946
0
LINE
8
annotation
62
1
39
211
10
80.343537
20
345.890946
11
77.907838
21
349.413300
0
LINE
8
annotation
62
1
39
211
10
80.343537
20
346.174402
11
80.343537
21
342.110781
0
LINE
8
annotation
62
1
39
211
10
89.510610
20
345.762041
11
85.517968
21
345.762041
0
LINE
8
annotation
62
1
39
211
10
95.491767
20
342.110951
11
92.248747
21
342.110951
0
LINE
8
annotation
62
1
39
211
10
92.248747
20
342.110951
11
95.245404
21
346.935184
0
LINE
8
annotation
62
1
39
211
10
95.245404
20
346.935184
11
95.245404
21
346.935184
0
LINE
8
annotation
62
1
39
211
10
95.245404
20
346.935184
11
95.248986
21
346.939616
0
LINE
8
annotation
62
1
39
211
10
95.248986
20
346.939616
11
95.252422
21
346.944087
0
LINE
8
annotation
62
1
39
211
10
95.252422
20
346.944087
11
95.255733
21
346.948633
0
LINE
8
annotation
62
1
39
211
10
95.255733
20
346.948633
11
95.258942
21
346.953292
0
LINE
8
annotation
62
1
39
211
10
95.258942
20
346.953292
11
95.262072
21
346.958102
0
LINE
8
annotation
62
1
39
211
10
95.262072
20
346.958102
11
95.265146
21
346.963100
0
LINE
8
annotation
62
1
39
211
10
95.265146
20
346.963100
11
95.268185
21
346.968324
0
LINE
8
annotation
62
1
39
211
10
95.268185
20
346.968324
11
95.271214
21
346.973812
0
LINE
8
annotation
62
1
39
211
10
95.271214
20
346.973812
11
95.274253
21
346.979602
0
LINE
8
annotation
62
1
39
211
10
95.274253
20
346.979602
11
95.274253
21
346.979602
0
LINE
8
annotation
62
1
39
211
10
95.274253
20
346.979602
11
95.397984
21
347.245264
0
LINE
8
annotation
62
1
39
211
10
95.397984
20
347.245264
11
95.470266
21
347.520645
0
LINE
8
annotation
62
1
39
211
10
95.470266
20
347.520645
11
95.492870
21
347.799524
0
LINE
8
annotation
62
1
39
211
10
95.492870
20
347.799524
11
95.467566
21
348.075678
0
LINE
8
annotation
62
1
39
211
10
95.467566
20
348.075678
11
95.396128
21
348.342885
0
LINE
8
annotation
62
1
39
211
10
95.396128
20
348.342885
11
95.280325
21
348.594922
0
LINE
8
annotation
62
1
39
211
10
95.280325
20
348.594922
11
95.121930
21
348.825566
0
LINE
8
annotation
62
1
39
211
10
95.121930
20
348.825566
11
94.922713
21
349.028596
0
LINE
8
annotation
62
1
39
211
10
94.922713
20
349.028596
11
94.684447
21
349.197788
0
LINE
8
annotation
62
1
39
211
10
94.684447
20
349.197788
11
94.684447
21
349.197788
0
LINE
8
annotation
62
1
39
211
10
94.684447
20
349.197788
11
94.418047
21
349.319761
0
LINE
8
annotation
62
1
39
211
10
94.418047
20
349.319761
11
94.142243
21
349.390929
0
LINE
8
annotation
62
1
39
211
10
94.142243
20
349.390929
11
93.863202
21
349.412893
0
LINE
8
annotation
62
1
39
211
10
93.863202
20
349.412893
11
93.587089
21
349.387256
0
LINE
8
annotation
62
1
39
211
10
93.587089
20
349.387256
11
93.320071
21
349.315620
0
LINE
8
annotation
62
1
39
211
10
93.320071
20
349.315620
11
93.068313
21
349.199585
0
LINE
8
annotation
62
1
39
211
10
93.068313
20
349.199585
11
92.837982
21
349.040755
0
LINE
8
annotation
62
1
39
211
10
92.837982
20
349.040755
11
92.635242
21
348.840730
0
LINE
8
annotation
62
1
39
211
10
92.635242
20
348.840730
11
92.466261
21
348.601112
0
LINE
8
annotation
62
1
39
211
10
92.466261
20
348.601112
11
92.253326
21
348.192644
0
LINE
8
annotation
62
1
39
211
10
101.474163
20
342.110951
11
98.231143
21
342.110951
0
LINE
8
annotation
62
1
39
211
10
98.231143
20
342.110951
11
101.227799
21
346.935184
0
LINE
8
annotation
62
1
39
211
10
101.227799
20
346.935184
11
101.227799
21
346.935184
0
LINE
8
annotation
62
1
39
211
10
101.227799
20
346.935184
11
101.231382
21
346.939616
0
LINE
8
annotation
62
1
39
211
10
101.231382
20
346.939616
11
101.234817
21
346.944087
0
LINE
8
annotation
62
1
39
211
10
101.234817
20
346.944087
11
101.238128
21
346.948633
0
LINE
8
annotation
62
1
39
211
10
101.238128
20
346.948633
11
101.241337
21
346.953292
0
LINE
8
annotation
62
1
39
211
10
101.241337
20
346.953292
11
101.244467
21
346.958102
0
LINE
8
annotation
62
1
39
211
10
101.244467
20
346.958102
11
101.247541
21
346.963100
0
LINE
8
annotation
62
1
39
211
10
101.247541
20
346.963100
11
101.250581
21
346.968324
0
LINE
8
annotation
62
1
39
211
10
101.250581
20
346.968324
11
101.253609
21
346.973812
0
LINE
8
annotation
62
1
39
211
10
101.253609
20
346.973812
11
101.256649
21
346.979602
0
LINE
8
annotation
62
1
39
211
10
101.256649
20
346.979602
11
101.256649
21
346.979602
0
LINE
8
annotation
62
1
39
211
10
101.256649
20
346.979602
11
101.380380
21
347.245264
0
LINE
8
annotation
62
1
39
211
10
101.380380
20
347.245264
11
101.452662
21
347.520645
0
LINE
8
annotation
62
1
39
211
10
101.452662
20
347.520645
11
101.475265
21
347.799524
0
LINE
8
annotation
62
1
39
211
10
101.475265
20
347.799524
11
101.449962
21
348.075678
0
LINE
8
annotation
62
1
39
211
10
101.449962
20
348.075678
11
101.378523
21
348.342885
0
LINE
8
annotation
62
1
39
211
10
101.378523
20
348.342885
11
101.262720
21
348.594922
0
LINE
8
annotation
62
1
39
211
10
101.262720
20
348.594922
11
101.104325
21
348.825566
0
LINE
8
annotation
62
1
39
211
10
101.104325
20
348.825566
11
100.905108
21
349.028596
0
LINE
8
annotation
62
1
39
211
10
100.905108
20
349.028596
11
100.666842
21
349.197788
0
LINE
8
annotation
62
1
39
211
10
100.666842
20
349.197788
11
100.666842
21
349.197788
0
LINE
8
annotation
62
1
39
211
10
100.666842
20
349.197788
11
100.400442
21
349.319761
0
LINE
8
annotation
62
1
39
211
10
100.400442
20
349.319761
11
100.124638
21
349.390929
0
LINE
8
annotation
62
1
39
211
10
100.124638
20
349.390929
11
99.845597
21
349.412893
0
LINE
8
annotation
62
1
39
211
10
99.845597
20
349.412893
11
99.569485
21
349.387256
0
LINE
8
annotation
62
1
39
211
10
99.569485
20
349.387256
11
99.302466
21
349.315620
0
LINE
8
annotation
62
1
39
211
10
99.302466
20
349.315620
11
99.050708
21
349.199585
0
LINE
8
annotation
62
1
39
211
10
99.050708
20
349.199585
11
98.820377
21
349.040755
0
LINE
8
annotation
62
1
39
211
10
98.820377
20
349.040755
11
98.617638
21
348.840730
0
LINE
8
annotation
62
1
39
211
10
98.617638
20
348.840730
11
98.448657
21
348.601112
0
LINE
8
annotation
62
1
39
211
10
98.448657
20
348.601112
11
98.235722
21
348.192644
0
LINE
8
frame
62
5
39
2
10
0.000000
20
0.000000
11
215.900000
21
0.000000
0
LINE
8
frame
62
5
39
2
10
215.900000
20
0.000000
11
215.900000
21
279.400000
0
LINE
8
frame
62
5
39
2
10
215.900000
20
279.400000
11
0.000000
21
279.400000
0
LINE
8
frame
62
5
39
2
10
0.000000
20
279.400000
11
0.000000
21
0.000000
0
ENDSEC
0
EOF
