0
SECTION
2
HEADER
9
$ACADVER
1
AC1009
0
ENDSEC
0
SECTION
2
TABLES
0
TABLE
2
VPORT
70
1
0
VPORT
2
ACTIVE
70
0
10
0.0
20
0.0
11
0.0
21
0.0
12
0.0
22
0.0
13
0.0
23
0.0
14
0.0
24
0.0
15
0.0
25
0.0
16
0.0
26
0.0
36
0.0
17
0.0
27
0.0
37
0.0
40
0.0
41
0.0
42
0.0
43
0.0
44
0.0
50
0.0
51
0.0
71
0
72
1000
73
1
74
3
75
0
76
0
77
0
78
0
0
ENDTAB
0
ENDSEC
0
SECTION
2
ENTITIES
0
LINE
8
boundary
62
5
39
2
10
55.754536
20
8.689221
11
56.444624
21
8.486014
0
LINE
8
boundary
62
5
39
2
10
56.444624
20
8.486014
11
57.374030
21
8.250850
0
LINE
8
boundary
62
5
39
2
10
57.374030
20
8.250850
11
58.082949
21
8.065176
0
LINE
8
boundary
62
5
39
2
10
58.082949
20
8.065176
11
59.035151
21
7.854577
0
LINE
8
boundary
62
5
39
2
10
59.035151
20
7.854577
11
59.763524
21
7.686706
0
LINE
8
boundary
62
5
39
2
10
59.763524
20
7.686706
11
60.738340
21
7.501205
0
LINE
8
boundary
62
5
39
2
10
60.738340
20
7.501205
11
61.486711
21
7.351514
0
LINE
8
boundary
62
5
39
2
10
61.486711
20
7.351514
11
62.484099
21
7.191561
0
LINE
8
boundary
62
5
39
2
10
62.484099
20
7.191561
11
63.253123
21
7.060376
0
LINE
8
boundary
62
5
39
2
10
63.253123
20
7.060376
11
64.272848
21
6.926402
0
LINE
8
boundary
62
5
39
2
10
64.272848
20
6.926402
11
65.063101
21
6.814059
0
LINE
8
boundary
62
5
39
2
10
65.063101
20
6.814059
11
65.587425
21
6.698391
0
LINE
8
boundary
62
5
39
2
10
65.587425
20
6.698391
11
66.211934
21
6.670820
0
LINE
8
boundary
62
5
39
2
10
66.211934
20
6.670820
11
66.753296
21
6.702074
0
LINE
8
boundary
62
5
39
2
10
66.753296
20
6.702074
11
67.338834
21
6.781589
0
LINE
8
boundary
62
5
39
2
10
67.338834
20
6.781589
11
67.961755
21
6.907914
0
LINE
8
boundary
62
5
39
2
10
67.961755
20
6.907914
11
68.615233
21
7.079607
0
LINE
8
boundary
62
5
39
2
10
68.615233
20
7.079607
11
69.292438
21
7.295180
0
LINE
8
boundary
62
5
39
2
10
69.292438
20
7.295180
11
69.986586
21
7.553150
0
LINE
8
boundary
62
5
39
2
10
69.986586
20
7.553150
11
70.690890
21
7.851996
0
LINE
8
boundary
62
5
39
2
10
70.690890
20
7.851996
11
71.398578
21
8.190216
0
LINE
8
boundary
62
5
39
2
10
71.398578
20
8.190216
11
72.102878
21
8.566385
0
LINE
8
boundary
62
5
39
2
10
72.102878
20
8.566385
11
72.797083
21
8.979000
0
LINE
8
boundary
62
5
39
2
10
72.797083
20
8.979000
11
73.474480
21
9.426571
0
LINE
8
boundary
62
5
39
2
10
73.474480
20
9.426571
11
74.128275
21
9.907716
0
LINE
8
boundary
62
5
39
2
10
74.128275
20
9.907716
11
74.751833
21
10.420992
0
LINE
8
boundary
62
5
39
2
10
74.751833
20
10.420992
11
75.185775
21
10.807377
0
LINE
8
boundary
62
5
39
2
10
75.185775
20
10.807377
11
75.595965
21
11.211203
0
LINE
8
boundary
62
5
39
2
10
75.595965
20
11.211203
11
76.002923
21
11.666864
0
LINE
8
boundary
62
5
39
2
10
76.002923
20
11.666864
11
76.360292
21
12.101794
0
LINE
8
boundary
62
5
39
2
10
76.360292
20
12.101794
11
76.703245
21
12.588826
0
LINE
8
boundary
62
5
39
2
10
76.703245
20
12.588826
11
76.996877
21
13.052851
0
LINE
8
boundary
62
5
39
2
10
76.996877
20
13.052851
11
77.264407
21
13.569177
0
LINE
8
boundary
62
5
39
2
10
77.264407
20
13.569177
11
77.483481
21
14.060294
0
LINE
8
boundary
62
5
39
2
10
77.483481
20
14.060294
11
77.663927
21
14.603684
0
LINE
8
boundary
62
5
39
2
10
77.663927
20
14.603684
11
77.797443
21
15.119996
0
LINE
8
boundary
62
5
39
2
10
77.797443
20
15.119996
11
77.879396
21
15.688447
0
LINE
8
boundary
62
5
39
2
10
77.879396
20
15.688447
11
77.916452
21
16.228208
0
LINE
8
boundary
62
5
39
2
10
77.916452
20
16.228208
11
77.888331
21
16.819838
0
LINE
8
boundary
62
5
39
2
10
77.888331
20
16.819838
11
77.818053
21
17.381298
0
LINE
8
boundary
62
5
39
2
10
77.818053
20
17.381298
11
77.668312
21
17.994303
0
LINE
8
boundary
62
5
39
2
10
77.668312
20
17.994303
11
77.479721
21
18.575866
0
LINE
8
boundary
62
5
39
2
10
77.479721
20
18.575866
11
77.196973
21
19.208549
0
LINE
8
boundary
62
5
39
2
10
77.196973
20
19.208549
11
76.879137
21
19.808701
0
LINE
8
boundary
62
5
39
2
10
76.879137
20
19.808701
11
76.451748
21
20.459428
0
LINE
8
boundary
62
5
39
2
10
76.451748
20
20.459428
11
76.138629
21
20.884024
0
LINE
8
boundary
62
5
39
2
10
76.138629
20
20.884024
11
75.791759
21
21.312300
0
LINE
8
boundary
62
5
39
2
10
75.791759
20
21.312300
11
75.410226
21
21.744057
0
LINE
8
boundary
62
5
39
2
10
75.410226
20
21.744057
11
74.993313
21
22.179292
0
LINE
8
boundary
62
5
39
2
10
74.993313
20
22.179292
11
74.305554
21
22.429598
0
LINE
8
boundary
62
5
39
2
10
74.305554
20
22.429598
11
73.402629
21
22.545764
0
LINE
8
boundary
62
5
39
2
10
73.402629
20
22.545764
11
72.492388
21
22.690547
0
LINE
8
boundary
62
5
39
2
10
72.492388
20
22.690547
11
71.575544
21
22.863865
0
LINE
8
boundary
62
5
39
2
10
71.575544
20
22.863865
11
70.652586
21
23.065750
0
LINE
8
boundary
62
5
39
2
10
70.652586
20
23.065750
11
69.724074
21
23.296090
0
LINE
8
boundary
62
5
39
2
10
69.724074
20
23.296090
11
68.790637
21
23.554814
0
LINE
8
boundary
62
5
39
2
10
68.790637
20
23.554814
11
67.852857
21
23.841945
0
LINE
8
boundary
62
5
39
2
10
67.852857
20
23.841945
11
66.911206
21
24.157346
0
LINE
8
boundary
62
5
39
2
10
66.911206
20
24.157346
11
65.966358
21
24.500977
0
LINE
8
boundary
62
5
39
2
10
65.966358
20
24.500977
11
65.018921
21
24.872733
0
LINE
8
boundary
62
5
39
2
10
65.018921
20
24.872733
11
64.069452
21
25.272539
0
LINE
8
boundary
62
5
39
2
10
64.069452
20
25.272539
11
63.118532
21
25.700325
0
LINE
8
boundary
62
5
39
2
10
63.118532
20
25.700325
11
62.166657
21
26.155962
0
LINE
8
boundary
62
5
39
2
10
62.166657
20
26.155962
11
61.214572
21
26.639377
0
LINE
8
boundary
62
5
39
2
10
61.214572
20
26.639377
11
60.262790
21
27.150392
0
LINE
8
boundary
62
5
39
2
10
60.262790
20
27.150392
11
59.311904
21
27.688956
0
LINE
8
boundary
62
5
39
2
10
59.311904
20
27.688956
11
58.362604
21
28.254927
0
LINE
8
boundary
62
5
39
2
10
58.362604
20
28.254927
11
57.927187
21
28.523549
0
LINE
8
boundary
62
5
39
2
10
57.927187
20
28.523549
11
57.415401
21
28.848139
0
LINE
8
boundary
62
5
39
2
10
57.415401
20
28.848139
11
56.979472
21
29.130288
0
LINE
8
boundary
62
5
39
2
10
56.979472
20
29.130288
11
56.470894
21
29.468485
0
LINE
8
boundary
62
5
39
2
10
56.470894
20
29.468485
11
56.034627
21
29.764271
0
LINE
8
boundary
62
5
39
2
10
56.034627
20
29.764271
11
55.529668
21
30.115784
0
LINE
8
boundary
62
5
39
2
10
55.529668
20
30.115784
11
55.093286
21
30.425347
0
LINE
8
boundary
62
5
39
2
10
55.093286
20
30.425347
11
54.592412
21
30.789884
0
LINE
8
boundary
62
5
39
2
10
54.592412
20
30.789884
11
54.155984
21
31.113372
0
LINE
8
boundary
62
5
39
2
10
54.155984
20
31.113372
11
53.659623
21
31.490607
0
LINE
8
boundary
62
5
39
2
10
53.659623
20
31.490607
11
53.223266
21
31.828143
0
LINE
8
boundary
62
5
39
2
10
53.223266
20
31.828143
11
52.731828
21
32.217745
0
LINE
8
boundary
62
5
39
2
10
52.731828
20
32.217745
11
52.295710
21
32.569532
0
LINE
8
boundary
62
5
39
2
10
52.295710
20
32.569532
11
51.809780
21
32.971181
0
LINE
8
boundary
62
5
39
2
10
51.809780
20
32.971181
11
51.374057
21
33.337416
0
LINE
8
boundary
62
5
39
2
10
51.374057
20
33.337416
11
50.893982
21
33.750673
0
LINE
8
boundary
62
5
39
2
10
50.893982
20
33.750673
11
50.458821
21
34.131500
0
LINE
8
boundary
62
5
39
2
10
50.458821
20
34.131500
11
49.985105
21
34.556011
0
LINE
8
boundary
62
5
39
2
10
49.985105
20
34.556011
11
49.550642
21
34.951674
0
LINE
8
boundary
62
5
39
2
10
49.550642
20
34.951674
11
49.083644
21
35.386989
0
LINE
8
boundary
62
5
39
2
10
49.083644
20
35.386989
11
48.649942
21
35.797702
0
LINE
8
boundary
62
5
39
2
10
48.649942
20
35.797702
11
48.190182
21
36.243417
0
LINE
8
boundary
62
5
39
2
10
48.190182
20
36.243417
11
47.757551
21
36.669427
0
LINE
8
boundary
62
5
39
2
10
47.757551
20
36.669427
11
47.305374
21
37.125018
0
LINE
8
boundary
62
5
39
2
10
47.305374
20
37.125018
11
46.873829
21
37.566545
0
LINE
8
boundary
62
5
39
2
10
46.873829
20
37.566545
11
46.429717
21
38.031589
0
LINE
8
boundary
62
5
39
2
10
46.429717
20
38.031589
11
45.999533
21
38.488919
0
LINE
8
boundary
62
5
39
2
10
45.999533
20
38.488919
11
45.563818
21
38.962852
0
LINE
8
boundary
62
5
39
2
10
45.563818
20
38.962852
11
45.135102
21
39.436237
0
LINE
8
boundary
62
5
39
2
10
45.135102
20
39.436237
11
44.708277
21
39.918571
0
LINE
8
boundary
62
5
39
2
10
44.708277
20
39.918571
11
44.281303
21
40.408311
0
LINE
8
boundary
62
5
39
2
10
44.281303
20
40.408311
11
43.863705
21
40.898504
0
LINE
8
boundary
62
5
39
2
10
43.863705
20
40.898504
11
43.438605
21
41.404909
0
LINE
8
boundary
62
5
39
2
10
43.438605
20
41.404909
11
43.030554
21
41.902373
0
LINE
8
boundary
62
5
39
2
10
43.030554
20
41.902373
11
42.607587
21
42.425714
0
LINE
8
boundary
62
5
39
2
10
42.607587
20
42.425714
11
42.209522
21
42.929887
0
LINE
8
boundary
62
5
39
2
10
42.209522
20
42.929887
11
41.788876
21
43.470517
0
LINE
8
boundary
62
5
39
2
10
41.788876
20
43.470517
11
41.401058
21
43.980792
0
LINE
8
boundary
62
5
39
2
10
41.401058
20
43.980792
11
40.983018
21
44.539011
0
LINE
8
boundary
62
5
39
2
10
40.983018
20
44.539011
11
40.605871
21
45.054768
0
LINE
8
boundary
62
5
39
2
10
40.605871
20
45.054768
11
40.190665
21
45.630942
0
LINE
8
boundary
62
5
39
2
10
40.190665
20
45.630942
11
39.824338
21
46.151560
0
LINE
8
boundary
62
5
39
2
10
39.824338
20
46.151560
11
39.412203
21
46.745993
0
LINE
8
boundary
62
5
39
2
10
39.412203
20
46.745993
11
39.057045
21
47.270796
0
LINE
8
boundary
62
5
39
2
10
39.057045
20
47.270796
11
38.648272
21
47.883856
0
LINE
8
boundary
62
5
39
2
10
38.648272
20
47.883856
11
38.304529
21
48.412245
0
LINE
8
boundary
62
5
39
2
10
38.304529
20
48.412245
11
37.899449
21
49.044295
0
LINE
8
boundary
62
5
39
2
10
37.899449
20
49.044295
11
37.567364
21
49.575560
0
LINE
8
boundary
62
5
39
2
10
37.567364
20
49.575560
11
37.166264
21
50.226943
0
LINE
8
boundary
62
5
39
2
10
37.166264
20
50.226943
11
36.846111
21
50.760470
0
LINE
8
boundary
62
5
39
2
10
36.846111
20
50.760470
11
36.449420
21
51.431548
0
LINE
8
boundary
62
5
39
2
10
36.449420
20
51.431548
11
36.141210
21
51.966589
0
LINE
8
boundary
62
5
39
2
10
36.141210
20
51.966589
11
35.749199
21
52.657725
0
LINE
8
boundary
62
5
39
2
10
35.749199
20
52.657725
11
35.453259
21
53.193660
0
LINE
8
boundary
62
5
39
2
10
35.453259
20
53.193660
11
35.066455
21
53.905199
0
LINE
8
boundary
62
5
39
2
10
35.066455
20
53.905199
11
34.782782
21
54.441296
0
LINE
8
boundary
62
5
39
2
10
34.782782
20
54.441296
11
34.401467
21
55.173593
0
LINE
8
boundary
62
5
39
2
10
34.401467
20
55.173593
11
34.130269
21
55.709211
0
LINE
8
boundary
62
5
39
2
10
34.130269
20
55.709211
11
33.754865
21
56.462577
0
LINE
8
boundary
62
5
39
2
10
33.754865
20
56.462577
11
33.496113
21
56.997032
0
LINE
8
boundary
62
5
39
2
10
33.496113
20
56.997032
11
33.127167
21
57.771848
0
LINE
8
boundary
62
5
39
2
10
33.127167
20
57.771848
11
32.880977
21
58.304459
0
LINE
8
boundary
62
5
39
2
10
32.880977
20
58.304459
11
32.518991
21
59.101032
0
LINE
8
boundary
62
5
39
2
10
32.518991
20
59.101032
11
32.285319
21
59.631153
0
LINE
8
boundary
62
5
39
2
10
32.285319
20
59.631153
11
31.930678
21
60.449772
0
LINE
8
boundary
62
5
39
2
10
31.930678
20
60.449772
11
31.709535
21
60.976747
0
LINE
8
boundary
62
5
39
2
10
31.709535
20
60.976747
11
31.362942
21
61.817719
0
LINE
8
boundary
62
5
39
2
10
31.362942
20
61.817719
11
31.154271
21
62.340935
0
LINE
8
boundary
62
5
39
2
10
31.154271
20
62.340935
11
30.816150
21
63.204491
0
LINE
8
boundary
62
5
39
2
10
30.816150
20
63.204491
11
30.619888
21
63.723335
0
LINE
8
boundary
62
5
39
2
10
30.619888
20
63.723335
11
30.290937
21
64.609781
0
LINE
8
boundary
62
5
39
2
10
30.290937
20
64.609781
11
30.106907
21
65.123656
0
LINE
8
boundary
62
5
39
2
10
30.106907
20
65.123656
11
29.787596
21
66.033173
0
LINE
8
boundary
62
5
39
2
10
29.787596
20
66.033173
11
29.615697
21
66.541520
0
LINE
8
boundary
62
5
39
2
10
29.615697
20
66.541520
11
29.306782
21
67.474287
0
LINE
8
boundary
62
5
39
2
10
29.306782
20
67.474287
11
29.146898
21
67.976578
0
LINE
8
boundary
62
5
39
2
10
29.146898
20
67.976578
11
28.849027
21
68.932751
0
LINE
8
boundary
62
5
39
2
10
28.849027
20
68.932751
11
28.700856
21
69.428498
0
LINE
8
boundary
62
5
39
2
10
28.700856
20
69.428498
11
28.414660
21
70.408236
0
LINE
8
boundary
62
5
39
2
10
28.414660
20
70.408236
11
28.004321
21
71.900369
0
LINE
8
boundary
62
5
39
2
10
28.004321
20
71.900369
11
27.618378
21
73.408662
0
LINE
8
boundary
62
5
39
2
10
27.618378
20
73.408662
11
27.257320
21
74.932817
0
LINE
8
boundary
62
5
39
2
10
27.257320
20
74.932817
11
26.921596
21
76.472450
0
LINE
8
boundary
62
5
39
2
10
26.921596
20
76.472450
11
26.611519
21
78.027121
0
LINE
8
boundary
62
5
39
2
10
26.611519
20
78.027121
11
26.327892
21
79.596501
0
LINE
8
boundary
62
5
39
2
10
26.327892
20
79.596501
11
26.071013
21
81.180145
0
LINE
8
boundary
62
5
39
2
10
26.071013
20
81.180145
11
25.764322
21
82.416783
0
LINE
8
boundary
62
5
39
2
10
25.764322
20
82.416783
11
25.474415
21
83.652684
0
LINE
8
boundary
62
5
39
2
10
25.474415
20
83.652684
11
25.200625
21
84.887809
0
LINE
8
boundary
62
5
39
2
10
25.200625
20
84.887809
11
24.943187
21
86.122020
0
LINE
8
boundary
62
5
39
2
10
24.943187
20
86.122020
11
24.701593
21
87.355253
0
LINE
8
boundary
62
5
39
2
10
24.701593
20
87.355253
11
24.475721
21
88.587493
0
LINE
8
boundary
62
5
39
2
10
24.475721
20
88.587493
11
24.381730
21
89.144086
0
LINE
8
boundary
62
5
39
2
10
24.381730
20
89.144086
11
24.070404
21
91.048508
0
LINE
8
boundary
62
5
39
2
10
24.070404
20
91.048508
11
23.994793
21
91.571363
0
LINE
8
boundary
62
5
39
2
10
23.994793
20
91.571363
11
23.725395
21
93.504523
0
LINE
8
boundary
62
5
39
2
10
23.725395
20
93.504523
11
23.439358
21
95.954954
0
LINE
8
boundary
62
5
39
2
10
23.439358
20
95.954954
11
23.210526
21
98.399269
0
LINE
8
boundary
62
5
39
2
10
23.210526
20
98.399269
11
23.037160
21
100.837071
0
LINE
8
boundary
62
5
39
2
10
23.037160
20
100.837071
11
22.917984
21
103.267921
0
LINE
8
boundary
62
5
39
2
10
22.917984
20
103.267921
11
22.851229
21
105.691268
0
LINE
8
boundary
62
5
39
2
10
22.851229
20
105.691268
11
22.835224
21
108.106838
0
LINE
8
boundary
62
5
39
2
10
22.835224
20
108.106838
11
22.868464
21
110.514117
0
LINE
8
boundary
62
5
39
2
10
22.868464
20
110.514117
11
22.949345
21
112.912865
0
LINE
8
boundary
62
5
39
2
10
22.949345
20
112.912865
11
23.076397
21
115.302699
0
LINE
8
boundary
62
5
39
2
10
23.076397
20
115.302699
11
23.247978
21
117.683226
0
LINE
8
boundary
62
5
39
2
10
23.247978
20
117.683226
11
23.462685
21
120.054279
0
LINE
8
boundary
62
5
39
2
10
23.462685
20
120.054279
11
23.718872
21
122.415522
0
LINE
8
boundary
62
5
39
2
10
23.718872
20
122.415522
11
24.015028
21
124.766702
0
LINE
8
boundary
62
5
39
2
10
24.015028
20
124.766702
11
24.349581
21
127.107540
0
LINE
8
boundary
62
5
39
2
10
24.349581
20
127.107540
11
24.721236
21
129.437850
0
LINE
8
boundary
62
5
39
2
10
24.721236
20
129.437850
11
25.128389
21
131.757442
0
LINE
8
boundary
62
5
39
2
10
25.128389
20
131.757442
11
25.569574
21
134.066088
0
LINE
8
boundary
62
5
39
2
10
25.569574
20
134.066088
11
26.043197
21
136.363600
0
LINE
8
boundary
62
5
39
2
10
26.043197
20
136.363600
11
26.548027
21
138.649829
0
LINE
8
boundary
62
5
39
2
10
26.548027
20
138.649829
11
27.082531
21
140.924611
0
LINE
8
boundary
62
5
39
2
10
27.082531
20
140.924611
11
27.645271
21
143.187881
0
LINE
8
boundary
62
5
39
2
10
27.645271
20
143.187881
11
28.234822
21
145.439364
0
LINE
8
boundary
62
5
39
2
10
28.234822
20
145.439364
11
28.849786
21
147.679139
0
LINE
8
boundary
62
5
39
2
10
28.849786
20
147.679139
11
29.488630
21
149.906990
0
LINE
8
boundary
62
5
39
2
10
29.488630
20
149.906990
11
30.150293
21
152.122886
0
LINE
8
boundary
62
5
39
2
10
30.150293
20
152.122886
11
30.832992
21
154.326631
0
LINE
8
boundary
62
5
39
2
10
30.832992
20
154.326631
11
31.535656
21
156.518331
0
LINE
8
boundary
62
5
39
2
10
31.535656
20
156.518331
11
32.256772
21
158.697876
0
LINE
8
boundary
62
5
39
2
10
32.256772
20
158.697876
11
32.995081
21
160.865201
0
LINE
8
boundary
62
5
39
2
10
32.995081
20
160.865201
11
33.749056
21
163.020300
0
LINE
8
boundary
62
5
39
2
10
33.749056
20
163.020300
11
34.517663
21
165.163221
0
LINE
8
boundary
62
5
39
2
10
34.517663
20
165.163221
11
35.299447
21
167.293846
0
LINE
8
boundary
62
5
39
2
10
35.299447
20
167.293846
11
36.092897
21
169.412264
0
LINE
8
boundary
62
5
39
2
10
36.092897
20
169.412264
11
36.329242
21
170.029893
0
LINE
8
boundary
62
5
39
2
10
36.329242
20
170.029893
11
37.710330
21
173.612446
0
LINE
8
boundary
62
5
39
2
10
37.710330
20
173.612446
11
37.967869
21
174.264144
0
LINE
8
boundary
62
5
39
2
10
37.967869
20
174.264144
11
39.359662
21
177.763982
0
LINE
8
boundary
62
5
39
2
10
39.359662
20
177.763982
11
39.637530
21
178.449216
0
LINE
8
boundary
62
5
39
2
10
39.637530
20
178.449216
11
41.030843
21
181.867275
0
LINE
8
boundary
62
5
39
2
10
41.030843
20
181.867275
11
41.327647
21
182.584940
0
LINE
8
boundary
62
5
39
2
10
41.327647
20
182.584940
11
42.713731
21
185.923001
0
LINE
8
boundary
62
5
39
2
10
42.713731
20
185.923001
11
43.027600
21
186.671552
0
LINE
8
boundary
62
5
39
2
10
43.027600
20
186.671552
11
44.398645
21
189.931594
0
LINE
8
boundary
62
5
39
2
10
44.398645
20
189.931594
11
45.046887
21
191.463688
0
LINE
8
boundary
62
5
39
2
10
45.046887
20
191.463688
11
47.735713
21
197.811090
0
LINE
8
boundary
62
5
39
2
10
47.735713
20
197.811090
11
48.422485
21
199.446461
0
LINE
8
boundary
62
5
39
2
10
48.422485
20
199.446461
11
50.966589
21
205.513412
0
LINE
8
boundary
62
5
39
2
10
50.966589
20
205.513412
11
51.324601
21
206.384281
0
LINE
8
boundary
62
5
39
2
10
51.324601
20
206.384281
11
52.519322
21
209.301026
0
LINE
8
boundary
62
5
39
2
10
52.519322
20
209.301026
11
52.875946
21
210.189040
0
LINE
8
boundary
62
5
39
2
10
52.875946
20
210.189040
11
54.018019
21
213.047741
0
LINE
8
boundary
62
5
39
2
10
54.018019
20
213.047741
11
54.369627
21
213.950455
0
LINE
8
boundary
62
5
39
2
10
54.369627
20
213.950455
11
55.454305
21
216.755005
0
LINE
8
boundary
62
5
39
2
10
55.454305
20
216.755005
11
56.146173
21
218.594287
0
LINE
8
boundary
62
5
39
2
10
56.146173
20
218.594287
11
56.819255
21
220.424172
0
LINE
8
boundary
62
5
39
2
10
56.819255
20
220.424172
11
57.090708
21
221.181348
0
LINE
8
boundary
62
5
39
2
10
57.090708
20
221.181348
11
57.875758
21
223.394963
0
LINE
8
boundary
62
5
39
2
10
57.875758
20
223.394963
11
58.146423
21
224.185667
0
LINE
8
boundary
62
5
39
2
10
58.146423
20
224.185667
11
58.912510
21
226.452381
0
LINE
8
boundary
62
5
39
2
10
58.912510
20
226.452381
11
59.420378
21
228.011776
0
LINE
8
boundary
62
5
39
2
10
59.420378
20
228.011776
11
59.919649
21
229.590588
0
LINE
8
boundary
62
5
39
2
10
59.919649
20
229.590588
11
60.408967
21
231.188205
0
LINE
8
boundary
62
5
39
2
10
60.408967
20
231.188205
11
60.887377
21
232.803896
0
LINE
8
boundary
62
5
39
2
10
60.887377
20
232.803896
11
61.353413
21
234.436997
0
LINE
8
boundary
62
5
39
2
10
61.353413
20
234.436997
11
61.806127
21
236.086807
0
LINE
8
boundary
62
5
39
2
10
61.806127
20
236.086807
11
62.244183
21
237.752730
0
LINE
8
boundary
62
5
39
2
10
62.244183
20
237.752730
11
62.666669
21
239.434139
0
LINE
8
boundary
62
5
39
2
10
62.666669
20
239.434139
11
63.072204
21
241.130420
0
LINE
8
boundary
62
5
39
2
10
63.072204
20
241.130420
11
63.459684
21
242.840918
0
LINE
8
boundary
62
5
39
2
10
63.459684
20
242.840918
11
63.828038
21
244.565098
0
LINE
8
boundary
62
5
39
2
10
63.828038
20
244.565098
11
64.176164
21
246.302352
0
LINE
8
boundary
62
5
39
2
10
64.176164
20
246.302352
11
64.503065
21
248.052020
0
LINE
8
boundary
62
5
39
2
10
64.503065
20
248.052020
11
64.807539
21
249.813642
0
LINE
8
boundary
62
5
39
2
10
64.807539
20
249.813642
11
65.088582
21
251.586752
0
LINE
8
boundary
62
5
39
2
10
65.088582
20
251.586752
11
65.345059
21
253.370635
0
LINE
8
boundary
62
5
39
2
10
65.345059
20
253.370635
11
65.576081
21
255.164763
0
LINE
8
boundary
62
5
39
2
10
65.576081
20
255.164763
11
65.780611
21
256.968782
0
LINE
8
boundary
62
5
39
2
10
65.780611
20
256.968782
11
65.957537
21
258.781953
0
LINE
8
boundary
62
5
39
2
10
65.957537
20
258.781953
11
66.105976
21
260.603992
0
LINE
8
boundary
62
5
39
2
10
66.105976
20
260.603992
11
66.224883
21
262.434261
0
LINE
8
boundary
62
5
39
2
10
66.224883
20
262.434261
11
66.313422
21
264.272409
0
LINE
8
boundary
62
5
39
2
10
66.313422
20
264.272409
11
66.332219
21
264.780739
0
LINE
8
boundary
62
5
39
2
10
66.332219
20
264.780739
11
66.370560
21
266.117646
0
LINE
8
boundary
62
5
39
2
10
66.370560
20
266.117646
11
66.380474
21
266.626881
0
LINE
8
boundary
62
5
39
2
10
66.380474
20
266.626881
11
66.395443
21
267.969825
0
LINE
8
boundary
62
5
39
2
10
66.395443
20
267.969825
11
66.396266
21
268.479693
0
LINE
8
boundary
62
5
39
2
10
66.396266
20
268.479693
11
66.387216
21
269.828359
0
LINE
8
boundary
62
5
39
2
10
66.387216
20
269.828359
11
66.378677
21
270.338500
0
LINE
8
boundary
62
5
39
2
10
66.378677
20
270.338500
11
66.344812
21
271.692700
0
LINE
8
boundary
62
5
39
2
10
66.344812
20
271.692700
11
66.326827
21
272.202902
0
LINE
8
boundary
62
5
39
2
10
66.326827
20
272.202902
11
66.267534
21
273.562506
0
LINE
8
boundary
62
5
39
2
10
66.267534
20
273.562506
11
66.239846
21
274.072449
0
LINE
8
boundary
62
5
39
2
10
66.239846
20
274.072449
11
66.154479
21
275.437245
0
LINE
8
boundary
62
5
39
2
10
66.154479
20
275.437245
11
66.116948
21
275.946668
0
LINE
8
boundary
62
5
39
2
10
66.116948
20
275.946668
11
66.004778
21
277.316501
0
LINE
8
boundary
62
5
39
2
10
66.004778
20
277.316501
11
65.957313
21
277.825087
0
LINE
8
boundary
62
5
39
2
10
65.957313
20
277.825087
11
65.817742
21
279.199749
0
LINE
8
boundary
62
5
39
2
10
65.817742
20
279.199749
11
65.760139
21
279.707327
0
LINE
8
boundary
62
5
39
2
10
65.760139
20
279.707327
11
65.592454
21
281.086583
0
LINE
8
boundary
62
5
39
2
10
65.592454
20
281.086583
11
65.524669
21
281.592864
0
LINE
8
boundary
62
5
39
2
10
65.524669
20
281.592864
11
65.328290
21
282.976739
0
LINE
8
boundary
62
5
39
2
10
65.328290
20
282.976739
11
65.250186
21
283.481382
0
LINE
8
boundary
62
5
39
2
10
65.250186
20
283.481382
11
65.024362
21
284.869456
0
LINE
8
boundary
62
5
39
2
10
65.024362
20
284.869456
11
64.935894
21
285.372326
0
LINE
8
boundary
62
5
39
2
10
64.935894
20
285.372326
11
64.680091
21
286.764426
0
LINE
8
boundary
62
5
39
2
10
64.680091
20
286.764426
11
64.581119
21
287.265202
0
LINE
8
boundary
62
5
39
2
10
64.581119
20
287.265202
11
64.294552
21
288.661224
0
LINE
8
boundary
62
5
39
2
10
64.294552
20
288.661224
11
64.185093
21
289.159702
0
LINE
8
boundary
62
5
39
2
10
64.185093
20
289.159702
11
63.867161
21
290.559346
0
LINE
8
boundary
62
5
39
2
10
63.867161
20
290.559346
11
63.747180
21
291.055307
0
LINE
8
boundary
62
5
39
2
10
63.747180
20
291.055307
11
63.397249
21
292.458581
0
LINE
8
boundary
62
5
39
2
10
63.397249
20
292.458581
11
63.266686
21
292.951781
0
LINE
8
boundary
62
5
39
2
10
63.266686
20
292.951781
11
62.884185
21
294.358224
0
LINE
8
boundary
62
5
39
2
10
62.884185
20
294.358224
11
62.743059
21
294.848406
0
LINE
8
boundary
62
5
39
2
10
62.743059
20
294.848406
11
62.327250
21
296.257812
0
LINE
8
boundary
62
5
39
2
10
62.327250
20
296.257812
11
62.175552
21
296.744811
0
LINE
8
boundary
62
5
39
2
10
62.175552
20
296.744811
11
61.725833
21
298.157182
0
LINE
8
boundary
62
5
39
2
10
61.725833
20
298.157182
11
61.408306
21
299.106623
0
LINE
8
boundary
62
5
39
2
10
61.408306
20
299.106623
11
61.079424
21
300.055666
0
LINE
8
boundary
62
5
39
2
10
61.079424
20
300.055666
11
60.739179
21
301.004555
0
LINE
8
boundary
62
5
39
2
10
60.739179
20
301.004555
11
60.387369
21
301.952937
0
LINE
8
boundary
62
5
39
2
10
60.387369
20
301.952937
11
60.024052
21
302.900953
0
LINE
8
boundary
62
5
39
2
10
60.024052
20
302.900953
11
59.649171
21
303.848464
0
LINE
8
boundary
62
5
39
2
10
59.649171
20
303.848464
11
59.262529
21
304.795436
0
LINE
8
boundary
62
5
39
2
10
59.262529
20
304.795436
11
58.864116
21
305.741751
0
LINE
8
boundary
62
5
39
2
10
58.864116
20
305.741751
11
58.453894
21
306.687541
0
LINE
8
boundary
62
5
39
2
10
58.453894
20
306.687541
11
58.031816
21
307.632603
0
LINE
8
boundary
62
5
39
2
10
58.031816
20
307.632603
11
57.597791
21
308.576838
0
LINE
8
boundary
62
5
39
2
10
57.597791
20
308.576838
11
57.151719
21
309.520244
0
LINE
8
boundary
62
5
39
2
10
57.151719
20
309.520244
11
56.693608
21
310.462796
0
LINE
8
boundary
62
5
39
2
10
56.693608
20
310.462796
11
56.223374
21
311.404436
0
LINE
8
boundary
62
5
39
2
10
56.223374
20
311.404436
11
55.740927
21
312.345014
0
LINE
8
boundary
62
5
39
2
10
55.740927
20
312.345014
11
55.246219
21
313.284599
0
LINE
8
boundary
62
5
39
2
10
55.246219
20
313.284599
11
54.739243
21
314.223149
0
LINE
8
boundary
62
5
39
2
10
54.739243
20
314.223149
11
54.219924
21
315.160369
0
LINE
8
boundary
62
5
39
2
10
54.219924
20
315.160369
11
53.688077
21
316.096468
0
LINE
8
boundary
62
5
39
2
10
53.688077
20
316.096468
11
53.143876
21
317.031294
0
LINE
8
boundary
62
5
39
2
10
53.143876
20
317.031294
11
52.587068
21
317.964748
0
LINE
8
boundary
62
5
39
2
10
52.587068
20
317.964748
11
52.017643
21
318.896798
0
LINE
8
boundary
62
5
39
2
10
52.017643
20
318.896798
11
51.435636
21
319.827411
0
LINE
8
boundary
62
5
39
2
10
51.435636
20
319.827411
11
50.840934
21
320.756461
0
LINE
8
boundary
62
5
39
2
10
50.840934
20
320.756461
11
50.233478
21
321.684037
0
LINE
8
boundary
62
5
39
2
10
50.233478
20
321.684037
11
49.613203
21
322.609858
0
LINE
8
boundary
62
5
39
2
10
49.613203
20
322.609858
11
48.980054
21
323.534033
0
LINE
8
boundary
62
5
39
2
10
48.980054
20
323.534033
11
48.334064
21
324.456526
0
LINE
8
boundary
62
5
39
2
10
48.334064
20
324.456526
11
47.675154
21
325.377098
0
LINE
8
boundary
62
5
39
2
10
47.675154
20
325.377098
11
47.003228
21
326.295798
0
LINE
8
boundary
62
5
39
2
10
47.003228
20
326.295798
11
46.318222
21
327.212514
0
LINE
8
boundary
62
5
39
2
10
46.318222
20
327.212514
11
45.620125
21
328.127394
0
LINE
8
boundary
62
5
39
2
10
45.620125
20
328.127394
11
44.908977
21
329.040188
0
LINE
8
boundary
62
5
39
2
10
44.908977
20
329.040188
11
44.184576
21
329.950735
0
LINE
8
boundary
62
5
39
2
10
44.184576
20
329.950735
11
43.446971
21
330.859245
0
LINE
8
boundary
62
5
39
2
10
43.446971
20
330.859245
11
42.696168
21
331.765431
0
LINE
8
boundary
62
5
39
2
10
42.696168
20
331.765431
11
41.931922
21
332.669244
0
LINE
8
boundary
62
5
39
2
10
41.931922
20
332.669244
11
41.154313
21
333.570713
0
LINE
8
boundary
62
5
39
2
10
41.154313
20
333.570713
11
40.363416
21
334.469791
0
LINE
8
boundary
62
5
39
2
10
40.363416
20
334.469791
11
39.558966
21
335.366411
0
LINE
8
boundary
62
5
39
2
10
39.558966
20
335.366411
11
39.334968
21
335.895222
0
LINE
8
boundary
62
5
39
2
10
39.334968
20
335.895222
11
39.137432
21
336.400157
0
LINE
8
boundary
62
5
39
2
10
39.137432
20
336.400157
11
38.965635
21
336.881632
0
LINE
8
boundary
62
5
39
2
10
38.965635
20
336.881632
11
38.794688
21
337.427704
0
LINE
8
boundary
62
5
39
2
10
38.794688
20
337.427704
11
38.598356
21
338.189595
0
LINE
8
boundary
62
5
39
2
10
38.598356
20
338.189595
11
38.470846
21
338.952013
0
LINE
8
boundary
62
5
39
2
10
38.470846
20
338.952013
11
38.431337
21
339.630869
0
LINE
8
boundary
62
5
39
2
10
38.431337
20
339.630869
11
38.475179
21
340.229730
0
LINE
8
boundary
62
5
39
2
10
38.475179
20
340.229730
11
38.597745
21
340.751870
0
LINE
8
boundary
62
5
39
2
10
38.597745
20
340.751870
11
38.821548
21
341.243527
0
LINE
8
boundary
62
5
39
2
10
38.821548
20
341.243527
11
39.218604
21
341.744348
0
LINE
8
boundary
62
5
39
2
10
39.218604
20
341.744348
11
39.626885
21
342.051850
0
LINE
8
boundary
62
5
39
2
10
39.626885
20
342.051850
11
40.233031
21
342.333982
0
LINE
8
boundary
62
5
39
2
10
40.233031
20
342.333982
11
40.733722
21
342.469064
0
LINE
8
boundary
62
5
39
2
10
40.733722
20
342.469064
11
41.282207
21
342.552069
0
LINE
8
boundary
62
5
39
2
10
41.282207
20
342.552069
11
41.874003
21
342.586330
0
LINE
8
boundary
62
5
39
2
10
41.874003
20
342.586330
11
42.505126
21
342.575416
0
LINE
8
boundary
62
5
39
2
10
42.505126
20
342.575416
11
43.171053
21
342.522873
0
LINE
8
boundary
62
5
39
2
10
43.171053
20
342.522873
11
43.867473
21
342.432172
0
LINE
8
boundary
62
5
39
2
10
43.867473
20
342.432172
11
44.590267
21
342.306839
0
LINE
8
boundary
62
5
39
2
10
44.590267
20
342.306839
11
45.334973
21
342.150355
0
LINE
8
boundary
62
5
39
2
10
45.334973
20
342.150355
11
46.097214
21
341.966311
0
LINE
8
boundary
62
5
39
2
10
46.097214
20
341.966311
11
46.872752
21
341.758213
0
LINE
8
boundary
62
5
39
2
10
46.872752
20
341.758213
11
47.657102
21
341.529622
0
LINE
8
boundary
62
5
39
2
10
47.657102
20
341.529622
11
48.445924
21
341.284000
0
LINE
8
boundary
62
5
39
2
10
48.445924
20
341.284000
11
49.234650
21
341.024834
0
LINE
8
boundary
62
5
39
2
10
49.234650
20
341.024834
11
50.018818
21
340.755769
0
LINE
8
boundary
62
5
39
2
10
50.018818
20
340.755769
11
51.555591
21
340.201514
0
LINE
8
boundary
62
5
39
2
10
51.555591
20
340.201514
11
53.019727
21
339.649324
0
LINE
8
boundary
62
5
39
2
10
53.019727
20
339.649324
11
54.374217
21
339.127245
0
LINE
8
boundary
62
5
39
2
10
54.374217
20
339.127245
11
55.236090
21
338.541047
0
LINE
8
boundary
62
5
39
2
10
55.236090
20
338.541047
11
56.112107
21
337.974186
0
LINE
8
boundary
62
5
39
2
10
56.112107
20
337.974186
11
57.001592
21
337.426604
0
LINE
8
boundary
62
5
39
2
10
57.001592
20
337.426604
11
57.904150
21
336.898450
0
LINE
8
boundary
62
5
39
2
10
57.904150
20
336.898450
11
58.819177
21
336.389609
0
LINE
8
boundary
62
5
39
2
10
58.819177
20
336.389609
11
59.746214
21
335.899949
0
LINE
8
boundary
62
5
39
2
10
59.746214
20
335.899949
11
60.684744
21
335.429781
0
LINE
8
boundary
62
5
39
2
10
60.684744
20
335.429781
11
61.633968
21
334.978737
0
LINE
8
boundary
62
5
39
2
10
61.633968
20
334.978737
11
62.593703
21
334.546905
0
LINE
8
boundary
62
5
39
2
10
62.593703
20
334.546905
11
63.563270
21
334.134293
0
LINE
8
boundary
62
5
39
2
10
63.563270
20
334.134293
11
64.541996
21
333.740850
0
LINE
8
boundary
62
5
39
2
10
64.541996
20
333.740850
11
65.529382
21
333.366684
0
LINE
8
boundary
62
5
39
2
10
65.529382
20
333.366684
11
66.524942
21
333.011637
0
LINE
8
boundary
62
5
39
2
10
66.524942
20
333.011637
11
67.528095
21
332.675759
0
LINE
8
boundary
62
5
39
2
10
67.528095
20
332.675759
11
68.538218
21
332.358987
0
LINE
8
boundary
62
5
39
2
10
68.538218
20
332.358987
11
69.554777
21
332.061339
0
LINE
8
boundary
62
5
39
2
10
69.554777
20
332.061339
11
70.577162
21
331.782727
0
LINE
8
boundary
62
5
39
2
10
70.577162
20
331.782727
11
71.604915
21
331.523272
0
LINE
8
boundary
62
5
39
2
10
71.604915
20
331.523272
11
72.637171
21
331.282790
0
LINE
8
boundary
62
5
39
2
10
72.637171
20
331.282790
11
73.673659
21
331.061378
0
LINE
8
boundary
62
5
39
2
10
73.673659
20
331.061378
11
74.713636
21
330.858982
0
LINE
8
boundary
62
5
39
2
10
74.713636
20
330.858982
11
75.756605
21
330.675699
0
LINE
8
boundary
62
5
39
2
10
75.756605
20
330.675699
11
76.801876
21
330.511267
0
LINE
8
boundary
62
5
39
2
10
76.801876
20
330.511267
11
77.848945
21
330.365815
0
LINE
8
boundary
62
5
39
2
10
77.848945
20
330.365815
11
78.897204
21
330.239321
0
LINE
8
boundary
62
5
39
2
10
78.897204
20
330.239321
11
79.945943
21
330.131928
0
LINE
8
boundary
62
5
39
2
10
79.945943
20
330.131928
11
80.994690
21
330.043353
0
LINE
8
boundary
62
5
39
2
10
80.994690
20
330.043353
11
82.042885
21
329.973649
0
LINE
8
boundary
62
5
39
2
10
82.042885
20
329.973649
11
83.089737
21
329.922867
0
LINE
8
boundary
62
5
39
2
10
83.089737
20
329.922867
11
84.134884
21
329.891003
0
LINE
8
boundary
62
5
39
2
10
84.134884
20
329.891003
11
85.177563
21
329.877927
0
LINE
8
boundary
62
5
39
2
10
85.177563
20
329.877927
11
86.217221
21
329.883797
0
LINE
8
boundary
62
5
39
2
10
86.217221
20
329.883797
11
87.253176
21
329.908492
0
LINE
8
boundary
62
5
39
2
10
87.253176
20
329.908492
11
88.285023
21
329.952002
0
LINE
8
boundary
62
5
39
2
10
88.285023
20
329.952002
11
89.311928
21
330.014409
0
LINE
8
boundary
62
5
39
2
10
89.311928
20
330.014409
11
90.333498
21
330.095564
0
LINE
8
boundary
62
5
39
2
10
90.333498
20
330.095564
11
91.348967
21
330.195554
0
LINE
8
boundary
62
5
39
2
10
91.348967
20
330.195554
11
92.357772
21
330.314403
0
LINE
8
boundary
62
5
39
2
10
92.357772
20
330.314403
11
93.359366
21
330.451967
0
LINE
8
boundary
62
5
39
2
10
93.359366
20
330.451967
11
94.353212
21
330.608348
0
LINE
8
boundary
62
5
39
2
10
94.353212
20
330.608348
11
95.338459
21
330.783497
0
LINE
8
boundary
62
5
39
2
10
95.338459
20
330.783497
11
96.314782
21
330.977379
0
LINE
8
boundary
62
5
39
2
10
96.314782
20
330.977379
11
97.281397
21
331.190145
0
LINE
8
boundary
62
5
39
2
10
97.281397
20
331.190145
11
98.237854
21
331.421596
0
LINE
8
boundary
62
5
39
2
10
98.237854
20
331.421596
11
99.183383
21
331.671927
0
LINE
8
boundary
62
5
39
2
10
99.183383
20
331.671927
11
100.117396
21
331.940875
0
LINE
8
boundary
62
5
39
2
10
100.117396
20
331.940875
11
101.039536
21
332.228614
0
LINE
8
boundary
62
5
39
2
10
101.039536
20
332.228614
11
101.948982
21
332.535103
0
LINE
8
boundary
62
5
39
2
10
101.948982
20
332.535103
11
102.845238
21
332.860497
0
LINE
8
boundary
62
5
39
2
10
102.845238
20
332.860497
11
103.727650
21
333.204526
0
LINE
8
boundary
62
5
39
2
10
103.727650
20
333.204526
11
104.595686
21
333.567313
0
LINE
8
boundary
62
5
39
2
10
104.595686
20
333.567313
11
105.448842
21
333.948935
0
LINE
8
boundary
62
5
39
2
10
105.448842
20
333.948935
11
106.286338
21
334.349316
0
LINE
8
boundary
62
5
39
2
10
106.286338
20
334.349316
11
107.107736
21
334.768478
0
LINE
8
boundary
62
5
39
2
10
107.107736
20
334.768478
11
107.912522
21
335.206406
0
LINE
8
boundary
62
5
39
2
10
107.912522
20
335.206406
11
108.699841
21
335.663125
0
LINE
8
boundary
62
5
39
2
10
108.699841
20
335.663125
11
109.469379
21
336.138725
0
LINE
8
boundary
62
5
39
2
10
109.469379
20
336.138725
11
110.220542
21
336.633152
0
LINE
8
boundary
62
5
39
2
10
110.220542
20
336.633152
11
110.952739
21
337.146391
0
LINE
8
boundary
62
5
39
2
10
110.952739
20
337.146391
11
111.665293
21
337.678342
0
LINE
8
boundary
62
5
39
2
10
111.665293
20
337.678342
11
112.357787
21
338.229274
0
LINE
8
boundary
62
5
39
2
10
112.357787
20
338.229274
11
113.029573
21
338.798986
0
LINE
8
boundary
62
5
39
2
10
113.029573
20
338.798986
11
113.680124
21
339.387493
0
LINE
8
boundary
62
5
39
2
10
113.680124
20
339.387493
11
114.309018
21
339.995172
0
LINE
8
boundary
62
5
39
2
10
114.309018
20
339.995172
11
114.852396
21
340.381510
0
LINE
8
boundary
62
5
39
2
10
114.852396
20
340.381510
11
115.412204
21
340.821815
0
LINE
8
boundary
62
5
39
2
10
115.412204
20
340.821815
11
115.870407
21
341.227178
0
LINE
8
boundary
62
5
39
2
10
115.870407
20
341.227178
11
116.335813
21
341.687059
0
LINE
8
boundary
62
5
39
2
10
116.335813
20
341.687059
11
116.711449
21
342.110658
0
LINE
8
boundary
62
5
39
2
10
116.711449
20
342.110658
11
117.085739
21
342.589276
0
LINE
8
boundary
62
5
39
2
10
117.085739
20
342.589276
11
117.381417
21
343.030486
0
LINE
8
boundary
62
5
39
2
10
117.381417
20
343.030486
11
117.668023
21
343.526929
0
LINE
8
boundary
62
5
39
2
10
117.668023
20
343.526929
11
117.966073
21
344.171076
0
LINE
8
boundary
62
5
39
2
10
117.966073
20
344.171076
11
118.194126
21
344.829831
0
LINE
8
boundary
62
5
39
2
10
118.194126
20
344.829831
11
118.353906
21
345.503019
0
LINE
8
boundary
62
5
39
2
10
118.353906
20
345.503019
11
118.447295
21
346.189890
0
LINE
8
boundary
62
5
39
2
10
118.447295
20
346.189890
11
118.476063
21
346.890164
0
LINE
8
boundary
62
5
39
2
10
118.476063
20
346.890164
11
118.456102
21
347.400140
0
LINE
8
boundary
62
5
39
2
10
118.456102
20
347.400140
11
118.402310
21
347.964677
0
LINE
8
boundary
62
5
39
2
10
118.402310
20
347.964677
11
118.316876
21
348.488719
0
LINE
8
boundary
62
5
39
2
10
118.316876
20
348.488719
11
118.193627
21
349.066940
0
LINE
8
boundary
62
5
39
2
10
118.193627
20
349.066940
11
118.045490
21
349.604372
0
LINE
8
boundary
62
5
39
2
10
118.045490
20
349.604372
11
117.856242
21
350.195224
0
LINE
8
boundary
62
5
39
2
10
117.856242
20
350.195224
11
117.648251
21
350.745427
0
LINE
8
boundary
62
5
39
2
10
117.648251
20
350.745427
11
117.396501
21
351.348170
0
LINE
8
boundary
62
5
39
2
10
117.396501
20
351.348170
11
117.131477
21
351.910604
0
LINE
8
boundary
62
5
39
2
10
117.131477
20
351.910604
11
116.820519
21
352.524238
0
LINE
8
boundary
62
5
39
2
10
116.820519
20
352.524238
11
116.393241
21
353.276717
0
LINE
8
boundary
62
5
39
2
10
116.393241
20
353.276717
11
116.134700
21
353.721943
0
LINE
8
boundary
62
5
39
2
10
116.134700
20
353.721943
11
115.619420
21
354.531703
0
LINE
8
boundary
62
5
39
2
10
115.619420
20
354.531703
11
115.060038
21
355.349976
0
LINE
8
boundary
62
5
39
2
10
115.060038
20
355.349976
11
114.458352
21
356.176319
0
LINE
8
boundary
62
5
39
2
10
114.458352
20
356.176319
11
113.815972
21
357.010226
0
LINE
8
boundary
62
5
39
2
10
113.815972
20
357.010226
11
113.134956
21
357.851311
0
LINE
8
boundary
62
5
39
2
10
113.134956
20
357.851311
11
112.417084
21
358.699117
0
LINE
8
boundary
62
5
39
2
10
112.417084
20
358.699117
11
112.069902
21
359.089218
0
LINE
8
boundary
62
5
39
2
10
112.069902
20
359.089218
11
111.664187
21
359.553209
0
LINE
8
boundary
62
5
39
2
10
111.664187
20
359.553209
11
111.300111
21
359.947645
0
LINE
8
boundary
62
5
39
2
10
111.300111
20
359.947645
11
110.878012
21
360.413098
0
LINE
8
boundary
62
5
39
2
10
110.878012
20
360.413098
11
110.497781
21
360.811780
0
LINE
8
boundary
62
5
39
2
10
110.497781
20
360.811780
11
110.060452
21
361.278273
0
LINE
8
boundary
62
5
39
2
10
110.060452
20
361.278273
11
109.664671
21
361.681081
0
LINE
8
boundary
62
5
39
2
10
109.664671
20
361.681081
11
109.213258
21
362.148451
0
LINE
8
boundary
62
5
39
2
10
109.213258
20
362.148451
11
108.802586
21
362.555208
0
LINE
8
boundary
62
5
39
2
10
108.802586
20
362.555208
11
108.338093
21
363.022951
0
LINE
8
boundary
62
5
39
2
10
108.338093
20
363.022951
11
107.913308
21
363.433521
0
LINE
8
boundary
62
5
39
2
10
107.913308
20
363.433521
11
107.437074
21
363.901464
0
LINE
8
boundary
62
5
39
2
10
107.437074
20
363.901464
11
106.998676
21
364.315751
0
LINE
8
boundary
62
5
39
2
10
106.998676
20
364.315751
11
106.511613
21
364.783649
0
LINE
8
boundary
62
5
39
2
10
106.511613
20
364.783649
11
106.060381
21
365.201454
0
LINE
8
boundary
62
5
39
2
10
106.060381
20
365.201454
11
105.563624
21
365.668830
0
LINE
8
boundary
62
5
39
2
10
105.563624
20
365.668830
11
105.100183
21
366.089960
0
LINE
8
boundary
62
5
39
2
10
105.100183
20
366.089960
11
104.594713
21
366.556584
0
LINE
8
boundary
62
5
39
2
10
104.594713
20
366.556584
11
104.119776
21
366.981041
0
LINE
8
boundary
62
5
39
2
10
104.119776
20
366.981041
11
103.606823
21
367.446566
0
LINE
8
boundary
62
5
39
2
10
103.606823
20
367.446566
11
103.121044
21
367.874070
0
LINE
8
boundary
62
5
39
2
10
103.121044
20
367.874070
11
102.601566
21
368.338260
0
LINE
8
boundary
62
5
39
2
10
102.601566
20
368.338260
11
102.105582
21
368.768621
0
LINE
8
boundary
62
5
39
2
10
102.105582
20
368.768621
11
101.580564
21
369.231075
0
LINE
8
boundary
62
5
39
2
10
101.580564
20
369.231075
11
101.075065
21
369.664229
0
LINE
8
boundary
62
5
39
2
10
101.075065
20
369.664229
11
100.545594
21
370.124653
0
LINE
8
boundary
62
5
39
2
10
100.545594
20
370.124653
11
100.031227
21
370.560364
0
LINE
8
boundary
62
5
39
2
10
100.031227
20
370.560364
11
99.498134
21
371.018660
0
LINE
8
boundary
62
5
39
2
10
99.498134
20
371.018660
11
98.975678
21
371.456819
0
LINE
8
boundary
62
5
39
2
10
98.975678
20
371.456819
11
98.440167
21
371.912379
0
LINE
8
boundary
62
5
39
2
10
98.440167
20
371.912379
11
97.910184
21
372.352836
0
LINE
8
boundary
62
5
39
2
10
97.910184
20
372.352836
11
97.373032
21
372.805511
0
LINE
8
boundary
62
5
39
2
10
97.373032
20
372.805511
11
96.288535
21
373.696501
0
LINE
8
boundary
62
5
39
2
10
96.288535
20
373.696501
11
95.218214
21
374.587977
0
LINE
8
boundary
62
5
39
2
10
95.218214
20
374.587977
11
94.111803
21
375.485941
0
LINE
8
boundary
62
5
39
2
10
94.111803
20
375.485941
11
93.046389
21
376.362326
0
LINE
8
boundary
62
5
39
2
10
93.046389
20
376.362326
11
91.923798
21
377.265605
0
LINE
8
boundary
62
5
39
2
10
91.923798
20
377.265605
11
90.870018
21
378.124486
0
LINE
8
boundary
62
5
39
2
10
90.870018
20
378.124486
11
89.737003
21
379.031505
0
LINE
8
boundary
62
5
39
2
10
89.737003
20
379.031505
11
88.701487
21
379.870965
0
LINE
8
boundary
62
5
39
2
10
88.701487
20
379.870965
11
87.563821
21
380.779961
0
LINE
8
boundary
62
5
39
2
10
87.563821
20
380.779961
11
86.552570
21
381.597900
0
LINE
8
boundary
62
5
39
2
10
86.552570
20
381.597900
11
84.265523
21
383.431520
0
LINE
8
boundary
62
5
39
2
10
84.265523
20
383.431520
11
82.360500
21
384.976962
0
LINE
8
boundary
62
5
39
2
10
82.360500
20
384.976962
11
80.130380
21
386.792774
0
LINE
8
boundary
62
5
39
2
10
80.130380
20
386.792774
11
78.384684
21
388.230466
0
LINE
8
boundary
62
5
39
2
10
78.384684
20
388.230466
11
77.317775
21
389.117203
0
LINE
8
boundary
62
5
39
2
10
77.317775
20
389.117203
11
76.505140
21
389.800376
0
LINE
8
boundary
62
5
39
2
10
76.505140
20
389.800376
11
75.472688
21
390.675252
0
LINE
8
boundary
62
5
39
2
10
75.472688
20
390.675252
11
74.712147
21
391.327012
0
LINE
8
boundary
62
5
39
2
10
74.712147
20
391.327012
11
74.085249
21
391.859144
0
LINE
8
boundary
62
5
39
2
10
74.085249
20
391.859144
11
73.632503
21
392.247822
0
LINE
8
boundary
62
5
39
2
10
73.632503
20
392.247822
11
73.005171
21
392.770455
0
LINE
8
boundary
62
5
39
2
10
73.005171
20
392.770455
11
72.561681
21
393.144039
0
LINE
8
boundary
62
5
39
2
10
72.561681
20
393.144039
11
71.933847
21
393.657012
0
LINE
8
boundary
62
5
39
2
10
71.933847
20
393.657012
11
71.499364
21
394.015899
0
LINE
8
boundary
62
5
39
2
10
71.499364
20
394.015899
11
70.870928
21
394.519176
0
LINE
8
boundary
62
5
39
2
10
70.870928
20
394.519176
11
70.445259
21
394.863708
0
LINE
8
boundary
62
5
39
2
10
70.445259
20
394.863708
11
69.816405
21
395.357292
0
LINE
8
boundary
62
5
39
2
10
69.816405
20
395.357292
11
69.399382
21
395.687973
0
LINE
8
boundary
62
5
39
2
10
69.399382
20
395.687973
11
68.769911
21
396.171659
0
LINE
8
boundary
62
5
39
2
10
68.769911
20
396.171659
11
68.361326
21
396.488828
0
LINE
8
boundary
62
5
39
2
10
68.361326
20
396.488828
11
67.731455
21
396.962746
0
LINE
8
boundary
62
5
39
2
10
67.731455
20
396.962746
11
66.700746
21
397.730647
0
LINE
8
boundary
62
5
39
2
10
66.700746
20
397.730647
11
65.677621
21
398.475996
0
LINE
8
boundary
62
5
39
2
10
65.677621
20
398.475996
11
64.661909
21
399.198965
0
LINE
8
boundary
62
5
39
2
10
64.661909
20
399.198965
11
63.653435
21
399.900007
0
LINE
8
boundary
62
5
39
2
10
63.653435
20
399.900007
11
62.652045
21
400.579529
0
LINE
8
boundary
62
5
39
2
10
62.652045
20
400.579529
11
61.657602
21
401.237752
0
LINE
8
boundary
62
5
39
2
10
61.657602
20
401.237752
11
60.669925
21
401.875089
0
LINE
8
boundary
62
5
39
2
10
60.669925
20
401.875089
11
59.688806
21
402.491928
0
LINE
8
boundary
62
5
39
2
10
59.688806
20
402.491928
11
58.714112
21
403.088661
0
LINE
8
boundary
62
5
39
2
10
58.714112
20
403.088661
11
57.745725
21
403.665632
0
LINE
8
boundary
62
5
39
2
10
57.745725
20
403.665632
11
56.783392
21
404.223188
0
LINE
8
boundary
62
5
39
2
10
56.783392
20
404.223188
11
55.827066
21
404.761840
0
LINE
8
boundary
62
5
39
2
10
55.827066
20
404.761840
11
54.876609
21
405.281857
0
LINE
8
boundary
62
5
39
2
10
54.876609
20
405.281857
11
53.931788
21
405.783421
0
LINE
8
boundary
62
5
39
2
10
53.931788
20
405.783421
11
52.992517
21
406.267271
0
LINE
8
boundary
62
5
39
2
10
52.992517
20
406.267271
11
52.058591
21
406.733483
0
LINE
8
boundary
62
5
39
2
10
52.058591
20
406.733483
11
51.129901
21
407.182662
0
LINE
8
boundary
62
5
39
2
10
51.129901
20
407.182662
11
50.206407
21
407.615039
0
LINE
8
boundary
62
5
39
2
10
50.206407
20
407.615039
11
49.287827
21
408.031138
0
LINE
8
boundary
62
5
39
2
10
49.287827
20
408.031138
11
48.374228
21
408.431231
0
LINE
8
boundary
62
5
39
2
10
48.374228
20
408.431231
11
47.465283
21
408.815802
0
LINE
8
boundary
62
5
39
2
10
47.465283
20
408.815802
11
46.561056
21
409.185012
0
LINE
8
boundary
62
5
39
2
10
46.561056
20
409.185012
11
45.661243
21
409.539572
0
LINE
8
boundary
62
5
39
2
10
45.661243
20
409.539572
11
44.765867
21
409.879627
0
LINE
8
boundary
62
5
39
2
10
44.765867
20
409.879627
11
43.874813
21
410.205774
0
LINE
8
boundary
62
5
39
2
10
43.874813
20
410.205774
11
42.987887
21
410.518259
0
LINE
8
boundary
62
5
39
2
10
42.987887
20
410.518259
11
42.105006
21
410.817445
0
LINE
8
boundary
62
5
39
2
10
42.105006
20
410.817445
11
41.226107
21
411.103833
0
LINE
8
boundary
62
5
39
2
10
41.226107
20
411.103833
11
40.350986
21
411.377681
0
LINE
8
boundary
62
5
39
2
10
40.350986
20
411.377681
11
39.479771
21
411.639658
0
LINE
8
boundary
62
5
39
2
10
39.479771
20
411.639658
11
38.612227
21
411.889872
0
LINE
8
boundary
62
5
39
2
10
38.612227
20
411.889872
11
37.748193
21
412.128776
0
LINE
8
boundary
62
5
39
2
10
37.748193
20
412.128776
11
36.887766
21
412.356897
0
LINE
8
boundary
62
5
39
2
10
36.887766
20
412.356897
11
36.030693
21
412.574555
0
LINE
8
boundary
62
5
39
2
10
36.030693
20
412.574555
11
35.176917
21
412.782061
0
LINE
8
boundary
62
5
39
2
10
35.176917
20
412.782061
11
33.674627
21
413.123485
0
LINE
8
boundary
62
5
39
2
10
33.674627
20
413.123485
11
31.982130
21
413.479784
0
LINE
8
boundary
62
5
39
2
10
31.982130
20
413.479784
11
30.301794
21
413.803262
0
LINE
8
boundary
62
5
39
2
10
30.301794
20
413.803262
11
28.633032
21
414.097136
0
LINE
8
boundary
62
5
39
2
10
28.633032
20
414.097136
11
26.975383
21
414.364520
0
LINE
8
boundary
62
5
39
2
10
26.975383
20
414.364520
11
25.328246
21
414.608824
0
LINE
8
boundary
62
5
39
2
10
25.328246
20
414.608824
11
23.691487
21
414.833339
0
LINE
8
boundary
62
5
39
2
10
23.691487
20
414.833339
11
22.064631
21
415.041144
0
LINE
8
boundary
62
5
39
2
10
22.064631
20
415.041144
11
20.447201
21
415.235629
0
LINE
8
boundary
62
5
39
2
10
20.447201
20
415.235629
11
17.480597
21
415.570390
0
LINE
8
boundary
62
5
39
2
10
17.480597
20
415.570390
11
16.674903
21
409.983371
0
LINE
8
boundary
62
5
39
2
10
16.674903
20
409.983371
11
16.561714
21
408.131777
0
LINE
8
boundary
62
5
39
2
10
16.561714
20
408.131777
11
19.586019
21
407.808286
0
LINE
8
boundary
62
5
39
2
10
19.586019
20
407.808286
11
20.945896
21
407.662706
0
LINE
8
boundary
62
5
39
2
10
20.945896
20
407.662706
11
21.823082
21
407.408469
0
LINE
8
boundary
62
5
39
2
10
21.823082
20
407.408469
11
23.058449
21
407.040989
0
LINE
8
boundary
62
5
39
2
10
23.058449
20
407.040989
11
23.561926
21
406.888028
0
LINE
8
boundary
62
5
39
2
10
23.561926
20
406.888028
11
41.332013
21
406.738028
0
LINE
8
boundary
62
5
39
2
10
41.332013
20
406.738028
11
41.332013
21
403.992028
0
LINE
8
boundary
62
5
39
2
10
41.332013
20
403.992028
11
32.289430
21
403.992028
0
LINE
8
boundary
62
5
39
2
10
32.289430
20
403.992028
11
32.765069
21
403.650589
0
LINE
8
boundary
62
5
39
2
10
32.765069
20
403.650589
11
33.475912
21
403.362321
0
LINE
8
boundary
62
5
39
2
10
33.475912
20
403.362321
11
34.556299
21
402.915085
0
LINE
8
boundary
62
5
39
2
10
34.556299
20
402.915085
11
35.621397
21
402.460666
0
LINE
8
boundary
62
5
39
2
10
35.621397
20
402.460666
11
36.671195
21
401.999194
0
LINE
8
boundary
62
5
39
2
10
36.671195
20
401.999194
11
37.705853
21
401.530873
0
LINE
8
boundary
62
5
39
2
10
37.705853
20
401.530873
11
38.725287
21
401.055808
0
LINE
8
boundary
62
5
39
2
10
38.725287
20
401.055808
11
39.729546
21
400.574300
0
LINE
8
boundary
62
5
39
2
10
39.729546
20
400.574300
11
40.718694
21
400.086316
0
LINE
8
boundary
62
5
39
2
10
40.718694
20
400.086316
11
41.692718
21
399.591847
0
LINE
8
boundary
62
5
39
2
10
41.692718
20
399.591847
11
42.651698
21
399.091408
0
LINE
8
boundary
62
5
39
2
10
42.651698
20
399.091408
11
43.595532
21
398.584970
0
LINE
8
boundary
62
5
39
2
10
43.595532
20
398.584970
11
44.524295
21
398.072655
0
LINE
8
boundary
62
5
39
2
10
44.524295
20
398.072655
11
45.438025
21
397.554607
0
LINE
8
boundary
62
5
39
2
10
45.438025
20
397.554607
11
46.336701
21
397.030983
0
LINE
8
boundary
62
5
39
2
10
46.336701
20
397.030983
11
47.220362
21
396.501968
0
LINE
8
boundary
62
5
39
2
10
47.220362
20
396.501968
11
48.089012
21
395.967680
0
LINE
8
boundary
62
5
39
2
10
48.089012
20
395.967680
11
48.942642
21
395.428230
0
LINE
8
boundary
62
5
39
2
10
48.942642
20
395.428230
11
49.781311
21
394.883854
0
LINE
8
boundary
62
5
39
2
10
49.781311
20
394.883854
11
50.604954
21
394.334528
0
LINE
8
boundary
62
5
39
2
10
50.604954
20
394.334528
11
51.413578
21
393.780600
0
LINE
8
boundary
62
5
39
2
10
51.413578
20
393.780600
11
52.207172
21
393.222074
0
LINE
8
boundary
62
5
39
2
10
52.207172
20
393.222074
11
52.985667
21
392.659056
0
LINE
8
boundary
62
5
39
2
10
52.985667
20
392.659056
11
53.749218
21
392.091855
0
LINE
8
boundary
62
5
39
2
10
53.749218
20
392.091855
11
54.497748
21
391.520443
0
LINE
8
boundary
62
5
39
2
10
54.497748
20
391.520443
11
55.231259
21
390.945065
0
LINE
8
boundary
62
5
39
2
10
55.231259
20
390.945065
11
55.949702
21
390.365819
0
LINE
8
boundary
62
5
39
2
10
55.949702
20
390.365819
11
56.653040
21
389.782832
0
LINE
8
boundary
62
5
39
2
10
56.653040
20
389.782832
11
57.341330
21
389.196331
0
LINE
8
boundary
62
5
39
2
10
57.341330
20
389.196331
11
58.014566
21
388.606388
0
LINE
8
boundary
62
5
39
2
10
58.014566
20
388.606388
11
58.672663
21
388.013079
0
LINE
8
boundary
62
5
39
2
10
58.672663
20
388.013079
11
59.315629
21
387.416598
0
LINE
8
boundary
62
5
39
2
10
59.315629
20
387.416598
11
59.943462
21
386.817201
0
LINE
8
boundary
62
5
39
2
10
59.943462
20
386.817201
11
60.556132
21
386.214831
0
LINE
8
boundary
62
5
39
2
10
60.556132
20
386.214831
11
61.153609
21
385.609673
0
LINE
8
boundary
62
5
39
2
10
61.153609
20
385.609673
11
61.735970
21
385.002018
0
LINE
8
boundary
62
5
39
2
10
61.735970
20
385.002018
11
62.302999
21
384.391900
0
LINE
8
boundary
62
5
39
2
10
62.302999
20
384.391900
11
62.854766
21
383.779296
0
LINE
8
boundary
62
5
39
2
10
62.854766
20
383.779296
11
63.391336
21
383.164607
0
LINE
8
boundary
62
5
39
2
10
63.391336
20
383.164607
11
63.912525
21
382.547786
0
LINE
8
boundary
62
5
39
2
10
63.912525
20
382.547786
11
64.418451
21
381.929059
0
LINE
8
boundary
62
5
39
2
10
64.418451
20
381.929059
11
64.909051
21
381.308639
0
LINE
8
boundary
62
5
39
2
10
64.909051
20
381.308639
11
65.384218
21
380.686517
0
LINE
8
boundary
62
5
39
2
10
65.384218
20
380.686517
11
65.843989
21
380.062866
0
LINE
8
boundary
62
5
39
2
10
65.843989
20
380.062866
11
66.288367
21
379.437766
0
LINE
8
boundary
62
5
39
2
10
66.288367
20
379.437766
11
66.717294
21
378.811477
0
LINE
8
boundary
62
5
39
2
10
66.717294
20
378.811477
11
67.130716
21
378.184140
0
LINE
8
boundary
62
5
39
2
10
67.130716
20
378.184140
11
67.528654
21
377.555750
0
LINE
8
boundary
62
5
39
2
10
67.528654
20
377.555750
11
67.911090
21
376.926445
0
LINE
8
boundary
62
5
39
2
10
67.911090
20
376.926445
11
68.277942
21
376.296541
0
LINE
8
boundary
62
5
39
2
10
68.277942
20
376.296541
11
68.629207
21
375.665999
0
LINE
8
boundary
62
5
39
2
10
68.629207
20
375.665999
11
68.964803
21
375.035070
0
LINE
8
boundary
62
5
39
2
10
68.964803
20
375.035070
11
69.284810
21
374.403747
0
LINE
8
boundary
62
5
39
2
10
69.284810
20
374.403747
11
69.589199
21
373.772266
0
LINE
8
boundary
62
5
39
2
10
69.589199
20
373.772266
11
69.877792
21
373.140819
0
LINE
8
boundary
62
5
39
2
10
69.877792
20
373.140819
11
70.045416
21
372.366224
0
LINE
8
boundary
62
5
39
2
10
70.045416
20
372.366224
11
70.096363
21
371.422310
0
LINE
8
boundary
62
5
39
2
10
70.096363
20
371.422310
11
70.131091
21
370.906097
0
LINE
8
boundary
62
5
39
2
10
70.131091
20
370.906097
11
70.217020
21
369.938471
0
LINE
8
boundary
62
5
39
2
10
70.217020
20
369.938471
11
70.317757
21
368.962546
0
LINE
8
boundary
62
5
39
2
10
70.317757
20
368.962546
11
70.417439
21
368.089171
0
LINE
8
boundary
62
5
39
2
10
70.417439
20
368.089171
11
70.539962
21
366.999420
0
LINE
8
boundary
62
5
39
2
10
70.539962
20
366.999420
11
70.632456
21
366.145133
0
LINE
8
boundary
62
5
39
2
10
70.632456
20
366.145133
11
70.750511
21
365.043557
0
LINE
8
boundary
62
5
39
2
10
70.750511
20
365.043557
11
70.836391
21
364.076768
0
LINE
8
boundary
62
5
39
2
10
70.836391
20
364.076768
11
70.901416
21
363.121731
0
LINE
8
boundary
62
5
39
2
10
70.901416
20
363.121731
11
70.939331
21
362.181768
0
LINE
8
boundary
62
5
39
2
10
70.939331
20
362.181768
11
70.944208
21
361.260116
0
LINE
8
boundary
62
5
39
2
10
70.944208
20
361.260116
11
70.909664
21
360.360315
0
LINE
8
boundary
62
5
39
2
10
70.909664
20
360.360315
11
70.856623
21
359.740589
0
LINE
8
boundary
62
5
39
2
10
70.856623
20
359.740589
11
70.770862
21
359.058394
0
LINE
8
boundary
62
5
39
2
10
70.770862
20
359.058394
11
70.662501
21
358.471063
0
LINE
8
boundary
62
5
39
2
10
70.662501
20
358.471063
11
70.508793
21
357.823533
0
LINE
8
boundary
62
5
39
2
10
70.508793
20
357.823533
11
70.335693
21
357.273665
0
LINE
8
boundary
62
5
39
2
10
70.335693
20
357.273665
11
70.102597
21
356.666926
0
LINE
8
boundary
62
5
39
2
10
70.102597
20
356.666926
11
69.855603
21
356.159383
0
LINE
8
boundary
62
5
39
2
10
69.855603
20
356.159383
11
69.531382
21
355.599723
0
LINE
8
boundary
62
5
39
2
10
69.531382
20
355.599723
11
69.201332
21
355.139129
0
LINE
8
boundary
62
5
39
2
10
69.201332
20
355.139129
11
68.774428
21
354.632692
0
LINE
8
boundary
62
5
39
2
10
68.774428
20
354.632692
11
68.352231
21
354.223935
0
LINE
8
boundary
62
5
39
2
10
68.352231
20
354.223935
11
67.810927
21
353.777012
0
LINE
8
boundary
62
5
39
2
10
67.810927
20
353.777012
11
67.288085
21
353.424768
0
LINE
8
boundary
62
5
39
2
10
67.288085
20
353.424768
11
66.620555
21
353.043523
0
LINE
8
boundary
62
5
39
2
10
66.620555
20
353.043523
11
65.988576
21
352.752581
0
LINE
8
boundary
62
5
39
2
10
65.988576
20
352.752581
11
65.499673
21
352.558668
0
LINE
8
boundary
62
5
39
2
10
65.499673
20
352.558668
11
64.981774
21
352.380414
0
LINE
8
boundary
62
5
39
2
10
64.981774
20
352.380414
11
64.434145
21
352.218335
0
LINE
8
boundary
62
5
39
2
10
64.434145
20
352.218335
11
63.856049
21
352.072905
0
LINE
8
boundary
62
5
39
2
10
63.856049
20
352.072905
11
63.246724
21
351.944262
0
LINE
8
boundary
62
5
39
2
10
63.246724
20
351.944262
11
62.605664
21
351.833026
0
LINE
8
boundary
62
5
39
2
10
62.605664
20
351.833026
11
61.932109
21
351.739633
0
LINE
8
boundary
62
5
39
2
10
61.932109
20
351.739633
11
61.225331
21
351.664351
0
LINE
8
boundary
62
5
39
2
10
61.225331
20
351.664351
11
60.484740
21
351.607641
0
LINE
8
boundary
62
5
39
2
10
60.484740
20
351.607641
11
59.709639
21
351.569901
0
LINE
8
boundary
62
5
39
2
10
59.709639
20
351.569901
11
59.196031
21
351.553526
0
LINE
8
boundary
62
5
39
2
10
59.196031
20
351.553526
11
58.360855
21
351.547927
0
LINE
8
boundary
62
5
39
2
10
58.360855
20
351.547927
11
57.489307
21
351.562502
0
LINE
8
boundary
62
5
39
2
10
57.489307
20
351.562502
11
56.580668
21
351.597644
0
LINE
8
boundary
62
5
39
2
10
56.580668
20
351.597644
11
55.634457
21
351.653765
0
LINE
8
boundary
62
5
39
2
10
55.634457
20
351.653765
11
54.650142
21
351.731262
0
LINE
8
boundary
62
5
39
2
10
54.650142
20
351.731262
11
54.049377
21
351.937349
0
LINE
8
boundary
62
5
39
2
10
54.049377
20
351.937349
11
52.897505
21
352.333486
0
LINE
8
boundary
62
5
39
2
10
52.897505
20
352.333486
11
52.320304
21
352.526745
0
LINE
8
boundary
62
5
39
2
10
52.320304
20
352.526745
11
51.193755
21
352.904713
0
LINE
8
boundary
62
5
39
2
10
51.193755
20
352.904713
11
50.636757
21
353.085472
0
LINE
8
boundary
62
5
39
2
10
50.636757
20
353.085472
11
49.529644
21
353.445541
0
LINE
8
boundary
62
5
39
2
10
49.529644
20
353.445541
11
48.989820
21
353.614236
0
LINE
8
boundary
62
5
39
2
10
48.989820
20
353.614236
11
47.896113
21
353.956633
0
LINE
8
boundary
62
5
39
2
10
47.896113
20
353.956633
11
47.370572
21
354.113468
0
LINE
8
boundary
62
5
39
2
10
47.370572
20
354.113468
11
46.284165
21
354.438227
0
LINE
8
boundary
62
5
39
2
10
46.284165
20
354.438227
11
45.770137
21
354.583549
0
LINE
8
boundary
62
5
39
2
10
45.770137
20
354.583549
11
44.684618
21
354.891010
0
LINE
8
boundary
62
5
39
2
10
44.684618
20
354.891010
11
44.179717
21
355.025174
0
LINE
8
boundary
62
5
39
2
10
44.179717
20
355.025174
11
43.088792
21
355.315414
0
LINE
8
boundary
62
5
39
2
10
43.088792
20
355.315414
11
42.590740
21
355.438622
0
LINE
8
boundary
62
5
39
2
10
42.590740
20
355.438622
11
41.487651
21
355.712034
0
LINE
8
boundary
62
5
39
2
10
41.487651
20
355.712034
11
39.872388
21
356.081372
0
LINE
8
boundary
62
5
39
2
10
39.872388
20
356.081372
11
38.234139
21
356.423817
0
LINE
8
boundary
62
5
39
2
10
38.234139
20
356.423817
11
36.564251
21
356.739891
0
LINE
8
boundary
62
5
39
2
10
36.564251
20
356.739891
11
34.854014
21
357.030367
0
LINE
8
boundary
62
5
39
2
10
34.854014
20
357.030367
11
33.094577
21
357.295494
0
LINE
8
boundary
62
5
39
2
10
33.094577
20
357.295494
11
31.277322
21
357.535887
0
LINE
8
boundary
62
5
39
2
10
31.277322
20
357.535887
11
29.393659
21
357.752012
0
LINE
8
boundary
62
5
39
2
10
29.393659
20
357.752012
11
27.434849
21
357.944364
0
LINE
8
boundary
62
5
39
2
10
27.434849
20
357.944364
11
27.151135
21
354.145636
0
LINE
8
boundary
62
5
39
2
10
27.151135
20
354.145636
11
26.073286
21
339.086247
0
LINE
8
boundary
62
5
39
2
10
26.073286
20
339.086247
11
26.773058
21
336.325849
0
LINE
8
boundary
62
5
39
2
10
26.773058
20
336.325849
11
30.045552
21
323.676568
0
LINE
8
boundary
62
5
39
2
10
30.045552
20
323.676568
11
40.011396
21
323.526569
0
LINE
8
boundary
62
5
39
2
10
40.011396
20
323.526569
11
40.011396
21
320.780568
0
LINE
8
boundary
62
5
39
2
10
40.011396
20
320.780568
11
30.843882
21
320.780568
0
LINE
8
boundary
62
5
39
2
10
30.843882
20
320.780568
11
35.407764
21
302.949830
0
LINE
8
boundary
62
5
39
2
10
35.407764
20
302.949830
11
36.061564
21
300.830706
0
LINE
8
boundary
62
5
39
2
10
36.061564
20
300.830706
11
36.677853
21
298.704969
0
LINE
8
boundary
62
5
39
2
10
36.677853
20
298.704969
11
37.256883
21
296.572893
0
LINE
8
boundary
62
5
39
2
10
37.256883
20
296.572893
11
37.798432
21
294.434423
0
LINE
8
boundary
62
5
39
2
10
37.798432
20
294.434423
11
38.303103
21
292.289820
0
LINE
8
boundary
62
5
39
2
10
38.303103
20
292.289820
11
38.770837
21
290.139148
0
LINE
8
boundary
62
5
39
2
10
38.770837
20
290.139148
11
39.202031
21
287.982584
0
LINE
8
boundary
62
5
39
2
10
39.202031
20
287.982584
11
39.596558
21
285.820172
0
LINE
8
boundary
62
5
39
2
10
39.596558
20
285.820172
11
39.954936
21
283.652031
0
LINE
8
boundary
62
5
39
2
10
39.954936
20
283.652031
11
40.277341
21
281.478186
0
LINE
8
boundary
62
5
39
2
10
40.277341
20
281.478186
11
40.563916
21
279.299033
0
LINE
8
boundary
62
5
39
2
10
40.563916
20
279.299033
11
40.814922
21
277.114437
0
LINE
8
boundary
62
5
39
2
10
40.814922
20
277.114437
11
41.030811
21
274.924561
0
LINE
8
boundary
62
5
39
2
10
41.030811
20
274.924561
11
41.211624
21
272.729455
0
LINE
8
boundary
62
5
39
2
10
41.211624
20
272.729455
11
41.357839
21
270.529249
0
LINE
8
boundary
62
5
39
2
10
41.357839
20
270.529249
11
41.469546
21
268.324013
0
LINE
8
boundary
62
5
39
2
10
41.469546
20
268.324013
11
41.547290
21
266.114055
0
LINE
8
boundary
62
5
39
2
10
41.547290
20
266.114055
11
41.591225
21
263.899087
0
LINE
8
boundary
62
5
39
2
10
41.591225
20
263.899087
11
41.601710
21
261.679352
0
LINE
8
boundary
62
5
39
2
10
41.601710
20
261.679352
11
41.579189
21
259.455020
0
LINE
8
boundary
62
5
39
2
10
41.579189
20
259.455020
11
41.523907
21
257.226129
0
LINE
8
boundary
62
5
39
2
10
41.523907
20
257.226129
11
41.436294
21
254.992601
0
LINE
8
boundary
62
5
39
2
10
41.436294
20
254.992601
11
41.316632
21
252.754787
0
LINE
8
boundary
62
5
39
2
10
41.316632
20
252.754787
11
41.165526
21
250.512739
0
LINE
8
boundary
62
5
39
2
10
41.165526
20
250.512739
11
40.983180
21
248.266244
0
LINE
8
boundary
62
5
39
2
10
40.983180
20
248.266244
11
40.770177
21
246.015690
0
LINE
8
boundary
62
5
39
2
10
40.770177
20
246.015690
11
40.526765
21
243.761063
0
LINE
8
boundary
62
5
39
2
10
40.526765
20
243.761063
11
40.253534
21
241.502413
0
LINE
8
boundary
62
5
39
2
10
40.253534
20
241.502413
11
39.950836
21
239.239849
0
LINE
8
boundary
62
5
39
2
10
39.950836
20
239.239849
11
39.619190
21
236.973562
0
LINE
8
boundary
62
5
39
2
10
39.619190
20
236.973562
11
39.259014
21
234.703425
0
LINE
8
boundary
62
5
39
2
10
39.259014
20
234.703425
11
38.870899
21
232.429753
0
LINE
8
boundary
62
5
39
2
10
38.870899
20
232.429753
11
38.455210
21
230.152473
0
LINE
8
boundary
62
5
39
2
10
38.455210
20
230.152473
11
38.012603
21
227.871853
0
LINE
8
boundary
62
5
39
2
10
38.012603
20
227.871853
11
37.543400
21
225.587910
0
LINE
8
boundary
62
5
39
2
10
37.543400
20
225.587910
11
37.048212
21
223.300782
0
LINE
8
boundary
62
5
39
2
10
37.048212
20
223.300782
11
36.527597
21
221.010514
0
LINE
8
boundary
62
5
39
2
10
36.527597
20
221.010514
11
35.982116
21
218.717362
0
LINE
8
boundary
62
5
39
2
10
35.982116
20
218.717362
11
35.412356
21
216.421406
0
LINE
8
boundary
62
5
39
2
10
35.412356
20
216.421406
11
34.818736
21
214.122737
0
LINE
8
boundary
62
5
39
2
10
34.818736
20
214.122737
11
34.201905
21
211.821568
0
LINE
8
boundary
62
5
39
2
10
34.201905
20
211.821568
11
33.562514
21
209.518045
0
LINE
8
boundary
62
5
39
2
10
33.562514
20
209.518045
11
32.901069
21
207.212387
0
LINE
8
boundary
62
5
39
2
10
32.901069
20
207.212387
11
32.218189
21
204.904610
0
LINE
8
boundary
62
5
39
2
10
32.218189
20
204.904610
11
31.514532
21
202.595081
0
LINE
8
boundary
62
5
39
2
10
31.514532
20
202.595081
11
30.790626
21
200.283864
0
LINE
8
boundary
62
5
39
2
10
30.790626
20
200.283864
11
30.047185
21
197.971305
0
LINE
8
boundary
62
5
39
2
10
30.047185
20
197.971305
11
29.284728
21
195.657514
0
LINE
8
boundary
62
5
39
2
10
29.284728
20
195.657514
11
28.504143
21
193.342742
0
LINE
8
boundary
62
5
39
2
10
28.504143
20
193.342742
11
27.954422
21
191.748315
0
LINE
8
boundary
62
5
39
2
10
27.954422
20
191.748315
11
27.701263
21
191.032919
0
LINE
8
boundary
62
5
39
2
10
27.701263
20
191.032919
11
26.871366
21
188.735928
0
LINE
8
boundary
62
5
39
2
10
26.871366
20
188.735928
11
26.025414
21
186.439617
0
LINE
8
boundary
62
5
39
2
10
26.025414
20
186.439617
11
25.164189
21
184.144548
0
LINE
8
boundary
62
5
39
2
10
25.164189
20
184.144548
11
24.288188
21
181.850706
0
LINE
8
boundary
62
5
39
2
10
24.288188
20
181.850706
11
23.398495
21
179.558668
0
LINE
8
boundary
62
5
39
2
10
23.398495
20
179.558668
11
22.495747
21
177.268839
0
LINE
8
boundary
62
5
39
2
10
22.495747
20
177.268839
11
21.580674
21
174.981522
0
LINE
8
boundary
62
5
39
2
10
21.580674
20
174.981522
11
20.653974
21
172.697156
0
LINE
8
boundary
62
5
39
2
10
20.653974
20
172.697156
11
18.868378
21
168.379640
0
LINE
8
boundary
62
5
39
2
10
18.868378
20
168.379640
11
18.662035
21
167.882762
0
LINE
8
boundary
62
5
39
2
10
18.662035
20
167.882762
11
16.974516
21
163.898739
0
LINE
8
boundary
62
5
39
2
10
16.974516
20
163.898739
11
16.709931
21
163.276681
0
LINE
8
boundary
62
5
39
2
10
16.709931
20
163.276681
11
15.053399
21
159.444160
0
LINE
8
boundary
62
5
39
2
10
15.053399
20
159.444160
11
14.724100
21
158.686024
0
LINE
8
boundary
62
5
39
2
10
14.724100
20
158.686024
11
13.792131
21
154.818323
0
LINE
8
boundary
62
5
39
2
10
13.792131
20
154.818323
11
13.580307
21
153.946447
0
LINE
8
boundary
62
5
39
2
10
13.580307
20
153.946447
11
12.660546
21
149.997380
0
LINE
8
boundary
62
5
39
2
10
12.660546
20
149.997380
11
12.433482
21
149.031772
0
LINE
8
boundary
62
5
39
2
10
12.433482
20
149.031772
11
11.985422
21
147.032119
0
LINE
8
boundary
62
5
39
2
10
11.985422
20
147.032119
11
11.867667
21
146.512165
0
LINE
8
boundary
62
5
39
2
10
11.867667
20
146.512165
11
11.430852
21
144.495728
0
LINE
8
boundary
62
5
39
2
10
11.430852
20
144.495728
11
11.311896
21
143.952923
0
LINE
8
boundary
62
5
39
2
10
11.311896
20
143.952923
11
10.888660
21
141.919970
0
LINE
8
boundary
62
5
39
2
10
10.888660
20
141.919970
11
10.769655
21
141.355467
0
LINE
8
boundary
62
5
39
2
10
10.769655
20
141.355467
11
10.362430
21
139.306108
0
LINE
8
boundary
62
5
39
2
10
10.362430
20
139.306108
11
10.244657
21
138.721445
0
LINE
8
boundary
62
5
39
2
10
10.244657
20
138.721445
11
9.855742
21
136.655093
0
LINE
8
boundary
62
5
39
2
10
9.855742
20
136.655093
11
9.740582
21
136.052316
0
LINE
8
boundary
62
5
39
2
10
9.740582
20
136.052316
11
9.372203
21
133.968053
0
LINE
8
boundary
62
5
39
2
10
9.372203
20
133.968053
11
9.261122
21
133.349753
0
LINE
8
boundary
62
5
39
2
10
9.261122
20
133.349753
11
8.915526
21
131.246326
0
LINE
8
boundary
62
5
39
2
10
8.915526
20
131.246326
11
8.810025
21
130.615601
0
LINE
8
boundary
62
5
39
2
10
8.810025
20
130.615601
11
8.489685
21
128.490980
0
LINE
8
boundary
62
5
39
2
10
8.489685
20
128.490980
11
8.391286
21
127.851495
0
LINE
8
boundary
62
5
39
2
10
8.391286
20
127.851495
11
8.098363
21
125.703240
0
LINE
8
boundary
62
5
39
2
10
8.098363
20
125.703240
11
8.008530
21
125.059322
0
LINE
8
boundary
62
5
39
2
10
8.008530
20
125.059322
11
7.745480
21
122.884405
0
LINE
8
boundary
62
5
39
2
10
7.745480
20
122.884405
11
7.665580
21
122.240952
0
LINE
8
boundary
62
5
39
2
10
7.665580
20
122.240952
11
7.435311
21
120.035910
0
LINE
8
boundary
62
5
39
2
10
7.435311
20
120.035910
11
7.366652
21
119.398491
0
LINE
8
boundary
62
5
39
2
10
7.366652
20
119.398491
11
7.171846
21
117.159211
0
LINE
8
boundary
62
5
39
2
10
7.171846
20
117.159211
11
7.115356
21
116.533933
0
LINE
8
boundary
62
5
39
2
10
7.115356
20
116.533933
11
6.959423
21
114.255896
0
LINE
8
boundary
62
5
39
2
10
6.959423
20
114.255896
11
6.915824
21
113.649450
0
LINE
8
boundary
62
5
39
2
10
6.915824
20
113.649450
11
6.802349
21
111.327618
0
LINE
8
boundary
62
5
39
2
10
6.802349
20
111.327618
11
6.771966
21
110.747183
0
LINE
8
boundary
62
5
39
2
10
6.771966
20
110.747183
11
6.705213
21
108.376313
0
LINE
8
boundary
62
5
39
2
10
6.705213
20
108.376313
11
6.687874
21
107.829547
0
LINE
8
boundary
62
5
39
2
10
6.687874
20
107.829547
11
6.673561
21
106.628285
0
LINE
8
boundary
62
5
39
2
10
6.673561
20
106.628285
11
6.668609
21
105.150350
0
LINE
8
boundary
62
5
39
2
10
6.668609
20
105.150350
11
6.680877
21
103.668816
0
LINE
8
boundary
62
5
39
2
10
6.680877
20
103.668816
11
6.710816
21
102.183994
0
LINE
8
boundary
62
5
39
2
10
6.710816
20
102.183994
11
6.758965
21
100.696198
0
LINE
8
boundary
62
5
39
2
10
6.758965
20
100.696198
11
6.826003
21
99.205837
0
LINE
8
boundary
62
5
39
2
10
6.826003
20
99.205837
11
6.912534
21
97.713198
0
LINE
8
boundary
62
5
39
2
10
6.912534
20
97.713198
11
7.018952
21
96.218602
0
LINE
8
boundary
62
5
39
2
10
7.018952
20
96.218602
11
7.145894
21
94.722598
0
LINE
8
boundary
62
5
39
2
10
7.145894
20
94.722598
11
7.293830
21
93.225370
0
LINE
8
boundary
62
5
39
2
10
7.293830
20
93.225370
11
7.463473
21
91.727492
0
LINE
8
boundary
62
5
39
2
10
7.463473
20
91.727492
11
7.655445
21
90.229395
0
LINE
8
boundary
62
5
39
2
10
7.655445
20
90.229395
11
7.870196
21
88.731384
0
LINE
8
boundary
62
5
39
2
10
7.870196
20
88.731384
11
8.108306
21
87.233946
0
LINE
8
boundary
62
5
39
2
10
8.108306
20
87.233946
11
8.370412
21
85.737591
0
LINE
8
boundary
62
5
39
2
10
8.370412
20
85.737591
11
8.641681
21
84.321959
0
LINE
8
boundary
62
5
39
2
10
8.641681
20
84.321959
11
8.938216
21
82.771336
0
LINE
8
boundary
62
5
39
2
10
8.938216
20
82.771336
11
9.244764
21
81.301490
0
LINE
8
boundary
62
5
39
2
10
9.244764
20
81.301490
11
9.575722
21
79.834921
0
LINE
8
boundary
62
5
39
2
10
9.575722
20
79.834921
11
9.931647
21
78.371900
0
LINE
8
boundary
62
5
39
2
10
9.931647
20
78.371900
11
10.312911
21
76.912859
0
LINE
8
boundary
62
5
39
2
10
10.312911
20
76.912859
11
10.720391
21
75.458365
0
LINE
8
boundary
62
5
39
2
10
10.720391
20
75.458365
11
11.154214
21
74.008777
0
LINE
8
boundary
62
5
39
2
10
11.154214
20
74.008777
11
11.615013
21
72.564584
0
LINE
8
boundary
62
5
39
2
10
11.615013
20
72.564584
11
12.103323
21
71.126269
0
LINE
8
boundary
62
5
39
2
10
12.103323
20
71.126269
11
12.619743
21
69.694289
0
LINE
8
boundary
62
5
39
2
10
12.619743
20
69.694289
11
12.804965
21
68.985555
0
LINE
8
boundary
62
5
39
2
10
12.804965
20
68.985555
11
13.720221
21
65.427242
0
LINE
8
boundary
62
5
39
2
10
13.720221
20
65.427242
11
13.968031
21
64.491465
0
LINE
8
boundary
62
5
39
2
10
13.968031
20
64.491465
11
14.896543
21
60.925110
0
LINE
8
boundary
62
5
39
2
10
14.896543
20
60.925110
11
15.054411
21
60.351659
0
LINE
8
boundary
62
5
39
2
10
15.054411
20
60.351659
11
15.527720
21
58.601838
0
LINE
8
boundary
62
5
39
2
10
15.527720
20
58.601838
11
15.708619
21
57.969781
0
LINE
8
boundary
62
5
39
2
10
15.708619
20
57.969781
11
16.195355
21
56.239224
0
LINE
8
boundary
62
5
39
2
10
16.195355
20
56.239224
11
16.402417
21
55.548997
0
LINE
8
boundary
62
5
39
2
10
16.402417
20
55.548997
11
16.905201
21
53.844066
0
LINE
8
boundary
62
5
39
2
10
16.905201
20
53.844066
11
17.141939
21
53.096705
0
LINE
8
boundary
62
5
39
2
10
17.141939
20
53.096705
11
17.663186
21
51.423319
0
LINE
8
boundary
62
5
39
2
10
17.663186
20
51.423319
11
17.933350
21
50.620543
0
LINE
8
boundary
62
5
39
2
10
17.933350
20
50.620543
11
18.475166
21
48.984144
0
LINE
8
boundary
62
5
39
2
10
18.475166
20
48.984144
11
18.782778
21
48.128388
0
LINE
8
boundary
62
5
39
2
10
18.782778
20
48.128388
11
19.347024
21
46.533873
0
LINE
8
boundary
62
5
39
2
10
19.347024
20
46.533873
11
19.696268
21
45.628342
0
LINE
8
boundary
62
5
39
2
10
19.696268
20
45.628342
11
20.284479
21
44.080103
0
LINE
8
boundary
62
5
39
2
10
20.284479
20
44.080103
11
20.477830
21
43.605831
0
LINE
8
boundary
62
5
39
2
10
20.477830
20
43.605831
11
20.779700
21
42.854300
0
LINE
8
boundary
62
5
39
2
10
20.779700
20
42.854300
11
20.985207
21
42.369147
0
LINE
8
boundary
62
5
39
2
10
20.985207
20
42.369147
11
21.293622
21
41.630503
0
LINE
8
boundary
62
5
39
2
10
21.293622
20
41.630503
11
21.511846
21
41.135127
0
LINE
8
boundary
62
5
39
2
10
21.511846
20
41.135127
11
21.826909
21
40.409776
0
LINE
8
boundary
62
5
39
2
10
21.826909
20
40.409776
11
22.058323
21
39.904822
0
LINE
8
boundary
62
5
39
2
10
22.058323
20
39.904822
11
22.380061
21
39.193072
0
LINE
8
boundary
62
5
39
2
10
22.380061
20
39.193072
11
22.625401
21
38.679266
0
LINE
8
boundary
62
5
39
2
10
22.625401
20
38.679266
11
22.954176
21
37.981427
0
LINE
8
boundary
62
5
39
2
10
22.954176
20
37.981427
11
23.213938
21
37.459552
0
LINE
8
boundary
62
5
39
2
10
23.213938
20
37.459552
11
23.549764
21
36.775893
0
LINE
8
boundary
62
5
39
2
10
23.549764
20
36.775893
11
23.824541
21
36.246727
0
LINE
8
boundary
62
5
39
2
10
23.824541
20
36.246727
11
24.167613
21
35.577482
0
LINE
8
boundary
62
5
39
2
10
24.167613
20
35.577482
11
24.457963
21
35.041929
0
LINE
8
boundary
62
5
39
2
10
24.457963
20
35.041929
11
24.808449
21
34.387372
0
LINE
8
boundary
62
5
39
2
10
24.808449
20
34.387372
11
25.114899
21
33.846262
0
LINE
8
boundary
62
5
39
2
10
25.114899
20
33.846262
11
25.472846
21
33.206409
0
LINE
8
boundary
62
5
39
2
10
25.472846
20
33.206409
11
25.796005
21
32.660730
0
LINE
8
boundary
62
5
39
2
10
25.796005
20
32.660730
11
26.161683
21
32.035829
0
LINE
8
boundary
62
5
39
2
10
26.161683
20
32.035829
11
26.502109
21
31.486583
0
LINE
8
boundary
62
5
39
2
10
26.502109
20
31.486583
11
26.875649
21
30.876757
0
LINE
8
boundary
62
5
39
2
10
26.875649
20
30.876757
11
27.233809
21
30.324907
0
LINE
8
boundary
62
5
39
2
10
27.233809
20
30.324907
11
27.615417
21
29.730210
0
LINE
8
boundary
62
5
39
2
10
27.615417
20
29.730210
11
27.991881
21
29.176815
0
LINE
8
boundary
62
5
39
2
10
27.991881
20
29.176815
11
28.381721
21
28.597320
0
LINE
8
boundary
62
5
39
2
10
28.381721
20
28.597320
11
28.776904
21
28.043474
0
LINE
8
boundary
62
5
39
2
10
28.776904
20
28.043474
11
29.175081
21
27.479230
0
LINE
8
boundary
62
5
39
2
10
29.175081
20
27.479230
11
29.589578
21
26.926002
0
LINE
8
boundary
62
5
39
2
10
29.589578
20
26.926002
11
29.996464
21
26.377027
0
LINE
8
boundary
62
5
39
2
10
29.996464
20
26.377027
11
30.430631
21
25.825547
0
LINE
8
boundary
62
5
39
2
10
30.430631
20
25.825547
11
30.846358
21
25.291860
0
LINE
8
boundary
62
5
39
2
10
30.846358
20
25.291860
11
31.300708
21
24.743312
0
LINE
8
boundary
62
5
39
2
10
31.300708
20
24.743312
11
31.725568
21
24.224960
0
LINE
8
boundary
62
5
39
2
10
31.725568
20
24.224960
11
32.200476
21
23.680463
0
LINE
8
boundary
62
5
39
2
10
32.200476
20
23.680463
11
32.634736
21
23.177417
0
LINE
8
boundary
62
5
39
2
10
32.634736
20
23.177417
11
33.130562
21
22.638082
0
LINE
8
boundary
62
5
39
2
10
33.130562
20
22.638082
11
33.574420
21
22.150285
0
LINE
8
boundary
62
5
39
2
10
33.574420
20
22.150285
11
34.091640
21
21.617392
0
LINE
8
boundary
62
5
39
2
10
34.091640
20
21.617392
11
34.545514
21
21.144917
0
LINE
8
boundary
62
5
39
2
10
34.545514
20
21.144917
11
35.084325
21
20.619559
0
LINE
8
boundary
62
5
39
2
10
35.084325
20
20.619559
11
35.548511
21
20.162350
0
LINE
8
boundary
62
5
39
2
10
35.548511
20
20.162350
11
36.109216
21
19.645750
0
LINE
8
boundary
62
5
39
2
10
36.109216
20
19.645750
11
36.583954
21
19.203794
0
LINE
8
boundary
62
5
39
2
10
36.583954
20
19.203794
11
37.166934
21
18.697063
0
LINE
8
boundary
62
5
39
2
10
37.166934
20
18.697063
11
37.652741
21
18.270405
0
LINE
8
boundary
62
5
39
2
10
37.652741
20
18.270405
11
38.258212
21
17.774728
0
LINE
8
boundary
62
5
39
2
10
38.258212
20
17.774728
11
38.755436
21
17.363346
0
LINE
8
boundary
62
5
39
2
10
38.755436
20
17.363346
11
39.383546
21
16.879846
0
LINE
8
boundary
62
5
39
2
10
39.383546
20
16.879846
11
39.892532
21
16.483780
0
LINE
8
boundary
62
5
39
2
10
39.892532
20
16.483780
11
40.543513
21
16.013590
0
LINE
8
boundary
62
5
39
2
10
40.543513
20
16.013590
11
41.064760
21
15.632905
0
LINE
8
boundary
62
5
39
2
10
41.064760
20
15.632905
11
41.738804
21
15.177139
0
LINE
8
boundary
62
5
39
2
10
41.738804
20
15.177139
11
42.272780
21
14.811856
0
LINE
8
boundary
62
5
39
2
10
42.272780
20
14.811856
11
42.969952
21
14.371518
0
LINE
8
boundary
62
5
39
2
10
42.969952
20
14.371518
11
43.517103
21
14.021721
0
LINE
8
boundary
62
5
39
2
10
43.517103
20
14.021721
11
44.237473
21
13.597872
0
LINE
8
boundary
62
5
39
2
10
44.237473
20
13.597872
11
44.798291
21
13.263657
0
LINE
8
boundary
62
5
39
2
10
44.798291
20
13.263657
11
45.542005
21
12.857315
0
LINE
8
boundary
62
5
39
2
10
45.542005
20
12.857315
11
46.117007
21
12.538822
0
LINE
8
boundary
62
5
39
2
10
46.117007
20
12.538822
11
46.884043
21
12.150971
0
LINE
8
boundary
62
5
39
2
10
46.884043
20
12.150971
11
47.473766
21
11.848327
0
LINE
8
boundary
62
5
39
2
10
47.473766
20
11.848327
11
48.264151
21
11.479885
0
LINE
8
boundary
62
5
39
2
10
48.264151
20
11.479885
11
48.869176
21
11.193273
0
LINE
8
boundary
62
5
39
2
10
48.869176
20
11.193273
11
49.682926
21
10.845112
0
LINE
8
boundary
62
5
39
2
10
49.682926
20
10.845112
11
50.303792
21
10.574701
0
LINE
8
boundary
62
5
39
2
10
50.303792
20
10.574701
11
51.140840
21
10.247657
0
LINE
8
boundary
62
5
39
2
10
51.140840
20
10.247657
11
51.778157
21
9.993672
0
LINE
8
boundary
62
5
39
2
10
51.778157
20
9.993672
11
52.638456
21
9.688557
0
LINE
8
boundary
62
5
39
2
10
52.638456
20
9.688557
11
53.292766
21
9.451260
0
LINE
8
boundary
62
5
39
2
10
53.292766
20
9.451260
11
54.176175
21
9.168775
0
LINE
8
boundary
62
5
39
2
10
54.176175
20
9.168775
11
54.848090
21
8.948365
0
LINE
8
boundary
62
5
39
2
10
54.848090
20
8.948365
11
55.754536
21
8.689221
0
LINE
8
annotation
62
1
39
211
10
46.671495
20
319.753568
11
46.671495
21
324.553568
0
LINE
8
annotation
62
1
39
211
10
46.671495
20
324.553568
11
45.604393
21
323.486166
0
LINE
8
annotation
62
1
39
211
10
48.063020
20
403.121685
11
46.070409
21
403.121685
0
LINE
8
annotation
62
1
39
211
10
46.070409
20
403.121685
11
47.911647
21
406.085843
0
LINE
8
annotation
62
1
39
211
10
47.911647
20
406.085843
11
47.911647
21
406.085843
0
LINE
8
annotation
62
1
39
211
10
47.911647
20
406.085843
11
47.913848
21
406.088566
0
LINE
8
annotation
62
1
39
211
10
47.913848
20
406.088566
11
47.915959
21
406.091313
0
LINE
8
annotation
62
1
39
211
10
47.915959
20
406.091313
11
47.917993
21
406.094106
0
LINE
8
annotation
62
1
39
211
10
47.917993
20
406.094106
11
47.919965
21
406.096969
0
LINE
8
annotation
62
1
39
211
10
47.919965
20
406.096969
11
47.921888
21
406.099924
0
LINE
8
annotation
62
1
39
211
10
47.921888
20
406.099924
11
47.923777
21
406.102995
0
LINE
8
annotation
62
1
39
211
10
47.923777
20
406.102995
11
47.925644
21
406.106205
0
LINE
8
annotation
62
1
39
211
10
47.925644
20
406.106205
11
47.927505
21
406.109577
0
LINE
8
annotation
62
1
39
211
10
47.927505
20
406.109577
11
47.929373
21
406.113135
0
LINE
8
annotation
62
1
39
211
10
47.929373
20
406.113135
11
47.929373
21
406.113135
0
LINE
8
annotation
62
1
39
211
10
47.929373
20
406.113135
11
48.005397
21
406.276365
0
LINE
8
annotation
62
1
39
211
10
48.005397
20
406.276365
11
48.049809
21
406.445568
0
LINE
8
annotation
62
1
39
211
10
48.049809
20
406.445568
11
48.063697
21
406.616920
0
LINE
8
annotation
62
1
39
211
10
48.063697
20
406.616920
11
48.048150
21
406.786598
0
LINE
8
annotation
62
1
39
211
10
48.048150
20
406.786598
11
48.004256
21
406.950778
0
LINE
8
annotation
62
1
39
211
10
48.004256
20
406.950778
11
47.933103
21
407.105637
0
LINE
8
annotation
62
1
39
211
10
47.933103
20
407.105637
11
47.835780
21
407.247352
0
LINE
8
annotation
62
1
39
211
10
47.835780
20
407.247352
11
47.713376
21
407.372099
0
LINE
8
annotation
62
1
39
211
10
47.713376
20
407.372099
11
47.566977
21
407.476056
0
LINE
8
annotation
62
1
39
211
10
47.566977
20
407.476056
11
47.566977
21
407.476056
0
LINE
8
annotation
62
1
39
211
10
47.566977
20
407.476056
11
47.403293
21
407.551000
0
LINE
8
annotation
62
1
39
211
10
47.403293
20
407.551000
11
47.233831
21
407.594728
0
LINE
8
annotation
62
1
39
211
10
47.233831
20
407.594728
11
47.062379
21
407.608224
0
LINE
8
annotation
62
1
39
211
10
47.062379
20
407.608224
11
46.892727
21
407.592472
0
LINE
8
annotation
62
1
39
211
10
46.892727
20
407.592472
11
46.728663
21
407.548456
0
LINE
8
annotation
62
1
39
211
10
46.728663
20
407.548456
11
46.573975
21
407.477161
0
LINE
8
annotation
62
1
39
211
10
46.573975
20
407.477161
11
46.432452
21
407.379570
0
LINE
8
annotation
62
1
39
211
10
46.432452
20
407.379570
11
46.307883
21
407.256669
0
LINE
8
annotation
62
1
39
211
10
46.307883
20
407.256669
11
46.204056
21
407.109441
0
LINE
8
annotation
62
1
39
211
10
46.204056
20
407.109441
11
46.073222
21
406.858465
0
LINE
8
annotation
62
1
39
211
10
78.785699
20
345.835337
11
76.330473
21
342.284078
0
LINE
8
annotation
62
1
39
211
10
76.330473
20
342.284078
11
73.874786
21
345.835337
0
LINE
8
annotation
62
1
39
211
10
76.330473
20
342.569860
11
76.330473
21
338.472892
0
LINE
8
annotation
62
1
39
211
10
85.572773
20
342.154115
11
81.547366
21
342.154115
0
LINE
8
annotation
62
1
39
211
10
91.603013
20
338.473063
11
88.333380
21
338.473063
0
LINE
8
annotation
62
1
39
211
10
88.333380
20
338.473063
11
91.354628
21
343.336885
0
LINE
8
annotation
62
1
39
211
10
91.354628
20
343.336885
11
91.354628
21
343.336885
0
LINE
8
annotation
62
1
39
211
10
91.354628
20
343.336885
11
91.358239
21
343.341354
0
LINE
8
annotation
62
1
39
211
10
91.358239
20
343.341354
11
91.361703
21
343.345861
0
LINE
8
annotation
62
1
39
211
10
91.361703
20
343.345861
11
91.365041
21
343.350444
0
LINE
8
annotation
62
1
39
211
10
91.365041
20
343.350444
11
91.368277
21
343.355142
0
LINE
8
annotation
62
1
39
211
10
91.368277
20
343.355142
11
91.371432
21
343.359991
0
LINE
8
annotation
62
1
39
211
10
91.371432
20
343.359991
11
91.374531
21
343.365030
0
LINE
8
annotation
62
1
39
211
10
91.374531
20
343.365030
11
91.377596
21
343.370297
0
LINE
8
annotation
62
1
39
211
10
91.377596
20
343.370297
11
91.380649
21
343.375831
0
LINE
8
annotation
62
1
39
211
10
91.380649
20
343.375831
11
91.383714
21
343.381668
0
LINE
8
annotation
62
1
39
211
10
91.383714
20
343.381668
11
91.383714
21
343.381668
0
LINE
8
annotation
62
1
39
211
10
91.383714
20
343.381668
11
91.508460
21
343.649509
0
LINE
8
annotation
62
1
39
211
10
91.508460
20
343.649509
11
91.581335
21
343.927151
0
LINE
8
annotation
62
1
39
211
10
91.581335
20
343.927151
11
91.604124
21
344.208318
0
LINE
8
annotation
62
1
39
211
10
91.604124
20
344.208318
11
91.578613
21
344.486738
0
LINE
8
annotation
62
1
39
211
10
91.578613
20
344.486738
11
91.506588
21
344.756138
0
LINE
8
annotation
62
1
39
211
10
91.506588
20
344.756138
11
91.389835
21
345.010243
0
LINE
8
annotation
62
1
39
211
10
91.389835
20
345.010243
11
91.230140
21
345.242780
0
LINE
8
annotation
62
1
39
211
10
91.230140
20
345.242780
11
91.029289
21
345.447476
0
LINE
8
annotation
62
1
39
211
10
91.029289
20
345.447476
11
90.789067
21
345.618056
0
LINE
8
annotation
62
1
39
211
10
90.789067
20
345.618056
11
90.789067
21
345.618056
0
LINE
8
annotation
62
1
39
211
10
90.789067
20
345.618056
11
90.520481
21
345.741030
0
LINE
8
annotation
62
1
39
211
10
90.520481
20
345.741030
11
90.242414
21
345.812782
0
LINE
8
annotation
62
1
39
211
10
90.242414
20
345.812782
11
89.961083
21
345.834927
0
LINE
8
annotation
62
1
39
211
10
89.961083
20
345.834927
11
89.682704
21
345.809080
0
LINE
8
annotation
62
1
39
211
10
89.682704
20
345.809080
11
89.413495
21
345.736855
0
LINE
8
annotation
62
1
39
211
10
89.413495
20
345.736855
11
89.159671
21
345.619869
0
LINE
8
annotation
62
1
39
211
10
89.159671
20
345.619869
11
88.927449
21
345.459735
0
LINE
8
annotation
62
1
39
211
10
88.927449
20
345.459735
11
88.723046
21
345.258068
0
LINE
8
annotation
62
1
39
211
10
88.723046
20
345.258068
11
88.552679
21
345.016484
0
LINE
8
annotation
62
1
39
211
10
88.552679
20
345.016484
11
88.337996
21
344.604664
0
LINE
8
annotation
62
1
39
211
10
96.001206
20
338.473123
11
96.001206
21
345.835107
0
LINE
8
annotation
62
1
39
211
10
96.001206
20
345.835107
11
94.364543
21
344.197982
0
LINE
8
frame
62
5
39
2
10
0.000000
20
0.000000
11
215.900000
21
0.000000
0
LINE
8
frame
62
5
39
2
10
215.900000
20
0.000000
11
215.900000
21
279.400000
0
LINE
8
frame
62
5
39
2
10
215.900000
20
279.400000
11
0.000000
21
279.400000
0
LINE
8
frame
62
5
39
2
10
0.000000
20
279.400000
11
0.000000
21
0.000000
0
ENDSEC
0
EOF
