0
SECTION
2
HEADER
9
$ACADVER
1
AC1009
0
ENDSEC
0
SECTION
2
TABLES
0
TABLE
2
VPORT
70
1
0
VPORT
2
ACTIVE
70
0
10
0.0
20
0.0
11
0.0
21
0.0
12
0.0
22
0.0
13
0.0
23
0.0
14
0.0
24
0.0
15
0.0
25
0.0
16
0.0
26
0.0
36
0.0
17
0.0
27
0.0
37
0.0
40
0.0
41
0.0
42
0.0
43
0.0
44
0.0
50
0.0
51
0.0
71
0
72
1000
73
1
74
3
75
0
76
0
77
0
78
0
0
ENDTAB
0
ENDSEC
0
SECTION
2
ENTITIES
0
LINE
8
boundary
62
5
39
2
10
45.006620
20
39.461731
11
44.241481
21
40.603028
0
LINE
8
boundary
62
5
39
2
10
44.241481
20
40.603028
11
43.483201
21
41.771825
0
LINE
8
boundary
62
5
39
2
10
43.483201
20
41.771825
11
42.732201
21
42.967561
0
LINE
8
boundary
62
5
39
2
10
42.732201
20
42.967561
11
41.988932
21
44.189497
0
LINE
8
boundary
62
5
39
2
10
41.988932
20
44.189497
11
41.253895
21
45.437114
0
LINE
8
boundary
62
5
39
2
10
41.253895
20
45.437114
11
40.527407
21
46.709810
0
LINE
8
boundary
62
5
39
2
10
40.527407
20
46.709810
11
39.810075
21
48.006905
0
LINE
8
boundary
62
5
39
2
10
39.810075
20
48.006905
11
39.102168
21
49.327802
0
LINE
8
boundary
62
5
39
2
10
39.102168
20
49.327802
11
38.404287
21
50.671874
0
LINE
8
boundary
62
5
39
2
10
38.404287
20
50.671874
11
37.716825
21
52.038512
0
LINE
8
boundary
62
5
39
2
10
37.716825
20
52.038512
11
37.488237
21
52.495105
0
LINE
8
boundary
62
5
39
2
10
37.488237
20
52.495105
11
37.040223
21
53.427044
0
LINE
8
boundary
62
5
39
2
10
37.040223
20
53.427044
11
36.809561
21
53.902915
0
LINE
8
boundary
62
5
39
2
10
36.809561
20
53.902915
11
36.374987
21
54.836913
0
LINE
8
boundary
62
5
39
2
10
36.374987
20
54.836913
11
36.142443
21
55.332559
0
LINE
8
boundary
62
5
39
2
10
36.142443
20
55.332559
11
35.721476
21
56.267428
0
LINE
8
boundary
62
5
39
2
10
35.721476
20
56.267428
11
35.487292
21
56.783377
0
LINE
8
boundary
62
5
39
2
10
35.487292
20
56.783377
11
35.080214
21
57.718049
0
LINE
8
boundary
62
5
39
2
10
35.080214
20
57.718049
11
34.844616
21
58.254792
0
LINE
8
boundary
62
5
39
2
10
34.844616
20
58.254792
11
34.451669
21
59.188103
0
LINE
8
boundary
62
5
39
2
10
34.451669
20
59.188103
11
34.214940
21
59.746152
0
LINE
8
boundary
62
5
39
2
10
34.214940
20
59.746152
11
33.836243
21
60.676992
0
LINE
8
boundary
62
5
39
2
10
33.836243
20
60.676992
11
33.598649
21
61.256810
0
LINE
8
boundary
62
5
39
2
10
33.598649
20
61.256810
11
33.234380
21
62.184106
0
LINE
8
boundary
62
5
39
2
10
33.234380
20
62.184106
11
32.996232
21
62.786196
0
LINE
8
boundary
62
5
39
2
10
32.996232
20
62.786196
11
32.646483
21
63.708823
0
LINE
8
boundary
62
5
39
2
10
32.646483
20
63.708823
11
32.408130
21
64.333668
0
LINE
8
boundary
62
5
39
2
10
32.408130
20
64.333668
11
32.073032
21
65.250629
0
LINE
8
boundary
62
5
39
2
10
32.073032
20
65.250629
11
31.834849
21
65.898665
0
LINE
8
boundary
62
5
39
2
10
31.834849
20
65.898665
11
31.514458
21
66.808875
0
LINE
8
boundary
62
5
39
2
10
31.514458
20
66.808875
11
31.276906
21
67.480523
0
LINE
8
boundary
62
5
39
2
10
31.276906
20
67.480523
11
30.971387
21
68.382941
0
LINE
8
boundary
62
5
39
2
10
30.971387
20
68.382941
11
30.734759
21
69.078646
0
LINE
8
boundary
62
5
39
2
10
30.734759
20
69.078646
11
30.443940
21
69.972311
0
LINE
8
boundary
62
5
39
2
10
30.443940
20
69.972311
11
30.208829
21
70.692469
0
LINE
8
boundary
62
5
39
2
10
30.208829
20
70.692469
11
29.932911
21
71.576361
0
LINE
8
boundary
62
5
39
2
10
29.932911
20
71.576361
11
29.699721
21
72.321370
0
LINE
8
boundary
62
5
39
2
10
29.699721
20
72.321370
11
29.438494
21
73.194559
0
LINE
8
boundary
62
5
39
2
10
29.438494
20
73.194559
11
29.207702
21
73.964746
0
LINE
8
boundary
62
5
39
2
10
29.207702
20
73.964746
11
28.961155
21
74.826347
0
LINE
8
boundary
62
5
39
2
10
28.961155
20
74.826347
11
28.733370
21
75.622066
0
LINE
8
boundary
62
5
39
2
10
28.733370
20
75.622066
11
28.501415
21
76.471163
0
LINE
8
boundary
62
5
39
2
10
28.501415
20
76.471163
11
28.277158
21
77.292719
0
LINE
8
boundary
62
5
39
2
10
28.277158
20
77.292719
11
28.059661
21
78.128501
0
LINE
8
boundary
62
5
39
2
10
28.059661
20
78.128501
11
27.839565
21
78.976163
0
LINE
8
boundary
62
5
39
2
10
27.839565
20
78.976163
11
27.636356
21
79.797778
0
LINE
8
boundary
62
5
39
2
10
27.636356
20
79.797778
11
27.421028
21
80.671774
0
LINE
8
boundary
62
5
39
2
10
27.421028
20
80.671774
11
27.231974
21
81.478482
0
LINE
8
boundary
62
5
39
2
10
27.231974
20
81.478482
11
27.022042
21
82.379048
0
LINE
8
boundary
62
5
39
2
10
27.022042
20
82.379048
11
26.846820
21
83.170137
0
LINE
8
boundary
62
5
39
2
10
26.846820
20
83.170137
11
26.643049
21
84.097461
0
LINE
8
boundary
62
5
39
2
10
26.643049
20
84.097461
11
26.481524
21
84.872235
0
LINE
8
boundary
62
5
39
2
10
26.481524
20
84.872235
11
26.284451
21
85.826448
0
LINE
8
boundary
62
5
39
2
10
26.284451
20
85.826448
11
26.136232
21
86.584302
0
LINE
8
boundary
62
5
39
2
10
26.136232
20
86.584302
11
25.946726
21
87.565466
0
LINE
8
boundary
62
5
39
2
10
25.946726
20
87.565466
11
25.811592
21
88.305763
0
LINE
8
boundary
62
5
39
2
10
25.811592
20
88.305763
11
25.630393
21
89.313942
0
LINE
8
boundary
62
5
39
2
10
25.630393
20
89.313942
11
25.508013
21
90.036194
0
LINE
8
boundary
62
5
39
2
10
25.508013
20
90.036194
11
25.335860
21
91.071485
0
LINE
8
boundary
62
5
39
2
10
25.335860
20
91.071485
11
25.225818
21
91.775224
0
LINE
8
boundary
62
5
39
2
10
25.225818
20
91.775224
11
25.063499
21
92.837523
0
LINE
8
boundary
62
5
39
2
10
25.063499
20
92.837523
11
24.965484
21
93.522306
0
LINE
8
boundary
62
5
39
2
10
24.965484
20
93.522306
11
24.813907
21
94.611514
0
LINE
8
boundary
62
5
39
2
10
24.813907
20
94.611514
11
24.727466
21
95.276974
0
LINE
8
boundary
62
5
39
2
10
24.727466
20
95.276974
11
24.587356
21
96.393029
0
LINE
8
boundary
62
5
39
2
10
24.587356
20
96.393029
11
24.512097
21
97.038879
0
LINE
8
boundary
62
5
39
2
10
24.512097
20
97.038879
11
24.384307
21
98.181615
0
LINE
8
boundary
62
5
39
2
10
24.384307
20
98.181615
11
24.319762
21
98.807614
0
LINE
8
boundary
62
5
39
2
10
24.319762
20
98.807614
11
24.205130
21
99.976738
0
LINE
8
boundary
62
5
39
2
10
24.205130
20
99.976738
11
24.150816
21
100.582662
0
LINE
8
boundary
62
5
39
2
10
24.150816
20
100.582662
11
24.050352
21
101.777948
0
LINE
8
boundary
62
5
39
2
10
24.050352
20
101.777948
11
24.005849
21
102.363730
0
LINE
8
boundary
62
5
39
2
10
24.005849
20
102.363730
11
23.920375
21
103.584804
0
LINE
8
boundary
62
5
39
2
10
23.920375
20
103.584804
11
23.885223
21
104.150341
0
LINE
8
boundary
62
5
39
2
10
23.885223
20
104.150341
11
23.745772
21
105.142294
0
LINE
8
boundary
62
5
39
2
10
23.745772
20
105.142294
11
23.556954
21
106.579426
0
LINE
8
boundary
62
5
39
2
10
23.556954
20
106.579426
11
23.382536
21
108.009277
0
LINE
8
boundary
62
5
39
2
10
23.382536
20
108.009277
11
23.222450
21
109.431770
0
LINE
8
boundary
62
5
39
2
10
23.222450
20
109.431770
11
23.076443
21
110.847022
0
LINE
8
boundary
62
5
39
2
10
23.076443
20
110.847022
11
22.944225
21
112.255103
0
LINE
8
boundary
62
5
39
2
10
22.944225
20
112.255103
11
22.746412
21
114.718777
0
LINE
8
boundary
62
5
39
2
10
22.746412
20
114.718777
11
22.698878
21
115.375149
0
LINE
8
boundary
62
5
39
2
10
22.698878
20
115.375149
11
22.568716
21
117.514777
0
LINE
8
boundary
62
5
39
2
10
22.568716
20
117.514777
11
22.536179
21
118.113975
0
LINE
8
boundary
62
5
39
2
10
22.536179
20
118.113975
11
22.444187
21
120.282017
0
LINE
8
boundary
62
5
39
2
10
22.444187
20
120.282017
11
22.424415
21
120.826995
0
LINE
8
boundary
62
5
39
2
10
22.424415
20
120.826995
11
22.371160
21
123.021015
0
LINE
8
boundary
62
5
39
2
10
22.371160
20
123.021015
11
22.347999
21
125.732459
0
LINE
8
boundary
62
5
39
2
10
22.347999
20
125.732459
11
22.373326
21
128.416923
0
LINE
8
boundary
62
5
39
2
10
22.373326
20
128.416923
11
22.445495
21
131.074952
0
LINE
8
boundary
62
5
39
2
10
22.445495
20
131.074952
11
22.562772
21
133.707280
0
LINE
8
boundary
62
5
39
2
10
22.562772
20
133.707280
11
22.723649
21
136.314450
0
LINE
8
boundary
62
5
39
2
10
22.723649
20
136.314450
11
22.926531
21
138.897192
0
LINE
8
boundary
62
5
39
2
10
22.926531
20
138.897192
11
23.169859
21
141.456083
0
LINE
8
boundary
62
5
39
2
10
23.169859
20
141.456083
11
23.452117
21
143.991817
0
LINE
8
boundary
62
5
39
2
10
23.452117
20
143.991817
11
23.771734
21
146.504978
0
LINE
8
boundary
62
5
39
2
10
23.771734
20
146.504978
11
24.127088
21
148.996282
0
LINE
8
boundary
62
5
39
2
10
24.127088
20
148.996282
11
24.516645
21
151.466303
0
LINE
8
boundary
62
5
39
2
10
24.516645
20
151.466303
11
24.938872
21
153.915640
0
LINE
8
boundary
62
5
39
2
10
24.938872
20
153.915640
11
25.392404
21
156.345085
0
LINE
8
boundary
62
5
39
2
10
25.392404
20
156.345085
11
25.875591
21
158.755007
0
LINE
8
boundary
62
5
39
2
10
25.875591
20
158.755007
11
26.387015
21
161.146092
0
LINE
8
boundary
62
5
39
2
10
26.387015
20
161.146092
11
26.925115
21
163.518990
0
LINE
8
boundary
62
5
39
2
10
26.925115
20
163.518990
11
27.488602
21
165.874185
0
LINE
8
boundary
62
5
39
2
10
27.488602
20
165.874185
11
28.076048
21
168.212225
0
LINE
8
boundary
62
5
39
2
10
28.076048
20
168.212225
11
28.685909
21
170.533777
0
LINE
8
boundary
62
5
39
2
10
28.685909
20
170.533777
11
29.316872
21
172.839066
0
LINE
8
boundary
62
5
39
2
10
29.316872
20
172.839066
11
29.967592
21
175.128865
0
LINE
8
boundary
62
5
39
2
10
29.967592
20
175.128865
11
30.636565
21
177.403573
0
LINE
8
boundary
62
5
39
2
10
30.636565
20
177.403573
11
31.322646
21
179.663568
0
LINE
8
boundary
62
5
39
2
10
31.322646
20
179.663568
11
32.024298
21
181.909404
0
LINE
8
boundary
62
5
39
2
10
32.024298
20
181.909404
11
32.740400
21
184.141463
0
LINE
8
boundary
62
5
39
2
10
32.740400
20
184.141463
11
33.469428
21
186.360121
0
LINE
8
boundary
62
5
39
2
10
33.469428
20
186.360121
11
34.210375
21
188.565837
0
LINE
8
boundary
62
5
39
2
10
34.210375
20
188.565837
11
34.961701
21
190.759014
0
LINE
8
boundary
62
5
39
2
10
34.961701
20
190.759014
11
35.722444
21
192.939965
0
LINE
8
boundary
62
5
39
2
10
35.722444
20
192.939965
11
36.491188
21
195.108939
0
LINE
8
boundary
62
5
39
2
10
36.491188
20
195.108939
11
37.266646
21
197.266466
0
LINE
8
boundary
62
5
39
2
10
37.266646
20
197.266466
11
38.801563
21
201.459476
0
LINE
8
boundary
62
5
39
2
10
38.801563
20
201.459476
11
40.374164
21
205.680483
0
LINE
8
boundary
62
5
39
2
10
40.374164
20
205.680483
11
41.950213
21
209.859768
0
LINE
8
boundary
62
5
39
2
10
41.950213
20
209.859768
11
43.520942
21
213.999620
0
LINE
8
boundary
62
5
39
2
10
43.520942
20
213.999620
11
45.077958
21
218.101986
0
LINE
8
boundary
62
5
39
2
10
45.077958
20
218.101986
11
47.960725
21
225.775472
0
LINE
8
boundary
62
5
39
2
10
47.960725
20
225.775472
11
48.268615
21
226.616602
0
LINE
8
boundary
62
5
39
2
10
48.268615
20
226.616602
11
50.824688
21
233.660725
0
LINE
8
boundary
62
5
39
2
10
50.824688
20
233.660725
11
51.180246
21
234.671324
0
LINE
8
boundary
62
5
39
2
10
51.180246
20
234.671324
11
52.375803
21
238.110979
0
LINE
8
boundary
62
5
39
2
10
52.375803
20
238.110979
11
52.557739
21
238.652698
0
LINE
8
boundary
62
5
39
2
10
52.557739
20
238.652698
11
53.684780
21
242.021800
0
LINE
8
boundary
62
5
39
2
10
53.684780
20
242.021800
11
53.872634
21
242.604439
0
LINE
8
boundary
62
5
39
2
10
53.872634
20
242.604439
11
54.927010
21
245.905028
0
LINE
8
boundary
62
5
39
2
10
54.927010
20
245.905028
11
55.118124
21
246.527504
0
LINE
8
boundary
62
5
39
2
10
55.118124
20
246.527504
11
55.618271
21
248.158398
0
LINE
8
boundary
62
5
39
2
10
55.618271
20
248.158398
11
56.192770
21
250.092877
0
LINE
8
boundary
62
5
39
2
10
56.192770
20
250.092877
11
57.026321
21
253.020520
0
LINE
8
boundary
62
5
39
2
10
57.026321
20
253.020520
11
57.179827
21
253.585060
0
LINE
8
boundary
62
5
39
2
10
57.179827
20
253.585060
11
57.889267
21
256.235826
0
LINE
8
boundary
62
5
39
2
10
57.889267
20
256.235826
11
58.045112
21
256.847516
0
LINE
8
boundary
62
5
39
2
10
58.045112
20
256.847516
11
58.387266
21
258.194154
0
LINE
8
boundary
62
5
39
2
10
58.387266
20
258.194154
11
58.796534
21
259.871468
0
LINE
8
boundary
62
5
39
2
10
58.796534
20
259.871468
11
59.194578
21
261.570603
0
LINE
8
boundary
62
5
39
2
10
59.194578
20
261.570603
11
59.580546
21
263.290876
0
LINE
8
boundary
62
5
39
2
10
59.580546
20
263.290876
11
59.953172
21
265.031398
0
LINE
8
boundary
62
5
39
2
10
59.953172
20
265.031398
11
60.311583
21
266.791541
0
LINE
8
boundary
62
5
39
2
10
60.311583
20
266.791541
11
60.654669
21
268.570521
0
LINE
8
boundary
62
5
39
2
10
60.654669
20
268.570521
11
60.981544
21
270.367707
0
LINE
8
boundary
62
5
39
2
10
60.981544
20
270.367707
11
61.291115
21
272.182176
0
LINE
8
boundary
62
5
39
2
10
61.291115
20
272.182176
11
61.582478
21
274.013486
0
LINE
8
boundary
62
5
39
2
10
61.582478
20
274.013486
11
61.854565
21
275.860762
0
LINE
8
boundary
62
5
39
2
10
61.854565
20
275.860762
11
62.106586
21
277.723285
0
LINE
8
boundary
62
5
39
2
10
62.106586
20
277.723285
11
62.337661
21
279.600478
0
LINE
8
boundary
62
5
39
2
10
62.337661
20
279.600478
11
62.546751
21
281.491597
0
LINE
8
boundary
62
5
39
2
10
62.546751
20
281.491597
11
62.733055
21
283.395936
0
LINE
8
boundary
62
5
39
2
10
62.733055
20
283.395936
11
62.895622
21
285.312862
0
LINE
8
boundary
62
5
39
2
10
62.895622
20
285.312862
11
63.033661
21
287.241713
0
LINE
8
boundary
62
5
39
2
10
63.033661
20
287.241713
11
63.064030
21
287.752635
0
LINE
8
boundary
62
5
39
2
10
63.064030
20
287.752635
11
63.146377
21
289.181848
0
LINE
8
boundary
62
5
39
2
10
63.146377
20
289.181848
11
63.170364
21
289.703635
0
LINE
8
boundary
62
5
39
2
10
63.170364
20
289.703635
11
63.232798
21
291.132512
0
LINE
8
boundary
62
5
39
2
10
63.232798
20
291.132512
11
63.249966
21
291.664905
0
LINE
8
boundary
62
5
39
2
10
63.249966
20
291.664905
11
63.292241
21
293.093164
0
LINE
8
boundary
62
5
39
2
10
63.292241
20
293.093164
11
63.302188
21
293.635930
0
LINE
8
boundary
62
5
39
2
10
63.302188
20
293.635930
11
63.323785
21
295.063256
0
LINE
8
boundary
62
5
39
2
10
63.323785
20
295.063256
11
63.326005
21
295.616075
0
LINE
8
boundary
62
5
39
2
10
63.326005
20
295.616075
11
63.326702
21
297.042001
0
LINE
8
boundary
62
5
39
2
10
63.326702
20
297.042001
11
63.320847
21
297.604594
0
LINE
8
boundary
62
5
39
2
10
63.320847
20
297.604594
11
63.300195
21
299.028780
0
LINE
8
boundary
62
5
39
2
10
63.300195
20
299.028780
11
63.285788
21
299.600815
0
LINE
8
boundary
62
5
39
2
10
63.285788
20
299.600815
11
63.243516
21
301.023077
0
LINE
8
boundary
62
5
39
2
10
63.243516
20
301.023077
11
63.220169
21
301.604266
0
LINE
8
boundary
62
5
39
2
10
63.220169
20
301.604266
11
63.155958
21
303.024209
0
LINE
8
boundary
62
5
39
2
10
63.155958
20
303.024209
11
63.123224
21
303.614137
0
LINE
8
boundary
62
5
39
2
10
63.123224
20
303.614137
11
63.036572
21
305.031651
0
LINE
8
boundary
62
5
39
2
10
63.036572
20
305.031651
11
62.994011
21
305.630001
0
LINE
8
boundary
62
5
39
2
10
62.994011
20
305.630001
11
62.884816
21
307.044759
0
LINE
8
boundary
62
5
39
2
10
62.884816
20
307.044759
11
62.832080
21
307.651102
0
LINE
8
boundary
62
5
39
2
10
62.832080
20
307.651102
11
62.699852
21
309.063020
0
LINE
8
boundary
62
5
39
2
10
62.699852
20
309.063020
11
62.636501
21
309.677000
0
LINE
8
boundary
62
5
39
2
10
62.636501
20
309.677000
11
62.480944
21
311.085747
0
LINE
8
boundary
62
5
39
2
10
62.480944
20
311.085747
11
62.406589
21
311.706893
0
LINE
8
boundary
62
5
39
2
10
62.406589
20
311.706893
11
62.227416
21
313.112408
0
LINE
8
boundary
62
5
39
2
10
62.227416
20
313.112408
11
62.141725
21
313.740341
0
LINE
8
boundary
62
5
39
2
10
62.141725
20
313.740341
11
61.938577
21
315.142425
0
LINE
8
boundary
62
5
39
2
10
61.938577
20
315.142425
11
61.841128
21
315.776685
0
LINE
8
boundary
62
5
39
2
10
61.841128
20
315.776685
11
61.613662
21
317.175293
0
LINE
8
boundary
62
5
39
2
10
61.613662
20
317.175293
11
61.504155
21
317.815431
0
LINE
8
boundary
62
5
39
2
10
61.504155
20
317.815431
11
61.252076
21
319.210475
0
LINE
8
boundary
62
5
39
2
10
61.252076
20
319.210475
11
61.130137
21
319.855972
0
LINE
8
boundary
62
5
39
2
10
61.130137
20
319.855972
11
60.853044
21
321.247250
0
LINE
8
boundary
62
5
39
2
10
60.853044
20
321.247250
11
60.718395
21
321.897651
0
LINE
8
boundary
62
5
39
2
10
60.718395
20
321.897651
11
60.415851
21
323.285190
0
LINE
8
boundary
62
5
39
2
10
60.415851
20
323.285190
11
60.268091
21
323.940055
0
LINE
8
boundary
62
5
39
2
10
60.268091
20
323.940055
11
59.939854
21
325.323817
0
LINE
8
boundary
62
5
39
2
10
59.939854
20
325.323817
11
59.778792
21
325.982574
0
LINE
8
boundary
62
5
39
2
10
59.778792
20
325.982574
11
59.424402
21
327.362437
0
LINE
8
boundary
62
5
39
2
10
59.424402
20
327.362437
11
59.249703
21
328.024535
0
LINE
8
boundary
62
5
39
2
10
59.249703
20
328.024535
11
58.868735
21
329.400620
0
LINE
8
boundary
62
5
39
2
10
58.868735
20
329.400620
11
58.680207
21
330.065635
0
LINE
8
boundary
62
5
39
2
10
58.680207
20
330.065635
11
58.272297
21
331.437792
0
LINE
8
boundary
62
5
39
2
10
58.272297
20
331.437792
11
58.069638
21
332.105105
0
LINE
8
boundary
62
5
39
2
10
58.069638
20
332.105105
11
57.634261
21
333.473445
0
LINE
8
boundary
62
5
39
2
10
57.634261
20
333.473445
11
57.417301
21
334.142535
0
LINE
8
boundary
62
5
39
2
10
57.417301
20
334.142535
11
57.189481
21
334.824382
0
LINE
8
boundary
62
5
39
2
10
57.189481
20
334.824382
11
56.840504
21
335.841152
0
LINE
8
boundary
62
5
39
2
10
56.840504
20
335.841152
11
56.480777
21
336.857216
0
LINE
8
boundary
62
5
39
2
10
56.480777
20
336.857216
11
56.110267
21
337.872446
0
LINE
8
boundary
62
5
39
2
10
56.110267
20
337.872446
11
55.728827
21
338.886805
0
LINE
8
boundary
62
5
39
2
10
55.728827
20
338.886805
11
55.336436
21
339.900292
0
LINE
8
boundary
62
5
39
2
10
55.336436
20
339.900292
11
54.932976
21
340.912814
0
LINE
8
boundary
62
5
39
2
10
54.932976
20
340.912814
11
54.518408
21
341.924258
0
LINE
8
boundary
62
5
39
2
10
54.518408
20
341.924258
11
54.092558
21
342.934627
0
LINE
8
boundary
62
5
39
2
10
54.092558
20
342.934627
11
53.655481
21
343.943773
0
LINE
8
boundary
62
5
39
2
10
53.655481
20
343.943773
11
53.207038
21
344.951645
0
LINE
8
boundary
62
5
39
2
10
53.207038
20
344.951645
11
52.747091
21
345.958304
0
LINE
8
boundary
62
5
39
2
10
52.747091
20
345.958304
11
52.275682
21
346.963478
0
LINE
8
boundary
62
5
39
2
10
52.275682
20
346.963478
11
51.792600
21
347.967270
0
LINE
8
boundary
62
5
39
2
10
51.792600
20
347.967270
11
51.297795
21
348.969499
0
LINE
8
boundary
62
5
39
2
10
51.297795
20
348.969499
11
50.791300
21
349.970170
0
LINE
8
boundary
62
5
39
2
10
50.791300
20
349.970170
11
50.272935
21
350.969208
0
LINE
8
boundary
62
5
39
2
10
50.272935
20
350.969208
11
49.742658
21
351.966467
0
LINE
8
boundary
62
5
39
2
10
49.742658
20
351.966467
11
49.200320
21
352.962040
0
LINE
8
boundary
62
5
39
2
10
49.200320
20
352.962040
11
48.645948
21
353.955788
0
LINE
8
boundary
62
5
39
2
10
48.645948
20
353.955788
11
48.079410
21
354.947598
0
LINE
8
boundary
62
5
39
2
10
48.079410
20
354.947598
11
47.500562
21
355.937455
0
LINE
8
boundary
62
5
39
2
10
47.500562
20
355.937455
11
46.909430
21
356.925185
0
LINE
8
boundary
62
5
39
2
10
46.909430
20
356.925185
11
46.305920
21
357.910840
0
LINE
8
boundary
62
5
39
2
10
46.305920
20
357.910840
11
45.689932
21
358.894406
0
LINE
8
boundary
62
5
39
2
10
45.689932
20
358.894406
11
45.061363
21
359.875687
0
LINE
8
boundary
62
5
39
2
10
45.061363
20
359.875687
11
44.420103
21
360.854610
0
LINE
8
boundary
62
5
39
2
10
44.420103
20
360.854610
11
43.766165
21
361.831221
0
LINE
8
boundary
62
5
39
2
10
43.766165
20
361.831221
11
43.099472
21
362.805439
0
LINE
8
boundary
62
5
39
2
10
43.099472
20
362.805439
11
42.419886
21
363.777101
0
LINE
8
boundary
62
5
39
2
10
42.419886
20
363.777101
11
41.727377
21
364.746192
0
LINE
8
boundary
62
5
39
2
10
41.727377
20
364.746192
11
41.021797
21
365.712663
0
LINE
8
boundary
62
5
39
2
10
41.021797
20
365.712663
11
40.303148
21
366.676455
0
LINE
8
boundary
62
5
39
2
10
40.303148
20
366.676455
11
39.571291
21
367.637432
0
LINE
8
boundary
62
5
39
2
10
39.571291
20
367.637432
11
38.826184
21
368.595580
0
LINE
8
boundary
62
5
39
2
10
38.826184
20
368.595580
11
38.067789
21
369.550874
0
LINE
8
boundary
62
5
39
2
10
38.067789
20
369.550874
11
37.295944
21
370.503181
0
LINE
8
boundary
62
5
39
2
10
37.295944
20
370.503181
11
36.510551
21
371.452462
0
LINE
8
boundary
62
5
39
2
10
36.510551
20
371.452462
11
35.711637
21
372.398673
0
LINE
8
boundary
62
5
39
2
10
35.711637
20
372.398673
11
34.899123
21
373.341643
0
LINE
8
boundary
62
5
39
2
10
34.899123
20
373.341643
11
34.478497
21
374.011246
0
LINE
8
boundary
62
5
39
2
10
34.478497
20
374.011246
11
34.252223
21
374.543233
0
LINE
8
boundary
62
5
39
2
10
34.252223
20
374.543233
11
34.051844
21
375.050330
0
LINE
8
boundary
62
5
39
2
10
34.051844
20
375.050330
11
33.876782
21
375.532891
0
LINE
8
boundary
62
5
39
2
10
33.876782
20
375.532891
11
33.681057
21
376.134060
0
LINE
8
boundary
62
5
39
2
10
33.681057
20
376.134060
11
33.497165
21
376.838527
0
LINE
8
boundary
62
5
39
2
10
33.497165
20
376.838527
11
33.393671
21
377.350324
0
LINE
8
boundary
62
5
39
2
10
33.393671
20
377.350324
11
33.323515
21
377.941212
0
LINE
8
boundary
62
5
39
2
10
33.323515
20
377.941212
11
33.314297
21
378.569825
0
LINE
8
boundary
62
5
39
2
10
33.314297
20
378.569825
11
33.384929
21
379.117931
0
LINE
8
boundary
62
5
39
2
10
33.384929
20
379.117931
11
33.559866
21
379.662104
0
LINE
8
boundary
62
5
39
2
10
33.559866
20
379.662104
11
33.881255
21
380.159395
0
LINE
8
boundary
62
5
39
2
10
33.881255
20
380.159395
11
34.375808
21
380.577427
0
LINE
8
boundary
62
5
39
2
10
34.375808
20
380.577427
11
34.851824
21
380.808313
0
LINE
8
boundary
62
5
39
2
10
34.851824
20
380.808313
11
35.480247
21
380.969760
0
LINE
8
boundary
62
5
39
2
10
35.480247
20
380.969760
11
36.007412
21
381.030681
0
LINE
8
boundary
62
5
39
2
10
36.007412
20
381.030681
11
36.576737
21
381.042329
0
LINE
8
boundary
62
5
39
2
10
36.576737
20
381.042329
11
37.183939
21
381.008233
0
LINE
8
boundary
62
5
39
2
10
37.183939
20
381.008233
11
38.035441
21
380.896474
0
LINE
8
boundary
62
5
39
2
10
38.035441
20
380.896474
11
38.712139
21
380.771173
0
LINE
8
boundary
62
5
39
2
10
38.712139
20
380.771173
11
39.412234
21
380.612311
0
LINE
8
boundary
62
5
39
2
10
39.412234
20
380.612311
11
40.131489
21
380.423468
0
LINE
8
boundary
62
5
39
2
10
40.131489
20
380.423468
11
40.865583
21
380.208412
0
LINE
8
boundary
62
5
39
2
10
40.865583
20
380.208412
11
41.610142
21
379.970641
0
LINE
8
boundary
62
5
39
2
10
41.610142
20
379.970641
11
42.360887
21
379.713940
0
LINE
8
boundary
62
5
39
2
10
42.360887
20
379.713940
11
43.113443
21
379.441732
0
LINE
8
boundary
62
5
39
2
10
43.113443
20
379.441732
11
43.863380
21
379.157788
0
LINE
8
boundary
62
5
39
2
10
43.863380
20
379.157788
11
45.038123
21
378.688693
0
LINE
8
boundary
62
5
39
2
10
45.038123
20
378.688693
11
45.630624
21
378.449278
0
LINE
8
boundary
62
5
39
2
10
45.630624
20
378.449278
11
46.458614
21
378.099378
0
LINE
8
boundary
62
5
39
2
10
46.458614
20
378.099378
11
47.029993
21
377.857914
0
LINE
8
boundary
62
5
39
2
10
47.029993
20
377.857914
11
47.788781
21
377.529665
0
LINE
8
boundary
62
5
39
2
10
47.788781
20
377.529665
11
48.322766
21
377.298728
0
LINE
8
boundary
62
5
39
2
10
48.322766
20
377.298728
11
48.811413
21
376.936681
0
LINE
8
boundary
62
5
39
2
10
48.811413
20
376.936681
11
49.651450
21
376.329939
0
LINE
8
boundary
62
5
39
2
10
49.651450
20
376.329939
11
50.501873
21
375.742796
0
LINE
8
boundary
62
5
39
2
10
50.501873
20
375.742796
11
51.362226
21
375.175063
0
LINE
8
boundary
62
5
39
2
10
51.362226
20
375.175063
11
52.231949
21
374.626961
0
LINE
8
boundary
62
5
39
2
10
52.231949
20
374.626961
11
53.110602
21
374.098376
0
LINE
8
boundary
62
5
39
2
10
53.110602
20
374.098376
11
53.997679
21
373.589376
0
LINE
8
boundary
62
5
39
2
10
53.997679
20
373.589376
11
54.892531
21
373.100035
0
LINE
8
boundary
62
5
39
2
10
54.892531
20
373.100035
11
55.794706
21
372.630233
0
LINE
8
boundary
62
5
39
2
10
55.794706
20
372.630233
11
56.703758
21
372.180145
0
LINE
8
boundary
62
5
39
2
10
56.703758
20
372.180145
11
57.619115
21
371.749637
0
LINE
8
boundary
62
5
39
2
10
57.619115
20
371.749637
11
58.540232
21
371.338880
0
LINE
8
boundary
62
5
39
2
10
58.540232
20
371.338880
11
59.466569
21
370.947819
0
LINE
8
boundary
62
5
39
2
10
59.466569
20
370.947819
11
60.397656
21
370.576564
0
LINE
8
boundary
62
5
39
2
10
60.397656
20
370.576564
11
61.332961
21
370.224982
0
LINE
8
boundary
62
5
39
2
10
61.332961
20
370.224982
11
62.271996
21
369.893304
0
LINE
8
boundary
62
5
39
2
10
62.271996
20
369.893304
11
63.214196
21
369.581381
0
LINE
8
boundary
62
5
39
2
10
63.214196
20
369.581381
11
64.159036
21
369.289363
0
LINE
8
boundary
62
5
39
2
10
64.159036
20
369.289363
11
65.106003
21
369.017160
0
LINE
8
boundary
62
5
39
2
10
65.106003
20
369.017160
11
66.054568
21
368.764892
0
LINE
8
boundary
62
5
39
2
10
66.054568
20
368.764892
11
67.004311
21
368.532570
0
LINE
8
boundary
62
5
39
2
10
67.004311
20
368.532570
11
67.954621
21
368.320125
0
LINE
8
boundary
62
5
39
2
10
67.954621
20
368.320125
11
68.905005
21
368.127628
0
LINE
8
boundary
62
5
39
2
10
68.905005
20
368.127628
11
69.854995
21
367.955225
0
LINE
8
boundary
62
5
39
2
10
69.854995
20
367.955225
11
70.804058
21
367.802775
0
LINE
8
boundary
62
5
39
2
10
70.804058
20
367.802775
11
71.751682
21
367.670359
0
LINE
8
boundary
62
5
39
2
10
71.751682
20
367.670359
11
72.697318
21
367.558026
0
LINE
8
boundary
62
5
39
2
10
72.697318
20
367.558026
11
73.640575
21
367.465702
0
LINE
8
boundary
62
5
39
2
10
73.640575
20
367.465702
11
74.580893
21
367.393511
0
LINE
8
boundary
62
5
39
2
10
74.580893
20
367.393511
11
75.517813
21
367.341465
0
LINE
8
boundary
62
5
39
2
10
75.517813
20
367.341465
11
76.450823
21
367.309360
0
LINE
8
boundary
62
5
39
2
10
76.450823
20
367.309360
11
77.379374
21
367.297440
0
LINE
8
boundary
62
5
39
2
10
77.379374
20
367.297440
11
78.303036
21
367.305707
0
LINE
8
boundary
62
5
39
2
10
78.303036
20
367.305707
11
79.221338
21
367.334045
0
LINE
8
boundary
62
5
39
2
10
79.221338
20
367.334045
11
80.133795
21
367.382525
0
LINE
8
boundary
62
5
39
2
10
80.133795
20
367.382525
11
81.039949
21
367.451178
0
LINE
8
boundary
62
5
39
2
10
81.039949
20
367.451178
11
81.939284
21
367.539889
0
LINE
8
boundary
62
5
39
2
10
81.939284
20
367.539889
11
82.831366
21
367.648774
0
LINE
8
boundary
62
5
39
2
10
82.831366
20
367.648774
11
83.715690
21
367.777783
0
LINE
8
boundary
62
5
39
2
10
83.715690
20
367.777783
11
84.591884
21
367.927001
0
LINE
8
boundary
62
5
39
2
10
84.591884
20
367.927001
11
85.459414
21
368.096199
0
LINE
8
boundary
62
5
39
2
10
85.459414
20
368.096199
11
86.317847
21
368.285570
0
LINE
8
boundary
62
5
39
2
10
86.317847
20
368.285570
11
87.166755
21
368.495009
0
LINE
8
boundary
62
5
39
2
10
87.166755
20
368.495009
11
88.005660
21
368.724518
0
LINE
8
boundary
62
5
39
2
10
88.005660
20
368.724518
11
88.834144
21
368.974132
0
LINE
8
boundary
62
5
39
2
10
88.834144
20
368.974132
11
89.651748
21
369.243842
0
LINE
8
boundary
62
5
39
2
10
89.651748
20
369.243842
11
90.458024
21
369.533469
0
LINE
8
boundary
62
5
39
2
10
90.458024
20
369.533469
11
91.252577
21
369.843159
0
LINE
8
boundary
62
5
39
2
10
91.252577
20
369.843159
11
92.034961
21
370.172833
0
LINE
8
boundary
62
5
39
2
10
92.034961
20
370.172833
11
92.804723
21
370.522435
0
LINE
8
boundary
62
5
39
2
10
92.804723
20
370.522435
11
93.561499
21
370.891991
0
LINE
8
boundary
62
5
39
2
10
93.561499
20
370.891991
11
94.304866
21
371.281393
0
LINE
8
boundary
62
5
39
2
10
94.304866
20
371.281393
11
95.034352
21
371.690701
0
LINE
8
boundary
62
5
39
2
10
95.034352
20
371.690701
11
95.749556
21
372.119889
0
LINE
8
boundary
62
5
39
2
10
95.749556
20
372.119889
11
96.450147
21
372.568768
0
LINE
8
boundary
62
5
39
2
10
96.450147
20
372.568768
11
97.135680
21
373.037543
0
LINE
8
boundary
62
5
39
2
10
97.135680
20
373.037543
11
97.805677
21
373.526089
0
LINE
8
boundary
62
5
39
2
10
97.805677
20
373.526089
11
98.209379
21
373.836156
0
LINE
8
boundary
62
5
39
2
10
98.209379
20
373.836156
11
98.855524
21
374.357972
0
LINE
8
boundary
62
5
39
2
10
98.855524
20
374.357972
11
99.484979
21
374.899422
0
LINE
8
boundary
62
5
39
2
10
99.484979
20
374.899422
11
100.097370
21
375.460668
0
LINE
8
boundary
62
5
39
2
10
100.097370
20
375.460668
11
100.692337
21
376.041492
0
LINE
8
boundary
62
5
39
2
10
100.692337
20
376.041492
11
101.269433
21
376.641957
0
LINE
8
boundary
62
5
39
2
10
101.269433
20
376.641957
11
101.828333
21
377.261946
0
LINE
8
boundary
62
5
39
2
10
101.828333
20
377.261946
11
102.368648
21
377.901516
0
LINE
8
boundary
62
5
39
2
10
102.368648
20
377.901516
11
102.820583
21
378.292743
0
LINE
8
boundary
62
5
39
2
10
102.820583
20
378.292743
11
103.320924
21
378.773222
0
LINE
8
boundary
62
5
39
2
10
103.320924
20
378.773222
11
103.700182
21
379.181403
0
LINE
8
boundary
62
5
39
2
10
103.700182
20
379.181403
11
104.117445
21
379.683827
0
LINE
8
boundary
62
5
39
2
10
104.117445
20
379.683827
11
104.427028
21
380.108113
0
LINE
8
boundary
62
5
39
2
10
104.427028
20
380.108113
11
104.763717
21
380.631455
0
LINE
8
boundary
62
5
39
2
10
104.763717
20
380.631455
11
105.113721
21
381.282788
0
LINE
8
boundary
62
5
39
2
10
105.113721
20
381.282788
11
105.400999
21
381.949407
0
LINE
8
boundary
62
5
39
2
10
105.400999
20
381.949407
11
105.626969
21
382.630712
0
LINE
8
boundary
62
5
39
2
10
105.626969
20
382.630712
11
105.793196
21
383.326228
0
LINE
8
boundary
62
5
39
2
10
105.793196
20
383.326228
11
105.901300
21
384.035541
0
LINE
8
boundary
62
5
39
2
10
105.901300
20
384.035541
11
105.952720
21
384.758080
0
LINE
8
boundary
62
5
39
2
10
105.952720
20
384.758080
11
105.949074
21
385.493519
0
LINE
8
boundary
62
5
39
2
10
105.949074
20
385.493519
11
105.891788
21
386.241336
0
LINE
8
boundary
62
5
39
2
10
105.891788
20
386.241336
11
105.821076
21
386.753532
0
LINE
8
boundary
62
5
39
2
10
105.821076
20
386.753532
11
105.708549
21
387.385383
0
LINE
8
boundary
62
5
39
2
10
105.708549
20
387.385383
11
105.586579
21
387.909420
0
LINE
8
boundary
62
5
39
2
10
105.586579
20
387.909420
11
105.413102
21
388.554933
0
LINE
8
boundary
62
5
39
2
10
105.413102
20
388.554933
11
105.241902
21
389.090182
0
LINE
8
boundary
62
5
39
2
10
105.241902
20
389.090182
11
105.010347
21
389.748330
0
LINE
8
boundary
62
5
39
2
10
105.010347
20
389.748330
11
104.792146
21
390.294550
0
LINE
8
boundary
62
5
39
2
10
104.792146
20
390.294550
11
104.505302
21
390.964489
0
LINE
8
boundary
62
5
39
2
10
104.505302
20
390.964489
11
104.165414
21
391.668378
0
LINE
8
boundary
62
5
39
2
10
104.165414
20
391.668378
11
103.902821
21
392.201579
0
LINE
8
boundary
62
5
39
2
10
103.902821
20
392.201579
11
103.449546
21
393.037406
0
LINE
8
boundary
62
5
39
2
10
103.449546
20
393.037406
11
102.956633
21
393.881505
0
LINE
8
boundary
62
5
39
2
10
102.956633
20
393.881505
11
102.425606
21
394.733513
0
LINE
8
boundary
62
5
39
2
10
102.425606
20
394.733513
11
101.857754
21
395.592970
0
LINE
8
boundary
62
5
39
2
10
101.857754
20
395.592970
11
101.254633
21
396.459345
0
LINE
8
boundary
62
5
39
2
10
101.254633
20
396.459345
11
100.617706
21
397.332410
0
LINE
8
boundary
62
5
39
2
10
100.617706
20
397.332410
11
99.948373
21
398.211517
0
LINE
8
boundary
62
5
39
2
10
99.948373
20
398.211517
11
99.248118
21
399.096328
0
LINE
8
boundary
62
5
39
2
10
99.248118
20
399.096328
11
98.518379
21
399.986260
0
LINE
8
boundary
62
5
39
2
10
98.518379
20
399.986260
11
97.760533
21
400.881085
0
LINE
8
boundary
62
5
39
2
10
97.760533
20
400.881085
11
96.976070
21
401.780094
0
LINE
8
boundary
62
5
39
2
10
96.976070
20
401.780094
11
96.166556
21
402.682944
0
LINE
8
boundary
62
5
39
2
10
96.166556
20
402.682944
11
95.333264
21
403.589247
0
LINE
8
boundary
62
5
39
2
10
95.333264
20
403.589247
11
94.477809
21
404.498335
0
LINE
8
boundary
62
5
39
2
10
94.477809
20
404.498335
11
93.601417
21
405.409924
0
LINE
8
boundary
62
5
39
2
10
93.601417
20
405.409924
11
92.705735
21
406.323385
0
LINE
8
boundary
62
5
39
2
10
92.705735
20
406.323385
11
91.792226
21
407.238406
0
LINE
8
boundary
62
5
39
2
10
91.792226
20
407.238406
11
90.862193
21
408.154258
0
LINE
8
boundary
62
5
39
2
10
90.862193
20
408.154258
11
90.491244
21
408.509029
0
LINE
8
boundary
62
5
39
2
10
90.491244
20
408.509029
11
89.917132
21
409.070598
0
LINE
8
boundary
62
5
39
2
10
89.917132
20
409.070598
11
89.539097
21
409.427115
0
LINE
8
boundary
62
5
39
2
10
89.539097
20
409.427115
11
88.958474
21
409.987030
0
LINE
8
boundary
62
5
39
2
10
88.958474
20
409.987030
11
88.573958
21
410.345031
0
LINE
8
boundary
62
5
39
2
10
88.573958
20
410.345031
11
87.987911
21
410.902979
0
LINE
8
boundary
62
5
39
2
10
87.987911
20
410.902979
11
87.597380
21
411.262174
0
LINE
8
boundary
62
5
39
2
10
87.597380
20
411.262174
11
87.006549
21
411.817730
0
LINE
8
boundary
62
5
39
2
10
87.006549
20
411.817730
11
86.206391
21
412.542464
0
LINE
8
boundary
62
5
39
2
10
86.206391
20
412.542464
11
85.017837
21
413.642672
0
LINE
8
boundary
62
5
39
2
10
85.017837
20
413.642672
11
84.200630
21
414.369757
0
LINE
8
boundary
62
5
39
2
10
84.200630
20
414.369757
11
83.003922
21
415.457718
0
LINE
8
boundary
62
5
39
2
10
83.003922
20
415.457718
11
82.174724
21
416.185128
0
LINE
8
boundary
62
5
39
2
10
82.174724
20
416.185128
11
80.976515
21
417.258836
0
LINE
8
boundary
62
5
39
2
10
80.976515
20
417.258836
11
80.140431
21
417.984433
0
LINE
8
boundary
62
5
39
2
10
80.140431
20
417.984433
11
78.947011
21
419.042180
0
LINE
8
boundary
62
5
39
2
10
78.947011
20
419.042180
11
78.109377
21
419.763749
0
LINE
8
boundary
62
5
39
2
10
78.109377
20
419.763749
11
76.927014
21
420.803794
0
LINE
8
boundary
62
5
39
2
10
76.927014
20
420.803794
11
75.252060
21
422.240103
0
LINE
8
boundary
62
5
39
2
10
75.252060
20
422.240103
11
72.961096
21
424.245631
0
LINE
8
boundary
62
5
39
2
10
72.961096
20
424.245631
11
71.346263
21
425.637564
0
LINE
8
boundary
62
5
39
2
10
71.346263
20
425.637564
11
69.169652
21
427.552848
0
LINE
8
boundary
62
5
39
2
10
69.169652
20
427.552848
11
68.406319
21
428.219508
0
LINE
8
boundary
62
5
39
2
10
68.406319
20
428.219508
11
67.367148
21
429.146062
0
LINE
8
boundary
62
5
39
2
10
67.367148
20
429.146062
11
66.635134
21
429.794783
0
LINE
8
boundary
62
5
39
2
10
66.635134
20
429.794783
11
65.641759
21
430.693749
0
LINE
8
boundary
62
5
39
2
10
65.641759
20
430.693749
11
65.201062
21
431.083751
0
LINE
8
boundary
62
5
39
2
10
65.201062
20
431.083751
11
64.600147
21
431.626701
0
LINE
8
boundary
62
5
39
2
10
64.600147
20
431.626701
11
64.162032
21
432.006241
0
LINE
8
boundary
62
5
39
2
10
64.162032
20
432.006241
11
63.564999
21
432.534068
0
LINE
8
boundary
62
5
39
2
10
63.564999
20
432.534068
11
63.129527
21
432.903236
0
LINE
8
boundary
62
5
39
2
10
63.129527
20
432.903236
11
62.536247
21
433.416316
0
LINE
8
boundary
62
5
39
2
10
62.536247
20
433.416316
11
62.103436
21
433.775224
0
LINE
8
boundary
62
5
39
2
10
62.103436
20
433.775224
11
61.513681
21
434.273799
0
LINE
8
boundary
62
5
39
2
10
61.513681
20
434.273799
11
61.083559
21
434.622551
0
LINE
8
boundary
62
5
39
2
10
61.083559
20
434.622551
11
60.497261
21
435.107013
0
LINE
8
boundary
62
5
39
2
10
60.497261
20
435.107013
11
60.069867
21
435.445642
0
LINE
8
boundary
62
5
39
2
10
60.069867
20
435.445642
11
59.486777
21
435.916156
0
LINE
8
boundary
62
5
39
2
10
59.486777
20
435.916156
11
59.062227
21
436.244810
0
LINE
8
boundary
62
5
39
2
10
59.062227
20
436.244810
11
58.482354
21
436.701739
0
LINE
8
boundary
62
5
39
2
10
58.482354
20
436.701739
11
58.060619
21
437.020510
0
LINE
8
boundary
62
5
39
2
10
58.060619
20
437.020510
11
57.483753
21
437.464109
0
LINE
8
boundary
62
5
39
2
10
57.483753
20
437.464109
11
57.064870
21
437.773006
0
LINE
8
boundary
62
5
39
2
10
57.064870
20
437.773006
11
56.490960
21
438.203567
0
LINE
8
boundary
62
5
39
2
10
56.490960
20
438.203567
11
56.074953
21
438.502973
0
LINE
8
boundary
62
5
39
2
10
56.074953
20
438.502973
11
55.503703
21
438.920731
0
LINE
8
boundary
62
5
39
2
10
55.503703
20
438.920731
11
54.522076
21
439.615776
0
LINE
8
boundary
62
5
39
2
10
54.522076
20
439.615776
11
53.545893
21
440.289220
0
LINE
8
boundary
62
5
39
2
10
53.545893
20
440.289220
11
52.575123
21
440.941338
0
LINE
8
boundary
62
5
39
2
10
52.575123
20
440.941338
11
51.609618
21
441.572559
0
LINE
8
boundary
62
5
39
2
10
51.609618
20
441.572559
11
50.649295
21
442.183245
0
LINE
8
boundary
62
5
39
2
10
50.649295
20
442.183245
11
49.694064
21
442.773914
0
LINE
8
boundary
62
5
39
2
10
49.694064
20
442.773914
11
48.743841
21
443.344762
0
LINE
8
boundary
62
5
39
2
10
48.743841
20
443.344762
11
47.798534
21
443.896287
0
LINE
8
boundary
62
5
39
2
10
47.798534
20
443.896287
11
46.858007
21
444.428891
0
LINE
8
boundary
62
5
39
2
10
46.858007
20
444.428891
11
45.922334
21
444.942911
0
LINE
8
boundary
62
5
39
2
10
45.922334
20
444.942911
11
44.991227
21
445.438764
0
LINE
8
boundary
62
5
39
2
10
44.991227
20
445.438764
11
44.064642
21
445.916674
0
LINE
8
boundary
62
5
39
2
10
44.064642
20
445.916674
11
43.142574
21
446.377398
0
LINE
8
boundary
62
5
39
2
10
43.142574
20
446.377398
11
42.224916
21
446.821028
0
LINE
8
boundary
62
5
39
2
10
42.224916
20
446.821028
11
41.311604
21
447.248061
0
LINE
8
boundary
62
5
39
2
10
41.311604
20
447.248061
11
40.402432
21
447.658901
0
LINE
8
boundary
62
5
39
2
10
40.402432
20
447.658901
11
39.497499
21
448.053918
0
LINE
8
boundary
62
5
39
2
10
39.497499
20
448.053918
11
38.596568
21
448.433369
0
LINE
8
boundary
62
5
39
2
10
38.596568
20
448.433369
11
37.699720
21
448.797805
0
LINE
8
boundary
62
5
39
2
10
37.699720
20
448.797805
11
36.806704
21
449.147567
0
LINE
8
boundary
62
5
39
2
10
36.806704
20
449.147567
11
35.917637
21
449.483259
0
LINE
8
boundary
62
5
39
2
10
35.917637
20
449.483259
11
35.032303
21
449.804930
0
LINE
8
boundary
62
5
39
2
10
35.032303
20
449.804930
11
34.150668
21
450.113060
0
LINE
8
boundary
62
5
39
2
10
34.150668
20
450.113060
11
33.272647
21
450.408167
0
LINE
8
boundary
62
5
39
2
10
33.272647
20
450.408167
11
32.398185
21
450.690564
0
LINE
8
boundary
62
5
39
2
10
32.398185
20
450.690564
11
31.527258
21
450.960701
0
LINE
8
boundary
62
5
39
2
10
31.527258
20
450.960701
11
30.659776
21
451.218911
0
LINE
8
boundary
62
5
39
2
10
30.659776
20
451.218911
11
29.795654
21
451.465557
0
LINE
8
boundary
62
5
39
2
10
29.795654
20
451.465557
11
28.934835
21
451.701093
0
LINE
8
boundary
62
5
39
2
10
28.934835
20
451.701093
11
28.077365
21
451.926078
0
LINE
8
boundary
62
5
39
2
10
28.077365
20
451.926078
11
27.222965
21
452.140649
0
LINE
8
boundary
62
5
39
2
10
27.222965
20
452.140649
11
26.371752
21
452.345154
0
LINE
8
boundary
62
5
39
2
10
26.371752
20
452.345154
11
25.744881
21
452.485937
0
LINE
8
boundary
62
5
39
2
10
25.744881
20
452.485937
11
24.678567
21
452.726181
0
LINE
8
boundary
62
5
39
2
10
24.678567
20
452.726181
11
24.065141
21
452.852262
0
LINE
8
boundary
62
5
39
2
10
24.065141
20
452.852262
11
22.997299
21
453.072335
0
LINE
8
boundary
62
5
39
2
10
22.997299
20
453.072335
11
22.397548
21
453.185071
0
LINE
8
boundary
62
5
39
2
10
22.397548
20
453.185071
11
21.327549
21
453.386675
0
LINE
8
boundary
62
5
39
2
10
21.327549
20
453.386675
11
20.741730
21
453.487493
0
LINE
8
boundary
62
5
39
2
10
20.741730
20
453.487493
11
19.669011
21
453.672511
0
LINE
8
boundary
62
5
39
2
10
19.669011
20
453.672511
11
19.097412
21
453.762714
0
LINE
8
boundary
62
5
39
2
10
19.097412
20
453.762714
11
18.021300
21
453.932767
0
LINE
8
boundary
62
5
39
2
10
18.021300
20
453.932767
11
17.464291
21
454.013663
0
LINE
8
boundary
62
5
39
2
10
17.464291
20
454.013663
11
16.384056
21
454.170907
0
LINE
8
boundary
62
5
39
2
10
16.384056
20
454.170907
11
15.842103
21
454.243899
0
LINE
8
boundary
62
5
39
2
10
15.842103
20
454.243899
11
14.757114
21
454.390217
0
LINE
8
boundary
62
5
39
2
10
14.757114
20
454.390217
11
14.230756
21
454.456303
0
LINE
8
boundary
62
5
39
2
10
14.230756
20
454.456303
11
13.140199
21
454.593435
0
LINE
8
boundary
62
5
39
2
10
13.140199
20
454.593435
11
12.630030
21
454.653955
0
LINE
8
boundary
62
5
39
2
10
12.630030
20
454.653955
11
11.532997
21
454.784124
0
LINE
8
boundary
62
5
39
2
10
11.532997
20
454.784124
11
10.530654
21
454.896180
0
LINE
8
boundary
62
5
39
2
10
10.530654
20
454.896180
11
8.347150
21
455.140625
0
LINE
8
boundary
62
5
39
2
10
8.347150
20
455.140625
11
8.318022
21
452.866746
0
LINE
8
boundary
62
5
39
2
10
8.318022
20
452.866746
11
8.214654
21
447.640728
0
LINE
8
boundary
62
5
39
2
10
8.214654
20
447.640728
11
9.623734
21
447.489172
0
LINE
8
boundary
62
5
39
2
10
9.623734
20
447.489172
11
12.588542
21
447.170049
0
LINE
8
boundary
62
5
39
2
10
12.588542
20
447.170049
11
13.847470
21
446.805568
0
LINE
8
boundary
62
5
39
2
10
13.847470
20
446.805568
11
15.090008
21
446.432191
0
LINE
8
boundary
62
5
39
2
10
15.090008
20
446.432191
11
15.665941
21
446.252967
0
LINE
8
boundary
62
5
39
2
10
15.665941
20
446.252967
11
32.802764
21
446.252967
0
LINE
8
boundary
62
5
39
2
10
32.802764
20
446.252967
11
32.802764
21
443.506967
0
LINE
8
boundary
62
5
39
2
10
32.802764
20
443.506967
11
23.915289
21
443.506968
0
LINE
8
boundary
62
5
39
2
10
23.915289
20
443.506968
11
24.445306
21
443.143333
0
LINE
8
boundary
62
5
39
2
10
24.445306
20
443.143333
11
25.542301
21
442.696636
0
LINE
8
boundary
62
5
39
2
10
25.542301
20
442.696636
11
26.623326
21
442.242520
0
LINE
8
boundary
62
5
39
2
10
26.623326
20
442.242520
11
27.688415
21
441.780961
0
LINE
8
boundary
62
5
39
2
10
27.688415
20
441.780961
11
28.737627
21
441.312331
0
LINE
8
boundary
62
5
39
2
10
28.737627
20
441.312331
11
29.770986
21
440.836750
0
LINE
8
boundary
62
5
39
2
10
29.770986
20
440.836750
11
30.788529
21
440.354280
0
LINE
8
boundary
62
5
39
2
10
30.788529
20
440.354280
11
31.790301
21
439.865012
0
LINE
8
boundary
62
5
39
2
10
31.790301
20
439.865012
11
32.776297
21
439.369241
0
LINE
8
boundary
62
5
39
2
10
32.776297
20
439.369241
11
33.746617
21
438.866922
0
LINE
8
boundary
62
5
39
2
10
33.746617
20
438.866922
11
34.701258
21
438.358351
0
LINE
8
boundary
62
5
39
2
10
34.701258
20
438.358351
11
35.640168
21
437.843604
0
LINE
8
boundary
62
5
39
2
10
35.640168
20
437.843604
11
36.563397
21
437.322825
0
LINE
8
boundary
62
5
39
2
10
36.563397
20
437.322825
11
37.471099
21
436.796157
0
LINE
8
boundary
62
5
39
2
10
37.471099
20
436.796157
11
38.363152
21
436.263736
0
LINE
8
boundary
62
5
39
2
10
38.363152
20
436.263736
11
39.239610
21
435.725728
0
LINE
8
boundary
62
5
39
2
10
39.239610
20
435.725728
11
40.100574
21
435.182233
0
LINE
8
boundary
62
5
39
2
10
40.100574
20
435.182233
11
40.945966
21
434.633452
0
LINE
8
boundary
62
5
39
2
10
40.945966
20
434.633452
11
41.775898
21
434.079398
0
LINE
8
boundary
62
5
39
2
10
41.775898
20
434.079398
11
42.590394
21
433.520406
0
LINE
8
boundary
62
5
39
2
10
42.590394
20
433.520406
11
43.389365
21
432.956443
0
LINE
8
boundary
62
5
39
2
10
43.389365
20
432.956443
11
44.172865
21
432.387743
0
LINE
8
boundary
62
5
39
2
10
44.172865
20
432.387743
11
44.940916
21
431.814452
0
LINE
8
boundary
62
5
39
2
10
44.940916
20
431.814452
11
45.693638
21
431.236645
0
LINE
8
boundary
62
5
39
2
10
45.693638
20
431.236645
11
46.430926
21
430.654481
0
LINE
8
boundary
62
5
39
2
10
46.430926
20
430.654481
11
47.152917
21
430.068181
0
LINE
8
boundary
62
5
39
2
10
47.152917
20
430.068181
11
47.859434
21
429.477745
0
LINE
8
boundary
62
5
39
2
10
47.859434
20
429.477745
11
48.550724
21
428.883345
0
LINE
8
boundary
62
5
39
2
10
48.550724
20
428.883345
11
49.226586
21
428.285315
0
LINE
8
boundary
62
5
39
2
10
49.226586
20
428.285315
11
49.887243
21
427.683506
0
LINE
8
boundary
62
5
39
2
10
49.887243
20
427.683506
11
50.532512
21
427.078263
0
LINE
8
boundary
62
5
39
2
10
50.532512
20
427.078263
11
51.162563
21
426.469650
0
LINE
8
boundary
62
5
39
2
10
51.162563
20
426.469650
11
51.777338
21
425.857737
0
LINE
8
boundary
62
5
39
2
10
51.777338
20
425.857737
11
52.376895
21
425.242860
0
LINE
8
boundary
62
5
39
2
10
52.376895
20
425.242860
11
52.961227
21
424.624929
0
LINE
8
boundary
62
5
39
2
10
52.961227
20
424.624929
11
53.530324
21
424.004288
0
LINE
8
boundary
62
5
39
2
10
53.530324
20
424.004288
11
54.084178
21
423.380881
0
LINE
8
boundary
62
5
39
2
10
54.084178
20
423.380881
11
54.622810
21
422.754903
0
LINE
8
boundary
62
5
39
2
10
54.622810
20
422.754903
11
55.146406
21
422.126555
0
LINE
8
boundary
62
5
39
2
10
55.146406
20
422.126555
11
55.654716
21
421.496042
0
LINE
8
boundary
62
5
39
2
10
55.654716
20
421.496042
11
56.147982
21
420.863308
0
LINE
8
boundary
62
5
39
2
10
56.147982
20
420.863308
11
56.625974
21
420.228786
0
LINE
8
boundary
62
5
39
2
10
56.625974
20
420.228786
11
57.088966
21
419.592174
0
LINE
8
boundary
62
5
39
2
10
57.088966
20
419.592174
11
57.536779
21
418.954000
0
LINE
8
boundary
62
5
39
2
10
57.536779
20
418.954000
11
57.969596
21
418.314251
0
LINE
8
boundary
62
5
39
2
10
57.969596
20
418.314251
11
58.387180
21
417.673054
0
LINE
8
boundary
62
5
39
2
10
58.387180
20
417.673054
11
58.789806
21
417.030637
0
LINE
8
boundary
62
5
39
2
10
58.789806
20
417.030637
11
59.177371
21
416.386957
0
LINE
8
boundary
62
5
39
2
10
59.177371
20
416.386957
11
59.549858
21
415.742343
0
LINE
8
boundary
62
5
39
2
10
59.549858
20
415.742343
11
59.907333
21
415.096818
0
LINE
8
boundary
62
5
39
2
10
59.907333
20
415.096818
11
60.249771
21
414.450562
0
LINE
8
boundary
62
5
39
2
10
60.249771
20
414.450562
11
60.577099
21
413.803688
0
LINE
8
boundary
62
5
39
2
10
60.577099
20
413.803688
11
60.889571
21
413.156418
0
LINE
8
boundary
62
5
39
2
10
60.889571
20
413.156418
11
61.186980
21
412.508776
0
LINE
8
boundary
62
5
39
2
10
61.186980
20
412.508776
11
61.469431
21
411.860939
0
LINE
8
boundary
62
5
39
2
10
61.469431
20
411.860939
11
61.532381
21
410.898684
0
LINE
8
boundary
62
5
39
2
10
61.532381
20
410.898684
11
61.621291
21
409.920603
0
LINE
8
boundary
62
5
39
2
10
61.621291
20
409.920603
11
61.730470
21
408.929969
0
LINE
8
boundary
62
5
39
2
10
61.730470
20
408.929969
11
61.854444
21
407.930392
0
LINE
8
boundary
62
5
39
2
10
61.854444
20
407.930392
11
61.979847
21
407.020795
0
LINE
8
boundary
62
5
39
2
10
61.979847
20
407.020795
11
62.123950
21
405.917680
0
LINE
8
boundary
62
5
39
2
10
62.123950
20
405.917680
11
62.245712
21
405.004183
0
LINE
8
boundary
62
5
39
2
10
62.245712
20
405.004183
11
62.384419
21
403.910478
0
LINE
8
boundary
62
5
39
2
10
62.384419
20
403.910478
11
62.497019
21
402.917232
0
LINE
8
boundary
62
5
39
2
10
62.497019
20
402.917232
11
62.590271
21
401.935809
0
LINE
8
boundary
62
5
39
2
10
62.590271
20
401.935809
11
62.658211
21
400.969470
0
LINE
8
boundary
62
5
39
2
10
62.658211
20
400.969470
11
62.695333
21
400.021559
0
LINE
8
boundary
62
5
39
2
10
62.695333
20
400.021559
11
62.695569
21
399.095791
0
LINE
8
boundary
62
5
39
2
10
62.695569
20
399.095791
11
62.667819
21
398.433279
0
LINE
8
boundary
62
5
39
2
10
62.667819
20
398.433279
11
62.614325
21
397.755875
0
LINE
8
boundary
62
5
39
2
10
62.614325
20
397.755875
11
62.531800
21
397.124410
0
LINE
8
boundary
62
5
39
2
10
62.531800
20
397.124410
11
62.417466
21
396.485104
0
LINE
8
boundary
62
5
39
2
10
62.417466
20
396.485104
11
62.270159
21
395.890505
0
LINE
8
boundary
62
5
39
2
10
62.270159
20
395.890505
11
62.085174
21
395.294990
0
LINE
8
boundary
62
5
39
2
10
62.085174
20
395.294990
11
61.862905
21
394.743111
0
LINE
8
boundary
62
5
39
2
10
61.862905
20
394.743111
11
61.597564
21
394.197550
0
LINE
8
boundary
62
5
39
2
10
61.597564
20
394.197550
11
61.289973
21
393.694230
0
LINE
8
boundary
62
5
39
2
10
61.289973
20
393.694230
11
60.934764
21
393.204309
0
LINE
8
boundary
62
5
39
2
10
60.934764
20
393.204309
11
60.531099
21
392.755715
0
LINE
8
boundary
62
5
39
2
10
60.531099
20
392.755715
11
60.076708
21
392.327228
0
LINE
8
boundary
62
5
39
2
10
60.076708
20
392.327228
11
59.566238
21
391.939487
0
LINE
8
boundary
62
5
39
2
10
59.566238
20
391.939487
11
59.003308
21
391.578151
0
LINE
8
boundary
62
5
39
2
10
59.003308
20
391.578151
11
58.374927
21
391.257539
0
LINE
8
boundary
62
5
39
2
10
58.374927
20
391.257539
11
57.694704
21
390.968907
0
LINE
8
boundary
62
5
39
2
10
57.694704
20
390.968907
11
57.202793
21
390.798962
0
LINE
8
boundary
62
5
39
2
10
57.202793
20
390.798962
11
56.681767
21
390.646349
0
LINE
8
boundary
62
5
39
2
10
56.681767
20
390.646349
11
56.130868
21
390.511465
0
LINE
8
boundary
62
5
39
2
10
56.130868
20
390.511465
11
55.549429
21
390.394636
0
LINE
8
boundary
62
5
39
2
10
55.549429
20
390.394636
11
54.936721
21
390.296502
0
LINE
8
boundary
62
5
39
2
10
54.936721
20
390.296502
11
54.291911
21
390.217397
0
LINE
8
boundary
62
5
39
2
10
54.291911
20
390.217397
11
53.614351
21
390.157826
0
LINE
8
boundary
62
5
39
2
10
53.614351
20
390.157826
11
52.903253
21
390.118049
0
LINE
8
boundary
62
5
39
2
10
52.903253
20
390.118049
11
52.157968
21
390.098708
0
LINE
8
boundary
62
5
39
2
10
52.157968
20
390.098708
11
51.377809
21
390.100206
0
LINE
8
boundary
62
5
39
2
10
51.377809
20
390.100206
11
50.561934
21
390.122826
0
LINE
8
boundary
62
5
39
2
10
50.561934
20
390.122826
11
49.709637
21
390.167175
0
LINE
8
boundary
62
5
39
2
10
49.709637
20
390.167175
11
48.820261
21
390.233492
0
LINE
8
boundary
62
5
39
2
10
48.820261
20
390.233492
11
48.311980
21
390.282627
0
LINE
8
boundary
62
5
39
2
10
48.311980
20
390.282627
11
46.961558
21
390.675551
0
LINE
8
boundary
62
5
39
2
10
46.961558
20
390.675551
11
46.215482
21
390.958634
0
LINE
8
boundary
62
5
39
2
10
46.215482
20
390.958634
11
45.299715
21
391.296816
0
LINE
8
boundary
62
5
39
2
10
45.299715
20
391.296816
11
44.581777
21
391.562139
0
LINE
8
boundary
62
5
39
2
10
44.581777
20
391.562139
11
43.677635
21
391.885482
0
LINE
8
boundary
62
5
39
2
10
43.677635
20
391.885482
11
42.983787
21
392.133752
0
LINE
8
boundary
62
5
39
2
10
42.983787
20
392.133752
11
42.086769
21
392.442196
0
LINE
8
boundary
62
5
39
2
10
42.086769
20
392.442196
11
41.413142
21
392.673937
0
LINE
8
boundary
62
5
39
2
10
41.413142
20
392.673937
11
40.518587
21
392.967648
0
LINE
8
boundary
62
5
39
2
10
40.518587
20
392.967648
11
39.861584
21
393.183395
0
LINE
8
boundary
62
5
39
2
10
39.861584
20
393.183395
11
38.964498
21
393.462438
0
LINE
8
boundary
62
5
39
2
10
38.964498
20
393.462438
11
38.320645
21
393.662753
0
LINE
8
boundary
62
5
39
2
10
38.320645
20
393.662753
11
37.416015
21
393.927428
0
LINE
8
boundary
62
5
39
2
10
37.416015
20
393.927428
11
36.782164
21
394.112824
0
LINE
8
boundary
62
5
39
2
10
36.782164
20
394.112824
11
35.864468
21
394.363173
0
LINE
8
boundary
62
5
39
2
10
35.864468
20
394.363173
11
35.237584
21
394.534084
0
LINE
8
boundary
62
5
39
2
10
35.237584
20
394.534084
11
34.301160
21
394.770330
0
LINE
8
boundary
62
5
39
2
10
34.301160
20
394.770330
11
33.678571
21
394.927276
0
LINE
8
boundary
62
5
39
2
10
33.678571
20
394.927276
11
32.717442
21
395.149632
0
LINE
8
boundary
62
5
39
2
10
32.717442
20
395.149632
11
32.096777
21
395.293069
0
LINE
8
boundary
62
5
39
2
10
32.096777
20
395.293069
11
31.104563
21
395.501655
0
LINE
8
boundary
62
5
39
2
10
31.104563
20
395.501655
11
30.483756
21
395.631988
0
LINE
8
boundary
62
5
39
2
10
30.483756
20
395.631988
11
29.453734
21
395.827157
0
LINE
8
boundary
62
5
39
2
10
29.453734
20
395.827157
11
28.831173
21
395.944855
0
LINE
8
boundary
62
5
39
2
10
28.831173
20
395.944855
11
27.755948
21
396.126613
0
LINE
8
boundary
62
5
39
2
10
27.755948
20
396.126613
11
27.130447
21
396.232065
0
LINE
8
boundary
62
5
39
2
10
27.130447
20
396.232065
11
26.002213
21
396.400855
0
LINE
8
boundary
62
5
39
2
10
26.002213
20
396.400855
11
25.373195
21
396.494638
0
LINE
8
boundary
62
5
39
2
10
25.373195
20
396.494638
11
24.183244
21
396.650456
0
LINE
8
boundary
62
5
39
2
10
24.183244
20
396.650456
11
23.550875
21
396.732909
0
LINE
8
boundary
62
5
39
2
10
23.550875
20
396.732909
11
22.289662
21
396.875923
0
LINE
8
boundary
62
5
39
2
10
22.289662
20
396.875923
11
21.654914
21
396.947594
0
LINE
8
boundary
62
5
39
2
10
21.654914
20
396.947594
11
21.589073
21
382.462876
0
LINE
8
boundary
62
5
39
2
10
21.589073
20
382.462876
11
21.578119
21
377.693285
0
LINE
8
boundary
62
5
39
2
10
21.578119
20
377.693285
11
25.867333
21
363.191508
0
LINE
8
boundary
62
5
39
2
10
25.867333
20
363.191508
11
34.970694
21
363.041508
0
LINE
8
boundary
62
5
39
2
10
34.970694
20
363.041508
11
34.970694
21
360.295508
0
LINE
8
boundary
62
5
39
2
10
34.970694
20
360.295508
11
26.778553
21
360.295508
0
LINE
8
boundary
62
5
39
2
10
26.778553
20
360.295508
11
30.635528
21
347.070300
0
LINE
8
boundary
62
5
39
2
10
30.635528
20
347.070300
11
32.732679
21
340.058514
0
LINE
8
boundary
62
5
39
2
10
32.732679
20
340.058514
11
33.364249
21
338.147275
0
LINE
8
boundary
62
5
39
2
10
33.364249
20
338.147275
11
34.075536
21
335.896607
0
LINE
8
boundary
62
5
39
2
10
34.075536
20
335.896607
11
34.750240
21
333.636573
0
LINE
8
boundary
62
5
39
2
10
34.750240
20
333.636573
11
35.388383
21
331.367446
0
LINE
8
boundary
62
5
39
2
10
35.388383
20
331.367446
11
35.990338
21
329.089440
0
LINE
8
boundary
62
5
39
2
10
35.990338
20
329.089440
11
36.556133
21
326.802741
0
LINE
8
boundary
62
5
39
2
10
36.556133
20
326.802741
11
37.086004
21
324.507707
0
LINE
8
boundary
62
5
39
2
10
37.086004
20
324.507707
11
37.580063
21
322.204603
0
LINE
8
boundary
62
5
39
2
10
37.580063
20
322.204603
11
38.038632
21
319.893415
0
LINE
8
boundary
62
5
39
2
10
38.038632
20
319.893415
11
38.461771
21
317.574659
0
LINE
8
boundary
62
5
39
2
10
38.461771
20
317.574659
11
38.849731
21
315.248404
0
LINE
8
boundary
62
5
39
2
10
38.849731
20
315.248404
11
39.202667
21
312.914976
0
LINE
8
boundary
62
5
39
2
10
39.202667
20
312.914976
11
39.520939
21
310.574656
0
LINE
8
boundary
62
5
39
2
10
39.520939
20
310.574656
11
39.804532
21
308.227597
0
LINE
8
boundary
62
5
39
2
10
39.804532
20
308.227597
11
40.053849
21
305.874069
0
LINE
8
boundary
62
5
39
2
10
40.053849
20
305.874069
11
40.268915
21
303.514413
0
LINE
8
boundary
62
5
39
2
10
40.268915
20
303.514413
11
40.450101
21
301.148840
0
LINE
8
boundary
62
5
39
2
10
40.450101
20
301.148840
11
40.597596
21
298.777676
0
LINE
8
boundary
62
5
39
2
10
40.597596
20
298.777676
11
40.711570
21
296.400976
0
LINE
8
boundary
62
5
39
2
10
40.711570
20
296.400976
11
40.792394
21
294.019142
0
LINE
8
boundary
62
5
39
2
10
40.792394
20
294.019142
11
40.840228
21
291.632633
0
LINE
8
boundary
62
5
39
2
10
40.840228
20
291.632633
11
40.855318
21
289.241405
0
LINE
8
boundary
62
5
39
2
10
40.855318
20
289.241405
11
40.837889
21
286.846024
0
LINE
8
boundary
62
5
39
2
10
40.837889
20
286.846024
11
40.788297
21
284.446505
0
LINE
8
boundary
62
5
39
2
10
40.788297
20
284.446505
11
40.706733
21
282.043366
0
LINE
8
boundary
62
5
39
2
10
40.706733
20
282.043366
11
40.593605
21
279.636849
0
LINE
8
boundary
62
5
39
2
10
40.593605
20
279.636849
11
40.449023
21
277.227218
0
LINE
8
boundary
62
5
39
2
10
40.449023
20
277.227218
11
40.273390
21
274.814809
0
LINE
8
boundary
62
5
39
2
10
40.273390
20
274.814809
11
40.067026
21
272.399911
0
LINE
8
boundary
62
5
39
2
10
40.067026
20
272.399911
11
39.830192
21
269.982892
0
LINE
8
boundary
62
5
39
2
10
39.830192
20
269.982892
11
39.563211
21
267.564016
0
LINE
8
boundary
62
5
39
2
10
39.563211
20
267.564016
11
39.266515
21
265.143740
0
LINE
8
boundary
62
5
39
2
10
39.266515
20
265.143740
11
38.940375
21
262.722251
0
LINE
8
boundary
62
5
39
2
10
38.940375
20
262.722251
11
38.585165
21
260.299985
0
LINE
8
boundary
62
5
39
2
10
38.585165
20
260.299985
11
38.201152
21
257.877317
0
LINE
8
boundary
62
5
39
2
10
38.201152
20
257.877317
11
37.976295
21
256.555630
0
LINE
8
boundary
62
5
39
2
10
37.976295
20
256.555630
11
37.781424
21
255.462248
0
LINE
8
boundary
62
5
39
2
10
37.781424
20
255.462248
11
37.325109
21
253.056919
0
LINE
8
boundary
62
5
39
2
10
37.325109
20
253.056919
11
36.841739
21
250.652537
0
LINE
8
boundary
62
5
39
2
10
36.841739
20
250.652537
11
36.331752
21
248.249408
0
LINE
8
boundary
62
5
39
2
10
36.331752
20
248.249408
11
35.795477
21
245.847997
0
LINE
8
boundary
62
5
39
2
10
35.795477
20
245.847997
11
35.233500
21
243.448628
0
LINE
8
boundary
62
5
39
2
10
35.233500
20
243.448628
11
34.646238
21
241.051736
0
LINE
8
boundary
62
5
39
2
10
34.646238
20
241.051736
11
34.034199
21
238.657630
0
LINE
8
boundary
62
5
39
2
10
34.034199
20
238.657630
11
33.397930
21
236.266811
0
LINE
8
boundary
62
5
39
2
10
33.397930
20
236.266811
11
32.737864
21
233.879679
0
LINE
8
boundary
62
5
39
2
10
32.737864
20
233.879679
11
32.054577
21
231.496627
0
LINE
8
boundary
62
5
39
2
10
32.054577
20
231.496627
11
31.348516
21
229.118040
0
LINE
8
boundary
62
5
39
2
10
31.348516
20
229.118040
11
30.620326
21
226.744480
0
LINE
8
boundary
62
5
39
2
10
30.620326
20
226.744480
11
29.870620
21
224.376272
0
LINE
8
boundary
62
5
39
2
10
29.870620
20
224.376272
11
29.099858
21
222.013977
0
LINE
8
boundary
62
5
39
2
10
29.099858
20
222.013977
11
28.308639
21
219.657913
0
LINE
8
boundary
62
5
39
2
10
28.308639
20
219.657913
11
27.497645
21
217.308728
0
LINE
8
boundary
62
5
39
2
10
27.497645
20
217.308728
11
26.667384
21
214.966743
0
LINE
8
boundary
62
5
39
2
10
26.667384
20
214.966743
11
25.818503
21
212.632472
0
LINE
8
boundary
62
5
39
2
10
25.818503
20
212.632472
11
24.951714
21
210.306415
0
LINE
8
boundary
62
5
39
2
10
24.951714
20
210.306415
11
24.067693
21
207.989074
0
LINE
8
boundary
62
5
39
2
10
24.067693
20
207.989074
11
23.167098
21
205.680919
0
LINE
8
boundary
62
5
39
2
10
23.167098
20
205.680919
11
22.250469
21
203.382502
0
LINE
8
boundary
62
5
39
2
10
22.250469
20
203.382502
11
21.910970
21
202.563660
0
LINE
8
boundary
62
5
39
2
10
21.910970
20
202.563660
11
20.372344
21
198.816773
0
LINE
8
boundary
62
5
39
2
10
20.372344
20
198.816773
11
19.982634
21
197.911781
0
LINE
8
boundary
62
5
39
2
10
19.982634
20
197.911781
11
18.439020
21
194.296009
0
LINE
8
boundary
62
5
39
2
10
18.439020
20
194.296009
11
17.995410
21
193.301390
0
LINE
8
boundary
62
5
39
2
10
17.995410
20
193.301390
11
16.456658
21
189.824417
0
LINE
8
boundary
62
5
39
2
10
16.456658
20
189.824417
11
16.172563
21
188.688388
0
LINE
8
boundary
62
5
39
2
10
16.172563
20
188.688388
11
15.266580
21
185.047660
0
LINE
8
boundary
62
5
39
2
10
15.266580
20
185.047660
11
14.971497
21
183.847334
0
LINE
8
boundary
62
5
39
2
10
14.971497
20
183.847334
11
14.054331
21
180.102197
0
LINE
8
boundary
62
5
39
2
10
14.054331
20
180.102197
11
13.906848
21
179.487304
0
LINE
8
boundary
62
5
39
2
10
13.906848
20
179.487304
11
13.447897
21
177.568312
0
LINE
8
boundary
62
5
39
2
10
13.447897
20
177.568312
11
13.301109
21
176.941931
0
LINE
8
boundary
62
5
39
2
10
13.301109
20
176.941931
11
12.845725
21
174.994662
0
LINE
8
boundary
62
5
39
2
10
12.845725
20
174.994662
11
12.700891
21
174.358867
0
LINE
8
boundary
62
5
39
2
10
12.700891
20
174.358867
11
12.251193
21
172.381955
0
LINE
8
boundary
62
5
39
2
10
12.251193
20
172.381955
11
12.109645
21
171.739192
0
LINE
8
boundary
62
5
39
2
10
12.109645
20
171.739192
11
11.667701
21
169.731068
0
LINE
8
boundary
62
5
39
2
10
11.667701
20
169.731068
11
11.530820
21
169.084177
0
LINE
8
boundary
62
5
39
2
10
11.530820
20
169.084177
11
11.098675
21
167.042652
0
LINE
8
boundary
62
5
39
2
10
11.098675
20
167.042652
11
10.967821
21
166.394911
0
LINE
8
boundary
62
5
39
2
10
10.967821
20
166.394911
11
10.547562
21
164.317362
0
LINE
8
boundary
62
5
39
2
10
10.547562
20
164.317362
11
10.424115
21
163.672539
0
LINE
8
boundary
62
5
39
2
10
10.424115
20
163.672539
11
10.017975
21
161.556096
0
LINE
8
boundary
62
5
39
2
10
10.017975
20
161.556096
11
9.903276
21
160.918346
0
LINE
8
boundary
62
5
39
2
10
9.903276
20
160.918346
11
9.513503
21
158.759342
0
LINE
8
boundary
62
5
39
2
10
9.513503
20
158.759342
11
9.408749
21
158.133353
0
LINE
8
boundary
62
5
39
2
10
9.408749
20
158.133353
11
9.037760
21
155.927816
0
LINE
8
boundary
62
5
39
2
10
9.037760
20
155.927816
11
8.944035
21
155.318710
0
LINE
8
boundary
62
5
39
2
10
8.944035
20
155.318710
11
8.594315
21
153.062130
0
LINE
8
boundary
62
5
39
2
10
8.594315
20
153.062130
11
8.512540
21
152.475496
0
LINE
8
boundary
62
5
39
2
10
8.512540
20
152.475496
11
8.187130
21
150.162881
0
LINE
8
boundary
62
5
39
2
10
8.187130
20
150.162881
11
8.117888
21
149.604744
0
LINE
8
boundary
62
5
39
2
10
8.117888
20
149.604744
11
7.819738
21
147.230721
0
LINE
8
boundary
62
5
39
2
10
7.819738
20
147.230721
11
7.763365
21
146.707507
0
LINE
8
boundary
62
5
39
2
10
7.763365
20
146.707507
11
7.496032
21
144.266238
0
LINE
8
boundary
62
5
39
2
10
7.496032
20
144.266238
11
7.219798
21
141.269827
0
LINE
8
boundary
62
5
39
2
10
7.219798
20
141.269827
11
6.994888
21
138.242171
0
LINE
8
boundary
62
5
39
2
10
6.994888
20
138.242171
11
6.902935
21
136.716814
0
LINE
8
boundary
62
5
39
2
10
6.902935
20
136.716814
11
6.825253
21
135.183833
0
LINE
8
boundary
62
5
39
2
10
6.825253
20
135.183833
11
6.762425
21
133.643251
0
LINE
8
boundary
62
5
39
2
10
6.762425
20
133.643251
11
6.714824
21
132.095218
0
LINE
8
boundary
62
5
39
2
10
6.714824
20
132.095218
11
6.683021
21
130.539829
0
LINE
8
boundary
62
5
39
2
10
6.683021
20
130.539829
11
6.667500
21
128.977079
0
LINE
8
boundary
62
5
39
2
10
6.667500
20
128.977079
11
6.668865
21
127.406966
0
LINE
8
boundary
62
5
39
2
10
6.668865
20
127.406966
11
6.687464
21
125.829608
0
LINE
8
boundary
62
5
39
2
10
6.687464
20
125.829608
11
6.723755
21
124.245169
0
LINE
8
boundary
62
5
39
2
10
6.723755
20
124.245169
11
6.764415
21
123.059313
0
LINE
8
boundary
62
5
39
2
10
6.764415
20
123.059313
11
6.822113
21
121.090679
0
LINE
8
boundary
62
5
39
2
10
6.822113
20
121.090679
11
6.889714
21
119.514918
0
LINE
8
boundary
62
5
39
2
10
6.889714
20
119.514918
11
6.975551
21
117.933330
0
LINE
8
boundary
62
5
39
2
10
6.975551
20
117.933330
11
7.080202
21
116.345939
0
LINE
8
boundary
62
5
39
2
10
7.080202
20
116.345939
11
7.204046
21
114.752864
0
LINE
8
boundary
62
5
39
2
10
7.204046
20
114.752864
11
7.347458
21
113.154127
0
LINE
8
boundary
62
5
39
2
10
7.347458
20
113.154127
11
7.511208
21
111.549775
0
LINE
8
boundary
62
5
39
2
10
7.511208
20
111.549775
11
7.695399
21
109.939806
0
LINE
8
boundary
62
5
39
2
10
7.695399
20
109.939806
11
7.900587
21
108.324394
0
LINE
8
boundary
62
5
39
2
10
7.900587
20
108.324394
11
8.127221
21
106.703505
0
LINE
8
boundary
62
5
39
2
10
8.127221
20
106.703505
11
8.375814
21
105.077150
0
LINE
8
boundary
62
5
39
2
10
8.375814
20
105.077150
11
8.646799
21
103.445475
0
LINE
8
boundary
62
5
39
2
10
8.646799
20
103.445475
11
8.940642
21
101.808486
0
LINE
8
boundary
62
5
39
2
10
8.940642
20
101.808486
11
9.257691
21
100.166300
0
LINE
8
boundary
62
5
39
2
10
9.257691
20
100.166300
11
9.598500
21
98.518946
0
LINE
8
boundary
62
5
39
2
10
9.598500
20
98.518946
11
9.963541
21
96.866532
0
LINE
8
boundary
62
5
39
2
10
9.963541
20
96.866532
11
10.545107
21
93.083424
0
LINE
8
boundary
62
5
39
2
10
10.545107
20
93.083424
11
10.759812
21
91.518968
0
LINE
8
boundary
62
5
39
2
10
10.759812
20
91.518968
11
11.226709
21
88.259922
0
LINE
8
boundary
62
5
39
2
10
11.226709
20
88.259922
11
11.485443
21
86.352327
0
LINE
8
boundary
62
5
39
2
10
11.485443
20
86.352327
11
11.723807
21
84.745377
0
LINE
8
boundary
62
5
39
2
10
11.723807
20
84.745377
11
11.874718
21
83.671084
0
LINE
8
boundary
62
5
39
2
10
11.874718
20
83.671084
11
12.117969
21
82.099099
0
LINE
8
boundary
62
5
39
2
10
12.117969
20
82.099099
11
12.289292
21
80.930380
0
LINE
8
boundary
62
5
39
2
10
12.289292
20
80.930380
11
12.539119
21
79.399649
0
LINE
8
boundary
62
5
39
2
10
12.539119
20
79.399649
11
12.734825
21
78.134679
0
LINE
8
boundary
62
5
39
2
10
12.734825
20
78.134679
11
12.992572
21
76.651039
0
LINE
8
boundary
62
5
39
2
10
12.992572
20
76.651039
11
13.217248
21
75.288476
0
LINE
8
boundary
62
5
39
2
10
13.217248
20
75.288476
11
13.483848
21
73.857288
0
LINE
8
boundary
62
5
39
2
10
13.483848
20
73.857288
11
13.742417
21
72.396443
0
LINE
8
boundary
62
5
39
2
10
13.742417
20
72.396443
11
14.018255
21
71.022529
0
LINE
8
boundary
62
5
39
2
10
14.018255
20
71.022529
11
14.316224
21
69.463392
0
LINE
8
boundary
62
5
39
2
10
14.316224
20
69.463392
11
14.601395
21
68.150942
0
LINE
8
boundary
62
5
39
2
10
14.601395
20
68.150942
11
14.944522
21
66.494280
0
LINE
8
boundary
62
5
39
2
10
14.944522
20
66.494280
11
15.090919
21
65.860140
0
LINE
8
boundary
62
5
39
2
10
15.090919
20
65.860140
11
15.281018
21
64.997770
0
LINE
8
boundary
62
5
39
2
10
15.281018
20
64.997770
11
15.429561
21
64.380436
0
LINE
8
boundary
62
5
39
2
10
15.429561
20
64.380436
11
15.633419
21
63.494135
0
LINE
8
boundary
62
5
39
2
10
15.633419
20
63.494135
11
15.784081
21
62.893961
0
LINE
8
boundary
62
5
39
2
10
15.784081
20
62.893961
11
16.002487
21
61.984132
0
LINE
8
boundary
62
5
39
2
10
16.002487
20
61.984132
11
16.155017
21
61.401415
0
LINE
8
boundary
62
5
39
2
10
16.155017
20
61.401415
11
16.388784
21
60.468402
0
LINE
8
boundary
62
5
39
2
10
16.388784
20
60.468402
11
16.543167
21
59.903349
0
LINE
8
boundary
62
5
39
2
10
16.543167
20
59.903349
11
16.793292
21
58.947608
0
LINE
8
boundary
62
5
39
2
10
16.793292
20
58.947608
11
16.949346
21
58.400457
0
LINE
8
boundary
62
5
39
2
10
16.949346
20
58.400457
11
17.216716
21
57.422474
0
LINE
8
boundary
62
5
39
2
10
17.216716
20
57.422474
11
17.374262
21
56.893372
0
LINE
8
boundary
62
5
39
2
10
17.374262
20
56.893372
11
17.659752
21
55.893713
0
LINE
8
boundary
62
5
39
2
10
17.659752
20
55.893713
11
17.818608
21
55.382807
0
LINE
8
boundary
62
5
39
2
10
17.818608
20
55.382807
11
18.123202
21
54.362206
0
LINE
8
boundary
62
5
39
2
10
18.123202
20
54.362206
11
18.283176
21
53.869500
0
LINE
8
boundary
62
5
39
2
10
18.283176
20
53.869500
11
18.607758
21
52.828523
0
LINE
8
boundary
62
5
39
2
10
18.607758
20
52.828523
11
19.114299
21
51.293509
0
LINE
8
boundary
62
5
39
2
10
19.114299
20
51.293509
11
19.643467
21
49.758057
0
LINE
8
boundary
62
5
39
2
10
19.643467
20
49.758057
11
20.196188
21
48.222898
0
LINE
8
boundary
62
5
39
2
10
20.196188
20
48.222898
11
20.773007
21
46.688893
0
LINE
8
boundary
62
5
39
2
10
20.773007
20
46.688893
11
21.374739
21
45.156993
0
LINE
8
boundary
62
5
39
2
10
21.374739
20
45.156993
11
22.002298
21
43.627931
0
LINE
8
boundary
62
5
39
2
10
22.002298
20
43.627931
11
22.656354
21
42.102784
0
LINE
8
boundary
62
5
39
2
10
22.656354
20
42.102784
11
23.337684
21
40.582478
0
LINE
8
boundary
62
5
39
2
10
23.337684
20
40.582478
11
24.047115
21
39.067916
0
LINE
8
boundary
62
5
39
2
10
24.047115
20
39.067916
11
24.785140
21
37.560141
0
LINE
8
boundary
62
5
39
2
10
24.785140
20
37.560141
11
25.552913
21
36.060265
0
LINE
8
boundary
62
5
39
2
10
25.552913
20
36.060265
11
26.350952
21
34.569317
0
LINE
8
boundary
62
5
39
2
10
26.350952
20
34.569317
11
27.179907
21
33.088473
0
LINE
8
boundary
62
5
39
2
10
27.179907
20
33.088473
11
28.040829
21
31.618781
0
LINE
8
boundary
62
5
39
2
10
28.040829
20
31.618781
11
28.934383
21
30.161489
0
LINE
8
boundary
62
5
39
2
10
28.934383
20
30.161489
11
29.861185
21
28.717812
0
LINE
8
boundary
62
5
39
2
10
29.861185
20
28.717812
11
30.822099
21
27.289087
0
LINE
8
boundary
62
5
39
2
10
30.822099
20
27.289087
11
31.817994
21
25.876635
0
LINE
8
boundary
62
5
39
2
10
31.817994
20
25.876635
11
32.849358
21
24.481753
0
LINE
8
boundary
62
5
39
2
10
32.849358
20
24.481753
11
33.917071
21
23.105876
0
LINE
8
boundary
62
5
39
2
10
33.917071
20
23.105876
11
35.021827
21
21.750498
0
LINE
8
boundary
62
5
39
2
10
35.021827
20
21.750498
11
36.164324
21
20.417172
0
LINE
8
boundary
62
5
39
2
10
36.164324
20
20.417172
11
37.345427
21
19.107466
0
LINE
8
boundary
62
5
39
2
10
37.345427
20
19.107466
11
38.565737
21
17.822967
0
LINE
8
boundary
62
5
39
2
10
38.565737
20
17.822967
11
39.826033
21
16.565362
0
LINE
8
boundary
62
5
39
2
10
39.826033
20
16.565362
11
41.126962
21
15.336429
0
LINE
8
boundary
62
5
39
2
10
41.126962
20
15.336429
11
42.469152
21
14.137946
0
LINE
8
boundary
62
5
39
2
10
42.469152
20
14.137946
11
43.853273
21
12.971845
0
LINE
8
boundary
62
5
39
2
10
43.853273
20
12.971845
11
45.280147
21
11.840014
0
LINE
8
boundary
62
5
39
2
10
45.280147
20
11.840014
11
46.750313
21
10.744362
0
LINE
8
boundary
62
5
39
2
10
46.750313
20
10.744362
11
48.264403
21
9.687180
0
LINE
8
boundary
62
5
39
2
10
48.264403
20
9.687180
11
49.823061
21
8.670323
0
LINE
8
boundary
62
5
39
2
10
49.823061
20
8.670323
11
51.426951
21
7.696132
0
LINE
8
boundary
62
5
39
2
10
51.426951
20
7.696132
11
51.969407
21
7.312115
0
LINE
8
boundary
62
5
39
2
10
51.969407
20
7.312115
11
52.649434
21
7.013226
0
LINE
8
boundary
62
5
39
2
10
52.649434
20
7.013226
11
53.168456
21
6.863631
0
LINE
8
boundary
62
5
39
2
10
53.168456
20
6.863631
11
53.732604
21
6.755266
0
LINE
8
boundary
62
5
39
2
10
53.732604
20
6.755266
11
54.335379
21
6.689480
0
LINE
8
boundary
62
5
39
2
10
54.335379
20
6.689480
11
54.970384
21
6.667500
0
LINE
8
boundary
62
5
39
2
10
54.970384
20
6.667500
11
55.631086
21
6.690563
0
LINE
8
boundary
62
5
39
2
10
55.631086
20
6.690563
11
56.311097
21
6.759635
0
LINE
8
boundary
62
5
39
2
10
56.311097
20
6.759635
11
57.004006
21
6.875757
0
LINE
8
boundary
62
5
39
2
10
57.004006
20
6.875757
11
57.703297
21
7.039907
0
LINE
8
boundary
62
5
39
2
10
57.703297
20
7.039907
11
58.402713
21
7.252830
0
LINE
8
boundary
62
5
39
2
10
58.402713
20
7.252830
11
59.095808
21
7.515262
0
LINE
8
boundary
62
5
39
2
10
59.095808
20
7.515262
11
59.776024
21
7.827834
0
LINE
8
boundary
62
5
39
2
10
59.776024
20
7.827834
11
60.437334
21
8.191077
0
LINE
8
boundary
62
5
39
2
10
60.437334
20
8.191077
11
61.073126
21
8.605406
0
LINE
8
boundary
62
5
39
2
10
61.073126
20
8.605406
11
61.677165
21
9.071313
0
LINE
8
boundary
62
5
39
2
10
61.677165
20
9.071313
11
62.243146
21
9.589028
0
LINE
8
boundary
62
5
39
2
10
62.243146
20
9.589028
11
62.764781
21
10.158718
0
LINE
8
boundary
62
5
39
2
10
62.764781
20
10.158718
11
63.235709
21
10.780836
0
LINE
8
boundary
62
5
39
2
10
63.235709
20
10.780836
11
63.649827
21
11.455421
0
LINE
8
boundary
62
5
39
2
10
63.649827
20
11.455421
11
64.000713
21
12.182722
0
LINE
8
boundary
62
5
39
2
10
64.000713
20
12.182722
11
64.282093
21
12.962904
0
LINE
8
boundary
62
5
39
2
10
64.282093
20
12.962904
11
64.487768
21
13.796304
0
LINE
8
boundary
62
5
39
2
10
64.487768
20
13.796304
11
64.611512
21
14.683174
0
LINE
8
boundary
62
5
39
2
10
64.611512
20
14.683174
11
64.640273
21
15.215993
0
LINE
8
boundary
62
5
39
2
10
64.640273
20
15.215993
11
64.629815
21
16.114765
0
LINE
8
boundary
62
5
39
2
10
64.629815
20
16.114765
11
64.576045
21
16.698257
0
LINE
8
boundary
62
5
39
2
10
64.576045
20
16.698257
11
64.504798
21
17.219988
0
LINE
8
boundary
62
5
39
2
10
64.504798
20
17.219988
11
64.407343
21
17.755635
0
LINE
8
boundary
62
5
39
2
10
64.407343
20
17.755635
11
64.282806
21
18.305402
0
LINE
8
boundary
62
5
39
2
10
64.282806
20
18.305402
11
64.130370
21
18.869304
0
LINE
8
boundary
62
5
39
2
10
64.130370
20
18.869304
11
63.949303
21
19.447570
0
LINE
8
boundary
62
5
39
2
10
63.949303
20
19.447570
11
63.781354
21
19.938298
0
LINE
8
boundary
62
5
39
2
10
63.781354
20
19.938298
11
63.546724
21
20.541447
0
LINE
8
boundary
62
5
39
2
10
63.546724
20
20.541447
11
63.281376
21
21.159187
0
LINE
8
boundary
62
5
39
2
10
63.281376
20
21.159187
11
62.984394
21
21.791796
0
LINE
8
boundary
62
5
39
2
10
62.984394
20
21.791796
11
62.655154
21
22.439472
0
LINE
8
boundary
62
5
39
2
10
62.655154
20
22.439472
11
61.854001
21
22.839592
0
LINE
8
boundary
62
5
39
2
10
61.854001
20
22.839592
11
61.049685
21
23.278126
0
LINE
8
boundary
62
5
39
2
10
61.049685
20
23.278126
11
60.242644
21
23.754652
0
LINE
8
boundary
62
5
39
2
10
60.242644
20
23.754652
11
59.433392
21
24.268896
0
LINE
8
boundary
62
5
39
2
10
59.433392
20
24.268896
11
58.622399
21
24.820472
0
LINE
8
boundary
62
5
39
2
10
58.622399
20
24.820472
11
57.810092
21
25.408949
0
LINE
8
boundary
62
5
39
2
10
57.810092
20
25.408949
11
56.997000
21
26.033860
0
LINE
8
boundary
62
5
39
2
10
56.997000
20
26.033860
11
56.183506
21
26.694885
0
LINE
8
boundary
62
5
39
2
10
56.183506
20
26.694885
11
55.369895
21
27.391520
0
LINE
8
boundary
62
5
39
2
10
55.369895
20
27.391520
11
54.557071
21
28.123311
0
LINE
8
boundary
62
5
39
2
10
54.557071
20
28.123311
11
53.745016
21
28.889746
0
LINE
8
boundary
62
5
39
2
10
53.745016
20
28.889746
11
52.934545
21
29.690393
0
LINE
8
boundary
62
5
39
2
10
52.934545
20
29.690393
11
52.125830
21
30.524731
0
LINE
8
boundary
62
5
39
2
10
52.125830
20
30.524731
11
51.319439
21
31.392286
0
LINE
8
boundary
62
5
39
2
10
51.319439
20
31.392286
11
50.515855
21
32.292496
0
LINE
8
boundary
62
5
39
2
10
50.515855
20
32.292496
11
49.715455
21
33.224746
0
LINE
8
boundary
62
5
39
2
10
49.715455
20
33.224746
11
48.918813
21
34.188645
0
LINE
8
boundary
62
5
39
2
10
48.918813
20
34.188645
11
48.126345
21
35.183518
0
LINE
8
boundary
62
5
39
2
10
48.126345
20
35.183518
11
47.338395
21
36.208841
0
LINE
8
boundary
62
5
39
2
10
47.338395
20
36.208841
11
46.555480
21
37.264048
0
LINE
8
boundary
62
5
39
2
10
46.555480
20
37.264048
11
45.778055
21
38.348541
0
LINE
8
boundary
62
5
39
2
10
45.778055
20
38.348541
11
45.006620
21
39.461731
0
LINE
8
annotation
62
1
39
211
10
41.332809
20
359.377975
11
41.332809
21
363.959041
0
LINE
8
annotation
62
1
39
211
10
41.332809
20
363.959041
11
40.314380
21
362.940324
0
LINE
8
annotation
62
1
39
211
10
39.484217
20
442.653458
11
37.506557
21
442.653458
0
LINE
8
annotation
62
1
39
211
10
37.506557
20
442.653458
11
39.333979
21
445.595373
0
LINE
8
annotation
62
1
39
211
10
39.333979
20
445.595373
11
39.333979
21
445.595373
0
LINE
8
annotation
62
1
39
211
10
39.333979
20
445.595373
11
39.336164
21
445.598077
0
LINE
8
annotation
62
1
39
211
10
39.336164
20
445.598077
11
39.338259
21
445.600803
0
LINE
8
annotation
62
1
39
211
10
39.338259
20
445.600803
11
39.340278
21
445.603575
0
LINE
8
annotation
62
1
39
211
10
39.340278
20
445.603575
11
39.342235
21
445.606416
0
LINE
8
annotation
62
1
39
211
10
39.342235
20
445.606416
11
39.344144
21
445.609349
0
LINE
8
annotation
62
1
39
211
10
39.344144
20
445.609349
11
39.346018
21
445.612397
0
LINE
8
annotation
62
1
39
211
10
39.346018
20
445.612397
11
39.347872
21
445.615583
0
LINE
8
annotation
62
1
39
211
10
39.347872
20
445.615583
11
39.349719
21
445.618930
0
LINE
8
annotation
62
1
39
211
10
39.349719
20
445.618930
11
39.351572
21
445.622461
0
LINE
8
annotation
62
1
39
211
10
39.351572
20
445.622461
11
39.351572
21
445.622461
0
LINE
8
annotation
62
1
39
211
10
39.351572
20
445.622461
11
39.427026
21
445.784467
0
LINE
8
annotation
62
1
39
211
10
39.427026
20
445.784467
11
39.471105
21
445.952400
0
LINE
8
annotation
62
1
39
211
10
39.471105
20
445.952400
11
39.484889
21
446.122466
0
LINE
8
annotation
62
1
39
211
10
39.484889
20
446.122466
11
39.469458
21
446.290870
0
LINE
8
annotation
62
1
39
211
10
39.469458
20
446.290870
11
39.425894
21
446.453818
0
LINE
8
annotation
62
1
39
211
10
39.425894
20
446.453818
11
39.355275
21
446.607516
0
LINE
8
annotation
62
1
39
211
10
39.355275
20
446.607516
11
39.258682
21
446.748167
0
LINE
8
annotation
62
1
39
211
10
39.258682
20
446.748167
11
39.137196
21
446.871979
0
LINE
8
annotation
62
1
39
211
10
39.137196
20
446.871979
11
38.991896
21
446.975155
0
LINE
8
annotation
62
1
39
211
10
38.991896
20
446.975155
11
38.991896
21
446.975155
0
LINE
8
annotation
62
1
39
211
10
38.991896
20
446.975155
11
38.829440
21
447.049537
0
LINE
8
annotation
62
1
39
211
10
38.829440
20
447.049537
11
38.661249
21
447.092937
0
LINE
8
annotation
62
1
39
211
10
38.661249
20
447.092937
11
38.491084
21
447.106331
0
LINE
8
annotation
62
1
39
211
10
38.491084
20
447.106331
11
38.322705
21
447.090697
0
LINE
8
annotation
62
1
39
211
10
38.322705
20
447.090697
11
38.159872
21
447.047012
0
LINE
8
annotation
62
1
39
211
10
38.159872
20
447.047012
11
38.006345
21
446.976252
0
LINE
8
annotation
62
1
39
211
10
38.006345
20
446.976252
11
37.865884
21
446.879394
0
LINE
8
annotation
62
1
39
211
10
37.865884
20
446.879394
11
37.742250
21
446.757414
0
LINE
8
annotation
62
1
39
211
10
37.742250
20
446.757414
11
37.639202
21
446.611291
0
LINE
8
annotation
62
1
39
211
10
37.639202
20
446.611291
11
37.509350
21
446.362198
0
LINE
8
annotation
62
1
39
211
10
77.605739
20
392.623077
11
74.913281
21
388.728683
0
LINE
8
annotation
62
1
39
211
10
74.913281
20
388.728683
11
72.220316
21
392.623077
0
LINE
8
annotation
62
1
39
211
10
74.913281
20
389.042077
11
74.913281
21
384.549247
0
LINE
8
annotation
62
1
39
211
10
85.048603
20
388.586162
11
80.634247
21
388.586162
0
LINE
8
annotation
62
1
39
211
10
89.870396
20
384.549500
11
89.870396
21
392.622823
0
LINE
8
annotation
62
1
39
211
10
89.870396
20
392.622823
11
88.075593
21
390.827514
0
LINE
8
annotation
62
1
39
211
10
94.194430
20
384.655990
11
94.194430
21
384.655990
0
LINE
8
annotation
62
1
39
211
10
94.194430
20
384.655990
11
94.382064
21
384.585847
0
LINE
8
annotation
62
1
39
211
10
94.382064
20
384.585847
11
94.574498
21
384.550999
0
LINE
8
annotation
62
1
39
211
10
94.574498
20
384.550999
11
94.767383
21
384.550025
0
LINE
8
annotation
62
1
39
211
10
94.767383
20
384.550025
11
94.956367
21
384.581503
0
LINE
8
annotation
62
1
39
211
10
94.956367
20
384.581503
11
95.137100
21
384.644013
0
LINE
8
annotation
62
1
39
211
10
95.137100
20
384.644013
11
95.305233
21
384.736134
0
LINE
8
annotation
62
1
39
211
10
95.305233
20
384.736134
11
95.456414
21
384.856445
0
LINE
8
annotation
62
1
39
211
10
95.456414
20
384.856445
11
95.586293
21
385.003524
0
LINE
8
annotation
62
1
39
211
10
95.586293
20
385.003524
11
95.690521
21
385.175951
0
LINE
8
annotation
62
1
39
211
10
95.690521
20
385.175951
11
95.690521
21
385.175951
0
LINE
8
annotation
62
1
39
211
10
95.690521
20
385.175951
11
96.001496
21
385.903866
0
LINE
8
annotation
62
1
39
211
10
96.001496
20
385.903866
11
96.234728
21
386.652849
0
LINE
8
annotation
62
1
39
211
10
96.234728
20
386.652849
11
96.390216
21
387.416928
0
LINE
8
annotation
62
1
39
211
10
96.390216
20
387.416928
11
96.467959
21
388.190134
0
LINE
8
annotation
62
1
39
211
10
96.467959
20
388.190134
11
96.467959
21
388.966494
0
LINE
8
annotation
62
1
39
211
10
96.467959
20
388.966494
11
96.390216
21
389.740037
0
LINE
8
annotation
62
1
39
211
10
96.390216
20
389.740037
11
96.234728
21
390.504792
0
LINE
8
annotation
62
1
39
211
10
96.234728
20
390.504792
11
96.001496
21
391.254788
0
LINE
8
annotation
62
1
39
211
10
96.001496
20
391.254788
11
95.690521
21
391.984052
0
LINE
8
annotation
62
1
39
211
10
95.690521
20
391.984052
11
95.690521
21
391.984052
0
LINE
8
annotation
62
1
39
211
10
95.690521
20
391.984052
11
95.650974
21
392.057651
0
LINE
8
annotation
62
1
39
211
10
95.650974
20
392.057651
11
95.606139
21
392.128016
0
LINE
8
annotation
62
1
39
211
10
95.606139
20
392.128016
11
95.556354
21
392.194801
0
LINE
8
annotation
62
1
39
211
10
95.556354
20
392.194801
11
95.501955
21
392.257661
0
LINE
8
annotation
62
1
39
211
10
95.501955
20
392.257661
11
95.443282
21
392.316250
0
LINE
8
annotation
62
1
39
211
10
95.443282
20
392.316250
11
95.380670
21
392.370221
0
LINE
8
annotation
62
1
39
211
10
95.380670
20
392.370221
11
95.314459
21
392.419230
0
LINE
8
annotation
62
1
39
211
10
95.314459
20
392.419230
11
95.244984
21
392.462930
0
LINE
8
annotation
62
1
39
211
10
95.244984
20
392.462930
11
95.172585
21
392.500976
0
LINE
8
annotation
62
1
39
211
10
95.172585
20
392.500976
11
95.172585
21
392.500976
0
LINE
8
annotation
62
1
39
211
10
95.172585
20
392.500976
11
94.983461
21
392.572639
0
LINE
8
annotation
62
1
39
211
10
94.983461
20
392.572639
11
94.789899
21
392.608678
0
LINE
8
annotation
62
1
39
211
10
94.789899
20
392.608678
11
94.596200
21
392.610522
0
LINE
8
annotation
62
1
39
211
10
94.596200
20
392.610522
11
94.406664
21
392.579602
0
LINE
8
annotation
62
1
39
211
10
94.406664
20
392.579602
11
94.225590
21
392.517345
0
LINE
8
annotation
62
1
39
211
10
94.225590
20
392.517345
11
94.057281
21
392.425182
0
LINE
8
annotation
62
1
39
211
10
94.057281
20
392.425182
11
93.906035
21
392.304542
0
LINE
8
annotation
62
1
39
211
10
93.906035
20
392.304542
11
93.776154
21
392.156853
0
LINE
8
annotation
62
1
39
211
10
93.776154
20
392.156853
11
93.671937
21
391.983546
0
LINE
8
annotation
62
1
39
211
10
93.671937
20
391.983546
11
93.671937
21
391.983546
0
LINE
8
annotation
62
1
39
211
10
93.671937
20
391.983546
11
93.362461
21
391.255782
0
LINE
8
annotation
62
1
39
211
10
93.362461
20
391.255782
11
93.130355
21
390.506911
0
LINE
8
annotation
62
1
39
211
10
93.130355
20
390.506911
11
92.975617
21
389.742906
0
LINE
8
annotation
62
1
39
211
10
92.975617
20
389.742906
11
92.898248
21
388.969738
0
LINE
8
annotation
62
1
39
211
10
92.898248
20
388.969738
11
92.898248
21
388.193378
0
LINE
8
annotation
62
1
39
211
10
92.898248
20
388.193378
11
92.975617
21
387.419797
0
LINE
8
annotation
62
1
39
211
10
92.975617
20
387.419797
11
93.130355
21
386.654967
0
LINE
8
annotation
62
1
39
211
10
93.130355
20
386.654967
11
93.362461
21
385.904860
0
LINE
8
annotation
62
1
39
211
10
93.362461
20
385.904860
11
93.671937
21
385.175445
0
LINE
8
annotation
62
1
39
211
10
93.671937
20
385.175445
11
93.671937
21
385.175445
0
LINE
8
annotation
62
1
39
211
10
93.671937
20
385.175445
11
93.711340
21
385.101993
0
LINE
8
annotation
62
1
39
211
10
93.711340
20
385.101993
11
93.755844
21
385.031979
0
LINE
8
annotation
62
1
39
211
10
93.755844
20
385.031979
11
93.805260
21
384.965615
0
LINE
8
annotation
62
1
39
211
10
93.805260
20
384.965615
11
93.859402
21
384.903114
0
LINE
8
annotation
62
1
39
211
10
93.859402
20
384.903114
11
93.918082
21
384.844689
0
LINE
8
annotation
62
1
39
211
10
93.918082
20
384.844689
11
93.981112
21
384.790551
0
LINE
8
annotation
62
1
39
211
10
93.981112
20
384.790551
11
94.048305
21
384.740914
0
LINE
8
annotation
62
1
39
211
10
94.048305
20
384.740914
11
94.119473
21
384.695989
0
LINE
8
annotation
62
1
39
211
10
94.119473
20
384.695989
11
94.194430
21
384.655990
0
LINE
8
frame
62
5
39
2
10
0.000000
20
0.000000
11
215.900000
21
0.000000
0
LINE
8
frame
62
5
39
2
10
215.900000
20
0.000000
11
215.900000
21
279.400000
0
LINE
8
frame
62
5
39
2
10
215.900000
20
279.400000
11
0.000000
21
279.400000
0
LINE
8
frame
62
5
39
2
10
0.000000
20
279.400000
11
0.000000
21
0.000000
0
ENDSEC
0
EOF
